<?xml version="1.0" encoding="utf-8"?>
<!-- Generator: Adobe Illustrator 21.1.0, SVG Export Plug-In . SVG Version: 6.00 Build 0)  -->
<svg version="1.1" id="Capa_1" xmlns="http://www.w3.org/2000/svg" xmlns:xlink="http://www.w3.org/1999/xlink" x="0px" y="0px"
	 viewBox="0 0 220 220" style="enable-background:new 0 0 220 220;" xml:space="preserve">
<style type="text/css">
	.st0{fill:#FFFFFF;}
	.st1{fill:#89D4F2;}
	.st2{fill:#666666;}
</style>
<g>
	<circle class="st0" cx="110" cy="110" r="108.7"/>
	<g>
		<g>
			<g>
				<path class="st1" d="M98.6,148h6v2.5h-8.5l0,0C96.1,149.1,97.2,148,98.6,148z"/>
				<g>
					<rect x="96.1" y="110.6" class="st1" width="51.1" height="2.5"/>
					<rect x="96.1" y="103.1" class="st1" width="51.1" height="2.5"/>
					<path class="st1" d="M96.1,118.1h34.1v0c0,1.4-1.1,2.5-2.5,2.5H96.1V118.1z"/>
					<path class="st1" d="M96.1,95.5h34.1v0c0,1.4-1.1,2.5-2.5,2.5H96.1V95.5z"/>
					<rect x="134.5" y="118.1" class="st1" width="12.8" height="2.5"/>
					<rect x="134.5" y="80.2" class="st1" width="12.8" height="2.5"/>
					<rect x="96.1" y="125.5" class="st1" width="51.1" height="2.5"/>
					<rect x="96.1" y="140.5" class="st1" width="51.1" height="2.5"/>
					<rect x="115.3" y="133" class="st1" width="32" height="2.5"/>
					<rect x="96.1" y="133" class="st1" width="14.9" height="2.5"/>
					<rect x="108.9" y="148" class="st1" width="38.4" height="2.5"/>
				</g>
			</g>
			<path class="st2" d="M174.7,43.6h-62.8c-5.7,0-10.4,4.7-10.4,10.4v2.2h-0.9c-5.7,0-10.4,4.7-10.4,10.4v1
				c-5.7,0.9-10.1,5.9-10.1,11.8v76.8c0,6.6,5.4,12,12,12h59.6c6.3,0,11.5-4.9,12-11.2c5.6-0.2,10.1-4.7,10.1-10.4v-2.2h0.9
				c5.7,0,10.4-4.7,10.4-10.4V54C185.1,48.3,180.5,43.6,174.7,43.6z M151.8,164.1H92.2c-4.4,0-8-3.6-8-8V79.4c0-4.4,3.6-8,8-8h59.6
				c4.4,0,8,3.6,8,8v76.8C159.8,160.5,156.2,164.1,151.8,164.1z M169.8,146.6c0,3.4-2.7,6.2-6.1,6.4V79.4v-1.6
				c0-5.7-4.7-10.4-10.4-10.4h-1.6H94.2v-0.8c0-3.5,2.9-6.4,6.4-6.4h62.8c3.5,0,6.4,2.9,6.4,6.4V146.6z M181.1,134
				c0,3.4-2.7,6.2-6.1,6.4V65.2c0-5.7-4.7-10.4-10.4-10.4h-59.2V54c0-3.5,2.9-6.4,6.4-6.4h62.8c3.5,0,6.4,2.9,6.4,6.4V134z"/>
		</g>
	</g>
	<g>
		<g>
			<g>
				<path class="st2" d="M28.2,129.3h11.6V95.2H30v-6.6c5.4-1,9.1-2.4,12.5-4.5h7.9v45.2h10.1v8.7H28.2V129.3z"/>
			</g>
		</g>
	</g>
</g>
</svg>
