<?xml version="1.0" encoding="utf-8"?>
<!-- Generator: Adobe Illustrator 21.1.0, SVG Export Plug-In . SVG Version: 6.00 Build 0)  -->
<svg version="1.1" id="Capa_1" xmlns="http://www.w3.org/2000/svg" xmlns:xlink="http://www.w3.org/1999/xlink" x="0px" y="0px"
	 viewBox="0 0 220 220" style="enable-background:new 0 0 220 220;" xml:space="preserve">
<style type="text/css">
	.st0{fill:#FFFFFF;}
	.st1{fill:#666666;}
	.st2{fill:#89D4F2;}
</style>
<g>
	<circle class="st0" cx="110" cy="110" r="108.7"/>
	<g>
		<g>
			<g>
				<path class="st1" d="M48.4,94.3c-1.9-2.2-5.2-3.9-8.3-3.9c-6.2,0-11.3,4.7-11.7,18.1c2.9-3.6,7.6-5.8,11.1-5.8
					c9,0,15.4,5.4,15.4,17c0,11.1-7.7,18-16.9,18c-10.3,0-19.4-8.2-19.4-27.2c0-20.1,10-28.7,20.8-28.7c6.6,0,11.4,2.8,14.6,6.1
					L48.4,94.3z M45,119.7c0-6.4-3-9.4-7.6-9.4c-2.9,0-6.1,1.5-8.8,5.7c1,9.8,4.7,13.6,9.2,13.6C41.7,129.6,45,126.3,45,119.7z"/>
			</g>
		</g>
	</g>
	<g>
		<g>
			<g>
				<rect x="114.4" y="108.4" class="st2" width="34.1" height="1.7"/>
				<rect x="114.4" y="103.4" class="st2" width="34.1" height="1.7"/>
				<rect x="114.4" y="113.4" class="st2" width="22.7" height="1.7"/>
				<rect x="114.4" y="98.3" class="st2" width="22.7" height="1.7"/>
				<rect x="140" y="113.4" class="st2" width="8.5" height="1.7"/>
				<rect x="140" y="88.1" class="st2" width="8.5" height="1.7"/>
				<rect x="114.4" y="118.3" class="st2" width="34.1" height="1.7"/>
				<rect x="114.4" y="128.3" class="st2" width="34.1" height="1.7"/>
				<rect x="127.2" y="123.3" class="st2" width="21.3" height="1.7"/>
				<rect x="114.4" y="123.3" class="st2" width="9.9" height="1.7"/>
				<rect x="114.4" y="133.3" class="st2" width="5.7" height="1.7"/>
				<rect x="123" y="133.3" class="st2" width="25.6" height="1.7"/>
			</g>
			<path class="st1" d="M159.3,72h-41.9c-3.9,0-7.1,3.2-7.1,7.1v1.4c-3.9,1.8-6.7,5.8-6.7,10.4v44.5c0,6.3,5.2,11.5,11.5,11.5h33
				c4.9,0,9.1-3.1,10.7-7.4h0.4c3.9,0,7.1-3.2,7.1-7.1V79.1C166.4,75.2,163.2,72,159.3,72z M148.2,143.9h-33c-4.7,0-8.5-3.8-8.5-8.5
				V90.9c0-4.7,3.8-8.5,8.5-8.5h33c4.7,0,8.5,3.8,8.5,8.5v44.5C156.7,140.1,152.8,143.9,148.2,143.9z M163.4,132.4
				c0,2.1-1.6,3.9-3.7,4.1v-1V90.9v-4.4c0-3.9-3.2-7.1-7.1-7.1h-4.4h-33h-1.8v-0.4c0-2.3,1.8-4.1,4.1-4.1h41.9
				c2.2,0,4.1,1.8,4.1,4.1V132.4z"/>
		</g>
		<g>
			<path class="st2" d="M138.3,177.8c-0.8,0-1.5-0.6-1.5-1.4c0-0.8,0.6-1.5,1.4-1.6c3.3-0.2,6.5-0.6,9.7-1.3
				c0.8-0.2,1.6,0.4,1.8,1.2s-0.4,1.6-1.2,1.8C145.2,177.2,141.8,177.6,138.3,177.8C138.3,177.8,138.3,177.8,138.3,177.8z
				 M130.3,177.8c0,0-0.1,0-0.1,0c-3.4-0.2-6.8-0.7-10.1-1.5c-0.8-0.2-1.3-1-1.1-1.8c0.2-0.8,1-1.3,1.8-1.1c3.2,0.7,6.4,1.2,9.7,1.4
				c0.8,0.1,1.5,0.8,1.4,1.6C131.7,177.1,131,177.8,130.3,177.8z M155.9,174.4c-0.6,0-1.2-0.4-1.4-1c-0.3-0.8,0.2-1.6,0.9-1.9
				c3.1-1,6.1-2.3,9-3.8c0.7-0.4,1.6-0.1,2,0.6c0.4,0.7,0.1,1.6-0.6,2c-3,1.6-6.2,2.9-9.4,4C156.2,174.4,156.1,174.4,155.9,174.4z
				 M112.7,174.1c-0.2,0-0.3,0-0.5-0.1c-3.2-1.1-6.4-2.5-9.4-4.1c-0.7-0.4-1-1.3-0.6-2c0.4-0.7,1.3-1,2-0.6c2.9,1.5,5.9,2.9,8.9,4
				c0.8,0.3,1.2,1.1,0.9,1.9C113.9,173.7,113.3,174.1,112.7,174.1z M172,166.4c-0.5,0-0.9-0.2-1.2-0.7c-0.5-0.7-0.3-1.6,0.4-2.1
				c2.7-1.8,5.2-3.9,7.6-6.1c0.6-0.6,1.6-0.5,2.1,0.1s0.5,1.6-0.1,2.1c-2.5,2.3-5.2,4.5-8,6.4C172.6,166.3,172.3,166.4,172,166.4z
				 M96.7,165.9c-0.3,0-0.6-0.1-0.9-0.3c-2.8-2-5.4-4.2-7.9-6.5c-0.6-0.6-0.6-1.5,0-2.1c0.6-0.6,1.5-0.6,2.1,0
				c2.3,2.3,4.9,4.4,7.5,6.2c0.7,0.5,0.8,1.4,0.4,2.1C97.6,165.6,97.2,165.9,96.7,165.9z M185.3,154.3c-0.3,0-0.7-0.1-1-0.4
				c-0.6-0.5-0.7-1.5-0.2-2.1c2.1-2.5,4-5.2,5.7-7.9c0.4-0.7,1.4-0.9,2.1-0.5c0.7,0.4,0.9,1.4,0.5,2.1c-1.8,2.9-3.8,5.7-6,8.3
				C186.1,154.1,185.7,154.3,185.3,154.3z M83.6,153.6c-0.4,0-0.9-0.2-1.2-0.6c-2.2-2.6-4.1-5.5-5.9-8.4c-0.4-0.7-0.2-1.6,0.5-2.1
				c0.7-0.4,1.6-0.2,2.1,0.5c1.7,2.8,3.5,5.5,5.6,8c0.5,0.6,0.4,1.6-0.2,2.1C84.2,153.5,83.9,153.6,83.6,153.6z M194.9,139.1
				c-0.2,0-0.4,0-0.6-0.1c-0.8-0.3-1.1-1.2-0.7-2c1.3-3,2.5-6.1,3.3-9.2c0.2-0.8,1-1.3,1.8-1c0.8,0.2,1.3,1,1,1.8
				c-0.9,3.3-2.1,6.5-3.5,9.6C196,138.8,195.4,139.1,194.9,139.1z M74.2,138.3c-0.6,0-1.1-0.3-1.4-0.9c-1.4-3.1-2.5-6.4-3.4-9.7
				c-0.2-0.8,0.3-1.6,1.1-1.8c0.8-0.2,1.6,0.3,1.8,1.1c0.8,3.1,1.9,6.2,3.2,9.2c0.3,0.8,0,1.6-0.8,2
				C74.6,138.2,74.4,138.3,74.2,138.3z M200,121.9c-0.1,0-0.2,0-0.2,0c-0.8-0.1-1.4-0.9-1.3-1.7c0.5-3.2,0.7-6.5,0.7-9.8v-0.2
				c0-0.8,0.7-1.5,1.5-1.5s1.5,0.7,1.5,1.5v0.2c0,3.4-0.3,6.8-0.8,10.2C201.3,121.3,200.7,121.9,200,121.9z M69.3,121
				c-0.7,0-1.4-0.5-1.5-1.3c-0.4-3.1-0.6-6.2-0.6-9.3c0-0.3,0-0.6,0-0.9c0-0.8,0.7-1.5,1.5-1.5c0,0,0,0,0,0c0.8,0,1.5,0.7,1.5,1.5
				c0,0.3,0,0.6,0,0.9c0,3,0.2,5.9,0.6,8.9c0.1,0.8-0.5,1.6-1.3,1.7C69.5,121,69.4,121,69.3,121z M200.2,103.7
				c-0.7,0-1.4-0.6-1.5-1.3c-0.4-3.2-1-6.5-1.9-9.6c-0.2-0.8,0.2-1.6,1-1.9c0.8-0.2,1.6,0.2,1.9,1c0.9,3.3,1.6,6.6,2,10
				c0.1,0.8-0.5,1.6-1.3,1.7C200.3,103.7,200.3,103.7,200.2,103.7z M69.3,103c-0.1,0-0.1,0-0.2,0c-0.8-0.1-1.4-0.9-1.3-1.7
				c0.5-3.4,1.2-6.7,2.1-10c0.2-0.8,1.1-1.2,1.9-1c0.8,0.2,1.2,1.1,1,1.9c-0.9,3.1-1.6,6.3-2,9.6C70.7,102.5,70.1,103,69.3,103z
				 M195.6,86.4c-0.6,0-1.1-0.3-1.4-0.9c-1.3-3-2.8-5.9-4.5-8.7c-0.4-0.7-0.2-1.6,0.5-2.1c0.7-0.4,1.6-0.2,2.1,0.5
				c1.8,2.9,3.3,6,4.7,9.1c0.3,0.8,0,1.6-0.8,2C196,86.3,195.8,86.4,195.6,86.4z M74.1,85.7c-0.2,0-0.4,0-0.6-0.1
				c-0.8-0.3-1.1-1.2-0.8-2c1.4-3.1,3-6.2,4.8-9.1c0.4-0.7,1.4-0.9,2.1-0.5c0.7,0.4,0.9,1.4,0.5,2.1c-1.7,2.8-3.3,5.7-4.6,8.7
				C75.3,85.3,74.7,85.7,74.1,85.7z M186.5,70.9c-0.4,0-0.9-0.2-1.2-0.6c-2-2.5-4.3-5-6.6-7.2c-0.6-0.6-0.6-1.5-0.1-2.1
				c0.6-0.6,1.5-0.6,2.1-0.1c2.5,2.3,4.8,4.8,6.9,7.5c0.5,0.6,0.4,1.6-0.2,2.1C187.1,70.8,186.8,70.9,186.5,70.9z M83.5,70.3
				c-0.3,0-0.7-0.1-0.9-0.3c-0.6-0.5-0.7-1.5-0.2-2.1c2.1-2.6,4.5-5.1,7-7.4c0.6-0.6,1.6-0.5,2.1,0.1c0.6,0.6,0.5,1.6-0.1,2.1
				c-2.4,2.2-4.7,4.6-6.7,7.1C84.3,70.1,83.9,70.3,83.5,70.3z M173.5,58.5c-0.3,0-0.6-0.1-0.9-0.3c-2.6-1.9-5.4-3.6-8.3-5.1
				c-0.7-0.4-1-1.3-0.6-2c0.4-0.7,1.3-1,2-0.6c3,1.6,6,3.4,8.7,5.4c0.7,0.5,0.8,1.4,0.3,2.1C174.4,58.3,174,58.5,173.5,58.5z
				 M96.6,58c-0.5,0-0.9-0.2-1.2-0.6c-0.5-0.7-0.3-1.6,0.4-2.1c2.8-2,5.7-3.7,8.8-5.3c0.7-0.4,1.6-0.1,2,0.7c0.4,0.7,0.1,1.6-0.7,2
				c-2.9,1.5-5.7,3.2-8.4,5C97.2,57.9,96.9,58,96.6,58z M157.6,50c-0.2,0-0.3,0-0.5-0.1c-3-1.1-6.2-2-9.4-2.7
				c-0.8-0.2-1.3-1-1.2-1.8c0.2-0.8,1-1.3,1.8-1.2c3.3,0.7,6.7,1.6,9.8,2.8c0.8,0.3,1.2,1.2,0.9,1.9C158.8,49.6,158.3,50,157.6,50z
				 M112.5,49.7c-0.6,0-1.2-0.4-1.4-1c-0.3-0.8,0.1-1.6,0.9-1.9c3.2-1.1,6.5-2.1,9.9-2.7c0.8-0.2,1.6,0.4,1.8,1.2
				c0.2,0.8-0.4,1.6-1.2,1.8c-3.2,0.6-6.4,1.5-9.4,2.6C112.8,49.7,112.7,49.7,112.5,49.7z M140.1,46.1c0,0-0.1,0-0.1,0
				c-1.7-0.1-3.5-0.2-5.2-0.2c0,0,0,0,0,0c-1.5,0-3,0.1-4.5,0.2c-0.8,0.1-1.5-0.6-1.6-1.4s0.6-1.5,1.4-1.6c1.6-0.1,3.2-0.2,4.7-0.2
				c1.8,0,3.7,0.1,5.5,0.2c0.8,0.1,1.4,0.8,1.4,1.6C141.5,45.5,140.9,46.1,140.1,46.1z"/>
		</g>
		<g>
			<path class="st0" d="M134,29.1c-7.2,0-13.1,5.9-13.1,13.1s5.9,13.1,13.1,13.1c7.2,0,13.1-5.9,13.1-13.1S141.3,29.1,134,29.1
				L134,29.1z M134,52.9c-5.9,0-10.7-4.8-10.7-10.7s4.8-10.7,10.7-10.7s10.7,4.8,10.7,10.7S139.9,52.9,134,52.9L134,52.9z M134,52.9
				"/>
			<path class="st1" d="M134,52.9c-5.9,0-10.7-4.8-10.7-10.7s4.8-10.7,10.7-10.7s10.7,4.8,10.7,10.7S139.9,52.9,134,52.9L134,52.9z"
				/>
			<g>
				<path class="st0" d="M136.2,39.3c-0.6-0.6-1.2-0.8-1.9-0.8c-0.8,0-1.2,0.3-1.2,1c0,1.5,4.5,1.4,4.5,4.7c0,1.7-0.9,3-2.7,3.4v1.8
					h-1.8v-1.7c-1-0.1-2.2-0.6-3.1-1.3l1.2-1.8c0.9,0.7,1.6,1,2.4,1c0.9,0,1.3-0.4,1.3-1.1c0-1.6-4.5-1.7-4.5-4.8
					c0-1.7,1-2.9,2.6-3.2v-1.8h1.8v1.8c1.1,0.2,1.9,0.7,2.6,1.4L136.2,39.3z"/>
			</g>
		</g>
		<g>
			<path class="st0" d="M134,164c-7.2,0-13.1,5.9-13.1,13.1c0,7.2,5.9,13.1,13.1,13.1c7.2,0,13.1-5.9,13.1-13.1
				C147.1,169.9,141.3,164,134,164L134,164z M134,187.8c-5.9,0-10.7-4.8-10.7-10.7s4.8-10.7,10.7-10.7s10.7,4.8,10.7,10.7
				S139.9,187.8,134,187.8L134,187.8z M134,187.8"/>
			<path class="st1" d="M134,187.8c-5.9,0-10.7-4.8-10.7-10.7s4.8-10.7,10.7-10.7s10.7,4.8,10.7,10.7S139.9,187.8,134,187.8
				L134,187.8z"/>
			<g>
				<path class="st0" d="M136.2,174.2c-0.6-0.6-1.2-0.8-1.9-0.8c-0.8,0-1.2,0.3-1.2,1c0,1.5,4.5,1.4,4.5,4.7c0,1.7-0.9,3-2.7,3.4
					v1.8h-1.8v-1.7c-1-0.1-2.2-0.6-3.1-1.3l1.2-1.8c0.9,0.7,1.6,1,2.4,1c0.9,0,1.3-0.4,1.3-1.1c0-1.6-4.5-1.7-4.5-4.8
					c0-1.7,1-2.9,2.6-3.2v-1.8h1.8v1.8c1.1,0.2,1.9,0.7,2.6,1.4L136.2,174.2z"/>
			</g>
		</g>
		<g>
			<path class="st0" d="M190.5,63.6c-7.2,0-13.1,5.9-13.1,13.1s5.9,13.1,13.1,13.1s13.1-5.9,13.1-13.1S197.7,63.6,190.5,63.6
				L190.5,63.6z M190.5,87.4c-5.9,0-10.7-4.8-10.7-10.7S184.6,66,190.5,66s10.7,4.8,10.7,10.7S196.4,87.4,190.5,87.4L190.5,87.4z
				 M190.5,87.4"/>
			<path class="st1" d="M190.5,87.4c-5.9,0-10.7-4.8-10.7-10.7S184.6,66,190.5,66s10.7,4.8,10.7,10.7S196.4,87.4,190.5,87.4
				L190.5,87.4z"/>
			<g>
				<path class="st0" d="M192.7,73.8c-0.6-0.6-1.2-0.8-1.9-0.8c-0.8,0-1.2,0.3-1.2,1c0,1.5,4.5,1.4,4.5,4.7c0,1.7-0.9,3-2.7,3.4v1.8
					h-1.8v-1.7c-1-0.1-2.2-0.6-3.1-1.3l1.2-1.8c0.9,0.7,1.6,1,2.4,1c0.9,0,1.3-0.4,1.3-1.1c0-1.6-4.5-1.7-4.5-4.8
					c0-1.7,1-2.9,2.6-3.2v-1.8h1.8v1.8c1.1,0.2,1.9,0.7,2.6,1.4L192.7,73.8z"/>
			</g>
		</g>
		<g>
			<path class="st0" d="M79.7,63.6c-7.2,0-13.1,5.9-13.1,13.1s5.9,13.1,13.1,13.1c7.2,0,13.1-5.9,13.1-13.1S86.9,63.6,79.7,63.6
				L79.7,63.6z M79.7,87.4c-5.9,0-10.7-4.8-10.7-10.7S73.8,66,79.7,66c5.9,0,10.7,4.8,10.7,10.7S85.6,87.4,79.7,87.4L79.7,87.4z
				 M79.7,87.4"/>
			<path class="st1" d="M79.7,87.4c-5.9,0-10.7-4.8-10.7-10.7S73.8,66,79.7,66c5.9,0,10.7,4.8,10.7,10.7S85.6,87.4,79.7,87.4
				L79.7,87.4z"/>
			<g>
				<path class="st0" d="M81.8,73.8C81.2,73.3,80.7,73,80,73c-0.8,0-1.2,0.3-1.2,1c0,1.5,4.5,1.4,4.5,4.7c0,1.7-0.9,3-2.7,3.4v1.8
					h-1.8v-1.7c-1-0.1-2.2-0.6-3.1-1.3L77,79c0.9,0.7,1.6,1,2.4,1c0.9,0,1.3-0.4,1.3-1.1c0-1.6-4.5-1.7-4.5-4.8c0-1.7,1-2.9,2.6-3.2
					v-1.8h1.8v1.8c1.1,0.2,1.9,0.7,2.6,1.4L81.8,73.8z"/>
			</g>
		</g>
		<g>
			<path class="st0" d="M188.9,136.7c-7.2,0-13.1,5.9-13.1,13.1c0,7.2,5.9,13.1,13.1,13.1c7.2,0,13.1-5.9,13.1-13.1
				C202,142.5,196.2,136.7,188.9,136.7L188.9,136.7z M188.9,160.5c-5.9,0-10.7-4.8-10.7-10.7c0-5.9,4.8-10.7,10.7-10.7
				s10.7,4.8,10.7,10.7C199.7,155.7,194.9,160.5,188.9,160.5L188.9,160.5z M188.9,160.5"/>
			<path class="st1" d="M188.9,160.5c-5.9,0-10.7-4.8-10.7-10.7c0-5.9,4.8-10.7,10.7-10.7s10.7,4.8,10.7,10.7
				C199.7,155.7,194.9,160.5,188.9,160.5L188.9,160.5z"/>
			<g>
				<path class="st0" d="M191.1,146.8c-0.6-0.6-1.2-0.8-1.9-0.8c-0.8,0-1.2,0.3-1.2,1c0,1.5,4.5,1.4,4.5,4.7c0,1.7-0.9,3-2.7,3.3
					v1.8h-1.8v-1.7c-1-0.1-2.2-0.6-3.1-1.3l1.2-1.8c0.9,0.7,1.6,1,2.4,1c0.9,0,1.3-0.4,1.3-1.1c0-1.6-4.5-1.7-4.5-4.8
					c0-1.7,1-2.9,2.6-3.2v-1.8h1.8v1.8c1.1,0.2,1.9,0.7,2.6,1.4L191.1,146.8z"/>
			</g>
		</g>
		<g>
			<path class="st0" d="M78.3,136.7c-7.2,0-13.1,5.9-13.1,13.1c0,7.2,5.9,13.1,13.1,13.1c7.2,0,13.1-5.9,13.1-13.1
				C91.4,142.5,85.5,136.7,78.3,136.7L78.3,136.7z M78.3,160.5c-5.9,0-10.7-4.8-10.7-10.7c0-5.9,4.8-10.7,10.7-10.7
				c5.9,0,10.7,4.8,10.7,10.7C89,155.7,84.2,160.5,78.3,160.5L78.3,160.5z M78.3,160.5"/>
			<path class="st1" d="M78.3,160.5c-5.9,0-10.7-4.8-10.7-10.7c0-5.9,4.8-10.7,10.7-10.7c5.9,0,10.7,4.8,10.7,10.7
				C89,155.7,84.2,160.5,78.3,160.5L78.3,160.5z"/>
			<g>
				<path class="st0" d="M80.4,146.8c-0.6-0.6-1.2-0.8-1.9-0.8c-0.8,0-1.2,0.3-1.2,1c0,1.5,4.5,1.4,4.5,4.7c0,1.7-0.9,3-2.7,3.3v1.8
					h-1.8v-1.7c-1-0.1-2.2-0.6-3.1-1.3l1.2-1.8c0.9,0.7,1.6,1,2.4,1c0.9,0,1.3-0.4,1.3-1.1c0-1.6-4.5-1.7-4.5-4.8
					c0-1.7,1-2.9,2.6-3.2v-1.8h1.8v1.8c1.1,0.2,1.9,0.7,2.6,1.4L80.4,146.8z"/>
			</g>
		</g>
	</g>
</g>
</svg>
