<svg id="Capa_1" data-name="Capa 1" xmlns="http://www.w3.org/2000/svg" xmlns:xlink="http://www.w3.org/1999/xlink" viewBox="0 0 220 220"><defs><style>.cls-1{fill:none;}.cls-2{fill:#fff;}.cls-3{fill:#89d4f2;}.cls-4{fill:#666;}.cls-5{clip-path:url(#clip-path);}.cls-6{fill:#6d6d6d;}</style><clipPath id="clip-path"><circle class="cls-1" cx="110" cy="110" r="108.7"/></clipPath></defs><title>Mesa de trabajo 1</title><circle class="cls-2" cx="110" cy="110" r="108.7"/><path class="cls-3" d="M98.6,148h6v2.5H96.1A2.48,2.48,0,0,1,98.6,148Z"/><rect class="cls-3" x="96.1" y="110.6" width="51.1" height="2.5"/><rect class="cls-3" x="96.1" y="103.1" width="51.1" height="2.5"/><path class="cls-3" d="M96.1,118.1h34.1a2.48,2.48,0,0,1-2.5,2.5H96.1Z"/><path class="cls-3" d="M96.1,95.5h34.1a2.48,2.48,0,0,1-2.5,2.5H96.1Z"/><rect class="cls-3" x="134.5" y="118.1" width="12.8" height="2.5"/><rect class="cls-3" x="134.5" y="80.2" width="12.8" height="2.5"/><rect class="cls-3" x="96.1" y="125.5" width="51.1" height="2.5"/><rect class="cls-3" x="96.1" y="140.5" width="51.1" height="2.5"/><rect class="cls-3" x="115.3" y="133" width="32" height="2.5"/><rect class="cls-3" x="96.1" y="133" width="14.9" height="2.5"/><rect class="cls-3" x="108.9" y="148" width="38.4" height="2.5"/><path class="cls-4" d="M174.7,43.6H111.9A10.46,10.46,0,0,0,101.5,54v2.2h-.9A10.46,10.46,0,0,0,90.2,66.6v1A12,12,0,0,0,80.1,79.4v76.8a12,12,0,0,0,12,12h59.6a12.09,12.09,0,0,0,12-11.2,10.4,10.4,0,0,0,10.1-10.4v-2.2h.9A10.46,10.46,0,0,0,185.1,134V54A10.39,10.39,0,0,0,174.7,43.6ZM151.8,164.1H92.2a8,8,0,0,1-8-8V79.4a8,8,0,0,1,8-8h59.6a8,8,0,0,1,8,8v76.8A8,8,0,0,1,151.8,164.1Zm18-17.5a6.46,6.46,0,0,1-6.1,6.4V77.8a10.46,10.46,0,0,0-10.4-10.4H94.2v-.8a6.44,6.44,0,0,1,6.4-6.4h62.8a6.44,6.44,0,0,1,6.4,6.4v80ZM181.1,134a6.46,6.46,0,0,1-6.1,6.4V65.2a10.46,10.46,0,0,0-10.4-10.4H105.4V54a6.44,6.44,0,0,1,6.4-6.4h62.8A6.44,6.44,0,0,1,181,54v80Z"/><path class="cls-4" d="M28.2,129.3H39.8V95.2H30V88.6a34.43,34.43,0,0,0,12.5-4.5h7.9v45.2H60.5V138H28.2Z"/><g class="cls-5"><rect class="cls-6" x="-59" y="175" width="331" height="52"/></g><path class="cls-2" d="M92.36,192.7c0,3.1-.89,5.47-2.65,7.11s-4.3,2.47-7.63,2.47H76.75v-18.8h5.91a9.94,9.94,0,0,1,7.15,2.43A8.93,8.93,0,0,1,92.36,192.7Zm-4.15.1c0-4-1.78-6.05-5.35-6.05H80.74V199h1.71Q88.21,199,88.21,192.8Z"/><path class="cls-2" d="M107.08,202.28H96.25v-18.8h10.83v3.27h-6.84v4.12h6.37v3.27h-6.37V199h6.84Z"/><path class="cls-2" d="M119,202.28l-4.53-14.75h-.12q.25,4.5.25,6v8.74H111v-18.8h5.42l4.45,14.38H121l4.72-14.38h5.43v18.8h-3.72v-8.9c0-.42,0-.9,0-1.45s.07-2,.17-4.37h-.11l-4.85,14.72Z"/><path class="cls-2" d="M152.91,192.85q0,4.68-2.32,7.18a10,10,0,0,1-13.27,0c-1.54-1.67-2.32-4.07-2.32-7.2s.78-5.52,2.33-7.17a8.66,8.66,0,0,1,6.65-2.48q4.34,0,6.63,2.5T152.91,192.85Zm-13.72,0a7.83,7.83,0,0,0,1.19,4.75,4.2,4.2,0,0,0,3.58,1.6q4.77,0,4.77-6.35T144,186.5a4.22,4.22,0,0,0-3.59,1.6A7.86,7.86,0,0,0,139.19,192.85Z"/></svg>