<svg id="Capa_1" data-name="Capa 1" xmlns="http://www.w3.org/2000/svg" viewBox="0 0 204.09 204.09"><defs><style>.cls-1{fill:#fff;}.cls-2{fill:#676767;}.cls-3{fill:#3bb1e6;}</style></defs><title>Mesa de trabajo 1 copia 50</title><ellipse class="cls-1" cx="102.05" cy="103.39" rx="99.98" ry="98.85"/><path class="cls-2" d="M72.06,139.46c0-1.56,1-2.46,1.93-3.39a4.86,4.86,0,0,0,0-6.75c-2.15-2.06-2.32-3.23-.84-5.84,1-1.7,2-3.41,3-5.09,1.27-2.13,2.64-2.83,4.91-1.93,2.43,1,3.89-.69,5.61-1.62.46-.24.55-1.24.72-1.91.7-2.7,1.67-3.45,4.48-3.43,2.06,0,4.12,0,6.19,0,2.29,0,3.42.88,4,3.1a4.93,4.93,0,0,0,6.49,3.78c2.28-.59,3.59-.08,4.82,2,1.11,1.85,2.19,3.73,3.26,5.62s1.08,3.59-.75,5c-2.18,1.62-1.48,3.77-1.46,5.77,0,.57.86,1.17,1.38,1.7,1.83,1.84,2,3.1.7,5.38-1,1.79-2,3.58-3.1,5.36-1.17,2-2.71,2.82-4.8,1.9-2.51-1.1-4,.69-5.74,1.58-.41.21-.49,1.15-.66,1.78-.74,2.85-1.77,3.65-4.68,3.64-1.91,0-3.83,0-5.74,0-2.56,0-3.67-.86-4.31-3.32A4.92,4.92,0,0,0,81.1,149c-2.42.68-3.81.13-5.07-2-1.06-1.83-2.14-3.65-3.16-5.5A16,16,0,0,1,72.06,139.46Zm40.65-15.25c-.81-1.21-1-1.7-2.08-3.08-.73-1-1.23-1.34-2.29-.86-1.81.83-2.76.45-4.14-.38-.76-.45-2.23-1-3.23-1.61s-1.8-1.21-2-2.41c-.08-.5-.28-1-.35-1.47a1.24,1.24,0,0,0-1.52-1.23,33.16,33.16,0,0,1-4.23,0c-1.35-.1-2.08.3-2.2,1.73-.15,1.87,0,2-1.72,3.1-1,.59-3.08,1.86-4.07,2.34a4,4,0,0,1-2,.42c-1.17-.09-2.55-.87-3.41-.46a2.74,2.74,0,0,0-1.63,1.5c-.26.59-.65,1.62-.92,2.1-.68,1.21-1.18,2.06.61,3.7,1.19,1.09,1.35,2.17,1.43,3.83.06,1.11.06,2,.05,3.16a3.16,3.16,0,0,1-1,2.8c-.46.39-.86.86-1.32,1.24a1.11,1.11,0,0,0-.26,1.69c.88,1.41,1.73,2.84,2.52,4.31.41.75.88,1,1.69.66a4.21,4.21,0,0,1,4.35.09c.47.22,3.56,1.82,3.8,2,1.11.7,1.76,1.43,2,3.6.08.95.58,1.38,1.6,1.31s2.22,0,3.32,0c3.18,0,2.54.36,3.22-2.49.33-1.37,1-1.81,2.3-2.7a23.68,23.68,0,0,1,3.14-1.77,4.11,4.11,0,0,1,2.53-.47c.68,0,1.35.46,2,.49a1.82,1.82,0,0,0,1.4-.58c1-1.42,1.74-2.95,2.65-4.4.43-.7.38-1.21-.28-1.66-2-1.41-2.07-2.18-2.27-3.42,0-.2-.31-3.47-.33-3.67-.19-2.1.54-3.29,2.45-4.61A2.51,2.51,0,0,0,112.71,124.21Z"/><path class="cls-2" d="M102.85,132.77a8.17,8.17,0,1,1-8.11-8.15A8.05,8.05,0,0,1,102.85,132.77Zm-8.09,4.34a4.4,4.4,0,0,0,4.38-4.44,4.47,4.47,0,0,0-4.48-4.36,4.37,4.37,0,0,0-4.35,4.47A4.31,4.31,0,0,0,94.76,137.11Z"/><path class="cls-2" d="M72.46,104.22l-1.24-4.06H65l-1.24,4.06H59.88l6-17.11h4.42l6,17.11Zm-2.1-7.09c-1.14-3.67-1.79-5.75-1.93-6.24s-.25-.86-.31-1.14q-.39,1.5-2.2,7.38Z"/><path class="cls-2" d="M90.27,92.49a5.22,5.22,0,0,1-1.71,4.21,7.39,7.39,0,0,1-4.9,1.46H82.11v6.06H78.5v-17h5.44a7.26,7.26,0,0,1,4.72,1.33A4.86,4.86,0,0,1,90.27,92.49ZM82.11,95.2H83.3a4,4,0,0,0,2.5-.66,2.32,2.32,0,0,0,.83-1.92,2.39,2.39,0,0,0-.7-1.88,3.27,3.27,0,0,0-2.17-.6H82.11Z"/><path class="cls-2" d="M93.49,104.22v-17h3.62v17Z"/><path class="cls-3" d="M177.58,97.62l-.12-.85c-.09-.7-.19-1.42-.35-2.19a34.5,34.5,0,0,0-5.41-13A4.52,4.52,0,0,1,170.54,83c-.58.48-1.12,1-1.69,1.48a31,31,0,0,1,4.34,10.89c.2.93.29,1.89.43,2.83v4.19c0,.13-.08.25-.1.37-.15,1.07-.25,2.15-.46,3.22a28.29,28.29,0,0,1-22.74,22.16c-1,.16-1.92.29-2.88.43h-4.19c-.12,0-.24-.08-.37-.1-1.07-.15-2.15-.25-3.21-.46a28.29,28.29,0,0,1-22.17-22.73c-.16-1-.29-1.93-.43-2.89V98.21c.11-.75.21-1.49.32-2.23a28.27,28.27,0,0,1,23-23.52c.95-.17,1.92-.29,2.88-.43h4.19l.43.1a46.82,46.82,0,0,1,5.82,1.16,32.1,32.1,0,0,1,9,4.66c.49-.43,1-.88,1.47-1.31a4.71,4.71,0,0,1,2.05-1A35.14,35.14,0,0,0,155,69.51a28.28,28.28,0,0,0-4.62-1c-.61-.09-1.18-.18-1.72-.29h0l-.19,0-.46-.11h-5l-.29,0-.89.13c-.67.09-1.37.19-2.09.32A32.35,32.35,0,0,0,118.85,81.9l.18-.27A18.47,18.47,0,0,0,106,77.72a2.63,2.63,0,0,1-2.8-1.65c-5-8.5-12.41-13.1-22.22-13.43C69.82,62.27,60.22,68.76,56,79.14A2.57,2.57,0,0,1,53.88,81a19.94,19.94,0,0,0-16.17,19.58,19.55,19.55,0,0,0,9.84,17.31,18.91,18.91,0,0,0,5.16,2,2.89,2.89,0,0,0,2.35-1.31c.55-1-.1-2-1.21-2.41-.39-.16-.8-.27-1.19-.41-7.37-2.52-11.62-9.36-10.78-17.34.72-6.86,6.77-12.85,14-13.63A3.45,3.45,0,0,0,59.3,82,21.81,21.81,0,0,1,79.64,66.72c9.74,0,16.71,4.48,20.88,13.26.75,1.6,1.58,2.51,3.56,2.11a14.76,14.76,0,0,1,12.79,3h0a31.18,31.18,0,0,0-3.45,10.26c-.07.51-.14,1-.22,1.52l-.1.73,0,.28v4.78l0,.29c0,.3.09.6.13.9.1.69.2,1.38.31,2.06a32.48,32.48,0,0,0,25.35,26c.84.16,1.63.26,2.4.36l.79.1.09,0,.52.14h5l.29,0,.9-.13,2-.31a32.39,32.39,0,0,0,26-25.36c.16-.83.26-1.61.36-2.38,0-.26.06-.53.1-.8l0-.09.14-.52v-5Z"/><path class="cls-2" d="M164.17,76.64A105,105,0,0,0,150,91.14c-2,2.51-3.94,5.07-5.76,7.71-1,1.43-1.85,3-2.74,4.57-1.59-3.18-3-6.5-4.57-9.57-2.62-5.16-10.39-.61-7.77,4.55q2.29,4.51,4.58,9c1.12,2.19,2.11,5.52,4,7.21,4.12,3.68,7.61-.52,9.61-3.93A106.89,106.89,0,0,1,170.54,83C175,79.27,168.58,72.93,164.17,76.64Z"/></svg>