<svg id="Capa_1" data-name="Capa 1" xmlns="http://www.w3.org/2000/svg" viewBox="0 0 204.09 204.09"><defs><style>.cls-1{fill:#fff;}.cls-2{fill:#3bb1e6;}.cls-3{fill:#676767;}.cls-4{fill:#686868;}</style></defs><title>Mesa de trabajo 1 copia 35</title><ellipse class="cls-1" cx="102.05" cy="103.39" rx="99.98" ry="98.85"/><rect class="cls-2" x="72.95" y="99.84" width="16.43" height="3.6"/><rect class="cls-2" x="72.95" y="108.66" width="16.43" height="3.6"/><rect class="cls-3" x="60.92" y="75.1" width="29.24" height="3.64"/><rect class="cls-3" x="60.92" y="85.14" width="29.24" height="3.64"/><polygon class="cls-2" points="157.1 62.33 46.21 62.1 46.2 133.93 87.55 134.09 87.36 128.82 51.98 128.59 51.98 67.56 100.38 67.91 100.78 119.31 107.16 119.31 107.14 67.68 152.53 67.84 152.91 99.29 157.56 103.94 157.1 62.33"/><path class="cls-4" d="M129.57,93.58l2.67.91,0,17.89,3.53-.08v-7.92h1.66a2.68,2.68,0,0,1,2.86,2.86c0,3.43.06,11.18.06,11.18l3.31,0s.12-8.41.12-8.63h1.76a2.84,2.84,0,0,1,2.86,2.88l.11,10.46,3.3,0v-7.95h.85c.29,0,.61,0,.91,0h.15a2.81,2.81,0,0,1,2.8,2.93c0,6.23,0,12.46,0,18.69,0,1.23-.42,5.3-.42,5.3l-10.29,10-22.15.1-7.15-17.46-.11-16.62,6.66-2.91.06,13.19,3.7-.06V94.42l2.71-.84m.06-3.84-1.13.35-2.71.84-2.58.79v19.43l-1.58.69-6.66,2.9-2.2,1v2.4l.11,16.62v.71l.27.65,7.15,17.47.94,2.27h2.46l22.14-.1h1.47l1.06-1,10.3-10,1-.93.13-1.33c.07-.71.42-4.3.43-5.64,0-3.05,0-6.1,0-9.15s0-6.36,0-9.53a6.64,6.64,0,0,0-1.9-4.73,6.38,6.38,0,0,0-4.55-1.88H152a6.35,6.35,0,0,0-6.41-5.41h-1.69a6.26,6.26,0,0,0-6.41-5.39h-1.6V91.88L133.42,91l-2.67-.91-1.12-.39Z"/></svg>