<svg id="Capa_1" data-name="Capa 1" xmlns="http://www.w3.org/2000/svg" viewBox="0 0 204.09 204.09"><defs><style>.cls-1{fill:#fff;}.cls-2{fill:#3bb1e6;}.cls-3{fill:#676767;}</style></defs><title>Mesa de trabajo 1 copia 34</title><ellipse class="cls-1" cx="102.05" cy="103.39" rx="99.98" ry="98.85"/><path class="cls-2" d="M71.39,54h5.82c0,.33.1,24.23.11,24.57,0,1.27,0,2.54,0,3.81,0,7.27-.13,8-3.37,14.32-.27.53-1.57.52-2.56.81Z"/><path class="cls-2" d="M62.91,97.19v-26h5.93v26Z"/><path class="cls-2" d="M79.8,85.6V45.53h5.91v28c0,1.82.46,3.81-.14,5.39s-2.27,2.67-3.45,4C81.37,83.75,80.66,84.61,79.8,85.6Z"/><path class="cls-2" d="M88.27,51.24H94c0,3.65,0,19,0,22.64,0,.29-.38.67-.67.84-1.64,1-3.31,1.85-5,2.81Z"/><path class="cls-2" d="M60.55,97.19h-6V79.55h6Z"/><rect class="cls-3" x="109.77" y="88.99" width="3.85" height="17.44"/><path class="cls-3" d="M158,147.34,135.82,125.2c10.7-16.85,2.84-36-8.67-43.77a32.11,32.11,0,1,0-.78,53.23l22.14,22.13ZM108.62,135.5a27.68,27.68,0,1,1,27.89-27.75A27.57,27.57,0,0,1,108.62,135.5Z"/><path class="cls-3" d="M92.17,97.76c0-3.36.6-5.72,1.82-7.06s3.05-2,5.53-2a8.39,8.39,0,0,1,2.94.44,5.4,5.4,0,0,1,1.87,1.15,6.19,6.19,0,0,1,1.14,1.48,7.75,7.75,0,0,1,.67,1.82,17,17,0,0,1,.5,4.13c0,3.22-.55,5.57-1.63,7.06s-3,2.23-5.62,2.23a7.94,7.94,0,0,1-3.61-.71,5.87,5.87,0,0,1-2.26-2.09,7.87,7.87,0,0,1-1-2.68A18.83,18.83,0,0,1,92.17,97.76Zm4.88,0a11.91,11.91,0,0,0,.6,4.61,1.86,1.86,0,0,0,1.73,1.24,1.82,1.82,0,0,0,1.3-.52,3.39,3.39,0,0,0,.81-1.66,17.67,17.67,0,0,0,.26-3.54,12.32,12.32,0,0,0-.6-4.74A1.93,1.93,0,0,0,99.35,92a1.83,1.83,0,0,0-1.76,1.24A13.08,13.08,0,0,0,97.05,97.78Z"/><rect class="cls-3" x="122.23" y="108.57" width="3.85" height="17.44"/><path class="cls-3" d="M104.63,117.35c0-3.37.6-5.73,1.82-7.07s3-2,5.53-2a8.39,8.39,0,0,1,2.94.44,5.55,5.55,0,0,1,1.87,1.15,6,6,0,0,1,1.14,1.49,7.67,7.67,0,0,1,.67,1.81,17.07,17.07,0,0,1,.5,4.14c0,3.21-.55,5.56-1.63,7s-3,2.23-5.62,2.23a7.81,7.81,0,0,1-3.61-.71,5.8,5.8,0,0,1-2.26-2.09,7.62,7.62,0,0,1-1-2.67A18.22,18.22,0,0,1,104.63,117.35Zm4.88,0a12,12,0,0,0,.6,4.62,1.88,1.88,0,0,0,1.73,1.24,1.83,1.83,0,0,0,1.3-.53A3.35,3.35,0,0,0,114,121a17.67,17.67,0,0,0,.26-3.54,12.32,12.32,0,0,0-.6-4.74,1.91,1.91,0,0,0-1.79-1.21,1.83,1.83,0,0,0-1.77,1.23A13.12,13.12,0,0,0,109.51,117.36Z"/></svg>