<svg id="Capa_1" data-name="Capa 1" xmlns="http://www.w3.org/2000/svg" viewBox="0 0 204.09 204.09"><defs><style>.cls-1{fill:#fff;}.cls-2{fill:none;stroke:#676767;stroke-linecap:round;stroke-linejoin:round;stroke-width:4.63px;}.cls-3{fill:#3bb1e6;}</style></defs><title>Mesa de trabajo 1 copia 33</title><ellipse class="cls-1" cx="102.05" cy="103.39" rx="99.98" ry="98.85"/><polyline class="cls-2" points="91.2 44.26 80.56 62.59 78.79 83.87 64 98.06 76.42 106.93 74.06 114.62 79.38 119.35 74.58 124.03 81.74 129.99 82.92 144.77 110.72 146.55 125.5 157.78"/><path class="cls-3" d="M142.64,79.14A13,13,0,1,0,128,92a13.72,13.72,0,0,1,.25,3.76c-.11,7.53-3.58,15.87-20.49,15.87a3.4,3.4,0,0,1-.63-.08v-3.48H87.66v12.42h7.68c1.24,0,2.48,0,3.72,0h8.11V118c30.45,1,27.26-22,27.72-25a11.11,11.11,0,0,1,1-2.38l0,0A13,13,0,0,0,142.64,79.14Z"/></svg>