<?xml version="1.0" encoding="utf-8"?>
<!-- Generator: Adobe Illustrator 21.1.0, SVG Export Plug-In . SVG Version: 6.00 Build 0)  -->
<svg version="1.1" id="Capa_1" xmlns="http://www.w3.org/2000/svg" xmlns:xlink="http://www.w3.org/1999/xlink" x="0px" y="0px"
	 viewBox="0 0 220 220" style="enable-background:new 0 0 220 220;" xml:space="preserve">
<style type="text/css">
	.st0{fill:#FFFFFF;}
	.st1{fill:#FFFFFF;stroke:#FFFFFF;stroke-miterlimit:10;}
	.st2{fill:none;stroke:#666666;stroke-width:4;stroke-miterlimit:10;}
	.st3{fill:#89D4F2;}
</style>
<circle class="st0" cx="109.4" cy="109.2" r="108.7"/>
<g>
	<circle class="st1" cx="110" cy="110" r="108.7"/>
	<g>
		<g>
			<g>
				<path class="st2" d="M89.7,140.2h40.5c1.5,0,3,0.2,4.4,0.7c0-0.4,0-0.8,0-1.2v-35.5c0-12.3-10.1-22.4-22.4-22.4h-5.3
					c-12.3,0-22.4,10.1-22.4,22.4v35.5c0,0.5,0,1,0,1.4C86.2,140.5,87.9,140.2,89.7,140.2z"/>
			</g>
			<path class="st2" d="M142.7,158.5c0.3-1.1,0.4-2.3,0.4-3.6v0c0-8.1-6.3-14.7-14-14.7H90.8c-7.7,0-14,6.6-14,14.7v0
				c0,1.2,0.1,2.4,0.4,3.6H142.7z"/>
		</g>
		<g>
			<path class="st3" d="M109,126.6c-2.1,0-3.5-1.6-3.5-3.6c0-2.2,1.5-3.6,3.6-3.6c2.1,0,3.5,1.5,3.5,3.6
				C112.6,125.1,111.2,126.6,109,126.6L109,126.6z M106.8,117.4l-0.9-18.1h6.3l-0.9,18.1H106.8z"/>
		</g>
		<g>
			<path class="st3" d="M76.2,109.1h-8.6c-1.2,0-2.2-1-2.2-2.2c0-1.2,1-2.2,2.2-2.2h8.6c1.2,0,2.2,1,2.2,2.2
				C78.4,108.1,77.4,109.1,76.2,109.1z"/>
		</g>
		<g>
			<path class="st3" d="M152.4,109.1h-8.6c-1.2,0-2.2-1-2.2-2.2c0-1.2,1-2.2,2.2-2.2h8.6c1.2,0,2.2,1,2.2,2.2
				C154.5,108.1,153.5,109.1,152.4,109.1z"/>
		</g>
		<g>
			<path class="st3" d="M109.7,74.4c-1.2,0-2.2-1-2.2-2.2v-8.6c0-1.2,1-2.2,2.2-2.2c1.2,0,2.2,1,2.2,2.2v8.6
				C111.9,73.4,110.9,74.4,109.7,74.4z"/>
		</g>
		<g>
			<path class="st3" d="M135.4,83.1c-0.6,0-1.1-0.2-1.5-0.6c-0.8-0.8-0.8-2.2,0-3.1l6.1-6.1c0.8-0.8,2.2-0.8,3.1,0
				c0.8,0.8,0.8,2.2,0,3.1l-6.1,6.1C136.5,82.9,136,83.1,135.4,83.1z"/>
		</g>
		<g>
			<path class="st3" d="M83.4,83.1c-0.6,0-1.1-0.2-1.5-0.6l-6.1-6.1c-0.8-0.8-0.8-2.2,0-3.1c0.8-0.8,2.2-0.8,3.1,0l6.1,6.1
				c0.8,0.8,0.8,2.2,0,3.1C84.5,82.9,83.9,83.1,83.4,83.1z"/>
		</g>
	</g>
</g>
</svg>
