<?xml version="1.0" encoding="utf-8"?>
<!-- Generator: Adobe Illustrator 21.1.0, SVG Export Plug-In . SVG Version: 6.00 Build 0)  -->
<svg version="1.1" id="Capa_1" xmlns="http://www.w3.org/2000/svg" xmlns:xlink="http://www.w3.org/1999/xlink" x="0px" y="0px"
	 viewBox="0 0 220 220" style="enable-background:new 0 0 220 220;" xml:space="preserve">
<style type="text/css">
	.st0{fill:#FFFFFF;}
	.st1{fill:#89D4F2;}
	.st2{fill:#666666;}
</style>
<circle class="st0" cx="109.4" cy="109.2" r="108.7"/>
<g>
	<g>
		<circle class="st0" cx="110" cy="110" r="108.7"/>
	</g>
	<g>
		<g>
			<g>
				<g>
					<g>
						<rect x="87.6" y="107.7" class="st1" width="34.1" height="1.7"/>
					</g>
					<g>
						<rect x="87.6" y="102.7" class="st1" width="34.1" height="1.7"/>
					</g>
					<g>
						<rect x="87.6" y="112.7" class="st1" width="22.7" height="1.7"/>
					</g>
					<g>
						<rect x="87.6" y="97.6" class="st1" width="22.7" height="1.7"/>
					</g>
					<g>
						<rect x="113.2" y="112.7" class="st1" width="8.5" height="1.7"/>
					</g>
					<g>
						<rect x="113.2" y="87.4" class="st1" width="8.5" height="1.7"/>
					</g>
					<g>
						<rect x="87.6" y="117.7" class="st1" width="34.1" height="1.7"/>
					</g>
					<g>
						<rect x="87.6" y="127.6" class="st1" width="34.1" height="1.7"/>
					</g>
					<g>
						<rect x="100.4" y="122.6" class="st1" width="21.3" height="1.7"/>
					</g>
					<g>
						<rect x="87.6" y="122.6" class="st1" width="9.9" height="1.7"/>
					</g>
					<g>
						<rect x="87.6" y="132.6" class="st1" width="5.7" height="1.7"/>
					</g>
					<g>
						<rect x="96.1" y="132.6" class="st1" width="25.6" height="1.7"/>
					</g>
				</g>
				<g>
					<path class="st2" d="M132.5,138.8h-2.6V85.8c0-2.3-1.8-4.1-4.1-4.1H83.5v-3.4c0-3.9,3.2-7.1,7.1-7.1h41.9
						c3.9,0,7.1,3.2,7.1,7.1v53.3C139.5,135.6,136.4,138.8,132.5,138.8z M86.5,78.7h39.2c3.9,0,7.1,3.2,7.1,7.1v49.9
						c2.1-0.2,3.7-1.9,3.7-4.1V78.4c0-2.3-1.8-4.1-4.1-4.1H90.6c-2.3,0-4.1,1.8-4.1,4.1V78.7z"/>
				</g>
				<g>
					<path class="st2" d="M121.3,146.2h-33c-6.3,0-11.5-5.2-11.5-11.5V90.2c0-6.3,5.2-11.5,11.5-11.5h33c6.3,0,11.5,5.2,11.5,11.5
						v44.5C132.8,141,127.7,146.2,121.3,146.2z M88.3,81.7c-4.7,0-8.5,3.8-8.5,8.5v44.5c0,4.7,3.8,8.5,8.5,8.5h33
						c4.7,0,8.5-3.8,8.5-8.5V90.2c0-4.7-3.8-8.5-8.5-8.5H88.3z"/>
				</g>
			</g>
			<g>
				<path class="st1" d="M111.5,177.1c-0.8,0-1.5-0.6-1.5-1.4c0-0.8,0.6-1.5,1.4-1.6c3.3-0.2,6.5-0.6,9.7-1.3
					c0.8-0.2,1.6,0.4,1.8,1.2c0.2,0.8-0.4,1.6-1.2,1.8C118.4,176.5,114.9,176.9,111.5,177.1C111.5,177.1,111.5,177.1,111.5,177.1z
					 M103.4,177.1c0,0-0.1,0-0.1,0c-3.4-0.2-6.8-0.7-10.1-1.5c-0.8-0.2-1.3-1-1.1-1.8c0.2-0.8,1-1.3,1.8-1.1
					c3.2,0.7,6.4,1.2,9.7,1.4c0.8,0.1,1.5,0.8,1.4,1.6C104.9,176.5,104.2,177.1,103.4,177.1z M129.1,173.7c-0.6,0-1.2-0.4-1.4-1
					c-0.3-0.8,0.2-1.6,0.9-1.9c3.1-1,6.1-2.3,9-3.8c0.7-0.4,1.6-0.1,2,0.6c0.4,0.7,0.1,1.6-0.6,2c-3,1.6-6.2,2.9-9.4,4
					C129.4,173.7,129.3,173.7,129.1,173.7z M85.8,173.4c-0.2,0-0.3,0-0.5-0.1c-3.2-1.1-6.4-2.5-9.4-4.1c-0.7-0.4-1-1.3-0.6-2
					c0.4-0.7,1.3-1,2-0.6c2.9,1.5,5.9,2.9,8.9,4c0.8,0.3,1.2,1.1,0.9,1.9C87,173.1,86.5,173.4,85.8,173.4z M145.2,165.7
					c-0.5,0-0.9-0.2-1.2-0.7c-0.5-0.7-0.3-1.6,0.4-2.1c2.7-1.8,5.2-3.9,7.6-6.1c0.6-0.6,1.6-0.5,2.1,0.1c0.6,0.6,0.5,1.6-0.1,2.1
					c-2.5,2.3-5.2,4.5-8,6.4C145.8,165.6,145.5,165.7,145.2,165.7z M69.9,165.2c-0.3,0-0.6-0.1-0.9-0.3c-2.8-2-5.4-4.2-7.9-6.5
					c-0.6-0.6-0.6-1.5,0-2.1c0.6-0.6,1.5-0.6,2.1,0c2.3,2.3,4.9,4.4,7.5,6.2c0.7,0.5,0.8,1.4,0.4,2.1
					C70.8,165,70.4,165.2,69.9,165.2z M158.5,153.6c-0.3,0-0.7-0.1-1-0.4c-0.6-0.5-0.7-1.5-0.2-2.1c2.1-2.5,4-5.2,5.7-7.9
					c0.4-0.7,1.4-0.9,2.1-0.5c0.7,0.4,0.9,1.4,0.5,2.1c-1.8,2.9-3.8,5.7-6,8.3C159.3,153.4,158.9,153.6,158.5,153.6z M56.7,152.9
					c-0.4,0-0.9-0.2-1.2-0.6c-2.2-2.6-4.1-5.5-5.8-8.4c-0.4-0.7-0.2-1.6,0.5-2.1c0.7-0.4,1.6-0.2,2.1,0.5c1.7,2.8,3.5,5.5,5.6,8
					c0.5,0.6,0.4,1.6-0.2,2.1C57.4,152.8,57.1,152.9,56.7,152.9z M168.1,138.4c-0.2,0-0.4,0-0.6-0.1c-0.8-0.3-1.1-1.2-0.7-2
					c1.3-3,2.5-6.1,3.3-9.2c0.2-0.8,1.1-1.3,1.8-1c0.8,0.2,1.3,1,1,1.8c-0.9,3.3-2.1,6.5-3.5,9.6
					C169.2,138.1,168.6,138.4,168.1,138.4z M47.4,137.6c-0.6,0-1.1-0.3-1.4-0.9c-1.4-3.1-2.5-6.4-3.4-9.7c-0.2-0.8,0.3-1.6,1.1-1.8
					s1.6,0.3,1.8,1.1c0.8,3.1,1.9,6.3,3.2,9.2c0.3,0.8,0,1.6-0.8,2C47.8,137.5,47.6,137.6,47.4,137.6z M173.2,121.2
					c-0.1,0-0.2,0-0.2,0c-0.8-0.1-1.4-0.9-1.3-1.7c0.5-3.2,0.7-6.5,0.7-9.8v-0.2c0-0.8,0.7-1.5,1.5-1.5s1.5,0.7,1.5,1.5v0.2
					c0,3.4-0.3,6.8-0.8,10.2C174.5,120.7,173.9,121.2,173.2,121.2z M42.5,120.3c-0.7,0-1.4-0.5-1.5-1.3c-0.4-3.1-0.6-6.2-0.6-9.3
					c0-0.3,0-0.6,0-0.9c0-0.8,0.7-1.5,1.5-1.5c0,0,0,0,0,0c0.8,0,1.5,0.7,1.5,1.5c0,0.3,0,0.6,0,0.9c0,3,0.2,6,0.6,8.9
					c0.1,0.8-0.5,1.6-1.3,1.7C42.7,120.3,42.6,120.3,42.5,120.3z M173.4,103c-0.7,0-1.4-0.6-1.5-1.3c-0.4-3.2-1-6.5-1.9-9.6
					c-0.2-0.8,0.2-1.6,1-1.9c0.8-0.2,1.6,0.2,1.9,1c0.9,3.3,1.6,6.6,2,10c0.1,0.8-0.5,1.6-1.3,1.7C173.5,103,173.5,103,173.4,103z
					 M42.5,102.3c-0.1,0-0.1,0-0.2,0c-0.8-0.1-1.4-0.9-1.3-1.7c0.5-3.4,1.2-6.7,2.1-10c0.2-0.8,1.1-1.2,1.9-1c0.8,0.2,1.2,1.1,1,1.9
					c-0.9,3.1-1.6,6.3-2,9.6C43.9,101.8,43.2,102.3,42.5,102.3z M168.8,85.7c-0.6,0-1.1-0.3-1.4-0.9c-1.3-3-2.8-5.9-4.5-8.7
					c-0.4-0.7-0.2-1.6,0.5-2.1c0.7-0.4,1.6-0.2,2.1,0.5c1.8,2.9,3.3,6,4.7,9.1c0.3,0.8,0,1.6-0.8,2C169.2,85.6,169,85.7,168.8,85.7z
					 M47.3,85c-0.2,0-0.4,0-0.6-0.1c-0.8-0.3-1.1-1.2-0.8-2c1.4-3.1,3-6.2,4.8-9.1c0.4-0.7,1.4-0.9,2.1-0.5c0.7,0.4,0.9,1.4,0.5,2.1
					c-1.7,2.8-3.3,5.7-4.6,8.7C48.4,84.7,47.9,85,47.3,85z M159.6,70.2c-0.4,0-0.9-0.2-1.2-0.6c-2-2.5-4.3-5-6.6-7.2
					c-0.6-0.6-0.6-1.5-0.1-2.1c0.6-0.6,1.5-0.6,2.1-0.1c2.5,2.3,4.8,4.8,6.9,7.5c0.5,0.6,0.4,1.6-0.2,2.1
					C160.3,70.1,160,70.2,159.6,70.2z M56.6,69.6c-0.3,0-0.7-0.1-0.9-0.3c-0.6-0.5-0.7-1.5-0.2-2.1c2.1-2.6,4.5-5.1,7-7.4
					c0.6-0.6,1.6-0.5,2.1,0.1c0.6,0.6,0.5,1.6-0.1,2.1c-2.4,2.2-4.7,4.6-6.7,7.1C57.5,69.4,57.1,69.6,56.6,69.6z M146.7,57.8
					c-0.3,0-0.6-0.1-0.9-0.3c-2.6-1.9-5.4-3.6-8.3-5.1c-0.7-0.4-1-1.3-0.6-2c0.4-0.7,1.3-1,2-0.6c3,1.6,6,3.4,8.7,5.4
					c0.7,0.5,0.8,1.4,0.3,2.1C147.6,57.6,147.1,57.8,146.7,57.8z M69.7,57.3c-0.5,0-0.9-0.2-1.2-0.6c-0.5-0.7-0.3-1.6,0.4-2.1
					c2.8-2,5.7-3.7,8.8-5.3c0.7-0.4,1.6-0.1,2,0.7c0.4,0.7,0.1,1.6-0.7,2c-2.9,1.5-5.7,3.2-8.4,5C70.4,57.3,70,57.3,69.7,57.3z
					 M130.8,49.3c-0.2,0-0.3,0-0.5-0.1c-3-1.1-6.2-2-9.4-2.7c-0.8-0.2-1.3-1-1.2-1.8c0.2-0.8,1-1.3,1.8-1.2c3.3,0.7,6.7,1.6,9.8,2.8
					c0.8,0.3,1.2,1.2,0.9,1.9C132,48.9,131.4,49.3,130.8,49.3z M85.7,49c-0.6,0-1.2-0.4-1.4-1c-0.3-0.8,0.1-1.6,0.9-1.9
					c3.2-1.1,6.5-2.1,9.9-2.7c0.8-0.2,1.6,0.4,1.8,1.2c0.2,0.8-0.4,1.6-1.2,1.8c-3.2,0.6-6.4,1.5-9.4,2.6C86,49,85.8,49,85.7,49z
					 M113.3,45.4c0,0-0.1,0-0.1,0c-3.2-0.3-6.5-0.3-9.8-0.1c-0.8,0.1-1.5-0.6-1.6-1.4c-0.1-0.8,0.6-1.5,1.4-1.6
					c3.4-0.2,6.8-0.2,10.2,0.1c0.8,0.1,1.4,0.8,1.4,1.6C114.7,44.8,114,45.4,113.3,45.4z"/>
			</g>
		</g>
		<g>
			<g>
				<g>
					<g>
						<circle class="st0" cx="167.8" cy="75.2" r="7"/>
					</g>
					<g>
						<path class="st2" d="M167.8,83.5c-4.6,0-8.3-3.7-8.3-8.3s3.7-8.3,8.3-8.3s8.3,3.7,8.3,8.3S172.4,83.5,167.8,83.5z M167.8,69.5
							c-3.1,0-5.6,2.5-5.6,5.6c0,3.1,2.5,5.6,5.6,5.6s5.6-2.5,5.6-5.6C173.4,72.1,170.9,69.5,167.8,69.5z"/>
					</g>
				</g>
				<g>
					<g>
						<path class="st0" d="M180.2,93.4c0-0.2,0-0.4,0-0.6l0,0c0-5.3-4.4-9.7-9.7-9.7h-6.1c-5.3,0-9.7,4.4-9.7,9.7l0,0
							c0,0.2,0,0.4,0,0.6H180.2z"/>
					</g>
					<g>
						<path class="st2" d="M181.5,94.7h-27.9l-0.1-1.2c0-0.2,0-0.5,0-0.7c0-6.1,4.9-11,11-11h6.1c6.1,0,11,4.9,11,11
							c0,0.2,0,0.5,0,0.7L181.5,94.7z M156.2,92h22.7c-0.4-4.3-3.9-7.7-8.3-7.7h-6.1C160.1,84.4,156.5,87.8,156.2,92z"/>
					</g>
				</g>
			</g>
			<g>
				<g>
					<path class="st1" d="M167.7,88.7c-1.1,0-1.8-0.8-1.8-1.8c0-1.1,0.8-1.8,1.8-1.8s1.8,0.8,1.8,1.8
						C169.6,87.9,168.9,88.7,167.7,88.7L167.7,88.7z M166.6,84l-0.4-9.2h3.2l-0.4,9.2H166.6z"/>
					<path class="st0" d="M167.8,89.2L167.8,89.2c-1.4,0-2.3-1-2.3-2.3s1-2.3,2.3-2.3c1.3,0,2.3,1,2.3,2.3
						C170.1,88.2,169.1,89.2,167.8,89.2z M167.8,85.5c-0.8,0-1.3,0.5-1.3,1.3c0,0.8,0.5,1.3,1.3,1.3h0c0.8,0,1.3-0.5,1.3-1.3
						C169.1,86,168.6,85.5,167.8,85.5z M169.4,84.5h-3.3l-0.5-10.2h4.3L169.4,84.5z M167.1,83.5h1.4l0.4-8.2h-2.2L167.1,83.5z"/>
				</g>
			</g>
			<g>
				<g>
					<path class="st1" d="M167.7,88.7c-1.1,0-1.8-0.8-1.8-1.8c0-1.1,0.8-1.8,1.8-1.8s1.8,0.8,1.8,1.8
						C169.6,87.9,168.9,88.7,167.7,88.7L167.7,88.7z M166.6,84l-0.4-9.2h3.2l-0.4,9.2H166.6z"/>
					<path class="st0" d="M167.8,90.2L167.8,90.2c-1.9,0-3.3-1.4-3.3-3.3c0-0.8,0.3-1.5,0.7-2.1l-0.6-11.4h6.4l-0.6,11.5
						c0.4,0.6,0.7,1.3,0.7,2.1C171.1,88.8,169.6,90.2,167.8,90.2z M167.8,86.5c-0.2,0-0.3,0.1-0.3,0.3c0,0.3,0.2,0.3,0.3,0.3h0
						c0.1,0,0.3,0,0.3-0.3C168.1,86.5,167.9,86.5,167.8,86.5z M167.7,76.3l0,0.6L167.7,76.3L167.7,76.3z"/>
				</g>
			</g>
			<g>
				<g>
					<path class="st1" d="M167.7,88.7c-1.1,0-1.8-0.8-1.8-1.8c0-1.1,0.8-1.8,1.8-1.8s1.8,0.8,1.8,1.8
						C169.6,87.9,168.9,88.7,167.7,88.7L167.7,88.7z M166.6,84l-0.4-9.2h3.2l-0.4,9.2H166.6z"/>
				</g>
			</g>
		</g>
		<g>
			<g>
				<g>
					<g>
						<circle class="st0" cx="108.7" cy="35.7" r="7"/>
					</g>
					<g>
						<path class="st2" d="M108.7,44c-4.6,0-8.3-3.7-8.3-8.3s3.7-8.3,8.3-8.3c4.6,0,8.3,3.7,8.3,8.3S113.3,44,108.7,44z M108.7,30
							c-3.1,0-5.6,2.5-5.6,5.6c0,3.1,2.5,5.6,5.6,5.6s5.6-2.5,5.6-5.6C114.3,32.6,111.8,30,108.7,30z"/>
					</g>
				</g>
				<g>
					<g>
						<path class="st0" d="M121.1,53.9c0-0.2,0-0.4,0-0.6l0,0c0-5.3-4.4-9.7-9.7-9.7h-6.1c-5.3,0-9.7,4.4-9.7,9.7l0,0
							c0,0.2,0,0.4,0,0.6H121.1z"/>
					</g>
					<g>
						<path class="st2" d="M122.3,55.2H94.5l-0.1-1.2c0-0.2,0-0.5,0-0.7c0-6.1,4.9-11,11-11h6.1c6.1,0,11,4.9,11,11
							c0,0.2,0,0.5,0,0.7L122.3,55.2z M97,52.5h22.7c-0.4-4.3-3.9-7.7-8.3-7.7h-6.1C101,44.9,97.4,48.2,97,52.5z"/>
					</g>
				</g>
			</g>
			<g>
				<g>
					<path class="st1" d="M108.6,49.2c-1.1,0-1.8-0.8-1.8-1.8c0-1.1,0.8-1.8,1.8-1.8c1.1,0,1.8,0.8,1.8,1.8
						C110.5,48.4,109.7,49.2,108.6,49.2L108.6,49.2z M107.5,44.5l-0.4-9.2h3.2l-0.4,9.2H107.5z"/>
					<path class="st0" d="M108.6,49.7L108.6,49.7c-1.4,0-2.3-1-2.3-2.3s1-2.3,2.3-2.3c1.3,0,2.3,1,2.3,2.3
						C111,48.7,110,49.7,108.6,49.7z M108.6,46c-0.8,0-1.3,0.5-1.3,1.3c0,0.8,0.5,1.3,1.3,1.3h0c0.8,0,1.3-0.5,1.3-1.3
						C109.9,46.5,109.4,46,108.6,46z M110.3,45H107l-0.5-10.2h4.3L110.3,45z M108,44h1.4l0.4-8.2h-2.2L108,44z"/>
				</g>
			</g>
			<g>
				<g>
					<path class="st1" d="M108.6,49.2c-1.1,0-1.8-0.8-1.8-1.8c0-1.1,0.8-1.8,1.8-1.8c1.1,0,1.8,0.8,1.8,1.8
						C110.5,48.4,109.7,49.2,108.6,49.2L108.6,49.2z M107.5,44.5l-0.4-9.2h3.2l-0.4,9.2H107.5z"/>
					<path class="st0" d="M108.6,50.7L108.6,50.7c-1.9,0-3.3-1.4-3.3-3.3c0-0.8,0.3-1.5,0.7-2.1l-0.6-11.4h6.4l-0.6,11.5
						c0.4,0.6,0.7,1.3,0.7,2.1C112,49.3,110.5,50.7,108.6,50.7z M108.6,47c-0.2,0-0.3,0.1-0.3,0.3c0,0.3,0.2,0.3,0.3,0.3h0
						c0.1,0,0.3,0,0.3-0.3C108.9,47,108.8,47,108.6,47z M108.6,36.8l0,0.6L108.6,36.8L108.6,36.8z"/>
				</g>
			</g>
			<g>
				<g>
					<path class="st1" d="M108.6,49.2c-1.1,0-1.8-0.8-1.8-1.8c0-1.1,0.8-1.8,1.8-1.8c1.1,0,1.8,0.8,1.8,1.8
						C110.5,48.4,109.7,49.2,108.6,49.2L108.6,49.2z M107.5,44.5l-0.4-9.2h3.2l-0.4,9.2H107.5z"/>
				</g>
			</g>
		</g>
		<g>
			<g>
				<g>
					<g>
						<circle class="st0" cx="46.8" cy="75.2" r="7"/>
					</g>
					<g>
						<path class="st2" d="M46.8,83.5c-4.6,0-8.3-3.7-8.3-8.3s3.7-8.3,8.3-8.3s8.3,3.7,8.3,8.3S51.4,83.5,46.8,83.5z M46.8,69.5
							c-3.1,0-5.6,2.5-5.6,5.6c0,3.1,2.5,5.6,5.6,5.6s5.6-2.5,5.6-5.6C52.4,72.1,49.9,69.5,46.8,69.5z"/>
					</g>
				</g>
				<g>
					<g>
						<path class="st0" d="M59.2,93.4c0-0.2,0-0.4,0-0.6l0,0c0-5.3-4.4-9.7-9.7-9.7h-6.1c-5.3,0-9.7,4.4-9.7,9.7l0,0
							c0,0.2,0,0.4,0,0.6H59.2z"/>
					</g>
					<g>
						<path class="st2" d="M60.5,94.7H32.6l-0.1-1.2c0-0.2,0-0.5,0-0.7c0-6.1,4.9-11,11-11h6.1c6.1,0,11,4.9,11,11
							c0,0.2,0,0.5,0,0.7L60.5,94.7z M35.2,92h22.7c-0.4-4.3-3.9-7.7-8.3-7.7h-6.1C39.1,84.4,35.5,87.8,35.2,92z"/>
					</g>
				</g>
			</g>
			<g>
				<g>
					<path class="st1" d="M46.7,88.7c-1.1,0-1.8-0.8-1.8-1.8c0-1.1,0.8-1.8,1.8-1.8c1.1,0,1.8,0.8,1.8,1.8
						C48.6,87.9,47.9,88.7,46.7,88.7L46.7,88.7z M45.6,84l-0.4-9.2h3.2L47.9,84H45.6z"/>
					<path class="st0" d="M46.8,89.2L46.8,89.2c-1.4,0-2.3-1-2.3-2.3s1-2.3,2.3-2.3c1.3,0,2.3,1,2.3,2.3
						C49.1,88.2,48.1,89.2,46.8,89.2z M46.8,85.5c-0.8,0-1.3,0.5-1.3,1.3c0,0.8,0.5,1.3,1.3,1.3h0c0.8,0,1.3-0.5,1.3-1.3
						C48.1,86,47.6,85.5,46.8,85.5z M48.4,84.5h-3.3l-0.5-10.2h4.3L48.4,84.5z M46.1,83.5h1.4l0.4-8.2h-2.2L46.1,83.5z"/>
				</g>
			</g>
			<g>
				<g>
					<path class="st1" d="M46.7,88.7c-1.1,0-1.8-0.8-1.8-1.8c0-1.1,0.8-1.8,1.8-1.8c1.1,0,1.8,0.8,1.8,1.8
						C48.6,87.9,47.9,88.7,46.7,88.7L46.7,88.7z M45.6,84l-0.4-9.2h3.2L47.9,84H45.6z"/>
					<path class="st0" d="M46.8,90.2L46.8,90.2c-1.9,0-3.3-1.4-3.3-3.3c0-0.8,0.3-1.5,0.7-2.1l-0.6-11.4h6.4l-0.6,11.5
						c0.4,0.6,0.7,1.3,0.7,2.1C50.1,88.8,48.6,90.2,46.8,90.2z M46.8,86.5c-0.2,0-0.3,0.1-0.3,0.3c0,0.3,0.2,0.3,0.3,0.3h0
						c0.1,0,0.3,0,0.3-0.3C47.1,86.5,46.9,86.5,46.8,86.5z M46.7,76.3l0,0.6L46.7,76.3L46.7,76.3z"/>
				</g>
			</g>
			<g>
				<g>
					<path class="st1" d="M46.7,88.7c-1.1,0-1.8-0.8-1.8-1.8c0-1.1,0.8-1.8,1.8-1.8c1.1,0,1.8,0.8,1.8,1.8
						C48.6,87.9,47.9,88.7,46.7,88.7L46.7,88.7z M45.6,84l-0.4-9.2h3.2L47.9,84H45.6z"/>
				</g>
			</g>
		</g>
		<g>
			<g>
				<g>
					<g>
						<circle class="st0" cx="50.8" cy="137.4" r="7"/>
					</g>
					<g>
						<path class="st2" d="M50.8,145.7c-4.6,0-8.3-3.7-8.3-8.3c0-4.6,3.7-8.3,8.3-8.3s8.3,3.7,8.3,8.3
							C59.1,141.9,55.4,145.7,50.8,145.7z M50.8,131.7c-3.1,0-5.6,2.5-5.6,5.6c0,3.1,2.5,5.6,5.6,5.6s5.6-2.5,5.6-5.6
							C56.4,134.3,53.9,131.7,50.8,131.7z"/>
					</g>
				</g>
				<g>
					<g>
						<path class="st0" d="M63.2,155.6c0-0.2,0-0.4,0-0.6l0,0c0-5.3-4.4-9.7-9.7-9.7h-6.1c-5.3,0-9.7,4.4-9.7,9.7l0,0
							c0,0.2,0,0.4,0,0.6H63.2z"/>
					</g>
					<g>
						<path class="st2" d="M64.5,156.9H36.6l-0.1-1.2c0-0.2,0-0.5,0-0.7c0-6.1,4.9-11,11-11h6.1c6.1,0,11,4.9,11,11
							c0,0.2,0,0.5,0,0.7L64.5,156.9z M39.2,154.2h22.7c-0.4-4.3-3.9-7.7-8.3-7.7h-6.1C43.1,146.6,39.5,149.9,39.2,154.2z"/>
					</g>
				</g>
			</g>
			<g>
				<g>
					<path class="st1" d="M50.7,150.9c-1.1,0-1.8-0.8-1.8-1.8c0-1.1,0.8-1.8,1.8-1.8c1.1,0,1.8,0.8,1.8,1.8
						C52.6,150.1,51.9,150.9,50.7,150.9L50.7,150.9z M49.6,146.2l-0.4-9.2h3.2l-0.4,9.2H49.6z"/>
					<path class="st0" d="M50.8,151.4L50.8,151.4c-1.4,0-2.3-1-2.3-2.3s1-2.3,2.3-2.3c1.3,0,2.3,1,2.3,2.3
						C53.1,150.4,52.1,151.4,50.8,151.4z M50.8,147.7c-0.8,0-1.3,0.5-1.3,1.3c0,0.8,0.5,1.3,1.3,1.3h0c0.8,0,1.3-0.5,1.3-1.3
						C52.1,148.2,51.6,147.7,50.8,147.7z M52.4,146.7h-3.3l-0.5-10.2h4.3L52.4,146.7z M50.1,145.7h1.4l0.4-8.2h-2.2L50.1,145.7z"/>
				</g>
			</g>
			<g>
				<g>
					<path class="st1" d="M50.7,150.9c-1.1,0-1.8-0.8-1.8-1.8c0-1.1,0.8-1.8,1.8-1.8c1.1,0,1.8,0.8,1.8,1.8
						C52.6,150.1,51.9,150.9,50.7,150.9L50.7,150.9z M49.6,146.2l-0.4-9.2h3.2l-0.4,9.2H49.6z"/>
					<path class="st0" d="M50.8,152.4L50.8,152.4c-1.9,0-3.3-1.4-3.3-3.3c0-0.8,0.3-1.5,0.7-2.1l-0.6-11.4h6.4L53.4,147
						c0.4,0.6,0.7,1.3,0.7,2.1C54.1,151,52.6,152.4,50.8,152.4z M50.8,148.7c-0.2,0-0.3,0.1-0.3,0.3c0,0.3,0.2,0.3,0.3,0.3h0
						c0.1,0,0.3,0,0.3-0.3C51.1,148.7,50.9,148.7,50.8,148.7z M50.7,138.5l0,0.6L50.7,138.5L50.7,138.5z"/>
				</g>
			</g>
			<g>
				<g>
					<path class="st1" d="M50.7,150.9c-1.1,0-1.8-0.8-1.8-1.8c0-1.1,0.8-1.8,1.8-1.8c1.1,0,1.8,0.8,1.8,1.8
						C52.6,150.1,51.9,150.9,50.7,150.9L50.7,150.9z M49.6,146.2l-0.4-9.2h3.2l-0.4,9.2H49.6z"/>
				</g>
			</g>
		</g>
		<g>
			<g>
				<g>
					<g>
						<circle class="st0" cx="167.4" cy="137.4" r="7"/>
					</g>
					<g>
						<path class="st2" d="M167.4,145.7c-4.6,0-8.3-3.7-8.3-8.3c0-4.6,3.7-8.3,8.3-8.3s8.3,3.7,8.3,8.3
							C175.7,141.9,172,145.7,167.4,145.7z M167.4,131.7c-3.1,0-5.6,2.5-5.6,5.6c0,3.1,2.5,5.6,5.6,5.6s5.6-2.5,5.6-5.6
							C173.1,134.3,170.5,131.7,167.4,131.7z"/>
					</g>
				</g>
				<g>
					<g>
						<path class="st0" d="M179.8,155.6c0-0.2,0-0.4,0-0.6l0,0c0-5.3-4.4-9.7-9.7-9.7h-6.1c-5.3,0-9.7,4.4-9.7,9.7l0,0
							c0,0.2,0,0.4,0,0.6H179.8z"/>
					</g>
					<g>
						<path class="st2" d="M181.1,156.9h-27.9l-0.1-1.2c0-0.2,0-0.5,0-0.7c0-6.1,4.9-11,11-11h6.1c6.1,0,11,4.9,11,11
							c0,0.2,0,0.5,0,0.7L181.1,156.9z M155.8,154.2h22.7c-0.4-4.3-3.9-7.7-8.3-7.7h-6.1C159.7,146.6,156.1,149.9,155.8,154.2z"/>
					</g>
				</g>
			</g>
			<g>
				<g>
					<path class="st1" d="M167.4,150.9c-1.1,0-1.8-0.8-1.8-1.8c0-1.1,0.8-1.8,1.8-1.8s1.8,0.8,1.8,1.8
						C169.2,150.1,168.5,150.9,167.4,150.9L167.4,150.9z M166.2,146.2l-0.4-9.2h3.2l-0.4,9.2H166.2z"/>
					<path class="st0" d="M167.4,151.4L167.4,151.4c-1.4,0-2.3-1-2.3-2.3s1-2.3,2.3-2.3c1.3,0,2.3,1,2.3,2.3
						C169.7,150.4,168.7,151.4,167.4,151.4z M167.4,147.7c-0.8,0-1.3,0.5-1.3,1.3c0,0.8,0.5,1.3,1.3,1.3h0c0.8,0,1.3-0.5,1.3-1.3
						C168.7,148.2,168.2,147.7,167.4,147.7z M169,146.7h-3.3l-0.5-10.2h4.3L169,146.7z M166.7,145.7h1.4l0.4-8.2h-2.2L166.7,145.7z"
						/>
				</g>
			</g>
			<g>
				<g>
					<path class="st1" d="M167.4,150.9c-1.1,0-1.8-0.8-1.8-1.8c0-1.1,0.8-1.8,1.8-1.8s1.8,0.8,1.8,1.8
						C169.2,150.1,168.5,150.9,167.4,150.9L167.4,150.9z M166.2,146.2l-0.4-9.2h3.2l-0.4,9.2H166.2z"/>
					<path class="st0" d="M167.4,152.4L167.4,152.4c-1.9,0-3.3-1.4-3.3-3.3c0-0.8,0.3-1.5,0.7-2.1l-0.6-11.4h6.4L170,147
						c0.4,0.6,0.7,1.3,0.7,2.1C170.7,151,169.3,152.4,167.4,152.4z M167.4,148.7c-0.2,0-0.3,0.1-0.3,0.3c0,0.3,0.2,0.3,0.3,0.3h0
						c0.1,0,0.3,0,0.3-0.3C167.7,148.7,167.5,148.7,167.4,148.7z M167.4,138.5l0,0.6L167.4,138.5L167.4,138.5z"/>
				</g>
			</g>
			<g>
				<g>
					<path class="st1" d="M167.4,150.9c-1.1,0-1.8-0.8-1.8-1.8c0-1.1,0.8-1.8,1.8-1.8s1.8,0.8,1.8,1.8
						C169.2,150.1,168.5,150.9,167.4,150.9L167.4,150.9z M166.2,146.2l-0.4-9.2h3.2l-0.4,9.2H166.2z"/>
				</g>
			</g>
		</g>
		<g>
			<g>
				<g>
					<g>
						<circle class="st0" cx="108.7" cy="168.7" r="7"/>
					</g>
					<g>
						<path class="st2" d="M108.7,177c-4.6,0-8.3-3.7-8.3-8.3c0-4.6,3.7-8.3,8.3-8.3c4.6,0,8.3,3.7,8.3,8.3
							C117,173.2,113.3,177,108.7,177z M108.7,163c-3.1,0-5.6,2.5-5.6,5.6s2.5,5.6,5.6,5.6s5.6-2.5,5.6-5.6S111.8,163,108.7,163z"/>
					</g>
				</g>
				<g>
					<g>
						<path class="st0" d="M121.1,186.9c0-0.2,0-0.4,0-0.6l0,0c0-5.3-4.4-9.7-9.7-9.7h-6.1c-5.3,0-9.7,4.4-9.7,9.7l0,0
							c0,0.2,0,0.4,0,0.6H121.1z"/>
					</g>
					<g>
						<path class="st2" d="M122.3,188.2H94.5l-0.1-1.2c0-0.2,0-0.5,0-0.7c0-6.1,4.9-11,11-11h6.1c6.1,0,11,4.9,11,11
							c0,0.2,0,0.5,0,0.7L122.3,188.2z M97,185.5h22.7c-0.4-4.3-3.9-7.7-8.3-7.7h-6.1C101,177.9,97.4,181.2,97,185.5z"/>
					</g>
				</g>
			</g>
			<g>
				<g>
					<path class="st1" d="M108.6,182.2c-1.1,0-1.8-0.8-1.8-1.8c0-1.1,0.8-1.8,1.8-1.8c1.1,0,1.8,0.8,1.8,1.8
						C110.5,181.4,109.7,182.2,108.6,182.2L108.6,182.2z M107.5,177.5l-0.4-9.2h3.2l-0.4,9.2H107.5z"/>
					<path class="st0" d="M108.6,182.7L108.6,182.7c-1.4,0-2.3-1-2.3-2.3s1-2.3,2.3-2.3c1.3,0,2.3,1,2.3,2.3
						C111,181.7,110,182.7,108.6,182.7z M108.6,179c-0.8,0-1.3,0.5-1.3,1.3c0,0.8,0.5,1.3,1.3,1.3h0c0.8,0,1.3-0.5,1.3-1.3
						C109.9,179.5,109.4,179,108.6,179z M110.3,178H107l-0.5-10.2h4.3L110.3,178z M108,177h1.4l0.4-8.2h-2.2L108,177z"/>
				</g>
			</g>
			<g>
				<g>
					<path class="st1" d="M108.6,182.2c-1.1,0-1.8-0.8-1.8-1.8c0-1.1,0.8-1.8,1.8-1.8c1.1,0,1.8,0.8,1.8,1.8
						C110.5,181.4,109.7,182.2,108.6,182.2L108.6,182.2z M107.5,177.5l-0.4-9.2h3.2l-0.4,9.2H107.5z"/>
					<path class="st0" d="M108.6,183.7L108.6,183.7c-1.9,0-3.3-1.4-3.3-3.3c0-0.8,0.3-1.5,0.7-2.1l-0.6-11.4h6.4l-0.6,11.5
						c0.4,0.6,0.7,1.3,0.7,2.1C112,182.3,110.5,183.7,108.6,183.7z M108.6,180c-0.2,0-0.3,0.1-0.3,0.3c0,0.3,0.2,0.3,0.3,0.3h0
						c0.1,0,0.3,0,0.3-0.3C108.9,180,108.8,180,108.6,180z M108.6,169.8l0,0.6L108.6,169.8L108.6,169.8z"/>
				</g>
			</g>
			<g>
				<g>
					<path class="st1" d="M108.6,182.2c-1.1,0-1.8-0.8-1.8-1.8c0-1.1,0.8-1.8,1.8-1.8c1.1,0,1.8,0.8,1.8,1.8
						C110.5,181.4,109.7,182.2,108.6,182.2L108.6,182.2z M107.5,177.5l-0.4-9.2h3.2l-0.4,9.2H107.5z"/>
				</g>
			</g>
		</g>
	</g>
</g>
</svg>
