<?xml version="1.0" encoding="utf-8"?>
<!-- Generator: Adobe Illustrator 21.1.0, SVG Export Plug-In . SVG Version: 6.00 Build 0)  -->
<svg version="1.1" id="Capa_1" xmlns="http://www.w3.org/2000/svg" xmlns:xlink="http://www.w3.org/1999/xlink" x="0px" y="0px"
	 viewBox="0 0 222 222" style="enable-background:new 0 0 222 222;" xml:space="preserve">
<style type="text/css">
	.st0{fill:#FFFFFF;}
	.st1{fill:#666666;}
	.st2{fill:#89D4F2;}
</style>
<g>
	<circle class="st0" cx="111" cy="111" r="108.7"/>
	<g>
		<path class="st1" d="M93.5,105l6.4-4.8c-4.5-2.9-7.4-7.9-7.4-13.6c0-8.9,7.2-16.1,16.1-16.1c7.4,0,13.6,5,15.5,11.7l6.5-4.8
			c-3.6-8.6-12.1-14.6-22-14.6c-13.1,0-23.8,10.7-23.8,23.8C84.8,94,88.2,100.6,93.5,105z"/>
		<path class="st1" d="M127.9,107.5l-7.9,5.8c10.9,1.6,19.4,10.5,20.3,21.6H90.8l-10.3,7.7h67.3l0.2-3.6c0-0.7,0.1-1.4,0.1-2.1
			C148.1,123.5,139.7,112,127.9,107.5z"/>
		<path class="st1" d="M91.9,106.2c-8.6,2-15.8,7.5-20.1,14.9L91.9,106.2z"/>
	</g>
	
		<rect x="49.4" y="103.4" transform="matrix(0.8029 -0.5961 0.5961 0.8029 -43.6582 85.0722)" class="st2" width="114.9" height="10.4"/>
</g>
</svg>
