<?xml version="1.0" encoding="utf-8"?>
<!-- Generator: Adobe Illustrator 21.1.0, SVG Export Plug-In . SVG Version: 6.00 Build 0)  -->
<svg version="1.1" id="Capa_1" xmlns="http://www.w3.org/2000/svg" xmlns:xlink="http://www.w3.org/1999/xlink" x="0px" y="0px"
	 viewBox="0 0 222 222" style="enable-background:new 0 0 222 222;" xml:space="preserve">
<style type="text/css">
	.st0{fill:#FFFFFF;}
	.st1{fill:#89D4F2;}
	.st2{fill:#666666;}
</style>
<g>
	<g>
		<circle class="st0" cx="111" cy="111" r="108.7"/>
	</g>
	<g>
		<g>
			<g>
				<g>
					<rect x="90.7" y="109" class="st1" width="34.1" height="1.7"/>
				</g>
				<g>
					<rect x="90.7" y="104" class="st1" width="34.1" height="1.7"/>
				</g>
				<g>
					<rect x="90.7" y="114" class="st1" width="22.7" height="1.7"/>
				</g>
				<g>
					<rect x="90.7" y="98.9" class="st1" width="22.7" height="1.7"/>
				</g>
				<g>
					<rect x="116.3" y="114" class="st1" width="8.5" height="1.7"/>
				</g>
				<g>
					<rect x="116.3" y="88.7" class="st1" width="8.5" height="1.7"/>
				</g>
				<g>
					<rect x="90.7" y="118.9" class="st1" width="34.1" height="1.7"/>
				</g>
				<g>
					<rect x="90.7" y="128.9" class="st1" width="34.1" height="1.7"/>
				</g>
				<g>
					<rect x="103.5" y="123.9" class="st1" width="21.3" height="1.7"/>
				</g>
				<g>
					<rect x="90.7" y="123.9" class="st1" width="9.9" height="1.7"/>
				</g>
				<g>
					<rect x="90.7" y="133.9" class="st1" width="5.7" height="1.7"/>
				</g>
				<g>
					<rect x="99.2" y="133.9" class="st1" width="25.6" height="1.7"/>
				</g>
			</g>
			<g>
				<path class="st2" d="M135.6,140h-2.6V87.1c0-2.3-1.8-4.1-4.1-4.1H86.6v-3.4c0-3.9,3.2-7.1,7.1-7.1h41.9c3.9,0,7.1,3.2,7.1,7.1
					V133C142.6,136.9,139.5,140,135.6,140z M89.6,80h39.2c3.9,0,7.1,3.2,7.1,7.1V137c2.1-0.2,3.7-1.9,3.7-4.1V79.7
					c0-2.3-1.8-4.1-4.1-4.1H93.7c-2.3,0-4.1,1.8-4.1,4.1V80z"/>
			</g>
			<g>
				<path class="st2" d="M124.4,147.5h-33c-6.3,0-11.5-5.2-11.5-11.5V91.5c0-6.3,5.2-11.5,11.5-11.5h33c6.3,0,11.5,5.2,11.5,11.5
					V136C135.9,142.3,130.8,147.5,124.4,147.5z M91.4,83c-4.7,0-8.5,3.8-8.5,8.5V136c0,4.7,3.8,8.5,8.5,8.5h33
					c4.7,0,8.5-3.8,8.5-8.5V91.5c0-4.7-3.8-8.5-8.5-8.5H91.4z"/>
			</g>
		</g>
		<g>
			<path class="st1" d="M114.5,178.4c-0.8,0-1.5-0.6-1.5-1.4c0-0.8,0.6-1.5,1.4-1.6c3.3-0.2,6.5-0.6,9.7-1.3
				c0.8-0.2,1.6,0.4,1.8,1.2s-0.4,1.6-1.2,1.8C121.4,177.8,118,178.2,114.5,178.4C114.6,178.4,114.6,178.4,114.5,178.4z
				 M106.5,178.4c0,0-0.1,0-0.1,0c-3.4-0.2-6.8-0.7-10.1-1.5c-0.8-0.2-1.3-1-1.1-1.8c0.2-0.8,1-1.3,1.8-1.1c3.2,0.7,6.4,1.2,9.7,1.4
				c0.8,0.1,1.5,0.8,1.4,1.6C108,177.8,107.3,178.4,106.5,178.4z M132.2,175c-0.6,0-1.2-0.4-1.4-1c-0.3-0.8,0.2-1.6,0.9-1.9
				c3.1-1,6.1-2.3,9-3.8c0.7-0.4,1.6-0.1,2,0.6c0.4,0.7,0.1,1.6-0.6,2c-3,1.6-6.2,2.9-9.4,4C132.5,175,132.4,175,132.2,175z
				 M88.9,174.7c-0.2,0-0.3,0-0.5-0.1c-3.2-1.1-6.4-2.5-9.4-4.1c-0.7-0.4-1-1.3-0.6-2c0.4-0.7,1.3-1,2-0.6c2.9,1.5,5.9,2.9,8.9,4
				c0.8,0.3,1.2,1.1,0.9,1.9C90.1,174.3,89.6,174.7,88.9,174.7z M148.3,167c-0.5,0-0.9-0.2-1.2-0.7c-0.5-0.7-0.3-1.6,0.4-2.1
				c2.7-1.8,5.2-3.9,7.6-6.1c0.6-0.6,1.6-0.5,2.1,0.1c0.6,0.6,0.5,1.6-0.1,2.1c-2.5,2.3-5.2,4.5-8,6.4
				C148.9,166.9,148.6,167,148.3,167z M73,166.5c-0.3,0-0.6-0.1-0.9-0.3c-2.8-2-5.4-4.2-7.9-6.5c-0.6-0.6-0.6-1.5,0-2.1
				c0.6-0.6,1.5-0.6,2.1,0c2.3,2.3,4.9,4.4,7.5,6.2c0.7,0.5,0.8,1.4,0.4,2.1C73.9,166.2,73.4,166.5,73,166.5z M161.6,154.9
				c-0.3,0-0.7-0.1-1-0.4c-0.6-0.5-0.7-1.5-0.2-2.1c2.1-2.5,4-5.2,5.7-7.9c0.4-0.7,1.4-0.9,2.1-0.5c0.7,0.4,0.9,1.4,0.5,2.1
				c-1.8,2.9-3.8,5.7-6,8.3C162.4,154.7,162,154.9,161.6,154.9z M59.8,154.2c-0.4,0-0.9-0.2-1.2-0.6c-2.2-2.6-4.1-5.5-5.8-8.4
				c-0.4-0.7-0.2-1.6,0.5-2.1c0.7-0.4,1.6-0.2,2.1,0.5c1.7,2.8,3.5,5.5,5.6,8c0.5,0.6,0.4,1.6-0.2,2.1
				C60.5,154.1,60.2,154.2,59.8,154.2z M171.2,139.7c-0.2,0-0.4,0-0.6-0.1c-0.8-0.3-1.1-1.2-0.7-2c1.3-3,2.5-6.1,3.3-9.2
				c0.2-0.8,1.1-1.3,1.8-1c0.8,0.2,1.3,1,1,1.8c-0.9,3.3-2.1,6.5-3.5,9.6C172.3,139.4,171.7,139.7,171.2,139.7z M50.5,138.9
				c-0.6,0-1.1-0.3-1.4-0.9c-1.4-3.1-2.5-6.4-3.4-9.7c-0.2-0.8,0.3-1.6,1.1-1.8c0.8-0.2,1.6,0.3,1.8,1.1c0.8,3.1,1.9,6.3,3.2,9.2
				c0.3,0.8,0,1.6-0.8,2C50.9,138.8,50.7,138.9,50.5,138.9z M176.3,122.5c-0.1,0-0.2,0-0.2,0c-0.8-0.1-1.4-0.9-1.3-1.7
				c0.5-3.2,0.7-6.5,0.7-9.8v-0.2c0-0.8,0.7-1.5,1.5-1.5s1.5,0.7,1.5,1.5v0.2c0,3.4-0.3,6.8-0.8,10.2
				C177.6,121.9,177,122.5,176.3,122.5z M45.6,121.6c-0.7,0-1.4-0.5-1.5-1.3c-0.4-3.1-0.6-6.2-0.6-9.3c0-0.3,0-0.6,0-0.9
				c0-0.8,0.7-1.5,1.5-1.5c0.8,0,1.5,0.7,1.5,1.5c0,0.3,0,0.6,0,0.9c0,3,0.2,6,0.6,8.9c0.1,0.8-0.5,1.6-1.3,1.7
				C45.7,121.6,45.7,121.6,45.6,121.6z M176.5,104.3c-0.7,0-1.4-0.6-1.5-1.3c-0.4-3.2-1-6.5-1.9-9.6c-0.2-0.8,0.2-1.6,1-1.9
				c0.8-0.2,1.6,0.2,1.9,1c0.9,3.3,1.6,6.6,2,10c0.1,0.8-0.5,1.6-1.3,1.7C176.6,104.3,176.6,104.3,176.5,104.3z M45.6,103.6
				c-0.1,0-0.1,0-0.2,0c-0.8-0.1-1.4-0.9-1.3-1.7c0.5-3.4,1.2-6.7,2.1-10c0.2-0.8,1.1-1.2,1.9-1c0.8,0.2,1.2,1.1,1,1.9
				c-0.9,3.1-1.6,6.3-2,9.6C47,103.1,46.3,103.6,45.6,103.6z M171.9,87c-0.6,0-1.1-0.3-1.4-0.9c-1.3-3-2.8-5.9-4.5-8.7
				c-0.4-0.7-0.2-1.6,0.5-2.1c0.7-0.4,1.6-0.2,2.1,0.5c1.8,2.9,3.3,6,4.7,9.1c0.3,0.8,0,1.6-0.8,2C172.3,86.9,172.1,87,171.9,87z
				 M50.4,86.3c-0.2,0-0.4,0-0.6-0.1c-0.8-0.3-1.1-1.2-0.8-2c1.4-3.1,3-6.2,4.8-9.1c0.4-0.7,1.4-0.9,2.1-0.5
				c0.7,0.4,0.9,1.4,0.5,2.1c-1.7,2.8-3.3,5.7-4.6,8.7C51.5,86,51,86.3,50.4,86.3z M162.7,71.5c-0.4,0-0.9-0.2-1.2-0.6
				c-2-2.5-4.3-5-6.6-7.2c-0.6-0.6-0.6-1.5-0.1-2.1c0.6-0.6,1.5-0.6,2.1-0.1c2.5,2.3,4.8,4.8,6.9,7.5c0.5,0.6,0.4,1.6-0.2,2.1
				C163.4,71.4,163.1,71.5,162.7,71.5z M59.7,70.9c-0.3,0-0.7-0.1-0.9-0.3c-0.6-0.5-0.7-1.5-0.2-2.1c2.1-2.6,4.5-5.1,7-7.4
				c0.6-0.6,1.6-0.5,2.1,0.1c0.6,0.6,0.5,1.6-0.1,2.1c-2.4,2.2-4.7,4.6-6.7,7.1C60.6,70.7,60.2,70.9,59.7,70.9z M149.8,59.1
				c-0.3,0-0.6-0.1-0.9-0.3c-2.6-1.9-5.4-3.6-8.3-5.1c-0.7-0.4-1-1.3-0.6-2c0.4-0.7,1.3-1,2-0.6c3,1.6,6,3.4,8.7,5.4
				c0.7,0.5,0.8,1.4,0.3,2.1C150.7,58.9,150.2,59.1,149.8,59.1z M72.8,58.6c-0.5,0-0.9-0.2-1.2-0.6c-0.5-0.7-0.3-1.6,0.4-2.1
				c2.8-2,5.7-3.7,8.8-5.3c0.7-0.4,1.6-0.1,2,0.7c0.4,0.7,0.1,1.6-0.7,2c-2.9,1.5-5.7,3.2-8.4,5C73.4,58.5,73.1,58.6,72.8,58.6z
				 M133.9,50.6c-0.2,0-0.3,0-0.5-0.1c-3-1.1-6.2-2-9.4-2.7c-0.8-0.2-1.3-1-1.2-1.8c0.2-0.8,1-1.3,1.8-1.2c3.3,0.7,6.7,1.6,9.8,2.8
				c0.8,0.3,1.2,1.2,0.9,1.9C135.1,50.2,134.5,50.6,133.9,50.6z M88.8,50.3c-0.6,0-1.2-0.4-1.4-1c-0.3-0.8,0.1-1.6,0.9-1.9
				c3.2-1.1,6.5-2.1,9.9-2.7c0.8-0.2,1.6,0.4,1.8,1.2s-0.4,1.6-1.2,1.8c-3.2,0.6-6.4,1.5-9.4,2.6C89.1,50.3,88.9,50.3,88.8,50.3z
				 M116.4,46.7c0,0-0.1,0-0.1,0c-1.7-0.1-3.5-0.2-5.2-0.2c-1.5,0-3,0.1-4.5,0.2c-0.8,0.1-1.5-0.6-1.6-1.4c-0.1-0.8,0.6-1.5,1.4-1.6
				c1.6-0.1,3.2-0.2,4.7-0.2c1.8,0,3.7,0.1,5.5,0.2c0.8,0.1,1.4,0.8,1.4,1.6C117.8,46.1,117.1,46.7,116.4,46.7z"/>
		</g>
	</g>
	<g>
		<g>
			<g>
				<circle class="st0" cx="173.9" cy="76.5" r="7"/>
			</g>
			<g>
				<path class="st2" d="M173.9,84.8c-4.6,0-8.3-3.7-8.3-8.3s3.7-8.3,8.3-8.3c4.6,0,8.3,3.7,8.3,8.3S178.5,84.8,173.9,84.8z
					 M173.9,70.8c-3.1,0-5.6,2.5-5.6,5.6s2.5,5.6,5.6,5.6s5.6-2.5,5.6-5.6S177,70.8,173.9,70.8z"/>
			</g>
		</g>
		<g>
			<g>
				<path class="st0" d="M186.3,94.7c0-0.2,0-0.4,0-0.6l0,0c0-5.3-4.4-9.7-9.7-9.7h-6.1c-5.3,0-9.7,4.4-9.7,9.7l0,0
					c0,0.2,0,0.4,0,0.6H186.3z"/>
			</g>
			<g>
				<path class="st2" d="M187.6,96h-27.9l-0.1-1.2c0-0.2,0-0.5,0-0.7c0-6.1,4.9-11,11-11h6.1c6.1,0,11,4.9,11,11c0,0.2,0,0.5,0,0.7
					L187.6,96z M162.3,93.3H185c-0.4-4.3-3.9-7.7-8.3-7.7h-6.1C166.2,85.7,162.6,89,162.3,93.3z"/>
			</g>
		</g>
	</g>
	<g>
		<g>
			<g>
				<circle class="st0" cx="170.9" cy="138.8" r="7"/>
			</g>
			<g>
				<path class="st2" d="M170.9,147.1c-4.6,0-8.3-3.7-8.3-8.3c0-4.6,3.7-8.3,8.3-8.3c4.6,0,8.3,3.7,8.3,8.3
					C179.2,143.4,175.5,147.1,170.9,147.1z M170.9,133.2c-3.1,0-5.6,2.5-5.6,5.6s2.5,5.6,5.6,5.6s5.6-2.5,5.6-5.6
					S174,133.2,170.9,133.2z"/>
			</g>
		</g>
		<g>
			<g>
				<path class="st0" d="M183.3,157c0-0.2,0-0.4,0-0.6l0,0c0-5.3-4.4-9.7-9.7-9.7h-6.1c-5.3,0-9.7,4.4-9.7,9.7l0,0
					c0,0.2,0,0.4,0,0.6H183.3z"/>
			</g>
			<g>
				<path class="st2" d="M184.6,158.3h-27.9l-0.1-1.2c0-0.2,0-0.5,0-0.7c0-6.1,4.9-11,11-11h6.1c6.1,0,11,4.9,11,11
					c0,0.2,0,0.5,0,0.7L184.6,158.3z M159.3,155.7H182c-0.4-4.3-3.9-7.7-8.3-7.7h-6.1C163.2,148,159.6,151.4,159.3,155.7z"/>
			</g>
		</g>
	</g>
	<g>
		<g>
			<g>
				<circle class="st0" cx="53.9" cy="138.8" r="7"/>
			</g>
			<g>
				<path class="st2" d="M53.9,147.1c-4.6,0-8.3-3.7-8.3-8.3c0-4.6,3.7-8.3,8.3-8.3s8.3,3.7,8.3,8.3
					C62.2,143.4,58.5,147.1,53.9,147.1z M53.9,133.2c-3.1,0-5.6,2.5-5.6,5.6s2.5,5.6,5.6,5.6s5.6-2.5,5.6-5.6S57,133.2,53.9,133.2z"
					/>
			</g>
		</g>
		<g>
			<g>
				<path class="st0" d="M66.3,157c0-0.2,0-0.4,0-0.6l0,0c0-5.3-4.4-9.7-9.7-9.7h-6.1c-5.3,0-9.7,4.4-9.7,9.7l0,0c0,0.2,0,0.4,0,0.6
					H66.3z"/>
			</g>
			<g>
				<path class="st2" d="M67.6,158.3H39.7l-0.1-1.2c0-0.2,0-0.5,0-0.7c0-6.1,4.9-11,11-11h6.1c6.1,0,11,4.9,11,11c0,0.2,0,0.5,0,0.7
					L67.6,158.3z M42.3,155.7H65c-0.4-4.3-3.9-7.7-8.3-7.7h-6.1C46.2,148,42.6,151.4,42.3,155.7z"/>
			</g>
		</g>
	</g>
	<g>
		<g>
			<g>
				<circle class="st0" cx="49.9" cy="76.5" r="7"/>
			</g>
			<g>
				<path class="st2" d="M49.9,84.8c-4.6,0-8.3-3.7-8.3-8.3s3.7-8.3,8.3-8.3s8.3,3.7,8.3,8.3S54.5,84.8,49.9,84.8z M49.9,70.8
					c-3.1,0-5.6,2.5-5.6,5.6s2.5,5.6,5.6,5.6s5.6-2.5,5.6-5.6S53,70.8,49.9,70.8z"/>
			</g>
		</g>
		<g>
			<g>
				<path class="st0" d="M62.3,94.7c0-0.2,0-0.4,0-0.6l0,0c0-5.3-4.4-9.7-9.7-9.7h-6.1c-5.3,0-9.7,4.4-9.7,9.7l0,0
					c0,0.2,0,0.4,0,0.6H62.3z"/>
			</g>
			<g>
				<path class="st2" d="M63.6,96H35.7l-0.1-1.2c0-0.2,0-0.5,0-0.7c0-6.1,4.9-11,11-11h6.1c6.1,0,11,4.9,11,11c0,0.2,0,0.5,0,0.7
					L63.6,96z M38.3,93.3H61c-0.4-4.3-3.9-7.7-8.3-7.7h-6.1C42.2,85.7,38.6,89,38.3,93.3z"/>
			</g>
		</g>
	</g>
	<g>
		<g>
			<g>
				<circle class="st0" cx="111.9" cy="36.5" r="7"/>
			</g>
			<g>
				<path class="st2" d="M111.9,44.8c-4.6,0-8.3-3.7-8.3-8.3s3.7-8.3,8.3-8.3c4.6,0,8.3,3.7,8.3,8.3S116.5,44.8,111.9,44.8z
					 M111.9,30.8c-3.1,0-5.6,2.5-5.6,5.6c0,3.1,2.5,5.6,5.6,5.6s5.6-2.5,5.6-5.6C117.5,33.4,115,30.8,111.9,30.8z"/>
			</g>
		</g>
		<g>
			<g>
				<path class="st0" d="M124.3,54.7c0-0.2,0-0.4,0-0.6l0,0c0-5.3-4.4-9.7-9.7-9.7h-6.1c-5.3,0-9.7,4.4-9.7,9.7l0,0
					c0,0.2,0,0.4,0,0.6H124.3z"/>
			</g>
			<g>
				<path class="st2" d="M125.6,56H97.7l-0.1-1.2c0-0.2,0-0.5,0-0.7c0-6.1,4.9-11,11-11h6.1c6.1,0,11,4.9,11,11c0,0.2,0,0.5,0,0.7
					L125.6,56z M100.3,53.3H123c-0.4-4.3-3.9-7.7-8.3-7.7h-6.1C104.2,45.7,100.6,49,100.3,53.3z"/>
			</g>
		</g>
	</g>
	<g>
		<g>
			<g>
				<circle class="st0" cx="111.9" cy="170.5" r="7"/>
			</g>
			<g>
				<path class="st2" d="M111.9,178.8c-4.6,0-8.3-3.7-8.3-8.3c0-4.6,3.7-8.3,8.3-8.3c4.6,0,8.3,3.7,8.3,8.3
					C120.2,175.1,116.5,178.8,111.9,178.8z M111.9,164.8c-3.1,0-5.6,2.5-5.6,5.6c0,3.1,2.5,5.6,5.6,5.6s5.6-2.5,5.6-5.6
					C117.5,167.4,115,164.8,111.9,164.8z"/>
			</g>
		</g>
		<g>
			<g>
				<path class="st0" d="M124.3,188.7c0-0.2,0-0.4,0-0.6l0,0c0-5.3-4.4-9.7-9.7-9.7h-6.1c-5.3,0-9.7,4.4-9.7,9.7l0,0
					c0,0.2,0,0.4,0,0.6H124.3z"/>
			</g>
			<g>
				<path class="st2" d="M125.6,190H97.7l-0.1-1.2c0-0.2,0-0.5,0-0.7c0-6.1,4.9-11,11-11h6.1c6.1,0,11,4.9,11,11c0,0.2,0,0.5,0,0.7
					L125.6,190z M100.3,187.3H123c-0.4-4.3-3.9-7.7-8.3-7.7h-6.1C104.2,179.7,100.6,183,100.3,187.3z"/>
			</g>
		</g>
	</g>
</g>
</svg>
