<svg id="Layer_1" height="512" viewBox="0 0 512 512" width="512" xmlns="http://www.w3.org/2000/svg" data-name="Layer 1"><path style="fill:#fff;" d="m317.49 454.447a41.547 41.547 0 0 0 41.5-41.5v-70.018l-1.65 1.654a10.784 10.784 0 0 1 -5.213 2.892l-54.384 12.573a6 6 0 0 1 -7.2-7.2l12.574-54.384a10.78 10.78 0 0 1 2.892-5.209l52.979-52.873v-153.519a41.178 41.178 0 0 1 12.232-29.31h-224.393a27.452 27.452 0 0 0 -27.627 27.208l-1.65 291.5h152.44a6 6 0 0 1 6 6v30.686a41.547 41.547 0 0 0 41.5 41.5zm-152.168-338.695h65.155a6 6 0 0 1 0 12h-65.155a6 6 0 0 1 0-12zm0 50.443h140.819a6 6 0 0 1 0 12h-140.819a6 6 0 0 1 0-12zm0 50.3h140.819a6 6 0 1 1 0 12h-140.819a6 6 0 0 1 0-12zm0 50.3h140.819a6 6 0 0 1 0 12h-140.819a6 6 0 0 1 0-12zm105.819 62.285h-105.819a6 6 0 0 1 0-12h105.819a6 6 0 0 1 0 12z"/><path style="fill:#fff;" d="m103.11 454.447h180.664a53.413 53.413 0 0 1 -19.784-41.5v-24.686h-202.38v24.686a41.547 41.547 0 0 0 41.5 41.5z"/><path style="fill:#fff;" d="m429.61 86.863a29.31 29.31 0 0 0 -58.62 0v50.327h58.62z"/><path style="fill:#fff;" d="m431.547 253.237-34.189-34.189-28.122 28.065-.007.008-51.317 51.213 34.349 34.35z"/><path style="fill:#fff;" d="m304.401 346.192 36.061-8.337-27.723-27.723z"/><path style="fill:#fff;" d="m415.19 201.252-9.337 9.319 34.171 34.172 9.318-9.338a3.6 3.6 0 0 0 0-5.08l-29.072-29.069a3.6 3.6 0 0 0 -5.08-.004z"/></svg>