<?xml version="1.0" encoding="iso-8859-1"?>
<!-- Generator: Adobe Illustrator 16.0.0, SVG Export Plug-In . SVG Version: 6.00 Build 0)  -->
<!DOCTYPE svg PUBLIC "-//W3C//DTD SVG 1.1//EN" "http://www.w3.org/Graphics/SVG/1.1/DTD/svg11.dtd">
<svg version="1.1" id="Capa_1" xmlns="http://www.w3.org/2000/svg" xmlns:xlink="http://www.w3.org/1999/xlink" x="0px" y="0px"
	 width="612px" height="612px" viewBox="0 0 612 612" style="enable-background:new 0 0 612 612;" xml:space="preserve">
<g>
	<path style="fill:#fff;" d="M61.246,411.197c-31.376,0-56.811,25.434-56.811,56.809c0,31.377,25.436,56.811,56.811,56.811
		c31.375,0,56.81-25.434,56.81-56.811C118.056,436.631,92.621,411.197,61.246,411.197z M61.246,496.412
		c-15.688,0-28.405-12.717-28.405-28.404s12.718-28.406,28.405-28.406c15.687,0,28.405,12.719,28.405,28.406
		S76.934,496.412,61.246,496.412z M498.347,356.172l-77.277,47.848c-1.429-3.311-2.235-6.951-2.235-10.785v-75.26
		c0-3.486,0.715-6.791,1.907-9.855L498.347,356.172z M430.615,295.559c4.404-3.051,9.732-4.861,15.495-4.861h138.614
		c4.91,0,9.454,1.401,13.435,3.673l-84.731,52.463L430.615,295.559z M528.508,356.172l80.717-49.979
		c1.725,3.58,2.775,7.543,2.775,11.783v75.258c0,4.584-1.238,8.838-3.236,12.631L528.508,356.172z M404.942,434.277h144.623v28.924
		h-138.62c-1.62-24.09-15.225-44.896-34.927-56.537v-0.051c0.116,0.068,0.246,0.117,0.361,0.186l-0.361-0.713V116.107h28.924
		V434.277z M597.182,417.367c-3.75,1.941-7.943,3.143-12.458,3.143H446.109c-5.375,0-10.354-1.607-14.578-4.293l81.896-50.709
		L597.182,417.367z M498.347,210.854l-77.277,47.849c-1.429-3.311-2.235-6.952-2.235-10.786v-75.259
		c0-3.486,0.715-6.791,1.907-9.855L498.347,210.854z M430.615,150.242c4.404-3.051,9.732-4.86,15.495-4.86h138.614
		c4.91,0,9.454,1.4,13.435,3.672l-84.731,52.463L430.615,150.242z M528.508,210.854l80.717-49.978
		c1.725,3.58,2.775,7.542,2.775,11.782v75.259c0,4.584-1.238,8.838-3.236,12.629L528.508,210.854z M597.182,272.05
		c-3.75,1.941-7.943,3.143-12.458,3.143H446.109c-5.375,0-10.354-1.609-14.578-4.294l81.896-50.708L597.182,272.05z M226.38,110.95
		c-7.392-14.579-22.35-23.766-38.697-23.766H94.005c-15.975,0-28.925,12.95-28.925,28.925v151.854H36.155
		C16.188,267.961,0,284.148,0,304.116v127.485c12.438-20.898,35.216-34.855,61.248-34.855c37.674,0,68.624,29.359,71.154,66.455
		H268.78c2.531-37.096,33.408-66.455,71.154-66.455c13.16,0,25.529,3.631,36.084,9.867v-0.529L226.38,110.95z M281.146,326.1
		H117.578c-4.05,0-7.23-3.254-7.23-7.23V139.103c0-3.977,3.182-7.23,7.23-7.23h71.226c2.748,0,5.207,1.519,6.436,3.904
		l92.342,179.767C290.04,320.387,286.569,326.1,281.146,326.1z M339.915,411.197c-31.376,0-56.811,25.434-56.811,56.809
		c0,31.377,25.436,56.811,56.811,56.811s56.811-25.434,56.811-56.811C396.726,436.631,371.29,411.197,339.915,411.197z
		 M339.915,496.412c-15.688,0-28.405-12.717-28.405-28.404s12.718-28.406,28.405-28.406c15.687,0,28.405,12.719,28.405,28.406
		S355.603,496.412,339.915,496.412z"/>
</g>
<g>
</g>
<g>
</g>
<g>
</g>
<g>
</g>
<g>
</g>
<g>
</g>
<g>
</g>
<g>
</g>
<g>
</g>
<g>
</g>
<g>
</g>
<g>
</g>
<g>
</g>
<g>
</g>
<g>
</g>
</svg>
