<svg height="512pt" viewBox="0 0 512 512" width="512pt" xmlns="http://www.w3.org/2000/svg"><path style="fill:#fff;" d="m120.0625 510.707031c0 .40625-.027344.808594-.058594 1.207031h272.015625v-231.960937h-271.957031zm29.996094-164.761719c0-8.285156 6.714844-15 14.996094-15 3.308593 0 6-2.691406 6-5.996093 0-8.285157 6.714843-15 15-15h139.976562c8.28125 0 14.996094 6.714843 14.996094 15 0 3.304687 2.691406 5.996093 6 5.996093 8.28125 0 14.996094 6.714844 14.996094 15v99.980469c0 8.285157-6.714844 15-14.996094 15-3.308594 0-6 2.691407-6 6 0 8.28125-6.714844 14.996094-14.996094 14.996094h-139.976562c-8.285157 0-15-6.714844-15-14.996094 0-3.308593-2.691407-6-6-6-8.28125 0-14.996094-6.714843-14.996094-15zm0 0"/><path style="fill:#fff;" d="m197.773438 451.925781h116.535156c3.59375-7.8125 9.90625-14.125 17.71875-17.722656v-76.535156c-7.808594-3.597657-14.125-9.910157-17.71875-17.722657h-116.535156c-3.59375 7.808594-9.90625 14.125-17.71875 17.722657v76.535156c7.8125 3.597656 14.125 9.910156 17.71875 17.722656zm0 0"/><path style="fill:#fff;" d="m90.070312 279.953125h-59.992187v216.964844c0 8.28125 6.714844 14.996093 14.996094 14.996093h45.054687c-.03125-.398437-.058594-.800781-.058594-1.207031zm0 0"/><path style="fill:#fff;" d="m422.015625 511.914062h44.992187c8.28125 0 14.996094-6.714843 14.996094-14.996093v-216.964844h-59.988281zm0 0"/><path style="fill:#fff;" d="m86.070312 71.351562c19.671876 0 35.675782-16.003906 35.675782-35.675781s-16.003906-35.675781-35.675782-35.675781c-19.671874 0-35.675781 16.003906-35.675781 35.675781s16.003907 35.675781 35.675781 35.675781zm0 0"/><path style="fill:#fff;" d="m256 71.351562c19.671875 0 35.675781-16.003906 35.675781-35.675781s-16.003906-35.675781-35.675781-35.675781-35.675781 16.003906-35.675781 35.675781 16.003906 35.675781 35.675781 35.675781zm0 0"/><path style="fill:#fff;" d="m426.011719 71.351562c19.671875 0 35.675781-16.003906 35.675781-35.675781s-16.003906-35.675781-35.675781-35.675781-35.675781 16.003906-35.675781 35.675781 16.003906 35.675781 35.675781 35.675781zm0 0"/><path style="fill:#fff;" d="m156.058594 123.675781c0-5.722656-3.261719-10.949219-8.402344-13.46875-23.28125-11.398437-42.851562-16.714843-61.59375-16.722656-.011719 0-.027344 0-.039062 0-18.742188 0-38.300782 5.316406-61.554688 16.730469-5.136719 2.519531-8.390625 7.742187-8.390625 13.460937v25.300781h139.980469zm0 0"/><path style="fill:#fff;" d="m497.003906 178.972656h-482.007812c-8.28125 0-14.996094 6.714844-14.996094 14.996094v40.992188c0 8.285156 6.714844 15 14.996094 15h482.007812c8.28125 0 14.996094-6.714844 14.996094-15v-40.992188c0-8.28125-6.714844-14.996094-14.996094-14.996094zm0 0"/><path style="fill:#fff;" d="m325.988281 123.675781c0-5.722656-3.257812-10.949219-8.402343-13.46875-23.28125-11.398437-42.851563-16.714843-61.589844-16.722656-.015625 0-.027344 0-.042969 0-18.738281 0-38.300781 5.316406-61.550781 16.730469-5.136719 2.519531-8.390625 7.742187-8.390625 13.460937v25.300781h139.976562zm0 0"/><path style="fill:#fff;" d="m496.003906 123.675781c0-5.722656-3.261718-10.949219-8.402344-13.46875-23.28125-11.398437-42.855468-16.714843-61.59375-16.722656-.015624 0-.027343 0-.039062 0-18.742188 0-38.300781 5.316406-61.554688 16.730469-5.136718 2.519531-8.390624 7.742187-8.390624 13.460937v25.300781h139.980468zm0 0"/></svg>