<svg xmlns="http://www.w3.org/2000/svg" height="511pt" version="1.1" viewBox="1 0 511 511.99874" width="511pt">
<g id="surface1">
<path style="fill:#fff;" d="M 391.8125 120.683594 C 350.882812 79.753906 284.257812 79.597656 243.171875 120.683594 C 202.246094 161.609375 202.085938 228.234375 243.171875 269.320312 C 282.800781 308.949219 352.183594 308.949219 391.8125 269.320312 C 432.742188 228.394531 432.898438 161.769531 391.8125 120.683594 Z M 391.8125 120.683594 " />
<path style="fill:#fff;" d="M 455.449219 332.957031 C 531.511719 256.894531 531.511719 133.109375 455.449219 57.046875 C 379.382812 -19.015625 255.601562 -19.015625 179.539062 57.046875 C 103.472656 133.109375 103.472656 256.894531 179.539062 332.957031 C 255.617188 409.035156 379.382812 409.023438 455.449219 332.957031 Z M 221.949219 99.460938 C 274.667969 46.714844 360.324219 46.71875 413.035156 99.460938 C 465.78125 152.175781 465.773438 237.832031 413.035156 290.542969 C 360.316406 343.289062 274.691406 343.285156 221.949219 290.542969 C 169.199219 237.792969 169.214844 152.167969 221.949219 99.460938 Z M 221.949219 99.460938 " />
<path style="fill:#fff;" d="M 77.339844 498.839844 L 109.175781 466.996094 L 45.496094 403.316406 L 13.644531 435.160156 C -3.882812 452.71875 -3.882812 481.28125 13.660156 498.851562 C 31.199219 516.363281 59.746094 516.402344 77.339844 498.839844 Z M 77.339844 498.839844 "/>
<path style="fill:#fff;" d="M 130.398438 445.773438 L 193.351562 382.8125 C 180.878906 374.542969 169.132812 364.996094 158.316406 354.179688 C 147.414062 343.277344 137.878906 331.523438 129.6875 319.132812 L 66.71875 382.097656 Z M 130.398438 445.773438 " />
</g>
</svg>