<?xml version="1.0" encoding="iso-8859-1"?>
<!-- Generator: Adobe Illustrator 17.1.0, SVG Export Plug-In . SVG Version: 6.00 Build 0)  -->
<!DOCTYPE svg PUBLIC "-//W3C//DTD SVG 1.1//EN" "http://www.w3.org/Graphics/SVG/1.1/DTD/svg11.dtd">
<svg version="1.1" id="Capa_1" xmlns="http://www.w3.org/2000/svg" xmlns:xlink="http://www.w3.org/1999/xlink" x="0px" y="0px"
	 viewBox="0 0 482.003 482.003" style="enable-background:new 0 0 482.003 482.003;" xml:space="preserve">
<g>
	<path style="fill:#fff;" d="M303.99,172.455l102.914-63.335c11.233-6.913,14.747-21.677,7.835-32.911c-4.388-7.13-12.012-11.386-20.394-11.386
		c-4.413,0-8.741,1.228-12.516,3.551l-96.696,59.508c0,0-99.865,0.014-100.372,0.014c-3.459,0-6.817,0.738-9.983,2.193
		L42.319,191.016c-11.983,5.512-17.248,19.746-11.736,31.728c3.892,8.463,12.427,13.932,21.746,13.932
		c3.457,0,6.815-0.738,9.982-2.193l107.933-49.645l0.014,269.733c0,15.126,12.306,27.433,27.433,27.433
		c15.127,0,27.433-12.307,27.433-27.433V312.784h23.985V454.57c0,15.126,12.306,27.433,27.433,27.433
		c15.127,0,27.433-12.307,27.433-27.433L303.99,172.455z"/>
	<path style="fill:#fff;" d="M240.356,118.098c32.56,0,59.048-26.489,59.048-59.049C299.404,26.489,272.916,0,240.356,0
		c-32.551,0-59.033,26.489-59.033,59.049C181.323,91.608,207.805,118.098,240.356,118.098z"/>
	<path style="fill:#fff;" d="M456.875,235.434l-47.549-96.811c-2.312-4.707-6.075-7.406-10.325-7.406c-4.249,0-8.013,2.699-10.325,7.406l-47.549,96.811
		c-2.188,4.455-2.138,9.105,0.138,12.759c0.683,1.096,1.551,2.031,2.542,2.833c11.4,12.676,50.109,13.104,55.194,13.104
		c5.085,0,43.794-0.428,55.194-13.104c0.991-0.802,1.859-1.737,2.542-2.833C459.013,244.539,459.063,239.889,456.875,235.434z
		 M399.001,147.09l39.232,79.879c-15.616-4.48-35.672-4.689-39.232-4.689c-3.56,0-23.616,0.21-39.232,4.689L399.001,147.09z"/>
	<path style="fill:#fff;" d="M93.326,249.48c-2.312-4.707-6.075-7.406-10.325-7.406c-4.249,0-8.013,2.699-10.325,7.406l-47.549,96.813
		c-2.188,4.455-2.138,9.105,0.138,12.76c0.683,1.097,1.553,2.033,2.546,2.834c11.404,12.672,50.106,13.1,55.19,13.1
		s43.786-0.428,55.19-13.1c0.993-0.801,1.863-1.737,2.546-2.834c2.276-3.654,2.326-8.305,0.138-12.76L93.326,249.48z
		 M83.001,257.948l39.232,79.879c-15.616-4.478-35.672-4.688-39.232-4.688c-3.561,0-23.616,0.21-39.232,4.688L83.001,257.948z"/>
</g>
<g>
</g>
<g>
</g>
<g>
</g>
<g>
</g>
<g>
</g>
<g>
</g>
<g>
</g>
<g>
</g>
<g>
</g>
<g>
</g>
<g>
</g>
<g>
</g>
<g>
</g>
<g>
</g>
<g>
</g>
</svg>
