<svg xmlns="http://www.w3.org/2000/svg" height="512pt" version="1.1" viewBox="0 0 512 512" width="512pt">
<g id="surface1">
<path style="fill:#fff;" d="M 421 497 L 421 482 L 271 482 L 271 497 C 271 505.289062 277.710938 512 286 512 L 406 512 C 414.289062 512 421 505.289062 421 497 Z M 421 497 "  />
<path style="fill:#fff;" d="M 241 497 L 241 482 L 91 482 L 91 497 C 91 505.289062 97.710938 512 106 512 L 226 512 C 234.289062 512 241 505.289062 241 497 Z M 241 497 "  />
<path style="fill:#fff;" d="M 481 0 C 464.5 0 451 13.5 451 30 L 451 197 C 451 200.898438 449.5 204.800781 446.5 207.5 L 386.5 267.5 C 380.800781 273.5 371.199219 273.5 365.5 267.5 C 359.5 261.800781 359.5 252.199219 365.5 246.5 L 412.597656 199.101562 C 424.296875 187.097656 423.398438 168.199219 412.300781 157.097656 C 400.601562 145.398438 381.398438 145.398438 369.699219 157.097656 L 292.898438 233.898438 C 279.828125 246.972656 272.464844 264.230469 271.417969 282.6875 C 283.304688 278.605469 296.761719 279.296875 308.484375 286.0625 C 325.039062 295.617188 333.109375 314.160156 330.335938 332 L 421 332 L 421 324.199219 L 450.699219 300.199219 C 488.800781 269.597656 511.699219 226.699219 512 181.699219 L 512 30 C 512 13.5 497.5 0 481 0 Z M 481 0 "  />
<path style="fill:#fff;" d="M 436 362 L 316.625 362 L 299.304688 392 L 436 392 C 444.285156 392 451 385.285156 451 377 C 451 368.714844 444.285156 362 436 362 Z M 436 362 "  />
<path style="fill:#fff;" d="M 76 392 L 195.375 392 L 212.695312 362 L 76 362 C 67.714844 362 61 368.714844 61 377 C 61 385.285156 67.714844 392 76 392 Z M 76 392 "  />
<path style="fill:#fff;" d="M 76 452 L 187.597656 452 C 182.234375 443.015625 180.039062 432.441406 181.664062 422 L 76 422 C 67.714844 422 61 428.714844 61 437 C 61 445.285156 67.714844 452 76 452 Z M 76 452 "  />
<path style="fill:#fff;" d="M 451 437 C 451 428.714844 444.285156 422 436 422 L 281.984375 422 L 264.980469 451.457031 C 264.863281 451.660156 264.679688 451.800781 264.558594 452 L 436 452 C 444.285156 452 451 445.285156 451 437 Z M 451 437 "  />
<path style="fill:#fff;" d="M 61.300781 300.199219 L 91 324.199219 L 91 332 L 230.015625 332 L 241 312.96875 L 241 287 C 241 266.898438 233.199219 248 219.101562 233.898438 L 142.300781 157.097656 C 130.601562 145.398438 111.398438 145.398438 99.699219 157.097656 C 88.601562 168.199219 87.699219 187.097656 99.402344 199.101562 L 146.5 246.5 C 152.5 252.199219 152.5 261.800781 146.5 267.5 C 140.800781 273.5 131.203125 273.5 125.5 267.5 L 65.5 207.5 C 62.5 204.800781 61 200.898438 61 197 L 61 30 C 61 13.5 47.5 0 31 0 C 14.5 0 0 13.5 0 30 L 0 181.699219 C 0.300781 226.699219 23.199219 269.597656 61.300781 300.199219 Z M 61.300781 300.199219 "  />
<path style="fill:#fff;" d="M 293.5 312.050781 C 286.308594 307.902344 277.136719 310.363281 273.007812 317.542969 L 213.007812 421.457031 C 208.875 428.621094 211.335938 437.820312 218.5 441.949219 C 225.691406 446.109375 234.863281 443.605469 238.992188 436.457031 L 298.992188 332.542969 C 303.125 325.378906 300.664062 316.179688 293.5 312.050781 Z M 293.5 312.050781 "  />
</g>
</svg>