<svg viewBox="0 0 512 512" xmlns="http://www.w3.org/2000/svg"><path style="fill:#fff;" d="m497 0h-482c-8.289062 0-15 6.710938-15 15v482c0 8.289062 6.710938 15 15 15h482c8.289062 0 15-6.710938 15-15 0-235.390625 0-309.199219 0-482 0-8.289062-6.710938-15-15-15zm-15 422h-61v-30c0-16.539062-13.460938-30-30-30h-30c-16.539062 0-30 13.460938-30 30s13.460938 30 30 30h-51.65625c-5.167969-8.859375-8.34375-19.023438-8.34375-30 0-33.089844 26.910156-60 60-60h30v-302h91zm-331-392h90v94.128906c-25.808594 6.707032-45 29.988282-45 57.871094s19.191406 51.164062 45 57.871094v3.015625c-36.398438 4.132812-68.191406 23.046875-90 50.308593zm120 209.871094c25.808594-6.707032 45-29.988282 45-57.871094s-19.191406-51.164062-45-57.871094v-94.128906h90v263.195312c-21.808594-27.261718-53.601562-46.175781-90-50.308593zm-150-209.871094v302h30c33.089844 0 60 26.910156 60 60 0 10.976562-3.175781 21.140625-8.34375 30h-51.65625c16.539062 0 30-13.460938 30-30s-13.460938-30-30-30h-30c-16.539062 0-30 13.460938-30 30v30h-61v-392zm0 0"/></svg>