<?xml version="1.0" encoding="utf-8"?>
<!-- Generator: Adobe Illustrator 24.0.2, SVG Export Plug-In . SVG Version: 6.00 Build 0)  -->
<svg version="1.1" id="Capa_1" xmlns="http://www.w3.org/2000/svg" xmlns:xlink="http://www.w3.org/1999/xlink" x="0px" y="0px"
	 viewBox="0 0 42.6 42.6" style="enable-background:new 0 0 42.6 42.6;" xml:space="preserve">
<style type="text/css">
	.st0{fill:#FFFFFF;}
</style>
<g>
	<g>
		<path class="st0" d="M11.5,29.3l1.1-1.1h8l-5.1-9.2l-3.8,0.8c-1,0.2-1.8,0.9-2,1.9L5.3,36.3c-0.2,0.8,0,1.6,0.5,2.3
			c0.5,0.7,1.3,1,2.1,1h3.7L11.5,29.3L11.5,29.3z"/>
		<path class="st0" d="M37.3,36.3l-4.5-14.6c-0.3-1-1.1-1.7-2.1-1.9L27,19.1L22,28.3h8.6l1.1,1.1v10.3h3.1c0.8,0,1.6-0.4,2.1-1
			C37.3,37.9,37.5,37.1,37.3,36.3z"/>
		<polygon class="st0" points="13.7,39.6 13.4,39.6 13.4,39.6 29.2,39.6 29.2,39.6 29.5,39.6 29.5,30.4 13.7,30.4 		"/>
		<rect x="9.4" y="40.6" class="st0" width="23.8" height="2"/>
		<path class="st0" d="M12.8,12.7c0,0.1,0.1,0.2,0.2,0.4c0.2,0.6,0.4,1,0.7,1.2c1.2,3.9,4.3,6.7,7.6,6.7c3.3,0,6.4-2.8,7.5-6.7
			c0.3-0.2,0.4-0.7,0.7-1.2c0.1-0.1,0.1-0.3,0.1-0.4c0.4-0.9,0.3-1.9-0.3-2.4c0,0,0-0.1,0-0.1C29.3,5.2,28.7,0,21.2,0
			c-7.5,0-8.1,5-8.1,10.1c0,0,0,0.1,0,0.1C12.5,10.7,12.4,11.7,12.8,12.7z M13.9,11.1L13.9,11.1c0.1-0.1,0.2-0.1,0.3-0.2l1.3,0.2
			c0.1,0,0.2,0,0.3-0.2L16.6,9c0.9,0.2,4.4,1,7.2,1c0.9,0,1.6-0.1,2.1-0.2l0.5,1.3c0,0.1,0.1,0.2,0.3,0.2c0,0,0,0,0.1,0l1.5-0.4
			c0.1,0.1,0.2,0.2,0.3,0.3l0,0c0.2,0.1,0.3,0.6,0.1,1.1c-0.1,0.1-0.1,0.3-0.2,0.4c-0.1,0.2-0.3,0.7-0.4,0.8
			c-0.1,0.1-0.2,0.2-0.3,0.3c-1,3.6-3.7,6.1-6.5,6.1c-2.9,0-5.6-2.5-6.6-6c0-0.1-0.1-0.3-0.3-0.3c-0.1-0.1-0.3-0.6-0.4-0.8
			c-0.1-0.2-0.1-0.3-0.2-0.4C13.6,11.7,13.6,11.2,13.9,11.1z"/>
	</g>
</g>
</svg>
