<svg xmlns="http://www.w3.org/2000/svg" height="512pt" version="1.1" viewBox="0 0 512 512" width="512pt">
<g id="surface1">
<path style="fill:#fff;" d="M 497 241 L 480.238281 241 C 472.796875 128.90625 383.09375 39.203125 271 31.761719 L 271 16 C 271 7.710938 264.289062 0 256 0 C 247.710938 0 241 7.710938 241 16 L 241 31.761719 C 128.90625 39.203125 39.203125 128.90625 31.761719 241 L 15 241 C 6.710938 241 0 247.710938 0 256 C 0 264.289062 6.710938 271 15 271 L 31.761719 271 C 39.203125 383.09375 128.90625 472.796875 241 480.238281 L 241 497 C 241 505.289062 247.710938 512 256 512 C 264.289062 512 271 505.289062 271 497 L 271 480.238281 C 383.09375 472.796875 472.796875 383.09375 480.238281 271 L 497 271 C 505.289062 271 512 264.289062 512 256 C 512 247.710938 505.289062 241 497 241 Z M 271 450.238281 L 271 436 C 271 427.710938 264.289062 421 256 421 C 247.710938 421 241 427.710938 241 436 L 241 450.238281 C 145.453125 442.910156 69.089844 366.546875 61.761719 271 L 76 271 C 84.289062 271 91 264.289062 91 256 C 91 247.710938 84.289062 241 76 241 L 61.761719 241 C 69.089844 145.453125 145.453125 69.089844 241 61.761719 L 241 76 C 241 84.289062 247.710938 91 256 91 C 264.289062 91 271 84.289062 271 76 L 271 61.761719 C 366.546875 69.089844 442.910156 145.453125 450.238281 241 L 436 241 C 427.710938 241 421 247.710938 421 256 C 421 264.289062 427.710938 270.898438 436 270.898438 L 450.238281 270.898438 C 442.910156 366.449219 366.546875 442.910156 271 450.238281 Z M 271 450.238281 "  />
<path style="fill:#fff;" d="M 331 376 L 181 376 C 172.710938 376 166 369.289062 166 361 L 166 316 C 166 282.910156 192.910156 256 226 256 L 226 247.972656 C 207.484375 237.25 196 217.34375 196 196 C 196 162.910156 222.910156 136 256 136 C 289.089844 136 316 162.910156 316 196 C 316 217.34375 304.5 237.265625 286 247.972656 L 286 256 C 319.089844 256 346 282.910156 346 316 L 346 361 C 346 369.289062 339.289062 376 331 376 Z M 331 376 "  />
</g>
</svg>