<svg xmlns="http://www.w3.org/2000/svg" height="512pt" version="1.1" viewBox="0 0 512 512" width="512pt">
<g id="surface1">
<path style="fill:#fff;" d="M 413.5 30 C 428.285156 30 441.492188 36.050781 451 45.796875 L 451 15 C 451 6.710938 444.289062 0 436 0 L 385.746094 0 C 388.871094 6.46875 390.800781 13.597656 390.984375 21.167969 L 390.984375 35.066406 C 397.8125 31.816406 405.441406 30 413.5 30 Z M 413.5 30 "  />
<path style="fill:#fff;" d="M 91 422 L 184.449219 422 C 182.652344 414.5625 181.335938 406.972656 181.027344 399.191406 C 179.070312 347.515625 152.917969 328.90625 137.964844 313.8125 C 114.121094 291.578125 112.261719 253.730469 134.683594 229.527344 C 154.179688 208.449219 186.429688 203.882812 211 219.199219 L 211 82.5 C 211 53.554688 234.554688 30 263.5 30 C 271.542969 30 279.175781 31.816406 286 35.066406 L 286 22.5 C 286 14.417969 287.988281 6.847656 291.265625 0 L 91 0 Z M 121 75 L 136 75 L 136 60 C 136 51.710938 142.710938 45 151 45 C 159.289062 45 166 51.710938 166 60 L 166 75 L 181 75 C 189.289062 75 196 81.710938 196 90 C 196 98.289062 189.289062 105 181 105 L 166 105 L 166 150 C 166 158.289062 159.289062 165 151 165 C 142.710938 165 136 158.289062 136 150 L 136 105 L 121 105 C 112.710938 105 106 98.289062 106 90 C 106 81.710938 112.710938 75 121 75 Z M 121 75 "  />
<path style="fill:#fff;" d="M 489.5 150 C 477.199219 150 466 160.199219 466 172.5 L 466 285 C 466 293.398438 459.402344 300 451 300 C 442.597656 300 436 293.398438 436 285 C 436 278.097656 436 82.199219 436 82.199219 C 435.699219 69.898438 425.800781 60 413.5 60 C 401.199219 60 391 70.199219 391 82.5 L 391 255 C 391 263.398438 384.402344 270 376 270 C 367.597656 270 361 263.398438 361 255 C 361 249 361 21.898438 361 21.898438 C 360.699219 9.898438 350.5 0 338.5 0 C 326.199219 0 316 10.199219 316 22.5 C 316 26.699219 316 255 316 255 C 316 263.398438 309.402344 270 301 270 C 292.597656 270 286 263.398438 286 255 C 286 250.5 286 82.5 286 82.5 C 286 70.199219 275.800781 60 263.5 60 C 251.199219 60 241 70.199219 241 82.5 L 241 285.898438 L 199.300781 247.800781 C 187 236.699219 167.800781 237.898438 156.699219 249.898438 C 145.601562 261.898438 146.5 281.101562 158.800781 292.199219 C 164.199219 299.097656 208.300781 326.601562 211 398 C 212.199219 428.296875 229.300781 456.5 256 471.199219 C 265.300781 476.300781 271 486.199219 271 497 C 271 505.398438 277.597656 512 286 512 L 436 512 C 444.402344 512 451 505.398438 451 497 C 451 486.199219 456.699219 476.300781 466.601562 470.898438 C 494.5 455 512 425.601562 512 392 C 512 383.597656 512 172.5 512 172.5 C 512 160.199219 501.800781 150 489.5 150 Z M 489.5 150 "  />
<path style="fill:#fff;" d="M 61 422 L 61 0 C 27.910156 0 0 26.910156 0 60 L 0 430.34375 C 8.859375 425.175781 19.023438 422 30 422 Z M 61 422 "  />
<path style="fill:#fff;" d="M 30 512 L 243.761719 512 C 242.082031 507.285156 241 502.285156 241 497 C 221.988281 486.636719 206.660156 470.769531 196.164062 452 L 30 452 C 13.429688 452 0 465.429688 0 482 C 0 498.566406 13.429688 512 30 512 Z M 30 512 "  />
</g>
</svg>