<svg xmlns="http://www.w3.org/2000/svg" height="512pt" version="1.1" viewBox="0 0 512 512" width="512pt">
<g id="surface1">
<path style="fill:#fff;" d="M 256 242 C 198.109375 242 151 289.109375 151 347 C 151 404.890625 198.109375 452 256 452 C 313.890625 452 361 404.890625 361 347 C 361 289.109375 313.890625 242 256 242 Z M 256 422 C 214.648438 422 181 388.351562 181 347 C 181 305.648438 214.648438 272 256 272 C 297.351562 272 331 305.648438 331 347 C 331 388.351562 297.351562 422 256 422 Z M 256 422 "  />
<path style="fill:#fff;" d="M 256 302 C 231.1875 302 211 322.1875 211 347 C 211 371.8125 231.1875 392 256 392 C 280.8125 392 301 371.8125 301 347 C 301 322.1875 280.8125 302 256 302 Z M 256 302 "  />
<path style="fill:#fff;" d="M 467 182 L 45 182 C 20.1875 182 0 202.1875 0 227 L 0 467 C 0 491.8125 20.1875 512 45 512 L 467 512 C 491.8125 512 512 491.8125 512 467 L 512 227 C 512 202.1875 491.8125 182 467 182 Z M 256 482 C 181.558594 482 121 421.441406 121 347 C 121 272.558594 181.558594 212 256 212 C 330.441406 212 391 272.558594 391 347 C 391 421.441406 330.441406 482 256 482 Z M 436 272 C 427.714844 272 421 265.285156 421 257 C 421 248.714844 427.714844 242 436 242 C 444.285156 242 451 248.714844 451 257 C 451 265.285156 444.285156 272 436 272 Z M 436 272 "  />
<path style="fill:#fff;" d="M 331 152 L 331 122 L 346 122 C 354.289062 122 361 115.289062 361 107 L 361 15 C 361 6.710938 354.289062 0 346 0 L 166 0 C 157.710938 0 151 6.710938 151 15 L 151 107 C 151 115.289062 157.710938 122 166 122 L 181 122 L 181 152 Z M 226 47 L 286 47 C 294.289062 47 301 53.710938 301 62 C 301 70.289062 294.289062 77 286 77 L 226 77 C 217.710938 77 211 70.289062 211 62 C 211 53.710938 217.710938 47 226 47 Z M 226 47 "  />
<path style="fill:#fff;" d="M 30 152 L 90 152 L 90 107 C 90 98.714844 83.285156 92 75 92 L 45 92 C 36.714844 92 30 98.714844 30 107 Z M 30 152 "  />
</g>
</svg>