<?xml version="1.0" encoding="iso-8859-1"?>
<!-- Generator: Adobe Illustrator 19.0.0, SVG Export Plug-In . SVG Version: 6.00 Build 0)  -->
<svg version="1.1" id="Capa_1" xmlns="http://www.w3.org/2000/svg" xmlns:xlink="http://www.w3.org/1999/xlink" x="0px" y="0px"
	 viewBox="0 0 512 512" style="enable-background:new 0 0 512 512;" xml:space="preserve">
<g>
	<g>
		<g>
			<path style="fill:#fff;" d="M115,174.963c8.284,0,15-6.716,15-15V145c0-8.271,6.729-15,15-15h14.932c8.284,0,15-6.716,15-15s-6.716-15-15-15H145
				c-24.813,0-45,20.187-45,45v14.963C100,168.247,106.716,174.963,115,174.963z"/>
			<path style="fill:#fff;" d="M397,0c-37.96,0-73.55,18.95-94.87,50H267c-8.28,0-15,6.72-15,15v35h-15c-8.284,0-15,6.716-15,15s6.716,15,15,15h15v35
				c0,8.28,6.72,15,15,15h35.13c21.32,31.05,56.91,50,94.87,50c63.41,0,115-51.59,115-115S460.41,0,397,0z M397,170
				c-30.33,0-55-24.67-55-55s24.67-55,55-55c30.33,0,55,24.67,55,55S427.33,170,397,170z"/>
			<path style="fill:#fff;" d="M180,302.13V267c0-8.28-6.72-15-15-15h-35v-15c0-8.284-6.716-15-15-15s-15,6.716-15,15v15H65c-8.28,0-15,6.72-15,15
				v35.13C18.95,323.45,0,359.04,0,397c0,63.41,51.59,115,115,115s115-51.59,115-115C230,359.04,211.05,323.45,180,302.13z M115,452
				c-30.33,0-55-24.67-55-55c0-30.33,24.67-55,55-55s55,24.67,55,55C170,427.33,145.33,452,115,452z"/>
		</g>
	</g>
</g>
<g>
</g>
<g>
</g>
<g>
</g>
<g>
</g>
<g>
</g>
<g>
</g>
<g>
</g>
<g>
</g>
<g>
</g>
<g>
</g>
<g>
</g>
<g>
</g>
<g>
</g>
<g>
</g>
<g>
</g>
</svg>
