<?xml version="1.0" encoding="iso-8859-1"?>
<!-- Generator: Adobe Illustrator 16.0.0, SVG Export Plug-In . SVG Version: 6.00 Build 0)  -->
<!DOCTYPE svg PUBLIC "-//W3C//DTD SVG 1.1//EN" "http://www.w3.org/Graphics/SVG/1.1/DTD/svg11.dtd">
<svg version="1.1" id="Capa_1" xmlns="http://www.w3.org/2000/svg" xmlns:xlink="http://www.w3.org/1999/xlink" x="0px" y="0px"
	 width="964.801px" height="964.801px" viewBox="0 0 964.801 964.801" style="enable-background:new 0 0 964.801 964.801;"
	 xml:space="preserve">
<g>
	<path style="fill:#fff;" d="M598.651,534.5v-1.699h28.699h12c6.4,0,11.601-5.201,11.601-11.602V11.6c0-6.4-5.2-11.6-11.601-11.6h-315
		c-6.399,0-11.6,5.2-11.6,11.6v509.701c0,6.398,5.2,11.6,11.6,11.6h13.9h34.8h91.601v1.699v5.801v7.5v7.1v33.6
		c0,0-15.4,17.5-16.7,19.1c-12.3,16.102-12,30.102-9.601,39.102c6.301,23.5,32.601,35,35.5,36.199c1.9,0.801,3.801,1.1,5.801,1.1
		c2.899,0,5.8-0.9,8.3-2.5c4.2-2.799,6.7-7.5,6.7-12.5V555l0,0v-7.1v-7.5V534.6v-1.799v-13.5V455c0-20.4,16.6-37,37-37
		c20.399,0,37,16.6,37,37v77.5v0.301v7.5v7.199v0.301v7.1l0,0V622v15v298h-142.4c-7.4-25.4-26.6-92.301-44.6-162.301
		c-41.801-163.1-39.101-196.199-37.2-202.5c2.5-8.6,13.399-16.299,31-22.398h-32.4h-18.8c-0.6,0-1.2,0-1.7-0.102
		c-3.1,4.4-5.399,9-6.899,14c-2.801,9.5-4.5,28,6.899,87.701c6.5,34.199,16.601,78.1,30.101,130.6c22.8,89.1,47.8,173.301,48,174.1
		l3.199,10.701h194.9V650.5c14.5-3,27.2-10.5,36.7-21.801c10.6-12.6,16.6-29.398,16.6-46c0-12.199-3.899-24.398-11-34.898
		c-0.6,0-1.1,0.1-1.7,0.1h-17.699h-23v-7.5V534.5L598.651,534.5z M387.55,147.4l34.2-34.2c4.2-4.2,10.9-4.2,15.1,0l44.601,44.6
		l1.399,1.4l45.9-45.9c1.3-1.3,2.8-2.2,4.4-2.6c3.699-1.1,7.8-0.3,10.699,2.6l34.2,34.2c4.2,4.2,4.2,10.9,0,15.1l-45.899,45.9
		l45.899,45.9c4.2,4.2,4.2,10.9,0,15.1l-34.2,34.2c-4.199,4.2-10.899,4.2-15.1,0l-45.9-45.9l-45.899,45.9
		c-2.101,2.1-4.9,3.1-7.601,3.1c-2.699,0-5.399-1.1-7.5-3.1l-34.199-34.2c-4.2-4.2-4.2-10.9,0-15.1l45.899-45.9l-1.399-1.4
		l-44.601-44.6C383.451,158.4,383.451,151.6,387.55,147.4z M622.05,582.699c0,12.602-6.5,30-23.3,36.602v-64.4v-4.6
		C613.05,556.1,622.05,569.801,622.05,582.699z"/>
</g>
<g>
</g>
<g>
</g>
<g>
</g>
<g>
</g>
<g>
</g>
<g>
</g>
<g>
</g>
<g>
</g>
<g>
</g>
<g>
</g>
<g>
</g>
<g>
</g>
<g>
</g>
<g>
</g>
<g>
</g>
</svg>
