<svg xmlns="http://www.w3.org/2000/svg" height="512pt" version="1.1" viewBox="0 0 512 512" width="512pt">
<g id="surface1">
<path style="fill:#fff;" d="M 326.980469 124.015625 C 280.117188 77.152344 204.136719 77.152344 157.277344 124.015625 C 110.414062 170.878906 110.414062 246.855469 157.277344 293.71875 C 204.136719 340.582031 280.117188 340.582031 326.980469 293.71875 C 373.84375 246.855469 373.84375 170.878906 326.980469 124.015625 Z M 326.980469 124.015625 "  />
<path style="fill:#fff;" d="M 159.421875 334.003906 C 151.167969 328.546875 143.328125 322.199219 136.066406 314.933594 C 128.800781 307.671875 122.457031 299.832031 116.996094 291.574219 L 72.425781 336.148438 L 114.851562 378.574219 Z M 159.421875 334.003906 "  />
<path style="fill:#fff;" d="M 51.214844 442.214844 L 93.640625 399.785156 L 51.214844 357.359375 L 8.785156 399.785156 C -2.929688 411.5 -2.929688 430.496094 8.785156 442.214844 C 20.503906 453.929688 39.496094 453.929688 51.214844 442.214844 Z M 51.214844 442.214844 "  />
<path style="fill:#fff;" d="M 471.210938 352.492188 L 318.632812 337.433594 C 308.914062 343.042969 298.648438 347.601562 287.964844 351.03125 C 288.042969 355.410156 287.78125 359.804688 287.71875 364.195312 L 467.675781 381.996094 C 468.296875 372.226562 469.367188 362.382812 471.210938 352.492188 Z M 471.210938 352.492188 "  />
<path style="fill:#fff;" d="M 390 0 C 351.109375 0 315.578125 26.339844 293.25 68.304688 C 313.601562 75.691406 332.429688 87.039062 348.195312 102.808594 C 405.335938 159.933594 406.238281 251.851562 351.734375 310.59375 L 479.027344 323.121094 C 494.589844 280.476562 512 232.15625 512 166 C 512 75.019531 456.167969 0 390 0 Z M 390 0 "  />
<path style="fill:#fff;" d="M 466.941406 419.328125 C 466.886719 416.996094 466.945312 414.464844 466.914062 412.070312 L 286.597656 394.234375 C 286.171875 400.890625 285.785156 407.566406 285.265625 414.160156 C 281.335938 464.066406 320.597656 512 375 512 C 427.015625 512 468.039062 467.464844 466.941406 419.328125 Z M 466.941406 419.328125 "  />
</g>
</svg>