<?xml version="1.0" encoding="UTF-8"?><svg id="logos" xmlns="http://www.w3.org/2000/svg" viewBox="0 0 32 32"><defs><style>.cls-1{fill:#e23b63;stroke:#fff;stroke-miterlimit:10;stroke-width:.56px;}.cls-2{fill:#55575a;}.cls-3{fill:#b8aef9;}</style></defs><g><path class="cls-3" d="M2.56,20.91c0-1.42,0-2.84,.01-4.26,0-.9,0-1.79,0-2.69,0-.47,.03-.49,.47-.68,1.01-.44,2.02-.91,3.03-1.35,.17-.07,.14-.19,.15-.32,0-1.15,0-2.29,0-3.44,0-.8,0-1.59,0-2.39,0-.38,.12-.55,.49-.66,3.04-.89,6.09-1.79,9.13-2.68,.47-.14,.75,.06,.75,.56,0,.85,0,1.69,0,2.54,0,.25,.06,.37,.31,.44,2.62,.76,5.24,1.53,7.86,2.3,.26,.08,.52,.16,.78,.23,.37,.11,.47,.23,.47,.63,0,.81,0,1.61,0,2.42,0,.21,.05,.32,.25,.41,1,.43,2,.9,3,1.33,.32,.14,.45,.33,.45,.69-.01,2.21,0,4.43,0,6.64,0,.05,0,.1,0,.15v7.77h.9c.31,.11,.44,.29,.4,.55-.04,.26-.22,.39-.55,.39-4.45,0-8.89,.01-13.34,.01-3.37,0-6.74,0-10.11,0-1.78,0-3.56,0-5.34-.01-.37,0-.54-.15-.54-.46,0-.28,.15-.46,.43-.47,.3-.01,.6-.01,.9-.02l.1-.1v-7.55Zm26.15,7.13V14.38c.05-.21-.01-.35-.23-.4-.08-.02-.15-.05-.22-.08l-.3-.14-.53-.23-.26-.12-.67-.3-.48-.24v8.88l.04,.25-.04,.96v5.6h2.69v-.52Zm-22.53-.73l-.02-.11,.04-.86V12.94l-.02-.04-.06,.03-2.62,1.15v14.48h2.63s.08-.04,.08-.05c0-.04-.03-.07-.05-.1l.04-.86-.02-.24Zm6.25,1.25l.78-.02h2.4V3.55L7.21,6.01V28.53l2.32,.04h2.89Zm12.59-.02V9.39l-8.42-2.47V28.54h8.42Z"/><g><rect class="cls-2" x="26.83" y="14.52" width="1.12" height="1.12"/><rect class="cls-2" x="26.83" y="16.91" width="1.12" height="1.12"/><rect class="cls-2" x="26.83" y="19.3" width="1.12" height="1.12"/><rect class="cls-2" x="26.83" y="21.69" width="1.12" height="1.12"/><path class="cls-2" d="M26.83,25.01h.74s.03,0,.05,0h.34v-1.12h-1.12v1.12Z"/><rect class="cls-2" x="26.83" y="26.28" width="1.12" height="1.12"/></g><g><rect class="cls-2" x="4.25" y="14.52" width="1.12" height="1.12"/><rect class="cls-2" x="4.25" y="16.91" width="1.12" height="1.12"/><rect class="cls-2" x="4.25" y="19.3" width="1.12" height="1.12"/><rect class="cls-2" x="4.25" y="21.69" width="1.12" height="1.12"/><path class="cls-2" d="M4.25,25.01h.33s.03,0,.05,0l.19,.04,.26-.05h.3v-1.12h-1.12v1.12Z"/><path class="cls-2" d="M4.25,27.4h1.12v-1.12h-1.12v1.12Z"/></g><path class="cls-3" d="M16.59,6.93V28.54h8.42V9.39c-2.79-.82-5.6-1.64-8.42-2.47Z"/><path class="cls-3" d="M7.21,6.03V28.74c.8,.01,7.6,0,8.4,0V3.55c-2.83,.84-5.64,1.66-8.4,2.48Z"/></g><path class="cls-1" d="M16.1,27.46c-1.36,0-2.23-.99-2.23-2.23,0-1.36,.99-2.23,2.23-2.23,1.36,0,2.23,.99,2.23,2.23,.12,1.24-.87,2.23-2.23,2.23h0Zm-1.36-5.83l-.5-11.42h3.97l-.5,11.42h-2.98Z"/></svg>