<svg id="Capa_1" data-name="Capa 1" xmlns="http://www.w3.org/2000/svg" viewBox="0 0 204.09 204.09"><defs><style>.cls-1{fill:#fff;}.cls-2{fill:#676767;}.cls-3{fill:none;stroke:#676767;stroke-miterlimit:10;stroke-width:3.06px;}.cls-4{fill:#3bb1e6;}</style></defs><title>Mesa de trabajo 1 copia 31</title><ellipse class="cls-1" cx="102.05" cy="103.39" rx="99.98" ry="98.85"/><path class="cls-2" d="M166,96.46a9.17,9.17,0,1,0,9.17,9.17A9.17,9.17,0,0,0,166,96.46Zm0,15a5.86,5.86,0,1,1,5.85-5.86A5.86,5.86,0,0,1,166,111.49Z"/><rect class="cls-2" x="131.48" y="81.41" width="3.47" height="48.97" transform="translate(26.72 238.63) rotate(-89.74)"/><rect class="cls-2" x="136.59" y="73.09" width="3.47" height="14.91" transform="translate(57.15 218.51) rotate(-89.74)"/><rect class="cls-2" x="116.83" y="81.74" width="3.47" height="19.66" transform="translate(26.46 209.72) rotate(-89.74)"/><rect class="cls-2" x="122.47" y="84.33" width="14.24" height="3.47" transform="translate(-1.37 170.04) rotate(-66.26)"/><rect class="cls-2" x="130.87" y="129.24" width="14.91" height="3.47" transform="translate(-0.59 0.63) rotate(-0.26)"/><rect class="cls-2" x="108.74" y="118.21" width="19.66" height="3.47" transform="translate(-0.54 0.54) rotate(-0.26)"/><rect class="cls-2" x="127.86" y="118.33" width="3.47" height="14.24" transform="translate(-39.54 62.8) rotate(-23.74)"/><polygon class="cls-3" points="150.27 123.24 139.17 142.47 161.37 142.47 150.27 123.24"/><rect class="cls-4" x="75.5" y="100.74" width="21.51" height="3.83"/><rect class="cls-4" x="75.5" y="110.13" width="21.51" height="3.83"/><rect class="cls-2" x="59.75" y="80.57" width="38.28" height="3.87"/><rect class="cls-2" x="59.75" y="91.25" width="38.28" height="3.87"/><path class="cls-4" d="M92.15,131.87c-1.5.36-2.09-.5-3.33-.85-.68-.19-1.35.24-2,.24a5.35,5.35,0,0,0-2.7.38,1.35,1.35,0,0,0-.77-.14,3.63,3.63,0,0,0,0-1.91,1.29,1.29,0,0,0-1.88-.76A16.72,16.72,0,0,0,80,130l1-3.64a1.29,1.29,0,0,0-2.34-1A27.21,27.21,0,0,1,69.26,135a1.28,1.28,0,0,0,1.29,2.21,30.37,30.37,0,0,0,6.16-5l-.2.72a1.29,1.29,0,0,0,1.88,1.44,7.53,7.53,0,0,0,1.7-1.07c0,.08-.06.16-.08.23-.24.86.65,2,1.58,1.57.5-.2,1-.41,1.45-.64a1.38,1.38,0,0,0,1.32,0l1.32-.84c-.25.31,0,.39.76.25a7.16,7.16,0,0,1,2-.07c1.66.38,2.61,1,4.43.55C94.43,134,93.75,131.48,92.15,131.87Z"/><path class="cls-4" d="M45.38,61v87.83l67,.19.08-87.74ZM50,144.14V65.85l57.44.45.36,78.12Z"/><rect class="cls-2" x="141.96" y="65.61" width="22.11" height="22.11"/></svg>