<svg id="Capa_1" data-name="Capa 1" xmlns="http://www.w3.org/2000/svg" viewBox="0 0 204.09 204.09"><defs><style>.cls-1{fill:#fff;}.cls-2{fill:#676767;}.cls-3{fill:#3bb1e6;}</style></defs><title>Mesa de trabajo 1 copia 31</title><ellipse class="cls-1" cx="102.05" cy="103.39" rx="99.98" ry="98.85"/><path class="cls-2" d="M165.21,96.34a9.09,9.09,0,1,0,9.09,9.09A9.09,9.09,0,0,0,165.21,96.34Zm0,14.89a5.81,5.81,0,1,1,5.8-5.8A5.8,5.8,0,0,1,165.21,111.23Z"/><rect class="cls-2" x="131" y="81.42" width="3.44" height="48.54" transform="matrix(0, -1, 1, 0, 26.44, 237.93)"/><path class="cls-2" d="M152.73,71.36a9.09,9.09,0,1,0,9.09,9.09A9.09,9.09,0,0,0,152.73,71.36Zm0,14.89a5.8,5.8,0,1,1,5.8-5.8A5.79,5.79,0,0,1,152.73,86.25Z"/><rect class="cls-2" x="136.06" y="73.17" width="3.44" height="14.78" transform="translate(56.6 217.98) rotate(-89.74)"/><rect class="cls-2" x="116.48" y="81.75" width="3.44" height="19.49" transform="matrix(0, -1, 1, 0, 26.17, 209.27)"/><rect class="cls-2" x="122.07" y="84.31" width="14.12" height="3.44" transform="translate(-1.61 169.6) rotate(-66.26)"/><path class="cls-2" d="M161.82,130.65a9.09,9.09,0,1,0-9.09,9.09A9.09,9.09,0,0,0,161.82,130.65Zm-3.29,0a5.8,5.8,0,1,1-5.8-5.8A5.81,5.81,0,0,1,158.53,130.65Z"/><rect class="cls-2" x="130.39" y="128.82" width="14.78" height="3.44" transform="translate(-0.59 0.63) rotate(-0.26)"/><rect class="cls-2" x="108.45" y="117.89" width="19.49" height="3.44" transform="translate(-0.54 0.54) rotate(-0.26)"/><rect class="cls-2" x="127.41" y="118.01" width="3.44" height="14.12" transform="translate(-39.43 62.58) rotate(-23.74)"/><rect class="cls-3" x="75.52" y="100.58" width="21.32" height="3.79"/><rect class="cls-3" x="75.52" y="109.88" width="21.32" height="3.79"/><rect class="cls-2" x="59.9" y="80.59" width="37.94" height="3.84"/><rect class="cls-2" x="59.9" y="91.17" width="37.94" height="3.84"/><path class="cls-3" d="M92,131.43c-1.48.35-2.06-.49-3.3-.84-.67-.19-1.33.24-2,.24a5.14,5.14,0,0,0-2.67.38,1.42,1.42,0,0,0-.76-.15,3.78,3.78,0,0,0,0-1.89,1.28,1.28,0,0,0-1.87-.75,15,15,0,0,0-1.44,1.2l1-3.61a1.28,1.28,0,0,0-2.32-1,26.83,26.83,0,0,1-9.3,9.46c-1.39.85-.11,3,1.28,2.19a30,30,0,0,0,6.11-4.93l-.2.71a1.29,1.29,0,0,0,1.87,1.43,7.24,7.24,0,0,0,1.68-1.06,1.19,1.19,0,0,0-.07.23c-.25.85.64,1.93,1.56,1.56.5-.2,1-.41,1.44-.64a1.34,1.34,0,0,0,1.3,0l1.31-.83c-.25.3,0,.39.75.25a6.73,6.73,0,0,1,2-.07c1.65.37,2.59,1,4.39.54C94.28,133.5,93.6,131.05,92,131.43Z"/><path class="cls-3" d="M45.66,61.2l0,87.06,66.39.2.07-87Zm4.57,82.4V66l56.93.44.36,77.44Z"/></svg>