<svg id="Capa_1" data-name="Capa 1" xmlns="http://www.w3.org/2000/svg" viewBox="0 0 204.09 204.09"><defs><style>.cls-1{fill:#fff;}.cls-2{fill:#3bb1e6;}.cls-3{fill:#676767;}</style></defs><title>Mesa de trabajo 1 copia 30</title><ellipse class="cls-1" cx="102.05" cy="103.39" rx="99.98" ry="98.85"/><path class="cls-2" d="M117.83,118.24h-5.07a3.15,3.15,0,0,0-.44-.11c-1.29-.19-2.6-.31-3.88-.56A34.17,34.17,0,0,1,81.67,90.11c-.2-1.16-.35-2.32-.52-3.48V81.56c.13-.9.25-1.8.38-2.69a34.16,34.16,0,0,1,27.75-28.41c1.16-.2,2.32-.34,3.48-.51h5.07l.51.12a52.67,52.67,0,0,1,7,1.4c12.92,4.38,20.81,13.28,23.56,26.68.23,1.13.35,2.27.52,3.41v5.07a3.6,3.6,0,0,0-.12.44c-.19,1.3-.31,2.6-.56,3.89a34.18,34.18,0,0,1-27.46,26.76C120.15,117.92,119,118.07,117.83,118.24Zm-32-34.19a29.43,29.43,0,1,0,29.5-29.38A29.45,29.45,0,0,0,85.87,84.05Z"/><path class="cls-2" d="M106,90c1,0,1.91,0,2.86,0a1.26,1.26,0,0,1,.9.5c1.45,2.74,3.88,3.49,6.73,3.36a8.29,8.29,0,0,0,2.09-.39,2.38,2.38,0,0,0,1.79-2.1,2.44,2.44,0,0,0-1.23-2.61A17.51,17.51,0,0,0,116,87.68c-2.23-.66-4.51-1.16-6.71-1.9a7.56,7.56,0,0,1-5.6-7.39,8.82,8.82,0,0,1,5.36-8.82,15.66,15.66,0,0,1,2.45-.82c.37-.11.52-.26.51-.64,0-.87,0-1.74,0-2.6s.39-1.31,1.3-1.32h4c.93,0,1.3.37,1.31,1.29s0,1.6,0,2.4c0,.47.14.65.6.74a11,11,0,0,1,6.17,3.19,10.31,10.31,0,0,1,2.23,3.75c.33,1,.07,1.34-.94,1.34-1.62,0-3.25,0-4.87,0a1.2,1.2,0,0,1-1.16-.59,6.3,6.3,0,0,0-7.64-2.1,2.47,2.47,0,0,0-1.49,2.4A2.25,2.25,0,0,0,113,78.89c1.16.43,2.37.73,3.56,1.06,1.95.53,3.92,1,5.85,1.56a7.86,7.86,0,0,1,5.91,6.4,8.82,8.82,0,0,1-3.05,8.81,12.52,12.52,0,0,1-6,2.7c-.47.09-.64.26-.62.73,0,.89,0,1.78,0,2.67a1,1,0,0,1-1.14,1.18c-1.42,0-2.85,0-4.27,0a1.08,1.08,0,0,1-1.19-1.22c0-.87,0-1.74,0-2.6,0-.49-.13-.68-.64-.78a11,11,0,0,1-7.65-5,19.86,19.86,0,0,1-1.45-3.14c-.34-.87,0-1.26.9-1.27S105,90,106,90Z"/><path class="cls-3" d="M70.85,122.11v.49c0,6.19,0,12.38,0,18.57a.6.6,0,0,0,.52.67l4.86,1.49L84.8,146l4.68,1.46c3.17,1,6.33,2,9.52,2.84a20.29,20.29,0,0,0,3.57.58,34.28,34.28,0,0,0,3.65.16,12.65,12.65,0,0,0,5.27-1.13c2.16-1,4.32-2,6.46-3.09s4.55-2.26,6.82-3.41l5.54-2.84,5.93-3.07,6.88-3.61c.53-.28,1-.59,1.54-.92a.89.89,0,0,0,.47-.94,1,1,0,0,0-1-.86,10,10,0,0,0-2.05.36q-4.84,1.6-9.67,3.28c-.76.25-2.31.59-2.31.59l-1-5.45s6.82-2.3,10.21-3.48a14,14,0,0,1,5.23-1,6.58,6.58,0,0,1,6.35,7.1,6.86,6.86,0,0,1-3.09,5.18,28.07,28.07,0,0,1-3.26,1.83c-7.58,3.92-15.15,7.85-22.76,11.72-2.75,1.39-5.56,2.65-8.37,3.93a17.37,17.37,0,0,1-6.59,1.46,33.45,33.45,0,0,1-10.11-1.06c-1.89-.51-3.75-1.15-5.62-1.73l-16.87-5.21-3.71-1.15c-.25-.09-.37,0-.51.19a6,6,0,0,1-4.36,2.88,3.39,3.39,0,0,1-.64,0l-6.35,0,.65-5.66h5.33c.54,0,.54,0,.54-.51V119c0-.55,0-.56-.59-.56H50.35v-5.68s9.74,0,14.6,0a5.81,5.81,0,0,1,5.31,3.35.54.54,0,0,0,.55.33c3.3,0,6.6,0,9.91,0A42.18,42.18,0,0,1,91.18,118a28.84,28.84,0,0,1,6.7,2.7,17.16,17.16,0,0,1,4.53,3.55.71.71,0,0,0,.59.24h12.94a8.63,8.63,0,0,1,7.9,5.41,7.6,7.6,0,0,1,.43,4.79,7.89,7.89,0,0,1-1.68,3.34,8.28,8.28,0,0,1-4.8,2.78,6.76,6.76,0,0,1-.89.1H94.8l0-5.62H116a2.48,2.48,0,0,0,1.86-4.39,3.39,3.39,0,0,0-2.14-.67c-4.6,0-9.21,0-13.81,0a3.63,3.63,0,0,1-3.22-1.63,10.55,10.55,0,0,0-3.28-2.81,21.09,21.09,0,0,0-4.69-2.06,42.2,42.2,0,0,0-5.09-1.18,47.35,47.35,0,0,0-8.41-.45c-1.94,0-3.88,0-5.82,0Z"/></svg>