<svg id="Capa_1" data-name="Capa 1" xmlns="http://www.w3.org/2000/svg" viewBox="0 0 135.83 135.78"><defs><style>.cls-1{fill:#3bb1e6;}.cls-2{fill:#676767;}</style></defs><title>Mesa de trabajo 1 copia 42</title><path class="cls-1" d="M76.37,79.76h-4a2.3,2.3,0,0,0-.35-.1c-1-.14-2-.24-3-.43A26.67,26.67,0,0,1,48.15,57.8c-.15-.9-.27-1.81-.4-2.71v-4c.1-.7.19-1.4.3-2.1A26.63,26.63,0,0,1,69.7,26.87c.9-.16,1.81-.28,2.72-.41h4l.4.1a41.51,41.51,0,0,1,5.48,1.09q15.14,5.13,18.39,20.82c.18.88.27,1.77.4,2.66v4a1.89,1.89,0,0,0-.09.34c-.15,1-.24,2-.44,3A26.66,26.66,0,0,1,79.08,79.35C78.18,79.5,77.28,79.62,76.37,79.76ZM51.43,53.08a23,23,0,1,0,23-22.93A23,23,0,0,0,51.43,53.08Z"/><path class="cls-1" d="M67.11,57.75c.75,0,1.5,0,2.24,0a.93.93,0,0,1,.7.39c1.13,2.13,3,2.71,5.25,2.61a6,6,0,0,0,1.63-.3,1.87,1.87,0,0,0,1.4-1.64,1.91,1.91,0,0,0-1-2,13.53,13.53,0,0,0-2.43-.88c-1.74-.52-3.52-.91-5.24-1.49a5.88,5.88,0,0,1-4.36-5.76,6.88,6.88,0,0,1,4.18-6.89,13.81,13.81,0,0,1,1.91-.64c.29-.08.4-.2.4-.5,0-.67,0-1.35,0-2s.31-1,1-1H76c.72,0,1,.3,1,1s0,1.25,0,1.87c0,.37.11.51.47.58a8.63,8.63,0,0,1,4.81,2.49A7.88,7.88,0,0,1,84,46.45c.26.77.06,1-.73,1h-3.8a.93.93,0,0,1-.9-.46,5,5,0,0,0-6-1.64,2,2,0,0,0-1.16,1.88,1.77,1.77,0,0,0,1.13,1.77c.9.33,1.85.57,2.78.82,1.52.42,3.06.78,4.57,1.22a6.12,6.12,0,0,1,4.6,5A6.87,6.87,0,0,1,82.14,63a9.74,9.74,0,0,1-4.69,2.11c-.37.07-.49.2-.48.57,0,.69,0,1.39,0,2.08a.82.82,0,0,1-.89.92q-1.67,0-3.33,0a.85.85,0,0,1-.93-1c0-.68,0-1.36,0-2,0-.38-.11-.53-.5-.61a8.54,8.54,0,0,1-6-3.86,15.14,15.14,0,0,1-1.13-2.45c-.27-.68,0-1,.7-1Z"/><path class="cls-2" d="M39.71,82.78v.37c0,4.83,0,9.66,0,14.5a.47.47,0,0,0,.41.52l3.79,1.16,6.7,2,3.64,1.14c2.48.75,4.95,1.52,7.44,2.22a16.23,16.23,0,0,0,2.79.45,24.43,24.43,0,0,0,2.84.12,9.74,9.74,0,0,0,4.11-.88q2.53-1.19,5-2.41c1.78-.87,3.54-1.76,5.31-2.66q2.18-1.1,4.33-2.21l4.63-2.4,5.37-2.81c.41-.22.81-.47,1.2-.72a.7.7,0,0,0,.36-.74.8.8,0,0,0-.81-.67,7.24,7.24,0,0,0-1.61.28c-2.52.83-5,1.7-7.54,2.56-.59.2-1.8.46-1.8.46l-.75-4.25s5.32-1.79,8-2.72a11.18,11.18,0,0,1,4.08-.76,5.14,5.14,0,0,1,5,5.54,5.36,5.36,0,0,1-2.41,4,21.16,21.16,0,0,1-2.54,1.43q-8.88,4.59-17.77,9.14c-2.14,1.09-4.34,2.07-6.52,3.07a13.64,13.64,0,0,1-5.15,1.14,26.21,26.21,0,0,1-7.89-.83c-1.47-.39-2.92-.89-4.39-1.34l-13.15-4.08c-1-.29-1.94-.58-2.9-.89-.2-.07-.29,0-.4.15a4.7,4.7,0,0,1-3.4,2.25,4.07,4.07,0,0,1-.5,0h-5l.51-4.42h4.16c.42,0,.42,0,.42-.41V80.32c0-.43,0-.44-.46-.44H23.71V75.45s7.59,0,11.39,0a4.52,4.52,0,0,1,4.14,2.61.42.42,0,0,0,.43.26c2.58,0,5.16,0,7.73,0a32.66,32.66,0,0,1,8.17,1.2,22.41,22.41,0,0,1,5.24,2.09,14,14,0,0,1,3.53,2.77.55.55,0,0,0,.46.2c3.36,0,6.73,0,10.1,0a6.72,6.72,0,0,1,6.16,4.21,6,6,0,0,1,.34,3.74,6.16,6.16,0,0,1-1.32,2.61,6.48,6.48,0,0,1-3.74,2.17,6.59,6.59,0,0,1-.7.08H58.4l0-4.38H74.9a1.93,1.93,0,0,0,1.45-3.42,2.61,2.61,0,0,0-1.66-.53c-3.6,0-7.19,0-10.78,0a2.79,2.79,0,0,1-2.51-1.27,8.16,8.16,0,0,0-2.56-2.19,16.33,16.33,0,0,0-3.66-1.6,31.77,31.77,0,0,0-4-.93,37,37,0,0,0-6.56-.35H39.71Z"/></svg>