<svg id="Capa_1" data-name="Capa 1" xmlns="http://www.w3.org/2000/svg" viewBox="0 0 135.83 135.78"><defs><style>.cls-1{fill:#676767;}.cls-2{fill:#3bb1e6;}</style></defs><title>Mesa de trabajo 1 copia 45</title><path class="cls-1" d="M108,58.64a6,6,0,1,0,6,6A6,6,0,0,0,108,58.64Zm0,9.82a3.83,3.83,0,1,1,3.83-3.83A3.82,3.82,0,0,1,108,68.46Z"/><rect class="cls-1" x="85.42" y="48.8" width="2.27" height="32.01" transform="translate(21.36 151.07) rotate(-89.74)"/><path class="cls-1" d="M99.75,42.17a6,6,0,1,0,6,6A6,6,0,0,0,99.75,42.17Zm0,9.82a3.83,3.83,0,1,1,3.83-3.83A3.83,3.83,0,0,1,99.75,52Z"/><rect class="cls-1" x="88.76" y="43.36" width="2.27" height="9.75" transform="translate(41.25 137.91) rotate(-89.74)"/><rect class="cls-1" x="75.84" y="49.02" width="2.27" height="12.85" transform="matrix(0, -1, 1, 0, 21.19, 132.17)"/><rect class="cls-1" x="79.53" y="50.71" width="9.31" height="2.27" transform="translate(2.83 108.04) rotate(-66.26)"/><path class="cls-1" d="M105.74,81.27a6,6,0,1,0-6,6A6,6,0,0,0,105.74,81.27Zm-2.16,0a3.83,3.83,0,1,1-3.83-3.82A3.83,3.83,0,0,1,103.58,81.27Z"/><rect class="cls-1" x="85.02" y="80.06" width="9.75" height="2.27" transform="translate(-0.37 0.41) rotate(-0.26)"/><rect class="cls-1" x="70.55" y="72.86" width="12.85" height="2.27" transform="matrix(1, 0, 0, 1, -0.33, 0.35)"/><rect class="cls-1" x="83.05" y="72.94" width="2.27" height="9.31" transform="translate(-24.11 40.46) rotate(-23.74)"/><rect class="cls-2" x="48.83" y="61.44" width="14.06" height="2.5"/><rect class="cls-2" x="48.83" y="67.57" width="14.06" height="2.5"/><rect class="cls-1" x="38.53" y="48.25" width="25.02" height="2.53"/><rect class="cls-1" x="38.53" y="55.23" width="25.02" height="2.53"/><path class="cls-2" d="M59.71,81.78c-1,.24-1.36-.32-2.18-.55-.44-.12-.88.16-1.33.16a3.4,3.4,0,0,0-1.76.25,1,1,0,0,0-.5-.1,2.48,2.48,0,0,0,0-1.24.85.85,0,0,0-1.23-.5,10.32,10.32,0,0,0-1,.79c.23-.79.45-1.59.67-2.38a.84.84,0,0,0-1.53-.65,17.78,17.78,0,0,1-6.13,6.24c-.92.56-.08,2,.84,1.45a19.92,19.92,0,0,0,4-3.26l-.13.47a.85.85,0,0,0,1.23,1,5.08,5.08,0,0,0,1.11-.7.88.88,0,0,0,0,.15c-.16.56.42,1.27,1,1a9,9,0,0,0,.94-.43.9.9,0,0,0,.87,0l.86-.55c-.17.21,0,.26.49.17a4.67,4.67,0,0,1,1.29,0c1.09.25,1.71.64,2.89.36S60.76,81.53,59.71,81.78Z"/><path class="cls-2" d="M29.14,35.47V92.89L72.91,93l0-57.35Zm3,54.34V38.63l37.55.29L69.93,90Z"/></svg>