<svg id="Capa_1" data-name="Capa 1" xmlns="http://www.w3.org/2000/svg" viewBox="0 0 204.09 204.09"><defs><style>.cls-1{fill:#fff;}.cls-2{fill:#3bb1e6;}.cls-3{fill:#676767;}</style></defs><title>Mesa de trabajo 1 copia 32</title><ellipse class="cls-1" cx="102.05" cy="103.39" rx="99.98" ry="98.85"/><polygon class="cls-2" points="113.82 157.27 115.25 84.11 108.56 114.24 100.43 112.81 110.47 67.38 144.9 70.25 153.03 107.55 145.38 116.15 138.2 81.25 136.29 97.98 136.29 116.63 141.07 158.23 132.47 158.23 127.21 117.11 122.42 117.59 122.9 158.23 113.82 157.27"/><circle class="cls-2" cx="125.77" cy="53.51" r="10.04"/><path class="cls-3" d="M86.9,137.81V97.07l10.25.08,0,7.49H94.71V145H55l4.19-7.22Z"/><path class="cls-3" d="M82.28,118H59v6.23H82.28Z"/><path class="cls-3" d="M82.28,128.09H59v6.23H82.28Z"/><path class="cls-3" d="M57.11,152.82a5.25,5.25,0,1,1,5.22,5.28A5.3,5.3,0,0,1,57.11,152.82Zm7.84.09a2.59,2.59,0,1,0-2.63,2.54A2.59,2.59,0,0,0,65,152.91Z"/><path class="cls-3" d="M85.85,147.6a5.25,5.25,0,1,1-5.26,5.29A5.27,5.27,0,0,1,85.85,147.6Zm2.59,5.26a2.59,2.59,0,1,0-2.59,2.59A2.6,2.6,0,0,0,88.44,152.86Z"/></svg>