<?xml version="1.0" encoding="UTF-8"?>
<svg id="menu_interconexion" data-name="menu interconexion" xmlns="http://www.w3.org/2000/svg" viewBox="0 0 181.42 181.42">
  <defs>
    <style>
      .cls-1 {
        fill: #824e80;
      }

      .cls-1, .cls-2 {
        stroke-width: 0px;
      }

      .cls-2 {
        fill: #1c7cbf;
      }
    </style>
  </defs>
  <path class="cls-2" d="M129.34,98.83c0,.83,0,1.43,0,2.02,0,15.12,0,30.25,0,45.37,0,2.53-.22,5.03-1.31,7.34-2.6,5.52-6.9,8.56-12.77,8.6-16.94.12-33.88.07-50.82.03-7.56-.02-13.81-6.49-13.99-14.35-.06-2.51-.03-5.03,0-7.54.02-2.17,1.17-3.33,3.26-3.34,2.82-.01,5.63-.07,8.45.02,1.23.04,1.62-.36,1.62-1.64,0-10.28.05-20.57.11-30.85.05-7.68.15-15.35.21-23.03.05-6.22,4.73-11.2,10.72-11.21,19.98-.04,39.96-.03,59.94,0,6.19,0,11.17,5.18,11.24,11.61.05,4.51.02,9.03,0,13.54,0,2.23-1.18,3.41-3.34,3.42-3.89.01-7.78,0-11.67,0-.48,0-.96,0-1.66,0ZM124.95,76.31c-.7-.04-1.1-.08-1.49-.08-16,0-31.99,0-47.99,0-.31,0-.63,0-.94.02-2.67.24-4.65,2.4-4.67,5.16-.16,17.95-.3,35.91-.48,53.86-.01,1.34.34,1.73,1.65,1.73,10.81-.05,21.63-.03,32.44-.03,2.36,0,3.4,1.11,3.41,3.59,0,2.37-.02,4.75,0,7.12.08,5.78,5.59,9.88,10.87,8.1,3.67-1.23,5.87-4.58,5.87-9.01,0-20.1,0-40.19.01-60.29,0-3.37-.47-6.8,1.32-10.17ZM100.99,142.95c-.63,0-1.2,0-1.77,0-13.13,0-26.25,0-39.38,0q-3.66,0-3.66,3.86c.01,5.74,3.49,9.4,9.03,9.42,12.37.03,24.74,0,37.1,0,.41,0,.82-.06,1.02-.08-.7-2.19-1.57-4.2-1.94-6.3-.39-2.17-.29-4.43-.41-6.9ZM129.34,92.83c3.55,0,6.93.02,10.31-.04.21,0,.59-.63.59-.98.04-3.4.1-6.79,0-10.19-.09-2.95-2.61-5.39-5.35-5.38-3.03,0-5.41,2.32-5.53,5.44-.06,1.58-.02,3.16-.03,4.74,0,2.08,0,4.16,0,6.4Z"/>
  <g>
    <path class="cls-2" d="M95.91,108.72c5.36,0,10.72,0,16.07,0,2.09,0,3.47,1.24,3.44,3.04-.03,1.77-1.37,2.94-3.39,2.94-10.76,0-21.52,0-32.28,0-2.06,0-3.3-1.12-3.32-2.96-.01-1.84,1.24-3.02,3.27-3.02,5.4,0,10.81,0,16.21,0Z"/>
    <path class="cls-2" d="M95.9,102.23c-5.41,0-10.82.01-16.22,0-1.88,0-3.02-.91-3.22-2.45-.25-1.96.94-3.39,2.96-3.4,5.32-.03,10.64-.02,15.96-.02,5.68,0,11.35-.02,17.03.02,2.44.02,3.76,2.37,2.58,4.44-.65,1.14-1.66,1.43-2.86,1.42-5.41-.02-10.82,0-16.22,0Z"/>
    <path class="cls-2" d="M95.95,127.08c-5.45,0-10.91.02-16.36,0-2.07,0-3.23-1.19-3.16-3.09.06-1.49,1.07-2.6,2.52-2.75.22-.02.45-.03.67-.03,10.86,0,21.72,0,32.58,0,1.69,0,2.55.61,3.01,1.99.44,1.31.1,2.47-.94,3.21-.61.43-1.48.63-2.24.64-5.36.05-10.73.03-16.09.03Z"/>
    <path class="cls-2" d="M86.93,89.85c-2.46,0-4.91.01-7.37,0-1.92-.01-3.14-1.2-3.13-3,.01-1.73,1.23-2.96,3.05-2.96,5-.02,10-.03,15,0,1.8.01,3.02,1.28,3,3.02-.01,1.73-1.24,2.93-3.06,2.95-2.5.02-5,0-7.5,0Z"/>
  </g>
  <g>
    <path class="cls-1" d="M176.33,92.88l-16.14,3.73-5.93,6.22-1.89,7.63-4.13,4.36-11.52,3.72-7.38-3.85c0,8.04,0,16.08,0,24.12.93-.17,1.81-.42,2.61-.72,0,0,0,0,0,0l6.77-.17,10.33,5.36,2.67-2.8-.7-4.88,6.97-.51,3.01-5.45s-4.71-4.48-4.84-5.62h.13l6.57-.68,5.49-6.32,4.14.78,8.34-22c-.04-.26-4.5-2.91-4.5-2.91Z"/>
    <path class="cls-1" d="M23.56,50.92l-5.81-10.49-2.41-8.08,4.24,1.37,35.2,50.53,8.94,16.93-1.31,7.06,1.46,1.05c0-1.59.01-3.19.02-4.78.05-7.68.15-15.35.21-23.03.05-6.22,4.73-11.2,10.72-11.21,13.46-.02,26.93-.03,40.39-.02l-1.65-2.46-10.75-5.81-7.95-13.32c-2.8-3.27-10.71-6.04-10.71-6.04l-5.94,4.23-11.81-12.68-9.65-4.71-23.78.68L6.12,18.51l-6.67,2.27s14.53,30.19,15.24,32.46c-1.67.38-3.37.64-5.09.77l-.32,2.99,12.07,8.46,2.8,7.69,4.55,5.3,5.2,8.89,4.88-3.66-3.02-7.4-12.22-25.35Z"/>
  </g>
</svg>