<?xml version="1.0" encoding="UTF-8"?><svg id="menu" xmlns="http://www.w3.org/2000/svg" xmlns:xlink="http://www.w3.org/1999/xlink" viewBox="0 0 64 64"><defs><style>.cls-1{fill:#b25fac;}.cls-2{fill:#1c7cbf;}.cls-3{fill:none;}</style><clipPath id="clippath"><rect class="cls-3" x="-178.61" y="827.8" width="1920.69" height="846.91"/></clipPath></defs><path class="cls-2" d="m57.57,38.71l-5.09,1.17-1.86,1.96-.6,2.4-1.3,1.37-3.63,1.17-3.63-1.89-2.21-2.8-1.46-4.5.23-4.47.8-.79-1.03-1.53-3.39-1.83-2.5-4.21c-.88-1.01-3.38-1.88-3.38-1.88l-1.87,1.33-3.72-4-3.04-1.48-7.5.21-8.45-3.66-2.1.7s4.6,9.52,4.8,10.24c-.53.12-1.06.2-1.6.24l-.1.95,3.8,2.66.88,2.42,1.43,1.67,1.64,2.8,1.54-1.15-.95-2.33-3.86-7.99-1.83-3.3-.76-2.54,1.35.42,11.09,15.91,2.8,5.33-.41,2.22,7.69,5.53c.64-.43,1.41-.64,2.18-.6,1.74.07,3.17,1.42,3.34,3.15l3.88,1.43.97-.02c-.01-.05-.02-.11-.02-.16.64.27,1.33.41,2.02.4.63,0,1.25-.11,1.84-.32h0l2.13-.06,3.25,1.69.84-.88-.22-1.54,2.19-.16.95-1.72s-1.48-1.4-1.52-1.75h.04l2.07-.21,1.73-1.99,1.3.25,2.63-6.93c-.46-.34-.93-.65-1.42-.93h0Z"/><path class="cls-2" d="m18.7,47.92c.02-.59-.15-1.24.52-1.69.56-.38.6-.84.29-1.46s-.58-1.15-.88-1.71c-.21-.56-.83-.86-1.4-.65-.77.23-1.59-.21-1.82-.99-.02-.08-.04-.15-.05-.23-.04-.58-.54-1.02-1.12-.97h-.02l-1.84-.09c-.83-.05-1.13.16-1.38.96-.06.2-.1.49-.24.56-.53.25-.99.7-1.69.4s-1.08-.11-1.49.5c-.32.48-.63.98-.95,1.47-.48.75-.44,1.1.17,1.75.51.59.47,1.47-.09,2.01-.34.22-.56.58-.62.98.06.21.13.42.21.62.28.56.57,1.12.86,1.68.35.66.75.84,1.48.67.78-.21,1.58.26,1.78,1.03.01.05.02.09.03.14.15.74.47,1.01,1.23,1.05.57.03,1.14.05,1.71.08.86.05,1.18-.18,1.44-1.02.06-.18.09-.46.22-.52.54-.24,1-.75,1.73-.39.61.3,1.08.08,1.45-.5.34-.52.67-1.03,1-1.55.42-.66.39-1.03-.13-1.61-.15-.18-.39-.35-.39-.54Zm-5.94,1.58c-1.34-.08-2.36-1.22-2.3-2.56.08-1.34,1.23-2.36,2.56-2.28,1.32.06,2.35,1.17,2.29,2.49v.05c-.08,1.33-1.22,2.35-2.55,2.3h0Z"/><path class="cls-1" d="m35.08,14.8c.04.89-.35,1.75-1.05,2.31-.7.56-1.68.84-2.93.84-1.06.02-2.11-.2-3.06-.65v-2.13c.6.28,1.22.52,1.85.7.46.13.93.19,1.4.2.41.03.81-.07,1.16-.29.27-.2.42-.52.4-.86,0-.2-.06-.4-.18-.56-.14-.19-.32-.35-.52-.48-.45-.27-.92-.52-1.4-.73-.54-.23-1.05-.54-1.51-.91-.33-.28-.59-.62-.79-1-.2-.41-.3-.87-.29-1.33-.04-.86.32-1.69.97-2.26.65-.55,1.54-.82,2.69-.82.54,0,1.08.06,1.61.2.55.15,1.08.33,1.6.56l-.74,1.78c-.46-.2-.94-.36-1.43-.49-.36-.09-.74-.14-1.11-.14-.36-.02-.72.08-1,.3-.37.34-.45.89-.21,1.32.12.18.28.32.46.43.47.28.96.53,1.45.76,1,.48,1.7.97,2.05,1.45.39.51.59,1.14.58,1.78Z"/><path class="cls-1" d="m43.84,17.8h-7.56v-1.6l2.71-2.74c.8-.82,1.33-1.4,1.57-1.71.22-.27.4-.56.53-.88.11-.27.16-.55.16-.84.03-.36-.1-.72-.35-.97-.27-.22-.61-.34-.96-.32-.42,0-.84.1-1.22.29-.44.22-.86.5-1.23.82l-1.25-1.46c.41-.36.85-.67,1.33-.94.36-.19.75-.34,1.15-.43.46-.11.93-.15,1.4-.15.62-.01,1.23.12,1.79.37.49.22.91.58,1.21,1.03.29.46.44.99.43,1.52,0,.48-.08.96-.26,1.4-.2.49-.48.94-.81,1.34-.6.7-1.25,1.35-1.94,1.96l-1.4,1.31v.1h4.71s0,1.9,0,1.9Z"/><path class="cls-1" d="m53.48,29.04c.04.89-.35,1.75-1.05,2.31-.7.56-1.68.84-2.93.84-1.06.02-2.11-.2-3.07-.65v-2.13c.6.28,1.22.52,1.85.7.46.13.93.19,1.4.2.41.02.81-.07,1.16-.29.27-.2.42-.52.4-.86,0-.2-.06-.4-.18-.56-.14-.19-.32-.36-.52-.49-.45-.27-.92-.52-1.4-.73-.53-.23-1.03-.53-1.49-.9-.33-.28-.6-.62-.79-1-.2-.41-.3-.87-.29-1.33-.04-.86.32-1.69.97-2.26.65-.55,1.55-.82,2.69-.82.54,0,1.08.07,1.61.2.55.15,1.08.34,1.6.56l-.74,1.78c-.47-.2-.95-.36-1.43-.5-.36-.09-.74-.14-1.11-.14-.36-.02-.72.08-1,.3-.23.2-.36.49-.35.79,0,.19.05.37.14.53.12.18.27.32.45.43.47.28.95.53,1.45.76,1.01.48,1.7.97,2.08,1.45.38.51.58,1.14.56,1.78h0Z"/><path class="cls-1" d="m61.82,23.65c.02.63-.2,1.24-.61,1.72-.45.51-1.06.86-1.72.99v.05c.73.05,1.42.33,1.98.8.46.45.7,1.07.67,1.7.05.95-.38,1.85-1.13,2.43-.75.58-1.83.87-3.23.87-1.07.02-2.13-.18-3.12-.59v-1.96c.44.22.9.39,1.38.52.49.13.99.2,1.5.2.58.04,1.16-.09,1.67-.38.38-.29.58-.76.54-1.24.03-.45-.21-.88-.62-1.08-.63-.25-1.3-.36-1.98-.32h-.82v-1.75h.83c.63.04,1.26-.07,1.84-.33.4-.23.62-.67.58-1.13,0-.82-.51-1.23-1.54-1.23-.37,0-.73.06-1.08.18-.43.15-.84.36-1.22.61l-1.05-1.57c1.03-.72,2.27-1.09,3.53-1.05.93-.05,1.86.19,2.65.68.62.42.99,1.13.97,1.88h0Z"/><path class="cls-1" d="m39.88,53.26c.04-.87-.23-1.82.76-2.47.82-.55.88-1.24.43-2.14-.42-.84-.85-1.68-1.3-2.51-.49-.92-1.05-1.17-2.05-.96-1.4.29-2.45-.4-2.74-1.78-.2-.97-.68-1.38-1.67-1.43-.9-.05-1.8-.08-2.7-.13-1.22-.06-1.66.24-2.02,1.4-.09.29-.15.7-.35.82-.77.35-1.44,1.05-2.48.59-.97-.44-1.58-.16-2.18.74-.48.7-.93,1.43-1.4,2.15-.7,1.1-.65,1.62.24,2.56.75.86.69,2.15-.14,2.94-.43.38-.87.75-.91,1.43.08.31.19.62.31.91.41.83.83,1.64,1.26,2.45.5.96,1.09,1.23,2.16.99,1.14-.3,2.31.38,2.61,1.51.02.07.03.14.05.21.23,1.08.7,1.48,1.81,1.54.83.04,1.67.08,2.5.12,1.27.07,1.73-.26,2.1-1.49.08-.27.14-.67.32-.76.79-.35,1.46-1.1,2.53-.57.89.45,1.58.12,2.13-.73.49-.75.97-1.51,1.46-2.27.62-.96.56-1.51-.19-2.36-.19-.24-.55-.52-.54-.76Zm-8.69,2.29c-1.95-.13-3.45-1.79-3.37-3.74.12-1.96,1.79-3.45,3.75-3.34,1.93.08,3.44,1.71,3.36,3.64,0,.02,0,.05,0,.07-.12,1.96-1.78,3.46-3.74,3.37h0Z"/><path class="cls-1" d="m11.76,9.97c0,1-.36,1.79-1.08,2.36s-1.72.86-3,.86c-1.18,0-2.23-.22-3.14-.67v-2.18c.75.33,1.38.57,1.9.7.52.14.99.2,1.42.2.52,0,.91-.1,1.18-.29s.41-.49.41-.88c0-.22-.06-.41-.18-.58s-.3-.33-.53-.49c-.23-.16-.72-.41-1.44-.75-.68-.32-1.18-.62-1.52-.91s-.61-.63-.81-1.02c-.2-.39-.3-.84-.3-1.36,0-.98.33-1.75,1-2.31s1.58-.84,2.76-.84c.57,0,1.13.07,1.65.2.52.14,1.07.33,1.64.57l-.76,1.83c-.59-.24-1.08-.41-1.47-.51-.39-.09-.77-.14-1.14-.14-.45,0-.79.11-1.02.31s-.36.48-.36.81c0,.21.05.39.14.54.09.15.25.3.46.45.21.14.7.4,1.49.77,1.03.49,1.75.99,2.13,1.49.38.5.57,1.11.57,1.83h0Z"/><path class="cls-1" d="m18.78,13.04h-2.34v-6.41l.02-1.05.04-1.15c-.39.39-.66.64-.81.76l-1.27,1.02-1.13-1.41,3.57-2.84h1.92v11.07Z"/></svg>