<?xml version="1.0" encoding="UTF-8"?>
<svg id="menu_interconexion" data-name="menu interconexion" xmlns="http://www.w3.org/2000/svg" version="1.1" viewBox="0 0 181.4 181.4">
  <defs>
    <style>
      .cls-1 {
        fill: #1c7cbf;
        stroke-width: 0px;
      }
    </style>
  </defs>
  <path class="cls-1" d="M121.8,63.3v47.4c0,2.5-.2,5-1.3,7.3-2.6,5.5-6.9,8.6-12.8,8.6-16.9.1-33.9,0-50.8,0-7.6,0-13.8-6.5-14-14.4,0-2.5,0-5,0-7.5,0-2.2,1.2-3.3,3.3-3.3,2.8,0,5.6,0,8.5,0,1.2,0,1.6-.4,1.6-1.6,0-10.3,0-20.6.1-30.8,0-7.7.1-15.3.2-23,0-6.2,4.7-11.2,10.7-11.2,20,0,40,0,59.9,0,6.2,0,11.2,5.2,11.2,11.6,0,4.5,0,9,0,13.5,0,2.2-1.2,3.4-3.3,3.4-3.9,0-7.8,0-11.7,0h-1.7,0ZM117.4,40.8c-.7,0-1.1,0-1.5,0h-48c-.3,0-.6,0-.9,0-2.7.2-4.7,2.4-4.7,5.2-.2,17.9-.3,35.9-.5,53.9,0,1.3.3,1.7,1.7,1.7,10.8,0,21.6,0,32.4,0s3.4,1.1,3.4,3.6c0,2.4,0,4.8,0,7.1,0,5.8,5.6,9.9,10.9,8.1,3.7-1.2,5.9-4.6,5.9-9,0-20.1,0-40.2,0-60.3,0-3.4-.5-6.8,1.3-10.2h0ZM93.5,107.4h-41.1c-2.4,0-3.7,1.3-3.7,3.9,0,5.7,3.5,9.4,9,9.4,12.4,0,24.7,0,37.1,0s.8,0,1,0c-.7-2.2-1.6-4.2-1.9-6.3-.4-2.2-.3-4.4-.4-6.9h0ZM121.8,57.3c3.6,0,6.9,0,10.3,0,.2,0,.6-.6.6-1,0-3.4.1-6.8,0-10.2,0-2.9-2.6-5.4-5.4-5.4-3,0-5.4,2.3-5.5,5.4,0,1.6,0,3.2,0,4.7v6.4h0Z"/>
  <g>
    <path class="cls-1" d="M88.4,73.2h16.1c2.1,0,3.5,1.2,3.4,3,0,1.8-1.4,2.9-3.4,2.9h-32.3c-2.1,0-3.3-1.1-3.3-3,0-1.8,1.2-3,3.3-3,5.4,0,10.8,0,16.2,0Z"/>
    <path class="cls-1" d="M88.4,66.7c-5.4,0-10.8,0-16.2,0-1.9,0-3-.9-3.2-2.4-.2-2,.9-3.4,3-3.4,5.3,0,10.6,0,16,0s11.3,0,17,0c2.4,0,3.8,2.4,2.6,4.4-.7,1.1-1.7,1.4-2.9,1.4-5.4,0-10.8,0-16.2,0h0Z"/>
    <path class="cls-1" d="M88.4,91.6c-5.4,0-10.9,0-16.4,0-2.1,0-3.2-1.2-3.2-3.1,0-1.5,1.1-2.6,2.5-2.8.2,0,.4,0,.7,0h32.6c1.7,0,2.6.6,3,2,.4,1.3,0,2.5-.9,3.2-.6.4-1.5.6-2.2.6-5.4,0-10.7,0-16.1,0h0Z"/>
    <path class="cls-1" d="M79.4,54.3c-2.5,0-4.9,0-7.4,0-1.9,0-3.1-1.2-3.1-3,0-1.7,1.2-3,3.1-3,5,0,10,0,15,0,1.8,0,3,1.3,3,3,0,1.7-1.2,2.9-3.1,2.9-2.5,0-5,0-7.5,0h0Z"/>
  </g>
</svg>