<?xml version="1.0" encoding="UTF-8"?>
<svg xmlns="http://www.w3.org/2000/svg" version="1.1" viewBox="0 0 104 104">
  <defs>
    <style>
      .cls-1 {
        fill: #1c7cbf;
      }
    </style>
  </defs>
  <!-- Generator: Adobe Illustrator 28.6.0, SVG Export Plug-In . SVG Version: 1.2.0 Build 709)  -->
  <g>
    <g id="menu_interconexion">
      <path class="cls-1" d="M84.8,34.3v47.4c0,2.5-.2,5-1.3,7.3-2.6,5.5-6.9,8.6-12.8,8.6-16.9,0-33.9,0-50.8,0s-13.8-6.5-14-14.4v-7.5c0-2.2,1.2-3.3,3.3-3.3h8.5c1.2,0,1.6-.4,1.6-1.6,0-10.3,0-20.6,0-30.8,0-7.7,0-15.3.2-23,0-6.2,4.7-11.2,10.7-11.2h59.9c6.2,0,11.2,5.2,11.2,11.6v13.5c0,2.2-1.2,3.4-3.3,3.4h-13.4.1ZM80.4,11.8H30c-2.7.2-4.7,2.4-4.7,5.2-.2,17.9-.3,35.9-.5,53.9,0,1.3.3,1.7,1.7,1.7h32.4c10.8,0,3.4,1.1,3.4,3.6v7.1c0,5.8,5.6,9.9,10.9,8.1,3.7-1.2,5.9-4.6,5.9-9V22.1c0-3.4-.5-6.8,1.3-10.2h0ZM56.5,78.4H15.4c-2.4,0-3.7,1.3-3.7,3.9,0,5.7,3.5,9.4,9,9.4h37.1c12.4,0,.8,0,1,0-.7-2.2-1.6-4.2-1.9-6.3-.4-2.2-.3-4.4-.4-6.9h0ZM84.8,28.3h10.3c.2,0,.6-.6.6-1,0-3.4.1-6.8,0-10.2,0-2.9-2.6-5.4-5.4-5.4s-5.4,2.3-5.5,5.4v11.1h0Z"/>
      <g>
        <path class="cls-1" d="M51.4,44.2h16.1c2.1,0,3.5,1.2,3.4,3,0,1.8-1.4,2.9-3.4,2.9h-32.3c-2.1,0-3.3-1.1-3.3-3s1.2-3,3.3-3h16.2Z"/>
        <path class="cls-1" d="M51.4,37.7h-16.2c-1.9,0-3-.9-3.2-2.4-.2-2,.9-3.4,3-3.4h33c2.4,0,3.8,2.4,2.6,4.4-.7,1.1-1.7,1.4-2.9,1.4h-16.3Z"/>
        <path class="cls-1" d="M51.4,62.6h-16.4c-2.1,0-3.2-1.2-3.2-3.1s1.1-2.6,2.5-2.8h33.3c1.7,0,2.6.6,3,2,.4,1.3,0,2.5-.9,3.2-.6.4-1.5.6-2.2.6h-16.1Z"/>
        <path class="cls-1" d="M42.4,25.3h-7.4c-1.9,0-3.1-1.2-3.1-3s1.2-3,3.1-3h15c1.8,0,3,1.3,3,3s-1.2,2.9-3.1,2.9h-7.5Z"/>
      </g>
    </g>
  </g>
</svg>