<?xml version="1.0" encoding="UTF-8"?><svg id="Capa_1" xmlns="http://www.w3.org/2000/svg" xmlns:xlink="http://www.w3.org/1999/xlink" viewBox="0 0 64 64"><defs><style>.cls-1{fill:#ced8db;}.cls-2{fill:#824e80;}.cls-3{fill:#1c7cbf;}.cls-4{fill:url(#linear-gradient-2);}.cls-4,.cls-5{opacity:.63;}.cls-6{fill:none;}.cls-5{fill:url(#linear-gradient);}.cls-7{fill:url(#linear-gradient-3);}.cls-8{fill:url(#linear-gradient-4);}</style><clipPath id="clippath"><rect class="cls-6" x="51.18" y="827.8" width="1920.69" height="846.91"/></clipPath><linearGradient id="linear-gradient" x1="21.32" y1="38.94" x2="26.34" y2="38.94" gradientUnits="userSpaceOnUse"><stop offset="0" stop-color="#f5f5f5"/><stop offset=".21" stop-color="#fff"/><stop offset=".7" stop-color="#fbfbfb"/><stop offset="1" stop-color="#f5f5f5"/></linearGradient><linearGradient id="linear-gradient-2" x1="35.25" y1="38.95" x2="41.7" y2="38.95" xlink:href="#linear-gradient"/><linearGradient id="linear-gradient-3" x1="26.93" y1="38.93" x2="33.88" y2="38.93" xlink:href="#linear-gradient"/><linearGradient id="linear-gradient-4" x1="29.07" y1="38.7" x2="31.2" y2="38.7" xlink:href="#linear-gradient"/></defs><path class="cls-3" d="m62.4,36.23l-5.7,1.32-2.09,2.2-.67,2.69-1.46,1.54-4.06,1.31-4.06-2.12-2.48-3.12-1.63-5.04.25-5.01.9-.89-1.15-1.71-3.78-2.06-2.81-4.7c-.99-1.15-3.78-2.13-3.78-2.13l-2.1,1.5-4.17-4.49-3.41-1.66-8.38.26L2.35,9.99l-2.35.8s5.13,10.65,5.38,11.45c-.59.14-1.19.23-1.79.27l-.11,1.05,4.26,2.99.99,2.71,1.6,1.87,1.84,3.13,1.72-1.29-1.07-2.62-4.31-8.94-2.05-3.7-.85-2.85,1.5.48,12.41,17.82,3.15,5.98-.46,2.49,10.25,7.38,8.9,3.27,1.08-.03c0-.06,0-.12-.03-.18,1.38.56,2.92.59,4.33.09h0l2.39-.06,3.65,1.89.94-.99-.25-1.72,2.46-.18,1.06-1.92s-1.66-1.58-1.71-1.99h.06l2.31-.24,1.94-2.24,1.46.28,2.94-7.76c-.51-.36-1.05-.7-1.6-1.01Z"/><rect class="cls-2" x="16.67" y="30.91" width="30.21" height="15.67" rx="4.2" ry="4.2"/><path class="cls-1" d="m42.69,30.91c2.32,0,4.2,1.88,4.2,4.2h0v7.27c0,2.32-1.87,4.2-4.19,4.2,0,0,0,0,0,0h-21.82c-2.32,0-4.2-1.88-4.2-4.2,0,0,0,0,0,0v-7.27c0-2.32,1.88-4.2,4.2-4.2h21.82m0-.85h-21.82c-2.78,0-5.04,2.26-5.04,5.04v7.27c0,2.78,2.26,5.04,5.04,5.04h21.82c2.78,0,5.04-2.26,5.04-5.04v-7.27c0-2.78-2.26-5.03-5.04-5.03h0Z"/><g id="ico_logo"><path class="cls-5" d="m26.34,37.6c.04.67-.24,1.32-.75,1.75-.6.44-1.34.66-2.08.61h-.65v2.53h-1.54v-7.1h2.32c.71-.05,1.42.15,2.01.56.47.41.73,1.02.69,1.65Zm-3.48,1.12h.51c.37.03.75-.07,1.06-.28.24-.19.37-.49.36-.8.02-.29-.08-.58-.3-.78-.27-.19-.6-.28-.93-.25h-.7v2.11Z"/><path class="cls-4" d="m41.7,42.49h-1.96l-3.16-5.38h-.04c.06.95.1,1.63.1,2.03v3.37h-1.38v-7.1h1.94l3.14,5.3h.03c-.05-.92-.07-1.58-.07-1.96v-3.37h1.39v7.11Z"/><path class="cls-7" d="m29.05,42.61v-1.34c.7.06,1.4.02,2.09-.12.8-.19,1.39-.85,1.5-1.67.1-.5.08-1.01-.05-1.5-.2-.78-.85-1.37-1.66-1.47-.25-.04-.5-.07-.75-.07h-3.25v-1.2h3.07c.61-.01,1.22.09,1.79.28.91.3,1.61,1.03,1.87,1.94.31.99.29,2.05-.05,3.03-.33,1-1.18,1.75-2.21,1.96-.77.14-1.56.19-2.34.15Z"/><path class="cls-8" d="m29.07,38.7v-.96c0-.08.02-.11.11-.1.33,0,.84,0,1.17.04.48.02.86.42.85.9,0,.02,0,.05,0,.07.02.31-.09.61-.3.83-.21.18-.47.28-.75.29h-.97c-.08,0-.09-.03-.09-.1,0-.32,0-.64,0-.96Z"/></g></svg>