<?xml version="1.0" encoding="iso-8859-1"?>
<!-- Generator: Adobe Illustrator 16.0.0, SVG Export Plug-In . SVG Version: 6.00 Build 0)  -->
<!DOCTYPE svg PUBLIC "-//W3C//DTD SVG 1.1//EN" "http://www.w3.org/Graphics/SVG/1.1/DTD/svg11.dtd">
<svg version="1.1" id="Capa_1" xmlns="http://www.w3.org/2000/svg" xmlns:xlink="http://www.w3.org/1999/xlink" x="0px" y="0px"
	 width="943.2px" height="943.2px" viewBox="0 0 943.2 943.2" style="enable-background:new 0 0 943.2 943.2;" xml:space="preserve"
	>
<g>
	<g>
		<path style="fill:#fff;" d="M204.2,564.3c-56.9,0-103.2,46.3-103.2,103.2s46.3,103.2,103.2,103.2s103.2-46.3,103.2-103.2S261.1,564.3,204.2,564.3z
			 M204.2,714.2c-25.8,0-46.7-21-46.7-46.8c0-25.801,21-46.801,46.7-46.801c25.8,0,46.8,21,46.8,46.801
			C251,693.2,230,714.2,204.2,714.2z"/>
		<path style="fill:#fff;" d="M733.1,564.3c-56.899,0-103.2,46.3-103.2,103.2S676.2,770.7,733.1,770.7c56.9,0,103.2-46.3,103.2-103.2
			S790,564.3,733.1,564.3z M779.899,667.5c0,25.8-21,46.8-46.8,46.8s-46.8-21-46.8-46.8s21-46.8,46.8-46.8
			S779.899,641.7,779.899,667.5z"/>
		<path style="fill:#fff;" d="M915.6,562.2h-12.7L902.7,300.8c0-15.2-12.301-27.5-27.5-27.5H368.7c-8.801,0-17.2,4.3-22.4,11.5l-101.7,142L75.4,426.4
			c-15.2,0-27.5,12.3-27.5,27.5V562.1L27.8,561.9h-0.3C12.3,561.9,0,574.2,0,589.4v30c0,15,12.2,27.399,27.2,27.5h45.6
			c0,0,2.2-10.9,3.8-16.301c1.5-5.3,3.4-10.5,5.6-15.6c2.2-5.1,4.7-10,7.5-14.7c2.8-4.8,5.9-9.3,9.2-13.7c3.4-4.399,7-8.6,10.9-12.5
			c2.6-2.699,5.4-5.199,8.2-7.6c24-20.5,54.6-31.8,86.1-31.8c31.6,0,62.2,11.3,86.2,31.8c23.7,20.3,39.6,48.3,44.8,78.9l0.3,2.1
			h266.5l0.4-2.1c5.1-30.601,21-58.601,44.8-78.9c24-20.5,54.601-31.8,86.2-31.8s62.2,11.3,86.2,31.8c23.7,20.3,39.6,48.3,44.7,78.9
			l0.3,2.1h51.2c15.199,0,27.5-12.3,27.5-27.5v-30.2C943.1,574.5,930.8,562.2,915.6,562.2z M449.2,429.3H327.399
			c-12.199,0-19.3-13.8-12.199-23.7l56.3-79c4.7-6.6,12.3-10.5,20.399-10.5h57.5c13.801,0,25,11.2,25,25v63.2
			C474.2,418.1,463,429.3,449.2,429.3z M545.1,341.2c0-6,2.3-11.7,6.601-15.9c4.199-4.2,9.899-6.6,15.899-6.6h256
			c6,0,11.7,2.3,15.9,6.6c4.2,4.3,6.6,9.9,6.6,15.9v63.2c0,12.399-10.1,22.5-22.5,22.5h-256c-12.399,0-22.5-10.101-22.5-22.5V341.2z
			"/>
		<path style="fill:#fff;" d="M424.6,172.5c-19.3,0-35,15.7-35,35s15.7,35,35,35h422c19.3,0,35-15.7,35-35s-15.7-35-35-35H424.6z"/>
	</g>
</g>
<g>
</g>
<g>
</g>
<g>
</g>
<g>
</g>
<g>
</g>
<g>
</g>
<g>
</g>
<g>
</g>
<g>
</g>
<g>
</g>
<g>
</g>
<g>
</g>
<g>
</g>
<g>
</g>
<g>
</g>
</svg>
