<svg height="464pt" viewBox="-23 0 463 464" width="464pt" xmlns="http://www.w3.org/2000/svg"><path style="fill:#fff;" d="m32.5 241.472656v-77.214844c3.351562 5.132813 6.792969 10.207032 10.398438 15.148438l41.378906-35.460938c-8.96875-11.824218-17.488282-23.976562-25.25-36.59375l-7.351563-11.945312-48.433593 13.832031c3.96875 9.480469 8.480468 18.664063 13.257812 27.683594v104.550781c-9.289062 3.3125-16 12.113282-16 22.527344 0 13.230469 10.769531 24 24 24s24-10.769531 24-24c0-10.414062-6.710938-19.214844-16-22.527344zm0-121.472656h16v16h-16zm-8 152c-4.414062 0-8-3.585938-8-8s3.585938-8 8-8 8 3.585938 8 8-3.585938 8-8 8zm0 0"/><path style="fill:#fff;" d="m400.5 241.472656v-104.550781c4.777344-9.027344 9.289062-18.203125 13.257812-27.675781l-48.425781-13.832032-7.351562 11.945313c-7.761719 12.617187-16.28125 24.777344-25.25 36.59375l41.378906 35.460937c3.605469-4.949218 7.046875-10.015624 10.398437-15.148437v77.214844c-9.289062 3.3125-16 12.113281-16 22.527343 0 13.230469 10.769532 24 24 24 13.230469 0 24-10.769531 24-24-.007812-10.421874-6.71875-19.222656-16.007812-22.535156zm-32-105.472656v-16h16v16zm24 136c-4.414062 0-8-3.585938-8-8s3.585938-8 8-8 8 3.585938 8 8-3.585938 8-8 8zm0 0"/><path style="fill:#fff;" d="m208.5 424c-19.328125 0-35.976562-11.503906-43.574219-28-2.816406 6.097656-4.425781 12.855469-4.425781 20 0 26.472656 21.527344 48 48 48s48-21.527344 48-48c0-7.144531-1.609375-13.902344-4.425781-20-7.597657 16.496094-24.246094 28-43.574219 28zm0 0"/><path style="fill:#fff;" d="m208.5 112c37.246094 0 52.839844-39.953125 55.753906-48.496094-9.640625-7.433594-15.753906-19.007812-15.753906-31.648437v-31.855469h-80v31.855469c0 12.648437-6.121094 24.222656-15.761719 31.65625 2.914063 8.746093 18.203125 48.488281 55.761719 48.488281zm0 0"/><path style="fill:#fff;" d="m158.195312 147.753906-4.855468-43.753906h-31.519532c8.984376 14.65625 21.222657 31.160156 36.375 43.753906zm0 0"/><path style="fill:#fff;" d="m308.597656 79.207031-29.90625-8.542969c-1.464844 4.023438-4.0625 10.296876-8.09375 17.335938h33.644532c1.699218-3.265625 3.144531-6.222656 4.355468-8.792969zm0 0"/><path style="fill:#fff;" d="m246.242188 115.847656c-5.34375 3.832032-11.382813 7.054688-18.269532 9.199219l14.113282 28.226563zm0 0"/><path style="fill:#fff;" d="m224.5 208c0-13.253906-7.164062-24-16-24s-16 10.746094-16 24 7.164062 24 16 24 16-10.746094 16-24zm0 0"/><path style="fill:#fff;" d="m174.914062 153.28125 14.113282-28.226562c-6.886719-2.144532-12.925782-5.367188-18.269532-9.199219zm0 0"/><path style="fill:#fff;" d="m263.660156 104-4.863281 43.800781c15.183594-12.601562 27.429687-29.121093 36.414063-43.800781zm0 0"/><path style="fill:#fff;" d="m146.402344 88c-4.023438-7.039062-6.628906-13.3125-8.09375-17.335938l-29.898438 8.542969c1.21875 2.570313 2.675782 5.527344 4.363282 8.792969zm0 0"/><path style="fill:#fff;" d="m364.371094 192.136719-41.542969-35.609375c-17.351563 21.289062-36.601563 41.023437-57.433594 58.929687l25.777344 45.109375c7.328125-5.101562 14.417969-10.519531 21.320313-16.152344v77.058594c-9.289063 3.3125-16 12.113282-16 22.527344 0 13.230469 10.769531 24 24 24 13.230468 0 24-10.769531 24-24 0-10.414062-6.710938-19.214844-16-22.527344v-90.976562c12.886718-11.878906 24.910156-24.671875 35.878906-38.359375zm-43.871094 159.863281c-4.414062 0-8-3.585938-8-8s3.585938-8 8-8 8 3.585938 8 8-3.585938 8-8 8zm-16-136v-16h16v16zm0 0"/><path style="fill:#fff;" d="m231.714844 180.632812c5.410156 7.167969 8.785156 16.757813 8.785156 27.367188 0 2.65625-.230469 5.246094-.632812 7.769531 41.289062-32.457031 77.015624-72.152343 104.480468-116.800781l5-8.121094-25.128906-7.175781c-10.34375 22.792969-41.710938 82.28125-92.503906 96.960937zm0 0"/><path style="fill:#fff;" d="m177.132812 215.769531c-.402343-2.523437-.632812-5.113281-.632812-7.769531 0-10.609375 3.375-20.199219 8.785156-27.367188-50.792968-14.679687-82.160156-74.167968-92.503906-96.960937l-25.128906 7.175781 5 8.121094c27.464844 44.648438 63.191406 84.34375 104.480468 116.800781zm0 0"/><path style="fill:#fff;" d="m211.453125 127.792969c-1 .046875-1.929687.207031-2.953125.207031s-1.953125-.160156-2.953125-.207031l-18.328125 36.648437c6.746094 2.246094 13.824219 3.558594 21.28125 3.558594s14.542969-1.3125 21.28125-3.542969zm0 0"/><path style="fill:#fff;" d="m125.820312 260.566406 25.777344-45.109375c-20.832031-17.90625-40.082031-37.640625-57.433594-58.929687l-41.542968 35.609375c10.96875 13.6875 22.992187 26.480469 35.871094 38.359375v90.976562c-9.289063 3.3125-16 12.113282-16 22.527344 0 13.230469 10.769531 24 24 24 13.230468 0 24-10.769531 24-24 0-10.414062-6.710938-19.214844-16-22.527344v-77.058594c6.910156 5.632813 14 11.050782 21.328124 16.152344zm-29.320312 91.433594c-4.414062 0-8-3.585938-8-8s3.585938-8 8-8 8 3.585938 8 8-3.585938 8-8 8zm0-152h16v16h-16zm0 0"/><path style="fill:#fff;" d="m212.796875 254.753906-4.296875 2.734375-4.296875-2.734375c-13.894531-8.851562-27.277344-18.515625-40.160156-28.824218l-24.855469 43.496093c17.601562 11.085938 36.207031 20.710938 55.738281 28.527344l5.574219 2.230469v68.558594c-8.9375 1.523437-17.054688 5.472656-23.601562 11.21875 1.976562 15.765624 15.304687 28.039062 31.601562 28.039062s29.625-12.273438 31.601562-28.039062c-6.546874-5.746094-14.664062-9.695313-23.601562-11.21875v-68.558594l5.574219-2.230469c19.53125-7.808594 38.136719-17.441406 55.738281-28.527344l-24.855469-43.496093c-12.882812 10.308593-26.265625 19.972656-40.160156 28.824218zm3.703125 33.246094h-16v-16h16zm0 0"/></svg>