<?xml version="1.0" encoding="iso-8859-1"?>
<!-- Generator: Adobe Illustrator 19.0.0, SVG Export Plug-In . SVG Version: 6.00 Build 0)  -->
<svg version="1.1" id="Capa_1" xmlns="http://www.w3.org/2000/svg" xmlns:xlink="http://www.w3.org/1999/xlink" x="0px" y="0px"
	 viewBox="0 0 512 512" style="enable-background:new 0 0 512 512;" xml:space="preserve">
<g>
	<g>
		<path style="fill:#fff;" d="M479.42,249.29l-60-120c-2.905-5.098-6.983-8.29-13.42-8.29H106c-6.272,0-10.466,3.112-13.42,8.29l-60,120
			c-2.778,5.9-1.827,11.829,2.11,16.56l210,241c2.85,3.27,6.97,5.15,11.31,5.15c4.34,0,8.46-1.88,11.31-5.15l210-241
			C481.222,261.143,482.215,255.221,479.42,249.29z M381.73,151l-38.29,76.58L286,151H381.73z M316,241H196l60-80L316,241z M226,151
			l-57.44,76.58L130.27,151H226z M106,169.54L141.73,241H70.27L106,169.54z M78.97,271h77.12l73.95,173.38L78.97,271z M256,428.77
			L188.71,271h134.58L256,428.77z M281.96,444.38L355.91,271h77.12L281.96,444.38z M370.27,241L406,169.54L441.73,241H370.27z"/>
	</g>
</g>
<g>
	<g>
		<path style="fill:#fff;" d="M256,0c-8.284,0-15,6.716-15,15v31c0,8.284,6.716,15,15,15s15-6.716,15-15V15C271,6.716,264.284,0,256,0z"/>
	</g>
</g>
<g>
	<g>
		<path style="fill:#fff;" d="M192.36,66.147l-21.213-21.213c-5.857-5.858-15.355-5.858-21.213,0c-5.858,5.858-5.858,15.355,0,21.213l21.213,21.213
			c5.857,5.858,15.356,5.859,21.213,0C198.218,81.502,198.218,72.005,192.36,66.147z"/>
	</g>
</g>
<g>
	<g>
		<path style="fill:#fff;" d="M362.065,44.934c-5.857-5.858-15.355-5.858-21.213,0l-21.213,21.213c-5.858,5.858-5.858,15.355,0,21.213
			c5.857,5.858,15.356,5.859,21.213,0l21.213-21.213C367.923,60.289,367.923,50.792,362.065,44.934z"/>
	</g>
</g>
<g>
</g>
<g>
</g>
<g>
</g>
<g>
</g>
<g>
</g>
<g>
</g>
<g>
</g>
<g>
</g>
<g>
</g>
<g>
</g>
<g>
</g>
<g>
</g>
<g>
</g>
<g>
</g>
<g>
</g>
</svg>
