<svg id="Capa_1" enable-background="new 0 0 235.067 235.067" height="512" viewBox="0 0 235.067 235.067" width="512" xmlns="http://www.w3.org/2000/svg"><path style="fill:#fff;" d="m144.958 78.356h39.178v15.671h-39.178z"/><path style="fill:#fff;" d="m199.807 47.013h11.753v-7.847l-188.061.012.008 141.052 188.066-.012-.008-7.836h-11.757c-2.163 0-3.918-1.751-3.918-3.918v-15.671c0-2.167 1.755-3.918 3.918-3.918h11.753v-78.355h-11.753c-2.163 0-3.918-1.751-3.918-3.918v-15.671c0-2.166 1.755-3.918 3.917-3.918zm-78.355 66.603h-12.024c-.717 5.712-2.974 10.938-6.343 15.272l9.387 9.383c1.532 1.532 1.532 4.008 0 5.54-.764.764-1.771 1.148-2.774 1.148s-2.006-.384-2.77-1.148l-9.387-9.383c-4.333 3.369-9.559 5.626-15.268 6.343v12.024c0 2.167-1.755 3.918-3.918 3.918s-3.918-1.751-3.918-3.918v-12.025c-5.712-.717-10.938-2.974-15.268-6.343l-9.387 9.383c-.764.764-1.767 1.148-2.77 1.148s-2.006-.384-2.77-1.148c-1.532-1.532-1.532-4.008 0-5.54l9.387-9.383c-3.369-4.333-5.626-9.559-6.343-15.272h-12.022c-2.163 0-3.918-1.751-3.918-3.918s1.755-3.918 3.918-3.918h12.024c.717-5.712 2.974-10.938 6.343-15.272l-9.387-9.383c-1.532-1.532-1.532-4.008 0-5.54s4.008-1.532 5.54 0l9.387 9.383c4.333-3.369 9.559-5.626 15.268-6.343v-12.022c0-2.167 1.755-3.918 3.918-3.918s3.918 1.751 3.918 3.918v12.024c5.712.717 10.938 2.974 15.268 6.343l9.387-9.383c1.532-1.532 4.012-1.532 5.544 0 1.528 1.532 1.528 4.008 0 5.54l-9.387 9.383c3.369 4.333 5.626 9.559 6.343 15.272h12.024c2.163 0 3.918 1.751 3.918 3.918s-1.758 3.917-3.92 3.917zm23.506 35.26h-3.918c-2.163 0-3.918-1.751-3.918-3.918s1.755-3.918 3.918-3.918h3.918c2.163 0 3.918 1.751 3.918 3.918s-1.755 3.918-3.918 3.918zm0-15.671h-3.918c-2.163 0-3.918-1.751-3.918-3.918s1.755-3.918 3.918-3.918h3.918c2.163 0 3.918 1.751 3.918 3.918s-1.755 3.918-3.918 3.918zm0-15.671h-3.918c-2.163 0-3.918-1.751-3.918-3.918s1.755-3.918 3.918-3.918h3.918c2.163 0 3.918 1.751 3.918 3.918s-1.755 3.918-3.918 3.918zm23.507 31.342h-7.836c-2.163 0-3.918-1.751-3.918-3.918s1.755-3.918 3.918-3.918h7.836c2.163 0 3.918 1.751 3.918 3.918s-1.755 3.918-3.918 3.918zm0-15.671h-7.836c-2.163 0-3.918-1.751-3.918-3.918s1.755-3.918 3.918-3.918h7.836c2.163 0 3.918 1.751 3.918 3.918s-1.755 3.918-3.918 3.918zm0-15.671h-7.836c-2.163 0-3.918-1.751-3.918-3.918s1.755-3.918 3.918-3.918h7.836c2.163 0 3.918 1.751 3.918 3.918s-1.755 3.918-3.918 3.918zm19.589 31.342h-3.918c-2.163 0-3.918-1.751-3.918-3.918s1.755-3.918 3.918-3.918h3.918c2.163 0 3.918 1.751 3.918 3.918s-1.755 3.918-3.918 3.918zm0-15.671h-3.918c-2.163 0-3.918-1.751-3.918-3.918s1.755-3.918 3.918-3.918h3.918c2.163 0 3.918 1.751 3.918 3.918s-1.755 3.918-3.918 3.918zm0-15.671h-3.918c-2.163 0-3.918-1.751-3.918-3.918s1.755-3.918 3.918-3.918h3.918c2.163 0 3.918 1.751 3.918 3.918s-1.755 3.918-3.918 3.918zm3.918-19.589c0 2.167-1.755 3.918-3.918 3.918h-47.014c-2.163 0-3.918-1.751-3.918-3.918v-23.507c0-2.167 1.755-3.918 3.918-3.918h47.013c2.163 0 3.918 1.751 3.918 3.918v23.507z"/><path style="fill:#fff;" d="m78.356 86.191c-12.96 0-23.507 10.543-23.507 23.507s10.547 23.507 23.507 23.507c12.964 0 23.507-10.543 23.507-23.507s-10.547-23.507-23.507-23.507zm0 39.178c-8.643 0-15.671-7.029-15.671-15.671s7.029-15.671 15.671-15.671c2.163 0 3.918 1.751 3.918 3.918s-1.755 3.918-3.918 3.918c-4.321 0-7.836 3.514-7.836 7.836s3.514 7.836 7.836 7.836c4.321 0 7.836-3.514 7.836-7.836 0-2.167 1.755-3.918 3.918-3.918s3.918 1.751 3.918 3.918c-.001 8.642-7.033 15.67-15.672 15.67z"/><path style="fill:#fff;" d="m219.396 70.52h15.671v78.356h-15.671z"/><path style="fill:#fff;" d="m231.15 15.671h-227.232c-2.163 0-3.918 1.751-3.918 3.918v180.218c0 2.167 1.755 3.918 3.918 3.918h11.753v11.753c0 2.167 1.755 3.918 3.918 3.918h31.342c2.163 0 3.918-1.751 3.918-3.918v-11.753h125.369v11.753c0 2.167 1.755 3.918 3.918 3.918h31.342c2.163 0 3.918-1.751 3.918-3.918v-11.753h11.753c2.163 0 3.918-1.751 3.918-3.918v-27.425h-15.671v7.847c0 4.317-3.51 7.824-7.824 7.824h-188.073c-4.317 0-7.828-3.51-7.828-7.824v-141.063c0-4.317 3.51-7.824 7.828-7.824h188.074c4.314 0 7.824 3.51 7.824 7.824v7.847h15.671v-27.424c-.001-2.167-1.756-3.918-3.918-3.918zm-184.137 195.89h-23.506v-7.836h23.507v7.836zm164.548 0h-23.507v-7.836h23.507z"/><path style="fill:#fff;" d="m203.725 54.849v7.836h11.753 19.589v-7.836h-19.589z"/><path style="fill:#fff;" d="m203.725 156.712v7.835h11.753 19.589v-7.835h-19.589z"/></svg>