<?xml version="1.0" encoding="iso-8859-1"?>
<!-- Generator: Adobe Illustrator 17.1.0, SVG Export Plug-In . SVG Version: 6.00 Build 0)  -->
<!DOCTYPE svg PUBLIC "-//W3C//DTD SVG 1.1//EN" "http://www.w3.org/Graphics/SVG/1.1/DTD/svg11.dtd">
<svg version="1.1" id="Capa_1" xmlns="http://www.w3.org/2000/svg" xmlns:xlink="http://www.w3.org/1999/xlink" x="0px" y="0px"
	 viewBox="0 0 175.833 175.833" style="enable-background:new 0 0 175.833 175.833;" xml:space="preserve">
<path style="fill:#fff;" d="M157.417,0h-139c-7.72,0-14,6.28-14,14v139c0,7.383,5.746,13.45,13,13.965v3.869c0,2.761,2.239,5,5,5h14.167
	c2.761,0,5-2.239,5-5V167h91.167v3.833c0,2.761,2.239,5,5,5h14.167c2.761,0,5-2.239,5-5V167h0.5c7.72,0,14-6.28,14-14V14
	C171.417,6.28,165.136,0,157.417,0z M156.917,139.25c0,7.306-5.944,13.25-13.25,13.25h-113c-7.306,0-13.25-5.944-13.25-13.25V26.75
	c0-7.306,5.944-13.25,13.25-13.25h113c7.306,0,13.25,5.944,13.25,13.25V139.25z M70.461,83.25c0,6.341-5.159,11.5-11.5,11.5
	s-11.5-5.159-11.5-11.5s5.159-11.5,11.5-11.5S70.461,76.909,70.461,83.25z M143.667,23.5h-113c-1.792,0-3.25,1.458-3.25,3.25v112.5
	c0,1.792,1.458,3.25,3.25,3.25h113c1.792,0,3.25-1.458,3.25-3.25V26.75C146.917,24.958,145.459,23.5,143.667,23.5z M58.961,104.75
	c-11.855,0-21.5-9.645-21.5-21.5s9.645-21.5,21.5-21.5s21.5,9.645,21.5,21.5S70.816,104.75,58.961,104.75z M98.596,104.833h-2.429
	c-2.761,0-5-2.239-5-5s2.239-5,5-5h2.429c2.761,0,5,2.239,5,5S101.357,104.833,98.596,104.833z M98.596,88.5h-2.429
	c-2.761,0-5-2.239-5-5s2.239-5,5-5h2.429c2.761,0,5,2.239,5,5S101.357,88.5,98.596,88.5z M98.596,72.167h-2.429
	c-2.761,0-5-2.239-5-5s2.239-5,5-5h2.429c2.761,0,5,2.239,5,5S101.357,72.167,98.596,72.167z M115.596,104.833h-2.429
	c-2.761,0-5-2.239-5-5s2.239-5,5-5h2.429c2.761,0,5,2.239,5,5S118.357,104.833,115.596,104.833z M115.596,88.5h-2.429
	c-2.761,0-5-2.239-5-5s2.239-5,5-5h2.429c2.761,0,5,2.239,5,5S118.357,88.5,115.596,88.5z M115.596,72.167h-2.429
	c-2.761,0-5-2.239-5-5s2.239-5,5-5h2.429c2.761,0,5,2.239,5,5S118.357,72.167,115.596,72.167z M132.596,104.833h-2.429
	c-2.761,0-5-2.239-5-5s2.239-5,5-5h2.429c2.761,0,5,2.239,5,5S135.357,104.833,132.596,104.833z M132.596,88.5h-2.429
	c-2.761,0-5-2.239-5-5s2.239-5,5-5h2.429c2.761,0,5,2.239,5,5S135.357,88.5,132.596,88.5z M132.596,72.167h-2.429
	c-2.761,0-5-2.239-5-5s2.239-5,5-5h2.429c2.761,0,5,2.239,5,5S135.357,72.167,132.596,72.167z"/>
<g>
</g>
<g>
</g>
<g>
</g>
<g>
</g>
<g>
</g>
<g>
</g>
<g>
</g>
<g>
</g>
<g>
</g>
<g>
</g>
<g>
</g>
<g>
</g>
<g>
</g>
<g>
</g>
<g>
</g>
</svg>
