<svg id="Glyph" height="512" viewBox="0 0 512 512" width="512" xmlns="http://www.w3.org/2000/svg"><path style="fill:#fff;" d="m32 336h352v16h-352z"/><path style="fill:#fff;" d="m464 336h16v16h-16z"/><path style="fill:#fff;" d="m432 336h16v16h-16z"/><path style="fill:#fff;" d="m400 336h16v16h-16z"/><path style="fill:#fff;" d="m32 96h448v224h-448z"/><path style="fill:#fff;" d="m449.316 416.109-185.316-30.886v-17.223h-16v17.223l-185.316 30.886a8 8 0 0 0 1.308 15.891 8.088 8.088 0 0 0 1.324-.109l190.684-31.781 190.684 31.781a8.088 8.088 0 0 0 1.324.109 8 8 0 0 0 1.308-15.891z"/></svg>