<svg height="512" viewBox="0 0 49 56" width="512" xmlns="http://www.w3.org/2000/svg"><g id="038---Watch-Making"><path style="fill:#fff;" id="Shape" d="m.1 11.94 1.29 2.14 1.751-.628c.32061684-.1164569.67856713-.0601968.948.149.5017244.3847075 1.05822827.6921161 1.651.912.33318951.1236852.57569592.4149213.637.765l.3 1.722h2.648l.3-1.722c.06130408-.3500787.30381049-.6413148.637-.765.5927717-.2198839 1.1492756-.5272925 1.651-.912.2693551-.2093767.627402-.265652.948-.149l1.751.628 1.288-2.14-1.392-1.1c-.2847949-.2246372-.4256183-.5858797-.368-.944.0503192-.29742601.077069-.5983617.08-.9-.002931-.3016383-.0296808-.60257399-.08-.9-.0576183-.35812032.0832051-.71936278.368-.944l1.392-1.092-1.29-2.14-1.751.628c-.3207461.11510466-.6780293.05894939-.948-.149-.5017244-.38470753-1.0582283-.69211609-1.651-.912-.33318951-.1236852-.57569592-.41492132-.637-.765l-.299-1.722h-2.648l-.3 1.722c-.06130408.35007868-.30381049.6413148-.637.765-.59277173.21988391-1.1492756.52729247-1.651.912-.26997071.20794939-.62725391.26410466-.948.149l-1.75-.628-1.29 2.14 1.392 1.1c.28479493.22463722.42561826.58587968.368.944-.05031921.29742601-.07706904.5983617-.08.9.00293096.3016383.02968079.60257399.08.9.05761826.3581203-.08320507.7193628-.368.944zm7.9-6.94c2.209139 0 4 1.790861 4 4s-1.790861 4-4 4-4-1.790861-4-4 1.790861-4 4-4z"/><circle style="fill:#fff;" id="Oval" cx="24" cy="28" r="3"/><path style="fill:#fff;" id="Shape" d="m12.531 23.864 2.233 1.836c.2713787.2239966.4050564.574141.352.922-.1546714.9101421-.1546714 1.8398579 0 2.75.0530564.347859-.0806213.6980034-.352.922l-2.233 1.838 2.154 3.729 2.7-1.011c.1118144-.0424024.2304156-.0640895.35-.064.2284307-.0002228.4500525.0777683.628.221.7193803.5777258 1.5234802 1.0411626 2.384 1.374.3286895.127757.5657894.4191924.624.767l.476 2.852h4.306l.475-2.849c.0583998-.3480386.2959226-.6395265.625-.767.8602586-.3327421 1.6640429-.7961913 2.383-1.374.2753635-.2214528.6471583-.2811376.978-.157l2.7 1.011 2.154-3.728-2.233-1.836c-.272049-.2243884-.405798-.5754794-.352-.924.1559923-.9086872.1559923-1.8373128 0-2.746-.053798-.3485206.079951-.6996116.352-.924l2.234-1.838-2.154-3.729-2.7 1.011c-.3308417.1241376-.7026365.0644528-.978-.157-.7193803-.5777258-1.5234802-1.0411626-2.384-1.374-.3286895-.127757-.5657894-.4191924-.624-.767l-.476-2.852h-4.306l-.475 2.849c-.0583998.3480386-.2959226.6395265-.625.767-.8602586.3327421-1.6640429.7961913-2.383 1.374-.2753635.2214528-.6471583.2811376-.978.157l-2.7-1.011zm11.469-.864c2.7614237 0 5 2.2385763 5 5s-2.2385763 5-5 5-5-2.2385763-5-5c.0033061-2.7600532 2.2399468-4.9966939 5-5z"/><path style="fill:#fff;" id="Shape" d="m24 6c4.4465378.00465191 8.7869086 1.35903452 12.447 3.884l-1.892-8.322c-.2000103-.91347563-1.0098859-1.56387442-1.945-1.562h-17.22c-.9348124-.00197691-1.7445839.64792192-1.945 1.561l-.162.71.85-.3c.7759701-.27963229 1.6416519.02396187 2.073.727l1.554 2.577c.2937729.49324887.3134135 1.10286408.052 1.614 2.0094873-.59096929 4.093416-.89035722 6.188-.889zm-2-4h4c.5522847 0 1 .44771525 1 1s-.4477153 1-1 1h-4c-.5522847 0-1-.44771525-1-1s.4477153-1 1-1z"/><circle style="fill:#fff;" id="Oval" cx="8" cy="9" r="2"/><path style="fill:#fff;" id="Shape" d="m48 31c.5522847 0 1-.4477153 1-1v-4c0-.5522847-.4477153-1-1-1h-2.214c.2826722 1.9900121.2826722 4.0099879 0 6z"/><path style="fill:#fff;" id="Shape" d="m34.555 54.439 1.889-8.309c-7.4936494 5.1599615-17.3943506 5.1599615-24.888 0l1.889 8.308c.2000103.9134756 1.0098859 1.5638744 1.945 1.562h17.22c.9348124.0019769 1.7445839-.6479219 1.945-1.561zm-8.555-.439h-4c-.5522847 0-1-.4477153-1-1s.4477153-1 1-1h4c.5522847 0 1 .4477153 1 1s-.4477153 1-1 1z"/><path style="fill:#fff;" id="Shape" d="m37.37 13.123c-5.7751291-5.19032686-14.0331329-6.56744061-21.18-3.532v.031l1.168.921c.1904418.1517907.3451069.3436709.453.562 1.9807147-.7340302 4.0766505-1.108244 6.189-1.105 8.1534739-.00489304 15.2932848 5.4682218 17.4064102 13.3431098s-1.327558 16.1871431-8.3881699 20.2647551c-7.0606119 4.0776121-15.9798687 2.903413-21.7445874-2.8626237-5.76471873-5.7660366-6.93687893-14.6855616-2.8576529-21.7452412h-1.97c-.09391723-.0082031-.18693782-.0245988-.278-.049-4.69229929 9.2464715-1.53978121 20.5456833 7.2617155 26.0273403 8.8014967 5.4816571 20.3327972 3.3276693 26.5619488-4.9616358s5.090144-19.9646303-2.6236643-26.8937045z"/><path style="fill:#fff;" id="Shape" d="m14.134 16.034-.5-.179c-5.8652226 5.039144-7.27532119 13.5575093-3.346792 20.2178747 3.9285293 6.6603653 12.0658877 9.5472883 19.3135757 6.8519538 7.2476879-2.6953345 11.5213559-10.1977799 10.1433174-17.8066444s-8.0114758-13.1359283-15.7441011-13.1181841c-2.3167365-.0012353-4.6049467.5110505-6.7 1.5l-1.091 1.811c-.4325061.7028107-1.2993994 1.0048656-2.075.723zm3.436 3.047c.6010207-.4325398 1.244303-.8030972 1.92-1.106l.384-2.3c.1590837-.9659645.9940235-1.6747958 1.973-1.675h4.306c.9770536-.0002835 1.8112977.7054201 1.973 1.669l.384 2.306c.6759263.3024534 1.319253.6730364 1.92 1.106l2.184-.818c.9156256-.3466957 1.9474526.0233885 2.434.873l2.152 3.728c.488998.8464617.2944537 1.9223763-.46 2.544l-1.8 1.486c.0853291.7348646.0853291 1.4771354 0 2.212l1.8 1.486c.7542609.6212299.9491944 1.6965354.461 2.543l-2.153 3.729c-.4862601.8499543-1.5183784 1.220143-2.434.873l-2.184-.818c-.6010207.4325398-1.244303.8030972-1.92 1.106l-.384 2.3c-.1590837.9659645-.9940235 1.6747958-1.973 1.675h-4.306c-.9770536.0002835-1.8112977-.7054201-1.973-1.669l-.384-2.306c-.6759263-.3024534-1.319253-.6730364-1.92-1.106l-2.184.818c-.9156294.3462492-1.9471658-.0237308-2.434-.873l-2.152-3.728c-.488998-.8464617-.2944537-1.9223763.46-2.544l1.8-1.486c-.0853291-.7348646-.0853291-1.4771354 0-2.212l-1.8-1.486c-.7542609-.6212299-.9491944-1.6965354-.461-2.543l2.153-3.729c.4863395-.850449 1.5190934-1.2207135 2.435-.873z"/></g></svg>