<svg height="512" viewBox="0 0 36 56" width="512" xmlns="http://www.w3.org/2000/svg"><g id="003---Crown-Jewel"><path style="fill:#fff;" id="Shape" d="m21 10c0-1.65685425-1.3431458-3-3-3s-3 1.34314575-3 3c0 1.6568542 1.3431458 3 3 3s3-1.3431458 3-3zm-3 1c-.5522847 0-1-.4477153-1-1 0-.55228475.4477153-1 1-1s1 .44771525 1 1c0 .5522847-.4477153 1-1 1z"/><path style="fill:#fff;" id="Shape" d="m15.975 5.438c1.2868393-.58401031 2.7631607-.58401031 4.05 0l1.245-4.151c.0907076-.30275797.0329504-.63057683-.1557668-.88410405-.1887172-.25352723-.486179-.40291789-.8022332-.40289595h-4.624c-.3160542-.00002194-.613516.14936872-.8022332.40289595-.1887172.25352722-.2464744.58134608-.1557668.88410405z"/><path style="fill:#fff;" id="Shape" d="m16 14.576v3.424h4v-3.424c-1.2733819.5654565-2.7266181.5654565-4 0z"/><path style="fill:#fff;" id="Shape" d="m23 43v11.238c5.374781-1.6556662 9.5823338-5.863219 11.238-11.238z"/><path style="fill:#fff;" id="Shape" d="m13 21.762c-5.374781 1.6556662-9.58233382 5.863219-11.238 11.238h11.238z"/><path style="fill:#fff;" id="Shape" d="m13 43h-11.238c1.65566618 5.374781 5.863219 9.5823338 11.238 11.238z"/><path style="fill:#fff;" id="Shape" d="m26.713 13.27c.302758.0907076.6305768.0329504.8841041-.1557668.2535272-.1887172.4029178-.486179.4028959-.8022332v-4.624c.0000219-.31605418-.1493687-.61351598-.4028959-.80223321-.2535273-.18871723-.5813461-.24647434-.8841041-.15576679l-4.151 1.245c.5840103 1.28683925.5840103 2.7631607 0 4.05z"/><path style="fill:#fff;" id="Shape" d="m9.287 13.27 4.151-1.245c-.5840103-1.2868393-.5840103-2.76316075 0-4.05l-4.151-1.245c-.30275797-.09070755-.63057683-.03295044-.88410405.15576679-.25352723.18871723-.40291789.48617903-.40289595.80223321v4.624c-.00002194.3160542.14936872.613516.40289595.8022332.25352722.1887172.58134608.2464744.88410405.1557668z"/><path style="fill:#fff;" id="Shape" d="m1 41h12.5c.8284271 0 1.5.6715729 1.5 1.5v12.5c0 .5522847.4477153 1 1 1h4c.5522847 0 1-.4477153 1-1v-12.5c0-.8284271.6715729-1.5 1.5-1.5h12.5c.5522847 0 1-.4477153 1-1v-4c0-.5522847-.4477153-1-1-1h-12.5c-.8284271 0-1.5-.6715729-1.5-1.5v-12.5c0-.5522847-.4477153-1-1-1h-4c-.5522847 0-1 .4477153-1 1v12.5c0 .8284271-.6715729 1.5-1.5 1.5h-12.5c-.55228475 0-1 .4477153-1 1v4c0 .5522847.44771525 1 1 1zm32-4c.5522847 0 1 .4477153 1 1s-.4477153 1-1 1-1-.4477153-1-1 .4477153-1 1-1zm-4 0c.5522847 0 1 .4477153 1 1s-.4477153 1-1 1-1-.4477153-1-1 .4477153-1 1-1zm-4 0c.5522847 0 1 .4477153 1 1s-.4477153 1-1 1-1-.4477153-1-1 .4477153-1 1-1zm-7 17c-.5522847 0-1-.4477153-1-1s.4477153-1 1-1 1 .4477153 1 1-.4477153 1-1 1zm0-4c-.5522847 0-1-.4477153-1-1s.4477153-1 1-1 1 .4477153 1 1-.4477153 1-1 1zm0-4c-.5522847 0-1-.4477153-1-1s.4477153-1 1-1 1 .4477153 1 1-.4477153 1-1 1zm0-24c.5522847 0 1 .4477153 1 1s-.4477153 1-1 1-1-.4477153-1-1 .4477153-1 1-1zm0 4c.5522847 0 1 .4477153 1 1s-.4477153 1-1 1-1-.4477153-1-1 .4477153-1 1-1zm0 4c.5522847 0 1 .4477153 1 1s-.4477153 1-1 1-1-.4477153-1-1 .4477153-1 1-1zm0 5c1.6568542 0 3 1.3431458 3 3s-1.3431458 3-3 3-3-1.3431458-3-3 1.3431458-3 3-3zm-7 2c.5522847 0 1 .4477153 1 1s-.4477153 1-1 1-1-.4477153-1-1 .4477153-1 1-1zm-4 0c.55228475 0 1 .4477153 1 1s-.44771525 1-1 1-1-.4477153-1-1 .44771525-1 1-1zm-4 0c.55228475 0 1 .4477153 1 1s-.44771525 1-1 1-1-.4477153-1-1 .44771525-1 1-1z"/><circle style="fill:#fff;" id="Oval" cx="18" cy="38" r="1"/><path style="fill:#fff;" id="Shape" d="m23 33h11.238c-1.6556662-5.374781-5.863219-9.5823338-11.238-11.238z"/></g></svg>