<?xml version="1.0" encoding="UTF-8"?><svg id="Capa_1" xmlns="http://www.w3.org/2000/svg" viewBox="0 0 280 200"><defs><style>.cls-1{font-family:Montserrat-Regular, Montserrat;font-size:20.29px;}.cls-1,.cls-2,.cls-3{fill:#9085da;}.cls-2{font-family:NotoSansSC-Black-90ms-RKSJ-H, 'Noto Sans SC Black';font-size:50.41px;font-weight:800;}.cls-4{letter-spacing:0em;}.cls-5{stroke-width:2.14px;}.cls-5,.cls-6{fill:none;stroke:#9085da;stroke-miterlimit:10;}.cls-6{stroke-width:6.62px;}</style></defs><path class="cls-3" d="m162.84,129.57v-35.2c0-12.97-9.37-23.58-20.98-23.58h-4.65c-11.54,0-20.98,10.53-20.98,23.58v35.62c-3.97,2.78-6.67,7.92-6.67,13.81,0,1.35.15,2.61.37,3.87l.3,1.26h59.2l.3-1.26c.3-1.26.37-2.61.37-3.87.07-6.15-2.92-11.54-7.27-14.23Zm-40.47-1.77c-1.05,0-2.02.08-3,.34v-33.77c0-11.12,8.02-20.21,17.98-20.21h4.65c9.89,0,17.98,9.01,17.98,20.21v33.68c-.75-.17-1.5-.25-2.32-.25h-35.3Zm44.74,17.85h-54.33c-.07-.59-.07-1.18-.07-1.77,0-6.99,4.8-12.72,10.64-12.72h33.35c5.85,0,10.64,5.73,10.64,12.72-.15.59-.15,1.18-.22,1.77Z"/><path class="cls-3" d="m139.08,116.27c-1.8,0-3.07-1.52-3.07-3.54s1.27-3.54,3.15-3.54,3.07,1.43,3.07,3.54c-.07,2.02-1.27,3.54-3.15,3.54h0Zm-1.95-9.01l-.75-17.6h5.47l-.75,17.6h-3.97Z"/><path class="cls-3" d="m110.61,99.17h-7.49c-1.05,0-1.87-.93-1.87-2.11s.82-2.11,1.87-2.11h7.49c1.05,0,1.87.93,1.87,2.11s-.82,2.11-1.87,2.11Z"/><path class="cls-3" d="m176.7,99.17h-7.49c-1.05,0-1.87-.93-1.87-2.11s.82-2.11,1.87-2.11h7.49c1.05,0,1.87.93,1.87,2.11s-.82,2.11-1.87,2.11Z"/><path class="cls-3" d="m139.68,65.32c-1.05,0-1.87-.93-1.87-2.11v-8.42c0-1.18.82-2.11,1.87-2.11s1.87.93,1.87,2.11v8.42c0,1.18-.82,2.11-1.87,2.11Z"/><path class="cls-3" d="m162.01,73.74c-.45,0-.97-.17-1.35-.59-.75-.84-.75-2.19,0-2.95l5.25-5.89c.75-.84,1.95-.84,2.62,0s.75,2.19,0,2.95l-5.25,5.89c-.37.42-.82.59-1.27.59Z"/><path class="cls-3" d="m116.83,73.74c-.45,0-.97-.17-1.35-.59l-5.25-5.89c-.75-.84-.75-2.19,0-2.95.75-.76,1.95-.84,2.62,0l5.25,5.89c.75.84.75,2.19,0,2.95-.3.42-.82.59-1.27.59Z"/><text class="cls-2" transform="translate(37.11 57.46)"><tspan x="0" y="0">S3</tspan></text><path class="cls-6" d="m106.47,25.34c5.84-1.9,12.08-2.92,18.55-2.92,16.28,0,31.04,6.48,41.85,17.01"/><path class="cls-6" d="m102.17,137.9c-21.8-8.99-37.15-30.45-37.15-55.49,0-7.24,1.28-14.17,3.63-20.6"/><path class="cls-5" d="m159.2,32.93c14.62,9.88,24.66,26.03,26.23,44.6.14,1.7.22,3.41.22,5.15"/><text class="cls-1" transform="translate(15.86 181.18)"><tspan x="0" y="0">Sis</tspan><tspan class="cls-4" x="27.92" y="0">t</tspan><tspan x="36.06" y="0">ema de Sancionados</tspan></text></svg>