<?xml version="1.0" encoding="UTF-8"?><svg id="Capa_1" xmlns="http://www.w3.org/2000/svg" viewBox="0 0 280 200"><defs><style>.cls-1{letter-spacing:-.02em;}.cls-2{letter-spacing:-.02em;}.cls-3{font-family:NotoSansSC-Black-90ms-RKSJ-H, 'Noto Sans SC Black';font-size:50.41px;font-weight:800;}.cls-3,.cls-4,.cls-5{fill:#42a5cc;}.cls-6{letter-spacing:0em;}.cls-7{stroke-width:2.14px;}.cls-7,.cls-8{fill:none;stroke:#42a5cc;stroke-miterlimit:10;}.cls-4{font-family:Montserrat-Regular, Montserrat;font-size:20.29px;}.cls-8{stroke-width:6.62px;}</style></defs><text class="cls-3" transform="translate(58.09 55.18)"><tspan x="0" y="0">S6</tspan></text><path class="cls-8" d="m129.36,28.23c5.84-1.9,12.08-2.92,18.55-2.92,16.28,0,31.04,6.48,41.85,17.01"/><path class="cls-8" d="m125.06,140.79c-21.8-8.99-37.15-30.45-37.15-55.49,0-7.24,1.28-14.17,3.63-20.6"/><path class="cls-7" d="m147.73,144.75c-3.6,0-7.13-.32-10.56-.93-7.02-1.25-13.63-3.72-19.58-7.18"/><path class="cls-7" d="m184.65,37.47c9.83,7.68,17.2,18.37,20.74,30.67"/><rect class="cls-5" x="151.34" y="96" width="18.74" height="1.05"/><rect class="cls-5" x="151.34" y="92.91" width="18.74" height="1.05"/><rect class="cls-5" x="151.34" y="99.09" width="12.47" height="1.05"/><rect class="cls-5" x="151.34" y="89.76" width="12.47" height="1.05"/><rect class="cls-5" x="165.4" y="99.09" width="4.67" height="1.05"/><rect class="cls-5" x="165.4" y="83.47" width="4.67" height="1.05"/><rect class="cls-5" x="151.34" y="102.11" width="18.74" height="1.05"/><rect class="cls-5" x="151.34" y="108.29" width="18.74" height="1.05"/><rect class="cls-5" x="158.37" y="105.2" width="11.7" height="1.05"/><rect class="cls-5" x="151.34" y="105.2" width="5.44" height="1.05"/><rect class="cls-5" x="151.34" y="111.38" width="3.13" height="1.05"/><rect class="cls-5" x="156.06" y="111.38" width="14.07" height="1.05"/><path class="cls-5" d="m176.01,73.52h-23.02c-2.14,0-3.9,1.98-3.9,4.38v.86c-2.14,1.11-3.68,3.58-3.68,6.42v27.48c0,3.89,2.86,7.1,6.32,7.1h18.13c2.69,0,5-1.91,5.88-4.57h.22c2.14,0,3.9-1.98,3.9-4.38v-32.91c.05-2.41-1.7-4.38-3.85-4.38Zm-6.1,44.4h-18.13c-2.58,0-4.67-2.35-4.67-5.25v-27.48c0-2.9,2.09-5.25,4.67-5.25h18.13c2.58,0,4.67,2.35,4.67,5.25v27.48c0,2.9-2.14,5.25-4.67,5.25Zm8.35-7.1c0,1.3-.88,2.41-2.03,2.53v-30.88c0-2.41-1.76-4.38-3.9-4.38h-21.54v-.25c0-1.42.99-2.53,2.25-2.53h23.02c1.21,0,2.25,1.11,2.25,2.53v32.98h-.05Z"/><path class="cls-5" d="m128.2,107.49c-.11-.49-.55-.8-.99-.68s-.71.62-.6,1.11c.49,2.04,1.1,4.08,1.87,5.99.16.37.44.56.77.56.11,0,.22-.06.27-.06.44-.25.6-.74.44-1.24-.71-1.85-1.32-3.77-1.76-5.68Z"/><path class="cls-5" d="m169.74,136.2c-.66.16-1.32.29-1.99.4.16.59.25,1.21.25,1.85.7-.11,1.39-.24,2.07-.4.44-.12.77-.62.66-1.11-.11-.49-.55-.86-.99-.74Z"/><path class="cls-5" d="m153.86,136.82c-.11.49.16.99.6,1.11.59.16,1.18.29,1.77.41.01-.64.1-1.26.27-1.84-.55-.11-1.11-.23-1.66-.36-.44-.12-.88.19-.99.68Z"/><path class="cls-5" d="m178.81,132.62c-1.59.93-3.24,1.73-4.95,2.35-.38.19-.66.68-.49,1.17.11.37.44.62.77.62.11,0,.16,0,.27-.06,1.76-.68,3.52-1.48,5.17-2.47.38-.25.55-.8.33-1.24-.22-.43-.71-.62-1.1-.37Z"/><path class="cls-5" d="m150.62,134.84c-1.65-.68-3.3-1.54-4.89-2.47-.38-.25-.88-.06-1.1.37-.22.43-.05.99.33,1.24,1.65.99,3.41,1.85,5.17,2.53.11.06.16.06.27.06.33,0,.66-.25.71-.56.16-.49-.05-.99-.49-1.17Z"/><path class="cls-5" d="m186.73,126.32c-1.32,1.36-2.69,2.66-4.18,3.77-.38.31-.49.86-.22,1.3.16.31.38.43.66.43.16,0,.33-.06.44-.19,1.54-1.17,3.02-2.53,4.4-3.95.33-.31.33-.93.05-1.3-.27-.37-.82-.43-1.15-.06Z"/><path class="cls-5" d="m197.66,107.36c-.44-.19-.88.12-.99.62-.44,1.91-1.1,3.83-1.81,5.68-.22.49-.05,1.05.38,1.24.11.06.22.06.33.06.27,0,.6-.19.71-.56.77-1.91,1.43-3.89,1.92-5.93.16-.49-.11-.99-.55-1.11Z"/><path class="cls-5" d="m198.76,96.19c-.44,0-.82.43-.82.93v.12c0,2.04-.11,4.08-.38,6.05-.05.49.27.99.71,1.05h.11c.38,0,.71-.37.77-.8.27-2.1.44-4.2.44-6.3v-.12c0-.49-.38-.93-.82-.93Z"/><path class="cls-5" d="m141.55,64.88c.16,0,.33-.06.49-.19,1.48-1.11,3.02-2.16,4.62-3.09.44-.25.6-.8.38-1.24-.22-.49-.71-.68-1.1-.43-1.7.99-3.3,2.04-4.84,3.27-.38.31-.49.86-.22,1.3.16.25.38.37.66.37Z"/><path class="cls-5" d="m137.93,126.01c-.33-.37-.82-.37-1.15,0s-.33.93,0,1.3c1.37,1.42,2.8,2.78,4.34,4.01.16.12.33.19.49.19.27,0,.49-.19.66-.37.22-.43.16-.99-.22-1.3-1.43-1.11-2.86-2.41-4.12-3.83Z"/><path class="cls-5" d="m150.29,59.75h.33c1.65-.68,3.41-1.24,5.17-1.61.44-.12.77-.62.66-1.11-.11-.49-.55-.86-.99-.74-1.87.37-3.68.99-5.44,1.67-.44.19-.66.68-.49,1.17.11.37.44.62.77.62Z"/><path class="cls-5" d="m178.76,61.85c1.59.93,3.13,1.98,4.56,3.15.16.12.33.19.49.19.27,0,.49-.12.66-.31.27-.43.22-.99-.16-1.3-1.48-1.24-3.13-2.35-4.78-3.33-.38-.25-.88-.06-1.1.37-.22.43-.05.99.33,1.24Z"/><path class="cls-5" d="m197.66,92.3c.06.43.44.8.82.8q.06,0,.11-.06c.44-.06.77-.56.71-1.05-.22-2.1-.6-4.14-1.1-6.18-.16-.49-.6-.74-1.04-.62-.44.19-.66.68-.55,1.17.49,1.91.82,3.95,1.04,5.93Z"/><path class="cls-5" d="m169.63,58.21c1.76.43,3.52.99,5.17,1.67.11.06.16.06.27.06.38,0,.66-.25.77-.68.16-.43-.05-.99-.49-1.17-1.7-.74-3.57-1.3-5.39-1.73-.44-.06-.88.25-.99.74-.05.49.22.99.66,1.11Z"/><path class="cls-5" d="m138.7,67.78c.33-.31.38-.93.05-1.3-.27-.37-.82-.43-1.15-.06-1.18,1.22-2.31,2.53-3.34,3.89.53.22,1.02.52,1.47.89.92-1.2,1.93-2.35,2.97-3.43Z"/><path class="cls-5" d="m126.44,92.67h.11c.44,0,.77-.31.82-.74.22-2.04.6-4.01,1.1-5.93.11-.49-.11-1.05-.55-1.17-.44-.12-.93.12-1.04.62-.49,2.04-.88,4.08-1.15,6.18-.06.49.27.99.71,1.05Z"/><path class="cls-5" d="m127.38,102.73c-.22-1.85-.33-3.64-.33-5.5v-.56c0-.49-.38-.93-.82-.93s-.82.43-.82.93v.56c0,1.91.11,3.83.33,5.74.05.49.44.8.82.8h.11c.44-.06.77-.56.71-1.05Z"/><path class="cls-5" d="m187.77,66.67c-.33-.31-.82-.31-1.15.06-.27.37-.27.93.05,1.3.95,1.02,1.9,2.15,2.79,3.31.43-.4.91-.73,1.43-.97-.97-1.31-2-2.54-3.11-3.69Z"/><path class="cls-5" d="m162.11,47.03c-3.96,0-7.2,3.64-7.2,8.09s3.24,8.09,7.2,8.09,7.2-3.64,7.2-8.09-3.19-8.09-7.2-8.09h0Zm0,14.7c-3.24,0-5.88-2.96-5.88-6.61s2.64-6.61,5.88-6.61,5.88,2.96,5.88,6.61-2.64,6.61-5.88,6.61h0Z"/><path class="cls-5" d="m163.32,53.33c-.33-.37-.66-.49-1.04-.49-.44,0-.66.19-.66.62,0,.93,2.47.86,2.47,2.9,0,1.05-.49,1.85-1.48,2.1v1.11h-.99v-1.05c-.55-.06-1.21-.37-1.7-.8l.66-1.11c.49.43.88.62,1.32.62.49,0,.71-.25.71-.68,0-.99-2.47-1.05-2.47-2.96,0-1.05.55-1.79,1.43-1.98v-1.11h.99v1.11c.6.12,1.04.43,1.43.86l-.66.86Z"/><path class="cls-5" d="m162.11,130.33c-3.96,0-7.2,3.64-7.2,8.09s3.24,8.09,7.2,8.09,7.2-3.64,7.2-8.09-3.19-8.09-7.2-8.09h0Zm0,14.7c-3.24,0-5.88-2.96-5.88-6.61s2.64-6.61,5.88-6.61,5.88,2.96,5.88,6.61-2.64,6.61-5.88,6.61h0Z"/><path class="cls-5" d="m163.32,136.63c-.33-.37-.66-.49-1.04-.49-.44,0-.66.19-.66.62,0,.93,2.47.86,2.47,2.9,0,1.05-.49,1.85-1.48,2.1v1.11h-.99v-1.05c-.55-.06-1.21-.37-1.7-.8l.66-1.11c.49.43.88.62,1.32.62.49,0,.71-.25.71-.68,0-.99-2.47-1.05-2.47-2.96,0-1.05.55-1.79,1.43-1.98v-1.11h.99v1.11c.6.12,1.04.43,1.43.86l-.66.86Z"/><path class="cls-5" d="m193.15,68.34c-3.96,0-7.2,3.64-7.2,8.09s3.24,8.09,7.2,8.09,7.2-3.64,7.2-8.09-3.24-8.09-7.2-8.09h0Zm0,14.7c-3.24,0-5.88-2.96-5.88-6.61s2.64-6.61,5.88-6.61,5.88,2.96,5.88,6.61-2.64,6.61-5.88,6.61h0Z"/><path class="cls-5" d="m194.36,74.63c-.33-.37-.66-.49-1.04-.49-.44,0-.66.19-.66.62,0,.93,2.47.86,2.47,2.9,0,1.05-.49,1.85-1.48,2.1v1.11h-.99v-1.05c-.55-.06-1.21-.37-1.7-.8l.66-1.11c.49.43.88.62,1.32.62.49,0,.71-.25.71-.68,0-.99-2.47-1.05-2.47-2.96,0-1.05.55-1.79,1.43-1.98v-1.11h.99v1.11c.6.12,1.04.43,1.43.86l-.66.86Z"/><path class="cls-5" d="m132.03,68.44c-3.96,0-7.2,3.64-7.2,8.09s3.24,8.09,7.2,8.09,7.2-3.64,7.2-8.09-3.24-8.09-7.2-8.09h0Zm0,14.7c-3.24,0-5.88-2.96-5.88-6.61s2.64-6.61,5.88-6.61,5.88,2.96,5.88,6.61-2.64,6.61-5.88,6.61h0Z"/><path class="cls-5" d="m133.19,74.74c-.33-.31-.6-.49-.99-.49-.44,0-.66.19-.66.62,0,.93,2.47.86,2.47,2.9,0,1.05-.49,1.85-1.48,2.1v1.11h-.99v-1.05c-.55-.06-1.21-.37-1.7-.8l.71-1.17c.49.43.88.62,1.32.62.49,0,.71-.25.71-.68,0-.99-2.47-1.05-2.47-2.96,0-1.05.55-1.79,1.43-1.98v-1.11h.99v1.11c.6.12,1.04.43,1.43.86l-.77.93Z"/><path class="cls-5" d="m192.28,113.48c-3.96,0-7.2,3.64-7.2,8.09s3.24,8.09,7.2,8.09,7.2-3.64,7.2-8.09-3.19-8.09-7.2-8.09h0Zm0,14.7c-3.24,0-5.88-2.96-5.88-6.61s2.64-6.61,5.88-6.61,5.88,2.96,5.88,6.61c.05,3.64-2.58,6.61-5.88,6.61h0Z"/><path class="cls-5" d="m193.48,119.71c-.33-.37-.66-.49-1.04-.49-.44,0-.66.19-.66.62,0,.93,2.47.86,2.47,2.9,0,1.05-.49,1.85-1.48,2.04v1.11h-.99v-1.05c-.55-.06-1.21-.37-1.7-.8l.66-1.11c.49.43.88.62,1.32.62.49,0,.71-.25.71-.68,0-.99-2.47-1.05-2.47-2.96,0-1.05.55-1.79,1.43-1.98v-1.11h.99v1.11c.6.12,1.04.43,1.43.86l-.66.93Z"/><path class="cls-5" d="m131.5,113.48c-3.96,0-7.2,3.64-7.2,8.09s3.24,8.09,7.2,8.09,7.2-3.64,7.2-8.09-3.24-8.09-7.2-8.09h0Zm0,14.7c-3.24,0-5.88-2.96-5.88-6.61s2.64-6.61,5.88-6.61,5.88,2.96,5.88,6.61-2.64,6.61-5.88,6.61h0Z"/><path class="cls-5" d="m132.65,119.71c-.33-.37-.66-.49-1.04-.49-.44,0-.66.19-.66.62,0,.93,2.47.86,2.47,2.9,0,1.05-.49,1.85-1.48,2.04v1.11h-.99v-1.05c-.55-.06-1.21-.37-1.7-.8l.66-1.11c.49.43.88.62,1.32.62.49,0,.71-.25.71-.68,0-.99-2.47-1.05-2.47-2.96,0-1.05.55-1.79,1.43-1.98v-1.11h.99v1.11c.6.12,1.04.43,1.43.86l-.66.93Z"/><text class="cls-4" transform="translate(4.17 183.46)"><tspan x="0" y="0">Sis</tspan><tspan class="cls-6" x="27.92" y="0">t</tspan><tspan x="36.06" y="0">ema de </tspan><tspan class="cls-1" x="119" y="0">C</tspan><tspan x="132.84" y="0">ont</tspan><tspan class="cls-2" x="167.24" y="0">r</tspan><tspan x="174.81" y="0">ataciones</tspan></text></svg>