<?xml version="1.0" encoding="UTF-8"?><svg id="Capa_1" xmlns="http://www.w3.org/2000/svg" viewBox="0 0 280 200"><defs><style>.cls-1{stroke-width:6.62px;}.cls-1,.cls-2{fill:none;stroke:#88bc69;stroke-miterlimit:10;}.cls-2{stroke-width:2.14px;}.cls-3{letter-spacing:0em;}.cls-4,.cls-5,.cls-6{fill:#88bc69;}.cls-7{letter-spacing:-.02em;}.cls-5{font-family:Montserrat-Regular, Montserrat;font-size:20.29px;}.cls-8{letter-spacing:0em;}.cls-9{letter-spacing:-.01em;}.cls-6{font-family:NotoSansSC-Black-90ms-RKSJ-H, 'Noto Sans SC Black';font-size:50.41px;font-weight:800;}</style></defs><path class="cls-1" d="m117.85,142.16c-21.8-8.99-37.15-30.45-37.15-55.49,0-7.24,1.28-14.17,3.63-20.6"/><path class="cls-1" d="m122.15,29.6c5.84-1.9,12.08-2.92,18.55-2.92,16.28,0,31.04,6.48,41.85,17.01"/><path class="cls-4" d="m154.98,40.41c-16.94,0-30.72,15.49-30.72,34.53,0,6.99,1.87,13.39,5.02,18.86l-21.06,23.66c-2.92,3.28-2.92,8.51,0,11.79,1.42,1.6,3.37,2.44,5.25,2.44s3.82-.84,5.25-2.44l17.69-20.72c.75-.84.75-2.27,0-3.12-.75-.84-2.02-.84-2.77,0l-17.69,20.72c-1.35,1.52-3.52,1.52-4.87,0s-1.35-3.96,0-5.47l20.68-23.24c5.62,7.41,14.01,12.13,23.31,12.13,16.94,0,30.72-15.49,30.72-34.53-.07-19.12-13.86-34.61-30.8-34.61Zm0,65.01c-14.99,0-27.2-13.73-27.2-30.57s12.21-30.57,27.2-30.57,27.2,13.73,27.2,30.57c-.07,16.93-12.21,30.57-27.2,30.57Z"/><path class="cls-4" d="m159.26,68.29l-7.64,8.59-2.32-2.61c-.67-.76-1.8-.76-2.55,0-.67.76-.67,2.02,0,2.86l3.6,4.04c.37.42.82.59,1.27.59s.9-.17,1.27-.59l8.92-10.02c.67-.76.67-2.02,0-2.86-.75-.76-1.87-.76-2.55,0Z"/><path class="cls-4" d="m154.98,99.27c-11.99,0-21.81-10.95-21.81-24.5s9.74-24.5,21.81-24.5,21.81,10.95,21.81,24.5-9.82,24.5-21.81,24.5Zm0-43.12c-9.14,0-16.56,8.34-16.56,18.61s7.42,18.61,16.56,18.61,16.56-8.34,16.56-18.61-7.42-18.61-16.56-18.61Z"/><text class="cls-6" transform="translate(58.79 55.45)"><tspan x="0" y="0">S4</tspan></text><path class="cls-2" d="m181.94,42.72c11.45,10.93,18.58,26.33,18.58,43.41,0,1.46-.05,2.91-.15,4.34"/><path class="cls-1" d="m117.85,142.16c-21.8-8.99-37.15-30.45-37.15-55.49,0-7.24,1.28-14.17,3.63-20.6"/><path class="cls-1" d="m122.15,29.6c5.84-1.9,12.08-2.92,18.55-2.92,16.28,0,31.04,6.48,41.85,17.01"/><text class="cls-5" transform="translate(16.73 183.19)"><tspan x="0" y="0">Sis</tspan><tspan class="cls-8" x="27.92" y="0">t</tspan><tspan x="36.06" y="0">ema de Fis</tspan><tspan class="cls-7" x="145.97" y="0">c</tspan><tspan x="156.97" y="0">ali</tspan><tspan class="cls-9" x="180.61" y="0">z</tspan><tspan class="cls-3" x="191.31" y="0">ación</tspan></text></svg>