<?xml version="1.0" encoding="utf-8"?>
<!-- Generator: Adobe Illustrator 27.8.1, SVG Export Plug-In . SVG Version: 6.00 Build 0)  -->
<svg version="1.1" id="Capa_1" xmlns="http://www.w3.org/2000/svg" xmlns:xlink="http://www.w3.org/1999/xlink" x="0px" y="0px"
	 viewBox="0 0 145.1 139.2" style="enable-background:new 0 0 145.1 139.2;" xml:space="preserve">
<style type="text/css">
	.st0{fill:none;stroke:#F29888;stroke-width:6.62;stroke-miterlimit:10;}
	.st1{fill:#F29888;}
	.st2{font-family:'NotoSans-Bold';}
	.st3{font-size:50.41px;}
	.st4{fill:none;stroke:#F29888;stroke-width:2.14;stroke-miterlimit:10;}
</style>
<path class="st0" d="M18.1,72.8c0-7.2,1.3-14.2,3.6-20.6"/>
<text transform="matrix(1 0 0 1 0 41.31)" class="st1 st2 st3">S1</text>
<path class="st4" d="M59.5,15.7c5.8-1.9,12.1-2.9,18.6-2.9c16.3,0,31,6.5,41.8,17"/>
<path class="st4" d="M55.2,128.3c-21.8-9-37.2-30.4-37.2-55.5c0-7.2,1.3-14.2,3.6-20.6"/>
<path class="st0" d="M59.5,15.7c5.8-1.9,12.1-2.9,18.6-2.9c7.2,0,14.1,1.3,20.4,3.6"/>
<path class="st0" d="M32.7,112c-9.1-10.5-14.6-24.2-14.6-39.2c0-7.2,1.3-14.2,3.6-20.6"/>
<path class="st1" d="M77.9,122.9h4.3v2h-6.1C76.1,123.8,76.9,122.9,77.9,122.9z"/>
<rect x="76.1" y="92.8" class="st1" width="36.6" height="2"/>
<rect x="76.1" y="86.7" class="st1" width="36.6" height="2"/>
<path class="st1" d="M76.1,98.8h24.4c0,1.1-0.8,2-1.8,2H76.1L76.1,98.8L76.1,98.8z"/>
<path class="st1" d="M76.1,80.6h24.4c0,1.1-0.8,2-1.8,2H76.1L76.1,80.6L76.1,80.6z"/>
<rect x="103.6" y="98.8" class="st1" width="9.2" height="2"/>
<rect x="103.6" y="68.3" class="st1" width="9.2" height="2"/>
<rect x="76.1" y="104.8" class="st1" width="36.6" height="2"/>
<rect x="76.1" y="116.9" class="st1" width="36.6" height="2"/>
<rect x="89.8" y="110.8" class="st1" width="22.9" height="2"/>
<rect x="76.1" y="110.8" class="st1" width="10.7" height="2"/>
<rect x="85.2" y="122.9" class="st1" width="27.5" height="2"/>
<path class="st1" d="M132.4,38.8h-45c-4.1,0-7.5,3.8-7.5,8.4V49h-0.6c-4.1,0-7.5,3.8-7.5,8.4v0.8c-4.1,0.7-7.2,4.8-7.2,9.5v61.9
	c0,5.3,3.9,9.7,8.6,9.7h42.7c4.5,0,8.2-3.9,8.6-9c4-0.2,7.2-3.8,7.2-8.4V120h0.6c4.1,0,7.5-3.8,7.5-8.4V47.2
	C139.9,42.6,136.6,38.8,132.4,38.8L132.4,38.8z M116,135.9H73.3c-3.2,0-5.7-2.9-5.7-6.4V67.6c0-3.5,2.6-6.4,5.7-6.4H116
	c3.1,0,5.7,2.9,5.7,6.4v61.9C121.7,133,119.1,135.9,116,135.9z M128.9,121.8c0,2.7-1.9,5-4.4,5.2V66.3c0-4.6-3.4-8.4-7.5-8.4H74.7
	v-0.6c0-2.8,2.1-5.2,4.6-5.2h45c2.5,0,4.6,2.3,4.6,5.2V121.8L128.9,121.8L128.9,121.8z M137,111.6c0,2.7-1.9,5-4.4,5.2V56.2
	c0-4.6-3.4-8.4-7.5-8.4H82.7v-0.6c0-2.8,2.1-5.2,4.6-5.2h45c2.5,0,4.6,2.3,4.6,5.2L137,111.6L137,111.6L137,111.6z"/>
</svg>
