<?xml version="1.0" encoding="UTF-8"?><svg id="Capa_1" xmlns="http://www.w3.org/2000/svg" viewBox="0 0 280 200"><defs><style>.cls-1{letter-spacing:.2em;}.cls-2{letter-spacing:.44em;}.cls-3{letter-spacing:0em;}.cls-4{letter-spacing:-.02em;}.cls-5{font-family:NotoSansSC-Black-90ms-RKSJ-H, 'Noto Sans SC Black';font-size:50.41px;font-weight:800;}.cls-5,.cls-6,.cls-7{fill:#f29888;}.cls-6{font-family:Montserrat-Regular, Montserrat;font-size:20.29px;}.cls-8{stroke-width:2.14px;}.cls-8,.cls-9{fill:none;stroke:#f29888;stroke-miterlimit:10;}.cls-9{stroke-width:6.62px;}</style></defs><path class="cls-9" d="m67.97,85.8c0-7.24,1.28-14.17,3.63-20.6"/><text class="cls-5" transform="translate(49.87 54.31)"><tspan x="0" y="0">S1</tspan></text><path class="cls-8" d="m109.41,28.73c5.84-1.9,12.08-2.92,18.55-2.92,16.28,0,31.04,6.48,41.85,17.01"/><path class="cls-8" d="m105.11,141.29c-21.8-8.99-37.15-30.45-37.15-55.49,0-7.24,1.28-14.17,3.63-20.6"/><path class="cls-9" d="m109.41,28.73c5.84-1.9,12.08-2.92,18.55-2.92,7.18,0,14.06,1.26,20.44,3.57"/><path class="cls-9" d="m82.53,124.98c-9.07-10.51-14.56-24.2-14.56-39.18,0-7.24,1.28-14.17,3.63-20.6"/><path class="cls-7" d="m127.73,135.9h4.3v2.01h-6.09c0-1.13.79-2.01,1.79-2.01Z"/><rect class="cls-7" x="125.94" y="105.78" width="36.63" height="2.01"/><rect class="cls-7" x="125.94" y="99.73" width="36.63" height="2.01"/><path class="cls-7" d="m125.94,111.82h24.45c0,1.13-.79,2.01-1.79,2.01h-22.65v-2.01Z"/><path class="cls-7" d="m125.94,93.61h24.45c0,1.13-.79,2.01-1.79,2.01h-22.65v-2.01Z"/><rect class="cls-7" x="153.47" y="111.82" width="9.18" height="2.01"/><rect class="cls-7" x="153.47" y="81.29" width="9.18" height="2.01"/><rect class="cls-7" x="125.94" y="117.78" width="36.63" height="2.01"/><rect class="cls-7" x="125.94" y="129.86" width="36.63" height="2.01"/><rect class="cls-7" x="139.7" y="123.82" width="22.94" height="2.01"/><rect class="cls-7" x="125.94" y="123.82" width="10.68" height="2.01"/><rect class="cls-7" x="135.12" y="135.9" width="27.53" height="2.01"/><path class="cls-7" d="m182.28,51.8h-45.02c-4.09,0-7.46,3.79-7.46,8.38v1.77h-.65c-4.09,0-7.46,3.79-7.46,8.38v.81c-4.09.73-7.24,4.75-7.24,9.51v61.87c0,5.32,3.87,9.67,8.6,9.67h42.73c4.52,0,8.24-3.95,8.6-9.02,4.01-.16,7.24-3.79,7.24-8.38v-1.77h.65c4.09,0,7.46-3.79,7.46-8.38V60.18c0-4.59-3.3-8.38-7.46-8.38Zm-16.42,97.07h-42.73c-3.15,0-5.73-2.9-5.73-6.44v-61.79c0-3.54,2.58-6.44,5.73-6.44h42.73c3.15,0,5.73,2.9,5.73,6.44v61.87c0,3.46-2.58,6.36-5.73,6.36Zm12.9-14.1c0,2.74-1.94,4.99-4.37,5.16v-60.58c0-4.59-3.37-8.38-7.46-8.38h-42.37v-.64c0-2.82,2.08-5.16,4.59-5.16h45.02c2.51,0,4.59,2.34,4.59,5.16v64.45h0Zm8.1-10.15c0,2.74-1.94,4.99-4.37,5.16v-60.58c0-4.59-3.37-8.38-7.46-8.38h-42.44v-.64c0-2.82,2.08-5.16,4.59-5.16h45.02c2.51,0,4.59,2.34,4.59,5.16v64.45h.07Z"/><text class="cls-6" transform="translate(9.82 184.32)"><tspan x="0" y="0">Sis</tspan><tspan class="cls-3" x="27.92" y="0">t</tspan><tspan x="36.06" y="0">ema de Decla</tspan><tspan class="cls-4" x="175.98" y="0">r</tspan><tspan x="183.55" y="0">aciones</tspan><tspan class="cls-1" x="260.26" y="0">	</tspan><tspan class="cls-2" x="270.33" y="0" xml:space="preserve">		</tspan></text></svg>