<?xml version="1.0" encoding="UTF-8"?><svg id="Capa_1" xmlns="http://www.w3.org/2000/svg" viewBox="0 0 280 200"><defs><style>.cls-1{stroke-width:6.62px;}.cls-1,.cls-2{fill:none;stroke:#b25fac;stroke-miterlimit:10;}.cls-3{letter-spacing:.03em;}.cls-4{letter-spacing:-.17em;}.cls-2{stroke-width:2.14px;}.cls-5{letter-spacing:-.02em;}.cls-6,.cls-7{fill:#b25fac;}.cls-8{letter-spacing:0em;}.cls-9{letter-spacing:-.02em;}.cls-10{letter-spacing:.45em;}.cls-7{font-family:NotoSansSC-Black-90ms-RKSJ-H, 'Noto Sans SC Black';font-size:50.41px;font-weight:800;}.cls-11{fill:#d36ec6;font-family:Montserrat-Regular, Montserrat;font-size:20.29px;}</style></defs><rect class="cls-6" x="129.52" y="62.38" width="30.91" height="2.84"/><rect class="cls-6" x="117.9" y="62.56" width="7.73" height="2.84"/><rect class="cls-6" x="129.52" y="71.24" width="30.91" height="2.84"/><rect class="cls-6" x="117.9" y="71.42" width="7.73" height="2.84"/><rect class="cls-6" x="129.52" y="80.72" width="30.91" height="2.84"/><rect class="cls-6" x="117.9" y="80.9" width="7.73" height="2.84"/><rect class="cls-6" x="129.52" y="91.36" width="30.91" height="2.84"/><rect class="cls-6" x="117.9" y="91.54" width="7.73" height="2.84"/><rect class="cls-6" x="129.52" y="100.84" width="30.91" height="2.84"/><path class="cls-6" d="m119.74,100.93h5.89v2.84h-7.73v-.62c0-1.15.81-2.22,1.84-2.22Z"/><path class="cls-6" d="m165.95,138.06h-55.19c-4.86,0-8.83-4.79-8.83-10.63V51.83c0-5.85,3.97-10.63,8.83-10.63h55.19c4.86,0,8.83,4.79,8.83,10.63v75.51c0,5.94-3.97,10.72-8.83,10.72Zm-55.19-93.32c-3.24,0-5.89,3.19-5.89,7.09v75.51c0,3.9,2.65,7.09,5.89,7.09h55.19c3.24,0,5.89-3.19,5.89-7.09V51.83c0-3.9-2.65-7.09-5.89-7.09h-55.19Z"/><rect class="cls-6" x="129.52" y="109.7" width="14.42" height="2.84"/><path class="cls-6" d="m123.27,108.11c.22-.09.44-.09.74-.09s.59.09.88.18l.07.18-1.69,3.1,1.84,3.37c-.44.35-.81.53-1.18.53-.44,0-.74-.18-1.03-.71l-.74-1.42-.96,1.95c-.15.09-.44.09-.74.09s-.66-.09-.88-.18l-.07-.09,1.77-3.37-1.69-3.1c.37-.35.81-.44,1.25-.44.22,0,.37.09.52.18.15.09.29.27.37.53l.59,1.15.96-1.86Z"/><path class="cls-6" d="m150.06,41.02v-3.54h-22.08v3.54h-19.5v88h60.34V41.02h-18.77Zm15.82,84.55h-54.46V44.57h54.46v81Z"/><path class="cls-6" d="m157.34,114.31l-1.1,6.2,5.3-.35,5.52-5.76,12.95-13.65-4.19-5.85-18.47,19.41Z"/><path class="cls-6" d="m154.84,121.84l1.47-8.33,19.58-20.65,5.67,7.8-19.58,20.65-7.14.53Z"/><path class="cls-2" d="m105.14,130.82c-5.9-1.05-11.5-2.96-16.67-5.6"/><text class="cls-7" transform="translate(32.33 46.53)"><tspan x="0" y="0">S2</tspan></text><path class="cls-1" d="m97.33,14.41c5.84-1.9,12.08-2.92,18.55-2.92,10.35,0,20.08,2.62,28.58,7.23"/><path class="cls-1" d="m93.03,126.97c-21.8-8.99-37.15-30.45-37.15-55.49,0-7.24,1.28-14.17,3.63-20.6"/><path class="cls-2" d="m157.22,28.65c-6.32-6.11-12.03-9.34-12.86-9.79"/><text class="cls-11" transform="translate(.05 167.75)"><tspan x="0" y="0">Sis</tspan><tspan class="cls-8" x="27.92" y="0">t</tspan><tspan x="36.06" y="0">ema de Se</tspan><tspan class="cls-3" x="143.56" y="0">r</tspan><tspan x="152.08" y="0">vidores </tspan><tspan x="0" y="24.35">Públi</tspan><tspan class="cls-9" x="52.46" y="24.35">c</tspan><tspan x="63.48" y="24.35">os en </tspan><tspan class="cls-5" x="123.26" y="24.35">c</tspan><tspan x="134.28" y="24.35">ont</tspan><tspan class="cls-9" x="168.68" y="24.35">r</tspan><tspan x="176.25" y="24.35">ataciones</tspan><tspan class="cls-4" x="273.11" y="24.35">	</tspan><tspan class="cls-10" x="275.76" y="24.35" xml:space="preserve">		</tspan></text></svg>