<?xml version="1.0" encoding="UTF-8"?><svg id="Capa_1" xmlns="http://www.w3.org/2000/svg" viewBox="0 0 280 200"><defs><style>.cls-1{font-family:NotoSansSC-Black-90ms-RKSJ-H, 'Noto Sans SC Black';font-size:50.41px;font-weight:800;}.cls-1,.cls-2,.cls-3{fill:#34c9b2;}.cls-4{letter-spacing:0em;}.cls-5{stroke-width:2.14px;}.cls-5,.cls-6{fill:none;stroke:#34c9b2;stroke-miterlimit:10;}.cls-3{font-family:Montserrat-Regular, Montserrat;font-size:20.29px;}.cls-6{stroke-width:6.62px;}</style></defs><text class="cls-1" transform="translate(48.81 56.68)"><tspan x="0" y="0">S5</tspan></text><path class="cls-6" d="m115.72,28.37c5.84-1.9,12.08-2.92,18.55-2.92,16.28,0,31.04,6.48,41.85,17.01"/><path class="cls-6" d="m111.42,140.93c-21.8-8.99-37.15-30.45-37.15-55.49,0-7.24,1.28-14.17,3.63-20.6"/><path class="cls-5" d="m175.78,41.97c8.08,8.26,13.86,18.94,16.08,31.17,3.42,18.83-2.34,37.2-14.1,50.5"/><path class="cls-2" d="m119.82,83.86h1.18v7.82c0,1.03.59,1.99,1.45,2.44.85.37,1.91.15,2.56-.59l.07-.07,6.96-9.6h29.76c2.56,0,4.66-2.36,4.66-5.24v-26.21c0-2.88-2.1-5.24-4.66-5.24h-41.91c-2.56,0-4.66,2.36-4.66,5.24v26.21c-.07,2.88,2.04,5.24,4.6,5.24Zm-2.3-31.45c0-1.48,1.05-2.58,2.3-2.58h41.91c1.31,0,2.3,1.18,2.3,2.58v26.21c0,1.48-1.05,2.58-2.3,2.58h-30.35c-.13,0-.33.07-.46.15-.07.07-.13.07-.2.15-.07.07-.13.07-.2.15l-.07.07-7.23,9.97v-9.15c0-.74-.53-1.33-1.18-1.33h-2.3c-1.31,0-2.3-1.18-2.3-2.58v-26.21h.07Z"/><path class="cls-2" d="m150.62,120.1c3.81-2.73,6.31-7.53,6.31-12.99,0-8.56-6.17-15.5-13.79-15.5s-13.79,6.94-13.79,15.5c0,5.39,2.43,10.11,6.17,12.92-9.2,1.11-16.36,9.89-16.36,20.52,0,.44,0,.89.07,1.4l.13,2.07h46.77l.13-2.07c0-.44.07-.89.07-1.4-.13-10.33-6.9-18.9-15.7-20.45Zm-17.34-12.99c0-6.13,4.4-11.07,9.85-11.07s9.85,4.95,9.85,11.07-4.4,11.07-9.85,11.07-9.85-5.02-9.85-11.07Zm-10.18,32.41c.46-8.49,6.77-15.28,14.45-15.28h10.31c7.69,0,13.99,6.79,14.45,15.28h-39.22Z"/><text class="cls-3" transform="translate(27.27 181.96)"><tspan x="0" y="0">Sis</tspan><tspan class="cls-4" x="27.92" y="0">t</tspan><tspan x="36.06" y="0">ema de Denuncias</tspan></text></svg>