<svg xmlns="http://www.w3.org/2000/svg" viewBox="0 0 128 128"><defs><style>.cls-1{fill:#fff;}</style></defs><g id="botones_light" data-name="botones light"><g id="ico_s1"><path class="cls-1" d="M18.38,64.7H12.27a58.26,58.26,0,0,1,3.54-20.09l5.74,2.1A52.27,52.27,0,0,0,18.38,64.7Z"/><path class="cls-1" d="M1.41,33.24l4.71-5.73a14,14,0,0,0,8.43,3.54c3.08,0,4.52-1.16,4.52-3s-1.91-2.65-4.89-3.91L9.75,22.25c-3.63-1.45-7-4.48-7-9.51C2.72,6.91,7.94,2.25,15.3,2.25A16.14,16.14,0,0,1,26.58,6.82L22.43,12A11.25,11.25,0,0,0,15.3,9.38c-2.56,0-4.15,1-4.15,2.89s2.19,2.66,5.27,3.87l4.33,1.72c4.29,1.73,6.85,4.62,6.85,9.51,0,5.78-4.84,10.86-13.23,10.86A19.42,19.42,0,0,1,1.41,33.24Z"/><path class="cls-1" d="M33,30.87h7.36V11.15H34V6a23.43,23.43,0,0,0,8.58-3.12h6.1v28h6.25v6.71H33Z"/><path class="cls-1" d="M110.17,24.25A56.26,56.26,0,0,0,90,11.61l.71-1.95a58.8,58.8,0,0,0-38-.64l1,2.91.3.94h0l.64,2a52.73,52.73,0,0,1,34.07.57l.7-1.94a54.11,54.11,0,0,1,19.44,12.2Z"/><path class="cls-1" d="M29.51,100.29l1.59-1.37a52.47,52.47,0,0,1-9.55-52.21L18.7,45.66l-.95-.34h0l-1.94-.71a58.61,58.61,0,0,0,10.66,58.31L28,101.58a56.54,56.54,0,0,0,21.28,15.33l.75-1.83A54.5,54.5,0,0,1,29.51,100.29Z"/><path class="cls-1" d="M69.57,111h4v1.86H67.92A1.75,1.75,0,0,1,69.57,111Z"/><rect class="cls-1" x="67.92" y="83.16" width="33.87" height="1.86"/><rect class="cls-1" x="67.92" y="77.57" width="33.87" height="1.86"/><path class="cls-1" d="M67.92,88.74h22.6a1.76,1.76,0,0,1-1.66,1.87H67.92Z"/><path class="cls-1" d="M67.92,71.91h22.6a1.76,1.76,0,0,1-1.66,1.87H67.92Z"/><rect class="cls-1" x="93.37" y="88.74" width="8.48" height="1.86"/><rect class="cls-1" x="93.37" y="60.52" width="8.48" height="1.86"/><rect class="cls-1" x="67.92" y="94.26" width="33.87" height="1.86"/><rect class="cls-1" x="67.92" y="105.43" width="33.87" height="1.86"/><rect class="cls-1" x="80.64" y="99.84" width="21.21" height="1.86"/><rect class="cls-1" x="67.92" y="99.84" width="9.87" height="1.86"/><rect class="cls-1" x="76.4" y="111.01" width="25.45" height="1.86"/><path class="cls-1" d="M120,33.26H78.39c-3.78,0-6.89,3.5-6.89,7.75v1.64h-.6c-3.78,0-6.89,3.5-6.89,7.74v.75c-3.78.67-6.7,4.39-6.7,8.78v57.2c0,4.91,3.58,8.94,8,8.94h39.5c4.17,0,7.62-3.65,8-8.35,3.71-.14,6.69-3.5,6.69-7.74v-1.64h.6c3.78,0,6.89-3.5,6.89-7.74V41C126.9,36.76,123.85,33.26,120,33.26ZM104.83,123H65.33c-2.91,0-5.3-2.68-5.3-6V59.92c0-3.27,2.39-6,5.3-6h39.5c2.92,0,5.3,2.68,5.3,6v57.2C110.13,120.32,107.75,123,104.83,123Zm11.93-13a4.61,4.61,0,0,1-4,4.77v-56c0-4.24-3.12-7.74-6.89-7.74H66.66v-.6a4.56,4.56,0,0,1,4.24-4.77h41.62a4.56,4.56,0,0,1,4.24,4.77V110Zm7.49-9.38a4.6,4.6,0,0,1-4,4.76v-56c0-4.25-3.12-7.75-6.9-7.75H74.08V41a4.56,4.56,0,0,1,4.24-4.77h41.62A4.56,4.56,0,0,1,124.18,41v59.58Z"/></g></g></svg>