<svg xmlns="http://www.w3.org/2000/svg" viewBox="0 0 128 128"><defs><style>.cls-1{fill:#fff;}</style></defs><g id="botones_light" data-name="botones light"><g id="ico_s6"><path class="cls-1" d="M.54,32.09,5,26.7A13.11,13.11,0,0,0,12.89,30c2.89,0,4.24-1.09,4.24-2.84s-1.79-2.5-4.59-3.68L8.38,21.76C5,20.4,1.76,17.55,1.76,12.82,1.76,7.35,6.67,3,13.59,3A15.17,15.17,0,0,1,24.18,7.26l-3.89,4.91a10.61,10.61,0,0,0-6.7-2.5c-2.41,0-3.9,1-3.9,2.72s2.06,2.49,5,3.63l4.07,1.62c4,1.62,6.44,4.34,6.44,8.93,0,5.43-4.56,10.21-12.44,10.21A18.22,18.22,0,0,1,.54,32.09Z"/><path class="cls-1" d="M47.17,11.46a7.4,7.4,0,0,0-4.86-2.27c-3.37,0-6,2.41-6.35,9.5a8.75,8.75,0,0,1,6.22-3.2c5.43,0,9.55,3.16,9.55,10.25,0,6.92-4.91,11-10.73,11-6.13,0-12.18-4.78-12.18-16.64S35,3,41.79,3a13,13,0,0,1,9.5,3.9ZM44.59,25.74c0-3.59-1.75-4.77-3.9-4.77a5.35,5.35,0,0,0-4.6,2.93c.66,5.43,2.68,7.05,4.73,7.05S44.59,29.42,44.59,25.74Z"/><path class="cls-1" d="M66.15,115.89A50.22,50.22,0,0,1,56,113l.59-1.44A49.3,49.3,0,0,1,29.06,49.06l-5.4-2a55,55,0,0,0,30.72,69.74l.89-2.15a52.92,52.92,0,0,0,19.9,3.86v-1.85A52.24,52.24,0,0,1,66.15,115.89Z"/><path class="cls-1" d="M114,22.17l1.19-1.23A55.08,55.08,0,0,0,59.85,8l1.78,5.47a49.32,49.32,0,0,1,49.58,11.56l1.52-1.56A50.77,50.77,0,0,1,125.9,45.69l1.79-.51A52.68,52.68,0,0,0,114,22.17Z"/><rect class="cls-1" x="74.88" y="74.43" width="18.81" height="0.94"/><rect class="cls-1" x="74.88" y="71.66" width="18.81" height="0.94"/><rect class="cls-1" x="74.88" y="77.21" width="12.52" height="0.94"/><rect class="cls-1" x="74.88" y="68.83" width="12.52" height="0.94"/><rect class="cls-1" x="89" y="77.21" width="4.69" height="0.94"/><rect class="cls-1" x="89" y="63.18" width="4.69" height="0.94"/><rect class="cls-1" x="74.88" y="79.93" width="18.81" height="0.94"/><rect class="cls-1" x="74.88" y="85.47" width="18.81" height="0.94"/><rect class="cls-1" x="81.94" y="82.7" width="11.75" height="0.94"/><rect class="cls-1" x="74.88" y="82.7" width="5.46" height="0.94"/><rect class="cls-1" x="74.88" y="88.25" width="3.14" height="0.94"/><rect class="cls-1" x="79.62" y="88.25" width="14.12" height="0.94"/><path class="cls-1" d="M99.65,54.25H76.53a3.93,3.93,0,0,0-3.91,3.93V59a6.41,6.41,0,0,0-3.7,5.77V89.41a6.4,6.4,0,0,0,6.35,6.38h18.2a6.32,6.32,0,0,0,5.91-4.11h.22a3.93,3.93,0,0,0,3.91-3.93V58.18A3.85,3.85,0,0,0,99.65,54.25ZM93.53,94.12H75.32a4.69,4.69,0,0,1-4.69-4.71V64.73A4.7,4.7,0,0,1,75.32,60H93.53a4.7,4.7,0,0,1,4.69,4.72V89.41A4.73,4.73,0,0,1,93.53,94.12Zm8.38-6.37a2.28,2.28,0,0,1-2,2.27V62.29A3.94,3.94,0,0,0,96,58.35H74.33v-.22a2.24,2.24,0,0,1,2.26-2.28H99.71A2.28,2.28,0,0,1,102,58.13V87.75Z"/><path class="cls-1" d="M51.65,84.75a.82.82,0,0,0-1-.61.83.83,0,0,0-.61,1,37.24,37.24,0,0,0,1.88,5.38.83.83,0,0,0,.77.5A2.57,2.57,0,0,0,53,91a.86.86,0,0,0,.44-1.11A34.23,34.23,0,0,1,51.65,84.75Z"/><path class="cls-1" d="M93.36,110.54c-.66.15-1.33.26-2,.36a5.77,5.77,0,0,1,.25,1.67q1-.15,2.07-.36a.85.85,0,0,0-.33-1.67Z"/><path class="cls-1" d="M77.42,111.1a.82.82,0,0,0,.6,1c.59.15,1.19.27,1.78.38a5.72,5.72,0,0,1,.28-1.66c-.56-.1-1.12-.2-1.67-.32A.81.81,0,0,0,77.42,111.1Z"/><path class="cls-1" d="M102.47,107.32a31.41,31.41,0,0,1-5,2.11.86.86,0,0,0-.5,1.06.83.83,0,0,0,.78.55.52.52,0,0,0,.27-.05,37.68,37.68,0,0,0,5.19-2.22.84.84,0,0,0,.33-1.11A.82.82,0,0,0,102.47,107.32Z"/><path class="cls-1" d="M74.16,109.32a43.82,43.82,0,0,1-4.91-2.22.82.82,0,0,0-.77,1.44,35.22,35.22,0,0,0,5.19,2.28.52.52,0,0,0,.27.05.74.74,0,0,0,.72-.5A.81.81,0,0,0,74.16,109.32Z"/><path class="cls-1" d="M110.41,101.67a34.8,34.8,0,0,1-4.19,3.38.82.82,0,0,0-.22,1.17.71.71,0,0,0,.66.38.63.63,0,0,0,.44-.16,40.53,40.53,0,0,0,4.41-3.55.87.87,0,0,0,.06-1.17A.79.79,0,0,0,110.41,101.67Z"/><path class="cls-1" d="M121.39,84.64a.75.75,0,0,0-1,.55,37.53,37.53,0,0,1-1.82,5.11.77.77,0,0,0,.38,1.11.76.76,0,0,0,.33,0A.75.75,0,0,0,120,91a36.7,36.7,0,0,0,1.93-5.32A.75.75,0,0,0,121.39,84.64Z"/><path class="cls-1" d="M122.49,74.6a.85.85,0,0,0-.83.83v.11a36.38,36.38,0,0,1-.38,5.44.85.85,0,0,0,.72.94h.11a.83.83,0,0,0,.77-.72,39.85,39.85,0,0,0,.44-5.66v-.11A.85.85,0,0,0,122.49,74.6Z"/><path class="cls-1" d="M65.06,46.48a.86.86,0,0,0,.5-.17,48.82,48.82,0,0,1,4.63-2.77.83.83,0,1,0-.72-1.5A38.86,38.86,0,0,0,64.62,45a.82.82,0,0,0-.22,1.17A.77.77,0,0,0,65.06,46.48Z"/><path class="cls-1" d="M61.42,101.39a.82.82,0,0,0-1.16,1.16,44.67,44.67,0,0,0,4.36,3.61.88.88,0,0,0,.49.17,1,1,0,0,0,.67-.34.88.88,0,0,0-.22-1.16A29.87,29.87,0,0,1,61.42,101.39Z"/><path class="cls-1" d="M73.83,41.88h.33a32.37,32.37,0,0,1,5.19-1.44.87.87,0,0,0,.66-1,.86.86,0,0,0-1-.67,35.47,35.47,0,0,0-5.46,1.5.79.79,0,0,0-.5,1A.82.82,0,0,0,73.83,41.88Z"/><path class="cls-1" d="M102.41,43.76A36.82,36.82,0,0,1,107,46.59a.88.88,0,0,0,.5.17.91.91,0,0,0,.66-.28.81.81,0,0,0-.17-1.16,38.65,38.65,0,0,0-4.8-3,.82.82,0,0,0-.77,1.44Z"/><path class="cls-1" d="M121.39,71.11a.87.87,0,0,0,.83.72s0,0,.11-.06a.85.85,0,0,0,.71-.94,37.32,37.32,0,0,0-1.1-5.55.84.84,0,1,0-1.6.5A34.41,34.41,0,0,1,121.39,71.11Z"/><path class="cls-1" d="M93.25,40.49A40.26,40.26,0,0,1,98.44,42a.52.52,0,0,0,.27,0,.77.77,0,0,0,.78-.61.83.83,0,0,0-.5-1,35.31,35.31,0,0,0-5.41-1.55.85.85,0,0,0-.33,1.66Z"/><path class="cls-1" d="M62.19,49.09a.81.81,0,0,0,.06-1.17.8.8,0,0,0-1.16-.05,39.5,39.5,0,0,0-3.36,3.49,5.75,5.75,0,0,1,1.48.81A34.65,34.65,0,0,1,62.19,49.09Z"/><path class="cls-1" d="M49.89,71.44H50a.78.78,0,0,0,.82-.67,34.38,34.38,0,0,1,1.11-5.32.85.85,0,0,0-.55-1,.84.84,0,0,0-1.05.55,47.12,47.12,0,0,0-1.16,5.55A.86.86,0,0,0,49.89,71.44Z"/><path class="cls-1" d="M50.82,80.48a37.15,37.15,0,0,1-.33-4.94V75a.83.83,0,1,0-1.65,0v.5a40.63,40.63,0,0,0,.33,5.16.82.82,0,0,0,.83.72h.11A.85.85,0,0,0,50.82,80.48Z"/><path class="cls-1" d="M111.46,48.09a.84.84,0,0,0-1.16.06.85.85,0,0,0,0,1.16,39.54,39.54,0,0,1,2.8,3,5.64,5.64,0,0,1,1.43-.87A33.83,33.83,0,0,0,111.46,48.09Z"/><path class="cls-1" d="M85.69,30.45a7.27,7.27,0,1,0,7.23,7.27,7.27,7.27,0,0,0-7.23-7.27Zm0,13.2a5.94,5.94,0,1,1,5.91-5.93,5.92,5.92,0,0,1-5.91,5.93Z"/><path class="cls-1" d="M86.91,36.11a1.39,1.39,0,0,0-1-.44c-.44,0-.66.16-.66.55,0,.83,2.48.78,2.48,2.61a1.8,1.8,0,0,1-1.49,1.88v1h-1v-.94a3.52,3.52,0,0,1-1.71-.72l.66-1a2,2,0,0,0,1.32.55c.5,0,.72-.22.72-.61,0-.88-2.48-.94-2.48-2.66a1.69,1.69,0,0,1,1.43-1.77v-1h1v1a2.6,2.6,0,0,1,1.44.77Z"/><path class="cls-1" d="M85.69,105.27a7.27,7.27,0,1,0,7.23,7.27,7.27,7.27,0,0,0-7.23-7.27Zm0,13.2a5.94,5.94,0,1,1,5.91-5.93,5.92,5.92,0,0,1-5.91,5.93Z"/><path class="cls-1" d="M86.91,110.93a1.39,1.39,0,0,0-1-.44c-.44,0-.66.16-.66.55,0,.83,2.48.78,2.48,2.61a1.8,1.8,0,0,1-1.49,1.88v1h-1v-.94a3.52,3.52,0,0,1-1.71-.72l.66-1a2,2,0,0,0,1.32.55c.5,0,.72-.22.72-.61,0-.88-2.48-.94-2.48-2.66a1.69,1.69,0,0,1,1.43-1.77v-1h1v1a2.6,2.6,0,0,1,1.44.77Z"/><path class="cls-1" d="M116.86,49.59a7.27,7.27,0,1,0,7.23,7.26,7.26,7.26,0,0,0-7.23-7.26Zm0,13.2a5.94,5.94,0,1,1,5.91-5.94,5.93,5.93,0,0,1-5.91,5.94Z"/><path class="cls-1" d="M118.08,55.24a1.38,1.38,0,0,0-1-.44c-.44,0-.66.17-.66.56,0,.83,2.48.77,2.48,2.6a1.8,1.8,0,0,1-1.49,1.89v1h-1v-1a3.47,3.47,0,0,1-1.71-.72l.66-1a2.08,2.08,0,0,0,1.32.56c.5,0,.72-.22.72-.61,0-.89-2.48-.94-2.48-2.66a1.7,1.7,0,0,1,1.43-1.78v-1h1v1a2.62,2.62,0,0,1,1.43.78Z"/><path class="cls-1" d="M55.5,49.68A7.27,7.27,0,1,0,62.73,57a7.27,7.27,0,0,0-7.23-7.27Zm0,13.2A5.94,5.94,0,1,1,61.4,57a5.92,5.92,0,0,1-5.9,5.93Z"/><path class="cls-1" d="M56.66,55.34a1.47,1.47,0,0,0-1-.44c-.45,0-.67.16-.67.55,0,.83,2.49.78,2.49,2.61A1.8,1.8,0,0,1,56,59.94v1H55V60a3.71,3.71,0,0,1-1.71-.72L54,58.22a2.08,2.08,0,0,0,1.32.56c.5,0,.72-.22.72-.61,0-.89-2.48-1-2.48-2.66A1.7,1.7,0,0,1,55,53.73v-1h1v1a2.62,2.62,0,0,1,1.43.78Z"/><path class="cls-1" d="M116,90.13a7.27,7.27,0,1,0,7.23,7.27A7.27,7.27,0,0,0,116,90.13Zm0,13.2a5.94,5.94,0,1,1,5.91-5.93,5.86,5.86,0,0,1-5.91,5.93Z"/><path class="cls-1" d="M117.2,95.73a1.41,1.41,0,0,0-1-.44c-.44,0-.66.17-.66.55,0,.84,2.48.78,2.48,2.61a1.72,1.72,0,0,1-1.49,1.83v1h-1v-.94a3.62,3.62,0,0,1-1.71-.72l.66-1a2.1,2.1,0,0,0,1.32.55c.5,0,.72-.22.72-.61,0-.89-2.48-.94-2.48-2.66a1.71,1.71,0,0,1,1.43-1.78v-1h1v1a2.67,2.67,0,0,1,1.44.78Z"/><path class="cls-1" d="M55,90.13a7.27,7.27,0,1,0,7.23,7.27A7.27,7.27,0,0,0,55,90.13Zm0,13.2a5.94,5.94,0,1,1,5.91-5.93A5.92,5.92,0,0,1,55,103.33Z"/><path class="cls-1" d="M56.12,95.73a1.38,1.38,0,0,0-1-.44c-.44,0-.66.17-.66.55,0,.84,2.48.78,2.48,2.61a1.71,1.71,0,0,1-1.49,1.83v1h-1v-.94a3.71,3.71,0,0,1-1.71-.72l.66-1a2.14,2.14,0,0,0,1.33.55c.49,0,.71-.22.71-.61,0-.89-2.48-.94-2.48-2.66a1.71,1.71,0,0,1,1.44-1.78v-1h1v1a2.61,2.61,0,0,1,1.43.78Z"/></g></g></svg>