<svg xmlns="http://www.w3.org/2000/svg" viewBox="0 0 128 128"><defs><style>.cls-1{fill:#fff;}</style></defs><g id="botones_light" data-name="botones light"><g id="ico_s4"><path class="cls-1" d="M.67,33.93l4.59-5.6a13.67,13.67,0,0,0,8.23,3.46c3,0,4.41-1.14,4.41-3S16,26.24,13.13,25L8.81,23.19c-3.55-1.41-6.87-4.36-6.87-9.28C1.94,8.23,7,3.68,14.22,3.68a15.75,15.75,0,0,1,11,4.46l-4.05,5.09a11,11,0,0,0-7-2.59c-2.5,0-4.05,1-4.05,2.82s2.14,2.59,5.14,3.78l4.23,1.68c4.18,1.68,6.69,4.5,6.69,9.28,0,5.64-4.73,10.59-12.92,10.59A18.92,18.92,0,0,1,.67,33.93Z"/><path class="cls-1" d="M54.47,29.7H50.69v8.46H43.14V29.7H29V24.1L40.73,4.32h10V23.56h3.78ZM43.14,23.56v-5c0-2.14.23-5.37.32-7.5h-.18C42.41,13,41.51,15,40.55,16.87l-3.87,6.69Z"/><path class="cls-1" d="M49,122.28A57.2,57.2,0,0,1,17.09,49.85l5.61,2a51.22,51.22,0,0,0,28.57,64.86Z"/><path class="cls-1" d="M89.76,30.28C74.48,30.28,62,44.26,62,61.43a34,34,0,0,0,4.53,17l-19,21.35a8.15,8.15,0,0,0,0,10.63,6.18,6.18,0,0,0,9.47,0L73,91.74a2.22,2.22,0,0,0,0-2.81,1.66,1.66,0,0,0-2.5,0l-16,18.69a2.87,2.87,0,0,1-4.4,0,3.82,3.82,0,0,1,0-4.94l18.66-21c5.08,6.69,12.65,10.94,21,10.94,15.28,0,27.72-14,27.72-31.15S105,30.28,89.76,30.28Zm0,58.65c-13.52,0-24.54-12.38-24.54-27.58s11-27.58,24.54-27.58,24.55,12.39,24.55,27.58S103.29,88.93,89.76,88.93Z"/><path class="cls-1" d="M93.62,55.43l-6.9,7.75-2.09-2.36a1.55,1.55,0,0,0-2.3,0,2,2,0,0,0,0,2.58l3.24,3.65a1.51,1.51,0,0,0,2.3,0l8-9a2,2,0,0,0,0-2.58A1.54,1.54,0,0,0,93.62,55.43Z"/><path class="cls-1" d="M89.76,39.17c-10.88,0-19.67,9.87-19.67,22.11S79,83.38,89.76,83.38s19.68-9.87,19.68-22.1S100.65,39.17,89.76,39.17Zm0,38.9c-8.24,0-14.94-7.53-14.94-16.79s6.7-16.8,14.94-16.8,14.95,7.53,14.95,16.8S98,78.07,89.76,78.07Z"/><path class="cls-1" d="M111.38,23.7l1.26-1.29A57.16,57.16,0,0,0,55.13,9L57,14.68a51.23,51.23,0,0,1,51.49,12L110,25.08A52.69,52.69,0,0,1,125.8,62.84c0,1.28,0,2.57-.14,3.84l1.92.14c.1-1.32.14-2.66.14-4A54.56,54.56,0,0,0,111.38,23.7Z"/></g></g></svg>