<svg xmlns="http://www.w3.org/2000/svg" viewBox="0 0 128 128"><defs><style>.cls-1{fill:#fff;}</style></defs><g id="botones_light" data-name="botones light"><g id="ico_s5"><path class="cls-1" d="M.48,32.22,5,26.71a13.44,13.44,0,0,0,8.1,3.4c3,0,4.35-1.11,4.35-2.9s-1.84-2.56-4.7-3.76L8.5,21.66c-3.5-1.39-6.76-4.3-6.76-9.13,0-5.6,5-10.07,12.08-10.07A15.48,15.48,0,0,1,24.65,6.84l-4,5A10.85,10.85,0,0,0,13.82,9.3c-2.46,0-4,1-4,2.78s2.1,2.55,5.05,3.71l4.17,1.66c4.11,1.66,6.58,4.43,6.58,9.13C25.64,32.13,21,37,12.93,37A18.64,18.64,0,0,1,.48,32.22Z"/><path class="cls-1" d="M28.45,32.4l3.63-5a10.08,10.08,0,0,0,6.84,3.18c3.23,0,5.24-1.74,5.24-5.19s-2-5.15-4.88-5.15c-1.83,0-2.73.36-4.7,1.62l-3.49-2.29.85-16.47H50.65V9.71H38.79l-.49,5.64a8.31,8.31,0,0,1,3.44-.67c5.64,0,10.39,3.31,10.39,10.51,0,7.48-5.64,11.82-12,11.82A15.89,15.89,0,0,1,28.45,32.4Z"/><path class="cls-1" d="M53.2,111.9A56.26,56.26,0,0,1,21.8,40.63l5.52,2a50.4,50.4,0,0,0,28.12,63.82Z"/><path class="cls-1" d="M126.67,48.83A53.92,53.92,0,0,0,112.48,21l1.33-1.37A56.26,56.26,0,0,0,57.23,6.46L59,12.05a50.41,50.41,0,0,1,50.67,11.82l1.44-1.48a52.32,52.32,0,0,1,1.36,70.82l1.42,1.26A54,54,0,0,0,126.67,48.83Z"/><path class="cls-1" d="M103.09,25.47H62.28a5.37,5.37,0,0,0-5.06,5.62V56.6a5.75,5.75,0,0,0,1.59,4.16,4.72,4.72,0,0,0,3.4,1.48h.64v7.1a3.22,3.22,0,0,0,1.72,2.85,2.64,2.64,0,0,0,1,.21,2.76,2.76,0,0,0,2.06-.92l6.72-9.24h28.71a5.37,5.37,0,0,0,5.06-5.62V31.09A5.37,5.37,0,0,0,103.09,25.47ZM64.39,58.61H62.15a1.86,1.86,0,0,1-1.72-2v-25h.07v-.52a1.85,1.85,0,0,1,1.71-2H103a1.86,1.86,0,0,1,1.72,2V56.62a1.86,1.86,0,0,1-1.72,2H73.47a1.61,1.61,0,0,0-.7.21l-.1.07a.77.77,0,0,0-.19.15.72.72,0,0,0-.23.18l-6.19,8.52V60.43A1.75,1.75,0,0,0,64.39,58.61Z"/><path class="cls-1" d="M92.22,97a15.49,15.49,0,0,0,6.14-12.66c0-8.34-6-15.09-13.44-15.09S71.49,76,71.49,84.36a15.62,15.62,0,0,0,6,12.58c-9,1.08-15.93,9.64-15.93,20a9.32,9.32,0,0,0,.07,1.36l.13,2h45.54l.13-2c0-.43.07-.86.07-1.36C107.38,106.86,100.79,98.53,92.22,97ZM75.33,84.36c0-6,4.28-10.78,9.59-10.78s9.6,4.82,9.6,10.78-4.29,10.79-9.6,10.79S75.33,90.26,75.33,84.36Zm-9.92,31.56C65.86,107.66,72,101,79.49,101h10c7.49,0,13.63,6.62,14.07,14.88Z"/></g></g></svg>