<svg xmlns="http://www.w3.org/2000/svg" viewBox="0 0 128 128"><defs><style>.cls-1{fill:#fff;}</style></defs><g id="botones_light" data-name="botones light"><g id="ico_s3"><path class="cls-1" d="M110.57,105.45V73.06c0-11.94-8.62-21.7-19.3-21.7H87c-10.62,0-19.31,9.69-19.31,21.7v32.77a15.47,15.47,0,0,0-6.13,12.71,19.91,19.91,0,0,0,.34,3.57l.28,1.16h54.47l.28-1.16a16.05,16.05,0,0,0,.34-3.57A15.14,15.14,0,0,0,110.57,105.45Zm-37.23-1.63a10.87,10.87,0,0,0-2.76.31V73.06c0-10.23,7.38-18.6,16.55-18.6H91.4c9.11,0,16.55,8.29,16.55,18.6v31a9.86,9.86,0,0,0-2.13-.23H73.34Zm41.16,16.43h-50a12.78,12.78,0,0,1-.07-1.63c0-6.43,4.41-11.7,9.79-11.7h30.69c5.38,0,9.79,5.27,9.79,11.7A12.75,12.75,0,0,0,114.5,120.25Z"/><path class="cls-1" d="M88.71,93.2A3,3,0,0,1,85.89,90c0-1.94,1.17-3.26,2.89-3.26S91.61,88,91.61,90s-1.17,3.25-2.9,3.25Zm-1.79-8.29-.69-16.19h5l-.69,16.19Z"/><path class="cls-1" d="M62.51,77.47h-6.9a1.95,1.95,0,0,1,0-3.87h6.9a1.95,1.95,0,0,1,0,3.87Z"/><path class="cls-1" d="M123.33,77.47h-6.9a1.95,1.95,0,0,1,0-3.87h6.9a1.95,1.95,0,0,1,0,3.87Z"/><path class="cls-1" d="M89.27,46.32a1.82,1.82,0,0,1-1.73-1.93V36.64a1.74,1.74,0,1,1,3.45,0v7.75A1.82,1.82,0,0,1,89.27,46.32Z"/><path class="cls-1" d="M109.82,54.07a1.67,1.67,0,0,1-1.25-.54,2,2,0,0,1,0-2.71l4.83-5.43a1.55,1.55,0,0,1,2.41,0,2.11,2.11,0,0,1,0,2.71L111,53.53A1.53,1.53,0,0,1,109.82,54.07Z"/><path class="cls-1" d="M68.23,54.07A1.67,1.67,0,0,1,67,53.53L62.17,48.1a2,2,0,0,1,0-2.71,1.6,1.6,0,0,1,2.41,0l4.83,5.43a2,2,0,0,1,0,2.71A1.44,1.44,0,0,1,68.23,54.07Z"/><path class="cls-1" d="M1.28,32.76l4.39-5.34a13.09,13.09,0,0,0,7.87,3.3c2.87,0,4.21-1.09,4.21-2.83S16,25.42,13.19,24.24L9.06,22.5c-3.39-1.34-6.57-4.17-6.57-8.87,0-5.43,4.87-9.78,11.74-9.78A15.06,15.06,0,0,1,24.75,8.11L20.89,13a10.52,10.52,0,0,0-6.66-2.48c-2.39,0-3.87,1-3.87,2.7s2.05,2.48,4.92,3.61l4,1.61c4,1.61,6.39,4.3,6.39,8.87,0,5.39-4.52,10.13-12.35,10.13A18.08,18.08,0,0,1,1.28,32.76Z"/><path class="cls-1" d="M28.4,32.9,32,28a9.93,9.93,0,0,0,6.74,3.13c3,0,5-1.27,5-3.7,0-2.78-1.48-4.43-8.27-4.43V17.59c5.53,0,7.27-1.7,7.27-4.26,0-2.22-1.31-3.43-3.7-3.43-2.17,0-3.83,1-5.78,2.69L29.27,7.85a15.22,15.22,0,0,1,10.05-4C46,3.85,50.4,7,50.4,12.76c0,3.22-1.73,5.74-5.21,7.14v.21c3.61,1.09,6.26,3.7,6.26,7.87,0,6.05-5.52,9.44-12,9.44C34.36,37.42,30.75,35.63,28.4,32.9Z"/><path class="cls-1" d="M53.61,111.83a54.64,54.64,0,0,1-30.5-69.24l5.36,2a48.94,48.94,0,0,0,27.31,62Z"/><path class="cls-1" d="M127.43,53.05A52.33,52.33,0,0,0,111.3,19.44l1.19-1.23a54.68,54.68,0,0,0-55-12.82l1.76,5.43A49,49,0,0,1,108.51,22.3l1.5-1.54A50.49,50.49,0,0,1,125.59,53.2c.12,1.44.19,2.91.19,4.36h1.84C127.62,56.06,127.55,54.54,127.43,53.05Z"/></g></g></svg>