<svg xmlns="http://www.w3.org/2000/svg" viewBox="0 0 128 128"><defs><style>.cls-1{fill:#fff;}</style></defs><g id="botones_light" data-name="botones light"><g id="ico_s2"><path class="cls-1" d="M2.31,35.51l4.4-5.8C9,31.83,12,33.29,14.6,33.29c2.88,0,4.23-1.18,4.23-3.06,0-2-1.79-2.69-4.58-4l-4.14-1.89a10.2,10.2,0,0,1-6.58-9.63c0-5.9,4.88-10.62,11.77-10.62A14.51,14.51,0,0,1,25.85,8.75L22,14a10.12,10.12,0,0,0-6.67-2.69c-2.4,0-3.88,1-3.88,2.93s2.05,2.69,4.93,3.92l4,1.75c4,1.74,6.41,4.67,6.41,9.63,0,5.85-4.54,11-12.38,11A17.36,17.36,0,0,1,2.31,35.51Z"/><path class="cls-1" d="M30.29,35.09c8.11-8,13.56-14.35,13.56-19.45,0-3.21-1.66-5-4.23-5-2.23,0-4,1.61-5.49,3.4L29.9,9.55C33.08,5.92,36,4.12,40.66,4.12c6.28,0,10.64,4.35,10.64,11.05,0,6-4.8,12.7-9.76,18.12a43.61,43.61,0,0,1,5.27-.47h6V39.9H30.29Z"/><rect class="cls-1" x="82.6" y="58.1" width="26.72" height="2.45"/><rect class="cls-1" x="72.55" y="58.26" width="6.68" height="2.45"/><rect class="cls-1" x="82.6" y="65.76" width="26.72" height="2.45"/><rect class="cls-1" x="72.55" y="65.92" width="6.68" height="2.45"/><rect class="cls-1" x="82.6" y="73.96" width="26.72" height="2.45"/><rect class="cls-1" x="72.55" y="74.12" width="6.68" height="2.45"/><rect class="cls-1" x="82.6" y="83.16" width="26.72" height="2.45"/><rect class="cls-1" x="72.55" y="83.31" width="6.68" height="2.45"/><rect class="cls-1" x="82.6" y="91.36" width="26.72" height="2.45"/><path class="cls-1" d="M72.55,93.35v.54h6.68V91.43H74.14A1.81,1.81,0,0,0,72.55,93.35Z"/><rect class="cls-1" x="82.6" y="99.02" width="12.47" height="2.45"/><path class="cls-1" d="M78.66,97.87l-.07-.15a2.58,2.58,0,0,0-.76-.16,1.61,1.61,0,0,0-.64.08l-.82,1.61-.51-1a.79.79,0,0,0-.32-.46.86.86,0,0,0-.45-.15A1.5,1.5,0,0,0,74,98l1.47,2.69L74,103.62l.06.07a2.24,2.24,0,0,0,.77.16,1.4,1.4,0,0,0,.63-.08l.83-1.68.64,1.22a.93.93,0,0,0,.89.61,1.64,1.64,0,0,0,1-.46l-1.59-2.91Z"/><path class="cls-1" d="M122.69,84.46l-1,1V49c0-4-2.16-7.43-5.15-8.68v-.66H100.35V36.57H81.27v3.07H64.4v.47c-3.25,1.06-5.66,4.64-5.66,8.87v65.37a11.32,11.32,0,0,0,.1,1.43,52.57,52.57,0,0,1-7.54-2.43l.84-2A49.06,49.06,0,0,1,24.76,49.14l-5.38-2A54.8,54.8,0,0,0,50,116.59l.63-1.54a52,52,0,0,0,8.71,2.71c1.13,3.38,3.88,5.78,7.08,5.78H114.1c4.2,0,7.63-4.14,7.63-9.27V97.38l5.86-6.18ZM67,42.85H114V93.59l-8.28,8.73-1.27,7.2,6.17-.46L114,105.5v7.24H67Zm52.24,71.42c0,3.37-2.29,6.13-5.09,6.13H66.38a5.22,5.22,0,0,1-4.73-3.88l0-.15-.08,0a7.07,7.07,0,0,1-.31-2.08V49a6.27,6.27,0,0,1,3.11-5.64v72.38h52.18v-12.9l2.61-2.76Zm0-26.12-2.61,2.76V43.64A6.44,6.44,0,0,1,119.19,49Z"/><path class="cls-1" d="M107.19,19a57,57,0,0,0-11.3-8.6l1-1.84a54.87,54.87,0,0,0-43-3.93l1.77,5.44a49.13,49.13,0,0,1,38.5,3.52L95,12.06a55.15,55.15,0,0,1,10.91,8.31Z"/></g></g></svg>