<?xml version="1.0" encoding="iso-8859-1"?>
<!-- Generator: Adobe Illustrator 16.0.0, SVG Export Plug-In . SVG Version: 6.00 Build 0)  -->
<!DOCTYPE svg PUBLIC "-//W3C//DTD SVG 1.1//EN" "http://www.w3.org/Graphics/SVG/1.1/DTD/svg11.dtd">
<svg version="1.1" id="Capa_1" xmlns="http://www.w3.org/2000/svg" xmlns:xlink="http://www.w3.org/1999/xlink" x="0px" y="0px"
	 width="34.614px" height="34.615px" viewBox="0 0 34.614 34.615" style="enable-background:new 0 0 34.614 34.615;"
	 xml:space="preserve">
<g>
	<g>
		<path style="fill:#fff;" d="M34.614,34.175h-7.453l2.698-2.698l-0.844-0.844h1.213l-1.521-1.521C32.109,29.447,34.614,30.74,34.614,34.175z
			 M24.2,30.633h-1.214l1.521-1.521c-3.4,0.334-5.905,1.627-5.905,5.062h7.452l-2.697-2.698L24.2,30.633z M29.641,23.626
			c-0.109,1.513-0.756,3.275-1.682,4.224h3.58v-3.993c0-4.175-2.208-5.761-4.932-5.761c-2.723,0-4.932,1.586-4.932,5.761v3.993
			h3.579c-0.896-0.916-1.53-2.599-1.672-4.076l0.035-0.002c1.54,0,2.871-0.638,3.603-1.577
			C27.755,22.882,28.613,23.396,29.641,23.626z M24.982,14.136l-2.324-1.427l-0.539,0.879l3.809,2.338l2.338-3.81l-0.879-0.54
			l-1.408,2.294C24.5,8.666,20.333,4.88,15.364,3.668l0.273,1.145C20.02,6.069,23.655,9.489,24.982,14.136z M6.504,21.46L9.026,22.5
			l0.392-0.952l-4.132-1.704l-1.703,4.133l0.953,0.395l1.027-2.489c2.285,4.903,7.002,7.979,12.1,8.386l-0.452-1.087
			C12.687,28.639,8.553,25.839,6.504,21.46z M8.526,0.439c0.066,0,0.131,0.004,0.197,0.006c0.021,0,0.043-0.004,0.065-0.006H8.526z
			 M11.544,11.092l-1.936,3.799l-0.312-2.468l0.479-0.393h-1.16l-1.061,0.001l0.479,0.393l-0.303,2.47l-1.943-3.795
			C2.415,11.558-0.004,13.006,0,16.519l17.339-0.021C17.338,12.985,14.915,11.543,11.544,11.092z M8.635,10.735h0.066
			c-0.013,0-0.024-0.003-0.038-0.001C8.654,10.734,8.645,10.734,8.635,10.735z M5.018,6.801C5.028,6.8,5.036,6.79,5.044,6.786
			c0.583,2.104,2.092,3.678,3.619,3.71c1.395-0.065,3.104-1.614,3.67-3.708c0.263,0.015,0.523-0.294,0.599-0.726
			c0.073-0.447-0.087-0.849-0.357-0.894c-0.018-0.002-0.034,0.008-0.051,0.009c-0.084-3.465-1.729-4.682-3.802-4.732
			c-2.136,0.014-4.047,1.5-3.923,4.743C4.78,5.187,4.76,5.175,4.739,5.178c-0.27,0.047-0.428,0.448-0.353,0.896
			C4.465,6.522,4.746,6.847,5.018,6.801z"/>
	</g>
</g>
<g>
</g>
<g>
</g>
<g>
</g>
<g>
</g>
<g>
</g>
<g>
</g>
<g>
</g>
<g>
</g>
<g>
</g>
<g>
</g>
<g>
</g>
<g>
</g>
<g>
</g>
<g>
</g>
<g>
</g>
</svg>
