<?xml version="1.0" encoding="iso-8859-1"?>
<!-- Generator: Adobe Illustrator 18.0.0, SVG Export Plug-In . SVG Version: 6.00 Build 0)  -->
<!DOCTYPE svg PUBLIC "-//W3C//DTD SVG 1.1//EN" "http://www.w3.org/Graphics/SVG/1.1/DTD/svg11.dtd">
<svg version="1.1" id="Capa_1" xmlns="http://www.w3.org/2000/svg" xmlns:xlink="http://www.w3.org/1999/xlink" x="0px" y="0px"
	 viewBox="0 0 460.263 460.263" style="enable-background:new 0 0 460.263 460.263;" xml:space="preserve">
<g id="XMLID_859_">
	<path style="fill:#fff;"  id="XMLID_860_" d="M353.106,57.22h1.189c5.472,4.381,12.411,7.008,19.966,7.008c7.555,0,14.494-2.626,19.966-7.008h1.189
		c6.634-5.859,10.822-14.423,10.822-23.97c0-0.168-0.01-0.333-0.013-0.5c0.003-0.167,0.013-0.332,0.013-0.5
		c0-17.661-14.317-31.978-31.978-31.978c-17.661,0-31.978,14.317-31.978,31.978c0,0.168,0.01,0.333,0.013,0.5
		c-0.003,0.167-0.013,0.332-0.013,0.5C342.284,42.797,346.472,51.361,353.106,57.22z"/>
	<path style="fill:#fff;"  id="XMLID_921_" d="M452.061,111.75c-0.101-20.032-16.481-36.329-36.513-36.329h-41.351h-0.132h-34.176
		c13.175,10.982,21.621,27.468,21.714,45.875l0.626,124.558c0.09,17.997-12.608,32.8-29.204,36.323v89.1
		c0,10.226,8.29,18.515,18.515,18.515c10.226,0,18.515-8.29,18.515-18.515V227.282c0-2.208,1.79-3.997,3.997-3.997
		c2.208,0,3.997,1.79,3.997,3.997v143.996c0,10.226,8.289,18.515,18.515,18.515c10.226,0,18.515-8.29,18.515-18.515l-0.336-264.999
		h0.803c3.103,0,5.639,2.524,5.655,5.626l0.57,113.353c0.043,8.495,6.942,15.352,15.427,15.352c0.026,0,0.053,0,0.079,0
		c8.521-0.043,15.394-6.986,15.352-15.507L452.061,111.75z"/>
	<path style="fill:#fff;"  id="XMLID_922_" d="M342.23,245.955l-0.626-124.558c-0.111-22.012-18.11-39.92-40.122-39.92h-45.438h-45.583
		c-6.202,0-12.084,1.422-17.338,3.956c12.067,11.465,19.653,27.61,19.743,45.484l0.674,134.228
		c0.025,4.945-0.936,9.801-2.738,14.313v7.133c3.854,4.738,6.173,10.772,6.173,17.341v72.705c0,6.571-2.317,12.609-6.173,17.347
		v12.592c0,11.236,9.109,20.345,20.345,20.345s20.345-9.108,20.345-20.345V248.348c0-2.426,1.967-4.393,4.393-4.393
		s4.393,1.967,4.393,4.393v158.229c0,11.236,9.108,20.345,20.345,20.345s20.345-9.108,20.345-20.345l-0.361-284.88
		c-0.002-1.934,1.546-3.514,3.48-3.549c1.934-0.035,3.541,1.486,3.608,3.42c0,0.001,0,0.001,0,0.002l0.626,124.557
		c0.047,9.335,7.628,16.869,16.952,16.869C334.683,262.994,342.277,255.342,342.23,245.955z"/>
	<path style="fill:#fff;"  id="XMLID_923_" d="M232.868,61.478c6.195,5.472,14.33,8.799,23.246,8.799c8.916,0,17.051-3.327,23.246-8.799
		c7.289-6.438,11.892-15.849,11.892-26.339C291.253,15.732,275.521,0,256.115,0c-19.406,0-35.138,15.732-35.138,35.139
		C220.977,45.629,225.579,55.039,232.868,61.478z"/>
	<path style="fill:#fff;"  id="XMLID_925_" d="M189.447,296.403h-3.187v-16.493c4.53-3.422,7.31-8.807,7.281-14.663l-0.674-134.228
		c-0.12-23.721-19.516-43.02-43.237-43.02h-19.243c-2.393,6.253-19.566,52.464-22.133,59.171l5.34-25.155
		c0.375-1.766,0.103-3.609-0.767-5.191l-7.333-13.337l6.519-11.554c0.452-0.822,0.437-1.822-0.041-2.63
		c-0.478-0.808-1.346-1.303-2.285-1.303H91.794c-0.938,0-1.807,0.496-2.285,1.303s-0.493,1.807-0.041,2.63l6.519,11.554
		l-7.36,13.387c-0.853,1.552-1.132,3.356-0.787,5.094l4.669,25.203c-2.332-5.98-18.881-52.673-21.415-59.171h-19.55
		c-23.722,0-43.118,19.299-43.237,43.02L7.632,265.246c-0.051,10.09,8.088,18.312,18.179,18.362c0.031,0,0.063,0,0.094,0
		c10.047,0,18.218-8.12,18.269-18.179l0.674-134.228c0.01-1.943,1.587-3.511,3.528-3.511c0.003,0,0.006,0,0.01,0
		c1.945,0.005,3.518,1.583,3.518,3.528l0.008,307.119c0,12.109,9.816,21.925,21.925,21.925s21.925-9.816,21.925-21.925V267.824
		c0-2.614,2.119-4.733,4.733-4.733s4.733,2.119,4.733,4.733v170.514c0,12.109,9.816,21.925,21.925,21.925
		c12.109,0,21.925-9.816,21.925-21.925v-37.345c-8.744-4.617-14.719-13.8-14.719-24.356v-72.705
		c0-10.557,5.976-19.739,14.719-24.356c0-34.255-0.386,0.76-0.397-148.298c0-2.097,1.689-3.803,3.786-3.824c0.013,0,0.026,0,0.039,0
		c2.08,0,3.782,1.664,3.822,3.75L157,265.43c0.032,6.233,3.257,11.771,7.975,14.997v15.976h-3.089c-4.158,0-7.529,3.371-7.529,7.529
		v72.705c0,4.158,3.371,7.529,7.529,7.529h27.561c4.158,0,7.529-3.371,7.529-7.529v-72.705
		C196.977,299.773,193.606,296.403,189.447,296.403z"/>
	<circle style="fill:#fff;"  id="XMLID_928_" cx="100.741" cy="38.063" r="38.062"/>
</g>
<g>
</g>
<g>
</g>
<g>
</g>
<g>
</g>
<g>
</g>
<g>
</g>
<g>
</g>
<g>
</g>
<g>
</g>
<g>
</g>
<g>
</g>
<g>
</g>
<g>
</g>
<g>
</g>
<g>
</g>
</svg>
