<?xml version="1.0" encoding="iso-8859-1"?>
<!-- Generator: Adobe Illustrator 16.0.0, SVG Export Plug-In . SVG Version: 6.00 Build 0)  -->
<!DOCTYPE svg PUBLIC "-//W3C//DTD SVG 1.1//EN" "http://www.w3.org/Graphics/SVG/1.1/DTD/svg11.dtd">
<svg version="1.1" id="Capa_1" xmlns="http://www.w3.org/2000/svg" xmlns:xlink="http://www.w3.org/1999/xlink" x="0px" y="0px"
	 width="31.645px" height="31.645px" viewBox="0 0 31.645 31.645" style="enable-background:new 0 0 31.645 31.645;"
	 xml:space="preserve">
<g>
	<g>
		<circle style="fill:#fff;"  cx="7.467" cy="3.831" r="3.549"/>
		<path style="fill:#fff;"  d="M11.514,15.44H5.271c-0.193,0-0.351-0.157-0.351-0.35v-2.695c0-0.066,0.026-0.129,0.073-0.176
			c0.047-0.046,0.11-0.072,0.177-0.072c0.012,0,0.023,0,0.035,0c0.142,0.001,0.256,0.116,0.256,0.258v2.333
			c0,0.089,0.072,0.161,0.161,0.161h0.703v-3.768c0-0.583,0.473-1.056,1.056-1.056h5.755V9.751c0-0.896-0.727-1.622-1.622-1.622
			c-0.384,0-7.755,0-8.215,0c-0.896,0-1.622,0.726-1.622,1.622v7.312c0,0.896,0.726,1.621,1.622,1.621h8.215
			c0.896,0,1.622-0.727,1.622-1.621C13.135,16.167,12.41,15.44,11.514,15.44z"/>
		<path style="fill:#fff;"  d="M15.815,10.616h-2.781c-0.234,0-0.425,0.19-0.425,0.425v1.939c0,0.235-0.19,0.425-0.425,0.425h-1.049
			c-0.235,0-0.426-0.19-0.426-0.425v-1.939c0-0.235-0.19-0.425-0.426-0.425h-2.78c-0.353,0-0.639,0.286-0.639,0.639v3.644h4.649
			c1.192,0,2.162,0.97,2.162,2.162c0,0.649-0.292,1.227-0.747,1.623h2.887c0.353,0,0.639-0.287,0.639-0.64v-6.789
			C16.455,10.902,16.168,10.616,15.815,10.616z"/>
		<path style="fill:#fff;"  d="M3.814,29.482c0,1.194,0.968,2.162,2.163,2.162c0.633,0,1.198-0.277,1.594-0.711c0.395,0.434,0.96,0.711,1.594,0.711
			c1.193,0,2.162-0.968,2.162-2.162V19.225H3.814V29.482z"/>
		<path style="fill:#fff;"  d="M28.348,7.869h-3.885h-3.885c-0.896,0-1.622,0.726-1.622,1.622v11.074c0,0.896,0.726,1.623,1.622,1.623
			c0.062,0,0.124-0.013,0.186-0.02v7.055c0,1.194,0.969,2.162,2.162,2.162c0.602,0,1.135-0.254,1.525-0.65h0.023
			c0.389,0.396,0.924,0.65,1.523,0.65c1.193,0,2.162-0.968,2.162-2.162v-7.055c0.062,0.007,0.121,0.02,0.188,0.02
			c0.896,0,1.62-0.728,1.62-1.623V9.49C29.969,8.594,29.244,7.869,28.348,7.869z"/>
		<circle style="fill:#fff;"  cx="24.463" cy="3.549" r="3.549"/>
	</g>
</g>
<g>
</g>
<g>
</g>
<g>
</g>
<g>
</g>
<g>
</g>
<g>
</g>
<g>
</g>
<g>
</g>
<g>
</g>
<g>
</g>
<g>
</g>
<g>
</g>
<g>
</g>
<g>
</g>
<g>
</g>
</svg>
