<?xml version="1.0" encoding="UTF-8"?><svg id="logos" xmlns="http://www.w3.org/2000/svg" viewBox="0 0 32 32"><defs><style>.cls-1{fill:#8dd9f6;}.cls-2{fill:#e23b63;stroke:#fff;stroke-miterlimit:10;stroke-width:.54px;}</style></defs><path class="cls-1" d="M.44,31.94c.55-5.93,5.52-12.12,11.44-12.26v-2.83c-1.83-1.41-3.03-3.6-3.03-6.09,0-4.28,3.45-7.73,7.73-7.73s7.73,3.59,7.73,7.73c0,2.8-1.49,5.22-3.71,6.57v2.38c5.94,.15,10.62,6.4,11.16,12.24H.44Z"/><path class="cls-2" d="M16.24,27.79c-1.52,0-2.48-1.1-2.48-2.48,0-1.52,1.1-2.48,2.48-2.48,1.52,0,2.48,1.1,2.48,2.48,.14,1.38-.97,2.48-2.48,2.48h0Zm-1.52-6.48l-.55-12.69h4.42l-.55,12.69h-3.31Z"/></svg>