<?xml version="1.0" encoding="UTF-8"?><svg id="logos" xmlns="http://www.w3.org/2000/svg" viewBox="0 0 32 32"><defs><style>.cls-1{fill:#8dd9f6;}.cls-2{fill:#55575a;}.cls-3{fill:#1d5872;}</style></defs><g><g><rect class="cls-2" x="12.27" y="13.76" width="9.73" height=".89"/><rect class="cls-2" x="8.61" y="13.82" width="2.43" height=".89"/></g><g><rect class="cls-2" x="12.27" y="17.11" width="9.73" height=".89"/><rect class="cls-2" x="8.61" y="17.17" width="2.43" height=".89"/></g><g><rect class="cls-2" x="12.27" y="20.1" width="9.73" height=".89"/><path class="cls-2" d="M9.19,20.12h1.85v.89h-2.43v-.2c0-.36,.25-.7,.58-.7Z"/></g><path class="cls-1" d="M23.74,31.81H6.37c-1.53,0-2.78-1.51-2.78-3.35V4.67c0-1.84,1.25-3.35,2.78-3.35H23.74c1.53,0,2.78,1.51,2.78,3.35V28.44c0,1.87-1.25,3.38-2.78,3.38ZM6.37,2.43c-1.02,0-1.85,1-1.85,2.23V28.44c0,1.23,.83,2.23,1.85,2.23H23.74c1.02,0,1.85-1,1.85-2.23V4.67c0-1.23-.83-2.23-1.85-2.23H6.37Z"/><rect class="cls-2" x="12.27" y="22.89" width="4.54" height=".89"/><path class="cls-2" d="M10.3,22.38c.07-.03,.14-.03,.23-.03s.19,.03,.28,.06l.02,.06-.53,.98,.58,1.06c-.14,.11-.25,.17-.37,.17-.14,0-.23-.06-.32-.22l-.23-.45-.3,.61s-.14,.03-.23,.03-.21-.03-.28-.06l-.02-.03,.56-1.06-.53-.98c.12-.11,.25-.14,.39-.14,.07,0,.12,.03,.16,.06,.05,.03,.09,.08,.12,.17l.19,.36,.3-.59Z"/><path class="cls-1" d="M18.74,1.26V.15h-6.95V1.26H5.65V28.97H24.65V1.26h-5.91Zm4.98,26.62H6.57V2.38H23.72V27.88Z"/><g><path class="cls-1" d="M21.03,24.34l-.35,1.95,1.67-.11,1.74-1.81,4.08-4.3-1.32-1.84-5.82,6.11Z"/><path class="cls-1" d="M20.24,26.71l.46-2.62,6.16-6.5,1.78,2.46-6.16,6.5-2.25,.17Z"/></g></g><g><path class="cls-3" d="M7.75,9.46c0-.39,.27-.68,.66-.68s.65,.28,.65,.68-.26,.67-.66,.67-.65-.28-.65-.67Z"/><path class="cls-3" d="M13.12,6.49c-.01,.23-.03,.52-.03,1.06v1.99c0,.68-.14,1.24-.54,1.6-.39,.33-.92,.44-1.45,.44-.47,0-.96-.09-1.28-.28l.22-.84c.23,.13,.62,.27,1.03,.27,.52,0,.92-.28,.92-.94v-.23h-.01c-.21,.3-.55,.47-.96,.47-.88,0-1.51-.71-1.51-1.74,0-1.14,.74-1.87,1.62-1.87,.49,0,.79,.21,.98,.5h.01l.04-.42h.96Zm-1.14,1.45c0-.07,0-.15-.02-.2-.08-.29-.29-.49-.6-.49-.4,0-.73,.36-.73,1.01,0,.53,.26,.95,.73,.95,.28,0,.51-.19,.58-.45,.03-.08,.04-.2,.04-.29v-.52Z"/><path class="cls-3" d="M17.49,8.23c0,1.3-.92,1.9-1.88,1.9-1.04,0-1.84-.68-1.84-1.83s.76-1.89,1.9-1.89,1.82,.75,1.82,1.82Zm-2.58,.04c0,.61,.25,1.07,.73,1.07,.43,0,.71-.43,.71-1.07,0-.53-.2-1.07-.71-1.07-.53,0-.73,.55-.73,1.07Z"/><path class="cls-3" d="M18.14,10.05c.01-.23,.03-.66,.03-1.06V4.88h1.11v2.03h.01c.21-.31,.58-.5,1.08-.5,.85,0,1.48,.71,1.47,1.8,0,1.28-.81,1.92-1.63,1.92-.42,0-.81-.15-1.07-.57h-.01l-.04,.49h-.94Zm1.14-1.51c0,.07,0,.14,.02,.2,.07,.3,.33,.52,.65,.52,.47,0,.76-.36,.76-1,0-.55-.25-.99-.76-.99-.3,0-.57,.23-.65,.55-.01,.07-.02,.13-.02,.2v.52Z"/></g></svg>