<svg id="Capa_1" data-name="Capa 1" xmlns="http://www.w3.org/2000/svg" viewBox="0 0 320 128"><defs><style>.cls-1{fill:#ced8db;}.cls-2{fill:#31bbe9;}.cls-3{fill:#3bb1e6;}</style></defs><path class="cls-1" d="M147,63.82v15h-2.38V76.1a4.82,4.82,0,0,1-2,2.16,6.18,6.18,0,0,1-3.09.76,6.38,6.38,0,0,1-3.5-1,6.25,6.25,0,0,1-2.32-2.69,10.44,10.44,0,0,1,0-8.16A6.41,6.41,0,0,1,136,64.45a6.18,6.18,0,0,1,3.47-1,5.86,5.86,0,0,1,3.07.77,5,5,0,0,1,2,2.18v-2.6Zm-3.57,11.7a6.79,6.79,0,0,0,1.19-4.28A6.69,6.69,0,0,0,143.38,67a4.62,4.62,0,0,0-6.84,0,6.64,6.64,0,0,0-1.24,4.27,6.46,6.46,0,0,0,1.23,4.23A4.21,4.21,0,0,0,140,77,4.1,4.1,0,0,0,143.38,75.52Z"/><path class="cls-1" d="M164.79,63.85l-6.46,15H156l-6.38-15h2.53l5.07,12.34,5.12-12.34Z"/><path class="cls-1" d="M180.46,63.82v15h-2.38V76.1a4.82,4.82,0,0,1-2,2.16A6.14,6.14,0,0,1,173,79a6.36,6.36,0,0,1-3.5-1,6.2,6.2,0,0,1-2.33-2.69,9.57,9.57,0,0,1-.82-4.07,9.43,9.43,0,0,1,.84-4.09,6.36,6.36,0,0,1,2.34-2.76,6.16,6.16,0,0,1,3.47-1,5.85,5.85,0,0,1,3.06.77,5,5,0,0,1,2,2.18v-2.6Zm-3.57,11.7a6.79,6.79,0,0,0,1.19-4.28A6.69,6.69,0,0,0,176.89,67a4.12,4.12,0,0,0-3.4-1.49A4.16,4.16,0,0,0,170.05,67a6.64,6.64,0,0,0-1.23,4.27A6.46,6.46,0,0,0,170,75.53,4.21,4.21,0,0,0,173.49,77,4.1,4.1,0,0,0,176.89,75.52Z"/><path class="cls-1" d="M198,69.39v9.42H195.6v-9.3a4.59,4.59,0,0,0-.84-3.05,3.26,3.26,0,0,0-2.62-1,4.48,4.48,0,0,0-3.34,1.28,4.77,4.77,0,0,0-1.25,3.46v8.58h-2.41V68a33.41,33.41,0,0,0-.24-4.2h2.3l.23,2.68a5,5,0,0,1,2.06-2.24,6.12,6.12,0,0,1,3.13-.79Q198,63.47,198,69.39Z"/><path class="cls-1" d="M205.05,78.06a6.38,6.38,0,0,1-2.5-2.69,9,9,0,0,1-.88-4.07,8.89,8.89,0,0,1,.9-4.09,6.47,6.47,0,0,1,2.54-2.76,7.39,7.39,0,0,1,3.86-1,8.43,8.43,0,0,1,2.94.52,6.27,6.27,0,0,1,2.33,1.44l-.8,1.79a8.56,8.56,0,0,0-2.19-1.31,5.77,5.77,0,0,0-2.16-.42,4.46,4.46,0,0,0-3.6,1.54,6.32,6.32,0,0,0-1.31,4.27,6.3,6.3,0,0,0,1.29,4.22,4.54,4.54,0,0,0,3.62,1.5,5.77,5.77,0,0,0,2.16-.42,8.28,8.28,0,0,0,2.19-1.31l.8,1.79a6.78,6.78,0,0,1-2.39,1.42,9,9,0,0,1-3,.52A7.35,7.35,0,0,1,205.05,78.06Z"/><path class="cls-1" d="M229.85,71.24h-11a6.39,6.39,0,0,0,1.33,4.32A4.78,4.78,0,0,0,224,77a7.59,7.59,0,0,0,4.82-1.76l.81,1.76a7,7,0,0,1-2.52,1.46,9.38,9.38,0,0,1-3.14.54A7.32,7.32,0,0,1,218.41,77a7.85,7.85,0,0,1-2-5.68,9,9,0,0,1,.89-4.06,6.63,6.63,0,0,1,2.5-2.76,6.88,6.88,0,0,1,3.67-1,5.9,5.9,0,0,1,4.68,2,7.91,7.91,0,0,1,1.69,5.37Zm-9.39-4.77A5.47,5.47,0,0,0,219,69.66h8.73a5.07,5.07,0,0,0-1.24-3.21,3.84,3.84,0,0,0-2.93-1.11A4.23,4.23,0,0,0,220.46,66.47Z"/><path class="cls-1" d="M254.49,56.88V78.81h-2.38V76.1a4.79,4.79,0,0,1-2,2.16,6.6,6.6,0,0,1-6.55-.23,6.53,6.53,0,0,1-2.34-2.75,9.62,9.62,0,0,1-.83-4.1,9.37,9.37,0,0,1,.82-4.06,6.13,6.13,0,0,1,2.34-2.7,6.36,6.36,0,0,1,3.48-1,6,6,0,0,1,3.07.76,4.78,4.78,0,0,1,2,2.13V56.88Zm-3.58,18.64a6.73,6.73,0,0,0,1.2-4.28,6.63,6.63,0,0,0-1.2-4.24,4,4,0,0,0-3.39-1.51A4.23,4.23,0,0,0,244.08,67a6.36,6.36,0,0,0-1.24,4.2,6.68,6.68,0,0,0,1.24,4.31A4.17,4.17,0,0,0,247.52,77,4.07,4.07,0,0,0,250.91,75.52Z"/><path class="cls-1" d="M271.71,71.24h-11A6.44,6.44,0,0,0,262,75.56,4.78,4.78,0,0,0,265.81,77a7.57,7.57,0,0,0,4.82-1.76l.81,1.76a7,7,0,0,1-2.52,1.46,9.38,9.38,0,0,1-3.14.54A7.3,7.3,0,0,1,260.27,77a7.86,7.86,0,0,1-2-5.68,8.83,8.83,0,0,1,.9-4.06,6.57,6.57,0,0,1,2.5-2.76,6.82,6.82,0,0,1,3.66-1,5.87,5.87,0,0,1,4.68,2,7.91,7.91,0,0,1,1.7,5.37Zm-9.4-4.77a5.47,5.47,0,0,0-1.51,3.19h8.73a5.12,5.12,0,0,0-1.23-3.21,3.88,3.88,0,0,0-2.94-1.11A4.23,4.23,0,0,0,262.31,66.47Z"/><path class="cls-2" d="M129,86.67v3.78h-4.27V86.67Zm-4,7h3.81v15.51H125Z"/><path class="cls-2" d="M147.42,99.7v9.52h-3.84V99.88a4.18,4.18,0,0,0-.71-2.69,2.69,2.69,0,0,0-2.18-.84,3.7,3.7,0,0,0-2.82,1.12,4.08,4.08,0,0,0-1.08,3v8.79H133V98.1a35.93,35.93,0,0,0-.24-4.39h3.59l.28,2.55a5.52,5.52,0,0,1,2.16-2.18,6.11,6.11,0,0,1,3.09-.77C145.56,93.31,147.42,95.44,147.42,99.7Z"/><path class="cls-2" d="M156.38,96.59v6.94c0,1.83.85,2.74,2.55,2.74a5.25,5.25,0,0,0,1.54-.25v3a7.16,7.16,0,0,1-2.46.37,5.35,5.35,0,0,1-4-1.47,5.92,5.92,0,0,1-1.42-4.24V96.59h-3V93.71h3V89.93l3.84-1.29v5.07h4.12v2.88Z"/><path class="cls-2" d="M176.71,101.66H166a5.58,5.58,0,0,0,1.24,3.67,4.38,4.38,0,0,0,3.33,1.18,7.67,7.67,0,0,0,4.73-1.65l1.11,2.64a8.64,8.64,0,0,1-2.72,1.42,10.28,10.28,0,0,1-3.27.54,8.13,8.13,0,0,1-6-2.15,7.91,7.91,0,0,1-2.18-5.89,9.1,9.1,0,0,1,.95-4.21,7.05,7.05,0,0,1,2.67-2.87,7.43,7.43,0,0,1,3.9-1,6.46,6.46,0,0,1,5.06,2.07,8.26,8.26,0,0,1,1.85,5.7ZM167.39,97a4.43,4.43,0,0,0-1.24,2.62h7.22A4.39,4.39,0,0,0,172.31,97a3.25,3.25,0,0,0-2.41-.89A3.51,3.51,0,0,0,167.39,97Z"/><path class="cls-2" d="M189.86,93.58l0,3.51a5.28,5.28,0,0,0-2-.4,3.84,3.84,0,0,0-3,1.13,4.3,4.3,0,0,0-1,3v8.39H180V98.1a33.91,33.91,0,0,0-.25-4.39h3.6l.3,2.73a4.62,4.62,0,0,1,1.85-2.3,5.21,5.21,0,0,1,2.85-.8A4.45,4.45,0,0,1,189.86,93.58Z"/><path class="cls-2" d="M194.52,108.48a6.77,6.77,0,0,1-2.73-2.78,9,9,0,0,1-.95-4.22,8.77,8.77,0,0,1,1-4.27,7,7,0,0,1,2.82-2.87,8.44,8.44,0,0,1,4.23-1,9.89,9.89,0,0,1,3.2.52,6.35,6.35,0,0,1,2.48,1.44L203.49,98a7.28,7.28,0,0,0-2.09-1.22,6.27,6.27,0,0,0-2.18-.41,4.13,4.13,0,0,0-3.25,1.3,6.66,6.66,0,0,0,0,7.51,4.16,4.16,0,0,0,3.27,1.29,5.87,5.87,0,0,0,2.18-.43,7.32,7.32,0,0,0,2.09-1.23l1.08,2.71a7,7,0,0,1-2.55,1.44,10.3,10.3,0,0,1-3.29.52A8.64,8.64,0,0,1,194.52,108.48Z"/><path class="cls-2" d="M210,108.48a6.76,6.76,0,0,1-2.77-2.81,10,10,0,0,1,0-8.57A6.76,6.76,0,0,1,210,94.29a8.58,8.58,0,0,1,4.16-1,8.41,8.41,0,0,1,4.11,1A6.71,6.71,0,0,1,221,97.1a9.95,9.95,0,0,1,0,8.57,6.71,6.71,0,0,1-2.75,2.81,8.41,8.41,0,0,1-4.11,1A8.58,8.58,0,0,1,210,108.48Zm7.12-3.3a5.94,5.94,0,0,0,1-3.8,6,6,0,0,0-1-3.79,4,4,0,0,0-5.93,0,5.94,5.94,0,0,0-1,3.79,6,6,0,0,0,1,3.8,4.13,4.13,0,0,0,6,0Z"/><path class="cls-2" d="M239.76,99.7v9.52h-3.84V99.88a4.12,4.12,0,0,0-.71-2.69,2.68,2.68,0,0,0-2.18-.84,3.73,3.73,0,0,0-2.82,1.12,4.08,4.08,0,0,0-1.08,3v8.79h-3.8V98.1a35.79,35.79,0,0,0-.25-4.39h3.59l.28,2.55a5.52,5.52,0,0,1,2.16-2.18,6.14,6.14,0,0,1,3.09-.77Q239.77,93.31,239.76,99.7Z"/><path class="cls-2" d="M257.42,101.66H246.73a5.63,5.63,0,0,0,1.24,3.67,4.39,4.39,0,0,0,3.34,1.18,7.69,7.69,0,0,0,4.73-1.65l1.1,2.64a8.53,8.53,0,0,1-2.72,1.42,10.19,10.19,0,0,1-3.27.54,8.14,8.14,0,0,1-6-2.15,7.91,7.91,0,0,1-2.18-5.89,9,9,0,0,1,1-4.21,6.92,6.92,0,0,1,2.67-2.87,7.38,7.38,0,0,1,3.9-1,6.44,6.44,0,0,1,5.05,2.07,8.22,8.22,0,0,1,1.86,5.7ZM248.1,97a4.44,4.44,0,0,0-1.25,2.62h7.22A4.33,4.33,0,0,0,253,97a3.24,3.24,0,0,0-2.41-.89A3.48,3.48,0,0,0,248.1,97Z"/><path class="cls-2" d="M275.66,109.22h-4.58L266.91,104l-4.18,5.26h-4.54l6.51-8-6.12-7.52h4.55l3.78,4.82,3.77-4.82h4.58l-6.11,7.52Z"/><path class="cls-2" d="M281.46,86.67v3.78h-4.27V86.67Zm-4,7h3.81v15.51h-3.81Z"/><path class="cls-2" d="M288.33,108.48a6.76,6.76,0,0,1-2.77-2.81,10,10,0,0,1,0-8.57,6.76,6.76,0,0,1,2.77-2.81,8.55,8.55,0,0,1,4.16-1,8.44,8.44,0,0,1,4.11,1,6.71,6.71,0,0,1,2.75,2.81,9.95,9.95,0,0,1,0,8.57,6.71,6.71,0,0,1-2.75,2.81,8.44,8.44,0,0,1-4.11,1A8.55,8.55,0,0,1,288.33,108.48Zm7.12-3.3a5.94,5.94,0,0,0,1-3.8,6,6,0,0,0-1-3.79,4,4,0,0,0-5.93,0,7.44,7.44,0,0,0,0,7.59,4.13,4.13,0,0,0,6,0Zm-4.22-13.47,3.07-6.33h3.93l-4.51,6.33Z"/><path class="cls-2" d="M318.07,99.7v9.52h-3.84V99.88a4.18,4.18,0,0,0-.71-2.69,2.68,2.68,0,0,0-2.18-.84,3.71,3.71,0,0,0-2.82,1.12,4.08,4.08,0,0,0-1.08,3v8.79h-3.81V98.1a35.93,35.93,0,0,0-.24-4.39H307l.28,2.55a5.52,5.52,0,0,1,2.16-2.18,6.11,6.11,0,0,1,3.09-.77Q318.08,93.31,318.07,99.7Z"/><path class="cls-3" d="M118.47,73.37l-10.58,2.44L104,79.89l-1.23,5-2.71,2.86-7.55,2.44-7.56-4-4.6-5.8-3-9.36.48-9.32,1.67-1.66-2.14-3.18-7-3.81-5.21-8.74c-1.84-2.14-7-4-7-4l-3.89,2.77L46.4,34.86l-6.32-3.08-15.6.44L6.88,24.6,2.51,26.09S12,45.88,12.5,47.37a23.5,23.5,0,0,1-3.33.51l-.21,2,7.91,5.54,1.84,5,3,3.48,3.41,5.83,3.2-2.4-2-4.85-8-16.62L14.5,39l-1.58-5.3,2.78.9L38.78,67.71l5.86,11.1-.86,4.62,19,13.71,16.53,6.08,2,0a4.35,4.35,0,0,1-.13-1,4.1,4.1,0,1,1,8.2-.4,2.67,2.67,0,0,1,0,.4,4.13,4.13,0,0,1-.08.78l4.44-.11,6.77,3.51,1.76-1.84-.46-3.2,4.57-.33,2-3.57s-3.08-2.94-3.17-3.69h.09l4.3-.45,3.6-4.14,2.72.51,5.47-14.42A32.51,32.51,0,0,0,118.47,73.37ZM39.92,49a6.43,6.43,0,1,1,6.43-6.44v0A6.43,6.43,0,0,1,39.92,49Zm26.4,35a4.11,4.11,0,1,1,4.11-4.11h0A4.11,4.11,0,0,1,66.32,84Z"/><rect class="cls-3" x="50.12" y="24.22" width="13.55" height="2.97"/><rect class="cls-3" x="50.12" y="31.5" width="13.55" height="2.97"/><rect class="cls-3" x="102.17" y="57.78" width="13.55" height="2.97"/><rect class="cls-3" x="102.17" y="65.06" width="13.55" height="2.97"/><rect class="cls-3" x="16.07" y="92.32" width="13.55" height="2.97"/><rect class="cls-3" x="16.07" y="99.6" width="13.55" height="2.97"/><rect class="cls-3" x="60.81" y="104.97" width="13.55" height="2.97"/><rect class="cls-3" x="60.81" y="112.24" width="13.55" height="2.97"/><path class="cls-1" d="M105.52,73a6.17,6.17,0,0,0-6.1,5.22l-26.87.22a6.41,6.41,0,0,0-7.72-4.75,6.55,6.55,0,0,0-1.22.43L44.26,47.27a6.41,6.41,0,1,0-5.62,1.57l-.78,34.29a6.4,6.4,0,1,0,7.62,5L61.14,83.7a6.4,6.4,0,0,0,8.22,1.87l11.6,12a6.43,6.43,0,1,0,10.17,1.8l11.61-14.66a6.18,6.18,0,0,0,5.62-11A6.09,6.09,0,0,0,105.52,73ZM35.82,42.56a4.11,4.11,0,1,1,4.11,4.1h0A4.11,4.11,0,0,1,35.82,42.56ZM59.9,79.89a6.55,6.55,0,0,0,.32,2L44.8,86.26a6.43,6.43,0,0,0-5-3.26l.78-34.08a6.28,6.28,0,0,0,2.08-.55L61.92,75.22A6.4,6.4,0,0,0,59.9,79.89Zm2.32,0A4.11,4.11,0,1,1,66.33,84h0A4.12,4.12,0,0,1,62.22,79.89Zm23.15,26.39a4.11,4.11,0,1,1,4.11-4.11h0a4.11,4.11,0,0,1-4.1,4.1ZM90,97.7a6.41,6.41,0,0,0-7.21-1.41L71.06,84.22a6.33,6.33,0,0,0,1.66-3.81l26.73-.23a6.24,6.24,0,0,0,1.75,3.4Z"/></svg>