<svg id="Capa_1" data-name="Capa 1" xmlns="http://www.w3.org/2000/svg" viewBox="0 0 320 128"><defs><style>.cls-1{fill:#ced8db;}.cls-2{fill:#31bbe9;}.cls-3{fill:#3aafe4;}</style></defs><path class="cls-1" d="M129.24,69.24v9.42h-2.41v-9.3a5.08,5.08,0,0,0-.73-3.07,2.82,2.82,0,0,0-2.37-1,3.7,3.7,0,0,0-3,1.28,5.26,5.26,0,0,0-1.07,3.49v8.55h-2.42v-9.3a5,5,0,0,0-.74-3,2.81,2.81,0,0,0-2.39-1,3.72,3.72,0,0,0-3,1.28,5.21,5.21,0,0,0-1.09,3.49v8.55h-2.41V67.87a33.3,33.3,0,0,0-.24-4.2h2.29l.24,2.62a4.8,4.8,0,0,1,1.86-2.2,6,6,0,0,1,5.8-.06,4.13,4.13,0,0,1,1.67,2.2,5.28,5.28,0,0,1,2-2.13,5.82,5.82,0,0,1,3-.79C127.59,63.31,129.24,65.29,129.24,69.24Z"/><path class="cls-1" d="M146.38,71.09h-11a6.44,6.44,0,0,0,1.33,4.32,4.76,4.76,0,0,0,3.77,1.46,7.54,7.54,0,0,0,4.83-1.76l.8,1.76a6.76,6.76,0,0,1-2.51,1.46,9.48,9.48,0,0,1-3.15.54,7.3,7.3,0,0,1-5.51-2.07,7.86,7.86,0,0,1-2-5.68,9,9,0,0,1,.89-4.07,6.69,6.69,0,0,1,2.51-2.75,6.83,6.83,0,0,1,3.66-1,5.87,5.87,0,0,1,4.68,2,7.91,7.91,0,0,1,1.7,5.38ZM137,66.32a5.47,5.47,0,0,0-1.51,3.19h8.74A5.13,5.13,0,0,0,143,66.29a3.9,3.9,0,0,0-2.94-1.1A4.23,4.23,0,0,0,137,66.32Z"/><path class="cls-1" d="M158.39,63.49l-.06,2.21a4.73,4.73,0,0,0-1.58-.24,3.85,3.85,0,0,0-3.23,1.35,5.26,5.26,0,0,0-1.06,3.3v8.55h-2.41V67.87a33.3,33.3,0,0,0-.24-4.2h2.3l.23,2.77a4.58,4.58,0,0,1,1.82-2.32,5.17,5.17,0,0,1,2.86-.81A4.89,4.89,0,0,1,158.39,63.49Z"/><path class="cls-1" d="M163,77.92a6.4,6.4,0,0,1-2.5-2.7,9.87,9.87,0,0,1,0-8.17,6.58,6.58,0,0,1,2.55-2.75,7.37,7.37,0,0,1,3.86-1,8.57,8.57,0,0,1,2.93.52,6.25,6.25,0,0,1,2.34,1.45l-.8,1.79a8.61,8.61,0,0,0-2.19-1.31,5.84,5.84,0,0,0-2.16-.42,4.51,4.51,0,0,0-3.61,1.53,6.42,6.42,0,0,0-1.31,4.28,6.25,6.25,0,0,0,1.3,4.22,4.52,4.52,0,0,0,3.62,1.5,6,6,0,0,0,2.16-.41,9,9,0,0,0,2.19-1.32l.8,1.79a6.74,6.74,0,0,1-2.4,1.42,8.67,8.67,0,0,1-3,.52A7.42,7.42,0,0,1,163,77.92Z"/><path class="cls-1" d="M188.5,63.67v15h-2.39V76a4.71,4.71,0,0,1-2,2.16,6,6,0,0,1-3.08.76,6.47,6.47,0,0,1-3.51-1,6.33,6.33,0,0,1-2.32-2.7,9.42,9.42,0,0,1-.82-4.07,9.62,9.62,0,0,1,.83-4.1,6.53,6.53,0,0,1,2.34-2.75,6.19,6.19,0,0,1,3.48-1,5.91,5.91,0,0,1,3.07.78,5,5,0,0,1,2,2.17V63.67Zm-3.58,11.7a6.73,6.73,0,0,0,1.19-4.28,6.63,6.63,0,0,0-1.19-4.26,4.11,4.11,0,0,0-3.4-1.49,4.18,4.18,0,0,0-3.44,1.53,6.69,6.69,0,0,0-1.24,4.28,6.46,6.46,0,0,0,1.23,4.23,4.18,4.18,0,0,0,3.45,1.49A4.09,4.09,0,0,0,184.92,75.37Z"/><path class="cls-1" d="M206.38,56.73V78.66H204V76a4.79,4.79,0,0,1-2,2.16,6,6,0,0,1-3.08.76,6.24,6.24,0,0,1-3.47-1,6.48,6.48,0,0,1-2.34-2.76,9.47,9.47,0,0,1-.84-4.1A9.6,9.6,0,0,1,193.1,67a6.23,6.23,0,0,1,2.34-2.69,6.42,6.42,0,0,1,3.49-1,6,6,0,0,1,3.07.76,4.89,4.89,0,0,1,2,2.13V56.73ZM202.8,75.37a6.73,6.73,0,0,0,1.2-4.28,6.68,6.68,0,0,0-1.2-4.25,4.07,4.07,0,0,0-3.39-1.5A4.26,4.26,0,0,0,196,66.83a6.41,6.41,0,0,0-1.23,4.2A6.74,6.74,0,0,0,196,75.34a4.2,4.2,0,0,0,3.45,1.53A4.07,4.07,0,0,0,202.8,75.37Z"/><path class="cls-1" d="M213.53,77.92a6.36,6.36,0,0,1-2.48-2.72,10,10,0,0,1,0-8.22,6.33,6.33,0,0,1,2.48-2.71,7.73,7.73,0,0,1,7.46,0A6.33,6.33,0,0,1,223.47,67a10,10,0,0,1,0,8.22A6.36,6.36,0,0,1,221,77.92a7.8,7.8,0,0,1-7.46,0Zm7.16-2.52a6.77,6.77,0,0,0,1.19-4.31,6.62,6.62,0,0,0-1.22-4.25,4.64,4.64,0,0,0-6.83,0,6.62,6.62,0,0,0-1.22,4.25,6.65,6.65,0,0,0,1.21,4.31,4.75,4.75,0,0,0,6.87,0Z"/><path class="cls-1" d="M249.09,56.73V78.66h-2.38V76a4.79,4.79,0,0,1-2,2.16,6,6,0,0,1-3.08.76,6.24,6.24,0,0,1-3.47-1,6.48,6.48,0,0,1-2.34-2.76A9.47,9.47,0,0,1,235,71a9.6,9.6,0,0,1,.82-4.07,6.23,6.23,0,0,1,2.34-2.69,6.42,6.42,0,0,1,3.49-1,6,6,0,0,1,3.07.76,4.89,4.89,0,0,1,2,2.13V56.73Zm-3.58,18.64a6.73,6.73,0,0,0,1.2-4.28,6.68,6.68,0,0,0-1.2-4.25,4.07,4.07,0,0,0-3.39-1.5,4.26,4.26,0,0,0-3.45,1.49,6.41,6.41,0,0,0-1.23,4.2,6.74,6.74,0,0,0,1.23,4.31,4.2,4.2,0,0,0,3.45,1.53A4.07,4.07,0,0,0,245.51,75.37Z"/><path class="cls-1" d="M256.48,57.32v2.74h-3V57.32Zm-2.71,6.35h2.41v15h-2.41Z"/><path class="cls-1" d="M274.22,63.67V78.54a6,6,0,0,1-6.77,6.77,10.93,10.93,0,0,1-5.9-1.55l.42-2A11.87,11.87,0,0,0,264.66,83a10.24,10.24,0,0,0,2.79.36,4.34,4.34,0,0,0,3.28-1.15,4.75,4.75,0,0,0,1.1-3.41V75.2a5,5,0,0,1-2,2.22,6,6,0,0,1-3.14.79,6.64,6.64,0,0,1-3.51-.92,6.16,6.16,0,0,1-2.37-2.62,9.6,9.6,0,0,1,0-7.81,6.16,6.16,0,0,1,2.37-2.62,6.65,6.65,0,0,1,3.51-.93,6,6,0,0,1,3.11.78,5,5,0,0,1,2,2.17V63.67Zm-3.65,11.07a7.05,7.05,0,0,0,0-8,4.28,4.28,0,0,0-3.42-1.44,4.39,4.39,0,0,0-3.47,1.44,6.87,6.87,0,0,0,0,8,4.36,4.36,0,0,0,3.47,1.45A4.26,4.26,0,0,0,270.57,74.74Z"/><path class="cls-1" d="M281.58,57.32v2.74h-2.95V57.32Zm-2.71,6.35h2.41v15h-2.41Z"/><path class="cls-1" d="M289.18,65.58v8.19a3.22,3.22,0,0,0,.68,2.34,2.66,2.66,0,0,0,1.94.67,5.12,5.12,0,0,0,1.61-.26v2a6.72,6.72,0,0,1-2.09.3A4.51,4.51,0,0,1,288,77.66a4.84,4.84,0,0,1-1.21-3.56V65.58h-2.92V63.67h2.92V59.82l2.42-.86v4.71h4.29v1.91Z"/><path class="cls-1" d="M309.6,63.67v15h-2.39V76a4.82,4.82,0,0,1-2,2.16,6.08,6.08,0,0,1-3.09.76,6.46,6.46,0,0,1-3.5-1,6.27,6.27,0,0,1-2.32-2.7,9.42,9.42,0,0,1-.82-4.07,9.62,9.62,0,0,1,.83-4.1,6.53,6.53,0,0,1,2.34-2.75,6.16,6.16,0,0,1,3.47-1,5.86,5.86,0,0,1,3.07.78,5,5,0,0,1,2,2.17V63.67ZM306,75.37a6.79,6.79,0,0,0,1.19-4.28A6.69,6.69,0,0,0,306,66.83a4.12,4.12,0,0,0-3.4-1.49,4.17,4.17,0,0,0-3.44,1.53,6.63,6.63,0,0,0-1.24,4.28,6.52,6.52,0,0,0,1.22,4.23,4.21,4.21,0,0,0,3.46,1.49A4.1,4.1,0,0,0,306,75.37Z"/><path class="cls-1" d="M314.27,56.73h2.42V78.66h-2.42Z"/><path class="cls-1" d="M75,39.45a5.21,5.21,0,1,1-5.17-5.19A5.14,5.14,0,0,1,75,39.45Zm-5.15,2.76a2.8,2.8,0,0,0,2.78-2.82,2.83,2.83,0,0,0-2.85-2.78A2.8,2.8,0,0,0,67,39.45,2.74,2.74,0,0,0,69.86,42.21Z"/><path class="cls-1" d="M82.32,40.66c0-1.27-.46-2.63.93-3.66,1.16-.87,1.2-1.87.47-3.16s-1.36-2.39-2.07-3.58A2.35,2.35,0,0,0,78.58,29a3.15,3.15,0,0,1-4.13-2.42,2.26,2.26,0,0,0-2.53-2H68c-1.79,0-2.41.47-2.85,2.19-.11.42-.17,1.06-.46,1.21-1.09.59-2,1.64-3.57,1S58.78,28.94,58,30.3c-.64,1.07-1.26,2.16-1.88,3.24-.94,1.66-.83,2.4.54,3.71a3.11,3.11,0,0,1,0,4.3,3,3,0,0,0-1.23,2.15l.06.17c.1,0,.2,0,.32,0a12.27,12.27,0,0,1,2.27,0,.69.69,0,0,1,.31-.72c.29-.24.54-.54.84-.78a2,2,0,0,0,.64-1.79c0-.76,0-1.3,0-2a3,3,0,0,0-.91-2.44c-1.14-1-.82-1.58-.39-2.35.17-.31.42-1,.59-1.34a1.73,1.73,0,0,1,1-.95c.54-.27,1.42.23,2.16.29a2.46,2.46,0,0,0,1.25-.27c.63-.31,2-1.11,2.59-1.49,1.07-.66,1-.78,1.1-2,.08-.91.54-1.17,1.4-1.1a22,22,0,0,0,2.69,0,.79.79,0,0,1,1,.78c0,.31.17.62.22.93.13.77.61,1.11,1.28,1.54s1.57.73,2,1a2.37,2.37,0,0,0,2.64.25c.68-.31,1-.08,1.45.54.66.88.82,1.19,1.33,2a1.6,1.6,0,0,1-.11,1.74,2.87,2.87,0,0,0-1.56,2.93c0,.13.19,2.21.21,2.34a2.53,2.53,0,0,0,1.45,2.17c.42.29.45.62.17,1.06-.57.93-1.07,1.9-1.68,2.8a1.16,1.16,0,0,1-.89.37c-.44,0-.87-.31-1.3-.31a2.61,2.61,0,0,0-1.61.3,14.78,14.78,0,0,0-2,1.12c-.81.57-1.26.85-1.46,1.72-.43,1.82,0,1.57-2,1.59-.7,0-1.41,0-2.11,0a1.45,1.45,0,0,1-.37,0c.09.26.18.52.26.79a1.59,1.59,0,0,0,1,.92,11,11,0,0,1,1.93.72h.44c1.85,0,2.51-.51,3-2.32.11-.4.16-1,.42-1.13,1.13-.57,2.06-1.71,3.65-1,1.33.59,2.31.06,3.06-1.21s1.32-2.27,2-3.41c.83-1.45.72-2.25-.45-3.43C82.86,41.41,82.32,41,82.32,40.66Z"/><path class="cls-1" d="M64.91,88.46,94,50.76c.24-.71.86-8.23,6.64-9.81,1.34-.87,7.61-.22,8.54.43L130,47.07c-.24.71.92,5-.87,4.34l-24.7-3.47C100.3,54,95.24,60.89,95,61.59L70.29,98.64a1.35,1.35,0,0,1-1.72.82L4.1,76.32c-.86-.31-2.81-41.49-3-49.83L6.92,31c.35-.45,3,39.78,3.51,40L63.2,89.29A1.35,1.35,0,0,0,64.91,88.46Z"/><path class="cls-1" d="M8.31,89.4a8.79,8.79,0,1,1,5.3,11.23A8.87,8.87,0,0,1,8.31,89.4Zm12.33,4.49a4.33,4.33,0,1,0-5.57,2.55A4.35,4.35,0,0,0,20.64,93.89Z"/><path class="cls-1" d="M57.6,97.71a8.59,8.59,0,1,1-11,5.3A8.61,8.61,0,0,1,57.6,97.71Zm1.15,9.52a4.24,4.24,0,1,0-8-2.89,4.24,4.24,0,1,0,8,2.89Z"/><path class="cls-1" d="M25.3,27a4.56,4.56,0,0,0,.81-.28l5.24,9.53-.09.12a15.84,15.84,0,0,1,3.91-1.57,4.22,4.22,0,0,0-1.54.06,4.46,4.46,0,0,0-1.25.52L27.21,26a4.28,4.28,0,0,0,1.38-3.72l22.29-4.63a4.38,4.38,0,0,0,.67,1.22L38,34.32c.6,0,1.2-.07,1.81,0L52.51,19.76a4.29,4.29,0,1,0-1.86-3.43L28.22,21a4.29,4.29,0,1,0-2.92,6Zm29-13.44a2.74,2.74,0,1,1-2,3.29A2.75,2.75,0,0,1,54.32,13.55Z"/><path class="cls-2" d="M123.07,93.57v15.52h-3.78V106.6a5,5,0,0,1-2,2,6.2,6.2,0,0,1-3,.72,6.61,6.61,0,0,1-3.6-1,6.51,6.51,0,0,1-2.42-2.8,9.59,9.59,0,0,1-.86-4.21,9.93,9.93,0,0,1,.87-4.25,7,7,0,0,1,2.44-2.89,6.35,6.35,0,0,1,3.57-1,6.2,6.2,0,0,1,3,.72,5,5,0,0,1,2,2V93.57ZM118.24,105a5.84,5.84,0,0,0,1.05-3.72,6,6,0,0,0-1.05-3.78,3.57,3.57,0,0,0-3-1.32,3.53,3.53,0,0,0-3,1.37,6,6,0,0,0-1.06,3.79A5.65,5.65,0,0,0,112.3,105a3.64,3.64,0,0,0,3,1.29A3.54,3.54,0,0,0,118.24,105Z"/><path class="cls-2" d="M141.69,99.56v9.53h-3.84V99.75a4.16,4.16,0,0,0-.71-2.69,2.67,2.67,0,0,0-2.18-.85,3.77,3.77,0,0,0-2.83,1.12,4.1,4.1,0,0,0-1.07,3v8.79h-3.81V98a35.91,35.91,0,0,0-.25-4.39h3.59l.28,2.55A5.61,5.61,0,0,1,133,93.94a6.21,6.21,0,0,1,3.09-.77C139.83,93.17,141.69,95.3,141.69,99.56Z"/><path class="cls-2" d="M150.66,96.46v6.94c0,1.83.85,2.74,2.55,2.74a5.3,5.3,0,0,0,1.54-.25v3a7.16,7.16,0,0,1-2.46.37,5.37,5.37,0,0,1-4.06-1.47,5.91,5.91,0,0,1-1.41-4.24V96.46h-3V93.57h3V89.79l3.84-1.29v5.07h4.12v2.89Z"/><path class="cls-2" d="M161.44,86.53v3.78h-4.27V86.53Zm-4,7h3.81v15.52h-3.81Z"/><path class="cls-2" d="M168.26,108.35a6.71,6.71,0,0,1-2.73-2.78,9.75,9.75,0,0,1,.05-8.5,7.08,7.08,0,0,1,2.82-2.87,8.44,8.44,0,0,1,4.23-1,10.28,10.28,0,0,1,3.21.52,6.2,6.2,0,0,1,2.47,1.45l-1.07,2.7a7.52,7.52,0,0,0-2.09-1.21,6.15,6.15,0,0,0-2.18-.42,4.15,4.15,0,0,0-3.26,1.31,6.66,6.66,0,0,0,0,7.51,4.17,4.17,0,0,0,3.28,1.29,6,6,0,0,0,2.18-.43,7.86,7.86,0,0,0,2.09-1.23l1.07,2.71a6.82,6.82,0,0,1-2.55,1.44,10.26,10.26,0,0,1-3.29.52A8.56,8.56,0,0,1,168.26,108.35Z"/><path class="cls-2" d="M183.77,108.35a6.76,6.76,0,0,1-2.77-2.81A9.95,9.95,0,0,1,181,97a6.78,6.78,0,0,1,2.77-2.82,8.55,8.55,0,0,1,4.16-1,8.45,8.45,0,0,1,4.12,1A6.86,6.86,0,0,1,194.8,97a10,10,0,0,1,0,8.57,6.83,6.83,0,0,1-2.75,2.81,8.34,8.34,0,0,1-4.12,1A8.44,8.44,0,0,1,183.77,108.35Zm7.12-3.3a7.47,7.47,0,0,0,0-7.59,4,4,0,0,0-5.93,0,5.92,5.92,0,0,0-1,3.79,6,6,0,0,0,1,3.8,4.13,4.13,0,0,0,6,0Z"/><path class="cls-2" d="M209,93.45l0,3.5a5.32,5.32,0,0,0-2-.4,3.85,3.85,0,0,0-3,1.14,4.34,4.34,0,0,0-1,3v8.39h-3.81V98a36.05,36.05,0,0,0-.24-4.39h3.59l.31,2.74A4.59,4.59,0,0,1,204.58,94a5.27,5.27,0,0,1,2.86-.8A4.21,4.21,0,0,1,209,93.45Z"/><path class="cls-2" d="M221,93.45l0,3.5a5.28,5.28,0,0,0-2-.4,3.81,3.81,0,0,0-3,1.14,4.3,4.3,0,0,0-1,3v8.39h-3.81V98a34,34,0,0,0-.25-4.39h3.6l.3,2.74A4.6,4.6,0,0,1,216.63,94a5.24,5.24,0,0,1,2.86-.8A4.16,4.16,0,0,1,221,93.45Z"/><path class="cls-2" d="M237.31,93.57v15.52h-3.75v-2.4a5,5,0,0,1-2,2,5.78,5.78,0,0,1-2.83.67q-5.69,0-5.68-6.39V93.57h3.81V103a3.74,3.74,0,0,0,.69,2.49,2.68,2.68,0,0,0,2.14.8,3.48,3.48,0,0,0,2.7-1.11,4.17,4.17,0,0,0,1-3V93.57Z"/><path class="cls-2" d="M253.88,94.2a6.86,6.86,0,0,1,2.43,2.89,9.93,9.93,0,0,1,.88,4.25,9.74,9.74,0,0,1-.86,4.21,6.58,6.58,0,0,1-2.42,2.8,6.48,6.48,0,0,1-3.58,1,6.2,6.2,0,0,1-3-.72,5,5,0,0,1-2-2v9.12h-3.81V98a35.91,35.91,0,0,0-.25-4.39h3.59l.31,2.67a4.77,4.77,0,0,1,2-2.26,6.66,6.66,0,0,1,6.74.22ZM252.27,105a5.71,5.71,0,0,0,1-3.69,6.1,6.1,0,0,0-1-3.79,3.51,3.51,0,0,0-3-1.37,3.62,3.62,0,0,0-3,1.32,6,6,0,0,0-1.05,3.78,5.84,5.84,0,0,0,1.05,3.74,4.08,4.08,0,0,0,6,0Z"/><path class="cls-2" d="M263.36,108.35a6.65,6.65,0,0,1-2.73-2.78,9.8,9.8,0,0,1,0-8.5,7.17,7.17,0,0,1,2.83-2.87,8.44,8.44,0,0,1,4.23-1,10.28,10.28,0,0,1,3.21.52,6.2,6.2,0,0,1,2.47,1.45l-1.08,2.7a7.25,7.25,0,0,0-2.09-1.21,6.07,6.07,0,0,0-2.18-.42,4.12,4.12,0,0,0-3.25,1.31,6.66,6.66,0,0,0,0,7.51,4.16,4.16,0,0,0,3.27,1.29,5.87,5.87,0,0,0,2.18-.43,7.56,7.56,0,0,0,2.09-1.23l1.08,2.71a7,7,0,0,1-2.55,1.44,10.3,10.3,0,0,1-3.29.52A8.53,8.53,0,0,1,263.36,108.35Z"/><path class="cls-2" d="M280,86.53v3.78h-4.28V86.53Zm-4,7h3.81v15.52H276Z"/><path class="cls-2" d="M286.88,108.35a6.68,6.68,0,0,1-2.76-2.81,9.95,9.95,0,0,1,0-8.57,6.7,6.7,0,0,1,2.76-2.82,8.62,8.62,0,0,1,4.17-1,8.41,8.41,0,0,1,4.11,1A6.74,6.74,0,0,1,297.91,97a9.95,9.95,0,0,1,0,8.57,6.71,6.71,0,0,1-2.75,2.81,8.3,8.3,0,0,1-4.11,1A8.51,8.51,0,0,1,286.88,108.35Zm7.13-3.3a7.47,7.47,0,0,0,0-7.59,4,4,0,0,0-5.93,0,7.44,7.44,0,0,0,0,7.59,4.13,4.13,0,0,0,6,0Zm-4.22-13.48,3.07-6.33h3.93l-4.51,6.33Z"/><path class="cls-2" d="M316.64,99.56v9.53H312.8V99.75a4.16,4.16,0,0,0-.71-2.69,2.65,2.65,0,0,0-2.18-.85,3.73,3.73,0,0,0-2.82,1.12,4.11,4.11,0,0,0-1.08,3v8.79H302.2V98a34,34,0,0,0-.25-4.39h3.6l.28,2.55A5.59,5.59,0,0,1,308,93.94a6.21,6.21,0,0,1,3.09-.77Q316.65,93.17,316.64,99.56Z"/><path class="cls-3" d="M39.76,61l-.46-2.66-3.93-.49-1.1,2.47L31.81,60l5.13-10.35,2.79.35,2.49,11.28ZM39,56.31c-.44-2.42-.69-3.78-.74-4.09s-.09-.57-.11-.75q-.36.91-2,4.49Z"/><path class="cls-3" d="M51.93,54.92a3.32,3.32,0,0,1-1.42,2.52,4.66,4.66,0,0,1-3.2.55l-1-.12-.47,3.83-2.28-.29L44.9,50.65l3.44.42a4.58,4.58,0,0,1,2.87,1.21A3.08,3.08,0,0,1,51.93,54.92ZM46.56,56l.75.1a2.53,2.53,0,0,0,1.63-.23,1.46,1.46,0,0,0,.67-1.14,1.49,1.49,0,0,0-.29-1.24A2.06,2.06,0,0,0,48,52.93l-1-.13Z"/><path class="cls-3" d="M53.05,62.58l1.32-10.77,2.28.28L55.33,62.86Z"/><path class="cls-3" d="M12.36,58.42A12.68,12.68,0,0,1,22.65,46,1.66,1.66,0,0,0,24,44.77a16.38,16.38,0,0,1,15.87-10.5A16.16,16.16,0,0,1,54,42.81a1.69,1.69,0,0,0,1.79,1.06,11.78,11.78,0,0,1,12.43,8.74,1.63,1.63,0,0,0,1,.92A8.94,8.94,0,0,1,68.88,71c-.72.09-1.45.17-2.17.19-.9,0-1.68-.34-1.69-1.31s.76-1.27,1.68-1.29c3.8-.11,6.12-1.91,6.78-5.25A6.27,6.27,0,0,0,67.67,56a1.73,1.73,0,0,1-1.78-1.65,9.2,9.2,0,0,0-11.3-7.66c-1.26.25-1.78-.32-2.26-1.34-2.65-5.59-7.09-8.46-13.28-8.44A13.88,13.88,0,0,0,26.1,46.61a2.2,2.2,0,0,1-2.16,1.77,10.14,10.14,0,0,0-2.07,19.71c.25.09.51.16.76.26.7.29,1.12.91.77,1.53a1.82,1.82,0,0,1-1.49.83,11.48,11.48,0,0,1-3.29-1.28A12.41,12.41,0,0,1,12.36,58.42Z"/></svg>