<?xml version="1.0" encoding="UTF-8"?><svg xmlns="http://www.w3.org/2000/svg" viewBox="0 0 218.19 86.27"><defs><style>.l{fill:#3f5966;}.m{stroke:#44a6cc;}.m,.n,.o,.p,.q,.r,.s,.t{stroke-miterlimit:10;}.m,.n,.o,.t{fill:#fff;}.m,.n,.t{stroke-width:1.95px;}.u,.q{fill:#ad61a3;}.n{stroke:#8e84be;}.o{stroke:#7166ab;}.o,.p,.q,.r,.s{stroke-width:.69px;}.p,.v{fill:#44a6cc;}.p,.q,.r,.s{stroke:#fff;}.w{fill:#56585b;}.x,.s{fill:#7166ab;}.r,.y{fill:#8e84be;}.t{stroke:#ad61a3;}</style></defs><g id="a"/><g id="b"/><g id="c"><g><path class="o" d="M21.27,15.47l21.77-6.58c.73-.22,1.49,.26,1.59,1.01l3.96,28.42c.11,.77-.36,1.5-1.1,1.71l-21.6,6.22c-.91,.26-1.85-.35-1.96-1.3l-3.73-27.83c-.09-.74,.36-1.44,1.07-1.66Z"/><g id="d"><g id="e"><path class="x" d="M26.73,21.5l.58-.7c.28,.25,.65,.4,1.03,.43,.38,0,.55-.14,.55-.37s-.23-.32-.6-.48l-.54-.22c-.44-.18-.86-.55-.86-1.16,0-.71,.64-1.28,1.54-1.28,.51,0,1.01,.2,1.38,.55l-.51,.64c-.24-.21-.55-.32-.87-.32-.31,0-.51,.13-.51,.35s.27,.32,.65,.47l.53,.21c.52,.21,.84,.56,.84,1.16,0,.71-.59,1.33-1.62,1.33-.59,0-1.15-.22-1.59-.61Z"/><path class="x" d="M32.79,18.82c-.17-.17-.39-.28-.63-.29-.44,0-.78,.31-.83,1.23,.2-.24,.49-.4,.81-.42,.71,0,1.24,.41,1.24,1.33s-.64,1.43-1.39,1.43c-.8,0-1.58-.62-1.58-2.16s.8-2.22,1.69-2.22c.46,0,.91,.18,1.23,.51l-.54,.59Zm-.34,1.86c0-.47-.23-.62-.51-.62-.25,0-.48,.15-.6,.38,.09,.71,.35,.92,.61,.92s.49-.2,.49-.68Z"/><path class="x" d="M35.26,32.39c-.45-.08-.89-.2-1.32-.38l.08-.19c-3.18-1.31-4.76-4.89-3.58-8.12l-.7-.26c-1.32,3.6,.45,7.6,3.99,9.06l.12-.28c.82,.33,1.7,.5,2.59,.5v-.24c-.39,0-.79-.03-1.17-.1Z"/><path class="x" d="M41.48,20.21l.15-.16c-1.9-1.85-4.67-2.5-7.19-1.68l.23,.71c2.26-.73,4.74-.15,6.44,1.5l.2-.2c.81,.8,1.4,1.79,1.71,2.89l.23-.07c-.33-1.13-.94-2.16-1.78-2.99Z"/><rect class="x" x="36.39" y="27" width="2.44" height=".12"/><rect class="x" x="36.39" y="26.64" width="2.44" height=".12"/><rect class="x" x="36.39" y="27.36" width="1.63" height=".12"/><rect class="x" x="36.39" y="26.27" width="1.63" height=".12"/><rect class="x" x="38.23" y="27.36" width=".61" height=".12"/><rect class="x" x="38.23" y="25.54" width=".61" height=".12"/><rect class="x" x="36.39" y="27.71" width="2.44" height=".12"/><rect class="x" x="36.39" y="28.43" width="2.44" height=".12"/><rect class="x" x="37.31" y="28.07" width="1.53" height=".12"/><rect class="x" x="36.39" y="28.07" width=".71" height=".12"/><rect class="x" x="36.39" y="28.79" width=".41" height=".12"/><rect class="x" x="37.01" y="28.79" width="1.83" height=".12"/><path class="x" d="M39.61,24.38h-3c-.28,0-.51,.23-.51,.51v.11c-.29,.14-.48,.43-.48,.75v3.2c0,.46,.37,.83,.83,.83h2.36c.34,0,.65-.21,.77-.53h.03c.28,0,.51-.23,.51-.51v-3.84c0-.28-.21-.5-.49-.51,0,0,0,0-.01,0Zm-.8,5.18h-2.37c-.34,0-.61-.27-.61-.61h0v-3.21c0-.34,.27-.61,.61-.61h2.37c.34,0,.61,.27,.61,.61h0v3.21c0,.34-.27,.61-.61,.61Zm1.09-.83c0,.15-.11,.28-.26,.29v-3.6c0-.28-.23-.51-.51-.51h-2.82v-.03c0-.16,.13-.29,.29-.3h3.01c.16,0,.3,.13,.3,.29h0v3.85h-.01Z"/><path class="x" d="M33.37,28.34c-.01-.06-.07-.09-.13-.08h0c-.06,.01-.09,.07-.08,.13,.06,.24,.15,.47,.24,.7,.02,.04,.06,.07,.1,.06,.01,0,.03,0,.04,0,.05-.02,.08-.09,.06-.14-.1-.22-.17-.44-.23-.67Z"/><path class="x" d="M38.79,31.69c-.09,.02-.17,.03-.26,.05,.02,.07,.03,.14,.03,.22,.09-.01,.18-.03,.27-.05,.06-.01,.1-.07,.09-.13s-.07-.1-.13-.09h0Z"/><path class="x" d="M36.72,31.76c-.01,.06,.02,.12,.08,.13h0c.08,.02,.15,.04,.23,.05,0-.07,.01-.15,.04-.22-.07-.01-.15-.03-.22-.04-.06-.01-.11,.02-.13,.08h0Z"/><path class="x" d="M39.98,31.27c-.21,.11-.43,.2-.65,.27-.05,.02-.08,.08-.06,.14,.02,.04,.06,.07,.1,.07,.01,0,.02,0,.04,0,.23-.08,.46-.18,.67-.29,.05-.03,.07-.09,.04-.14-.03-.05-.09-.07-.14-.04Z"/><path class="x" d="M36.3,31.53c-.22-.08-.43-.18-.64-.29-.05-.02-.12,0-.14,.06-.02,.05,0,.1,.04,.13,.22,.12,.44,.22,.67,.3,.01,0,.02,0,.04,0,.04,0,.08-.03,.09-.06,.02-.05,0-.12-.06-.14h0Z"/><path class="x" d="M41.01,30.54c-.17,.16-.35,.31-.54,.44-.05,.03-.06,.1-.03,.15h0s.05,.06,.09,.05c.02,0,.04,0,.06-.02,.2-.14,.39-.29,.57-.46,.04-.04,.04-.11,0-.15-.04-.04-.1-.05-.14-.01h0Z"/><path class="x" d="M42.44,28.33c-.05-.02-.11,0-.13,.06h0c-.06,.24-.14,.46-.24,.68-.03,.05-.01,.11,.03,.14h.01s.03,.01,.04,0c.04,0,.08-.02,.09-.05,.1-.22,.19-.45,.25-.69,.02-.05,0-.11-.05-.13h-.02Z"/><path class="x" d="M42.58,27.02c-.06,0-.11,.05-.11,.11h0c0,.25-.02,.49-.05,.72,0,.06,.03,.11,.09,.12h.01c.05,0,.09-.04,.1-.09,.04-.24,.06-.49,.06-.74h0c0-.07-.05-.12-.11-.12Z"/><path class="x" d="M35.12,23.37s.05,0,.06-.02c.19-.13,.39-.25,.6-.36,.05-.03,.08-.09,.05-.14s-.09-.08-.14-.05c-.22,.11-.43,.24-.63,.38-.05,.03-.06,.1-.03,.15h0s.05,.05,.09,.05Z"/><path class="x" d="M34.64,30.5s-.11-.04-.15,0c-.04,.04-.04,.11,0,.15h0c.18,.17,.37,.32,.57,.47,.02,.01,.04,.02,.06,.02,.03,0,.06-.02,.09-.04,.03-.05,.02-.12-.03-.15-.19-.13-.37-.28-.54-.45Z"/><path class="x" d="M36.26,22.77h.04c.22-.08,.44-.14,.67-.19,.06-.01,.1-.07,.09-.13-.01-.06-.07-.1-.13-.09-.24,.05-.48,.11-.71,.19-.05,.02-.08,.08-.07,.13h0s.05,.08,.1,.08Z"/><path class="x" d="M39.97,23.01c.21,.11,.41,.23,.6,.37,.02,.01,.04,.02,.06,.02,.03,0,.06-.01,.09-.04,.04-.05,.03-.11-.02-.15h0c-.2-.15-.41-.28-.62-.39-.05-.02-.12,0-.14,.06-.02,.05,0,.1,.04,.13h0Z"/><path class="x" d="M42.44,26.57c0,.05,.05,.09,.11,.09h.01c.06-.02,.1-.07,.09-.13-.03-.24-.08-.48-.14-.72-.01-.06-.07-.09-.13-.08-.06,.01-.09,.07-.08,.13h0c.06,.24,.11,.47,.14,.71Z"/><path class="x" d="M38.78,22.59c.23,.05,.45,.12,.67,.2,.01,0,.02,0,.04,0,.05,0,.09-.03,.1-.08,.02-.05-.01-.11-.06-.13-.23-.09-.46-.15-.7-.2-.06,0-.11,.04-.12,.1,0,.05,.03,.1,.08,.12h0Z"/><path class="x" d="M34.74,23.71s.05-.1,.01-.15h0s-.1-.05-.15-.01h0c-.15,.15-.3,.3-.44,.46,.07,.03,.13,.06,.19,.11,.12-.14,.25-.27,.39-.4Z"/><path class="x" d="M33.14,26.61h.01c.05,0,.1-.03,.11-.09,.03-.23,.08-.47,.14-.69,.01-.06-.02-.11-.07-.13-.06-.02-.12,.01-.14,.07-.06,.24-.12,.48-.15,.72,0,.06,.04,.11,.09,.12Z"/><path class="x" d="M33.27,27.78c-.03-.21-.04-.43-.04-.64v-.07c0-.06-.04-.11-.1-.12-.06,0-.11,.04-.12,.1,0,0,0,.02,0,.02v.06c0,.22,.01,.45,.04,.67,0,.05,.05,.09,.11,.09h.01c.06,0,.1-.06,.09-.12Z"/><path class="x" d="M41.14,23.58s-.11-.03-.15,0c-.04,.04-.04,.11,0,.15,.13,.12,.25,.25,.36,.39,.06-.05,.12-.08,.19-.11-.12-.15-.26-.3-.4-.44Z"/><path class="x" d="M37.8,21.28c-.52,0-.95,.42-.95,.94,0,.52,.42,.95,.94,.95,.52,0,.95-.42,.95-.94h0c0-.52-.42-.95-.94-.95Zm0,1.72c-.43,0-.77-.34-.78-.77,0-.43,.34-.77,.77-.78,.43,0,.77,.34,.78,.77h0c0,.43-.34,.78-.77,.78h0Z"/><path class="x" d="M37.95,22.02s-.08-.06-.13-.06c-.06,0-.09,.02-.09,.07,0,.11,.32,.1,.32,.34,0,.12-.08,.22-.19,.24v.13h-.13v-.12c-.08-.01-.16-.04-.22-.09l.09-.13s.11,.07,.17,.07c.06,0,.09-.03,.09-.08,0-.11-.32-.12-.32-.35,0-.11,.07-.21,.19-.23v-.13h.13v.13c.07,.01,.14,.05,.19,.1l-.09,.1Z"/><path class="x" d="M37.8,31.01c-.52,0-.95,.42-.95,.94,0,.52,.42,.95,.94,.95,.52,0,.95-.42,.95-.94h0c0-.52-.42-.95-.94-.95Zm0,1.72c-.43,0-.77-.34-.78-.77,0-.43,.34-.77,.77-.78,.43,0,.77,.34,.78,.77h0c0,.43-.34,.78-.77,.78h0Z"/><path class="x" d="M37.95,31.74s-.08-.06-.13-.06c-.06,0-.09,.02-.09,.07,0,.11,.32,.1,.32,.34,0,.12-.08,.22-.19,.24v.13h-.13v-.12c-.08-.01-.16-.04-.22-.09l.09-.13s.11,.07,.17,.07c.06,0,.09-.03,.09-.08,0-.11-.32-.12-.32-.35,0-.11,.07-.21,.19-.23v-.13h.13v.13c.07,.01,.14,.05,.19,.1l-.09,.1Z"/><path class="x" d="M41.85,23.77c-.52,0-.95,.42-.95,.94,0,.52,.42,.95,.94,.95,.52,0,.95-.42,.95-.94h0c0-.53-.42-.95-.94-.95Zm0,1.72c-.43,0-.77-.34-.78-.77,0-.43,.34-.77,.77-.78,.43,0,.77,.34,.78,.77h0c0,.43-.34,.77-.77,.78Z"/><path class="x" d="M42.01,24.51s-.08-.06-.13-.06c-.06,0-.09,.02-.09,.07,0,.11,.32,.1,.32,.34,0,.12-.08,.23-.19,.25v.13h-.13v-.13c-.08-.01-.16-.04-.22-.09l.09-.13s.11,.07,.17,.07c.06,0,.09-.03,.09-.08,0-.12-.32-.12-.32-.35,0-.11,.07-.21,.19-.23v-.13h.13v.13c.07,.01,.14,.05,.19,.1l-.09,.11Z"/><path class="x" d="M33.87,23.78c-.52,0-.95,.42-.95,.94,0,.52,.42,.95,.94,.95,.52,0,.95-.42,.95-.94,0-.52-.42-.94-.94-.94h0Zm0,1.71c-.43,0-.77-.34-.78-.77s.34-.77,.77-.78c.43,0,.77,.34,.78,.77,0,0,0,0,0,.01,0,.42-.34,.77-.77,.77h0Z"/><path class="x" d="M34.02,24.52s-.08-.06-.13-.06c-.06,0-.09,.02-.09,.07,0,.11,.32,.1,.32,.34,0,.12-.08,.22-.19,.24v.13h-.13v-.12c-.08-.01-.16-.04-.22-.09l.09-.14s.11,.07,.17,.07c.06,0,.09-.03,.09-.08,0-.12-.32-.13-.32-.35,0-.11,.07-.21,.19-.23v-.13h.13v.13c.07,.01,.14,.05,.19,.1l-.1,.11Z"/><path class="x" d="M41.73,29.04c-.52,0-.95,.42-.95,.94,0,.52,.42,.95,.94,.95,.52,0,.95-.42,.95-.94h0c0-.52-.42-.95-.94-.95Zm0,1.72c-.43,0-.77-.34-.78-.77,0-.43,.34-.77,.77-.78,.43,0,.77,.34,.78,.77h0c0,.43-.33,.77-.75,.78,0,0-.01,0-.02,0Z"/><path class="x" d="M41.89,29.77s-.08-.06-.13-.06c-.06,0-.09,.02-.09,.07,0,.11,.32,.1,.32,.34,0,.12-.08,.22-.19,.24v.13h-.13v-.12c-.08-.01-.16-.04-.22-.09l.09-.13s.11,.07,.17,.07c.06,0,.09-.03,.09-.08,0-.12-.32-.12-.32-.35,0-.11,.07-.21,.19-.23v-.13h.13v.13c.07,.01,.14,.05,.19,.1l-.09,.11Z"/><path class="x" d="M33.81,29.04c-.52,0-.95,.42-.95,.94,0,.52,.42,.95,.94,.95s.95-.42,.95-.94h0c0-.52-.42-.95-.94-.95Zm0,1.72c-.43,0-.77-.34-.78-.77,0-.43,.34-.77,.77-.78,.43,0,.77,.34,.78,.77h0c0,.43-.34,.78-.77,.78h0Z"/><path class="x" d="M33.95,29.77s-.08-.06-.13-.06c-.06,0-.09,.02-.09,.07,0,.11,.32,.1,.32,.34,0,.12-.08,.22-.19,.24v.13h-.13v-.12c-.08-.01-.16-.04-.22-.09l.09-.13s.11,.07,.17,.07c.06,0,.09-.03,.09-.08,0-.12-.32-.12-.32-.35,0-.11,.07-.21,.19-.23v-.13h.13v.13c.07,.01,.14,.05,.19,.1l-.09,.11Z"/></g></g><rect class="s" x="17.03" y="21.61" width="9.1" height="4.4" rx="2.2" ry="2.2" transform="translate(-4.88 5.58) rotate(-13.24)"/><g><path class="w" d="M126.92,59.93v12.41h-8.82V35.77h14.59c2.8,0,5.27,.52,7.42,1.54s3.82,2.5,5,4.4,1.77,4.06,1.77,6.47c0,3.57-1.28,6.42-3.83,8.55s-6.06,3.2-10.51,3.2h-5.63Zm0-6.81h5.78c1.71,0,3.01-.43,3.91-1.28s1.34-2.06,1.34-3.62c0-1.71-.46-3.07-1.38-4.09s-2.18-1.54-3.77-1.56h-5.88v10.55Z"/><path class="w" d="M151.58,72.34V35.77h11.78c3.23,0,6.14,.73,8.72,2.2,2.58,1.47,4.59,3.53,6.04,6.2,1.45,2.67,2.18,5.66,2.2,8.98v1.68c0,3.35-.71,6.35-2.12,9-1.42,2.65-3.41,4.73-5.98,6.23-2.57,1.5-5.44,2.26-8.6,2.27h-12.03Zm8.82-29.76v22.98h3.06c2.53,0,4.47-.9,5.83-2.7,1.36-1.8,2.03-4.47,2.03-8.02v-1.58c0-3.53-.68-6.2-2.03-7.99-1.36-1.79-3.33-2.69-5.93-2.69h-2.96Z"/><path class="w" d="M215.38,72.34h-8.77l-12.96-22.76v22.76h-8.82V35.77h8.82l12.93,22.76v-22.76h8.79v36.57Z"/></g><g><path class="w" d="M76.42,22.91c0-1.33-.47-2.37-1.4-3.15-.93-.77-2.64-1.51-5.11-2.2-2.48-.7-4.28-1.45-5.42-2.28-1.62-1.16-2.43-2.68-2.43-4.57s.75-3.32,2.26-4.46c1.51-1.15,3.43-1.72,5.78-1.72,1.59,0,3.01,.31,4.26,.92,1.25,.61,2.23,1.47,2.92,2.56,.69,1.1,1.04,2.32,1.04,3.66h-2.04c0-1.64-.56-2.95-1.68-3.95s-2.62-1.49-4.5-1.49-3.29,.41-4.37,1.23c-1.08,.82-1.63,1.88-1.63,3.2,0,1.22,.49,2.21,1.46,2.98,.97,.77,2.54,1.45,4.68,2.03,2.15,.59,3.77,1.2,4.88,1.83,1.11,.63,1.94,1.38,2.5,2.26s.84,1.91,.84,3.11c0,1.88-.75,3.4-2.26,4.54-1.51,1.14-3.49,1.71-5.96,1.71-1.69,0-3.23-.3-4.64-.9-1.41-.6-2.48-1.45-3.2-2.53s-1.09-2.33-1.09-3.73h2.02c0,1.69,.63,3.02,1.89,3.99s2.94,1.46,5.03,1.46c1.86,0,3.36-.41,4.49-1.23,1.13-.82,1.69-1.91,1.69-3.27Z"/><path class="w" d="M89.24,29.12c-1.51,0-2.88-.37-4.1-1.12s-2.17-1.78-2.85-3.11c-.68-1.33-1.02-2.82-1.02-4.48v-.71c0-1.71,.33-3.25,1-4.62,.66-1.37,1.58-2.45,2.77-3.23,1.18-.78,2.46-1.17,3.85-1.17,2.16,0,3.87,.74,5.13,2.21,1.27,1.47,1.9,3.49,1.9,6.04v1.1h-12.69v.38c0,2.02,.58,3.69,1.73,5.04,1.16,1.34,2.61,2.01,4.36,2.01,1.05,0,1.98-.19,2.79-.58,.81-.38,1.54-1,2.19-1.84l1.23,.94c-1.45,2.09-3.54,3.14-6.29,3.14Zm-.36-16.76c-1.48,0-2.73,.54-3.74,1.63-1.01,1.08-1.63,2.54-1.85,4.37h10.67v-.21c-.05-1.71-.54-3.1-1.46-4.17-.92-1.07-2.13-1.61-3.62-1.61Z"/><path class="w" d="M101.53,11.01l.07,2.89c.66-1.07,1.48-1.88,2.46-2.42,.99-.54,2.08-.81,3.29-.81,2.8,0,4.58,1.15,5.34,3.45,.63-1.11,1.48-1.96,2.55-2.56s2.24-.9,3.52-.9c3.81,0,5.76,2.08,5.83,6.24v11.86h-1.97v-11.72c-.01-1.59-.35-2.77-1.03-3.53-.67-.77-1.77-1.15-3.29-1.15-1.41,.02-2.61,.48-3.58,1.37-.98,.89-1.52,1.98-1.63,3.26v11.77h-1.97v-11.86c-.01-1.52-.37-2.66-1.08-3.41-.71-.75-1.79-1.13-3.26-1.13-1.24,0-2.3,.35-3.19,1.06-.89,.71-1.54,1.76-1.97,3.15v12.19h-1.97V11.01h1.89Z"/><path class="w" d="M140.79,28.79c-.2-.56-.32-1.39-.38-2.48-.69,.9-1.57,1.59-2.64,2.08-1.07,.49-2.2,.73-3.39,.73-1.71,0-3.09-.48-4.15-1.43-1.06-.95-1.59-2.16-1.59-3.62,0-1.73,.72-3.1,2.16-4.11,1.44-1.01,3.45-1.51,6.02-1.51h3.57v-2.02c0-1.27-.39-2.27-1.17-3s-1.93-1.09-3.43-1.09c-1.37,0-2.5,.35-3.4,1.05s-1.35,1.54-1.35,2.53l-1.97-.02c0-1.41,.66-2.64,1.97-3.67,1.31-1.04,2.93-1.55,4.85-1.55s3.55,.5,4.69,1.49c1.14,.99,1.73,2.37,1.77,4.15v8.41c0,1.72,.18,3.01,.54,3.86v.2h-2.1Zm-6.18-1.41c1.31,0,2.49-.32,3.53-.95,1.04-.64,1.79-1.48,2.26-2.55v-3.91h-3.52c-1.96,.02-3.49,.38-4.6,1.08-1.11,.7-1.66,1.65-1.66,2.87,0,1,.37,1.82,1.11,2.48,.74,.66,1.7,.99,2.88,.99Z"/><path class="w" d="M149.47,11.01l.07,3.04c.67-1.1,1.5-1.93,2.5-2.51,1-.57,2.1-.86,3.3-.86,1.91,0,3.32,.54,4.26,1.61,.93,1.07,1.4,2.68,1.41,4.83v11.67h-1.96v-11.68c-.01-1.59-.35-2.77-1.01-3.55-.66-.78-1.72-1.17-3.18-1.17-1.22,0-2.29,.38-3.23,1.14s-1.63,1.79-2.08,3.08v12.18h-1.96V11.01h1.87Z"/><path class="w" d="M177.31,28.79c-.2-.56-.32-1.39-.38-2.48-.69,.9-1.57,1.59-2.64,2.08-1.07,.49-2.2,.73-3.39,.73-1.71,0-3.09-.48-4.15-1.43-1.06-.95-1.59-2.16-1.59-3.62,0-1.73,.72-3.1,2.16-4.11,1.44-1.01,3.45-1.51,6.02-1.51h3.57v-2.02c0-1.27-.39-2.27-1.17-3s-1.93-1.09-3.43-1.09c-1.37,0-2.5,.35-3.4,1.05s-1.35,1.54-1.35,2.53l-1.97-.02c0-1.41,.66-2.64,1.97-3.67,1.31-1.04,2.93-1.55,4.85-1.55s3.55,.5,4.69,1.49c1.14,.99,1.73,2.37,1.77,4.15v8.41c0,1.72,.18,3.01,.54,3.86v.2h-2.1Zm-6.18-1.41c1.31,0,2.49-.32,3.53-.95,1.04-.64,1.79-1.48,2.26-2.55v-3.91h-3.52c-1.96,.02-3.49,.38-4.6,1.08-1.11,.7-1.66,1.65-1.66,2.87,0,1,.37,1.82,1.11,2.48,.74,.66,1.7,.99,2.88,.99Z"/></g><g><path class="w" d="M56.68,48.45c0-2.33,.52-4.18,1.56-5.56,1.04-1.38,2.45-2.07,4.23-2.07,2.02,0,3.56,.8,4.63,2.4v-8.41h1.65v21.28h-1.55l-.07-1.99c-1.06,1.51-2.62,2.27-4.68,2.27-1.73,0-3.12-.69-4.18-2.08s-1.59-3.27-1.59-5.63v-.19Zm1.68,.29c0,1.91,.38,3.42,1.15,4.52,.77,1.1,1.85,1.66,3.24,1.66,2.04,0,3.49-.9,4.35-2.7v-7.04c-.86-1.95-2.3-2.92-4.32-2.92-1.39,0-2.48,.55-3.25,1.64-.78,1.09-1.16,2.71-1.16,4.84Z"/><path class="w" d="M78.91,56.36c-1.27,0-2.43-.31-3.46-.94-1.03-.63-1.83-1.5-2.4-2.62s-.86-2.38-.86-3.77v-.6c0-1.44,.28-2.74,.84-3.89,.56-1.15,1.34-2.06,2.33-2.72s2.08-.99,3.24-.99c1.82,0,3.26,.62,4.33,1.86s1.6,2.94,1.6,5.09v.93h-10.69v.32c0,1.7,.49,3.11,1.46,4.25s2.2,1.7,3.68,1.7c.89,0,1.67-.16,2.35-.48s1.3-.84,1.85-1.55l1.04,.79c-1.22,1.76-2.99,2.65-5.31,2.65Zm-.3-14.13c-1.25,0-2.3,.46-3.15,1.37-.85,.91-1.37,2.14-1.56,3.69h8.99v-.18c-.05-1.44-.46-2.61-1.23-3.52-.78-.9-1.79-1.36-3.05-1.36Z"/><path class="w" d="M96.52,56.08h-1.66v-21.28h1.66v21.28Z"/><path class="w" d="M110.48,56.08c-.17-.47-.27-1.17-.32-2.09-.58,.76-1.32,1.34-2.22,1.75s-1.85,.62-2.86,.62c-1.44,0-2.61-.4-3.5-1.21-.89-.8-1.34-1.82-1.34-3.05,0-1.46,.61-2.61,1.82-3.46,1.21-.85,2.91-1.27,5.08-1.27h3.01v-1.7c0-1.07-.33-1.91-.99-2.53-.66-.61-1.62-.92-2.89-.92-1.15,0-2.11,.3-2.87,.89-.76,.59-1.14,1.3-1.14,2.13h-1.66c0-1.21,.55-2.24,1.66-3.11,1.11-.87,2.47-1.31,4.09-1.31s2.99,.42,3.96,1.25c.96,.84,1.46,2,1.49,3.5v7.09c0,1.45,.15,2.53,.46,3.26v.17h-1.77Zm-5.21-1.19c1.11,0,2.1-.27,2.97-.8s1.51-1.25,1.9-2.15v-3.3h-2.96c-1.65,.02-2.95,.32-3.88,.91s-1.4,1.39-1.4,2.42c0,.84,.31,1.54,.93,2.09s1.43,.83,2.43,.83Z"/></g><path class="o" d="M15.04,21.67l21.75,4.47c.66,.14,1.16,.67,1.25,1.34l3.76,27.82c.15,1.08-.82,1.98-1.88,1.77l-21.55-4.33c-.66-.13-1.16-.67-1.26-1.33l-3.95-27.97c-.15-1.09,.82-2,1.89-1.78Z"/><rect class="s" x="9.92" y="29.34" width="9.1" height="4.4" rx="2.2" ry="2.2" transform="translate(7.22 -2.39) rotate(12.58)"/><g><path class="x" d="M29.2,39.38l1.2,.24c.53,.1,.9-.39,.82-1.11l-.18-1.62c-.08-.72-.57-1.38-1.1-1.49l-1.2-.24c-.53-.1-.9,.39-.82,1.11l.18,1.62c.08,.72,.57,1.38,1.1,1.49Z"/><path class="x" d="M25.02,38.56l1.2,.24c.53,.1,.9-.39,.82-1.11l-.18-1.62c-.08-.72-.57-1.38-1.1-1.49l-1.2-.24c-.53-.1-.9,.39-.82,1.11l.18,1.62c.08,.72,.57,1.38,1.1,1.49Z"/><path class="x" d="M20.85,37.74l1.2,.24c.53,.1,.9-.39,.82-1.11l-.18-1.62c-.08-.72-.57-1.38-1.1-1.49l-1.2-.24c-.53-.1-.9,.39-.82,1.11l.18,1.62c.08,.72,.57,1.38,1.1,1.49Z"/><path class="x" d="M29.84,45.33l1.2,.24c.53,.1,.9-.39,.82-1.11l-.18-1.62c-.08-.72-.57-1.38-1.1-1.49l-1.2-.24c-.53-.1-.9,.39-.82,1.11l.18,1.62c.08,.72,.57,1.38,1.1,1.49Z"/><path class="x" d="M25.67,44.51l1.2,.24c.53,.1,.9-.39,.82-1.11l-.18-1.62c-.08-.72-.57-1.38-1.1-1.49l-1.2-.24c-.53-.1-.9,.39-.82,1.11l.18,1.62c.08,.72,.57,1.38,1.1,1.49Z"/><path class="x" d="M21.5,43.69l1.2,.24c.53,.1,.9-.39,.82-1.11l-.18-1.62c-.08-.72-.57-1.38-1.1-1.49l-1.2-.24c-.53-.1-.9,.39-.82,1.11l.18,1.62c.08,.72,.57,1.38,1.1,1.49Z"/><path class="x" d="M30.52,51.5l1.2,.24c.53,.1,.9-.39,.82-1.11l-.18-1.62c-.08-.72-.57-1.38-1.1-1.49l-1.2-.24c-.53-.1-.9,.39-.82,1.11l.18,1.62c.08,.72,.57,1.38,1.1,1.49Z"/><path class="x" d="M33.52,40.54l1.2,.24c.53,.1,.9-.39,.82-1.11l-.18-1.62c-.08-.72-.57-1.38-1.1-1.49l-1.2-.24c-.53-.1-.9,.39-.82,1.11l.18,1.62c.08,.72,.57,1.38,1.1,1.49Z"/><path class="x" d="M34.17,46.49l1.2,.24c.53,.1,.9-.39,.82-1.11l-.18-1.62c-.08-.72-.57-1.38-1.1-1.49l-1.2-.24c-.53-.1-.9,.39-.82,1.11l.18,1.62c.08,.72,.57,1.38,1.1,1.49Z"/><path class="x" d="M34.84,52.66l1.2,.24c.53,.1,.9-.39,.82-1.11l-.18-1.62c-.08-.72-.57-1.38-1.1-1.49l-1.2-.24c-.53-.1-.9,.39-.82,1.11l.18,1.62c.08,.72,.57,1.38,1.1,1.49Z"/><path class="x" d="M26.34,50.68l1.2,.24c.53,.1,.9-.39,.82-1.11l-.18-1.62c-.08-.72-.57-1.38-1.1-1.49l-1.2-.24c-.53-.1-.9,.39-.82,1.11l.18,1.62c.08,.72,.57,1.38,1.1,1.49Z"/><path class="x" d="M22.17,49.86l1.2,.24c.53,.1,.9-.39,.82-1.11l-.18-1.62c-.08-.72-.57-1.38-1.1-1.49l-1.2-.24c-.53-.1-.9,.39-.82,1.11l.18,1.62c.08,.72,.57,1.38,1.1,1.49Z"/></g><path class="o" d="M5.95,29.42l20.58,4.02c.64,.13,1.13,.64,1.24,1.28l3.96,28.94c.13,.95-.72,1.75-1.66,1.56l-20.62-4.18c-.63-.14-1.12-.66-1.21-1.3L4.11,31.18c-.15-1.06,.79-1.96,1.84-1.75Z"/><g id="f"><g id="g"><path class="x" d="M23.4,53.46v-4.23c0-1.56-1.12-2.83-2.52-2.83h-.56c-1.39,0-2.52,1.26-2.52,2.83v4.28c-.52,.39-.82,1.01-.8,1.66,0,.16,.02,.31,.04,.47l.04,.15h7.11l.04-.15c.03-.15,.05-.31,.04-.47,.02-.68-.31-1.33-.87-1.71Zm-4.86-.21c-.12,0-.24,.01-.36,.04v-4.05c0-1.33,.96-2.43,2.16-2.43h.56c1.19,0,2.16,1.08,2.16,2.43v4.04c-.09-.02-.18-.03-.28-.03h-4.24Zm5.37,2.14h-6.52c0-.07-.01-.14,0-.21,0-.84,.58-1.53,1.28-1.53h4c.7,0,1.28,.69,1.28,1.53-.01,.07-.02,.14-.03,.21Z"/><path class="x" d="M20.55,51.87c-.22-.01-.38-.2-.37-.41h0c0-.26,.15-.43,.38-.43s.37,.16,.37,.43-.15,.42-.38,.42h0Zm-.23-1.09l-.09-2.11h.65l-.09,2.11h-.47Z"/><path class="x" d="M17.13,49.81h-.9c-.14-.02-.24-.14-.22-.28,.01-.12,.11-.21,.22-.22h.9c.14,.02,.24,.14,.22,.28-.01,.12-.11,.21-.22,.22Z"/><path class="x" d="M25.07,49.81h-.9c-.14-.02-.24-.14-.22-.28,.01-.12,.11-.21,.22-.22h.9c.14,.02,.24,.14,.22,.28-.01,.12-.11,.21-.22,.22Z"/><path class="x" d="M20.63,45.75c-.13,0-.23-.12-.23-.25h0v-1.01c-.02-.12,.07-.24,.2-.25,.12-.02,.24,.07,.25,.2,0,.02,0,.04,0,.06v1.01c0,.13-.09,.24-.22,.25h0Z"/><path class="x" d="M23.31,46.76c-.06,0-.12-.02-.16-.07-.09-.1-.09-.25,0-.35l.63-.71c.07-.09,.2-.1,.28-.03,.01,0,.02,.02,.03,.03,.09,.1,.09,.25,0,.35l-.63,.71s-.09,.07-.15,.07Z"/><path class="x" d="M17.88,46.76c-.06,0-.12-.03-.16-.07l-.63-.71c-.09-.1-.09-.25,0-.35,.08-.09,.21-.1,.29-.02l.02,.02,.63,.71c.09,.1,.09,.25,0,.35-.04,.05-.09,.07-.15,.07Z"/><path class="x" d="M9.15,43.98l.57-.7c.28,.25,.65,.41,1.03,.43,.37,0,.55-.14,.55-.37s-.23-.32-.59-.48l-.54-.23c-.44-.17-.86-.54-.86-1.16,0-.71,.64-1.28,1.53-1.28,.51,0,1,.2,1.37,.56l-.5,.64c-.24-.21-.55-.32-.87-.32-.31,0-.5,.13-.5,.35s.27,.32,.64,.47l.52,.21c.52,.21,.83,.56,.83,1.16,0,.7-.59,1.32-1.61,1.32-.58,0-1.14-.22-1.57-.61Z"/><path class="x" d="M12.68,44l.47-.64c.23,.24,.54,.39,.88,.41,.39,0,.65-.17,.65-.48,0-.36-.19-.58-1.08-.58v-.71c.72,0,.95-.22,.95-.56,0-.29-.17-.45-.48-.45-.28,0-.5,.13-.75,.35l-.52-.62c.36-.33,.82-.51,1.31-.52,.87,0,1.45,.41,1.45,1.16,0,.42-.23,.75-.68,.93v.03c.47,.14,.82,.48,.82,1.03,0,.79-.72,1.23-1.57,1.23-.66,0-1.14-.23-1.44-.59Z"/><path class="x" d="M15.97,54.3c-3.53-1.46-5.29-5.44-3.98-9.03l.7,.26c-1.17,3.22,.4,6.78,3.56,8.09l-.28,.68Z"/><path class="x" d="M25.6,46.63c-.14-1.67-.89-3.23-2.1-4.38l.16-.16c-1.9-1.85-4.66-2.49-7.18-1.67l.23,.71c2.25-.73,4.73-.15,6.43,1.5l.2-.2c1.17,1.11,1.9,2.62,2.03,4.23,.02,.19,.02,.38,.02,.57h.24c0-.2,0-.39-.02-.59Z"/></g></g><rect class="s" x=".34" y="35.13" width="9.1" height="4.4" rx="2.2" ry="2.2" transform="translate(2.41 -.24) rotate(3.68)"/><rect class="s" x="2.29" y="52.99" width="9.1" height="4.4" rx="2.2" ry="2.2" transform="translate(3.56 -.33) rotate(3.68)"/><g><path class="x" d="M22.09,26.61l.62,2.29,.67-2.09,.92,.14-.04,3.15-.7-.11v-.74l.1-1.5-.73,2.14-.46-.07-.67-2.35,.05,1.52v.74l-.71-.11,.04-3.15,.91,.14Z"/><path class="x" d="M25.88,30.35c-.02-.05-.04-.12-.06-.22-.12,.15-.3,.21-.52,.17-.2-.03-.37-.12-.51-.28s-.21-.33-.21-.54c0-.25,.09-.43,.27-.54,.17-.1,.42-.13,.75-.08l.21,.03v-.12c0-.22-.08-.34-.25-.36-.16-.02-.24,.05-.24,.22l-.67-.1c0-.23,.09-.4,.27-.51,.18-.11,.4-.15,.68-.11s.49,.15,.65,.32c.16,.17,.24,.38,.24,.64v1.04c-.01,.22,.02,.38,.07,.51v.04l-.67-.1Zm-.41-.54c.08,.01,.15,0,.21-.03s.1-.07,.12-.11v-.37l-.19-.03c-.23-.04-.35,.06-.35,.29,0,.07,.02,.12,.06,.17s.09,.08,.16,.09Z"/><path class="x" d="M27.67,29.6l.37-1.27,.72,.11-.91,2.6-.04,.09c-.13,.28-.35,.4-.66,.35-.09-.01-.18-.04-.28-.09v-.52h.09c.09,.03,.17,.02,.22,0s.09-.07,.11-.14l.06-.15-.72-2.48,.71,.11,.32,1.37Z"/><path class="x" d="M28.8,29.61c0-.23,.05-.44,.13-.61s.21-.29,.36-.37c.16-.07,.34-.09,.55-.06,.32,.05,.57,.2,.76,.44,.18,.25,.27,.56,.27,.93v.03c0,.37-.1,.64-.29,.83-.19,.19-.44,.25-.76,.21s-.55-.18-.73-.41-.28-.51-.29-.86v-.12Zm.67,.15c0,.22,.03,.38,.09,.49,.06,.11,.15,.18,.27,.19,.24,.04,.36-.14,.37-.54v-.07c0-.42-.11-.65-.36-.69-.22-.03-.35,.13-.37,.49v.13Z"/></g><path class="m" d="M21.27,15.47l21.77-6.58c.73-.22,1.49,.26,1.59,1.01l3.96,28.42c.11,.77-.36,1.5-1.1,1.71l-21.6,6.22c-.91,.26-1.85-.35-1.96-1.3l-3.73-27.83c-.09-.74,.36-1.44,1.07-1.66Z"/><g id="h"><g id="i"><path class="v" d="M26.73,21.5l.58-.7c.28,.25,.65,.4,1.03,.43,.38,0,.55-.14,.55-.37s-.23-.32-.6-.48l-.54-.22c-.44-.18-.86-.55-.86-1.16,0-.71,.64-1.28,1.54-1.28,.51,0,1.01,.2,1.38,.55l-.51,.64c-.24-.21-.55-.32-.87-.32-.31,0-.51,.13-.51,.35s.27,.32,.65,.47l.53,.21c.52,.21,.84,.56,.84,1.16,0,.71-.59,1.33-1.62,1.33-.59,0-1.15-.22-1.59-.61Z"/><path class="v" d="M32.79,18.82c-.17-.17-.39-.28-.63-.29-.44,0-.78,.31-.83,1.23,.2-.24,.49-.4,.81-.42,.71,0,1.24,.41,1.24,1.33s-.64,1.43-1.39,1.43c-.8,0-1.58-.62-1.58-2.16s.8-2.22,1.69-2.22c.46,0,.91,.18,1.23,.51l-.54,.59Zm-.34,1.86c0-.47-.23-.62-.51-.62-.25,0-.48,.15-.6,.38,.09,.71,.35,.92,.61,.92s.49-.2,.49-.68Z"/><path class="v" d="M35.26,32.39c-.45-.08-.89-.2-1.32-.38l.08-.19c-3.18-1.31-4.76-4.89-3.58-8.12l-.7-.26c-1.32,3.6,.45,7.6,3.99,9.06l.12-.28c.82,.33,1.7,.5,2.59,.5v-.24c-.39,0-.79-.03-1.17-.1Z"/><path class="v" d="M41.48,20.21l.15-.16c-1.9-1.85-4.67-2.5-7.19-1.68l.23,.71c2.26-.73,4.74-.15,6.44,1.5l.2-.2c.81,.8,1.4,1.79,1.71,2.89l.23-.07c-.33-1.13-.94-2.16-1.78-2.99Z"/><rect class="v" x="36.39" y="27" width="2.44" height=".12"/><rect class="v" x="36.39" y="26.64" width="2.44" height=".12"/><rect class="v" x="36.39" y="27.36" width="1.63" height=".12"/><rect class="v" x="36.39" y="26.27" width="1.63" height=".12"/><rect class="v" x="38.23" y="27.36" width=".61" height=".12"/><rect class="v" x="38.23" y="25.54" width=".61" height=".12"/><rect class="v" x="36.39" y="27.71" width="2.44" height=".12"/><rect class="v" x="36.39" y="28.43" width="2.44" height=".12"/><rect class="v" x="37.31" y="28.07" width="1.53" height=".12"/><rect class="v" x="36.39" y="28.07" width=".71" height=".12"/><rect class="v" x="36.39" y="28.79" width=".41" height=".12"/><rect class="v" x="37.01" y="28.79" width="1.83" height=".12"/><path class="v" d="M39.61,24.38h-3c-.28,0-.51,.23-.51,.51v.11c-.29,.14-.48,.43-.48,.75v3.2c0,.46,.37,.83,.83,.83h2.36c.34,0,.65-.21,.77-.53h.03c.28,0,.51-.23,.51-.51v-3.84c0-.28-.21-.5-.49-.51,0,0,0,0-.01,0Zm-.8,5.18h-2.37c-.34,0-.61-.27-.61-.61h0v-3.21c0-.34,.27-.61,.61-.61h2.37c.34,0,.61,.27,.61,.61h0v3.21c0,.34-.27,.61-.61,.61Zm1.09-.83c0,.15-.11,.28-.26,.29v-3.6c0-.28-.23-.51-.51-.51h-2.82v-.03c0-.16,.13-.29,.29-.3h3.01c.16,0,.3,.13,.3,.29h0v3.85h-.01Z"/><path class="v" d="M33.37,28.34c-.01-.06-.07-.09-.13-.08h0c-.06,.01-.09,.07-.08,.13,.06,.24,.15,.47,.24,.7,.02,.04,.06,.07,.1,.06,.01,0,.03,0,.04,0,.05-.02,.08-.09,.06-.14-.1-.22-.17-.44-.23-.67Z"/><path class="v" d="M38.79,31.69c-.09,.02-.17,.03-.26,.05,.02,.07,.03,.14,.03,.22,.09-.01,.18-.03,.27-.05,.06-.01,.1-.07,.09-.13s-.07-.1-.13-.09h0Z"/><path class="v" d="M36.72,31.76c-.01,.06,.02,.12,.08,.13h0c.08,.02,.15,.04,.23,.05,0-.07,.01-.15,.04-.22-.07-.01-.15-.03-.22-.04-.06-.01-.11,.02-.13,.08h0Z"/><path class="v" d="M39.98,31.27c-.21,.11-.43,.2-.65,.27-.05,.02-.08,.08-.06,.14,.02,.04,.06,.07,.1,.07,.01,0,.02,0,.04,0,.23-.08,.46-.18,.67-.29,.05-.03,.07-.09,.04-.14-.03-.05-.09-.07-.14-.04Z"/><path class="v" d="M36.3,31.53c-.22-.08-.43-.18-.64-.29-.05-.02-.12,0-.14,.06-.02,.05,0,.1,.04,.13,.22,.12,.44,.22,.67,.3,.01,0,.02,0,.04,0,.04,0,.08-.03,.09-.06,.02-.05,0-.12-.06-.14h0Z"/><path class="v" d="M41.01,30.54c-.17,.16-.35,.31-.54,.44-.05,.03-.06,.1-.03,.15h0s.05,.06,.09,.05c.02,0,.04,0,.06-.02,.2-.14,.39-.29,.57-.46,.04-.04,.04-.11,0-.15-.04-.04-.1-.05-.14-.01h0Z"/><path class="v" d="M42.44,28.33c-.05-.02-.11,0-.13,.06h0c-.06,.24-.14,.46-.24,.68-.03,.05-.01,.11,.03,.14h.01s.03,.01,.04,0c.04,0,.08-.02,.09-.05,.1-.22,.19-.45,.25-.69,.02-.05,0-.11-.05-.13h-.02Z"/><path class="v" d="M42.58,27.02c-.06,0-.11,.05-.11,.11h0c0,.25-.02,.49-.05,.72,0,.06,.03,.11,.09,.12h.01c.05,0,.09-.04,.1-.09,.04-.24,.06-.49,.06-.74h0c0-.07-.05-.12-.11-.12Z"/><path class="v" d="M35.12,23.37s.05,0,.06-.02c.19-.13,.39-.25,.6-.36,.05-.03,.08-.09,.05-.14s-.09-.08-.14-.05c-.22,.11-.43,.24-.63,.38-.05,.03-.06,.1-.03,.15h0s.05,.05,.09,.05Z"/><path class="v" d="M34.64,30.5s-.11-.04-.15,0c-.04,.04-.04,.11,0,.15h0c.18,.17,.37,.32,.57,.47,.02,.01,.04,.02,.06,.02,.03,0,.06-.02,.09-.04,.03-.05,.02-.12-.03-.15-.19-.13-.37-.28-.54-.45Z"/><path class="v" d="M36.26,22.77h.04c.22-.08,.44-.14,.67-.19,.06-.01,.1-.07,.09-.13-.01-.06-.07-.1-.13-.09-.24,.05-.48,.11-.71,.19-.05,.02-.08,.08-.07,.13h0s.05,.08,.1,.08Z"/><path class="v" d="M39.97,23.01c.21,.11,.41,.23,.6,.37,.02,.01,.04,.02,.06,.02,.03,0,.06-.01,.09-.04,.04-.05,.03-.11-.02-.15h0c-.2-.15-.41-.28-.62-.39-.05-.02-.12,0-.14,.06-.02,.05,0,.1,.04,.13h0Z"/><path class="v" d="M42.44,26.57c0,.05,.05,.09,.11,.09h.01c.06-.02,.1-.07,.09-.13-.03-.24-.08-.48-.14-.72-.01-.06-.07-.09-.13-.08-.06,.01-.09,.07-.08,.13h0c.06,.24,.11,.47,.14,.71Z"/><path class="v" d="M38.78,22.59c.23,.05,.45,.12,.67,.2,.01,0,.02,0,.04,0,.05,0,.09-.03,.1-.08,.02-.05-.01-.11-.06-.13-.23-.09-.46-.15-.7-.2-.06,0-.11,.04-.12,.1,0,.05,.03,.1,.08,.12h0Z"/><path class="v" d="M34.74,23.71s.05-.1,.01-.15h0s-.1-.05-.15-.01h0c-.15,.15-.3,.3-.44,.46,.07,.03,.13,.06,.19,.11,.12-.14,.25-.27,.39-.4Z"/><path class="v" d="M33.14,26.61h.01c.05,0,.1-.03,.11-.09,.03-.23,.08-.47,.14-.69,.01-.06-.02-.11-.07-.13-.06-.02-.12,.01-.14,.07-.06,.24-.12,.48-.15,.72,0,.06,.04,.11,.09,.12Z"/><path class="v" d="M33.27,27.78c-.03-.21-.04-.43-.04-.64v-.07c0-.06-.04-.11-.1-.12-.06,0-.11,.04-.12,.1,0,0,0,.02,0,.02v.06c0,.22,.01,.45,.04,.67,0,.05,.05,.09,.11,.09h.01c.06,0,.1-.06,.09-.12Z"/><path class="v" d="M41.14,23.58s-.11-.03-.15,0c-.04,.04-.04,.11,0,.15,.13,.12,.25,.25,.36,.39,.06-.05,.12-.08,.19-.11-.12-.15-.26-.3-.4-.44Z"/><path class="v" d="M37.8,21.28c-.52,0-.95,.42-.95,.94,0,.52,.42,.95,.94,.95,.52,0,.95-.42,.95-.94h0c0-.52-.42-.95-.94-.95Zm0,1.72c-.43,0-.77-.34-.78-.77,0-.43,.34-.77,.77-.78,.43,0,.77,.34,.78,.77h0c0,.43-.34,.78-.77,.78h0Z"/><path class="v" d="M37.95,22.02s-.08-.06-.13-.06c-.06,0-.09,.02-.09,.07,0,.11,.32,.1,.32,.34,0,.12-.08,.22-.19,.24v.13h-.13v-.12c-.08-.01-.16-.04-.22-.09l.09-.13s.11,.07,.17,.07c.06,0,.09-.03,.09-.08,0-.11-.32-.12-.32-.35,0-.11,.07-.21,.19-.23v-.13h.13v.13c.07,.01,.14,.05,.19,.1l-.09,.1Z"/><path class="v" d="M37.8,31.01c-.52,0-.95,.42-.95,.94,0,.52,.42,.95,.94,.95,.52,0,.95-.42,.95-.94h0c0-.52-.42-.95-.94-.95Zm0,1.72c-.43,0-.77-.34-.78-.77,0-.43,.34-.77,.77-.78,.43,0,.77,.34,.78,.77h0c0,.43-.34,.78-.77,.78h0Z"/><path class="v" d="M37.95,31.74s-.08-.06-.13-.06c-.06,0-.09,.02-.09,.07,0,.11,.32,.1,.32,.34,0,.12-.08,.22-.19,.24v.13h-.13v-.12c-.08-.01-.16-.04-.22-.09l.09-.13s.11,.07,.17,.07c.06,0,.09-.03,.09-.08,0-.11-.32-.12-.32-.35,0-.11,.07-.21,.19-.23v-.13h.13v.13c.07,.01,.14,.05,.19,.1l-.09,.1Z"/><path class="v" d="M41.85,23.77c-.52,0-.95,.42-.95,.94,0,.52,.42,.95,.94,.95,.52,0,.95-.42,.95-.94h0c0-.53-.42-.95-.94-.95Zm0,1.72c-.43,0-.77-.34-.78-.77,0-.43,.34-.77,.77-.78,.43,0,.77,.34,.78,.77h0c0,.43-.34,.77-.77,.78Z"/><path class="v" d="M42.01,24.51s-.08-.06-.13-.06c-.06,0-.09,.02-.09,.07,0,.11,.32,.1,.32,.34,0,.12-.08,.23-.19,.25v.13h-.13v-.13c-.08-.01-.16-.04-.22-.09l.09-.13s.11,.07,.17,.07c.06,0,.09-.03,.09-.08,0-.12-.32-.12-.32-.35,0-.11,.07-.21,.19-.23v-.13h.13v.13c.07,.01,.14,.05,.19,.1l-.09,.11Z"/><path class="v" d="M33.87,23.78c-.52,0-.95,.42-.95,.94,0,.52,.42,.95,.94,.95,.52,0,.95-.42,.95-.94,0-.52-.42-.94-.94-.94h0Zm0,1.71c-.43,0-.77-.34-.78-.77s.34-.77,.77-.78c.43,0,.77,.34,.78,.77,0,0,0,0,0,.01,0,.42-.34,.77-.77,.77h0Z"/><path class="v" d="M34.02,24.52s-.08-.06-.13-.06c-.06,0-.09,.02-.09,.07,0,.11,.32,.1,.32,.34,0,.12-.08,.22-.19,.24v.13h-.13v-.12c-.08-.01-.16-.04-.22-.09l.09-.14s.11,.07,.17,.07c.06,0,.09-.03,.09-.08,0-.12-.32-.13-.32-.35,0-.11,.07-.21,.19-.23v-.13h.13v.13c.07,.01,.14,.05,.19,.1l-.1,.11Z"/><path class="v" d="M41.73,29.04c-.52,0-.95,.42-.95,.94,0,.52,.42,.95,.94,.95,.52,0,.95-.42,.95-.94h0c0-.52-.42-.95-.94-.95Zm0,1.72c-.43,0-.77-.34-.78-.77,0-.43,.34-.77,.77-.78,.43,0,.77,.34,.78,.77h0c0,.43-.33,.77-.75,.78,0,0-.01,0-.02,0Z"/><path class="v" d="M41.89,29.77s-.08-.06-.13-.06c-.06,0-.09,.02-.09,.07,0,.11,.32,.1,.32,.34,0,.12-.08,.22-.19,.24v.13h-.13v-.12c-.08-.01-.16-.04-.22-.09l.09-.13s.11,.07,.17,.07c.06,0,.09-.03,.09-.08,0-.12-.32-.12-.32-.35,0-.11,.07-.21,.19-.23v-.13h.13v.13c.07,.01,.14,.05,.19,.1l-.09,.11Z"/><path class="v" d="M33.81,29.04c-.52,0-.95,.42-.95,.94,0,.52,.42,.95,.94,.95s.95-.42,.95-.94h0c0-.52-.42-.95-.94-.95Zm0,1.72c-.43,0-.77-.34-.78-.77,0-.43,.34-.77,.77-.78,.43,0,.77,.34,.78,.77h0c0,.43-.34,.78-.77,.78h0Z"/><path class="v" d="M33.95,29.77s-.08-.06-.13-.06c-.06,0-.09,.02-.09,.07,0,.11,.32,.1,.32,.34,0,.12-.08,.22-.19,.24v.13h-.13v-.12c-.08-.01-.16-.04-.22-.09l.09-.13s.11,.07,.17,.07c.06,0,.09-.03,.09-.08,0-.12-.32-.12-.32-.35,0-.11,.07-.21,.19-.23v-.13h.13v.13c.07,.01,.14,.05,.19,.1l-.09,.11Z"/></g></g><rect class="p" x="17.03" y="21.61" width="9.1" height="4.4" rx="2.2" ry="2.2" transform="translate(-4.88 5.58) rotate(-13.24)"/><g><path class="l" d="M126.92,59.93v12.41h-8.82V35.77h14.59c2.8,0,5.27,.52,7.42,1.54s3.82,2.5,5,4.4,1.77,4.06,1.77,6.47c0,3.57-1.28,6.42-3.83,8.55s-6.06,3.2-10.51,3.2h-5.63Zm0-6.81h5.78c1.71,0,3.01-.43,3.91-1.28s1.34-2.06,1.34-3.62c0-1.71-.46-3.07-1.38-4.09s-2.18-1.54-3.77-1.56h-5.88v10.55Z"/><path class="l" d="M151.58,72.34V35.77h11.78c3.23,0,6.14,.73,8.72,2.2,2.58,1.47,4.59,3.53,6.04,6.2,1.45,2.67,2.18,5.66,2.2,8.98v1.68c0,3.35-.71,6.35-2.12,9-1.42,2.65-3.41,4.73-5.98,6.23-2.57,1.5-5.44,2.26-8.6,2.27h-12.03Zm8.82-29.76v22.98h3.06c2.53,0,4.47-.9,5.83-2.7,1.36-1.8,2.03-4.47,2.03-8.02v-1.58c0-3.53-.68-6.2-2.03-7.99-1.36-1.79-3.33-2.69-5.93-2.69h-2.96Z"/><path class="l" d="M215.38,72.34h-8.77l-12.96-22.76v22.76h-8.82V35.77h8.82l12.93,22.76v-22.76h8.79v36.57Z"/></g><g><path class="l" d="M76.42,22.91c0-1.33-.47-2.37-1.4-3.15-.93-.77-2.64-1.51-5.11-2.2-2.48-.7-4.28-1.45-5.42-2.28-1.62-1.16-2.43-2.68-2.43-4.57s.75-3.32,2.26-4.46c1.51-1.15,3.43-1.72,5.78-1.72,1.59,0,3.01,.31,4.26,.92,1.25,.61,2.23,1.47,2.92,2.56,.69,1.1,1.04,2.32,1.04,3.66h-2.04c0-1.64-.56-2.95-1.68-3.95s-2.62-1.49-4.5-1.49-3.29,.41-4.37,1.23c-1.08,.82-1.63,1.88-1.63,3.2,0,1.22,.49,2.21,1.46,2.98,.97,.77,2.54,1.45,4.68,2.03,2.15,.59,3.77,1.2,4.88,1.83,1.11,.63,1.94,1.38,2.5,2.26s.84,1.91,.84,3.11c0,1.88-.75,3.4-2.26,4.54-1.51,1.14-3.49,1.71-5.96,1.71-1.69,0-3.23-.3-4.64-.9-1.41-.6-2.48-1.45-3.2-2.53s-1.09-2.33-1.09-3.73h2.02c0,1.69,.63,3.02,1.89,3.99s2.94,1.46,5.03,1.46c1.86,0,3.36-.41,4.49-1.23,1.13-.82,1.69-1.91,1.69-3.27Z"/><path class="l" d="M89.24,29.12c-1.51,0-2.88-.37-4.1-1.12s-2.17-1.78-2.85-3.11c-.68-1.33-1.02-2.82-1.02-4.48v-.71c0-1.71,.33-3.25,1-4.62,.66-1.37,1.58-2.45,2.77-3.23,1.18-.78,2.46-1.17,3.85-1.17,2.16,0,3.87,.74,5.13,2.21,1.27,1.47,1.9,3.49,1.9,6.04v1.1h-12.69v.38c0,2.02,.58,3.69,1.73,5.04,1.16,1.34,2.61,2.01,4.36,2.01,1.05,0,1.98-.19,2.79-.58,.81-.38,1.54-1,2.19-1.84l1.23,.94c-1.45,2.09-3.54,3.14-6.29,3.14Zm-.36-16.76c-1.48,0-2.73,.54-3.74,1.63-1.01,1.08-1.63,2.54-1.85,4.37h10.67v-.21c-.05-1.71-.54-3.1-1.46-4.17-.92-1.07-2.13-1.61-3.62-1.61Z"/><path class="l" d="M101.53,11.01l.07,2.89c.66-1.07,1.48-1.88,2.46-2.42,.99-.54,2.08-.81,3.29-.81,2.8,0,4.58,1.15,5.34,3.45,.63-1.11,1.48-1.96,2.55-2.56s2.24-.9,3.52-.9c3.81,0,5.76,2.08,5.83,6.24v11.86h-1.97v-11.72c-.01-1.59-.35-2.77-1.03-3.53-.67-.77-1.77-1.15-3.29-1.15-1.41,.02-2.61,.48-3.58,1.37-.98,.89-1.52,1.98-1.63,3.26v11.77h-1.97v-11.86c-.01-1.52-.37-2.66-1.08-3.41-.71-.75-1.79-1.13-3.26-1.13-1.24,0-2.3,.35-3.19,1.06-.89,.71-1.54,1.76-1.97,3.15v12.19h-1.97V11.01h1.89Z"/><path class="l" d="M140.79,28.79c-.2-.56-.32-1.39-.38-2.48-.69,.9-1.57,1.59-2.64,2.08-1.07,.49-2.2,.73-3.39,.73-1.71,0-3.09-.48-4.15-1.43-1.06-.95-1.59-2.16-1.59-3.62,0-1.73,.72-3.1,2.16-4.11,1.44-1.01,3.45-1.51,6.02-1.51h3.57v-2.02c0-1.27-.39-2.27-1.17-3s-1.93-1.09-3.43-1.09c-1.37,0-2.5,.35-3.4,1.05s-1.35,1.54-1.35,2.53l-1.97-.02c0-1.41,.66-2.64,1.97-3.67,1.31-1.04,2.93-1.55,4.85-1.55s3.55,.5,4.69,1.49c1.14,.99,1.73,2.37,1.77,4.15v8.41c0,1.72,.18,3.01,.54,3.86v.2h-2.1Zm-6.18-1.41c1.31,0,2.49-.32,3.53-.95,1.04-.64,1.79-1.48,2.26-2.55v-3.91h-3.52c-1.96,.02-3.49,.38-4.6,1.08-1.11,.7-1.66,1.65-1.66,2.87,0,1,.37,1.82,1.11,2.48,.74,.66,1.7,.99,2.88,.99Z"/><path class="l" d="M149.47,11.01l.07,3.04c.67-1.1,1.5-1.93,2.5-2.51,1-.57,2.1-.86,3.3-.86,1.91,0,3.32,.54,4.26,1.61,.93,1.07,1.4,2.68,1.41,4.83v11.67h-1.96v-11.68c-.01-1.59-.35-2.77-1.01-3.55-.66-.78-1.72-1.17-3.18-1.17-1.22,0-2.29,.38-3.23,1.14s-1.63,1.79-2.08,3.08v12.18h-1.96V11.01h1.87Z"/><path class="l" d="M177.31,28.79c-.2-.56-.32-1.39-.38-2.48-.69,.9-1.57,1.59-2.64,2.08-1.07,.49-2.2,.73-3.39,.73-1.71,0-3.09-.48-4.15-1.43-1.06-.95-1.59-2.16-1.59-3.62,0-1.73,.72-3.1,2.16-4.11,1.44-1.01,3.45-1.51,6.02-1.51h3.57v-2.02c0-1.27-.39-2.27-1.17-3s-1.93-1.09-3.43-1.09c-1.37,0-2.5,.35-3.4,1.05s-1.35,1.54-1.35,2.53l-1.97-.02c0-1.41,.66-2.64,1.97-3.67,1.31-1.04,2.93-1.55,4.85-1.55s3.55,.5,4.69,1.49c1.14,.99,1.73,2.37,1.77,4.15v8.41c0,1.72,.18,3.01,.54,3.86v.2h-2.1Zm-6.18-1.41c1.31,0,2.49-.32,3.53-.95,1.04-.64,1.79-1.48,2.26-2.55v-3.91h-3.52c-1.96,.02-3.49,.38-4.6,1.08-1.11,.7-1.66,1.65-1.66,2.87,0,1,.37,1.82,1.11,2.48,.74,.66,1.7,.99,2.88,.99Z"/></g><g><path class="l" d="M56.68,48.45c0-2.33,.52-4.18,1.56-5.56,1.04-1.38,2.45-2.07,4.23-2.07,2.02,0,3.56,.8,4.63,2.4v-8.41h1.65v21.28h-1.55l-.07-1.99c-1.06,1.51-2.62,2.27-4.68,2.27-1.73,0-3.12-.69-4.18-2.08s-1.59-3.27-1.59-5.63v-.19Zm1.68,.29c0,1.91,.38,3.42,1.15,4.52,.77,1.1,1.85,1.66,3.24,1.66,2.04,0,3.49-.9,4.35-2.7v-7.04c-.86-1.95-2.3-2.92-4.32-2.92-1.39,0-2.48,.55-3.25,1.64-.78,1.09-1.16,2.71-1.16,4.84Z"/><path class="l" d="M78.91,56.36c-1.27,0-2.43-.31-3.46-.94-1.03-.63-1.83-1.5-2.4-2.62s-.86-2.38-.86-3.77v-.6c0-1.44,.28-2.74,.84-3.89,.56-1.15,1.34-2.06,2.33-2.72s2.08-.99,3.24-.99c1.82,0,3.26,.62,4.33,1.86s1.6,2.94,1.6,5.09v.93h-10.69v.32c0,1.7,.49,3.11,1.46,4.25s2.2,1.7,3.68,1.7c.89,0,1.67-.16,2.35-.48s1.3-.84,1.85-1.55l1.04,.79c-1.22,1.76-2.99,2.65-5.31,2.65Zm-.3-14.13c-1.25,0-2.3,.46-3.15,1.37-.85,.91-1.37,2.14-1.56,3.69h8.99v-.18c-.05-1.44-.46-2.61-1.23-3.52-.78-.9-1.79-1.36-3.05-1.36Z"/><path class="l" d="M96.52,56.08h-1.66v-21.28h1.66v21.28Z"/><path class="l" d="M110.48,56.08c-.17-.47-.27-1.17-.32-2.09-.58,.76-1.32,1.34-2.22,1.75s-1.85,.62-2.86,.62c-1.44,0-2.61-.4-3.5-1.21-.89-.8-1.34-1.82-1.34-3.05,0-1.46,.61-2.61,1.82-3.46,1.21-.85,2.91-1.27,5.08-1.27h3.01v-1.7c0-1.07-.33-1.91-.99-2.53-.66-.61-1.62-.92-2.89-.92-1.15,0-2.11,.3-2.87,.89-.76,.59-1.14,1.3-1.14,2.13h-1.66c0-1.21,.55-2.24,1.66-3.11,1.11-.87,2.47-1.31,4.09-1.31s2.99,.42,3.96,1.25c.96,.84,1.46,2,1.49,3.5v7.09c0,1.45,.15,2.53,.46,3.26v.17h-1.77Zm-5.21-1.19c1.11,0,2.1-.27,2.97-.8s1.51-1.25,1.9-2.15v-3.3h-2.96c-1.65,.02-2.95,.32-3.88,.91s-1.4,1.39-1.4,2.42c0,.84,.31,1.54,.93,2.09s1.43,.83,2.43,.83Z"/></g><path class="t" d="M15.04,21.67l21.75,4.47c.66,.14,1.16,.67,1.25,1.34l3.76,27.82c.15,1.08-.82,1.98-1.88,1.77l-21.55-4.33c-.66-.13-1.16-.67-1.26-1.33l-3.95-27.97c-.15-1.09,.82-2,1.89-1.78Z"/><rect class="q" x="9.92" y="29.34" width="9.1" height="4.4" rx="2.2" ry="2.2" transform="translate(7.22 -2.39) rotate(12.58)"/><g><path class="u" d="M29.2,39.38l1.2,.24c.53,.1,.9-.39,.82-1.11l-.18-1.62c-.08-.72-.57-1.38-1.1-1.49l-1.2-.24c-.53-.1-.9,.39-.82,1.11l.18,1.62c.08,.72,.57,1.38,1.1,1.49Z"/><path class="u" d="M25.02,38.56l1.2,.24c.53,.1,.9-.39,.82-1.11l-.18-1.62c-.08-.72-.57-1.38-1.1-1.49l-1.2-.24c-.53-.1-.9,.39-.82,1.11l.18,1.62c.08,.72,.57,1.38,1.1,1.49Z"/><path class="u" d="M20.85,37.74l1.2,.24c.53,.1,.9-.39,.82-1.11l-.18-1.62c-.08-.72-.57-1.38-1.1-1.49l-1.2-.24c-.53-.1-.9,.39-.82,1.11l.18,1.62c.08,.72,.57,1.38,1.1,1.49Z"/><path class="u" d="M29.84,45.33l1.2,.24c.53,.1,.9-.39,.82-1.11l-.18-1.62c-.08-.72-.57-1.38-1.1-1.49l-1.2-.24c-.53-.1-.9,.39-.82,1.11l.18,1.62c.08,.72,.57,1.38,1.1,1.49Z"/><path class="u" d="M25.67,44.51l1.2,.24c.53,.1,.9-.39,.82-1.11l-.18-1.62c-.08-.72-.57-1.38-1.1-1.49l-1.2-.24c-.53-.1-.9,.39-.82,1.11l.18,1.62c.08,.72,.57,1.38,1.1,1.49Z"/><path class="u" d="M21.5,43.69l1.2,.24c.53,.1,.9-.39,.82-1.11l-.18-1.62c-.08-.72-.57-1.38-1.1-1.49l-1.2-.24c-.53-.1-.9,.39-.82,1.11l.18,1.62c.08,.72,.57,1.38,1.1,1.49Z"/><path class="u" d="M30.52,51.5l1.2,.24c.53,.1,.9-.39,.82-1.11l-.18-1.62c-.08-.72-.57-1.38-1.1-1.49l-1.2-.24c-.53-.1-.9,.39-.82,1.11l.18,1.62c.08,.72,.57,1.38,1.1,1.49Z"/><path class="u" d="M33.52,40.54l1.2,.24c.53,.1,.9-.39,.82-1.11l-.18-1.62c-.08-.72-.57-1.38-1.1-1.49l-1.2-.24c-.53-.1-.9,.39-.82,1.11l.18,1.62c.08,.72,.57,1.38,1.1,1.49Z"/><path class="u" d="M34.17,46.49l1.2,.24c.53,.1,.9-.39,.82-1.11l-.18-1.62c-.08-.72-.57-1.38-1.1-1.49l-1.2-.24c-.53-.1-.9,.39-.82,1.11l.18,1.62c.08,.72,.57,1.38,1.1,1.49Z"/><path class="u" d="M34.84,52.66l1.2,.24c.53,.1,.9-.39,.82-1.11l-.18-1.62c-.08-.72-.57-1.38-1.1-1.49l-1.2-.24c-.53-.1-.9,.39-.82,1.11l.18,1.62c.08,.72,.57,1.38,1.1,1.49Z"/><path class="u" d="M26.34,50.68l1.2,.24c.53,.1,.9-.39,.82-1.11l-.18-1.62c-.08-.72-.57-1.38-1.1-1.49l-1.2-.24c-.53-.1-.9,.39-.82,1.11l.18,1.62c.08,.72,.57,1.38,1.1,1.49Z"/><path class="u" d="M22.17,49.86l1.2,.24c.53,.1,.9-.39,.82-1.11l-.18-1.62c-.08-.72-.57-1.38-1.1-1.49l-1.2-.24c-.53-.1-.9,.39-.82,1.11l.18,1.62c.08,.72,.57,1.38,1.1,1.49Z"/></g><path class="n" d="M5.95,29.42l20.58,4.02c.64,.13,1.13,.64,1.24,1.28l3.96,28.94c.13,.95-.72,1.75-1.66,1.56l-20.62-4.18c-.63-.14-1.12-.66-1.21-1.3L4.11,31.18c-.15-1.06,.79-1.96,1.84-1.75Z"/><g id="j"><g id="k"><path class="y" d="M23.4,53.46v-4.23c0-1.56-1.12-2.83-2.52-2.83h-.56c-1.39,0-2.52,1.26-2.52,2.83v4.28c-.52,.39-.82,1.01-.8,1.66,0,.16,.02,.31,.04,.47l.04,.15h7.11l.04-.15c.03-.15,.05-.31,.04-.47,.02-.68-.31-1.33-.87-1.71Zm-4.86-.21c-.12,0-.24,.01-.36,.04v-4.05c0-1.33,.96-2.43,2.16-2.43h.56c1.19,0,2.16,1.08,2.16,2.43v4.04c-.09-.02-.18-.03-.28-.03h-4.24Zm5.37,2.14h-6.52c0-.07-.01-.14,0-.21,0-.84,.58-1.53,1.28-1.53h4c.7,0,1.28,.69,1.28,1.53-.01,.07-.02,.14-.03,.21Z"/><path class="y" d="M20.55,51.87c-.22-.01-.38-.2-.37-.41h0c0-.26,.15-.43,.38-.43s.37,.16,.37,.43-.15,.42-.38,.42h0Zm-.23-1.09l-.09-2.11h.65l-.09,2.11h-.47Z"/><path class="y" d="M17.13,49.81h-.9c-.14-.02-.24-.14-.22-.28,.01-.12,.11-.21,.22-.22h.9c.14,.02,.24,.14,.22,.28-.01,.12-.11,.21-.22,.22Z"/><path class="y" d="M25.07,49.81h-.9c-.14-.02-.24-.14-.22-.28,.01-.12,.11-.21,.22-.22h.9c.14,.02,.24,.14,.22,.28-.01,.12-.11,.21-.22,.22Z"/><path class="y" d="M20.63,45.75c-.13,0-.23-.12-.23-.25h0v-1.01c-.02-.12,.07-.24,.2-.25,.12-.02,.24,.07,.25,.2,0,.02,0,.04,0,.06v1.01c0,.13-.09,.24-.22,.25h0Z"/><path class="y" d="M23.31,46.76c-.06,0-.12-.02-.16-.07-.09-.1-.09-.25,0-.35l.63-.71c.07-.09,.2-.1,.28-.03,.01,0,.02,.02,.03,.03,.09,.1,.09,.25,0,.35l-.63,.71s-.09,.07-.15,.07Z"/><path class="y" d="M17.88,46.76c-.06,0-.12-.03-.16-.07l-.63-.71c-.09-.1-.09-.25,0-.35,.08-.09,.21-.1,.29-.02l.02,.02,.63,.71c.09,.1,.09,.25,0,.35-.04,.05-.09,.07-.15,.07Z"/><path class="y" d="M9.15,43.98l.57-.7c.28,.25,.65,.41,1.03,.43,.37,0,.55-.14,.55-.37s-.23-.32-.59-.48l-.54-.23c-.44-.17-.86-.54-.86-1.16,0-.71,.64-1.28,1.53-1.28,.51,0,1,.2,1.37,.56l-.5,.64c-.24-.21-.55-.32-.87-.32-.31,0-.5,.13-.5,.35s.27,.32,.64,.47l.52,.21c.52,.21,.83,.56,.83,1.16,0,.7-.59,1.32-1.61,1.32-.58,0-1.14-.22-1.57-.61Z"/><path class="y" d="M12.68,44l.47-.64c.23,.24,.54,.39,.88,.41,.39,0,.65-.17,.65-.48,0-.36-.19-.58-1.08-.58v-.71c.72,0,.95-.22,.95-.56,0-.29-.17-.45-.48-.45-.28,0-.5,.13-.75,.35l-.52-.62c.36-.33,.82-.51,1.31-.52,.87,0,1.45,.41,1.45,1.16,0,.42-.23,.75-.68,.93v.03c.47,.14,.82,.48,.82,1.03,0,.79-.72,1.23-1.57,1.23-.66,0-1.14-.23-1.44-.59Z"/><path class="y" d="M15.97,54.3c-3.53-1.46-5.29-5.44-3.98-9.03l.7,.26c-1.17,3.22,.4,6.78,3.56,8.09l-.28,.68Z"/><path class="y" d="M25.6,46.63c-.14-1.67-.89-3.23-2.1-4.38l.16-.16c-1.9-1.85-4.66-2.49-7.18-1.67l.23,.71c2.25-.73,4.73-.15,6.43,1.5l.2-.2c1.17,1.11,1.9,2.62,2.03,4.23,.02,.19,.02,.38,.02,.57h.24c0-.2,0-.39-.02-.59Z"/></g></g><rect class="r" x=".34" y="35.13" width="9.1" height="4.4" rx="2.2" ry="2.2" transform="translate(2.41 -.24) rotate(3.68)"/><rect class="r" x="2.29" y="52.99" width="9.1" height="4.4" rx="2.2" ry="2.2" transform="translate(3.56 -.33) rotate(3.68)"/><g><path class="u" d="M22.09,26.61l.62,2.29,.67-2.09,.92,.14-.04,3.15-.7-.11v-.74l.1-1.5-.73,2.14-.46-.07-.67-2.35,.05,1.52v.74l-.71-.11,.04-3.15,.91,.14Z"/><path class="u" d="M25.88,30.35c-.02-.05-.04-.12-.06-.22-.12,.15-.3,.21-.52,.17-.2-.03-.37-.12-.51-.28s-.21-.33-.21-.54c0-.25,.09-.43,.27-.54,.17-.1,.42-.13,.75-.08l.21,.03v-.12c0-.22-.08-.34-.25-.36-.16-.02-.24,.05-.24,.22l-.67-.1c0-.23,.09-.4,.27-.51,.18-.11,.4-.15,.68-.11s.49,.15,.65,.32c.16,.17,.24,.38,.24,.64v1.04c-.01,.22,.02,.38,.07,.51v.04l-.67-.1Zm-.41-.54c.08,.01,.15,0,.21-.03s.1-.07,.12-.11v-.37l-.19-.03c-.23-.04-.35,.06-.35,.29,0,.07,.02,.12,.06,.17s.09,.08,.16,.09Z"/><path class="u" d="M27.67,29.6l.37-1.27,.72,.11-.91,2.6-.04,.09c-.13,.28-.35,.4-.66,.35-.09-.01-.18-.04-.28-.09v-.52h.09c.09,.03,.17,.02,.22,0s.09-.07,.11-.14l.06-.15-.72-2.48,.71,.11,.32,1.37Z"/><path class="u" d="M28.8,29.61c0-.23,.05-.44,.13-.61s.21-.29,.36-.37c.16-.07,.34-.09,.55-.06,.32,.05,.57,.2,.76,.44,.18,.25,.27,.56,.27,.93v.03c0,.37-.1,.64-.29,.83-.19,.19-.44,.25-.76,.21s-.55-.18-.73-.41-.28-.51-.29-.86v-.12Zm.67,.15c0,.22,.03,.38,.09,.49,.06,.11,.15,.18,.27,.19,.24,.04,.36-.14,.37-.54v-.07c0-.42-.11-.65-.36-.69-.22-.03-.35,.13-.37,.49v.13Z"/></g></g></g></svg>