<?xml version="1.0" encoding="utf-8"?>
<!-- Generator: Adobe Illustrator 27.5.0, SVG Export Plug-In . SVG Version: 6.00 Build 0)  -->
<svg version="1.1" id="Capa_2_00000018935832403828615730000009859591155723662242_"
	 xmlns="http://www.w3.org/2000/svg" xmlns:xlink="http://www.w3.org/1999/xlink" x="0px" y="0px" viewBox="0 0 1921.7 79.1"
	 style="enable-background:new 0 0 1921.7 79.1;" xml:space="preserve">
<style type="text/css">
	.st0{opacity:0.5;}
	.st1{opacity:0.14;}
	.st2{fill:url(#SVGID_1_);}
	.st3{opacity:0.29;}
	.st4{fill:#A0B1C8;}
	.st5{fill:#DFEAF7;}
	.st6{opacity:0.28;fill:#6D4162;}
</style>
<g id="motivo_x5F_numeralia_x5F_txt_x5F_estadistica_00000090985536762275703040000001858662982162031507_">
	<g class="st0">
		<g class="st1">
			<linearGradient id="SVGID_1_" gradientUnits="userSpaceOnUse" x1="-0.1105" y1="32.1603" x2="1921.5715" y2="32.1603">
				<stop  offset="0" style="stop-color:#5B747F"/>
				<stop  offset="9.437384e-02" style="stop-color:#526F7C"/>
				<stop  offset="0.2507" style="stop-color:#386075"/>
				<stop  offset="0.3868" style="stop-color:#1D506D"/>
				<stop  offset="0.5674" style="stop-color:#1E9CD7"/>
				<stop  offset="0.9266" style="stop-color:#1D506D"/>
			</linearGradient>
			<path class="st2" d="M1921.6,30.6c0,0-769.8-40-948.9,0c-279.8,62.6-972.8,0-972.8,0V6.4l1921.7-0.5V30.6z"/>
		</g>
	</g>
	<g class="st3">
		<g>
			<g>
				<path class="st4" d="M1921.6,19.9c0,0-914.6-6.3-948.1,0c-278.4,52.3-971.9,0-971.9,0v-13l1920-0.5V19.9z"/>
			</g>
		</g>
		<path class="st5" d="M213.6,10.8c0,0,125.5-27.2,615.8,4.5s899.9-4.5,899.9-4.5H213.6z"/>
		<path class="st5" d="M213.6,24.4c0,0,125.5-27.2,615.8,4.5s899.9-4.5,899.9-4.5H213.6z"/>
	</g>
	<path class="st6" d="M1921.6,66.3c-178.9,8.9-605.2,24.1-1091.9-0.4c-248.8-12.5-426-16.1-549.9-15.7
		c-2.6,5.2,76.3,11.1,149.6,11.1C840.1,52.9,1312.7-3.4,1921.8,0C1921.8,0,1922.1,64.6,1921.6,66.3z"/>
</g>
</svg>
