<?xml version="1.0" encoding="UTF-8"?><svg id="Capa_2" xmlns="http://www.w3.org/2000/svg" xmlns:xlink="http://www.w3.org/1999/xlink" viewBox="0 0 1845.04 549.1"><defs><style>.cls-1{fill:url(#linear-gradient-2);}.cls-2{fill:url(#linear-gradient-17);}.cls-3{fill:url(#linear-gradient-15);}.cls-4{fill:url(#linear-gradient-18);}.cls-5{fill:url(#linear-gradient-28);}.cls-6{fill:url(#linear-gradient-14);}.cls-7{fill:url(#linear-gradient-36);}.cls-8{fill:url(#linear-gradient-20);}.cls-9{fill:url(#linear-gradient-6);}.cls-10{fill:url(#linear-gradient-35);}.cls-11{fill:url(#linear-gradient-32);}.cls-12{fill:url(#linear-gradient-11);}.cls-13{fill:url(#linear-gradient-10);}.cls-14{fill:#e6e6e6;}.cls-15{fill:url(#linear-gradient-37);}.cls-16{fill:url(#linear-gradient-16);}.cls-17{fill:url(#linear-gradient-31);}.cls-18{fill:url(#linear-gradient-21);}.cls-19{fill:url(#linear-gradient-25);}.cls-20{fill:url(#linear-gradient-5);}.cls-21{fill:url(#linear-gradient-34);}.cls-22{fill:url(#linear-gradient-7);}.cls-23{fill:url(#linear-gradient-24);}.cls-24{fill:url(#linear-gradient-9);}.cls-25{fill:url(#linear-gradient-22);}.cls-26{fill:url(#linear-gradient-3);}.cls-27{fill:url(#linear-gradient);}.cls-28{fill:url(#linear-gradient-27);}.cls-29{fill:url(#linear-gradient-33);}.cls-30{fill:url(#linear-gradient-29);}.cls-31{fill:url(#linear-gradient-30);}.cls-32{fill:url(#linear-gradient-23);}.cls-33{fill:url(#linear-gradient-19);}.cls-34{fill:url(#linear-gradient-4);}.cls-35{fill:url(#linear-gradient-8);}.cls-36{fill:url(#linear-gradient-12);}.cls-37{fill:url(#linear-gradient-13);}.cls-38{fill:url(#linear-gradient-26);}</style><linearGradient id="linear-gradient" x1="-70.18" y1="379.88" x2="-70.18" y2="130.26" gradientTransform="translate(1758.98) rotate(-180) scale(1 -1)" gradientUnits="userSpaceOnUse"><stop offset="0" stop-color="#fff"/><stop offset="1" stop-color="#f2f2f2"/></linearGradient><linearGradient id="linear-gradient-2" x1="-19.81" y1="377.14" x2="-19.81" y2="67.73" xlink:href="#linear-gradient"/><linearGradient id="linear-gradient-3" x1="30.56" y1="375.62" x2="30.56" y2="170.49" xlink:href="#linear-gradient"/><linearGradient id="linear-gradient-4" x1="80.93" y1="375.57" x2="80.93" y2="124.8" xlink:href="#linear-gradient"/><linearGradient id="linear-gradient-5" x1="131.29" y1="376.92" x2="131.29" y2="73.73" xlink:href="#linear-gradient"/><linearGradient id="linear-gradient-6" x1="181.66" y1="379.23" x2="181.66" y2="217.98" xlink:href="#linear-gradient"/><linearGradient id="linear-gradient-7" x1="232.03" y1="382.43" x2="232.03" y2="134.81" xlink:href="#linear-gradient"/><linearGradient id="linear-gradient-8" x1="282.4" y1="386.45" x2="282.4" y2="169.98" xlink:href="#linear-gradient"/><linearGradient id="linear-gradient-9" x1="332.77" y1="391.23" x2="332.77" y2="220.62" xlink:href="#linear-gradient"/><linearGradient id="linear-gradient-10" x1="383.14" y1="396.68" x2="383.14" y2="180.82" xlink:href="#linear-gradient"/><linearGradient id="linear-gradient-11" x1="433.51" y1="402.75" x2="433.51" y2="176.28" xlink:href="#linear-gradient"/><linearGradient id="linear-gradient-12" x1="483.88" y1="409.36" x2="483.88" y2="219.01" xlink:href="#linear-gradient"/><linearGradient id="linear-gradient-13" x1="534.25" y1="416.43" x2="534.25" y2="190.97" xlink:href="#linear-gradient"/><linearGradient id="linear-gradient-14" x1="584.62" y1="423.91" x2="584.62" y2="272.15" xlink:href="#linear-gradient"/><linearGradient id="linear-gradient-15" x1="634.99" y1="431.72" x2="634.99" y2="201.43" xlink:href="#linear-gradient"/><linearGradient id="linear-gradient-16" x1="685.35" y1="439.78" x2="685.35" y2="240.75" xlink:href="#linear-gradient"/><linearGradient id="linear-gradient-17" x1="735.72" y1="448.04" x2="735.72" y2="323.2" xlink:href="#linear-gradient"/><linearGradient id="linear-gradient-18" x1="786.09" y1="456.41" x2="786.09" y2="311.68" xlink:href="#linear-gradient"/><linearGradient id="linear-gradient-19" x1="836.46" y1="464.83" x2="836.46" y2="291.02" xlink:href="#linear-gradient"/><linearGradient id="linear-gradient-20" x1="886.83" y1="473.23" x2="886.83" y2="371.52" xlink:href="#linear-gradient"/><linearGradient id="linear-gradient-21" x1="937.2" y1="481.53" x2="937.2" y2="343.08" xlink:href="#linear-gradient"/><linearGradient id="linear-gradient-22" x1="987.57" y1="489.68" x2="987.57" y2="317.59" xlink:href="#linear-gradient"/><linearGradient id="linear-gradient-23" x1="1037.94" y1="497.59" x2="1037.94" y2="368.64" xlink:href="#linear-gradient"/><linearGradient id="linear-gradient-24" x1="1088.31" y1="505.19" x2="1088.31" y2="394.45" xlink:href="#linear-gradient"/><linearGradient id="linear-gradient-25" x1="1138.68" y1="512.43" x2="1138.68" y2="380.95" xlink:href="#linear-gradient"/><linearGradient id="linear-gradient-26" x1="1189.04" y1="519.22" x2="1189.04" y2="378.37" xlink:href="#linear-gradient"/><linearGradient id="linear-gradient-27" x1="1239.41" y1="525.49" x2="1239.41" y2="373.88" xlink:href="#linear-gradient"/><linearGradient id="linear-gradient-28" x1="1289.78" y1="531.18" x2="1289.78" y2="402.51" xlink:href="#linear-gradient"/><linearGradient id="linear-gradient-29" x1="1340.15" y1="536.21" x2="1340.15" y2="436.84" xlink:href="#linear-gradient"/><linearGradient id="linear-gradient-30" x1="1390.52" y1="540.52" x2="1390.52" y2="429.5" xlink:href="#linear-gradient"/><linearGradient id="linear-gradient-31" x1="1440.89" y1="544.04" x2="1440.89" y2="459.41" xlink:href="#linear-gradient"/><linearGradient id="linear-gradient-32" x1="1491.26" y1="546.68" x2="1491.26" y2="447.65" xlink:href="#linear-gradient"/><linearGradient id="linear-gradient-33" x1="1541.63" y1="548.4" x2="1541.63" y2="438.51" xlink:href="#linear-gradient"/><linearGradient id="linear-gradient-34" x1="1592" y1="549.1" x2="1592" y2="458" xlink:href="#linear-gradient"/><linearGradient id="linear-gradient-35" x1="1642.37" y1="549.09" x2="1642.37" y2="473.24" xlink:href="#linear-gradient"/><linearGradient id="linear-gradient-36" x1="1692.73" y1="548.3" x2="1692.73" y2="468.99" xlink:href="#linear-gradient"/><linearGradient id="linear-gradient-37" x1="1743.1" y1="546.34" x2="1743.1" y2="480.71" xlink:href="#linear-gradient"/></defs><g id="Capa_1-2"><path class="cls-27" d="m1813.28,378.01c10.58.54,21.17,1.16,31.75,1.87v-249.62c-10.59.37-21.17.82-31.75,1.35v246.4Z"/><path class="cls-1" d="m1762.92,376.05c10.58.29,21.17.65,31.75,1.1V67.73c-10.59.91-21.17,1.91-31.75,2.98v305.33Z"/><path class="cls-26" d="m1712.55,375.26c10.58.05,21.17.17,31.75.36v-205.13c-10.59.72-21.17,1.52-31.75,2.4v202.37Z"/><path class="cls-34" d="m1662.18,375.57c10.58-.18,21.17-.29,31.75-.32V124.8c-10.58,1.19-21.17,2.44-31.75,3.77v247Z"/><path class="cls-20" d="m1611.81,376.92c10.58-.39,21.17-.71,31.75-.97V73.73c-10.59,1.67-21.17,3.41-31.75,5.21v297.97Z"/><path class="cls-9" d="m1561.44,379.23c10.58-.58,21.17-1.1,31.75-1.56v-159.68c-10.58,1.23-21.17,2.51-31.75,3.86v157.38Z"/><path class="cls-22" d="m1511.07,382.43c10.58-.76,21.17-1.47,31.75-2.12v-245.5c-10.58,1.85-21.17,3.77-31.75,5.73v241.89Z"/><path class="cls-35" d="m1460.7,386.45c10.59-.93,21.17-1.8,31.75-2.63v-213.85c-10.59,1.9-21.17,3.85-31.75,5.85v210.62Z"/><path class="cls-24" d="m1410.33,391.23c10.58-1.08,21.17-2.11,31.75-3.09v-167.51c-10.58,1.85-21.17,3.74-31.75,5.68v164.93Z"/><path class="cls-13" d="m1359.96,396.68c10.59-1.21,21.17-2.39,31.75-3.51v-212.35c-10.59,2.25-21.17,4.54-31.75,6.88v208.99Z"/><path class="cls-12" d="m1309.59,402.75c10.59-1.33,21.17-2.63,31.75-3.89v-222.58c-10.59,2.46-21.17,4.97-31.75,7.5v218.96Z"/><path class="cls-36" d="m1259.23,409.36c10.58-1.44,21.17-2.85,31.75-4.22v-186.13c-10.59,2.41-21.17,4.85-31.75,7.33v183.03Z"/><path class="cls-37" d="m1208.86,416.43c10.59-1.53,21.17-3.04,31.75-4.51v-220.95c-10.59,2.74-21.17,5.5-31.75,8.29v217.17Z"/><path class="cls-6" d="m1158.49,423.91c10.58-1.61,21.17-3.19,31.75-4.76v-147c-10.59,2.42-21.17,4.87-31.75,7.34v144.42Z"/><path class="cls-3" d="m1108.12,431.72c10.59-1.67,21.17-3.32,31.75-4.96v-225.33c-10.58,2.99-21.17,6-31.75,9.03v221.25Z"/><path class="cls-16" d="m1057.75,439.78c10.58-1.72,21.17-3.42,31.75-5.11v-193.92c-10.58,2.89-21.17,5.8-31.75,8.72v190.31Z"/><path class="cls-2" d="m1007.38,448.04c10.58-1.75,21.17-3.49,31.75-5.22v-119.62c-10.58,2.5-21.17,5-31.75,7.52v117.32Z"/><path class="cls-4" d="m957.01,456.41c10.58-1.77,21.17-3.53,31.75-5.29v-139.44c-10.59,2.68-21.17,5.36-31.75,8.05v136.68Z"/><path class="cls-33" d="m906.64,464.83c10.58-1.77,21.17-3.54,31.75-5.31v-168.5c-10.59,2.92-21.17,5.84-31.75,8.76v165.05Z"/><path class="cls-8" d="m856.27,473.23c10.58-1.76,21.17-3.52,31.75-5.29v-96.42c-10.58,2.45-21.17,4.89-31.75,7.33v94.38Z"/><path class="cls-18" d="m805.9,481.53c10.58-1.73,21.17-3.47,31.75-5.22v-133.23c-10.58,2.72-21.17,5.43-31.75,8.13v130.32Z"/><path class="cls-25" d="m755.54,489.68c10.58-1.69,21.17-3.39,31.75-5.11v-166.98c-10.58,2.98-21.17,5.94-31.75,8.89v163.19Z"/><path class="cls-32" d="m705.17,497.59c10.58-1.63,21.17-3.29,31.75-4.96v-123.99c-10.58,2.64-21.17,5.26-31.75,7.87,0,40.36,0,80.72,0,121.08Z"/><path class="cls-23" d="m654.8,505.19c10.58-1.56,21.17-3.15,31.75-4.76v-105.99c-10.58,2.47-21.17,4.92-31.75,7.34v103.4Z"/><path class="cls-19" d="m604.43,512.43c10.58-1.48,21.17-2.98,31.75-4.51v-126.96c-10.58,2.61-21.17,5.19-31.75,7.74v123.74Z"/><path class="cls-38" d="m554.06,519.22c10.58-1.37,21.17-2.78,31.75-4.22v-136.62c-10.58,2.64-21.17,5.26-31.75,7.84v133.01Z"/><path class="cls-28" d="m503.69,525.49c10.58-1.26,21.17-2.56,31.75-3.89v-147.72c-10.58,2.69-21.17,5.35-31.75,7.97v143.64Z"/><path class="cls-5" d="m453.32,531.18c10.58-1.13,21.17-2.3,31.75-3.52v-125.16c-10.58,2.42-21.17,4.79-31.75,7.13v121.54Z"/><path class="cls-30" d="m402.95,536.21c10.58-.98,21.17-2.02,31.75-3.09v-96.28c-10.58,2.05-21.17,4.05-31.75,6.01v93.36Z"/><path class="cls-31" d="m352.58,540.52c10.58-.82,21.17-1.7,31.75-2.63v-108.4c-10.58,2.07-21.17,4.1-31.75,6.07v104.95Z"/><path class="cls-17" d="m302.21,544.04c10.58-.65,21.17-1.36,31.75-2.12v-82.51c-10.58,1.68-21.17,3.31-31.75,4.88v79.75Z"/><path class="cls-11" d="m251.84,546.68c10.58-.46,21.17-.98,31.75-1.56v-97.47c-10.58,1.73-21.17,3.4-31.75,5.01v94.03Z"/><path class="cls-29" d="m201.48,548.4c10.58-.26,21.17-.58,31.75-.97v-108.92c-10.58,1.75-21.17,3.43-31.75,5.04v104.84Z"/><path class="cls-21" d="m151.11,549.1c10.58-.04,21.17-.15,31.75-.32v-90.78c-10.58,1.38-21.17,2.69-31.75,3.94v87.16Z"/><path class="cls-10" d="m100.74,548.73c10.58.2,21.17.32,31.75.36v-75.85c-10.58,1.03-21.17,1.98-31.75,2.86v72.63Z"/><path class="cls-7" d="m50.37,547.21c10.58.45,21.17.81,31.75,1.1v-79.31c-10.58.92-21.17,1.76-31.75,2.52v75.7Z"/><path class="cls-15" d="m0,544.47c10.58.71,21.17,1.33,31.75,1.87v-65.63c-10.58.53-21.17.98-31.75,1.35v62.41Z"/><path class="cls-14" d="m176.92,402.55c-.06,0-.12,0-.16,0-.06-.02-.05-.06.03-.09,49.91-17.36,99.08-38.18,147.57-62.2.08-.04.19-.05.25-.03.06.02.05.07-.03.11-48.48,24.03-97.66,44.84-147.57,62.2-.03.01-.06.02-.1.02Z"/><path class="cls-14" d="m547.81,324.19c-.06.01-.13.01-.17-.01-.06-.03-.03-.09.05-.13,64.72-32.94,128.51-70.2,191.5-111.18.08-.05.19-.06.25-.03.06.04.04.11-.04.16-63,40.97-126.79,78.23-191.51,111.17-.02.01-.05.02-.08.03Z"/><path class="cls-14" d="m991.11,244.65c-.06.01-.13,0-.17-.03-.06-.05-.04-.13.03-.18,38.47-25.25,76.69-51.67,114.7-79.12,18.57-13.41,37.09-27.07,55.55-40.96.08-.06.19-.06.25,0s.05.14-.03.2c-18.47,13.89-36.99,27.55-55.56,40.96-38,27.45-76.23,53.86-114.7,79.11-.03.02-.05.03-.08.03Z"/><path class="cls-14" d="m1419.14,183.5c-.07.01-.14-.01-.18-.06-.06-.07-.04-.17.04-.22,26.84-17.08,53.61-34.43,80.34-52.01,28.71-18.88,57.36-38.03,85.97-57.39.08-.05.2-.04.26.04.06.08.05.18-.03.24-28.61,19.35-57.27,38.49-85.98,57.37-26.73,17.58-53.51,34.93-80.35,52-.02.01-.05.02-.08.03Z"/><path class="cls-14" d="m1403.51,185.37s-.07,0-.1,0c-26.4-9.12-52.67-17.62-78.81-25.51-49.89-15.06-99.31-27.92-148.29-38.75-.09-.02-.13-.1-.09-.18.04-.08.15-.12.24-.1,48.98,10.82,98.4,23.68,148.29,38.74,26.14,7.89,52.41,16.39,78.81,25.51.09.03.14.12.1.2-.02.05-.08.09-.14.09Z"/><path class="cls-14" d="m976.18,247.33s-.07,0-.11,0c-74.93-17.02-148.9-29.55-222.03-38.19-.09-.01-.12-.07-.07-.13.05-.06.15-.11.24-.1,73.14,8.64,147.1,21.17,222.03,38.18.09.02.13.09.08.16-.03.04-.08.07-.13.08Z"/><path class="cls-14" d="m531.88,328.06s-.04,0-.06,0c-63.87,2.03-127.53,5.04-191.07,8.6-.1,0-.15-.03-.12-.07.03-.04.13-.08.22-.09,63.54-3.57,127.19-6.59,191.06-8.62.1,0,.15.04.13.09-.02.04-.08.08-.16.09Z"/><path class="cls-14" d="m161.77,404.43s-.06,0-.09,0c-53.43-3.7-106.7-6.64-159.86-9.06-.09,0-.13-.03-.08-.06.05-.03.16-.05.25-.04,53.16,2.41,106.42,5.34,159.85,9.04.09,0,.13.04.08.07-.03.02-.09.04-.15.05Z"/><path class="cls-14" d="m1811.42,169.08s-.07,0-.11-.02c-71.19-37.12-141.31-69.2-210.43-96.65-.1-.04-.14-.14-.11-.23.04-.09.14-.13.24-.09,69.12,27.44,139.23,59.52,210.43,96.65.1.05.15.16.11.25-.02.06-.08.09-.14.09Z"/><path class="cls-14" d="m170.42,407.85c-5.04.54-9.43-.31-9.77-1.9-.34-1.58,3.48-3.34,8.52-3.93,5.03-.59,9.41.24,9.76,1.87.35,1.63-3.47,3.41-8.51,3.96Zm-1.22-5.71c-4.83.57-8.5,2.25-8.18,3.78.33,1.52,4.53,2.35,9.38,1.82,4.84-.52,8.51-2.23,8.17-3.8-.33-1.56-4.54-2.37-9.37-1.8Z"/><path class="cls-14" d="m332.99,340.8c-4.95,1.01-9.31.23-9.73-1.72-.42-1.95,3.26-4.38,8.2-5.43,4.94-1.05,9.3-.3,9.72,1.7.43,1.99-3.25,4.44-8.19,5.45Zm-1.5-7c-4.74,1.01-8.27,3.34-7.87,5.21.4,1.87,4.59,2.61,9.34,1.65,4.75-.97,8.28-3.32,7.87-5.23-.41-1.91-4.6-2.64-9.33-1.63Z"/><path class="cls-14" d="m747.46,213.48c-4.86,1.4-9.31.22-9.92-2.63-.61-2.85,2.84-6.34,7.69-7.79,4.85-1.45,9.3-.27,9.92,2.63.62,2.9-2.83,6.39-7.69,7.8Zm-2.19-10.21c-4.66,1.39-7.97,4.74-7.38,7.48.59,2.74,4.86,3.87,9.53,2.53,4.67-1.35,7.98-4.7,7.38-7.48-.6-2.78-4.87-3.91-9.53-2.52Z"/><path class="cls-14" d="m541.32,332.08c-4.94,1.03-9.37-.06-9.88-2.44-.51-2.38,3.09-5.18,8.02-6.26,4.93-1.08,9.36,0,9.88,2.43.52,2.42-3.08,5.24-8.02,6.28Zm-1.83-8.53c-4.73,1.04-8.19,3.73-7.7,6.01.49,2.28,4.75,3.34,9.49,2.34,4.74-.99,8.19-3.7,7.7-6.02-.5-2.32-4.75-3.37-9.48-2.33Z"/><path class="cls-14" d="m985.28,255.15c-4.93,1.08-9.52-.73-10.23-4.05-.71-3.32,2.71-6.94,7.63-8.07,4.92-1.13,9.51.69,10.23,4.06.72,3.36-2.7,6.98-7.63,8.07Zm-2.54-11.88c-4.72,1.08-8.01,4.56-7.33,7.75.68,3.19,5.09,4.93,9.82,3.89,4.73-1.04,8.02-4.51,7.33-7.74-.69-3.23-5.1-4.98-9.82-3.89Z"/><path class="cls-14" d="m1169.73,126.1c-4.9,1.25-9.53-.79-10.33-4.54-.8-3.75,2.52-7.86,7.4-9.16,4.88-1.29,9.52.75,10.33,4.55.81,3.8-2.51,7.9-7.4,9.15Zm-2.87-13.42c-4.69,1.24-7.87,5.19-7.1,8.79.77,3.6,5.22,5.56,9.92,4.36,4.7-1.2,7.89-5.14,7.11-8.78-.78-3.65-5.23-5.61-9.92-4.37Z"/><path class="cls-14" d="m1413.52,195.66c-5,.77-9.79-2.03-10.7-6.25-.9-4.22,2.42-8.33,7.4-9.14,4.99-.81,9.79,2,10.7,6.27.91,4.27-2.41,8.36-7.41,9.13Zm-3.23-15.09c-4.79.78-7.97,4.72-7.11,8.78.87,4.05,5.47,6.74,10.27,6,4.8-.74,7.99-4.67,7.11-8.76-.88-4.1-5.49-6.8-10.27-6.02Z"/><path class="cls-14" d="m1594.3,77.4c-5,.73-9.88-2.43-10.87-7.08-.99-4.64,2.26-9.07,7.25-9.85,4.99-.78,9.87,2.41,10.88,7.1,1,4.69-2.25,9.09-7.26,9.82Zm-3.55-16.59c-4.79.75-7.92,5-6.96,9.45.95,4.46,5.64,7.5,10.44,6.79,4.8-.71,7.93-4.93,6.97-9.43-.96-4.5-5.65-7.56-10.44-6.82Z"/><path class="cls-14" d="m1591.24,171.67c-.17.02-.35-.03-.49-.15-.23-.2-.25-.52-.05-.72,36.5-34.24,72.79-69.36,108.91-105.19,21.74-21.57,43.42-43.4,65.05-65.46.2-.21.56-.19.79.04.24.23.26.58.06.78-21.63,22.05-43.31,43.87-65.05,65.43-36.12,35.81-72.41,70.91-108.92,105.14-.08.08-.18.12-.3.13Z"/><path class="cls-14" d="m1578.68,170.99c-.18.02-.37-.03-.51-.17-15.29-14.39-30.51-28.47-45.65-42.25-31.6-28.76-62.88-56.2-93.85-82.35-.21-.18-.22-.49,0-.69.21-.2.56-.22.77-.03,30.97,26.16,62.25,53.62,93.86,82.39,15.14,13.79,30.36,27.88,45.65,42.27.22.21.23.53.01.71-.08.07-.18.11-.28.12Z"/><path class="cls-14" d="m587.76,345.94c-.05.01-.11.02-.17.03-17.83,1.19-35.64,2.43-53.44,3.74-51.25,3.75-102.4,7.93-153.5,12.3-.29.02-.47-.07-.41-.21.06-.14.35-.27.64-.3,51.1-4.39,102.24-8.6,153.48-12.37,17.8-1.31,35.61-2.57,53.43-3.76.29-.02.48.1.43.26-.04.13-.24.25-.46.31Z"/><path class="cls-14" d="m844.76,260.92c-.11.03-.22.04-.32.02-35.13-5.44-70.03-9.97-104.73-13.65-.26-.03-.36-.2-.23-.39.13-.19.45-.32.71-.29,34.7,3.67,69.6,8.19,104.73,13.63.26.04.37.23.24.43-.08.12-.23.21-.4.26Z"/><path class="cls-14" d="m1238.85,151.41c-.09.02-.18.03-.26.01-49.88-8.33-99.29-14.71-148.28-19.35-24.57-2.32-49.02-4.21-73.38-5.68-.28-.02-.43-.21-.34-.44.09-.23.39-.4.67-.38,24.36,1.46,48.81,3.34,73.38,5.66,48.98,4.63,98.39,11.01,148.27,19.32.29.05.45.28.36.52-.06.17-.22.29-.41.34Z"/><path class="cls-14" d="m1254.89,148.48c-.22.05-.44,0-.57-.16-.16-.2-.08-.48.18-.63,17.59-10.38,35.16-20.84,52.71-31.38,39.24-23.56,78.4-47.5,117.5-71.65.25-.16.59-.1.75.12.16.22.09.52-.16.68-39.11,24.13-78.27,48.04-117.52,71.59-17.55,10.53-35.12,20.98-52.72,31.35-.06.03-.12.06-.18.07Z"/><path class="cls-14" d="m859.27,256.96c-.17.05-.34.04-.47-.03-.2-.11-.2-.33.02-.5,48.48-39.1,96.27-81.04,143.45-125.48.21-.19.54-.26.75-.14.21.12.21.37,0,.56-47.18,44.43-94.97,86.36-143.46,125.45-.08.07-.18.11-.29.14Z"/><path class="cls-14" d="m603.91,340.89c-.17.04-.34.04-.46-.01-.2-.08-.19-.27.03-.41,41.29-27.54,82.01-57.44,122.21-89.49.21-.17.55-.23.75-.15.2.09.19.3-.02.46-40.2,32.05-80.92,61.94-122.21,89.48-.09.06-.19.1-.3.12Z"/><path class="cls-14" d="m11,460.54c-.22.01-.44-.01-.54-.07-.13-.07,0-.15.28-.19,121.23-17.25,238.69-50,353.22-94.82.27-.1.59-.11.72-.02.13.09.02.25-.24.35-114.53,44.78-232,77.5-353.24,94.73-.06,0-.13.01-.19.02Z"/><path class="cls-14" d="m373.08,366.47c-5.11,1.12-9.68.31-10.2-1.8-.51-2.1,3.22-4.76,8.32-5.92,5.1-1.17,9.67-.37,10.19,1.78.52,2.15-3.2,4.83-8.31,5.94Zm-1.77-7.28c-4.51,1.03-7.81,3.38-7.36,5.24.45,1.86,4.5,2.58,9.02,1.59,4.52-.99,7.82-3.36,7.35-5.26-.46-1.9-4.51-2.61-9.02-1.58Z"/><path class="cls-14" d="m597.6,349.13c-5.09,1.17-9.76.01-10.39-2.57-.63-2.59,3-5.68,8.08-6.9,5.08-1.22,9.74-.07,10.38,2.56.64,2.64-2.98,5.74-8.08,6.91Zm-2.17-8.93c-4.5,1.08-7.7,3.81-7.15,6.11.56,2.29,4.68,3.32,9.19,2.28,4.51-1.04,7.71-3.79,7.15-6.12-.57-2.33-4.69-3.35-9.19-2.27Z"/><path class="cls-14" d="m733.57,251.44c-5.02,1.49-9.68.32-10.39-2.61-.71-2.93,2.78-6.55,7.79-8.09,5.01-1.54,9.67-.37,10.39,2.6.72,2.98-2.77,6.61-7.79,8.1Zm-2.45-10.08c-4.43,1.36-7.52,4.57-6.89,7.16.63,2.59,4.76,3.63,9.2,2.31,4.44-1.32,7.53-4.53,6.89-7.16-.64-2.63-4.76-3.66-9.19-2.3Z"/><path class="cls-14" d="m854.06,267.35c-5.05,1.34-9.8-.15-10.57-3.32-.77-3.17,2.7-6.88,7.75-8.27,5.04-1.39,9.78.1,10.57,3.32.78,3.22-2.69,6.93-7.74,8.27Zm-2.66-10.93c-4.46,1.23-7.54,4.51-6.85,7.32.68,2.81,4.88,4.13,9.35,2.94,4.47-1.19,7.55-4.47,6.85-7.32-.69-2.85-4.89-4.17-9.35-2.94Z"/><path class="cls-14" d="m1010.48,131.96c-4.99,1.6-9.76,0-10.63-3.58-.87-3.57,2.47-7.82,7.45-9.47,4.98-1.65,9.75-.04,10.63,3.58.88,3.62-2.46,7.86-7.45,9.46Zm-2.99-12.29c-4.41,1.46-7.36,5.21-6.59,8.38s4.99,4.58,9.4,3.16c4.42-1.42,7.38-5.17,6.6-8.37-.78-3.2-5-4.62-9.4-3.17Z"/><path class="cls-14" d="m1249,159.81c-5.09,1.21-10.03-1.1-11.02-5.17-.99-4.06,2.33-8.4,7.41-9.65,5.07-1.26,10.02,1.07,11.02,5.18,1,4.11-2.32,8.43-7.41,9.64Zm-3.4-13.97c-4.49,1.11-7.43,4.95-6.55,8.54.88,3.6,5.25,5.64,9.75,4.57,4.5-1.07,7.44-4.9,6.56-8.53-.88-3.63-5.26-5.69-9.75-4.58Z"/><path class="cls-14" d="m1434.59,48.8c-5.1,1.16-10.14-1.55-11.23-6.06-1.1-4.51,2.14-9.18,7.23-10.39,5.08-1.21,10.13,1.52,11.24,6.08,1.11,4.56-2.14,9.2-7.24,10.37Zm-3.77-15.5c-4.5,1.07-7.37,5.2-6.4,9.19.97,3.99,5.43,6.39,9.94,5.36,4.51-1.03,7.38-5.14,6.4-9.17-.98-4.03-5.44-6.45-9.94-5.38Z"/><path class="cls-14" d="m1587.11,185.49c-5.23.62-10.43-2.74-11.59-7.5-1.16-4.76,2.14-9.2,7.36-9.86,5.22-.67,10.42,2.72,11.59,7.53,1.17,4.81-2.13,9.22-7.36,9.84Zm-3.98-16.36c-4.62.59-7.54,4.51-6.51,8.73,1.03,4.22,5.62,7.19,10.25,6.64,4.63-.55,7.55-4.45,6.52-8.7-1.04-4.25-5.64-7.25-10.25-6.66Z"/></g></svg>