<svg xmlns="http://www.w3.org/2000/svg" viewBox="0 0 306.04 276.52"><defs><style>.cls-1{fill:#fef6fc;}.cls-1,.cls-5,.cls-6{stroke:#6d4162;stroke-miterlimit:10;stroke-width:0.78px;}.cls-2{fill:#713972;}.cls-3{fill:#b25fac;}.cls-4{fill:#f230b9;}.cls-5,.cls-6{fill:none;}.cls-6{isolation:isolate;}</style></defs><g id="estados"><circle class="cls-1" cx="136.96" cy="151.48" r="97.03"/><path class="cls-2" d="M68.88,191.81h-7l-1.56,4.35H58.1l6.35-16.62h1.91l6.36,16.62H70.47ZM62.59,190h5.64l-2.83-7.77Z"/><path class="cls-2" d="M74.12,189.88a7.26,7.26,0,0,1,1.34-4.59,4.59,4.59,0,0,1,7.06-.11l.1-1.37h1.93v12.05a5,5,0,0,1-1.42,3.78A5.25,5.25,0,0,1,79.31,201a6.33,6.33,0,0,1-2.61-.57,4.47,4.47,0,0,1-2-1.57l1.1-1.26a4.12,4.12,0,0,0,3.32,1.68,3.24,3.24,0,0,0,2.4-.87,3.33,3.33,0,0,0,.86-2.44v-1.07A4.33,4.33,0,0,1,79,196.39a4.25,4.25,0,0,1-3.51-1.75A7.67,7.67,0,0,1,74.12,189.88Zm2.13.24a5.53,5.53,0,0,0,.85,3.28,2.77,2.77,0,0,0,2.4,1.19,3.08,3.08,0,0,0,2.93-1.81v-5.64a3.14,3.14,0,0,0-2.91-1.77,2.81,2.81,0,0,0-2.41,1.2A6,6,0,0,0,76.25,190.12Z"/><path class="cls-2" d="M95.36,194.94a4.51,4.51,0,0,1-3.62,1.45,3.84,3.84,0,0,1-3-1.15,5,5,0,0,1-1-3.4v-8H89.8v8c0,1.87.76,2.8,2.28,2.8a3.16,3.16,0,0,0,3.22-1.8v-9h2.11v12.35h-2Z"/><path class="cls-2" d="M108.24,196.16a4.42,4.42,0,0,1-.29-1.3,4.72,4.72,0,0,1-3.52,1.53,4.34,4.34,0,0,1-3-1,3.34,3.34,0,0,1-1.17-2.62,3.5,3.5,0,0,1,1.46-3,7,7,0,0,1,4.13-1.07h2v-1a2.37,2.37,0,0,0-.66-1.76,2.64,2.64,0,0,0-2-.66,3.1,3.1,0,0,0-1.9.57,1.67,1.67,0,0,0-.76,1.38h-2.12a2.94,2.94,0,0,1,.65-1.78,4.5,4.5,0,0,1,1.78-1.37,6.09,6.09,0,0,1,2.47-.5,4.9,4.9,0,0,1,3.35,1.07,3.86,3.86,0,0,1,1.25,2.94v5.68a6.91,6.91,0,0,0,.44,2.7v.19Zm-3.5-1.61a3.63,3.63,0,0,0,1.88-.52,3,3,0,0,0,1.29-1.33v-2.53h-1.65c-2.59,0-3.88.75-3.88,2.27A1.92,1.92,0,0,0,103,194,2.56,2.56,0,0,0,104.74,194.55Z"/><path class="cls-2" d="M120.52,192.88a1.56,1.56,0,0,0-.64-1.33,6.18,6.18,0,0,0-2.25-.81,10.72,10.72,0,0,1-2.55-.83,3.51,3.51,0,0,1-1.39-1.14,2.71,2.71,0,0,1-.45-1.57,3.2,3.2,0,0,1,1.29-2.57,5,5,0,0,1,3.28-1,5.1,5.1,0,0,1,3.4,1.09,3.43,3.43,0,0,1,1.31,2.77H120.4a1.92,1.92,0,0,0-.74-1.5,2.79,2.79,0,0,0-1.85-.62,2.88,2.88,0,0,0-1.81.5,1.58,1.58,0,0,0-.65,1.31,1.27,1.27,0,0,0,.61,1.15,7.2,7.2,0,0,0,2.18.74,11.23,11.23,0,0,1,2.56.85,3.77,3.77,0,0,1,1.46,1.18,2.86,2.86,0,0,1,.47,1.68,3.17,3.17,0,0,1-1.32,2.66,5.6,5.6,0,0,1-3.44,1,6.22,6.22,0,0,1-2.62-.53,4.28,4.28,0,0,1-1.79-1.47,3.49,3.49,0,0,1-.64-2h2.11a2.19,2.19,0,0,0,.85,1.68,3.33,3.33,0,0,0,2.09.62,3.47,3.47,0,0,0,1.93-.48A1.51,1.51,0,0,0,120.52,192.88Z"/><path class="cls-2" d="M130.34,194.66a3.06,3.06,0,0,0,2-.68,2.47,2.47,0,0,0,.94-1.71h2a3.86,3.86,0,0,1-.73,2,4.93,4.93,0,0,1-1.79,1.52,5.23,5.23,0,0,1-2.38.58,5.11,5.11,0,0,1-4-1.69,6.69,6.69,0,0,1-1.48-4.6v-.36a7.41,7.41,0,0,1,.66-3.2,4.94,4.94,0,0,1,1.9-2.18,5.35,5.35,0,0,1,2.92-.78,5,5,0,0,1,3.46,1.25,4.43,4.43,0,0,1,1.46,3.22h-2a3,3,0,0,0-.91-2,2.82,2.82,0,0,0-2-.77,3,3,0,0,0-2.49,1.15,5.46,5.46,0,0,0-.88,3.35v.4a5.3,5.3,0,0,0,.88,3.29A3,3,0,0,0,130.34,194.66Z"/><path class="cls-2" d="M145.24,196.16a4.69,4.69,0,0,1-.3-1.3,4.7,4.7,0,0,1-3.51,1.53,4.36,4.36,0,0,1-3-1,3.34,3.34,0,0,1-1.17-2.62,3.48,3.48,0,0,1,1.47-3,6.92,6.92,0,0,1,4.12-1.07h2.06v-1a2.37,2.37,0,0,0-.66-1.76,2.66,2.66,0,0,0-1.95-.66,3.08,3.08,0,0,0-1.9.57,1.67,1.67,0,0,0-.76,1.38h-2.13a2.89,2.89,0,0,1,.66-1.78,4.5,4.5,0,0,1,1.78-1.37,6.06,6.06,0,0,1,2.47-.5,4.87,4.87,0,0,1,3.34,1.07,3.84,3.84,0,0,1,1.26,2.94v5.68a6.93,6.93,0,0,0,.43,2.7v.19Zm-3.5-1.61a3.63,3.63,0,0,0,1.88-.52,3.11,3.11,0,0,0,1.29-1.33v-2.53h-1.66c-2.58,0-3.88.75-3.88,2.27A1.9,1.9,0,0,0,140,194,2.54,2.54,0,0,0,141.74,194.55Z"/><path class="cls-2" d="M152.62,196.16h-2.11V178.63h2.11Z"/><path class="cls-2" d="M156,180.53a1.24,1.24,0,0,1,.32-.86,1.14,1.14,0,0,1,.93-.36,1.17,1.17,0,0,1,.93.36,1.24,1.24,0,0,1,.32.86,1.22,1.22,0,0,1-.32.86,1.19,1.19,0,0,1-.93.34,1.17,1.17,0,0,1-.93-.34A1.22,1.22,0,0,1,156,180.53Zm2.28,15.63h-2.11V183.81h2.11Z"/><path class="cls-2" d="M166.8,196.39a5.39,5.39,0,0,1-4.09-1.65,6.12,6.12,0,0,1-1.57-4.41v-.39a7.35,7.35,0,0,1,.7-3.28,5.35,5.35,0,0,1,2-2.26,4.88,4.88,0,0,1,2.73-.82,4.63,4.63,0,0,1,3.75,1.59,6.85,6.85,0,0,1,1.33,4.54v.88h-8.36a4.4,4.4,0,0,0,1.06,2.95,3.35,3.35,0,0,0,2.6,1.12,3.7,3.7,0,0,0,1.89-.45,4.88,4.88,0,0,0,1.36-1.21l1.29,1A5.18,5.18,0,0,1,166.8,196.39Zm-.27-11.07a2.81,2.81,0,0,0-2.14.93,4.53,4.53,0,0,0-1.08,2.6h6.19v-.16a4,4,0,0,0-.87-2.49A2.63,2.63,0,0,0,166.53,185.32Z"/><path class="cls-2" d="M176.05,183.81l.07,1.55a4.51,4.51,0,0,1,3.7-1.78c2.6,0,3.92,1.47,3.94,4.42v8.16h-2.11V188a2.83,2.83,0,0,0-.61-2,2.46,2.46,0,0,0-1.86-.64,3.1,3.1,0,0,0-1.81.55,3.79,3.79,0,0,0-1.21,1.44v8.8h-2.11V183.81Z"/><path class="cls-2" d="M189.81,180.82v3h2.31v1.63h-2.31v7.67a1.69,1.69,0,0,0,.31,1.11,1.3,1.3,0,0,0,1,.37,5,5,0,0,0,1-.13v1.7a6.15,6.15,0,0,1-1.62.23,2.63,2.63,0,0,1-2.13-.86,3.67,3.67,0,0,1-.72-2.43v-7.66h-2.25v-1.63h2.25v-3Z"/><path class="cls-2" d="M199.71,196.39a5.39,5.39,0,0,1-4.09-1.65,6.12,6.12,0,0,1-1.57-4.41v-.39a7.35,7.35,0,0,1,.7-3.28,5.42,5.42,0,0,1,2-2.26,4.88,4.88,0,0,1,2.73-.82,4.63,4.63,0,0,1,3.75,1.59,6.85,6.85,0,0,1,1.33,4.54v.88h-8.36a4.4,4.4,0,0,0,1.06,2.95,3.35,3.35,0,0,0,2.6,1.12,3.67,3.67,0,0,0,1.89-.45,4.88,4.88,0,0,0,1.36-1.21l1.29,1A5.17,5.17,0,0,1,199.71,196.39Zm-.27-11.07a2.81,2.81,0,0,0-2.14.93,4.46,4.46,0,0,0-1.07,2.6h6.18v-.16a4,4,0,0,0-.87-2.49A2.63,2.63,0,0,0,199.44,185.32Z"/><path class="cls-2" d="M214.15,192.88a1.56,1.56,0,0,0-.64-1.33,6.18,6.18,0,0,0-2.25-.81,10.47,10.47,0,0,1-2.54-.83,3.47,3.47,0,0,1-1.4-1.14,2.71,2.71,0,0,1-.45-1.57,3.2,3.2,0,0,1,1.29-2.57,5,5,0,0,1,3.28-1,5.1,5.1,0,0,1,3.4,1.09,3.43,3.43,0,0,1,1.31,2.77H214a1.92,1.92,0,0,0-.74-1.5,2.79,2.79,0,0,0-1.85-.62,2.88,2.88,0,0,0-1.81.5,1.58,1.58,0,0,0-.65,1.31,1.27,1.27,0,0,0,.61,1.15,7.2,7.2,0,0,0,2.18.74,11.5,11.5,0,0,1,2.57.85,3.81,3.81,0,0,1,1.45,1.18,2.86,2.86,0,0,1,.47,1.68,3.17,3.17,0,0,1-1.32,2.66,5.58,5.58,0,0,1-3.43,1,6.24,6.24,0,0,1-2.63-.53,4.28,4.28,0,0,1-1.79-1.47,3.49,3.49,0,0,1-.64-2h2.11a2.19,2.19,0,0,0,.85,1.68,3.34,3.34,0,0,0,2.1.62,3.43,3.43,0,0,0,1.92-.48A1.51,1.51,0,0,0,214.15,192.88Z"/><path id="AGS" class="cls-3" d="M197.45,128.35l-.7,1.41-.35.35-2.12,3.17-1.76,2.47-2.47,1.76-3.52,1.41L184.06,140l-1.76,2.11-1.77,2.12-2.82.7-2.82,1.77-1,2.82-.35,3.17-.71,3.17-1.41,2.47-2.11,1.06-2.47.7-2.47,1.06-2.47,2.11-2.11,2.12-2.47,2.11-2.47,1.77-3.17.7h-3.17l-2.82-.35-3.53-.35-3.17-.36-7.05-1.41-3.52-.35-5.29-1.41-4.23-2.47L115,160.07,110.39,158l-3.52-.71L103,158l-3.88,1.41-3.17,1.41-3.88-2.47-3.17-2.12L86.42,153l-1-4.58V143.5l.7-2.46.71-2.47,1.41-2.12,1.41-2.11L91,132.23l1.76-2.12,1.41-2.82,1.76-3.17,1.76-2.82,2.12-2.47,2.11-2.47,2.47-2.46,2.12-2.82,1.41-2.82.35-3.18L107.22,103l-1.76-1.76-.35-1.76,2.46-3.88,3.88-1.76,4.23-.36,3.88.36h6l1.76-1.06.71-1.41.7-2.82,1.06-1.06.7-.35h4.94l1.06-1.06,1.05-1.41,1.06-1.06,1.41-.7h2.11l1.41-1.41L144.93,79,146,76.89l2.12-2.12,1.76,1.06,1.41,2.82,1.06,2.47,1,2.46,1.41,2.82,2.12,1.77,2.11-.71.71-.7.7-.36.71-.35.7-.35,1.41,1.41,1.06,3.52L165.73,92l2.12-.35,1.41,1.06,1.05,1.41,1.41,1.41,2.12,1.06h4.58l2.11,1.05,1.06,2.82.35,4.23-.35,4.58-.35,3.53,1.41,3.17,2.47,1.41,3.17,1.41,2.82,1.76,1.76,1.77,1.76,1.76,1.41,2.11,1.41,2.12Z"/><path class="cls-1" d="M94.07,42.29a3.19,3.19,0,0,0,.53-1.36A1.53,1.53,0,0,0,94,39.62c-.42-.31-.74-.36-1.12.11l.29.08,0,.12a11.22,11.22,0,0,1-1.65-.34,3.48,3.48,0,0,0-2.58.07,8,8,0,0,1-2.47.61,5.56,5.56,0,0,0-2.64.84,1.41,1.41,0,0,0-.5.63A7.05,7.05,0,0,0,83,44.59a.88.88,0,0,1-.2.58,1.09,1.09,0,0,0-.5,1c0,.7-.43,1-.89,1.37s-.69.41-1,.64a4.27,4.27,0,0,0-.47.48h0l-1,.48h0a3.35,3.35,0,0,0-3,.34,1.34,1.34,0,0,1-.5.22c-.88.24-1.85-.18-2.71.52a3.91,3.91,0,0,1-1.73.43.65.65,0,0,1-.53-.16,3.25,3.25,0,0,0-1.32-1.22,3.61,3.61,0,0,0-1.47-.42,9,9,0,0,1-1-.11c-.28-.42-.51-.79-.76-1.15-.34-.51-.85-.94-.93-1.61A3.42,3.42,0,0,0,63.75,44a7.79,7.79,0,0,1-1.91-3.09,1,1,0,0,1,0-.63.74.74,0,0,0-.2-1,2.81,2.81,0,0,1-1.07-1.9c0-.32-.17-.63-.2-1a2.39,2.39,0,0,1,.05-.7c.06-.45.16-.9.22-1.35,0-.23,0-.47,0-.7.08-1.05.14-2.11.28-3.16A10.11,10.11,0,0,1,62,26.73a7.55,7.55,0,0,0,.5-1.59,1.27,1.27,0,0,0,0-.43,1.36,1.36,0,0,0-.51.11.46.46,0,0,1-.67-.05,1.67,1.67,0,0,0-1.24-.42,4.23,4.23,0,0,1-1.12-.25c-.64-.26-1.25-.61-1.9-.86a1,1,0,0,1-.65-.52c-.27-.58-.59-1.15-.88-1.73a1.36,1.36,0,0,1,0-.36c-.05-.42-.08-.85-.17-1.26A1.18,1.18,0,0,0,55,18.9c-.3-.32-.62-.62-.91-.94s-.6-.7-.89-1.06a1.4,1.4,0,0,1-.28-.36c-.25-.53-.46-1.09-.73-1.61a4.42,4.42,0,0,0-1.45-2.16c-.31-.2-.5-.6-.81-.79s-.45-.69-1-.7A20.29,20.29,0,0,1,46.7,11a.67.67,0,0,0-.31,0,4.68,4.68,0,0,0-.64.3,1.59,1.59,0,0,0-.57.48,6,6,0,0,0-.47,1.21,1.06,1.06,0,0,1-1.82.66c-.4-.28-.88-.45-1.31-.69a7.71,7.71,0,0,1-.77-.49,4.71,4.71,0,0,0-.45-.33,2.06,2.06,0,0,1-1.1-1.78,4.26,4.26,0,0,0-.93-2.12c-.28-.37-.82-.54-1.19-.86s-.93-.91-1.41-1.35c-.25-.23-.53-.43-.78-.65a2.62,2.62,0,0,1-.66-.67,1,1,0,0,0-1-.64c-1.34,0-2.68,0-4,0-1.15,0-1-.1-1,1,0,.47-.13.63-.61.62-2.54,0-5.08,0-7.62,0a2.57,2.57,0,0,1-.83-.12L8.77,1.84C8,1.57,8,1.56,8.18.78a4.09,4.09,0,0,0-.5,0l-6.47.58c-.52,0-.59.19-.36.67a2.8,2.8,0,0,0,.3.46L1.44,3a3,3,0,0,0,.34.57c.28.31.51.6.35,1.06-.1.31.06.54.29.78.4.41.87.82.75,1.52,0,.09.1.24.19.32.46.4.89.78.69,1.5,0,.15.13.52.22.53.46,0,.51.33.49.65a2.44,2.44,0,0,0,.52,1.65,7.29,7.29,0,0,0,1.65,1.16,4.11,4.11,0,0,1,.73.46c.82.86,1.61,1.74,2.39,2.63a.49.49,0,0,1,.09.39c-.14.53,0,1.14-.54,1.55-.06.06,0,.2-.08.31s-.22,0-.29.07a1.18,1.18,0,0,1-1.12.12,1.71,1.71,0,0,0-.5-.1,2.64,2.64,0,0,0-.46.13,2.59,2.59,0,0,0,.3.48c.51.5,1.33.7,1.47,1.56a.28.28,0,0,0,.16.16,7.17,7.17,0,0,0,1.36.73,1.36,1.36,0,0,1,.78.58c.19.27.4.56.82.19s1,.05,1.2.38a3,3,0,0,0,.43.52c.59.71,1.61.82,2.15,1.64a3.36,3.36,0,0,1,.33,2.66c-.22.49-.36,1-.56,1.61a5.24,5.24,0,0,0,.71.1c.39,0,.69.12.74.58l-.39.23.81.64.12-.1-.18-.57a.85.85,0,0,1,.27.13c1,.9,2.33,1.51,3.18,2.64a.89.89,0,0,0,.35.21,1.75,1.75,0,0,1,1,1.35,5.7,5.7,0,0,0,.22.81c.21.49.53.55.95.23.24-.19.5-.36.76-.53a1.15,1.15,0,0,0,0-1.86,1.14,1.14,0,0,1-.37-.49,6.73,6.73,0,0,0-.43-.94,3.48,3.48,0,0,0-.73-.57l-.8-.64-.12.07.1.79h0l-.45-.21a1.37,1.37,0,0,1-.66-1.56A1,1,0,0,0,20.46,28,5.64,5.64,0,0,1,19.9,27a3.45,3.45,0,0,0-.39-.82,2.24,2.24,0,0,1-.78-1.7.92.92,0,0,0-.07-.4c-.19-.53-.39-1.05-.59-1.57s-.47-1-1.14-1c-.09,0-.26-.25-.24-.35.06-.34-.09-.48-.37-.6-.12,0-.17-.23-.27-.35-.34-.41-.31-1.11-1-1.31a1.17,1.17,0,0,1-.81-1.09c-.08-.52-.18-1-.31-1.55,0-.13-.25-.22-.37-.33s-.4-.24-.43-.39c-.12-.75-.73-1-1.25-1.32a3.79,3.79,0,0,0-1-1.77c-.62-.6-1.46-.93-2-1.67a2.3,2.3,0,0,1-.48-1.27c0-.69-.13-1.38-.2-2.07a.45.45,0,0,0-.12-.25C7.5,6.48,7.81,5.65,8,4.87c.1-.49.46-.54.87-.24a3.27,3.27,0,0,0,.78.51,1.92,1.92,0,0,0,.83.06c.14,0,.3-.22.42-.19s.45.17.49.32c.18.68.72.73,1.28.88s.71.33.52.89a1.8,1.8,0,0,0,.43,1.77,2.27,2.27,0,0,1,.55,1.19c0,.85.58,1.37.91,2,.1.2.12.43.21.63a1,1,0,0,0,.27.35.91.91,0,0,0,.3.13l.08.13c-1.19-.14-.84.79-1.14,1.37.29.12.58.34.79.28s.37-.38.61-.65c.18.24.36.5.55.74s.53.88.91,1.09a2.87,2.87,0,0,1,1,1,3.31,3.31,0,0,0,.77.72,2.35,2.35,0,0,0,.65.27c.18-.07.42-.14.55-.05a.82.82,0,0,1,.21.51c0,.21-.06.46,0,.64s.39.58.54.89a.94.94,0,0,0,.86.63c.63,0,.75.35.84.85a.7.7,0,0,0,.91.64.78.78,0,0,1,.9.55,1.63,1.63,0,0,1,0,.95,2.17,2.17,0,0,1-.32.57,1.08,1.08,0,0,0,.21,1.21,4.61,4.61,0,0,1,.6.47,1.44,1.44,0,0,0,1.31.66.57.57,0,0,1,.21.1l.75.46,1,.56-.07.12L28,27.64a3.36,3.36,0,0,0,2.46,2.3c-.37.38,0,.52.2.71s.42.31.62.49a10.65,10.65,0,0,1,1,.93c.34.39.64.83,1,1.25.09.12.19.23.29.35a17,17,0,0,0,1.52,1.75,3.09,3.09,0,0,1,1.06,2.2,3,3,0,0,0,.25,1c.25.54.49,1.12,1.11,1.28a4.52,4.52,0,0,0,0,.68,1,1,0,0,1-.34,1,5.46,5.46,0,0,0-.57.78,3,3,0,0,1,.47.12c.13.08.24.19.36.28-.1.1-.18.24-.3.3a4.71,4.71,0,0,1-.54.12c-.48.12-.57.37-.28.77a2.67,2.67,0,0,1,.22.41,6.86,6.86,0,0,0,.45.95,14.44,14.44,0,0,0,1,1.3,2.51,2.51,0,0,0,.67.67,17.49,17.49,0,0,1,2.86,1.46A12.72,12.72,0,0,1,42.68,50a2,2,0,0,0,.62.5,17.32,17.32,0,0,0,1.71.6c.58.18,1.17.34,1.75.5a.36.36,0,0,0,.27,0c.49-.29.79,0,1.1.31a10.27,10.27,0,0,0,.77.71c.48.37,1,.71,1.47,1a2.14,2.14,0,0,0,.45.24c.57.21,1.15.38,1.71.61s1.09.52,1.65.76a7.35,7.35,0,0,0,1,.38c1,.29,2.08.22,2.84,1.09a1.45,1.45,0,0,0,.45.22c.57.25,1.13.51,1.7.74a5.36,5.36,0,0,0,.78.23,6,6,0,0,1,1.83.47,3.12,3.12,0,0,0,2.54.41,13.5,13.5,0,0,0,1.82-.72c.37-.17.71-.4,1.08-.58a6.49,6.49,0,0,1,.74-.26l.58-.18-.4-.28.26-.2.79.25-.22.23,1.9.63c1.64.53,2.69,1.85,3.91,2.94.65.57,1.24,1.19,1.86,1.79l.09,0c.08-.69.57-1.33.2-2.07a.74.74,0,0,1,0-.56c.3-.57.66-1.1,1-1.67a.78.78,0,0,1,.81-.48c1,0,2,0,3,0,.16,0,.41-.11.45-.23a5.15,5.15,0,0,0,.12-1s0,0-.07,0c-.42-.13-.6-.48-.8-.84a.82.82,0,0,0-.4-.36,4.22,4.22,0,0,1-1.53-1.35c1.06-.07,1.06-.07,1.06-1.13a.33.33,0,0,0,0-.1c-.07-.48.15-.61.62-.61,1.49,0,3,0,4.49,0,.22,0,.47.06.53-.29s.29-.3.5-.15.43.12.57-.11c.24-.39.45-.8.67-1.19-.11.14-.25.28-.35.43.1-.15.24-.29.35-.43h0l0,0h0c.14-.14.29-.41.43-.4.47,0,.66-.25.83-.6a4.94,4.94,0,0,1,.3-.49l.12,0a2.88,2.88,0,0,1-.1.51c-.12.27-.1.47.18.62a2.69,2.69,0,0,1,.33.26l.06.06h0c.13.4.24.1.28,0,.16-.43.29-.88.43-1.32.18-.62.36-1.24.55-1.91H91.8c.35-.24.82-.23.74-.74l-.78-.14a3.78,3.78,0,0,0,.66-1.17,3.3,3.3,0,0,1,1.08-2A2.72,2.72,0,0,0,94.07,42.29Z"/><path class="cls-1" d="M93.71,43.65a.29.29,0,0,0,.12.23.25.25,0,0,0,.24-.06c.21-.27.4-.56.64-.9C94,42.82,93.65,43.12,93.71,43.65Z"/><path id="MEX2717" class="cls-4" d="M48,38.06l0,0h0L48,38.2l-.05.07-.07,0-.1,0-.07,0,0,0,0,.06-.08,0-.08,0,0,.08v.09l0,.09,0,.06-.06,0-.07,0-.06,0-.07.06-.06.06-.07.06-.07.05-.09,0h-.35l-.2,0h-.09l-.15,0L45.85,39l-.11-.09-.12,0-.1,0-.11,0-.11,0-.09,0-.1-.07-.09,0L45,38.75l0-.13v-.14l0-.07,0-.06,0-.06,0-.06,0-.06.05-.06,0-.08,0-.09,0-.07.06-.07.06-.07.07-.07.06-.08,0-.08v-.08l0-.06-.05,0v-.05l.07-.11.11,0H46l.05,0,0,0,0-.08,0,0h.15l0,0,0,0,0,0,0,0h.06l0,0,0-.07,0-.06,0-.06.05,0,0,.08,0,.07,0,.07,0,.08.06,0H47l0,0h.06l0,0,0,.09,0,0h.06l0,0,0,0,0,0,.06,0h.13l.06,0,0,.08v.34l0,.09.06,0,.09,0,.08.05,0,0,.05,0L48,38l0,.06Z"/><circle class="cls-5" cx="136.96" cy="151.48" r="104.09"/><polyline class="cls-6" points="213.34 81.1 271.32 41.25 305.78 41.25"/><polyline class="cls-6" points="214.19 220.92 271.32 255.56 305.78 255.56"/><polyline class="cls-6" points="239.72 131.27 272.01 116.16 306.47 116.16"/><polyline class="cls-6" points="238.56 172.75 271 186.07 305.46 186.07"/></g></svg>