<?xml version="1.0" encoding="UTF-8"?><svg id="estados" xmlns="http://www.w3.org/2000/svg" viewBox="0 0 306.04 276.52"><defs><style>.cls-1,.cls-2{fill:#3bb1e6;}.cls-3{fill:#fff;}.cls-4{stroke-width:1.53px;}.cls-4,.cls-2,.cls-5{stroke:#fff;}.cls-4,.cls-5{fill:none;opacity:.67;stroke-miterlimit:10;}.cls-6{fill:#0a2f3a;opacity:.5;}.cls-2{stroke-linecap:round;stroke-linejoin:round;stroke-width:1.38px;}.cls-5{stroke-width:1.67px;}</style></defs><g id="bc-icono"><circle class="cls-6" cx="136.96" cy="151.48" r="97.03"/><circle class="cls-5" cx="136.96" cy="151.48" r="104.09"/><polyline class="cls-4" points="229.53 104.17 271.63 73.79 306.09 73.79"/><polyline class="cls-4" points="229.02 199.66 271.63 220.23 306.09 220.23"/><polyline class="cls-4" points="240.77 150.49 271.63 150.49 306.09 150.49"/><g><path class="cls-1" d="M116.28,206.28v-16.62h5.43c1.8,0,3.16,.37,4.07,1.12,.91,.75,1.36,1.85,1.36,3.31,0,.78-.22,1.46-.66,2.06-.44,.6-1.04,1.06-1.8,1.39,.9,.25,1.61,.73,2.13,1.43,.52,.7,.78,1.54,.78,2.52,0,1.49-.48,2.66-1.45,3.51-.97,.85-2.33,1.28-4.1,1.28h-5.76Zm2.19-9.53h3.31c.96,0,1.72-.24,2.3-.72,.57-.48,.86-1.13,.86-1.96,0-.91-.27-1.58-.8-2-.53-.42-1.34-.62-2.43-.62h-3.24v5.29Zm0,1.76v5.98h3.62c1.02,0,1.82-.26,2.41-.79,.59-.53,.88-1.26,.88-2.19,0-2-1.09-3-3.26-3h-3.65Z"/><path class="cls-1" d="M138.12,206.28c-.12-.24-.22-.68-.3-1.3-.98,1.02-2.15,1.53-3.51,1.53-1.22,0-2.22-.34-3-1.03-.78-.69-1.17-1.56-1.17-2.62,0-1.29,.49-2.28,1.47-3,.98-.71,2.35-1.07,4.13-1.07h2.05v-.97c0-.74-.22-1.33-.66-1.76-.44-.44-1.09-.66-1.95-.66-.75,0-1.38,.19-1.89,.57-.51,.38-.76,.84-.76,1.38h-2.12c0-.62,.22-1.21,.66-1.79,.44-.57,1.03-1.03,1.78-1.36,.75-.33,1.57-.5,2.47-.5,1.42,0,2.54,.36,3.34,1.07,.81,.71,1.22,1.69,1.26,2.94v5.68c0,1.13,.14,2.04,.43,2.71v.18h-2.21Zm-3.5-1.61c.66,0,1.29-.17,1.88-.51,.59-.34,1.02-.79,1.29-1.33v-2.53h-1.65c-2.59,0-3.88,.76-3.88,2.27,0,.66,.22,1.18,.66,1.55,.44,.37,1.01,.56,1.7,.56Z"/><path class="cls-1" d="M145.39,193.93v13.77c0,2.37-1.08,3.56-3.23,3.56-.46,0-.89-.07-1.29-.2v-1.68c.24,.06,.56,.09,.96,.09,.47,0,.83-.13,1.08-.38,.25-.25,.37-.7,.37-1.33v-13.83h2.11Zm-2.33-3.27c0-.33,.1-.62,.31-.86,.21-.24,.52-.36,.92-.36s.72,.12,.94,.35c.21,.24,.32,.52,.32,.87s-.11,.63-.32,.86c-.21,.23-.52,.34-.94,.34s-.72-.11-.92-.34c-.21-.23-.31-.51-.31-.86Z"/><path class="cls-1" d="M156.41,206.28c-.12-.24-.22-.68-.3-1.3-.98,1.02-2.15,1.53-3.51,1.53-1.22,0-2.22-.34-3-1.03-.78-.69-1.17-1.56-1.17-2.62,0-1.29,.49-2.28,1.47-3,.98-.71,2.35-1.07,4.13-1.07h2.05v-.97c0-.74-.22-1.33-.66-1.76-.44-.44-1.09-.66-1.95-.66-.75,0-1.38,.19-1.89,.57-.51,.38-.76,.84-.76,1.38h-2.12c0-.62,.22-1.21,.66-1.79,.44-.57,1.03-1.03,1.78-1.36,.75-.33,1.57-.5,2.47-.5,1.42,0,2.54,.36,3.34,1.07,.81,.71,1.22,1.69,1.26,2.94v5.68c0,1.13,.14,2.04,.43,2.71v.18h-2.21Zm-3.5-1.61c.66,0,1.29-.17,1.88-.51,.59-.34,1.02-.79,1.29-1.33v-2.53h-1.65c-2.59,0-3.88,.76-3.88,2.27,0,.66,.22,1.18,.66,1.55,.44,.37,1.01,.56,1.7,.56Z"/><path class="cls-1" d="M101.33,226c-.21,1.76-.85,3.11-1.95,4.07-1.09,.96-2.54,1.43-4.35,1.43-1.96,0-3.54-.7-4.72-2.11-1.18-1.41-1.77-3.29-1.77-5.65v-1.6c0-1.54,.28-2.9,.83-4.07,.55-1.17,1.33-2.07,2.34-2.7,1.01-.63,2.18-.94,3.51-.94,1.76,0,3.18,.49,4.24,1.48,1.07,.99,1.69,2.35,1.86,4.09h-2.2c-.19-1.33-.6-2.29-1.24-2.88-.64-.6-1.52-.89-2.66-.89-1.4,0-2.5,.52-3.29,1.55-.8,1.04-1.19,2.51-1.19,4.42v1.61c0,1.8,.38,3.24,1.13,4.31,.75,1.07,1.81,1.6,3.16,1.6,1.22,0,2.15-.28,2.8-.83,.65-.55,1.08-1.51,1.3-2.88h2.2Z"/><path class="cls-1" d="M111.61,231.28c-.12-.24-.22-.68-.3-1.3-.98,1.02-2.15,1.53-3.51,1.53-1.22,0-2.22-.34-3-1.03-.78-.69-1.17-1.56-1.17-2.62,0-1.29,.49-2.28,1.47-3,.98-.71,2.35-1.07,4.13-1.07h2.05v-.97c0-.74-.22-1.33-.66-1.76-.44-.44-1.09-.66-1.95-.66-.75,0-1.38,.19-1.89,.57-.51,.38-.76,.84-.76,1.38h-2.12c0-.62,.22-1.21,.66-1.79,.44-.57,1.03-1.03,1.78-1.36,.75-.33,1.57-.5,2.47-.5,1.42,0,2.54,.36,3.34,1.07,.81,.71,1.22,1.69,1.26,2.94v5.68c0,1.13,.14,2.04,.43,2.71v.18h-2.21Zm-3.5-1.61c.66,0,1.29-.17,1.88-.51,.59-.34,1.02-.79,1.29-1.33v-2.53h-1.65c-2.59,0-3.88,.76-3.88,2.27,0,.66,.22,1.18,.66,1.55,.44,.37,1.01,.56,1.7,.56Z"/><path class="cls-1" d="M118.99,231.28h-2.11v-17.53h2.11v17.53Z"/><path class="cls-1" d="M122.38,215.65c0-.34,.1-.63,.31-.87s.52-.35,.93-.35,.72,.12,.94,.35c.21,.24,.32,.52,.32,.87s-.11,.63-.32,.86c-.21,.23-.52,.34-.94,.34s-.72-.11-.93-.34c-.21-.23-.31-.51-.31-.86Zm2.28,15.62h-2.11v-12.35h2.11v12.35Z"/><path class="cls-1" d="M129.08,231.28v-10.72h-1.95v-1.63h1.95v-1.27c0-1.32,.35-2.35,1.06-3.07s1.71-1.08,3-1.08c.49,0,.97,.06,1.45,.19l-.11,1.7c-.36-.07-.74-.1-1.14-.1-.68,0-1.21,.2-1.59,.6-.37,.4-.56,.97-.56,1.72v1.3h2.64v1.63h-2.64v10.72h-2.11Z"/><path class="cls-1" d="M135.59,224.99c0-1.21,.24-2.3,.71-3.26,.48-.97,1.14-1.71,1.99-2.24,.85-.53,1.82-.79,2.9-.79,1.68,0,3.04,.58,4.08,1.75,1.04,1.16,1.56,2.71,1.56,4.64v.15c0,1.2-.23,2.28-.69,3.24-.46,.96-1.12,1.7-1.97,2.23-.86,.53-1.84,.8-2.95,.8-1.67,0-3.03-.58-4.07-1.75-1.04-1.16-1.56-2.7-1.56-4.62v-.15Zm2.12,.25c0,1.37,.32,2.47,.95,3.3,.64,.83,1.49,1.24,2.55,1.24s1.92-.42,2.56-1.26c.63-.84,.95-2.02,.95-3.53,0-1.35-.32-2.45-.96-3.29-.64-.84-1.5-1.26-2.56-1.26s-1.88,.41-2.52,1.24c-.64,.83-.96,2.02-.96,3.56Z"/><path class="cls-1" d="M155.45,220.82c-.32-.05-.67-.08-1.04-.08-1.38,0-2.32,.59-2.82,1.77v8.76h-2.11v-12.35h2.05l.03,1.43c.69-1.1,1.67-1.65,2.94-1.65,.41,0,.72,.05,.94,.16v1.96Z"/><path class="cls-1" d="M159.39,218.93l.07,1.55c.94-1.19,2.18-1.78,3.7-1.78,2.61,0,3.93,1.47,3.95,4.42v8.16h-2.11v-8.17c0-.89-.21-1.55-.61-1.97s-1.02-.64-1.87-.64c-.68,0-1.29,.18-1.8,.55-.52,.37-.92,.84-1.21,1.44v8.8h-2.11v-12.35h2Z"/><path class="cls-1" d="M170.3,215.65c0-.34,.1-.63,.31-.87s.52-.35,.93-.35,.72,.12,.94,.35c.21,.24,.32,.52,.32,.87s-.11,.63-.32,.86c-.21,.23-.52,.34-.94,.34s-.72-.11-.93-.34c-.21-.23-.31-.51-.31-.86Zm2.28,15.62h-2.11v-12.35h2.11v12.35Z"/><path class="cls-1" d="M183.58,231.28c-.12-.24-.22-.68-.3-1.3-.98,1.02-2.15,1.53-3.51,1.53-1.22,0-2.22-.34-3-1.03-.78-.69-1.17-1.56-1.17-2.62,0-1.29,.49-2.28,1.47-3,.98-.71,2.35-1.07,4.13-1.07h2.05v-.97c0-.74-.22-1.33-.66-1.76-.44-.44-1.09-.66-1.95-.66-.75,0-1.38,.19-1.89,.57-.51,.38-.76,.84-.76,1.38h-2.12c0-.62,.22-1.21,.66-1.79,.44-.57,1.03-1.03,1.78-1.36,.75-.33,1.57-.5,2.47-.5,1.42,0,2.54,.36,3.34,1.07,.81,.71,1.22,1.69,1.26,2.94v5.68c0,1.13,.14,2.04,.43,2.71v.18h-2.21Zm-3.5-1.61c.66,0,1.29-.17,1.88-.51,.59-.34,1.02-.79,1.29-1.33v-2.53h-1.65c-2.59,0-3.88,.76-3.88,2.27,0,.66,.22,1.18,.66,1.55,.44,.37,1.01,.56,1.7,.56Z"/></g><path id="BC" class="cls-2" d="M168.39,181.23h-.51l-.19-.32-.19,.06-.13-.13,.06-.13,.26-.19,.26,.19,.32,.32,.13,.19h0Zm-30.73-7.25s.4,.05,.51,.06l.06,.13-.32,.19s-.49-.16-.51-.26l.26-.13Zm8.28,5.07c-.24,.45,.07,1.06,0,1.54-.3-.24-1.5-.72-1.6-.96-.43-.67-1.31-.66-1.73,0-.65-1.2,1.74-2.58,2.18-3.72-.54-.96-.74-2.9,.51-3.34,.68,.28,.2,1.26,.83,1.6,.19,.67,.17,3.35,.38,3.85-.08,.14-.75,.76-.58,1.03Zm58.26-6.42l.06,.13-.32-.13-.06-.19,.19-.13,.19,.13-.06,.19Zm-9.56-4.62l-.45-.77-.64-.38-.77-.38-.58-.83,.71,.19,1.09,.77,.83,.77,.26,.32-.45,.32Zm-2.5-2.63v.13l-.19-.06-.26-.13-.19-.06-.06-.13v-.19l.26,.26,.45,.06v.13h0Zm6.86-1.03c.73,.77,.16,1.76-.9,1.48,.12-.31-.33-.91-.19-1.28,.33-.19,.78,.02,1.09-.19h0Zm-9.62-3.66l-.13,.13v.06h-.06l-.06-.06h.06l.06-.06,.06-.13v-.13l.06,.06,.06,.06-.06,.06h0Zm-9.24-3.4v.06c-.08,.01-.54-.34-.38-.58h-.06c.06-.3-.17-.43-.26-.71,.81-.36,.15,.99,.71,1.22Zm-97.01,3.98l.13-.58-.32-1.73-.32-.32-.83-1.99-.26-1.09,.64-1.15,1.67-.38,.06,2.12,.64,1.73-.06,1.28-.06,1.03-1.28,1.09Zm96.88-15.46c1.39,.33,2.33,2.62,3.02,3.53-1.41,1.01,.06,2.34,1.28,2.37,2.25-.48,2.44-.27,2.18,1.03,.48,1.35-.59,3.95,1.54,4.23-.35,.42-.27,1.1-.26,1.6-1.5-1.03-2.77-2.1-3.79-3.72-1-.52-3.6-2.9-3.91-3.27-.27-.87-.83-1.55-1.35-2.31-1.46-.97,.29-2.31-.19-3.59,0,0,1,.06,.96-.19h.26s.26,.32,.26,.32Zm-18.16-9.88h-.19l-.32-.19,.13-.19-.06-.26h.32l.06,.38s.06,.26,.06,.26Zm-2.95-3.08l.13,.06v.13h-.06l-.06-.13-.13-.06h-.06l-.06-.06,.26,.06Zm-31.57-9.17h-.26l-.13-.06v-.13l.13-.13h.13l.13,.19s0,.13,0,.13Zm-22.97-45.23h-.06l-.06-.26-.06-.19-.06-.06-.06-.26,.13,.06,.06,.13,.06,.19,.06,.19v.19Zm46.64,11.48c0,.38,.32,.46,.22,1.19,.35,2.03,2.3,2.5,3.02,4.48,.1,1.63-5.26,12.31,.75,17.1,1.86,1.48,.52,5.19,1.32,7.37,1.28,3.47,.07,6.37,.53,9.06,.3,1.73,1.83,3.22,1.93,5.28,.05,1.02,2.85,3.94,3.28,4.33,1.69,1.53,1.91,1.48,2.11,1.55,1.82,.67,3.4,2.83,5.07,4.17,2.62,2.36,5.59,3.61,7.06,7.13,.87,2.07,1.84,2.62,2.37,4.49,.27,.98,.92,1.05,.33,1.78,.16,.51-.2,.35,.29,.94,.37,.45,.74,.25,1.11,.68,.93,1.07,1.48-.2,1.86,.13,.38-.04,.2,.68,.38,.77,.63,.44,.66,.97,1.7,1.78,.92,.24,3.54,3.48,3.3,5.77-.07,.66,2.96,1.94,4.25,3.25,.84,.47,1.22,2.14,1.47,3.33,.05,1.15,.18,1.6,.39,2.28,.52,1.7,.42,3.2,1.07,4.44-8.44,0-21.65,.05-30.1,.05,1.28-1.15,1.11-1.76,1.76-3.64,.47-1.39,.18-1.84,.31-3.2,.45-2.46,.94-3.51-.05-4.96-.76-.81-1.07-1.62-2.2-2.57-2.46-2.07-3.17-3.83-5.3-5.72-.72-.64-2.38-2.51-1.86-2.1-2.75-2.2-5.56-6.79-7.21-7.68-2.44-1.02-1.81-1.23-4.54-2.57-4.27-2.65-6.32-3.54-9.6-6.69-1.91-1.84-2.7-3.62-3.41-6.32-1.28-3.91,.29-6.63-1.23-8.23-.94-.71-1.51-.76-2.7-1.13-1.28-.68-1.26-1.15-1.21-3.07,.5-1.94,.54-3.39-.29-5.27-.87-1.44-2.18-3.23-2.96-3.83-.69-.45-2.81-1.76-2.6-2.96,.68-3.33-.47-5.27-2.96-8.13-.79-.82-2.23-1.97-2.86-3.02-.89-1.28-1.1-1.79-1.08-2.67-.26-.89,.8-2.29,.45-3.09-.03-.94-.31-1.6-.42-2.2-.24-1.02-1.08-1.55-1.44-2.28-1.73-2.05-2.25-3.55-3.33-5.11-1.69-2.43-4.96-6.03-4.72-9.75,14.29-1.89,34.7-3.87,49.43-4.51-.21,1.42,.1,1.63-.21,5.22-3.69-.09-6.16,4.51-5.67,5.36,1.05,.49,1.59,3.41,1.79,4.63,.28,1.67,.08,2.85,.39,4.16Z"/><g><g><path class="cls-3" d="M94.07,42.29c.23-.43,.53-.9,.53-1.36,0-.45-.13-.96-.61-1.31-.43-.31-.75-.37-1.12,.1,.1,.03,.19,.06,.29,.09,0,.04-.02,.08-.02,.11-.55-.11-1.12-.15-1.65-.33-.89-.32-1.78-.27-2.58,.07-.81,.34-1.62,.54-2.47,.61-.95,.09-1.84,.3-2.64,.83-.21,.14-.4,.39-.5,.63-.4,.91-.32,1.89-.33,2.86,0,.2-.06,.48-.2,.57-.39,.26-.52,.65-.49,1.05,.04,.7-.43,1.02-.89,1.36-.32,.24-.7,.41-1.03,.64-.18,.13-.31,.32-.46,.48h0s0,0,0,0c-.34,.16-.68,.31-1.01,.47,0,0,0,0-.01,0,0,0,0,0,0,0-.73-.39-2.31-.19-2.94,.35-.13,.11-.32,.16-.5,.21-.88,.25-1.86-.18-2.72,.52-.42,.34-1.14,.33-1.73,.43-.16,.03-.43-.04-.52-.16-.38-.47-.67-.95-1.32-1.22-.49-.2-.93-.43-1.48-.42-.38,0-.76-.07-1.03-.1-.28-.42-.52-.79-.76-1.15-.35-.52-.85-.94-.93-1.61-.1-.86-.61-1.52-1.19-2.07-.91-.88-1.49-1.93-1.91-3.09-.07-.18-.04-.44,.03-.63,.17-.4,.19-.71-.2-1.02-.6-.48-.98-1.11-1.07-1.9-.04-.32-.17-.63-.21-.96-.03-.23,.02-.47,.05-.7,.07-.45,.16-.9,.22-1.35,.03-.23-.04-.47-.02-.7,.08-1.06,.14-2.12,.28-3.16,.18-1.28,.42-2.54,1.07-3.7,.27-.47,.36-1.05,.51-1.59,.04-.13-.02-.29-.03-.43-.17,.03-.38,.02-.51,.11-.26,.19-.49,.14-.67-.05-.34-.38-.78-.38-1.24-.42-.38-.03-.77-.1-1.12-.25-.65-.26-1.25-.62-1.9-.86-.29-.11-.51-.22-.64-.51-.28-.59-.6-1.15-.88-1.73-.05-.1-.03-.24-.05-.36-.05-.42-.08-.85-.18-1.27-.04-.17-.21-.33-.34-.47-.3-.32-.61-.62-.9-.94-.31-.34-.6-.7-.89-1.05-.1-.12-.22-.23-.28-.36-.25-.53-.46-1.09-.72-1.61-.39-.78-.62-1.66-1.45-2.16-.31-.19-.5-.6-.81-.79-.34-.21-.45-.69-.98-.69-.73-.01-1.46-.16-2.2-.25-.1-.01-.21,0-.3,.04-.22,.09-.44,.18-.64,.3-.21,.13-.46,.27-.57,.48-.21,.38-.35,.8-.47,1.21-.28,.99-1.01,1.24-1.83,.66-.4-.28-.87-.45-1.3-.69-.27-.15-.52-.32-.78-.49-.15-.1-.28-.25-.44-.33-.75-.36-1.03-1.07-1.1-1.78-.08-.84-.48-1.5-.93-2.12-.27-.38-.82-.54-1.19-.86-.49-.42-.93-.91-1.41-1.35-.25-.23-.53-.43-.78-.65-.23-.21-.53-.4-.66-.67-.22-.47-.54-.64-1.03-.63-1.34,0-2.68,0-4.02,0-1.15,0-1-.11-.99,1,0,.47-.14,.62-.61,.62-2.54-.02-5.08,0-7.63-.01-.28,0-.57-.03-.83-.12-3.48-1.25-6.95-2.52-10.42-3.79-.74-.27-.74-.28-.59-1.06-.18,0-.34-.01-.5,0-2.16,.19-4.31,.38-6.47,.58-.52,.05-.59,.19-.36,.68,.08,.17,.21,.31,.3,.46,.1,.17,.2,.34,.3,.51,.11,.19,.19,.42,.34,.58,.28,.31,.51,.6,.35,1.06-.1,.31,.06,.54,.29,.77,.4,.42,.87,.82,.75,1.52-.02,.09,.1,.24,.19,.32,.45,.4,.89,.78,.68,1.5-.04,.15,.13,.53,.22,.53,.46,.03,.51,.33,.49,.65-.04,.63,.18,1.23,.52,1.65,.42,.5,1.09,.79,1.65,1.16,.24,.16,.54,.26,.73,.46,.82,.86,1.61,1.74,2.39,2.63,.08,.09,.11,.27,.08,.39-.14,.53-.03,1.15-.53,1.56-.07,.05-.06,.2-.08,.3-.1,.02-.22,.02-.3,.07-.35,.26-.72,.24-1.11,.12-.16-.05-.33-.1-.5-.09-.16,0-.31,.09-.47,.13,.1,.16,.18,.35,.31,.47,.51,.5,1.33,.7,1.46,1.56,0,.06,.1,.12,.16,.16,.45,.25,.88,.58,1.36,.72,.37,.11,.57,.3,.78,.59,.19,.27,.41,.55,.82,.19,.28-.25,1,.05,1.2,.38,.11,.19,.28,.35,.43,.52,.59,.7,1.61,.82,2.16,1.64,.41,.62,.65,1.97,.33,2.66-.23,.49-.36,1.02-.56,1.61,.27,.04,.49,.1,.71,.1,.4,.01,.7,.12,.75,.57-.12,.07-.23,.14-.39,.23,.3,.24,.56,.44,.81,.64,.04-.03,.08-.06,.12-.09-.05-.17-.11-.35-.18-.58,.12,.06,.21,.08,.27,.13,1.03,.91,2.32,1.51,3.18,2.64,.08,.1,.23,.17,.36,.22,.63,.23,.88,.75,1.03,1.35,.07,.27,.12,.55,.22,.81,.2,.49,.53,.55,.94,.23,.25-.19,.51-.36,.76-.53,.63-.43,.6-1.45-.03-1.86-.16-.1-.27-.31-.36-.49-.16-.31-.23-.67-.43-.94-.18-.24-.48-.38-.73-.57-.27-.21-.53-.43-.8-.64-.04,.02-.08,.05-.12,.07,.03,.26,.06,.53,.09,.79,0,0,0,0,0,.01,0,0,0,0,0,0-.15-.07-.3-.15-.45-.21-.51-.22-.88-1.05-.66-1.56,.2-.46,.1-.82-.21-1.2-.23-.28-.39-.62-.56-.95-.14-.27-.19-.6-.39-.82-.44-.5-.85-.97-.79-1.69,.01-.13-.02-.28-.07-.41-.19-.52-.39-1.04-.59-1.57-.2-.53-.47-.98-1.14-.99-.09,0-.25-.24-.24-.35,.06-.34-.09-.48-.37-.6-.12-.05-.18-.23-.27-.35-.35-.42-.31-1.11-.95-1.31-.53-.17-.72-.58-.8-1.09-.08-.52-.18-1.04-.32-1.55-.04-.14-.24-.22-.37-.34-.15-.13-.4-.24-.42-.39-.12-.74-.73-.98-1.26-1.32-.19-.67-.47-1.24-1-1.77-.62-.6-1.46-.93-1.95-1.67-.27-.4-.47-.77-.48-1.27-.02-.69-.13-1.38-.2-2.07,0-.09-.05-.19-.11-.25-.68-.73-.37-1.56-.2-2.34,.11-.49,.47-.54,.88-.24,.25,.18,.49,.41,.77,.51,.25,.09,.55,.08,.83,.06,.15-.01,.31-.22,.43-.19,.18,.04,.44,.18,.48,.32,.18,.68,.72,.73,1.28,.88,.68,.18,.71,.33,.52,.89-.23,.68,.01,1.23,.42,1.77,.26,.35,.55,.79,.55,1.19,0,.85,.58,1.37,.91,2.03,.1,.2,.12,.43,.21,.63,.06,.13,.16,.26,.27,.35,.08,.07,.2,.08,.3,.12,.03,.04,.05,.09,.08,.13-1.18-.13-.84,.8-1.13,1.38,.29,.11,.57,.33,.79,.28,.22-.06,.37-.38,.6-.65,.18,.24,.36,.49,.56,.74,.29,.38,.52,.87,.91,1.08,.48,.26,.72,.64,1.01,1.04,.2,.28,.48,.51,.77,.72,.19,.14,.43,.19,.65,.28,.18-.07,.42-.14,.55-.05,.13,.08,.18,.33,.21,.51,.03,.21-.06,.46,.02,.64,.13,.32,.39,.58,.54,.89,.18,.37,.47,.63,.86,.63,.63-.01,.75,.35,.84,.85,.09,.51,.39,.74,.91,.65,.51-.1,.76,.23,.9,.55,.12,.26,.03,.64-.03,.95-.04,.2-.21,.38-.32,.57-.2,.35-.09,.98,.21,1.21,.2,.16,.43,.28,.6,.47,.35,.4,.72,.74,1.31,.67,.07,0,.14,.05,.21,.09,.25,.15,.5,.32,.75,.47,.33,.19,.66,.37,.99,.56-.02,.04-.05,.08-.07,.12-.16-.1-.31-.19-.51-.31,.35,1.03,1.37,2.23,2.46,2.29-.36,.38-.03,.53,.2,.71,.21,.17,.42,.32,.62,.49,.33,.3,.68,.59,.97,.93,.34,.39,.64,.83,.96,1.25,.09,.12,.2,.24,.3,.35,.5,.59,.94,1.24,1.51,1.75,.69,.61,.99,1.32,1.06,2.2,.03,.33,.12,.67,.25,.97,.25,.55,.49,1.13,1.1,1.28-.02,.28-.07,.48-.04,.68,.05,.39-.05,.68-.34,.96-.21,.2-.35,.47-.57,.77,.24,.06,.37,.07,.47,.13,.13,.07,.24,.18,.36,.28-.1,.1-.18,.24-.3,.3-.17,.07-.36,.07-.55,.12-.48,.12-.56,.37-.27,.77,.09,.12,.15,.27,.22,.4,.15,.32,.25,.67,.45,.95,.31,.46,.68,.88,1.04,1.3,.21,.24,.41,.53,.67,.67,.95,.49,2,.8,2.86,1.47,.46,.36,.8,.88,1.21,1.31,.18,.19,.38,.41,.62,.51,.56,.23,1.14,.41,1.72,.59,.58,.18,1.17,.34,1.75,.5,.08,.02,.2,.03,.27,0,.48-.28,.78,.02,1.09,.32,.25,.24,.5,.5,.78,.71,.48,.36,.97,.7,1.46,1.04,.14,.1,.29,.18,.45,.24,.57,.21,1.15,.39,1.72,.62,.56,.23,1.09,.52,1.64,.76,.33,.15,.67,.28,1.02,.38,.98,.28,2.08,.21,2.84,1.08,.1,.12,.3,.15,.46,.22,.56,.25,1.12,.51,1.69,.75,.25,.1,.52,.16,.78,.23,.6,.16,1.25,.1,1.83,.47,.77,.49,1.66,.65,2.55,.41,.62-.17,1.22-.46,1.82-.72,.37-.17,.72-.4,1.08-.58,.23-.11,.49-.18,.74-.26,.16-.05,.32-.1,.57-.18-.19-.13-.28-.2-.4-.28,.13-.1,.24-.18,.27-.2,.32,.1,.56,.18,.78,.25-.05,.05-.14,.15-.22,.24,.65,.21,1.27,.42,1.9,.62,1.64,.53,2.69,1.86,3.91,2.94,.65,.57,1.24,1.2,1.86,1.8,.03-.02,.08-.03,.08-.05,.08-.69,.57-1.32,.2-2.07-.07-.14-.03-.4,.06-.56,.3-.57,.65-1.1,.94-1.67,.18-.35,.41-.49,.81-.48,1,.02,2,.02,2.99,0,.16,0,.41-.11,.44-.23,.09-.31,.09-.65,.13-.97,0-.01-.05-.04-.07-.05-.42-.14-.6-.48-.8-.84-.08-.15-.25-.3-.41-.36-.66-.28-1.07-.81-1.53-1.34q1.06-.08,1.07-1.14s0-.06,0-.09c-.07-.48,.15-.61,.61-.61,1.5,.02,2.99,.01,4.49,0,.22,0,.47,.06,.54-.29,.06-.31,.29-.31,.49-.15,.25,.19,.44,.12,.57-.12,.23-.39,.45-.79,.67-1.19-.12,.15-.25,.29-.36,.44,.11-.15,.24-.29,.36-.44,0,0,0,0,0,0,0,0,.01-.01,.01-.02h0s0,0,0,0c.14-.14,.3-.41,.43-.4,.47,.02,.66-.25,.83-.6,.08-.17,.2-.32,.31-.48,.04,.02,.08,.03,.12,.05-.03,.17-.04,.35-.1,.51-.11,.27-.1,.47,.18,.62,.12,.07,.23,.17,.33,.26,.02,.02,.04,.04,.06,.06h0c.13,.4,.24,.1,.28-.03,.16-.43,.29-.88,.42-1.32,.19-.62,.36-1.24,.56-1.91h-.59c.35-.24,.82-.23,.74-.74-.28-.05-.57-.1-.78-.14,.25-.43,.61-.78,.66-1.17,.1-.83,.51-1.45,1.08-2,.2-.2,.45-.37,.58-.61Z"/><path class="cls-3" d="M93.71,43.65c0,.08,.05,.2,.12,.23,.06,.03,.2,0,.24-.06,.21-.27,.4-.56,.64-.91-.7-.1-1.06,.21-1,.74Z"/></g><path id="MEX2706" class="cls-1" d="M10.28,17.65h-.08l-.03-.05h-.03s-.02,0-.02,0v-.02s.05-.03,.05-.03l.04,.03,.05,.05,.02,.03h0Zm-4.69-1.11v.02s.06-.01,.08,0v.02s-.03,0-.03,0v.03s-.05,0-.05,0c-.01,0-.04-.03-.04-.05v-.02h.04Zm1.26,.77c-.04,.07,.01,.16,0,.24-.24,.06-.28-.39-.51-.15,.27-.96,.69-1.46,.51-.09Zm6.63-2.8l-.02,.02h0s0,0,0,0h0s0,0,0,0h0s0-.03,0-.03h0v-.02h0s0,.02,0,.02h0s0,0,0,0Zm-1.43-2.27c.21,.05,.36,.4,.46,.54-.42,.53,.75,.16,.53,.52,.07,.21-.09,.6,.24,.65-.05,.06-.04,.17-.04,.24-.23-.16-.42-.32-.58-.57-.28-.07-.35-.46-.6-.5-.2-.33-.33-.52-.24-.9h.04c0,.06,.11,0,.11-.03h.04v.04s.04,0,.04,0Zm-3.22-1.98h.02v.03h0v-.02s-.03,0-.03,0h-.02s.04,0,.04,0Zm-4.82-1.4h-.06v-.03l.02-.02h.02l.02,.03s0,.02,0,.02ZM.5,1.95h0v-.04s-.02-.03-.02-.03h0s0-.05,0-.05h.02s0,.03,0,.03v.03s.02,.03,.02,.03v.03Zm7.12,1.75c0,.06,.05,.07,.03,.18,.05,.31,.35,.38,.46,.68,.02,.25-.8,1.88,.11,2.61,.28,.23,.08,.79,.2,1.12,.19,.53,.01,.97,.08,1.38,.05,.26,.28,.49,.29,.81,0,.16,.44,.6,.5,.66,.26,.23,.29,.23,.32,.24,.28,.1,.52,.43,.77,.64,.4,.36,.85,.55,1.08,1.09,.13,.32,.28,.4,.36,.69,.04,.15,.14,.16,.05,.27,.02,.08-.03,.05,.04,.14,.06,.07,.11,.04,.17,.1,.14,.16,.23-.03,.28,.02,.06,0,.03,.1,.06,.12,.1,.07,.1,.15,.26,.27,.14,.04,.54,.53,.5,.88-.01,.1,.45,.3,.65,.5,.13,.07,.19,.33,.22,.51,0,.18,.03,.24,.06,.35,.08,.26,.06,.49,.16,.68-1.29,0-3.31,0-4.6,0,.19-.18,.17-.27,.27-.56,.07-.21,.03-.28,.05-.49,.07-.38,.14-.54,0-.76-.12-.12-.16-.25-.34-.39-.38-.32-.48-.58-.81-.87-.11-.1-.36-.38-.28-.32-.42-.34-.85-1.04-1.1-1.17-.37-.16-.28-.19-.69-.39-.65-.4-.97-.54-1.47-1.02-.29-.28-.41-.55-.52-.97-.2-.6,.04-1.01-.19-1.26-.14-.11-.23-.12-.41-.17-.2-.1-.19-.18-.18-.47,.08-.3,.08-.52-.04-.81-.13-.22-.33-.49-.45-.58-.11-.07-.43-.27-.4-.45,.1-.51-.07-.81-.45-1.24-.12-.13-.34-.3-.44-.46-.14-.2-.17-.27-.16-.41-.04-.14,.12-.35,.07-.47,0-.14-.05-.24-.06-.34-.04-.16-.16-.24-.22-.35-.26-.31-.34-.54-.51-.78-.26-.37-.76-.92-.72-1.49,2.18-.29,5.3-.59,7.55-.69-.03,.22,.01,.25-.03,.8-.56-.01-.94,.69-.87,.82,.16,.07,.24,.52,.27,.71,.04,.26,.01,.44,.06,.63Z"/></g></g></svg>