<?xml version="1.0" encoding="UTF-8"?><svg id="estados" xmlns="http://www.w3.org/2000/svg" viewBox="0 0 306.04 276.52"><defs><style>.cls-1,.cls-2{fill:#3bb1e6;}.cls-3{fill:#fff;}.cls-4{stroke-width:1.53px;}.cls-4,.cls-2,.cls-5{stroke:#fff;}.cls-4,.cls-5{fill:none;opacity:.67;stroke-miterlimit:10;}.cls-6{fill:#0a2f3a;opacity:.5;}.cls-2{stroke-linecap:round;stroke-linejoin:round;stroke-width:1.37px;}.cls-5{stroke-width:1.67px;}</style></defs><g id="bcs-icono"><circle class="cls-6" cx="136.96" cy="151.48" r="97.03"/><circle class="cls-5" cx="136.96" cy="151.48" r="104.09"/><polyline class="cls-4" points="229.53 104.17 271.63 73.79 306.09 73.79"/><polyline class="cls-4" points="229.02 199.66 271.63 220.23 306.09 220.23"/><polyline class="cls-4" points="240.77 150.49 271.63 150.49 306.09 150.49"/><g><path class="cls-1" d="M63.43,208.28v-16.61h5.43c1.8,0,3.16,.37,4.07,1.12,.91,.75,1.36,1.85,1.36,3.31,0,.78-.22,1.46-.66,2.06s-1.04,1.06-1.8,1.39c.9,.25,1.61,.73,2.13,1.43,.52,.7,.78,1.54,.78,2.52,0,1.49-.48,2.66-1.45,3.51-.97,.85-2.33,1.28-4.1,1.28h-5.76Zm2.19-9.53h3.31c.96,0,1.72-.24,2.3-.72,.57-.48,.86-1.13,.86-1.96,0-.91-.27-1.58-.8-2-.53-.42-1.34-.62-2.43-.62h-3.24v5.29Zm0,1.76v5.98h3.62c1.02,0,1.82-.26,2.41-.79s.88-1.26,.88-2.19c0-2-1.09-3-3.26-3h-3.65Z"/><path class="cls-1" d="M85.28,208.28c-.12-.24-.22-.68-.3-1.3-.98,1.02-2.15,1.53-3.51,1.53-1.22,0-2.22-.34-3-1.03-.78-.69-1.17-1.56-1.17-2.62,0-1.29,.49-2.28,1.47-3,.98-.71,2.35-1.07,4.13-1.07h2.05v-.97c0-.74-.22-1.33-.66-1.76-.44-.44-1.09-.66-1.95-.66-.75,0-1.38,.19-1.89,.57-.51,.38-.76,.84-.76,1.38h-2.12c0-.62,.22-1.21,.66-1.79,.44-.57,1.03-1.03,1.78-1.36,.75-.33,1.57-.5,2.47-.5,1.42,0,2.54,.36,3.34,1.07s1.22,1.69,1.26,2.94v5.68c0,1.13,.14,2.04,.43,2.7v.18h-2.21Zm-3.5-1.61c.66,0,1.29-.17,1.88-.51,.59-.34,1.02-.79,1.29-1.33v-2.53h-1.65c-2.59,0-3.88,.76-3.88,2.27,0,.66,.22,1.18,.66,1.55,.44,.37,1.01,.56,1.7,.56Z"/><path class="cls-1" d="M92.55,195.93v13.77c0,2.37-1.08,3.56-3.23,3.56-.46,0-.89-.07-1.29-.2v-1.68c.24,.06,.56,.09,.96,.09,.47,0,.83-.13,1.08-.38,.25-.26,.37-.7,.37-1.33v-13.83h2.11Zm-2.33-3.27c0-.33,.1-.62,.31-.86,.21-.24,.52-.36,.92-.36s.72,.12,.94,.35c.21,.24,.32,.52,.32,.87s-.11,.63-.32,.86c-.21,.23-.52,.34-.94,.34s-.72-.11-.92-.34c-.21-.23-.31-.51-.31-.86Z"/><path class="cls-1" d="M103.57,208.28c-.12-.24-.22-.68-.3-1.3-.98,1.02-2.15,1.53-3.51,1.53-1.22,0-2.22-.34-3-1.03-.78-.69-1.17-1.56-1.17-2.62,0-1.29,.49-2.28,1.47-3,.98-.71,2.35-1.07,4.13-1.07h2.05v-.97c0-.74-.22-1.33-.66-1.76-.44-.44-1.09-.66-1.95-.66-.75,0-1.38,.19-1.89,.57-.51,.38-.76,.84-.76,1.38h-2.12c0-.62,.22-1.21,.66-1.79,.44-.57,1.03-1.03,1.78-1.36,.75-.33,1.57-.5,2.47-.5,1.42,0,2.54,.36,3.34,1.07s1.22,1.69,1.26,2.94v5.68c0,1.13,.14,2.04,.43,2.7v.18h-2.21Zm-3.5-1.61c.66,0,1.29-.17,1.88-.51,.59-.34,1.02-.79,1.29-1.33v-2.53h-1.65c-2.59,0-3.88,.76-3.88,2.27,0,.66,.22,1.18,.66,1.55,.44,.37,1.01,.56,1.7,.56Z"/><path class="cls-1" d="M127,203c-.21,1.76-.85,3.11-1.95,4.07-1.09,.95-2.54,1.43-4.35,1.43-1.96,0-3.54-.7-4.72-2.11-1.18-1.41-1.77-3.29-1.77-5.65v-1.6c0-1.54,.28-2.9,.83-4.07,.55-1.17,1.33-2.07,2.34-2.7,1.01-.63,2.18-.94,3.51-.94,1.76,0,3.18,.49,4.24,1.48s1.69,2.35,1.86,4.09h-2.2c-.19-1.33-.6-2.29-1.24-2.88-.64-.6-1.52-.89-2.66-.89-1.4,0-2.5,.52-3.29,1.55-.8,1.04-1.19,2.51-1.19,4.42v1.61c0,1.8,.38,3.24,1.13,4.31s1.81,1.6,3.16,1.6c1.22,0,2.15-.28,2.8-.83,.65-.55,1.08-1.51,1.3-2.88h2.2Z"/><path class="cls-1" d="M137.28,208.28c-.12-.24-.22-.68-.3-1.3-.98,1.02-2.15,1.53-3.51,1.53-1.22,0-2.22-.34-3-1.03-.78-.69-1.17-1.56-1.17-2.62,0-1.29,.49-2.28,1.47-3,.98-.71,2.35-1.07,4.13-1.07h2.05v-.97c0-.74-.22-1.33-.66-1.76-.44-.44-1.09-.66-1.95-.66-.75,0-1.38,.19-1.89,.57-.51,.38-.76,.84-.76,1.38h-2.12c0-.62,.22-1.21,.66-1.79,.44-.57,1.03-1.03,1.78-1.36,.75-.33,1.57-.5,2.47-.5,1.42,0,2.54,.36,3.34,1.07s1.22,1.69,1.26,2.94v5.68c0,1.13,.14,2.04,.43,2.7v.18h-2.21Zm-3.5-1.61c.66,0,1.29-.17,1.88-.51,.59-.34,1.02-.79,1.29-1.33v-2.53h-1.65c-2.59,0-3.88,.76-3.88,2.27,0,.66,.22,1.18,.66,1.55,.44,.37,1.01,.56,1.7,.56Z"/><path class="cls-1" d="M144.66,208.28h-2.11v-17.53h2.11v17.53Z"/><path class="cls-1" d="M148.05,192.65c0-.34,.1-.63,.31-.87s.52-.35,.93-.35,.72,.12,.94,.35c.21,.24,.32,.52,.32,.87s-.11,.63-.32,.86c-.21,.23-.52,.34-.94,.34s-.72-.11-.93-.34c-.21-.23-.31-.51-.31-.86Zm2.28,15.62h-2.11v-12.35h2.11v12.35Z"/><path class="cls-1" d="M154.75,208.28v-10.72h-1.95v-1.63h1.95v-1.27c0-1.32,.35-2.35,1.06-3.07,.71-.72,1.71-1.08,3-1.08,.49,0,.97,.06,1.45,.19l-.11,1.7c-.36-.07-.74-.1-1.14-.1-.68,0-1.21,.2-1.59,.6-.37,.4-.56,.98-.56,1.72v1.3h2.64v1.63h-2.64v10.72h-2.11Z"/><path class="cls-1" d="M161.27,201.99c0-1.21,.24-2.3,.71-3.26,.48-.97,1.14-1.71,1.99-2.24,.85-.52,1.82-.79,2.9-.79,1.68,0,3.04,.58,4.08,1.75,1.04,1.16,1.56,2.71,1.56,4.64v.15c0,1.2-.23,2.28-.69,3.24-.46,.95-1.12,1.7-1.97,2.23-.86,.53-1.84,.8-2.95,.8-1.67,0-3.03-.58-4.07-1.75-1.04-1.16-1.56-2.7-1.56-4.62v-.15Zm2.12,.25c0,1.37,.32,2.47,.95,3.3,.64,.83,1.49,1.24,2.55,1.24s1.92-.42,2.56-1.26c.63-.84,.95-2.02,.95-3.53,0-1.35-.32-2.45-.96-3.29-.64-.84-1.5-1.26-2.56-1.26s-1.88,.41-2.52,1.24c-.64,.83-.96,2.02-.96,3.56Z"/><path class="cls-1" d="M181.12,197.82c-.32-.05-.67-.08-1.04-.08-1.38,0-2.32,.59-2.82,1.77v8.76h-2.11v-12.35h2.05l.03,1.43c.69-1.1,1.67-1.65,2.94-1.65,.41,0,.72,.05,.94,.16v1.96Z"/><path class="cls-1" d="M185.06,195.93l.07,1.55c.94-1.19,2.18-1.78,3.7-1.78,2.61,0,3.93,1.47,3.95,4.42v8.16h-2.11v-8.17c0-.89-.21-1.55-.61-1.97-.4-.43-1.02-.64-1.87-.64-.68,0-1.29,.18-1.8,.55-.52,.37-.92,.84-1.21,1.44v8.8h-2.11v-12.35h2Z"/><path class="cls-1" d="M195.97,192.65c0-.34,.1-.63,.31-.87s.52-.35,.93-.35,.72,.12,.94,.35c.21,.24,.32,.52,.32,.87s-.11,.63-.32,.86c-.21,.23-.52,.34-.94,.34s-.72-.11-.93-.34c-.21-.23-.31-.51-.31-.86Zm2.28,15.62h-2.11v-12.35h2.11v12.35Z"/><path class="cls-1" d="M209.25,208.28c-.12-.24-.22-.68-.3-1.3-.98,1.02-2.15,1.53-3.51,1.53-1.22,0-2.22-.34-3-1.03-.78-.69-1.17-1.56-1.17-2.62,0-1.29,.49-2.28,1.47-3,.98-.71,2.35-1.07,4.13-1.07h2.05v-.97c0-.74-.22-1.33-.66-1.76-.44-.44-1.09-.66-1.95-.66-.75,0-1.38,.19-1.89,.57-.51,.38-.76,.84-.76,1.38h-2.12c0-.62,.22-1.21,.66-1.79,.44-.57,1.03-1.03,1.78-1.36,.75-.33,1.57-.5,2.47-.5,1.42,0,2.54,.36,3.34,1.07s1.22,1.69,1.26,2.94v5.68c0,1.13,.14,2.04,.43,2.7v.18h-2.21Zm-3.5-1.61c.66,0,1.29-.17,1.88-.51,.59-.34,1.02-.79,1.29-1.33v-2.53h-1.65c-2.59,0-3.88,.76-3.88,2.27,0,.66,.22,1.18,.66,1.55,.44,.37,1.01,.56,1.7,.56Z"/><path class="cls-1" d="M126.62,225.87c-1.88-.54-3.25-1.2-4.1-1.99-.86-.79-1.28-1.76-1.28-2.92,0-1.31,.52-2.39,1.57-3.25,1.05-.86,2.41-1.28,4.08-1.28,1.14,0,2.16,.22,3.05,.66,.89,.44,1.59,1.05,2.08,1.83s.74,1.62,.74,2.54h-2.2c0-1.01-.32-1.8-.96-2.38-.64-.58-1.54-.86-2.7-.86-1.08,0-1.92,.24-2.53,.71s-.91,1.14-.91,1.98c0,.68,.29,1.25,.86,1.72s1.55,.9,2.93,1.29c1.38,.39,2.46,.82,3.24,1.29s1.36,1.01,1.73,1.64c.38,.62,.56,1.36,.56,2.2,0,1.35-.52,2.42-1.57,3.24-1.05,.81-2.45,1.22-4.21,1.22-1.14,0-2.21-.22-3.2-.66s-1.75-1.04-2.29-1.8c-.54-.76-.8-1.62-.8-2.59h2.2c0,1,.37,1.8,1.11,2.38,.74,.58,1.73,.87,2.97,.87,1.16,0,2.04-.24,2.66-.71,.62-.47,.92-1.11,.92-1.93s-.29-1.44-.86-1.89-1.61-.88-3.1-1.32Z"/><path class="cls-1" d="M142.88,232.06c-.82,.97-2.03,1.45-3.62,1.45-1.32,0-2.32-.38-3.01-1.15-.69-.76-1.04-1.9-1.04-3.4v-8.03h2.11v7.98c0,1.87,.76,2.81,2.28,2.81,1.61,0,2.69-.6,3.22-1.8v-8.98h2.11v12.35h-2.01l-.05-1.22Z"/><path class="cls-1" d="M154.11,222.82c-.32-.05-.67-.08-1.04-.08-1.38,0-2.32,.59-2.82,1.77v8.76h-2.11v-12.35h2.05l.03,1.43c.69-1.1,1.67-1.65,2.94-1.65,.41,0,.72,.05,.94,.16v1.96Z"/></g><path id="BCS" class="cls-2" d="M191.99,155l-.12,.36c-.38-.13-.95-.19-1.34-.3l.06-.18c-.5-.61-.77-1.51-1.03-2.25,.02-.1,.12-.28,.18-.36l-.43-.85c.02-.21,.08-.83,.06-1.03h.12l.18,.24v.3c.55,.48,.65,1.36,1.15,1.88,.2,.54,.74,1.06,.97,1.58-.05,.17,.1,.47,.18,.61h0Zm-10.65-8.72c.34,.02,1.09,.61,1.09,.61,.08,.37,.28,1.06,.24,.97l-.36,.24,.06,.3s.05,.15,.01,.27l-.55,.06c-.02-.08-.25-.27-.25-.27-.05-.06-.36,0-.36,0-.02-.09-.07-.29-.12-.36l.3-.24c-.25-.28-.55-1.37-.67-1.28,.1-.04-.18-.55-.18-.55l-.24-.55,.36-.43s.46,.55,.67,.67c0,0,0,.55,0,.55Zm-4.92-9.53c.05,.16,.23,.28,.36,.36,0,0,.16,.96,.12,1.28,.26,.5,.46,1.17,.85,1.58-.17,.15-.52,.23-.73,.12l-.18-.24c-.25-.09-.73-.55-.73-.55-.12-.07-.49-.3-.49-.3-.28-.19-.89-1.87-.91-1.94l-.55-.24c-.15-.3,.03-.66,0-.97,0-.15-.05-.52,.12-.61,.29,.27,.32,.92,.73,1.09,.44,.02,1.02,.21,1.4,.43h0Zm-2.54-3.27l-.06,.06v-.12l.12-.12v.12l-.06,.06h0Zm-.24-1.4c-.07,.06-.22,.07-.3,.06-.1-.16-.14-.42-.12-.61l.36-.36h.36l.12-.12c-.1,.32-.36,.69-.43,1.03h0Zm-.79-7.11l-.61-.12c-.43-.8-.55-1.5,.06-2.25l.18-.06,.18,.43c-.13,.54,.18,1.44,.18,2h0Zm-5.41-2.49l.3,.43,.12,.36c-.04,.19-.43,.55-.43,.55-.06-.07-.18-.61-.18-.61-.1-.16,.06-.67,.06-.67l.12-.06h0Zm.2-7.92c-.34,.41-.57,1.05-.43,1.58h.18s.13,.6,.06,.67l-.85-.67s-1.06,1.75-1.34,2c0,0-.08,.61,0,.79l-.43,.43c-.01,.2-.57,.06-.55-.12,.28-.42,.38-1.14,.43-1.64,.18-.23,.69-1.05,.77-1.17,0-.02-.13-1.14-.1-1.26,.16-.04,.73-.43,.73-.43l.18-.12,.12,.18,.91-.18,.3-.06h0Zm-7.67-11.52l-.06,.06c-.02-.06-.06-.21-.12-.24v-.18c.1,.08,.21,.22,.18,.36h0Zm-11.97-12.21l-.3,.3-.36-.06-.18-.91-.24-.24,.36-.49c.3,.16,.7,.61,.85,.91l-.12,.49h0Zm3.64-5.1c-.14,.03-.46,.08-.61,.06l-.24-.18,.06-.3c.2-.05,.55-.07,.73,.06l.12,.18-.06,.18Zm-63.23-9.11c-.07,.03-.23,.08-.3,.06,0-.19-.08-.54-.24-.67-.13-.06-.41-.16-.55-.18l.06-.18c.1,.06,.31,.15,.43,.12,.18,.25,.62,.33,.67,.67l-.06,.18h0Zm18.34-3.22h1.09c.12,.13,.29,.45,.37,.61l.73-.06c-.02-.1-.05-.47-.12-.55h25.51s.11,.57,.18,.73c0,0,0,2.12,.3,2.98l.36,.06c-.03,.12,.12,.91,.12,.91,.48,.47,1.29,1.67,1.76,2.12,1.67,.81,3.8,1.69,5.1,3.04-.02,.19,.7,1.59,.73,1.88,.69,1.48,1.5,3.08,2.31,4.49,0,0,1.2,1.58,1.2,1.58,.77,.36,2.1,1.16,2.64,1.82,.27,1.49-.27,3.41,1.33,4.38,.3,.02,1.47,.1,1.74,.11,.11-.05,.85,.18,.85,.18,3.42,1.55,4.94,6,6.2,9.29,.46,1.06,1.18,2.91,1.34,4.07l.61,1.58c.97,2.16,.1,5.47,1.27,7.59l.06,.3,1.16,1.82c.8,1.64,1.64,2.17,3.22,4.07,1.08,2.07,1.46,3.5,2.37,5.41,1.2,3.44,4.54,5.87,5.16,9.41l.3,.43-.12,.91c-1.08,2.16-1.18,4.32-.37,6.8l-.18,.18c.77,3.25,3.83,4.78,6.56,5.97-.07-.92-.49-3.91-.62-4.87l.89-.53c1.2,1.01,8.13,6.23,9.56,7.26,.21,.27,.41,.76,.48,1.09,1.12,2.16,1.76,4.78,3.23,6.92,3.92,3.18,5.24,5.55,3.67,9.98-.53,1.78-3.56,3.47-4.94,4.54-3.4,2.7-6.74,4.78-8.49-.97-1.88-8.14-3.06-9.94-9.36-13.4-6.91-8.17-10.34-8.91-21.24-17.32h-.24l1.1,3.46-.78,.61-5.06-3.97,2.42-1.51c-.54-4.63-5.85-3.05-8.99-4.11,.44-1.17,2.32-7.85,2.94-8.73,1.04-2.08,1.49-4.78,1.45-7.09,.02-14.9-11.09-13.7-18.3-23.03-.54-.75-1.85-2.61-2.77-2.92-1.19-.46-2.7-.93-3.86-1.02-1.28,.26-3.22,2.78-5.04,1.32-1.58-.9-3.14-4.86-5.71-5.24-3.37-1.16-6.91-3.44-9.88-5.36l-1.99-4.34c-2.03-1.82-5.25-4.14-7.38-5.81,0,0-1.91-2.91-1.91-2.91l.79-.3s1.8-.61,2.64-.59c.94,.12,2.82,.52,3.68,.9,.99,.31,2.94,.19,3.94-.08,1.04-.45,3.03-1.71,4.2-1.26-.01,.22,.11,.57,.12,.79-.05,.39-.24,.81-.42,1.15,.22,.37,.56,.97,.97,1.15,.29,.37,.79,.7,1.27,.73,.32,.25,1.53,1.33,1.76,1.52l.18,.3s.75-.72,.91-.97c-.08-.17,0-.85,0-.85,.38,.19,1.37,.85,1.83,.79,.15-.37,.61-1.4,.61-1.4-.4-.2-.89-.49-1.21-.79,0,0-1.25-.81-1.46-.97l-.18,.06c.02,.12,.55,1.46,.55,1.46l-1.64,.36c-.2-.2-.83-1.66-.91-1.94,.07-.46,.42-1.23,.73-1.58-.02-.18-.79-1.34-.79-1.34-.26,.35-.79,.58-1.22,.61l-.42-.73c.46-.3,.69-.87,1.09-1.22Z"/><g><g><path class="cls-3" d="M94.07,42.29c.23-.43,.53-.9,.53-1.36,0-.45-.13-.96-.61-1.31-.43-.31-.75-.37-1.12,.1,.1,.03,.19,.06,.29,.09,0,.04-.02,.08-.02,.11-.55-.11-1.12-.15-1.65-.33-.89-.32-1.78-.27-2.58,.07-.81,.34-1.62,.54-2.47,.61-.95,.09-1.84,.3-2.64,.83-.21,.14-.4,.39-.5,.63-.4,.91-.32,1.89-.33,2.86,0,.2-.06,.48-.2,.57-.39,.26-.52,.65-.49,1.05,.04,.7-.43,1.02-.89,1.36-.32,.24-.7,.41-1.03,.64-.18,.13-.31,.32-.46,.48h0s0,0,0,0c-.34,.16-.68,.31-1.01,.47,0,0,0,0-.01,0,0,0,0,0,0,0-.73-.39-2.31-.19-2.94,.35-.13,.11-.32,.16-.5,.21-.88,.25-1.86-.18-2.72,.52-.42,.34-1.14,.33-1.73,.43-.16,.03-.43-.04-.52-.16-.38-.47-.67-.95-1.32-1.22-.49-.2-.93-.43-1.48-.42-.38,0-.76-.07-1.03-.1-.28-.42-.52-.79-.76-1.15-.35-.52-.85-.94-.93-1.61-.1-.86-.61-1.52-1.19-2.07-.91-.88-1.49-1.93-1.91-3.09-.07-.18-.04-.44,.03-.63,.17-.4,.19-.71-.2-1.02-.6-.48-.98-1.11-1.07-1.9-.04-.32-.17-.63-.21-.96-.03-.23,.02-.47,.05-.7,.07-.45,.16-.9,.22-1.35,.03-.23-.04-.47-.02-.7,.08-1.06,.14-2.12,.28-3.16,.18-1.28,.42-2.54,1.07-3.7,.27-.47,.36-1.05,.51-1.59,.04-.13-.02-.29-.03-.43-.17,.03-.38,.02-.51,.11-.26,.19-.49,.14-.67-.05-.34-.38-.78-.38-1.24-.42-.38-.03-.77-.1-1.12-.25-.65-.26-1.25-.62-1.9-.86-.29-.11-.51-.22-.64-.51-.28-.59-.6-1.15-.88-1.73-.05-.1-.03-.24-.05-.36-.05-.42-.08-.85-.18-1.27-.04-.17-.21-.33-.34-.47-.3-.32-.61-.62-.9-.94-.31-.34-.6-.7-.89-1.05-.1-.12-.22-.23-.28-.36-.25-.53-.46-1.09-.72-1.61-.39-.78-.62-1.66-1.45-2.16-.31-.19-.5-.6-.81-.79-.34-.21-.45-.69-.98-.69-.73-.01-1.46-.16-2.2-.25-.1-.01-.21,0-.3,.04-.22,.09-.44,.18-.64,.3-.21,.13-.46,.27-.57,.48-.21,.38-.35,.8-.47,1.21-.28,.99-1.01,1.24-1.83,.66-.4-.28-.87-.45-1.3-.69-.27-.15-.52-.32-.78-.49-.15-.1-.28-.25-.44-.33-.75-.36-1.03-1.07-1.1-1.78-.08-.84-.48-1.5-.93-2.12-.27-.38-.82-.54-1.19-.86-.49-.42-.93-.91-1.41-1.35-.25-.23-.53-.43-.78-.65-.23-.21-.53-.4-.66-.67-.22-.47-.54-.64-1.03-.63-1.34,0-2.68,0-4.02,0-1.15,0-1-.11-.99,1,0,.47-.14,.62-.61,.62-2.54-.02-5.08,0-7.63-.01-.28,0-.57-.03-.83-.12-3.48-1.25-6.95-2.52-10.42-3.79-.74-.27-.74-.28-.59-1.06-.18,0-.34-.01-.5,0-2.16,.19-4.31,.38-6.47,.58-.52,.05-.59,.19-.36,.68,.08,.17,.21,.31,.3,.46,.1,.17,.2,.34,.3,.51,.11,.19,.19,.42,.34,.58,.28,.31,.51,.6,.35,1.06-.1,.31,.06,.54,.29,.77,.4,.42,.87,.82,.75,1.52-.02,.09,.1,.24,.19,.32,.45,.4,.89,.78,.68,1.5-.04,.15,.13,.53,.22,.53,.46,.03,.51,.33,.49,.65-.04,.63,.18,1.23,.52,1.65,.42,.5,1.09,.79,1.65,1.16,.24,.16,.54,.26,.73,.46,.82,.86,1.61,1.74,2.39,2.63,.08,.09,.11,.27,.08,.39-.14,.53-.03,1.15-.53,1.56-.07,.05-.06,.2-.08,.3-.1,.02-.22,.02-.3,.07-.35,.26-.72,.24-1.11,.12-.16-.05-.33-.1-.5-.09-.16,0-.31,.09-.47,.13,.1,.16,.18,.35,.31,.47,.51,.5,1.33,.7,1.46,1.56,0,.06,.1,.12,.16,.16,.45,.25,.88,.58,1.36,.72,.37,.11,.57,.3,.78,.59,.19,.27,.41,.55,.82,.19,.28-.25,1,.05,1.2,.38,.11,.19,.28,.35,.43,.52,.59,.7,1.61,.82,2.16,1.64,.41,.62,.65,1.97,.33,2.66-.23,.49-.36,1.02-.56,1.61,.27,.04,.49,.1,.71,.1,.4,.01,.7,.12,.75,.57-.12,.07-.23,.14-.39,.23,.3,.24,.56,.44,.81,.64,.04-.03,.08-.06,.12-.09-.05-.17-.11-.35-.18-.58,.12,.06,.21,.08,.27,.13,1.03,.91,2.32,1.51,3.18,2.64,.08,.1,.23,.17,.36,.22,.63,.23,.88,.75,1.03,1.35,.07,.27,.12,.55,.22,.81,.2,.49,.53,.55,.94,.23,.25-.19,.51-.36,.76-.53,.63-.43,.6-1.45-.03-1.86-.16-.1-.27-.31-.36-.49-.16-.31-.23-.67-.43-.94-.18-.24-.48-.38-.73-.57-.27-.21-.53-.43-.8-.64-.04,.02-.08,.05-.12,.07,.03,.26,.06,.53,.09,.79,0,0,0,0,0,.01,0,0,0,0,0,0-.15-.07-.3-.15-.45-.21-.51-.22-.88-1.05-.66-1.56,.2-.46,.1-.82-.21-1.2-.23-.28-.39-.62-.56-.95-.14-.27-.19-.6-.39-.82-.44-.5-.85-.97-.79-1.69,.01-.13-.02-.28-.07-.41-.19-.52-.39-1.04-.59-1.57-.2-.53-.47-.98-1.14-.99-.09,0-.25-.24-.24-.35,.06-.34-.09-.48-.37-.6-.12-.05-.18-.23-.27-.35-.35-.42-.31-1.11-.95-1.31-.53-.17-.72-.58-.8-1.09-.08-.52-.18-1.04-.32-1.55-.04-.14-.24-.22-.37-.34-.15-.13-.4-.24-.42-.39-.12-.74-.73-.98-1.26-1.32-.19-.67-.47-1.24-1-1.77-.62-.6-1.46-.93-1.95-1.67-.27-.4-.47-.77-.48-1.27-.02-.69-.13-1.38-.2-2.07,0-.09-.05-.19-.11-.25-.68-.73-.37-1.56-.2-2.34,.11-.49,.47-.54,.88-.24,.25,.18,.49,.41,.77,.51,.25,.09,.55,.08,.83,.06,.15-.01,.31-.22,.43-.19,.18,.04,.44,.18,.48,.32,.18,.68,.72,.73,1.28,.88,.68,.18,.71,.33,.52,.89-.23,.68,.01,1.23,.42,1.77,.26,.35,.55,.79,.55,1.19,0,.85,.58,1.37,.91,2.03,.1,.2,.12,.43,.21,.63,.06,.13,.16,.26,.27,.35,.08,.07,.2,.08,.3,.12,.03,.04,.05,.09,.08,.13-1.18-.13-.84,.8-1.13,1.38,.29,.11,.57,.33,.79,.28,.22-.06,.37-.38,.6-.65,.18,.24,.36,.49,.56,.74,.29,.38,.52,.87,.91,1.08,.48,.26,.72,.64,1.01,1.04,.2,.28,.48,.51,.77,.72,.19,.14,.43,.19,.65,.28,.18-.07,.42-.14,.55-.05,.13,.08,.18,.33,.21,.51,.03,.21-.06,.46,.02,.64,.13,.32,.39,.58,.54,.89,.18,.37,.47,.63,.86,.63,.63-.01,.75,.35,.84,.85,.09,.51,.39,.74,.91,.65,.51-.1,.76,.23,.9,.55,.12,.26,.03,.64-.03,.95-.04,.2-.21,.38-.32,.57-.2,.35-.09,.98,.21,1.21,.2,.16,.43,.28,.6,.47,.35,.4,.72,.74,1.31,.67,.07,0,.14,.05,.21,.09,.25,.15,.5,.32,.75,.47,.33,.19,.66,.37,.99,.56-.02,.04-.05,.08-.07,.12-.16-.1-.31-.19-.51-.31,.35,1.03,1.37,2.23,2.46,2.29-.36,.38-.03,.53,.2,.71,.21,.17,.42,.32,.62,.49,.33,.3,.68,.59,.97,.93,.34,.39,.64,.83,.96,1.25,.09,.12,.2,.24,.3,.35,.5,.59,.94,1.24,1.51,1.75,.69,.61,.99,1.32,1.06,2.2,.03,.33,.12,.67,.25,.97,.25,.55,.49,1.13,1.1,1.28-.02,.28-.07,.48-.04,.68,.05,.39-.05,.68-.34,.96-.21,.2-.35,.47-.57,.77,.24,.06,.37,.07,.47,.13,.13,.07,.24,.18,.36,.28-.1,.1-.18,.24-.3,.3-.17,.07-.36,.07-.55,.12-.48,.12-.56,.37-.27,.77,.09,.12,.15,.27,.22,.4,.15,.32,.25,.67,.45,.95,.31,.46,.68,.88,1.04,1.3,.21,.24,.41,.53,.67,.67,.95,.49,2,.8,2.86,1.47,.46,.36,.8,.88,1.21,1.31,.18,.19,.38,.41,.62,.51,.56,.23,1.14,.41,1.72,.59,.58,.18,1.17,.34,1.75,.5,.08,.02,.2,.03,.27,0,.48-.28,.78,.02,1.09,.32,.25,.24,.5,.5,.78,.71,.48,.36,.97,.7,1.46,1.04,.14,.1,.29,.18,.45,.24,.57,.21,1.15,.39,1.72,.62,.56,.23,1.09,.52,1.64,.76,.33,.15,.67,.28,1.02,.38,.98,.28,2.08,.21,2.84,1.08,.1,.12,.3,.15,.46,.22,.56,.25,1.12,.51,1.69,.75,.25,.1,.52,.16,.78,.23,.6,.16,1.25,.1,1.83,.47,.77,.49,1.66,.65,2.55,.41,.62-.17,1.22-.46,1.82-.72,.37-.17,.72-.4,1.08-.58,.23-.11,.49-.18,.74-.26,.16-.05,.32-.1,.57-.18-.19-.13-.28-.2-.4-.28,.13-.1,.24-.18,.27-.2,.32,.1,.56,.18,.78,.25-.05,.05-.14,.15-.22,.24,.65,.21,1.27,.42,1.9,.62,1.64,.53,2.69,1.86,3.91,2.94,.65,.57,1.24,1.2,1.86,1.8,.03-.02,.08-.03,.08-.05,.08-.69,.57-1.32,.2-2.07-.07-.14-.03-.4,.06-.56,.3-.57,.65-1.1,.94-1.67,.18-.35,.41-.49,.81-.48,1,.02,2,.02,2.99,0,.16,0,.41-.11,.44-.23,.09-.31,.09-.65,.13-.97,0-.01-.05-.04-.07-.05-.42-.14-.6-.48-.8-.84-.08-.15-.25-.3-.41-.36-.66-.28-1.07-.81-1.53-1.34q1.06-.08,1.07-1.14s0-.06,0-.09c-.07-.48,.15-.61,.61-.61,1.5,.02,2.99,.01,4.49,0,.22,0,.47,.06,.54-.29,.06-.31,.29-.31,.49-.15,.25,.19,.44,.12,.57-.12,.23-.39,.45-.79,.67-1.19-.12,.15-.25,.29-.36,.44,.11-.15,.24-.29,.36-.44,0,0,0,0,0,0,0,0,.01-.01,.01-.02h0s0,0,0,0c.14-.14,.3-.41,.43-.4,.47,.02,.66-.25,.83-.6,.08-.17,.2-.32,.31-.48,.04,.02,.08,.03,.12,.05-.03,.17-.04,.35-.1,.51-.11,.27-.1,.47,.18,.62,.12,.07,.23,.17,.33,.26,.02,.02,.04,.04,.06,.06h0c.13,.4,.24,.1,.28-.03,.16-.43,.29-.88,.42-1.32,.19-.62,.36-1.24,.56-1.91h-.59c.35-.24,.82-.23,.74-.74-.28-.05-.57-.1-.78-.14,.25-.43,.61-.78,.66-1.17,.1-.83,.51-1.45,1.08-2,.2-.2,.45-.37,.58-.61Z"/><path class="cls-3" d="M93.71,43.65c0,.08,.05,.2,.12,.23,.06,.03,.2,0,.24-.06,.21-.27,.4-.56,.64-.91-.7-.1-1.06,.21-1,.74Z"/></g><path id="MEX2707" class="cls-1" d="M18.45,22.43h0s0-.02,0-.02h0v-.04l.02,.02v.02s0,.02,0,.02h0Zm-8.41-4.78s.05,.07,.06,.1h.12s-.02-.1-.02-.1h4.12v.22c0,.11,.16,.54,.16,.54,.08,.08,.21,.27,.28,.34,.27,.13,.61,.27,.82,.49,0,0,.11,.22,.12,.3,.16,.33,.33,.7,.57,.98,.13,.06,.34,.19,.43,.29l.03,.13c-.03,.15,0,.3,.05,.44,.03,.04,.1,.11,.14,.14,.05,0,.24,.02,.28,.02l.14,.03c.23,.11,.42,.26,.52,.49,.28,.37,.42,.92,.62,1.32l.08,.34s.14,.43,.18,.48c0,.26,.13,1.02,.13,1.02,0,0,.27,.49,.28,.5,.59,.46,.68,1.1,.97,1.67,.22,.42,.61,.73,.68,1.2l.05,.07c-.11,.44-.27,.75-.08,1.24l-.03,.03c.12,.52,.62,.77,1.06,.96-.01-.15-.08-.63-.1-.78l.14-.09c.2,.17,1.31,1,1.54,1.17,.09,.15,.29,.69,.38,.85-.01,.31,.65,.81,.72,.93,.19,.27,.23,.61,.16,.95-.06,.4-.55,.69-.82,.94-1.61,1.47-1.44-1.1-1.98-1.74l-.94-.61c-.18-.23-.63-.69-.84-.9-.76-.6-1.23-.88-2.58-1.89l.14,.56-.13,.1-.82-.64,.39-.24c-.09-.75-.94-.49-1.45-.66,.06-.19,.39-1.26,.47-1.41,.17-.33,.24-.77,.23-1.14-.08-.83-.22-1.8-1.21-2.38-.9-.38-1.5-.95-2-1.69-.22-.17-.55-.26-.81-.29,0,0-.17,.04-.2,.1-.36,.38-.8,.09-1.04-.42-.27-.3-.71-.37-1.05-.55-.29-.19-.75-.43-1.03-.63l-.32-.7c-.33-.29-.85-.67-1.19-.94l-.31-.47,.13-.05h0c.13-.02,.3-.1,.44-.1,.27,.03,.61,.17,.88,.19,0,0,.34-.06,.34-.06,.17-.07,.49-.28,.68-.2,0,0-.02,.26-.05,.31,.02,.03,.21,.26,.27,.28,0,0,.23,.09,.27,.14,.02,.04,.13,.18,.13,.18,0,0,.12-.12,.15-.16-.01-.03-.04-.08-.06-.11l.06-.03s.29,.13,.29,.13c.02-.04,.1-.23,.1-.23-.06-.03-.14-.08-.2-.13,0,0-.2-.13-.24-.16v.13s.06,.12,.06,.12h-.32s-.06-.15-.06-.15c0,0,.03-.31,.08-.36v-.12s-.07-.07-.07-.07c0,0-.13,.03-.16,.05l-.17-.1,.11-.13s.24-.07,.24-.07Z"/></g></g></svg>