<svg xmlns="http://www.w3.org/2000/svg" viewBox="0 0 306.04 276.52"><defs><style>.cls-1{fill:#fef6fc;}.cls-1,.cls-2,.cls-3{stroke:#6d4162;stroke-miterlimit:10;stroke-width:0.78px;}.cls-2,.cls-3{fill:none;}.cls-3{isolation:isolate;}.cls-4{fill:#713972;}.cls-5{fill:#b25fac;}.cls-6{fill:#f230b9;}</style></defs><g id="estados"><circle class="cls-1" cx="136.96" cy="151.48" r="97.03"/><circle class="cls-2" cx="136.96" cy="151.48" r="104.09"/><polyline class="cls-3" points="213.34 81.1 271.32 41.25 305.78 41.25"/><polyline class="cls-3" points="214.19 220.92 271.32 255.56 305.78 255.56"/><polyline class="cls-3" points="239.72 131.27 272.01 116.16 306.47 116.16"/><polyline class="cls-3" points="238.56 172.75 271 186.07 305.46 186.07"/><path class="cls-4" d="M63.43,208.28V191.66h5.44a6.24,6.24,0,0,1,4.06,1.12,4,4,0,0,1,1.37,3.31,3.38,3.38,0,0,1-.66,2.06,4.32,4.32,0,0,1-1.81,1.39A3.81,3.81,0,0,1,74,201a4.1,4.1,0,0,1,.78,2.51A4.44,4.44,0,0,1,73.29,207a6,6,0,0,1-4.09,1.28Zm2.2-9.53h3.31a3.45,3.45,0,0,0,2.29-.72,2.4,2.4,0,0,0,.87-2,2.37,2.37,0,0,0-.8-2,3.9,3.9,0,0,0-2.43-.63H65.63Zm0,1.76v6h3.61a3.5,3.5,0,0,0,2.42-.8,2.78,2.78,0,0,0,.88-2.18q0-3-3.26-3Z"/><path class="cls-4" d="M85.28,208.28A4.35,4.35,0,0,1,85,207a4.7,4.7,0,0,1-3.51,1.53,4.36,4.36,0,0,1-3-1,3.34,3.34,0,0,1-1.17-2.62,3.48,3.48,0,0,1,1.47-3,6.89,6.89,0,0,1,4.12-1.07H85v-1a2.37,2.37,0,0,0-.67-1.76,2.64,2.64,0,0,0-2-.66,3.07,3.07,0,0,0-1.89.57,1.69,1.69,0,0,0-.77,1.38H77.55a2.89,2.89,0,0,1,.66-1.78A4.43,4.43,0,0,1,80,196.2a6.06,6.06,0,0,1,2.47-.5,4.87,4.87,0,0,1,3.34,1.07,3.84,3.84,0,0,1,1.26,2.94v5.68a6.93,6.93,0,0,0,.43,2.7v.19Zm-3.51-1.61a3.69,3.69,0,0,0,1.89-.52A3.11,3.11,0,0,0,85,204.82v-2.53H83.29c-2.59,0-3.88.75-3.88,2.27a1.92,1.92,0,0,0,.66,1.55A2.56,2.56,0,0,0,81.77,206.67Z"/><path class="cls-4" d="M92.55,195.93V209.7c0,2.38-1.08,3.56-3.23,3.56a3.8,3.8,0,0,1-1.29-.2v-1.68a4.11,4.11,0,0,0,1,.09,1.42,1.42,0,0,0,1.07-.38,1.89,1.89,0,0,0,.37-1.33V195.93Zm-2.33-3.28a1.26,1.26,0,0,1,.31-.86,1.16,1.16,0,0,1,.92-.36,1.21,1.21,0,0,1,.94.36,1.24,1.24,0,0,1,.32.86,1.22,1.22,0,0,1-.32.86,1.23,1.23,0,0,1-.94.34,1.16,1.16,0,0,1-.92-.34A1.21,1.21,0,0,1,90.22,192.65Z"/><path class="cls-4" d="M103.57,208.28a4.69,4.69,0,0,1-.3-1.3,4.7,4.7,0,0,1-3.51,1.53,4.36,4.36,0,0,1-3-1,3.34,3.34,0,0,1-1.17-2.62,3.48,3.48,0,0,1,1.47-3,6.92,6.92,0,0,1,4.12-1.07h2.06v-1a2.37,2.37,0,0,0-.66-1.76,2.69,2.69,0,0,0-2-.66,3.07,3.07,0,0,0-1.89.57,1.67,1.67,0,0,0-.76,1.38H95.84a2.89,2.89,0,0,1,.66-1.78,4.5,4.5,0,0,1,1.78-1.37,6.06,6.06,0,0,1,2.47-.5,4.87,4.87,0,0,1,3.34,1.07,3.84,3.84,0,0,1,1.26,2.94v5.68a6.93,6.93,0,0,0,.43,2.7v.19Zm-3.5-1.61a3.63,3.63,0,0,0,1.88-.52,3.11,3.11,0,0,0,1.29-1.33v-2.53h-1.66c-2.58,0-3.88.75-3.88,2.27a1.9,1.9,0,0,0,.67,1.55A2.54,2.54,0,0,0,100.07,206.67Z"/><path class="cls-4" d="M127,203a6.13,6.13,0,0,1-2,4.07,6.34,6.34,0,0,1-4.35,1.44,5.86,5.86,0,0,1-4.72-2.12,8.49,8.49,0,0,1-1.78-5.64v-1.6a9.53,9.53,0,0,1,.83-4.08,6.22,6.22,0,0,1,2.35-2.7,6.58,6.58,0,0,1,3.51-.94,6,6,0,0,1,4.25,1.48A6.25,6.25,0,0,1,127,197h-2.21a4.77,4.77,0,0,0-1.23-2.88,3.75,3.75,0,0,0-2.67-.9,3.9,3.9,0,0,0-3.29,1.56,7.09,7.09,0,0,0-1.19,4.42v1.61a7.26,7.26,0,0,0,1.13,4.3,3.63,3.63,0,0,0,3.16,1.6,4.23,4.23,0,0,0,2.8-.82,4.62,4.62,0,0,0,1.29-2.89Z"/><path class="cls-4" d="M137.28,208.28a4.69,4.69,0,0,1-.3-1.3,4.7,4.7,0,0,1-3.51,1.53,4.36,4.36,0,0,1-3-1,3.34,3.34,0,0,1-1.17-2.62,3.48,3.48,0,0,1,1.47-3,6.92,6.92,0,0,1,4.12-1.07H137v-1a2.37,2.37,0,0,0-.66-1.76,2.69,2.69,0,0,0-2-.66,3.07,3.07,0,0,0-1.89.57,1.67,1.67,0,0,0-.76,1.38h-2.13a2.89,2.89,0,0,1,.66-1.78A4.5,4.5,0,0,1,132,196.2a6.06,6.06,0,0,1,2.47-.5,4.87,4.87,0,0,1,3.34,1.07,3.84,3.84,0,0,1,1.26,2.94v5.68a6.93,6.93,0,0,0,.43,2.7v.19Zm-3.5-1.61a3.66,3.66,0,0,0,1.88-.52,3.11,3.11,0,0,0,1.29-1.33v-2.53h-1.66c-2.58,0-3.88.75-3.88,2.27a1.92,1.92,0,0,0,.66,1.55A2.59,2.59,0,0,0,133.78,206.67Z"/><path class="cls-4" d="M144.66,208.28h-2.11V190.75h2.11Z"/><path class="cls-4" d="M148.05,192.65a1.28,1.28,0,0,1,.31-.86,1.39,1.39,0,0,1,1.87,0,1.24,1.24,0,0,1,.32.86,1.22,1.22,0,0,1-.32.86,1.46,1.46,0,0,1-1.87,0A1.26,1.26,0,0,1,148.05,192.65Zm2.28,15.63h-2.11V195.93h2.11Z"/><path class="cls-4" d="M154.75,208.28V197.56H152.8v-1.63h1.95v-1.27a4.21,4.21,0,0,1,1.06-3.07,4,4,0,0,1,3-1.08,5.5,5.5,0,0,1,1.45.19l-.11,1.7a6,6,0,0,0-1.14-.1,2.06,2.06,0,0,0-1.59.6,2.46,2.46,0,0,0-.56,1.72v1.31h2.64v1.63h-2.64v10.72Z"/><path class="cls-4" d="M161.27,202a7.2,7.2,0,0,1,.71-3.26,5.28,5.28,0,0,1,2-2.24,5.38,5.38,0,0,1,2.91-.79,5.2,5.2,0,0,1,4.08,1.75,6.7,6.7,0,0,1,1.56,4.64v.15a7.4,7.4,0,0,1-.69,3.24,5.36,5.36,0,0,1-2,2.23,5.48,5.48,0,0,1-3,.8,5.22,5.22,0,0,1-4.07-1.75,6.69,6.69,0,0,1-1.55-4.62Zm2.12.25a5.32,5.32,0,0,0,1,3.3,3.24,3.24,0,0,0,5.11,0,5.79,5.79,0,0,0,.94-3.53,5.27,5.27,0,0,0-1-3.29,3.07,3.07,0,0,0-2.56-1.26,3,3,0,0,0-2.52,1.24A5.74,5.74,0,0,0,163.39,202.24Z"/><path class="cls-4" d="M181.12,197.82a6.66,6.66,0,0,0-1-.08,2.79,2.79,0,0,0-2.82,1.77v8.77h-2.11V195.93h2.06l0,1.43a3.27,3.27,0,0,1,2.95-1.66,2.07,2.07,0,0,1,.93.16Z"/><path class="cls-4" d="M185.06,195.93l.07,1.55a4.47,4.47,0,0,1,3.69-1.78q3.92,0,4,4.42v8.16h-2.11v-8.17a2.87,2.87,0,0,0-.61-2,2.47,2.47,0,0,0-1.87-.64,3.09,3.09,0,0,0-1.8.55,3.7,3.7,0,0,0-1.21,1.44v8.8h-2.11V195.93Z"/><path class="cls-4" d="M196,192.65a1.23,1.23,0,0,1,.31-.86,1.17,1.17,0,0,1,.93-.36,1.21,1.21,0,0,1,.94.36,1.24,1.24,0,0,1,.32.86,1.22,1.22,0,0,1-.32.86,1.23,1.23,0,0,1-.94.34,1.19,1.19,0,0,1-.93-.34A1.21,1.21,0,0,1,196,192.65Zm2.28,15.63h-2.11V195.93h2.11Z"/><path class="cls-4" d="M209.25,208.28a4.69,4.69,0,0,1-.3-1.3,4.7,4.7,0,0,1-3.51,1.53,4.36,4.36,0,0,1-3-1,3.34,3.34,0,0,1-1.17-2.62,3.48,3.48,0,0,1,1.47-3,6.93,6.93,0,0,1,4.13-1.07h2v-1a2.37,2.37,0,0,0-.66-1.76,2.64,2.64,0,0,0-1.95-.66,3.08,3.08,0,0,0-1.9.57,1.67,1.67,0,0,0-.76,1.38h-2.13a2.89,2.89,0,0,1,.66-1.78A4.5,4.5,0,0,1,204,196.2a6.06,6.06,0,0,1,2.47-.5,4.92,4.92,0,0,1,3.35,1.07,3.86,3.86,0,0,1,1.25,2.94v5.68a6.93,6.93,0,0,0,.43,2.7v.19Zm-3.5-1.61a3.63,3.63,0,0,0,1.88-.52,3.11,3.11,0,0,0,1.29-1.33v-2.53h-1.66c-2.58,0-3.88.75-3.88,2.27a1.93,1.93,0,0,0,.67,1.55A2.54,2.54,0,0,0,205.75,206.67Z"/><path class="cls-4" d="M126.62,225.87a10.21,10.21,0,0,1-4.1-2,3.8,3.8,0,0,1-1.29-2.92,4,4,0,0,1,1.57-3.24,6.23,6.23,0,0,1,4.08-1.29,6.75,6.75,0,0,1,3.06.67,5,5,0,0,1,2.07,1.82,4.71,4.71,0,0,1,.74,2.55h-2.2a3,3,0,0,0-1-2.38,3.89,3.89,0,0,0-2.71-.87,3.94,3.94,0,0,0-2.52.72,2.38,2.38,0,0,0-.91,2,2.15,2.15,0,0,0,.86,1.72,8.39,8.39,0,0,0,2.93,1.29,14,14,0,0,1,3.24,1.28,5,5,0,0,1,1.74,1.64,4.26,4.26,0,0,1,.56,2.2,3.88,3.88,0,0,1-1.57,3.24,6.73,6.73,0,0,1-4.21,1.22,7.8,7.8,0,0,1-3.2-.66,5.43,5.43,0,0,1-2.29-1.8,4.42,4.42,0,0,1-.8-2.59h2.2a2.87,2.87,0,0,0,1.11,2.38,4.73,4.73,0,0,0,3,.87,4.34,4.34,0,0,0,2.66-.7,2.33,2.33,0,0,0,.92-1.93,2.25,2.25,0,0,0-.86-1.89A9.61,9.61,0,0,0,126.62,225.87Z"/><path class="cls-4" d="M142.88,232.06a4.51,4.51,0,0,1-3.62,1.45,3.85,3.85,0,0,1-3-1.15,5,5,0,0,1-1-3.4v-8h2.11v8c0,1.87.77,2.8,2.29,2.8a3.15,3.15,0,0,0,3.21-1.8v-9h2.12v12.35h-2Z"/><path class="cls-4" d="M154.11,222.82a6.76,6.76,0,0,0-1-.08,2.79,2.79,0,0,0-2.82,1.77v8.77h-2.11V220.93h2.06l0,1.43a3.27,3.27,0,0,1,2.94-1.66,2.09,2.09,0,0,1,.94.16Z"/><path id="BCS" class="cls-5" d="M192,155l-.12.37c-.38-.13-1-.19-1.34-.31l.06-.18a7.55,7.55,0,0,1-1-2.25,1.22,1.22,0,0,1,.18-.36l-.42-.85c0-.21.07-.83.06-1h.12l.18.24v.3c.55.48.65,1.36,1.16,1.89.2.54.73,1.05,1,1.58-.05.16.1.46.18.6Zm-10.65-8.72a3.53,3.53,0,0,1,1.09.61c.08.37.28,1.06.24,1l-.36.25.06.3a.5.5,0,0,1,0,.27l-.55.06c0-.07-.25-.27-.25-.27s-.36,0-.36,0a1.11,1.11,0,0,0-.13-.36l.31-.25c-.25-.28-.55-1.37-.67-1.27.1-.05-.18-.55-.18-.55l-.25-.55.37-.42a4.09,4.09,0,0,0,.67.67Zm-4.93-9.52a.81.81,0,0,0,.37.36,7.65,7.65,0,0,1,.12,1.28,6.69,6.69,0,0,0,.85,1.58.8.8,0,0,1-.73.12l-.18-.25a3.46,3.46,0,0,1-.73-.54l-.49-.31a8.71,8.71,0,0,1-.91-1.94l-.54-.24c-.16-.3,0-.67,0-1,0-.15,0-.52.12-.61.29.27.32.92.73,1.09a3.47,3.47,0,0,1,1.39.43Zm-2.53-3.27-.06.06v-.12l.12-.13v.13l-.06.06Zm-.25-1.4a.44.44,0,0,1-.3.06,1.07,1.07,0,0,1-.12-.61l.36-.36h.37l.12-.12a9.64,9.64,0,0,0-.43,1Zm-.79-7.11-.6-.12a1.8,1.8,0,0,1,.06-2.25l.18-.06.18.43a10.55,10.55,0,0,0,.18,2Zm-5.4-2.49.3.43.12.36c0,.19-.42.55-.42.55a3.82,3.82,0,0,1-.18-.61c-.1-.16.06-.67.06-.67l.12-.06Zm.2-7.92a1.84,1.84,0,0,0-.43,1.58h.18a2.22,2.22,0,0,1,.07.67l-.85-.67a20.42,20.42,0,0,1-1.34,2,2.54,2.54,0,0,0,0,.79l-.43.43c0,.2-.57.06-.54-.12a3.83,3.83,0,0,0,.42-1.64c.18-.23.7-1.06.77-1.17s-.13-1.14-.1-1.26a6.15,6.15,0,0,0,.73-.43l.18-.12.12.18.91-.18.31-.06ZM160,103.05l-.06.06s-.06-.21-.13-.24v-.18a.39.39,0,0,1,.19.36ZM148,90.84l-.3.31-.37-.06-.18-.91-.24-.25.36-.48a2.56,2.56,0,0,1,.85.91l-.12.48Zm3.65-5.1a2.58,2.58,0,0,1-.61.06l-.25-.18.07-.3a1,1,0,0,1,.72.06l.13.18ZM88.41,76.63a.62.62,0,0,1-.3.06,1.08,1.08,0,0,0-.24-.67,5.05,5.05,0,0,0-.55-.18l.06-.18a.74.74,0,0,0,.43.12c.17.25.62.33.66.67l-.06.18Zm18.35-3.22h1.09a3.42,3.42,0,0,1,.37.61l.72-.06a1.69,1.69,0,0,0-.12-.55h25.51a5,5,0,0,0,.19.73,13.43,13.43,0,0,0,.3,3l.36.06a6.14,6.14,0,0,0,.12.91c.48.47,1.29,1.67,1.77,2.12,1.67.81,3.79,1.69,5.1,3,0,.19.7,1.6.73,1.89.69,1.48,1.5,3.08,2.31,4.49l1.2,1.58A9.18,9.18,0,0,1,149.05,93c.28,1.48-.26,3.4,1.33,4.38l1.75.11a3.5,3.5,0,0,1,.85.18c3.42,1.55,4.94,6,6.2,9.29a19.39,19.39,0,0,1,1.33,4.07l.61,1.58c1,2.16.1,5.47,1.28,7.59l.06.31,1.15,1.82c.8,1.64,1.64,2.17,3.22,4.07,1.08,2.07,1.47,3.5,2.37,5.41,1.2,3.44,4.54,5.86,5.16,9.41l.31.43-.12.91a8.43,8.43,0,0,0-.37,6.8l-.18.18c.77,3.25,3.82,4.78,6.56,6-.07-.91-.49-3.9-.62-4.86l.89-.53c1.21,1,8.14,6.23,9.57,7.26a3.24,3.24,0,0,1,.48,1.09c1.12,2.16,1.76,4.78,3.24,6.92,3.92,3.18,5.23,5.55,3.67,10-.53,1.79-3.56,3.47-4.94,4.55-3.4,2.7-6.74,4.78-8.49-1-1.88-8.14-3.06-9.94-9.36-13.41-6.91-8.17-10.34-8.91-21.24-17.32h-.24l1.1,3.46-.78.62-5.07-4,2.42-1.51c-.54-4.62-5.85-3-9-4.11.44-1.17,2.32-7.85,2.94-8.73a16.06,16.06,0,0,0,1.45-7.1c0-14.9-11.08-13.7-18.3-23-.54-.75-1.85-2.61-2.77-2.92a15.65,15.65,0,0,0-3.87-1c-1.28.26-3.22,2.78-5,1.32-1.58-.9-3.14-4.86-5.71-5.24A48.71,48.71,0,0,1,101,90.66l-2-4.35c-2-1.81-5.25-4.13-7.38-5.8L89.75,77.6l.79-.3a11.46,11.46,0,0,1,2.64-.59,18.3,18.3,0,0,1,3.68.89,8.89,8.89,0,0,0,3.94-.07c1-.46,3-1.71,4.19-1.26,0,.21.12.56.13.79a3.49,3.49,0,0,1-.43,1.15,3.05,3.05,0,0,0,1,1.16,1.88,1.88,0,0,0,1.28.72c.32.25,1.53,1.33,1.76,1.52l.18.31a11,11,0,0,0,.91-1,3,3,0,0,1,0-.85c.38.19,1.38.86,1.83.79.15-.37.6-1.39.6-1.39A5.73,5.73,0,0,1,111,78.7s-1.25-.82-1.46-1l-.18.07c0,.12.55,1.45.55,1.45l-1.64.37a10.57,10.57,0,0,1-.92-2,4.07,4.07,0,0,1,.73-1.58,10.62,10.62,0,0,0-.79-1.33,1.8,1.8,0,0,1-1.21.61l-.43-.73C106.13,74.32,106.35,73.75,106.76,73.41Z"/><path class="cls-1" d="M94.07,42.29a3.19,3.19,0,0,0,.53-1.36A1.53,1.53,0,0,0,94,39.62c-.42-.31-.74-.36-1.12.11l.29.08,0,.12a11.22,11.22,0,0,1-1.65-.34,3.48,3.48,0,0,0-2.58.07,8,8,0,0,1-2.47.61,5.56,5.56,0,0,0-2.64.84,1.41,1.41,0,0,0-.5.63A7.05,7.05,0,0,0,83,44.59a.88.88,0,0,1-.2.58,1.09,1.09,0,0,0-.5,1c0,.7-.43,1-.89,1.37s-.69.41-1,.64a4.27,4.27,0,0,0-.47.48h0l-1,.48h0a3.35,3.35,0,0,0-3,.34,1.34,1.34,0,0,1-.5.22c-.88.24-1.85-.18-2.71.52a3.91,3.91,0,0,1-1.73.43.65.65,0,0,1-.53-.16,3.25,3.25,0,0,0-1.32-1.22,3.61,3.61,0,0,0-1.47-.42,9,9,0,0,1-1-.11c-.28-.42-.51-.79-.76-1.15-.34-.51-.85-.94-.93-1.61A3.42,3.42,0,0,0,63.75,44a7.79,7.79,0,0,1-1.91-3.09,1,1,0,0,1,0-.63.74.74,0,0,0-.2-1,2.81,2.81,0,0,1-1.07-1.9c0-.32-.17-.63-.2-1a2.39,2.39,0,0,1,.05-.7c.06-.45.16-.9.22-1.35,0-.23,0-.47,0-.7.08-1.05.14-2.11.28-3.16A10.11,10.11,0,0,1,62,26.73a7.55,7.55,0,0,0,.5-1.59,1.27,1.27,0,0,0,0-.43,1.36,1.36,0,0,0-.51.11.46.46,0,0,1-.67-.05,1.67,1.67,0,0,0-1.24-.42,4.23,4.23,0,0,1-1.12-.25c-.64-.26-1.25-.61-1.9-.86a1,1,0,0,1-.65-.52c-.27-.58-.59-1.15-.88-1.73a1.36,1.36,0,0,1,0-.36c-.05-.42-.08-.85-.17-1.26A1.18,1.18,0,0,0,55,18.9c-.3-.32-.62-.62-.91-.94s-.6-.7-.89-1.06a1.4,1.4,0,0,1-.28-.36c-.25-.53-.46-1.09-.73-1.61a4.42,4.42,0,0,0-1.45-2.16c-.31-.2-.5-.6-.81-.79s-.45-.69-1-.7A20.29,20.29,0,0,1,46.7,11a.67.67,0,0,0-.31,0,4.68,4.68,0,0,0-.64.3,1.59,1.59,0,0,0-.57.48,6,6,0,0,0-.47,1.21,1.06,1.06,0,0,1-1.82.66c-.4-.28-.88-.45-1.31-.69a7.71,7.71,0,0,1-.77-.49,4.71,4.71,0,0,0-.45-.33,2.06,2.06,0,0,1-1.1-1.78,4.26,4.26,0,0,0-.93-2.12c-.28-.37-.82-.54-1.19-.86s-.93-.91-1.41-1.35c-.25-.23-.53-.43-.78-.65a2.62,2.62,0,0,1-.66-.67,1,1,0,0,0-1-.64c-1.34,0-2.68,0-4,0-1.15,0-1-.1-1,1,0,.47-.13.63-.61.62-2.54,0-5.08,0-7.62,0a2.57,2.57,0,0,1-.83-.12L8.77,1.84C8,1.57,8,1.56,8.18.78a4.09,4.09,0,0,0-.5,0l-6.47.58c-.52,0-.59.19-.36.67a2.8,2.8,0,0,0,.3.46L1.44,3a3,3,0,0,0,.34.57c.28.31.51.6.35,1.06-.1.31.06.54.29.78.4.41.87.82.75,1.52,0,.09.1.24.19.32.46.4.89.78.69,1.5,0,.15.13.52.22.53.46,0,.51.33.49.65a2.44,2.44,0,0,0,.52,1.65,7.29,7.29,0,0,0,1.65,1.16,4.11,4.11,0,0,1,.73.46c.82.86,1.61,1.74,2.39,2.63a.49.49,0,0,1,.09.39c-.14.53,0,1.14-.54,1.55-.06.06,0,.2-.08.31s-.22,0-.29.07a1.18,1.18,0,0,1-1.12.12,1.71,1.71,0,0,0-.5-.1,2.64,2.64,0,0,0-.46.13,2.59,2.59,0,0,0,.3.48c.51.5,1.33.7,1.47,1.56a.28.28,0,0,0,.16.16,7.17,7.17,0,0,0,1.36.73,1.36,1.36,0,0,1,.78.58c.19.27.4.56.82.19s1,.05,1.2.38a3,3,0,0,0,.43.52c.59.71,1.61.82,2.15,1.64a3.36,3.36,0,0,1,.33,2.66c-.22.49-.36,1-.56,1.61a5.24,5.24,0,0,0,.71.1c.39,0,.69.12.74.58l-.39.23.81.64.12-.1-.18-.57a.85.85,0,0,1,.27.13c1,.9,2.33,1.51,3.18,2.64a.89.89,0,0,0,.35.21,1.75,1.75,0,0,1,1,1.35,5.7,5.7,0,0,0,.22.81c.21.49.53.55.95.23.24-.19.5-.36.76-.53a1.15,1.15,0,0,0,0-1.86,1.14,1.14,0,0,1-.37-.49,6.73,6.73,0,0,0-.43-.94,3.48,3.48,0,0,0-.73-.57l-.8-.64-.12.07.1.79h0l-.45-.21a1.37,1.37,0,0,1-.66-1.56A1,1,0,0,0,20.46,28,5.64,5.64,0,0,1,19.9,27a3.45,3.45,0,0,0-.39-.82,2.24,2.24,0,0,1-.78-1.7.92.92,0,0,0-.07-.4c-.19-.53-.39-1.05-.59-1.57s-.47-1-1.14-1c-.09,0-.26-.25-.24-.35.06-.34-.09-.48-.37-.6-.12,0-.17-.23-.27-.35-.34-.41-.31-1.11-1-1.31a1.17,1.17,0,0,1-.81-1.09c-.08-.52-.18-1-.31-1.55,0-.13-.25-.22-.37-.33s-.4-.24-.43-.39c-.12-.75-.73-1-1.25-1.32a3.79,3.79,0,0,0-1-1.77c-.62-.6-1.46-.93-2-1.67a2.3,2.3,0,0,1-.48-1.27c0-.69-.13-1.38-.2-2.07a.45.45,0,0,0-.12-.25C7.5,6.48,7.81,5.65,8,4.87c.1-.49.46-.54.87-.24a3.27,3.27,0,0,0,.78.51,1.92,1.92,0,0,0,.83.06c.14,0,.3-.22.42-.19s.45.17.49.32c.18.68.72.73,1.28.88s.71.33.52.89a1.8,1.8,0,0,0,.43,1.77,2.27,2.27,0,0,1,.55,1.19c0,.85.58,1.37.91,2,.1.2.12.43.21.63a1,1,0,0,0,.27.35.91.91,0,0,0,.3.13l.08.13c-1.19-.14-.84.79-1.14,1.37.29.12.58.34.79.28s.37-.38.61-.65c.18.24.36.5.55.74s.53.88.91,1.09a2.87,2.87,0,0,1,1,1,3.31,3.31,0,0,0,.77.72,2.35,2.35,0,0,0,.65.27c.18-.07.42-.14.55-.05a.82.82,0,0,1,.21.51c0,.21-.06.46,0,.64s.39.58.54.89a.94.94,0,0,0,.86.63c.63,0,.75.35.84.85a.7.7,0,0,0,.91.64.78.78,0,0,1,.9.55,1.63,1.63,0,0,1,0,.95,2.17,2.17,0,0,1-.32.57,1.08,1.08,0,0,0,.21,1.21,4.61,4.61,0,0,1,.6.47,1.44,1.44,0,0,0,1.31.66.57.57,0,0,1,.21.1l.75.46,1,.56-.07.12L28,27.64a3.36,3.36,0,0,0,2.46,2.3c-.37.38,0,.52.2.71s.42.31.62.49a10.65,10.65,0,0,1,1,.93c.34.39.64.83,1,1.25.09.12.19.23.29.35a17,17,0,0,0,1.52,1.75,3.09,3.09,0,0,1,1.06,2.2,3,3,0,0,0,.25,1c.25.54.49,1.12,1.11,1.28a4.52,4.52,0,0,0,0,.68,1,1,0,0,1-.34,1,5.46,5.46,0,0,0-.57.78,3,3,0,0,1,.47.12c.13.08.24.19.36.28-.1.1-.18.24-.3.3a4.71,4.71,0,0,1-.54.12c-.48.12-.57.37-.28.77a2.67,2.67,0,0,1,.22.41,6.86,6.86,0,0,0,.45.95,14.44,14.44,0,0,0,1,1.3,2.51,2.51,0,0,0,.67.67,17.49,17.49,0,0,1,2.86,1.46A12.72,12.72,0,0,1,42.68,50a2,2,0,0,0,.62.5,17.32,17.32,0,0,0,1.71.6c.58.18,1.17.34,1.75.5a.36.36,0,0,0,.27,0c.49-.29.79,0,1.1.31a10.27,10.27,0,0,0,.77.71c.48.37,1,.71,1.47,1a2.14,2.14,0,0,0,.45.24c.57.21,1.15.38,1.71.61s1.09.52,1.65.76a7.35,7.35,0,0,0,1,.38c1,.29,2.08.22,2.84,1.09a1.45,1.45,0,0,0,.45.22c.57.25,1.13.51,1.7.74a5.36,5.36,0,0,0,.78.23,6,6,0,0,1,1.83.47,3.12,3.12,0,0,0,2.54.41,13.5,13.5,0,0,0,1.82-.72c.37-.17.71-.4,1.08-.58a6.49,6.49,0,0,1,.74-.26l.58-.18-.4-.28.26-.2.79.25-.22.23,1.9.63c1.64.53,2.69,1.85,3.91,2.94.65.57,1.24,1.19,1.86,1.79l.09,0c.08-.69.57-1.33.2-2.07a.74.74,0,0,1,0-.56c.3-.57.66-1.1,1-1.67a.78.78,0,0,1,.81-.48c1,0,2,0,3,0,.16,0,.41-.11.45-.23a5.15,5.15,0,0,0,.12-1s0,0-.07,0c-.42-.13-.6-.48-.8-.84a.82.82,0,0,0-.4-.36,4.22,4.22,0,0,1-1.53-1.35c1.06-.07,1.06-.07,1.06-1.13a.33.33,0,0,0,0-.1c-.07-.48.15-.61.62-.61,1.49,0,3,0,4.49,0,.22,0,.47.06.53-.29s.29-.3.5-.15.43.12.57-.11c.24-.39.45-.8.67-1.19-.11.14-.25.28-.35.43.1-.15.24-.29.35-.43h0l0,0h0c.14-.14.29-.41.43-.4.47,0,.66-.25.83-.6a4.94,4.94,0,0,1,.3-.49l.12,0a2.88,2.88,0,0,1-.1.51c-.12.27-.1.47.18.62a2.69,2.69,0,0,1,.33.26l.06.06h0c.13.4.24.1.28,0,.16-.43.29-.88.43-1.32.18-.62.36-1.24.55-1.91H91.8c.35-.24.82-.23.74-.74l-.78-.14a3.78,3.78,0,0,0,.66-1.17,3.3,3.3,0,0,1,1.08-2A2.72,2.72,0,0,0,94.07,42.29Z"/><path class="cls-1" d="M93.71,43.65a.29.29,0,0,0,.12.23.25.25,0,0,0,.24-.06c.21-.27.4-.56.64-.9C94,42.82,93.65,43.12,93.71,43.65Z"/><path id="MEX2707" class="cls-6" d="M18.45,22.43h0v0h0v0l0,0v0ZM10,17.65a.33.33,0,0,1,.06.1h.12l0-.09h4.12v.22a3.31,3.31,0,0,0,.15.53c.08.08.21.27.29.35a2.84,2.84,0,0,1,.82.49,1.39,1.39,0,0,1,.12.3,4.56,4.56,0,0,0,.57,1,1.54,1.54,0,0,1,.42.3l0,.12a.67.67,0,0,0,.05.44.62.62,0,0,0,.14.14l.28,0,.14,0a1.08,1.08,0,0,1,.52.49,7.9,7.9,0,0,1,.61,1.32l.08.35s.14.42.18.48c0,.26.12,1,.12,1s.27.49.29.5c.59.46.68,1.11,1,1.67s.61.73.68,1.21l0,.06a1.79,1.79,0,0,0-.07,1.25l0,0c.12.52.61.77,1.06,1l-.1-.78.14-.09c.2.18,1.31,1,1.54,1.17s.29.69.38.85c0,.31.65.81.72.93a1.17,1.17,0,0,1,.16,1c-.07.4-.55.69-.82.94-1.62,1.48-1.45-1.1-2-1.74l-.94-.61c-.19-.23-.64-.69-.85-.9-.76-.6-1.23-.88-2.58-1.89l.14.55-.13.1-.81-.64L17,29.5c-.09-.75-.95-.49-1.45-.66a12.94,12.94,0,0,1,.47-1.41,2.7,2.7,0,0,0,.24-1.15,2.74,2.74,0,0,0-1.22-2.37,4.38,4.38,0,0,1-2-1.69,1.73,1.73,0,0,0-.81-.29s-.16,0-.2.1c-.37.38-.81.09-1-.42A3.34,3.34,0,0,0,10,21.06c-.29-.19-.75-.42-1-.63l-.32-.7c-.32-.29-.84-.67-1.19-.94l-.31-.46.13,0h0c.13,0,.3-.09.44-.09s.61.17.88.19l.35-.06c.16-.07.49-.27.67-.2a1.38,1.38,0,0,1,0,.31,1.21,1.21,0,0,0,.27.29,1.17,1.17,0,0,1,.27.14l.13.17.15-.15a.39.39,0,0,0-.06-.11l.06,0,.29.13.1-.23a1.13,1.13,0,0,1-.2-.13l-.23-.15v.12a.51.51,0,0,1,.05.12h-.32L10,18.44a1.59,1.59,0,0,1,.07-.36V18L10,17.9l-.16,0-.17-.09.11-.13Z"/></g></svg>