<?xml version="1.0" encoding="UTF-8"?><svg id="estados" xmlns="http://www.w3.org/2000/svg" viewBox="0 0 306.04 276.52"><defs><style>.cls-1,.cls-2{fill:#3bb1e6;}.cls-3{fill:#fff;}.cls-4{stroke-width:1.53px;}.cls-4,.cls-2,.cls-5{stroke:#fff;}.cls-4,.cls-5{fill:none;opacity:.67;stroke-miterlimit:10;}.cls-6{fill:#0a2f3a;opacity:.5;}.cls-2{stroke-linecap:round;stroke-linejoin:round;stroke-width:1.45px;}.cls-5{stroke-width:1.67px;}</style></defs><g id="camp-icono"><circle class="cls-6" cx="136.96" cy="151.48" r="97.03"/><circle class="cls-5" cx="136.96" cy="151.48" r="104.09"/><polyline class="cls-4" points="229.53 104.17 271.63 73.79 306.09 73.79"/><polyline class="cls-4" points="229.02 199.66 271.63 220.23 306.09 220.23"/><polyline class="cls-4" points="240.77 150.49 271.63 150.49 306.09 150.49"/><g><path class="cls-1" d="M95.06,213.89c-.21,1.76-.85,3.11-1.95,4.07-1.09,.96-2.54,1.43-4.35,1.43-1.96,0-3.54-.7-4.72-2.11-1.18-1.41-1.77-3.29-1.77-5.65v-1.6c0-1.54,.28-2.9,.83-4.07,.55-1.17,1.33-2.07,2.34-2.7,1.01-.63,2.18-.94,3.51-.94,1.76,0,3.18,.49,4.24,1.48,1.07,.99,1.69,2.35,1.86,4.09h-2.2c-.19-1.33-.6-2.29-1.24-2.88-.64-.6-1.52-.89-2.66-.89-1.4,0-2.5,.52-3.29,1.55-.8,1.04-1.19,2.51-1.19,4.42v1.61c0,1.8,.38,3.24,1.13,4.31,.75,1.07,1.81,1.6,3.16,1.6,1.22,0,2.15-.28,2.8-.83,.65-.55,1.08-1.51,1.3-2.88h2.2Z"/><path class="cls-1" d="M105.34,219.16c-.12-.24-.22-.68-.3-1.3-.98,1.02-2.15,1.53-3.51,1.53-1.22,0-2.22-.34-3-1.03-.78-.69-1.17-1.56-1.17-2.62,0-1.29,.49-2.28,1.47-3,.98-.71,2.35-1.07,4.13-1.07h2.05v-.97c0-.74-.22-1.33-.66-1.76-.44-.44-1.09-.66-1.95-.66-.75,0-1.38,.19-1.89,.57-.51,.38-.76,.84-.76,1.38h-2.12c0-.62,.22-1.21,.66-1.79,.44-.57,1.03-1.03,1.78-1.36,.75-.33,1.57-.5,2.47-.5,1.42,0,2.54,.36,3.34,1.07,.81,.71,1.22,1.69,1.26,2.94v5.68c0,1.13,.14,2.04,.43,2.71v.18h-2.21Zm-3.5-1.61c.66,0,1.29-.17,1.88-.51,.59-.34,1.02-.79,1.29-1.33v-2.53h-1.65c-2.59,0-3.88,.76-3.88,2.27,0,.66,.22,1.18,.66,1.55,.44,.37,1.01,.56,1.7,.56Z"/><path class="cls-1" d="M112.41,206.81l.06,1.37c.91-1.06,2.13-1.6,3.66-1.6,1.73,0,2.9,.66,3.53,1.99,.41-.59,.95-1.07,1.6-1.44,.66-.37,1.44-.55,2.33-.55,2.71,0,4.09,1.43,4.13,4.3v8.27h-2.11v-8.15c0-.88-.2-1.54-.6-1.98s-1.08-.66-2.03-.66c-.78,0-1.43,.23-1.95,.7-.52,.47-.82,1.1-.9,1.89v8.19h-2.12v-8.09c0-1.8-.88-2.69-2.64-2.69-1.38,0-2.33,.59-2.84,1.77v9.02h-2.11v-12.35h2Z"/><path class="cls-1" d="M141.34,213.12c0,1.88-.43,3.39-1.29,4.54-.86,1.15-2.02,1.72-3.49,1.72s-2.68-.48-3.54-1.43v5.95h-2.11v-17.09h1.93l.1,1.37c.86-1.06,2.05-1.6,3.58-1.6s2.66,.56,3.52,1.68c.86,1.12,1.3,2.67,1.3,4.67v.19Zm-2.11-.24c0-1.39-.3-2.49-.89-3.3-.59-.81-1.41-1.21-2.44-1.21-1.28,0-2.24,.57-2.88,1.7v5.9c.63,1.13,1.6,1.69,2.9,1.69,1.01,0,1.82-.4,2.41-1.2,.6-.8,.9-2,.9-3.58Z"/><path class="cls-1" d="M149.15,219.39c-1.67,0-3.04-.55-4.09-1.65s-1.57-2.57-1.57-4.41v-.39c0-1.22,.23-2.32,.7-3.28,.47-.96,1.12-1.72,1.96-2.26s1.75-.82,2.73-.82c1.6,0,2.85,.53,3.74,1.59s1.34,2.57,1.34,4.54v.88h-8.36c.03,1.22,.39,2.2,1.07,2.95s1.55,1.12,2.6,1.12c.75,0,1.38-.15,1.89-.46s.97-.71,1.36-1.21l1.29,1c-1.03,1.59-2.59,2.39-4.66,2.39Zm-.26-11.07c-.85,0-1.57,.31-2.15,.93s-.94,1.49-1.07,2.61h6.18v-.16c-.06-1.07-.35-1.9-.87-2.49-.52-.59-1.22-.88-2.1-.88Z"/><path class="cls-1" d="M161.36,217.66c.75,0,1.41-.23,1.97-.68,.56-.46,.87-1.03,.94-1.71h2c-.04,.71-.28,1.38-.73,2.02-.45,.64-1.05,1.15-1.8,1.53-.75,.38-1.54,.57-2.38,.57-1.68,0-3.02-.56-4.01-1.68-.99-1.12-1.49-2.66-1.49-4.6v-.35c0-1.2,.22-2.27,.66-3.21s1.07-1.66,1.9-2.18c.83-.52,1.8-.78,2.93-.78,1.38,0,2.54,.41,3.45,1.24,.92,.83,1.41,1.91,1.47,3.23h-2c-.06-.8-.36-1.46-.91-1.97-.54-.51-1.22-.77-2.01-.77-1.07,0-1.9,.39-2.49,1.16-.59,.77-.88,1.89-.88,3.35v.4c0,1.42,.29,2.52,.88,3.29,.59,.77,1.42,1.15,2.51,1.15Z"/><path class="cls-1" d="M170.75,208.31c.94-1.15,2.15-1.72,3.65-1.72,2.61,0,3.93,1.47,3.95,4.42v8.16h-2.11v-8.17c0-.89-.21-1.55-.61-1.97s-1.02-.64-1.87-.64c-.68,0-1.29,.18-1.8,.55-.52,.37-.92,.84-1.21,1.44v8.8h-2.11v-17.53h2.11v6.68Z"/><path class="cls-1" d="M186.63,219.39c-1.67,0-3.04-.55-4.09-1.65s-1.57-2.57-1.57-4.41v-.39c0-1.22,.23-2.32,.7-3.28,.47-.96,1.12-1.72,1.96-2.26s1.75-.82,2.73-.82c1.6,0,2.85,.53,3.74,1.59s1.34,2.57,1.34,4.54v.88h-8.36c.03,1.22,.39,2.2,1.07,2.95s1.55,1.12,2.6,1.12c.75,0,1.38-.15,1.89-.46s.97-.71,1.36-1.21l1.29,1c-1.03,1.59-2.59,2.39-4.66,2.39Zm-.26-11.07c-.85,0-1.57,.31-2.15,.93s-.94,1.49-1.07,2.61h6.18v-.16c-.06-1.07-.35-1.9-.87-2.49-.52-.59-1.22-.88-2.1-.88Z"/></g><path id="CAMP" class="cls-2" d="M104.84,150.32v.53l-.21-.11-.11-.11-.64,.53-.42,.11-.42,.11,.11-.32,.21-.21,.21-.11,.32-.11-.64,.11-1.17,.42h-.53l-1.27,1.8-.95,.85-1.17,.21,.74-1.27-1.8,1.17-1.06,.42-.95,.21h-.64l-.21-.11,.11-.32,.53-.53,.32-.21,1.48-.64,.95-.21,1.8-.95,1.27-.85,1.59-.53,1.48-.74h.53l.21,.21,.21,.32,.11,.32h0Zm70.37-31.26l1.48,2.01,1.8,1.59,2.12,1.48,4.03,3.6,3.29,4.13,.74,2.54-.32,2.23,.11,2.54-.11,.53,.11,1.17-.53,.95-1.59,1.59,.21,2.65-1.06,6.99,.21,2.01,1.17,1.48,.32,1.91-.42,.53-.21,.53,.53,.21,.53,.32v.74l-.32,.85-.21,.74,.64,3.18,.21,2.44v2.23l-.74,2.01-2.86,3.5-.32,.53,.21,2.76-.21,.42-.21,1.38v3.07h-14.73l-7.31-.11h-38.15l-.74,.21-.21,.32v-5.83l-2.01-.11-1.91-.11-.53-.11-.21-.21-.32-.32-.32-.32-.64-.21-.64-.11-1.38,.11-.53-.11-.64-.42-.64-.42-.53-.42-.64-.42-.53-.32-.53-.21h-.74l-.64-.11-.53-.21-.53-.11-1.06-.42-.42-.11-.32-.11h-1.17l-.95-.11-.95,.11-.74,.21-.21,.42-.21,.64v.74l.11,.42v.21l-.11,.64-.32,.85-.42,.85-.21,.32h-7.63l-1.06-.53-.95-.64-.95-.53-.53-.32-.21-.53-.11-.64-.64-.32-.53-.21-.42-.21-.42-.21-.42-.32-.74-.53-.74-.64-.85-.64-.85-.53-.42-.85-.11-1.38,.11-1.38,.11-1.06v-3.29l.11-3.18h-1.48l-1.59,.11h-1.59l-1.48-.21h-.32l-.21,.21h-.32l-.32-.11-.32-.21-.53-.42-.21-.21-.53-.64-.32-.85-.11-.85-.32-.85-.42-.64-.42-.64-.42-.74-.11-.64,2.44-.74,3.82-.21,3.5-.32,4.24-.53,2.65,.11,1.06,.21,.95,1.06,1.8,1.17,.21,.32v.42l-.21,.32-.32,.32-.42,.11,.21-.21v-.32l-.32,.21-.42,.11h-.95l-.32-.21,.11-.32,.11-.42-.21-.32h-.21l-.21,.11-.74,.53h-.11l-.11-.11h-.32l-.53,.11-.11,.11,.21,.21h.53v.32l-.42,.11h-.42l-.42-.11-.32-.32v.21l.11,.32,.11,.21-.32,.21-.21,.32-.11,.32-.11,.42,.21-.21,.53-.32,.64,.53,.32,.11,.42,.11,.74-.21,.42-.11,.21,.21,.21,.42,.53,.42,.64,.32,.64,.11-.85-.64-.95-.64-.74-.74-.21-1.06,.74,.32,.32,.32,.42,.11,.85-.32-.42,.74,.42,.21,.42,.21,.32,.32,.21,.53-.53-.32v.32h-.21l.64,.32,1.27,.42,.42,.42-.11,.53-.85,.95-.21,.53,.21,.53,.64,.53,.64,.53,.42,.11,.32-.53-.11-.53-.32-.53-.21-.64,.32,.21,.32,.21,.32,.11,.42-.11-.32-.42-.53-.42-.32-.53,.21-.53,.95,.42,2.01,.53,.95,.53,.64-.21,1.48,.32,.85,.11,1.7-.21,.74-.21,.53-.32,.11,.53,.21,.32,.32,.11,.32-.21v-.42l-.21-1.06v-.42h-.21l-.11,.11-.11,.32-.11,.32h-.32l-.85,.32-.21-.11,.21-.42,.74-.85,.21-.21,.85-.42,1.91-.74,.95-.53,.53,.21,.53-.11,.53-.32,.42-.21,.32-.42,.53-1.06,.21-.21h1.7l.21-.21,.32-.32,1.27-.42,.53-.32-.64-.21h-.42l-.85,.53-1.59,.42-.42,.21,1.06-2.65v-1.06l-.64-1.06-.53-.53-.32-.21h-.42l-.32,.11-.11,.21-.11,.21-.21,.21-.74-.21-.95-1.27-.64-.21,.53-.85,.64-.85,.74-.53,1.59-.53,1.06-.74,.85-.85,.53-.74-.74,.11-2.23,1.8-2.12,1.17-.85,.74v.74l-.32,.21-.11-.21-.74,.53-.42,.21h-.64l-.74-.11v-.21l.74-.95,1.7-1.27,2.12-1.27,2.86-1.8,4.03-1.8,2.76-2.54,.64-.32,1.59-.53,2.54-1.8,2.65-3.39,.74-.42,1.06-.42,1.17-.95,.85-1.17,.42-1.17,.53-6.89,.32-1.48,.11-.74-.11-.74-.11-.64v-.53l.21-.85,.64-1.48,.64-1.06,1.91-1.38,2.97-2.12,1.38-1.48,.32-1.48,.11-.53v-.64l-.11-.53-1.06-2.01v-1.38l.11-2.76,.32-1.8-.11-1.91v-.85l.42-2.01,.11-1.38-.53-2.97v-1.59l.74-2.97,.21-3.5,.42-.95,1.8-2.23,.42-.64,.11,.95-.42,8.9,.53,1.06,1.59,.11h1.7l1.38,.21,.85,.95,.53,1.27,.85,.74,.64-.32,.64-.21,.64,.53,.64,.64,.95-.21,.64-1.27,.85-.64,1.38,1.91,.53,.95v.85l.64,1.38,.53,.64,1.91,1.38,1.17,2.12,.85,2.54,1.7,1.8,2.33,.85,2.01,1.59,2.44,4.56,1.8,1.91,1.59,2.12,.42,2.54,.85,1.91h0Z"/><g><g><path class="cls-3" d="M94.07,42.29c.23-.43,.53-.9,.53-1.36,0-.45-.13-.96-.61-1.31-.43-.31-.75-.37-1.12,.1,.1,.03,.19,.06,.29,.09,0,.04-.02,.08-.02,.11-.55-.11-1.12-.15-1.65-.33-.89-.32-1.78-.27-2.58,.07-.81,.34-1.62,.54-2.47,.61-.95,.09-1.84,.3-2.64,.83-.21,.14-.4,.39-.5,.63-.4,.91-.32,1.89-.33,2.86,0,.2-.06,.48-.2,.57-.39,.26-.52,.65-.49,1.05,.04,.7-.43,1.02-.89,1.36-.32,.24-.7,.41-1.03,.64-.18,.13-.31,.32-.46,.48h0s0,0,0,0c-.34,.16-.68,.31-1.01,.47,0,0,0,0-.01,0,0,0,0,0,0,0-.73-.39-2.31-.19-2.94,.35-.13,.11-.32,.16-.5,.21-.88,.25-1.86-.18-2.72,.52-.42,.34-1.14,.33-1.73,.43-.16,.03-.43-.04-.52-.16-.38-.47-.67-.95-1.32-1.22-.49-.2-.93-.43-1.48-.42-.38,0-.76-.07-1.03-.1-.28-.42-.52-.79-.76-1.15-.35-.52-.85-.94-.93-1.61-.1-.86-.61-1.52-1.19-2.07-.91-.88-1.49-1.93-1.91-3.09-.07-.18-.04-.44,.03-.63,.17-.4,.19-.71-.2-1.02-.6-.48-.98-1.11-1.07-1.9-.04-.32-.17-.63-.21-.96-.03-.23,.02-.47,.05-.7,.07-.45,.16-.9,.22-1.35,.03-.23-.04-.47-.02-.7,.08-1.06,.14-2.12,.28-3.16,.18-1.28,.42-2.54,1.07-3.7,.27-.47,.36-1.05,.51-1.59,.04-.13-.02-.29-.03-.43-.17,.03-.38,.02-.51,.11-.26,.19-.49,.14-.67-.05-.34-.38-.78-.38-1.24-.42-.38-.03-.77-.1-1.12-.25-.65-.26-1.25-.62-1.9-.86-.29-.11-.51-.22-.64-.51-.28-.59-.6-1.15-.88-1.73-.05-.1-.03-.24-.05-.36-.05-.42-.08-.85-.18-1.27-.04-.17-.21-.33-.34-.47-.3-.32-.61-.62-.9-.94-.31-.34-.6-.7-.89-1.05-.1-.12-.22-.23-.28-.36-.25-.53-.46-1.09-.72-1.61-.39-.78-.62-1.66-1.45-2.16-.31-.19-.5-.6-.81-.79-.34-.21-.45-.69-.98-.69-.73-.01-1.46-.16-2.2-.25-.1-.01-.21,0-.3,.04-.22,.09-.44,.18-.64,.3-.21,.13-.46,.27-.57,.48-.21,.38-.35,.8-.47,1.21-.28,.99-1.01,1.24-1.83,.66-.4-.28-.87-.45-1.3-.69-.27-.15-.52-.32-.78-.49-.15-.1-.28-.25-.44-.33-.75-.36-1.03-1.07-1.1-1.78-.08-.84-.48-1.5-.93-2.12-.27-.38-.82-.54-1.19-.86-.49-.42-.93-.91-1.41-1.35-.25-.23-.53-.43-.78-.65-.23-.21-.53-.4-.66-.67-.22-.47-.54-.64-1.03-.63-1.34,0-2.68,0-4.02,0-1.15,0-1-.11-.99,1,0,.47-.14,.62-.61,.62-2.54-.02-5.08,0-7.63-.01-.28,0-.57-.03-.83-.12-3.48-1.25-6.95-2.52-10.42-3.79-.74-.27-.74-.28-.59-1.06-.18,0-.34-.01-.5,0-2.16,.19-4.31,.38-6.47,.58-.52,.05-.59,.19-.36,.68,.08,.17,.21,.31,.3,.46,.1,.17,.2,.34,.3,.51,.11,.19,.19,.42,.34,.58,.28,.31,.51,.6,.35,1.06-.1,.31,.06,.54,.29,.77,.4,.42,.87,.82,.75,1.52-.02,.09,.1,.24,.19,.32,.45,.4,.89,.78,.68,1.5-.04,.15,.13,.53,.22,.53,.46,.03,.51,.33,.49,.65-.04,.63,.18,1.23,.52,1.65,.42,.5,1.09,.79,1.65,1.16,.24,.16,.54,.26,.73,.46,.82,.86,1.61,1.74,2.39,2.63,.08,.09,.11,.27,.08,.39-.14,.53-.03,1.15-.53,1.56-.07,.05-.06,.2-.08,.3-.1,.02-.22,.02-.3,.07-.35,.26-.72,.24-1.11,.12-.16-.05-.33-.1-.5-.09-.16,0-.31,.09-.47,.13,.1,.16,.18,.35,.31,.47,.51,.5,1.33,.7,1.46,1.56,0,.06,.1,.12,.16,.16,.45,.25,.88,.58,1.36,.72,.37,.11,.57,.3,.78,.59,.19,.27,.41,.55,.82,.19,.28-.25,1,.05,1.2,.38,.11,.19,.28,.35,.43,.52,.59,.7,1.61,.82,2.16,1.64,.41,.62,.65,1.97,.33,2.66-.23,.49-.36,1.02-.56,1.61,.27,.04,.49,.1,.71,.1,.4,.01,.7,.12,.75,.57-.12,.07-.23,.14-.39,.23,.3,.24,.56,.44,.81,.64,.04-.03,.08-.06,.12-.09-.05-.17-.11-.35-.18-.58,.12,.06,.21,.08,.27,.13,1.03,.91,2.32,1.51,3.18,2.64,.08,.1,.23,.17,.36,.22,.63,.23,.88,.75,1.03,1.35,.07,.27,.12,.55,.22,.81,.2,.49,.53,.55,.94,.23,.25-.19,.51-.36,.76-.53,.63-.43,.6-1.45-.03-1.86-.16-.1-.27-.31-.36-.49-.16-.31-.23-.67-.43-.94-.18-.24-.48-.38-.73-.57-.27-.21-.53-.43-.8-.64-.04,.02-.08,.05-.12,.07,.03,.26,.06,.53,.09,.79,0,0,0,0,0,.01,0,0,0,0,0,0-.15-.07-.3-.15-.45-.21-.51-.22-.88-1.05-.66-1.56,.2-.46,.1-.82-.21-1.2-.23-.28-.39-.62-.56-.95-.14-.27-.19-.6-.39-.82-.44-.5-.85-.97-.79-1.69,.01-.13-.02-.28-.07-.41-.19-.52-.39-1.04-.59-1.57-.2-.53-.47-.98-1.14-.99-.09,0-.25-.24-.24-.35,.06-.34-.09-.48-.37-.6-.12-.05-.18-.23-.27-.35-.35-.42-.31-1.11-.95-1.31-.53-.17-.72-.58-.8-1.09-.08-.52-.18-1.04-.32-1.55-.04-.14-.24-.22-.37-.34-.15-.13-.4-.24-.42-.39-.12-.74-.73-.98-1.26-1.32-.19-.67-.47-1.24-1-1.77-.62-.6-1.46-.93-1.95-1.67-.27-.4-.47-.77-.48-1.27-.02-.69-.13-1.38-.2-2.07,0-.09-.05-.19-.11-.25-.68-.73-.37-1.56-.2-2.34,.11-.49,.47-.54,.88-.24,.25,.18,.49,.41,.77,.51,.25,.09,.55,.08,.83,.06,.15-.01,.31-.22,.43-.19,.18,.04,.44,.18,.48,.32,.18,.68,.72,.73,1.28,.88,.68,.18,.71,.33,.52,.89-.23,.68,.01,1.23,.42,1.77,.26,.35,.55,.79,.55,1.19,0,.85,.58,1.37,.91,2.03,.1,.2,.12,.43,.21,.63,.06,.13,.16,.26,.27,.35,.08,.07,.2,.08,.3,.12,.03,.04,.05,.09,.08,.13-1.18-.13-.84,.8-1.13,1.38,.29,.11,.57,.33,.79,.28,.22-.06,.37-.38,.6-.65,.18,.24,.36,.49,.56,.74,.29,.38,.52,.87,.91,1.08,.48,.26,.72,.64,1.01,1.04,.2,.28,.48,.51,.77,.72,.19,.14,.43,.19,.65,.28,.18-.07,.42-.14,.55-.05,.13,.08,.18,.33,.21,.51,.03,.21-.06,.46,.02,.64,.13,.32,.39,.58,.54,.89,.18,.37,.47,.63,.86,.63,.63-.01,.75,.35,.84,.85,.09,.51,.39,.74,.91,.65,.51-.1,.76,.23,.9,.55,.12,.26,.03,.64-.03,.95-.04,.2-.21,.38-.32,.57-.2,.35-.09,.98,.21,1.21,.2,.16,.43,.28,.6,.47,.35,.4,.72,.74,1.31,.67,.07,0,.14,.05,.21,.09,.25,.15,.5,.32,.75,.47,.33,.19,.66,.37,.99,.56-.02,.04-.05,.08-.07,.12-.16-.1-.31-.19-.51-.31,.35,1.03,1.37,2.23,2.46,2.29-.36,.38-.03,.53,.2,.71,.21,.17,.42,.32,.62,.49,.33,.3,.68,.59,.97,.93,.34,.39,.64,.83,.96,1.25,.09,.12,.2,.24,.3,.35,.5,.59,.94,1.24,1.51,1.75,.69,.61,.99,1.32,1.06,2.2,.03,.33,.12,.67,.25,.97,.25,.55,.49,1.13,1.1,1.28-.02,.28-.07,.48-.04,.68,.05,.39-.05,.68-.34,.96-.21,.2-.35,.47-.57,.77,.24,.06,.37,.07,.47,.13,.13,.07,.24,.18,.36,.28-.1,.1-.18,.24-.3,.3-.17,.07-.36,.07-.55,.12-.48,.12-.56,.37-.27,.77,.09,.12,.15,.27,.22,.4,.15,.32,.25,.67,.45,.95,.31,.46,.68,.88,1.04,1.3,.21,.24,.41,.53,.67,.67,.95,.49,2,.8,2.86,1.47,.46,.36,.8,.88,1.21,1.31,.18,.19,.38,.41,.62,.51,.56,.23,1.14,.41,1.72,.59,.58,.18,1.17,.34,1.75,.5,.08,.02,.2,.03,.27,0,.48-.28,.78,.02,1.09,.32,.25,.24,.5,.5,.78,.71,.48,.36,.97,.7,1.46,1.04,.14,.1,.29,.18,.45,.24,.57,.21,1.15,.39,1.72,.62,.56,.23,1.09,.52,1.64,.76,.33,.15,.67,.28,1.02,.38,.98,.28,2.08,.21,2.84,1.08,.1,.12,.3,.15,.46,.22,.56,.25,1.12,.51,1.69,.75,.25,.1,.52,.16,.78,.23,.6,.16,1.25,.1,1.83,.47,.77,.49,1.66,.65,2.55,.41,.62-.17,1.22-.46,1.82-.72,.37-.17,.72-.4,1.08-.58,.23-.11,.49-.18,.74-.26,.16-.05,.32-.1,.57-.18-.19-.13-.28-.2-.4-.28,.13-.1,.24-.18,.27-.2,.32,.1,.56,.18,.78,.25-.05,.05-.14,.15-.22,.24,.65,.21,1.27,.42,1.9,.62,1.64,.53,2.69,1.86,3.91,2.94,.65,.57,1.24,1.2,1.86,1.8,.03-.02,.08-.03,.08-.05,.08-.69,.57-1.32,.2-2.07-.07-.14-.03-.4,.06-.56,.3-.57,.65-1.1,.94-1.67,.18-.35,.41-.49,.81-.48,1,.02,2,.02,2.99,0,.16,0,.41-.11,.44-.23,.09-.31,.09-.65,.13-.97,0-.01-.05-.04-.07-.05-.42-.14-.6-.48-.8-.84-.08-.15-.25-.3-.41-.36-.66-.28-1.07-.81-1.53-1.34q1.06-.08,1.07-1.14s0-.06,0-.09c-.07-.48,.15-.61,.61-.61,1.5,.02,2.99,.01,4.49,0,.22,0,.47,.06,.54-.29,.06-.31,.29-.31,.49-.15,.25,.19,.44,.12,.57-.12,.23-.39,.45-.79,.67-1.19-.12,.15-.25,.29-.36,.44,.11-.15,.24-.29,.36-.44,0,0,0,0,0,0,0,0,.01-.01,.01-.02h0s0,0,0,0c.14-.14,.3-.41,.43-.4,.47,.02,.66-.25,.83-.6,.08-.17,.2-.32,.31-.48,.04,.02,.08,.03,.12,.05-.03,.17-.04,.35-.1,.51-.11,.27-.1,.47,.18,.62,.12,.07,.23,.17,.33,.26,.02,.02,.04,.04,.06,.06h0c.13,.4,.24,.1,.28-.03,.16-.43,.29-.88,.42-1.32,.19-.62,.36-1.24,.56-1.91h-.59c.35-.24,.82-.23,.74-.74-.28-.05-.57-.1-.78-.14,.25-.43,.61-.78,.66-1.17,.1-.83,.51-1.45,1.08-2,.2-.2,.45-.37,.58-.61Z"/><path class="cls-3" d="M93.71,43.65c0,.08,.05,.2,.12,.23,.06,.03,.2,0,.24-.06,.21-.27,.4-.56,.64-.91-.7-.1-1.06,.21-1,.74Z"/></g><path id="MEX2722" class="cls-1" d="M79.91,48.78v.05h-.02s0-.02,0-.02l-.06,.05h-.04s-.04,.02-.04,.02v-.03s.03-.02,.03-.02h.02s.03-.02,.03-.02h-.06s-.11,.05-.11,.05h-.05l-.12,.17-.09,.08-.11,.02,.07-.12-.17,.11-.1,.04-.09,.02h-.08s0-.04,0-.04l.05-.05,.03-.02,.14-.06,.09-.02,.17-.09,.12-.08,.15-.05,.14-.07h.05l.02,.02,.02,.03v.03s0,0,0,0Zm6.28-3.03l.14,.19,.17,.15,.2,.14,.37,.34,.3,.39,.07,.24-.03,.21v.24s0,.05,0,.05v.11s-.04,.09-.04,.09l-.15,.15,.02,.25-.1,.65,.02,.19,.11,.14,.03,.18-.04,.05-.02,.05,.05,.02,.05,.03v.07l-.03,.08-.02,.07,.06,.3,.02,.23v.21l-.07,.19-.26,.33-.03,.05,.02,.26-.02,.04-.02,.13v.44s-1,.02-1,.02h-1.01l-.63-.02h-.71s-.76,.01-.76,.01l-1.12,.03-.19,.23-.22-.42-.02,.03v-.55h-.19s-.18-.02-.18-.02h-.05s-.02-.03-.02-.03l-.03-.03-.03-.03-.06-.02h-.06s-.13,0-.13,0h-.05s-.06-.05-.06-.05l-.06-.04-.05-.04-.06-.04-.05-.03-.05-.02h-.13s-.05-.03-.05-.03h-.05s-.1-.05-.1-.05h-.04s-.03-.02-.03-.02h-.2s-.09,0-.09,0l-.07,.02-.02,.04-.02,.06v.11s0,.02,0,.02v.06s-.04,.08-.04,.08l-.04,.08-.02,.03h-.71l-.1-.05-.09-.06-.09-.05-.05-.03-.02-.05v-.06s-.07-.03-.07-.03l-.05-.02-.04-.02-.04-.02-.04-.03-.07-.05-.07-.06-.08-.06-.08-.05-.04-.08v-.13s0-.13,0-.13v-.1s0-.31,0-.31v-.3s-.13,0-.13,0h-.15s-.15,0-.15,0l-.14-.02h-.03l-.02,.02h-.06s-.03-.03-.03-.03l-.05-.04-.02-.02-.05-.06-.03-.08v-.08s-.04-.08-.04-.08l-.04-.06-.04-.06-.04-.07v-.06s.22-.07,.22-.07l.35-.02,.32-.03,.39-.05h.24s.1,.03,.1,.03l.09,.1,.17,.11,.02,.03v.04l-.02,.03-.03,.03h-.04s.02,0,.02,0v-.03l-.03,.02h-.04s-.09,0-.09,0l-.03-.02v-.03s.02-.04,.02-.04l-.02-.03h-.04s-.07,.06-.07,.06h-.02s-.03,0-.03,0h-.05s0,.02,0,.02l.02,.02h.05v.03h-.04s-.04,0-.04,0h-.04s-.03-.04-.03-.04v.05s.02,.02,.02,.02l-.03,.02-.02,.03v.03s-.02,.04-.02,.04l.02-.02,.05-.03,.06,.05h.03s.04,.02,.04,.02l.07-.02h.04s.02,0,.02,0l.02,.04,.05,.04,.06,.03h.06s-.08-.05-.08-.05l-.09-.06-.07-.07-.02-.1,.07,.03,.03,.03h.04s.08-.02,.08-.02l-.04,.07,.04,.02,.04,.02,.03,.03,.02,.05-.05-.03v.03h-.02l.06,.03,.12,.04,.04,.04v.05s-.09,.09-.09,.09l-.02,.05,.02,.05,.06,.05,.06,.05h.04s.03-.04,.03-.04v-.05s-.04-.05-.04-.05l-.02-.06,.03,.02,.03,.02h.03s.04,0,.04,0l-.03-.04-.05-.04-.03-.05,.02-.05,.09,.04,.19,.05,.09,.05,.06-.02,.14,.03h.08s.16,0,.16,0l.07-.02,.05-.03v.05s.03,.03,.03,.03h.03s.03,0,.03,0v-.04l-.02-.1v-.04h-.03s0,.04,0,.04v.03h-.04l-.08,.03h-.02s.02-.05,.02-.05l.07-.08,.02-.02,.08-.04,.18-.07,.09-.05,.05,.02h.05s.05-.04,.05-.04l.04-.02,.03-.04,.05-.1,.02-.02h.16l.02-.02,.03-.03,.12-.04,.05-.03-.06-.02h-.04l-.08,.05-.15,.04-.04,.02,.1-.25v-.1l-.06-.1-.05-.05-.03-.02h-.07s0,.03,0,.03v.02s-.03,.02-.03,.02l-.07-.02-.09-.12-.06-.02,.05-.08,.06-.08,.07-.05,.15-.05,.1-.07,.08-.08,.05-.07h-.07s-.21,.18-.21,.18l-.2,.11-.08,.07v.07l-.03,.02v-.02s-.08,.05-.08,.05l-.04,.02h-.13v-.03l.07-.09,.16-.12,.2-.12,.26-.17,.37-.17,.25-.24,.06-.03,.15-.05,.24-.17,.24-.32,.07-.04,.1-.04,.11-.09,.08-.11,.04-.11,.05-.65,.03-.14v-.07s0-.07,0-.07v-.06s0-.05,0-.05l.02-.08,.06-.14,.06-.1,.18-.13,.27-.2,.13-.14,.03-.14v-.05s0-.06,0-.06v-.05s-.11-.19-.11-.19v-.39s.04-.17,.04-.17v-.18s0-.08,0-.08l.04-.19v-.13s-.04-.28-.04-.28v-.15l.07-.28,.02-.33,.04-.09,.17-.21,.04-.06v.09s-.03,.83-.03,.83l.05,.1h.15s.16,0,.16,0l.13,.02,.08,.09,.05,.12,.08,.07,.06-.03,.06-.02,.06,.05,.06,.06,.09-.02,.06-.12,.08-.06,.13,.18,.05,.09v.08l.06,.13,.05,.06,.18,.13,.11,.2,.08,.24,.16,.17,.22,.08,.19,.15,.23,.43,.17,.18,.15,.2,.04,.24,.08,.18h0Z"/></g></g></svg>