<svg xmlns="http://www.w3.org/2000/svg" viewBox="0 0 306.04 276.52"><defs><style>.cls-1{fill:#fef6fc;}.cls-1,.cls-2,.cls-3{stroke:#6d4162;stroke-miterlimit:10;stroke-width:0.78px;}.cls-2,.cls-3{fill:none;}.cls-3{isolation:isolate;}.cls-4{fill:#713972;}.cls-5{fill:#b25fac;}.cls-6{fill:#f230b9;}</style></defs><g id="estados"><circle class="cls-1" cx="136.96" cy="151.48" r="97.03"/><circle class="cls-2" cx="136.96" cy="151.48" r="104.09"/><polyline class="cls-3" points="213.34 81.1 271.32 41.25 305.78 41.25"/><polyline class="cls-3" points="214.19 220.92 271.32 255.56 305.78 255.56"/><polyline class="cls-3" points="239.72 131.27 272.01 116.16 306.47 116.16"/><polyline class="cls-3" points="238.56 172.75 271 186.07 305.46 186.07"/><path class="cls-4" d="M99.18,203a6.08,6.08,0,0,1-1.94,4.07,6.38,6.38,0,0,1-4.36,1.43,5.86,5.86,0,0,1-4.72-2.11,8.5,8.5,0,0,1-1.77-5.65v-1.59a9.35,9.35,0,0,1,.83-4.08,6.2,6.2,0,0,1,2.34-2.7,6.59,6.59,0,0,1,3.52-.94,6,6,0,0,1,4.24,1.48A6.15,6.15,0,0,1,99.18,197H97a4.71,4.71,0,0,0-1.24-2.88,3.71,3.71,0,0,0-2.66-.9,3.93,3.93,0,0,0-3.3,1.56,7.15,7.15,0,0,0-1.19,4.42v1.61a7.33,7.33,0,0,0,1.13,4.3,3.64,3.64,0,0,0,3.16,1.6,4.21,4.21,0,0,0,2.8-.82A4.63,4.63,0,0,0,97,203Z"/><path class="cls-4" d="M101.85,192.65a1.28,1.28,0,0,1,.31-.86,1.39,1.39,0,0,1,1.87,0,1.24,1.24,0,0,1,.32.86,1.22,1.22,0,0,1-.32.86,1.46,1.46,0,0,1-1.87,0A1.26,1.26,0,0,1,101.85,192.65Zm2.28,15.63H102V195.93h2.11Z"/><path class="cls-4" d="M115.13,207.05a4.45,4.45,0,0,1-3.61,1.45,3.85,3.85,0,0,1-3-1.14,4.94,4.94,0,0,1-1-3.4v-8h2.11v8c0,1.87.76,2.8,2.28,2.8a3.17,3.17,0,0,0,3.22-1.8v-9h2.11v12.35h-2Z"/><path class="cls-4" d="M119.88,202a7.22,7.22,0,0,1,1.35-4.57,4.26,4.26,0,0,1,3.52-1.73,4.32,4.32,0,0,1,3.44,1.48v-6.43h2.11v17.53h-1.94l-.1-1.33a4.29,4.29,0,0,1-3.53,1.55,4.22,4.22,0,0,1-3.5-1.75,7.32,7.32,0,0,1-1.35-4.59Zm2.11.24a5.49,5.49,0,0,0,.87,3.29,2.81,2.81,0,0,0,2.4,1.18,3.09,3.09,0,0,0,2.93-1.8v-5.67a3.09,3.09,0,0,0-2.91-1.75,2.81,2.81,0,0,0-2.42,1.2A6,6,0,0,0,122,202.24Z"/><path class="cls-4" d="M141.2,208.28a4.69,4.69,0,0,1-.3-1.31,4.7,4.7,0,0,1-3.51,1.53,4.36,4.36,0,0,1-3-1,3.34,3.34,0,0,1-1.17-2.62,3.48,3.48,0,0,1,1.47-3,6.89,6.89,0,0,1,4.12-1.07h2.06v-1a2.32,2.32,0,0,0-.67-1.76,2.64,2.64,0,0,0-1.95-.66,3.07,3.07,0,0,0-1.89.57,1.69,1.69,0,0,0-.77,1.38h-2.12a2.89,2.89,0,0,1,.66-1.78,4.5,4.5,0,0,1,1.78-1.37,6.06,6.06,0,0,1,2.47-.5,4.87,4.87,0,0,1,3.34,1.07,3.84,3.84,0,0,1,1.26,2.94v5.68a6.93,6.93,0,0,0,.43,2.7v.19Zm-3.51-1.61a3.66,3.66,0,0,0,1.89-.52,3.11,3.11,0,0,0,1.29-1.33v-2.53h-1.66c-2.58,0-3.88.75-3.88,2.27a1.92,1.92,0,0,0,.66,1.55A2.58,2.58,0,0,0,137.69,206.67Z"/><path class="cls-4" d="M145.77,202a7.22,7.22,0,0,1,1.35-4.57,4.58,4.58,0,0,1,7-.25v-6.43h2.11v17.53h-1.94l-.1-1.33a4.28,4.28,0,0,1-3.53,1.55,4.2,4.2,0,0,1-3.49-1.75,7.26,7.26,0,0,1-1.36-4.59Zm2.11.24a5.49,5.49,0,0,0,.87,3.29,2.81,2.81,0,0,0,2.4,1.18,3.08,3.08,0,0,0,2.93-1.8v-5.67a3.09,3.09,0,0,0-2.91-1.75,2.82,2.82,0,0,0-2.42,1.2A6,6,0,0,0,147.88,202.24Z"/><path class="cls-4" d="M164.74,202a7.22,7.22,0,0,1,1.35-4.57,4.25,4.25,0,0,1,3.52-1.73,4.32,4.32,0,0,1,3.44,1.48v-6.43h2.11v17.53h-1.94l-.1-1.33a4.29,4.29,0,0,1-3.53,1.55,4.22,4.22,0,0,1-3.5-1.75,7.32,7.32,0,0,1-1.35-4.59Zm2.11.24a5.49,5.49,0,0,0,.87,3.29,2.79,2.79,0,0,0,2.39,1.18,3.09,3.09,0,0,0,2.94-1.8v-5.67a3.09,3.09,0,0,0-2.91-1.75,2.81,2.81,0,0,0-2.42,1.2A6,6,0,0,0,166.85,202.24Z"/><path class="cls-4" d="M183.56,208.5a5.42,5.42,0,0,1-4.09-1.64,6.13,6.13,0,0,1-1.57-4.42v-.38a7.35,7.35,0,0,1,.7-3.28,5.42,5.42,0,0,1,2-2.26,4.88,4.88,0,0,1,2.73-.82,4.63,4.63,0,0,1,3.75,1.59,6.85,6.85,0,0,1,1.33,4.54v.88H180a4.4,4.4,0,0,0,1.06,2.95,3.37,3.37,0,0,0,2.6,1.12,3.64,3.64,0,0,0,1.9-.46,4.65,4.65,0,0,0,1.35-1.2l1.29,1A5.17,5.17,0,0,1,183.56,208.5Zm-.27-11.06a2.81,2.81,0,0,0-2.14.93,4.43,4.43,0,0,0-1.07,2.6h6.18v-.16a4,4,0,0,0-.87-2.49A2.63,2.63,0,0,0,183.29,197.44Z"/><path class="cls-4" d="M104.08,216.66l5.43,13.56L115,216.66h2.84v16.62H115.6v-6.47l.2-7-5.45,13.46h-1.68l-5.44-13.42.21,6.95v6.47h-2.19V216.66Z"/><path class="cls-4" d="M126.45,233.5a5.42,5.42,0,0,1-4.09-1.64,6.13,6.13,0,0,1-1.57-4.42v-.38a7.35,7.35,0,0,1,.7-3.28,5.42,5.42,0,0,1,2-2.26,4.89,4.89,0,0,1,2.74-.82,4.62,4.62,0,0,1,3.74,1.59,6.85,6.85,0,0,1,1.33,4.54v.88H122.9a4.41,4.41,0,0,0,1.07,2.95,3.33,3.33,0,0,0,2.59,1.12,3.64,3.64,0,0,0,1.9-.46,4.65,4.65,0,0,0,1.35-1.2l1.29,1A5.17,5.17,0,0,1,126.45,233.5Zm-.26-11.06a2.82,2.82,0,0,0-2.15.93A4.43,4.43,0,0,0,123,226h6.18v-.16a4.05,4.05,0,0,0-.86-2.49A2.65,2.65,0,0,0,126.19,222.44Zm1-6.69h2.56l-3.06,3.35H125Z"/><path class="cls-4" d="M137.85,225.44l2.74-4.51h2.46l-4,6.1,4.17,6.25h-2.44l-2.86-4.63L135,233.28h-2.45l4.16-6.25-4-6.1h2.44Z"/><path class="cls-4" d="M145.3,217.65a1.23,1.23,0,0,1,.31-.86,1.17,1.17,0,0,1,.93-.36,1.19,1.19,0,0,1,.94.36,1.24,1.24,0,0,1,.32.86,1.14,1.14,0,0,1-1.26,1.2,1.19,1.19,0,0,1-.93-.34A1.21,1.21,0,0,1,145.3,217.65Zm2.28,15.63h-2.11V220.93h2.11Z"/><path class="cls-4" d="M155.91,231.78a3.09,3.09,0,0,0,2-.68,2.42,2.42,0,0,0,.93-1.71h2a3.8,3.8,0,0,1-.73,2,4.81,4.81,0,0,1-1.8,1.53,5.19,5.19,0,0,1-2.38.57,5.09,5.09,0,0,1-4-1.68,6.72,6.72,0,0,1-1.49-4.6v-.36a7.41,7.41,0,0,1,.66-3.2,5.07,5.07,0,0,1,1.9-2.18,5.41,5.41,0,0,1,2.93-.78,5,5,0,0,1,3.45,1.24,4.44,4.44,0,0,1,1.47,3.23h-2a2.91,2.91,0,0,0-.9-2,2.82,2.82,0,0,0-2-.77,3,3,0,0,0-2.49,1.15,5.46,5.46,0,0,0-.89,3.35v.4a5.39,5.39,0,0,0,.88,3.29A3,3,0,0,0,155.91,231.78Z"/><path class="cls-4" d="M162.63,227a7.27,7.27,0,0,1,.72-3.27,5.25,5.25,0,0,1,2-2.23,5.38,5.38,0,0,1,2.91-.79,5.2,5.2,0,0,1,4.08,1.75,6.69,6.69,0,0,1,1.55,4.64v.15a7.33,7.33,0,0,1-.69,3.23,5.24,5.24,0,0,1-2,2.24,5.5,5.5,0,0,1-3,.79,5.21,5.21,0,0,1-4.07-1.74,6.7,6.7,0,0,1-1.56-4.62Zm2.13.25a5.26,5.26,0,0,0,1,3.3,3.24,3.24,0,0,0,5.11,0,5.79,5.79,0,0,0,.94-3.53,5.27,5.27,0,0,0-1-3.29,3.07,3.07,0,0,0-2.56-1.26,3,3,0,0,0-2.52,1.24A5.74,5.74,0,0,0,164.76,227.24Z"/><path id="CDMX" class="cls-5" d="M167.19,171.1h-7.76l-2.39.59-1.19,1.79-1.79,2.39-1.79,1.2-1.8-.6-3.58-2.39-3.58-2.39-3.58-1.19-3.58-.6-6-.59-6-1.2-6.57-1.19-6.56-2.39-4.18-4.18-1.2-1.19-1.19-1.2-1.79-3-.6-3-.59-3.58.59-4.18v-.59l-.59-.6-.6-.6H99.74L98,141.25l-.6-1.79,1.19-1.79,1.2-1.79v-1.2l-1.2-1.19L98,129.31l1.19-4.18,2.39-4.18.59-4.18,3.59.6,3.58.6,2.39-1.2,1.79-3.58.59-1.79,1.79-3,2.39-3.58,2.39-3,2.39-3,3-4.18.6-1.2,1.19-.59,1.2-.6,1.19-.6L132,90.51l.6-1.2-1.2-1.79-1.79-.59,1.79-1.79V81l1.79-1.79,1.8-1.79L137.34,75l1.79,1.19,1.2,1.2,1.19,1.79.6,1.19v3l.6,3,1.19,2.39,1.19,1.19,2.39,1.2.6,1.79.6,1.79.59,1.19,1.79,3,1.2,3,1.19,1.79-.6,1.79-1.19,1.2-1.79,1.19.6,1.19,1.79,1.8-3,3,3,2.39,3,1.79,4.18,1.79,3,1.79,1.2,1.19,1.79,3,1.19,1.79,1.2,4.18.59,2.39v5.37l-1.19,4.77v4.18l.6,3.58,3,6,1.2,3v1.19l-.6,2.39-1.2,2.39-3,4.18Z"/><path class="cls-1" d="M94.07,42.29a3.19,3.19,0,0,0,.53-1.36A1.53,1.53,0,0,0,94,39.62c-.42-.31-.74-.36-1.12.11l.29.08,0,.12a11.22,11.22,0,0,1-1.65-.34,3.48,3.48,0,0,0-2.58.07,8,8,0,0,1-2.47.61,5.56,5.56,0,0,0-2.64.84,1.41,1.41,0,0,0-.5.63A7.05,7.05,0,0,0,83,44.59a.88.88,0,0,1-.2.58,1.09,1.09,0,0,0-.5,1c0,.7-.43,1-.89,1.37s-.69.41-1,.64a4.27,4.27,0,0,0-.47.48h0l-1,.48h0a3.35,3.35,0,0,0-3,.34,1.34,1.34,0,0,1-.5.22c-.88.24-1.85-.18-2.71.52a3.91,3.91,0,0,1-1.73.43.65.65,0,0,1-.53-.16,3.25,3.25,0,0,0-1.32-1.22,3.61,3.61,0,0,0-1.47-.42,9,9,0,0,1-1-.11c-.28-.42-.51-.79-.76-1.15-.34-.51-.85-.94-.93-1.61A3.42,3.42,0,0,0,63.75,44a7.79,7.79,0,0,1-1.91-3.09,1,1,0,0,1,0-.63.74.74,0,0,0-.2-1,2.81,2.81,0,0,1-1.07-1.9c0-.32-.17-.63-.2-1a2.39,2.39,0,0,1,.05-.7c.06-.45.16-.9.22-1.35,0-.23,0-.47,0-.7.08-1.05.14-2.11.28-3.16A10.11,10.11,0,0,1,62,26.73a7.55,7.55,0,0,0,.5-1.59,1.27,1.27,0,0,0,0-.43,1.36,1.36,0,0,0-.51.11.46.46,0,0,1-.67-.05,1.67,1.67,0,0,0-1.24-.42,4.23,4.23,0,0,1-1.12-.25c-.64-.26-1.25-.61-1.9-.86a1,1,0,0,1-.65-.52c-.27-.58-.59-1.15-.88-1.73a1.36,1.36,0,0,1,0-.36c-.05-.42-.08-.85-.17-1.26A1.18,1.18,0,0,0,55,18.9c-.3-.32-.62-.62-.91-.94s-.6-.7-.89-1.06a1.4,1.4,0,0,1-.28-.36c-.25-.53-.46-1.09-.73-1.61a4.42,4.42,0,0,0-1.45-2.16c-.31-.2-.5-.6-.81-.79s-.45-.69-1-.7A20.29,20.29,0,0,1,46.7,11a.67.67,0,0,0-.31,0,4.68,4.68,0,0,0-.64.3,1.59,1.59,0,0,0-.57.48,6,6,0,0,0-.47,1.21,1.06,1.06,0,0,1-1.82.66c-.4-.28-.88-.45-1.31-.69a7.71,7.71,0,0,1-.77-.49,4.71,4.71,0,0,0-.45-.33,2.06,2.06,0,0,1-1.1-1.78,4.26,4.26,0,0,0-.93-2.12c-.28-.37-.82-.54-1.19-.86s-.93-.91-1.41-1.35c-.25-.23-.53-.43-.78-.65a2.62,2.62,0,0,1-.66-.67,1,1,0,0,0-1-.64c-1.34,0-2.68,0-4,0-1.15,0-1-.1-1,1,0,.47-.13.63-.61.62-2.54,0-5.08,0-7.62,0a2.57,2.57,0,0,1-.83-.12L8.77,1.84C8,1.57,8,1.56,8.18.78a4.09,4.09,0,0,0-.5,0l-6.47.58c-.52,0-.59.19-.36.67a2.8,2.8,0,0,0,.3.46L1.44,3a3,3,0,0,0,.34.57c.28.31.51.6.35,1.06-.1.31.06.54.29.78.4.41.87.82.75,1.52,0,.09.1.24.19.32.46.4.89.78.69,1.5,0,.15.13.52.22.53.46,0,.51.33.49.65a2.44,2.44,0,0,0,.52,1.65,7.29,7.29,0,0,0,1.65,1.16,4.11,4.11,0,0,1,.73.46c.82.86,1.61,1.74,2.39,2.63a.49.49,0,0,1,.09.39c-.14.53,0,1.14-.54,1.55-.06.06,0,.2-.08.31s-.22,0-.29.07a1.18,1.18,0,0,1-1.12.12,1.71,1.71,0,0,0-.5-.1,2.64,2.64,0,0,0-.46.13,2.59,2.59,0,0,0,.3.48c.51.5,1.33.7,1.47,1.56a.28.28,0,0,0,.16.16,7.17,7.17,0,0,0,1.36.73,1.36,1.36,0,0,1,.78.58c.19.27.4.56.82.19s1,.05,1.2.38a3,3,0,0,0,.43.52c.59.71,1.61.82,2.15,1.64a3.36,3.36,0,0,1,.33,2.66c-.22.49-.36,1-.56,1.61a5.24,5.24,0,0,0,.71.1c.39,0,.69.12.74.58l-.39.23.81.64.12-.1-.18-.57a.85.85,0,0,1,.27.13c1,.9,2.33,1.51,3.18,2.64a.89.89,0,0,0,.35.21,1.75,1.75,0,0,1,1,1.35,5.7,5.7,0,0,0,.22.81c.21.49.53.55.95.23.24-.19.5-.36.76-.53a1.15,1.15,0,0,0,0-1.86,1.14,1.14,0,0,1-.37-.49,6.73,6.73,0,0,0-.43-.94,3.48,3.48,0,0,0-.73-.57l-.8-.64-.12.07.1.79h0l-.45-.21a1.37,1.37,0,0,1-.66-1.56A1,1,0,0,0,20.46,28,5.64,5.64,0,0,1,19.9,27a3.45,3.45,0,0,0-.39-.82,2.24,2.24,0,0,1-.78-1.7.92.92,0,0,0-.07-.4c-.19-.53-.39-1.05-.59-1.57s-.47-1-1.14-1c-.09,0-.26-.25-.24-.35.06-.34-.09-.48-.37-.6-.12,0-.17-.23-.27-.35-.34-.41-.31-1.11-1-1.31a1.17,1.17,0,0,1-.81-1.09c-.08-.52-.18-1-.31-1.55,0-.13-.25-.22-.37-.33s-.4-.24-.43-.39c-.12-.75-.73-1-1.25-1.32a3.79,3.79,0,0,0-1-1.77c-.62-.6-1.46-.93-2-1.67a2.3,2.3,0,0,1-.48-1.27c0-.69-.13-1.38-.2-2.07a.45.45,0,0,0-.12-.25C7.5,6.48,7.81,5.65,8,4.87c.1-.49.46-.54.87-.24a3.27,3.27,0,0,0,.78.51,1.92,1.92,0,0,0,.83.06c.14,0,.3-.22.42-.19s.45.17.49.32c.18.68.72.73,1.28.88s.71.33.52.89a1.8,1.8,0,0,0,.43,1.77,2.27,2.27,0,0,1,.55,1.19c0,.85.58,1.37.91,2,.1.2.12.43.21.63a1,1,0,0,0,.27.35.91.91,0,0,0,.3.13l.08.13c-1.19-.14-.84.79-1.14,1.37.29.12.58.34.79.28s.37-.38.61-.65c.18.24.36.5.55.74s.53.88.91,1.09a2.87,2.87,0,0,1,1,1,3.31,3.31,0,0,0,.77.72,2.35,2.35,0,0,0,.65.27c.18-.07.42-.14.55-.05a.82.82,0,0,1,.21.51c0,.21-.06.46,0,.64s.39.58.54.89a.94.94,0,0,0,.86.63c.63,0,.75.35.84.85a.7.7,0,0,0,.91.64.78.78,0,0,1,.9.55,1.63,1.63,0,0,1,0,.95,2.17,2.17,0,0,1-.32.57,1.08,1.08,0,0,0,.21,1.21,4.61,4.61,0,0,1,.6.47,1.44,1.44,0,0,0,1.31.66.57.57,0,0,1,.21.1l.75.46,1,.56-.07.12L28,27.64a3.36,3.36,0,0,0,2.46,2.3c-.37.38,0,.52.2.71s.42.31.62.49a10.65,10.65,0,0,1,1,.93c.34.39.64.83,1,1.25.09.12.19.23.29.35a17,17,0,0,0,1.52,1.75,3.09,3.09,0,0,1,1.06,2.2,3,3,0,0,0,.25,1c.25.54.49,1.12,1.11,1.28a4.52,4.52,0,0,0,0,.68,1,1,0,0,1-.34,1,5.46,5.46,0,0,0-.57.78,3,3,0,0,1,.47.12c.13.08.24.19.36.28-.1.1-.18.24-.3.3a4.71,4.71,0,0,1-.54.12c-.48.12-.57.37-.28.77a2.67,2.67,0,0,1,.22.41,6.86,6.86,0,0,0,.45.95,14.44,14.44,0,0,0,1,1.3,2.51,2.51,0,0,0,.67.67,17.49,17.49,0,0,1,2.86,1.46A12.72,12.72,0,0,1,42.68,50a2,2,0,0,0,.62.5,17.32,17.32,0,0,0,1.71.6c.58.18,1.17.34,1.75.5a.36.36,0,0,0,.27,0c.49-.29.79,0,1.1.31a10.27,10.27,0,0,0,.77.71c.48.37,1,.71,1.47,1a2.14,2.14,0,0,0,.45.24c.57.21,1.15.38,1.71.61s1.09.52,1.65.76a7.35,7.35,0,0,0,1,.38c1,.29,2.08.22,2.84,1.09a1.45,1.45,0,0,0,.45.22c.57.25,1.13.51,1.7.74a5.36,5.36,0,0,0,.78.23,6,6,0,0,1,1.83.47,3.12,3.12,0,0,0,2.54.41,13.5,13.5,0,0,0,1.82-.72c.37-.17.71-.4,1.08-.58a6.49,6.49,0,0,1,.74-.26l.58-.18-.4-.28.26-.2.79.25-.22.23,1.9.63c1.64.53,2.69,1.85,3.91,2.94.65.57,1.24,1.19,1.86,1.79l.09,0c.08-.69.57-1.33.2-2.07a.74.74,0,0,1,0-.56c.3-.57.66-1.1,1-1.67a.78.78,0,0,1,.81-.48c1,0,2,0,3,0,.16,0,.41-.11.45-.23a5.15,5.15,0,0,0,.12-1s0,0-.07,0c-.42-.13-.6-.48-.8-.84a.82.82,0,0,0-.4-.36,4.22,4.22,0,0,1-1.53-1.35c1.06-.07,1.06-.07,1.06-1.13a.33.33,0,0,0,0-.1c-.07-.48.15-.61.62-.61,1.49,0,3,0,4.49,0,.22,0,.47.06.53-.29s.29-.3.5-.15.43.12.57-.11c.24-.39.45-.8.67-1.19-.11.14-.25.28-.35.43.1-.15.24-.29.35-.43h0l0,0h0c.14-.14.29-.41.43-.4.47,0,.66-.25.83-.6a4.94,4.94,0,0,1,.3-.49l.12,0a2.88,2.88,0,0,1-.1.51c-.12.27-.1.47.18.62a2.69,2.69,0,0,1,.33.26l.06.06h0c.13.4.24.1.28,0,.16-.43.29-.88.43-1.32.18-.62.36-1.24.55-1.91H91.8c.35-.24.82-.23.74-.74l-.78-.14a3.78,3.78,0,0,0,.66-1.17,3.3,3.3,0,0,1,1.08-2A2.72,2.72,0,0,0,94.07,42.29Z"/><path class="cls-1" d="M93.71,43.65a.29.29,0,0,0,.12.23.25.25,0,0,0,.24-.06c.21-.27.4-.56.64-.9C94,42.82,93.65,43.12,93.71,43.65Z"/><path id="MEX2727" class="cls-6" d="M56.93,47.73h-.16l0,0,0,0,0,0h0l-.06,0-.06,0-.06,0h-.15l-.1,0h-.11l-.11,0-.07-.07v0l0,0,0-.05v-.18h0l0,0v0l0,0,0,0h0l0,0v-.07l0-.07,0-.07v-.07H56l0,0,0-.06v0l0,0,0-.05,0,0,0-.05,0-.07v0h.06l0,0v0l0,0h0l0,0v-.07l0,0,0,0,0,0,0,0,0,0,0,0v.12l0,0,0,0,0,0v.08l0,0,0,.05,0,0v0l0,0,0,0h0l0,0,0,0,0,0,.05,0,.07,0,0,0,0,0,0,.05v0l0,.07v.12l0,.08v.13l.05.1,0,0v.06l0,0,0,.06Z"/></g></svg>