<svg xmlns="http://www.w3.org/2000/svg" viewBox="0 0 306.04 276.52"><defs><style>.cls-1{fill:#fef6fc;}.cls-1,.cls-2,.cls-3{stroke:#6d4162;stroke-miterlimit:10;stroke-width:0.78px;}.cls-2,.cls-3{fill:none;}.cls-3{isolation:isolate;}.cls-4{fill:#713972;}.cls-5{fill:#b25fac;}.cls-6{fill:#f230b9;}</style></defs><g id="estados"><circle class="cls-1" cx="136.96" cy="151.48" r="97.03"/><circle class="cls-2" cx="136.96" cy="151.48" r="104.09"/><polyline class="cls-3" points="213.34 81.1 271.32 41.25 305.78 41.25"/><polyline class="cls-3" points="214.19 220.92 271.32 255.56 305.78 255.56"/><polyline class="cls-3" points="239.72 131.27 272.01 116.16 306.47 116.16"/><polyline class="cls-3" points="238.56 172.75 271 186.07 305.46 186.07"/><path class="cls-4" d="M95.4,213.89A6.08,6.08,0,0,1,93.46,218a6.34,6.34,0,0,1-4.35,1.44,5.86,5.86,0,0,1-4.72-2.11,8.48,8.48,0,0,1-1.78-5.65V210a9.53,9.53,0,0,1,.83-4.08,6.11,6.11,0,0,1,2.34-2.69,6.56,6.56,0,0,1,3.52-.95,6,6,0,0,1,4.24,1.48,6.15,6.15,0,0,1,1.86,4.09H93.2A4.74,4.74,0,0,0,92,205a3.71,3.71,0,0,0-2.66-.89A3.9,3.9,0,0,0,86,205.66a7.11,7.11,0,0,0-1.2,4.42v1.61A7.39,7.39,0,0,0,85.94,216a3.67,3.67,0,0,0,3.17,1.59,4.23,4.23,0,0,0,2.8-.82,4.57,4.57,0,0,0,1.29-2.88Z"/><path class="cls-4" d="M100.17,208.31a4.51,4.51,0,0,1,3.66-1.73q3.92,0,3.94,4.42v8.16h-2.11V211a2.83,2.83,0,0,0-.61-2,2.46,2.46,0,0,0-1.86-.64,3.1,3.1,0,0,0-1.81.55,3.86,3.86,0,0,0-1.21,1.44v8.8H98.06V201.63h2.11Z"/><path class="cls-4" d="M111,203.54a1.24,1.24,0,0,1,.31-.87,1.17,1.17,0,0,1,.93-.36,1.21,1.21,0,0,1,.94.36,1.24,1.24,0,0,1,.32.87,1.21,1.21,0,0,1-.32.85,1.23,1.23,0,0,1-.94.34,1.12,1.12,0,0,1-1.24-1.19Zm2.28,15.62h-2.11V206.81h2.11Z"/><path class="cls-4" d="M118.72,208.31a4.48,4.48,0,0,1,3.65-1.73c2.61,0,3.92,1.47,3.95,4.42v8.16h-2.11V211a2.87,2.87,0,0,0-.61-2,2.49,2.49,0,0,0-1.87-.64,3.07,3.07,0,0,0-1.8.55,3.77,3.77,0,0,0-1.21,1.44v8.8h-2.11V201.63h2.11Z"/><path class="cls-4" d="M137.1,217.94a4.51,4.51,0,0,1-3.62,1.45,3.85,3.85,0,0,1-3-1.15,5,5,0,0,1-1-3.4v-8h2.11v8c0,1.87.76,2.8,2.29,2.8a3.15,3.15,0,0,0,3.21-1.8v-9h2.12v12.35h-2Z"/><path class="cls-4" d="M150,219.16a4.06,4.06,0,0,1-.3-1.3,4.71,4.71,0,0,1-3.52,1.53,4.35,4.35,0,0,1-3-1,3.33,3.33,0,0,1-1.17-2.62,3.5,3.5,0,0,1,1.46-3,7,7,0,0,1,4.13-1.07h2.05v-1a2.37,2.37,0,0,0-.66-1.76,2.64,2.64,0,0,0-2-.66,3.07,3.07,0,0,0-1.89.57,1.69,1.69,0,0,0-.77,1.38h-2.12a2.89,2.89,0,0,1,.66-1.78,4.43,4.43,0,0,1,1.78-1.37,6.06,6.06,0,0,1,2.47-.5,4.89,4.89,0,0,1,3.34,1.07,3.87,3.87,0,0,1,1.26,2.94v5.68a7,7,0,0,0,.43,2.71v.18Zm-3.51-1.61a3.72,3.72,0,0,0,1.88-.51,3.07,3.07,0,0,0,1.29-1.34v-2.53H148c-2.59,0-3.88.75-3.88,2.27a1.92,1.92,0,0,0,.66,1.55A2.56,2.56,0,0,0,146.48,217.55Z"/><path class="cls-4" d="M157.19,208.31a4.48,4.48,0,0,1,3.65-1.73c2.61,0,3.92,1.47,3.95,4.42v8.16h-2.12V211a2.83,2.83,0,0,0-.61-2,2.46,2.46,0,0,0-1.86-.64,3,3,0,0,0-1.8.55,3.69,3.69,0,0,0-1.21,1.44v8.8h-2.12V201.63h2.12Z"/><path class="cls-4" d="M175.57,217.94a4.51,4.51,0,0,1-3.62,1.45,3.84,3.84,0,0,1-3-1.15,5,5,0,0,1-1-3.4v-8H170v8c0,1.87.76,2.8,2.28,2.8a3.16,3.16,0,0,0,3.22-1.8v-9h2.11v12.35h-2Z"/><path class="cls-4" d="M188.45,219.16a4.42,4.42,0,0,1-.29-1.3,4.72,4.72,0,0,1-3.52,1.53,4.34,4.34,0,0,1-3-1,3.33,3.33,0,0,1-1.17-2.62,3.5,3.5,0,0,1,1.46-3,7,7,0,0,1,4.13-1.07h2.05v-1a2.37,2.37,0,0,0-.66-1.76,2.64,2.64,0,0,0-2-.66,3.1,3.1,0,0,0-1.9.57,1.67,1.67,0,0,0-.76,1.38h-2.12a2.94,2.94,0,0,1,.65-1.78,4.5,4.5,0,0,1,1.78-1.37,6.09,6.09,0,0,1,2.47-.5,4.9,4.9,0,0,1,3.35,1.07,3.86,3.86,0,0,1,1.25,2.94v5.68a7,7,0,0,0,.44,2.71v.18Zm-3.5-1.61a3.72,3.72,0,0,0,1.88-.51,3.07,3.07,0,0,0,1.29-1.34v-2.53h-1.65c-2.59,0-3.88.75-3.88,2.27a1.92,1.92,0,0,0,.66,1.55A2.56,2.56,0,0,0,185,217.55Z"/><path id="CHIH" class="cls-5" d="M176.28,150.72c1.59,7.46,3.72,15.78,5.44,23.21-1.48-.59-4-1.72-5.49-2.3a3.32,3.32,0,0,0-1.18-.1c-2.28-.15-3.15.66-4.3,2.51a57.74,57.74,0,0,1-4.05,5.38c-1.06-.2-1.82-1.37-2.72-1.9a8.25,8.25,0,0,0-4.25-1.07c-.24.19-.4.6-.61.82l-.31-.16a7.77,7.77,0,0,0-1.18-1.54c-1.08.4-2.28,1.4-3.38,1.7-1-.61-3.06-1.63-4.05-2.31-.29-.27-.63-.7-.92-1a5.08,5.08,0,0,0-.72-1.08,3.64,3.64,0,0,1-2.77-.26,32.64,32.64,0,0,0-2.87-2.25,13.71,13.71,0,0,0-1,1.84c-.16-.2-.34-.51-.62-.56l-.25.1c-.46.73-.18,1.75-.31,2.56-.22.31-.69.51-.92.82-.19.76.75,1.62.41,2.36-1,.69-2.85.69-3.8,1.49-.33,1.2.89,2.29.93,3.48a4.77,4.77,0,0,1-.57,2.1c-.27.32-.75.26-1.13.26l-.51.31c-.44,1-.21,2.72-.36,3.79a1,1,0,0,1-.41.72c-.8.72-1.89,1.66-2.61,2.46a1.88,1.88,0,0,1-1.38.1l-2.11-.26c-.6-.68-1.62-1-2.25-1.58a7.08,7.08,0,0,0-1.23-1.49,8.57,8.57,0,0,0-1.74-1c-.13-.53,0-1.48-.72-1.58l-.15-.16a9.38,9.38,0,0,0-.77-2.51c-.47-.54-3.48-.9-4.15-1.13a21.39,21.39,0,0,1-2.57-.61,29.48,29.48,0,0,1-.61-4c-.2-1.24-.09-2.79-.62-4a14.82,14.82,0,0,1-2.61-3.63,4.59,4.59,0,0,0-.1-1.34c-1.59-.69-2.91-.23-3.74-2.2a1.65,1.65,0,0,0-1.39-.15l-.36-.16-.2-.36a10.72,10.72,0,0,1-1.49,1.8c-.2-.29-.29-.76-.61-.93-1.19.71-2-1.68-2.56-2.4-.88-1-.18-1.87.41-2.72a6,6,0,0,0-.47-1.49c0-.77.44-1.61.11-2.35-.13-.34-.58-.57-.87-.72a7.87,7.87,0,0,1-1.08-1.08,1.21,1.21,0,0,1,.26-1c-.63-.58-2.24-1.58-2.1-2.62-.35-.59-1.47-.9-2-1.38-.68-1.65-1.63-3.9-2.26-5.58a2.33,2.33,0,0,1,.77-.88c.27-.18.55-.58.87-.66,2.15-.55,4.59.33,6.67.82a12.3,12.3,0,0,0,1.58-1.49,4.73,4.73,0,0,0-.41-1.59c-.42-1.1-.93-2.57-1.28-3.69a6.94,6.94,0,0,1,.57-2.3c-.7-3.65-1-8.61-1.54-12.35l1.38-.06.1-.1c.29-3.31.63-7,.88-10.35a2.52,2.52,0,0,1,.35-1.18c0-.9-.14-2.17-.2-3.07-.14-1.63-.31-3.8-.46-5.44a1.69,1.69,0,0,0-.62-1.33c-.21-.15-.62-.49-.82-.66a10.42,10.42,0,0,0-1.53-.57A31.21,31.21,0,0,1,94.29,97c.23-3.13.81-6.54,1.18-9.68h12.14V78.82c6.58,0,13.47,0,20,.05h5.84c.33,0,1.8-.19,1.95.31.47.09,1.15-.08,1.59.2,1.07.81,1.42,2.32,1.89,3.49.24.29.91.92.93,1.33s.53.49.71.62c0,0,1.51.72,2.05,1.07a2.35,2.35,0,0,1,1.95,1.49,1.14,1.14,0,0,1,.46.31s1.49,1.53,1.85,1.84a1.76,1.76,0,0,0,.25.62c.29.19,1.36.83,1.64,1a2.57,2.57,0,0,0,1,.87c.52.28.51,1.06.82,1.49.32.06.78.62,1,.87a10.77,10.77,0,0,1,2.1,2c.41,0,2.37.84,2.46.82s1.28.92,1.28.92a14.74,14.74,0,0,1,2.21,1.79,2.25,2.25,0,0,0,.25.77,15.88,15.88,0,0,1,1.64,2.1c.05,0,.28.55.21.67s.19,1,.2,1.18a3,3,0,0,0,.57.56,3.86,3.86,0,0,0,.51.82c.19.41.4,1,.61,1.38.49.13,1.13,2,1.13,2.41a5,5,0,0,0-.31,2,6.87,6.87,0,0,1,.31,1.18c-.12.29.83,1.79.92,2.36.15.37.62.66.88,1a6,6,0,0,0,.82,2.51c.25.19,1,.56,1.07.87.05.13,1.68,1.24,1.85,1.54a4.62,4.62,0,0,1,1.12-.05,15.59,15.59,0,0,0,1.7,2.05,2.71,2.71,0,0,0,.92.56,4.38,4.38,0,0,0,1.38,1.23,14.94,14.94,0,0,0,2.51.72c.37,0,1.41-.11,1.54.41a12.43,12.43,0,0,0,1.08,1.33,4.43,4.43,0,0,0,2.35.57,10.85,10.85,0,0,1,1.28,1.38,9.86,9.86,0,0,0,2,.77l.62.25S179.88,144.08,176.28,150.72Z"/><path class="cls-1" d="M94.07,42.29a3.19,3.19,0,0,0,.53-1.36A1.53,1.53,0,0,0,94,39.62c-.42-.31-.74-.36-1.12.11l.29.08,0,.12a11.22,11.22,0,0,1-1.65-.34,3.48,3.48,0,0,0-2.58.07,8,8,0,0,1-2.47.61,5.56,5.56,0,0,0-2.64.84,1.41,1.41,0,0,0-.5.63A7.05,7.05,0,0,0,83,44.59a.88.88,0,0,1-.2.58,1.09,1.09,0,0,0-.5,1c0,.7-.43,1-.89,1.37s-.69.41-1,.64a4.27,4.27,0,0,0-.47.48h0l-1,.48h0a3.35,3.35,0,0,0-3,.34,1.34,1.34,0,0,1-.5.22c-.88.24-1.85-.18-2.71.52a3.91,3.91,0,0,1-1.73.43.65.65,0,0,1-.53-.16,3.25,3.25,0,0,0-1.32-1.22,3.61,3.61,0,0,0-1.47-.42,9,9,0,0,1-1-.11c-.28-.42-.51-.79-.76-1.15-.34-.51-.85-.94-.93-1.61A3.42,3.42,0,0,0,63.75,44a7.79,7.79,0,0,1-1.91-3.09,1,1,0,0,1,0-.63.74.74,0,0,0-.2-1,2.81,2.81,0,0,1-1.07-1.9c0-.32-.17-.63-.2-1a2.39,2.39,0,0,1,.05-.7c.06-.45.16-.9.22-1.35,0-.23,0-.47,0-.7.08-1.05.14-2.11.28-3.16A10.11,10.11,0,0,1,62,26.73a7.55,7.55,0,0,0,.5-1.59,1.27,1.27,0,0,0,0-.43,1.36,1.36,0,0,0-.51.11.46.46,0,0,1-.67-.05,1.67,1.67,0,0,0-1.24-.42,4.23,4.23,0,0,1-1.12-.25c-.64-.26-1.25-.61-1.9-.86a1,1,0,0,1-.65-.52c-.27-.58-.59-1.15-.88-1.73a1.36,1.36,0,0,1,0-.36c-.05-.42-.08-.85-.17-1.26A1.18,1.18,0,0,0,55,18.9c-.3-.32-.62-.62-.91-.94s-.6-.7-.89-1.06a1.4,1.4,0,0,1-.28-.36c-.25-.53-.46-1.09-.73-1.61a4.42,4.42,0,0,0-1.45-2.16c-.31-.2-.5-.6-.81-.79s-.45-.69-1-.7A20.29,20.29,0,0,1,46.7,11a.67.67,0,0,0-.31,0,4.68,4.68,0,0,0-.64.3,1.59,1.59,0,0,0-.57.48,6,6,0,0,0-.47,1.21,1.06,1.06,0,0,1-1.82.66c-.4-.28-.88-.45-1.31-.69a7.71,7.71,0,0,1-.77-.49,4.71,4.71,0,0,0-.45-.33,2.06,2.06,0,0,1-1.1-1.78,4.26,4.26,0,0,0-.93-2.12c-.28-.37-.82-.54-1.19-.86s-.93-.91-1.41-1.35c-.25-.23-.53-.43-.78-.65a2.62,2.62,0,0,1-.66-.67,1,1,0,0,0-1-.64c-1.34,0-2.68,0-4,0-1.15,0-1-.1-1,1,0,.47-.13.63-.61.62-2.54,0-5.08,0-7.62,0a2.57,2.57,0,0,1-.83-.12L8.77,1.84C8,1.57,8,1.56,8.18.78a4.09,4.09,0,0,0-.5,0l-6.47.58c-.52,0-.59.19-.36.67a2.8,2.8,0,0,0,.3.46L1.44,3a3,3,0,0,0,.34.57c.28.31.51.6.35,1.06-.1.31.06.54.29.78.4.41.87.82.75,1.52,0,.09.1.24.19.32.46.4.89.78.69,1.5,0,.15.13.52.22.53.46,0,.51.33.49.65a2.44,2.44,0,0,0,.52,1.65,7.29,7.29,0,0,0,1.65,1.16,4.11,4.11,0,0,1,.73.46c.82.86,1.61,1.74,2.39,2.63a.49.49,0,0,1,.09.39c-.14.53,0,1.14-.54,1.55-.06.06,0,.2-.08.31s-.22,0-.29.07a1.18,1.18,0,0,1-1.12.12,1.71,1.71,0,0,0-.5-.1,2.64,2.64,0,0,0-.46.13,2.59,2.59,0,0,0,.3.48c.51.5,1.33.7,1.47,1.56a.28.28,0,0,0,.16.16,7.17,7.17,0,0,0,1.36.73,1.36,1.36,0,0,1,.78.58c.19.27.4.56.82.19s1,.05,1.2.38a3,3,0,0,0,.43.52c.59.71,1.61.82,2.15,1.64a3.36,3.36,0,0,1,.33,2.66c-.22.49-.36,1-.56,1.61a5.24,5.24,0,0,0,.71.1c.39,0,.69.12.74.58l-.39.23.81.64.12-.1-.18-.57a.85.85,0,0,1,.27.13c1,.9,2.33,1.51,3.18,2.64a.89.89,0,0,0,.35.21,1.75,1.75,0,0,1,1,1.35,5.7,5.7,0,0,0,.22.81c.21.49.53.55.95.23.24-.19.5-.36.76-.53a1.15,1.15,0,0,0,0-1.86,1.14,1.14,0,0,1-.37-.49,6.73,6.73,0,0,0-.43-.94,3.48,3.48,0,0,0-.73-.57l-.8-.64-.12.07.1.79h0l-.45-.21a1.37,1.37,0,0,1-.66-1.56A1,1,0,0,0,20.46,28,5.64,5.64,0,0,1,19.9,27a3.45,3.45,0,0,0-.39-.82,2.24,2.24,0,0,1-.78-1.7.92.92,0,0,0-.07-.4c-.19-.53-.39-1.05-.59-1.57s-.47-1-1.14-1c-.09,0-.26-.25-.24-.35.06-.34-.09-.48-.37-.6-.12,0-.17-.23-.27-.35-.34-.41-.31-1.11-1-1.31a1.17,1.17,0,0,1-.81-1.09c-.08-.52-.18-1-.31-1.55,0-.13-.25-.22-.37-.33s-.4-.24-.43-.39c-.12-.75-.73-1-1.25-1.32a3.79,3.79,0,0,0-1-1.77c-.62-.6-1.46-.93-2-1.67a2.3,2.3,0,0,1-.48-1.27c0-.69-.13-1.38-.2-2.07a.45.45,0,0,0-.12-.25C7.5,6.48,7.81,5.65,8,4.87c.1-.49.46-.54.87-.24a3.27,3.27,0,0,0,.78.51,1.92,1.92,0,0,0,.83.06c.14,0,.3-.22.42-.19s.45.17.49.32c.18.68.72.73,1.28.88s.71.33.52.89a1.8,1.8,0,0,0,.43,1.77,2.27,2.27,0,0,1,.55,1.19c0,.85.58,1.37.91,2,.1.2.12.43.21.63a1,1,0,0,0,.27.35.91.91,0,0,0,.3.13l.08.13c-1.19-.14-.84.79-1.14,1.37.29.12.58.34.79.28s.37-.38.61-.65c.18.24.36.5.55.74s.53.88.91,1.09a2.87,2.87,0,0,1,1,1,3.31,3.31,0,0,0,.77.72,2.35,2.35,0,0,0,.65.27c.18-.07.42-.14.55-.05a.82.82,0,0,1,.21.51c0,.21-.06.46,0,.64s.39.58.54.89a.94.94,0,0,0,.86.63c.63,0,.75.35.84.85a.7.7,0,0,0,.91.64.78.78,0,0,1,.9.55,1.63,1.63,0,0,1,0,.95,2.17,2.17,0,0,1-.32.57,1.08,1.08,0,0,0,.21,1.21,4.61,4.61,0,0,1,.6.47,1.44,1.44,0,0,0,1.31.66.57.57,0,0,1,.21.1l.75.46,1,.56-.07.12L28,27.64a3.36,3.36,0,0,0,2.46,2.3c-.37.38,0,.52.2.71s.42.31.62.49a10.65,10.65,0,0,1,1,.93c.34.39.64.83,1,1.25.09.12.19.23.29.35a17,17,0,0,0,1.52,1.75,3.09,3.09,0,0,1,1.06,2.2,3,3,0,0,0,.25,1c.25.54.49,1.12,1.11,1.28a4.52,4.52,0,0,0,0,.68,1,1,0,0,1-.34,1,5.46,5.46,0,0,0-.57.78,3,3,0,0,1,.47.12c.13.08.24.19.36.28-.1.1-.18.24-.3.3a4.71,4.71,0,0,1-.54.12c-.48.12-.57.37-.28.77a2.67,2.67,0,0,1,.22.41,6.86,6.86,0,0,0,.45.95,14.44,14.44,0,0,0,1,1.3,2.51,2.51,0,0,0,.67.67,17.49,17.49,0,0,1,2.86,1.46A12.72,12.72,0,0,1,42.68,50a2,2,0,0,0,.62.5,17.32,17.32,0,0,0,1.71.6c.58.18,1.17.34,1.75.5a.36.36,0,0,0,.27,0c.49-.29.79,0,1.1.31a10.27,10.27,0,0,0,.77.71c.48.37,1,.71,1.47,1a2.14,2.14,0,0,0,.45.24c.57.21,1.15.38,1.71.61s1.09.52,1.65.76a7.35,7.35,0,0,0,1,.38c1,.29,2.08.22,2.84,1.09a1.45,1.45,0,0,0,.45.22c.57.25,1.13.51,1.7.74a5.36,5.36,0,0,0,.78.23,6,6,0,0,1,1.83.47,3.12,3.12,0,0,0,2.54.41,13.5,13.5,0,0,0,1.82-.72c.37-.17.71-.4,1.08-.58a6.49,6.49,0,0,1,.74-.26l.58-.18-.4-.28.26-.2.79.25-.22.23,1.9.63c1.64.53,2.69,1.85,3.91,2.94.65.57,1.24,1.19,1.86,1.79l.09,0c.08-.69.57-1.33.2-2.07a.74.74,0,0,1,0-.56c.3-.57.66-1.1,1-1.67a.78.78,0,0,1,.81-.48c1,0,2,0,3,0,.16,0,.41-.11.45-.23a5.15,5.15,0,0,0,.12-1s0,0-.07,0c-.42-.13-.6-.48-.8-.84a.82.82,0,0,0-.4-.36,4.22,4.22,0,0,1-1.53-1.35c1.06-.07,1.06-.07,1.06-1.13a.33.33,0,0,0,0-.1c-.07-.48.15-.61.62-.61,1.49,0,3,0,4.49,0,.22,0,.47.06.53-.29s.29-.3.5-.15.43.12.57-.11c.24-.39.45-.8.67-1.19-.11.14-.25.28-.35.43.1-.15.24-.29.35-.43h0l0,0h0c.14-.14.29-.41.43-.4.47,0,.66-.25.83-.6a4.94,4.94,0,0,1,.3-.49l.12,0a2.88,2.88,0,0,1-.1.51c-.12.27-.1.47.18.62a2.69,2.69,0,0,1,.33.26l.06.06h0c.13.4.24.1.28,0,.16-.43.29-.88.43-1.32.18-.62.36-1.24.55-1.91H91.8c.35-.24.82-.23.74-.74l-.78-.14a3.78,3.78,0,0,0,.66-1.17,3.3,3.3,0,0,1,1.08-2A2.72,2.72,0,0,0,94.07,42.29Z"/><path class="cls-1" d="M93.71,43.65a.29.29,0,0,0,.12.23.25.25,0,0,0,.24-.06c.21-.27.4-.56.64-.9C94,42.82,93.65,43.12,93.71,43.65Z"/><path id="MEX2709" class="cls-6" d="M43.51,14c-2.51,5-2.21,2.83-1,8.33-1.93-1-1.73-.33-2.87,1.05-.36-.15-.62-.55-1.05-.54-.17-.07-.33-.05-.4.13-.12-.06-.18-.25-.29-.33-.2.08-.43.27-.64.33-.35-.22-.87-.39-1-.79-.11-.09-.31,0-.45,0a7.9,7.9,0,0,1-.68-.5,2.47,2.47,0,0,0-.19.36c-.28-.34-.19.29-.25.43-.32.11,0,.37-.08.58s-.87.09-.71.49.26.66,0,.9c-.19,0-.34.08-.32.28a3.63,3.63,0,0,1,0,.57,2.83,2.83,0,0,1-.4.37.37.37,0,0,1-.43.2c-.11,0-.42,0-.49-.13-.37-.15-.5-.58-.89-.69-.06-.07,0-.21-.09-.29s-.13-.19-.16-.3c0-.46-.78-.36-1.08-.5-.14,0-.35,0-.33-.22a12.39,12.39,0,0,0-.19-1.38,1.49,1.49,0,0,1-.52-.95c-.26-.1-.62-.1-.72-.42-.11-.11-.31.05-.37-.13a1.88,1.88,0,0,1-.28.34c0-.05-.06-.12-.1-.16s-.12,0-.17,0a2.39,2.39,0,0,1-.42-.63c0-.15.09-.26.16-.37s-.14-.32-.06-.48c.17-.39-.57-.44-.34-.79-.11-.11-.43-.3-.4-.5S26,18.05,25.9,18c-.12-.49-.79-1.17,0-1.38a3,3,0,0,1,1.15.16c.13,0,.25-.2.35-.27-.06-.49-.5-1-.22-1.45-.13-.7-.2-1.65-.29-2.36.06,0,.3,0,.29-.07,0-.37.08-.9.1-1.27a6.6,6.6,0,0,0,.07-1.72c-.08-.34.07-.91-.27-1.13a4.11,4.11,0,0,1-1.18-.82,17.84,17.84,0,0,1,.18-2c.43-.11,2.33.42,2.17-.49.08-.44-.26-1.17.47-1,1.75.06,3.62-.12,5.31.11.28.2.26.61.5.82s.49.44.7.45.23.23.33.33c.28.14.39.55.72.64.06.12.22.16.27.28s.18.22.26.34a3,3,0,0,0,.76.57.1.1,0,0,1,.17,0s.11,0,.1.09h0s0,0,.06.06v0c.09.19.37.19.44.38s.18.08.29.29,0,.21.12.26,0,.12,0,.17a5,5,0,0,0,.53.93c0,.48-.05,1.09.35,1.44a1.6,1.6,0,0,0,.16.48A.51.51,0,0,1,40,12a1,1,0,0,1,.31.22c.31-.15.47.37.72.49s.59.39.74.37.38,0,.27.16a3.56,3.56,0,0,0,.73.31c.08.22.37.31.56.42,0-.07.07,0,.09,0l.07,0v0Z"/></g></svg>