<?xml version="1.0" encoding="UTF-8"?><svg id="estados" xmlns="http://www.w3.org/2000/svg" viewBox="0 0 306.04 276.52"><defs><style>.cls-1,.cls-2{fill:#3bb1e6;}.cls-3{fill:#fff;}.cls-4{stroke-width:1.53px;}.cls-4,.cls-2,.cls-5{stroke:#fff;}.cls-4,.cls-5{fill:none;opacity:.67;stroke-miterlimit:10;}.cls-6{fill:#0a2f3a;opacity:.5;}.cls-2{stroke-linecap:round;stroke-linejoin:round;stroke-width:1.37px;}.cls-5{stroke-width:1.67px;}</style></defs><g id="chih-icono"><circle class="cls-6" cx="136.96" cy="151.48" r="97.03"/><circle class="cls-5" cx="136.96" cy="151.48" r="104.09"/><polyline class="cls-4" points="229.53 104.17 271.63 73.79 306.09 73.79"/><polyline class="cls-4" points="229.02 199.66 271.63 220.23 306.09 220.23"/><polyline class="cls-4" points="240.77 150.49 271.63 150.49 306.09 150.49"/><g><path class="cls-1" d="M95.4,213.89c-.21,1.76-.85,3.11-1.95,4.07-1.09,.95-2.54,1.43-4.35,1.43-1.96,0-3.54-.7-4.72-2.11-1.18-1.41-1.77-3.29-1.77-5.65v-1.6c0-1.54,.28-2.9,.83-4.07,.55-1.17,1.33-2.07,2.34-2.7s2.18-.94,3.51-.94c1.76,0,3.18,.49,4.24,1.48,1.07,.99,1.69,2.35,1.86,4.09h-2.2c-.19-1.33-.6-2.29-1.24-2.88-.64-.6-1.52-.89-2.66-.89-1.4,0-2.5,.52-3.29,1.55-.8,1.04-1.19,2.51-1.19,4.42v1.61c0,1.8,.38,3.24,1.13,4.31s1.81,1.6,3.16,1.6c1.22,0,2.15-.28,2.8-.83s1.08-1.51,1.3-2.88h2.2Z"/><path class="cls-1" d="M100.17,208.31c.94-1.15,2.15-1.72,3.65-1.72,2.61,0,3.93,1.47,3.95,4.42v8.16h-2.11v-8.17c0-.89-.21-1.55-.61-1.97-.4-.43-1.02-.64-1.87-.64-.68,0-1.29,.18-1.8,.55-.52,.37-.92,.84-1.21,1.44v8.8h-2.11v-17.53h2.11v6.68Z"/><path class="cls-1" d="M110.95,203.54c0-.34,.1-.63,.31-.87,.21-.24,.52-.35,.93-.35s.72,.12,.94,.35c.21,.24,.32,.53,.32,.87s-.11,.63-.32,.86c-.21,.23-.52,.34-.94,.34s-.72-.11-.93-.34c-.21-.23-.31-.51-.31-.86Zm2.28,15.62h-2.11v-12.35h2.11v12.35Z"/><path class="cls-1" d="M118.72,208.31c.94-1.15,2.15-1.72,3.65-1.72,2.61,0,3.93,1.47,3.95,4.42v8.16h-2.11v-8.17c0-.89-.21-1.55-.61-1.97-.4-.43-1.02-.64-1.87-.64-.68,0-1.29,.18-1.8,.55-.52,.37-.92,.84-1.21,1.44v8.8h-2.11v-17.53h2.11v6.68Z"/><path class="cls-1" d="M137.1,217.94c-.82,.97-2.03,1.45-3.62,1.45-1.32,0-2.32-.38-3.01-1.15-.69-.76-1.04-1.9-1.04-3.4v-8.03h2.11v7.98c0,1.87,.76,2.81,2.28,2.81,1.61,0,2.69-.6,3.22-1.8v-8.98h2.11v12.35h-2.01l-.05-1.22Z"/><path class="cls-1" d="M149.99,219.16c-.12-.24-.22-.68-.3-1.3-.98,1.02-2.15,1.53-3.51,1.53-1.22,0-2.22-.34-3-1.03-.78-.69-1.17-1.56-1.17-2.62,0-1.29,.49-2.28,1.47-3s2.35-1.07,4.13-1.07h2.05v-.97c0-.74-.22-1.33-.66-1.76-.44-.44-1.09-.66-1.95-.66-.75,0-1.38,.19-1.89,.57-.51,.38-.76,.84-.76,1.38h-2.12c0-.62,.22-1.21,.66-1.79,.44-.57,1.03-1.03,1.78-1.36s1.57-.5,2.47-.5c1.42,0,2.54,.36,3.34,1.07,.81,.71,1.22,1.69,1.26,2.94v5.68c0,1.13,.14,2.04,.43,2.7v.18h-2.21Zm-3.5-1.61c.66,0,1.29-.17,1.88-.51,.59-.34,1.02-.79,1.29-1.33v-2.53h-1.65c-2.59,0-3.88,.76-3.88,2.27,0,.66,.22,1.18,.66,1.55,.44,.37,1.01,.56,1.7,.56Z"/><path class="cls-1" d="M157.19,208.31c.94-1.15,2.15-1.72,3.65-1.72,2.61,0,3.93,1.47,3.95,4.42v8.16h-2.11v-8.17c0-.89-.21-1.55-.61-1.97-.4-.43-1.02-.64-1.87-.64-.68,0-1.29,.18-1.8,.55-.52,.37-.92,.84-1.21,1.44v8.8h-2.11v-17.53h2.11v6.68Z"/><path class="cls-1" d="M175.57,217.94c-.82,.97-2.03,1.45-3.62,1.45-1.32,0-2.32-.38-3.01-1.15-.69-.76-1.04-1.9-1.04-3.4v-8.03h2.11v7.98c0,1.87,.76,2.81,2.28,2.81,1.61,0,2.69-.6,3.22-1.8v-8.98h2.11v12.35h-2.01l-.05-1.22Z"/><path class="cls-1" d="M188.45,219.16c-.12-.24-.22-.68-.3-1.3-.98,1.02-2.15,1.53-3.51,1.53-1.22,0-2.22-.34-3-1.03-.78-.69-1.17-1.56-1.17-2.62,0-1.29,.49-2.28,1.47-3s2.35-1.07,4.13-1.07h2.05v-.97c0-.74-.22-1.33-.66-1.76-.44-.44-1.09-.66-1.95-.66-.75,0-1.38,.19-1.89,.57-.51,.38-.76,.84-.76,1.38h-2.12c0-.62,.22-1.21,.66-1.79,.44-.57,1.03-1.03,1.78-1.36s1.57-.5,2.47-.5c1.42,0,2.54,.36,3.34,1.07,.81,.71,1.22,1.69,1.26,2.94v5.68c0,1.13,.14,2.04,.43,2.7v.18h-2.21Zm-3.5-1.61c.66,0,1.29-.17,1.88-.51,.59-.34,1.02-.79,1.29-1.33v-2.53h-1.65c-2.59,0-3.88,.76-3.88,2.27,0,.66,.22,1.18,.66,1.55,.44,.37,1.01,.56,1.7,.56Z"/></g><path id="CHIH" class="cls-2" d="M176.28,150.72c1.59,7.46,3.72,15.78,5.43,23.22-1.48-.6-4.01-1.72-5.48-2.31-.33-.14-.82-.1-1.18-.1-2.28-.15-3.16,.66-4.3,2.51-1.25,1.68-2.59,3.88-4.05,5.38-1.06-.2-1.82-1.36-2.72-1.9-1.11-.68-2.96-1.16-4.25-1.08-.24,.19-.4,.6-.61,.82l-.31-.15c-.27-.46-.78-1.19-1.18-1.54-1.08,.4-2.28,1.39-3.38,1.69-1.02-.6-3.06-1.63-4.05-2.31-.29-.27-.63-.7-.92-.97-.23-.31-.4-.83-.72-1.08-.9,.16-1.98,.31-2.77-.26-.9-.76-1.9-1.6-2.87-2.25-.42,.51-.69,1.27-1.02,1.84-.16-.21-.34-.52-.61-.56l-.26,.1c-.46,.72-.18,1.75-.31,2.56-.22,.3-.69,.51-.92,.82-.18,.75,.75,1.62,.41,2.36-1.02,.69-2.85,.68-3.79,1.49-.33,1.2,.89,2.29,.92,3.48-.02,.7-.22,1.49-.56,2.1-.27,.32-.75,.25-1.13,.26l-.51,.31c-.45,.99-.21,2.72-.36,3.79,0,.28-.21,.54-.41,.72-.8,.72-1.89,1.66-2.61,2.46-.39,.29-.94,.16-1.38,.1-.18-.03-1.88-.24-2.1-.26-.6-.68-1.63-.96-2.25-1.59-.36-.48-.74-1.12-1.23-1.49-.49-.44-1.2-.73-1.74-1.02-.13-.54,.02-1.49-.72-1.59l-.15-.15c-.28-.81-.25-1.8-.77-2.51-.47-.54-3.48-.9-4.15-1.13-.75-.26-1.86-.26-2.56-.61-.42-1.07-.39-2.9-.62-4.05-.2-1.23-.09-2.79-.61-3.95-.94-1.11-2.04-2.27-2.61-3.64,.01-.27,.02-1.08-.1-1.33-1.59-.7-2.9-.23-3.74-2.2-.38-.33-.93-.23-1.38-.15l-.36-.15-.2-.36c-.41,.61-.95,1.29-1.49,1.79-.2-.29-.29-.75-.62-.92-1.19,.71-1.97-1.68-2.56-2.41-.87-.95-.17-1.86,.41-2.72-.04-.5-.29-1.03-.46-1.49-.04-.77,.44-1.61,.1-2.36-.13-.33-.57-.56-.87-.72-.35-.28-.79-.73-1.08-1.08-.02-.33,0-.73,.26-.97-.63-.58-2.24-1.58-2.1-2.61-.34-.6-1.47-.91-1.95-1.38-.68-1.65-1.62-3.9-2.25-5.59,.12-.34,.5-.65,.77-.87,.27-.19,.54-.59,.87-.67,2.14-.54,4.59,.33,6.66,.82,.52-.28,1.15-1.1,1.59-1.49,.06-.53-.28-1.09-.41-1.59-.42-1.1-.93-2.57-1.28-3.69-.09-.77,.38-1.59,.56-2.31-.7-3.65-1.05-8.61-1.54-12.35,.19,0,1.22-.06,1.38-.05l.1-.1c.29-3.32,.62-7.03,.87-10.35-.06-.36,.21-.86,.36-1.18,.03-.9-.14-2.17-.21-3.07-.14-1.63-.31-3.8-.46-5.43,0-.49-.21-1.03-.62-1.33-.21-.15-.63-.5-.82-.67-.44-.26-1.06-.39-1.54-.56-1.21-.69-3.45-2.71-4.46-3.69,.23-3.13,.81-6.54,1.18-9.69h12.15v-8.51c6.58-.02,13.47,.03,20.04,.05,1.37,0,4.48,0,5.84,0,.33,.05,1.8-.19,1.95,.31,.47,.09,1.15-.08,1.59,.21,1.07,.81,1.42,2.31,1.9,3.48,.24,.29,.91,.93,.92,1.33-.06,.31,.54,.48,.72,.61,0,0,1.5,.72,2.05,1.08,.83,.05,1.67,.71,1.95,1.49,.13,.05,.38,.19,.46,.31,0,0,1.49,1.53,1.84,1.84,.03,.17,.15,.48,.26,.62,.29,.2,1.35,.83,1.64,.97,.21,.34,.62,.7,.97,.87,.52,.28,.52,1.06,.82,1.49,.32,.06,.79,.63,.97,.87,.64,.43,1.65,1.39,2.1,2,.41,.04,2.37,.84,2.46,.82,.12,.04,1.28,.92,1.28,.92,0,0,1.89,1.3,2.2,1.79,.08,.24,.09,.57,.26,.77,.17,.08,1.55,1.88,1.64,2.1,.05,.03,.28,.55,.2,.67,.02,.22,.19,1.03,.2,1.18,.13,.22,.39,.39,.56,.56,.08,.16,.42,.78,.51,.82,.19,.41,.4,.99,.61,1.38,.48,.13,1.12,1.99,1.13,2.41-.1,.61-.47,1.32-.31,1.95,.03,.1,.35,1.1,.31,1.18-.12,.29,.83,1.79,.92,2.36,.14,.37,.62,.67,.87,.97-.02,.57,.55,2.29,.82,2.51,.26,.19,.95,.56,1.08,.87,.05,.13,1.68,1.24,1.84,1.54,0,0,.92-.13,1.13-.05,.14,.27,1.33,1.74,1.69,2.05,.18,.21,.66,.47,.92,.56,.28,.36,.94,1.08,1.38,1.23,.59,.22,1.89,.65,2.51,.72,.36,.05,1.4-.11,1.54,.41,0,0,.85,1.17,1.08,1.33,.51,.32,1.75,.69,2.36,.56,.18,.07,1.21,1.31,1.28,1.38,.24,.12,1.99,.89,2.05,.77l.61,.26s-6.91,13.71-10.51,20.35Z"/><g><g><path class="cls-3" d="M94.07,42.29c.23-.43,.53-.9,.53-1.36,0-.45-.13-.96-.61-1.31-.43-.31-.75-.37-1.12,.1,.1,.03,.19,.06,.29,.09,0,.04-.02,.08-.02,.11-.55-.11-1.12-.15-1.65-.33-.89-.32-1.78-.27-2.58,.07-.81,.34-1.62,.54-2.47,.61-.95,.09-1.84,.3-2.64,.83-.21,.14-.4,.39-.5,.63-.4,.91-.32,1.89-.33,2.86,0,.2-.06,.48-.2,.57-.39,.26-.52,.65-.49,1.05,.04,.7-.43,1.02-.89,1.36-.32,.24-.7,.41-1.03,.64-.18,.13-.31,.32-.46,.48h0s0,0,0,0c-.34,.16-.68,.31-1.01,.47,0,0,0,0-.01,0,0,0,0,0,0,0-.73-.39-2.31-.19-2.94,.35-.13,.11-.32,.16-.5,.21-.88,.25-1.86-.18-2.72,.52-.42,.34-1.14,.33-1.73,.43-.16,.03-.43-.04-.52-.16-.38-.47-.67-.95-1.32-1.22-.49-.2-.93-.43-1.48-.42-.38,0-.76-.07-1.03-.1-.28-.42-.52-.79-.76-1.15-.35-.52-.85-.94-.93-1.61-.1-.86-.61-1.52-1.19-2.07-.91-.88-1.49-1.93-1.91-3.09-.07-.18-.04-.44,.03-.63,.17-.4,.19-.71-.2-1.02-.6-.48-.98-1.11-1.07-1.9-.04-.32-.17-.63-.21-.96-.03-.23,.02-.47,.05-.7,.07-.45,.16-.9,.22-1.35,.03-.23-.04-.47-.02-.7,.08-1.06,.14-2.12,.28-3.16,.18-1.28,.42-2.54,1.07-3.7,.27-.47,.36-1.05,.51-1.59,.04-.13-.02-.29-.03-.43-.17,.03-.38,.02-.51,.11-.26,.19-.49,.14-.67-.05-.34-.38-.78-.38-1.24-.42-.38-.03-.77-.1-1.12-.25-.65-.26-1.25-.62-1.9-.86-.29-.11-.51-.22-.64-.51-.28-.59-.6-1.15-.88-1.73-.05-.1-.03-.24-.05-.36-.05-.42-.08-.85-.18-1.27-.04-.17-.21-.33-.34-.47-.3-.32-.61-.62-.9-.94-.31-.34-.6-.7-.89-1.05-.1-.12-.22-.23-.28-.36-.25-.53-.46-1.09-.72-1.61-.39-.78-.62-1.66-1.45-2.16-.31-.19-.5-.6-.81-.79-.34-.21-.45-.69-.98-.69-.73-.01-1.46-.16-2.2-.25-.1-.01-.21,0-.3,.04-.22,.09-.44,.18-.64,.3-.21,.13-.46,.27-.57,.48-.21,.38-.35,.8-.47,1.21-.28,.99-1.01,1.24-1.83,.66-.4-.28-.87-.45-1.3-.69-.27-.15-.52-.32-.78-.49-.15-.1-.28-.25-.44-.33-.75-.36-1.03-1.07-1.1-1.78-.08-.84-.48-1.5-.93-2.12-.27-.38-.82-.54-1.19-.86-.49-.42-.93-.91-1.41-1.35-.25-.23-.53-.43-.78-.65-.23-.21-.53-.4-.66-.67-.22-.47-.54-.64-1.03-.63-1.34,0-2.68,0-4.02,0-1.15,0-1-.11-.99,1,0,.47-.14,.62-.61,.62-2.54-.02-5.08,0-7.63-.01-.28,0-.57-.03-.83-.12-3.48-1.25-6.95-2.52-10.42-3.79-.74-.27-.74-.28-.59-1.06-.18,0-.34-.01-.5,0-2.16,.19-4.31,.38-6.47,.58-.52,.05-.59,.19-.36,.68,.08,.17,.21,.31,.3,.46,.1,.17,.2,.34,.3,.51,.11,.19,.19,.42,.34,.58,.28,.31,.51,.6,.35,1.06-.1,.31,.06,.54,.29,.77,.4,.42,.87,.82,.75,1.52-.02,.09,.1,.24,.19,.32,.45,.4,.89,.78,.68,1.5-.04,.15,.13,.53,.22,.53,.46,.03,.51,.33,.49,.65-.04,.63,.18,1.23,.52,1.65,.42,.5,1.09,.79,1.65,1.16,.24,.16,.54,.26,.73,.46,.82,.86,1.61,1.74,2.39,2.63,.08,.09,.11,.27,.08,.39-.14,.53-.03,1.15-.53,1.56-.07,.05-.06,.2-.08,.3-.1,.02-.22,.02-.3,.07-.35,.26-.72,.24-1.11,.12-.16-.05-.33-.1-.5-.09-.16,0-.31,.09-.47,.13,.1,.16,.18,.35,.31,.47,.51,.5,1.33,.7,1.46,1.56,0,.06,.1,.12,.16,.16,.45,.25,.88,.58,1.36,.72,.37,.11,.57,.3,.78,.59,.19,.27,.41,.55,.82,.19,.28-.25,1,.05,1.2,.38,.11,.19,.28,.35,.43,.52,.59,.7,1.61,.82,2.16,1.64,.41,.62,.65,1.97,.33,2.66-.23,.49-.36,1.02-.56,1.61,.27,.04,.49,.1,.71,.1,.4,.01,.7,.12,.75,.57-.12,.07-.23,.14-.39,.23,.3,.24,.56,.44,.81,.64,.04-.03,.08-.06,.12-.09-.05-.17-.11-.35-.18-.58,.12,.06,.21,.08,.27,.13,1.03,.91,2.32,1.51,3.18,2.64,.08,.1,.23,.17,.36,.22,.63,.23,.88,.75,1.03,1.35,.07,.27,.12,.55,.22,.81,.2,.49,.53,.55,.94,.23,.25-.19,.51-.36,.76-.53,.63-.43,.6-1.45-.03-1.86-.16-.1-.27-.31-.36-.49-.16-.31-.23-.67-.43-.94-.18-.24-.48-.38-.73-.57-.27-.21-.53-.43-.8-.64-.04,.02-.08,.05-.12,.07,.03,.26,.06,.53,.09,.79,0,0,0,0,0,.01,0,0,0,0,0,0-.15-.07-.3-.15-.45-.21-.51-.22-.88-1.05-.66-1.56,.2-.46,.1-.82-.21-1.2-.23-.28-.39-.62-.56-.95-.14-.27-.19-.6-.39-.82-.44-.5-.85-.97-.79-1.69,.01-.13-.02-.28-.07-.41-.19-.52-.39-1.04-.59-1.57-.2-.53-.47-.98-1.14-.99-.09,0-.25-.24-.24-.35,.06-.34-.09-.48-.37-.6-.12-.05-.18-.23-.27-.35-.35-.42-.31-1.11-.95-1.31-.53-.17-.72-.58-.8-1.09-.08-.52-.18-1.04-.32-1.55-.04-.14-.24-.22-.37-.34-.15-.13-.4-.24-.42-.39-.12-.74-.73-.98-1.26-1.32-.19-.67-.47-1.24-1-1.77-.62-.6-1.46-.93-1.95-1.67-.27-.4-.47-.77-.48-1.27-.02-.69-.13-1.38-.2-2.07,0-.09-.05-.19-.11-.25-.68-.73-.37-1.56-.2-2.34,.11-.49,.47-.54,.88-.24,.25,.18,.49,.41,.77,.51,.25,.09,.55,.08,.83,.06,.15-.01,.31-.22,.43-.19,.18,.04,.44,.18,.48,.32,.18,.68,.72,.73,1.28,.88,.68,.18,.71,.33,.52,.89-.23,.68,.01,1.23,.42,1.77,.26,.35,.55,.79,.55,1.19,0,.85,.58,1.37,.91,2.03,.1,.2,.12,.43,.21,.63,.06,.13,.16,.26,.27,.35,.08,.07,.2,.08,.3,.12,.03,.04,.05,.09,.08,.13-1.18-.13-.84,.8-1.13,1.38,.29,.11,.57,.33,.79,.28,.22-.06,.37-.38,.6-.65,.18,.24,.36,.49,.56,.74,.29,.38,.52,.87,.91,1.08,.48,.26,.72,.64,1.01,1.04,.2,.28,.48,.51,.77,.72,.19,.14,.43,.19,.65,.28,.18-.07,.42-.14,.55-.05,.13,.08,.18,.33,.21,.51,.03,.21-.06,.46,.02,.64,.13,.32,.39,.58,.54,.89,.18,.37,.47,.63,.86,.63,.63-.01,.75,.35,.84,.85,.09,.51,.39,.74,.91,.65,.51-.1,.76,.23,.9,.55,.12,.26,.03,.64-.03,.95-.04,.2-.21,.38-.32,.57-.2,.35-.09,.98,.21,1.21,.2,.16,.43,.28,.6,.47,.35,.4,.72,.74,1.31,.67,.07,0,.14,.05,.21,.09,.25,.15,.5,.32,.75,.47,.33,.19,.66,.37,.99,.56-.02,.04-.05,.08-.07,.12-.16-.1-.31-.19-.51-.31,.35,1.03,1.37,2.23,2.46,2.29-.36,.38-.03,.53,.2,.71,.21,.17,.42,.32,.62,.49,.33,.3,.68,.59,.97,.93,.34,.39,.64,.83,.96,1.25,.09,.12,.2,.24,.3,.35,.5,.59,.94,1.24,1.51,1.75,.69,.61,.99,1.32,1.06,2.2,.03,.33,.12,.67,.25,.97,.25,.55,.49,1.13,1.1,1.28-.02,.28-.07,.48-.04,.68,.05,.39-.05,.68-.34,.96-.21,.2-.35,.47-.57,.77,.24,.06,.37,.07,.47,.13,.13,.07,.24,.18,.36,.28-.1,.1-.18,.24-.3,.3-.17,.07-.36,.07-.55,.12-.48,.12-.56,.37-.27,.77,.09,.12,.15,.27,.22,.4,.15,.32,.25,.67,.45,.95,.31,.46,.68,.88,1.04,1.3,.21,.24,.41,.53,.67,.67,.95,.49,2,.8,2.86,1.47,.46,.36,.8,.88,1.21,1.31,.18,.19,.38,.41,.62,.51,.56,.23,1.14,.41,1.72,.59,.58,.18,1.17,.34,1.75,.5,.08,.02,.2,.03,.27,0,.48-.28,.78,.02,1.09,.32,.25,.24,.5,.5,.78,.71,.48,.36,.97,.7,1.46,1.04,.14,.1,.29,.18,.45,.24,.57,.21,1.15,.39,1.72,.62,.56,.23,1.09,.52,1.64,.76,.33,.15,.67,.28,1.02,.38,.98,.28,2.08,.21,2.84,1.08,.1,.12,.3,.15,.46,.22,.56,.25,1.12,.51,1.69,.75,.25,.1,.52,.16,.78,.23,.6,.16,1.25,.1,1.83,.47,.77,.49,1.66,.65,2.55,.41,.62-.17,1.22-.46,1.82-.72,.37-.17,.72-.4,1.08-.58,.23-.11,.49-.18,.74-.26,.16-.05,.32-.1,.57-.18-.19-.13-.28-.2-.4-.28,.13-.1,.24-.18,.27-.2,.32,.1,.56,.18,.78,.25-.05,.05-.14,.15-.22,.24,.65,.21,1.27,.42,1.9,.62,1.64,.53,2.69,1.86,3.91,2.94,.65,.57,1.24,1.2,1.86,1.8,.03-.02,.08-.03,.08-.05,.08-.69,.57-1.32,.2-2.07-.07-.14-.03-.4,.06-.56,.3-.57,.65-1.1,.94-1.67,.18-.35,.41-.49,.81-.48,1,.02,2,.02,2.99,0,.16,0,.41-.11,.44-.23,.09-.31,.09-.65,.13-.97,0-.01-.05-.04-.07-.05-.42-.14-.6-.48-.8-.84-.08-.15-.25-.3-.41-.36-.66-.28-1.07-.81-1.53-1.34q1.06-.08,1.07-1.14s0-.06,0-.09c-.07-.48,.15-.61,.61-.61,1.5,.02,2.99,.01,4.49,0,.22,0,.47,.06,.54-.29,.06-.31,.29-.31,.49-.15,.25,.19,.44,.12,.57-.12,.23-.39,.45-.79,.67-1.19-.12,.15-.25,.29-.36,.44,.11-.15,.24-.29,.36-.44,0,0,0,0,0,0,0,0,.01-.01,.01-.02h0s0,0,0,0c.14-.14,.3-.41,.43-.4,.47,.02,.66-.25,.83-.6,.08-.17,.2-.32,.31-.48,.04,.02,.08,.03,.12,.05-.03,.17-.04,.35-.1,.51-.11,.27-.1,.47,.18,.62,.12,.07,.23,.17,.33,.26,.02,.02,.04,.04,.06,.06h0c.13,.4,.24,.1,.28-.03,.16-.43,.29-.88,.42-1.32,.19-.62,.36-1.24,.56-1.91h-.59c.35-.24,.82-.23,.74-.74-.28-.05-.57-.1-.78-.14,.25-.43,.61-.78,.66-1.17,.1-.83,.51-1.45,1.08-2,.2-.2,.45-.37,.58-.61Z"/><path class="cls-3" d="M93.71,43.65c0,.08,.05,.2,.12,.23,.06,.03,.2,0,.24-.06,.21-.27,.4-.56,.64-.91-.7-.1-1.06,.21-1,.74Z"/></g><path id="MEX2709" class="cls-1" d="M43.51,13.98c-2.51,5.03-2.21,2.83-.97,8.33-1.93-.96-1.73-.33-2.87,1.05-.35-.14-.62-.55-1.05-.54-.17-.06-.32-.05-.4,.13-.12-.05-.18-.25-.28-.32-.21,.08-.44,.27-.65,.32-.34-.21-.87-.38-1.04-.78-.1-.1-.31,.01-.45-.03-.24-.13-.44-.36-.68-.5-.08,.1-.13,.24-.2,.35-.28-.34-.18,.29-.24,.43-.32,.12-.02,.37-.08,.58-.2,.17-.87,.09-.72,.49,.15,.27,.26,.66,0,.9-.19-.01-.33,.08-.31,.28,0,.13-.01,.44-.03,.57-.08,.12-.3,.27-.4,.37-.1,.14-.24,.26-.43,.2-.11-.03-.42,0-.49-.13-.37-.15-.5-.58-.89-.69-.06-.08-.01-.22-.09-.29-.13-.04-.13-.19-.16-.3-.02-.46-.79-.36-1.09-.5-.14-.02-.35-.02-.32-.22-.08-.44-.06-.96-.2-1.38-.24-.28-.53-.56-.52-.95-.26-.1-.61-.1-.72-.42-.11-.11-.32,.05-.37-.13-.08,.12-.18,.25-.28,.34-.03-.05-.06-.12-.1-.17-.05-.02-.11,.04-.17,0-.18-.16-.31-.41-.42-.63-.02-.14,.09-.26,.16-.37-.02-.16-.14-.31-.06-.48,.17-.39-.57-.44-.33-.78-.12-.12-.43-.3-.4-.5-.07-.11-.28-.17-.37-.26-.12-.49-.79-1.17-.04-1.38,.37-.05,.8,.07,1.15,.17,.13,.03,.25-.21,.35-.27-.06-.49-.5-.96-.22-1.45-.13-.7-.2-1.65-.29-2.36,.06-.03,.3,.05,.29-.07,.02-.37,.08-.9,.1-1.26,.05-.58,.17-1.14,.07-1.72-.08-.34,.07-.91-.27-1.13-.41-.18-.85-.51-1.18-.82-.08-.61,.18-1.36,.18-2.01,.43-.11,2.33,.42,2.17-.49,.08-.43-.27-1.17,.47-1.03,1.75,.06,3.62-.13,5.31,.11,.27,.2,.25,.61,.5,.82,.16,.13,.48,.43,.7,.45,.15,.06,.23,.23,.33,.32,.28,.14,.39,.56,.72,.65,.06,.12,.22,.15,.27,.27,0,.16,.17,.23,.25,.34,.43,.37,.27,.28,.76,.57,.05-.06,.14-.04,.17,.04,.05,0,.11,.02,.1,.09h0s.05,.04,.06,.05l.02-.03c.08,.2,.37,.19,.43,.38,.02,.18,.19,.08,.29,.29,.08,.07,0,.21,.12,.25,0,.06-.03,.12,.02,.18,.15,.31,.34,.66,.53,.92,0,.48-.05,1.09,.35,1.44,.02,.16,.09,.34,.16,.48,.1,.05,.21,.15,.24,.24,.06,.02,.28,.16,.31,.22,.31-.14,.46,.38,.72,.49,.13,.07,.59,.39,.74,.37,.09,0,.38-.02,.26,.16,.14,.09,.58,.29,.73,.31,.08,.22,.37,.31,.56,.42,.03-.07,.06-.02,.09,.02,.01,0,.06-.02,.07-.03v.02s0,0,0,0Z"/></g></g></svg>