<?xml version="1.0" encoding="UTF-8"?><svg id="estados" xmlns="http://www.w3.org/2000/svg" viewBox="0 0 306.04 276.52"><defs><style>.cls-1,.cls-2{fill:#3bb1e6;}.cls-3{fill:#fff;}.cls-4{stroke-width:1.53px;}.cls-4,.cls-2,.cls-5{stroke:#fff;}.cls-4,.cls-5{fill:none;opacity:.67;stroke-miterlimit:10;}.cls-6{fill:#0a2f3a;opacity:.5;}.cls-2{stroke-linecap:round;stroke-linejoin:round;stroke-width:1.37px;}.cls-5{stroke-width:1.67px;}</style></defs><g id="coah-icono"><circle class="cls-6" cx="136.96" cy="151.48" r="97.03"/><circle class="cls-5" cx="136.96" cy="151.48" r="104.09"/><polyline class="cls-4" points="229.53 104.17 271.63 73.79 306.09 73.79"/><polyline class="cls-4" points="229.02 199.66 271.63 220.23 306.09 220.23"/><polyline class="cls-4" points="240.77 150.49 271.63 150.49 306.09 150.49"/><g><path class="cls-1" d="M105.22,213.89c-.21,1.76-.85,3.11-1.95,4.07-1.09,.96-2.54,1.43-4.35,1.43-1.96,0-3.54-.7-4.72-2.11-1.18-1.41-1.77-3.29-1.77-5.65v-1.6c0-1.54,.28-2.9,.83-4.07,.55-1.17,1.33-2.07,2.34-2.7s2.18-.94,3.51-.94c1.76,0,3.18,.49,4.24,1.48s1.69,2.35,1.86,4.09h-2.2c-.19-1.33-.6-2.29-1.24-2.88-.64-.59-1.52-.89-2.66-.89-1.4,0-2.5,.52-3.29,1.55-.8,1.04-1.19,2.51-1.19,4.42v1.61c0,1.8,.38,3.24,1.13,4.31,.75,1.07,1.81,1.6,3.16,1.6,1.22,0,2.15-.28,2.8-.83s1.08-1.51,1.3-2.88h2.2Z"/><path class="cls-1" d="M107.32,212.87c0-1.21,.24-2.3,.71-3.26,.48-.97,1.14-1.71,1.99-2.24,.85-.52,1.82-.79,2.9-.79,1.68,0,3.04,.58,4.08,1.75,1.04,1.16,1.56,2.71,1.56,4.64v.15c0,1.2-.23,2.28-.69,3.23-.46,.96-1.12,1.7-1.97,2.23-.86,.53-1.84,.8-2.95,.8-1.67,0-3.03-.58-4.07-1.75-1.04-1.16-1.56-2.7-1.56-4.62v-.15Zm2.12,.25c0,1.37,.32,2.47,.95,3.3,.64,.83,1.49,1.24,2.55,1.24s1.92-.42,2.56-1.26c.63-.84,.95-2.02,.95-3.53,0-1.35-.32-2.45-.96-3.29-.64-.84-1.5-1.26-2.56-1.26s-1.88,.41-2.52,1.24c-.64,.83-.96,2.02-.96,3.56Z"/><path class="cls-1" d="M128.83,219.16c-.12-.24-.22-.68-.3-1.3-.98,1.02-2.15,1.53-3.51,1.53-1.22,0-2.22-.34-3-1.03-.78-.69-1.17-1.56-1.17-2.62,0-1.29,.49-2.28,1.47-3,.98-.71,2.35-1.07,4.13-1.07h2.05v-.97c0-.74-.22-1.33-.66-1.76-.44-.44-1.09-.66-1.95-.66-.75,0-1.38,.19-1.89,.57-.51,.38-.76,.84-.76,1.38h-2.12c0-.62,.22-1.21,.66-1.79,.44-.57,1.03-1.03,1.78-1.36s1.57-.5,2.47-.5c1.42,0,2.54,.36,3.34,1.07,.81,.71,1.22,1.69,1.26,2.94v5.68c0,1.13,.14,2.04,.43,2.7v.18h-2.21Zm-3.5-1.61c.66,0,1.29-.17,1.88-.51,.59-.34,1.02-.79,1.29-1.34v-2.53h-1.65c-2.59,0-3.88,.76-3.88,2.27,0,.66,.22,1.18,.66,1.55,.44,.37,1.01,.56,1.7,.56Z"/><path class="cls-1" d="M136.03,208.31c.94-1.15,2.15-1.72,3.65-1.72,2.61,0,3.93,1.47,3.95,4.42v8.16h-2.11v-8.17c0-.89-.21-1.55-.61-1.97-.4-.43-1.02-.64-1.87-.64-.68,0-1.29,.18-1.8,.55-.52,.37-.92,.84-1.21,1.44v8.8h-2.11v-17.53h2.11v6.68Z"/><path class="cls-1" d="M154.41,217.94c-.82,.97-2.03,1.45-3.62,1.45-1.32,0-2.32-.38-3.01-1.15-.69-.76-1.04-1.9-1.04-3.39v-8.03h2.11v7.98c0,1.87,.76,2.81,2.28,2.81,1.61,0,2.69-.6,3.22-1.8v-8.98h2.11v12.35h-2.01l-.05-1.22Z"/><path class="cls-1" d="M159.69,203.54c0-.34,.1-.63,.31-.87,.21-.24,.52-.35,.93-.35s.72,.12,.94,.35c.21,.24,.32,.52,.32,.87s-.11,.63-.32,.86c-.21,.23-.52,.34-.94,.34s-.72-.11-.93-.34c-.21-.23-.31-.51-.31-.86Zm2.28,15.62h-2.11v-12.35h2.11v12.35Z"/><path class="cls-1" d="M167.64,219.16h-2.11v-17.53h2.11v17.53Z"/><path class="cls-1" d="M178.64,219.16c-.12-.24-.22-.68-.3-1.3-.98,1.02-2.15,1.53-3.51,1.53-1.22,0-2.22-.34-3-1.03-.78-.69-1.17-1.56-1.17-2.62,0-1.29,.49-2.28,1.47-3,.98-.71,2.35-1.07,4.13-1.07h2.05v-.97c0-.74-.22-1.33-.66-1.76-.44-.44-1.09-.66-1.95-.66-.75,0-1.38,.19-1.89,.57-.51,.38-.76,.84-.76,1.38h-2.12c0-.62,.22-1.21,.66-1.79,.44-.57,1.03-1.03,1.78-1.36s1.57-.5,2.47-.5c1.42,0,2.54,.36,3.34,1.07,.81,.71,1.22,1.69,1.26,2.94v5.68c0,1.13,.14,2.04,.43,2.7v.18h-2.21Zm-3.5-1.61c.66,0,1.29-.17,1.88-.51,.59-.34,1.02-.79,1.29-1.34v-2.53h-1.65c-2.59,0-3.88,.76-3.88,2.27,0,.66,.22,1.18,.66,1.55,.44,.37,1.01,.56,1.7,.56Z"/></g><path id="COAH" class="cls-2" d="M184.34,115.95l-.6,.47-.54,.47-.54,.54-.54,.54-1.21,1.14h-.2l-.13-.07-.33-.33-3.88-3.28-.13,.07-.27,.2-.4,.33-.74,.54-.8,.47-.8,.6-.54,.6-.33,.8-.2,.94-.2,1-.2,.8-.2,1-.2,1.34-.27,1.14-.47,.6-.4,.2-.2,.07h-.2l-.13-.13v-.2l-.07-.2h-.13l-2.48,.94-.27,.2-.27,.27-.27,.33-.27,.27-1.88,1.21-.4,.2-.33,.27-.2,.27-.07,.47,.33,2.88,.33,.13,.4,.07,.27,.27-.07,.6,.47-.07,.33-.07,.27-.2,.07-.33-.07-.13-.07-.13-.13-.13v-.13l.13-.13h.4l.13-.07,.13-.33,.07-.27h.13l.27,.4,.4,.27,.6,.07,.54,.07,.4,.27,.13,.47,.07,.74-.07,.74v.54l.07,.47v1l-.07,.47-.33,1.21-.33,1.21-.47,1.14-.74,1-.33,.33-.33,.33-.4,.33-.33,.33-.87-2.68-.8,.67-1.47,1.21-1.47,1.27-1.41,1.27-1.47,1.27-1.61,1.34-1.54,1.41,.67,.6,.8,.74,.74,.8,.54,.8,.07,.4,.07,.4,.13,.4,.2,.33,.27,.4,.2,.2,.27,.07h.4l.4,.13,.33,.27,.33,.33,.27,.33,.2,.67,.07,.6v.67l.2,.6,.47,.4,.6,.27,.54,.33,.07,.6-.07,.87-.13,.87v.87l.13,.8,.33,.87,.47,.87,.54,.8,.54,.74,.4,.47,.4,.2,.4,.07h.54l.2,.07,.2,.07,.13,.13,.2,.13,.13,.27-.07,.2v.47l.27,.13h.6l.27,.13,.2,.27,.07,.27v.6l-.6-.2-.67-.33-.74-.2-.54,.07-.13,.47,.67,.33,.8,.33,.47,.47,.13,.47,.54,.54,.8,.2,.8,.2,.54,.47v.2l-.13,.2v.2l.2,.2,.33,.07,.47-.13,.4-.13,.4-.07,.33,.07,.4,.07,.4,.07h.74l.2,.13,.54,.4,.54,.33,.67,.4,.27,.33-.67,.2-.2,.07-.2,.07-.2,.13-.07,.2v.2l.07,.54v.2l-.27,.13-.47-.07h-.8l-.54,.2-.47,.07-.47,.07-.54-.2-.54-.2-.54-.2-.54-.13-.54-.13h-1.41l-1.27,.4-1.21,.67-1.21,.8-.54,.6-.54,1-.33,.87,.54,.33,.4,.07,.33,.33,.67,.67,.27,.47-.07,.33-.33,.27-.4,.27-.47,.33-.07,.4,.07,.4,.2,.67,.2,.6,.13,.54v.47l-.13,.6-.27,1.07-.33,1.07-.33,1.14-.2,1.07-.4-.27-.4-.27-.87-.47-.4-.13-.33,.07-.4,.13-.4,.13-.8-.07-.87-.4-.8-.54-.54-.6-.13-.4-.13-.4-.07-.4-.2-.33-.2-.4-.27-.4-.27-.33-.27-.33-.74-.47-.74-.13-.74,.07-.87,.2v-.13l-.07-.33v-.13l-.4,.4-.47,.47-.8,.87-.4,.27-.4,.07-.47-.07h-.47l-1.74-.13h-.6l-.27-.2-.2-.47-.2-.54-.13-.4,.47,.13,.4,.13,.4,.13,.47,.07-.07-.47v-.47l-.13-.47-.2-.4-.27-.2-.33-.2-.33-.2h-1.14l-.87-.2-.74-.47-.6-.6-.27-.6-.33-.8-.4-.8-.4-.4-6.56-2.01-.6-.07-.6,.07-.6,.13-.6,.07-1.54,.2-4.69,.47-.67,.07-.4,.13-.33,.27-.4,.6-1.88,2.48-.33,.47-.4,.6-.54,.54-.47,.13-.07,3.95-.47-.4-.47-.33-.47-.33-.47-.33-.87-.4-.87-.33-.87-.2-.87-.2-.94-.27-.94-.33-.87-.54-.54-.87-.13-.87v-1.88l-.33-.74-.74-.54-.87-.47-.8-.54-.47-.74-.27-.6-.27-.47-.33-.4-.4-.33-.33-.2-.27-.27-.13-.27-.07-.4,.07-.67,.27-.6,.27-.6,.4-.54,.2-.13,.47-.13,.13-.13-.07-.2-.13-.27-.27-.27-.2-.2-.33-.33-.27-.33-.2-.4v-.47l.13-.4,.2-.27,.27-.2,.33-.2,.2-.2,.2-.13,.27-.07,.13-.2,.2-.27,.13-.2,.4-.4,.2-.4,.13-.33,.2-.27,.4-.2,.2-.33,.07-.67v-.74l-.07-.6-.07-1.14-.07-.67-.07-.67-.07-.67-.13-1.21-.13-1.21-.07-1.27,.13-1.14,.33-1.14,.47-1.07,.54-1.07,.2-1.21-.27-1.21-.87-1-1.07-.94-.94-.74-.8-.8-.87-.74-1.67-1.47-1-.87-.94-4.02-.33-1.34-1.07-4.55-2.21-9.18-1.07-4.55-.47-2.21-.87-3.75-.13-.74,.67-1.21,.94-1.67,.87-1.67,.87-1.74,.87-1.67,1.34-2.55,1.27-2.55,1.74-3.35,1.74-3.35,1.74-3.42,1.9-3.63c1.64,.18,3.2,.02,4.53-.99l.14-.2,.2-.2,1.74-2.08,1.2-2.73,.7-2.22,.82-2.75,1.03-2.18,.99-2.01,1.11-.94,.39-.3,.84-.61,3.37-2.09,3.12-1.19,1.85,.14,10.06,1.29,4.88,.11,.07-.13,.2,.07,1.41,.67,.2,.07,.6,.47,.2-.07,.2-.07,.2-.07-.07,.27,.07,.33,2.18,2.33,1.3,.95,1.12,1.02,2.7,3.07,.27-.07,.2-.2,.13,.4,2.66,2.55,1.9,1.67,.4,.27,.27,.4,.47,.8,1.07,1.74,.07,.13,.13,.2,.2,.07h.27l.2,.07,.2,.33,.13,1.41,.4,1,1.41,3.21,.47,.74,.13,.13,.07,.13,.13,.2,.07,.13,.13,.27,1.61,3.88,.67,.8,.2,.2,.13,.2-.07,.6v.27l.33,.47,.4,.27,.87,.33-.6,.33-.13,.2,.07,.27,.13,.2,.2,.13,.07,.13,.87,2.55,.33,.54,1.41,2.08h.13l.07,.2,2.68,1.94,.4,.4,.13,.54,.07,.33,.07,.13,.27,.33,.27,.27,.2,.07-.07,.13v.13l-.07,.13,.13,.4,.2,.33,.2,.27,.27,.4,.33,.13,.4,.07,.27,.2-.2,.33,.2,.33,.33,.47,.33,.33,.33,.2,.07,.07-.07,.27,.47,2.08,.33,.27,.2,.27v.13l.54,.07,.07,.07h0Z"/><g><g><path class="cls-3" d="M94.07,42.29c.23-.43,.53-.9,.53-1.36,0-.45-.13-.96-.61-1.31-.43-.31-.75-.37-1.12,.1,.1,.03,.19,.06,.29,.09,0,.04-.02,.08-.02,.11-.55-.11-1.12-.15-1.65-.33-.89-.32-1.78-.27-2.58,.07-.81,.34-1.62,.54-2.47,.61-.95,.09-1.84,.3-2.64,.83-.21,.14-.4,.39-.5,.63-.4,.91-.32,1.89-.33,2.86,0,.2-.06,.48-.2,.57-.39,.26-.52,.65-.49,1.05,.04,.7-.43,1.02-.89,1.36-.32,.24-.7,.41-1.03,.64-.18,.13-.31,.32-.46,.48h0s0,0,0,0c-.34,.16-.68,.31-1.01,.47,0,0,0,0-.01,0,0,0,0,0,0,0-.73-.39-2.31-.19-2.94,.35-.13,.11-.32,.16-.5,.21-.88,.25-1.86-.18-2.72,.52-.42,.34-1.14,.33-1.73,.43-.16,.03-.43-.04-.52-.16-.38-.47-.67-.95-1.32-1.22-.49-.2-.93-.43-1.48-.42-.38,0-.76-.07-1.03-.1-.28-.42-.52-.79-.76-1.15-.35-.52-.85-.94-.93-1.61-.1-.86-.61-1.52-1.19-2.07-.91-.88-1.49-1.93-1.91-3.09-.07-.18-.04-.44,.03-.63,.17-.4,.19-.71-.2-1.02-.6-.48-.98-1.11-1.07-1.9-.04-.32-.17-.63-.21-.96-.03-.23,.02-.47,.05-.7,.07-.45,.16-.9,.22-1.35,.03-.23-.04-.47-.02-.7,.08-1.06,.14-2.12,.28-3.16,.18-1.28,.42-2.54,1.07-3.7,.27-.47,.36-1.05,.51-1.59,.04-.13-.02-.29-.03-.43-.17,.03-.38,.02-.51,.11-.26,.19-.49,.14-.67-.05-.34-.38-.78-.38-1.24-.42-.38-.03-.77-.1-1.12-.25-.65-.26-1.25-.62-1.9-.86-.29-.11-.51-.22-.64-.51-.28-.59-.6-1.15-.88-1.73-.05-.1-.03-.24-.05-.36-.05-.42-.08-.85-.18-1.27-.04-.17-.21-.33-.34-.47-.3-.32-.61-.62-.9-.94-.31-.34-.6-.7-.89-1.05-.1-.12-.22-.23-.28-.36-.25-.53-.46-1.09-.72-1.61-.39-.78-.62-1.66-1.45-2.16-.31-.19-.5-.6-.81-.79-.34-.21-.45-.69-.98-.69-.73-.01-1.46-.16-2.2-.25-.1-.01-.21,0-.3,.04-.22,.09-.44,.18-.64,.3-.21,.13-.46,.27-.57,.48-.21,.38-.35,.8-.47,1.21-.28,.99-1.01,1.24-1.83,.66-.4-.28-.87-.45-1.3-.69-.27-.15-.52-.32-.78-.49-.15-.1-.28-.25-.44-.33-.75-.36-1.03-1.07-1.1-1.78-.08-.84-.48-1.5-.93-2.12-.27-.38-.82-.54-1.19-.86-.49-.42-.93-.91-1.41-1.35-.25-.23-.53-.43-.78-.65-.23-.21-.53-.4-.66-.67-.22-.47-.54-.64-1.03-.63-1.34,0-2.68,0-4.02,0-1.15,0-1-.11-.99,1,0,.47-.14,.62-.61,.62-2.54-.02-5.08,0-7.63-.01-.28,0-.57-.03-.83-.12-3.48-1.25-6.95-2.52-10.42-3.79-.74-.27-.74-.28-.59-1.06-.18,0-.34-.01-.5,0-2.16,.19-4.31,.38-6.47,.58-.52,.05-.59,.19-.36,.68,.08,.17,.21,.31,.3,.46,.1,.17,.2,.34,.3,.51,.11,.19,.19,.42,.34,.58,.28,.31,.51,.6,.35,1.06-.1,.31,.06,.54,.29,.77,.4,.42,.87,.82,.75,1.52-.02,.09,.1,.24,.19,.32,.45,.4,.89,.78,.68,1.5-.04,.15,.13,.53,.22,.53,.46,.03,.51,.33,.49,.65-.04,.63,.18,1.23,.52,1.65,.42,.5,1.09,.79,1.65,1.16,.24,.16,.54,.26,.73,.46,.82,.86,1.61,1.74,2.39,2.63,.08,.09,.11,.27,.08,.39-.14,.53-.03,1.15-.53,1.56-.07,.05-.06,.2-.08,.3-.1,.02-.22,.02-.3,.07-.35,.26-.72,.24-1.11,.12-.16-.05-.33-.1-.5-.09-.16,0-.31,.09-.47,.13,.1,.16,.18,.35,.31,.47,.51,.5,1.33,.7,1.46,1.56,0,.06,.1,.12,.16,.16,.45,.25,.88,.58,1.36,.72,.37,.11,.57,.3,.78,.59,.19,.27,.41,.55,.82,.19,.28-.25,1,.05,1.2,.38,.11,.19,.28,.35,.43,.52,.59,.7,1.61,.82,2.16,1.64,.41,.62,.65,1.97,.33,2.66-.23,.49-.36,1.02-.56,1.61,.27,.04,.49,.1,.71,.1,.4,.01,.7,.12,.75,.57-.12,.07-.23,.14-.39,.23,.3,.24,.56,.44,.81,.64,.04-.03,.08-.06,.12-.09-.05-.17-.11-.35-.18-.58,.12,.06,.21,.08,.27,.13,1.03,.91,2.32,1.51,3.18,2.64,.08,.1,.23,.17,.36,.22,.63,.23,.88,.75,1.03,1.35,.07,.27,.12,.55,.22,.81,.2,.49,.53,.55,.94,.23,.25-.19,.51-.36,.76-.53,.63-.43,.6-1.45-.03-1.86-.16-.1-.27-.31-.36-.49-.16-.31-.23-.67-.43-.94-.18-.24-.48-.38-.73-.57-.27-.21-.53-.43-.8-.64-.04,.02-.08,.05-.12,.07,.03,.26,.06,.53,.09,.79,0,0,0,0,0,.01,0,0,0,0,0,0-.15-.07-.3-.15-.45-.21-.51-.22-.88-1.05-.66-1.56,.2-.46,.1-.82-.21-1.2-.23-.28-.39-.62-.56-.95-.14-.27-.19-.6-.39-.82-.44-.5-.85-.97-.79-1.69,.01-.13-.02-.28-.07-.41-.19-.52-.39-1.04-.59-1.57-.2-.53-.47-.98-1.14-.99-.09,0-.25-.24-.24-.35,.06-.34-.09-.48-.37-.6-.12-.05-.18-.23-.27-.35-.35-.42-.31-1.11-.95-1.31-.53-.17-.72-.58-.8-1.09-.08-.52-.18-1.04-.32-1.55-.04-.14-.24-.22-.37-.34-.15-.13-.4-.24-.42-.39-.12-.74-.73-.98-1.26-1.32-.19-.67-.47-1.24-1-1.77-.62-.6-1.46-.93-1.95-1.67-.27-.4-.47-.77-.48-1.27-.02-.69-.13-1.38-.2-2.07,0-.09-.05-.19-.11-.25-.68-.73-.37-1.56-.2-2.34,.11-.49,.47-.54,.88-.24,.25,.18,.49,.41,.77,.51,.25,.09,.55,.08,.83,.06,.15-.01,.31-.22,.43-.19,.18,.04,.44,.18,.48,.32,.18,.68,.72,.73,1.28,.88,.68,.18,.71,.33,.52,.89-.23,.68,.01,1.23,.42,1.77,.26,.35,.55,.79,.55,1.19,0,.85,.58,1.37,.91,2.03,.1,.2,.12,.43,.21,.63,.06,.13,.16,.26,.27,.35,.08,.07,.2,.08,.3,.12,.03,.04,.05,.09,.08,.13-1.18-.13-.84,.8-1.13,1.38,.29,.11,.57,.33,.79,.28,.22-.06,.37-.38,.6-.65,.18,.24,.36,.49,.56,.74,.29,.38,.52,.87,.91,1.08,.48,.26,.72,.64,1.01,1.04,.2,.28,.48,.51,.77,.72,.19,.14,.43,.19,.65,.28,.18-.07,.42-.14,.55-.05,.13,.08,.18,.33,.21,.51,.03,.21-.06,.46,.02,.64,.13,.32,.39,.58,.54,.89,.18,.37,.47,.63,.86,.63,.63-.01,.75,.35,.84,.85,.09,.51,.39,.74,.91,.65,.51-.1,.76,.23,.9,.55,.12,.26,.03,.64-.03,.95-.04,.2-.21,.38-.32,.57-.2,.35-.09,.98,.21,1.21,.2,.16,.43,.28,.6,.47,.35,.4,.72,.74,1.31,.67,.07,0,.14,.05,.21,.09,.25,.15,.5,.32,.75,.47,.33,.19,.66,.37,.99,.56-.02,.04-.05,.08-.07,.12-.16-.1-.31-.19-.51-.31,.35,1.03,1.37,2.23,2.46,2.29-.36,.38-.03,.53,.2,.71,.21,.17,.42,.32,.62,.49,.33,.3,.68,.59,.97,.93,.34,.39,.64,.83,.96,1.25,.09,.12,.2,.24,.3,.35,.5,.59,.94,1.24,1.51,1.75,.69,.61,.99,1.32,1.06,2.2,.03,.33,.12,.67,.25,.97,.25,.55,.49,1.13,1.1,1.28-.02,.28-.07,.48-.04,.68,.05,.39-.05,.68-.34,.96-.21,.2-.35,.47-.57,.77,.24,.06,.37,.07,.47,.13,.13,.07,.24,.18,.36,.28-.1,.1-.18,.24-.3,.3-.17,.07-.36,.07-.55,.12-.48,.12-.56,.37-.27,.77,.09,.12,.15,.27,.22,.4,.15,.32,.25,.67,.45,.95,.31,.46,.68,.88,1.04,1.3,.21,.24,.41,.53,.67,.67,.95,.49,2,.8,2.86,1.47,.46,.36,.8,.88,1.21,1.31,.18,.19,.38,.41,.62,.51,.56,.23,1.14,.41,1.72,.59,.58,.18,1.17,.34,1.75,.5,.08,.02,.2,.03,.27,0,.48-.28,.78,.02,1.09,.32,.25,.24,.5,.5,.78,.71,.48,.36,.97,.7,1.46,1.04,.14,.1,.29,.18,.45,.24,.57,.21,1.15,.39,1.72,.62,.56,.23,1.09,.52,1.64,.76,.33,.15,.67,.28,1.02,.38,.98,.28,2.08,.21,2.84,1.08,.1,.12,.3,.15,.46,.22,.56,.25,1.12,.51,1.69,.75,.25,.1,.52,.16,.78,.23,.6,.16,1.25,.1,1.83,.47,.77,.49,1.66,.65,2.55,.41,.62-.17,1.22-.46,1.82-.72,.37-.17,.72-.4,1.08-.58,.23-.11,.49-.18,.74-.26,.16-.05,.32-.1,.57-.18-.19-.13-.28-.2-.4-.28,.13-.1,.24-.18,.27-.2,.32,.1,.56,.18,.78,.25-.05,.05-.14,.15-.22,.24,.65,.21,1.27,.42,1.9,.62,1.64,.53,2.69,1.86,3.91,2.94,.65,.57,1.24,1.2,1.86,1.8,.03-.02,.08-.03,.08-.05,.08-.69,.57-1.32,.2-2.07-.07-.14-.03-.4,.06-.56,.3-.57,.65-1.1,.94-1.67,.18-.35,.41-.49,.81-.48,1,.02,2,.02,2.99,0,.16,0,.41-.11,.44-.23,.09-.31,.09-.65,.13-.97,0-.01-.05-.04-.07-.05-.42-.14-.6-.48-.8-.84-.08-.15-.25-.3-.41-.36-.66-.28-1.07-.81-1.53-1.34q1.06-.08,1.07-1.14s0-.06,0-.09c-.07-.48,.15-.61,.61-.61,1.5,.02,2.99,.01,4.49,0,.22,0,.47,.06,.54-.29,.06-.31,.29-.31,.49-.15,.25,.19,.44,.12,.57-.12,.23-.39,.45-.79,.67-1.19-.12,.15-.25,.29-.36,.44,.11-.15,.24-.29,.36-.44,0,0,0,0,0,0,0,0,.01-.01,.01-.02h0s0,0,0,0c.14-.14,.3-.41,.43-.4,.47,.02,.66-.25,.83-.6,.08-.17,.2-.32,.31-.48,.04,.02,.08,.03,.12,.05-.03,.17-.04,.35-.1,.51-.11,.27-.1,.47,.18,.62,.12,.07,.23,.17,.33,.26,.02,.02,.04,.04,.06,.06h0c.13,.4,.24,.1,.28-.03,.16-.43,.29-.88,.42-1.32,.19-.62,.36-1.24,.56-1.91h-.59c.35-.24,.82-.23,.74-.74-.28-.05-.57-.1-.78-.14,.25-.43,.61-.78,.66-1.17,.1-.83,.51-1.45,1.08-2,.2-.2,.45-.37,.58-.61Z"/><path class="cls-3" d="M93.71,43.65c0,.08,.05,.2,.12,.23,.06,.03,.2,0,.24-.06,.21-.27,.4-.56,.64-.91-.7-.1-1.06,.21-1,.74Z"/></g><path id="MEX2708" class="cls-1" d="M54.34,18.45l-.09,.07-.08,.07-.08,.08-.08,.08-.18,.17h-.05s-.05-.06-.05-.06l-.57-.48h-.02s-.04,.04-.04,.04l-.06,.05-.11,.08-.12,.07-.12,.09-.08,.09-.05,.12-.03,.14-.03,.15-.03,.12-.03,.15-.03,.2-.04,.17-.07,.09-.06,.03h-.03s-.03,0-.03,0l-.02-.02v-.06h-.03l-.36,.14-.04,.03-.04,.04-.04,.05-.04,.04-.27,.18-.06,.03-.05,.04-.03,.04v.07s.04,.42,.04,.42l.05,.02h.06s.04,.05,.04,.05v.09s.06,0,.06,0h.05s.04-.04,.04-.04v-.05s0-.02,0-.02v-.02s-.03-.02-.03-.02v-.02l.02-.02h.08s.02-.06,.02-.06v-.04h.03l.04,.06,.06,.04h.09s.08,.02,.08,.02l.06,.04,.02,.07v.11s0,.11,0,.11v.15s0,.08,0,.08v.14s-.06,.18-.06,.18l-.05,.18-.07,.17-.11,.15-.05,.05-.05,.05-.06,.05-.05,.05-.13-.39-.12,.1-.22,.18-.22,.19-.21,.19-.22,.19-.24,.2-.23,.21,.1,.09,.12,.11,.11,.12,.08,.12v.06s.02,.06,.02,.06l.02,.06,.03,.05,.04,.06,.03,.03h.04s.06,0,.06,0l.06,.02,.05,.04,.05,.05,.04,.05,.03,.1v.09s0,.1,0,.1l.03,.09,.07,.06,.09,.04,.08,.05v.09s0,.13,0,.13l-.02,.13v.13l.02,.12,.05,.13,.07,.13,.08,.12,.08,.11,.06,.07,.06,.03h.06s.08,0,.08,0h.03s.03,.02,.03,.02l.02,.02,.03,.02,.02,.04v.03s0,.04,0,.04v.03l.04,.02h.09l.04,.02,.03,.04v.04s0,.04,0,.04v.05l-.09-.03-.1-.05-.11-.03h-.08s-.02,.08-.02,.08l.1,.05,.12,.05,.07,.07,.02,.07,.08,.08,.12,.03,.12,.03,.08,.07v.03l-.02,.03v.03l.03,.03h.05s.07,0,.07,0l.06-.02h.06s.05,0,.05,0h.06s.06,.02,.06,.02h.11l.03,.02,.08,.06,.08,.05,.1,.06,.04,.05-.1,.03h-.03s-.03,.02-.03,.02l-.03,.02v.03s0,.03,0,.03v.08s0,.03,0,.03l-.04,.02h-.07s-.07,0-.07,0h-.05l-.08,.03h-.07s-.07,.02-.07,.02l-.08-.03-.08-.03-.08-.03-.08-.02-.08-.02h-.21l-.19,.06-.18,.1-.18,.12-.08,.09-.08,.15-.05,.13,.08,.05h.06s.05,.06,.05,.06l.1,.1,.04,.07v.05s-.06,.04-.06,.04l-.06,.04-.07,.05v.06s0,.06,0,.06l.03,.1,.03,.09,.02,.08v.07l-.02,.09-.04,.16-.05,.16-.05,.17-.03,.16-.06-.04-.06-.04-.13-.07-.06-.02h-.05s-.06,.03-.06,.03l-.06,.02h-.12s-.13-.07-.13-.07l-.12-.08-.08-.09-.02-.06-.02-.06v-.06s-.04-.05-.04-.05l-.03-.06-.04-.06-.04-.05-.04-.05-.11-.07-.11-.02h-.11s-.13,.04-.13,.04v-.07s0-.02,0-.02l-.06,.06-.07,.07-.12,.13-.06,.04h-.06s-.07,0-.07,0h-.07l-.25-.02h-.09l-.04-.03-.03-.07-.03-.08-.02-.06,.07,.02,.06,.02,.06,.02h.07s0-.06,0-.06v-.07l-.02-.07-.03-.06-.04-.03-.05-.03-.05-.03h-.17l-.13-.03-.11-.07-.09-.09-.04-.09-.05-.12-.06-.12-.06-.06-.96-.29h-.09s-.09,0-.09,0l-.09,.02h-.09s-.23,.04-.23,.04l-.69,.07h-.1s-.06,.03-.06,.03l-.05,.04-.06,.09-.27,.36-.05,.07-.06,.09-.08,.08-.07,.02v.58s-.08-.06-.08-.06l-.07-.05-.07-.05-.07-.05-.13-.06-.13-.05-.13-.03-.13-.03-.14-.04-.14-.05-.13-.08-.08-.13-.02-.13v-.27l-.05-.11-.11-.08-.13-.07-.12-.08-.07-.11-.04-.09-.04-.07-.05-.06-.06-.05-.05-.03-.04-.04-.02-.04v-.06s0-.1,0-.1l.04-.09,.04-.09,.06-.08,.03-.02,.07-.02,.02-.02v-.03s-.03-.04-.03-.04l-.04-.04-.03-.03-.05-.05-.04-.05-.03-.06v-.07l.02-.06,.03-.04,.04-.03,.05-.03,.03-.03,.03-.02h.04s.02-.04,.02-.04l.03-.04,.02-.03,.06-.06,.03-.06,.02-.05,.03-.04,.06-.03,.03-.05v-.1s0-.11,0-.11v-.09s-.02-.17-.02-.17v-.1s-.02-.1-.02-.1v-.1s-.03-.18-.03-.18l-.02-.18v-.19s0-.17,0-.17l.05-.17,.07-.16,.08-.16,.03-.18-.04-.18-.13-.15-.16-.14-.14-.11-.12-.12-.13-.11-.24-.22-.15-.13-.14-.59-.05-.2-.16-.67-.32-1.34-.16-.67-.07-.32-.13-.55-.02-.11,.1-.18,.14-.24,.13-.24,.13-.25,.13-.24,.2-.37,.19-.37,.25-.49,.25-.49,.25-.5,.28-.53c.24,.03,.47,0,.66-.15l.02-.03,.03-.03,.25-.3,.17-.4,.1-.32,.12-.4,.15-.32,.14-.29,.16-.14,.06-.04,.12-.09,.49-.31,.46-.17,.27,.02,1.47,.19,.71,.02v-.02s.04,0,.04,0l.21,.1h.03s.09,.08,.09,.08h.03s.03-.02,.03-.02h.03s0,.03,0,.03v.05s.33,.34,.33,.34l.19,.14,.16,.15,.39,.45h.04s.03-.04,.03-.04l.02,.06,.39,.37,.28,.24,.06,.04,.04,.06,.07,.12,.16,.25v.02s.03,.03,.03,.03h.03s.04,0,.04,0h.03s.03,.06,.03,.06l.02,.21,.06,.15,.21,.47,.07,.11,.02,.02v.02s.03,.03,.03,.03v.02s.03,.04,.03,.04l.24,.57,.1,.12,.03,.03,.02,.03v.09s0,.04,0,.04l.05,.07,.06,.04,.13,.05-.09,.05-.02,.03v.04s.03,.03,.03,.03l.03,.02v.02s.14,.37,.14,.37l.05,.08,.21,.3h.02v.03s.4,.28,.4,.28l.06,.06,.02,.08v.05s.02,.02,.02,.02l.04,.05,.04,.04h.03s0,.03,0,.03v.04s0,.06,0,.06l.03,.05,.03,.04,.04,.06,.05,.02h.06s.04,.04,.04,.04l-.03,.05,.03,.05,.05,.07,.05,.05,.05,.03h0s0,.05,0,.05l.07,.3,.05,.04,.03,.04v.02h.08s0,.02,0,.02h0Z"/></g></g></svg>