<?xml version="1.0" encoding="UTF-8"?><svg id="estados" xmlns="http://www.w3.org/2000/svg" viewBox="0 0 306.04 276.52"><defs><style>.cls-1,.cls-2{fill:#3bb1e6;}.cls-3{fill:#fff;}.cls-4{stroke-width:1.53px;}.cls-4,.cls-2,.cls-5{stroke:#fff;}.cls-4,.cls-5{fill:none;opacity:.67;stroke-miterlimit:10;}.cls-6{fill:#0a2f3a;opacity:.5;}.cls-2{stroke-linecap:round;stroke-linejoin:round;stroke-width:1.37px;}.cls-5{stroke-width:1.67px;}</style></defs><g id="dur-icono"><circle class="cls-6" cx="136.96" cy="151.48" r="97.03"/><circle class="cls-5" cx="136.96" cy="151.48" r="104.09"/><polyline class="cls-4" points="229.53 104.17 271.63 73.79 306.09 73.79"/><polyline class="cls-4" points="229.02 199.66 271.63 220.23 306.09 220.23"/><polyline class="cls-4" points="240.77 150.49 271.63 150.49 306.09 150.49"/><g><path class="cls-1" d="M94.67,219.16v-16.61h4.69c1.45,0,2.72,.32,3.83,.96,1.11,.64,1.97,1.55,2.57,2.73,.6,1.18,.91,2.53,.92,4.06v1.06c0,1.57-.3,2.94-.91,4.12s-1.47,2.08-2.59,2.72c-1.12,.63-2.43,.96-3.92,.97h-4.6Zm2.19-14.82v13.03h2.3c1.69,0,3-.53,3.94-1.58,.94-1.05,1.41-2.55,1.41-4.49v-.97c0-1.89-.44-3.36-1.33-4.4-.89-1.05-2.14-1.58-3.77-1.59h-2.56Z"/><path class="cls-1" d="M117.29,217.94c-.82,.97-2.03,1.45-3.62,1.45-1.32,0-2.32-.38-3.01-1.15-.69-.76-1.04-1.9-1.04-3.4v-8.03h2.11v7.98c0,1.87,.76,2.81,2.28,2.81,1.61,0,2.69-.6,3.22-1.8v-8.98h2.11v12.35h-2.01l-.05-1.22Z"/><path class="cls-1" d="M128.52,208.71c-.32-.05-.67-.08-1.04-.08-1.38,0-2.32,.59-2.82,1.77v8.76h-2.11v-12.35h2.05l.03,1.43c.69-1.1,1.67-1.65,2.94-1.65,.41,0,.72,.05,.94,.16v1.96Z"/><path class="cls-1" d="M137.63,219.16c-.12-.24-.22-.68-.3-1.3-.98,1.02-2.15,1.53-3.51,1.53-1.22,0-2.22-.34-3-1.03-.78-.69-1.17-1.56-1.17-2.62,0-1.29,.49-2.28,1.47-3,.98-.71,2.35-1.07,4.13-1.07h2.05v-.97c0-.74-.22-1.33-.66-1.76-.44-.44-1.09-.66-1.95-.66-.75,0-1.38,.19-1.89,.57-.51,.38-.76,.84-.76,1.38h-2.12c0-.62,.22-1.21,.66-1.79,.44-.57,1.03-1.03,1.78-1.36,.75-.33,1.57-.5,2.47-.5,1.42,0,2.54,.36,3.34,1.07s1.22,1.69,1.26,2.94v5.68c0,1.13,.14,2.04,.43,2.7v.18h-2.21Zm-3.5-1.61c.66,0,1.29-.17,1.88-.51,.59-.34,1.02-.79,1.29-1.34v-2.53h-1.65c-2.59,0-3.88,.76-3.88,2.27,0,.66,.22,1.18,.66,1.55,.44,.37,1.01,.56,1.7,.56Z"/><path class="cls-1" d="M144.71,206.81l.07,1.55c.94-1.19,2.18-1.78,3.7-1.78,2.61,0,3.93,1.47,3.95,4.42v8.16h-2.11v-8.17c0-.89-.21-1.55-.61-1.97s-1.02-.64-1.87-.64c-.68,0-1.29,.18-1.8,.55-.52,.37-.92,.84-1.21,1.44v8.8h-2.11v-12.35h2Z"/><path class="cls-1" d="M155.11,212.88c0-1.92,.45-3.46,1.34-4.59,.89-1.14,2.07-1.71,3.54-1.71s2.68,.53,3.53,1.6l.1-1.37h1.93v12.05c0,1.6-.47,2.86-1.42,3.78-.95,.92-2.22,1.38-3.82,1.38-.89,0-1.76-.19-2.61-.57-.85-.38-1.5-.9-1.95-1.56l1.1-1.27c.91,1.12,2.01,1.68,3.32,1.68,1.03,0,1.83-.29,2.4-.87,.57-.58,.86-1.39,.86-2.44v-1.06c-.84,.97-2,1.46-3.46,1.46s-2.62-.58-3.51-1.75c-.89-1.16-1.34-2.75-1.34-4.76Zm2.12,.24c0,1.39,.29,2.49,.86,3.28,.57,.8,1.37,1.19,2.4,1.19,1.33,0,2.31-.6,2.93-1.81v-5.64c-.65-1.18-1.62-1.77-2.91-1.77-1.03,0-1.83,.4-2.41,1.2s-.87,1.98-.87,3.55Z"/><path class="cls-1" d="M168.16,212.87c0-1.21,.24-2.3,.71-3.26,.48-.97,1.14-1.71,1.99-2.24,.85-.52,1.82-.79,2.9-.79,1.68,0,3.04,.58,4.08,1.75,1.04,1.16,1.56,2.71,1.56,4.64v.15c0,1.2-.23,2.28-.69,3.23-.46,.95-1.12,1.7-1.97,2.23-.86,.53-1.84,.8-2.95,.8-1.67,0-3.03-.58-4.07-1.75-1.04-1.16-1.56-2.7-1.56-4.62v-.15Zm2.12,.25c0,1.37,.32,2.47,.95,3.3s1.49,1.24,2.55,1.24,1.92-.42,2.56-1.26c.63-.84,.95-2.02,.95-3.53,0-1.35-.32-2.45-.96-3.29-.64-.84-1.5-1.26-2.56-1.26s-1.88,.42-2.52,1.24c-.64,.83-.96,2.02-.96,3.56Z"/></g><path id="DUR" class="cls-2" d="M169.39,75.41l1.2,1.04,2,1.76,1.04,.88,.96,.96,1.12,.88,1.28,1.12,1.04,1.2,.32,1.44-.24,1.44-.64,1.28-.56,1.28-.4,1.36-.16,1.36,.08,1.52,.16,1.44,.16,1.44,.08,.8,.08,.8,.08,.8,.08,1.36,.08,.72v.88l-.08,.8-.24,.4-.48,.24-.24,.32-.16,.4-.24,.48-.48,.48-.16,.24-.24,.32-.16,.24-.32,.08-.24,.16-.24,.24-.4,.24-.32,.24-.24,.32-.16,.48v.56l.24,.48,.32,.4,.4,.4,.24,.24,.32,.32,.16,.32,.08,.24-.16,.16-.56,.16-.24,.16-.48,.64-.32,.72-.32,.72-.08,.8,.08,.48,.16,.32,.32,.32,.4,.24,.48,.4,.4,.48,.32,.56,.32,.72,.56,.88,.96,.64,1.04,.56,.88,.64,.4,.88v2.24l.16,1.04,.64,1.04,1.04,.64,1.12,.4,1.12,.32,1.04,.24,1.04,.24,1.04,.4,1.04,.48,.56,.4,.56,.4,.56,.4,.56,.48,.08-4.73,.56-.16,.64-.64,.48-.72,.4-.56,2.24-2.96,.4,.88,.48,.8,.56,.8,.56,.72,.72,.88,.8,.96,.64,1.04,.32,1.04v9.7l-.08,.4-.32,.16-1.76,.16-1.12,.24-1.2,.32-1.12,.32-1.12,.24-1.12-.08-1.12-.16-1.12-.16-4.49-.96-4.49-.96-.96,.24-1.12,.4-1.04,.56-.72,.64-.16,.48v.96l-.24,.4-.4,.16-.48,.08h-.96l-.4,.08-.32,.16-.16,.4v.4l-.16,.4-.32,.16h-.48l-.48,.08-.32,.32-.16,.32-.16,.4-.16,.32-.56,.88-.48,.72-.48,.56-.8,.56-.72,.32-.64,.24-1.12,.48-.88,.56-.24,.4,.16,.56-.08,.56-.08,.72,.16,.72v.88l-.88,.32-.8,.24,.24,.64,.4,.48,.4,.4,.32,.56,.08,.64-.16,.4-.24,.32-.16,.4-.24,.32,.32,.72,.64,.4,.56,.48,.32,.64-.08,.56-.24,.72-.32,.48-.48-.16-.56-.64-.56-.16-.56,.32-.32,.72-.08,.56-.08,.56-.08,.48-.32,.48-.72,.56-.72,.56-.8,.48-.72,.48-.56,.4-.24,.24-.16,.48-.08,.64-.24,3.21-.16,1.04-.08,1.28-.08,.64-.24,.4-.56,.24-.32,.24-.16,.32-.08,.72-.16,2.96-.08,2.96-.08,2.96-.08,2.96-.16,1.12-.24,1.12-.4,1.12-.32,1.04-.4,1.36-.8,2.8-.4,1.44-.16-1.04-.16-1.12-.24-2.08-.88,.4-1.84,.72-.88,.4-.72,.08-.72-.32-1.36-.88-.64-.64-.4-.8-.24-.88-.32-1.28-.08-.4-.16-.32-.16-.24-.56-.32-.8-.56-.8-.4-.56-.08-1.52,1.12-1.52,1.12-.48,.48-.72,.56-.72,.4-.64-.08-.16-.48v-.88l.16-1.52,.08-.72,.16-.4,.24-.4,.48-.48,.96-.96,.56-.56,.24-.32-1.2-2.88-.24-.56-.24-.32-.32-.32-.56-.32-1.12-.56-1.2-.64-1.2-.64-1.2-.4-1.28-.16h-1.36l-1.36,.08-1.28,.08-.16-3.21-.96,.08-1.12,.08-.96-.08-.88-.48-.4-.4-.4-.48-.48-.4-.32-.32-.24-.16-.08-.24-.08-.24-.16-.24-.32-.32-.4-.24-.4-.24-.24-.4v-.96l-.08-.32-.16-.32-.24-.32-.16-.24,.16-.48,.08-.24v-.32l-.08-.24-.4-.4,.08-.24,.08-.24,.08-.24-.32-.64-.4-.56-.4-.56-.16-.64-.4-.08-.4-.08-.4-.08-.32-.16-.48-.4-.24-.56-.16-.72-.08-.56-.24-.48-.24-.48-.24-.4-.16-.48-.24-1.92-.16-1.04-.16-1.12-.08-1.12,.16-1.04,.4-.88,.4-.8,.32-.88,.24-.88-.56,.24-.64,.08-.48-.08-.48-.48-.4-.64-.32-.72-.56-1.44-.24-.72-.32-.88-.32-.8-.48-.64-1.84-1.68-.64-.56-.24-.24-.32-.16-.24-.16-.32-.16-1.04-.16-.88,.16-.96,.48-.8,.64-.32,.4-.24,.4-.32,.4-.32,.32-.4,.16-.4,.08h-1.76l-.4-.16-.48-.4-.4-.4-.48-.4-.88-.88-.24-.4-.08-.4v-.88l-.08-.56-.08-.48-.16-.48-.24-.48-.32-.64-.16-.32-.16-.4-.16-.48-.32-.32-.64-.56-.56-.96-.32-1.04-.48-.88-.88-.56-.48-.24-.32-.4-.24-.48-.24-.48-.32-.24-.4-.08h-.72l-.48-.08-.4-.16-.24-.24-.24-.48v-.8l-.08-.32-.16-.32-.4-.24-.88-.24-.32-.24-.32-.4-.16-.56-.16-.56-.16-.48-.48-1.12-.32-1.2-.32-1.2-.4-1.2-.24-1.28v-1.28l.16-1.36,.24-1.28,.16-1.2,.24-1.28,.32-1.28,.48-.96,.48-.56,.48-.4,.4-.48,.32-.56,.24-.56,.4-.48,.88-.88,2.8,.32,.48,.08,.64,.08,.56,.08,.48-.08,.48-.24,.48-.48,.48-.48,.4-.48,1.92-1.68,.48-.4,.32-.32,.32-.32,.24-.32,.08-.48,.16-3.04v-1.12l.08-.96,.32-.8,.8-.48h.88l.48-.08,.4-.32,.24-.48,.24-.56,.16-.64,.16-.56,.08-1.04-.16-.96-.4-.96-.4-.96-.4-.88-.24-.88,.16-.8,.72-.56,2.24-.64,2.16-.72,.48-.16,.32-.24,.16-.4-.08-.56-.24-.56-.16-.56-.4-1.2,.08-.4,.4-.4,.48-.4,.4-.24,.16-.24v-.4l.08-.72v-1.52l.08-.8,.32-.56,.4-.16,.4,.16,.32,.4,.24,.32,.24-.48,.56-1.04,.24-.56,.16-.24,.08-.16,.32-.4,.4,.32,.4,.24,.8,.56,.96,.8,.96,.8,.96,.8,1.04,.56h.64l.72,.08h.64l.64-.16,.64-.08,.4,.4,.32,.64,.4,.64,.48,.48,.48,.56,.48,.48,.56,.4,3.61,2,2.16,1.2,.48-.08,.72-.4,1.28-.72,2.08-1.12,.72-.32,.32,.32,.64,.72,.88,1.36,.48,.24,.32-.4,.32-.56,.32-.32,.56-.08,.64,.08,.56,.08,.56,.16,1.6,.24,1.36,.48,1.36,.72,1.28,.96,.88,.8,1.04,.88,1.04,.32,.88-.88,1.2-1.6,2.24-3.13,1.12-1.52,.88-1.28,.88-1.28,.88-1.12,1.12-.96,.88-.32,1.04-.16,.96-.08h2.24l.56,.16,.64,.24,3.93,1.68,4.01,1.68h0Z"/><g><g><path class="cls-3" d="M94.07,42.29c.23-.43,.53-.9,.53-1.36,0-.45-.13-.96-.61-1.31-.43-.31-.75-.37-1.12,.1,.1,.03,.19,.06,.29,.09,0,.04-.02,.08-.02,.11-.55-.11-1.12-.15-1.65-.33-.89-.32-1.78-.27-2.58,.07-.81,.34-1.62,.54-2.47,.61-.95,.09-1.84,.3-2.64,.83-.21,.14-.4,.39-.5,.63-.4,.91-.32,1.89-.33,2.86,0,.2-.06,.48-.2,.57-.39,.26-.52,.65-.49,1.05,.04,.7-.43,1.02-.89,1.36-.32,.24-.7,.41-1.03,.64-.18,.13-.31,.32-.46,.48h0s0,0,0,0c-.34,.16-.68,.31-1.01,.47,0,0,0,0-.01,0,0,0,0,0,0,0-.73-.39-2.31-.19-2.94,.35-.13,.11-.32,.16-.5,.21-.88,.25-1.86-.18-2.72,.52-.42,.34-1.14,.33-1.73,.43-.16,.03-.43-.04-.52-.16-.38-.47-.67-.95-1.32-1.22-.49-.2-.93-.43-1.48-.42-.38,0-.76-.07-1.03-.1-.28-.42-.52-.79-.76-1.15-.35-.52-.85-.94-.93-1.61-.1-.86-.61-1.52-1.19-2.07-.91-.88-1.49-1.93-1.91-3.09-.07-.18-.04-.44,.03-.63,.17-.4,.19-.71-.2-1.02-.6-.48-.98-1.11-1.07-1.9-.04-.32-.17-.63-.21-.96-.03-.23,.02-.47,.05-.7,.07-.45,.16-.9,.22-1.35,.03-.23-.04-.47-.02-.7,.08-1.06,.14-2.12,.28-3.16,.18-1.28,.42-2.54,1.07-3.7,.27-.47,.36-1.05,.51-1.59,.04-.13-.02-.29-.03-.43-.17,.03-.38,.02-.51,.11-.26,.19-.49,.14-.67-.05-.34-.38-.78-.38-1.24-.42-.38-.03-.77-.1-1.12-.25-.65-.26-1.25-.62-1.9-.86-.29-.11-.51-.22-.64-.51-.28-.59-.6-1.15-.88-1.73-.05-.1-.03-.24-.05-.36-.05-.42-.08-.85-.18-1.27-.04-.17-.21-.33-.34-.47-.3-.32-.61-.62-.9-.94-.31-.34-.6-.7-.89-1.05-.1-.12-.22-.23-.28-.36-.25-.53-.46-1.09-.72-1.61-.39-.78-.62-1.66-1.45-2.16-.31-.19-.5-.6-.81-.79-.34-.21-.45-.69-.98-.69-.73-.01-1.46-.16-2.2-.25-.1-.01-.21,0-.3,.04-.22,.09-.44,.18-.64,.3-.21,.13-.46,.27-.57,.48-.21,.38-.35,.8-.47,1.21-.28,.99-1.01,1.24-1.83,.66-.4-.28-.87-.45-1.3-.69-.27-.15-.52-.32-.78-.49-.15-.1-.28-.25-.44-.33-.75-.36-1.03-1.07-1.1-1.78-.08-.84-.48-1.5-.93-2.12-.27-.38-.82-.54-1.19-.86-.49-.42-.93-.91-1.41-1.35-.25-.23-.53-.43-.78-.65-.23-.21-.53-.4-.66-.67-.22-.47-.54-.64-1.03-.63-1.34,0-2.68,0-4.02,0-1.15,0-1-.11-.99,1,0,.47-.14,.62-.61,.62-2.54-.02-5.08,0-7.63-.01-.28,0-.57-.03-.83-.12-3.48-1.25-6.95-2.52-10.42-3.79-.74-.27-.74-.28-.59-1.06-.18,0-.34-.01-.5,0-2.16,.19-4.31,.38-6.47,.58-.52,.05-.59,.19-.36,.68,.08,.17,.21,.31,.3,.46,.1,.17,.2,.34,.3,.51,.11,.19,.19,.42,.34,.58,.28,.31,.51,.6,.35,1.06-.1,.31,.06,.54,.29,.77,.4,.42,.87,.82,.75,1.52-.02,.09,.1,.24,.19,.32,.45,.4,.89,.78,.68,1.5-.04,.15,.13,.53,.22,.53,.46,.03,.51,.33,.49,.65-.04,.63,.18,1.23,.52,1.65,.42,.5,1.09,.79,1.65,1.16,.24,.16,.54,.26,.73,.46,.82,.86,1.61,1.74,2.39,2.63,.08,.09,.11,.27,.08,.39-.14,.53-.03,1.15-.53,1.56-.07,.05-.06,.2-.08,.3-.1,.02-.22,.02-.3,.07-.35,.26-.72,.24-1.11,.12-.16-.05-.33-.1-.5-.09-.16,0-.31,.09-.47,.13,.1,.16,.18,.35,.31,.47,.51,.5,1.33,.7,1.46,1.56,0,.06,.1,.12,.16,.16,.45,.25,.88,.58,1.36,.72,.37,.11,.57,.3,.78,.59,.19,.27,.41,.55,.82,.19,.28-.25,1,.05,1.2,.38,.11,.19,.28,.35,.43,.52,.59,.7,1.61,.82,2.16,1.64,.41,.62,.65,1.97,.33,2.66-.23,.49-.36,1.02-.56,1.61,.27,.04,.49,.1,.71,.1,.4,.01,.7,.12,.75,.57-.12,.07-.23,.14-.39,.23,.3,.24,.56,.44,.81,.64,.04-.03,.08-.06,.12-.09-.05-.17-.11-.35-.18-.58,.12,.06,.21,.08,.27,.13,1.03,.91,2.32,1.51,3.18,2.64,.08,.1,.23,.17,.36,.22,.63,.23,.88,.75,1.03,1.35,.07,.27,.12,.55,.22,.81,.2,.49,.53,.55,.94,.23,.25-.19,.51-.36,.76-.53,.63-.43,.6-1.45-.03-1.86-.16-.1-.27-.31-.36-.49-.16-.31-.23-.67-.43-.94-.18-.24-.48-.38-.73-.57-.27-.21-.53-.43-.8-.64-.04,.02-.08,.05-.12,.07,.03,.26,.06,.53,.09,.79,0,0,0,0,0,.01,0,0,0,0,0,0-.15-.07-.3-.15-.45-.21-.51-.22-.88-1.05-.66-1.56,.2-.46,.1-.82-.21-1.2-.23-.28-.39-.62-.56-.95-.14-.27-.19-.6-.39-.82-.44-.5-.85-.97-.79-1.69,.01-.13-.02-.28-.07-.41-.19-.52-.39-1.04-.59-1.57-.2-.53-.47-.98-1.14-.99-.09,0-.25-.24-.24-.35,.06-.34-.09-.48-.37-.6-.12-.05-.18-.23-.27-.35-.35-.42-.31-1.11-.95-1.31-.53-.17-.72-.58-.8-1.09-.08-.52-.18-1.04-.32-1.55-.04-.14-.24-.22-.37-.34-.15-.13-.4-.24-.42-.39-.12-.74-.73-.98-1.26-1.32-.19-.67-.47-1.24-1-1.77-.62-.6-1.46-.93-1.95-1.67-.27-.4-.47-.77-.48-1.27-.02-.69-.13-1.38-.2-2.07,0-.09-.05-.19-.11-.25-.68-.73-.37-1.56-.2-2.34,.11-.49,.47-.54,.88-.24,.25,.18,.49,.41,.77,.51,.25,.09,.55,.08,.83,.06,.15-.01,.31-.22,.43-.19,.18,.04,.44,.18,.48,.32,.18,.68,.72,.73,1.28,.88,.68,.18,.71,.33,.52,.89-.23,.68,.01,1.23,.42,1.77,.26,.35,.55,.79,.55,1.19,0,.85,.58,1.37,.91,2.03,.1,.2,.12,.43,.21,.63,.06,.13,.16,.26,.27,.35,.08,.07,.2,.08,.3,.12,.03,.04,.05,.09,.08,.13-1.18-.13-.84,.8-1.13,1.38,.29,.11,.57,.33,.79,.28,.22-.06,.37-.38,.6-.65,.18,.24,.36,.49,.56,.74,.29,.38,.52,.87,.91,1.08,.48,.26,.72,.64,1.01,1.04,.2,.28,.48,.51,.77,.72,.19,.14,.43,.19,.65,.28,.18-.07,.42-.14,.55-.05,.13,.08,.18,.33,.21,.51,.03,.21-.06,.46,.02,.64,.13,.32,.39,.58,.54,.89,.18,.37,.47,.63,.86,.63,.63-.01,.75,.35,.84,.85,.09,.51,.39,.74,.91,.65,.51-.1,.76,.23,.9,.55,.12,.26,.03,.64-.03,.95-.04,.2-.21,.38-.32,.57-.2,.35-.09,.98,.21,1.21,.2,.16,.43,.28,.6,.47,.35,.4,.72,.74,1.31,.67,.07,0,.14,.05,.21,.09,.25,.15,.5,.32,.75,.47,.33,.19,.66,.37,.99,.56-.02,.04-.05,.08-.07,.12-.16-.1-.31-.19-.51-.31,.35,1.03,1.37,2.23,2.46,2.29-.36,.38-.03,.53,.2,.71,.21,.17,.42,.32,.62,.49,.33,.3,.68,.59,.97,.93,.34,.39,.64,.83,.96,1.25,.09,.12,.2,.24,.3,.35,.5,.59,.94,1.24,1.51,1.75,.69,.61,.99,1.32,1.06,2.2,.03,.33,.12,.67,.25,.97,.25,.55,.49,1.13,1.1,1.28-.02,.28-.07,.48-.04,.68,.05,.39-.05,.68-.34,.96-.21,.2-.35,.47-.57,.77,.24,.06,.37,.07,.47,.13,.13,.07,.24,.18,.36,.28-.1,.1-.18,.24-.3,.3-.17,.07-.36,.07-.55,.12-.48,.12-.56,.37-.27,.77,.09,.12,.15,.27,.22,.4,.15,.32,.25,.67,.45,.95,.31,.46,.68,.88,1.04,1.3,.21,.24,.41,.53,.67,.67,.95,.49,2,.8,2.86,1.47,.46,.36,.8,.88,1.21,1.31,.18,.19,.38,.41,.62,.51,.56,.23,1.14,.41,1.72,.59,.58,.18,1.17,.34,1.75,.5,.08,.02,.2,.03,.27,0,.48-.28,.78,.02,1.09,.32,.25,.24,.5,.5,.78,.71,.48,.36,.97,.7,1.46,1.04,.14,.1,.29,.18,.45,.24,.57,.21,1.15,.39,1.72,.62,.56,.23,1.09,.52,1.64,.76,.33,.15,.67,.28,1.02,.38,.98,.28,2.08,.21,2.84,1.08,.1,.12,.3,.15,.46,.22,.56,.25,1.12,.51,1.69,.75,.25,.1,.52,.16,.78,.23,.6,.16,1.25,.1,1.83,.47,.77,.49,1.66,.65,2.55,.41,.62-.17,1.22-.46,1.82-.72,.37-.17,.72-.4,1.08-.58,.23-.11,.49-.18,.74-.26,.16-.05,.32-.1,.57-.18-.19-.13-.28-.2-.4-.28,.13-.1,.24-.18,.27-.2,.32,.1,.56,.18,.78,.25-.05,.05-.14,.15-.22,.24,.65,.21,1.27,.42,1.9,.62,1.64,.53,2.69,1.86,3.91,2.94,.65,.57,1.24,1.2,1.86,1.8,.03-.02,.08-.03,.08-.05,.08-.69,.57-1.32,.2-2.07-.07-.14-.03-.4,.06-.56,.3-.57,.65-1.1,.94-1.67,.18-.35,.41-.49,.81-.48,1,.02,2,.02,2.99,0,.16,0,.41-.11,.44-.23,.09-.31,.09-.65,.13-.97,0-.01-.05-.04-.07-.05-.42-.14-.6-.48-.8-.84-.08-.15-.25-.3-.41-.36-.66-.28-1.07-.81-1.53-1.34q1.06-.08,1.07-1.14s0-.06,0-.09c-.07-.48,.15-.61,.61-.61,1.5,.02,2.99,.01,4.49,0,.22,0,.47,.06,.54-.29,.06-.31,.29-.31,.49-.15,.25,.19,.44,.12,.57-.12,.23-.39,.45-.79,.67-1.19-.12,.15-.25,.29-.36,.44,.11-.15,.24-.29,.36-.44,0,0,0,0,0,0,0,0,.01-.01,.01-.02h0s0,0,0,0c.14-.14,.3-.41,.43-.4,.47,.02,.66-.25,.83-.6,.08-.17,.2-.32,.31-.48,.04,.02,.08,.03,.12,.05-.03,.17-.04,.35-.1,.51-.11,.27-.1,.47,.18,.62,.12,.07,.23,.17,.33,.26,.02,.02,.04,.04,.06,.06h0c.13,.4,.24,.1,.28-.03,.16-.43,.29-.88,.42-1.32,.19-.62,.36-1.24,.56-1.91h-.59c.35-.24,.82-.23,.74-.74-.28-.05-.57-.1-.78-.14,.25-.43,.61-.78,.66-1.17,.1-.83,.51-1.45,1.08-2,.2-.2,.45-.37,.58-.61Z"/><path class="cls-3" d="M93.71,43.65c0,.08,.05,.2,.12,.23,.06,.03,.2,0,.24-.06,.21-.27,.4-.56,.64-.91-.7-.1-1.06,.21-1,.74Z"/></g><path id="MEX2710" class="cls-1" d="M42.54,22.37l.15,.13,.24,.22,.13,.11,.12,.12,.14,.11,.16,.14,.13,.15,.04,.18-.03,.18-.08,.16-.07,.16-.05,.17-.02,.17v.19s.03,.18,.03,.18l.02,.18v.1s.02,.1,.02,.1v.1s.02,.17,.02,.17v.09s0,.11,0,.11v.1s-.04,.05-.04,.05l-.06,.03-.03,.04-.02,.05-.03,.06-.06,.06-.02,.03-.03,.04-.02,.03h-.04s-.03,.03-.03,.03l-.03,.03-.05,.03-.04,.03-.03,.04-.02,.06v.07l.03,.06,.04,.05,.05,.05,.03,.03,.04,.04,.02,.04v.03s0,.02,0,.02l-.07,.02-.03,.02-.06,.08-.04,.09-.04,.09v.1s0,.06,0,.06l.02,.04,.04,.04,.05,.03,.06,.05,.05,.06,.04,.07,.04,.09,.07,.11,.12,.08,.13,.07,.11,.08,.05,.11v.27l.02,.13,.08,.13,.13,.08,.14,.05,.14,.04,.13,.03,.13,.03,.13,.05,.13,.06,.07,.05,.07,.05,.07,.05,.07,.06v-.58s.08-.02,.08-.02l.08-.08,.06-.09,.05-.07,.27-.36,.05,.11,.06,.1,.07,.1,.07,.09,.09,.11,.1,.12,.08,.13,.04,.13v1.23s-.05,.02-.05,.02l-.22,.02-.14,.03-.15,.04-.14,.04-.14,.03h-.14s-.14-.03-.14-.03l-.14-.02-.55-.12-.55-.12-.12,.03-.14,.05-.13,.07-.09,.08-.02,.06v.12l-.03,.05-.05,.02h-.06s-.07,0-.07,0h-.1s-.04,.03-.04,.03l-.02,.05v.05l-.02,.05-.04,.02h-.12s-.04,.05-.04,.05l-.02,.04-.02,.05-.02,.04-.07,.11-.06,.09-.06,.07-.1,.07-.09,.04-.08,.03-.14,.06-.11,.07-.03,.05,.02,.07v.07s-.02,.09-.02,.09l.02,.09v.11l-.11,.04-.1,.03,.03,.08,.05,.06,.05,.05,.04,.07v.08s0,.05,0,.05l-.03,.04-.02,.05-.03,.04,.04,.09,.08,.05,.07,.06,.04,.08v.07s-.04,.09-.04,.09l-.04,.06-.06-.02-.07-.08-.07-.02-.07,.04-.04,.09v.07s-.02,.07-.02,.07v.06s-.05,.06-.05,.06l-.09,.07-.09,.07-.1,.06-.09,.06-.07,.05-.03,.03-.02,.06v.08s-.04,.39-.04,.39l-.02,.13v.16s-.02,.08-.02,.08l-.03,.05-.07,.03-.04,.03-.02,.04v.09s-.03,.36-.03,.36v.36s-.02,.36-.02,.36v.36s-.03,.14-.03,.14l-.03,.14-.05,.14-.04,.13-.05,.17-.1,.34-.05,.18-.02-.13-.02-.14-.03-.25-.11,.05-.23,.09-.11,.05h-.09s-.09-.03-.09-.03l-.17-.11-.08-.08-.05-.1-.03-.11-.04-.16v-.05s-.03-.04-.03-.04l-.02-.03-.07-.04-.1-.07-.1-.05h-.07s-.19,.13-.19,.13l-.19,.14-.06,.06-.09,.07-.09,.05h-.08s-.02-.07-.02-.07v-.11l.02-.19v-.09s.03-.05,.03-.05l.03-.05,.06-.06,.12-.12,.07-.07,.03-.04-.15-.35-.03-.07-.03-.04-.04-.04-.07-.04-.14-.07-.15-.08-.15-.08-.15-.05-.16-.02h-.33s-.16,.02-.16,.02l-.02-.39h-.12s-.14,.02-.14,.02h-.12s-.11-.07-.11-.07l-.05-.05-.05-.06-.06-.05-.04-.04-.03-.02v-.03s-.02-.03-.02-.03l-.02-.03-.04-.04-.05-.03-.05-.03-.03-.05v-.16s-.03-.04-.03-.04l-.03-.04-.02-.03,.02-.06v-.03s0-.04,0-.04v-.03s-.06-.05-.06-.05v-.03s.02-.03,.02-.03v-.03s-.03-.08-.03-.08l-.05-.07-.05-.07-.02-.08h-.05s-.05-.02-.05-.02h-.05s-.04-.03-.04-.03l-.06-.05-.03-.07-.02-.09v-.07s-.04-.06-.04-.06l-.03-.06-.03-.05-.02-.06-.03-.24-.02-.13-.02-.14v-.14s0-.13,0-.13l.05-.11,.05-.1,.04-.11,.03-.11-.07,.03h-.08s-.06,0-.06,0l-.06-.06-.05-.08-.04-.09-.07-.18-.03-.09-.04-.11-.04-.1-.06-.08-.23-.21-.08-.07-.03-.03-.04-.02-.03-.02-.04-.02-.13-.02-.11,.02-.12,.06-.1,.08-.04,.05-.03,.05-.04,.05-.04,.04-.05,.02h-.05s-.05,0-.05,0h-.17l-.05-.02-.06-.05-.05-.05-.06-.05-.11-.11-.03-.05v-.05s0-.05,0-.05v-.13s-.02-.06-.02-.06l-.02-.06-.03-.06-.04-.08-.02-.04-.02-.05-.02-.06-.04-.04-.08-.07-.07-.12-.04-.13-.06-.11-.11-.07-.06-.03-.04-.05-.03-.06-.03-.06-.04-.03h-.05s-.04,0-.04,0h-.11s-.05-.03-.05-.03l-.03-.03-.03-.06v-.14s-.03-.04-.03-.04l-.05-.03-.11-.03-.04-.03-.04-.05-.02-.07-.02-.07-.02-.06-.06-.14-.04-.15-.04-.15-.05-.15-.03-.16v-.16l.02-.17,.03-.16,.02-.15,.03-.16,.04-.16,.06-.12,.06-.07,.06-.05,.05-.06,.04-.07,.03-.07,.05-.06,.11-.11,.34,.04h.06s.08,.02,.08,.02h.07s.06,0,.06,0l.06-.03,.06-.06,.06-.06,.05-.06,.24-.21,.06-.05,.04-.04,.04-.04,.03-.04v-.06s.03-.37,.03-.37v-.25s.05-.1,.05-.1l.1-.06h.17s.05-.05,.05-.05l.03-.06,.03-.07,.02-.08,.02-.07v-.13s0-.12,0-.12l-.05-.12-.05-.12-.05-.11-.03-.11,.02-.1,.09-.07,.27-.08,.26-.09,.06-.02,.04-.03,.02-.05v-.07s-.04-.07-.04-.07l-.02-.07-.05-.15v-.05s.06-.05,.06-.05l.06-.05,.05-.03,.02-.03v-.14s0-.08,0-.08v-.21s.05-.07,.05-.07l.05-.02,.05,.02,.04,.05,.03,.04,.03-.06,.07-.13,.03-.07,.02-.03v-.02s.05-.05,.05-.05l.05,.04,.05,.03,.1,.07,.12,.1,.12,.1,.12,.1,.13,.07h.17s.08,0,.08,0l.08-.02h.08s.05,.04,.05,.04l.04,.08,.05,.08,.06,.06,.06,.07,.06,.06,.07,.05,.44,.24,.26,.15h.06s.09-.06,.09-.06l.16-.09,.25-.14,.09-.04,.04,.04,.08,.09,.11,.17,.06,.03,.04-.05,.04-.07,.04-.04h.07s.08,0,.08,0h.07s.07,.03,.07,.03l.2,.03,.17,.06,.17,.09,.16,.12,.11,.1,.13,.11,.13,.04,.11-.11,.15-.2,.27-.38,.14-.19,.11-.16,.11-.16,.11-.14,.14-.12,.11-.04,.13-.02h.12s.12,0,.12,0h.16l.07,.02,.08,.03,.48,.21,.49,.21h0Z"/></g></g></svg>