<svg xmlns="http://www.w3.org/2000/svg" viewBox="0 0 306.04 276.52"><defs><style>.cls-1{fill:#fef6fc;}.cls-1,.cls-2,.cls-3{stroke:#6d4162;stroke-miterlimit:10;stroke-width:0.78px;}.cls-2,.cls-3{fill:none;}.cls-3{isolation:isolate;}.cls-4{fill:#713972;}.cls-5{fill:#b25fac;}.cls-6{fill:#f230b9;}</style></defs><g id="estados"><circle class="cls-1" cx="136.96" cy="151.48" r="97.03"/><circle class="cls-2" cx="136.96" cy="151.48" r="104.09"/><polyline class="cls-3" points="213.34 81.1 271.32 41.25 305.78 41.25"/><polyline class="cls-3" points="214.19 220.92 271.32 255.56 305.78 255.56"/><polyline class="cls-3" points="239.72 131.27 272.01 116.16 306.47 116.16"/><polyline class="cls-3" points="238.56 172.75 271 186.07 305.46 186.07"/><path class="cls-4" d="M105.71,217a5.09,5.09,0,0,1-2.36,1.81,9.51,9.51,0,0,1-3.52.6,6.78,6.78,0,0,1-3.6-1,6.31,6.31,0,0,1-2.44-2.71,9.34,9.34,0,0,1-.88-4.07V210.2a8.74,8.74,0,0,1,1.75-5.82,6.09,6.09,0,0,1,4.92-2.07,6.34,6.34,0,0,1,4.19,1.33,5.82,5.82,0,0,1,1.94,3.77h-2.19a3.62,3.62,0,0,0-3.93-3.3,3.88,3.88,0,0,0-3.34,1.54,7.66,7.66,0,0,0-1.14,4.49v1.36a7,7,0,0,0,1.28,4.44,4.13,4.13,0,0,0,3.45,1.65,7.72,7.72,0,0,0,2.16-.27,3.3,3.3,0,0,0,1.53-.92v-3.72H99.68v-1.8h6Z"/><path class="cls-4" d="M116.65,217.94a4.5,4.5,0,0,1-3.61,1.45,3.86,3.86,0,0,1-3-1.15,5,5,0,0,1-1-3.4v-8h2.12v8c0,1.87.76,2.8,2.28,2.8a3.17,3.17,0,0,0,3.22-1.8v-9h2.11v12.35h-2Z"/><path class="cls-4" d="M127,219.39a5.39,5.39,0,0,1-4.09-1.65,6.12,6.12,0,0,1-1.57-4.41v-.39a7.35,7.35,0,0,1,.7-3.28,5.48,5.48,0,0,1,2-2.26,4.88,4.88,0,0,1,2.73-.82,4.63,4.63,0,0,1,3.75,1.59,6.87,6.87,0,0,1,1.33,4.54v.88h-8.36a4.38,4.38,0,0,0,1.06,2.95,3.37,3.37,0,0,0,2.6,1.12,3.74,3.74,0,0,0,1.9-.45A4.84,4.84,0,0,0,130.4,216l1.29,1A5.17,5.17,0,0,1,127,219.39Zm-.27-11.07a2.81,2.81,0,0,0-2.14.93,4.46,4.46,0,0,0-1.07,2.6h6.18v-.16a4,4,0,0,0-.87-2.49A2.63,2.63,0,0,0,126.77,208.32Z"/><path class="cls-4" d="M140.26,208.7a6.66,6.66,0,0,0-1-.08,2.77,2.77,0,0,0-2.81,1.77v8.77h-2.12V206.81h2.06l0,1.43a3.3,3.3,0,0,1,3-1.66,2.22,2.22,0,0,1,.93.16Z"/><path class="cls-4" d="M148.17,208.7a6.66,6.66,0,0,0-1-.08,2.79,2.79,0,0,0-2.82,1.77v8.77H142.2V206.81h2.06l0,1.43a3.27,3.27,0,0,1,3-1.66,2.22,2.22,0,0,1,.93.16Z"/><path class="cls-4" d="M155,219.39a5.39,5.39,0,0,1-4.09-1.65,6.12,6.12,0,0,1-1.57-4.41v-.39a7.35,7.35,0,0,1,.7-3.28,5.48,5.48,0,0,1,2-2.26,4.89,4.89,0,0,1,2.74-.82,4.62,4.62,0,0,1,3.74,1.59,6.87,6.87,0,0,1,1.33,4.54v.88h-8.36a4.34,4.34,0,0,0,1.07,2.95,3.33,3.33,0,0,0,2.59,1.12,3.74,3.74,0,0,0,1.9-.45,4.84,4.84,0,0,0,1.35-1.21l1.29,1A5.17,5.17,0,0,1,155,219.39Zm-.26-11.07a2.82,2.82,0,0,0-2.15.93,4.46,4.46,0,0,0-1.07,2.6h6.18v-.16a4.05,4.05,0,0,0-.86-2.49A2.65,2.65,0,0,0,154.76,208.32Z"/><path class="cls-4" d="M168.24,208.7a6.63,6.63,0,0,0-1-.08,2.78,2.78,0,0,0-2.82,1.77v8.77h-2.11V206.81h2.05l0,1.43a3.3,3.3,0,0,1,2.95-1.66,2.22,2.22,0,0,1,.93.16Z"/><path class="cls-4" d="M169.4,212.87a7.2,7.2,0,0,1,.71-3.26,5.24,5.24,0,0,1,2-2.24,5.32,5.32,0,0,1,2.9-.79,5.2,5.2,0,0,1,4.08,1.75,6.7,6.7,0,0,1,1.56,4.64v.15a7.4,7.4,0,0,1-.69,3.24,5.3,5.3,0,0,1-2,2.23,5.48,5.48,0,0,1-2.95.8,5.22,5.22,0,0,1-4.07-1.75A6.7,6.7,0,0,1,169.4,213Zm2.12.25a5.32,5.32,0,0,0,.95,3.3,3.24,3.24,0,0,0,5.11,0,5.79,5.79,0,0,0,.95-3.53,5.29,5.29,0,0,0-1-3.29,3.07,3.07,0,0,0-2.56-1.26,3,3,0,0,0-2.52,1.24A5.74,5.74,0,0,0,171.52,213.12Z"/><path id="GRO" class="cls-5" d="M158,101.82l-.3.6-.2.6.1.5.7.2.6.1.1.5.2.6.6.2.2.4.5.8.2.4.3.4.3.3.4.2h.4l.6.1.2.5v.7l.3.3h2l.7-.1.1-.3.1-.4.1-.9.2-.8.4-.6.6-.4.8.1.3.1.2.1.2.2v.3l.1.4v.5l.1.3.3.3.2.3.2.2.1.2.1.4.4.9.7.7.6.7.3,1.2.1.5v1.5l.2.5.2.3.1.4v.5l.9-.1v.4l.1.4.09.4.3.3.6.4.4-.3.41-.2.4.1.1,1.3.2.6.5.3h.5l.8.1.7.2.4.2.4,1.5.9,1.2,1.2.8,1.4.6.6.2.7.1.6.2.6.1.3.2.3.1.3.1.3.1,1,.2,1.09.1,1-.1,1-.2.6-.2h.3l.4.1.41.4,1.7,1.9.59.6.1.5-.2.6-.4.7-.2.6-.1.7-.2.6-.1.6-.1.5-.3.8-.2,1.3-.09.8v.8l.5.6.2.1.09.2v.2l-.2.2-.3.3-.09.4.09.5.1.5.7.6.41.5.4.5.1.4v.5l-.3.9.2.2.3.7-.1.6-.2.7-.1.7.2.6.4.3,1.2.5.5.7.4.9.5.7.8.2.9-.1.4.1.4.1.4.5,1.1,1.2.9,1.3,1,1.3.9,1.3.2.3.1.3.1.4-.1.4-.1.3-.1.4-.1.3-.2.3-.2.5-.3.4-.3.4-.3.4-.2.4.1.3v.3l-.1.4v.6l-.2,1.2-.1.6-.1.6-.2.4-.3.3-.4.3-.2.3-.1.2-.3.3-.2.1-.2.1-.5.2-.4.2-.4.1-.5-.1-.4-.1h-.8l-.4.2.3.9.3.9.1,1-.3.9-.2.4-.7.2h-.5l-.5-.2h-.6l-.8.4-.4.6v.7l.5.8.5,1.1-.2,1-.7.9-.8.8-.8.5-.8.1h-.8l-.9.1-.8.2-.7.3-.5.4-.5.5-.1.1-.4-.2v-.1l.1-.1V179l-.5-.7-1.2-1-2.5-2.3-1.2-1.7-.9-1-.1-.2-.3-.2-.4.1-.5-.2-.2.2h-.3l-.3.1-.5.1-.1.2-.2.4-1-.2h-.6l-1.2-.5-6.2-2-5.2-1.4-2.1-.5-3.8-.6h-2l-1.5.1-1-.2-.8-.3-.8-.3-1.7-.7-1.7-1.4-.8-.6h-.2l-.2.3-.3-.2-.1-.2-.3-.1.2-.1.4.2.1-.3-.2-.2-.2-.1-.2.2-.3-.1h-.2l-.2-.2.2-.1V163l.2-.3.2.1.2-.1v-.2l-.3-.3-.2-.2-.5-.1-.5.2-.3.3v.2l.3-.1.2.1-.3.3-.4.1-.2-.2-.2-.8-.2-.1-.7-.8-.1-.3-1.1-.5-2.3-.9-1.6-.4-1.6-.6-2.1-.8-2.7-1.1-7.7-2.7-2.8-.9-1.9-.6-2.1-1-1.7-.6-2.1-.6-1.7-.6-1.7-.6-1.1-.5-.5.2-.2-.4.4-.2-.1-.7-.5-.6-1-1-2.1-1.3-.4-.7-2.5-1.5-2.7-.9-1.4-.7-2-.7v-.4h.4l.1-.6-.3-.5-.3-.4-1.2-1-.9-.1-.9.2-.1-.5h-.4l-.3-.3h-.5l-.1-.6-.5-.2-.9-.3-.1-1.2-.8-1.2-.8-.5-1.5-1.2-.4-.8-.4-.4-.1-.7-1.2-1.3-1.4-.7-.5-.2-1.9-1.1-1.8-.8-1.5-.6-2,.3-.3.6-.6.4-.5.6-.6.3-.2.1.3-.6.2-.3.1-.3-.1-.5-.6-1-.2-.6v-1.9l.1-1,.2-.9.2-.6.1-.3.3-.3.3-.3.3-.2h1.4l.5-.1.5-.2.5-.1h.5l.5.1.4-.1.5-.3H80l.6.1h.3l.3-.1.2-.2v-.3l.2-.3.4-.6.6-.7.3-.8.1-.8-.4-2.3-.2-2.3.4-2.1,1.3-1.8,1.2-.4,1.3-.1,2.6.2.5.1.5.1.5.2.4.4.3.5.2.4.3.5.5.4.6.4.6.3.7.2.8.1,1.7-.3,1.6-.5,1.7-.4,1.59-.5.8-.3,5,.3,1.6-.4h.7l.7.4.1.1v.6l.2.2v-.1l.3-.1h.4l.2.1.1.4.2.8,1.1-.3.2-.3-.4-.5,3.4.1.4.2,1.1,1.2.4.3.5.3.5.2v-.1l.21-.5v-.1l.09.1.3.1h.1l.1.2.1.3.1.5v.3l-.3.3-.3.3-.2.4v.5l.3.5.7.7,1-1,.1-.1.4.2.2.5.5-.7.4-.7.2-.7-.3-.6-.8-.6-.8-.6-.8-.6-.9-.6-.6-.5-.3-.6-.09-.7v-1.7l-.2-.7-.21-.7-.29-.7-.1-.8.2-.5.4-.5.2-.7-.3-.5-.6-.6-.5-.5v-.6l.4-.5.4-.5.4-.6.5-.3.7.1.5.5.2.8.2.7.3-.2.4-.4.3-.4.1-.6.2-.3.6-.6,1.2.4,1.2.3,1.2.2h1.7l.3.1.1.4v.5l.1.4.2.2.2.3v.4l-.3.6-.3.6v.7l.3.7.2.4v.8l-.1.4.1.4.2.3.3.3.2.3,1.2,1.1.5.7.2.7-.1.9-.3.9-.2.8.3.6.3.3.2.3.5.5.3.3.4.2h.5l.4-.1.4-.3.2-.3.2-.3.4-.1.7-.6.7-.5.7-.6.7-.6.7-.8.6-.8.4-.9.6-1.2.1-.2.7-.1.6-.1.6-.2.7-.2.6-.2.6-.2.7-.2.6-.2.4-.1.3-.1.7-.2h.5l.5.1.5.4.4.5.3.3.4.1.5-.5.3-.4.1-.3v-.8l.2-.4.3-.2.3-.2.9-.8.5-.5.8-.7.6.3.6.7.6.6.4.1.2.2.3.7.4.4.8.1.7.1.6-.2Z"/><path class="cls-1" d="M94.07,42.29a3.19,3.19,0,0,0,.53-1.36A1.53,1.53,0,0,0,94,39.62c-.42-.31-.74-.36-1.12.11l.29.08,0,.12a11.22,11.22,0,0,1-1.65-.34,3.48,3.48,0,0,0-2.58.07,8,8,0,0,1-2.47.61,5.56,5.56,0,0,0-2.64.84,1.41,1.41,0,0,0-.5.63A7.05,7.05,0,0,0,83,44.59a.88.88,0,0,1-.2.58,1.09,1.09,0,0,0-.5,1c0,.7-.43,1-.89,1.37s-.69.41-1,.64a4.27,4.27,0,0,0-.47.48h0l-1,.48h0a3.35,3.35,0,0,0-3,.34,1.34,1.34,0,0,1-.5.22c-.88.24-1.85-.18-2.71.52a3.91,3.91,0,0,1-1.73.43.65.65,0,0,1-.53-.16,3.25,3.25,0,0,0-1.32-1.22,3.61,3.61,0,0,0-1.47-.42,9,9,0,0,1-1-.11c-.28-.42-.51-.79-.76-1.15-.34-.51-.85-.94-.93-1.61A3.42,3.42,0,0,0,63.75,44a7.79,7.79,0,0,1-1.91-3.09,1,1,0,0,1,0-.63.74.74,0,0,0-.2-1,2.81,2.81,0,0,1-1.07-1.9c0-.32-.17-.63-.2-1a2.39,2.39,0,0,1,.05-.7c.06-.45.16-.9.22-1.35,0-.23,0-.47,0-.7.08-1.05.14-2.11.28-3.16A10.11,10.11,0,0,1,62,26.73a7.55,7.55,0,0,0,.5-1.59,1.27,1.27,0,0,0,0-.43,1.36,1.36,0,0,0-.51.11.46.46,0,0,1-.67-.05,1.67,1.67,0,0,0-1.24-.42,4.23,4.23,0,0,1-1.12-.25c-.64-.26-1.25-.61-1.9-.86a1,1,0,0,1-.65-.52c-.27-.58-.59-1.15-.88-1.73a1.36,1.36,0,0,1,0-.36c-.05-.42-.08-.85-.17-1.26A1.18,1.18,0,0,0,55,18.9c-.3-.32-.62-.62-.91-.94s-.6-.7-.89-1.06a1.4,1.4,0,0,1-.28-.36c-.25-.53-.46-1.09-.73-1.61a4.42,4.42,0,0,0-1.45-2.16c-.31-.2-.5-.6-.81-.79s-.45-.69-1-.7A20.29,20.29,0,0,1,46.7,11a.67.67,0,0,0-.31,0,4.68,4.68,0,0,0-.64.3,1.59,1.59,0,0,0-.57.48,6,6,0,0,0-.47,1.21,1.06,1.06,0,0,1-1.82.66c-.4-.28-.88-.45-1.31-.69a7.71,7.71,0,0,1-.77-.49,4.71,4.71,0,0,0-.45-.33,2.06,2.06,0,0,1-1.1-1.78,4.26,4.26,0,0,0-.93-2.12c-.28-.37-.82-.54-1.19-.86s-.93-.91-1.41-1.35c-.25-.23-.53-.43-.78-.65a2.62,2.62,0,0,1-.66-.67,1,1,0,0,0-1-.64c-1.34,0-2.68,0-4,0-1.15,0-1-.1-1,1,0,.47-.13.63-.61.62-2.54,0-5.08,0-7.62,0a2.57,2.57,0,0,1-.83-.12L8.77,1.84C8,1.57,8,1.56,8.18.78a4.09,4.09,0,0,0-.5,0l-6.47.58c-.52,0-.59.19-.36.67a2.8,2.8,0,0,0,.3.46L1.44,3a3,3,0,0,0,.34.57c.28.31.51.6.35,1.06-.1.31.06.54.29.78.4.41.87.82.75,1.52,0,.09.1.24.19.32.46.4.89.78.69,1.5,0,.15.13.52.22.53.46,0,.51.33.49.65a2.44,2.44,0,0,0,.52,1.65,7.29,7.29,0,0,0,1.65,1.16,4.11,4.11,0,0,1,.73.46c.82.86,1.61,1.74,2.39,2.63a.49.49,0,0,1,.09.39c-.14.53,0,1.14-.54,1.55-.06.06,0,.2-.08.31s-.22,0-.29.07a1.18,1.18,0,0,1-1.12.12,1.71,1.71,0,0,0-.5-.1,2.64,2.64,0,0,0-.46.13,2.59,2.59,0,0,0,.3.48c.51.5,1.33.7,1.47,1.56a.28.28,0,0,0,.16.16,7.17,7.17,0,0,0,1.36.73,1.36,1.36,0,0,1,.78.58c.19.27.4.56.82.19s1,.05,1.2.38a3,3,0,0,0,.43.52c.59.71,1.61.82,2.15,1.64a3.36,3.36,0,0,1,.33,2.66c-.22.49-.36,1-.56,1.61a5.24,5.24,0,0,0,.71.1c.39,0,.69.12.74.58l-.39.23.81.64.12-.1-.18-.57a.85.85,0,0,1,.27.13c1,.9,2.33,1.51,3.18,2.64a.89.89,0,0,0,.35.21,1.75,1.75,0,0,1,1,1.35,5.7,5.7,0,0,0,.22.81c.21.49.53.55.95.23.24-.19.5-.36.76-.53a1.15,1.15,0,0,0,0-1.86,1.14,1.14,0,0,1-.37-.49,6.73,6.73,0,0,0-.43-.94,3.48,3.48,0,0,0-.73-.57l-.8-.64-.12.07.1.79h0l-.45-.21a1.37,1.37,0,0,1-.66-1.56A1,1,0,0,0,20.46,28,5.64,5.64,0,0,1,19.9,27a3.45,3.45,0,0,0-.39-.82,2.24,2.24,0,0,1-.78-1.7.92.92,0,0,0-.07-.4c-.19-.53-.39-1.05-.59-1.57s-.47-1-1.14-1c-.09,0-.26-.25-.24-.35.06-.34-.09-.48-.37-.6-.12,0-.17-.23-.27-.35-.34-.41-.31-1.11-1-1.31a1.17,1.17,0,0,1-.81-1.09c-.08-.52-.18-1-.31-1.55,0-.13-.25-.22-.37-.33s-.4-.24-.43-.39c-.12-.75-.73-1-1.25-1.32a3.79,3.79,0,0,0-1-1.77c-.62-.6-1.46-.93-2-1.67a2.3,2.3,0,0,1-.48-1.27c0-.69-.13-1.38-.2-2.07a.45.45,0,0,0-.12-.25C7.5,6.48,7.81,5.65,8,4.87c.1-.49.46-.54.87-.24a3.27,3.27,0,0,0,.78.51,1.92,1.92,0,0,0,.83.06c.14,0,.3-.22.42-.19s.45.17.49.32c.18.68.72.73,1.28.88s.71.33.52.89a1.8,1.8,0,0,0,.43,1.77,2.27,2.27,0,0,1,.55,1.19c0,.85.58,1.37.91,2,.1.2.12.43.21.63a1,1,0,0,0,.27.35.91.91,0,0,0,.3.13l.08.13c-1.19-.14-.84.79-1.14,1.37.29.12.58.34.79.28s.37-.38.61-.65c.18.24.36.5.55.74s.53.88.91,1.09a2.87,2.87,0,0,1,1,1,3.31,3.31,0,0,0,.77.72,2.35,2.35,0,0,0,.65.27c.18-.07.42-.14.55-.05a.82.82,0,0,1,.21.51c0,.21-.06.46,0,.64s.39.58.54.89a.94.94,0,0,0,.86.63c.63,0,.75.35.84.85a.7.7,0,0,0,.91.64.78.78,0,0,1,.9.55,1.63,1.63,0,0,1,0,.95,2.17,2.17,0,0,1-.32.57,1.08,1.08,0,0,0,.21,1.21,4.61,4.61,0,0,1,.6.47,1.44,1.44,0,0,0,1.31.66.57.57,0,0,1,.21.1l.75.46,1,.56-.07.12L28,27.64a3.36,3.36,0,0,0,2.46,2.3c-.37.38,0,.52.2.71s.42.31.62.49a10.65,10.65,0,0,1,1,.93c.34.39.64.83,1,1.25.09.12.19.23.29.35a17,17,0,0,0,1.52,1.75,3.09,3.09,0,0,1,1.06,2.2,3,3,0,0,0,.25,1c.25.54.49,1.12,1.11,1.28a4.52,4.52,0,0,0,0,.68,1,1,0,0,1-.34,1,5.46,5.46,0,0,0-.57.78,3,3,0,0,1,.47.12c.13.08.24.19.36.28-.1.1-.18.24-.3.3a4.71,4.71,0,0,1-.54.12c-.48.12-.57.37-.28.77a2.67,2.67,0,0,1,.22.41,6.86,6.86,0,0,0,.45.95,14.44,14.44,0,0,0,1,1.3,2.51,2.51,0,0,0,.67.67,17.49,17.49,0,0,1,2.86,1.46A12.72,12.72,0,0,1,42.68,50a2,2,0,0,0,.62.5,17.32,17.32,0,0,0,1.71.6c.58.18,1.17.34,1.75.5a.36.36,0,0,0,.27,0c.49-.29.79,0,1.1.31a10.27,10.27,0,0,0,.77.71c.48.37,1,.71,1.47,1a2.14,2.14,0,0,0,.45.24c.57.21,1.15.38,1.71.61s1.09.52,1.65.76a7.35,7.35,0,0,0,1,.38c1,.29,2.08.22,2.84,1.09a1.45,1.45,0,0,0,.45.22c.57.25,1.13.51,1.7.74a5.36,5.36,0,0,0,.78.23,6,6,0,0,1,1.83.47,3.12,3.12,0,0,0,2.54.41,13.5,13.5,0,0,0,1.82-.72c.37-.17.71-.4,1.08-.58a6.49,6.49,0,0,1,.74-.26l.58-.18-.4-.28.26-.2.79.25-.22.23,1.9.63c1.64.53,2.69,1.85,3.91,2.94.65.57,1.24,1.19,1.86,1.79l.09,0c.08-.69.57-1.33.2-2.07a.74.74,0,0,1,0-.56c.3-.57.66-1.1,1-1.67a.78.78,0,0,1,.81-.48c1,0,2,0,3,0,.16,0,.41-.11.45-.23a5.15,5.15,0,0,0,.12-1s0,0-.07,0c-.42-.13-.6-.48-.8-.84a.82.82,0,0,0-.4-.36,4.22,4.22,0,0,1-1.53-1.35c1.06-.07,1.06-.07,1.06-1.13a.33.33,0,0,0,0-.1c-.07-.48.15-.61.62-.61,1.49,0,3,0,4.49,0,.22,0,.47.06.53-.29s.29-.3.5-.15.43.12.57-.11c.24-.39.45-.8.67-1.19-.11.14-.25.28-.35.43.1-.15.24-.29.35-.43h0l0,0h0c.14-.14.29-.41.43-.4.47,0,.66-.25.83-.6a4.94,4.94,0,0,1,.3-.49l.12,0a2.88,2.88,0,0,1-.1.51c-.12.27-.1.47.18.62a2.69,2.69,0,0,1,.33.26l.06.06h0c.13.4.24.1.28,0,.16-.43.29-.88.43-1.32.18-.62.36-1.24.55-1.91H91.8c.35-.24.82-.23.74-.74l-.78-.14a3.78,3.78,0,0,0,.66-1.17,3.3,3.3,0,0,1,1.08-2A2.72,2.72,0,0,0,94.07,42.29Z"/><path class="cls-1" d="M93.71,43.65a.29.29,0,0,0,.12.23.25.25,0,0,0,.24-.06c.21-.27.4-.56.64-.9C94,42.82,93.65,43.12,93.71,43.65Z"/><path id="MEX2729" class="cls-6" d="M55.13,49.32l0,.06,0,.06v.05l.07,0h.06v0l0,0,0,0,0,0,0,.08,0,0,0,0,0,0,0,0h.1l0,.05V50l0,0h.26v-.16l0-.08,0-.06.06,0h.13l0,0v.15l0,0,0,0,0,0V50l0,.08.07.07.06.07,0,.12v.19l0,0,0,0v.09h.09v.12l0,0,0,0,0,0,0,0h0V51l0,.05.05,0h.13l.07,0,0,0,0,.15.09.12.12.08.14,0,.06,0h.07l0,0h.06l0,0h.09l.1,0h.2l.1,0,.06,0h.07l0,0,.17.19,0,.06v0l0,.05,0,.07,0,.06v.07l0,.06v.11l0,.08,0,.12v.16l.05.06h0v0l0,0,0,0v.13l.07.06,0,0,0,.05v.09l0,.09,0,0,0,.06v.06l0,.07v.07l0,.06,0,0,.12.05.05.07L59,54,59,54l.08,0h.16l0,0,.11.12.09.13.1.12.08.13,0,0v.21l0,0,0,0,0,0,0,0,0,0,0,0v.16l0,.12v.11l0,0,0,0,0,0,0,0v0l0,0h0l0,0,0,0H59l0,0,0,.09,0,.09V56l0,.09,0,0-.07,0H58.9l0,0h-.06l-.08,0,0,.06v.07l0,.08.05.1,0,.1-.07.09-.07.08-.08,0h-.25l-.08,0-.06,0,0,0-.05,0h0l0,0h0v0l0-.07-.12-.1-.24-.23-.12-.16-.09-.1v0l0,0h0l0,0,0,0h-.1v0l0,0-.1,0h-.06l-.12,0-.6-.2-.51-.13-.21-.05-.37-.06h-.35l-.09,0-.08,0-.08,0-.17-.07-.16-.14-.08-.06h0l0,0,0,0h0l0,0v0l0,0h0l0,0H54l0,0h0v0l0,0h0v0l0,0,0,0h0l0,0,0,0v0h0l0,0h0l0,0v-.08h0l-.07-.08v0l-.11-.05L53.36,55l-.15,0-.16-.06-.21-.08-.26-.11-.75-.26-.28-.09-.19-.06-.2-.1L51,54.11l-.2-.06L50.62,54l-.17-.05-.1,0-.05,0,0,0,0,0v-.07l-.05-.06-.1-.1L50,53.49l0-.06-.24-.15-.27-.09-.13-.07-.2-.07v0h0v0l0-.05,0,0-.12-.1h-.08l-.09,0v-.05h0l0,0h0v-.06l-.05,0-.09,0v-.11l-.07-.12-.08,0-.15-.12,0-.08,0,0V52L48,51.88l-.13-.07-.05,0-.19-.11-.17-.08-.15-.06-.2,0,0,.06-.06,0,0,.06-.06,0h0l0-.06,0,0V51.6l-.06-.09,0-.06v-.29l0-.09,0,0v0l0,0,0,0,0,0h.19l0,0h.19l0,0h.15l0,0v0l0,0,0-.06.06-.07,0-.08v-.07l0-.23,0-.22,0-.21.13-.18.11,0h.13l.26,0h.09l.05,0,0,0,0,.05,0,0,0,0,.05,0,.06,0,.06,0,.07,0H49l.17,0,.16,0,.16,0,.16-.05.08,0,.49,0,.16,0h.06l.07,0h0v.06l0,0h.09v0l0,.08.11,0,0,0,0,0H51l0,0,.11.12,0,0,.05,0,0,0h0l0,0h0v.13l0,0,0,0v.09l0,0,.07.07.1-.1h0l0,0,0,.05,0-.07,0-.07,0-.07,0-.06-.08-.06L51.53,50,51.45,50l-.09-.06,0-.05,0-.06v-.24l0-.06,0-.07,0-.07v-.08l0,0,0-.05,0-.07,0,0L51.18,49l0-.05v-.06l0,0,0,0,0-.06,0,0h.06l0,.05,0,.08,0,.07,0,0,0,0,0,0v-.06l0,0,.06-.06.12,0,.11,0,.12,0h.2v.13l0,0,0,0v0l0,.06,0,0v.07l0,.07,0,0v.16l0,0,0,0,0,0,.11.1,0,.07,0,.07v.09l0,.09,0,.08,0,.05,0,0,0,0,.05.05,0,0,0,0h.09l0,0,0,0,0,0h0l.07-.06L53,50,53,50l.07-.06.07-.08.06-.08,0-.09,0-.11v0h.13l.06,0,.07,0,.06,0,.06,0,.07,0,.05,0h.07l.07,0h.1l.05,0,0,.05,0,0h0l0,0,0,0V49.3l0,0,0,0,0,0,.09-.08,0,0,.08-.06.06,0,.06.06,0,.06h0l0,0,0,.07,0,0h.15l.06,0Z"/></g></svg>