<?xml version="1.0" encoding="UTF-8"?><svg id="estados" xmlns="http://www.w3.org/2000/svg" viewBox="0 0 306.04 276.52"><defs><style>.cls-1,.cls-2{fill:#3bb1e6;}.cls-3{fill:#fff;}.cls-4{stroke-width:1.53px;}.cls-4,.cls-2,.cls-5{stroke:#fff;}.cls-4,.cls-5{fill:none;opacity:.67;stroke-miterlimit:10;}.cls-6{fill:#0a2f3a;opacity:.5;}.cls-2{stroke-linecap:round;stroke-linejoin:round;stroke-width:1.37px;}.cls-5{stroke-width:1.67px;}</style></defs><g id="gro-icono"><circle class="cls-6" cx="136.96" cy="151.48" r="97.03"/><circle class="cls-5" cx="136.96" cy="151.48" r="104.09"/><polyline class="cls-4" points="229.53 104.17 271.63 73.79 306.09 73.79"/><polyline class="cls-4" points="229.02 199.66 271.63 220.23 306.09 220.23"/><polyline class="cls-4" points="240.77 150.49 271.63 150.49 306.09 150.49"/><g><path class="cls-1" d="M105.71,216.98c-.56,.81-1.35,1.41-2.36,1.81s-2.18,.6-3.52,.6-2.56-.32-3.61-.95-1.86-1.54-2.44-2.71c-.57-1.17-.87-2.53-.88-4.07v-1.45c0-2.5,.58-4.44,1.75-5.82s2.81-2.07,4.92-2.07c1.73,0,3.13,.44,4.19,1.33,1.06,.89,1.7,2.14,1.94,3.77h-2.19c-.41-2.21-1.72-3.31-3.93-3.31-1.47,0-2.58,.52-3.34,1.55-.76,1.03-1.14,2.53-1.15,4.48v1.36c0,1.87,.43,3.35,1.28,4.45,.85,1.1,2,1.65,3.46,1.65,.82,0,1.54-.09,2.16-.27,.62-.18,1.13-.49,1.53-.92v-3.72h-3.85v-1.79h6.03v6.09Z"/><path class="cls-1" d="M116.65,217.94c-.82,.97-2.03,1.45-3.62,1.45-1.32,0-2.32-.38-3.01-1.15-.69-.76-1.04-1.9-1.04-3.4v-8.03h2.11v7.98c0,1.87,.76,2.81,2.28,2.81,1.61,0,2.69-.6,3.22-1.8v-8.98h2.11v12.35h-2.01l-.05-1.22Z"/><path class="cls-1" d="M127.04,219.39c-1.67,0-3.04-.55-4.09-1.65-1.05-1.1-1.57-2.57-1.57-4.41v-.39c0-1.22,.23-2.32,.7-3.28,.47-.96,1.12-1.72,1.96-2.26s1.75-.82,2.73-.82c1.6,0,2.85,.53,3.74,1.59,.89,1.06,1.34,2.57,1.34,4.54v.88h-8.36c.03,1.22,.39,2.2,1.07,2.95,.68,.75,1.55,1.12,2.6,1.12,.75,0,1.38-.15,1.89-.46,.52-.3,.97-.71,1.36-1.21l1.29,1c-1.03,1.59-2.59,2.38-4.66,2.38Zm-.26-11.07c-.85,0-1.57,.31-2.15,.93s-.94,1.49-1.07,2.61h6.18v-.16c-.06-1.07-.35-1.9-.87-2.49-.52-.59-1.22-.88-2.1-.88Z"/><path class="cls-1" d="M140.26,208.7c-.32-.05-.67-.08-1.04-.08-1.38,0-2.32,.59-2.82,1.77v8.76h-2.11v-12.35h2.05l.03,1.43c.69-1.1,1.67-1.65,2.94-1.65,.41,0,.72,.05,.94,.16v1.96Z"/><path class="cls-1" d="M148.17,208.7c-.32-.05-.67-.08-1.04-.08-1.38,0-2.32,.59-2.82,1.77v8.76h-2.11v-12.35h2.05l.03,1.43c.69-1.1,1.67-1.65,2.94-1.65,.41,0,.72,.05,.94,.16v1.96Z"/><path class="cls-1" d="M155.02,219.39c-1.67,0-3.04-.55-4.09-1.65-1.05-1.1-1.57-2.57-1.57-4.41v-.39c0-1.22,.23-2.32,.7-3.28,.47-.96,1.12-1.72,1.96-2.26s1.75-.82,2.73-.82c1.6,0,2.85,.53,3.74,1.59,.89,1.06,1.34,2.57,1.34,4.54v.88h-8.36c.03,1.22,.39,2.2,1.07,2.95,.68,.75,1.55,1.12,2.6,1.12,.75,0,1.38-.15,1.89-.46,.52-.3,.97-.71,1.36-1.21l1.29,1c-1.03,1.59-2.59,2.38-4.66,2.38Zm-.26-11.07c-.85,0-1.57,.31-2.15,.93s-.94,1.49-1.07,2.61h6.18v-.16c-.06-1.07-.35-1.9-.87-2.49-.52-.59-1.22-.88-2.1-.88Z"/><path class="cls-1" d="M168.24,208.7c-.32-.05-.67-.08-1.04-.08-1.38,0-2.32,.59-2.82,1.77v8.76h-2.11v-12.35h2.05l.03,1.43c.69-1.1,1.67-1.65,2.94-1.65,.41,0,.72,.05,.94,.16v1.96Z"/><path class="cls-1" d="M169.4,212.87c0-1.21,.24-2.3,.71-3.26,.48-.97,1.14-1.71,1.99-2.24,.85-.52,1.82-.79,2.9-.79,1.68,0,3.04,.58,4.08,1.75,1.04,1.16,1.56,2.71,1.56,4.64v.15c0,1.2-.23,2.28-.69,3.24-.46,.95-1.12,1.7-1.97,2.23-.86,.53-1.84,.8-2.95,.8-1.67,0-3.03-.58-4.07-1.75-1.04-1.16-1.56-2.7-1.56-4.62v-.15Zm2.12,.25c0,1.37,.32,2.47,.95,3.3s1.49,1.24,2.55,1.24,1.92-.42,2.56-1.26c.63-.84,.95-2.02,.95-3.53,0-1.35-.32-2.45-.96-3.29-.64-.84-1.5-1.26-2.56-1.26s-1.88,.41-2.52,1.24c-.64,.83-.96,2.02-.96,3.56Z"/></g><path id="GRO" class="cls-2" d="M157.97,101.82l-.3,.6-.2,.6,.1,.5,.7,.2,.6,.1,.1,.5,.2,.6,.6,.2,.2,.4,.5,.8,.2,.4,.3,.4,.3,.3,.4,.2h.4l.6,.1,.2,.5v.7l.3,.3h2l.7-.1,.1-.3,.1-.4,.1-.9,.2-.8,.4-.6,.6-.4,.8,.1,.3,.1,.2,.1,.2,.2v.3l.1,.4v.5l.1,.3,.3,.3,.2,.3,.2,.2,.1,.2,.1,.4,.4,.9,.7,.7,.6,.7,.3,1.2,.1,.5v1.5l.2,.5,.2,.3,.1,.4v.5l.9-.1v.4l.1,.4,.1,.4,.3,.3,.6,.4,.4-.3,.4-.2,.4,.1,.1,1.3,.2,.6,.5,.3h.5l.8,.1,.7,.2,.4,.2,.4,1.5,.9,1.2,1.2,.8,1.4,.6,.6,.2,.7,.1,.6,.2,.6,.1,.3,.2,.3,.1,.3,.1,.3,.1,1,.2,1.1,.1,1-.1,1-.2,.6-.2h.3l.4,.1,.4,.4,1.7,1.9,.6,.6,.1,.5-.2,.6-.4,.7-.2,.6-.1,.7-.2,.6-.1,.6-.1,.5-.3,.8-.2,1.3-.1,.8v.8l.5,.6,.2,.1,.1,.2v.2l-.2,.2-.3,.3-.1,.4,.1,.5,.1,.5,.7,.6,.4,.5,.4,.5,.1,.4v.5l-.3,.9,.2,.2,.3,.7-.1,.6-.2,.7-.1,.7,.2,.6,.4,.3,1.2,.5,.5,.7,.4,.9,.5,.7,.8,.2,.9-.1,.4,.1,.4,.1,.4,.5,1.1,1.2,.9,1.3,1,1.3,.9,1.3,.2,.3,.1,.3,.1,.4-.1,.4-.1,.3-.1,.4-.1,.3-.2,.3-.2,.5-.3,.4-.3,.4-.3,.4-.2,.4,.1,.3v.3l-.1,.4v.6l-.2,1.2-.1,.6-.1,.6-.2,.4-.3,.3-.4,.3-.2,.3-.1,.2-.3,.3-.2,.1-.2,.1-.5,.2-.4,.2-.4,.1-.5-.1-.4-.1h-.8l-.4,.2,.3,.9,.3,.9,.1,1-.3,.9-.2,.4-.7,.2h-.5l-.5-.2h-.6l-.8,.4-.4,.6v.7l.5,.8,.5,1.1-.2,1-.7,.9-.8,.8-.8,.5-.8,.1h-.8l-.9,.1-.8,.2-.7,.3-.5,.4-.5,.5-.1,.1-.4-.2v-.1l.1-.1v-.3l-.5-.7-1.2-1-2.5-2.3-1.2-1.7-.9-1-.1-.2-.3-.2-.4,.1-.5-.2-.2,.2h-.3l-.3,.1-.5,.1-.1,.2-.2,.4-1-.2h-.6l-1.2-.5-6.2-2-5.2-1.4-2.1-.5-3.8-.6h-2l-1.5,.1-1-.2-.8-.3-.8-.3-1.7-.7-1.7-1.4-.8-.6h-.2l-.2,.3-.3-.2-.1-.2-.3-.1,.2-.1,.4,.2,.1-.3-.2-.2-.2-.1-.2,.2-.3-.1h-.2l-.2-.2,.2-.1v-.3l.2-.3,.2,.1,.2-.1v-.2l-.3-.3-.2-.2-.5-.1-.5,.2-.3,.3v.2l.3-.1,.2,.1-.3,.3-.4,.1-.2-.2-.2-.8-.2-.1-.7-.8-.1-.3-1.1-.5-2.3-.9-1.6-.4-1.6-.6-2.1-.8-2.7-1.1-7.7-2.7-2.8-.9-1.9-.6-2.1-1-1.7-.6-2.1-.6-1.7-.6-1.7-.6-1.1-.5-.5,.2-.2-.4,.4-.2-.1-.7-.5-.6-1-1-2.1-1.3-.4-.7-2.5-1.5-2.7-.9-1.4-.7-2-.7v-.4h.4l.1-.6-.3-.5-.3-.4-1.2-1-.9-.1-.9,.2-.1-.5h-.4l-.3-.3h-.5l-.1-.6-.5-.2-.9-.3-.1-1.2-.8-1.2-.8-.5-1.5-1.2-.4-.8-.4-.4-.1-.7-1.2-1.3-1.4-.7-.5-.2-1.9-1.1-1.8-.8-1.5-.6-2,.3-.3,.6-.6,.4-.5,.6-.6,.3-.2,.1,.3-.6,.2-.3,.1-.3-.1-.5-.6-1-.2-.6v-1.9l.1-1,.2-.9,.2-.6,.1-.3,.3-.3,.3-.3,.3-.2h1.4l.5-.1,.5-.2,.5-.1h.5l.5,.1,.4-.1,.5-.3h.3l.6,.1h.3l.3-.1,.2-.2v-.3l.2-.3,.4-.6,.6-.7,.3-.8,.1-.8-.4-2.3-.2-2.3,.4-2.1,1.3-1.8,1.2-.4,1.3-.1,2.6,.2,.5,.1,.5,.1,.5,.2,.4,.4,.3,.5,.2,.4,.3,.5,.5,.4,.6,.4,.6,.3,.7,.2,.8,.1,1.7-.3,1.6-.5,1.7-.4,1.6-.5,.8-.3,5,.3,1.6-.4h.7l.7,.4,.1,.1v.6l.2,.2v-.1l.3-.1h.4l.2,.1,.1,.4,.2,.8,1.1-.3,.2-.3-.4-.5,3.4,.1,.4,.2,1.1,1.2,.4,.3,.5,.3,.5,.2v-.1l.2-.5v-.1l.1,.1,.3,.1h.1l.1,.2,.1,.3,.1,.5v.3l-.3,.3-.3,.3-.2,.4v.5l.3,.5,.7,.7,1-1,.1-.1,.4,.2,.2,.5,.5-.7,.4-.7,.2-.7-.3-.6-.8-.6-.8-.6-.8-.6-.9-.6-.6-.5-.3-.6-.1-.7v-1.7l-.2-.7-.2-.7-.3-.7-.1-.8,.2-.5,.4-.5,.2-.7-.3-.5-.6-.6-.5-.5v-.6l.4-.5,.4-.5,.4-.6,.5-.3,.7,.1,.5,.5,.2,.8,.2,.7,.3-.2,.4-.4,.3-.4,.1-.6,.2-.3,.6-.6,1.2,.4,1.2,.3,1.2,.2h1.7l.3,.1,.1,.4v.5l.1,.4,.2,.2,.2,.3v.4l-.3,.6-.3,.6v.7l.3,.7,.2,.4v.8l-.1,.4,.1,.4,.2,.3,.3,.3,.2,.3,1.2,1.1,.5,.7,.2,.7-.1,.9-.3,.9-.2,.8,.3,.6,.3,.3,.2,.3,.5,.5,.3,.3,.4,.2h.5l.4-.1,.4-.3,.2-.3,.2-.3,.4-.1,.7-.6,.7-.5,.7-.6,.7-.6,.7-.8,.6-.8,.4-.9,.6-1.2,.1-.2,.7-.1,.6-.1,.6-.2,.7-.2,.6-.2,.6-.2,.7-.2,.6-.2,.4-.1,.3-.1,.7-.2h.5l.5,.1,.5,.4,.4,.5,.3,.3,.4,.1,.5-.5,.3-.4,.1-.3v-.8l.2-.4,.3-.2,.3-.2,.9-.8,.5-.5,.8-.7,.6,.3,.6,.7,.6,.6,.4,.1,.2,.2,.3,.7,.4,.4,.8,.1,.7,.1,.6-.2h0Z"/><g><g><path class="cls-3" d="M94.07,42.29c.23-.43,.53-.9,.53-1.36,0-.45-.13-.96-.61-1.31-.43-.31-.75-.37-1.12,.1,.1,.03,.19,.06,.29,.09,0,.04-.02,.08-.02,.11-.55-.11-1.12-.15-1.65-.33-.89-.32-1.78-.27-2.58,.07-.81,.34-1.62,.54-2.47,.61-.95,.09-1.84,.3-2.64,.83-.21,.14-.4,.39-.5,.63-.4,.91-.32,1.89-.33,2.86,0,.2-.06,.48-.2,.57-.39,.26-.52,.65-.49,1.05,.04,.7-.43,1.02-.89,1.36-.32,.24-.7,.41-1.03,.64-.18,.13-.31,.32-.46,.48h0s0,0,0,0c-.34,.16-.68,.31-1.01,.47,0,0,0,0-.01,0,0,0,0,0,0,0-.73-.39-2.31-.19-2.94,.35-.13,.11-.32,.16-.5,.21-.88,.25-1.86-.18-2.72,.52-.42,.34-1.14,.33-1.73,.43-.16,.03-.43-.04-.52-.16-.38-.47-.67-.95-1.32-1.22-.49-.2-.93-.43-1.48-.42-.38,0-.76-.07-1.03-.1-.28-.42-.52-.79-.76-1.15-.35-.52-.85-.94-.93-1.61-.1-.86-.61-1.52-1.19-2.07-.91-.88-1.49-1.93-1.91-3.09-.07-.18-.04-.44,.03-.63,.17-.4,.19-.71-.2-1.02-.6-.48-.98-1.11-1.07-1.9-.04-.32-.17-.63-.21-.96-.03-.23,.02-.47,.05-.7,.07-.45,.16-.9,.22-1.35,.03-.23-.04-.47-.02-.7,.08-1.06,.14-2.12,.28-3.16,.18-1.28,.42-2.54,1.07-3.7,.27-.47,.36-1.05,.51-1.59,.04-.13-.02-.29-.03-.43-.17,.03-.38,.02-.51,.11-.26,.19-.49,.14-.67-.05-.34-.38-.78-.38-1.24-.42-.38-.03-.77-.1-1.12-.25-.65-.26-1.25-.62-1.9-.86-.29-.11-.51-.22-.64-.51-.28-.59-.6-1.15-.88-1.73-.05-.1-.03-.24-.05-.36-.05-.42-.08-.85-.18-1.27-.04-.17-.21-.33-.34-.47-.3-.32-.61-.62-.9-.94-.31-.34-.6-.7-.89-1.05-.1-.12-.22-.23-.28-.36-.25-.53-.46-1.09-.72-1.61-.39-.78-.62-1.66-1.45-2.16-.31-.19-.5-.6-.81-.79-.34-.21-.45-.69-.98-.69-.73-.01-1.46-.16-2.2-.25-.1-.01-.21,0-.3,.04-.22,.09-.44,.18-.64,.3-.21,.13-.46,.27-.57,.48-.21,.38-.35,.8-.47,1.21-.28,.99-1.01,1.24-1.83,.66-.4-.28-.87-.45-1.3-.69-.27-.15-.52-.32-.78-.49-.15-.1-.28-.25-.44-.33-.75-.36-1.03-1.07-1.1-1.78-.08-.84-.48-1.5-.93-2.12-.27-.38-.82-.54-1.19-.86-.49-.42-.93-.91-1.41-1.35-.25-.23-.53-.43-.78-.65-.23-.21-.53-.4-.66-.67-.22-.47-.54-.64-1.03-.63-1.34,0-2.68,0-4.02,0-1.15,0-1-.11-.99,1,0,.47-.14,.62-.61,.62-2.54-.02-5.08,0-7.63-.01-.28,0-.57-.03-.83-.12-3.48-1.25-6.95-2.52-10.42-3.79-.74-.27-.74-.28-.59-1.06-.18,0-.34-.01-.5,0-2.16,.19-4.31,.38-6.47,.58-.52,.05-.59,.19-.36,.68,.08,.17,.21,.31,.3,.46,.1,.17,.2,.34,.3,.51,.11,.19,.19,.42,.34,.58,.28,.31,.51,.6,.35,1.06-.1,.31,.06,.54,.29,.77,.4,.42,.87,.82,.75,1.52-.02,.09,.1,.24,.19,.32,.45,.4,.89,.78,.68,1.5-.04,.15,.13,.53,.22,.53,.46,.03,.51,.33,.49,.65-.04,.63,.18,1.23,.52,1.65,.42,.5,1.09,.79,1.65,1.16,.24,.16,.54,.26,.73,.46,.82,.86,1.61,1.74,2.39,2.63,.08,.09,.11,.27,.08,.39-.14,.53-.03,1.15-.53,1.56-.07,.05-.06,.2-.08,.3-.1,.02-.22,.02-.3,.07-.35,.26-.72,.24-1.11,.12-.16-.05-.33-.1-.5-.09-.16,0-.31,.09-.47,.13,.1,.16,.18,.35,.31,.47,.51,.5,1.33,.7,1.46,1.56,0,.06,.1,.12,.16,.16,.45,.25,.88,.58,1.36,.72,.37,.11,.57,.3,.78,.59,.19,.27,.41,.55,.82,.19,.28-.25,1,.05,1.2,.38,.11,.19,.28,.35,.43,.52,.59,.7,1.61,.82,2.16,1.64,.41,.62,.65,1.97,.33,2.66-.23,.49-.36,1.02-.56,1.61,.27,.04,.49,.1,.71,.1,.4,.01,.7,.12,.75,.57-.12,.07-.23,.14-.39,.23,.3,.24,.56,.44,.81,.64,.04-.03,.08-.06,.12-.09-.05-.17-.11-.35-.18-.58,.12,.06,.21,.08,.27,.13,1.03,.91,2.32,1.51,3.18,2.64,.08,.1,.23,.17,.36,.22,.63,.23,.88,.75,1.03,1.35,.07,.27,.12,.55,.22,.81,.2,.49,.53,.55,.94,.23,.25-.19,.51-.36,.76-.53,.63-.43,.6-1.45-.03-1.86-.16-.1-.27-.31-.36-.49-.16-.31-.23-.67-.43-.94-.18-.24-.48-.38-.73-.57-.27-.21-.53-.43-.8-.64-.04,.02-.08,.05-.12,.07,.03,.26,.06,.53,.09,.79,0,0,0,0,0,.01,0,0,0,0,0,0-.15-.07-.3-.15-.45-.21-.51-.22-.88-1.05-.66-1.56,.2-.46,.1-.82-.21-1.2-.23-.28-.39-.62-.56-.95-.14-.27-.19-.6-.39-.82-.44-.5-.85-.97-.79-1.69,.01-.13-.02-.28-.07-.41-.19-.52-.39-1.04-.59-1.57-.2-.53-.47-.98-1.14-.99-.09,0-.25-.24-.24-.35,.06-.34-.09-.48-.37-.6-.12-.05-.18-.23-.27-.35-.35-.42-.31-1.11-.95-1.31-.53-.17-.72-.58-.8-1.09-.08-.52-.18-1.04-.32-1.55-.04-.14-.24-.22-.37-.34-.15-.13-.4-.24-.42-.39-.12-.74-.73-.98-1.26-1.32-.19-.67-.47-1.24-1-1.77-.62-.6-1.46-.93-1.95-1.67-.27-.4-.47-.77-.48-1.27-.02-.69-.13-1.38-.2-2.07,0-.09-.05-.19-.11-.25-.68-.73-.37-1.56-.2-2.34,.11-.49,.47-.54,.88-.24,.25,.18,.49,.41,.77,.51,.25,.09,.55,.08,.83,.06,.15-.01,.31-.22,.43-.19,.18,.04,.44,.18,.48,.32,.18,.68,.72,.73,1.28,.88,.68,.18,.71,.33,.52,.89-.23,.68,.01,1.23,.42,1.77,.26,.35,.55,.79,.55,1.19,0,.85,.58,1.37,.91,2.03,.1,.2,.12,.43,.21,.63,.06,.13,.16,.26,.27,.35,.08,.07,.2,.08,.3,.12,.03,.04,.05,.09,.08,.13-1.18-.13-.84,.8-1.13,1.38,.29,.11,.57,.33,.79,.28,.22-.06,.37-.38,.6-.65,.18,.24,.36,.49,.56,.74,.29,.38,.52,.87,.91,1.08,.48,.26,.72,.64,1.01,1.04,.2,.28,.48,.51,.77,.72,.19,.14,.43,.19,.65,.28,.18-.07,.42-.14,.55-.05,.13,.08,.18,.33,.21,.51,.03,.21-.06,.46,.02,.64,.13,.32,.39,.58,.54,.89,.18,.37,.47,.63,.86,.63,.63-.01,.75,.35,.84,.85,.09,.51,.39,.74,.91,.65,.51-.1,.76,.23,.9,.55,.12,.26,.03,.64-.03,.95-.04,.2-.21,.38-.32,.57-.2,.35-.09,.98,.21,1.21,.2,.16,.43,.28,.6,.47,.35,.4,.72,.74,1.31,.67,.07,0,.14,.05,.21,.09,.25,.15,.5,.32,.75,.47,.33,.19,.66,.37,.99,.56-.02,.04-.05,.08-.07,.12-.16-.1-.31-.19-.51-.31,.35,1.03,1.37,2.23,2.46,2.29-.36,.38-.03,.53,.2,.71,.21,.17,.42,.32,.62,.49,.33,.3,.68,.59,.97,.93,.34,.39,.64,.83,.96,1.25,.09,.12,.2,.24,.3,.35,.5,.59,.94,1.24,1.51,1.75,.69,.61,.99,1.32,1.06,2.2,.03,.33,.12,.67,.25,.97,.25,.55,.49,1.13,1.1,1.28-.02,.28-.07,.48-.04,.68,.05,.39-.05,.68-.34,.96-.21,.2-.35,.47-.57,.77,.24,.06,.37,.07,.47,.13,.13,.07,.24,.18,.36,.28-.1,.1-.18,.24-.3,.3-.17,.07-.36,.07-.55,.12-.48,.12-.56,.37-.27,.77,.09,.12,.15,.27,.22,.4,.15,.32,.25,.67,.45,.95,.31,.46,.68,.88,1.04,1.3,.21,.24,.41,.53,.67,.67,.95,.49,2,.8,2.86,1.47,.46,.36,.8,.88,1.21,1.31,.18,.19,.38,.41,.62,.51,.56,.23,1.14,.41,1.72,.59,.58,.18,1.17,.34,1.75,.5,.08,.02,.2,.03,.27,0,.48-.28,.78,.02,1.09,.32,.25,.24,.5,.5,.78,.71,.48,.36,.97,.7,1.46,1.04,.14,.1,.29,.18,.45,.24,.57,.21,1.15,.39,1.72,.62,.56,.23,1.09,.52,1.64,.76,.33,.15,.67,.28,1.02,.38,.98,.28,2.08,.21,2.84,1.08,.1,.12,.3,.15,.46,.22,.56,.25,1.12,.51,1.69,.75,.25,.1,.52,.16,.78,.23,.6,.16,1.25,.1,1.83,.47,.77,.49,1.66,.65,2.55,.41,.62-.17,1.22-.46,1.82-.72,.37-.17,.72-.4,1.08-.58,.23-.11,.49-.18,.74-.26,.16-.05,.32-.1,.57-.18-.19-.13-.28-.2-.4-.28,.13-.1,.24-.18,.27-.2,.32,.1,.56,.18,.78,.25-.05,.05-.14,.15-.22,.24,.65,.21,1.27,.42,1.9,.62,1.64,.53,2.69,1.86,3.91,2.94,.65,.57,1.24,1.2,1.86,1.8,.03-.02,.08-.03,.08-.05,.08-.69,.57-1.32,.2-2.07-.07-.14-.03-.4,.06-.56,.3-.57,.65-1.1,.94-1.67,.18-.35,.41-.49,.81-.48,1,.02,2,.02,2.99,0,.16,0,.41-.11,.44-.23,.09-.31,.09-.65,.13-.97,0-.01-.05-.04-.07-.05-.42-.14-.6-.48-.8-.84-.08-.15-.25-.3-.41-.36-.66-.28-1.07-.81-1.53-1.34q1.06-.08,1.07-1.14s0-.06,0-.09c-.07-.48,.15-.61,.61-.61,1.5,.02,2.99,.01,4.49,0,.22,0,.47,.06,.54-.29,.06-.31,.29-.31,.49-.15,.25,.19,.44,.12,.57-.12,.23-.39,.45-.79,.67-1.19-.12,.15-.25,.29-.36,.44,.11-.15,.24-.29,.36-.44,0,0,0,0,0,0,0,0,.01-.01,.01-.02h0s0,0,0,0c.14-.14,.3-.41,.43-.4,.47,.02,.66-.25,.83-.6,.08-.17,.2-.32,.31-.48,.04,.02,.08,.03,.12,.05-.03,.17-.04,.35-.1,.51-.11,.27-.1,.47,.18,.62,.12,.07,.23,.17,.33,.26,.02,.02,.04,.04,.06,.06h0c.13,.4,.24,.1,.28-.03,.16-.43,.29-.88,.42-1.32,.19-.62,.36-1.24,.56-1.91h-.59c.35-.24,.82-.23,.74-.74-.28-.05-.57-.1-.78-.14,.25-.43,.61-.78,.66-1.17,.1-.83,.51-1.45,1.08-2,.2-.2,.45-.37,.58-.61Z"/><path class="cls-3" d="M93.71,43.65c0,.08,.05,.2,.12,.23,.06,.03,.2,0,.24-.06,.21-.27,.4-.56,.64-.91-.7-.1-1.06,.21-1,.74Z"/></g><path id="MEX2729" class="cls-1" d="M55.13,49.32l-.03,.06-.02,.06v.05s.08,.02,.08,.02h.06s0,.06,0,.06l.02,.06,.06,.02,.02,.04,.05,.08,.02,.04,.03,.04,.03,.03,.04,.02h.1s.02,.06,.02,.06v.07l.03,.03h.26s0-.04,0-.04v-.04s.02-.09,.02-.09l.02-.08,.04-.06,.06-.04h.08s.03,.02,.03,.02h.02s.02,.03,.02,.03v.07s0,.05,0,.05v.03s.04,.03,.04,.03l.02,.03,.02,.02v.02s.02,.04,.02,.04l.04,.09,.07,.07,.06,.07,.03,.12v.05s0,.05,0,.05v.1l.02,.05,.02,.03v.04s0,.05,0,.05h.09s0,.03,0,.03v.04s.02,.04,.02,.04l.03,.03,.06,.04,.04-.03,.04-.02h.04s0,.14,0,.14l.02,.06,.05,.03h.13s.07,.03,.07,.03l.04,.02,.04,.15,.09,.12,.12,.08,.14,.06,.06,.02h.07s.06,.03,.06,.03h.06s.03,.03,.03,.03h.03s.03,.02,.03,.02h.03s.1,.03,.1,.03h.11s.1,0,.1,0l.1-.02,.06-.02h.07s.04,.05,.04,.05l.17,.19,.06,.06v.05s0,.06,0,.06l-.04,.07-.02,.06v.07s-.03,.06-.03,.06v.06s-.02,.05-.02,.05l-.03,.08-.02,.13v.08s0,.08,0,.08l.05,.06h.02s0,.03,0,.03v.02l-.02,.02-.03,.03v.04s0,.05,0,.05v.05s.08,.06,.08,.06l.04,.05,.04,.05v.04s0,.05,0,.05l-.03,.09,.02,.02,.03,.07v.06s-.03,.07-.03,.07v.07s0,.06,0,.06l.04,.03,.12,.05,.05,.07,.04,.09,.05,.07,.08,.02h.09s.04,0,.04,0h.04s.04,.06,.04,.06l.11,.12,.09,.13,.1,.13,.09,.13,.02,.03v.03s.02,.04,.02,.04v.04s-.02,.03-.02,.03v.04s-.02,.03-.02,.03l-.02,.03-.02,.05-.03,.04-.03,.04-.03,.04-.02,.04v.03s0,.03,0,.03v.04s0,.06,0,.06l-.02,.12v.06s-.02,.06-.02,.06l-.02,.04-.03,.03-.04,.03-.02,.03v.02s-.04,.03-.04,.03h-.02s-.02,.02-.02,.02l-.05,.02-.04,.02h-.04s-.05,0-.05,0h-.04s-.04,0-.04,0h-.04l-.04,.02,.03,.09,.03,.09v.1s-.02,.09-.02,.09l-.02,.04-.07,.02h-.05l-.05-.02h-.06l-.08,.04-.04,.06v.07l.05,.08,.05,.11-.02,.1-.07,.09-.08,.08-.08,.05h-.08s-.08,0-.08,0h-.09s-.08,.03-.08,.03l-.07,.03-.05,.04-.05,.05h0s-.04,0-.04,0h0s0-.02,0-.02v-.03l-.05-.07-.12-.1-.24-.23-.12-.17-.09-.1v-.02s-.04-.02-.04-.02h-.04s-.05,0-.05,0l-.02,.02h-.06s-.05,.02-.05,.02v.02s-.03,.04-.03,.04l-.1-.02h-.06l-.12-.05-.61-.2-.51-.14-.21-.05-.37-.06h-.34s-.1,0-.1,0l-.08-.03-.08-.03-.17-.07-.17-.14-.08-.06h-.02l-.02,.03-.03-.02v-.02s-.04,0-.04,0h.02s.04,0,.04,0v-.03s0-.02,0-.02h-.02s-.02,0-.02,0h-.03s-.02,0-.02,0l-.02-.02h.02v-.04l.02-.03h.02s.02,0,.02,0v-.02l-.03-.03-.02-.02h-.05s-.05,0-.05,0l-.03,.03v.02h.03s.02,0,.02,0l-.03,.03h-.04s-.02,0-.02,0l-.02-.08h-.02s-.07-.09-.07-.09v-.03s-.12-.05-.12-.05l-.23-.09-.16-.04-.16-.06-.21-.08-.26-.11-.75-.26-.27-.09-.19-.06-.21-.1-.17-.06-.21-.06-.17-.06-.17-.06-.11-.05-.05,.02-.02-.04,.04-.02v-.07s-.06-.06-.06-.06l-.1-.1-.21-.13-.04-.07-.24-.15-.26-.09-.14-.07-.2-.07v-.04h.04v-.06s-.02-.05-.02-.05l-.03-.04-.12-.1h-.09s-.09,0-.09,0v-.05h-.05l-.03-.03h-.05v-.06s-.06-.02-.06-.02l-.09-.03v-.12s-.09-.12-.09-.12l-.08-.05-.15-.12-.04-.08-.04-.04v-.07s-.13-.13-.13-.13l-.14-.07-.05-.02-.19-.11-.18-.08-.15-.06-.2,.03-.03,.06-.06,.04-.05,.06-.06,.03h-.02s.03-.05,.03-.05l.02-.03v-.03s0-.05,0-.05l-.06-.1-.02-.06v-.28s.03-.09,.03-.09l.02-.06v-.03s.04-.03,.04-.03l.03-.03,.03-.02h.19s.05-.03,.05-.03h.05s.05,0,.05,0h.05s.04,0,.04,0l.05-.03h.09s.03,0,.03,0h.03s.02-.03,.02-.03v-.03l.02-.03,.04-.06,.06-.07,.03-.08v-.08s-.03-.23-.03-.23l-.02-.23,.04-.21,.13-.18,.12-.04h.13s.25,0,.25,0h.05s.05,.02,.05,.02l.05,.02,.04,.04,.03,.05,.02,.04,.03,.05,.05,.04,.06,.04,.06,.03,.07,.02h.08s.17-.02,.17-.02l.16-.05,.17-.04,.16-.05,.08-.03,.49,.03,.16-.04h.07l.07,.04h0v.07l.02,.02h0s.03-.02,.03-.02h.06s0,.05,0,.05l.02,.08,.11-.03,.02-.03-.04-.05h.33s.04,.03,.04,.03l.11,.12,.04,.03,.05,.03,.05,.02h0s.02-.06,.02-.06h0s0,0,0,0h.03s0,0,0,0v.02s.02,.03,.02,.03v.05s0,.03,0,.03l-.03,.03-.03,.03-.02,.04v.05l.03,.05,.07,.07,.1-.1h0s.04,0,.04,0l.02,.05,.05-.07,.04-.07,.02-.07-.03-.06-.08-.06-.08-.06-.08-.06-.09-.06-.06-.05-.03-.06v-.07s0-.09,0-.09v-.08l-.02-.07-.02-.07-.03-.07v-.08s0-.05,0-.05l.04-.05,.02-.07-.03-.05-.06-.06-.05-.05v-.06l.04-.05,.04-.05,.04-.06,.05-.03h.07s.05,.06,.05,.06l.02,.08,.02,.07,.03-.02,.04-.04,.03-.04v-.06s.03-.03,.03-.03l.06-.06,.12,.04,.12,.03,.12,.02h.2s0,.05,0,.05v.09s.03,.02,.03,.02l.02,.03v.04l-.03,.06-.03,.06v.07l.03,.07,.02,.04v.12s0,.04,0,.04l.02,.03,.03,.03,.02,.03,.12,.11,.05,.07,.02,.07v.09s-.04,.09-.04,.09l-.02,.08,.03,.06,.03,.03,.02,.03,.05,.05,.03,.03,.04,.02h.09s.04-.04,.04-.04l.02-.03,.02-.03h.04s.07-.07,.07-.07l.07-.05,.07-.06,.07-.06,.07-.08,.06-.08,.04-.09,.06-.12v-.02s.08,0,.08,0h.06s.06-.03,.06-.03l.07-.02,.06-.02,.06-.02,.07-.02,.06-.02h.04s.03-.02,.03-.02l.07-.02h.1s.05,.05,.05,.05l.04,.05,.03,.03h.04s.05-.04,.05-.04l.03-.04v-.03s0-.04,0-.04v-.04l.02-.04,.03-.02,.03-.02,.09-.08,.05-.05,.08-.07,.06,.03,.06,.07,.06,.06h.04s.02,.03,.02,.03l.03,.07,.04,.04h.08s.07,.02,.07,.02l.06-.02h0Z"/></g></g></svg>