<svg xmlns="http://www.w3.org/2000/svg" viewBox="0 0 306.04 276.52"><defs><style>.cls-1{fill:#fef6fc;}.cls-1,.cls-2,.cls-3{stroke:#6d4162;stroke-miterlimit:10;stroke-width:0.78px;}.cls-2,.cls-3{fill:none;}.cls-3{isolation:isolate;}.cls-4{fill:#713972;}.cls-5{fill:#b25fac;}.cls-6{fill:#f230b9;}</style></defs><g id="estados"><circle class="cls-1" cx="136.96" cy="151.48" r="97.03"/><circle class="cls-2" cx="136.96" cy="151.48" r="104.09"/><polyline class="cls-3" points="213.34 81.1 271.32 41.25 305.78 41.25"/><polyline class="cls-3" points="214.19 220.92 271.32 255.56 305.78 255.56"/><polyline class="cls-3" points="239.72 131.27 272.01 116.16 306.47 116.16"/><polyline class="cls-3" points="238.56 172.75 271 186.07 305.46 186.07"/><path class="cls-4" d="M106.71,219.09h-2.2v-7.68H96.13v7.68H93.94V202.48h2.19v7.14h8.38v-7.14h2.2Z"/><path class="cls-4" d="M110.28,203.47a1.28,1.28,0,0,1,.32-.87,1.41,1.41,0,0,1,1.86,0,1.23,1.23,0,0,1,.32.87,1.3,1.3,0,0,1-2.18.86A1.24,1.24,0,0,1,110.28,203.47Zm2.29,15.62h-2.11V206.75h2.11Z"/><path class="cls-4" d="M115.43,212.82a7.2,7.2,0,0,1,1.35-4.57,4.24,4.24,0,0,1,3.52-1.73,4.29,4.29,0,0,1,3.44,1.48v-6.43h2.11v17.52h-1.94l-.1-1.32a4.32,4.32,0,0,1-3.53,1.55,4.23,4.23,0,0,1-3.5-1.75,7.36,7.36,0,0,1-1.35-4.59Zm2.11.24a5.44,5.44,0,0,0,.87,3.28,2.79,2.79,0,0,0,2.4,1.19,3.08,3.08,0,0,0,2.93-1.8v-5.67a3.09,3.09,0,0,0-2.91-1.75,2.81,2.81,0,0,0-2.42,1.2A6,6,0,0,0,117.54,213.06Z"/><path class="cls-4" d="M136.75,219.09a4.51,4.51,0,0,1-.3-1.3,4.7,4.7,0,0,1-3.51,1.53,4.36,4.36,0,0,1-3-1,3.34,3.34,0,0,1-1.17-2.62,3.5,3.5,0,0,1,1.47-3,6.92,6.92,0,0,1,4.12-1.06h2.06v-1a2.35,2.35,0,0,0-.66-1.76,2.69,2.69,0,0,0-2-.66,3.07,3.07,0,0,0-1.89.57,1.69,1.69,0,0,0-.77,1.38H129a2.92,2.92,0,0,1,.66-1.79,4.57,4.57,0,0,1,1.78-1.36,6.06,6.06,0,0,1,2.47-.5,4.82,4.82,0,0,1,3.34,1.07,3.83,3.83,0,0,1,1.26,2.93v5.69a6.93,6.93,0,0,0,.43,2.7v.18Zm-3.51-1.6a3.76,3.76,0,0,0,1.89-.52,3.17,3.17,0,0,0,1.29-1.33V213.1h-1.66c-2.58,0-3.88.76-3.88,2.27a1.94,1.94,0,0,0,.66,1.56A2.58,2.58,0,0,0,133.24,217.49Z"/><path class="cls-4" d="M144.13,219.09H142V201.57h2.11Z"/><path class="cls-4" d="M147,212.82a7.27,7.27,0,0,1,1.33-4.6,4.61,4.61,0,0,1,7.07-.1l.1-1.37h1.93V218.8a5,5,0,0,1-1.42,3.77A5.22,5.22,0,0,1,152.2,224a6.19,6.19,0,0,1-2.61-.58,4.49,4.49,0,0,1-2-1.56l1.1-1.27a4.13,4.13,0,0,0,3.32,1.68,3.25,3.25,0,0,0,2.4-.86,3.31,3.31,0,0,0,.86-2.45v-1.06a4.3,4.3,0,0,1-3.45,1.46,4.21,4.21,0,0,1-3.51-1.74A7.6,7.6,0,0,1,147,212.82Zm2.12.24a5.48,5.48,0,0,0,.86,3.28,2.78,2.78,0,0,0,2.39,1.19,3.08,3.08,0,0,0,2.93-1.81v-5.64a3.12,3.12,0,0,0-2.91-1.77,2.79,2.79,0,0,0-2.4,1.2A6,6,0,0,0,149.13,213.06Z"/><path class="cls-4" d="M160.06,212.81a7.4,7.4,0,0,1,.71-3.27,5.27,5.27,0,0,1,4.89-3,5.19,5.19,0,0,1,4.08,1.74,6.74,6.74,0,0,1,1.56,4.65v.15a7.33,7.33,0,0,1-.69,3.23,5.22,5.22,0,0,1-2,2.23,5.42,5.42,0,0,1-2.95.8,5.2,5.2,0,0,1-4.07-1.74,6.7,6.7,0,0,1-1.56-4.63Zm2.12.25a5.26,5.26,0,0,0,1,3.3,3.06,3.06,0,0,0,2.55,1.24,3,3,0,0,0,2.55-1.26,5.79,5.79,0,0,0,.95-3.53,5.3,5.3,0,0,0-1-3.3,3.08,3.08,0,0,0-2.57-1.26,3,3,0,0,0-2.52,1.25A5.72,5.72,0,0,0,162.18,213.06Z"/><path id="MEX2730" class="cls-5" d="M188.6,132a17.64,17.64,0,0,1-7.11,6c-1,1.19-1.81,3.75-3.27,4.41-1.49.43-3.69,0-4.8,1.35-.11,1.79-2.2,3.91-1.15,5.38l.77.38.19.58a4.92,4.92,0,0,1,1,.38,19.84,19.84,0,0,1,4.61-1.54l1.54.77a14.75,14.75,0,0,1,1,4.8c.41,1,1.35,2.18,1.15,3.27-2.31,2.12-4,4-4.23,7.3-1.17,1.66-2.55,3.48-3.65,5.19-1.88,2.1-.74,4.8.77,6.72a31.15,31.15,0,0,0,4.61,7.49c-2.29.2-5.27-1-6.34-3.07a2.52,2.52,0,0,0-1.34.57c-3.42,5.27-3,6.41-4.61,7.49-2.46-2.23-6.5-.43-8.45-3.26-1,.2-1.85,1.39-2.69,1.92h-1L154,186.89c-1.14,0-2.07,1.4-3.07,1.73l-.58-.39a7.63,7.63,0,0,0-.58,1.35,4.44,4.44,0,0,1-1.15.38c1.25-2.62,2.84-5.18,3.84-7.87-.28-3.41-3.57-6.26-5.57-8.84-2.38-1.14-4.84,2.29-6.72-1.92l-2.11-.77c-1.14,1.38-3.57,4.09-4.81,5.38l-2.69-.39c-1.22-2.38.95-5.54,1.73-7.87-.24,0-.71-.24-1-.19,1.85-3.92-2.39-8.38-6.34-6.53-4.06,3.25-5.73,2.11-9.22,3.65-.9,1.61-.11,3.89-1.15,5.37a2.09,2.09,0,0,1-1.73,0l-1.34,1a8.57,8.57,0,0,1-1,3.85l-1.92-.2c-1.69.84-2.63,3.28-4,4.42-.86-1.59.12-4.67-2.11-5.18-.44-1.1,0-2.91-.58-4-1.2-1.23-3.45-1.23-4.8-2.3-1.15-2.66,1.09-5.46,1.54-8.07-1-1.67-3-4.62-3.84-6.34-2.12-1.17-5-.59-5.57,1.92a29.41,29.41,0,0,1-7.69-7.11c-1-2.53-2.07-3.5-4.61-4.61.41-4,1.43-9.05,1.54-13.06A27.94,27.94,0,0,1,87,127.15l.19-.39c2.69,1.63,3.19-2.38,5-3.07l.57.58h.39c.64-.83.8-2.19,2.11-2.12,1.1-.48,1.89-1.85,3.27-1.53-3.42-2.9-1.4-7.78-.2-11.34.82-2.24,4.52-3.38,5.77-5.18.94-3.59.1-3.8,2.49-7.3.4-1.35-1.93-3.07-1.53-4.42,1.1-1.53,3.5-1,4.22-3.07,2.39-1,4.36,2.6,6.92,1.15.91-.85,3.17-2.81,4.42-3.07a3.82,3.82,0,0,0,3.45-.58,3.14,3.14,0,0,0,1.54.38,23.28,23.28,0,0,1-.19-6c2-3.19,7.84-2.51,7.87,1.73-.36,2,5.21,4.27,6.53,4.22,2.35-.4,4.62-2.3,7.11-2.3a8,8,0,0,0,3.27.58c.58-.78,1.68-1.4,2.49-.58.85-3.25.35-7.08.2-10.37,1.06-1.27,3.21-1.24,4.61-1.92,1.28.82,3.16,2.16,4.41,3.07-1.76,1.78-4.06,4.48-2.68,7.11,3.35.62,4.09,5.85,7.68,5.76,1.16-1,3-2.17,3.84-3.46a8.39,8.39,0,0,0-.19-2.3l.77-.2c2.51,1.49.36,4.7-.2,6.73l.77,1.15,1.73.19a6.77,6.77,0,0,1,2.11-1.92c.52.71,1.47,2.46,2.5,2.5.39.47.66,1.35,1.15,1.73H180c1.56.91.21,4.59-1.54,4.22-3,3.28-5.69,7.66-3.45,12.1-3.93,2.18-8.89-5.89-12.49-1.53.6,1.66,1.61,2.7.77,4.61-1.12.73-2.63.51-3.84,1l-.77,1a3,3,0,0,0,.77,1.73l1.15.19a14.23,14.23,0,0,0,2.11-1.35l.77.2c1,4.55-4.64,6-6.34,9.22-.07,2.79-.63,5.39-3.07,7.1.41,3,3.52,5.43,4.22,8.46l1.92.57c3.79-1.07,3.45-5,5.58-7.11a7.63,7.63,0,0,1,1.72,1.73l.77.2c2.66-3.06,5.32-6.41,8.07-9.42,2.09-2.5,3.95-6.9,7.49-7.49.51.09.92,1,1.15,1.35a5.06,5.06,0,0,0,1.73.19l.58.77c.15.86-.34,1.9,0,2.69s1.4,1.46,1.34,2.49C186.73,127.66,186.61,130.14,188.6,132Z"/><path class="cls-1" d="M94.07,42.29a3.19,3.19,0,0,0,.53-1.36A1.53,1.53,0,0,0,94,39.62c-.42-.31-.74-.36-1.12.11l.29.08,0,.12a11.22,11.22,0,0,1-1.65-.34,3.48,3.48,0,0,0-2.58.07,8,8,0,0,1-2.47.61,5.56,5.56,0,0,0-2.64.84,1.41,1.41,0,0,0-.5.63A7.05,7.05,0,0,0,83,44.59a.88.88,0,0,1-.2.58,1.09,1.09,0,0,0-.5,1c0,.7-.43,1-.89,1.37s-.69.41-1,.64a4.27,4.27,0,0,0-.47.48h0l-1,.48h0a3.35,3.35,0,0,0-3,.34,1.34,1.34,0,0,1-.5.22c-.88.24-1.85-.18-2.71.52a3.91,3.91,0,0,1-1.73.43.65.65,0,0,1-.53-.16,3.25,3.25,0,0,0-1.32-1.22,3.61,3.61,0,0,0-1.47-.42,9,9,0,0,1-1-.11c-.28-.42-.51-.79-.76-1.15-.34-.51-.85-.94-.93-1.61A3.42,3.42,0,0,0,63.75,44a7.79,7.79,0,0,1-1.91-3.09,1,1,0,0,1,0-.63.74.74,0,0,0-.2-1,2.81,2.81,0,0,1-1.07-1.9c0-.32-.17-.63-.2-1a2.39,2.39,0,0,1,.05-.7c.06-.45.16-.9.22-1.35,0-.23,0-.47,0-.7.08-1.05.14-2.11.28-3.16A10.11,10.11,0,0,1,62,26.73a7.55,7.55,0,0,0,.5-1.59,1.27,1.27,0,0,0,0-.43,1.36,1.36,0,0,0-.51.11.46.46,0,0,1-.67-.05,1.67,1.67,0,0,0-1.24-.42,4.23,4.23,0,0,1-1.12-.25c-.64-.26-1.25-.61-1.9-.86a1,1,0,0,1-.65-.52c-.27-.58-.59-1.15-.88-1.73a1.36,1.36,0,0,1,0-.36c-.05-.42-.08-.85-.17-1.26A1.18,1.18,0,0,0,55,18.9c-.3-.32-.62-.62-.91-.94s-.6-.7-.89-1.06a1.4,1.4,0,0,1-.28-.36c-.25-.53-.46-1.09-.73-1.61a4.42,4.42,0,0,0-1.45-2.16c-.31-.2-.5-.6-.81-.79s-.45-.69-1-.7A20.29,20.29,0,0,1,46.7,11a.67.67,0,0,0-.31,0,4.68,4.68,0,0,0-.64.3,1.59,1.59,0,0,0-.57.48,6,6,0,0,0-.47,1.21,1.06,1.06,0,0,1-1.82.66c-.4-.28-.88-.45-1.31-.69a7.71,7.71,0,0,1-.77-.49,4.71,4.71,0,0,0-.45-.33,2.06,2.06,0,0,1-1.1-1.78,4.26,4.26,0,0,0-.93-2.12c-.28-.37-.82-.54-1.19-.86s-.93-.91-1.41-1.35c-.25-.23-.53-.43-.78-.65a2.62,2.62,0,0,1-.66-.67,1,1,0,0,0-1-.64c-1.34,0-2.68,0-4,0-1.15,0-1-.1-1,1,0,.47-.13.63-.61.62-2.54,0-5.08,0-7.62,0a2.57,2.57,0,0,1-.83-.12L8.77,1.84C8,1.57,8,1.56,8.18.78a4.09,4.09,0,0,0-.5,0l-6.47.58c-.52,0-.59.19-.36.67a2.8,2.8,0,0,0,.3.46L1.44,3a3,3,0,0,0,.34.57c.28.31.51.6.35,1.06-.1.31.06.54.29.78.4.41.87.82.75,1.52,0,.09.1.24.19.32.46.4.89.78.69,1.5,0,.15.13.52.22.53.46,0,.51.33.49.65a2.44,2.44,0,0,0,.52,1.65,7.29,7.29,0,0,0,1.65,1.16,4.11,4.11,0,0,1,.73.46c.82.86,1.61,1.74,2.39,2.63a.49.49,0,0,1,.09.39c-.14.53,0,1.14-.54,1.55-.06.06,0,.2-.08.31s-.22,0-.29.07a1.18,1.18,0,0,1-1.12.12,1.71,1.71,0,0,0-.5-.1,2.64,2.64,0,0,0-.46.13,2.59,2.59,0,0,0,.3.48c.51.5,1.33.7,1.47,1.56a.28.28,0,0,0,.16.16,7.17,7.17,0,0,0,1.36.73,1.36,1.36,0,0,1,.78.58c.19.27.4.56.82.19s1,.05,1.2.38a3,3,0,0,0,.43.52c.59.71,1.61.82,2.15,1.64a3.36,3.36,0,0,1,.33,2.66c-.22.49-.36,1-.56,1.61a5.24,5.24,0,0,0,.71.1c.39,0,.69.12.74.58l-.39.23.81.64.12-.1-.18-.57a.85.85,0,0,1,.27.13c1,.9,2.33,1.51,3.18,2.64a.89.89,0,0,0,.35.21,1.75,1.75,0,0,1,1,1.35,5.7,5.7,0,0,0,.22.81c.21.49.53.55.95.23.24-.19.5-.36.76-.53a1.15,1.15,0,0,0,0-1.86,1.14,1.14,0,0,1-.37-.49,6.73,6.73,0,0,0-.43-.94,3.48,3.48,0,0,0-.73-.57l-.8-.64-.12.07.1.79h0l-.45-.21a1.37,1.37,0,0,1-.66-1.56A1,1,0,0,0,20.46,28,5.64,5.64,0,0,1,19.9,27a3.45,3.45,0,0,0-.39-.82,2.24,2.24,0,0,1-.78-1.7.92.92,0,0,0-.07-.4c-.19-.53-.39-1.05-.59-1.57s-.47-1-1.14-1c-.09,0-.26-.25-.24-.35.06-.34-.09-.48-.37-.6-.12,0-.17-.23-.27-.35-.34-.41-.31-1.11-1-1.31a1.17,1.17,0,0,1-.81-1.09c-.08-.52-.18-1-.31-1.55,0-.13-.25-.22-.37-.33s-.4-.24-.43-.39c-.12-.75-.73-1-1.25-1.32a3.79,3.79,0,0,0-1-1.77c-.62-.6-1.46-.93-2-1.67a2.3,2.3,0,0,1-.48-1.27c0-.69-.13-1.38-.2-2.07a.45.45,0,0,0-.12-.25C7.5,6.48,7.81,5.65,8,4.87c.1-.49.46-.54.87-.24a3.27,3.27,0,0,0,.78.51,1.92,1.92,0,0,0,.83.06c.14,0,.3-.22.42-.19s.45.17.49.32c.18.68.72.73,1.28.88s.71.33.52.89a1.8,1.8,0,0,0,.43,1.77,2.27,2.27,0,0,1,.55,1.19c0,.85.58,1.37.91,2,.1.2.12.43.21.63a1,1,0,0,0,.27.35.91.91,0,0,0,.3.13l.08.13c-1.19-.14-.84.79-1.14,1.37.29.12.58.34.79.28s.37-.38.61-.65c.18.24.36.5.55.74s.53.88.91,1.09a2.87,2.87,0,0,1,1,1,3.31,3.31,0,0,0,.77.72,2.35,2.35,0,0,0,.65.27c.18-.07.42-.14.55-.05a.82.82,0,0,1,.21.51c0,.21-.06.46,0,.64s.39.58.54.89a.94.94,0,0,0,.86.63c.63,0,.75.35.84.85a.7.7,0,0,0,.91.64.78.78,0,0,1,.9.55,1.63,1.63,0,0,1,0,.95,2.17,2.17,0,0,1-.32.57,1.08,1.08,0,0,0,.21,1.21,4.61,4.61,0,0,1,.6.47,1.44,1.44,0,0,0,1.31.66.57.57,0,0,1,.21.1l.75.46,1,.56-.07.12L28,27.64a3.36,3.36,0,0,0,2.46,2.3c-.37.38,0,.52.2.71s.42.31.62.49a10.65,10.65,0,0,1,1,.93c.34.39.64.83,1,1.25.09.12.19.23.29.35a17,17,0,0,0,1.52,1.75,3.09,3.09,0,0,1,1.06,2.2,3,3,0,0,0,.25,1c.25.54.49,1.12,1.11,1.28a4.52,4.52,0,0,0,0,.68,1,1,0,0,1-.34,1,5.46,5.46,0,0,0-.57.78,3,3,0,0,1,.47.12c.13.08.24.19.36.28-.1.1-.18.24-.3.3a4.71,4.71,0,0,1-.54.12c-.48.12-.57.37-.28.77a2.67,2.67,0,0,1,.22.41,6.86,6.86,0,0,0,.45.95,14.44,14.44,0,0,0,1,1.3,2.51,2.51,0,0,0,.67.67,17.49,17.49,0,0,1,2.86,1.46A12.72,12.72,0,0,1,42.68,50a2,2,0,0,0,.62.5,17.32,17.32,0,0,0,1.71.6c.58.18,1.17.34,1.75.5a.36.36,0,0,0,.27,0c.49-.29.79,0,1.1.31a10.27,10.27,0,0,0,.77.71c.48.37,1,.71,1.47,1a2.14,2.14,0,0,0,.45.24c.57.21,1.15.38,1.71.61s1.09.52,1.65.76a7.35,7.35,0,0,0,1,.38c1,.29,2.08.22,2.84,1.09a1.45,1.45,0,0,0,.45.22c.57.25,1.13.51,1.7.74a5.36,5.36,0,0,0,.78.23,6,6,0,0,1,1.83.47,3.12,3.12,0,0,0,2.54.41,13.5,13.5,0,0,0,1.82-.72c.37-.17.71-.4,1.08-.58a6.49,6.49,0,0,1,.74-.26l.58-.18-.4-.28.26-.2.79.25-.22.23,1.9.63c1.64.53,2.69,1.85,3.91,2.94.65.57,1.24,1.19,1.86,1.79l.09,0c.08-.69.57-1.33.2-2.07a.74.74,0,0,1,0-.56c.3-.57.66-1.1,1-1.67a.78.78,0,0,1,.81-.48c1,0,2,0,3,0,.16,0,.41-.11.45-.23a5.15,5.15,0,0,0,.12-1s0,0-.07,0c-.42-.13-.6-.48-.8-.84a.82.82,0,0,0-.4-.36,4.22,4.22,0,0,1-1.53-1.35c1.06-.07,1.06-.07,1.06-1.13a.33.33,0,0,0,0-.1c-.07-.48.15-.61.62-.61,1.49,0,3,0,4.49,0,.22,0,.47.06.53-.29s.29-.3.5-.15.43.12.57-.11c.24-.39.45-.8.67-1.19-.11.14-.25.28-.35.43.1-.15.24-.29.35-.43h0l0,0h0c.14-.14.29-.41.43-.4.47,0,.66-.25.83-.6a4.94,4.94,0,0,1,.3-.49l.12,0a2.88,2.88,0,0,1-.1.51c-.12.27-.1.47.18.62a2.69,2.69,0,0,1,.33.26l.06.06h0c.13.4.24.1.28,0,.16-.43.29-.88.43-1.32.18-.62.36-1.24.55-1.91H91.8c.35-.24.82-.23.74-.74l-.78-.14a3.78,3.78,0,0,0,.66-1.17,3.3,3.3,0,0,1,1.08-2A2.72,2.72,0,0,0,94.07,42.29Z"/><path class="cls-1" d="M93.71,43.65a.29.29,0,0,0,.12.23.25.25,0,0,0,.24-.06c.21-.27.4-.56.64-.9C94,42.82,93.65,43.12,93.71,43.65Z"/><path id="MEX2730-2" data-name="MEX2730" class="cls-6" d="M59.91,43.15a.88.88,0,0,1-.36.3c0,.06-.09.19-.17.23s-.18,0-.24.07-.11.2-.06.27l0,0v0l0,0a.63.63,0,0,1,.23-.08l.08,0a.69.69,0,0,1,0,.24c0,.05.07.12.06.17a.55.55,0,0,0-.22.37c-.06.09-.13.18-.18.27s0,.24,0,.34a1.33,1.33,0,0,0,.23.38.36.36,0,0,1-.32-.15s-.06,0-.07,0c-.17.26-.15.32-.23.38-.13-.12-.34,0-.44-.17,0,0-.09.07-.13.1h-.05L58.15,46C58.09,46,58,46,58,46l0,0a.49.49,0,0,0,0,.07l0,0c.06-.14.14-.27.19-.4s-.18-.32-.28-.46-.25.12-.35-.09l-.1,0-.25.27-.14,0c-.06-.12,0-.28.09-.4h0a.25.25,0,0,0-.32-.33c-.21.16-.29.11-.47.18s0,.2-.06.28h-.09l-.07,0a.32.32,0,0,1,0,.19h-.09c-.09,0-.14.17-.21.23s0-.24-.11-.27,0-.14,0-.2-.17-.06-.24-.12,0-.28.08-.41l-.2-.32a.18.18,0,0,0-.28.09,1.34,1.34,0,0,1-.39-.36.37.37,0,0,0-.24-.23c0-.21.07-.47.08-.67a1.4,1.4,0,0,1,.43-.16v0c.14.09.16-.12.25-.15l0,0h0s0-.12.11-.11.1-.1.17-.08c-.18-.15-.07-.4,0-.58s.23-.17.29-.26,0-.2.13-.38-.1-.15-.08-.22.18-.05.22-.16.22.14.35.06a1.12,1.12,0,0,1,.22-.16.17.17,0,0,0,.18,0s.06,0,.08,0a1,1,0,0,1,0-.3c.1-.16.4-.13.4.09s.27.22.33.21.24-.11.37-.11l.16,0s.09-.08.13,0a1.88,1.88,0,0,0,0-.53c0-.07.16-.07.24-.1l.22.16c-.09.09-.21.23-.14.36s.21.3.4.29a1,1,0,0,0,.19-.17.49.49,0,0,0,0-.12h0c.13.08,0,.24,0,.34l0,.06h.09a.27.27,0,0,1,.11-.1s.07.13.12.13l.06.09h0c.08.05,0,.23-.08.21a.55.55,0,0,0-.17.62c-.2.11-.46-.3-.64-.08,0,.09.08.14,0,.24s-.13,0-.2.05l0,0s0,.07,0,.08h.06a.39.39,0,0,0,.11-.06h0c0,.23-.24.3-.32.47a.45.45,0,0,1-.16.36c0,.15.18.27.22.43l.09,0c.2-.06.18-.26.29-.36l.09.08h0l.42-.48c.1-.12.2-.35.38-.38a.2.2,0,0,1,.06.07h.09l0,0s0,.1,0,.14.08.07.07.12A.22.22,0,0,0,59.91,43.15Z"/></g></svg>