<?xml version="1.0" encoding="UTF-8"?><svg id="estados" xmlns="http://www.w3.org/2000/svg" viewBox="0 0 306.04 276.52"><defs><style>.cls-1,.cls-2{fill:#3bb1e6;}.cls-3{fill:#fff;}.cls-4{stroke-width:1.53px;}.cls-4,.cls-2,.cls-5{stroke:#fff;}.cls-4,.cls-5{fill:none;opacity:.67;stroke-miterlimit:10;}.cls-6{fill:#0a2f3a;opacity:.5;}.cls-2{stroke-linecap:round;stroke-linejoin:round;stroke-width:1.37px;}.cls-5{stroke-width:1.67px;}</style></defs><g id="hgo-icono"><circle class="cls-6" cx="136.96" cy="151.48" r="97.03"/><circle class="cls-5" cx="136.96" cy="151.48" r="104.09"/><polyline class="cls-4" points="229.53 104.17 271.63 73.79 306.09 73.79"/><polyline class="cls-4" points="229.02 199.66 271.63 220.23 306.09 220.23"/><polyline class="cls-4" points="240.77 150.49 271.63 150.49 306.09 150.49"/><g><path class="cls-1" d="M106.71,219.09h-2.2v-7.68h-8.38v7.68h-2.19v-16.61h2.19v7.14h8.38v-7.14h2.2v16.61Z"/><path class="cls-1" d="M110.28,203.47c0-.34,.1-.63,.31-.87s.52-.35,.93-.35,.72,.12,.94,.35c.21,.24,.32,.52,.32,.87s-.11,.63-.32,.86c-.21,.23-.52,.34-.94,.34s-.72-.11-.93-.34-.31-.51-.31-.86Zm2.28,15.62h-2.11v-12.35h2.11v12.35Z"/><path class="cls-1" d="M115.43,212.82c0-1.89,.45-3.42,1.35-4.57,.9-1.15,2.07-1.73,3.53-1.73s2.59,.49,3.43,1.48v-6.44h2.11v17.53h-1.94l-.1-1.32c-.84,1.03-2.02,1.55-3.53,1.55s-2.6-.59-3.5-1.76c-.9-1.17-1.35-2.7-1.35-4.59v-.16Zm2.11,.24c0,1.4,.29,2.5,.87,3.29,.58,.79,1.38,1.19,2.4,1.19,1.34,0,2.32-.6,2.93-1.8v-5.67c-.63-1.16-1.6-1.75-2.91-1.75-1.03,0-1.84,.4-2.42,1.2-.58,.8-.87,1.98-.87,3.55Z"/><path class="cls-1" d="M136.75,219.09c-.12-.24-.22-.68-.3-1.3-.98,1.02-2.15,1.53-3.51,1.53-1.22,0-2.22-.34-3-1.03-.78-.69-1.17-1.56-1.17-2.62,0-1.29,.49-2.28,1.47-3,.98-.71,2.35-1.07,4.13-1.07h2.05v-.97c0-.74-.22-1.33-.66-1.76-.44-.44-1.09-.66-1.95-.66-.75,0-1.38,.19-1.89,.57-.51,.38-.76,.84-.76,1.38h-2.12c0-.62,.22-1.21,.66-1.79,.44-.57,1.03-1.03,1.78-1.36,.75-.33,1.57-.5,2.47-.5,1.42,0,2.54,.36,3.34,1.07s1.22,1.69,1.26,2.94v5.68c0,1.13,.14,2.04,.43,2.7v.18h-2.21Zm-3.5-1.61c.66,0,1.29-.17,1.88-.51,.59-.34,1.02-.79,1.29-1.34v-2.53h-1.65c-2.59,0-3.88,.76-3.88,2.27,0,.66,.22,1.18,.66,1.55,.44,.37,1.01,.56,1.7,.56Z"/><path class="cls-1" d="M144.13,219.09h-2.11v-17.53h2.11v17.53Z"/><path class="cls-1" d="M147.01,212.82c0-1.92,.45-3.46,1.34-4.59,.89-1.14,2.07-1.71,3.54-1.71s2.68,.53,3.53,1.6l.1-1.37h1.93v12.05c0,1.6-.47,2.86-1.42,3.78-.95,.92-2.22,1.38-3.82,1.38-.89,0-1.76-.19-2.61-.57-.85-.38-1.5-.9-1.95-1.56l1.1-1.27c.91,1.12,2.01,1.68,3.32,1.68,1.03,0,1.83-.29,2.4-.87,.57-.58,.86-1.39,.86-2.44v-1.06c-.84,.97-2,1.46-3.46,1.46s-2.62-.58-3.51-1.75c-.89-1.16-1.34-2.75-1.34-4.76Zm2.12,.24c0,1.39,.29,2.49,.86,3.28,.57,.8,1.37,1.19,2.4,1.19,1.33,0,2.31-.6,2.93-1.81v-5.64c-.65-1.18-1.62-1.77-2.91-1.77-1.03,0-1.83,.4-2.41,1.2s-.87,1.98-.87,3.55Z"/><path class="cls-1" d="M160.06,212.81c0-1.21,.24-2.3,.71-3.26,.48-.97,1.14-1.71,1.99-2.24,.85-.52,1.82-.79,2.9-.79,1.68,0,3.04,.58,4.08,1.75,1.04,1.16,1.56,2.71,1.56,4.64v.15c0,1.2-.23,2.28-.69,3.23-.46,.95-1.12,1.7-1.97,2.23-.86,.53-1.84,.8-2.95,.8-1.67,0-3.03-.58-4.07-1.75-1.04-1.16-1.56-2.7-1.56-4.62v-.15Zm2.12,.25c0,1.37,.32,2.47,.95,3.3s1.49,1.24,2.55,1.24,1.92-.42,2.56-1.26c.63-.84,.95-2.02,.95-3.53,0-1.35-.32-2.45-.96-3.29-.64-.84-1.5-1.26-2.56-1.26s-1.88,.42-2.52,1.24c-.64,.83-.96,2.02-.96,3.56Z"/></g><path id="MEX2730" class="cls-2" d="M188.6,131.95c-1.77,2.58-4.28,4.65-7.11,5.95-1,1.19-1.81,3.76-3.26,4.42-1.5,.43-3.69,.03-4.8,1.34-.11,1.79-2.2,3.91-1.15,5.38l.77,.38,.19,.58c.23,.07,.76,.26,.96,.38,1.26-.48,3.23-1.46,4.61-1.54l1.54,.77c.44,1.26,1.07,3.46,.96,4.8,.41,.95,1.35,2.17,1.15,3.27-2.31,2.12-4.01,3.96-4.23,7.3-1.17,1.66-2.55,3.48-3.65,5.19-1.88,2.1-.75,4.8,.77,6.72,1.13,2.36,2.78,5.58,4.61,7.49-2.29,.2-5.27-.97-6.34-3.07-.29-.01-1.17,.34-1.34,.58-3.42,5.27-2.95,6.4-4.61,7.49-2.46-2.24-6.5-.43-8.45-3.27-1.03,.2-1.85,1.39-2.69,1.92h-.96c-.38-.28-1.16-.87-1.54-1.15-1.14-.05-2.07,1.41-3.07,1.73l-.58-.38c-.17,.3-.5,1.01-.58,1.34-.22,.16-.89,.33-1.15,.38,1.25-2.62,2.84-5.18,3.84-7.88-.28-3.4-3.58-6.25-5.57-8.84-2.39-1.14-4.84,2.29-6.72-1.92l-2.11-.77c-1.14,1.38-3.56,4.09-4.8,5.38l-2.69-.38c-1.23-2.39,.94-5.55,1.73-7.88-.24,.05-.72-.24-.96-.19,1.85-3.92-2.4-8.37-6.34-6.53-4.06,3.25-5.74,2.11-9.22,3.65-.9,1.61-.12,3.89-1.15,5.38-.5,.25-1.23,.25-1.73,0l-1.34,.96c.03,1.04-.39,2.96-.96,3.84l-1.92-.19c-1.69,.84-2.63,3.28-4.03,4.42-.86-1.6,.11-4.67-2.11-5.19-.44-1.1,.04-2.91-.58-4.03-1.21-1.23-3.46-1.23-4.8-2.31-1.15-2.66,1.09-5.46,1.54-8.07-1.04-1.67-2.97-4.62-3.84-6.34-2.12-1.17-4.99-.59-5.57,1.92-2.84-1.74-5.69-4.44-7.68-7.11-1.02-2.53-2.07-3.51-4.61-4.61,.41-4.01,1.43-9.05,1.54-13.06,2.51-1.27,5.63-2.72,8.45-3.07l.19-.38c2.68,1.63,3.19-2.39,4.99-3.07l.58,.58h.38c.65-.82,.81-2.18,2.11-2.11,1.1-.49,1.89-1.86,3.27-1.54-3.41-2.9-1.4-7.78-.19-11.33,.82-2.24,4.51-3.38,5.76-5.19,.95-3.58,.1-3.8,2.5-7.3,.39-1.35-1.93-3.07-1.54-4.42,1.11-1.53,3.51-1.05,4.23-3.07,2.38-.97,4.36,2.61,6.91,1.15,.91-.85,3.17-2.81,4.42-3.07,1.19,.29,2.5,.24,3.46-.58,.34,.16,1.15,.49,1.54,.38-.28-1.71-.42-4.26-.19-5.95,2.02-3.19,7.84-2.51,7.88,1.73-.37,1.99,5.21,4.27,6.53,4.23,2.34-.41,4.61-2.31,7.11-2.31,1.03,.3,2.16,.74,3.27,.58,.58-.77,1.68-1.4,2.5-.58,.85-3.25,.34-7.08,.19-10.37,1.06-1.27,3.22-1.24,4.61-1.92,1.29,.82,3.16,2.16,4.42,3.07-1.76,1.78-4.07,4.48-2.69,7.11,3.35,.63,4.1,5.85,7.68,5.76,1.16-1,2.96-2.17,3.84-3.46,.03-.57-.01-1.77-.19-2.31l.77-.19c2.51,1.49,.36,4.7-.19,6.72l.77,1.15,1.73,.19c.42-.56,1.43-1.68,2.11-1.92,.52,.71,1.47,2.45,2.5,2.5,.39,.47,.66,1.35,1.15,1.73h.58c1.56,.92,.21,4.59-1.54,4.23-2.99,3.28-5.69,7.65-3.46,12.1-3.93,2.18-8.88-5.89-12.49-1.54,.6,1.66,1.61,2.7,.77,4.61-1.11,.73-2.62,.51-3.84,.96l-.77,.96c.01,.53,.38,1.37,.77,1.73l1.15,.19c.69-.27,1.49-.95,2.11-1.34l.77,.19c.98,4.56-4.64,5.99-6.34,9.22-.07,2.8-.63,5.4-3.07,7.11,.41,3,3.52,5.42,4.23,8.45l1.92,.58c3.79-1.07,3.44-4.98,5.57-7.11,.52,.34,1.39,1.21,1.73,1.73l.77,.19c2.66-3.06,5.31-6.4,8.07-9.41,2.09-2.5,3.95-6.91,7.49-7.49,.51,.09,.92,.96,1.15,1.34,.41,.16,1.29,.23,1.73,.19l.58,.77c.15,.86-.34,1.9,0,2.69,.46,.77,1.4,1.46,1.34,2.5-1.87,1.85-1.98,4.33,0,6.15Z"/><g><g><path class="cls-3" d="M94.07,42.29c.23-.43,.53-.9,.53-1.36,0-.45-.13-.96-.61-1.31-.43-.31-.75-.37-1.12,.1,.1,.03,.19,.06,.29,.09,0,.04-.02,.08-.02,.11-.55-.11-1.12-.15-1.65-.33-.89-.32-1.78-.27-2.58,.07-.81,.34-1.62,.54-2.47,.61-.95,.09-1.84,.3-2.64,.83-.21,.14-.4,.39-.5,.63-.4,.91-.32,1.89-.33,2.86,0,.2-.06,.48-.2,.57-.39,.26-.52,.65-.49,1.05,.04,.7-.43,1.02-.89,1.36-.32,.24-.7,.41-1.03,.64-.18,.13-.31,.32-.46,.48h0s0,0,0,0c-.34,.16-.68,.31-1.01,.47,0,0,0,0-.01,0,0,0,0,0,0,0-.73-.39-2.31-.19-2.94,.35-.13,.11-.32,.16-.5,.21-.88,.25-1.86-.18-2.72,.52-.42,.34-1.14,.33-1.73,.43-.16,.03-.43-.04-.52-.16-.38-.47-.67-.95-1.32-1.22-.49-.2-.93-.43-1.48-.42-.38,0-.76-.07-1.03-.1-.28-.42-.52-.79-.76-1.15-.35-.52-.85-.94-.93-1.61-.1-.86-.61-1.52-1.19-2.07-.91-.88-1.49-1.93-1.91-3.09-.07-.18-.04-.44,.03-.63,.17-.4,.19-.71-.2-1.02-.6-.48-.98-1.11-1.07-1.9-.04-.32-.17-.63-.21-.96-.03-.23,.02-.47,.05-.7,.07-.45,.16-.9,.22-1.35,.03-.23-.04-.47-.02-.7,.08-1.06,.14-2.12,.28-3.16,.18-1.28,.42-2.54,1.07-3.7,.27-.47,.36-1.05,.51-1.59,.04-.13-.02-.29-.03-.43-.17,.03-.38,.02-.51,.11-.26,.19-.49,.14-.67-.05-.34-.38-.78-.38-1.24-.42-.38-.03-.77-.1-1.12-.25-.65-.26-1.25-.62-1.9-.86-.29-.11-.51-.22-.64-.51-.28-.59-.6-1.15-.88-1.73-.05-.1-.03-.24-.05-.36-.05-.42-.08-.85-.18-1.27-.04-.17-.21-.33-.34-.47-.3-.32-.61-.62-.9-.94-.31-.34-.6-.7-.89-1.05-.1-.12-.22-.23-.28-.36-.25-.53-.46-1.09-.72-1.61-.39-.78-.62-1.66-1.45-2.16-.31-.19-.5-.6-.81-.79-.34-.21-.45-.69-.98-.69-.73-.01-1.46-.16-2.2-.25-.1-.01-.21,0-.3,.04-.22,.09-.44,.18-.64,.3-.21,.13-.46,.27-.57,.48-.21,.38-.35,.8-.47,1.21-.28,.99-1.01,1.24-1.83,.66-.4-.28-.87-.45-1.3-.69-.27-.15-.52-.32-.78-.49-.15-.1-.28-.25-.44-.33-.75-.36-1.03-1.07-1.1-1.78-.08-.84-.48-1.5-.93-2.12-.27-.38-.82-.54-1.19-.86-.49-.42-.93-.91-1.41-1.35-.25-.23-.53-.43-.78-.65-.23-.21-.53-.4-.66-.67-.22-.47-.54-.64-1.03-.63-1.34,0-2.68,0-4.02,0-1.15,0-1-.11-.99,1,0,.47-.14,.62-.61,.62-2.54-.02-5.08,0-7.63-.01-.28,0-.57-.03-.83-.12-3.48-1.25-6.95-2.52-10.42-3.79-.74-.27-.74-.28-.59-1.06-.18,0-.34-.01-.5,0-2.16,.19-4.31,.38-6.47,.58-.52,.05-.59,.19-.36,.68,.08,.17,.21,.31,.3,.46,.1,.17,.2,.34,.3,.51,.11,.19,.19,.42,.34,.58,.28,.31,.51,.6,.35,1.06-.1,.31,.06,.54,.29,.77,.4,.42,.87,.82,.75,1.52-.02,.09,.1,.24,.19,.32,.45,.4,.89,.78,.68,1.5-.04,.15,.13,.53,.22,.53,.46,.03,.51,.33,.49,.65-.04,.63,.18,1.23,.52,1.65,.42,.5,1.09,.79,1.65,1.16,.24,.16,.54,.26,.73,.46,.82,.86,1.61,1.74,2.39,2.63,.08,.09,.11,.27,.08,.39-.14,.53-.03,1.15-.53,1.56-.07,.05-.06,.2-.08,.3-.1,.02-.22,.02-.3,.07-.35,.26-.72,.24-1.11,.12-.16-.05-.33-.1-.5-.09-.16,0-.31,.09-.47,.13,.1,.16,.18,.35,.31,.47,.51,.5,1.33,.7,1.46,1.56,0,.06,.1,.12,.16,.16,.45,.25,.88,.58,1.36,.72,.37,.11,.57,.3,.78,.59,.19,.27,.41,.55,.82,.19,.28-.25,1,.05,1.2,.38,.11,.19,.28,.35,.43,.52,.59,.7,1.61,.82,2.16,1.64,.41,.62,.65,1.97,.33,2.66-.23,.49-.36,1.02-.56,1.61,.27,.04,.49,.1,.71,.1,.4,.01,.7,.12,.75,.57-.12,.07-.23,.14-.39,.23,.3,.24,.56,.44,.81,.64,.04-.03,.08-.06,.12-.09-.05-.17-.11-.35-.18-.58,.12,.06,.21,.08,.27,.13,1.03,.91,2.32,1.51,3.18,2.64,.08,.1,.23,.17,.36,.22,.63,.23,.88,.75,1.03,1.35,.07,.27,.12,.55,.22,.81,.2,.49,.53,.55,.94,.23,.25-.19,.51-.36,.76-.53,.63-.43,.6-1.45-.03-1.86-.16-.1-.27-.31-.36-.49-.16-.31-.23-.67-.43-.94-.18-.24-.48-.38-.73-.57-.27-.21-.53-.43-.8-.64-.04,.02-.08,.05-.12,.07,.03,.26,.06,.53,.09,.79,0,0,0,0,0,.01,0,0,0,0,0,0-.15-.07-.3-.15-.45-.21-.51-.22-.88-1.05-.66-1.56,.2-.46,.1-.82-.21-1.2-.23-.28-.39-.62-.56-.95-.14-.27-.19-.6-.39-.82-.44-.5-.85-.97-.79-1.69,.01-.13-.02-.28-.07-.41-.19-.52-.39-1.04-.59-1.57-.2-.53-.47-.98-1.14-.99-.09,0-.25-.24-.24-.35,.06-.34-.09-.48-.37-.6-.12-.05-.18-.23-.27-.35-.35-.42-.31-1.11-.95-1.31-.53-.17-.72-.58-.8-1.09-.08-.52-.18-1.04-.32-1.55-.04-.14-.24-.22-.37-.34-.15-.13-.4-.24-.42-.39-.12-.74-.73-.98-1.26-1.32-.19-.67-.47-1.24-1-1.77-.62-.6-1.46-.93-1.95-1.67-.27-.4-.47-.77-.48-1.27-.02-.69-.13-1.38-.2-2.07,0-.09-.05-.19-.11-.25-.68-.73-.37-1.56-.2-2.34,.11-.49,.47-.54,.88-.24,.25,.18,.49,.41,.77,.51,.25,.09,.55,.08,.83,.06,.15-.01,.31-.22,.43-.19,.18,.04,.44,.18,.48,.32,.18,.68,.72,.73,1.28,.88,.68,.18,.71,.33,.52,.89-.23,.68,.01,1.23,.42,1.77,.26,.35,.55,.79,.55,1.19,0,.85,.58,1.37,.91,2.03,.1,.2,.12,.43,.21,.63,.06,.13,.16,.26,.27,.35,.08,.07,.2,.08,.3,.12,.03,.04,.05,.09,.08,.13-1.18-.13-.84,.8-1.13,1.38,.29,.11,.57,.33,.79,.28,.22-.06,.37-.38,.6-.65,.18,.24,.36,.49,.56,.74,.29,.38,.52,.87,.91,1.08,.48,.26,.72,.64,1.01,1.04,.2,.28,.48,.51,.77,.72,.19,.14,.43,.19,.65,.28,.18-.07,.42-.14,.55-.05,.13,.08,.18,.33,.21,.51,.03,.21-.06,.46,.02,.64,.13,.32,.39,.58,.54,.89,.18,.37,.47,.63,.86,.63,.63-.01,.75,.35,.84,.85,.09,.51,.39,.74,.91,.65,.51-.1,.76,.23,.9,.55,.12,.26,.03,.64-.03,.95-.04,.2-.21,.38-.32,.57-.2,.35-.09,.98,.21,1.21,.2,.16,.43,.28,.6,.47,.35,.4,.72,.74,1.31,.67,.07,0,.14,.05,.21,.09,.25,.15,.5,.32,.75,.47,.33,.19,.66,.37,.99,.56-.02,.04-.05,.08-.07,.12-.16-.1-.31-.19-.51-.31,.35,1.03,1.37,2.23,2.46,2.29-.36,.38-.03,.53,.2,.71,.21,.17,.42,.32,.62,.49,.33,.3,.68,.59,.97,.93,.34,.39,.64,.83,.96,1.25,.09,.12,.2,.24,.3,.35,.5,.59,.94,1.24,1.51,1.75,.69,.61,.99,1.32,1.06,2.2,.03,.33,.12,.67,.25,.97,.25,.55,.49,1.13,1.1,1.28-.02,.28-.07,.48-.04,.68,.05,.39-.05,.68-.34,.96-.21,.2-.35,.47-.57,.77,.24,.06,.37,.07,.47,.13,.13,.07,.24,.18,.36,.28-.1,.1-.18,.24-.3,.3-.17,.07-.36,.07-.55,.12-.48,.12-.56,.37-.27,.77,.09,.12,.15,.27,.22,.4,.15,.32,.25,.67,.45,.95,.31,.46,.68,.88,1.04,1.3,.21,.24,.41,.53,.67,.67,.95,.49,2,.8,2.86,1.47,.46,.36,.8,.88,1.21,1.31,.18,.19,.38,.41,.62,.51,.56,.23,1.14,.41,1.72,.59,.58,.18,1.17,.34,1.75,.5,.08,.02,.2,.03,.27,0,.48-.28,.78,.02,1.09,.32,.25,.24,.5,.5,.78,.71,.48,.36,.97,.7,1.46,1.04,.14,.1,.29,.18,.45,.24,.57,.21,1.15,.39,1.72,.62,.56,.23,1.09,.52,1.64,.76,.33,.15,.67,.28,1.02,.38,.98,.28,2.08,.21,2.84,1.08,.1,.12,.3,.15,.46,.22,.56,.25,1.12,.51,1.69,.75,.25,.1,.52,.16,.78,.23,.6,.16,1.25,.1,1.83,.47,.77,.49,1.66,.65,2.55,.41,.62-.17,1.22-.46,1.82-.72,.37-.17,.72-.4,1.08-.58,.23-.11,.49-.18,.74-.26,.16-.05,.32-.1,.57-.18-.19-.13-.28-.2-.4-.28,.13-.1,.24-.18,.27-.2,.32,.1,.56,.18,.78,.25-.05,.05-.14,.15-.22,.24,.65,.21,1.27,.42,1.9,.62,1.64,.53,2.69,1.86,3.91,2.94,.65,.57,1.24,1.2,1.86,1.8,.03-.02,.08-.03,.08-.05,.08-.69,.57-1.32,.2-2.07-.07-.14-.03-.4,.06-.56,.3-.57,.65-1.1,.94-1.67,.18-.35,.41-.49,.81-.48,1,.02,2,.02,2.99,0,.16,0,.41-.11,.44-.23,.09-.31,.09-.65,.13-.97,0-.01-.05-.04-.07-.05-.42-.14-.6-.48-.8-.84-.08-.15-.25-.3-.41-.36-.66-.28-1.07-.81-1.53-1.34q1.06-.08,1.07-1.14s0-.06,0-.09c-.07-.48,.15-.61,.61-.61,1.5,.02,2.99,.01,4.49,0,.22,0,.47,.06,.54-.29,.06-.31,.29-.31,.49-.15,.25,.19,.44,.12,.57-.12,.23-.39,.45-.79,.67-1.19-.12,.15-.25,.29-.36,.44,.11-.15,.24-.29,.36-.44,0,0,0,0,0,0,0,0,.01-.01,.01-.02h0s0,0,0,0c.14-.14,.3-.41,.43-.4,.47,.02,.66-.25,.83-.6,.08-.17,.2-.32,.31-.48,.04,.02,.08,.03,.12,.05-.03,.17-.04,.35-.1,.51-.11,.27-.1,.47,.18,.62,.12,.07,.23,.17,.33,.26,.02,.02,.04,.04,.06,.06h0c.13,.4,.24,.1,.28-.03,.16-.43,.29-.88,.42-1.32,.19-.62,.36-1.24,.56-1.91h-.59c.35-.24,.82-.23,.74-.74-.28-.05-.57-.1-.78-.14,.25-.43,.61-.78,.66-1.17,.1-.83,.51-1.45,1.08-2,.2-.2,.45-.37,.58-.61Z"/><path class="cls-3" d="M93.71,43.65c0,.08,.05,.2,.12,.23,.06,.03,.2,0,.24-.06,.21-.27,.4-.56,.64-.91-.7-.1-1.06,.21-1,.74Z"/></g><path id="MEX2730-2" class="cls-1" d="M59.91,43.15c-.09,.13-.22,.24-.36,.3-.05,.06-.09,.19-.17,.23-.08,.02-.19,0-.24,.07,0,.09-.11,.2-.06,.27l.04,.02v.03s.05,.01,.06,.02c.06-.02,.16-.07,.24-.08l.08,.04c.02,.06,.05,.18,.05,.24,.02,.05,.07,.11,.06,.17-.12,.11-.2,.2-.22,.37-.06,.08-.13,.18-.19,.26-.1,.11-.04,.24,.04,.34,.06,.12,.14,.28,.24,.38-.12,.01-.27-.05-.32-.16-.01,0-.06,.02-.07,.03-.17,.27-.15,.33-.24,.38-.13-.11-.33-.02-.43-.17-.05,.01-.09,.07-.14,.1h-.05l-.08-.06c-.06,0-.11,.07-.16,.09l-.03-.02s-.03,.05-.03,.07c-.01,0-.05,.02-.06,.02,.06-.13,.14-.26,.2-.4-.01-.17-.18-.32-.28-.45-.12-.06-.25,.12-.34-.1l-.11-.04c-.06,.07-.18,.21-.24,.27l-.14-.02c-.06-.12,.05-.28,.09-.4-.01,0-.04-.01-.05,0,.09-.2-.12-.43-.32-.33-.21,.17-.29,.11-.47,.19-.05,.08,0,.2-.06,.27-.03,.01-.06,.01-.09,0l-.07,.05c0,.05-.02,.15-.05,.2h-.1c-.09,.03-.13,.16-.21,.22-.04-.08,0-.24-.11-.26-.02-.06,0-.15-.03-.21-.06-.06-.18-.06-.24-.12-.06-.14,.06-.28,.08-.41-.05-.09-.15-.24-.2-.32-.11-.06-.25-.03-.28,.1-.14-.09-.29-.23-.39-.36-.05-.13-.11-.18-.24-.24,.02-.2,.07-.46,.08-.67,.13-.06,.29-.14,.43-.16v-.02c.15,.08,.17-.12,.26-.16l.03,.03h.02s.04-.11,.11-.11c.06-.02,.1-.09,.17-.08-.17-.15-.07-.4,0-.58,.04-.11,.23-.17,.29-.26,.05-.18,0-.19,.13-.37,.02-.07-.1-.16-.08-.23,.06-.08,.18-.05,.22-.16,.12-.05,.22,.13,.35,.06,.05-.04,.16-.14,.23-.16,.06,.01,.13,.01,.18-.03,.02,0,.06,.02,.08,.02-.01-.09-.02-.22,0-.3,.1-.16,.4-.13,.4,.09-.02,.1,.27,.22,.33,.22,.12-.02,.24-.12,.36-.12,.05,.02,.11,.04,.17,.03,.03-.04,.09-.07,.13-.03,.04-.17,.02-.36,0-.53,.05-.06,.16-.06,.24-.1,.07,.04,.16,.11,.23,.16-.09,.09-.21,.23-.14,.36,.17,.03,.21,.3,.39,.29,.06-.05,.15-.11,.2-.18,0-.03,0-.09,0-.12h.04c.13,.07,.02,.23,0,.33l.04,.06h.09s.07-.08,.11-.09c.03,.04,.07,.13,.13,.13,.02,.02,.03,.07,.06,.09h.03c.08,.05,.01,.23-.08,.22-.15,.17-.29,.39-.18,.62-.2,.11-.45-.3-.64-.08,.03,.08,.08,.14,.04,.24-.06,.04-.13,.03-.2,.05l-.04,.05s.02,.07,.04,.09h.06s.08-.04,.11-.06h.04c.05,.24-.24,.32-.32,.48,0,.14-.03,.28-.16,.36,.02,.15,.18,.28,.22,.43l.1,.03c.19-.05,.18-.25,.28-.36,.03,.02,.07,.06,.09,.09h.04c.14-.15,.27-.32,.41-.47,.11-.13,.2-.35,.38-.38,.03,0,.05,.05,.06,.07,.02,0,.07,.01,.09,0l.03,.04s-.02,.1,0,.14c.02,.04,.07,.07,.07,.13-.1,.09-.1,.22,0,.31Z"/></g></g></svg>