<?xml version="1.0" encoding="UTF-8"?><svg id="estados" xmlns="http://www.w3.org/2000/svg" viewBox="0 0 306.04 276.52"><defs><style>.cls-1,.cls-2{fill:#3bb1e6;}.cls-3{fill:#fff;}.cls-4{stroke-width:1.53px;}.cls-4,.cls-2,.cls-5{stroke:#fff;}.cls-4,.cls-5{fill:none;opacity:.67;stroke-miterlimit:10;}.cls-6{fill:#0a2f3a;opacity:.5;}.cls-2{stroke-linecap:round;stroke-linejoin:round;stroke-width:1.37px;}.cls-5{stroke-width:1.67px;}</style></defs><g id="jal-icono"><circle class="cls-6" cx="136.96" cy="151.48" r="97.03"/><circle class="cls-5" cx="136.96" cy="151.48" r="104.09"/><polyline class="cls-4" points="229.53 104.17 271.63 73.79 306.09 73.79"/><polyline class="cls-4" points="229.02 199.66 271.63 220.23 306.09 220.23"/><polyline class="cls-4" points="240.77 150.49 271.63 150.49 306.09 150.49"/><g><path class="cls-1" d="M108.21,202.54h2.2v11.77c0,1.59-.48,2.83-1.43,3.73-.96,.9-2.23,1.35-3.82,1.35s-2.94-.42-3.86-1.27c-.92-.84-1.38-2.03-1.38-3.55h2.19c0,.95,.26,1.69,.78,2.23s1.28,.8,2.27,.8c.91,0,1.64-.29,2.2-.86s.84-1.37,.85-2.4v-11.8Z"/><path class="cls-1" d="M121.43,219.16c-.12-.24-.22-.68-.3-1.3-.98,1.02-2.15,1.53-3.51,1.53-1.22,0-2.22-.34-3-1.03s-1.17-1.56-1.17-2.62c0-1.29,.49-2.28,1.47-3,.98-.71,2.35-1.07,4.12-1.07h2.05v-.97c0-.74-.22-1.33-.66-1.76-.44-.44-1.09-.66-1.95-.66-.75,0-1.38,.19-1.89,.57-.51,.38-.76,.84-.76,1.38h-2.12c0-.62,.22-1.21,.66-1.79,.44-.57,1.03-1.03,1.78-1.36,.75-.33,1.57-.5,2.47-.5,1.42,0,2.54,.36,3.34,1.07,.81,.71,1.22,1.69,1.26,2.94v5.68c0,1.13,.14,2.04,.43,2.7v.18h-2.21Zm-3.5-1.61c.66,0,1.29-.17,1.88-.51,.59-.34,1.02-.79,1.29-1.34v-2.53h-1.65c-2.59,0-3.88,.76-3.88,2.27,0,.66,.22,1.18,.66,1.55,.44,.37,1.01,.56,1.7,.56Z"/><path class="cls-1" d="M128.82,219.16h-2.11v-17.53h2.11v17.53Z"/><path class="cls-1" d="M132.21,203.54c0-.34,.1-.63,.31-.87,.21-.24,.52-.35,.93-.35s.72,.12,.94,.35,.32,.52,.32,.87-.11,.63-.32,.86-.52,.34-.94,.34-.72-.11-.93-.34c-.21-.23-.31-.51-.31-.86Zm2.28,15.62h-2.11v-12.35h2.11v12.35Z"/><path class="cls-1" d="M145.06,215.88c0-.57-.22-1.01-.65-1.33-.43-.32-1.18-.59-2.25-.82-1.07-.23-1.92-.5-2.54-.82-.63-.32-1.09-.7-1.39-1.14-.3-.44-.45-.97-.45-1.58,0-1.01,.43-1.87,1.28-2.57,.86-.7,1.95-1.05,3.28-1.05,1.4,0,2.54,.36,3.41,1.08,.87,.72,1.31,1.65,1.31,2.77h-2.12c0-.58-.25-1.08-.74-1.5s-1.11-.63-1.85-.63-1.37,.17-1.8,.5c-.43,.33-.65,.77-.65,1.31,0,.51,.2,.89,.6,1.15,.4,.26,1.13,.51,2.19,.74s1.91,.52,2.56,.84c.65,.33,1.14,.72,1.45,1.18,.32,.46,.47,1.02,.47,1.68,0,1.1-.44,1.99-1.32,2.65s-2.03,1-3.43,1c-.99,0-1.86-.17-2.62-.52s-1.36-.84-1.79-1.47c-.43-.63-.65-1.31-.65-2.04h2.11c.04,.71,.32,1.27,.85,1.68s1.23,.62,2.09,.62c.8,0,1.44-.16,1.92-.48,.48-.32,.72-.75,.72-1.3Z"/><path class="cls-1" d="M154.87,217.66c.75,0,1.41-.23,1.97-.69,.56-.46,.87-1.03,.94-1.71h2c-.04,.71-.28,1.38-.73,2.02-.45,.64-1.05,1.15-1.8,1.53-.75,.38-1.54,.57-2.38,.57-1.68,0-3.02-.56-4.01-1.68-.99-1.12-1.49-2.66-1.49-4.6v-.35c0-1.2,.22-2.27,.66-3.21,.44-.94,1.07-1.66,1.9-2.18,.83-.52,1.8-.78,2.93-.78,1.38,0,2.54,.42,3.45,1.24,.92,.83,1.41,1.91,1.47,3.23h-2c-.06-.8-.36-1.46-.91-1.97s-1.22-.77-2.01-.77c-1.07,0-1.9,.39-2.49,1.16-.59,.77-.88,1.89-.88,3.35v.4c0,1.42,.29,2.52,.88,3.29,.59,.77,1.42,1.15,2.51,1.15Z"/><path class="cls-1" d="M161.59,212.87c0-1.21,.24-2.3,.71-3.26,.48-.97,1.14-1.71,1.99-2.24,.85-.52,1.82-.79,2.9-.79,1.68,0,3.04,.58,4.08,1.75s1.56,2.71,1.56,4.64v.15c0,1.2-.23,2.28-.69,3.23s-1.12,1.7-1.97,2.23-1.84,.8-2.95,.8c-1.67,0-3.03-.58-4.07-1.75s-1.56-2.7-1.56-4.62v-.15Zm2.12,.25c0,1.37,.32,2.47,.95,3.3s1.49,1.24,2.55,1.24,1.92-.42,2.56-1.26c.63-.84,.95-2.02,.95-3.53,0-1.35-.32-2.45-.96-3.29-.64-.84-1.5-1.26-2.56-1.26s-1.88,.42-2.52,1.24-.96,2.02-.96,3.56Z"/></g><path id="JAL" class="cls-2" d="M164.42,101.85c5.92-2.91,4.35,1.97,13.1,2.4,3.17,.65,4.13-.15,6.3-2.3,2.98-.77,2.2-1.68,3-4.1,.35-.28,1.14-.66,1.6-.7,.25-.3,.75-.9,1-1.2,1.74-.46,3.05-1.69,3.8-3.3,.9,.47,1.76,1.34,2.6,1.9,.84,.38,1.83-.04,2.7,0,1.05,.49,2.09,1.3,2.7,2.3,.32,.58,1.03,.67,1.6,.5,2.16,1.1-1.5,2.79-1.4,4.3,.14,1.09,1.14,2,1.7,2.9,.04,2.35-4.23,2.49-3.3,5.2,.65,1.41,2.35,2.74,2.2,4.4,.03,2.31-2.33,4.25-4.2,5.2-2.37-.05-2.48-.21-3.6,1.9-.37,.28-1.71,1.93-2,2.3-2.37,2.9-4.55,6.33-6.2,9.7-1.97,3.41,1.64,4.19,3.1,6.5,1.24,3.08-6.8,9.39-8.1,9.6-.49,.25-1.16-.58-1.7-.6-.53-.22-5.49,1.05-6.7,1.5-.46,.25-3.49,1.83-4,2.7-1.06,.89-2.79,.39-4,.8-1.16,1.38-5.7,1.81-7.3,2.5-2.32,.46-3.71,1.01-3,3.7,.13,.37,1.21,1.67,1.4,1.9,.82,.13,1.72-.34,2.5-.5,.92-.57,1.41,.55,2.2,.8,.97,0,2.15-.05,3.1,.2,.37-.17,.84,2,2.6,3.1-.55,1.25-2.19,1.05-3.3,1.4-.45,1.57,2.44,7.28,2.3,8-.98,4.2,.22,4.32,3.9,3.1,.95,.09,2.01,2.71,2.2,3-.13,.92-1.42,1.11-1.7,2,.38,1.36-1.21,2.55-1.9,3.6-.84,.83-.62-.46-1.5-.6-1.61-.48-3.8,1-4.3,1.1-4.06,.97-2.4,3.75-4.6,5.3-1.32,.67-3.01,.82-4.2,1.8-.25,.34-1.02,1.86-1.4,1.4-.64-.94-1.05-2-2.4-1.7-.8-1.3-1.55-1.85-2.4-.2-.59,2.53-3.35,.9-5,1.8-.57-3.3-2.34-3.05-.8-6.7,.4-1.09-.16-2.29-.1-3.4,.33-1.09,.97-1.39-.4-2-.58-.15-2.09-2.36-2.6-2.7-.89-1.48-1.08-4.6-3-1.9-.64,1.01-3.86,2.73-4.9,2.1-1.6-.6-3.19-1.44-4.6-2.4-.45-.17-1.74-1.73-1.8-2.1-1.35,1.32-2.96,2.72-3.1,4.7-.99,.33-3.12,2.41-3.8,2.7-.95,1.03-2.2,1.22-3.5,1.5-.36,.08-.68-.27-.9-.5-.44-.21-1.28,1.84-2,1.9-1.07-1.27-1.97-1-2.3,.6-.59,.61-1.51,1.12-1.4,2.1-1.54-.48-4.3-2.12-4.4-2.7-2.07-.26-2.59,1.28-2.1-1.8,.13-.88-2.34-.34-2.5,.1-.84-.46-2.93-1.45-3.6-2.1-.9-.65-.93-2.2-1.4-3.1-.2-.19-.92-1.89-1.5-2.3,.02-.89-.04-2.29-1-2.7-1.25,.3-1.35-.45-2.3-1-3.26-2.26-4.75-6.59-7.5-9.2-1.17-2.06-3.19-4.47-3.7-6.8-.11-1.23,.25-3.55-.7-4.5-.92-.49-1.29-1.71-1.9-2.5-.75-.07-2.05-3.17-2.2-3.6,.1-.5,3.56-2.34,3.9-2.7,1.3-.42,3.45,.18,4.6-.6,1.16-.12,3.11-.04,4-.9,1.31-1.27,2.1-1.25,2.1-3.5-.35-.72-1.51-.89-1.8-1.6,1.05-.35,1.42-1.9,2.2-2.6,1.72-1.92,2.55-4.99,5.2-5.9,.36-.06,1.69,.25,2,.3,2.72,.81,4.33-2.4,6.5-3.1,2.66-.56,3.63,3.12,6,3.3,2.21-.48,3.09,1.65,4.2,3.1,1.06,.68,2.58,1.15,3.1,2.4,.52,.85,1.76,1.09,2.5,1.7,.37-1.24-.09-2.87,.2-4.2,.34-1.65,1.34-3.23,2.1-4.7,.71-2.16,.04-4.58-.3-6.7,1.88-2.97,4.79,1.09,8-4,.45-.87-.17-2.38,.8-3-2.81-1.19-5.72-3.35-8.4-4.8,2.21-2.47,2.1-6.1,3.5-9-1.76-2.39-3.85-4.85-6.1-6.8-.85-1.37-3.72-2.26-3.2-4.1,2.62-6.98,1.03-5.25,8.3-8.2,5.46-.6,5.68,.86,6.5-5-.02-1.05-1.26-1.55-1.9-2.2-.47-1.65,.18-5.65,.1-7.4,1.8,.3,4.6,1,6.4,1.3-.22,1.44-.1,3.39-1,4.6-1.42,.75-1.38,1.24-1.2,2.7,.2,1.79-2.24,1.2-.7,3.3,.49,1.23-.67,2.22-.7,3.4,.12,1.62,.16,3.64,1.3,4.9,1.14-4.08,4.13-14.27,4.4-14,.49,0,1.21,0,1.7,0,.99,.06,1.18,1.75,1.5,2,.3,.7,0,1.51-.7,1.8-.75,1.6-1.04,3.74-1.6,5.4,.06,.9,.6,1.86,.6,2.8,.11,1.35-1.12,3.17,.2,4.2,1.18,.41,1.97-.69,2.8-1.2,.69,.26,2.08-.1,2.2,.9,1.11-1.48,.72-4.13,2.9-4.6,.37-1.21-.08-2.25,1.3-2.9,.63-.33-2.09-2.4-1.7-2.9,.3-1.01,.95-2.14,1.5-3,1.5,1.4,3.27,2.86,4.9,4.1,1.36,.5,1.2,1.38,.9,2.6,1.32-.49,2.88-1.3,3,.8,2.99-1.19,1.29,2.46,.4,3.6-.34,.52-.98,.47-1.5,.6-.24,.71-.05,1.44,.8,1.4,.8,.25,.73,1.39,.4,2-.32,.11-1.76,2.46-2.5,3-1.44,.99-3.64-1.17-4.4,.9-.39,.88-1.37,.59-2.1,.8-1.9,.69-3.28,2.81-4.8,4.1-.77,.8-.21,1.86,.2,2.7,.07,1.42,.25,3.19,.1,4.6-.61,.54-1.69,.86-2.3,1.4-1.43,3.25-1.69,2.8-4.5,1.2,.49,2.08,1.37,4.49,.6,6.6-.26,.53-1.16,.81-1,1.5,.16,.56-.48,1.83,.3,2,5.31-3.54,1.57,1.44,5.3,1.1,3.34-.89,1.93,1.89,5.3,1,2.62,.62,4.78,3.74,7.6,3,.86-.18,1.69,.74,2.4,1.1,2.4-.17,.43-5.81,.9-7.6,.54-1.86,3.02,.34,4.4-.5,1.31-.09,2.42-2.88,3.6-1.6-.03,.37-.42,.84-.2,1.2,.96,.23,1.95-2.41,2.3-2.8,.32-.08,.79-.18,1.1-.3,1.05-1.68,2.38-4.16,1.9-6.2-.77-.58-1.98,.12-2.8-.6-.39-.33-.97-.7-1.5-.7-.73-1.44,.39-3.29,.5-4.8h0Z"/><g><g><path class="cls-3" d="M94.07,42.29c.23-.43,.53-.9,.53-1.36,0-.45-.13-.96-.61-1.31-.43-.31-.75-.37-1.12,.1,.1,.03,.19,.06,.29,.09,0,.04-.02,.08-.02,.11-.55-.11-1.12-.15-1.65-.33-.89-.32-1.78-.27-2.58,.07-.81,.34-1.62,.54-2.47,.61-.95,.09-1.84,.3-2.64,.83-.21,.14-.4,.39-.5,.63-.4,.91-.32,1.89-.33,2.86,0,.2-.06,.48-.2,.57-.39,.26-.52,.65-.49,1.05,.04,.7-.43,1.02-.89,1.36-.32,.24-.7,.41-1.03,.64-.18,.13-.31,.32-.46,.48h0s0,0,0,0c-.34,.16-.68,.31-1.01,.47,0,0,0,0-.01,0,0,0,0,0,0,0-.73-.39-2.31-.19-2.94,.35-.13,.11-.32,.16-.5,.21-.88,.25-1.86-.18-2.72,.52-.42,.34-1.14,.33-1.73,.43-.16,.03-.43-.04-.52-.16-.38-.47-.67-.95-1.32-1.22-.49-.2-.93-.43-1.48-.42-.38,0-.76-.07-1.03-.1-.28-.42-.52-.79-.76-1.15-.35-.52-.85-.94-.93-1.61-.1-.86-.61-1.52-1.19-2.07-.91-.88-1.49-1.93-1.91-3.09-.07-.18-.04-.44,.03-.63,.17-.4,.19-.71-.2-1.02-.6-.48-.98-1.11-1.07-1.9-.04-.32-.17-.63-.21-.96-.03-.23,.02-.47,.05-.7,.07-.45,.16-.9,.22-1.35,.03-.23-.04-.47-.02-.7,.08-1.06,.14-2.12,.28-3.16,.18-1.28,.42-2.54,1.07-3.7,.27-.47,.36-1.05,.51-1.59,.04-.13-.02-.29-.03-.43-.17,.03-.38,.02-.51,.11-.26,.19-.49,.14-.67-.05-.34-.38-.78-.38-1.24-.42-.38-.03-.77-.1-1.12-.25-.65-.26-1.25-.62-1.9-.86-.29-.11-.51-.22-.64-.51-.28-.59-.6-1.15-.88-1.73-.05-.1-.03-.24-.05-.36-.05-.42-.08-.85-.18-1.27-.04-.17-.21-.33-.34-.47-.3-.32-.61-.62-.9-.94-.31-.34-.6-.7-.89-1.05-.1-.12-.22-.23-.28-.36-.25-.53-.46-1.09-.72-1.61-.39-.78-.62-1.66-1.45-2.16-.31-.19-.5-.6-.81-.79-.34-.21-.45-.69-.98-.69-.73-.01-1.46-.16-2.2-.25-.1-.01-.21,0-.3,.04-.22,.09-.44,.18-.64,.3-.21,.13-.46,.27-.57,.48-.21,.38-.35,.8-.47,1.21-.28,.99-1.01,1.24-1.83,.66-.4-.28-.87-.45-1.3-.69-.27-.15-.52-.32-.78-.49-.15-.1-.28-.25-.44-.33-.75-.36-1.03-1.07-1.1-1.78-.08-.84-.48-1.5-.93-2.12-.27-.38-.82-.54-1.19-.86-.49-.42-.93-.91-1.41-1.35-.25-.23-.53-.43-.78-.65-.23-.21-.53-.4-.66-.67-.22-.47-.54-.64-1.03-.63-1.34,0-2.68,0-4.02,0-1.15,0-1-.11-.99,1,0,.47-.14,.62-.61,.62-2.54-.02-5.08,0-7.63-.01-.28,0-.57-.03-.83-.12-3.48-1.25-6.95-2.52-10.42-3.79-.74-.27-.74-.28-.59-1.06-.18,0-.34-.01-.5,0-2.16,.19-4.31,.38-6.47,.58-.52,.05-.59,.19-.36,.68,.08,.17,.21,.31,.3,.46,.1,.17,.2,.34,.3,.51,.11,.19,.19,.42,.34,.58,.28,.31,.51,.6,.35,1.06-.1,.31,.06,.54,.29,.77,.4,.42,.87,.82,.75,1.52-.02,.09,.1,.24,.19,.32,.45,.4,.89,.78,.68,1.5-.04,.15,.13,.53,.22,.53,.46,.03,.51,.33,.49,.65-.04,.63,.18,1.23,.52,1.65,.42,.5,1.09,.79,1.65,1.16,.24,.16,.54,.26,.73,.46,.82,.86,1.61,1.74,2.39,2.63,.08,.09,.11,.27,.08,.39-.14,.53-.03,1.15-.53,1.56-.07,.05-.06,.2-.08,.3-.1,.02-.22,.02-.3,.07-.35,.26-.72,.24-1.11,.12-.16-.05-.33-.1-.5-.09-.16,0-.31,.09-.47,.13,.1,.16,.18,.35,.31,.47,.51,.5,1.33,.7,1.46,1.56,0,.06,.1,.12,.16,.16,.45,.25,.88,.58,1.36,.72,.37,.11,.57,.3,.78,.59,.19,.27,.41,.55,.82,.19,.28-.25,1,.05,1.2,.38,.11,.19,.28,.35,.43,.52,.59,.7,1.61,.82,2.16,1.64,.41,.62,.65,1.97,.33,2.66-.23,.49-.36,1.02-.56,1.61,.27,.04,.49,.1,.71,.1,.4,.01,.7,.12,.75,.57-.12,.07-.23,.14-.39,.23,.3,.24,.56,.44,.81,.64,.04-.03,.08-.06,.12-.09-.05-.17-.11-.35-.18-.58,.12,.06,.21,.08,.27,.13,1.03,.91,2.32,1.51,3.18,2.64,.08,.1,.23,.17,.36,.22,.63,.23,.88,.75,1.03,1.35,.07,.27,.12,.55,.22,.81,.2,.49,.53,.55,.94,.23,.25-.19,.51-.36,.76-.53,.63-.43,.6-1.45-.03-1.86-.16-.1-.27-.31-.36-.49-.16-.31-.23-.67-.43-.94-.18-.24-.48-.38-.73-.57-.27-.21-.53-.43-.8-.64-.04,.02-.08,.05-.12,.07,.03,.26,.06,.53,.09,.79,0,0,0,0,0,.01,0,0,0,0,0,0-.15-.07-.3-.15-.45-.21-.51-.22-.88-1.05-.66-1.56,.2-.46,.1-.82-.21-1.2-.23-.28-.39-.62-.56-.95-.14-.27-.19-.6-.39-.82-.44-.5-.85-.97-.79-1.69,.01-.13-.02-.28-.07-.41-.19-.52-.39-1.04-.59-1.57-.2-.53-.47-.98-1.14-.99-.09,0-.25-.24-.24-.35,.06-.34-.09-.48-.37-.6-.12-.05-.18-.23-.27-.35-.35-.42-.31-1.11-.95-1.31-.53-.17-.72-.58-.8-1.09-.08-.52-.18-1.04-.32-1.55-.04-.14-.24-.22-.37-.34-.15-.13-.4-.24-.42-.39-.12-.74-.73-.98-1.26-1.32-.19-.67-.47-1.24-1-1.77-.62-.6-1.46-.93-1.95-1.67-.27-.4-.47-.77-.48-1.27-.02-.69-.13-1.38-.2-2.07,0-.09-.05-.19-.11-.25-.68-.73-.37-1.56-.2-2.34,.11-.49,.47-.54,.88-.24,.25,.18,.49,.41,.77,.51,.25,.09,.55,.08,.83,.06,.15-.01,.31-.22,.43-.19,.18,.04,.44,.18,.48,.32,.18,.68,.72,.73,1.28,.88,.68,.18,.71,.33,.52,.89-.23,.68,.01,1.23,.42,1.77,.26,.35,.55,.79,.55,1.19,0,.85,.58,1.37,.91,2.03,.1,.2,.12,.43,.21,.63,.06,.13,.16,.26,.27,.35,.08,.07,.2,.08,.3,.12,.03,.04,.05,.09,.08,.13-1.18-.13-.84,.8-1.13,1.38,.29,.11,.57,.33,.79,.28,.22-.06,.37-.38,.6-.65,.18,.24,.36,.49,.56,.74,.29,.38,.52,.87,.91,1.08,.48,.26,.72,.64,1.01,1.04,.2,.28,.48,.51,.77,.72,.19,.14,.43,.19,.65,.28,.18-.07,.42-.14,.55-.05,.13,.08,.18,.33,.21,.51,.03,.21-.06,.46,.02,.64,.13,.32,.39,.58,.54,.89,.18,.37,.47,.63,.86,.63,.63-.01,.75,.35,.84,.85,.09,.51,.39,.74,.91,.65,.51-.1,.76,.23,.9,.55,.12,.26,.03,.64-.03,.95-.04,.2-.21,.38-.32,.57-.2,.35-.09,.98,.21,1.21,.2,.16,.43,.28,.6,.47,.35,.4,.72,.74,1.31,.67,.07,0,.14,.05,.21,.09,.25,.15,.5,.32,.75,.47,.33,.19,.66,.37,.99,.56-.02,.04-.05,.08-.07,.12-.16-.1-.31-.19-.51-.31,.35,1.03,1.37,2.23,2.46,2.29-.36,.38-.03,.53,.2,.71,.21,.17,.42,.32,.62,.49,.33,.3,.68,.59,.97,.93,.34,.39,.64,.83,.96,1.25,.09,.12,.2,.24,.3,.35,.5,.59,.94,1.24,1.51,1.75,.69,.61,.99,1.32,1.06,2.2,.03,.33,.12,.67,.25,.97,.25,.55,.49,1.13,1.1,1.28-.02,.28-.07,.48-.04,.68,.05,.39-.05,.68-.34,.96-.21,.2-.35,.47-.57,.77,.24,.06,.37,.07,.47,.13,.13,.07,.24,.18,.36,.28-.1,.1-.18,.24-.3,.3-.17,.07-.36,.07-.55,.12-.48,.12-.56,.37-.27,.77,.09,.12,.15,.27,.22,.4,.15,.32,.25,.67,.45,.95,.31,.46,.68,.88,1.04,1.3,.21,.24,.41,.53,.67,.67,.95,.49,2,.8,2.86,1.47,.46,.36,.8,.88,1.21,1.31,.18,.19,.38,.41,.62,.51,.56,.23,1.14,.41,1.72,.59,.58,.18,1.17,.34,1.75,.5,.08,.02,.2,.03,.27,0,.48-.28,.78,.02,1.09,.32,.25,.24,.5,.5,.78,.71,.48,.36,.97,.7,1.46,1.04,.14,.1,.29,.18,.45,.24,.57,.21,1.15,.39,1.72,.62,.56,.23,1.09,.52,1.64,.76,.33,.15,.67,.28,1.02,.38,.98,.28,2.08,.21,2.84,1.08,.1,.12,.3,.15,.46,.22,.56,.25,1.12,.51,1.69,.75,.25,.1,.52,.16,.78,.23,.6,.16,1.25,.1,1.83,.47,.77,.49,1.66,.65,2.55,.41,.62-.17,1.22-.46,1.82-.72,.37-.17,.72-.4,1.08-.58,.23-.11,.49-.18,.74-.26,.16-.05,.32-.1,.57-.18-.19-.13-.28-.2-.4-.28,.13-.1,.24-.18,.27-.2,.32,.1,.56,.18,.78,.25-.05,.05-.14,.15-.22,.24,.65,.21,1.27,.42,1.9,.62,1.64,.53,2.69,1.86,3.91,2.94,.65,.57,1.24,1.2,1.86,1.8,.03-.02,.08-.03,.08-.05,.08-.69,.57-1.32,.2-2.07-.07-.14-.03-.4,.06-.56,.3-.57,.65-1.1,.94-1.67,.18-.35,.41-.49,.81-.48,1,.02,2,.02,2.99,0,.16,0,.41-.11,.44-.23,.09-.31,.09-.65,.13-.97,0-.01-.05-.04-.07-.05-.42-.14-.6-.48-.8-.84-.08-.15-.25-.3-.41-.36-.66-.28-1.07-.81-1.53-1.34q1.06-.08,1.07-1.14s0-.06,0-.09c-.07-.48,.15-.61,.61-.61,1.5,.02,2.99,.01,4.49,0,.22,0,.47,.06,.54-.29,.06-.31,.29-.31,.49-.15,.25,.19,.44,.12,.57-.12,.23-.39,.45-.79,.67-1.19-.12,.15-.25,.29-.36,.44,.11-.15,.24-.29,.36-.44,0,0,0,0,0,0,0,0,.01-.01,.01-.02h0s0,0,0,0c.14-.14,.3-.41,.43-.4,.47,.02,.66-.25,.83-.6,.08-.17,.2-.32,.31-.48,.04,.02,.08,.03,.12,.05-.03,.17-.04,.35-.1,.51-.11,.27-.1,.47,.18,.62,.12,.07,.23,.17,.33,.26,.02,.02,.04,.04,.06,.06h0c.13,.4,.24,.1,.28-.03,.16-.43,.29-.88,.42-1.32,.19-.62,.36-1.24,.56-1.91h-.59c.35-.24,.82-.23,.74-.74-.28-.05-.57-.1-.78-.14,.25-.43,.61-.78,.66-1.17,.1-.83,.51-1.45,1.08-2,.2-.2,.45-.37,.58-.61Z"/><path class="cls-3" d="M93.71,43.65c0,.08,.05,.2,.12,.23,.06,.03,.2,0,.24-.06,.21-.27,.4-.56,.64-.91-.7-.1-1.06,.21-1,.74Z"/></g><path id="MEX2719" class="cls-1" d="M44.77,38.92c.53-.27,1.03,.43,1.64,.24,.47-.37,.76-.72,1.19-1.14,.32,.26,.84,.24,1.01,.59-.23,.17-.25,.38-.04,.58-.77,.65,.41,.86-.48,1.44-.62,.09-1.01,1-1.25,1.58,.56,.55,.3,.63-.02,1.23-.38,.26-.98-.07-1.28,.32-.55,.28-1.15,.38-1.73,.61-.12,.33,.14,.54,.44,.37,.13,.13,.33,.11,.5,.11,.08,.12,.01,.26,.21,.31-.05,.12-.22,.1-.32,.14-.08,.43,.33,.69,.21,1.14,.14,.06,.31-.05,.44-.04,.04,.12,.04,.25,.18,.28-.03,.12-.21,.13-.16,.28-.08,.09-.14,.26-.25,.29-.34-.33-.81,.23-.96,.54-.23,.07-.4,.13-.5,.34-.11-.06-.12-.24-.28-.2-.13-.25-.23-.02-.32,.12-.13,.03-.28-.03-.4,.04-.17-.38-.11-.72-.04-1.13-.25-.15-.36-.38-.49-.63-.16,.17-.35,.21-.52,.33-.26,0-.49-.23-.73-.33,.02-.03,0-.08,0-.12-.13,.13-.29,.27-.3,.46-.13,.03-.12,.17-.19,.25-.23-.05-.43,.28-.64,.1-.12,.04-.12,.13-.18,.2-.04-.06-.12-.11-.19-.06,0,.14-.18,.19-.18,.32-.1-.04-.3-.06-.3-.2-.21-.12-.41,.06-.33-.28-.08,0-.19,0-.24,.05-.26-.12-.44-.21-.49-.51l-.1-.04c-.01-.12-.02-.49-.23-.44-.95-.69-1.17-1.81-1.71-2.71,.27-.45,1.91-.18,1.25-.91,.27-.14,.46-.93,.78-.78,0,0,.02,.01,.03,.02,.3,0,.51-.21,.77-.35,.59,.24,1,.66,1.52,1.04,.04-.56,.28-1.08,.26-1.63,.44,.04,.72-.17,.79-.59-.28-.12-.56-.33-.82-.47,.22-.24,.21-.6,.34-.88-1.08-.86-1.15-1.88,.45-1.95,.2-.47-.25-.82-.09-1.35,.18,.03,.45,.1,.63,.13-.04,.37-.16,.6-.33,.89,.13,.3-.15,.68,.11,.96,.12-.39,.15-1.1,.38-1.42,.06,.1,.21,0,.27,.09-.04,.1-.01,.14,.09,.16-.19,.41-.2,.86-.21,1.32,.14,.24,.41-.23,.55,.04,.13-.28,.24-.55,.43-.74,.03-.06-.01-.09-.07-.08-.05-.04-.06-.11-.14-.13,.02-.12,.1-.26,.17-.36,.16,.24,.66,.35,.57,.66,.12-.05,.29-.11,.29,.08,.32-.13,.1,.44-.11,.41-.01,.02,0,.09,0,.12,.35,.08-.07,.28-.09,.47-.44,.1-.92,.22-1.2,.7,.26,.41-.16,1.22-.59,.88,.05,.24,.19,.57-.04,.75,0,.07-.02,.16,0,.23,.15-.03,.38-.26,.37,.07,.61,.07,1.15,.44,1.75,.54,.1-.25-.06-.56,.04-.8,.28,.07,.48,0,.72-.18,.08,.04,0,.1,.02,.16,.1,.02,.13-.07,.12-.15,1.11-1.07-.36-.49,.03-1.36h0Z"/></g></g></svg>