<?xml version="1.0" encoding="UTF-8"?><svg id="estados" xmlns="http://www.w3.org/2000/svg" viewBox="0 0 306.04 276.52"><defs><style>.cls-1,.cls-2{fill:#3bb1e6;}.cls-3{fill:#fff;}.cls-4{stroke-width:1.53px;}.cls-4,.cls-2,.cls-5{stroke:#fff;}.cls-4,.cls-5{fill:none;opacity:.67;stroke-miterlimit:10;}.cls-6{fill:#0a2f3a;opacity:.5;}.cls-2{stroke-linecap:round;stroke-linejoin:round;stroke-width:1.37px;}.cls-5{stroke-width:1.67px;}</style></defs><g id="mex-icono"><path class="cls-6" d="M233.99,151.48c-3.25-127.97-190.83-127.95-194.06,0,3.25,127.97,190.83,127.94,194.06,0Z"/><path class="cls-5" d="M241.05,151.48c-3.49-137.29-204.71-137.26-208.18,0,3.49,137.28,204.71,137.25,208.18,0Z"/><polyline class="cls-4" points="229.53 104.17 271.63 73.79 306.09 73.79"/><polyline class="cls-4" points="229.02 199.66 271.63 220.23 306.09 220.23"/><path class="cls-4" d="M240.77,150.49h65.32"/><g><path class="cls-1" d="M96.68,200.6h-7.2v5.89h8.36v1.79h-10.56v-16.61h10.44v1.79h-8.25v5.35h7.2v1.79Z"/><path class="cls-1" d="M107.43,205c-.11-1.57-1.25-1.71-2.89-2.15-3.38-.26-6.13-3.52-3.1-6.11,2.5-2.11,8.09-1.02,7.99,2.81h-2.12c.01-3.48-7.2-2.22-4.44,.84,.88,.59,3.77,.98,4.75,1.59,2.32,.92,2.58,4.12,.6,5.52-2.63,2.04-8.48,.97-8.49-3.03h2.11c-.08,2.77,5.34,3.24,5.59,.52Z"/><path class="cls-1" d="M115.15,192.94v2.99h2.31v1.63h-2.31v7.67c-.08,1.48,1.11,1.68,2.36,1.35v1.7c-2.36,.78-4.65-.31-4.47-3.06,0,0,0-7.66,0-7.66h-2.25v-1.63h2.25v-2.99h2.11Z"/><path class="cls-1" d="M127.54,208.28c-.12-.24-.22-.68-.3-1.3-7.67,6.05-12.53-7.56-.03-6.18,.03-.91,.04-2.14-.66-2.73-1.18-1.22-4.58-.73-4.61,1.29h-2.12c.42-4.88,9.73-4.97,9.51,.35,.09,1.75-.3,6.9,.43,8.39v.18h-2.21Zm-3.5-1.61c1.24,.02,2.65-.73,3.17-1.85v-2.53h-1.65c-4.41-.5-5.31,4.12-1.52,4.38Z"/><path class="cls-1" d="M132.12,202c-.54-4.83,4.86-8.53,8.31-4.82v-6.44h2.11v17.53h-1.94l-.1-1.32c-3.6,3.92-8.92,0-8.38-4.95Zm2.11,.24c-.48,4,4.15,6.34,6.2,2.67v-5.67c-2.27-3.7-6.72-1.13-6.2,3Z"/><path class="cls-1" d="M145.26,201.99c-.19-8.45,11.7-8.28,11.24,.25,.21,8.43-11.69,8.25-11.24-.25Zm2.12,.25c-.19,6.17,7.41,5.94,7.01-.25,.17-6.14-7.4-5.98-7.01,.25Z"/><path class="cls-1" d="M164.42,202c-.54-4.83,4.86-8.53,8.31-4.82v-6.44h2.11v17.53h-1.94l-.1-1.32c-3.6,3.92-8.92,0-8.38-4.95Zm2.11,.24c-.48,4,4.15,6.34,6.2,2.67v-5.67c-2.27-3.7-6.72-1.13-6.2,3Z"/><path class="cls-1" d="M183.23,208.5c-5.05,.23-6.87-5.79-4.96-9.73,3.32-5.94,10.74-2.74,9.77,3.93h-8.36c-.23,3.92,4.79,5.53,6.92,2.41l1.29,1c-1.03,1.59-2.59,2.38-4.66,2.38Zm-.26-11.07c-1.94,.02-2.99,1.59-3.22,3.54h6.18c-.03-1.96-.97-3.54-2.97-3.54Z"/><path class="cls-1" d="M104.08,216.66l5.43,13.56,5.43-13.56h2.84v16.61h-2.19c-.05-3.34,.07-10.1,.21-13.45l-5.45,13.45h-1.68l-5.44-13.42c.15,3.35,.27,10.08,.22,13.42h-2.19v-16.61h2.83Z"/><path class="cls-1" d="M126.45,233.5c-5.05,.23-6.87-5.79-4.96-9.73,3.32-5.94,10.74-2.74,9.77,3.93h-8.36c-.23,3.92,4.79,5.53,6.92,2.41l1.29,1c-1.03,1.59-2.59,2.38-4.66,2.38Zm-.26-11.07c-1.94,.02-2.99,1.59-3.22,3.54h6.18c-.03-1.96-.97-3.54-2.97-3.54Zm1.03-6.69h2.56l-3.06,3.35h-1.7s2.2-3.35,2.2-3.35Z"/><path class="cls-1" d="M137.85,225.44l2.74-4.51h2.46l-4.04,6.1,4.17,6.24h-2.44l-2.85-4.62-2.85,4.62h-2.45l4.17-6.24-4.04-6.1h2.44l2.7,4.51Z"/><path class="cls-1" d="M145.3,217.65c-.1-1.62,2.6-1.61,2.5,0,.1,1.58-2.6,1.59-2.5,0Zm2.28,15.62h-2.11v-12.35h2.11v12.35Z"/><path class="cls-1" d="M155.91,231.78c1.39,.03,2.81-.98,2.91-2.4h2c-1.39,6.94-11.37,4.46-10.41-2.52-.74-6.78,9.76-8.79,10.41-1.69h-2c-.04-2.76-3.92-3.69-5.41-1.58-1.58,2.3-1.4,8.36,2.5,8.19Z"/><path class="cls-1" d="M162.63,226.99c-.19-8.45,11.7-8.28,11.24,.25,.21,8.43-11.69,8.25-11.24-.25Zm2.12,.25c-.19,6.17,7.41,5.94,7.01-.25,.17-6.14-7.4-5.98-7.01,.25Z"/></g><path id="MEX2731" class="cls-2" d="M192.39,109.49c-.75-.06-1.86,.23-2.61,.17,.13,.73,.46,2.27,.7,2.96,.49,.43,1.98,.88,2.61,1.05,.26,.81,.17,2.12,.35,2.96-.94,1.12-1.38,2.79-1.74,4.18,.81,3.64,2,7.93,2.27,11.67-.17,.21-.63,.56-.87,.7-.34,2.14-.89,5.24,.35,7.14,.06,.57-.29,1.35-.35,1.92-.95,.33-1.92,1.07-2.79,1.57-.14,.4-.49,1.2-.7,1.57-2.04,.91-3.12,.22-5.05,.17-.22-.06-.56-.35-.7-.52v-.52c-.39-.89-.79-2.2-1.05-3.14l-.35-.35c-.12-.04-.58,.14-.7,.17-.82-.29-1.56-1.26-2.09-1.92-1.15-.38-2.82-.6-4.01-.87,.57-.79,1.48-1.92,1.39-2.96-.34-1.05-1.37-2.51-1.39-3.66-.12-1.57,.74-3.33,.17-4.88-.58-3.42-3.22-3.37-5.4-5.23l.87-.87c-.19-.17-.64-.61-.7-.87,.24-.14,.7-.48,.87-.7l.17-.52c-.63-1.13-1.36-2.41-1.74-3.66-1.32-.39-1.66-1.92-1.57-3.14-.26-.62-.79-1.25-1.39-1.57-.51,.51-1.23,1.23-1.74,1.74v1.22l-.52,.52,.52,.17,.35,.52-.17,.35c-.45,.33-1.07,.63-1.57,.87-1.39,2.25-3.45,4.25-4.36,6.8l-.7,.35c-.51-.09-1.58-.26-2.09-.35l-.17,1.22c-.39,.56-.94,1.77-1.05,2.44l.17,1.22,.35,.35v.35c-.17,.25-.53,.79-.7,1.05l.17,.52,.52,.35h.35c.08,.08,.27,.27,.35,.35-.31,1.69-.07,3.76,1.39,4.88-.6,1.22-2.06,1.88-2.61,3.14l.17,.87c.4,.32,1.01,1.11,1.22,1.57-.34,.26-1.05,.79-1.39,1.05l-.17,.7,.35,1.05,1.22,1.22,.35,1.57-.35,.87c-1.21,1.19-3.02,1.65-4.53,2.27-2.3,2.34-1.17,3.55-4.53,5.58,.05,2.39-.84,5-1.22,7.32l-1.05,.35c-.64-.1-1.97-.27-2.61-.35l-.7-.7-.52-1.22-.35-.35-.7-.17c-.56-.52-1.61-1.67-2.09-2.27l-1.05-.52c-1.55,1.26-3.15,3.15-4.88,4.18l-.35,.7c.27,1.42-.49,2.63-1.57,3.48l-.7-.17c-.63-.6-1.33-1.62-2.09-2.09-4.15-.56-8.77,2.75-13.07,2.96-1.84,4.9-4.96,7.78-9.06,10.8l-.7,.17c-.32,.54-.82,1.26-1.39,1.57-.37,.15-1.17,.21-1.57,.17-1.48-.77-2.74-2.36-3.48-3.83,.29-1.35,1.03-3.12,1.05-4.53-.33-2.81-4.09-4.01-4.7-6.62,.22-.6,.18-1.47,.17-2.09-.23-.41-.69-1.47-.87-1.92v-1.22c.26-.52,.79-1.58,1.05-2.09v-.7c-.14-.24-.48-.7-.7-.87-.25-.65-.1-1.61-.35-2.27-3.15-.24-6.77-.43-9.76-1.74l.52-.35v-.52c.13-.36,.51-.74,.87-.87l.17,.17,.35-.17c.6-1.54,2.28-2.06,3.48-2.96,.24-.64,.17-1.59,.17-2.27,.12-.44,.55-1.24,.87-1.57,4.54-3.66,7.47-9.86,11.5-14.11l.17-.52c-.17-.48-1.62-2.66-1.92-3.14,2.48-2.22,7.98-4.08,10.11-6.62-2.3-1.75-2.82-4.94-3.83-7.49,.89-2.6,1.63-6.03,2.79-8.54-1.03-4.26,2.06-8.96,2.26-13.24,1.16-2.33,2.79-4.55,4.36-6.62,1.43-2.69,3.73-5.71,5.92-7.84,.59-.33,1.95-.4,2.61-.35-.99-1.07-1.67-2.72-2.79-3.66l5.23-3.31c.6,.32,2.24,1.21,2.79,1.57,1.7,3.69,4.88,6.9,8.36,9.06,.42-.45,.45-1.29,.87-1.74,1.2-.58,3.01-.73,4.18,0,.78,1.55,2.55,4.25,3.48,5.75-.44,2.05-1.71,4.15-1.74,6.27l.35,1.05c.91,.65,2.42,1.11,3.48,1.39l.87,.7c.39,.89,.38,2.36,.35,3.31l.17,.35,.52,.17c.17,.17,.53,.53,.7,.7,.22,1.06,.25,2.79,.7,3.83,1.28-1.04,2.13-3.25,3.66-4.01l1.74,.17c.52-.8,.9-2.54,.87-3.48l1.22-.87c.45,.23,1.11,.23,1.57,0l.35-.52c.27-1.36,.07-3.06,.7-4.36,.98-.86,2.48-.61,3.66-.87,2.01-.38,3.71-2.09,5.58-2.79,.83-.06,1.98,.18,2.79,.35,2.1,1.08,3.04,3.77,2.09,5.92,.22-.04,.65,.22,.87,.17-.79,2.12-2.38,4.67-1.74,6.97l.17,.17,2.44,.35c1.13-1.17,3.32-3.63,4.36-4.88l1.92,.7,.87,1.39c.48,.31,1.51,.68,2.09,.7,.66-.17,1.93-.78,2.61-.7l.52,.35c1.35,1.54,3,3.41,4.01,5.23,1.29,1.51,1.38,3.38,0,4.88-.46,1.75-1.75,3.38-2.44,5.05h0Z"/><g><g><path class="cls-3" d="M94.07,42.29c.23-.43,.53-.9,.53-1.36,.12-.75-.98-2.2-1.73-1.21,.1,.03,.19,.06,.29,.09,0,.04-.02,.08-.02,.11-1.41-.16-2.88-.95-4.23-.27-1.65,.8-3.59,.39-5.11,1.45-1.28,.96-.46,2.86-1.03,4.06-.39,.26-.52,.65-.49,1.05,0,1.42-1.72,1.5-2.38,2.49h0s0,0,0,0c-.34,.16-.68,.31-1.01,.47,0,0,0,0-.01,0,0,0,0,0,0,0-1.04-.55-2.53,.07-3.44,.56-.88,.25-1.86-.18-2.72,.52-.42,.34-1.14,.33-1.73,.43-.87,0-.95-1.15-1.84-1.38-.74-.43-1.73-.43-2.51-.53-.53-1.02-1.42-1.65-1.69-2.76-.1-.86-.61-1.52-1.19-2.07-.9-1.01-2.04-2.33-1.87-3.72,.17-.4,.19-.71-.2-1.02-2.32-2.23-.7-5.93-.74-8.78,0-2.04,1.52-3.74,1.55-5.72-.42-.03-.86,.47-1.18,.06-.34-.38-.78-.38-1.24-.42-1.26-.22-2.75-.76-3.67-1.62-.63-1.07-1.03-2.12-1.1-3.36-1.12-1.42-2.6-2.62-3.15-4.44-.4-1.22-1.29-2.12-2.26-2.95-.34-.21-.45-.69-.98-.69-1.85-.24-3.78-.62-4.18,1.78-.51,1.87-2.06,.44-3.13-.03-1-.63-2.32-1.29-2.32-2.6-.32-2.64-3.49-3.69-4.97-5.65-1.03-1.34-3.51-.33-5.05-.63-2.06-.31-.08,1.53-1.6,1.62-2.81-.11-5.67,.18-8.45-.13-3.48-1.25-6.95-2.52-10.42-3.79-.74-.27-.74-.28-.59-1.06-2.33,.09-4.65,.4-6.97,.58-1.24,.01,.4,1.7,.57,2.23,.75,.54-.01,1.28,.64,1.83,.4,.42,.87,.82,.75,1.52-.02,.09,.1,.24,.19,.32,.45,.4,.89,.78,.68,1.5-.04,.15,.13,.53,.22,.53,.46,.03,.51,.33,.49,.65-.04,.63,.18,1.23,.52,1.65,1.74,1.22,3.46,2.48,4.77,4.25,.18,.55,.01,1.5-.45,1.94-.07,.05-.06,.2-.08,.3-.49,.12-.89,.43-1.41,.19-.33-.13-.65-.11-.97,.04,.36,.91,1.6,.96,1.77,2.04,.4,.38,1.01,.68,1.52,.88,.75,.05,.8,1.38,1.6,.77,.63-.39,1.27,.46,1.63,.91,2.84,1.81,3.2,2.64,1.92,5.91,.57,.18,1.36-.09,1.45,.68-.12,.07-.23,.14-.39,.23,.3,.24,.56,.44,.81,.64,.04-.03,.08-.06,.12-.09-.05-.17-.11-.35-.18-.58,1.39,.83,2.58,1.96,3.8,2.99,.63,.23,.88,.75,1.03,1.35,.11,.6,.39,1.69,1.17,1.04,1.58-.93,1.53-1.6,.37-2.88-.24-1.06-1.18-1.5-1.96-2.15-.04,.02-.08,.05-.12,.07,.03,.26,.06,.53,.09,.79,0,0,0,0,0,.01,0,0,0,0,0,0-.71-.2-1.4-1.01-1.11-1.77,.2-.46,.1-.82-.21-1.2-.44-.51-.6-1.23-.94-1.77-.44-.5-.85-.97-.79-1.69-.34-1.02-.49-2.81-1.8-2.96-.41-.2-.04-.83-.6-.95-.56-.42-.46-1.38-1.23-1.66-1.08-.38-.76-1.76-1.12-2.64-.12-.27-.7-.45-.79-.73-.12-.74-.73-.98-1.26-1.32-.26-1.67-1.99-2.26-2.96-3.44-.81-1.01-.32-2.47-.8-3.59-.72-.55-.49-3.47,.68-2.58,.46,.41,.97,.69,1.6,.57,.39-.23,.65-.27,.91,.13,.18,.68,.72,.73,1.28,.88,.68,.18,.71,.33,.52,.89-.48,1.16,.89,1.92,.98,2.96,0,.85,.58,1.37,.91,2.03,.17,.42,.23,1.02,.78,1.11,.03,.04,.05,.09,.08,.13-1.18-.13-.84,.8-1.13,1.38,.7,.43,.95,.33,1.39-.37,.65,1.14,1.72,1.88,2.47,2.87,.35,.47,.84,.84,1.42,1,.85-.43,.74,.59,.78,1.1,.13,.32,.39,.58,.54,.89,.38,1,1.67,.25,1.7,1.48,.13,1.17,1.54,.17,1.81,1.19,.16,.48-.02,1.11-.35,1.52-.4,.75,.28,1.3,.81,1.68,.35,.4,.72,.74,1.31,.67,.66,.31,1.28,.79,1.95,1.12-.02,.04-.05,.08-.07,.12-.16-.1-.31-.19-.51-.31,.35,1.03,1.37,2.23,2.46,2.29-.36,.38-.03,.53,.2,.71,1.81,1.23,2.81,3.28,4.36,4.77,1.54,1.09,.59,3.7,2.42,4.45-.02,.28-.07,.48-.04,.68,.12,.77-.58,1.07-.92,1.73,.44,.08,.55,.15,.83,.41-.64,.79-1.91,.06-.9,1.59,.82,2.5,2.98,3.22,5.02,4.39,.67,.51,1.08,1.41,1.83,1.82,1.2,.42,2.48,.96,3.74,1.09,.48-.28,.78,.02,1.09,.32,1.89,2,4.62,2.69,7.07,3.75,.98,.28,2.08,.21,2.84,1.08,1.46,.9,3.15,1.13,4.76,1.66,.77,.49,1.66,.65,2.55,.41,1.5-.4,2.69-1.37,4.21-1.74-.19-.13-.28-.2-.4-.28,.13-.1,.24-.18,.27-.2,.32,.1,.56,.18,.78,.25-.05,.05-.14,.15-.22,.24,3.29,.64,5.39,3.15,7.67,5.36,.25-.58,.6-1.39,.29-2.11-.07-.14-.03-.4,.06-.56,.56-.69,.73-2.11,1.75-2.15,1.42-.16,4.06,.72,3.49-1.25-.42-.14-.6-.48-.8-.84-.62-.6-1.45-.92-1.94-1.71,1.11-.05,1.07-.17,1.07-1.23-.38-1.47,5.28,.11,5.64-.89,.06-.31,.29-.31,.49-.15,.71,.41,.88-.91,1.25-1.3-.12,.15-.25,.29-.36,.44,.11-.15,.24-.29,.36-.44,0,0,0,0,0,0,0,0,.01-.01,.01-.02h0s0,0,0,0c.14-.14,.3-.41,.43-.4,.71,.04,.77-.66,1.13-1.08,.04,.02,.08,.03,.12,.05,0,.4-.42,.88,.07,1.13,.14,.08,.27,.2,.39,.32h0c.32,.86,1.04-2.82,1.26-3.26h-.59c.35-.24,.82-.23,.74-.74-.28-.05-.57-.1-.78-.14,.25-.43,.61-.78,.66-1.17,.09-1.17,.97-1.82,1.65-2.61Z"/><path class="cls-3" d="M93.71,43.65c.25,.71,.73-.44,1-.74-.7-.1-1.06,.21-1,.74Z"/></g><path id="MEX2731-2" class="cls-1" d="M57.88,46.11s-.1,.01-.15,0c0,.04,.03,.13,.04,.17,.03,.02,.11,.05,.15,.06,.01,.05,0,.12,.02,.17-.05,.06-.08,.16-.1,.24,.05,.2,.11,.45,.13,.66,0,.01-.04,.03-.05,.04-.02,.12-.05,.29,.02,.4,0,.03-.02,.08-.02,.11-.05,.02-.11,.06-.16,.09,0,.02-.03,.07-.04,.09-.11,.05-.18,.01-.28,0-.01,0-.03-.02-.04-.03v-.03c-.02-.05-.04-.12-.06-.18l-.02-.02s-.03,0-.04,0c-.05-.02-.09-.07-.12-.11-.06-.02-.16-.03-.23-.05,.03-.04,.08-.11,.08-.17-.02-.06-.08-.14-.08-.21,0-.09,.04-.19,0-.27-.03-.19-.18-.19-.3-.29l.05-.05s-.04-.03-.04-.05c.01,0,.04-.03,.05-.04v-.03c-.03-.06-.07-.14-.09-.21-.07-.02-.09-.11-.09-.18-.01-.03-.04-.07-.08-.09-.03,.03-.07,.07-.1,.1v.07l-.03,.03h.03s.02,.04,.02,.04v.02s-.07,.04-.1,.05c-.08,.13-.19,.24-.24,.38l-.04,.02-.12-.02v.07s-.06,.1-.07,.14v.07s.03,.02,.03,.02v.02l-.04,.06v.03s.04,.02,.04,.02h.02l.02,.02c-.02,.1,0,.21,.08,.27-.03,.07-.12,.11-.15,.18v.05s.07,.06,.08,.09l-.08,.06v.04s0,.06,0,.06l.07,.07,.02,.09-.02,.05c-.07,.07-.17,.09-.25,.13-.13,.13-.07,.2-.25,.31,0,.13-.05,.28-.07,.41l-.06,.02s-.11-.02-.15-.02l-.04-.04-.03-.07-.02-.02h-.04s-.09-.1-.12-.14l-.06-.03c-.09,.07-.18,.18-.27,.24l-.02,.04c.01,.08-.03,.15-.09,.2h-.04s-.08-.1-.12-.13c-.23-.03-.49,.15-.73,.17-.1,.28-.28,.44-.51,.61h-.04s-.05,.08-.08,.1c-.02,0-.07,.01-.09,0-.08-.04-.15-.13-.2-.22,.02-.08,.06-.18,.06-.25-.02-.16-.23-.23-.26-.37,.01-.03,0-.08,0-.12-.01-.02-.04-.08-.05-.11v-.07l.06-.12v-.04s-.03-.04-.04-.05c-.01-.04,0-.09-.02-.13-.18-.01-.38-.02-.55-.1l.03-.02v-.03s.03-.04,.05-.05h0s.02,0,.02,0c.03-.09,.13-.12,.2-.17,.01-.04,0-.09,0-.13,0-.02,.03-.07,.05-.09,.26-.21,.42-.55,.65-.79v-.03s-.08-.15-.1-.18c.14-.12,.45-.23,.57-.37-.13-.1-.16-.28-.22-.42,.05-.15,.09-.34,.16-.48-.06-.24,.12-.5,.13-.74,.07-.13,.16-.26,.24-.37,.08-.15,.21-.32,.33-.44,.03-.02,.11-.02,.15-.02-.06-.06-.09-.15-.16-.21l.29-.19s.13,.07,.16,.09c.1,.21,.27,.39,.47,.51,.02-.03,.03-.07,.05-.1,.07-.03,.17-.04,.24,0,.04,.09,.14,.24,.2,.32-.02,.12-.1,.23-.1,.35l.02,.06c.05,.04,.14,.06,.2,.08l.05,.04c.02,.05,.02,.13,.02,.19v.02s.04,0,.04,0l.04,.04c.01,.06,.01,.16,.04,.22,.07-.06,.12-.18,.21-.23h.1s.05-.13,.05-.19l.07-.05s.06,.01,.09,0l.02-.03c.02-.08,0-.17,.04-.24,.06-.05,.14-.03,.21-.05,.11-.02,.21-.12,.31-.16,.05,0,.11,.01,.16,.02,.12,.06,.17,.21,.12,.33,.01,0,.04,.01,.05,0-.04,.12-.13,.26-.1,.39h0s.14,.03,.14,.03c.06-.07,.19-.2,.24-.27l.11,.04,.05,.08s.09,.04,.12,.04c.04,0,.11-.04,.15-.04l.03,.02c.08,.09,.17,.19,.23,.29,.07,.08,.08,.19,0,.27-.03,.1-.1,.19-.14,.28h0Z"/></g></g></svg>