<?xml version="1.0" encoding="UTF-8"?><svg id="estados" xmlns="http://www.w3.org/2000/svg" viewBox="0 0 306.04 276.52"><defs><style>.cls-1,.cls-2{fill:#3bb1e6;}.cls-3{fill:#fff;}.cls-2{stroke-linecap:round;stroke-linejoin:round;stroke-width:1.51px;}.cls-2,.cls-4,.cls-5{stroke:#fff;}.cls-4{stroke-width:1.53px;}.cls-4,.cls-5{fill:none;opacity:.67;stroke-miterlimit:10;}.cls-6{fill:#0a2f3a;opacity:.5;}.cls-5{stroke-width:1.67px;}</style></defs><g id="mich-icono"><circle class="cls-6" cx="136.96" cy="151.48" r="97.03"/><circle class="cls-5" cx="136.96" cy="151.48" r="104.09"/><polyline class="cls-4" points="229.53 104.17 271.63 73.79 306.09 73.79"/><polyline class="cls-4" points="229.02 199.66 271.63 220.23 306.09 220.23"/><polyline class="cls-4" points="240.77 150.49 271.63 150.49 306.09 150.49"/><g><path class="cls-1" d="M83.83,202.54l5.43,13.56,5.43-13.56h2.84v16.61h-2.19v-6.47l.21-6.98-5.45,13.45h-1.68l-5.44-13.42,.22,6.95v6.47h-2.19v-16.61h2.83Z"/><path class="cls-1" d="M101.08,203.54c0-.34,.1-.63,.31-.87s.52-.35,.93-.35,.72,.12,.94,.35c.21,.24,.32,.52,.32,.87s-.11,.63-.32,.86c-.21,.23-.52,.34-.94,.34s-.72-.11-.93-.34-.31-.51-.31-.86Zm2.28,15.62h-2.11v-12.35h2.11v12.35Z"/><path class="cls-1" d="M111.69,217.66c.75,0,1.41-.23,1.97-.69,.56-.46,.87-1.03,.94-1.71h2c-.04,.71-.28,1.38-.73,2.02-.45,.64-1.05,1.15-1.8,1.53-.75,.38-1.54,.57-2.38,.57-1.68,0-3.02-.56-4.01-1.68-.99-1.12-1.49-2.66-1.49-4.6v-.35c0-1.2,.22-2.27,.66-3.21s1.07-1.66,1.9-2.18c.83-.52,1.8-.78,2.93-.78,1.38,0,2.54,.42,3.45,1.24s1.41,1.91,1.47,3.23h-2c-.06-.8-.36-1.46-.91-1.97-.54-.51-1.22-.77-2.01-.77-1.07,0-1.9,.39-2.49,1.16-.59,.77-.88,1.89-.88,3.35v.4c0,1.42,.29,2.52,.88,3.29,.59,.77,1.42,1.15,2.51,1.15Z"/><path class="cls-1" d="M121.09,208.31c.94-1.15,2.15-1.72,3.65-1.72,2.61,0,3.93,1.47,3.95,4.42v8.16h-2.11v-8.17c0-.89-.21-1.55-.61-1.97s-1.02-.64-1.87-.64c-.68,0-1.29,.18-1.8,.55-.52,.37-.92,.84-1.21,1.44v8.8h-2.11v-17.53h2.11v6.68Z"/><path class="cls-1" d="M131.29,212.87c0-1.21,.24-2.3,.71-3.26,.48-.97,1.14-1.71,1.99-2.24,.85-.52,1.82-.79,2.9-.79,1.68,0,3.04,.58,4.08,1.75,1.04,1.16,1.56,2.71,1.56,4.64v.15c0,1.2-.23,2.28-.69,3.23-.46,.95-1.12,1.7-1.97,2.23-.86,.53-1.84,.8-2.95,.8-1.67,0-3.03-.58-4.07-1.75-1.04-1.16-1.56-2.7-1.56-4.62v-.15Zm2.12,.25c0,1.37,.32,2.47,.95,3.3s1.49,1.24,2.55,1.24,1.92-.42,2.56-1.26c.63-.84,.95-2.02,.95-3.53,0-1.35-.32-2.45-.96-3.29-.64-.84-1.5-1.26-2.56-1.26s-1.88,.42-2.52,1.24c-.64,.83-.96,2.02-.96,3.56Z"/><path class="cls-1" d="M152.8,219.16c-.12-.24-.22-.68-.3-1.3-.98,1.02-2.15,1.53-3.51,1.53-1.22,0-2.22-.34-3-1.03-.78-.69-1.17-1.56-1.17-2.62,0-1.29,.49-2.28,1.47-3,.98-.71,2.35-1.07,4.13-1.07h2.05v-.97c0-.74-.22-1.33-.66-1.76-.44-.44-1.09-.66-1.95-.66-.75,0-1.38,.19-1.89,.57-.51,.38-.76,.84-.76,1.38h-2.12c0-.62,.22-1.21,.66-1.79,.44-.57,1.03-1.03,1.78-1.36,.75-.33,1.57-.5,2.47-.5,1.42,0,2.54,.36,3.34,1.07s1.22,1.69,1.26,2.94v5.68c0,1.13,.14,2.04,.43,2.7v.18h-2.21Zm-3.5-1.61c.66,0,1.29-.17,1.88-.51,.59-.34,1.02-.79,1.29-1.34v-2.53h-1.65c-2.59,0-3.88,.76-3.88,2.27,0,.66,.22,1.18,.66,1.55,.44,.37,1.01,.56,1.7,.56Z"/><path class="cls-1" d="M162.84,217.66c.75,0,1.41-.23,1.97-.69,.56-.46,.87-1.03,.94-1.71h2c-.04,.71-.28,1.38-.73,2.02-.45,.64-1.05,1.15-1.8,1.53-.75,.38-1.54,.57-2.38,.57-1.68,0-3.02-.56-4.01-1.68-.99-1.12-1.49-2.66-1.49-4.6v-.35c0-1.2,.22-2.27,.66-3.21s1.07-1.66,1.9-2.18c.83-.52,1.8-.78,2.93-.78,1.38,0,2.54,.42,3.45,1.24s1.41,1.91,1.47,3.23h-2c-.06-.8-.36-1.46-.91-1.97-.54-.51-1.22-.77-2.01-.77-1.07,0-1.9,.39-2.49,1.16-.59,.77-.88,1.89-.88,3.35v.4c0,1.42,.29,2.52,.88,3.29,.59,.77,1.42,1.15,2.51,1.15Z"/><path class="cls-1" d="M177.74,219.16c-.12-.24-.22-.68-.3-1.3-.98,1.02-2.15,1.53-3.51,1.53-1.22,0-2.22-.34-3-1.03-.78-.69-1.17-1.56-1.17-2.62,0-1.29,.49-2.28,1.47-3,.98-.71,2.35-1.07,4.13-1.07h2.05v-.97c0-.74-.22-1.33-.66-1.76-.44-.44-1.09-.66-1.95-.66-.75,0-1.38,.19-1.89,.57-.51,.38-.76,.84-.76,1.38h-2.12c0-.62,.22-1.21,.66-1.79,.44-.57,1.03-1.03,1.78-1.36,.75-.33,1.57-.5,2.47-.5,1.42,0,2.54,.36,3.34,1.07s1.22,1.69,1.26,2.94v5.68c0,1.13,.14,2.04,.43,2.7v.18h-2.21Zm-3.5-1.61c.66,0,1.29-.17,1.88-.51,.59-.34,1.02-.79,1.29-1.34v-2.53h-1.65c-2.59,0-3.88,.76-3.88,2.27,0,.66,.22,1.18,.66,1.55,.44,.37,1.01,.56,1.7,.56Zm1.95-15.92h2.56l-3.06,3.35h-1.7s2.2-3.35,2.2-3.35Z"/><path class="cls-1" d="M184.83,206.81l.07,1.55c.94-1.19,2.18-1.78,3.7-1.78,2.61,0,3.93,1.47,3.95,4.42v8.16h-2.11v-8.17c0-.89-.21-1.55-.61-1.97s-1.02-.64-1.87-.64c-.68,0-1.29,.18-1.8,.55-.52,.37-.92,.84-1.21,1.44v8.8h-2.11v-12.35h2Z"/></g><path id="MICH" class="cls-2" d="M192.65,98.99c2.07,.58,3.2,2.83,3.75,4.74,0,1.1,0,2.88,0,3.97,.35,.69,1.13,1.33,1.87,1.54-.22,2.06-1.16,4.7-1.65,6.72-.06,.29,.14,1.04,.22,1.32,.12,.22-.59,1.76-.66,1.98-.17,1.18-1.13,2.94-.99,4.08,.61,1.53,.93,3.37,2.32,4.41-1.34,1.61-4.82,2.79-6.39,4.19,.26,.69,1.87,2.02,.77,2.65-1.96,2.51-4.06,5.48-6.06,7.94-.17,.22-.64,.54-.88,.66-1.14,1.11,.2,2.37-1.54,2.98-.72,.19-1.01,1.08-1.54,1.43l-.11-.11c-.36,.13-.62,.5-.55,.88-.4,.24-.98,.81-1.21,1.21,0,.74-.61,1.4-1.21,1.76-.12-.41-.34-1.24-.44-1.65-.73-1-1.82-.75-2.31,.33-.38,.51-1.06,1.06-.88,1.76,.62,.72,1.95,1.46,1.32,2.54-.54,.49-.77,1.29-.55,1.98,.33,.65,.57,1.62,.77,2.31,.03,1.05-.18,2.39,.44,3.31,1.33,1.07,2.95,2.13,4.3,3.2,.77,.97-.34,2.16-.88,2.98-.07-.32-.32-.7-.66-.77,0,0-1.16,1.16-1.21,1.21-1.19-1.02-1.62-1.87-.22-2.98,.02-.45-.11-1.03-.33-1.43-.16,0-.46-.09-.55-.22,.04,.16-.26,.61-.22,.77-4.25-2.14-.52-2.56-6.94-2.54l.44,.55c-.05,.41-1.15,.56-1.43,.66-.24-.81-.14-1.83-1.32-1.32v.11c-.29-.11-.21-.65-.22-.88-.81-.96-2.42-.37-3.42-.11,0,0-5.51-.33-5.51-.33-1.88,.78-4.36,1.21-6.28,1.87-1.96,.59-3.91,.22-5.4-1.21-.51-.78-.84-1.97-1.87-2.2-2-.38-4.8-.75-6.72,.11-4.3,4.63,.71,8.87-2.31,11.91-.15,.21-.52,.78-.66,.99,.12,.51-.47,.71-.88,.66-.22-.05-.78-.13-.99-.11-.22,.15-.72,.42-.99,.44-.7-.21-1.56-.11-2.2,.22-1.38,.34-2.06-.38-3.09,.99-.63,1.78-.97,4.01-.44,5.84,.28,.46,1.01,1.42,.66,1.98-.38,.48-.51,1.44-1.32,1.21-2.66-1.71-6.95-2.51-9.81-3.75-.97,.13-3.39-.82-4.3-1.1-1.08-.12-3.92-.37-4.96-.66-2.83-.99-7.05-3.23-9.81-4.3-.95-.21-2.88,.08-3.53-.77-.89,.46-3.06-1.5-3.97-.99-.44-.16-2.09-.68-2.43-.99-.45-.19-1.42-.59-1.87-.22-1.07-.95-3.44-1.93-4.74-2.54-1.28-1.8-2.15-5.67-3.86-7.17-.95-.79-2.06-1.87-3.31-2.2-.35-.4,.47-1.14,.66-1.43-.21-.8-1.31-1.66-1.87-2.2,1.75-.86,.99-2.24,2.09-3.31,.24-.12,.72-.27,.99-.22,.28-.08,.7-.44,.88-.66,.17-.59,.06-1.35,.44-1.87,.05-.27-.14-.61-.11-.88,.05-.16,.21-.33,.33-.44,.6,.38,.91,.39,1.43-.11,.41-.3,.99-.54,1.43-.77,.02-.07-.09-.47-.11-.55,.12-.23,.44-.24,.66-.22,.43-.16,.3-.91,.66-1.21,.44,.24,.89-.17,1.32-.22,.4,0,1.26,0,1.65,0,2.23,.15,2.29-.17,3.2-2.09,1.23-1.47,1.59-.4,2.43,.66,2.2-.35,1.68,1.45,3.2,2.2,.23-.19,.77-.56,.77-.88,0-.21,0-.58,.11-.77,1.34-1.61,3.99-1.34,5.51-2.76,.5-.78,.66-2.02,.99-2.87,.79-1.57,2.54-2.35,4.19-2.65,.21-.08,.66-.14,.88-.11,.34-.08,.49-.74,.66-.99,.68-.33,1.63-.13,2.31,.11,.51,.18,.81,.47,.99,.99,.89-.11,1.54-1.59,2.09-2.2,.07-.15,.9-1.14,.77-1.32-.03-.15-.14-.62-.11-.77,.31-.99,1.73-1.19,1.87-2.2-.22-.32-.77-.33-1.1-.44-.15-.24-.36-.83-.44-1.1-.14-.31-.2-1.71-.66-1.76-1.41,.27-3.27,1.06-4.74,.55-.07-.68-.14-2.1,0-2.76,.13-.74,.47-1.69-.11-2.31-.33-.45-.27-1.09-.55-1.54-.13-.37-.78-.54-.99-.88-.68-1.61-1.16-3.56-.66-5.29,1.22-.39,3.04-.17,3.64-1.54-.49-.57-1.66-.59-1.87-1.32-.12-.66,.35-1.9-.44-2.2-.64,.25-1.66-.2-2.32-.11-.73-.02-1.69,.14-2.31-.33-.2-.26-.7-.63-.99-.77-.97,.18-2.1,.77-3.09,.77-.07-.03-.53,.06-.55-.11-.06-.29-.43-.36-.66-.44-.88-.42-.75-1.83-.88-2.65-.15-.49-.04-1.32,.22-1.76,2.53-1.42,7.45-2.28,10.25-3.09,1.11-1.6,3.06-.83,4.63-1.32,.57-.2,1.58-1.22,1.98-1.65,0,0,2.2-.55,2.2-.55,.37-.09,.54-.4,.55-.77,.56-.75,3.06-1.3,3.86-1.65,0,0,1.65-.11,1.65-.11,.57-.07,1.76-.62,2.31-.33,0,0,.88,.33,.88,.33,.17,.16,.75,.56,.99,.33,.49-.25,1.23-.36,1.76-.44,0,0,2.2-1.1,2.2-1.1,.51-.14,3.74-.54,4.3-.66-.21,.47-.67,1.6-.77,2.09l.44,.44c.43-.13,.67-.95,.77-1.32l.66-.22c1.42,.61,.45,4.09,1.43,4.85,.32,.5,.18,1.66,.99,1.65,.51-.02,1.29,.13,1.65-.33,.45-.31,.91,.27,1.32,.33,.25,.08,.52-.15,.66-.33,.16-.08,.49-.13,.66-.11,1.01,.42,2.52-.13,3.31,.77,.17-.38,.94-1.32,1.21-1.65,.15-.55,.61-1.12,.77-1.65,.05-.35-.2-.78,0-1.1-.03-.68,1.17-.38,1.54-.44,.55-.35,1.35-.48,1.98-.55,.42,.1,1.45,.29,1.87,.11-.4,1.14,.57,.96,1.32,1.1,2.25,.55,1.98,1.72,0,2.43-1.01,1.21,.9,.83,.33,1.87-.01,.77-.74,.69,.11,1.43,.34,1.09-.46,2.41-.33,3.53,1.45,1.03,1.18,.11,2.54,0,.43,.52,1.16,.54,1.76,.33,.44-.25,1.06,.08,1.43,.33,.92,.39,2.14,.3,2.65-.66,.18-.89,.31-1.99,1.43-1.98,.75,1,1.41,.84,2.43,.33,.75,0,1.76-.1,2.43,.33,.19,.31,.13,.78,0,1.1,.04,.18,.42,.54,.55,.66l-.11,.66c-.65,.34-1.59,.66-2.09,1.21,0,1.06,1.15,1.54,1.98,1.87,1.84,.99,4.5,.71,5.51-1.32,.27,.5,1.05,.87,1.21,1.43,.25,1.01,1.3,1.2,2.2,1.1-.23-1.5,.82-1.19,1.87-1.21,1.39,0,3.27-.4,4.63-.11,.11,.23,.11,.65,0,.88,.05,.53,.58,.6,.99,.44,.47-1.61,.88-1.86,2.54-1.98,2.64,.08,2.38-.77,1.98-2.98-.61-.73-.5-1.44,0-2.2-.06-.28-.22-.33,0-.66,.43-.07,.99,.27,1.32-.11,.86-1.03,1.09-2.56,2.2-3.42h0Z"/><g><g><path class="cls-3" d="M94.07,42.29c.23-.43,.53-.9,.53-1.36,0-.45-.13-.96-.61-1.31-.43-.31-.75-.37-1.12,.1,.1,.03,.19,.06,.29,.09,0,.04-.02,.08-.02,.11-.55-.11-1.12-.15-1.65-.33-.89-.32-1.78-.27-2.58,.07-.81,.34-1.62,.54-2.47,.61-.95,.09-1.84,.3-2.64,.83-.21,.14-.4,.39-.5,.63-.4,.91-.32,1.89-.33,2.86,0,.2-.06,.48-.2,.57-.39,.26-.52,.65-.49,1.05,.04,.7-.43,1.02-.89,1.36-.32,.24-.7,.41-1.03,.64-.18,.13-.31,.32-.46,.48h0s0,0,0,0c-.34,.16-.68,.31-1.01,.47,0,0,0,0-.01,0,0,0,0,0,0,0-.73-.39-2.31-.19-2.94,.35-.13,.11-.32,.16-.5,.21-.88,.25-1.86-.18-2.72,.52-.42,.34-1.14,.33-1.73,.43-.16,.03-.43-.04-.52-.16-.38-.47-.67-.95-1.32-1.22-.49-.2-.93-.43-1.48-.42-.38,0-.76-.07-1.03-.1-.28-.42-.52-.79-.76-1.15-.35-.52-.85-.94-.93-1.61-.1-.86-.61-1.52-1.19-2.07-.91-.88-1.49-1.93-1.91-3.09-.07-.18-.04-.44,.03-.63,.17-.4,.19-.71-.2-1.02-.6-.48-.98-1.11-1.07-1.9-.04-.32-.17-.63-.21-.96-.03-.23,.02-.47,.05-.7,.07-.45,.16-.9,.22-1.35,.03-.23-.04-.47-.02-.7,.08-1.06,.14-2.12,.28-3.16,.18-1.28,.42-2.54,1.07-3.7,.27-.47,.36-1.05,.51-1.59,.04-.13-.02-.29-.03-.43-.17,.03-.38,.02-.51,.11-.26,.19-.49,.14-.67-.05-.34-.38-.78-.38-1.24-.42-.38-.03-.77-.1-1.12-.25-.65-.26-1.25-.62-1.9-.86-.29-.11-.51-.22-.64-.51-.28-.59-.6-1.15-.88-1.73-.05-.1-.03-.24-.05-.36-.05-.42-.08-.85-.18-1.27-.04-.17-.21-.33-.34-.47-.3-.32-.61-.62-.9-.94-.31-.34-.6-.7-.89-1.05-.1-.12-.22-.23-.28-.36-.25-.53-.46-1.09-.72-1.61-.39-.78-.62-1.66-1.45-2.16-.31-.19-.5-.6-.81-.79-.34-.21-.45-.69-.98-.69-.73-.01-1.46-.16-2.2-.25-.1-.01-.21,0-.3,.04-.22,.09-.44,.18-.64,.3-.21,.13-.46,.27-.57,.48-.21,.38-.35,.8-.47,1.21-.28,.99-1.01,1.24-1.83,.66-.4-.28-.87-.45-1.3-.69-.27-.15-.52-.32-.78-.49-.15-.1-.28-.25-.44-.33-.75-.36-1.03-1.07-1.1-1.78-.08-.84-.48-1.5-.93-2.12-.27-.38-.82-.54-1.19-.86-.49-.42-.93-.91-1.41-1.35-.25-.23-.53-.43-.78-.65-.23-.21-.53-.4-.66-.67-.22-.47-.54-.64-1.03-.63-1.34,0-2.68,0-4.02,0-1.15,0-1-.11-.99,1,0,.47-.14,.62-.61,.62-2.54-.02-5.08,0-7.63-.01-.28,0-.57-.03-.83-.12-3.48-1.25-6.95-2.52-10.42-3.79-.74-.27-.74-.28-.59-1.06-.18,0-.34-.01-.5,0-2.16,.19-4.31,.38-6.47,.58-.52,.05-.59,.19-.36,.68,.08,.17,.21,.31,.3,.46,.1,.17,.2,.34,.3,.51,.11,.19,.19,.42,.34,.58,.28,.31,.51,.6,.35,1.06-.1,.31,.06,.54,.29,.77,.4,.42,.87,.82,.75,1.52-.02,.09,.1,.24,.19,.32,.45,.4,.89,.78,.68,1.5-.04,.15,.13,.53,.22,.53,.46,.03,.51,.33,.49,.65-.04,.63,.18,1.23,.52,1.65,.42,.5,1.09,.79,1.65,1.16,.24,.16,.54,.26,.73,.46,.82,.86,1.61,1.74,2.39,2.63,.08,.09,.11,.27,.08,.39-.14,.53-.03,1.15-.53,1.56-.07,.05-.06,.2-.08,.3-.1,.02-.22,.02-.3,.07-.35,.26-.72,.24-1.11,.12-.16-.05-.33-.1-.5-.09-.16,0-.31,.09-.47,.13,.1,.16,.18,.35,.31,.47,.51,.5,1.33,.7,1.46,1.56,0,.06,.1,.12,.16,.16,.45,.25,.88,.58,1.36,.72,.37,.11,.57,.3,.78,.59,.19,.27,.41,.55,.82,.19,.28-.25,1,.05,1.2,.38,.11,.19,.28,.35,.43,.52,.59,.7,1.61,.82,2.16,1.64,.41,.62,.65,1.97,.33,2.66-.23,.49-.36,1.02-.56,1.61,.27,.04,.49,.1,.71,.1,.4,.01,.7,.12,.75,.57-.12,.07-.23,.14-.39,.23,.3,.24,.56,.44,.81,.64,.04-.03,.08-.06,.12-.09-.05-.17-.11-.35-.18-.58,.12,.06,.21,.08,.27,.13,1.03,.91,2.32,1.51,3.18,2.64,.08,.1,.23,.17,.36,.22,.63,.23,.88,.75,1.03,1.35,.07,.27,.12,.55,.22,.81,.2,.49,.53,.55,.94,.23,.25-.19,.51-.36,.76-.53,.63-.43,.6-1.45-.03-1.86-.16-.1-.27-.31-.36-.49-.16-.31-.23-.67-.43-.94-.18-.24-.48-.38-.73-.57-.27-.21-.53-.43-.8-.64-.04,.02-.08,.05-.12,.07,.03,.26,.06,.53,.09,.79,0,0,0,0,0,.01,0,0,0,0,0,0-.15-.07-.3-.15-.45-.21-.51-.22-.88-1.05-.66-1.56,.2-.46,.1-.82-.21-1.2-.23-.28-.39-.62-.56-.95-.14-.27-.19-.6-.39-.82-.44-.5-.85-.97-.79-1.69,.01-.13-.02-.28-.07-.41-.19-.52-.39-1.04-.59-1.57-.2-.53-.47-.98-1.14-.99-.09,0-.25-.24-.24-.35,.06-.34-.09-.48-.37-.6-.12-.05-.18-.23-.27-.35-.35-.42-.31-1.11-.95-1.31-.53-.17-.72-.58-.8-1.09-.08-.52-.18-1.04-.32-1.55-.04-.14-.24-.22-.37-.34-.15-.13-.4-.24-.42-.39-.12-.74-.73-.98-1.26-1.32-.19-.67-.47-1.24-1-1.77-.62-.6-1.46-.93-1.95-1.67-.27-.4-.47-.77-.48-1.27-.02-.69-.13-1.38-.2-2.07,0-.09-.05-.19-.11-.25-.68-.73-.37-1.56-.2-2.34,.11-.49,.47-.54,.88-.24,.25,.18,.49,.41,.77,.51,.25,.09,.55,.08,.83,.06,.15-.01,.31-.22,.43-.19,.18,.04,.44,.18,.48,.32,.18,.68,.72,.73,1.28,.88,.68,.18,.71,.33,.52,.89-.23,.68,.01,1.23,.42,1.77,.26,.35,.55,.79,.55,1.19,0,.85,.58,1.37,.91,2.03,.1,.2,.12,.43,.21,.63,.06,.13,.16,.26,.27,.35,.08,.07,.2,.08,.3,.12,.03,.04,.05,.09,.08,.13-1.18-.13-.84,.8-1.13,1.38,.29,.11,.57,.33,.79,.28,.22-.06,.37-.38,.6-.65,.18,.24,.36,.49,.56,.74,.29,.38,.52,.87,.91,1.08,.48,.26,.72,.64,1.01,1.04,.2,.28,.48,.51,.77,.72,.19,.14,.43,.19,.65,.28,.18-.07,.42-.14,.55-.05,.13,.08,.18,.33,.21,.51,.03,.21-.06,.46,.02,.64,.13,.32,.39,.58,.54,.89,.18,.37,.47,.63,.86,.63,.63-.01,.75,.35,.84,.85,.09,.51,.39,.74,.91,.65,.51-.1,.76,.23,.9,.55,.12,.26,.03,.64-.03,.95-.04,.2-.21,.38-.32,.57-.2,.35-.09,.98,.21,1.21,.2,.16,.43,.28,.6,.47,.35,.4,.72,.74,1.31,.67,.07,0,.14,.05,.21,.09,.25,.15,.5,.32,.75,.47,.33,.19,.66,.37,.99,.56-.02,.04-.05,.08-.07,.12-.16-.1-.31-.19-.51-.31,.35,1.03,1.37,2.23,2.46,2.29-.36,.38-.03,.53,.2,.71,.21,.17,.42,.32,.62,.49,.33,.3,.68,.59,.97,.93,.34,.39,.64,.83,.96,1.25,.09,.12,.2,.24,.3,.35,.5,.59,.94,1.24,1.51,1.75,.69,.61,.99,1.32,1.06,2.2,.03,.33,.12,.67,.25,.97,.25,.55,.49,1.13,1.1,1.28-.02,.28-.07,.48-.04,.68,.05,.39-.05,.68-.34,.96-.21,.2-.35,.47-.57,.77,.24,.06,.37,.07,.47,.13,.13,.07,.24,.18,.36,.28-.1,.1-.18,.24-.3,.3-.17,.07-.36,.07-.55,.12-.48,.12-.56,.37-.27,.77,.09,.12,.15,.27,.22,.4,.15,.32,.25,.67,.45,.95,.31,.46,.68,.88,1.04,1.3,.21,.24,.41,.53,.67,.67,.95,.49,2,.8,2.86,1.47,.46,.36,.8,.88,1.21,1.31,.18,.19,.38,.41,.62,.51,.56,.23,1.14,.41,1.72,.59,.58,.18,1.17,.34,1.75,.5,.08,.02,.2,.03,.27,0,.48-.28,.78,.02,1.09,.32,.25,.24,.5,.5,.78,.71,.48,.36,.97,.7,1.46,1.04,.14,.1,.29,.18,.45,.24,.57,.21,1.15,.39,1.72,.62,.56,.23,1.09,.52,1.64,.76,.33,.15,.67,.28,1.02,.38,.98,.28,2.08,.21,2.84,1.08,.1,.12,.3,.15,.46,.22,.56,.25,1.12,.51,1.69,.75,.25,.1,.52,.16,.78,.23,.6,.16,1.25,.1,1.83,.47,.77,.49,1.66,.65,2.55,.41,.62-.17,1.22-.46,1.82-.72,.37-.17,.72-.4,1.08-.58,.23-.11,.49-.18,.74-.26,.16-.05,.32-.1,.57-.18-.19-.13-.28-.2-.4-.28,.13-.1,.24-.18,.27-.2,.32,.1,.56,.18,.78,.25-.05,.05-.14,.15-.22,.24,.65,.21,1.27,.42,1.9,.62,1.64,.53,2.69,1.86,3.91,2.94,.65,.57,1.24,1.2,1.86,1.8,.03-.02,.08-.03,.08-.05,.08-.69,.57-1.32,.2-2.07-.07-.14-.03-.4,.06-.56,.3-.57,.65-1.1,.94-1.67,.18-.35,.41-.49,.81-.48,1,.02,2,.02,2.99,0,.16,0,.41-.11,.44-.23,.09-.31,.09-.65,.13-.97,0-.01-.05-.04-.07-.05-.42-.14-.6-.48-.8-.84-.08-.15-.25-.3-.41-.36-.66-.28-1.07-.81-1.53-1.34q1.06-.08,1.07-1.14s0-.06,0-.09c-.07-.48,.15-.61,.61-.61,1.5,.02,2.99,.01,4.49,0,.22,0,.47,.06,.54-.29,.06-.31,.29-.31,.49-.15,.25,.19,.44,.12,.57-.12,.23-.39,.45-.79,.67-1.19-.12,.15-.25,.29-.36,.44,.11-.15,.24-.29,.36-.44,0,0,0,0,0,0,0,0,.01-.01,.01-.02h0s0,0,0,0c.14-.14,.3-.41,.43-.4,.47,.02,.66-.25,.83-.6,.08-.17,.2-.32,.31-.48,.04,.02,.08,.03,.12,.05-.03,.17-.04,.35-.1,.51-.11,.27-.1,.47,.18,.62,.12,.07,.23,.17,.33,.26,.02,.02,.04,.04,.06,.06h0c.13,.4,.24,.1,.28-.03,.16-.43,.29-.88,.42-1.32,.19-.62,.36-1.24,.56-1.91h-.59c.35-.24,.82-.23,.74-.74-.28-.05-.57-.1-.78-.14,.25-.43,.61-.78,.66-1.17,.1-.83,.51-1.45,1.08-2,.2-.2,.45-.37,.58-.61Z"/><path class="cls-3" d="M93.71,43.65c0,.08,.05,.2,.12,.23,.06,.03,.2,0,.24-.06,.21-.27,.4-.56,.64-.91-.7-.1-1.06,.21-1,.74Z"/></g><path id="MEX2720" class="cls-1" d="M52.6,44.17c.51,.14,.15,.77,.5,.91-.02,.18-.1,.42-.15,.6,.02,.09,.01,.21-.04,.29-.11,.26-.11,.56,.12,.75-.12,.14-.43,.25-.57,.37,.06,.09,.16,.19,.04,.27-.15,.19-.32,.44-.48,.63-.1,.09-.18,.17-.17,.31-.08,.05-.16,.1-.22,.18h0c-.1,.06-.16,.27-.26,.33-.02-.32-.3-.19-.32,.04,.13,.1,.16,.19,.06,.32,.02,.15,.1,.29,.08,.45,.01,.3,.69,.34,.34,.68,0-.03-.03-.06-.06-.07,0,0-.1,.1-.11,.11-.23-.15,.05-.23-.05-.39-.01,0-.04,0-.05-.02,0,.01-.02,.05-.02,.07-.25-.15-.27-.26-.62-.23l.04,.05s-.1,.05-.13,.06c-.01-.07-.03-.17-.12-.12h0c-.03-.16-.19-.12-.32-.08-.44-.11-.88,.15-1.29,.16-.18-.02-.26-.18-.35-.3-.34-.13-.82-.08-.81,.37,.02,.3,.16,.63-.18,.82-.18-.01-.37,.07-.56,.06-.18,.12-.17,.41-.13,.6,.09,.08,.08,.29-.06,.28-.24-.15-.62-.22-.87-.33-.51-.1-1.09-.2-1.54-.48-.35-.11-.71-.15-1.04-.3-.2-.03-.39-.16-.59-.24-.11-.16-.19-.5-.34-.64-.08-.13-.42-.17-.24-.32-.02-.07-.12-.15-.17-.2,.13-.05,.1-.21,.19-.29,.26-.03,.15-.22,.23-.36,.09,.07,.17-.06,.25-.08-.03-.12,.06,0,.11-.18,.2-.04,.48,.07,.55-.21,.08-.12,.16-.03,.22,.06,.16-.04,.17,.14,.28,.2,.07-.03,.06-.11,.09-.17,.14-.11,.34-.11,.48-.23,.07-.26,.2-.48,.5-.5,.06,.02,.08-.05,.1-.09,.1-.04,.26,0,.29,.1,.16-.07,.24-.28,.27-.43,.04-.05,.23-.15,.08-.18-.09,0-.08-.17-.11-.24-.1-.08-.32,.1-.45,.02-.04-.18,.07-.36-.04-.52-.09-.2-.24-.25-.17-.62,.11-.03,.27-.02,.32-.14-.04-.05-.15-.05-.17-.12-.01-.06,.03-.17-.04-.2-.11,.01-.24-.02-.35,0-.08-.03-.13-.13-.22-.08-.14,.05-.26,.07-.36-.04-.1-.29,0-.43,.3-.47,.34-.09,.76-.23,1.08-.31,.06-.14,.32-.1,.35-.23,.22-.13,.61-.27,.83-.12,.23-.08,.51-.2,.76-.21-.02,.06-.11,.18-.03,.23,.33-.48,.08,.57,.45,.44,.05-.06,.1-.02,.16,0,.11-.05,.3-.05,.41,.03,.1-.13,.18-.26,.19-.42,.15-.03,.31-.06,.47-.05-.07,.16,.55,.1,.12,.31-.09,.08,.07,.09,.03,.17,0,.05-.05,.09,0,.13,.03,.1-.04,.21-.03,.31,.07,.06,.13,.03,.21,0,.06,.03,.13,.06,.21,.02,.21,.11,.33,.06,.38-.18,.08-.05,.11,.03,.18,.05,.08-.03,.18-.05,.26-.04,.13,.02,.03,.13,.12,.19,0,.1-.15,.09-.2,.17,.07,.25,.55,.3,.67,.05,.1,.09,.14,.26,.3,.23-.05-.19,.45-.11,.58-.12-.01,.16,.1,.16,.13,0,.07-.09,.23-.06,.33-.08,.14-.11-.07-.33,.03-.51,.2,.05,.18-.23,.31-.31h0Z"/></g></g></svg>