<?xml version="1.0" encoding="UTF-8"?><svg id="estados" xmlns="http://www.w3.org/2000/svg" viewBox="0 0 306.04 276.52"><defs><style>.cls-1,.cls-2{fill:#3bb1e6;}.cls-3{fill:#fff;}.cls-4{stroke-width:1.53px;}.cls-4,.cls-2,.cls-5{stroke:#fff;}.cls-4,.cls-5{fill:none;opacity:.67;stroke-miterlimit:10;}.cls-6{fill:#0a2f3a;opacity:.5;}.cls-2{stroke-linecap:round;stroke-linejoin:round;stroke-width:1.37px;}.cls-5{stroke-width:1.67px;}</style></defs><g id="nay-icono"><circle class="cls-6" cx="136.96" cy="151.48" r="97.03"/><circle class="cls-5" cx="136.96" cy="151.48" r="104.09"/><polyline class="cls-4" points="229.53 104.17 271.63 73.79 306.09 73.79"/><polyline class="cls-4" points="229.02 199.66 271.63 220.23 306.09 220.23"/><polyline class="cls-4" points="240.77 150.49 271.63 150.49 306.09 150.49"/><g><path class="cls-1" d="M114.29,219.16h-2.2l-8.36-12.8v12.8h-2.2v-16.61h2.2l8.39,12.86v-12.86h2.18v16.61Z"/><path class="cls-1" d="M125.47,219.16c-.12-.24-.22-.68-.3-1.3-.98,1.02-2.15,1.53-3.51,1.53-1.22,0-2.22-.34-3-1.03-.78-.69-1.17-1.56-1.17-2.62,0-1.29,.49-2.28,1.47-3,.98-.71,2.35-1.07,4.13-1.07h2.05v-.97c0-.74-.22-1.33-.66-1.76-.44-.44-1.09-.66-1.95-.66-.75,0-1.38,.19-1.89,.57-.51,.38-.76,.84-.76,1.38h-2.12c0-.62,.22-1.21,.66-1.79,.44-.57,1.03-1.03,1.78-1.36,.75-.33,1.57-.5,2.47-.5,1.42,0,2.54,.36,3.34,1.07s1.22,1.69,1.26,2.94v5.68c0,1.13,.14,2.04,.43,2.7v.18h-2.21Zm-3.5-1.61c.66,0,1.29-.17,1.88-.51,.59-.34,1.02-.79,1.29-1.34v-2.53h-1.65c-2.59,0-3.88,.76-3.88,2.27,0,.66,.22,1.18,.66,1.55,.44,.37,1.01,.56,1.7,.56Z"/><path class="cls-1" d="M134.43,216.07l2.88-9.25h2.26l-4.96,14.25c-.77,2.05-1.99,3.08-3.66,3.08l-.4-.03-.79-.15v-1.71l.57,.05c.72,0,1.27-.14,1.67-.43,.4-.29,.73-.82,.99-1.59l.47-1.26-4.4-12.21h2.31l3.08,9.25Z"/><path class="cls-1" d="M148.9,219.16c-.12-.24-.22-.68-.3-1.3-.98,1.02-2.15,1.53-3.51,1.53-1.22,0-2.22-.34-3-1.03-.78-.69-1.17-1.56-1.17-2.62,0-1.29,.49-2.28,1.47-3,.98-.71,2.35-1.07,4.13-1.07h2.05v-.97c0-.74-.22-1.33-.66-1.76-.44-.44-1.09-.66-1.95-.66-.75,0-1.38,.19-1.89,.57-.51,.38-.76,.84-.76,1.38h-2.12c0-.62,.22-1.21,.66-1.79,.44-.57,1.03-1.03,1.78-1.36,.75-.33,1.57-.5,2.47-.5,1.42,0,2.54,.36,3.34,1.07s1.22,1.69,1.26,2.94v5.68c0,1.13,.14,2.04,.43,2.7v.18h-2.21Zm-3.5-1.61c.66,0,1.29-.17,1.88-.51,.59-.34,1.02-.79,1.29-1.34v-2.53h-1.65c-2.59,0-3.88,.76-3.88,2.27,0,.66,.22,1.18,.66,1.55,.44,.37,1.01,.56,1.7,.56Z"/><path class="cls-1" d="M159.96,208.7c-.32-.05-.67-.08-1.04-.08-1.38,0-2.32,.59-2.82,1.77v8.76h-2.11v-12.35h2.05l.03,1.43c.69-1.1,1.67-1.65,2.94-1.65,.41,0,.72,.05,.94,.16v1.96Z"/><path class="cls-1" d="M161.91,203.54c0-.34,.1-.63,.31-.87s.52-.35,.93-.35,.72,.12,.94,.35c.21,.24,.32,.52,.32,.87s-.11,.63-.32,.86c-.21,.23-.52,.34-.94,.34s-.72-.11-.93-.34-.31-.51-.31-.86Zm2.28,15.62h-2.11v-12.35h2.11v12.35Z"/><path class="cls-1" d="M170.43,203.82v2.99h2.31v1.63h-2.31v7.67c0,.5,.1,.87,.31,1.11,.21,.25,.56,.37,1.05,.37,.24,0,.58-.05,1-.14v1.7c-.56,.15-1.1,.23-1.62,.23-.94,0-1.65-.29-2.13-.86-.48-.57-.72-1.38-.72-2.43v-7.66h-2.25v-1.63h2.25v-2.99h2.11Z"/></g><path id="NAY" class="cls-2" d="M86.8,159.1l.14,.14,.14,.14v.96l-.14,.82-.41-.14-.41,.14-.96-.41-.41-.69,.82-.96,.82,.14,.41-.14h0Zm-8.93-7.42l.55,.27,.96,.27h1.24l.14,.55,.41,.27v.41l-.82,.41-.14,.69-.14,.55-.69-.14-1.1-.55h-.69l-.69-.55-.82-.14-.55-.82,.82-.69,.55-.55,.55,.14,.41-.14h0Zm-8.79-9.48l.82,.41,.96-.14,.55,.41,1.65,.69,.69,.55-.27,.96,.55,.55,.27,.41,.27,.27,.41,.27-.41,.27-.14,.41,.14,.41,.14,.41-.41,.14v.27l-.55,.55v.41l-.14-.14h-.27v-.14l.14-.41-.27-.27h-.27l-1.65-.69-1.79-1.1,.14-.41v-.27l-.27-.55-.27-.55-.69-.96,.27-.14v-.96l-.41-.41,.82-.27h0Zm-.96-3.71v.41l.27,.14v.55l-.27,.27,.27,.41-.96,.55-.41-.96,.14-.55,.27-.69,.27,.14,.41-.27h0Zm101.77-25.27l-.14,.55-.14,.69-.55,1.24-1.1,3.16-1.1,3.02-.55,1.37-.14,.82,.14,.82,.96,.82,1.79,1.51,1.65,1.65,1.65,1.51,1.65,1.65,1.37,1.51,1.24,1.51,1.24,1.51,1.24,1.65-.14,.55-.55,1.37-.55,1.37-.27,.82-.41,1.51-.14,.82-.14,.69-.41,1.51-.55,1.37-.69,1.1-.96,1.24,2.88,1.65,2.75,1.79,2.88,1.65,2.61,1.37,.41,.14-.55,.55-.27,.82v1.92l-.27,.82-.55,.82-2.47,2.33-.82,.55-1.1,.14h-3.3l-1.65,.27h-.14l-.96,1.37v.82l.41,1.1,.14,.82,.14,.96,.14,1.79v.69l-.14,2.06-.27,.96-.82,1.65-.55,.82-.69,1.37-.41,1.24-.41,1.37-.14,1.51v2.2l.14,1.1-.14,.27v.41l-.14,.27-.82-.55-1.1-.55-.96-.55-.55-.69-.55-.96-.82-.69-.96-.55-.96-.55-.96-.55-.55-.69-.55-.82-.55-.82-.96-1.24-.82-.55-1.1-.14h-1.24l-.96-.14-.82-.41-.69-.69-.69-.69-.41-.41-1.1-.96-.55-.55-.41-.27-.55-.14-.82-.27h-.41l-.41-.14-.41,.14h-.41l-1.79,1.24-1.79,1.65-1.92,1.24-2.2,.27-.82-.14h-.41l-.41,.14-.41,.27-.27,.14-.14-.14-.27-.14v-.41l-.27-.27h-.55l-1.65,.82-1.37,1.24-1.1,1.51-.96,1.65-.96,1.51-1.1,1.37-1.1,1.37-.82,1.51-.55,.41-.55,.27-.82-2.06-1.37-1.24-.82-.41-.27,.41-.82,.69-.96,.27-1.37-.69-1.65-.14-1.51-.82-.82,.69-.55-.55,.41-.55,.55-.55,.41,.14,.41,.14,.82-.55,.41-1.1,.41-.69,.27-.96,.27-.55,.27-.27,.27,.14,.69-.82,.96-1.92,1.37-1.1,.55-.14,.27-.69,.82-.69,.69-1.51,.27-.55,.55-.14,.27,.27,.96,.14,.82-.82,.69-.82,.14-1.37v-1.24l-.27-.69,.41-1.1-.14-1.24,.69-1.1-.41-3.71-.82-2.61,.55-2.2,.55-.82,.69-1.37,.82-.41-.14-.41-.41-.96-.14-.82-.27-.69-.41-.55-.55-.27-.69-.14-.27,.55-.55,.14-.69-.69-1.79-.82-3.02-2.06-.96-.55-1.51-1.37-.69-1.92-3.71-7.42-3.57-5.91-.69-1.65-.41-2.61,.41-6.59-.27-3.16-1.24-4.26-.96-3.43-.69-2.47-.55-1.37,.41-.27,1.24,2.06,.69,.69,.69-.55,.14-.82-.27-.96-.41-1.65,.82-.14,.96-.27,.96-.27,.96,.27,.69,.41,.55,.55,.69,.55,.55,.55,1.51,.41,1.37-.14,1.1-.96v-1.65l-.27-1.1-.27-1.24-.41-1.24-.41-1.1-.14-.14-.55-.14-.14-.14v-.27l.27-.69v-.27l-.41-.27-.55-.14-.41-.27-.27-.41-.27-.69-.27-.41-.27-.27-.82-.55-.27-.27-.27-.27-.14-.41,.27-.96,.69-1.1,.82-.82,.69-.82,.69-.55,.82-.69,.82-.69,.69-.55,.27-.69v-.41l-.69-.96-.27-.82-.27-.55,.14-.55,.27-.96,.55-.82,.69-.41,.96-.14,1.1,.14,2.2-.14,2.33-.14h2.33l2.2,.27,2.06,.69,2.06,1.1,2.06,1.1,1.92,.96,.96,.55,.55,.55,.41,.55,.41,.96,2.06,4.94-.41,.55-.96,.96-1.65,1.65-.82,.82-.41,.69-.27,.69-.14,1.24-.27,2.61v1.51l.27,.82,1.1,.14,1.24-.69,1.24-.96,.82-.82,2.61-1.92,2.61-1.92,.96,.14,1.37,.69,1.37,.96,.96,.55,.27,.41,.27,.55,.14,.69,.55,2.2,.41,1.51,.69,1.37,1.1,1.1,2.33,1.51,1.24,.55,1.24-.14,1.51-.69,3.16-1.24,1.51-.69,.41,3.57,.27,1.92,.27,1.79h0Z"/><g><g><path class="cls-3" d="M94.07,42.29c.23-.43,.53-.9,.53-1.36,0-.45-.13-.96-.61-1.31-.43-.31-.75-.37-1.12,.1,.1,.03,.19,.06,.29,.09,0,.04-.02,.08-.02,.11-.55-.11-1.12-.15-1.65-.33-.89-.32-1.78-.27-2.58,.07-.81,.34-1.62,.54-2.47,.61-.95,.09-1.84,.3-2.64,.83-.21,.14-.4,.39-.5,.63-.4,.91-.32,1.89-.33,2.86,0,.2-.06,.48-.2,.57-.39,.26-.52,.65-.49,1.05,.04,.7-.43,1.02-.89,1.36-.32,.24-.7,.41-1.03,.64-.18,.13-.31,.32-.46,.48h0s0,0,0,0c-.34,.16-.68,.31-1.01,.47,0,0,0,0-.01,0,0,0,0,0,0,0-.73-.39-2.31-.19-2.94,.35-.13,.11-.32,.16-.5,.21-.88,.25-1.86-.18-2.72,.52-.42,.34-1.14,.33-1.73,.43-.16,.03-.43-.04-.52-.16-.38-.47-.67-.95-1.32-1.22-.49-.2-.93-.43-1.48-.42-.38,0-.76-.07-1.03-.1-.28-.42-.52-.79-.76-1.15-.35-.52-.85-.94-.93-1.61-.1-.86-.61-1.52-1.19-2.07-.91-.88-1.49-1.93-1.91-3.09-.07-.18-.04-.44,.03-.63,.17-.4,.19-.71-.2-1.02-.6-.48-.98-1.11-1.07-1.9-.04-.32-.17-.63-.21-.96-.03-.23,.02-.47,.05-.7,.07-.45,.16-.9,.22-1.35,.03-.23-.04-.47-.02-.7,.08-1.06,.14-2.12,.28-3.16,.18-1.28,.42-2.54,1.07-3.7,.27-.47,.36-1.05,.51-1.59,.04-.13-.02-.29-.03-.43-.17,.03-.38,.02-.51,.11-.26,.19-.49,.14-.67-.05-.34-.38-.78-.38-1.24-.42-.38-.03-.77-.1-1.12-.25-.65-.26-1.25-.62-1.9-.86-.29-.11-.51-.22-.64-.51-.28-.59-.6-1.15-.88-1.73-.05-.1-.03-.24-.05-.36-.05-.42-.08-.85-.18-1.27-.04-.17-.21-.33-.34-.47-.3-.32-.61-.62-.9-.94-.31-.34-.6-.7-.89-1.05-.1-.12-.22-.23-.28-.36-.25-.53-.46-1.09-.72-1.61-.39-.78-.62-1.66-1.45-2.16-.31-.19-.5-.6-.81-.79-.34-.21-.45-.69-.98-.69-.73-.01-1.46-.16-2.2-.25-.1-.01-.21,0-.3,.04-.22,.09-.44,.18-.64,.3-.21,.13-.46,.27-.57,.48-.21,.38-.35,.8-.47,1.21-.28,.99-1.01,1.24-1.83,.66-.4-.28-.87-.45-1.3-.69-.27-.15-.52-.32-.78-.49-.15-.1-.28-.25-.44-.33-.75-.36-1.03-1.07-1.1-1.78-.08-.84-.48-1.5-.93-2.12-.27-.38-.82-.54-1.19-.86-.49-.42-.93-.91-1.41-1.35-.25-.23-.53-.43-.78-.65-.23-.21-.53-.4-.66-.67-.22-.47-.54-.64-1.03-.63-1.34,0-2.68,0-4.02,0-1.15,0-1-.11-.99,1,0,.47-.14,.62-.61,.62-2.54-.02-5.08,0-7.63-.01-.28,0-.57-.03-.83-.12-3.48-1.25-6.95-2.52-10.42-3.79-.74-.27-.74-.28-.59-1.06-.18,0-.34-.01-.5,0-2.16,.19-4.31,.38-6.47,.58-.52,.05-.59,.19-.36,.68,.08,.17,.21,.31,.3,.46,.1,.17,.2,.34,.3,.51,.11,.19,.19,.42,.34,.58,.28,.31,.51,.6,.35,1.06-.1,.31,.06,.54,.29,.77,.4,.42,.87,.82,.75,1.52-.02,.09,.1,.24,.19,.32,.45,.4,.89,.78,.68,1.5-.04,.15,.13,.53,.22,.53,.46,.03,.51,.33,.49,.65-.04,.63,.18,1.23,.52,1.65,.42,.5,1.09,.79,1.65,1.16,.24,.16,.54,.26,.73,.46,.82,.86,1.61,1.74,2.39,2.63,.08,.09,.11,.27,.08,.39-.14,.53-.03,1.15-.53,1.56-.07,.05-.06,.2-.08,.3-.1,.02-.22,.02-.3,.07-.35,.26-.72,.24-1.11,.12-.16-.05-.33-.1-.5-.09-.16,0-.31,.09-.47,.13,.1,.16,.18,.35,.31,.47,.51,.5,1.33,.7,1.46,1.56,0,.06,.1,.12,.16,.16,.45,.25,.88,.58,1.36,.72,.37,.11,.57,.3,.78,.59,.19,.27,.41,.55,.82,.19,.28-.25,1,.05,1.2,.38,.11,.19,.28,.35,.43,.52,.59,.7,1.61,.82,2.16,1.64,.41,.62,.65,1.97,.33,2.66-.23,.49-.36,1.02-.56,1.61,.27,.04,.49,.1,.71,.1,.4,.01,.7,.12,.75,.57-.12,.07-.23,.14-.39,.23,.3,.24,.56,.44,.81,.64,.04-.03,.08-.06,.12-.09-.05-.17-.11-.35-.18-.58,.12,.06,.21,.08,.27,.13,1.03,.91,2.32,1.51,3.18,2.64,.08,.1,.23,.17,.36,.22,.63,.23,.88,.75,1.03,1.35,.07,.27,.12,.55,.22,.81,.2,.49,.53,.55,.94,.23,.25-.19,.51-.36,.76-.53,.63-.43,.6-1.45-.03-1.86-.16-.1-.27-.31-.36-.49-.16-.31-.23-.67-.43-.94-.18-.24-.48-.38-.73-.57-.27-.21-.53-.43-.8-.64-.04,.02-.08,.05-.12,.07,.03,.26,.06,.53,.09,.79,0,0,0,0,0,.01,0,0,0,0,0,0-.15-.07-.3-.15-.45-.21-.51-.22-.88-1.05-.66-1.56,.2-.46,.1-.82-.21-1.2-.23-.28-.39-.62-.56-.95-.14-.27-.19-.6-.39-.82-.44-.5-.85-.97-.79-1.69,.01-.13-.02-.28-.07-.41-.19-.52-.39-1.04-.59-1.57-.2-.53-.47-.98-1.14-.99-.09,0-.25-.24-.24-.35,.06-.34-.09-.48-.37-.6-.12-.05-.18-.23-.27-.35-.35-.42-.31-1.11-.95-1.31-.53-.17-.72-.58-.8-1.09-.08-.52-.18-1.04-.32-1.55-.04-.14-.24-.22-.37-.34-.15-.13-.4-.24-.42-.39-.12-.74-.73-.98-1.26-1.32-.19-.67-.47-1.24-1-1.77-.62-.6-1.46-.93-1.95-1.67-.27-.4-.47-.77-.48-1.27-.02-.69-.13-1.38-.2-2.07,0-.09-.05-.19-.11-.25-.68-.73-.37-1.56-.2-2.34,.11-.49,.47-.54,.88-.24,.25,.18,.49,.41,.77,.51,.25,.09,.55,.08,.83,.06,.15-.01,.31-.22,.43-.19,.18,.04,.44,.18,.48,.32,.18,.68,.72,.73,1.28,.88,.68,.18,.71,.33,.52,.89-.23,.68,.01,1.23,.42,1.77,.26,.35,.55,.79,.55,1.19,0,.85,.58,1.37,.91,2.03,.1,.2,.12,.43,.21,.63,.06,.13,.16,.26,.27,.35,.08,.07,.2,.08,.3,.12,.03,.04,.05,.09,.08,.13-1.18-.13-.84,.8-1.13,1.38,.29,.11,.57,.33,.79,.28,.22-.06,.37-.38,.6-.65,.18,.24,.36,.49,.56,.74,.29,.38,.52,.87,.91,1.08,.48,.26,.72,.64,1.01,1.04,.2,.28,.48,.51,.77,.72,.19,.14,.43,.19,.65,.28,.18-.07,.42-.14,.55-.05,.13,.08,.18,.33,.21,.51,.03,.21-.06,.46,.02,.64,.13,.32,.39,.58,.54,.89,.18,.37,.47,.63,.86,.63,.63-.01,.75,.35,.84,.85,.09,.51,.39,.74,.91,.65,.51-.1,.76,.23,.9,.55,.12,.26,.03,.64-.03,.95-.04,.2-.21,.38-.32,.57-.2,.35-.09,.98,.21,1.21,.2,.16,.43,.28,.6,.47,.35,.4,.72,.74,1.31,.67,.07,0,.14,.05,.21,.09,.25,.15,.5,.32,.75,.47,.33,.19,.66,.37,.99,.56-.02,.04-.05,.08-.07,.12-.16-.1-.31-.19-.51-.31,.35,1.03,1.37,2.23,2.46,2.29-.36,.38-.03,.53,.2,.71,.21,.17,.42,.32,.62,.49,.33,.3,.68,.59,.97,.93,.34,.39,.64,.83,.96,1.25,.09,.12,.2,.24,.3,.35,.5,.59,.94,1.24,1.51,1.75,.69,.61,.99,1.32,1.06,2.2,.03,.33,.12,.67,.25,.97,.25,.55,.49,1.13,1.1,1.28-.02,.28-.07,.48-.04,.68,.05,.39-.05,.68-.34,.96-.21,.2-.35,.47-.57,.77,.24,.06,.37,.07,.47,.13,.13,.07,.24,.18,.36,.28-.1,.1-.18,.24-.3,.3-.17,.07-.36,.07-.55,.12-.48,.12-.56,.37-.27,.77,.09,.12,.15,.27,.22,.4,.15,.32,.25,.67,.45,.95,.31,.46,.68,.88,1.04,1.3,.21,.24,.41,.53,.67,.67,.95,.49,2,.8,2.86,1.47,.46,.36,.8,.88,1.21,1.31,.18,.19,.38,.41,.62,.51,.56,.23,1.14,.41,1.72,.59,.58,.18,1.17,.34,1.75,.5,.08,.02,.2,.03,.27,0,.48-.28,.78,.02,1.09,.32,.25,.24,.5,.5,.78,.71,.48,.36,.97,.7,1.46,1.04,.14,.1,.29,.18,.45,.24,.57,.21,1.15,.39,1.72,.62,.56,.23,1.09,.52,1.64,.76,.33,.15,.67,.28,1.02,.38,.98,.28,2.08,.21,2.84,1.08,.1,.12,.3,.15,.46,.22,.56,.25,1.12,.51,1.69,.75,.25,.1,.52,.16,.78,.23,.6,.16,1.25,.1,1.83,.47,.77,.49,1.66,.65,2.55,.41,.62-.17,1.22-.46,1.82-.72,.37-.17,.72-.4,1.08-.58,.23-.11,.49-.18,.74-.26,.16-.05,.32-.1,.57-.18-.19-.13-.28-.2-.4-.28,.13-.1,.24-.18,.27-.2,.32,.1,.56,.18,.78,.25-.05,.05-.14,.15-.22,.24,.65,.21,1.27,.42,1.9,.62,1.64,.53,2.69,1.86,3.91,2.94,.65,.57,1.24,1.2,1.86,1.8,.03-.02,.08-.03,.08-.05,.08-.69,.57-1.32,.2-2.07-.07-.14-.03-.4,.06-.56,.3-.57,.65-1.1,.94-1.67,.18-.35,.41-.49,.81-.48,1,.02,2,.02,2.99,0,.16,0,.41-.11,.44-.23,.09-.31,.09-.65,.13-.97,0-.01-.05-.04-.07-.05-.42-.14-.6-.48-.8-.84-.08-.15-.25-.3-.41-.36-.66-.28-1.07-.81-1.53-1.34q1.06-.08,1.07-1.14s0-.06,0-.09c-.07-.48,.15-.61,.61-.61,1.5,.02,2.99,.01,4.49,0,.22,0,.47,.06,.54-.29,.06-.31,.29-.31,.49-.15,.25,.19,.44,.12,.57-.12,.23-.39,.45-.79,.67-1.19-.12,.15-.25,.29-.36,.44,.11-.15,.24-.29,.36-.44,0,0,0,0,0,0,0,0,.01-.01,.01-.02h0s0,0,0,0c.14-.14,.3-.41,.43-.4,.47,.02,.66-.25,.83-.6,.08-.17,.2-.32,.31-.48,.04,.02,.08,.03,.12,.05-.03,.17-.04,.35-.1,.51-.11,.27-.1,.47,.18,.62,.12,.07,.23,.17,.33,.26,.02,.02,.04,.04,.06,.06h0c.13,.4,.24,.1,.28-.03,.16-.43,.29-.88,.42-1.32,.19-.62,.36-1.24,.56-1.91h-.59c.35-.24,.82-.23,.74-.74-.28-.05-.57-.1-.78-.14,.25-.43,.61-.78,.66-1.17,.1-.83,.51-1.45,1.08-2,.2-.2,.45-.37,.58-.61Z"/><path class="cls-3" d="M93.71,43.65c0,.08,.05,.2,.12,.23,.06,.03,.2,0,.24-.06,.21-.27,.4-.56,.64-.91-.7-.1-1.06,.21-1,.74Z"/></g><path id="MEX2721" class="cls-1" d="M34.26,40.42h0s0,.02,0,.02v.13s-.04,0-.04,0h-.03s-.07-.02-.07-.02l-.03-.05,.06-.07h.06s.03,0,.03,0h0Zm-.64-.53l.04,.02,.07,.02h.09v.04s.04,.02,.04,.02v.03l-.06,.03v.05s-.02,.04-.02,.04h-.05s-.08-.05-.08-.05h-.05l-.05-.04h-.06s-.04-.07-.04-.07l.06-.05,.04-.04h.04s.03,0,.03,0h0Zm-.63-.68l.06,.03h.07s.04,.02,.04,.02l.12,.05,.05,.04-.02,.07,.04,.04,.02,.03,.02,.02,.03,.02-.03,.02v.03s0,.03,0,.03v.03s-.02,0-.02,0v.02l-.04,.04v.03h0s-.02,0-.02,0h0s0-.04,0-.04l-.02-.02h-.02l-.12-.05-.13-.08v-.03s0-.02,0-.02l-.02-.04-.02-.04-.05-.07h.02v-.08l-.03-.03,.06-.02h0Zm-.07-.26v.03h.02v.05l-.02,.02,.02,.03-.07,.04-.03-.07v-.04s.03-.05,.03-.05h.02s.03,0,.03,0h0Zm7.26-1.8v.04s-.02,.05-.02,.05l-.04,.09-.08,.23-.08,.22-.04,.1v.06s0,.06,0,.06l.07,.06,.13,.11,.12,.12,.12,.11,.12,.12,.1,.11,.09,.11,.09,.11,.09,.12v.04s-.05,.1-.05,.1l-.04,.1-.02,.06-.03,.11v.06s-.02,.05-.02,.05l-.03,.11-.04,.1-.05,.08-.07,.09,.21,.12,.2,.13,.21,.12,.19,.1h.03s-.04,.05-.04,.05l-.02,.06v.14l-.02,.06-.04,.06-.18,.17-.06,.04h-.08s-.24,0-.24,0l-.12,.02h0l-.07,.1v.06l.03,.08v.06s.02,.07,.02,.07v.13s0,.05,0,.05v.15s-.03,.07-.03,.07l-.06,.12-.04,.06-.05,.1-.03,.09-.03,.1v.11s0,.11,0,.11v.13s0,.02,0,.02v.05s-.07-.04-.07-.04l-.08-.04-.07-.04-.04-.05-.04-.07-.06-.05-.07-.04-.07-.04-.07-.04-.04-.05-.04-.06-.04-.06-.07-.09-.06-.04h-.08s-.09,0-.09,0h-.07s-.06-.04-.06-.04l-.05-.05-.05-.05-.03-.03-.08-.07-.04-.04-.03-.02h-.04s-.06-.03-.06-.03h-.06s-.03,0-.03,0h-.03l-.13,.09-.13,.12-.14,.09-.16,.02h-.06s-.03,0-.03,0h-.03s-.03,.03-.03,.03h-.02s0,0,0,0h-.02v-.04l-.02-.02h-.04l-.12,.06-.1,.09-.08,.11-.02,.09-.05,.12-.06,.1-.04,.12-.03,.11-.05,.12-.18-.1-.13-.11-.06-.05-.05-.03-.03-.02h-.02s-.07,.03-.07,.03l-.1-.05h-.12s-.11-.07-.11-.07l-.06,.05-.04-.04,.03-.04,.04-.04h.03s.03,.02,.03,.02l.06-.04,.03-.08,.03-.05,.02-.07,.02-.04,.02-.02h.02s.05-.05,.05-.05l.07-.14,.1-.08,.03-.04,.05-.06,.04-.05,.05-.07,.02-.04h.04s.03-.03,.03-.03l.05-.04,.05-.06,.02-.04,.03-.05,.03-.05-.02-.05,.03-.08v-.09s.04-.08,.04-.08l-.03-.26-.06-.19,.04-.16,.04-.06,.05-.1v-.05s.02-.05,.02-.05v-.03s0-.06,0-.06l-.02-.03-.05-.02h-.04s-.02-.02-.02-.02h-.02s-.04,0-.04,0l-.05-.05-.13-.06-.22-.15-.07-.04-.11-.1-.05-.14-.26-.53-.25-.42-.05-.12-.03-.19,.03-.47-.02-.23-.09-.3-.07-.24-.05-.18-.04-.1,.03-.02,.09,.15,.05,.05,.05-.04v-.06s0-.07,0-.07l-.03-.12h.06s.07-.03,.07-.03l.07-.02,.07,.02,.05,.03,.04,.04,.05,.04,.04,.04,.11,.03h.1s.08-.08,.08-.08v-.12l-.02-.08-.02-.09-.03-.09-.03-.08h0s-.04-.02-.04-.02h0v-.03l.02-.05v-.02l-.03-.02h-.04s-.03-.03-.03-.03l-.02-.03-.02-.05-.02-.03-.02-.02-.06-.04-.02-.02-.02-.02v-.03s0-.07,0-.07l.05-.08,.06-.06,.05-.06,.05-.04,.06-.05,.06-.05,.05-.04,.02-.05v-.03l-.05-.07-.02-.06-.02-.04v-.04s.03-.07,.03-.07l.04-.06,.05-.03h.07s.08,0,.08,0h.16s.17-.02,.17-.02h.17l.16,.02,.15,.05,.15,.08,.15,.08,.14,.07,.07,.04,.04,.04,.03,.04,.03,.07,.15,.35-.03,.04-.07,.07-.12,.12-.06,.06-.03,.05-.02,.05v.09s-.03,.19-.03,.19v.11l.02,.06h.08s.09-.04,.09-.04l.09-.07,.06-.06,.19-.14,.19-.14h.07s.1,.06,.1,.06l.1,.07,.07,.04,.02,.03,.02,.04v.05s.05,.16,.05,.16l.03,.11,.05,.1,.08,.08,.17,.11,.09,.04h.09s.11-.06,.11-.06l.23-.09,.11-.05,.03,.25,.02,.14,.02,.13h0Z"/></g></g></svg>