<svg xmlns="http://www.w3.org/2000/svg" viewBox="0 0 306.04 276.52"><defs><style>.cls-1{fill:#fef6fc;}.cls-1,.cls-2,.cls-3{stroke:#6d4162;stroke-miterlimit:10;stroke-width:0.78px;}.cls-2,.cls-3{fill:none;}.cls-3{isolation:isolate;}.cls-4{fill:#713972;}.cls-5{fill:#b25fac;}.cls-6{fill:#f230b9;}</style></defs><g id="estados"><circle class="cls-1" cx="136.96" cy="151.48" r="97.03"/><circle class="cls-2" cx="136.96" cy="151.48" r="104.09"/><polyline class="cls-3" points="213.34 81.1 271.32 41.25 305.78 41.25"/><polyline class="cls-3" points="214.19 220.92 271.32 255.56 305.78 255.56"/><polyline class="cls-3" points="239.72 131.27 272.01 116.16 306.47 116.16"/><polyline class="cls-3" points="238.56 172.75 271 186.07 305.46 186.07"/><path class="cls-4" d="M89.69,219.16H87.48l-8.36-12.8v12.8h-2.2V202.54h2.2l8.39,12.86V202.54h2.18Z"/><path class="cls-4" d="M100.87,217.94a4.51,4.51,0,0,1-3.62,1.45,3.84,3.84,0,0,1-3-1.15,5,5,0,0,1-1-3.39v-8h2.11v8c0,1.87.76,2.81,2.28,2.81a3.16,3.16,0,0,0,3.22-1.81v-9h2.11v12.35h-2Z"/><path class="cls-4" d="M111.25,219.39a5.39,5.39,0,0,1-4.08-1.65,6.12,6.12,0,0,1-1.58-4.41v-.39a7.36,7.36,0,0,1,.71-3.28,5.41,5.41,0,0,1,2-2.26,5,5,0,0,1,2.73-.82,4.64,4.64,0,0,1,3.75,1.59,6.87,6.87,0,0,1,1.33,4.54v.88h-8.36a4.38,4.38,0,0,0,1.06,2.95,3.35,3.35,0,0,0,2.6,1.12,3.7,3.7,0,0,0,1.89-.45,4.88,4.88,0,0,0,1.36-1.21l1.29,1A5.19,5.19,0,0,1,111.25,219.39ZM111,208.32a2.8,2.8,0,0,0-2.14.93,4.54,4.54,0,0,0-1.08,2.61H114v-.16a4,4,0,0,0-.87-2.5A2.65,2.65,0,0,0,111,208.32Z"/><path class="cls-4" d="M122.44,216.29l3.06-9.48h2.15l-4.42,12.35h-1.61l-4.48-12.35h2.16Z"/><path class="cls-4" d="M129,212.87a7.2,7.2,0,0,1,.72-3.26,5.28,5.28,0,0,1,2-2.24,5.47,5.47,0,0,1,2.91-.79,5.23,5.23,0,0,1,4.08,1.75,6.74,6.74,0,0,1,1.55,4.64v.15a7.4,7.4,0,0,1-.69,3.24,5.28,5.28,0,0,1-2,2.23,5.5,5.5,0,0,1-2.95.8,5.22,5.22,0,0,1-4.07-1.75A6.66,6.66,0,0,1,129,213Zm2.13.25a5.26,5.26,0,0,0,.95,3.3,3.24,3.24,0,0,0,5.11,0,5.79,5.79,0,0,0,.94-3.53,5.29,5.29,0,0,0-1-3.29,3.07,3.07,0,0,0-2.56-1.26,3,3,0,0,0-2.53,1.24A5.8,5.8,0,0,0,131.08,213.12Z"/><path class="cls-4" d="M151.16,217.37H159v1.79H149V202.54h2.2Z"/><path class="cls-4" d="M166.33,219.39a5.39,5.39,0,0,1-4.09-1.65,6.12,6.12,0,0,1-1.57-4.41v-.39a7.35,7.35,0,0,1,.7-3.28,5.48,5.48,0,0,1,2-2.26,5,5,0,0,1,2.73-.82,4.63,4.63,0,0,1,3.75,1.59,6.87,6.87,0,0,1,1.33,4.54v.88h-8.36a4.38,4.38,0,0,0,1.06,2.95,3.35,3.35,0,0,0,2.6,1.12,3.67,3.67,0,0,0,1.89-.45,4.88,4.88,0,0,0,1.36-1.21l1.29,1A5.17,5.17,0,0,1,166.33,219.39Zm-.27-11.07a2.81,2.81,0,0,0-2.14.93,4.47,4.47,0,0,0-1.07,2.61H169v-.16a4,4,0,0,0-.87-2.5A2.63,2.63,0,0,0,166.06,208.32Z"/><path class="cls-4" d="M173,212.87a7.2,7.2,0,0,1,.72-3.26,5.28,5.28,0,0,1,2-2.24,5.47,5.47,0,0,1,2.91-.79,5.23,5.23,0,0,1,4.08,1.75,6.69,6.69,0,0,1,1.55,4.64v.15a7.4,7.4,0,0,1-.69,3.24,5.21,5.21,0,0,1-2,2.23,5.5,5.5,0,0,1-2.95.8,5.22,5.22,0,0,1-4.07-1.75A6.66,6.66,0,0,1,173,213Zm2.13.25a5.26,5.26,0,0,0,.95,3.3,3.24,3.24,0,0,0,5.11,0,5.79,5.79,0,0,0,.94-3.53,5.29,5.29,0,0,0-1-3.29,3.07,3.07,0,0,0-2.56-1.26,3,3,0,0,0-2.52,1.24A5.74,5.74,0,0,0,175.15,213.12Zm4.44-11.49h2.55L179.08,205h-1.7Z"/><path class="cls-4" d="M188.91,206.81l.07,1.55a4.51,4.51,0,0,1,3.7-1.78c2.6,0,3.92,1.48,3.94,4.42v8.16h-2.11V211a2.87,2.87,0,0,0-.61-2,2.46,2.46,0,0,0-1.86-.63,3.09,3.09,0,0,0-1.81.54,3.86,3.86,0,0,0-1.21,1.44v8.8h-2.11V206.81Z"/><path id="NL" class="cls-5" d="M144.93,70.27c.28.23.47.7.76.92a3,3,0,0,0,.84.38c.1.23.14.6.23.84a3.15,3.15,0,0,1,.46.61,28.6,28.6,0,0,0-4.81,2.67,3,3,0,0,0,.15,1.91l3.06.53c1.4,2.13.9,5.25,1.6,7.63.07.49.77.74.84,1.22-.32,1.93-1.55,4-1.37,6l.76.92a1.18,1.18,0,0,1,.76.23c.25,0,.67.13.92.15a5.06,5.06,0,0,0,1.14.68c.11.26.21.58.54.61-.46.59-1.17,1.27-1.15,2.07.2.87-.56,1.47-1.07,2.06.74,0,1.56-.11,2.29-.08a21,21,0,0,0,2.67,1.14c1.78.78,1.86,2.67,1,4.2a2.49,2.49,0,0,0,.3,3.28c.5-.13,1-.75,1.45-.84a13.83,13.83,0,0,0,1.91,2.75c.47.36,1.24-.05,1.75.15.54,1,.44,2.81.54,4,0,.56.12,1.83.61,2.21.19-.16.36-.5.61-.61s.48.11.69.08a3,3,0,0,0,.3-.46,2.24,2.24,0,0,1,.69-.15c1.37.8,2.28,2.48,3.58,3.43a10.89,10.89,0,0,1,1.38-2.36,5.06,5.06,0,0,1,2.36.61c.93.21,3,.8,4,1.07.69,1.29.21,3.17.31,4.57V129a7.64,7.64,0,0,0,0,3.05c.71.42,1.79-.15,2.52.23a6.9,6.9,0,0,1,.15,1.22c-2.56,2.25-5.78,4.88-8.4,7.1a11,11,0,0,1-2.74,2.06c-.73.09-1.61.46-2.29,0l-.77-1.07-.3.08c-.17.23-.47.74-.61,1l-.46.15a7.62,7.62,0,0,1-.38.69,1.94,1.94,0,0,1-.92-.15l-.15.23a5,5,0,0,0,.23.84,1.27,1.27,0,0,0-1.07.15c.12.62.77,1.07,1.07,1.6-.5,1.12-1.76,1.66-1,3a2.36,2.36,0,0,1,.46,1.53,9,9,0,0,1-2.37-.92c-.16-.14-.53-.46-.76-.45-.38.23-.66.71-1,1-.68.32-1.26.1-1.9.23-.35.24-.48.73-.84.91a1.15,1.15,0,0,0-1,.46c-.13.44-.07,1-.23,1.45a2.06,2.06,0,0,1-.61.23c-.18.15-.31.44-.54.53h-.38l-.15-.22a1.61,1.61,0,0,1-.38-.16,13.2,13.2,0,0,0-1.53.54c-.67.5-1.43,1.27-2.06,1.83a7.59,7.59,0,0,0,.61,2.59l2.52-1.07a25.82,25.82,0,0,1,.76,4.43c-.66,2.11-1.32,4.41-.84,6.64.13.29.44.93.77,1.07a10,10,0,0,0,1.6,1.45,3.87,3.87,0,0,1,1.14,1.07,7.93,7.93,0,0,1,.31,1.75,4.16,4.16,0,0,1-1-.15c-.54.34-2.14,3-2.6,3.43-.61.1-1.45,0-2.06.16a7.11,7.11,0,0,1-1.37.22c-.89,0-2.07-.21-2.67.61-.9,1.58-1.54,3.36-2.37,5,.18,1.26.78,3,1.07,4.28-1.11-.16-2.17-.87-3.28-1-.76.2-1.4,1.05-2,1.52.63.42,1.64.77,1.91,1.53l-.23,1.45a37.93,37.93,0,0,0-6.48-.31,7.19,7.19,0,0,1-.08,1.61l-.23.07a9.48,9.48,0,0,1-2-.53c-1.07-.9-.81-2.57-.84-3.82a3.31,3.31,0,0,0-.38-1.6c-.15-.86.62-1.69.38-2.52a32.33,32.33,0,0,1-.92-3.89,9.18,9.18,0,0,0,.15-4.2c-.64-.87-1.63-2-2.21-2.9a12,12,0,0,1-.61-2.52v-5c-.12-.94,0-2.18-.61-3-1.78-1.81-3-4.3-4.73-6.18.18-2.22,1.82-4.57,1.3-6.79a4.68,4.68,0,0,1-.46-2.37c.4-.3,1-.66,1.37-1l.08-.38a7.25,7.25,0,0,0-1.45-1.68,2.18,2.18,0,0,1-1.07-.46,6,6,0,0,1,3-3.74,6.35,6.35,0,0,1,5.64-.91l1.83.69c1.06-.1,2.06-.59,3.13-.31l.31-.15c0-.39-.18-.94,0-1.3a5.46,5.46,0,0,1,1.45-.53c-.62-.77-1.78-1.18-2.52-1.84a8.15,8.15,0,0,1-2.14-.22c-.59,0-1.24.5-1.83.3l-.23-.23v-.23l.16-.23v-.22c-.54-.69-1.67-.78-2.45-1-.28-.23-.76-.74-.76-1.14-.47-.66-1.54-.91-2.21-1.3l.15-.53c1-.28,2,.53,2.9.76,0-.54,0-1.27-.61-1.45-.24,0-.81,0-1-.15a2,2,0,0,1,.07-.77,1.36,1.36,0,0,0-1-.76,2.56,2.56,0,0,1-1.52-.3c-1.22-1.46-2.54-3.25-2.75-5.19-.09-1.15.37-2.52.15-3.67a10.78,10.78,0,0,1-1.83-1.14c-.38-.87-.13-2-.53-2.9a5.71,5.71,0,0,0-1.07-1.07,8.72,8.72,0,0,0-1.22-.23,3.7,3.7,0,0,1-1.07-2.44,15.36,15.36,0,0,0-3.13-3.36c3.59-3.18,7.44-6.56,11.14-9.61l1,3c2.49-2,3-3.73,3.74-6.71a14.09,14.09,0,0,0,0-2.83,4.86,4.86,0,0,0-.15-2.21c-.76-.67-2.06-.07-2.52-1.22h-.15a4.19,4.19,0,0,1-.23.68c-.16.12-.43.07-.61.08l-.15.15v.16a1.27,1.27,0,0,1,.3.45l-.07.39c-.28.3-.84.32-1.23.38l.08-.69-.3-.3a2.9,2.9,0,0,1-.84-.23c.06-1-1-3.93.3-4.43a11.72,11.72,0,0,0,3.51-2.59,15.68,15.68,0,0,1,3.28-1.3.9.9,0,0,1,.08.46l.15.15c1.79-.05,1.73-2.54,2-3.82s.64-2.93.91-4.27,1.7-2.21,2.82-2.82c.54-.34,1.22-1,1.76-1.3.53.3,4.71,4.28,5.19,4.2,1.24-1.11,2.54-2.61,3.89-3.59Z"/><path class="cls-1" d="M94.07,42.29a3.19,3.19,0,0,0,.53-1.36A1.53,1.53,0,0,0,94,39.62c-.42-.31-.74-.36-1.12.11l.29.08,0,.12a11.22,11.22,0,0,1-1.65-.34,3.48,3.48,0,0,0-2.58.07,8,8,0,0,1-2.47.61,5.56,5.56,0,0,0-2.64.84,1.41,1.41,0,0,0-.5.63A7.05,7.05,0,0,0,83,44.59a.88.88,0,0,1-.2.58,1.09,1.09,0,0,0-.5,1c0,.7-.43,1-.89,1.37s-.69.41-1,.64a4.27,4.27,0,0,0-.47.48h0l-1,.48h0a3.35,3.35,0,0,0-3,.34,1.34,1.34,0,0,1-.5.22c-.88.24-1.85-.18-2.71.52a3.91,3.91,0,0,1-1.73.43.65.65,0,0,1-.53-.16,3.25,3.25,0,0,0-1.32-1.22,3.61,3.61,0,0,0-1.47-.42,9,9,0,0,1-1-.11c-.28-.42-.51-.79-.76-1.15-.34-.51-.85-.94-.93-1.61A3.42,3.42,0,0,0,63.75,44a7.79,7.79,0,0,1-1.91-3.09,1,1,0,0,1,0-.63.74.74,0,0,0-.2-1,2.81,2.81,0,0,1-1.07-1.9c0-.32-.17-.63-.2-1a2.39,2.39,0,0,1,.05-.7c.06-.45.16-.9.22-1.35,0-.23,0-.47,0-.7.08-1.05.14-2.11.28-3.16A10.11,10.11,0,0,1,62,26.73a7.55,7.55,0,0,0,.5-1.59,1.27,1.27,0,0,0,0-.43,1.36,1.36,0,0,0-.51.11.46.46,0,0,1-.67-.05,1.67,1.67,0,0,0-1.24-.42,4.23,4.23,0,0,1-1.12-.25c-.64-.26-1.25-.61-1.9-.86a1,1,0,0,1-.65-.52c-.27-.58-.59-1.15-.88-1.73a1.36,1.36,0,0,1,0-.36c-.05-.42-.08-.85-.17-1.26A1.18,1.18,0,0,0,55,18.9c-.3-.32-.62-.62-.91-.94s-.6-.7-.89-1.06a1.4,1.4,0,0,1-.28-.36c-.25-.53-.46-1.09-.73-1.61a4.42,4.42,0,0,0-1.45-2.16c-.31-.2-.5-.6-.81-.79s-.45-.69-1-.7A20.29,20.29,0,0,1,46.7,11a.67.67,0,0,0-.31,0,4.68,4.68,0,0,0-.64.3,1.59,1.59,0,0,0-.57.48,6,6,0,0,0-.47,1.21,1.06,1.06,0,0,1-1.82.66c-.4-.28-.88-.45-1.31-.69a7.71,7.71,0,0,1-.77-.49,4.71,4.71,0,0,0-.45-.33,2.06,2.06,0,0,1-1.1-1.78,4.26,4.26,0,0,0-.93-2.12c-.28-.37-.82-.54-1.19-.86s-.93-.91-1.41-1.35c-.25-.23-.53-.43-.78-.65a2.62,2.62,0,0,1-.66-.67,1,1,0,0,0-1-.64c-1.34,0-2.68,0-4,0-1.15,0-1-.1-1,1,0,.47-.13.63-.61.62-2.54,0-5.08,0-7.62,0a2.57,2.57,0,0,1-.83-.12L8.77,1.84C8,1.57,8,1.56,8.18.78a4.09,4.09,0,0,0-.5,0l-6.47.58c-.52,0-.59.19-.36.67a2.8,2.8,0,0,0,.3.46L1.44,3a3,3,0,0,0,.34.57c.28.31.51.6.35,1.06-.1.31.06.54.29.78.4.41.87.82.75,1.52,0,.09.1.24.19.32.46.4.89.78.69,1.5,0,.15.13.52.22.53.46,0,.51.33.49.65a2.44,2.44,0,0,0,.52,1.65,7.29,7.29,0,0,0,1.65,1.16,4.11,4.11,0,0,1,.73.46c.82.86,1.61,1.74,2.39,2.63a.49.49,0,0,1,.09.39c-.14.53,0,1.14-.54,1.55-.06.06,0,.2-.08.31s-.22,0-.29.07a1.18,1.18,0,0,1-1.12.12,1.71,1.71,0,0,0-.5-.1,2.64,2.64,0,0,0-.46.13,2.59,2.59,0,0,0,.3.48c.51.5,1.33.7,1.47,1.56a.28.28,0,0,0,.16.16,7.17,7.17,0,0,0,1.36.73,1.36,1.36,0,0,1,.78.58c.19.27.4.56.82.19s1,.05,1.2.38a3,3,0,0,0,.43.52c.59.71,1.61.82,2.15,1.64a3.36,3.36,0,0,1,.33,2.66c-.22.49-.36,1-.56,1.61a5.24,5.24,0,0,0,.71.1c.39,0,.69.12.74.58l-.39.23.81.64.12-.1-.18-.57a.85.85,0,0,1,.27.13c1,.9,2.33,1.51,3.18,2.64a.89.89,0,0,0,.35.21,1.75,1.75,0,0,1,1,1.35,5.7,5.7,0,0,0,.22.81c.21.49.53.55.95.23.24-.19.5-.36.76-.53a1.15,1.15,0,0,0,0-1.86,1.14,1.14,0,0,1-.37-.49,6.73,6.73,0,0,0-.43-.94,3.48,3.48,0,0,0-.73-.57l-.8-.64-.12.07.1.79h0l-.45-.21a1.37,1.37,0,0,1-.66-1.56A1,1,0,0,0,20.46,28,5.64,5.64,0,0,1,19.9,27a3.45,3.45,0,0,0-.39-.82,2.24,2.24,0,0,1-.78-1.7.92.92,0,0,0-.07-.4c-.19-.53-.39-1.05-.59-1.57s-.47-1-1.14-1c-.09,0-.26-.25-.24-.35.06-.34-.09-.48-.37-.6-.12,0-.17-.23-.27-.35-.34-.41-.31-1.11-1-1.31a1.17,1.17,0,0,1-.81-1.09c-.08-.52-.18-1-.31-1.55,0-.13-.25-.22-.37-.33s-.4-.24-.43-.39c-.12-.75-.73-1-1.25-1.32a3.79,3.79,0,0,0-1-1.77c-.62-.6-1.46-.93-2-1.67a2.3,2.3,0,0,1-.48-1.27c0-.69-.13-1.38-.2-2.07a.45.45,0,0,0-.12-.25C7.5,6.48,7.81,5.65,8,4.87c.1-.49.46-.54.87-.24a3.27,3.27,0,0,0,.78.51,1.92,1.92,0,0,0,.83.06c.14,0,.3-.22.42-.19s.45.17.49.32c.18.68.72.73,1.28.88s.71.33.52.89a1.8,1.8,0,0,0,.43,1.77,2.27,2.27,0,0,1,.55,1.19c0,.85.58,1.37.91,2,.1.2.12.43.21.63a1,1,0,0,0,.27.35.91.91,0,0,0,.3.13l.08.13c-1.19-.14-.84.79-1.14,1.37.29.12.58.34.79.28s.37-.38.61-.65c.18.24.36.5.55.74s.53.88.91,1.09a2.87,2.87,0,0,1,1,1,3.31,3.31,0,0,0,.77.72,2.35,2.35,0,0,0,.65.27c.18-.07.42-.14.55-.05a.82.82,0,0,1,.21.51c0,.21-.06.46,0,.64s.39.58.54.89a.94.94,0,0,0,.86.63c.63,0,.75.35.84.85a.7.7,0,0,0,.91.64.78.78,0,0,1,.9.55,1.63,1.63,0,0,1,0,.95,2.17,2.17,0,0,1-.32.57,1.08,1.08,0,0,0,.21,1.21,4.61,4.61,0,0,1,.6.47,1.44,1.44,0,0,0,1.31.66.57.57,0,0,1,.21.1l.75.46,1,.56-.07.12L28,27.64a3.36,3.36,0,0,0,2.46,2.3c-.37.38,0,.52.2.71s.42.31.62.49a10.65,10.65,0,0,1,1,.93c.34.39.64.83,1,1.25.09.12.19.23.29.35a17,17,0,0,0,1.52,1.75,3.09,3.09,0,0,1,1.06,2.2,3,3,0,0,0,.25,1c.25.54.49,1.12,1.11,1.28a4.52,4.52,0,0,0,0,.68,1,1,0,0,1-.34,1,5.46,5.46,0,0,0-.57.78,3,3,0,0,1,.47.12c.13.08.24.19.36.28-.1.1-.18.24-.3.3a4.71,4.71,0,0,1-.54.12c-.48.12-.57.37-.28.77a2.67,2.67,0,0,1,.22.41,6.86,6.86,0,0,0,.45.95,14.44,14.44,0,0,0,1,1.3,2.51,2.51,0,0,0,.67.67,17.49,17.49,0,0,1,2.86,1.46A12.72,12.72,0,0,1,42.68,50a2,2,0,0,0,.62.5,17.32,17.32,0,0,0,1.71.6c.58.18,1.17.34,1.75.5a.36.36,0,0,0,.27,0c.49-.29.79,0,1.1.31a10.27,10.27,0,0,0,.77.71c.48.37,1,.71,1.47,1a2.14,2.14,0,0,0,.45.24c.57.21,1.15.38,1.71.61s1.09.52,1.65.76a7.35,7.35,0,0,0,1,.38c1,.29,2.08.22,2.84,1.09a1.45,1.45,0,0,0,.45.22c.57.25,1.13.51,1.7.74a5.36,5.36,0,0,0,.78.23,6,6,0,0,1,1.83.47,3.12,3.12,0,0,0,2.54.41,13.5,13.5,0,0,0,1.82-.72c.37-.17.71-.4,1.08-.58a6.49,6.49,0,0,1,.74-.26l.58-.18-.4-.28.26-.2.79.25-.22.23,1.9.63c1.64.53,2.69,1.85,3.91,2.94.65.57,1.24,1.19,1.86,1.79l.09,0c.08-.69.57-1.33.2-2.07a.74.74,0,0,1,0-.56c.3-.57.66-1.1,1-1.67a.78.78,0,0,1,.81-.48c1,0,2,0,3,0,.16,0,.41-.11.45-.23a5.15,5.15,0,0,0,.12-1s0,0-.07,0c-.42-.13-.6-.48-.8-.84a.82.82,0,0,0-.4-.36,4.22,4.22,0,0,1-1.53-1.35c1.06-.07,1.06-.07,1.06-1.13a.33.33,0,0,0,0-.1c-.07-.48.15-.61.62-.61,1.49,0,3,0,4.49,0,.22,0,.47.06.53-.29s.29-.3.5-.15.43.12.57-.11c.24-.39.45-.8.67-1.19-.11.14-.25.28-.35.43.1-.15.24-.29.35-.43h0l0,0h0c.14-.14.29-.41.43-.4.47,0,.66-.25.83-.6a4.94,4.94,0,0,1,.3-.49l.12,0a2.88,2.88,0,0,1-.1.51c-.12.27-.1.47.18.62a2.69,2.69,0,0,1,.33.26l.06.06h0c.13.4.24.1.28,0,.16-.43.29-.88.43-1.32.18-.62.36-1.24.55-1.91H91.8c.35-.24.82-.23.74-.74l-.78-.14a3.78,3.78,0,0,0,.66-1.17,3.3,3.3,0,0,1,1.08-2A2.72,2.72,0,0,0,94.07,42.29Z"/><path class="cls-1" d="M93.71,43.65a.29.29,0,0,0,.12.23.25.25,0,0,0,.24-.06c.21-.27.4-.56.64-.9C94,42.82,93.65,43.12,93.71,43.65Z"/><path id="MEX2714" class="cls-6" d="M54.44,18.36l.36.37a4.59,4.59,0,0,0-.79.42.39.39,0,0,0,0,.24l.4.07c.22.33,0,.84.31,1.14a3.45,3.45,0,0,0-.18.77l.1.12c.07,0,.14.05.22.05a.42.42,0,0,0,.14.09s0,.07.07.08c-.2.18-.07.36-.28.53.15,0,.3,0,.43.05s.39.13.4.34-.28.49,0,.7c.06,0,.13-.09.19-.1.18.3.2.38.47.37.12.23,0,.58.15.79a.5.5,0,0,1,.07-.08s.07,0,.09,0,0-.05,0-.06l.09,0c.18.11.29.32.46.45a1.2,1.2,0,0,1,.18-.31c.25,0,.55.17.81.22a17.56,17.56,0,0,1,0,1.78c.09.05.23,0,.32,0a.88.88,0,0,1,0,.16l-1.08.91c-.16.15-.4.38-.64.26l-.1-.13h0l-.08.12-.06,0a.41.41,0,0,1,0,.09.14.14,0,0,1-.11,0l0,0a.45.45,0,0,0,0,.11.14.14,0,0,0-.14,0c0,.08.1.14.14.2s-.19.19-.16.32.1.17.09.27a1.31,1.31,0,0,1-.4-.17.37.37,0,0,1-.38.15s-.06.1-.1.12a.16.16,0,0,0-.13.06c0,.06,0,.13,0,.18a.13.13,0,0,1-.08,0s0,.06-.07.07h-.05l0,0-.05,0a1,1,0,0,0-.46.31,1,1,0,0,0,.08.33l.32-.14a1.57,1.57,0,0,1,.08.64c-.12.36-.21.83.16,1.07a.43.43,0,0,1,.25.4l-.13,0c-.07,0-.28.39-.34.44l-.44,0c-.11,0-.26,0-.34.08s-.2.43-.3.64.1.38.13.55a3.38,3.38,0,0,0-.42-.13c-.09,0-.18.13-.25.19s.21.1.24.2l0,.19a4.57,4.57,0,0,0-.83,0,.67.67,0,0,1,0,.2h0c-.36,0-.38-.26-.36-.56,0-.12-.1-.24,0-.37s-.16-.51-.08-.77c.18-.46-.37-.69-.36-1.12a5.14,5.14,0,0,0,0-1c-.22-.27-.42-.59-.65-.86,0-.26.18-.53.19-.8s-.11-.25-.08-.38a2,2,0,0,0,.18-.13v0a1,1,0,0,0-.19-.22.35.35,0,0,1-.14-.06.93.93,0,0,1,1-.62c.13,0,.26.13.38.1a.79.79,0,0,1,.34,0l0,0c0-.05,0-.12,0-.16s.13-.05.18-.07-.23-.15-.32-.24a1.45,1.45,0,0,0-.51,0l0,0v0l0,0v0c-.07-.08-.21-.09-.31-.12-.14-.18-.15-.23-.39-.32l0-.07c.13,0,.26.07.38.1,0-.18-.08-.17-.21-.2a.34.34,0,0,1,0-.1c-.05-.14-.22-.07-.32-.14a1.39,1.39,0,0,1-.36-.66,3.85,3.85,0,0,0,0-.48,1.42,1.42,0,0,1-.23-.14c0-.24,0-.55-.36-.54a.47.47,0,0,1-.14-.31,2.1,2.1,0,0,0-.4-.44c.46-.4.95-.84,1.43-1.23l.12.39A1.54,1.54,0,0,0,52,21c-.1-.08-.28,0-.33-.15h0a.26.26,0,0,1,0,.08s-.05,0-.08,0v0s0,0,0,.06V21s-.1,0-.15.05V21l0,0a.23.23,0,0,1-.11,0c0-.12-.13-.5,0-.57s.54-.45.87-.5a.15.15,0,0,1,0,.06l0,0c.33-.06.23-.65.34-.9s.39-.47.62-.66a6.21,6.21,0,0,0,.67.53C54,18.74,54.23,18.52,54.44,18.36Z"/></g></svg>