<?xml version="1.0" encoding="UTF-8"?><svg id="estados" xmlns="http://www.w3.org/2000/svg" viewBox="0 0 306.04 276.52"><defs><style>.cls-1,.cls-2{fill:#3bb1e6;}.cls-3{fill:#fff;}.cls-4{stroke-width:1.53px;}.cls-4,.cls-2,.cls-5{stroke:#fff;}.cls-4,.cls-5{fill:none;opacity:.67;stroke-miterlimit:10;}.cls-6{fill:#0a2f3a;opacity:.5;}.cls-2{stroke-linecap:round;stroke-linejoin:round;stroke-width:1.37px;}.cls-5{stroke-width:1.67px;}</style></defs><g id="nl-icono"><circle class="cls-6" cx="136.96" cy="151.48" r="97.03"/><circle class="cls-5" cx="136.96" cy="151.48" r="104.09"/><polyline class="cls-4" points="229.53 104.17 271.63 73.79 306.09 73.79"/><polyline class="cls-4" points="229.02 199.66 271.63 220.23 306.09 220.23"/><polyline class="cls-4" points="240.77 150.49 271.63 150.49 306.09 150.49"/><g><path class="cls-1" d="M89.69,219.16h-2.2l-8.36-12.8v12.8h-2.2v-16.61h2.2l8.39,12.86v-12.86h2.18v16.61Z"/><path class="cls-1" d="M100.87,217.94c-.82,.97-2.03,1.45-3.62,1.45-1.32,0-2.32-.38-3.01-1.15-.69-.76-1.04-1.9-1.04-3.4v-8.03h2.11v7.98c0,1.87,.76,2.81,2.28,2.81,1.61,0,2.69-.6,3.22-1.8v-8.98h2.11v12.35h-2.01l-.05-1.22Z"/><path class="cls-1" d="M111.25,219.39c-1.67,0-3.04-.55-4.09-1.65-1.05-1.1-1.57-2.57-1.57-4.41v-.39c0-1.22,.23-2.32,.7-3.28,.47-.96,1.12-1.72,1.96-2.26s1.75-.82,2.73-.82c1.6,0,2.85,.53,3.74,1.59,.89,1.06,1.34,2.57,1.34,4.54v.88h-8.36c.03,1.22,.39,2.2,1.07,2.95,.68,.75,1.55,1.12,2.6,1.12,.75,0,1.38-.15,1.89-.46,.52-.3,.97-.71,1.36-1.21l1.29,1c-1.03,1.59-2.59,2.38-4.66,2.38Zm-.26-11.07c-.85,0-1.57,.31-2.15,.93s-.94,1.49-1.07,2.61h6.18v-.16c-.06-1.07-.35-1.9-.87-2.49-.52-.59-1.22-.88-2.1-.88Z"/><path class="cls-1" d="M122.44,216.29l3.06-9.48h2.16l-4.43,12.35h-1.61l-4.47-12.35h2.16l3.14,9.48Z"/><path class="cls-1" d="M128.95,212.87c0-1.21,.24-2.3,.71-3.26,.48-.97,1.14-1.71,1.99-2.24,.85-.52,1.82-.79,2.9-.79,1.68,0,3.04,.58,4.08,1.75,1.04,1.16,1.56,2.71,1.56,4.64v.15c0,1.2-.23,2.28-.69,3.24-.46,.95-1.12,1.7-1.97,2.23-.86,.53-1.84,.8-2.95,.8-1.67,0-3.03-.58-4.07-1.75-1.04-1.16-1.56-2.7-1.56-4.62v-.15Zm2.12,.25c0,1.37,.32,2.47,.95,3.3s1.49,1.24,2.55,1.24,1.92-.42,2.56-1.26c.63-.84,.95-2.02,.95-3.53,0-1.35-.32-2.45-.96-3.29-.64-.84-1.5-1.26-2.56-1.26s-1.88,.41-2.52,1.24c-.64,.83-.96,2.02-.96,3.56Z"/><path class="cls-1" d="M151.16,217.37h7.87v1.79h-10.08v-16.61h2.2v14.82Z"/><path class="cls-1" d="M166.33,219.39c-1.67,0-3.04-.55-4.09-1.65-1.05-1.1-1.57-2.57-1.57-4.41v-.39c0-1.22,.23-2.32,.7-3.28,.47-.96,1.12-1.72,1.96-2.26s1.75-.82,2.73-.82c1.6,0,2.85,.53,3.74,1.59,.89,1.06,1.34,2.57,1.34,4.54v.88h-8.36c.03,1.22,.39,2.2,1.07,2.95,.68,.75,1.55,1.12,2.6,1.12,.75,0,1.38-.15,1.89-.46,.52-.3,.97-.71,1.36-1.21l1.29,1c-1.03,1.59-2.59,2.38-4.66,2.38Zm-.26-11.07c-.85,0-1.57,.31-2.15,.93s-.94,1.49-1.07,2.61h6.18v-.16c-.06-1.07-.35-1.9-.87-2.49-.52-.59-1.22-.88-2.1-.88Z"/><path class="cls-1" d="M173.02,212.87c0-1.21,.24-2.3,.71-3.26,.48-.97,1.14-1.71,1.99-2.24,.85-.52,1.82-.79,2.9-.79,1.68,0,3.04,.58,4.08,1.75,1.04,1.16,1.56,2.71,1.56,4.64v.15c0,1.2-.23,2.28-.69,3.24-.46,.95-1.12,1.7-1.97,2.23-.86,.53-1.84,.8-2.95,.8-1.67,0-3.03-.58-4.07-1.75-1.04-1.16-1.56-2.7-1.56-4.62v-.15Zm2.12,.25c0,1.37,.32,2.47,.95,3.3s1.49,1.24,2.55,1.24,1.92-.42,2.56-1.26c.63-.84,.95-2.02,.95-3.53,0-1.35-.32-2.45-.96-3.29-.64-.84-1.5-1.26-2.56-1.26s-1.88,.41-2.52,1.24c-.64,.83-.96,2.02-.96,3.56Zm4.44-11.49h2.56l-3.06,3.35h-1.7s2.2-3.35,2.2-3.35Z"/><path class="cls-1" d="M188.91,206.81l.07,1.55c.94-1.19,2.18-1.78,3.7-1.78,2.61,0,3.93,1.47,3.95,4.42v8.16h-2.11v-8.17c0-.89-.21-1.55-.61-1.97-.4-.43-1.02-.64-1.87-.64-.68,0-1.29,.18-1.8,.55-.52,.37-.92,.84-1.21,1.44v8.8h-2.11v-12.35h2Z"/></g><path id="NL" class="cls-2" d="M144.93,70.27c.28,.23,.47,.7,.76,.92,.21,.17,.58,.3,.84,.38,.1,.23,.13,.61,.23,.84,.12,.09,.37,.48,.46,.61-1.58,.7-3.4,1.66-4.81,2.67-.1,.56-.18,1.42,.15,1.91l3.05,.53c1.41,2.13,.91,5.25,1.6,7.63,.07,.49,.77,.74,.84,1.22-.32,1.93-1.55,4.01-1.37,6.03l.76,.92c.27-.05,.53,.11,.76,.23,.25,.03,.67,.14,.92,.15,.32,.27,.76,.51,1.14,.69,.11,.26,.2,.58,.53,.61-.46,.59-1.16,1.27-1.14,2.06,.2,.87-.56,1.47-1.07,2.06,.74,.04,1.55-.1,2.29-.08,.82,.39,1.79,.88,2.67,1.14,1.78,.77,1.85,2.67,.99,4.2-.83,.9-.53,2.47,.31,3.28,.49-.13,.96-.75,1.45-.84,.31,.9,1.36,1.97,1.91,2.75,.47,.36,1.24-.05,1.76,.15,.54,1.05,.43,2.81,.53,3.97,.03,.56,.13,1.82,.61,2.21,.19-.17,.37-.5,.61-.61,.2-.02,.48,.11,.69,.08,.07-.04,.26-.39,.31-.46,.09-.09,.56-.13,.69-.15,1.37,.8,2.28,2.48,3.59,3.43,.44-.74,.73-1.75,1.37-2.37,.79-.07,1.66,.3,2.37,.61,.92,.21,3.04,.8,3.97,1.07,.69,1.29,.21,3.17,.31,4.58,0,.45,0,6.01,0,6.26-.13,.88-.28,2.19,0,3.05,.72,.42,1.8-.16,2.52,.23,.1,.14,.13,1.05,.15,1.22-2.56,2.24-5.78,4.88-8.39,7.1-.76,.61-1.81,1.77-2.75,2.06-.73,.09-1.61,.46-2.29,0l-.76-1.07-.31,.08c-.17,.23-.47,.74-.61,.99l-.46,.15c-.08,.17-.28,.52-.38,.69-.25,.03-.69-.05-.92-.15l-.15,.23c.03,.21,.15,.64,.23,.84-.33-.12-.78-.04-1.07,.15,.12,.62,.77,1.07,1.07,1.6-.5,1.11-1.76,1.66-.99,3.05,.29,.43,.53,1,.46,1.53-.76-.22-1.69-.48-2.37-.92-.16-.14-.53-.47-.76-.46-.37,.23-.65,.72-.99,.99-.68,.32-1.27,.11-1.91,.23-.35,.24-.47,.73-.84,.92-.37-.03-.77,.16-.99,.46-.12,.44-.07,1.01-.23,1.45-.16,.1-.42,.2-.61,.23-.17,.15-.31,.44-.53,.53h-.38l-.15-.23c-.1-.03-.3-.1-.38-.15-.45,.16-1.09,.32-1.53,.53-.67,.5-1.43,1.28-2.06,1.83-.09,.74,.39,1.9,.61,2.59l2.52-1.07c.28,1.36,.74,3.04,.76,4.43-.66,2.11-1.32,4.41-.84,6.64,.13,.29,.44,.93,.76,1.07,.45,.42,1.06,1.16,1.6,1.45,.42,.23,.87,.68,1.14,1.07,.16,.52,.28,1.22,.31,1.76-.3,.03-.7-.1-.99-.15-.54,.34-2.14,3.04-2.59,3.43-.61,.1-1.45,.05-2.06,.15-.33,.11-1.03,.21-1.37,.23-.88,.04-2.07-.22-2.67,.61-.89,1.58-1.54,3.36-2.37,4.96,.18,1.25,.78,3.02,1.07,4.27-1.11-.16-2.17-.87-3.28-.99-.76,.21-1.39,1.06-1.98,1.53,.63,.42,1.63,.76,1.91,1.53l-.23,1.45c-2.01-.38-4.45-.3-6.49-.31-.03,.45,.08,1.18-.08,1.6l-.23,.08c-.59-.16-1.44-.24-1.98-.53-1.06-.9-.8-2.56-.84-3.82,.06-.54-.17-1.12-.38-1.6-.14-.86,.63-1.69,.38-2.52-.32-1.23-.75-2.63-.92-3.89,.26-1.34,.54-2.85,.15-4.2-.64-.87-1.63-1.98-2.21-2.9-.26-.6-.54-1.87-.61-2.52,0-1.56,0-3.47,0-5.04-.12-.94-.02-2.17-.61-2.98-1.78-1.81-3.03-4.3-4.73-6.18,.18-2.22,1.82-4.57,1.3-6.79-.2-.71-.67-1.61-.46-2.37,.4-.3,.99-.67,1.37-.99l.08-.38c-.25-.6-1.02-1.22-1.45-1.68-.31,.02-.83-.28-1.07-.46,.46-1.58,1.48-2.99,2.98-3.74,1.58-1.09,3.8-1.62,5.65-.92,.54,.2,1.29,.48,1.83,.69,1.05-.1,2.05-.59,3.13-.31l.31-.15c.03-.38-.18-.93,0-1.3,.35-.27,1.04-.39,1.45-.53-.61-.77-1.78-1.18-2.52-1.83-.69,.04-1.46-.08-2.14-.23-.59,.02-1.24,.51-1.83,.31l-.23-.23v-.23l.15-.23v-.23c-.53-.69-1.67-.77-2.44-.99-.28-.24-.76-.75-.76-1.14-.47-.66-1.55-.91-2.21-1.3l.15-.53c.99-.28,1.98,.53,2.9,.76,.03-.54,.02-1.27-.61-1.45-.24,.01-.81,.03-.99-.15,0-.23-.03-.55,.08-.76-.15-.41-.58-.66-.99-.76-.48,.03-1.12-.02-1.53-.31-1.22-1.46-2.53-3.25-2.75-5.19-.09-1.15,.37-2.52,.15-3.66-.53-.39-1.39-.65-1.83-1.14-.38-.87-.13-2.02-.53-2.9-.26-.37-.7-.8-1.07-1.07-.34-.19-.86-.12-1.22-.23-.67-.62-.99-1.55-1.07-2.44-.72-1.27-2.06-2.4-3.13-3.36,3.59-3.19,7.44-6.56,11.14-9.62l.99,3.05c2.49-1.99,3.01-3.74,3.74-6.72,.19-.9,0-1.92,0-2.82,.1-.65,.09-1.59-.15-2.21-.76-.67-2.06-.07-2.52-1.22h-.15c-.03,.18-.16,.52-.23,.69-.16,.12-.43,.07-.61,.08l-.15,.15v.15c.14,.1,.24,.31,.31,.46l-.08,.38c-.28,.31-.84,.32-1.22,.38l.08-.69-.31-.31c-.22-.02-.64-.12-.84-.23,.07-.95-1.01-3.93,.31-4.43,1.05-.53,2.81-1.64,3.51-2.59,.2-.25,2.94-1.27,3.28-1.3,.05,.11,.09,.34,.08,.46l.15,.15c1.79-.05,1.73-2.54,1.98-3.82,.27-1.34,.65-2.93,.92-4.27,.34-1.32,1.69-2.21,2.82-2.82,.53-.33,1.22-.99,1.76-1.3,.53,.3,4.71,4.28,5.19,4.2,1.24-1.11,2.55-2.61,3.89-3.59h0Z"/><g><g><path class="cls-3" d="M94.07,42.29c.23-.43,.53-.9,.53-1.36,0-.45-.13-.96-.61-1.31-.43-.31-.75-.37-1.12,.1,.1,.03,.19,.06,.29,.09,0,.04-.02,.08-.02,.11-.55-.11-1.12-.15-1.65-.33-.89-.32-1.78-.27-2.58,.07-.81,.34-1.62,.54-2.47,.61-.95,.09-1.84,.3-2.64,.83-.21,.14-.4,.39-.5,.63-.4,.91-.32,1.89-.33,2.86,0,.2-.06,.48-.2,.57-.39,.26-.52,.65-.49,1.05,.04,.7-.43,1.02-.89,1.36-.32,.24-.7,.41-1.03,.64-.18,.13-.31,.32-.46,.48h0s0,0,0,0c-.34,.16-.68,.31-1.01,.47,0,0,0,0-.01,0,0,0,0,0,0,0-.73-.39-2.31-.19-2.94,.35-.13,.11-.32,.16-.5,.21-.88,.25-1.86-.18-2.72,.52-.42,.34-1.14,.33-1.73,.43-.16,.03-.43-.04-.52-.16-.38-.47-.67-.95-1.32-1.22-.49-.2-.93-.43-1.48-.42-.38,0-.76-.07-1.03-.1-.28-.42-.52-.79-.76-1.15-.35-.52-.85-.94-.93-1.61-.1-.86-.61-1.52-1.19-2.07-.91-.88-1.49-1.93-1.91-3.09-.07-.18-.04-.44,.03-.63,.17-.4,.19-.71-.2-1.02-.6-.48-.98-1.11-1.07-1.9-.04-.32-.17-.63-.21-.96-.03-.23,.02-.47,.05-.7,.07-.45,.16-.9,.22-1.35,.03-.23-.04-.47-.02-.7,.08-1.06,.14-2.12,.28-3.16,.18-1.28,.42-2.54,1.07-3.7,.27-.47,.36-1.05,.51-1.59,.04-.13-.02-.29-.03-.43-.17,.03-.38,.02-.51,.11-.26,.19-.49,.14-.67-.05-.34-.38-.78-.38-1.24-.42-.38-.03-.77-.1-1.12-.25-.65-.26-1.25-.62-1.9-.86-.29-.11-.51-.22-.64-.51-.28-.59-.6-1.15-.88-1.73-.05-.1-.03-.24-.05-.36-.05-.42-.08-.85-.18-1.27-.04-.17-.21-.33-.34-.47-.3-.32-.61-.62-.9-.94-.31-.34-.6-.7-.89-1.05-.1-.12-.22-.23-.28-.36-.25-.53-.46-1.09-.72-1.61-.39-.78-.62-1.66-1.45-2.16-.31-.19-.5-.6-.81-.79-.34-.21-.45-.69-.98-.69-.73-.01-1.46-.16-2.2-.25-.1-.01-.21,0-.3,.04-.22,.09-.44,.18-.64,.3-.21,.13-.46,.27-.57,.48-.21,.38-.35,.8-.47,1.21-.28,.99-1.01,1.24-1.83,.66-.4-.28-.87-.45-1.3-.69-.27-.15-.52-.32-.78-.49-.15-.1-.28-.25-.44-.33-.75-.36-1.03-1.07-1.1-1.78-.08-.84-.48-1.5-.93-2.12-.27-.38-.82-.54-1.19-.86-.49-.42-.93-.91-1.41-1.35-.25-.23-.53-.43-.78-.65-.23-.21-.53-.4-.66-.67-.22-.47-.54-.64-1.03-.63-1.34,0-2.68,0-4.02,0-1.15,0-1-.11-.99,1,0,.47-.14,.62-.61,.62-2.54-.02-5.08,0-7.63-.01-.28,0-.57-.03-.83-.12-3.48-1.25-6.95-2.52-10.42-3.79-.74-.27-.74-.28-.59-1.06-.18,0-.34-.01-.5,0-2.16,.19-4.31,.38-6.47,.58-.52,.05-.59,.19-.36,.68,.08,.17,.21,.31,.3,.46,.1,.17,.2,.34,.3,.51,.11,.19,.19,.42,.34,.58,.28,.31,.51,.6,.35,1.06-.1,.31,.06,.54,.29,.77,.4,.42,.87,.82,.75,1.52-.02,.09,.1,.24,.19,.32,.45,.4,.89,.78,.68,1.5-.04,.15,.13,.53,.22,.53,.46,.03,.51,.33,.49,.65-.04,.63,.18,1.23,.52,1.65,.42,.5,1.09,.79,1.65,1.16,.24,.16,.54,.26,.73,.46,.82,.86,1.61,1.74,2.39,2.63,.08,.09,.11,.27,.08,.39-.14,.53-.03,1.15-.53,1.56-.07,.05-.06,.2-.08,.3-.1,.02-.22,.02-.3,.07-.35,.26-.72,.24-1.11,.12-.16-.05-.33-.1-.5-.09-.16,0-.31,.09-.47,.13,.1,.16,.18,.35,.31,.47,.51,.5,1.33,.7,1.46,1.56,0,.06,.1,.12,.16,.16,.45,.25,.88,.58,1.36,.72,.37,.11,.57,.3,.78,.59,.19,.27,.41,.55,.82,.19,.28-.25,1,.05,1.2,.38,.11,.19,.28,.35,.43,.52,.59,.7,1.61,.82,2.16,1.64,.41,.62,.65,1.97,.33,2.66-.23,.49-.36,1.02-.56,1.61,.27,.04,.49,.1,.71,.1,.4,.01,.7,.12,.75,.57-.12,.07-.23,.14-.39,.23,.3,.24,.56,.44,.81,.64,.04-.03,.08-.06,.12-.09-.05-.17-.11-.35-.18-.58,.12,.06,.21,.08,.27,.13,1.03,.91,2.32,1.51,3.18,2.64,.08,.1,.23,.17,.36,.22,.63,.23,.88,.75,1.03,1.35,.07,.27,.12,.55,.22,.81,.2,.49,.53,.55,.94,.23,.25-.19,.51-.36,.76-.53,.63-.43,.6-1.45-.03-1.86-.16-.1-.27-.31-.36-.49-.16-.31-.23-.67-.43-.94-.18-.24-.48-.38-.73-.57-.27-.21-.53-.43-.8-.64-.04,.02-.08,.05-.12,.07,.03,.26,.06,.53,.09,.79,0,0,0,0,0,.01,0,0,0,0,0,0-.15-.07-.3-.15-.45-.21-.51-.22-.88-1.05-.66-1.56,.2-.46,.1-.82-.21-1.2-.23-.28-.39-.62-.56-.95-.14-.27-.19-.6-.39-.82-.44-.5-.85-.97-.79-1.69,.01-.13-.02-.28-.07-.41-.19-.52-.39-1.04-.59-1.57-.2-.53-.47-.98-1.14-.99-.09,0-.25-.24-.24-.35,.06-.34-.09-.48-.37-.6-.12-.05-.18-.23-.27-.35-.35-.42-.31-1.11-.95-1.31-.53-.17-.72-.58-.8-1.09-.08-.52-.18-1.04-.32-1.55-.04-.14-.24-.22-.37-.34-.15-.13-.4-.24-.42-.39-.12-.74-.73-.98-1.26-1.32-.19-.67-.47-1.24-1-1.77-.62-.6-1.46-.93-1.95-1.67-.27-.4-.47-.77-.48-1.27-.02-.69-.13-1.38-.2-2.07,0-.09-.05-.19-.11-.25-.68-.73-.37-1.56-.2-2.34,.11-.49,.47-.54,.88-.24,.25,.18,.49,.41,.77,.51,.25,.09,.55,.08,.83,.06,.15-.01,.31-.22,.43-.19,.18,.04,.44,.18,.48,.32,.18,.68,.72,.73,1.28,.88,.68,.18,.71,.33,.52,.89-.23,.68,.01,1.23,.42,1.77,.26,.35,.55,.79,.55,1.19,0,.85,.58,1.37,.91,2.03,.1,.2,.12,.43,.21,.63,.06,.13,.16,.26,.27,.35,.08,.07,.2,.08,.3,.12,.03,.04,.05,.09,.08,.13-1.18-.13-.84,.8-1.13,1.38,.29,.11,.57,.33,.79,.28,.22-.06,.37-.38,.6-.65,.18,.24,.36,.49,.56,.74,.29,.38,.52,.87,.91,1.08,.48,.26,.72,.64,1.01,1.04,.2,.28,.48,.51,.77,.72,.19,.14,.43,.19,.65,.28,.18-.07,.42-.14,.55-.05,.13,.08,.18,.33,.21,.51,.03,.21-.06,.46,.02,.64,.13,.32,.39,.58,.54,.89,.18,.37,.47,.63,.86,.63,.63-.01,.75,.35,.84,.85,.09,.51,.39,.74,.91,.65,.51-.1,.76,.23,.9,.55,.12,.26,.03,.64-.03,.95-.04,.2-.21,.38-.32,.57-.2,.35-.09,.98,.21,1.21,.2,.16,.43,.28,.6,.47,.35,.4,.72,.74,1.31,.67,.07,0,.14,.05,.21,.09,.25,.15,.5,.32,.75,.47,.33,.19,.66,.37,.99,.56-.02,.04-.05,.08-.07,.12-.16-.1-.31-.19-.51-.31,.35,1.03,1.37,2.23,2.46,2.29-.36,.38-.03,.53,.2,.71,.21,.17,.42,.32,.62,.49,.33,.3,.68,.59,.97,.93,.34,.39,.64,.83,.96,1.25,.09,.12,.2,.24,.3,.35,.5,.59,.94,1.24,1.51,1.75,.69,.61,.99,1.32,1.06,2.2,.03,.33,.12,.67,.25,.97,.25,.55,.49,1.13,1.1,1.28-.02,.28-.07,.48-.04,.68,.05,.39-.05,.68-.34,.96-.21,.2-.35,.47-.57,.77,.24,.06,.37,.07,.47,.13,.13,.07,.24,.18,.36,.28-.1,.1-.18,.24-.3,.3-.17,.07-.36,.07-.55,.12-.48,.12-.56,.37-.27,.77,.09,.12,.15,.27,.22,.4,.15,.32,.25,.67,.45,.95,.31,.46,.68,.88,1.04,1.3,.21,.24,.41,.53,.67,.67,.95,.49,2,.8,2.86,1.47,.46,.36,.8,.88,1.21,1.31,.18,.19,.38,.41,.62,.51,.56,.23,1.14,.41,1.72,.59,.58,.18,1.17,.34,1.75,.5,.08,.02,.2,.03,.27,0,.48-.28,.78,.02,1.09,.32,.25,.24,.5,.5,.78,.71,.48,.36,.97,.7,1.46,1.04,.14,.1,.29,.18,.45,.24,.57,.21,1.15,.39,1.72,.62,.56,.23,1.09,.52,1.64,.76,.33,.15,.67,.28,1.02,.38,.98,.28,2.08,.21,2.84,1.08,.1,.12,.3,.15,.46,.22,.56,.25,1.12,.51,1.69,.75,.25,.1,.52,.16,.78,.23,.6,.16,1.25,.1,1.83,.47,.77,.49,1.66,.65,2.55,.41,.62-.17,1.22-.46,1.82-.72,.37-.17,.72-.4,1.08-.58,.23-.11,.49-.18,.74-.26,.16-.05,.32-.1,.57-.18-.19-.13-.28-.2-.4-.28,.13-.1,.24-.18,.27-.2,.32,.1,.56,.18,.78,.25-.05,.05-.14,.15-.22,.24,.65,.21,1.27,.42,1.9,.62,1.64,.53,2.69,1.86,3.91,2.94,.65,.57,1.24,1.2,1.86,1.8,.03-.02,.08-.03,.08-.05,.08-.69,.57-1.32,.2-2.07-.07-.14-.03-.4,.06-.56,.3-.57,.65-1.1,.94-1.67,.18-.35,.41-.49,.81-.48,1,.02,2,.02,2.99,0,.16,0,.41-.11,.44-.23,.09-.31,.09-.65,.13-.97,0-.01-.05-.04-.07-.05-.42-.14-.6-.48-.8-.84-.08-.15-.25-.3-.41-.36-.66-.28-1.07-.81-1.53-1.34q1.06-.08,1.07-1.14s0-.06,0-.09c-.07-.48,.15-.61,.61-.61,1.5,.02,2.99,.01,4.49,0,.22,0,.47,.06,.54-.29,.06-.31,.29-.31,.49-.15,.25,.19,.44,.12,.57-.12,.23-.39,.45-.79,.67-1.19-.12,.15-.25,.29-.36,.44,.11-.15,.24-.29,.36-.44,0,0,0,0,0,0,0,0,.01-.01,.01-.02h0s0,0,0,0c.14-.14,.3-.41,.43-.4,.47,.02,.66-.25,.83-.6,.08-.17,.2-.32,.31-.48,.04,.02,.08,.03,.12,.05-.03,.17-.04,.35-.1,.51-.11,.27-.1,.47,.18,.62,.12,.07,.23,.17,.33,.26,.02,.02,.04,.04,.06,.06h0c.13,.4,.24,.1,.28-.03,.16-.43,.29-.88,.42-1.32,.19-.62,.36-1.24,.56-1.91h-.59c.35-.24,.82-.23,.74-.74-.28-.05-.57-.1-.78-.14,.25-.43,.61-.78,.66-1.17,.1-.83,.51-1.45,1.08-2,.2-.2,.45-.37,.58-.61Z"/><path class="cls-3" d="M93.71,43.65c0,.08,.05,.2,.12,.23,.06,.03,.2,0,.24-.06,.21-.27,.4-.56,.64-.91-.7-.1-1.06,.21-1,.74Z"/></g><path id="MEX2714" class="cls-1" d="M54.44,18.36l.36,.36c-.25,.11-.57,.26-.78,.42-.01,.07-.02,.18,.02,.24l.39,.07c.23,.33,.05,.84,.31,1.14-.04,.25-.2,.51-.18,.77l.1,.12c.07,0,.14,.05,.22,.05,.04,.03,.1,.07,.15,.09,.01,.03,.03,.07,.07,.08-.21,.18-.08,.36-.28,.53,.15,0,.3-.04,.43,.06,.16,.06,.4,.13,.4,.33,.02,.25-.28,.49-.03,.71,.06-.02,.12-.1,.19-.11,.18,.3,.2,.39,.47,.37,.12,.23,0,.58,.15,.79,.02-.02,.05-.06,.08-.08,.03,0,.06,.01,.09,0,0,0,.03-.05,.04-.06,.01-.01,.07-.02,.09-.02,.18,.1,.29,.32,.46,.44,.06-.09,.09-.23,.18-.3,.25,.02,.56,.16,.81,.22,.13,.53-.03,1.24,.04,1.78,.09,.05,.23-.02,.32,.03,.01,.02,.02,.13,.02,.16-.33,.29-.74,.63-1.08,.91-.17,.15-.4,.38-.65,.26l-.1-.14h-.04s-.06,.1-.08,.14l-.06,.02s-.04,.07-.05,.09c-.03,0-.09,0-.12-.02l-.02,.03s.02,.08,.03,.11c-.04-.02-.1,0-.14,.02,.02,.08,.1,.14,.14,.21-.04,.11-.18,.18-.16,.31,.03,.09,.1,.18,.09,.27-.15-.03-.28-.11-.4-.18-.12,.14-.19,.16-.37,.16-.04,.03-.06,.1-.11,.12-.05,0-.1,.02-.13,.06-.02,.06,0,.13-.03,.19-.02,.01-.05,.03-.08,.03-.02,.02-.04,.06-.07,.07h-.05l-.02-.03s-.04-.01-.05-.02c-.19,.03-.33,.18-.46,.3-.01,.09,.05,.24,.08,.33l.32-.14c.03,.2,.13,.44,.08,.64-.12,.36-.22,.82,.16,1.07,.16,.08,.25,.22,.24,.4-.04,0-.09-.01-.13-.02-.07,.04-.28,.39-.33,.44-.14,0-.3,.03-.44,.05-.11,0-.27-.03-.34,.08-.11,.2-.2,.43-.3,.64,.02,.16,.1,.39,.14,.55-.14-.02-.28-.11-.42-.13-.1,.03-.18,.14-.25,.2,.08,.05,.21,.1,.24,.2l-.03,.19c-.26-.05-.57-.04-.83-.04,0,.06,.01,.15,0,.21h-.03c-.36,0-.38-.25-.36-.55,0-.13-.09-.25-.02-.37,.09-.25-.16-.52-.08-.77,.18-.45-.37-.69-.36-1.12,0-.31,.03-.65-.04-.96-.22-.27-.42-.59-.65-.86,.03-.26,.18-.53,.19-.79-.02-.12-.11-.26-.08-.38,.05-.04,.13-.09,.18-.13v-.05c-.02-.08-.12-.16-.18-.22-.04,0-.11-.04-.14-.06,.11-.41,.61-.72,1.03-.62,.13,.01,.25,.13,.38,.1,.11-.02,.22-.06,.33-.03l.04-.02s-.02-.12,0-.17c.04-.03,.13-.05,.19-.07-.08-.1-.23-.15-.32-.24-.36-.03-.17-.03-.51,0l-.03-.03v-.03l.02-.03v-.03c-.07-.09-.21-.1-.31-.13-.14-.18-.15-.23-.38-.31l.02-.07c.13-.04,.26,.07,.37,.1,.03-.18-.07-.17-.21-.21,0-.03,0-.07,0-.1-.05-.14-.22-.07-.32-.14-.16-.19-.33-.42-.35-.67-.01-.15,.05-.32,.02-.47-.07-.05-.18-.08-.24-.15-.05-.23-.04-.54-.36-.54-.09-.08-.13-.2-.14-.31-.09-.16-.26-.31-.4-.43,.46-.41,.96-.84,1.43-1.23l.13,.39c.46-.34,.55-.98,.46-1.51-.09-.08-.27-.01-.32-.16h-.02s-.02,.07-.03,.09c-.02,.02-.06,0-.08,0l-.02,.02v.02s.03,.04,.04,.06v.05s-.12,.04-.17,.05v-.09s-.03-.04-.03-.04c-.03,0-.08-.02-.11-.03,0-.12-.13-.51,.04-.57,.28-.14,.54-.46,.87-.5,0,.01,.01,.04,0,.06l.02,.02c.33-.06,.23-.65,.34-.9,.02-.35,.38-.48,.62-.67,.07,.04,.6,.55,.67,.54,.19-.18,.39-.4,.6-.55Z"/></g></g></svg>