<svg xmlns="http://www.w3.org/2000/svg" viewBox="0 0 306.04 276.52"><defs><style>.cls-1{fill:#fef6fc;}.cls-1,.cls-2,.cls-3{stroke:#6d4162;stroke-miterlimit:10;stroke-width:0.78px;}.cls-2,.cls-3{fill:none;}.cls-3{isolation:isolate;}.cls-4{fill:#713972;}.cls-5{fill:#b25fac;}.cls-6{fill:#f230b9;}</style></defs><g id="estados"><circle class="cls-1" cx="136.96" cy="151.48" r="97.03"/><circle class="cls-2" cx="136.96" cy="151.48" r="104.09"/><polyline class="cls-3" points="213.34 81.1 271.32 41.25 305.78 41.25"/><polyline class="cls-3" points="214.19 220.92 271.32 255.56 305.78 255.56"/><polyline class="cls-3" points="239.72 131.27 272.01 116.16 306.47 116.16"/><polyline class="cls-3" points="238.56 172.75 271 186.07 305.46 186.07"/><path class="cls-4" d="M112.3,211.39a10.25,10.25,0,0,1-.82,4.26,6.3,6.3,0,0,1-2.33,2.78,6.4,6.4,0,0,1-3.52,1,6.2,6.2,0,0,1-5.83-3.72,9.76,9.76,0,0,1-.86-4.13v-1.2a10.12,10.12,0,0,1,.83-4.24,6.19,6.19,0,0,1,5.84-3.79,6.46,6.46,0,0,1,3.52,1,6.18,6.18,0,0,1,2.35,2.79,10.36,10.36,0,0,1,.82,4.27Zm-2.18-1.08a7.43,7.43,0,0,0-1.19-4.53,4.23,4.23,0,0,0-6.59,0,7.29,7.29,0,0,0-1.22,4.39v1.22a7.47,7.47,0,0,0,1.2,4.5,4.21,4.21,0,0,0,6.6.09,7.37,7.37,0,0,0,1.2-4.43Z"/><path class="cls-4" d="M122.88,219.16a4.69,4.69,0,0,1-.3-1.3,4.7,4.7,0,0,1-3.51,1.53,4.36,4.36,0,0,1-3-1,3.33,3.33,0,0,1-1.17-2.62,3.48,3.48,0,0,1,1.47-3,6.89,6.89,0,0,1,4.12-1.07h2.06v-1a2.34,2.34,0,0,0-.67-1.76,2.64,2.64,0,0,0-1.95-.66,3.07,3.07,0,0,0-1.89.57,1.69,1.69,0,0,0-.77,1.38h-2.12a2.89,2.89,0,0,1,.66-1.78,4.39,4.39,0,0,1,1.78-1.36,5.9,5.9,0,0,1,2.47-.51,4.87,4.87,0,0,1,3.34,1.07,3.84,3.84,0,0,1,1.26,2.94v5.68a7,7,0,0,0,.43,2.71v.18Zm-3.51-1.61a3.75,3.75,0,0,0,1.89-.51,3.19,3.19,0,0,0,1.29-1.34v-2.53h-1.66c-2.58,0-3.88.75-3.88,2.27a1.92,1.92,0,0,0,.66,1.55A2.58,2.58,0,0,0,119.37,217.55Z"/><path class="cls-4" d="M132.11,211.32l2.74-4.51h2.46l-4,6.11,4.17,6.24H135l-2.86-4.62-2.85,4.62h-2.45l4.16-6.24-4-6.11h2.44Z"/><path class="cls-4" d="M147.17,219.16a4.42,4.42,0,0,1-.29-1.3,4.74,4.74,0,0,1-3.52,1.53,4.34,4.34,0,0,1-3-1,3.33,3.33,0,0,1-1.17-2.62,3.47,3.47,0,0,1,1.46-3,7,7,0,0,1,4.13-1.07h2.05v-1a2.37,2.37,0,0,0-.66-1.76,2.64,2.64,0,0,0-2-.66,3.1,3.1,0,0,0-1.9.57,1.67,1.67,0,0,0-.76,1.38h-2.12a2.94,2.94,0,0,1,.65-1.78,4.39,4.39,0,0,1,1.78-1.36,5.93,5.93,0,0,1,2.47-.51,4.9,4.9,0,0,1,3.35,1.07,3.86,3.86,0,0,1,1.25,2.94v5.68a7,7,0,0,0,.44,2.71v.18Zm-3.5-1.61a3.72,3.72,0,0,0,1.88-.51,3.07,3.07,0,0,0,1.29-1.34v-2.53h-1.65c-2.59,0-3.88.75-3.88,2.27A1.92,1.92,0,0,0,142,217,2.56,2.56,0,0,0,143.67,217.55Z"/><path class="cls-4" d="M157.22,217.66a3.06,3.06,0,0,0,2-.68,2.42,2.42,0,0,0,.93-1.71h2a3.86,3.86,0,0,1-.73,2,4.81,4.81,0,0,1-1.8,1.53,5.18,5.18,0,0,1-2.37.57,5.08,5.08,0,0,1-4-1.69,6.7,6.7,0,0,1-1.49-4.6v-.36a7.41,7.41,0,0,1,.67-3.2,5,5,0,0,1,1.9-2.18,5.35,5.35,0,0,1,2.92-.78,5,5,0,0,1,3.46,1.25,4.45,4.45,0,0,1,1.46,3.23h-2a2.91,2.91,0,0,0-.9-2,2.82,2.82,0,0,0-2-.77,2.93,2.93,0,0,0-2.49,1.16,5.4,5.4,0,0,0-.88,3.34v.4a5.37,5.37,0,0,0,.87,3.29A3,3,0,0,0,157.22,217.66Z"/><path class="cls-4" d="M172.12,219.16a4.69,4.69,0,0,1-.3-1.3,4.7,4.7,0,0,1-3.51,1.53,4.36,4.36,0,0,1-3-1,3.33,3.33,0,0,1-1.17-2.62,3.48,3.48,0,0,1,1.47-3,6.92,6.92,0,0,1,4.12-1.07h2.06v-1a2.37,2.37,0,0,0-.66-1.76,2.69,2.69,0,0,0-2-.66,3.07,3.07,0,0,0-1.89.57,1.67,1.67,0,0,0-.76,1.38h-2.13a2.89,2.89,0,0,1,.66-1.78,4.39,4.39,0,0,1,1.78-1.36,5.9,5.9,0,0,1,2.47-.51,4.87,4.87,0,0,1,3.34,1.07,3.84,3.84,0,0,1,1.26,2.94v5.68a7,7,0,0,0,.43,2.71v.18Zm-3.51-1.61a3.75,3.75,0,0,0,1.89-.51,3.19,3.19,0,0,0,1.29-1.34v-2.53h-1.66c-2.58,0-3.88.75-3.88,2.27a1.92,1.92,0,0,0,.66,1.55A2.58,2.58,0,0,0,168.61,217.55Z"/><path id="MEX2723" class="cls-5" d="M214.57,133.31c.41,1.34,0,3.1.1,4.47l-.78-.2-.39.58a28.09,28.09,0,0,1-.1,3.79c-1.12.92-3.09,1.5-4,2.62a7.65,7.65,0,0,0,.2,3c.41,2.49-2,4.21-2.82,6.31,1,3.77,4.55,7.78,1.26,11.46a3.07,3.07,0,0,1-1.35-2.33s-4,.57-5.44-.49c-1-.62-2-2.5-3.4-1.75a6.26,6.26,0,0,1,0,1.56l7.19,3.88a27.51,27.51,0,0,1,2.71.68l-.68,1.36c-2.24-.67-7.79-3.7-9.9-4.18-1.6-.09-4.18.27-5.63-.48l-.87-.62c-.71,0-.76-.46-1.43-.75,0,0-.93-.53-.12-1.59l1.59-2c-.48-.72-2.36-.18-2.7-.2-.15.3-1.25,1.54-1,1.16a13.06,13.06,0,0,0-2-3.11c-2.13-.68.19,4.47.19,4.47l.2.48a7.3,7.3,0,0,1-3.2.88c1.17.59,3.59-.13,4.75.48l.29,1c-3.77-1.46-7.86,1-11.74.29a3.8,3.8,0,0,0,0,.68,6.11,6.11,0,0,1-1.46.29l-1.46.3-.09.48c-.27.06-1,.87-1.07,1l-.68.29a2.8,2.8,0,0,0-2.23,1.46l.19.68a5.33,5.33,0,0,1-1.65.87v.49l-2,.29-2.42.58-.3.39-1,.49c-1.5.93-3.66.32-5,1.45a35.49,35.49,0,0,1-5.54,1.75l-.29.39a21.93,21.93,0,0,0-3.69,1.55.83.83,0,0,1-.48.29l-.68.2.09.48a16.71,16.71,0,0,0-3.39,1.75c-1.85-.16-4.23,0-6-.49l-.39.49a3.88,3.88,0,0,1-3.2.58l-.2.2a23.51,23.51,0,0,0-8.83-2.43c-1.63-1.46-4.62-1.79-6.22-3l.1-.1-.48-.87-.49.1a16.23,16.23,0,0,0-8.25-2.82c-1.46.7-4.22-.22-5.63-.78-1.1.43-2.83-.39-4-.29-.16.12-.52.39-.68.49-3-.25-5.65-2.13-8-4-1.91-1.44-5.29-2.34-7-3.89a3.55,3.55,0,0,0,1.45,0,2.89,2.89,0,0,0-1.26-.38c0-.21-.39-.39-.39-.39-.2.06-.37.32-.58.39-3.34-1.12-7.79-1.62-11-3.11,2.12-2.68,6.67-.25,7.38-4.76a11.53,11.53,0,0,0-1-1.84v-.68c.64-1.57,2.25-.49,3.4-1,.84-1.22.27-2.74-.2-4,1.06-.52,2.27.34,3.3-.49A6.59,6.59,0,0,0,86,145.25c.14-1.23.62-2.68.39-3.88a10,10,0,0,0,1.84-3.69c-.91-2.34-3-4.45-4.56-6.41-.73-.31-1.7,0-2.43-.29-.52-.59-.84-1.64-1.36-2.23a6.44,6.44,0,0,1-1.55-.78c-.43-.77.12-1.72.19-2.52-.08-.18-.29-.78-.48-.88.78-1.32-.21-2.52-1.26-3.3a2.53,2.53,0,0,1-.1-1.36l.48-.48a.6.6,0,0,0-.09-.39c-.18,0-.58-.56-.68-.68-.15-2.85,1.4-5.61,1.74-8.25l-.58-.58a6.86,6.86,0,0,0,1.17-1,3.48,3.48,0,0,0,2.13.29c1.26-.8,1.37-2.74,2.43-3.6,2.36-.14,5,.34,7.28-.38,1.2.85.27,2.94,1.55,3.88,1.78,0,3.26-1.49,4.28-2.82.33-2.05-2.08-2.64-2.63-4.27a29.24,29.24,0,0,1,3.3-5.72l.39.09c.94-.22,1.89-1.29,2.82-1.55.23,2-1.31,4.06-1.07,6.12.85,1,2.45,1.3,3.2,2.42a5,5,0,0,0,1.75,3.5c2.25,1,2.49-3,3.79-4.08a6.91,6.91,0,0,1,5.14-2c1.87.66,3.87,1.89,5.92,1.65,1.46-1,1.92-3,3.5-3.88,3.16-.75,3.62-2.42,4.66-5.34,1-1.08,2.55-2.56,2.91-4.08,0-1.38-.8-2.9-1-4.27a11.33,11.33,0,0,0,4.27,2.91c1.38.36,3.58.3,3.79,2.14.39,1.77.87,4.1,2.42,5.24,1.89.83,2.54,2.85,2.82,4.76l.29.29h.1l.39.29a1.49,1.49,0,0,1,1.06,0l.1.19a1.34,1.34,0,0,0-.1.59,1.85,1.85,0,0,0,1.85.58c.26-.21.51-.77.78-1,.9,0,1.81.32,2.71.39,1.3-.65,2.53.9,3.89.77a4.42,4.42,0,0,0,1,.49c.78,1.18,1.17,2.84,1.84,4.08-.49,2.71-3.43,4.24-4.08,6.79-.15,1.37,1,2.74,1.46,4,.8,1.5,1.93,4.91,4,5,1.24-.15,2.44-1.38,3.69-.39.24,0,.63-.43.78-.58a1.68,1.68,0,0,0,.77-.1c0-1,1.66-1.5,2.53-1.75a3.2,3.2,0,0,1,3.49-1.65v-.38l.2-.2c1.28.14,1.9-.9,2.42-1.84a2.66,2.66,0,0,1,1.07.48l.2-.19-.3-.49.2-.19c.24,0,.73-.12,1-.1l.29.29c.22.74-.25,1.66-.19,2.43a1.91,1.91,0,0,0-1.56,2c1.61,2.21,3.85,4.1,5.54,6.21,1.29.29,3,.92,2.91,2.53a.81.81,0,0,1-.29.19l-.1.19.58,2c10.48,2.29,22.86,1.58,33.69,2.72Z"/><path class="cls-1" d="M94.07,42.29a3.19,3.19,0,0,0,.53-1.36A1.53,1.53,0,0,0,94,39.62c-.42-.31-.74-.36-1.12.11l.29.08,0,.12a11.22,11.22,0,0,1-1.65-.34,3.48,3.48,0,0,0-2.58.07,8,8,0,0,1-2.47.61,5.56,5.56,0,0,0-2.64.84,1.41,1.41,0,0,0-.5.63A7.05,7.05,0,0,0,83,44.59a.88.88,0,0,1-.2.58,1.09,1.09,0,0,0-.5,1c0,.7-.43,1-.89,1.37s-.69.41-1,.64a4.27,4.27,0,0,0-.47.48h0l-1,.48h0a3.35,3.35,0,0,0-3,.34,1.34,1.34,0,0,1-.5.22c-.88.24-1.85-.18-2.71.52a3.91,3.91,0,0,1-1.73.43.65.65,0,0,1-.53-.16,3.25,3.25,0,0,0-1.32-1.22,3.61,3.61,0,0,0-1.47-.42,9,9,0,0,1-1-.11c-.28-.42-.51-.79-.76-1.15-.34-.51-.85-.94-.93-1.61A3.42,3.42,0,0,0,63.75,44a7.79,7.79,0,0,1-1.91-3.09,1,1,0,0,1,0-.63.74.74,0,0,0-.2-1,2.81,2.81,0,0,1-1.07-1.9c0-.32-.17-.63-.2-1a2.39,2.39,0,0,1,.05-.7c.06-.45.16-.9.22-1.35,0-.23,0-.47,0-.7.08-1.05.14-2.11.28-3.16A10.11,10.11,0,0,1,62,26.73a7.55,7.55,0,0,0,.5-1.59,1.27,1.27,0,0,0,0-.43,1.36,1.36,0,0,0-.51.11.46.46,0,0,1-.67-.05,1.67,1.67,0,0,0-1.24-.42,4.23,4.23,0,0,1-1.12-.25c-.64-.26-1.25-.61-1.9-.86a1,1,0,0,1-.65-.52c-.27-.58-.59-1.15-.88-1.73a1.36,1.36,0,0,1,0-.36c-.05-.42-.08-.85-.17-1.26A1.18,1.18,0,0,0,55,18.9c-.3-.32-.62-.62-.91-.94s-.6-.7-.89-1.06a1.4,1.4,0,0,1-.28-.36c-.25-.53-.46-1.09-.73-1.61a4.42,4.42,0,0,0-1.45-2.16c-.31-.2-.5-.6-.81-.79s-.45-.69-1-.7A20.29,20.29,0,0,1,46.7,11a.67.67,0,0,0-.31,0,4.68,4.68,0,0,0-.64.3,1.59,1.59,0,0,0-.57.48,6,6,0,0,0-.47,1.21,1.06,1.06,0,0,1-1.82.66c-.4-.28-.88-.45-1.31-.69a7.71,7.71,0,0,1-.77-.49,4.71,4.71,0,0,0-.45-.33,2.06,2.06,0,0,1-1.1-1.78,4.26,4.26,0,0,0-.93-2.12c-.28-.37-.82-.54-1.19-.86s-.93-.91-1.41-1.35c-.25-.23-.53-.43-.78-.65a2.62,2.62,0,0,1-.66-.67,1,1,0,0,0-1-.64c-1.34,0-2.68,0-4,0-1.15,0-1-.1-1,1,0,.47-.13.63-.61.62-2.54,0-5.08,0-7.62,0a2.57,2.57,0,0,1-.83-.12L8.77,1.84C8,1.57,8,1.56,8.18.78a4.09,4.09,0,0,0-.5,0l-6.47.58c-.52,0-.59.19-.36.67a2.8,2.8,0,0,0,.3.46L1.44,3a3,3,0,0,0,.34.57c.28.31.51.6.35,1.06-.1.31.06.54.29.78.4.41.87.82.75,1.52,0,.09.1.24.19.32.46.4.89.78.69,1.5,0,.15.13.52.22.53.46,0,.51.33.49.65a2.44,2.44,0,0,0,.52,1.65,7.29,7.29,0,0,0,1.65,1.16,4.11,4.11,0,0,1,.73.46c.82.86,1.61,1.74,2.39,2.63a.49.49,0,0,1,.09.39c-.14.53,0,1.14-.54,1.55-.06.06,0,.2-.08.31s-.22,0-.29.07a1.18,1.18,0,0,1-1.12.12,1.71,1.71,0,0,0-.5-.1,2.64,2.64,0,0,0-.46.13,2.59,2.59,0,0,0,.3.48c.51.5,1.33.7,1.47,1.56a.28.28,0,0,0,.16.16,7.17,7.17,0,0,0,1.36.73,1.36,1.36,0,0,1,.78.58c.19.27.4.56.82.19s1,.05,1.2.38a3,3,0,0,0,.43.52c.59.71,1.61.82,2.15,1.64a3.36,3.36,0,0,1,.33,2.66c-.22.49-.36,1-.56,1.61a5.24,5.24,0,0,0,.71.1c.39,0,.69.12.74.58l-.39.23.81.64.12-.1-.18-.57a.85.85,0,0,1,.27.13c1,.9,2.33,1.51,3.18,2.64a.89.89,0,0,0,.35.21,1.75,1.75,0,0,1,1,1.35,5.7,5.7,0,0,0,.22.81c.21.49.53.55.95.23.24-.19.5-.36.76-.53a1.15,1.15,0,0,0,0-1.86,1.14,1.14,0,0,1-.37-.49,6.73,6.73,0,0,0-.43-.94,3.48,3.48,0,0,0-.73-.57l-.8-.64-.12.07.1.79h0l-.45-.21a1.37,1.37,0,0,1-.66-1.56A1,1,0,0,0,20.46,28,5.64,5.64,0,0,1,19.9,27a3.45,3.45,0,0,0-.39-.82,2.24,2.24,0,0,1-.78-1.7.92.92,0,0,0-.07-.4c-.19-.53-.39-1.05-.59-1.57s-.47-1-1.14-1c-.09,0-.26-.25-.24-.35.06-.34-.09-.48-.37-.6-.12,0-.17-.23-.27-.35-.34-.41-.31-1.11-1-1.31a1.17,1.17,0,0,1-.81-1.09c-.08-.52-.18-1-.31-1.55,0-.13-.25-.22-.37-.33s-.4-.24-.43-.39c-.12-.75-.73-1-1.25-1.32a3.79,3.79,0,0,0-1-1.77c-.62-.6-1.46-.93-2-1.67a2.3,2.3,0,0,1-.48-1.27c0-.69-.13-1.38-.2-2.07a.45.45,0,0,0-.12-.25C7.5,6.48,7.81,5.65,8,4.87c.1-.49.46-.54.87-.24a3.27,3.27,0,0,0,.78.51,1.92,1.92,0,0,0,.83.06c.14,0,.3-.22.42-.19s.45.17.49.32c.18.68.72.73,1.28.88s.71.33.52.89a1.8,1.8,0,0,0,.43,1.77,2.27,2.27,0,0,1,.55,1.19c0,.85.58,1.37.91,2,.1.2.12.43.21.63a1,1,0,0,0,.27.35.91.91,0,0,0,.3.13l.08.13c-1.19-.14-.84.79-1.14,1.37.29.12.58.34.79.28s.37-.38.61-.65c.18.24.36.5.55.74s.53.88.91,1.09a2.87,2.87,0,0,1,1,1,3.31,3.31,0,0,0,.77.72,2.35,2.35,0,0,0,.65.27c.18-.07.42-.14.55-.05a.82.82,0,0,1,.21.51c0,.21-.06.46,0,.64s.39.58.54.89a.94.94,0,0,0,.86.63c.63,0,.75.35.84.85a.7.7,0,0,0,.91.64.78.78,0,0,1,.9.55,1.63,1.63,0,0,1,0,.95,2.17,2.17,0,0,1-.32.57,1.08,1.08,0,0,0,.21,1.21,4.61,4.61,0,0,1,.6.47,1.44,1.44,0,0,0,1.31.66.57.57,0,0,1,.21.1l.75.46,1,.56-.07.12L28,27.64a3.36,3.36,0,0,0,2.46,2.3c-.37.38,0,.52.2.71s.42.31.62.49a10.65,10.65,0,0,1,1,.93c.34.39.64.83,1,1.25.09.12.19.23.29.35a17,17,0,0,0,1.52,1.75,3.09,3.09,0,0,1,1.06,2.2,3,3,0,0,0,.25,1c.25.54.49,1.12,1.11,1.28a4.52,4.52,0,0,0,0,.68,1,1,0,0,1-.34,1,5.46,5.46,0,0,0-.57.78,3,3,0,0,1,.47.12c.13.08.24.19.36.28-.1.1-.18.24-.3.3a4.71,4.71,0,0,1-.54.12c-.48.12-.57.37-.28.77a2.67,2.67,0,0,1,.22.41,6.86,6.86,0,0,0,.45.95,14.44,14.44,0,0,0,1,1.3,2.51,2.51,0,0,0,.67.67,17.49,17.49,0,0,1,2.86,1.46A12.72,12.72,0,0,1,42.68,50a2,2,0,0,0,.62.5,17.32,17.32,0,0,0,1.71.6c.58.18,1.17.34,1.75.5a.36.36,0,0,0,.27,0c.49-.29.79,0,1.1.31a10.27,10.27,0,0,0,.77.71c.48.37,1,.71,1.47,1a2.14,2.14,0,0,0,.45.24c.57.21,1.15.38,1.71.61s1.09.52,1.65.76a7.35,7.35,0,0,0,1,.38c1,.29,2.08.22,2.84,1.09a1.45,1.45,0,0,0,.45.22c.57.25,1.13.51,1.7.74a5.36,5.36,0,0,0,.78.23,6,6,0,0,1,1.83.47,3.12,3.12,0,0,0,2.54.41,13.5,13.5,0,0,0,1.82-.72c.37-.17.71-.4,1.08-.58a6.49,6.49,0,0,1,.74-.26l.58-.18-.4-.28.26-.2.79.25-.22.23,1.9.63c1.64.53,2.69,1.85,3.91,2.94.65.57,1.24,1.19,1.86,1.79l.09,0c.08-.69.57-1.33.2-2.07a.74.74,0,0,1,0-.56c.3-.57.66-1.1,1-1.67a.78.78,0,0,1,.81-.48c1,0,2,0,3,0,.16,0,.41-.11.45-.23a5.15,5.15,0,0,0,.12-1s0,0-.07,0c-.42-.13-.6-.48-.8-.84a.82.82,0,0,0-.4-.36,4.22,4.22,0,0,1-1.53-1.35c1.06-.07,1.06-.07,1.06-1.13a.33.33,0,0,0,0-.1c-.07-.48.15-.61.62-.61,1.49,0,3,0,4.49,0,.22,0,.47.06.53-.29s.29-.3.5-.15.43.12.57-.11c.24-.39.45-.8.67-1.19-.11.14-.25.28-.35.43.1-.15.24-.29.35-.43h0l0,0h0c.14-.14.29-.41.43-.4.47,0,.66-.25.83-.6a4.94,4.94,0,0,1,.3-.49l.12,0a2.88,2.88,0,0,1-.1.51c-.12.27-.1.47.18.62a2.69,2.69,0,0,1,.33.26l.06.06h0c.13.4.24.1.28,0,.16-.43.29-.88.43-1.32.18-.62.36-1.24.55-1.91H91.8c.35-.24.82-.23.74-.74l-.78-.14a3.78,3.78,0,0,0,.66-1.17,3.3,3.3,0,0,1,1.08-2A2.72,2.72,0,0,0,94.07,42.29Z"/><path class="cls-1" d="M93.71,43.65a.29.29,0,0,0,.12.23.25.25,0,0,0,.24-.06c.21-.27.4-.56.64-.9C94,42.82,93.65,43.12,93.71,43.65Z"/><path id="MEX2723-2" data-name="MEX2723" class="cls-6" d="M72.57,54.28a2.24,2.24,0,0,1,0,.45l-.08,0,0,.06c0,.12,0,.26,0,.38s-.31.15-.4.27a.61.61,0,0,0,0,.3c0,.25-.2.42-.29.64.1.38.46.78.13,1.15a.31.31,0,0,1-.14-.23s-.4.06-.55-.05-.2-.25-.34-.18a.43.43,0,0,1,0,.16l.73.39.27.07-.07.14c-.22-.07-.78-.38-1-.42a1.81,1.81,0,0,1-.57,0l-.08-.07c-.08,0-.08,0-.15-.07s-.09-.05,0-.16l.16-.2c0-.07-.24,0-.27,0s-.13.15-.11.11a1.56,1.56,0,0,0-.2-.31c-.22-.07,0,.45,0,.45l0,0a.78.78,0,0,1-.33.09c.12.06.37,0,.48,0l0,.1c-.38-.15-.79.09-1.18,0,0,0,0,0,0,.06a.49.49,0,0,1-.15,0l-.15,0v.05l-.1.1-.07,0a.28.28,0,0,0-.23.15l0,.07c-.05,0-.11.08-.17.08v0l-.2,0-.25.06,0,0-.09,0c-.15.09-.37,0-.51.15a3.27,3.27,0,0,1-.56.17l0,0a2.06,2.06,0,0,0-.37.16l0,0-.07,0v.05a1.54,1.54,0,0,0-.34.17,2.47,2.47,0,0,1-.61,0l0,0a.37.37,0,0,1-.32.06l0,0a2.36,2.36,0,0,0-.9-.24c-.16-.15-.46-.18-.62-.31h0l-.05-.09h0a1.65,1.65,0,0,0-.83-.28.87.87,0,0,1-.57-.08c-.11,0-.29,0-.4,0l-.07,0a1.52,1.52,0,0,1-.81-.4c-.19-.15-.53-.24-.7-.39h.15a.33.33,0,0,0-.13,0l0,0-.06,0c-.34-.12-.79-.17-1.11-.32.22-.27.68,0,.75-.48a1.62,1.62,0,0,0-.1-.18v-.07c.06-.16.23,0,.34-.1s0-.27,0-.4c.11,0,.23,0,.34,0a.59.59,0,0,0,.18-.2,1.29,1.29,0,0,0,0-.39,1.09,1.09,0,0,0,.19-.37,3,3,0,0,0-.46-.65c-.08,0-.17,0-.25,0s-.08-.16-.14-.22a.44.44,0,0,1-.15-.08c0-.08,0-.17,0-.25s0-.08-.05-.09,0-.26-.13-.34a.2.2,0,0,1,0-.13l.05,0a.06.06,0,0,0,0,0s-.06-.06-.07-.07a4.36,4.36,0,0,1,.18-.83l-.06-.06.12-.1a.31.31,0,0,0,.21,0c.13-.08.14-.28.25-.36a3.54,3.54,0,0,0,.73,0c.12.08,0,.3.16.39a.6.6,0,0,0,.43-.28c0-.21-.21-.27-.26-.44a3.25,3.25,0,0,1,.33-.57h0c.09,0,.19-.13.28-.16,0,.21-.13.41-.11.62s.25.13.33.24a.51.51,0,0,0,.17.35c.23.11.26-.3.39-.41a.67.67,0,0,1,.52-.2,1.37,1.37,0,0,0,.59.16c.15-.09.2-.3.36-.39.32-.07.36-.24.47-.54a1.18,1.18,0,0,0,.29-.41,3.34,3.34,0,0,0-.1-.43,1,1,0,0,0,.43.29c.14,0,.37,0,.39.22a.87.87,0,0,0,.24.53.58.58,0,0,1,.29.48l0,0h0l0,0a.14.14,0,0,1,.11,0v0s0,0,0,.06a.22.22,0,0,0,.19.06.39.39,0,0,1,.08-.1A2.51,2.51,0,0,1,66,51c.13-.07.26.09.39.07a.24.24,0,0,0,.1.05c.08.12.12.29.19.42s-.35.42-.41.68.1.28.14.4.2.5.4.51.25-.14.38,0,.06,0,.07-.06a.08.08,0,0,0,.08,0c0-.1.17-.15.26-.17a.32.32,0,0,1,.35-.17v0l0,0c.13,0,.19-.09.25-.18a.16.16,0,0,1,.1,0l0,0,0,0,0,0h.1l0,0c0,.07,0,.16,0,.24a.21.21,0,0,0-.16.21c.17.22.39.41.56.63.13,0,.31.09.3.25l0,0v0l.06.2a31.38,31.38,0,0,0,3.4.28Z"/></g></svg>