<?xml version="1.0" encoding="UTF-8"?><svg id="estados" xmlns="http://www.w3.org/2000/svg" viewBox="0 0 306.04 276.52"><defs><style>.cls-1,.cls-2{fill:#3bb1e6;}.cls-3{fill:#fff;}.cls-2{stroke-linecap:round;stroke-linejoin:round;stroke-width:1.32px;}.cls-2,.cls-4,.cls-5{stroke:#fff;}.cls-4{stroke-width:1.53px;}.cls-4,.cls-5{fill:none;opacity:.67;stroke-miterlimit:10;}.cls-6{fill:#0a2f3a;opacity:.5;}.cls-5{stroke-width:1.67px;}</style></defs><g id="oax-icono"><circle class="cls-6" cx="136.96" cy="151.48" r="97.03"/><circle class="cls-5" cx="136.96" cy="151.48" r="104.09"/><polyline class="cls-4" points="229.53 104.17 271.63 73.79 306.09 73.79"/><polyline class="cls-4" points="229.02 199.66 271.63 220.23 306.09 220.23"/><polyline class="cls-4" points="240.77 150.49 271.63 150.49 306.09 150.49"/><g><path class="cls-1" d="M112.3,211.39c0,1.63-.27,3.05-.82,4.26-.55,1.21-1.32,2.14-2.33,2.78-1,.64-2.18,.96-3.51,.96s-2.47-.32-3.48-.96c-1.01-.64-1.8-1.56-2.36-2.75-.56-1.19-.85-2.57-.86-4.14v-1.2c0-1.6,.28-3.01,.83-4.23,.56-1.23,1.34-2.16,2.36-2.81s2.18-.98,3.49-.98,2.5,.32,3.52,.96c1.02,.64,1.8,1.57,2.34,2.8,.55,1.22,.82,2.64,.82,4.26v1.05Zm-2.18-1.07c0-1.97-.4-3.48-1.19-4.54-.79-1.05-1.9-1.58-3.32-1.58s-2.47,.53-3.27,1.58c-.8,1.05-1.2,2.52-1.23,4.39v1.22c0,1.91,.4,3.41,1.2,4.5s1.91,1.64,3.32,1.64,2.51-.52,3.29-1.55c.78-1.03,1.18-2.51,1.2-4.43v-1.23Z"/><path class="cls-1" d="M122.88,219.16c-.12-.24-.22-.68-.3-1.3-.98,1.02-2.15,1.53-3.51,1.53-1.22,0-2.22-.34-3-1.03-.78-.69-1.17-1.56-1.17-2.62,0-1.29,.49-2.28,1.47-3,.98-.71,2.35-1.07,4.13-1.07h2.05v-.97c0-.74-.22-1.33-.66-1.76-.44-.44-1.09-.66-1.95-.66-.75,0-1.38,.19-1.89,.57-.51,.38-.76,.84-.76,1.38h-2.12c0-.62,.22-1.21,.66-1.79,.44-.57,1.03-1.03,1.78-1.36,.75-.33,1.57-.5,2.47-.5,1.42,0,2.54,.36,3.34,1.07,.81,.71,1.22,1.69,1.26,2.94v5.68c0,1.13,.14,2.04,.43,2.71v.18h-2.21Zm-3.5-1.61c.66,0,1.29-.17,1.88-.51,.59-.34,1.02-.79,1.29-1.33v-2.53h-1.65c-2.59,0-3.88,.76-3.88,2.27,0,.66,.22,1.18,.66,1.55,.44,.37,1.01,.56,1.7,.56Z"/><path class="cls-1" d="M132.11,211.32l2.74-4.51h2.46l-4.04,6.11,4.17,6.24h-2.44l-2.85-4.62-2.85,4.62h-2.45l4.17-6.24-4.04-6.11h2.44l2.7,4.51Z"/><path class="cls-1" d="M147.17,219.16c-.12-.24-.22-.68-.3-1.3-.98,1.02-2.15,1.53-3.51,1.53-1.22,0-2.22-.34-3-1.03-.78-.69-1.17-1.56-1.17-2.62,0-1.29,.49-2.28,1.47-3,.98-.71,2.35-1.07,4.13-1.07h2.05v-.97c0-.74-.22-1.33-.66-1.76-.44-.44-1.09-.66-1.95-.66-.75,0-1.38,.19-1.89,.57-.51,.38-.76,.84-.76,1.38h-2.12c0-.62,.22-1.21,.66-1.79,.44-.57,1.03-1.03,1.78-1.36,.75-.33,1.57-.5,2.47-.5,1.42,0,2.54,.36,3.34,1.07,.81,.71,1.22,1.69,1.26,2.94v5.68c0,1.13,.14,2.04,.43,2.71v.18h-2.21Zm-3.5-1.61c.66,0,1.29-.17,1.88-.51,.59-.34,1.02-.79,1.29-1.33v-2.53h-1.65c-2.59,0-3.88,.76-3.88,2.27,0,.66,.22,1.18,.66,1.55,.44,.37,1.01,.56,1.7,.56Z"/><path class="cls-1" d="M157.22,217.66c.75,0,1.41-.23,1.97-.68,.56-.46,.87-1.03,.94-1.71h2c-.04,.71-.28,1.38-.73,2.02-.45,.64-1.05,1.15-1.8,1.53-.75,.38-1.54,.57-2.38,.57-1.68,0-3.02-.56-4.01-1.68-.99-1.12-1.49-2.66-1.49-4.6v-.35c0-1.2,.22-2.27,.66-3.21s1.07-1.66,1.9-2.18c.83-.52,1.8-.78,2.93-.78,1.38,0,2.54,.41,3.45,1.24,.92,.83,1.41,1.91,1.47,3.23h-2c-.06-.8-.36-1.46-.91-1.97-.54-.51-1.22-.77-2.01-.77-1.07,0-1.9,.39-2.49,1.16-.59,.77-.88,1.89-.88,3.35v.4c0,1.42,.29,2.52,.88,3.29,.59,.77,1.42,1.15,2.51,1.15Z"/><path class="cls-1" d="M172.12,219.16c-.12-.24-.22-.68-.3-1.3-.98,1.02-2.15,1.53-3.51,1.53-1.22,0-2.22-.34-3-1.03-.78-.69-1.17-1.56-1.17-2.62,0-1.29,.49-2.28,1.47-3,.98-.71,2.35-1.07,4.13-1.07h2.05v-.97c0-.74-.22-1.33-.66-1.76-.44-.44-1.09-.66-1.95-.66-.75,0-1.38,.19-1.89,.57-.51,.38-.76,.84-.76,1.38h-2.12c0-.62,.22-1.21,.66-1.79,.44-.57,1.03-1.03,1.78-1.36,.75-.33,1.57-.5,2.47-.5,1.42,0,2.54,.36,3.34,1.07,.81,.71,1.22,1.69,1.26,2.94v5.68c0,1.13,.14,2.04,.43,2.71v.18h-2.21Zm-3.5-1.61c.66,0,1.29-.17,1.88-.51,.59-.34,1.02-.79,1.29-1.33v-2.53h-1.65c-2.59,0-3.88,.76-3.88,2.27,0,.66,.22,1.18,.66,1.55,.44,.37,1.01,.56,1.7,.56Z"/></g><path id="MEX2723" class="cls-2" d="M214.57,133.31c.41,1.34,.02,3.1,.1,4.47l-.78-.19-.39,.58c-.06,1.19,.13,2.62-.1,3.79-1.12,.92-3.09,1.5-3.98,2.62-.27,.95,.06,2.07,.19,3.01,.42,2.49-1.97,4.21-2.82,6.31,1.01,3.77,4.55,7.78,1.26,11.46-.78-.49-1.3-1.41-1.36-2.33,0,0-3.95,.57-5.44-.49-1.04-.62-2-2.5-3.4-1.75-.03,.47,.16,1.09,0,1.55l7.18,3.88c.44,.1,2.34,.51,2.72,.68l-.68,1.36c-2.24-.67-7.79-3.7-9.9-4.17-1.6-.09-4.18,.27-5.63-.48l-.88-.62c-.71-.02-.76-.46-1.43-.75,0,0-.93-.53-.12-1.59l1.59-1.98c-.48-.71-2.36-.18-2.7-.2-.15,.3-1.25,1.54-1.03,1.16-.12-.29-1.33-2.56-2.04-3.11-2.13-.68,.19,4.47,.19,4.47l.19,.49c-.85,.54-2.21,.83-3.2,.87,1.18,.6,3.6-.13,4.76,.49l.29,.97c-3.77-1.46-7.86,.94-11.75,.29,0,0-.03,.56,0,.68-.19,.16-1.46,.29-1.46,.29l-1.46,.29-.1,.49c-.27,.06-.98,.87-1.07,.97l-.68,.29c-.93,0-1.78,.7-2.23,1.46l.19,.68c-.48,.26-1.06,.81-1.65,.87v.49l-2.04,.29-2.43,.58-.29,.39-.97,.49c-1.5,.93-3.67,.32-5.05,1.46,0,0-3.75,1.5-5.53,1.75l-.29,.39c-1.29,.28-2.53,1.06-3.69,1.55-.09,.13-.33,.27-.49,.29l-.68,.19,.1,.49c-.75,.32-2.82,1.19-3.4,1.75-1.84-.16-4.22,.04-6.02-.49l-.39,.49c-1.03,.52-2.01,1-3.2,.58l-.19,.19c-2.54-1.18-5.98-2.4-8.83-2.43-1.63-1.45-4.62-1.78-6.21-3.01l.1-.1-.49-.87-.49,.1c-2.38-1.69-5.34-2.62-8.25-2.82-1.46,.7-4.22-.22-5.63-.78-1.1,.43-2.83-.39-3.98-.29-.16,.12-.51,.38-.68,.49-3.04-.24-5.65-2.13-7.96-3.98-1.91-1.44-5.29-2.34-6.99-3.88,.61,.18,1.46,0,1.46,0-.28-.2-.92-.38-1.26-.39-.04-.21-.39-.39-.39-.39-.21,.06-.38,.32-.58,.39-3.34-1.12-7.79-1.62-10.97-3.11,2.12-2.68,6.67-.25,7.38-4.76-.19-.48-.67-1.43-.97-1.84v-.68c.64-1.57,2.25-.49,3.4-.97,.85-1.22,.27-2.74-.19-3.98,1.06-.52,2.27,.34,3.3-.49,.73-.43,1.37-1.24,1.84-1.94,.14-1.23,.62-2.68,.39-3.88,.72-1.17,1.64-2.27,1.84-3.69-.91-2.34-3.01-4.45-4.56-6.41-.73-.31-1.69,.02-2.43-.29-.52-.59-.84-1.64-1.36-2.23-.32-.13-1.33-.51-1.55-.78-.42-.78,.12-1.73,.19-2.52-.08-.18-.3-.78-.49-.87,.79-1.32-.21-2.52-1.26-3.3-.06-.4-.28-.96-.1-1.36,.11-.11,.37-.37,.49-.49,.02-.11-.03-.3-.1-.39-.17,0-.58-.56-.68-.68-.15-2.85,1.4-5.61,1.75-8.25l-.58-.58c.32-.2,.93-.68,1.16-.97,.6,.28,1.47,.46,2.14,.29,1.26-.79,1.37-2.74,2.43-3.59,2.36-.14,4.96,.33,7.28-.39,1.2,.86,.27,2.95,1.55,3.88,1.78-.03,3.25-1.49,4.27-2.82,.34-2.06-2.08-2.65-2.62-4.27,.89-1.95,1.99-4.05,3.3-5.73l.39,.1c.94-.22,1.89-1.29,2.82-1.55,.23,2.05-1.31,4.06-1.07,6.12,.85,1.05,2.45,1.31,3.2,2.43,.07,1.31,.7,2.67,1.75,3.49,2.25,1.04,2.48-2.99,3.79-4.08,1.23-1.21,3.39-2.28,5.14-2.04,1.86,.66,3.87,1.89,5.92,1.65,1.46-.96,1.91-3.01,3.49-3.88,3.16-.75,3.62-2.42,4.66-5.34,1.04-1.08,2.55-2.56,2.91-4.08-.03-1.39-.8-2.9-.97-4.27,1.18,1.15,2.65,2.43,4.27,2.91,1.38,.36,3.58,.3,3.79,2.14,.39,1.78,.87,4.1,2.43,5.24,1.88,.83,2.54,2.85,2.82,4.76l.29,.29h.1l.39,.29c.31-.11,.77-.15,1.07,0l.1,.19c-.07,.14-.12,.43-.1,.58,.4,.51,1.23,.78,1.84,.58,.26-.2,.52-.77,.78-.97,.9,.03,1.82,.32,2.72,.39,1.3-.65,2.52,.9,3.88,.78,.22,.15,.71,.41,.97,.49,.78,1.18,1.18,2.84,1.84,4.08-.49,2.71-3.43,4.24-4.08,6.8-.15,1.37,1.01,2.74,1.46,3.98,.8,1.5,1.92,4.91,3.98,5.05,1.24-.15,2.43-1.37,3.69-.39,.24,0,.63-.43,.78-.58,.23,0,.56,.01,.78-.1-.01-1.06,1.66-1.5,2.52-1.75,.68-1.35,2.04-1.85,3.49-1.65v-.39l.19-.19c1.28,.13,1.9-.91,2.43-1.84,.35,.05,.79,.27,1.07,.49l.19-.19-.29-.49,.19-.19c.24,.03,.73-.12,.97-.1l.29,.29c.22,.74-.25,1.66-.19,2.43-1.07,.21-1.51,1.02-1.55,2.04,1.61,2.21,3.85,4.11,5.53,6.21,1.29,.29,3.01,.92,2.91,2.52-.04,.07-.22,.16-.29,.19l-.1,.19,.58,2.04c10.47,2.29,22.86,1.57,33.69,2.72h0Z"/><g><g><path class="cls-3" d="M94.07,42.29c.23-.43,.53-.9,.53-1.36,0-.45-.13-.96-.61-1.31-.43-.31-.75-.37-1.12,.1,.1,.03,.19,.06,.29,.09,0,.04-.02,.08-.02,.11-.55-.11-1.12-.15-1.65-.33-.89-.32-1.78-.27-2.58,.07-.81,.34-1.62,.54-2.47,.61-.95,.09-1.84,.3-2.64,.83-.21,.14-.4,.39-.5,.63-.4,.91-.32,1.89-.33,2.86,0,.2-.06,.48-.2,.57-.39,.26-.52,.65-.49,1.05,.04,.7-.43,1.02-.89,1.36-.32,.24-.7,.41-1.03,.64-.18,.13-.31,.32-.46,.48h0s0,0,0,0c-.34,.16-.68,.31-1.01,.47,0,0,0,0-.01,0,0,0,0,0,0,0-.73-.39-2.31-.19-2.94,.35-.13,.11-.32,.16-.5,.21-.88,.25-1.86-.18-2.72,.52-.42,.34-1.14,.33-1.73,.43-.16,.03-.43-.04-.52-.16-.38-.47-.67-.95-1.32-1.22-.49-.2-.93-.43-1.48-.42-.38,0-.76-.07-1.03-.1-.28-.42-.52-.79-.76-1.15-.35-.52-.85-.94-.93-1.61-.1-.86-.61-1.52-1.19-2.07-.91-.88-1.49-1.93-1.91-3.09-.07-.18-.04-.44,.03-.63,.17-.4,.19-.71-.2-1.02-.6-.48-.98-1.11-1.07-1.9-.04-.32-.17-.63-.21-.96-.03-.23,.02-.47,.05-.7,.07-.45,.16-.9,.22-1.35,.03-.23-.04-.47-.02-.7,.08-1.06,.14-2.12,.28-3.16,.18-1.28,.42-2.54,1.07-3.7,.27-.47,.36-1.05,.51-1.59,.04-.13-.02-.29-.03-.43-.17,.03-.38,.02-.51,.11-.26,.19-.49,.14-.67-.05-.34-.38-.78-.38-1.24-.42-.38-.03-.77-.1-1.12-.25-.65-.26-1.25-.62-1.9-.86-.29-.11-.51-.22-.64-.51-.28-.59-.6-1.15-.88-1.73-.05-.1-.03-.24-.05-.36-.05-.42-.08-.85-.18-1.27-.04-.17-.21-.33-.34-.47-.3-.32-.61-.62-.9-.94-.31-.34-.6-.7-.89-1.05-.1-.12-.22-.23-.28-.36-.25-.53-.46-1.09-.72-1.61-.39-.78-.62-1.66-1.45-2.16-.31-.19-.5-.6-.81-.79-.34-.21-.45-.69-.98-.69-.73-.01-1.46-.16-2.2-.25-.1-.01-.21,0-.3,.04-.22,.09-.44,.18-.64,.3-.21,.13-.46,.27-.57,.48-.21,.38-.35,.8-.47,1.21-.28,.99-1.01,1.24-1.83,.66-.4-.28-.87-.45-1.3-.69-.27-.15-.52-.32-.78-.49-.15-.1-.28-.25-.44-.33-.75-.36-1.03-1.07-1.1-1.78-.08-.84-.48-1.5-.93-2.12-.27-.38-.82-.54-1.19-.86-.49-.42-.93-.91-1.41-1.35-.25-.23-.53-.43-.78-.65-.23-.21-.53-.4-.66-.67-.22-.47-.54-.64-1.03-.63-1.34,0-2.68,0-4.02,0-1.15,0-1-.11-.99,1,0,.47-.14,.62-.61,.62-2.54-.02-5.08,0-7.63-.01-.28,0-.57-.03-.83-.12-3.48-1.25-6.95-2.52-10.42-3.79-.74-.27-.74-.28-.59-1.06-.18,0-.34-.01-.5,0-2.16,.19-4.31,.38-6.47,.58-.52,.05-.59,.19-.36,.68,.08,.17,.21,.31,.3,.46,.1,.17,.2,.34,.3,.51,.11,.19,.19,.42,.34,.58,.28,.31,.51,.6,.35,1.06-.1,.31,.06,.54,.29,.77,.4,.42,.87,.82,.75,1.52-.02,.09,.1,.24,.19,.32,.45,.4,.89,.78,.68,1.5-.04,.15,.13,.53,.22,.53,.46,.03,.51,.33,.49,.65-.04,.63,.18,1.23,.52,1.65,.42,.5,1.09,.79,1.65,1.16,.24,.16,.54,.26,.73,.46,.82,.86,1.61,1.74,2.39,2.63,.08,.09,.11,.27,.08,.39-.14,.53-.03,1.15-.53,1.56-.07,.05-.06,.2-.08,.3-.1,.02-.22,.02-.3,.07-.35,.26-.72,.24-1.11,.12-.16-.05-.33-.1-.5-.09-.16,0-.31,.09-.47,.13,.1,.16,.18,.35,.31,.47,.51,.5,1.33,.7,1.46,1.56,0,.06,.1,.12,.16,.16,.45,.25,.88,.58,1.36,.72,.37,.11,.57,.3,.78,.59,.19,.27,.41,.55,.82,.19,.28-.25,1,.05,1.2,.38,.11,.19,.28,.35,.43,.52,.59,.7,1.61,.82,2.16,1.64,.41,.62,.65,1.97,.33,2.66-.23,.49-.36,1.02-.56,1.61,.27,.04,.49,.1,.71,.1,.4,.01,.7,.12,.75,.57-.12,.07-.23,.14-.39,.23,.3,.24,.56,.44,.81,.64,.04-.03,.08-.06,.12-.09-.05-.17-.11-.35-.18-.58,.12,.06,.21,.08,.27,.13,1.03,.91,2.32,1.51,3.18,2.64,.08,.1,.23,.17,.36,.22,.63,.23,.88,.75,1.03,1.35,.07,.27,.12,.55,.22,.81,.2,.49,.53,.55,.94,.23,.25-.19,.51-.36,.76-.53,.63-.43,.6-1.45-.03-1.86-.16-.1-.27-.31-.36-.49-.16-.31-.23-.67-.43-.94-.18-.24-.48-.38-.73-.57-.27-.21-.53-.43-.8-.64-.04,.02-.08,.05-.12,.07,.03,.26,.06,.53,.09,.79,0,0,0,0,0,.01,0,0,0,0,0,0-.15-.07-.3-.15-.45-.21-.51-.22-.88-1.05-.66-1.56,.2-.46,.1-.82-.21-1.2-.23-.28-.39-.62-.56-.95-.14-.27-.19-.6-.39-.82-.44-.5-.85-.97-.79-1.69,.01-.13-.02-.28-.07-.41-.19-.52-.39-1.04-.59-1.57-.2-.53-.47-.98-1.14-.99-.09,0-.25-.24-.24-.35,.06-.34-.09-.48-.37-.6-.12-.05-.18-.23-.27-.35-.35-.42-.31-1.11-.95-1.31-.53-.17-.72-.58-.8-1.09-.08-.52-.18-1.04-.32-1.55-.04-.14-.24-.22-.37-.34-.15-.13-.4-.24-.42-.39-.12-.74-.73-.98-1.26-1.32-.19-.67-.47-1.24-1-1.77-.62-.6-1.46-.93-1.95-1.67-.27-.4-.47-.77-.48-1.27-.02-.69-.13-1.38-.2-2.07,0-.09-.05-.19-.11-.25-.68-.73-.37-1.56-.2-2.34,.11-.49,.47-.54,.88-.24,.25,.18,.49,.41,.77,.51,.25,.09,.55,.08,.83,.06,.15-.01,.31-.22,.43-.19,.18,.04,.44,.18,.48,.32,.18,.68,.72,.73,1.28,.88,.68,.18,.71,.33,.52,.89-.23,.68,.01,1.23,.42,1.77,.26,.35,.55,.79,.55,1.19,0,.85,.58,1.37,.91,2.03,.1,.2,.12,.43,.21,.63,.06,.13,.16,.26,.27,.35,.08,.07,.2,.08,.3,.12,.03,.04,.05,.09,.08,.13-1.18-.13-.84,.8-1.13,1.38,.29,.11,.57,.33,.79,.28,.22-.06,.37-.38,.6-.65,.18,.24,.36,.49,.56,.74,.29,.38,.52,.87,.91,1.08,.48,.26,.72,.64,1.01,1.04,.2,.28,.48,.51,.77,.72,.19,.14,.43,.19,.65,.28,.18-.07,.42-.14,.55-.05,.13,.08,.18,.33,.21,.51,.03,.21-.06,.46,.02,.64,.13,.32,.39,.58,.54,.89,.18,.37,.47,.63,.86,.63,.63-.01,.75,.35,.84,.85,.09,.51,.39,.74,.91,.65,.51-.1,.76,.23,.9,.55,.12,.26,.03,.64-.03,.95-.04,.2-.21,.38-.32,.57-.2,.35-.09,.98,.21,1.21,.2,.16,.43,.28,.6,.47,.35,.4,.72,.74,1.31,.67,.07,0,.14,.05,.21,.09,.25,.15,.5,.32,.75,.47,.33,.19,.66,.37,.99,.56-.02,.04-.05,.08-.07,.12-.16-.1-.31-.19-.51-.31,.35,1.03,1.37,2.23,2.46,2.29-.36,.38-.03,.53,.2,.71,.21,.17,.42,.32,.62,.49,.33,.3,.68,.59,.97,.93,.34,.39,.64,.83,.96,1.25,.09,.12,.2,.24,.3,.35,.5,.59,.94,1.24,1.51,1.75,.69,.61,.99,1.32,1.06,2.2,.03,.33,.12,.67,.25,.97,.25,.55,.49,1.13,1.1,1.28-.02,.28-.07,.48-.04,.68,.05,.39-.05,.68-.34,.96-.21,.2-.35,.47-.57,.77,.24,.06,.37,.07,.47,.13,.13,.07,.24,.18,.36,.28-.1,.1-.18,.24-.3,.3-.17,.07-.36,.07-.55,.12-.48,.12-.56,.37-.27,.77,.09,.12,.15,.27,.22,.4,.15,.32,.25,.67,.45,.95,.31,.46,.68,.88,1.04,1.3,.21,.24,.41,.53,.67,.67,.95,.49,2,.8,2.86,1.47,.46,.36,.8,.88,1.21,1.31,.18,.19,.38,.41,.62,.51,.56,.23,1.14,.41,1.72,.59,.58,.18,1.17,.34,1.75,.5,.08,.02,.2,.03,.27,0,.48-.28,.78,.02,1.09,.32,.25,.24,.5,.5,.78,.71,.48,.36,.97,.7,1.46,1.04,.14,.1,.29,.18,.45,.24,.57,.21,1.15,.39,1.72,.62,.56,.23,1.09,.52,1.64,.76,.33,.15,.67,.28,1.02,.38,.98,.28,2.08,.21,2.84,1.08,.1,.12,.3,.15,.46,.22,.56,.25,1.12,.51,1.69,.75,.25,.1,.52,.16,.78,.23,.6,.16,1.25,.1,1.83,.47,.77,.49,1.66,.65,2.55,.41,.62-.17,1.22-.46,1.82-.72,.37-.17,.72-.4,1.08-.58,.23-.11,.49-.18,.74-.26,.16-.05,.32-.1,.57-.18-.19-.13-.28-.2-.4-.28,.13-.1,.24-.18,.27-.2,.32,.1,.56,.18,.78,.25-.05,.05-.14,.15-.22,.24,.65,.21,1.27,.42,1.9,.62,1.64,.53,2.69,1.86,3.91,2.94,.65,.57,1.24,1.2,1.86,1.8,.03-.02,.08-.03,.08-.05,.08-.69,.57-1.32,.2-2.07-.07-.14-.03-.4,.06-.56,.3-.57,.65-1.1,.94-1.67,.18-.35,.41-.49,.81-.48,1,.02,2,.02,2.99,0,.16,0,.41-.11,.44-.23,.09-.31,.09-.65,.13-.97,0-.01-.05-.04-.07-.05-.42-.14-.6-.48-.8-.84-.08-.15-.25-.3-.41-.36-.66-.28-1.07-.81-1.53-1.34q1.06-.08,1.07-1.14s0-.06,0-.09c-.07-.48,.15-.61,.61-.61,1.5,.02,2.99,.01,4.49,0,.22,0,.47,.06,.54-.29,.06-.31,.29-.31,.49-.15,.25,.19,.44,.12,.57-.12,.23-.39,.45-.79,.67-1.19-.12,.15-.25,.29-.36,.44,.11-.15,.24-.29,.36-.44,0,0,0,0,0,0,0,0,.01-.01,.01-.02h0s0,0,0,0c.14-.14,.3-.41,.43-.4,.47,.02,.66-.25,.83-.6,.08-.17,.2-.32,.31-.48,.04,.02,.08,.03,.12,.05-.03,.17-.04,.35-.1,.51-.11,.27-.1,.47,.18,.62,.12,.07,.23,.17,.33,.26,.02,.02,.04,.04,.06,.06h0c.13,.4,.24,.1,.28-.03,.16-.43,.29-.88,.42-1.32,.19-.62,.36-1.24,.56-1.91h-.59c.35-.24,.82-.23,.74-.74-.28-.05-.57-.1-.78-.14,.25-.43,.61-.78,.66-1.17,.1-.83,.51-1.45,1.08-2,.2-.2,.45-.37,.58-.61Z"/><path class="cls-3" d="M93.71,43.65c0,.08,.05,.2,.12,.23,.06,.03,.2,0,.24-.06,.21-.27,.4-.56,.64-.91-.7-.1-1.06,.21-1,.74Z"/></g><path id="MEX2723-2" class="cls-1" d="M72.57,54.28c.04,.13,0,.31,0,.45l-.08-.02-.04,.06c0,.12,.01,.26,0,.38-.11,.09-.31,.15-.4,.26-.03,.1,0,.21,.02,.3,.04,.25-.2,.42-.28,.64,.1,.38,.46,.79,.13,1.16-.08-.05-.13-.14-.14-.24,0,0-.4,.06-.55-.05-.1-.06-.2-.25-.34-.18,0,.05,.02,.11,0,.16l.73,.39s.24,.05,.27,.07l-.07,.14c-.23-.07-.79-.37-1-.42-.16,0-.42,.03-.57-.05l-.09-.06c-.07,0-.08-.05-.14-.08,0,0-.09-.05-.01-.16l.16-.2c-.05-.07-.24-.02-.27-.02-.02,.03-.13,.16-.1,.12-.01-.03-.13-.26-.21-.31-.22-.07,.02,.45,.02,.45l.02,.05c-.09,.05-.22,.08-.32,.09,.12,.06,.36-.01,.48,.05l.03,.1c-.38-.15-.79,.1-1.19,.03,0,0,0,.06,0,.07-.02,.02-.15,.03-.15,.03l-.15,.03v.05s-.11,.09-.12,.1l-.07,.03c-.09,0-.18,.07-.23,.15l.02,.07s-.11,.08-.17,.09v.05l-.21,.03-.24,.06-.03,.04-.1,.05c-.15,.09-.37,.03-.51,.15,0,0-.38,.15-.56,.18l-.03,.04c-.13,.03-.26,.11-.37,.16,0,.01-.03,.03-.05,.03l-.07,.02v.05c-.07,.03-.28,.12-.33,.18-.19-.02-.43,0-.61-.05l-.04,.05c-.1,.05-.2,.1-.32,.06l-.02,.02c-.26-.12-.6-.24-.89-.24-.16-.15-.47-.18-.63-.3h0s-.05-.1-.05-.1h-.05c-.24-.16-.54-.25-.83-.27-.15,.07-.43-.02-.57-.08-.11,.04-.29-.04-.4-.03-.02,.01-.05,.04-.07,.05-.31-.02-.57-.21-.8-.4-.19-.15-.53-.24-.71-.39,.06,.02,.15,0,.15,0-.03-.02-.09-.04-.13-.04,0-.02-.04-.04-.04-.04-.02,0-.04,.03-.06,.04-.34-.11-.79-.16-1.11-.31,.21-.27,.67-.03,.74-.48-.02-.05-.07-.14-.1-.19v-.07c.06-.16,.23-.05,.34-.1,.09-.12,.03-.28-.02-.4,.11-.05,.23,.03,.33-.05,.07-.04,.14-.13,.19-.2,.01-.12,.06-.27,.04-.39,.07-.12,.17-.23,.19-.37-.09-.24-.3-.45-.46-.65-.07-.03-.17,0-.24-.03-.05-.06-.08-.17-.14-.23-.03-.01-.13-.05-.16-.08-.04-.08,.01-.17,.02-.25,0-.02-.03-.08-.05-.09,.08-.13-.02-.25-.13-.33,0-.04-.03-.1,0-.14l.05-.05s0-.03,0-.04c-.02,0-.06-.06-.07-.07-.01-.29,.14-.57,.18-.83l-.06-.06s.09-.07,.12-.1c.06,.03,.15,.05,.22,.03,.13-.08,.14-.28,.24-.36,.24-.01,.5,.03,.73-.04,.12,.09,.03,.3,.16,.39,.18,0,.33-.15,.43-.28,.03-.21-.21-.27-.26-.43,.09-.2,.2-.41,.33-.58h.04c.09-.01,.19-.12,.28-.15,.02,.21-.13,.41-.11,.62,.09,.11,.25,.13,.32,.24,0,.13,.07,.27,.18,.35,.23,.11,.25-.3,.38-.41,.12-.12,.34-.23,.52-.21,.19,.07,.39,.19,.6,.17,.15-.1,.19-.3,.35-.39,.32-.08,.37-.24,.47-.54,.11-.11,.26-.26,.29-.41,0-.14-.08-.29-.1-.43,.12,.12,.27,.25,.43,.29,.14,.04,.36,.03,.38,.22,.04,.18,.09,.41,.24,.53,.19,.08,.26,.29,.28,.48l.03,.03h0l.04,.03s.08-.02,.11,0v.02s0,.04,0,.06c.04,.05,.12,.08,.19,.06,.03-.02,.05-.08,.08-.1,.09,0,.18,.03,.27,.04,.13-.07,.25,.09,.39,.08,.02,.02,.07,.04,.1,.05,.08,.12,.12,.29,.19,.41-.05,.27-.35,.43-.41,.69-.02,.14,.1,.28,.15,.4,.08,.15,.19,.5,.4,.51,.13-.02,.25-.14,.37-.04,.02,0,.06-.04,.08-.06,.02,0,.06,0,.08,0,0-.11,.17-.15,.25-.18,.07-.14,.21-.19,.35-.17v-.04l.02-.02c.13,.01,.19-.09,.24-.19,.04,0,.08,.03,.11,.05l.02-.02-.03-.05,.02-.02s.07-.01,.1,0l.03,.03c.02,.07-.02,.17-.02,.24-.11,.02-.15,.1-.16,.21,.16,.22,.39,.41,.56,.63,.13,.03,.3,.09,.29,.25,0,0-.02,.02-.03,.02v.02s.05,.21,.05,.21c1.06,.23,2.31,.16,3.4,.27h0Z"/></g></g></svg>