<svg xmlns="http://www.w3.org/2000/svg" viewBox="0 0 306.04 276.52"><defs><style>.cls-1{fill:#fef6fc;}.cls-1,.cls-2,.cls-3{stroke:#6d4162;stroke-miterlimit:10;stroke-width:0.78px;}.cls-2,.cls-3{fill:none;}.cls-3{isolation:isolate;}.cls-4{fill:#713972;}.cls-5{fill:#b25fac;}.cls-6{fill:#f230b9;}</style></defs><g id="estados"><circle class="cls-1" cx="136.96" cy="151.48" r="97.03"/><circle class="cls-2" cx="136.96" cy="151.48" r="104.09"/><polyline class="cls-3" points="213.34 81.1 271.32 41.25 305.78 41.25"/><polyline class="cls-3" points="214.19 220.92 271.32 255.56 305.78 255.56"/><polyline class="cls-3" points="239.72 131.27 272.01 116.16 306.47 116.16"/><polyline class="cls-3" points="238.56 172.75 271 186.07 305.46 186.07"/><path class="cls-4" d="M105,212.65v6.51h-2.19V202.54h6.12a6.16,6.16,0,0,1,4.28,1.4,5.26,5.26,0,0,1,0,7.41,6.44,6.44,0,0,1-4.33,1.3Zm0-1.79h3.93a3.91,3.91,0,0,0,2.7-.83,3,3,0,0,0,.93-2.39,3.16,3.16,0,0,0-.93-2.38,3.76,3.76,0,0,0-2.57-.93H105Z"/><path class="cls-4" d="M124.81,217.94a4.51,4.51,0,0,1-3.62,1.45,3.85,3.85,0,0,1-3-1.15,5,5,0,0,1-1-3.39v-8h2.11v8c0,1.87.77,2.81,2.29,2.81a3.16,3.16,0,0,0,3.21-1.81v-9h2.12v12.35h-2Z"/><path class="cls-4" d="M135.2,219.39a5.39,5.39,0,0,1-4.09-1.65,6.12,6.12,0,0,1-1.57-4.41v-.39a7.35,7.35,0,0,1,.7-3.28,5.48,5.48,0,0,1,2-2.26,4.88,4.88,0,0,1,2.73-.82,4.63,4.63,0,0,1,3.75,1.59,6.87,6.87,0,0,1,1.33,4.54v.88h-8.36a4.38,4.38,0,0,0,1.06,2.95,3.35,3.35,0,0,0,2.6,1.12,3.67,3.67,0,0,0,1.89-.45,4.88,4.88,0,0,0,1.36-1.21l1.29,1A5.17,5.17,0,0,1,135.2,219.39Zm-.27-11.07a2.81,2.81,0,0,0-2.14.93,4.46,4.46,0,0,0-1.07,2.6h6.18v-.15a4,4,0,0,0-.87-2.5A2.63,2.63,0,0,0,134.93,208.32Z"/><path class="cls-4" d="M152.91,213.12a7.4,7.4,0,0,1-1.3,4.55,4.19,4.19,0,0,1-3.5,1.72,4.27,4.27,0,0,1-3.61-1.66l-.11,1.43h-1.94V201.63h2.11v6.54a4.29,4.29,0,0,1,3.53-1.59,4.18,4.18,0,0,1,3.53,1.7,7.56,7.56,0,0,1,1.29,4.66Zm-2.11-.24a5.65,5.65,0,0,0-.84-3.33,2.75,2.75,0,0,0-2.39-1.18,3.11,3.11,0,0,0-3,1.94v5.34a3.2,3.2,0,0,0,3,1.95,2.75,2.75,0,0,0,2.36-1.18A6.08,6.08,0,0,0,150.8,212.88Z"/><path class="cls-4" d="M157.86,219.16h-2.11V201.63h2.11Z"/><path class="cls-4" d="M168.86,219.16a4.69,4.69,0,0,1-.3-1.3,4.7,4.7,0,0,1-3.51,1.53,4.36,4.36,0,0,1-3-1,3.33,3.33,0,0,1-1.17-2.62,3.48,3.48,0,0,1,1.47-3,6.92,6.92,0,0,1,4.12-1.07h2.06v-1a2.37,2.37,0,0,0-.66-1.76,2.64,2.64,0,0,0-2-.66,3.08,3.08,0,0,0-1.9.57,1.67,1.67,0,0,0-.76,1.38h-2.13a2.89,2.89,0,0,1,.66-1.78,4.39,4.39,0,0,1,1.78-1.36,5.9,5.9,0,0,1,2.47-.51,4.87,4.87,0,0,1,3.34,1.07,3.84,3.84,0,0,1,1.26,2.94v5.68a7,7,0,0,0,.43,2.71v.18Zm-3.5-1.61a3.72,3.72,0,0,0,1.88-.51,3.19,3.19,0,0,0,1.29-1.34v-2.53h-1.66c-2.58,0-3.88.75-3.88,2.27a1.9,1.9,0,0,0,.67,1.55A2.54,2.54,0,0,0,165.36,217.55Z"/><path id="MEX2724" class="cls-5" d="M187.73,169.28c-1.39,3.9-2,6.13-6.22,7.13-2.11,1.16-2.72,3.91-4.67,5.18-2.74.32-5.42-1.31-7.91-2.2-2.33-.33-5.22,1.11-6.87,2.72-1.74,1.45-2,6.84-5.05,5.45a6.5,6.5,0,0,1-2.33-4.67c-1-1.49-3.14-1.84-4.28-3.24-.32-2.75,1.74-5.43,1.42-8.17-1.23.36-2.5,1.79-3.75,2.08l-.52-.13a38.71,38.71,0,0,0-4.41,7.65c.72,2.16,4,2.95,3.5,5.7-1.36,1.77-3.33,3.71-5.7,3.76-1.72-1.25-.47-4-2.08-5.19-3.1,1-6.57.33-9.72.52-1.41,1.14-1.56,3.74-3.24,4.8a4.67,4.67,0,0,1-2.85-.39,8.43,8.43,0,0,1-1.56,1.29c-.36-.4-2.36-2.67-2.72-3-2.73,0-6,1.24-8.55-.52-3.46-.55-7.88-2-8.3-6.09a6.38,6.38,0,0,0-3.11-.64l-.65-.39a8.12,8.12,0,0,1-.38-2.47l-.52-.13a4.9,4.9,0,0,0-1,.65,5.74,5.74,0,0,1-1.17-.91,5.14,5.14,0,0,1-.26-1.55l-1.16.13c-.28-2.14-.73-1.74-.78-4.8,1.24-1.19,3.16-1.44,4.54-2.33a5.06,5.06,0,0,0,.39-1.43,3.61,3.61,0,0,1,1.29-.77c.74-1.58,3-2,4.54-1.43,1.36.7,2.34,2.23,3.76,2.85l.77-.26c-.15-4.06-2.85-7.35-3-11.4a8.9,8.9,0,0,0,3.11.39,1.33,1.33,0,0,1,.26-.39c.33-2-2.4-2.79-1.81-4.67-.35.09-.7-.29-.91-.52,1-1,1.69-2.69,3.11-3.37a3.47,3.47,0,0,0-.77-1.29v-.91l.25-.26a1.48,1.48,0,0,0,.65.13c.87-3.68-.48-6.79.26-10.11a2.75,2.75,0,0,0,.65-.52c.12-3.89-3.14-8.37-.39-11.79a13.35,13.35,0,0,0,4.93,1,2.23,2.23,0,0,1,1.16-.64c1.18.21,1.2,1.39,1.43,2.33a7.42,7.42,0,0,1,1,2.46c2.28,1,2.47,3.51,3.88,5.19,1,.93,2.52,1.67,3.5,2.72.76.79,1,2.3,2.34,2.33a28.18,28.18,0,0,1,3.5-1.17,18.77,18.77,0,0,0,2.33-3.24c1.94.47,4,2.21,6,2.34.68-.37,1.56-1.28,2.2-1.69l.13-.77a3.12,3.12,0,0,0-1.16-1.43,3.31,3.31,0,0,1-.26-1,2.32,2.32,0,0,1,1.55-1l.26-.52a1.16,1.16,0,0,0,.39-.26c1,.21,2.31.8,3.37.65l.65-.39a6.81,6.81,0,0,0,1.3.9h1.29a7.66,7.66,0,0,0,1.95-1.55l.25-1.17-.38-.78-.78-.38c-3.93.73-3.81-5.92-8.3-2.73-.29-.49-.48-1.31-.77-1.81a1.09,1.09,0,0,1-.78-.65,1.76,1.76,0,0,1,.13-.78c.33-.16.83-.09,1.16-.26l.39-1.16c-1.33-.9-3.48-1-4.66-2.08-.7-1.34-1.91-1.67-3.24-1.94l-.26-.39.52-.78a2.84,2.84,0,0,0-1.43-3l-.39.65a3,3,0,0,1,0,1.69c-.79.44-2,.2-2.85.25-1.54-2.34-4.65-5.83-4.15-8.68a46.68,46.68,0,0,1,3-4.41c.1-2.12,1.37-3.6,2.85-4.92-.41-1.7-1-3.67-1.42-5.44l-1-.52a12.76,12.76,0,0,0-3.11,1,4.64,4.64,0,0,0-.65-.26l-.13-.38-.51-.26c-.7-1.13.71-2.4.77-3.63.91-1.06,2.67-.45,3.76-1.17.9-2.68,3.58-3.44,5.32-5.31.69-1.24,2.45-2,2.85-3.37.73-1.84,1.19-4.67-.26-6.22v-.39l.91-.39c.32-.32.26-1.41.25-1.82.19-.47.84-.69,1.3-.77l.39-.39V65.33c.13-.27.47-.8.78-.9,1.28.64,2.66.39,4,.51,2.75,1.91.53,4.65,3.11,7.39a3.83,3.83,0,0,1-.78,1v.52c1.72.47,3.86-.11,5.44,1.16.57,1,1.38,2.32,1.17,3.5-1.18,1.09-1.62,3.22-3.24,3.76l-.65-.26a10.88,10.88,0,0,0-1.56-1.94l-.38.13c-.56,1.16-1.68,1.08-2.73,1.16l-.38.39c.78,1.25,0,2.83.77,4a7.15,7.15,0,0,1-.77,2.08l.12.64c.81.8,2.17,1,2.86,2,.21.78.33,1.81,1.16,2.2a4.53,4.53,0,0,0,2.21-.65l.64.26c.7.84,0,2.34,1,3h.39a10.28,10.28,0,0,0,4.15-5.18c2.41-1.8,5-.36,6.87,1.42a43,43,0,0,0,6.09,2.6l.78,1c-1.36,3.67-5.34,5.67-6.87,9.34-.87,3.17,1.17,8-2.21,10.49h-.64c-.85,1-.75,2.66-.78,3.89.35.44,1.09.7,1.42,1.17,0,.45-.27,1,0,1.42a2.65,2.65,0,0,1,1.43,1.56c-.56,1.65-2.42.84-3.5,1.56l.26.64c.69.49,1.69.32,2.46.52.37.26.54,1,.91,1.3.64-.1,1.27-.64,1.94-.52.93.86,1.23,2.59,2.47,3.11,2.11,0,4,1.82,6.09.39a15.35,15.35,0,0,1,3.24,1.3c.17.94-1,1.21-1.3,1.94a3.24,3.24,0,0,1-3.11,1.68l-.26.78-.52.39c-1-.06-2-.94-3-.52-.9.91-2.22,1-3.37,1.3-.9,3,1.34,8.43,1.56,11.53l-.39.39a6.4,6.4,0,0,0-2,.65c-.17,1.61-2.17,2.13-2.33,3.76,0,1.7.67,4.26,2.2,5.18,1,.45,2.25-.61,3.25-.51.74.75,2,.58,2.85,1,.68.57.46,1.68.64,2.47a10.48,10.48,0,0,0,1,1.16l.13.65a8.44,8.44,0,0,0-.65,2.2l.39.65a3.22,3.22,0,0,0,1.82,0l.64.26.52-.13c2.28-2.36,6.15-2.29,9.21-3,.8,3.19.61,3.55,3,6.09Z"/><path class="cls-1" d="M94.07,42.29a3.19,3.19,0,0,0,.53-1.36A1.53,1.53,0,0,0,94,39.62c-.42-.31-.74-.36-1.12.11l.29.08,0,.12a11.22,11.22,0,0,1-1.65-.34,3.48,3.48,0,0,0-2.58.07,8,8,0,0,1-2.47.61,5.56,5.56,0,0,0-2.64.84,1.41,1.41,0,0,0-.5.63A7.05,7.05,0,0,0,83,44.59a.88.88,0,0,1-.2.58,1.09,1.09,0,0,0-.5,1c0,.7-.43,1-.89,1.37s-.69.41-1,.64a4.27,4.27,0,0,0-.47.48h0l-1,.48h0a3.35,3.35,0,0,0-3,.34,1.34,1.34,0,0,1-.5.22c-.88.24-1.85-.18-2.71.52a3.91,3.91,0,0,1-1.73.43.65.65,0,0,1-.53-.16,3.25,3.25,0,0,0-1.32-1.22,3.61,3.61,0,0,0-1.47-.42,9,9,0,0,1-1-.11c-.28-.42-.51-.79-.76-1.15-.34-.51-.85-.94-.93-1.61A3.42,3.42,0,0,0,63.75,44a7.79,7.79,0,0,1-1.91-3.09,1,1,0,0,1,0-.63.74.74,0,0,0-.2-1,2.81,2.81,0,0,1-1.07-1.9c0-.32-.17-.63-.2-1a2.39,2.39,0,0,1,.05-.7c.06-.45.16-.9.22-1.35,0-.23,0-.47,0-.7.08-1.05.14-2.11.28-3.16A10.11,10.11,0,0,1,62,26.73a7.55,7.55,0,0,0,.5-1.59,1.27,1.27,0,0,0,0-.43,1.36,1.36,0,0,0-.51.11.46.46,0,0,1-.67-.05,1.67,1.67,0,0,0-1.24-.42,4.23,4.23,0,0,1-1.12-.25c-.64-.26-1.25-.61-1.9-.86a1,1,0,0,1-.65-.52c-.27-.58-.59-1.15-.88-1.73a1.36,1.36,0,0,1,0-.36c-.05-.42-.08-.85-.17-1.26A1.18,1.18,0,0,0,55,18.9c-.3-.32-.62-.62-.91-.94s-.6-.7-.89-1.06a1.4,1.4,0,0,1-.28-.36c-.25-.53-.46-1.09-.73-1.61a4.42,4.42,0,0,0-1.45-2.16c-.31-.2-.5-.6-.81-.79s-.45-.69-1-.7A20.29,20.29,0,0,1,46.7,11a.67.67,0,0,0-.31,0,4.68,4.68,0,0,0-.64.3,1.59,1.59,0,0,0-.57.48,6,6,0,0,0-.47,1.21,1.06,1.06,0,0,1-1.82.66c-.4-.28-.88-.45-1.31-.69a7.71,7.71,0,0,1-.77-.49,4.71,4.71,0,0,0-.45-.33,2.06,2.06,0,0,1-1.1-1.78,4.26,4.26,0,0,0-.93-2.12c-.28-.37-.82-.54-1.19-.86s-.93-.91-1.41-1.35c-.25-.23-.53-.43-.78-.65a2.62,2.62,0,0,1-.66-.67,1,1,0,0,0-1-.64c-1.34,0-2.68,0-4,0-1.15,0-1-.1-1,1,0,.47-.13.63-.61.62-2.54,0-5.08,0-7.62,0a2.57,2.57,0,0,1-.83-.12L8.77,1.84C8,1.57,8,1.56,8.18.78a4.09,4.09,0,0,0-.5,0l-6.47.58c-.52,0-.59.19-.36.67a2.8,2.8,0,0,0,.3.46L1.44,3a3,3,0,0,0,.34.57c.28.31.51.6.35,1.06-.1.31.06.54.29.78.4.41.87.82.75,1.52,0,.09.1.24.19.32.46.4.89.78.69,1.5,0,.15.13.52.22.53.46,0,.51.33.49.65a2.44,2.44,0,0,0,.52,1.65,7.29,7.29,0,0,0,1.65,1.16,4.11,4.11,0,0,1,.73.46c.82.86,1.61,1.74,2.39,2.63a.49.49,0,0,1,.09.39c-.14.53,0,1.14-.54,1.55-.06.06,0,.2-.08.31s-.22,0-.29.07a1.18,1.18,0,0,1-1.12.12,1.71,1.71,0,0,0-.5-.1,2.64,2.64,0,0,0-.46.13,2.59,2.59,0,0,0,.3.48c.51.5,1.33.7,1.47,1.56a.28.28,0,0,0,.16.16,7.17,7.17,0,0,0,1.36.73,1.36,1.36,0,0,1,.78.58c.19.27.4.56.82.19s1,.05,1.2.38a3,3,0,0,0,.43.52c.59.71,1.61.82,2.15,1.64a3.36,3.36,0,0,1,.33,2.66c-.22.49-.36,1-.56,1.61a5.24,5.24,0,0,0,.71.1c.39,0,.69.12.74.58l-.39.23.81.64.12-.1-.18-.57a.85.85,0,0,1,.27.13c1,.9,2.33,1.51,3.18,2.64a.89.89,0,0,0,.35.21,1.75,1.75,0,0,1,1,1.35,5.7,5.7,0,0,0,.22.81c.21.49.53.55.95.23.24-.19.5-.36.76-.53a1.15,1.15,0,0,0,0-1.86,1.14,1.14,0,0,1-.37-.49,6.73,6.73,0,0,0-.43-.94,3.48,3.48,0,0,0-.73-.57l-.8-.64-.12.07.1.79h0l-.45-.21a1.37,1.37,0,0,1-.66-1.56A1,1,0,0,0,20.46,28,5.64,5.64,0,0,1,19.9,27a3.45,3.45,0,0,0-.39-.82,2.24,2.24,0,0,1-.78-1.7.92.92,0,0,0-.07-.4c-.19-.53-.39-1.05-.59-1.57s-.47-1-1.14-1c-.09,0-.26-.25-.24-.35.06-.34-.09-.48-.37-.6-.12,0-.17-.23-.27-.35-.34-.41-.31-1.11-1-1.31a1.17,1.17,0,0,1-.81-1.09c-.08-.52-.18-1-.31-1.55,0-.13-.25-.22-.37-.33s-.4-.24-.43-.39c-.12-.75-.73-1-1.25-1.32a3.79,3.79,0,0,0-1-1.77c-.62-.6-1.46-.93-2-1.67a2.3,2.3,0,0,1-.48-1.27c0-.69-.13-1.38-.2-2.07a.45.45,0,0,0-.12-.25C7.5,6.48,7.81,5.65,8,4.87c.1-.49.46-.54.87-.24a3.27,3.27,0,0,0,.78.51,1.92,1.92,0,0,0,.83.06c.14,0,.3-.22.42-.19s.45.17.49.32c.18.68.72.73,1.28.88s.71.33.52.89a1.8,1.8,0,0,0,.43,1.77,2.27,2.27,0,0,1,.55,1.19c0,.85.58,1.37.91,2,.1.2.12.43.21.63a1,1,0,0,0,.27.35.91.91,0,0,0,.3.13l.08.13c-1.19-.14-.84.79-1.14,1.37.29.12.58.34.79.28s.37-.38.61-.65c.18.24.36.5.55.74s.53.88.91,1.09a2.87,2.87,0,0,1,1,1,3.31,3.31,0,0,0,.77.72,2.35,2.35,0,0,0,.65.27c.18-.07.42-.14.55-.05a.82.82,0,0,1,.21.51c0,.21-.06.46,0,.64s.39.58.54.89a.94.94,0,0,0,.86.63c.63,0,.75.35.84.85a.7.7,0,0,0,.91.64.78.78,0,0,1,.9.55,1.63,1.63,0,0,1,0,.95,2.17,2.17,0,0,1-.32.57,1.08,1.08,0,0,0,.21,1.21,4.61,4.61,0,0,1,.6.47,1.44,1.44,0,0,0,1.31.66.57.57,0,0,1,.21.1l.75.46,1,.56-.07.12L28,27.64a3.36,3.36,0,0,0,2.46,2.3c-.37.38,0,.52.2.71s.42.31.62.49a10.65,10.65,0,0,1,1,.93c.34.39.64.83,1,1.25.09.12.19.23.29.35a17,17,0,0,0,1.52,1.75,3.09,3.09,0,0,1,1.06,2.2,3,3,0,0,0,.25,1c.25.54.49,1.12,1.11,1.28a4.52,4.52,0,0,0,0,.68,1,1,0,0,1-.34,1,5.46,5.46,0,0,0-.57.78,3,3,0,0,1,.47.12c.13.08.24.19.36.28-.1.1-.18.24-.3.3a4.71,4.71,0,0,1-.54.12c-.48.12-.57.37-.28.77a2.67,2.67,0,0,1,.22.41,6.86,6.86,0,0,0,.45.95,14.44,14.44,0,0,0,1,1.3,2.51,2.51,0,0,0,.67.67,17.49,17.49,0,0,1,2.86,1.46A12.72,12.72,0,0,1,42.68,50a2,2,0,0,0,.62.5,17.32,17.32,0,0,0,1.71.6c.58.18,1.17.34,1.75.5a.36.36,0,0,0,.27,0c.49-.29.79,0,1.1.31a10.27,10.27,0,0,0,.77.71c.48.37,1,.71,1.47,1a2.14,2.14,0,0,0,.45.24c.57.21,1.15.38,1.71.61s1.09.52,1.65.76a7.35,7.35,0,0,0,1,.38c1,.29,2.08.22,2.84,1.09a1.45,1.45,0,0,0,.45.22c.57.25,1.13.51,1.7.74a5.36,5.36,0,0,0,.78.23,6,6,0,0,1,1.83.47,3.12,3.12,0,0,0,2.54.41,13.5,13.5,0,0,0,1.82-.72c.37-.17.71-.4,1.08-.58a6.49,6.49,0,0,1,.74-.26l.58-.18-.4-.28.26-.2.79.25-.22.23,1.9.63c1.64.53,2.69,1.85,3.91,2.94.65.57,1.24,1.19,1.86,1.79l.09,0c.08-.69.57-1.33.2-2.07a.74.74,0,0,1,0-.56c.3-.57.66-1.1,1-1.67a.78.78,0,0,1,.81-.48c1,0,2,0,3,0,.16,0,.41-.11.45-.23a5.15,5.15,0,0,0,.12-1s0,0-.07,0c-.42-.13-.6-.48-.8-.84a.82.82,0,0,0-.4-.36,4.22,4.22,0,0,1-1.53-1.35c1.06-.07,1.06-.07,1.06-1.13a.33.33,0,0,0,0-.1c-.07-.48.15-.61.62-.61,1.49,0,3,0,4.49,0,.22,0,.47.06.53-.29s.29-.3.5-.15.43.12.57-.11c.24-.39.45-.8.67-1.19-.11.14-.25.28-.35.43.1-.15.24-.29.35-.43h0l0,0h0c.14-.14.29-.41.43-.4.47,0,.66-.25.83-.6a4.94,4.94,0,0,1,.3-.49l.12,0a2.88,2.88,0,0,1-.1.51c-.12.27-.1.47.18.62a2.69,2.69,0,0,1,.33.26l.06.06h0c.13.4.24.1.28,0,.16-.43.29-.88.43-1.32.18-.62.36-1.24.55-1.91H91.8c.35-.24.82-.23.74-.74l-.78-.14a3.78,3.78,0,0,0,.66-1.17,3.3,3.3,0,0,1,1.08-2A2.72,2.72,0,0,0,94.07,42.29Z"/><path class="cls-1" d="M93.71,43.65a.29.29,0,0,0,.12.23.25.25,0,0,0,.24-.06c.21-.27.4-.56.64-.9C94,42.82,93.65,43.12,93.71,43.65Z"/><path id="MEX2724-2" data-name="MEX2724" class="cls-6" d="M63.84,50c-.1.29-.15.46-.47.54-.16.09-.2.29-.35.39a1.43,1.43,0,0,1-.6-.17.75.75,0,0,0-.52.21c-.13.11-.15.52-.38.41a.52.52,0,0,1-.18-.35c-.07-.12-.23-.14-.32-.25s.13-.41.11-.62c-.09,0-.19.14-.29.16h0a2.59,2.59,0,0,0-.34.58c.06.16.3.22.27.43a.7.7,0,0,1-.43.29c-.13-.1,0-.31-.16-.4a2.63,2.63,0,0,1-.74,0c-.1.09-.11.29-.24.37a.53.53,0,0,1-.22,0l-.11.09s-.18-.2-.21-.22c-.21,0-.45.09-.65,0s-.59-.16-.62-.46a.49.49,0,0,0-.24,0l0,0a.58.58,0,0,1,0-.19h0l-.08,0s-.07,0-.08-.07a.22.22,0,0,1,0-.11h-.09a1.41,1.41,0,0,1-.06-.37c.09-.09.24-.11.34-.17a.23.23,0,0,0,0-.11l.1-.06a.29.29,0,0,1,.34-.11c.11.06.18.17.29.22l.06,0c0-.31-.22-.56-.23-.86a1,1,0,0,0,.24,0s0,0,0,0c0-.16-.19-.21-.14-.36,0,0,0,0-.07,0s.13-.21.23-.26a.19.19,0,0,0-.05-.1v-.07l0,0s0,0,0,0c.07-.27,0-.51,0-.76l.05,0c0-.29-.23-.63,0-.89a1,1,0,0,0,.38.08.14.14,0,0,1,.08-.05c.09,0,.1.1.11.17a.64.64,0,0,1,.08.19c.17.07.19.27.29.39a2.78,2.78,0,0,1,.27.21c.06.06.07.17.18.17a2,2,0,0,1,.26-.08,2.27,2.27,0,0,0,.18-.25c.14,0,.3.17.45.18s.12-.1.16-.13v-.06a.28.28,0,0,0-.08-.11s0-.06,0-.07a.18.18,0,0,1,.11-.08l0,0s0,0,0,0a1.19,1.19,0,0,0,.26.05l0,0,.09.07h.1a.44.44,0,0,0,.15-.12l0-.09,0-.06-.06,0c-.3.06-.29-.44-.63-.2a.84.84,0,0,0-.06-.14s0,0,0-.05,0,0,0-.06.06,0,.08,0l0-.09c-.1-.06-.26-.07-.35-.15a.3.3,0,0,0-.24-.15l0,0,0-.06a.22.22,0,0,0-.11-.22l0,0s0,.09,0,.12-.15,0-.22,0c-.11-.17-.35-.44-.31-.65a4,4,0,0,1,.22-.34.55.55,0,0,1,.22-.37c0-.13-.07-.28-.11-.41l-.08,0a.63.63,0,0,0-.23.08l0,0v0l0,0c0-.09.05-.18.06-.27s.2,0,.28-.09c.07-.21.27-.26.41-.4S60,43.1,60,43a.46.46,0,0,0,0-.47v0l.07,0s0-.11,0-.14.06,0,.1,0l0,0v-.16s0-.06.06-.07a.75.75,0,0,0,.3,0c.21.14,0,.35.23.56a.35.35,0,0,1,0,.08v0c.13,0,.29,0,.41.08a.54.54,0,0,1,.09.27c-.09.08-.13.24-.25.28l-.05,0a.53.53,0,0,0-.12-.14h0c0,.08-.12.08-.2.08l0,0c.06.1,0,.22.06.31a.94.94,0,0,1-.06.15v.05c.06.06.16.08.21.15s0,.14.09.17a.34.34,0,0,0,.17,0l.05,0c0,.06,0,.17.08.22h0a.8.8,0,0,0,.31-.39c.18-.14.38,0,.52.11a2.62,2.62,0,0,0,.46.19l.06.08c-.1.28-.4.43-.52.71s.09.61-.17.79h0a.6.6,0,0,0-.06.3s.09,0,.11.08,0,.08,0,.11a.22.22,0,0,1,.11.12c0,.12-.18.06-.26.12l0,0s.12,0,.18,0,0,.07.07.09.1,0,.15,0,.09.2.18.24.31.14.46,0a.93.93,0,0,1,.25.1c0,.07-.08.09-.1.14a.24.24,0,0,1-.23.13l0,.06,0,0c-.08,0-.15-.07-.23,0a.49.49,0,0,1-.25.1c-.07.22.1.64.11.87l0,0-.15.05c0,.12-.17.16-.18.28a.5.5,0,0,0,.17.4c.07,0,.17-.05.24,0s.15,0,.22.07,0,.13.05.19a.32.32,0,0,0,.08.09v.05a.43.43,0,0,0,0,.16l0,.05a.19.19,0,0,0,.13,0l.05,0h0c.17-.18.47-.17.7-.22a.69.69,0,0,0,.22.46Z"/></g></svg>