<?xml version="1.0" encoding="UTF-8"?><svg id="estados" xmlns="http://www.w3.org/2000/svg" viewBox="0 0 306.04 276.52"><defs><style>.cls-1,.cls-2{fill:#3bb1e6;}.cls-3{fill:#fff;}.cls-4{stroke-width:1.53px;}.cls-4,.cls-2,.cls-5{stroke:#fff;}.cls-4,.cls-5{fill:none;opacity:.67;stroke-miterlimit:10;}.cls-6{fill:#0a2f3a;opacity:.5;}.cls-2{stroke-linecap:round;stroke-linejoin:round;stroke-width:1.37px;}.cls-5{stroke-width:1.67px;}</style></defs><g id="pue-icono"><circle class="cls-6" cx="136.96" cy="151.48" r="97.03"/><circle class="cls-5" cx="136.96" cy="151.48" r="104.09"/><polyline class="cls-4" points="229.53 104.17 271.63 73.79 306.09 73.79"/><polyline class="cls-4" points="229.02 199.66 271.63 220.23 306.09 220.23"/><polyline class="cls-4" points="240.77 150.49 271.63 150.49 306.09 150.49"/><g><path class="cls-1" d="M104.97,212.65v6.5h-2.19v-16.62h6.13c1.82,0,3.24,.46,4.27,1.39,1.03,.93,1.55,2.16,1.55,3.69,0,1.61-.5,2.85-1.51,3.73s-2.45,1.31-4.33,1.31h-3.91Zm0-1.79h3.94c1.17,0,2.07-.28,2.69-.83s.94-1.35,.94-2.4-.31-1.78-.94-2.38c-.62-.59-1.48-.9-2.57-.93h-4.06v6.53Z"/><path class="cls-1" d="M124.81,217.94c-.82,.97-2.03,1.45-3.62,1.45-1.32,0-2.32-.38-3.01-1.15-.69-.76-1.04-1.9-1.04-3.39v-8.03h2.11v7.98c0,1.87,.76,2.81,2.28,2.81,1.61,0,2.69-.6,3.22-1.8v-8.98h2.11v12.35h-2.01l-.05-1.22Z"/><path class="cls-1" d="M135.2,219.39c-1.67,0-3.04-.55-4.09-1.65s-1.57-2.57-1.57-4.41v-.39c0-1.22,.23-2.32,.7-3.28,.47-.96,1.12-1.72,1.96-2.26s1.75-.82,2.73-.82c1.6,0,2.85,.53,3.74,1.59s1.34,2.57,1.34,4.54v.88h-8.36c.03,1.22,.39,2.2,1.07,2.95s1.55,1.12,2.6,1.12c.75,0,1.38-.15,1.89-.46s.97-.71,1.36-1.21l1.29,1c-1.03,1.59-2.59,2.39-4.66,2.39Zm-.26-11.07c-.85,0-1.57,.31-2.15,.93s-.94,1.49-1.07,2.61h6.18v-.16c-.06-1.07-.35-1.9-.87-2.49-.52-.59-1.22-.88-2.1-.88Z"/><path class="cls-1" d="M152.91,213.12c0,1.89-.43,3.4-1.3,4.55-.87,1.14-2.03,1.72-3.49,1.72-1.56,0-2.77-.55-3.62-1.65l-.1,1.43h-1.94v-17.53h2.11v6.54c.85-1.06,2.03-1.59,3.53-1.59s2.68,.57,3.53,1.7c.86,1.13,1.28,2.69,1.28,4.66v.18Zm-2.11-.24c0-1.44-.28-2.55-.83-3.33-.56-.78-1.35-1.18-2.4-1.18-1.39,0-2.39,.65-3,1.94v5.34c.65,1.29,1.65,1.94,3.02,1.94,1.01,0,1.8-.39,2.36-1.18,.56-.78,.84-1.96,.84-3.54Z"/><path class="cls-1" d="M157.86,219.16h-2.11v-17.53h2.11v17.53Z"/><path class="cls-1" d="M168.86,219.16c-.12-.24-.22-.68-.3-1.3-.98,1.02-2.15,1.53-3.51,1.53-1.22,0-2.22-.34-3-1.03-.78-.69-1.17-1.56-1.17-2.62,0-1.29,.49-2.28,1.47-3,.98-.71,2.35-1.07,4.13-1.07h2.05v-.97c0-.74-.22-1.33-.66-1.76-.44-.44-1.09-.66-1.95-.66-.75,0-1.38,.19-1.89,.57-.51,.38-.76,.84-.76,1.38h-2.12c0-.62,.22-1.21,.66-1.79,.44-.57,1.03-1.03,1.78-1.36,.75-.33,1.57-.5,2.47-.5,1.42,0,2.54,.36,3.34,1.07,.81,.71,1.22,1.69,1.26,2.94v5.68c0,1.13,.14,2.04,.43,2.71v.18h-2.21Zm-3.5-1.61c.66,0,1.29-.17,1.88-.51,.59-.34,1.02-.79,1.29-1.33v-2.53h-1.65c-2.59,0-3.88,.76-3.88,2.27,0,.66,.22,1.18,.66,1.55,.44,.37,1.01,.56,1.7,.56Z"/></g><path id="MEX2724" class="cls-2" d="M187.73,169.28c-1.38,3.9-2,6.13-6.22,7.13-2.11,1.16-2.72,3.91-4.67,5.18-2.74,.32-5.42-1.32-7.91-2.2-2.34-.33-5.23,1.11-6.87,2.72-1.74,1.45-2.05,6.84-5.05,5.44-1.39-1.11-2.24-2.92-2.33-4.67-1.01-1.49-3.14-1.84-4.28-3.24-.32-2.75,1.74-5.43,1.43-8.17-1.23,.35-2.51,1.78-3.76,2.07l-.52-.13c-1.75,2.24-3.22,5.05-4.41,7.65,.72,2.17,3.95,2.96,3.5,5.7-1.36,1.77-3.33,3.72-5.7,3.76-1.72-1.25-.47-4.04-2.07-5.18-3.11,.96-6.57,.33-9.72,.52-1.41,1.14-1.56,3.74-3.24,4.8-.89,.23-2.05-.01-2.85-.39-.32,.38-1.13,1.03-1.56,1.3-.36-.4-2.37-2.68-2.72-2.98-2.73,.02-5.95,1.23-8.55-.52-3.46-.56-7.88-2.04-8.3-6.09-.87-.5-2.13-.68-3.11-.65l-.65-.39c-.27-.48-.36-1.92-.39-2.46l-.52-.13c-.28,.11-.81,.45-1.04,.65-.29-.18-.96-.63-1.17-.91-.11-.45-.31-1.08-.26-1.56l-1.17,.13c-.28-2.14-.72-1.74-.78-4.8,1.24-1.19,3.16-1.45,4.54-2.33,.18-.33,.36-1.06,.39-1.43,.28-.27,.92-.69,1.3-.78,.74-1.58,3.02-2,4.54-1.43,1.36,.7,2.35,2.23,3.76,2.85l.78-.26c-.16-4.06-2.85-7.35-2.98-11.41,.86,.29,2.22,.47,3.11,.39,.04-.1,.16-.33,.26-.39,.33-2.02-2.41-2.79-1.81-4.67-.35,.09-.7-.29-.91-.52,1.04-1.04,1.69-2.69,3.11-3.37-.09-.38-.51-1.02-.78-1.3v-.91l.26-.26c.14,.06,.49,.17,.65,.13,.87-3.68-.48-6.79,.26-10.11,.17-.1,.52-.36,.65-.52,.12-3.89-3.14-8.37-.39-11.79,1.5,.5,3.32,1.17,4.93,1.04,.24-.23,.81-.65,1.17-.65,1.17,.21,1.2,1.4,1.43,2.33,.42,.76,.92,1.58,1.04,2.46,2.28,.97,2.48,3.5,3.89,5.18,1.01,.94,2.52,1.67,3.5,2.72,.75,.79,1,2.31,2.33,2.33,1.09-.36,2.35-.96,3.5-1.17,.84-.85,1.72-2.23,2.33-3.24,1.94,.47,3.96,2.2,5.96,2.33,.68-.36,1.56-1.28,2.2-1.68l.13-.78c-.13-.49-.74-1.16-1.17-1.43-.06-.18-.32-.85-.26-1.04,.29-.53,.97-.94,1.56-1.04,.06-.12,.2-.4,.26-.52,.1-.04,.33-.16,.39-.26,1.01,.21,2.31,.81,3.37,.65l.65-.39c.13,.22,1.07,.76,1.3,.91h1.3c.57-.28,1.54-1.07,1.94-1.56l.26-1.17-.39-.78-.78-.39c-3.93,.74-3.81-5.91-8.3-2.72-.3-.5-.48-1.32-.78-1.81-.34-.03-.63-.36-.78-.65-.03-.2,.04-.6,.13-.78,.33-.17,.84-.09,1.17-.26l.39-1.17c-1.33-.9-3.48-.98-4.67-2.07-.69-1.35-1.91-1.68-3.24-1.94l-.26-.39,.52-.78c.18-1.1-.35-2.52-1.43-2.98l-.39,.65c.09,.48,.24,1.23,0,1.68-.79,.44-1.98,.21-2.85,.26-1.54-2.34-4.65-5.84-4.15-8.68,.82-1.53,1.99-2.99,2.98-4.41,.09-2.12,1.36-3.6,2.85-4.93-.42-1.7-.99-3.67-1.43-5.44l-1.04-.52c-.93,.06-2.26,.72-3.11,1.04-.14-.09-.49-.21-.65-.26l-.13-.39-.52-.26c-.69-1.13,.72-2.4,.78-3.63,.91-1.06,2.67-.44,3.76-1.17,.9-2.69,3.58-3.44,5.31-5.31,.69-1.24,2.45-2,2.85-3.37,.73-1.84,1.19-4.67-.26-6.22v-.39l.91-.39c.32-.31,.27-1.41,.26-1.81,.19-.48,.83-.69,1.3-.78l.39-.39v-2.07c.13-.27,.47-.81,.78-.91,1.28,.64,2.67,.39,4.02,.52,2.75,1.9,.53,4.64,3.11,7.39-.14,.29-.52,.85-.78,1.04v.52c1.73,.48,3.86-.11,5.44,1.17,.57,.98,1.38,2.32,1.17,3.5-1.18,1.09-1.62,3.22-3.24,3.76l-.65-.26c-.32-.48-1.1-1.59-1.56-1.94l-.39,.13c-.56,1.16-1.68,1.09-2.72,1.17l-.39,.39c.79,1.25,.05,2.82,.78,4.02-.1,.61-.46,1.54-.78,2.07l.13,.65c.8,.79,2.16,1.03,2.85,1.94,.21,.78,.33,1.81,1.17,2.2,.66,.13,1.63-.39,2.2-.65l.65,.26c.69,.84,0,2.33,1.04,2.98h.39c1.99-1.06,3.28-3.18,4.15-5.18,2.41-1.8,4.97-.36,6.87,1.43,1.88,1.08,4.07,1.83,6.09,2.59l.78,1.04c-1.36,3.67-5.34,5.67-6.87,9.33-.87,3.17,1.17,8.05-2.2,10.5h-.65c-.84,.99-.74,2.66-.78,3.89,.35,.44,1.09,.7,1.43,1.17-.01,.45-.27,.98,0,1.43,.67,.22,1.18,.92,1.43,1.56-.56,1.65-2.42,.84-3.5,1.56l.26,.65c.69,.49,1.69,.31,2.46,.52,.37,.25,.54,1.04,.91,1.3,.64-.1,1.27-.64,1.94-.52,.93,.86,1.22,2.59,2.46,3.11,2.12-.04,4.03,1.82,6.09,.39,1.07,.26,2.27,.79,3.24,1.3,.17,.94-1,1.21-1.3,1.94-.98,1.39-1.54,1.56-3.11,1.69-.06,.19-.2,.59-.26,.78l-.52,.39c-.98-.06-1.97-.94-2.98-.52-.9,.91-2.23,.98-3.37,1.3-.91,2.96,1.34,8.43,1.56,11.54l-.39,.39c-.6,.09-1.42,.35-1.94,.65-.17,1.61-2.18,2.13-2.33,3.76,0,1.7,.67,4.26,2.2,5.18,1.01,.44,2.24-.61,3.24-.52,.74,.76,1.98,.59,2.85,1.04,.69,.57,.46,1.67,.65,2.46,.23,.31,.75,.91,1.04,1.17l.13,.65c-.27,.62-.58,1.52-.65,2.2l.39,.65c.52,.2,1.29,.15,1.81,0l.65,.26,.52-.13c2.28-2.36,6.14-2.29,9.2-2.98,.81,3.19,.61,3.55,2.98,6.09h0Z"/><g><g><path class="cls-3" d="M94.07,42.29c.23-.43,.53-.9,.53-1.36,0-.45-.13-.96-.61-1.31-.43-.31-.75-.37-1.12,.1,.1,.03,.19,.06,.29,.09,0,.04-.02,.08-.02,.11-.55-.11-1.12-.15-1.65-.33-.89-.32-1.78-.27-2.58,.07-.81,.34-1.62,.54-2.47,.61-.95,.09-1.84,.3-2.64,.83-.21,.14-.4,.39-.5,.63-.4,.91-.32,1.89-.33,2.86,0,.2-.06,.48-.2,.57-.39,.26-.52,.65-.49,1.05,.04,.7-.43,1.02-.89,1.36-.32,.24-.7,.41-1.03,.64-.18,.13-.31,.32-.46,.48h0s0,0,0,0c-.34,.16-.68,.31-1.01,.47,0,0,0,0-.01,0,0,0,0,0,0,0-.73-.39-2.31-.19-2.94,.35-.13,.11-.32,.16-.5,.21-.88,.25-1.86-.18-2.72,.52-.42,.34-1.14,.33-1.73,.43-.16,.03-.43-.04-.52-.16-.38-.47-.67-.95-1.32-1.22-.49-.2-.93-.43-1.48-.42-.38,0-.76-.07-1.03-.1-.28-.42-.52-.79-.76-1.15-.35-.52-.85-.94-.93-1.61-.1-.86-.61-1.52-1.19-2.07-.91-.88-1.49-1.93-1.91-3.09-.07-.18-.04-.44,.03-.63,.17-.4,.19-.71-.2-1.02-.6-.48-.98-1.11-1.07-1.9-.04-.32-.17-.63-.21-.96-.03-.23,.02-.47,.05-.7,.07-.45,.16-.9,.22-1.35,.03-.23-.04-.47-.02-.7,.08-1.06,.14-2.12,.28-3.16,.18-1.28,.42-2.54,1.07-3.7,.27-.47,.36-1.05,.51-1.59,.04-.13-.02-.29-.03-.43-.17,.03-.38,.02-.51,.11-.26,.19-.49,.14-.67-.05-.34-.38-.78-.38-1.24-.42-.38-.03-.77-.1-1.12-.25-.65-.26-1.25-.62-1.9-.86-.29-.11-.51-.22-.64-.51-.28-.59-.6-1.15-.88-1.73-.05-.1-.03-.24-.05-.36-.05-.42-.08-.85-.18-1.27-.04-.17-.21-.33-.34-.47-.3-.32-.61-.62-.9-.94-.31-.34-.6-.7-.89-1.05-.1-.12-.22-.23-.28-.36-.25-.53-.46-1.09-.72-1.61-.39-.78-.62-1.66-1.45-2.16-.31-.19-.5-.6-.81-.79-.34-.21-.45-.69-.98-.69-.73-.01-1.46-.16-2.2-.25-.1-.01-.21,0-.3,.04-.22,.09-.44,.18-.64,.3-.21,.13-.46,.27-.57,.48-.21,.38-.35,.8-.47,1.21-.28,.99-1.01,1.24-1.83,.66-.4-.28-.87-.45-1.3-.69-.27-.15-.52-.32-.78-.49-.15-.1-.28-.25-.44-.33-.75-.36-1.03-1.07-1.1-1.78-.08-.84-.48-1.5-.93-2.12-.27-.38-.82-.54-1.19-.86-.49-.42-.93-.91-1.41-1.35-.25-.23-.53-.43-.78-.65-.23-.21-.53-.4-.66-.67-.22-.47-.54-.64-1.03-.63-1.34,0-2.68,0-4.02,0-1.15,0-1-.11-.99,1,0,.47-.14,.62-.61,.62-2.54-.02-5.08,0-7.63-.01-.28,0-.57-.03-.83-.12-3.48-1.25-6.95-2.52-10.42-3.79-.74-.27-.74-.28-.59-1.06-.18,0-.34-.01-.5,0-2.16,.19-4.31,.38-6.47,.58-.52,.05-.59,.19-.36,.68,.08,.17,.21,.31,.3,.46,.1,.17,.2,.34,.3,.51,.11,.19,.19,.42,.34,.58,.28,.31,.51,.6,.35,1.06-.1,.31,.06,.54,.29,.77,.4,.42,.87,.82,.75,1.52-.02,.09,.1,.24,.19,.32,.45,.4,.89,.78,.68,1.5-.04,.15,.13,.53,.22,.53,.46,.03,.51,.33,.49,.65-.04,.63,.18,1.23,.52,1.65,.42,.5,1.09,.79,1.65,1.16,.24,.16,.54,.26,.73,.46,.82,.86,1.61,1.74,2.39,2.63,.08,.09,.11,.27,.08,.39-.14,.53-.03,1.15-.53,1.56-.07,.05-.06,.2-.08,.3-.1,.02-.22,.02-.3,.07-.35,.26-.72,.24-1.11,.12-.16-.05-.33-.1-.5-.09-.16,0-.31,.09-.47,.13,.1,.16,.18,.35,.31,.47,.51,.5,1.33,.7,1.46,1.56,0,.06,.1,.12,.16,.16,.45,.25,.88,.58,1.36,.72,.37,.11,.57,.3,.78,.59,.19,.27,.41,.55,.82,.19,.28-.25,1,.05,1.2,.38,.11,.19,.28,.35,.43,.52,.59,.7,1.61,.82,2.16,1.64,.41,.62,.65,1.97,.33,2.66-.23,.49-.36,1.02-.56,1.61,.27,.04,.49,.1,.71,.1,.4,.01,.7,.12,.75,.57-.12,.07-.23,.14-.39,.23,.3,.24,.56,.44,.81,.64,.04-.03,.08-.06,.12-.09-.05-.17-.11-.35-.18-.58,.12,.06,.21,.08,.27,.13,1.03,.91,2.32,1.51,3.18,2.64,.08,.1,.23,.17,.36,.22,.63,.23,.88,.75,1.03,1.35,.07,.27,.12,.55,.22,.81,.2,.49,.53,.55,.94,.23,.25-.19,.51-.36,.76-.53,.63-.43,.6-1.45-.03-1.86-.16-.1-.27-.31-.36-.49-.16-.31-.23-.67-.43-.94-.18-.24-.48-.38-.73-.57-.27-.21-.53-.43-.8-.64-.04,.02-.08,.05-.12,.07,.03,.26,.06,.53,.09,.79,0,0,0,0,0,.01,0,0,0,0,0,0-.15-.07-.3-.15-.45-.21-.51-.22-.88-1.05-.66-1.56,.2-.46,.1-.82-.21-1.2-.23-.28-.39-.62-.56-.95-.14-.27-.19-.6-.39-.82-.44-.5-.85-.97-.79-1.69,.01-.13-.02-.28-.07-.41-.19-.52-.39-1.04-.59-1.57-.2-.53-.47-.98-1.14-.99-.09,0-.25-.24-.24-.35,.06-.34-.09-.48-.37-.6-.12-.05-.18-.23-.27-.35-.35-.42-.31-1.11-.95-1.31-.53-.17-.72-.58-.8-1.09-.08-.52-.18-1.04-.32-1.55-.04-.14-.24-.22-.37-.34-.15-.13-.4-.24-.42-.39-.12-.74-.73-.98-1.26-1.32-.19-.67-.47-1.24-1-1.77-.62-.6-1.46-.93-1.95-1.67-.27-.4-.47-.77-.48-1.27-.02-.69-.13-1.38-.2-2.07,0-.09-.05-.19-.11-.25-.68-.73-.37-1.56-.2-2.34,.11-.49,.47-.54,.88-.24,.25,.18,.49,.41,.77,.51,.25,.09,.55,.08,.83,.06,.15-.01,.31-.22,.43-.19,.18,.04,.44,.18,.48,.32,.18,.68,.72,.73,1.28,.88,.68,.18,.71,.33,.52,.89-.23,.68,.01,1.23,.42,1.77,.26,.35,.55,.79,.55,1.19,0,.85,.58,1.37,.91,2.03,.1,.2,.12,.43,.21,.63,.06,.13,.16,.26,.27,.35,.08,.07,.2,.08,.3,.12,.03,.04,.05,.09,.08,.13-1.18-.13-.84,.8-1.13,1.38,.29,.11,.57,.33,.79,.28,.22-.06,.37-.38,.6-.65,.18,.24,.36,.49,.56,.74,.29,.38,.52,.87,.91,1.08,.48,.26,.72,.64,1.01,1.04,.2,.28,.48,.51,.77,.72,.19,.14,.43,.19,.65,.28,.18-.07,.42-.14,.55-.05,.13,.08,.18,.33,.21,.51,.03,.21-.06,.46,.02,.64,.13,.32,.39,.58,.54,.89,.18,.37,.47,.63,.86,.63,.63-.01,.75,.35,.84,.85,.09,.51,.39,.74,.91,.65,.51-.1,.76,.23,.9,.55,.12,.26,.03,.64-.03,.95-.04,.2-.21,.38-.32,.57-.2,.35-.09,.98,.21,1.21,.2,.16,.43,.28,.6,.47,.35,.4,.72,.74,1.31,.67,.07,0,.14,.05,.21,.09,.25,.15,.5,.32,.75,.47,.33,.19,.66,.37,.99,.56-.02,.04-.05,.08-.07,.12-.16-.1-.31-.19-.51-.31,.35,1.03,1.37,2.23,2.46,2.29-.36,.38-.03,.53,.2,.71,.21,.17,.42,.32,.62,.49,.33,.3,.68,.59,.97,.93,.34,.39,.64,.83,.96,1.25,.09,.12,.2,.24,.3,.35,.5,.59,.94,1.24,1.51,1.75,.69,.61,.99,1.32,1.06,2.2,.03,.33,.12,.67,.25,.97,.25,.55,.49,1.13,1.1,1.28-.02,.28-.07,.48-.04,.68,.05,.39-.05,.68-.34,.96-.21,.2-.35,.47-.57,.77,.24,.06,.37,.07,.47,.13,.13,.07,.24,.18,.36,.28-.1,.1-.18,.24-.3,.3-.17,.07-.36,.07-.55,.12-.48,.12-.56,.37-.27,.77,.09,.12,.15,.27,.22,.4,.15,.32,.25,.67,.45,.95,.31,.46,.68,.88,1.04,1.3,.21,.24,.41,.53,.67,.67,.95,.49,2,.8,2.86,1.47,.46,.36,.8,.88,1.21,1.31,.18,.19,.38,.41,.62,.51,.56,.23,1.14,.41,1.72,.59,.58,.18,1.17,.34,1.75,.5,.08,.02,.2,.03,.27,0,.48-.28,.78,.02,1.09,.32,.25,.24,.5,.5,.78,.71,.48,.36,.97,.7,1.46,1.04,.14,.1,.29,.18,.45,.24,.57,.21,1.15,.39,1.72,.62,.56,.23,1.09,.52,1.64,.76,.33,.15,.67,.28,1.02,.38,.98,.28,2.08,.21,2.84,1.08,.1,.12,.3,.15,.46,.22,.56,.25,1.12,.51,1.69,.75,.25,.1,.52,.16,.78,.23,.6,.16,1.25,.1,1.83,.47,.77,.49,1.66,.65,2.55,.41,.62-.17,1.22-.46,1.82-.72,.37-.17,.72-.4,1.08-.58,.23-.11,.49-.18,.74-.26,.16-.05,.32-.1,.57-.18-.19-.13-.28-.2-.4-.28,.13-.1,.24-.18,.27-.2,.32,.1,.56,.18,.78,.25-.05,.05-.14,.15-.22,.24,.65,.21,1.27,.42,1.9,.62,1.64,.53,2.69,1.86,3.91,2.94,.65,.57,1.24,1.2,1.86,1.8,.03-.02,.08-.03,.08-.05,.08-.69,.57-1.32,.2-2.07-.07-.14-.03-.4,.06-.56,.3-.57,.65-1.1,.94-1.67,.18-.35,.41-.49,.81-.48,1,.02,2,.02,2.99,0,.16,0,.41-.11,.44-.23,.09-.31,.09-.65,.13-.97,0-.01-.05-.04-.07-.05-.42-.14-.6-.48-.8-.84-.08-.15-.25-.3-.41-.36-.66-.28-1.07-.81-1.53-1.34q1.06-.08,1.07-1.14s0-.06,0-.09c-.07-.48,.15-.61,.61-.61,1.5,.02,2.99,.01,4.49,0,.22,0,.47,.06,.54-.29,.06-.31,.29-.31,.49-.15,.25,.19,.44,.12,.57-.12,.23-.39,.45-.79,.67-1.19-.12,.15-.25,.29-.36,.44,.11-.15,.24-.29,.36-.44,0,0,0,0,0,0,0,0,.01-.01,.01-.02h0s0,0,0,0c.14-.14,.3-.41,.43-.4,.47,.02,.66-.25,.83-.6,.08-.17,.2-.32,.31-.48,.04,.02,.08,.03,.12,.05-.03,.17-.04,.35-.1,.51-.11,.27-.1,.47,.18,.62,.12,.07,.23,.17,.33,.26,.02,.02,.04,.04,.06,.06h0c.13,.4,.24,.1,.28-.03,.16-.43,.29-.88,.42-1.32,.19-.62,.36-1.24,.56-1.91h-.59c.35-.24,.82-.23,.74-.74-.28-.05-.57-.1-.78-.14,.25-.43,.61-.78,.66-1.17,.1-.83,.51-1.45,1.08-2,.2-.2,.45-.37,.58-.61Z"/><path class="cls-3" d="M93.71,43.65c0,.08,.05,.2,.12,.23,.06,.03,.2,0,.24-.06,.21-.27,.4-.56,.64-.91-.7-.1-1.06,.21-1,.74Z"/></g><path id="MEX2724-2" class="cls-1" d="M63.84,49.95c-.1,.29-.15,.46-.47,.54-.16,.09-.21,.3-.35,.39-.21,.02-.41-.1-.6-.17-.18-.02-.4,.08-.52,.21-.13,.11-.15,.52-.38,.41-.11-.08-.17-.22-.18-.35-.08-.11-.24-.14-.32-.24-.02-.21,.13-.41,.11-.62-.09,.03-.19,.13-.28,.16h-.04c-.13,.16-.24,.37-.33,.57,.05,.16,.3,.22,.26,.43-.1,.13-.25,.28-.43,.28-.13-.09-.04-.31-.16-.39-.23,.07-.5,.02-.73,.04-.11,.09-.12,.28-.24,.36-.07,.02-.15,0-.22-.03-.02,.03-.09,.08-.12,.1-.03-.03-.18-.2-.21-.23-.21,0-.45,.09-.65-.04-.26-.04-.6-.15-.63-.46-.07-.04-.16-.05-.24-.05l-.05-.03s-.03-.15-.03-.19h-.04s-.06,.02-.08,.04c-.02-.01-.07-.05-.09-.07,0-.03-.02-.08-.02-.12h-.09c-.02-.15-.05-.12-.06-.35,.09-.09,.24-.11,.34-.18,.01-.02,.03-.08,.03-.11,.02-.02,.07-.05,.1-.06,.06-.12,.23-.15,.34-.11,.1,.05,.18,.17,.28,.22l.06-.02c-.01-.31-.22-.56-.23-.86,.06,.02,.17,.04,.24,.03,0,0,.01-.02,.02-.03,.02-.15-.18-.21-.14-.35-.03,0-.05-.02-.07-.04,.08-.08,.13-.2,.24-.25,0-.03-.04-.08-.06-.1v-.07l.02-.02s.04,.01,.05,0c.07-.28-.04-.51,.02-.76,.01,0,.04-.03,.05-.04,0-.29-.24-.63-.03-.89,.11,.04,.25,.09,.37,.08,.02-.02,.06-.05,.09-.05,.09,.02,.09,.11,.11,.18,.03,.06,.07,.12,.08,.19,.17,.07,.19,.26,.29,.39,.08,.07,.19,.13,.26,.21,.06,.06,.08,.17,.18,.18,.08-.03,.18-.07,.26-.09,.06-.06,.13-.17,.18-.24,.15,.04,.3,.17,.45,.18,.05-.03,.12-.1,.17-.13v-.06s-.05-.09-.08-.11c0-.01-.02-.06-.02-.08,.02-.04,.07-.07,.12-.08l.02-.04s.02-.01,.03-.02c.08,.02,.17,.06,.25,.05l.05-.03s.08,.06,.1,.07h.1s.12-.08,.15-.12l.02-.09-.03-.06-.06-.03c-.3,.06-.29-.45-.63-.21-.02-.04-.04-.1-.06-.14-.03,0-.05-.03-.06-.05,0-.02,0-.05,0-.06,.02-.01,.06,0,.09-.02l.03-.09c-.1-.07-.26-.07-.35-.16-.05-.1-.14-.13-.24-.15l-.02-.03,.04-.06c.01-.08-.03-.19-.11-.23l-.03,.05s.02,.09,0,.13c-.06,.03-.15,.02-.22,.02-.12-.18-.35-.44-.31-.66,.06-.12,.15-.23,.23-.33,0-.16,.1-.27,.22-.37-.03-.13-.07-.28-.11-.41l-.08-.04c-.07,0-.17,.05-.24,.08-.01,0-.04-.02-.05-.02v-.03s-.05-.02-.05-.02c-.05-.09,.05-.18,.06-.27,.07-.08,.2-.03,.28-.09,.07-.2,.27-.26,.4-.4,.05-.09,.19-.15,.22-.25,.06-.14,.09-.35-.02-.47v-.03l.07-.03s.02-.11,.02-.14c.01-.04,.06-.05,.1-.06l.03-.03v-.16s.04-.06,.06-.07c.1,.05,.2,.03,.3,.04,.21,.14,.04,.35,.24,.56-.01,.02-.04,.06-.06,.08v.04c.13,.04,.29,0,.41,.09,.04,.07,.1,.18,.09,.26-.09,.08-.12,.24-.24,.28l-.05-.02s-.08-.12-.12-.15h-.03c-.04,.1-.13,.09-.21,.1l-.03,.03c.06,.09,0,.21,.06,.3,0,.05-.03,.12-.06,.16v.05c.07,.06,.17,.08,.23,.15,.02,.06,.02,.14,.09,.17,.05,.01,.12-.03,.17-.05l.05,.02c.05,.06,0,.18,.08,.23h.03c.15-.08,.25-.24,.31-.39,.18-.14,.38-.03,.52,.11,.14,.08,.31,.14,.46,.2l.06,.08c-.1,.28-.4,.43-.52,.71-.07,.24,.09,.61-.17,.79h-.05c-.06,.07-.06,.2-.06,.29,.03,.03,.08,.05,.11,.09,0,.03-.02,.07,0,.11,.05,.02,.09,.07,.11,.12-.04,.12-.18,.06-.26,.12l.02,.05c.05,.04,.13,.02,.19,.04,.03,.02,.04,.08,.07,.1,.05,0,.1-.05,.15-.04,.07,.06,.09,.2,.19,.24,.16,0,.3,.14,.46,.03,.08,.02,.17,.06,.24,.1,.01,.07-.08,.09-.1,.15-.07,.11-.12,.12-.24,.13l-.02,.06-.04,.03c-.07,0-.15-.07-.23-.04-.07,.07-.17,.07-.25,.1-.07,.22,.1,.64,.12,.87l-.03,.03s-.11,.03-.15,.05c-.01,.12-.16,.16-.18,.28,0,.13,.05,.32,.17,.39,.08,.03,.17-.05,.25-.04,.06,.06,.15,.04,.22,.08,.05,.04,.03,.13,.05,.19,.02,.02,.06,.07,.08,.09v.05s-.03,.12-.04,.17l.03,.05s.1,.01,.14,0l.05,.02h.04c.17-.19,.46-.18,.7-.24,.06,.24,.05,.27,.23,.46h0Z"/></g></g></svg>