<?xml version="1.0" encoding="UTF-8"?><svg id="estados" xmlns="http://www.w3.org/2000/svg" viewBox="0 0 306.04 276.52"><defs><style>.cls-1,.cls-2{fill:#3bb1e6;}.cls-3{fill:#fff;}.cls-2{stroke-linecap:round;stroke-linejoin:round;stroke-width:1.27px;}.cls-2,.cls-4,.cls-5{stroke:#fff;}.cls-4{stroke-width:1.53px;}.cls-4,.cls-5{fill:none;opacity:.67;stroke-miterlimit:10;}.cls-6{fill:#0a2f3a;opacity:.5;}.cls-5{stroke-width:1.67px;}</style></defs><g id="qroo-icono"><circle class="cls-6" cx="136.96" cy="151.48" r="97.03"/><circle class="cls-5" cx="136.96" cy="151.48" r="104.09"/><polyline class="cls-4" points="229.53 104.17 271.63 73.79 306.09 73.79"/><polyline class="cls-4" points="229.02 199.66 271.63 220.23 306.09 220.23"/><polyline class="cls-4" points="240.77 150.49 271.63 150.49 306.09 150.49"/><g><path class="cls-1" d="M81.59,200.51c0,1.6-.25,2.99-.76,4.15s-1.22,2.07-2.15,2.72l2.97,2.33-1.5,1.38-3.5-2.78c-.55,.14-1.13,.21-1.73,.21-1.31,0-2.47-.32-3.48-.96-1.01-.64-1.8-1.56-2.36-2.75-.56-1.19-.85-2.57-.86-4.14v-1.2c0-1.6,.28-3.01,.83-4.23,.56-1.23,1.34-2.16,2.36-2.81s2.18-.98,3.49-.98,2.52,.32,3.53,.97c1.02,.65,1.8,1.58,2.34,2.79,.55,1.21,.82,2.63,.82,4.25v1.06Zm-2.19-1.07c0-1.96-.39-3.46-1.17-4.52-.78-1.06-1.89-1.59-3.34-1.59s-2.46,.53-3.26,1.58-1.2,2.52-1.23,4.39v1.22c0,1.9,.4,3.4,1.19,4.5,.79,1.1,1.9,1.64,3.31,1.64s2.51-.52,3.29-1.55c.78-1.03,1.18-2.51,1.2-4.43v-1.23Z"/><path class="cls-1" d="M92.26,207.06c-.82,.97-2.03,1.45-3.62,1.45-1.32,0-2.32-.38-3.01-1.15s-1.04-1.9-1.04-3.4v-8.03h2.11v7.98c0,1.87,.76,2.81,2.28,2.81,1.61,0,2.69-.6,3.22-1.8v-8.98h2.11v12.35h-2.01l-.05-1.22Z"/><path class="cls-1" d="M97.53,192.65c0-.34,.1-.63,.31-.87,.21-.24,.52-.35,.93-.35s.72,.12,.94,.35c.21,.24,.32,.53,.32,.87s-.11,.63-.32,.86c-.21,.23-.52,.34-.94,.34s-.72-.11-.93-.34c-.21-.23-.31-.51-.31-.86Zm2.28,15.62h-2.11v-12.35h2.11v12.35Z"/><path class="cls-1" d="M105.19,195.93l.07,1.55c.94-1.19,2.18-1.78,3.7-1.78,2.61,0,3.93,1.47,3.95,4.42v8.16h-2.11v-8.17c0-.89-.21-1.55-.61-1.97-.4-.43-1.02-.64-1.87-.64-.68,0-1.29,.18-1.8,.55-.52,.37-.92,.84-1.21,1.44v8.8h-2.11v-12.35h2Z"/><path class="cls-1" d="M118.95,192.94v2.99h2.31v1.63h-2.31v7.67c0,.5,.1,.87,.31,1.11,.21,.25,.56,.37,1.05,.37,.24,0,.58-.05,1-.14v1.7c-.56,.15-1.1,.23-1.62,.23-.94,0-1.65-.29-2.13-.86-.48-.57-.72-1.38-.72-2.43v-7.66h-2.25v-1.63h2.25v-2.99h2.11Z"/><path class="cls-1" d="M131.34,208.28c-.12-.24-.22-.68-.3-1.3-.98,1.02-2.15,1.53-3.52,1.53-1.22,0-2.22-.34-3-1.03-.78-.69-1.17-1.56-1.17-2.62,0-1.29,.49-2.28,1.47-3s2.35-1.07,4.13-1.07h2.05v-.97c0-.74-.22-1.33-.66-1.76-.44-.44-1.09-.66-1.95-.66-.75,0-1.38,.19-1.89,.57-.51,.38-.76,.84-.76,1.38h-2.12c0-.62,.22-1.21,.66-1.79s1.03-1.03,1.78-1.36c.75-.33,1.57-.5,2.47-.5,1.42,0,2.54,.36,3.34,1.07,.81,.71,1.23,1.69,1.26,2.94v5.68c0,1.13,.14,2.04,.43,2.7v.18h-2.21Zm-3.5-1.61c.66,0,1.29-.17,1.88-.51,.59-.34,1.02-.79,1.29-1.33v-2.53h-1.65c-2.59,0-3.88,.76-3.88,2.27,0,.66,.22,1.18,.66,1.55,.44,.37,1.01,.56,1.7,.56Z"/><path class="cls-1" d="M138.43,195.93l.07,1.55c.94-1.19,2.18-1.78,3.7-1.78,2.61,0,3.93,1.47,3.95,4.42v8.16h-2.11v-8.17c0-.89-.21-1.55-.61-1.97-.4-.43-1.02-.64-1.87-.64-.68,0-1.29,.18-1.8,.55-.52,.37-.92,.84-1.21,1.44v8.8h-2.11v-12.35h2Z"/><path class="cls-1" d="M156.95,208.28c-.12-.24-.22-.68-.3-1.3-.98,1.02-2.15,1.53-3.52,1.53-1.22,0-2.22-.34-3-1.03-.78-.69-1.17-1.56-1.17-2.62,0-1.29,.49-2.28,1.47-3s2.35-1.07,4.13-1.07h2.05v-.97c0-.74-.22-1.33-.66-1.76-.44-.44-1.09-.66-1.95-.66-.75,0-1.38,.19-1.89,.57-.51,.38-.76,.84-.76,1.38h-2.12c0-.62,.22-1.21,.66-1.79s1.03-1.03,1.78-1.36c.75-.33,1.57-.5,2.47-.5,1.42,0,2.54,.36,3.34,1.07,.81,.71,1.23,1.69,1.26,2.94v5.68c0,1.13,.14,2.04,.43,2.7v.18h-2.21Zm-3.5-1.61c.66,0,1.29-.17,1.88-.51,.59-.34,1.02-.79,1.29-1.33v-2.53h-1.65c-2.59,0-3.88,.76-3.88,2.27,0,.66,.22,1.18,.66,1.55,.44,.37,1.01,.56,1.7,.56Z"/><path class="cls-1" d="M174.25,201.56h-3.9v6.72h-2.2v-16.61h5.5c1.87,0,3.31,.43,4.32,1.28,1.01,.85,1.51,2.09,1.51,3.72,0,1.03-.28,1.94-.84,2.7-.56,.77-1.34,1.34-2.33,1.72l3.9,7.05v.14h-2.35l-3.61-6.72Zm-3.9-1.79h3.37c1.09,0,1.95-.28,2.6-.85,.64-.56,.96-1.32,.96-2.26,0-1.03-.31-1.82-.92-2.37s-1.5-.83-2.65-.83h-3.35v6.31Z"/><path class="cls-1" d="M181.66,201.99c0-1.21,.24-2.3,.71-3.26,.48-.97,1.14-1.71,1.99-2.24s1.82-.79,2.9-.79c1.68,0,3.04,.58,4.08,1.75s1.56,2.71,1.56,4.64v.15c0,1.2-.23,2.28-.69,3.24-.46,.95-1.12,1.7-1.97,2.23-.86,.53-1.84,.8-2.95,.8-1.67,0-3.03-.58-4.07-1.75-1.04-1.16-1.56-2.7-1.56-4.62v-.15Zm2.12,.25c0,1.37,.32,2.47,.95,3.3s1.49,1.24,2.55,1.24,1.92-.42,2.56-1.26c.63-.84,.95-2.02,.95-3.53,0-1.35-.32-2.45-.96-3.29-.64-.84-1.5-1.26-2.56-1.26s-1.88,.41-2.52,1.24-.96,2.02-.96,3.56Z"/><path class="cls-1" d="M194.99,201.99c0-1.21,.24-2.3,.71-3.26,.48-.97,1.14-1.71,1.99-2.24s1.82-.79,2.9-.79c1.68,0,3.04,.58,4.08,1.75s1.56,2.71,1.56,4.64v.15c0,1.2-.23,2.28-.69,3.24-.46,.95-1.12,1.7-1.97,2.23-.86,.53-1.84,.8-2.95,.8-1.67,0-3.03-.58-4.07-1.75-1.04-1.16-1.56-2.7-1.56-4.62v-.15Zm2.12,.25c0,1.37,.32,2.47,.95,3.3s1.49,1.24,2.55,1.24,1.92-.42,2.56-1.26c.63-.84,.95-2.02,.95-3.53,0-1.35-.32-2.45-.96-3.29-.64-.84-1.5-1.26-2.56-1.26s-1.88,.41-2.52,1.24-.96,2.02-.96,3.56Z"/></g><path id="QROO" class="cls-2" d="M158.53,169.95h-.19c.41-.72,1.19-1.4,1.22-2.34,.1-.78,.06-2.32,.84-2.81l-.56,1.03c.55,1.43-.48,3.03-1.31,4.12h0Zm3.65-7.77l-.37,.66c.19-.56-.12-2.77-.19-3.37l.37,.37c.08,.53,.24,1.81,.19,2.34Zm15.55-61.24c-1.37,2.33-3.36,5.59-5.36,7.45l-.54,1.38c-.38,.22-2.41,1.5-2.81,1.54-1.23-2.5-1.51-5.59-.17-8.14,.7-.52,2.68-1.67,3.3-2.23,.29-.05,.63,.13,.89,.2,1.19-.49,3.26-.15,4.47-.5,.02-.07,.26-.54,.22-.6h.22c.08,.05,.19,.22,.22,.3-.09,.04-.39,.52-.45,.6h0Zm1.01-20.51l.75,1.4c-.73-.46-1.22-1.56-1.5-2.34l.28-.47c-.01,.39,.26,1.08,.47,1.4Zm-1.86-7.72l-.17,.38c-.32-.68-.22-.95-.21-1.69,.18,.28,.3,.99,.37,1.31Zm-69.87,110.18c-1.14-3.16,2.74-4.99,3.28-7.77,.29-2.92-1.1-6.2-.28-8.99-.21-.15-.69-.39-.94-.47,.06-.28,.37-.74,.56-.94,.01-.95-.59-2.37-1.31-3-.57-2.6,1.21-7.69,.56-10.3,2.86-1.76,1.38-5.23,2.06-7.96-1.27-6.12-8.62-8.85-11.89-13.58,.99-1.52,1.74-3.5,1.4-5.34,1.07-.38,3.78-.31,4.96-.66,1.66-2.24,4.89-3.09,7.58-2.9,.98-.23,2.34-1.91,3.09-2.53,.38,.21,1.09,.72,1.4,1.03l.28-.47-.19-.66c2.09-2.6,7.03-4,10.11-5.24,1.28-.95,1.63-3.4,2.9-4.21l1.03,.09c.33,.34,.76,1.12,.84,1.59l.66,.09c.16-.67-.01-1.9-.28-2.53,.58-1.42,1.53-3.59,3.28-3.65,.35,.32,1.14,.79,1.59,.94,5.6,.04,8.23-4.34,12.73-6.93,1.7-2.91,2.45-6.79,4.12-9.74,.46-1.95-1.82-4.23-1.4-6.09,0-1.11,.81-2.87,1.59-3.65,.16-.67,.15-7.14,.2-7.97l7.3,1.27,.51-.98-2.76-.69,.46-.61-.09-.19c-.61,.14-1.14,.96-1.78,1.03v.19l.19,.09-.28,.09-.28-.09c-.08-.15-.11-.49-.09-.66,.97-1.05,1.81-1.67,3.28-1.12l.04-.28c2.64-2.99,6.97-1.66,9.64,.63,1.46,1.03,2.64,3.38,4.36,3.95,.6,2.45,1.33,6.15,1.12,8.71l1.4-.19c-.39,1.3-1.72,2.68-1.22,4.03h-.28c-.79,.39-1.27,.67-1.12,1.69-.16,1.2-1.06,2.89-1.31,4.03-1.92,2.8-4.48,6.67-7.3,8.52-1.8,1.14-6.53,7.05-7.12,9.17l-.47,.09c-.12,.12-.23,.39-.19,.56l.19,.19c-2.22,1.62-2.91,6.3-2.62,8.89,.59,1.34,1.52,2.84,.66,4.31h-.28c-.38,.29-.44,1.61-.75,1.97,.04-.39-.11-1.44,.09-1.78,.27,.07,.52-.18,.75-.28,.3-.42,.19-1.47,.28-1.97-.6-.28-.67-.95-.84-1.5l-.19-.09-.19,.09c-.09,.1-.11,.34-.09,.47,.58,.44,.53,1.62,.37,2.25,.14-.15,.38-.37,.56-.47-.53,.66-1.36,2.57-2.25,2.72-.12-.14-.4-.38-.56-.47l-.19,.09c-1.23,1.69-2.42,3.82-3.28,5.71l-.37-.09c.48-.13,.74-.66,.75-1.12l-1.45,1.88c1.58,.36,5.93,.98,7.35,1.58l-.37,.19v.28l.84-.19c.21-.28,.47-.86,.37-1.22l-.37-.09c.12,.12,.23,.39,.19,.56-.85,.26-2.03,0-2.81-.37,.37-.06,2.04,.22,2.43,.28,.02-.12,0-.37-.09-.47,.15-.31,.35-.97,.28-1.31,.23,.43,.71,1.41,.84,1.87-.81,.95-.28,3.02-1.4,3.84-2.2,1.85-5.48,2.52-6.11,3.49,1.15,.14,3.65,.08,4.82,0l-.4,1.76c.42-.21,.61-.82,1.03-1.03h.56v.19c-1.99,.74-1.91,3.35-2.81,4.87l.28,.75c-1.82,3.25-2.33,7.87-3.37,11.42-1.37,2.76-2.71,7.58-3,10.58-1.07,2.23-2.91,4.49-2.43,7.21h-.19c.04-.38-.03-1.14-.19-1.5l-.47,.56-.37-.09-.09-.47c.2-.07,.41-.37,.47-.56-.29-2.05-4.59-5.19-6.07-6.36-2.64-2.34,.28-6.84,.34-9.82l-1.01-.68c-.38,.73-.15,1.98-.94,2.43l-.28-.19-.47,.84,.28,.19c-.09,.22-.41,.48-.66,.47-1.04,1.96-2.27,4.05-3.28,5.99-.06,.01-.41,.11-.47,.09l-.09,.09v.09c-1.58,.01-3.69,.48-5.25,.47-.75,.72-2.22,1.99-2.05,3.18-.16,.9-1.31,1.73-1.69,2.53-.06,2.24-1.16,2.13-2.62,3.28,.61,1.06-1.2,2.25-.84,3.46-.38,.73-1.31,.88-1.69,1.59-.06,1.31-1.44,2.19-2.34,2.9l-.09,.75c-.08,.13-.32,.26-.47,.28-.6-.3-1.96-.46-2.62-.46-1.34-.68-3.77-2.96-5.24-1.5Zm43.1-42.14l.19-.56h.19c-.05,.08-.29,.52-.37,.56h0Z"/><g><g><path class="cls-3" d="M94.07,42.29c.23-.43,.53-.9,.53-1.36,0-.45-.13-.96-.61-1.31-.43-.31-.75-.37-1.12,.1,.1,.03,.19,.06,.29,.09,0,.04-.02,.08-.02,.11-.55-.11-1.12-.15-1.65-.33-.89-.32-1.78-.27-2.58,.07-.81,.34-1.62,.54-2.47,.61-.95,.09-1.84,.3-2.64,.83-.21,.14-.4,.39-.5,.63-.4,.91-.32,1.89-.33,2.86,0,.2-.06,.48-.2,.57-.39,.26-.52,.65-.49,1.05,.04,.7-.43,1.02-.89,1.36-.32,.24-.7,.41-1.03,.64-.18,.13-.31,.32-.46,.48h0s0,0,0,0c-.34,.16-.68,.31-1.01,.47,0,0,0,0-.01,0,0,0,0,0,0,0-.73-.39-2.31-.19-2.94,.35-.13,.11-.32,.16-.5,.21-.88,.25-1.86-.18-2.72,.52-.42,.34-1.14,.33-1.73,.43-.16,.03-.43-.04-.52-.16-.38-.47-.67-.95-1.32-1.22-.49-.2-.93-.43-1.48-.42-.38,0-.76-.07-1.03-.1-.28-.42-.52-.79-.76-1.15-.35-.52-.85-.94-.93-1.61-.1-.86-.61-1.52-1.19-2.07-.91-.88-1.49-1.93-1.91-3.09-.07-.18-.04-.44,.03-.63,.17-.4,.19-.71-.2-1.02-.6-.48-.98-1.11-1.07-1.9-.04-.32-.17-.63-.21-.96-.03-.23,.02-.47,.05-.7,.07-.45,.16-.9,.22-1.35,.03-.23-.04-.47-.02-.7,.08-1.06,.14-2.12,.28-3.16,.18-1.28,.42-2.54,1.07-3.7,.27-.47,.36-1.05,.51-1.59,.04-.13-.02-.29-.03-.43-.17,.03-.38,.02-.51,.11-.26,.19-.49,.14-.67-.05-.34-.38-.78-.38-1.24-.42-.38-.03-.77-.1-1.12-.25-.65-.26-1.25-.62-1.9-.86-.29-.11-.51-.22-.64-.51-.28-.59-.6-1.15-.88-1.73-.05-.1-.03-.24-.05-.36-.05-.42-.08-.85-.18-1.27-.04-.17-.21-.33-.34-.47-.3-.32-.61-.62-.9-.94-.31-.34-.6-.7-.89-1.05-.1-.12-.22-.23-.28-.36-.25-.53-.46-1.09-.72-1.61-.39-.78-.62-1.66-1.45-2.16-.31-.19-.5-.6-.81-.79-.34-.21-.45-.69-.98-.69-.73-.01-1.46-.16-2.2-.25-.1-.01-.21,0-.3,.04-.22,.09-.44,.18-.64,.3-.21,.13-.46,.27-.57,.48-.21,.38-.35,.8-.47,1.21-.28,.99-1.01,1.24-1.83,.66-.4-.28-.87-.45-1.3-.69-.27-.15-.52-.32-.78-.49-.15-.1-.28-.25-.44-.33-.75-.36-1.03-1.07-1.1-1.78-.08-.84-.48-1.5-.93-2.12-.27-.38-.82-.54-1.19-.86-.49-.42-.93-.91-1.41-1.35-.25-.23-.53-.43-.78-.65-.23-.21-.53-.4-.66-.67-.22-.47-.54-.64-1.03-.63-1.34,0-2.68,0-4.02,0-1.15,0-1-.11-.99,1,0,.47-.14,.62-.61,.62-2.54-.02-5.08,0-7.63-.01-.28,0-.57-.03-.83-.12-3.48-1.25-6.95-2.52-10.42-3.79-.74-.27-.74-.28-.59-1.06-.18,0-.34-.01-.5,0-2.16,.19-4.31,.38-6.47,.58-.52,.05-.59,.19-.36,.68,.08,.17,.21,.31,.3,.46,.1,.17,.2,.34,.3,.51,.11,.19,.19,.42,.34,.58,.28,.31,.51,.6,.35,1.06-.1,.31,.06,.54,.29,.77,.4,.42,.87,.82,.75,1.52-.02,.09,.1,.24,.19,.32,.45,.4,.89,.78,.68,1.5-.04,.15,.13,.53,.22,.53,.46,.03,.51,.33,.49,.65-.04,.63,.18,1.23,.52,1.65,.42,.5,1.09,.79,1.65,1.16,.24,.16,.54,.26,.73,.46,.82,.86,1.61,1.74,2.39,2.63,.08,.09,.11,.27,.08,.39-.14,.53-.03,1.15-.53,1.56-.07,.05-.06,.2-.08,.3-.1,.02-.22,.02-.3,.07-.35,.26-.72,.24-1.11,.12-.16-.05-.33-.1-.5-.09-.16,0-.31,.09-.47,.13,.1,.16,.18,.35,.31,.47,.51,.5,1.33,.7,1.46,1.56,0,.06,.1,.12,.16,.16,.45,.25,.88,.58,1.36,.72,.37,.11,.57,.3,.78,.59,.19,.27,.41,.55,.82,.19,.28-.25,1,.05,1.2,.38,.11,.19,.28,.35,.43,.52,.59,.7,1.61,.82,2.16,1.64,.41,.62,.65,1.97,.33,2.66-.23,.49-.36,1.02-.56,1.61,.27,.04,.49,.1,.71,.1,.4,.01,.7,.12,.75,.57-.12,.07-.23,.14-.39,.23,.3,.24,.56,.44,.81,.64,.04-.03,.08-.06,.12-.09-.05-.17-.11-.35-.18-.58,.12,.06,.21,.08,.27,.13,1.03,.91,2.32,1.51,3.18,2.64,.08,.1,.23,.17,.36,.22,.63,.23,.88,.75,1.03,1.35,.07,.27,.12,.55,.22,.81,.2,.49,.53,.55,.94,.23,.25-.19,.51-.36,.76-.53,.63-.43,.6-1.45-.03-1.86-.16-.1-.27-.31-.36-.49-.16-.31-.23-.67-.43-.94-.18-.24-.48-.38-.73-.57-.27-.21-.53-.43-.8-.64-.04,.02-.08,.05-.12,.07,.03,.26,.06,.53,.09,.79,0,0,0,0,0,.01,0,0,0,0,0,0-.15-.07-.3-.15-.45-.21-.51-.22-.88-1.05-.66-1.56,.2-.46,.1-.82-.21-1.2-.23-.28-.39-.62-.56-.95-.14-.27-.19-.6-.39-.82-.44-.5-.85-.97-.79-1.69,.01-.13-.02-.28-.07-.41-.19-.52-.39-1.04-.59-1.57-.2-.53-.47-.98-1.14-.99-.09,0-.25-.24-.24-.35,.06-.34-.09-.48-.37-.6-.12-.05-.18-.23-.27-.35-.35-.42-.31-1.11-.95-1.31-.53-.17-.72-.58-.8-1.09-.08-.52-.18-1.04-.32-1.55-.04-.14-.24-.22-.37-.34-.15-.13-.4-.24-.42-.39-.12-.74-.73-.98-1.26-1.32-.19-.67-.47-1.24-1-1.77-.62-.6-1.46-.93-1.95-1.67-.27-.4-.47-.77-.48-1.27-.02-.69-.13-1.38-.2-2.07,0-.09-.05-.19-.11-.25-.68-.73-.37-1.56-.2-2.34,.11-.49,.47-.54,.88-.24,.25,.18,.49,.41,.77,.51,.25,.09,.55,.08,.83,.06,.15-.01,.31-.22,.43-.19,.18,.04,.44,.18,.48,.32,.18,.68,.72,.73,1.28,.88,.68,.18,.71,.33,.52,.89-.23,.68,.01,1.23,.42,1.77,.26,.35,.55,.79,.55,1.19,0,.85,.58,1.37,.91,2.03,.1,.2,.12,.43,.21,.63,.06,.13,.16,.26,.27,.35,.08,.07,.2,.08,.3,.12,.03,.04,.05,.09,.08,.13-1.18-.13-.84,.8-1.13,1.38,.29,.11,.57,.33,.79,.28,.22-.06,.37-.38,.6-.65,.18,.24,.36,.49,.56,.74,.29,.38,.52,.87,.91,1.08,.48,.26,.72,.64,1.01,1.04,.2,.28,.48,.51,.77,.72,.19,.14,.43,.19,.65,.28,.18-.07,.42-.14,.55-.05,.13,.08,.18,.33,.21,.51,.03,.21-.06,.46,.02,.64,.13,.32,.39,.58,.54,.89,.18,.37,.47,.63,.86,.63,.63-.01,.75,.35,.84,.85,.09,.51,.39,.74,.91,.65,.51-.1,.76,.23,.9,.55,.12,.26,.03,.64-.03,.95-.04,.2-.21,.38-.32,.57-.2,.35-.09,.98,.21,1.21,.2,.16,.43,.28,.6,.47,.35,.4,.72,.74,1.31,.67,.07,0,.14,.05,.21,.09,.25,.15,.5,.32,.75,.47,.33,.19,.66,.37,.99,.56-.02,.04-.05,.08-.07,.12-.16-.1-.31-.19-.51-.31,.35,1.03,1.37,2.23,2.46,2.29-.36,.38-.03,.53,.2,.71,.21,.17,.42,.32,.62,.49,.33,.3,.68,.59,.97,.93,.34,.39,.64,.83,.96,1.25,.09,.12,.2,.24,.3,.35,.5,.59,.94,1.24,1.51,1.75,.69,.61,.99,1.32,1.06,2.2,.03,.33,.12,.67,.25,.97,.25,.55,.49,1.13,1.1,1.28-.02,.28-.07,.48-.04,.68,.05,.39-.05,.68-.34,.96-.21,.2-.35,.47-.57,.77,.24,.06,.37,.07,.47,.13,.13,.07,.24,.18,.36,.28-.1,.1-.18,.24-.3,.3-.17,.07-.36,.07-.55,.12-.48,.12-.56,.37-.27,.77,.09,.12,.15,.27,.22,.4,.15,.32,.25,.67,.45,.95,.31,.46,.68,.88,1.04,1.3,.21,.24,.41,.53,.67,.67,.95,.49,2,.8,2.86,1.47,.46,.36,.8,.88,1.21,1.31,.18,.19,.38,.41,.62,.51,.56,.23,1.14,.41,1.72,.59,.58,.18,1.17,.34,1.75,.5,.08,.02,.2,.03,.27,0,.48-.28,.78,.02,1.09,.32,.25,.24,.5,.5,.78,.71,.48,.36,.97,.7,1.46,1.04,.14,.1,.29,.18,.45,.24,.57,.21,1.15,.39,1.72,.62,.56,.23,1.09,.52,1.64,.76,.33,.15,.67,.28,1.02,.38,.98,.28,2.08,.21,2.84,1.08,.1,.12,.3,.15,.46,.22,.56,.25,1.12,.51,1.69,.75,.25,.1,.52,.16,.78,.23,.6,.16,1.25,.1,1.83,.47,.77,.49,1.66,.65,2.55,.41,.62-.17,1.22-.46,1.82-.72,.37-.17,.72-.4,1.08-.58,.23-.11,.49-.18,.74-.26,.16-.05,.32-.1,.57-.18-.19-.13-.28-.2-.4-.28,.13-.1,.24-.18,.27-.2,.32,.1,.56,.18,.78,.25-.05,.05-.14,.15-.22,.24,.65,.21,1.27,.42,1.9,.62,1.64,.53,2.69,1.86,3.91,2.94,.65,.57,1.24,1.2,1.86,1.8,.03-.02,.08-.03,.08-.05,.08-.69,.57-1.32,.2-2.07-.07-.14-.03-.4,.06-.56,.3-.57,.65-1.1,.94-1.67,.18-.35,.41-.49,.81-.48,1,.02,2,.02,2.99,0,.16,0,.41-.11,.44-.23,.09-.31,.09-.65,.13-.97,0-.01-.05-.04-.07-.05-.42-.14-.6-.48-.8-.84-.08-.15-.25-.3-.41-.36-.66-.28-1.07-.81-1.53-1.34q1.06-.08,1.07-1.14s0-.06,0-.09c-.07-.48,.15-.61,.61-.61,1.5,.02,2.99,.01,4.49,0,.22,0,.47,.06,.54-.29,.06-.31,.29-.31,.49-.15,.25,.19,.44,.12,.57-.12,.23-.39,.45-.79,.67-1.19-.12,.15-.25,.29-.36,.44,.11-.15,.24-.29,.36-.44,0,0,0,0,0,0,0,0,.01-.01,.01-.02h0s0,0,0,0c.14-.14,.3-.41,.43-.4,.47,.02,.66-.25,.83-.6,.08-.17,.2-.32,.31-.48,.04,.02,.08,.03,.12,.05-.03,.17-.04,.35-.1,.51-.11,.27-.1,.47,.18,.62,.12,.07,.23,.17,.33,.26,.02,.02,.04,.04,.06,.06h0c.13,.4,.24,.1,.28-.03,.16-.43,.29-.88,.42-1.32,.19-.62,.36-1.24,.56-1.91h-.59c.35-.24,.82-.23,.74-.74-.28-.05-.57-.1-.78-.14,.25-.43,.61-.78,.66-1.17,.1-.83,.51-1.45,1.08-2,.2-.2,.45-.37,.58-.61Z"/><path class="cls-3" d="M93.71,43.65c0,.08,.05,.2,.12,.23,.06,.03,.2,0,.24-.06,.21-.27,.4-.56,.64-.91-.7-.1-1.06,.21-1,.74Z"/></g><path id="MEX2736" class="cls-1" d="M92.71,50.13h-.02c.04-.08,.12-.15,.13-.24,.01-.08,0-.24,.09-.29l-.06,.11c.06,.15-.05,.32-.14,.43h0Zm.38-.81l-.04,.07c.02-.06-.01-.29-.02-.35l.04,.04c0,.06,.02,.19,.02,.24Zm1.63-6.41c-.14,.24-.35,.58-.56,.78l-.06,.14s-.25,.16-.29,.16c-.13-.26-.16-.58-.02-.85,.07-.05,.28-.17,.35-.23,.03,0,.07,.01,.09,.02,.13-.05,.34-.02,.47-.05,0,0,.03-.06,.02-.06h.02s.02,.02,.02,.03c0,0-.04,.05-.05,.06h0Zm-.01-2.12l.08,.15c-.08-.05-.13-.16-.16-.24l.03-.05s.03,.11,.05,.15Zm-.21-.82v.1c-.02-.07-.04-.16-.04-.24,.02,.03,.03,.1,.04,.14Zm-7.19,11.52c-.12-.33,.29-.52,.34-.81,.03-.31-.12-.65-.03-.94-.02-.02-.07-.04-.1-.05,0-.03,.04-.08,.06-.1,0-.1-.06-.25-.14-.31-.06-.27,.13-.8,.06-1.08,.3-.18,.14-.55,.22-.83-.13-.64-.9-.93-1.24-1.42,.1-.16,.18-.37,.15-.56,.11-.04,.4-.03,.52-.07,.17-.23,.51-.32,.79-.3,.1-.02,.25-.2,.32-.26,.04,.02,.11,.08,.15,.11l.03-.05-.02-.07c.22-.27,.74-.42,1.06-.55,.13-.1,.17-.36,.3-.44h.11s.08,.13,.09,.18h.07c.02-.06,0-.19-.03-.25,.06-.15,.16-.38,.34-.38,.04,.03,.12,.08,.17,.1,.59,0,.86-.45,1.33-.73,.18-.31,.26-.71,.43-1.02,.05-.2-.19-.44-.15-.64,0-.12,.08-.3,.17-.38,.02-.07,.02-.75,.02-.83l.8,.15,.02-.12-.29-.07,.05-.06v-.02c-.07,.01-.13,.1-.2,.11v.02h.02s-.03,.02-.03,.02h-.03s-.01-.06,0-.08c.1-.11,.19-.18,.34-.12v-.03c.28-.31,.73-.17,1.01,.07,.15,.11,.28,.35,.46,.41,.06,.26,.14,.64,.12,.91l.15-.02c-.04,.14-.18,.28-.13,.42h-.03c-.08,.04-.13,.07-.12,.18-.02,.13-.11,.3-.14,.42-.2,.29-.47,.7-.76,.89-.19,.12-.68,.74-.74,.96h-.05s-.02,.05-.02,.07l.02,.02c-.23,.17-.3,.66-.27,.93,.06,.14,.16,.3,.07,.45h-.03s-.05,.17-.08,.21c0-.04-.01-.15,0-.19,.03,0,.05-.02,.08-.03,.03-.04,.02-.15,.03-.21-.06-.03-.07-.1-.09-.16h-.02s-.02,0-.02,0c0,.01-.01,.04,0,.05,.06,.05,.06,.17,.04,.24,.01-.02,.04-.04,.06-.05-.06,.07-.14,.27-.24,.28-.01-.01-.04-.04-.06-.05h-.02c-.13,.19-.25,.41-.34,.61h-.04c.05-.02,.08-.08,.08-.13l-.15,.2c.17,.04,.62,.1,.77,.17l-.04,.02v.03l.09-.02s.05-.09,.04-.13h-.04s.02,.03,.02,.05c-.09,.03-.21,0-.29-.04,.04,0,.21,.02,.25,.03,0-.01,0-.04,0-.05,.02-.03,.04-.1,.03-.14,.02,.05,.07,.15,.09,.2-.08,.1-.03,.32-.15,.4-.23,.19-.57,.26-.64,.36,.12,.01,.38,0,.5,0l-.04,.18s.06-.09,.11-.11h.06v.02c-.21,.08-.2,.35-.29,.51l.03,.08c-.19,.34-.24,.82-.35,1.2-.14,.29-.28,.79-.31,1.11-.11,.23-.3,.47-.25,.75h-.02s0-.12-.02-.16l-.05,.06h-.04s0-.06,0-.06c.02,0,.04-.04,.05-.06-.03-.21-.48-.54-.64-.67-.28-.24,.03-.72,.04-1.03l-.11-.07c-.04,.08-.02,.21-.1,.25l-.03-.02-.05,.09,.03,.02s-.04,.05-.07,.05c-.11,.2-.24,.42-.34,.63,0,0-.04,.01-.05,0h0v.02c-.17,0-.39,.05-.55,.05-.08,.08-.23,.21-.21,.33-.02,.09-.14,.18-.18,.26,0,.23-.12,.22-.27,.34,.06,.11-.13,.24-.09,.36-.04,.08-.14,.09-.18,.17,0,.14-.15,.23-.24,.3v.08s-.04,.03-.06,.03c-.06-.03-.21-.05-.27-.05-.14-.07-.39-.31-.55-.16Zm4.51-4.41l.02-.06h.02s-.03,.05-.04,.06h0Z"/></g></g></svg>