<?xml version="1.0" encoding="UTF-8"?><svg id="estados" xmlns="http://www.w3.org/2000/svg" viewBox="0 0 306.04 276.52"><defs><style>.cls-1,.cls-2{fill:#3bb1e6;}.cls-3{fill:#fff;}.cls-4{stroke-width:1.53px;}.cls-4,.cls-2,.cls-5{stroke:#fff;}.cls-4,.cls-5{fill:none;opacity:.67;stroke-miterlimit:10;}.cls-6{fill:#0a2f3a;opacity:.5;}.cls-2{stroke-linecap:round;stroke-linejoin:round;stroke-width:1.37px;}.cls-5{stroke-width:1.67px;}</style></defs><g id="sin-icono"><circle class="cls-6" cx="136.96" cy="151.48" r="97.03"/><circle class="cls-5" cx="136.96" cy="151.48" r="104.09"/><polyline class="cls-4" points="229.53 104.17 271.63 73.79 306.09 73.79"/><polyline class="cls-4" points="229.02 199.66 271.63 220.23 306.09 220.23"/><polyline class="cls-4" points="240.77 150.49 271.63 150.49 306.09 150.49"/><g><path class="cls-1" d="M105,211.75c-1.88-.54-3.25-1.2-4.1-1.99-.86-.79-1.28-1.76-1.28-2.92,0-1.31,.52-2.39,1.57-3.25,1.05-.86,2.41-1.28,4.08-1.28,1.14,0,2.16,.22,3.05,.66,.89,.44,1.59,1.05,2.08,1.83s.74,1.62,.74,2.54h-2.2c0-1.01-.32-1.8-.96-2.38-.64-.58-1.54-.86-2.7-.86-1.08,0-1.92,.24-2.53,.71-.6,.48-.91,1.14-.91,1.98,0,.68,.29,1.25,.86,1.72s1.55,.9,2.93,1.29c1.38,.39,2.46,.82,3.24,1.29s1.36,1.01,1.73,1.64,.56,1.36,.56,2.2c0,1.35-.52,2.42-1.57,3.24-1.05,.81-2.45,1.22-4.21,1.22-1.14,0-2.21-.22-3.2-.66-.99-.44-1.75-1.04-2.29-1.8-.54-.76-.8-1.62-.8-2.59h2.2c0,1,.37,1.8,1.11,2.38,.74,.58,1.73,.87,2.97,.87,1.16,0,2.04-.24,2.66-.71,.62-.47,.92-1.11,.92-1.93s-.29-1.44-.86-1.89-1.61-.88-3.1-1.32Z"/><path class="cls-1" d="M113.65,203.54c0-.34,.1-.63,.31-.87s.52-.35,.93-.35,.72,.12,.94,.35c.21,.24,.32,.52,.32,.87s-.11,.63-.32,.86c-.21,.23-.52,.34-.94,.34s-.72-.11-.93-.34c-.21-.23-.31-.51-.31-.86Zm2.28,15.62h-2.11v-12.35h2.11v12.35Z"/><path class="cls-1" d="M121.3,206.81l.07,1.55c.94-1.19,2.18-1.78,3.7-1.78,2.61,0,3.93,1.47,3.95,4.42v8.16h-2.11v-8.17c0-.89-.21-1.55-.61-1.97s-1.02-.64-1.87-.64c-.68,0-1.29,.18-1.8,.55-.52,.37-.92,.84-1.21,1.44v8.8h-2.11v-12.35h2Z"/><path class="cls-1" d="M139.82,219.16c-.12-.24-.22-.68-.3-1.3-.98,1.02-2.15,1.53-3.51,1.53-1.22,0-2.22-.34-3-1.03-.78-.69-1.17-1.56-1.17-2.62,0-1.29,.49-2.28,1.47-3,.98-.71,2.35-1.07,4.13-1.07h2.05v-.97c0-.74-.22-1.33-.66-1.76-.44-.44-1.09-.66-1.95-.66-.75,0-1.38,.19-1.89,.57-.51,.38-.76,.84-.76,1.38h-2.12c0-.62,.22-1.21,.66-1.79,.44-.57,1.03-1.03,1.78-1.36,.75-.33,1.57-.5,2.47-.5,1.42,0,2.54,.36,3.34,1.07,.81,.71,1.22,1.69,1.26,2.94v5.68c0,1.13,.14,2.04,.43,2.71v.18h-2.21Zm-3.5-1.61c.66,0,1.29-.17,1.88-.51,.59-.34,1.02-.79,1.29-1.33v-2.53h-1.65c-2.59,0-3.88,.76-3.88,2.27,0,.66,.22,1.18,.66,1.55,.44,.37,1.01,.56,1.7,.56Z"/><path class="cls-1" d="M147.21,219.16h-2.11v-17.53h2.11v17.53Z"/><path class="cls-1" d="M150.03,212.87c0-1.21,.24-2.3,.71-3.26,.48-.97,1.14-1.71,1.99-2.24,.85-.53,1.82-.79,2.9-.79,1.68,0,3.04,.58,4.08,1.75,1.04,1.16,1.56,2.71,1.56,4.64v.15c0,1.2-.23,2.28-.69,3.24-.46,.96-1.12,1.7-1.97,2.23-.86,.53-1.84,.8-2.95,.8-1.67,0-3.03-.58-4.07-1.75-1.04-1.16-1.56-2.7-1.56-4.62v-.15Zm2.12,.25c0,1.37,.32,2.47,.95,3.3,.64,.83,1.49,1.24,2.55,1.24s1.92-.42,2.56-1.26c.63-.84,.95-2.02,.95-3.53,0-1.35-.32-2.45-.96-3.29-.64-.84-1.5-1.26-2.56-1.26s-1.88,.41-2.52,1.24c-.64,.83-.96,2.02-.96,3.56Z"/><path class="cls-1" d="M171.54,219.16c-.12-.24-.22-.68-.3-1.3-.98,1.02-2.15,1.53-3.51,1.53-1.22,0-2.22-.34-3-1.03-.78-.69-1.17-1.56-1.17-2.62,0-1.29,.49-2.28,1.47-3,.98-.71,2.35-1.07,4.13-1.07h2.05v-.97c0-.74-.22-1.33-.66-1.76-.44-.44-1.09-.66-1.95-.66-.75,0-1.38,.19-1.89,.57-.51,.38-.76,.84-.76,1.38h-2.12c0-.62,.22-1.21,.66-1.79,.44-.57,1.03-1.03,1.78-1.36,.75-.33,1.57-.5,2.47-.5,1.42,0,2.54,.36,3.34,1.07,.81,.71,1.22,1.69,1.26,2.94v5.68c0,1.13,.14,2.04,.43,2.71v.18h-2.21Zm-3.5-1.61c.66,0,1.29-.17,1.88-.51,.59-.34,1.02-.79,1.29-1.33v-2.53h-1.65c-2.59,0-3.88,.76-3.88,2.27,0,.66,.22,1.18,.66,1.55,.44,.37,1.01,.56,1.7,.56Z"/></g><path id="SIN" class="cls-2" d="M105.43,114.85l1.27,.45,.3,.15,.45,.67,.3,.22-.45,.3-.75-.37-.82-.52-.67-.3h-.15l-.22-.07-.15-.07h-1.72l-.3-.15-.15-.37h2.69l.37,.07h0Zm46.15-5.32l-.82,.82-.37,.45-.22,.52-.3,.52-.37,.45-.45,.37-.45,.52-.45,.9-.3,1.2-.22,1.2-.15,1.12-.22,1.2-.15,1.27v1.2l.22,1.2,.37,1.12,.3,1.12,.3,1.12,.45,1.05,.15,.45,.15,.52,.15,.52,.3,.37,.3,.22,.82,.22,.37,.22,.15,.3,.07,.3v.75l.22,.45,.22,.22,.37,.15,.45,.07h.67l.37,.07,.3,.22,.22,.45,.22,.45,.3,.37,.45,.22,.82,.52,.45,.82,.3,.97,.52,.9,.6,.52,.3,.3,.15,.45,.15,.37,.15,.3,.3,.6,.22,.45,.15,.45,.07,.45,.07,.52v.82l.07,.37,.22,.37,.82,.82,.45,.37,.37,.37,.45,.37,.37,.15h1.64l.37-.07,.37-.15,.3-.3,.3-.37,.22-.37,.3-.37,.75-.6,.9-.45,.82-.15,.97,.15,.3,.15,.22,.15,.3,.15,.22,.22,.6,.52,1.72,1.57,.45,.6,.3,.75,.3,.82,.22,.67,.52,1.35,.3,.67,.37,.6,.45,.45,.45,.07,.6-.07,.52-.22-.22,.82-.3,.82-.37,.75-.37,.82-.15,.97,.07,1.05,.15,1.05,.15,.97,.22,1.79,.15,.45,.22,.37,.22,.45,.22,.45,.07,.52,.15,.67,.22,.52,.45,.37,.3,.15,.37,.07,.37,.07,.37,.07,.15,.6,.37,.52,.37,.52,.3,.6-.07,.22-.07,.22-.07,.22,.37,.37,.07,.22v.3l-.07,.22-.15,.45,.15,.22,.22,.3,.15,.3,.07,.3v.9l.22,.37,.37,.22,.37,.22,.3,.3,.15,.22,.07,.22,.07,.22,.22,.15,.3,.3,.45,.37,.37,.45,.37,.37,.82,.45,.9,.07,1.05-.07,.9-.07,.15,2.99-.6-.07-.52,.07-.37,.22-.3,.45-.15,.52-.07,.3,.15,.3,.15,.45,.37,.52v.22l-.15,.37-.37,.3-.45,.37-.45,.37-.37,.3-.37,.45-.45,.45-.37,.6-.15,.52,.07,.22,.15,.15,.15,.15,.45,.3,.15,.15,.15,.22,.15,.37,.15,.22,.22,.15,.3,.07,.22,.15v.15l-.15,.37v.15l.07,.07,.3,.07,.07,.07,.22,.6,.22,.67,.15,.67,.15,.6v.9l-.6,.52-.75,.07-.82-.22-.3-.3-.37-.3-.3-.3-.37-.22-.52-.15-.52,.15-.52,.15-.45,.07,.22,.9,.15,.52-.07,.45-.37,.3-.37-.37-.67-1.12,.15-.15-.15-.37-.22-.3-.22-.15-.22,.3h-.15l-2.92-4.56-1.05-1.35-.37-.37-.97-.67-.15-.15-.07-.07-.07-.07-.15-.07-.45-.45-.22,.22-4.64-5.83-.45-.15-.22-.15-.45-.37-2.24-2.54-.37-.22-.3,.07-.22,.15-.22,.07-.3-.07v-1.2l-.07-.37-.82-1.27-.45-.3v-.22l.3-.22-.07-.15-.07-.15-.07-.15-1.57-2.09-.45-.3-.97-.9-.07-.15-.15-.15-.22-.6-.22-.3-.6-.3-.37-.45-.52-.82-.67-.75-.45-.3-.97-.37-.22-.52-.22-1.2-.37-.52-.37-.45-.37-.45-.3-1.12-5.76-5.98-2.06-1.58-2.58-1.94-1.5-1.05-.3-.3-1.27-1.35-.9-.6-1.42-1.42-5.46-3.36-.45-.45-.15-.45,.07-.3-.22-.15-.67-.15-1.79-1.12-2.02-1.79-.22-.37-.07-.37-.15-.97-.07-.45-.22-.45-.3-.37-.22-.15-.15-.07-.07-.22-.67-1.12-.9-.52-.67-1.05-1.87-3.74-.6-.75-.82-.75-.45-.22-.22-.15-.15-.3h.52l.52,.07-.52-1.27-.6-.07-.45-.22-.82,.15-.3,.45-.07-.22,.15-1.2v-.37l-.22-.52-3.51-1.94-1.42-.9-.97-.3-.97-.07h-.82l.52-.45-.75-.22-.6,.07-2.75-.77-3.53-1.48-.75-.52-1.2-1.27,.52-.3-.9-.97-.3-.3-2.62-2.24,.07,.3,.15,.3,.22,.22,1.57,1.35,.37,.6-.07,.45-.52-.45-.52-.75-.6-.67-.82-.22h-2.62l-.9-.22,.52-.37,.67-.22h.75l.67,.3-.07-.45,.07-.45,.07-.15-1.94-1.64-.22,.15-.15,.3v1.5l-.07,.22-.3-.37,.15-.52v-.6l-.07-.6-.15-.3-.52-.15-.07-.45,.07-.6,.22-.97,.15-.22h.07v-.52l-.07-.37-.07-.3-.15-.37-.15-.6-.07-.45,.07-1.2,.07-.37,.82-1.5,.9-.97,.45-.52,.3-1.05,.82-1.64,.22-.07-.07,.37v.52l-.07,.3-.07,.3-.07,.3,.15,.22,.22,.07,.22-.22,.07-.3,.15-.82,.75-1.35,.15-.07,.9-.6,.45-.3,.22-.22v.37l-.15,.45-.3,.22v.15l.45,.22,1.12,.97,.37,.07v-.3l-.3-.6-.07-.37,.22-.15,.22-.07,.15-.15-.07-.37-.67,.07-.52-1.12,.22-.45,.6-.52,2.39-1.79,2.32-1.87,2.32-1.87,2.32-1.94,2.32-2.02,2.39-1.94,.15-.37v-1.72l.15-.67,.22-.67,.22-.6,.22-.67,.6-.6,.52-.6,.52-.67,.52-.75,.3,.52,.52,.22,.6-.07,.52-.07,.52,.15,.37,.22,.22,.45,.3,.45,.75,.97,1.2,.52,1.27,.3,1.12,.22,.6,.3,.15,.6v1.35l.37,.82,.52,.82,.52,.75,.52,.75,.45,.6,.97,.97,.45,.6,.45,1.2,.15,1.57,.15,1.57,.15,1.42,.3,2.39,.3,2.39,.07,.75,.22,.37,.45,.22,.75,.15,.97,.15,1.57,.37,4.78,1.05,.67,.15,.6,.45,.37,.6,.22,.75,.07,.45,.07,.37,.07,.45,.15,.37,.07,.37,.07,.3,.22,.22,.3,.07,.22,.15,.22,.3,.07,.37,.07,.3,.07,.37v.37l.07,.37,.15,.15,.52,.15,.67,.37,.6,.37,.6,.45,.6,.52,.37,.52,.45,.6,.37,.52,.45,.45,.75,.37,.75,.45,.67,.45,.67,.6h0Z"/><g><g><path class="cls-3" d="M94.07,42.29c.23-.43,.53-.9,.53-1.36,0-.45-.13-.96-.61-1.31-.43-.31-.75-.37-1.12,.1,.1,.03,.19,.06,.29,.09,0,.04-.02,.08-.02,.11-.55-.11-1.12-.15-1.65-.33-.89-.32-1.78-.27-2.58,.07-.81,.34-1.62,.54-2.47,.61-.95,.09-1.84,.3-2.64,.83-.21,.14-.4,.39-.5,.63-.4,.91-.32,1.89-.33,2.86,0,.2-.06,.48-.2,.57-.39,.26-.52,.65-.49,1.05,.04,.7-.43,1.02-.89,1.36-.32,.24-.7,.41-1.03,.64-.18,.13-.31,.32-.46,.48h0s0,0,0,0c-.34,.16-.68,.31-1.01,.47,0,0,0,0-.01,0,0,0,0,0,0,0-.73-.39-2.31-.19-2.94,.35-.13,.11-.32,.16-.5,.21-.88,.25-1.86-.18-2.72,.52-.42,.34-1.14,.33-1.73,.43-.16,.03-.43-.04-.52-.16-.38-.47-.67-.95-1.32-1.22-.49-.2-.93-.43-1.48-.42-.38,0-.76-.07-1.03-.1-.28-.42-.52-.79-.76-1.15-.35-.52-.85-.94-.93-1.61-.1-.86-.61-1.52-1.19-2.07-.91-.88-1.49-1.93-1.91-3.09-.07-.18-.04-.44,.03-.63,.17-.4,.19-.71-.2-1.02-.6-.48-.98-1.11-1.07-1.9-.04-.32-.17-.63-.21-.96-.03-.23,.02-.47,.05-.7,.07-.45,.16-.9,.22-1.35,.03-.23-.04-.47-.02-.7,.08-1.06,.14-2.12,.28-3.16,.18-1.28,.42-2.54,1.07-3.7,.27-.47,.36-1.05,.51-1.59,.04-.13-.02-.29-.03-.43-.17,.03-.38,.02-.51,.11-.26,.19-.49,.14-.67-.05-.34-.38-.78-.38-1.24-.42-.38-.03-.77-.1-1.12-.25-.65-.26-1.25-.62-1.9-.86-.29-.11-.51-.22-.64-.51-.28-.59-.6-1.15-.88-1.73-.05-.1-.03-.24-.05-.36-.05-.42-.08-.85-.18-1.27-.04-.17-.21-.33-.34-.47-.3-.32-.61-.62-.9-.94-.31-.34-.6-.7-.89-1.05-.1-.12-.22-.23-.28-.36-.25-.53-.46-1.09-.72-1.61-.39-.78-.62-1.66-1.45-2.16-.31-.19-.5-.6-.81-.79-.34-.21-.45-.69-.98-.69-.73-.01-1.46-.16-2.2-.25-.1-.01-.21,0-.3,.04-.22,.09-.44,.18-.64,.3-.21,.13-.46,.27-.57,.48-.21,.38-.35,.8-.47,1.21-.28,.99-1.01,1.24-1.83,.66-.4-.28-.87-.45-1.3-.69-.27-.15-.52-.32-.78-.49-.15-.1-.28-.25-.44-.33-.75-.36-1.03-1.07-1.1-1.78-.08-.84-.48-1.5-.93-2.12-.27-.38-.82-.54-1.19-.86-.49-.42-.93-.91-1.41-1.35-.25-.23-.53-.43-.78-.65-.23-.21-.53-.4-.66-.67-.22-.47-.54-.64-1.03-.63-1.34,0-2.68,0-4.02,0-1.15,0-1-.11-.99,1,0,.47-.14,.62-.61,.62-2.54-.02-5.08,0-7.63-.01-.28,0-.57-.03-.83-.12-3.48-1.25-6.95-2.52-10.42-3.79-.74-.27-.74-.28-.59-1.06-.18,0-.34-.01-.5,0-2.16,.19-4.31,.38-6.47,.58-.52,.05-.59,.19-.36,.68,.08,.17,.21,.31,.3,.46,.1,.17,.2,.34,.3,.51,.11,.19,.19,.42,.34,.58,.28,.31,.51,.6,.35,1.06-.1,.31,.06,.54,.29,.77,.4,.42,.87,.82,.75,1.52-.02,.09,.1,.24,.19,.32,.45,.4,.89,.78,.68,1.5-.04,.15,.13,.53,.22,.53,.46,.03,.51,.33,.49,.65-.04,.63,.18,1.23,.52,1.65,.42,.5,1.09,.79,1.65,1.16,.24,.16,.54,.26,.73,.46,.82,.86,1.61,1.74,2.39,2.63,.08,.09,.11,.27,.08,.39-.14,.53-.03,1.15-.53,1.56-.07,.05-.06,.2-.08,.3-.1,.02-.22,.02-.3,.07-.35,.26-.72,.24-1.11,.12-.16-.05-.33-.1-.5-.09-.16,0-.31,.09-.47,.13,.1,.16,.18,.35,.31,.47,.51,.5,1.33,.7,1.46,1.56,0,.06,.1,.12,.16,.16,.45,.25,.88,.58,1.36,.72,.37,.11,.57,.3,.78,.59,.19,.27,.41,.55,.82,.19,.28-.25,1,.05,1.2,.38,.11,.19,.28,.35,.43,.52,.59,.7,1.61,.82,2.16,1.64,.41,.62,.65,1.97,.33,2.66-.23,.49-.36,1.02-.56,1.61,.27,.04,.49,.1,.71,.1,.4,.01,.7,.12,.75,.57-.12,.07-.23,.14-.39,.23,.3,.24,.56,.44,.81,.64,.04-.03,.08-.06,.12-.09-.05-.17-.11-.35-.18-.58,.12,.06,.21,.08,.27,.13,1.03,.91,2.32,1.51,3.18,2.64,.08,.1,.23,.17,.36,.22,.63,.23,.88,.75,1.03,1.35,.07,.27,.12,.55,.22,.81,.2,.49,.53,.55,.94,.23,.25-.19,.51-.36,.76-.53,.63-.43,.6-1.45-.03-1.86-.16-.1-.27-.31-.36-.49-.16-.31-.23-.67-.43-.94-.18-.24-.48-.38-.73-.57-.27-.21-.53-.43-.8-.64-.04,.02-.08,.05-.12,.07,.03,.26,.06,.53,.09,.79,0,0,0,0,0,.01,0,0,0,0,0,0-.15-.07-.3-.15-.45-.21-.51-.22-.88-1.05-.66-1.56,.2-.46,.1-.82-.21-1.2-.23-.28-.39-.62-.56-.95-.14-.27-.19-.6-.39-.82-.44-.5-.85-.97-.79-1.69,.01-.13-.02-.28-.07-.41-.19-.52-.39-1.04-.59-1.57-.2-.53-.47-.98-1.14-.99-.09,0-.25-.24-.24-.35,.06-.34-.09-.48-.37-.6-.12-.05-.18-.23-.27-.35-.35-.42-.31-1.11-.95-1.31-.53-.17-.72-.58-.8-1.09-.08-.52-.18-1.04-.32-1.55-.04-.14-.24-.22-.37-.34-.15-.13-.4-.24-.42-.39-.12-.74-.73-.98-1.26-1.32-.19-.67-.47-1.24-1-1.77-.62-.6-1.46-.93-1.95-1.67-.27-.4-.47-.77-.48-1.27-.02-.69-.13-1.38-.2-2.07,0-.09-.05-.19-.11-.25-.68-.73-.37-1.56-.2-2.34,.11-.49,.47-.54,.88-.24,.25,.18,.49,.41,.77,.51,.25,.09,.55,.08,.83,.06,.15-.01,.31-.22,.43-.19,.18,.04,.44,.18,.48,.32,.18,.68,.72,.73,1.28,.88,.68,.18,.71,.33,.52,.89-.23,.68,.01,1.23,.42,1.77,.26,.35,.55,.79,.55,1.19,0,.85,.58,1.37,.91,2.03,.1,.2,.12,.43,.21,.63,.06,.13,.16,.26,.27,.35,.08,.07,.2,.08,.3,.12,.03,.04,.05,.09,.08,.13-1.18-.13-.84,.8-1.13,1.38,.29,.11,.57,.33,.79,.28,.22-.06,.37-.38,.6-.65,.18,.24,.36,.49,.56,.74,.29,.38,.52,.87,.91,1.08,.48,.26,.72,.64,1.01,1.04,.2,.28,.48,.51,.77,.72,.19,.14,.43,.19,.65,.28,.18-.07,.42-.14,.55-.05,.13,.08,.18,.33,.21,.51,.03,.21-.06,.46,.02,.64,.13,.32,.39,.58,.54,.89,.18,.37,.47,.63,.86,.63,.63-.01,.75,.35,.84,.85,.09,.51,.39,.74,.91,.65,.51-.1,.76,.23,.9,.55,.12,.26,.03,.64-.03,.95-.04,.2-.21,.38-.32,.57-.2,.35-.09,.98,.21,1.21,.2,.16,.43,.28,.6,.47,.35,.4,.72,.74,1.31,.67,.07,0,.14,.05,.21,.09,.25,.15,.5,.32,.75,.47,.33,.19,.66,.37,.99,.56-.02,.04-.05,.08-.07,.12-.16-.1-.31-.19-.51-.31,.35,1.03,1.37,2.23,2.46,2.29-.36,.38-.03,.53,.2,.71,.21,.17,.42,.32,.62,.49,.33,.3,.68,.59,.97,.93,.34,.39,.64,.83,.96,1.25,.09,.12,.2,.24,.3,.35,.5,.59,.94,1.24,1.51,1.75,.69,.61,.99,1.32,1.06,2.2,.03,.33,.12,.67,.25,.97,.25,.55,.49,1.13,1.1,1.28-.02,.28-.07,.48-.04,.68,.05,.39-.05,.68-.34,.96-.21,.2-.35,.47-.57,.77,.24,.06,.37,.07,.47,.13,.13,.07,.24,.18,.36,.28-.1,.1-.18,.24-.3,.3-.17,.07-.36,.07-.55,.12-.48,.12-.56,.37-.27,.77,.09,.12,.15,.27,.22,.4,.15,.32,.25,.67,.45,.95,.31,.46,.68,.88,1.04,1.3,.21,.24,.41,.53,.67,.67,.95,.49,2,.8,2.86,1.47,.46,.36,.8,.88,1.21,1.31,.18,.19,.38,.41,.62,.51,.56,.23,1.14,.41,1.72,.59,.58,.18,1.17,.34,1.75,.5,.08,.02,.2,.03,.27,0,.48-.28,.78,.02,1.09,.32,.25,.24,.5,.5,.78,.71,.48,.36,.97,.7,1.46,1.04,.14,.1,.29,.18,.45,.24,.57,.21,1.15,.39,1.72,.62,.56,.23,1.09,.52,1.64,.76,.33,.15,.67,.28,1.02,.38,.98,.28,2.08,.21,2.84,1.08,.1,.12,.3,.15,.46,.22,.56,.25,1.12,.51,1.69,.75,.25,.1,.52,.16,.78,.23,.6,.16,1.25,.1,1.83,.47,.77,.49,1.66,.65,2.55,.41,.62-.17,1.22-.46,1.82-.72,.37-.17,.72-.4,1.08-.58,.23-.11,.49-.18,.74-.26,.16-.05,.32-.1,.57-.18-.19-.13-.28-.2-.4-.28,.13-.1,.24-.18,.27-.2,.32,.1,.56,.18,.78,.25-.05,.05-.14,.15-.22,.24,.65,.21,1.27,.42,1.9,.62,1.64,.53,2.69,1.86,3.91,2.94,.65,.57,1.24,1.2,1.86,1.8,.03-.02,.08-.03,.08-.05,.08-.69,.57-1.32,.2-2.07-.07-.14-.03-.4,.06-.56,.3-.57,.65-1.1,.94-1.67,.18-.35,.41-.49,.81-.48,1,.02,2,.02,2.99,0,.16,0,.41-.11,.44-.23,.09-.31,.09-.65,.13-.97,0-.01-.05-.04-.07-.05-.42-.14-.6-.48-.8-.84-.08-.15-.25-.3-.41-.36-.66-.28-1.07-.81-1.53-1.34q1.06-.08,1.07-1.14s0-.06,0-.09c-.07-.48,.15-.61,.61-.61,1.5,.02,2.99,.01,4.49,0,.22,0,.47,.06,.54-.29,.06-.31,.29-.31,.49-.15,.25,.19,.44,.12,.57-.12,.23-.39,.45-.79,.67-1.19-.12,.15-.25,.29-.36,.44,.11-.15,.24-.29,.36-.44,0,0,0,0,0,0,0,0,.01-.01,.01-.02h0s0,0,0,0c.14-.14,.3-.41,.43-.4,.47,.02,.66-.25,.83-.6,.08-.17,.2-.32,.31-.48,.04,.02,.08,.03,.12,.05-.03,.17-.04,.35-.1,.51-.11,.27-.1,.47,.18,.62,.12,.07,.23,.17,.33,.26,.02,.02,.04,.04,.06,.06h0c.13,.4,.24,.1,.28-.03,.16-.43,.29-.88,.42-1.32,.19-.62,.36-1.24,.56-1.91h-.59c.35-.24,.82-.23,.74-.74-.28-.05-.57-.1-.78-.14,.25-.43,.61-.78,.66-1.17,.1-.83,.51-1.45,1.08-2,.2-.2,.45-.37,.58-.61Z"/><path class="cls-3" d="M93.71,43.65c0,.08,.05,.2,.12,.23,.06,.03,.2,0,.24-.06,.21-.27,.4-.56,.64-.91-.7-.1-1.06,.21-1,.74Z"/></g><path id="MEX2711" class="cls-1" d="M26.08,26.56l.17,.06,.04,.02,.06,.09,.04,.03-.06,.04-.1-.05-.11-.07-.09-.04h-.05s-.02-.02-.02-.02h-.23l-.04-.02-.02-.05h.4Zm6.05-.69l-.11,.11-.05,.06-.03,.07-.04,.07-.05,.06-.06,.05-.06,.07-.06,.12-.04,.16-.03,.16-.02,.15-.03,.16-.02,.17v.16l.03,.16,.05,.15,.04,.15,.04,.15,.06,.14,.02,.06,.02,.07,.02,.07,.04,.05,.04,.03,.11,.03,.05,.03,.02,.04v.04s0,.05,0,.05v.05l.03,.06,.03,.03,.05,.02h.06s.05,0,.05,0h.09s.04,.04,.04,.04l.03,.06,.03,.06,.04,.05,.06,.03,.11,.07,.06,.11,.04,.13,.07,.12,.08,.07,.04,.04,.02,.06,.02,.05,.02,.04,.04,.08,.03,.06,.02,.06v.06s.02,.07,.02,.07v.16s.04,.05,.04,.05l.11,.11,.06,.05,.05,.05,.06,.05,.05,.02h.26s.05-.03,.05-.03l.04-.04,.04-.05,.03-.05,.04-.05,.1-.08,.12-.06,.11-.02,.13,.02,.04,.02,.03,.02,.04,.02,.03,.03,.08,.07,.23,.21,.06,.08,.04,.1,.04,.11,.03,.09,.07,.18,.04,.09,.05,.08,.06,.06h.06s.08,0,.08,0l.07-.03-.03,.11-.04,.11-.05,.1-.05,.11-.02,.13v.14s.03,.14,.03,.14l.02,.13,.03,.24,.02,.06,.03,.05,.03,.06,.03,.06v.07s.03,.09,.03,.09l.03,.07,.06,.05,.04,.02h.05s.05,.02,.05,.02h.05s.02,.09,.02,.09l.05,.07,.05,.07,.04,.08v.03s-.02,.03-.02,.03v.03s.04,.05,.04,.05v.03s0,.04,0,.04v.03s-.03,.06-.03,.06l.02,.03,.03,.04,.02,.04v.04s0,.04,0,.04v.08l.03,.05,.05,.03,.05,.03,.04,.04,.02,.03v.03s.02,.03,.02,.03l.03,.02,.04,.04,.06,.05,.05,.06,.05,.05,.11,.06h.12s.14,0,.14,0h.12s.02,.38,.02,.38h-.08s-.07,0-.07,0l-.05,.03-.04,.06-.02,.07v.04s0,.04,0,.04l.02,.06,.05,.07v.03l-.02,.05-.05,.04-.06,.05-.06,.05-.05,.04-.05,.06-.06,.06-.05,.08-.02,.07v.03s.03,.02,.03,.02l.02,.02,.06,.04,.02,.02,.02,.03,.02,.05,.02,.03,.03,.02h.04s.03,.03,.03,.03v.02l-.02,.05v.02h0s.04,.02,.04,.02h0s.03,.09,.03,.09l.03,.09,.02,.09,.02,.08v.12l-.08,.07h-.1s-.11-.02-.11-.02l-.04-.04-.05-.04-.04-.04-.05-.03-.07-.02-.07,.02-.07,.02h-.06s.03,.13,.03,.13l.02,.07v.06s-.06,.04-.06,.04l-.05-.05-.09-.15,.02-.02-.02-.05-.03-.04-.03-.02-.03,.04h-.02l-.38-.6-.14-.18-.05-.05-.13-.09-.02-.02h0s0-.02,0-.02h-.02s-.06-.07-.06-.07l-.03,.03-.61-.76-.06-.02-.03-.02-.06-.05-.29-.33-.05-.03h-.04s-.03,.03-.03,.03h-.03s-.04,0-.04,0v-.21s-.12-.17-.12-.17l-.06-.04v-.03l.04-.03v-.02s-.02-.02-.02-.02v-.02s-.22-.27-.22-.27l-.06-.04-.13-.12v-.02s-.03-.02-.03-.02l-.03-.08-.03-.04-.08-.04-.05-.06-.07-.11-.09-.1-.06-.04-.13-.05-.03-.07-.03-.16-.05-.07-.05-.06-.05-.06-.04-.15-.75-.78-.27-.21-.34-.25-.2-.14-.04-.04-.17-.18-.12-.08-.19-.19-.72-.44-.06-.06-.02-.06v-.04s-.02-.02-.02-.02l-.09-.02-.24-.15-.26-.24-.03-.05v-.05s-.03-.13-.03-.13v-.06s-.04-.06-.04-.06l-.04-.05-.03-.02h-.02s0-.04,0-.04l-.09-.15-.12-.07-.09-.14-.24-.49-.08-.1-.11-.1-.06-.03-.03-.02-.02-.04h.14s-.07-.16-.07-.16h-.08s-.06-.04-.06-.04l-.11,.02-.04,.06v-.03s0-.16,0-.16v-.05l-.03-.07-.46-.25-.19-.12-.13-.04h-.13s-.11,0-.11,0l.07-.06-.1-.03h-.08s-.36-.09-.36-.09l-.46-.19-.1-.07-.16-.17,.07-.04-.12-.13-.04-.04-.34-.29v.04s.03,.04,.03,.04l.03,.03,.21,.18,.05,.08v.06s-.08-.06-.08-.06l-.07-.1-.08-.09-.11-.03h-.34l-.12-.03,.07-.05,.09-.03h.1l.09,.04v-.06s0-.06,0-.06v-.02s-.24-.22-.24-.22l-.03,.02-.02,.04v.23s-.05-.05-.05-.05l.02-.07v-.16s-.03-.04-.03-.04l-.07-.02v-.06s0-.08,0-.08l.03-.13,.02-.03h0v-.12s-.02-.04-.02-.04l-.02-.05-.02-.08v-.06s0-.16,0-.16v-.05s.12-.2,.12-.2l.12-.13,.06-.07,.04-.14,.11-.22h.03s0,.04,0,.04v.11s-.02,.04-.02,.04v.04s0,.03,0,.03h.03s.03-.02,.03-.02v-.04s.03-.11,.03-.11l.1-.18h.02s.12-.09,.12-.09l.06-.04,.03-.03v.05l-.02,.06-.04,.03v.02l.06,.03,.15,.13h.05s0-.03,0-.03l-.04-.08v-.05s.02-.02,.02-.02h.03s.02-.03,.02-.03v-.05s-.1,0-.1,0l-.07-.15,.03-.06,.08-.07,.31-.24,.3-.24,.3-.24,.3-.25,.3-.26,.31-.25,.02-.05v-.23l.02-.09,.03-.09,.03-.08,.03-.09,.08-.08,.07-.08,.07-.09,.07-.1,.04,.07,.07,.03h.08s.07-.02,.07-.02l.07,.02,.05,.03,.03,.06,.04,.06,.1,.13,.16,.07,.17,.04,.15,.03,.08,.04,.02,.08v.18l.05,.11,.07,.11,.07,.1,.07,.1,.06,.08,.13,.13,.06,.08,.06,.16,.02,.21,.02,.21,.02,.19,.04,.31,.04,.31v.1s.04,.05,.04,.05l.06,.03,.1,.02,.13,.02,.21,.05,.63,.14,.09,.02,.08,.06,.05,.08,.03,.1v.06s.02,.05,.02,.05v.06s.03,.05,.03,.05v.05s.02,.04,.02,.04l.03,.03h.04s.03,.03,.03,.03l.03,.04v.05s.02,.04,.02,.04v.05s0,.05,0,.05v.05s.03,.02,.03,.02l.07,.02,.09,.05,.08,.05,.08,.06,.08,.07,.05,.07,.06,.08,.05,.07,.06,.06,.1,.05,.1,.06,.09,.06,.09,.08h0Z"/></g></g></svg>