<?xml version="1.0" encoding="UTF-8"?><svg id="estados" xmlns="http://www.w3.org/2000/svg" viewBox="0 0 306.04 276.52"><defs><style>.cls-1,.cls-2{fill:#3bb1e6;}.cls-3{fill:#fff;}.cls-4{stroke-width:1.53px;}.cls-4,.cls-2,.cls-5{stroke:#fff;}.cls-4,.cls-5{fill:none;opacity:.67;stroke-miterlimit:10;}.cls-6{fill:#0a2f3a;opacity:.5;}.cls-2{stroke-linecap:round;stroke-linejoin:round;stroke-width:1.37px;}.cls-5{stroke-width:1.67px;}</style></defs><g id="slp-icono"><circle class="cls-6" cx="136.96" cy="151.48" r="97.03"/><circle class="cls-5" cx="136.96" cy="151.48" r="104.09"/><polyline class="cls-4" points="229.53 104.17 271.63 73.79 306.09 73.79"/><polyline class="cls-4" points="229.02 199.66 271.63 220.23 306.09 220.23"/><polyline class="cls-4" points="240.77 150.49 271.63 150.49 306.09 150.49"/><g><path class="cls-1" d="M99.98,200.87c-1.88-.54-3.25-1.2-4.1-1.99-.86-.79-1.28-1.76-1.28-2.92,0-1.31,.52-2.39,1.57-3.25,1.05-.86,2.41-1.28,4.08-1.28,1.14,0,2.16,.22,3.05,.66,.89,.44,1.59,1.05,2.08,1.83,.49,.78,.74,1.62,.74,2.54h-2.2c0-1.01-.32-1.8-.96-2.38-.64-.58-1.54-.86-2.7-.86-1.08,0-1.92,.24-2.53,.71-.6,.48-.91,1.14-.91,1.98,0,.68,.29,1.25,.86,1.72s1.55,.9,2.93,1.29c1.38,.39,2.46,.82,3.24,1.29s1.36,1.01,1.73,1.64c.38,.62,.56,1.36,.56,2.2,0,1.35-.52,2.42-1.57,3.24-1.05,.81-2.45,1.21-4.21,1.21-1.14,0-2.21-.22-3.2-.66-.99-.44-1.75-1.04-2.29-1.8-.54-.76-.8-1.62-.8-2.59h2.2c0,1,.37,1.8,1.11,2.38,.74,.58,1.73,.87,2.97,.87,1.16,0,2.04-.24,2.66-.71s.92-1.11,.92-1.93-.29-1.44-.86-1.89c-.57-.44-1.61-.88-3.1-1.32Z"/><path class="cls-1" d="M116.24,208.28c-.12-.24-.22-.68-.3-1.3-.98,1.02-2.15,1.53-3.51,1.53-1.22,0-2.22-.34-3-1.03-.78-.69-1.17-1.56-1.17-2.62,0-1.29,.49-2.28,1.47-3s2.35-1.07,4.13-1.07h2.05v-.97c0-.74-.22-1.33-.66-1.76-.44-.44-1.09-.66-1.95-.66-.75,0-1.38,.19-1.89,.57-.51,.38-.76,.84-.76,1.38h-2.12c0-.62,.22-1.21,.66-1.79,.44-.57,1.03-1.03,1.78-1.36s1.57-.5,2.47-.5c1.42,0,2.54,.36,3.34,1.07,.81,.71,1.22,1.69,1.26,2.94v5.68c0,1.13,.14,2.04,.43,2.7v.18h-2.21Zm-3.5-1.61c.66,0,1.29-.17,1.88-.51,.59-.34,1.02-.79,1.29-1.33v-2.53h-1.65c-2.59,0-3.88,.76-3.88,2.27,0,.66,.22,1.18,.66,1.55,.44,.37,1.01,.56,1.7,.56Z"/><path class="cls-1" d="M123.33,195.93l.07,1.55c.94-1.19,2.18-1.78,3.7-1.78,2.61,0,3.93,1.47,3.95,4.42v8.16h-2.11v-8.17c0-.89-.21-1.55-.61-1.97-.4-.43-1.02-.64-1.87-.64-.68,0-1.29,.18-1.8,.55-.52,.37-.92,.84-1.21,1.44v8.8h-2.11v-12.35h2Z"/><path class="cls-1" d="M142.54,206.48h7.87v1.79h-10.08v-16.61h2.2v14.82Z"/><path class="cls-1" d="M159.71,207.06c-.82,.97-2.03,1.45-3.62,1.45-1.32,0-2.32-.38-3.01-1.15-.69-.76-1.04-1.9-1.04-3.4v-8.03h2.11v7.98c0,1.87,.76,2.81,2.28,2.81,1.61,0,2.69-.6,3.22-1.8v-8.98h2.11v12.35h-2.01l-.05-1.22Z"/><path class="cls-1" d="M164.98,192.65c0-.34,.1-.63,.31-.87,.21-.24,.52-.35,.93-.35s.72,.12,.94,.35c.21,.24,.32,.53,.32,.87s-.11,.63-.32,.86c-.21,.23-.52,.34-.94,.34s-.72-.11-.93-.34c-.21-.23-.31-.51-.31-.86Zm2.28,15.62h-2.11v-12.35h2.11v12.35Z"/><path class="cls-1" d="M177.83,205c0-.57-.22-1.01-.64-1.33-.43-.32-1.18-.59-2.25-.82s-1.92-.5-2.54-.82c-.63-.32-1.09-.7-1.39-1.14s-.45-.97-.45-1.57c0-1.01,.43-1.87,1.28-2.57,.86-.7,1.95-1.05,3.28-1.05,1.4,0,2.54,.36,3.41,1.08,.87,.72,1.31,1.65,1.31,2.77h-2.12c0-.58-.25-1.08-.74-1.5-.49-.42-1.11-.63-1.85-.63s-1.37,.17-1.8,.5c-.43,.33-.65,.77-.65,1.31,0,.51,.2,.89,.6,1.15,.4,.26,1.13,.51,2.19,.74,1.05,.24,1.91,.52,2.56,.84,.65,.33,1.14,.72,1.45,1.18,.32,.46,.47,1.02,.47,1.68,0,1.1-.44,1.99-1.32,2.65-.88,.67-2.03,1-3.43,1-.99,0-1.86-.17-2.62-.52-.76-.35-1.36-.84-1.79-1.47-.43-.63-.64-1.31-.64-2.04h2.11c.04,.71,.32,1.27,.85,1.68,.53,.41,1.23,.62,2.09,.62,.8,0,1.44-.16,1.92-.49,.48-.32,.72-.75,.72-1.29Z"/><path class="cls-1" d="M108,226.77v6.5h-2.19v-16.61h6.13c1.82,0,3.24,.46,4.27,1.39,1.03,.93,1.55,2.16,1.55,3.69,0,1.61-.5,2.85-1.51,3.73s-2.45,1.31-4.33,1.31h-3.91Zm0-1.79h3.94c1.17,0,2.07-.28,2.69-.83,.62-.55,.94-1.35,.94-2.4,0-.99-.31-1.78-.94-2.38s-1.48-.9-2.57-.93h-4.06v6.53Z"/><path class="cls-1" d="M119.52,226.99c0-1.21,.24-2.3,.71-3.26,.48-.97,1.14-1.71,1.99-2.24,.85-.52,1.82-.79,2.9-.79,1.68,0,3.04,.58,4.08,1.75,1.04,1.16,1.56,2.71,1.56,4.64v.15c0,1.2-.23,2.28-.69,3.24-.46,.95-1.12,1.7-1.97,2.23-.86,.53-1.84,.8-2.95,.8-1.67,0-3.03-.58-4.07-1.75-1.04-1.16-1.56-2.7-1.56-4.62v-.15Zm2.12,.25c0,1.37,.32,2.47,.95,3.3s1.49,1.24,2.55,1.24,1.92-.42,2.56-1.26c.63-.84,.95-2.02,.95-3.53,0-1.35-.32-2.45-.96-3.29-.64-.84-1.5-1.26-2.56-1.26s-1.88,.41-2.52,1.24c-.64,.83-.96,2.02-.96,3.56Z"/><path class="cls-1" d="M136.27,217.94v2.99h2.31v1.63h-2.31v7.67c0,.5,.1,.87,.31,1.11s.56,.37,1.05,.37c.24,0,.58-.05,1-.14v1.7c-.56,.15-1.1,.23-1.62,.23-.94,0-1.65-.29-2.13-.86-.48-.57-.72-1.38-.72-2.43v-7.66h-2.25v-1.63h2.25v-2.99h2.11Z"/><path class="cls-1" d="M140.25,226.99c0-1.21,.24-2.3,.71-3.26,.48-.97,1.14-1.71,1.99-2.24,.85-.52,1.82-.79,2.9-.79,1.68,0,3.04,.58,4.08,1.75,1.04,1.16,1.56,2.71,1.56,4.64v.15c0,1.2-.23,2.28-.69,3.24-.46,.95-1.12,1.7-1.97,2.23-.86,.53-1.84,.8-2.95,.8-1.67,0-3.03-.58-4.07-1.75-1.04-1.16-1.56-2.7-1.56-4.62v-.15Zm2.12,.25c0,1.37,.32,2.47,.95,3.3s1.49,1.24,2.55,1.24,1.92-.42,2.56-1.26c.63-.84,.95-2.02,.95-3.53,0-1.35-.32-2.45-.96-3.29-.64-.84-1.5-1.26-2.56-1.26s-1.88,.41-2.52,1.24c-.64,.83-.96,2.02-.96,3.56Z"/><path class="cls-1" d="M161.33,230c0-.57-.22-1.01-.64-1.33-.43-.32-1.18-.59-2.25-.82s-1.92-.5-2.54-.82c-.63-.32-1.09-.7-1.39-1.14s-.45-.97-.45-1.57c0-1.01,.43-1.87,1.28-2.57,.86-.7,1.95-1.05,3.28-1.05,1.4,0,2.54,.36,3.41,1.08,.87,.72,1.31,1.65,1.31,2.77h-2.12c0-.58-.25-1.08-.74-1.5-.49-.42-1.11-.63-1.85-.63s-1.37,.17-1.8,.5c-.43,.33-.65,.77-.65,1.31,0,.51,.2,.89,.6,1.15,.4,.26,1.13,.51,2.19,.74,1.05,.24,1.91,.52,2.56,.84,.65,.33,1.14,.72,1.45,1.18,.32,.46,.47,1.02,.47,1.68,0,1.1-.44,1.99-1.32,2.65-.88,.67-2.03,1-3.43,1-.99,0-1.86-.17-2.62-.52-.76-.35-1.36-.84-1.79-1.47-.43-.63-.64-1.31-.64-2.04h2.11c.04,.71,.32,1.27,.85,1.68,.53,.41,1.23,.62,2.09,.62,.8,0,1.44-.16,1.92-.49,.48-.32,.72-.75,.72-1.29Z"/><path class="cls-1" d="M168.51,215.76h2.56l-3.06,3.35h-1.7s2.2-3.35,2.2-3.35Zm-.02,17.52h-2.12v-12.35h2.12v12.35Z"/></g><path id="SLP" class="cls-2" d="M147.55,112.46c-.14,1.22-.86,2.98-1,4.2,.55-.58,1.39-1.32,2.1-1.7l.5,.1c.12,.56,.07,1.34,.2,1.9,.67,1.71,3.42,2.65,2.8,4.8-.23,1-1.17,1.68-2.1,2-.69,.07-1.46,.58-1.9,1.1l-.1,.4c.19,.41,.51,.95,.8,1.3,.11,.4,.25,.98,.3,1.4,.35,.39,1.01,.57,1.5,.7,1.92,.91,4.23,1.8,6.2,2.6,2.26,.92,4.72,2.07,7.1,2.6l.3-.3c.11-1.17-.45-2.4-.7-3.5l.3-.1c1.55,.53,2.05,2.51,3.4,3.3,.73-.11,1.24-1.15,1.6-1.7,.82,1.33,1.93,3.13,2.5,4.6,.62,1.25,1.04,2.81,2.3,3.6,.94,.33,2.14,.33,3.1,.6,.93,.2,2.08,.57,3,.8,1.28,.44,2.71,1.23,4.1,1.2,.9,.16,1.99,.46,2.9,.2,.35-.31,.72-.83,1-1.2,.92-.65,2.4-.26,3.4-.8l.5-.7c1.55,.97,3.15,1.95,4.5,3.2,1.64,.97,3.83,1.93,5,3.5,1.05,3.27-2.42,6-3,9l-.2,.1-.3-.3-.3,.4c-.31,.04-.7-.14-1-.2-.33-.07-.72,.15-1,.3-.31-.03-1.32-.24-1.6-.3l.1,1c.57,.06,1.34-.25,1.9-.3v.3c-.23,.13-.57,.47-.7,.7l.2,.7-.7,.2c-.01,.68,.5,1.47,1,1.9l1.3-.2c.25,.32,.21,.82,.2,1.2,.19,.05,.62,.22,.8,.3,.31,.74-.31,1.51-.9,1.9-.08,.05-.87,.53-.9,.6-.03,.09-.1,.35-.2,.4-.22-.09-.55-.34-.8-.3-.14,.08-.4,.27-.5,.4v.3l.3,.2-.5,.5-1.2-.2-.5,.4c-.15,.59,0,1.41,0,2-.11,.11-.47,.44-.5,.6,.27,1.29,1.86,1.89,2.9,2.4,.76,.4,1,1.41,1,2.2-.02,.79,.16,1.71,.1,2.5-.73,.35-1.84,.34-2.4,1,.08,1.72,.34,3.71-.1,5.4l-.3-.2c-.41-.08-.75,.2-1,.5-.63,.08-1.12-.14-1.7-.3-.76,.01-1.7,.44-2.4,.7-.67,.49-1.69,.73-2.4,.2-.56-.44-1.54-.52-2-1.1-.36-.5-.37-1.33-.6-1.9-.19-.15-.31-.45-.5-.6-.8-.29-1.93-.27-2.7,.1l-.6,.7c-.47-.61-1.35-.86-2.1-.8,.1-.71,.43-2.37,.4-3.1-1.54-2.6-2.21-6.03-3.1-8.9l-.1,.7c-.37,.68-1.35,.9-1.8,1.5v1.1c-.51,.6-1.03,.78-1.7,.3-.78,.03-.75,.94-.8,1.5-.63,.54-.81,1.52-1.4,2.1-.37,.17-.84-.01-1.2-.1-.43,.13-1.01,.17-1.4,.4,0,0-.4,.6-.4,.6-.92,.29-2.3-.27-3,.5-.79-.07-1.05-1-1.8-1.2-.06-.39-.33-.85-.5-1.2-.15-.19-.45-.31-.6-.5-.47-.54-1.15-1.01-1.8-1.3l-.9,.3c-.54,.82-.92,2.1-1.3,3-.85-.38-1.87-1.14-2.8-1.3-.62,.02-1.88-.03-2.5-.1-1.25-.79-2.45-2.41-3.7-3.2-.74-.4-2.53-.89-3.4-1.2-.5-.14-1.41-.38-1.9-.5-.54-.36-1.27-.71-1.9-.9-.79-.39-1.61-.95-2.5-1.1-.26-.34-.65-.58-1.1-.5-.3,.22-.77,.39-1,.7-.38,.59-.75,1.31-.9,2-.34,.89-.22,2.06-.7,2.9-1.01,.97-2.73,.65-4,.7-1.38-.92-2.7-2.4-4.1-3.3-2.17-1.64-4.43-3.64-6.4-5.5-1.61-.61-3.49-.88-5.2-.6-1.62,.44-3.75,1.04-4.8-.7-.2-.43-.38-1.04-.2-1.5,.03-.36-.36-.87-.6-1.1-2.06-.9-3.58,1.85-5.6,1.5l-1.2-.7c1.85-2.48,4.35-5.75,6.1-8.3,.23-1.02-.27-3.63-.3-4.7-.26-1.32-1.1-3.29-1.4-4.6-.16-.94,.39-1.83,1.1-2.4,.49-.23,1.16-.57,1.5-1,.05-.5-.71-2.13-.9-2.6-.33-.74-.62-1.89-1.3-2.4-.98-.18-2.21-.07-3.2-.1-1.13-.03-2.73-.04-3.6,.8-.5,.87-.84,2.22-1.5,3-.46,.11-1.24,.25-1.7,.2-.55,.16-1.22,.8-1.7,1.1-3.74,1.68-4.89-5.94-7.9-7.1-.36,.03-.83-.05-1.1-.3-.03-.18-1.44-1.45-1.6-1.6-1.23-1.05-2.75-2.6-3.4-4.1-.58-1.62-1.43-3.27-2.2-4.8-.41-1.19,.75-2.2,.9-3.3-.19-1.18-.61-2.64-.9-3.8-.35-.56-1.06-.92-1.5-1.4-.06-.37,.07-1,.3-1.3l.5-.1c.24,.14,.72,.25,1,.2,1.2-1.19,.62-3.5,1.7-4.8,.66,.03,1.49-.29,2,.3-.09,.44-.24,1.04-.2,1.5l.6,.3c2.18-.4,4.07-2.2,5.5-3.8,1.32-1.79,2.51-4.08,4.6-5.1,.44-.26,1.12-.18,1.6-.3,.97-.32,.97-1.59,1.5-2.3,1.19-1.43,3.21-2.33,4.8-3.2,1.97-1.17,3.99-2.99,5.4-4.8,.61-.9,1.46-1.92,2.4-2.5,.64-.2,1.59-.2,2.1-.7,1.53-2.73,3.44-6.23,5.1-8.9,1.44-2.69,3.1-6.03,6.2-7.1,.6-.91,1.02-2.36,1.3-3.4,1.62,1.75,3.04,4.22,4.5,6.1,.57,.92,1.65,1.69,2.1,2.7,1.03,4.24-.44,8.98,1.2,13.1,.76,1.2,2.06,2.66,2.9,3.8,.51,1.77,.14,3.74-.2,5.5,.21,1.66,.79,3.49,1.2,5.1,.32,1.09-.68,2.18-.5,3.3,.28,.63,.58,1.39,.5,2.1,.05,1.64-.29,3.83,1.1,5,.71,.38,1.83,.5,2.6,.7l.3-.1c.21-.55,.06-1.52,.1-2.1,2.67,0,5.86-.1,8.5,.4Z"/><g><g><path class="cls-3" d="M94.07,42.29c.23-.43,.53-.9,.53-1.36,0-.45-.13-.96-.61-1.31-.43-.31-.75-.37-1.12,.1,.1,.03,.19,.06,.29,.09,0,.04-.02,.08-.02,.11-.55-.11-1.12-.15-1.65-.33-.89-.32-1.78-.27-2.58,.07-.81,.34-1.62,.54-2.47,.61-.95,.09-1.84,.3-2.64,.83-.21,.14-.4,.39-.5,.63-.4,.91-.32,1.89-.33,2.86,0,.2-.06,.48-.2,.57-.39,.26-.52,.65-.49,1.05,.04,.7-.43,1.02-.89,1.36-.32,.24-.7,.41-1.03,.64-.18,.13-.31,.32-.46,.48h0s0,0,0,0c-.34,.16-.68,.31-1.01,.47,0,0,0,0-.01,0,0,0,0,0,0,0-.73-.39-2.31-.19-2.94,.35-.13,.11-.32,.16-.5,.21-.88,.25-1.86-.18-2.72,.52-.42,.34-1.14,.33-1.73,.43-.16,.03-.43-.04-.52-.16-.38-.47-.67-.95-1.32-1.22-.49-.2-.93-.43-1.48-.42-.38,0-.76-.07-1.03-.1-.28-.42-.52-.79-.76-1.15-.35-.52-.85-.94-.93-1.61-.1-.86-.61-1.52-1.19-2.07-.91-.88-1.49-1.93-1.91-3.09-.07-.18-.04-.44,.03-.63,.17-.4,.19-.71-.2-1.02-.6-.48-.98-1.11-1.07-1.9-.04-.32-.17-.63-.21-.96-.03-.23,.02-.47,.05-.7,.07-.45,.16-.9,.22-1.35,.03-.23-.04-.47-.02-.7,.08-1.06,.14-2.12,.28-3.16,.18-1.28,.42-2.54,1.07-3.7,.27-.47,.36-1.05,.51-1.59,.04-.13-.02-.29-.03-.43-.17,.03-.38,.02-.51,.11-.26,.19-.49,.14-.67-.05-.34-.38-.78-.38-1.24-.42-.38-.03-.77-.1-1.12-.25-.65-.26-1.25-.62-1.9-.86-.29-.11-.51-.22-.64-.51-.28-.59-.6-1.15-.88-1.73-.05-.1-.03-.24-.05-.36-.05-.42-.08-.85-.18-1.27-.04-.17-.21-.33-.34-.47-.3-.32-.61-.62-.9-.94-.31-.34-.6-.7-.89-1.05-.1-.12-.22-.23-.28-.36-.25-.53-.46-1.09-.72-1.61-.39-.78-.62-1.66-1.45-2.16-.31-.19-.5-.6-.81-.79-.34-.21-.45-.69-.98-.69-.73-.01-1.46-.16-2.2-.25-.1-.01-.21,0-.3,.04-.22,.09-.44,.18-.64,.3-.21,.13-.46,.27-.57,.48-.21,.38-.35,.8-.47,1.21-.28,.99-1.01,1.24-1.83,.66-.4-.28-.87-.45-1.3-.69-.27-.15-.52-.32-.78-.49-.15-.1-.28-.25-.44-.33-.75-.36-1.03-1.07-1.1-1.78-.08-.84-.48-1.5-.93-2.12-.27-.38-.82-.54-1.19-.86-.49-.42-.93-.91-1.41-1.35-.25-.23-.53-.43-.78-.65-.23-.21-.53-.4-.66-.67-.22-.47-.54-.64-1.03-.63-1.34,0-2.68,0-4.02,0-1.15,0-1-.11-.99,1,0,.47-.14,.62-.61,.62-2.54-.02-5.08,0-7.63-.01-.28,0-.57-.03-.83-.12-3.48-1.25-6.95-2.52-10.42-3.79-.74-.27-.74-.28-.59-1.06-.18,0-.34-.01-.5,0-2.16,.19-4.31,.38-6.47,.58-.52,.05-.59,.19-.36,.68,.08,.17,.21,.31,.3,.46,.1,.17,.2,.34,.3,.51,.11,.19,.19,.42,.34,.58,.28,.31,.51,.6,.35,1.06-.1,.31,.06,.54,.29,.77,.4,.42,.87,.82,.75,1.52-.02,.09,.1,.24,.19,.32,.45,.4,.89,.78,.68,1.5-.04,.15,.13,.53,.22,.53,.46,.03,.51,.33,.49,.65-.04,.63,.18,1.23,.52,1.65,.42,.5,1.09,.79,1.65,1.16,.24,.16,.54,.26,.73,.46,.82,.86,1.61,1.74,2.39,2.63,.08,.09,.11,.27,.08,.39-.14,.53-.03,1.15-.53,1.56-.07,.05-.06,.2-.08,.3-.1,.02-.22,.02-.3,.07-.35,.26-.72,.24-1.11,.12-.16-.05-.33-.1-.5-.09-.16,0-.31,.09-.47,.13,.1,.16,.18,.35,.31,.47,.51,.5,1.33,.7,1.46,1.56,0,.06,.1,.12,.16,.16,.45,.25,.88,.58,1.36,.72,.37,.11,.57,.3,.78,.59,.19,.27,.41,.55,.82,.19,.28-.25,1,.05,1.2,.38,.11,.19,.28,.35,.43,.52,.59,.7,1.61,.82,2.16,1.64,.41,.62,.65,1.97,.33,2.66-.23,.49-.36,1.02-.56,1.61,.27,.04,.49,.1,.71,.1,.4,.01,.7,.12,.75,.57-.12,.07-.23,.14-.39,.23,.3,.24,.56,.44,.81,.64,.04-.03,.08-.06,.12-.09-.05-.17-.11-.35-.18-.58,.12,.06,.21,.08,.27,.13,1.03,.91,2.32,1.51,3.18,2.64,.08,.1,.23,.17,.36,.22,.63,.23,.88,.75,1.03,1.35,.07,.27,.12,.55,.22,.81,.2,.49,.53,.55,.94,.23,.25-.19,.51-.36,.76-.53,.63-.43,.6-1.45-.03-1.86-.16-.1-.27-.31-.36-.49-.16-.31-.23-.67-.43-.94-.18-.24-.48-.38-.73-.57-.27-.21-.53-.43-.8-.64-.04,.02-.08,.05-.12,.07,.03,.26,.06,.53,.09,.79,0,0,0,0,0,.01,0,0,0,0,0,0-.15-.07-.3-.15-.45-.21-.51-.22-.88-1.05-.66-1.56,.2-.46,.1-.82-.21-1.2-.23-.28-.39-.62-.56-.95-.14-.27-.19-.6-.39-.82-.44-.5-.85-.97-.79-1.69,.01-.13-.02-.28-.07-.41-.19-.52-.39-1.04-.59-1.57-.2-.53-.47-.98-1.14-.99-.09,0-.25-.24-.24-.35,.06-.34-.09-.48-.37-.6-.12-.05-.18-.23-.27-.35-.35-.42-.31-1.11-.95-1.31-.53-.17-.72-.58-.8-1.09-.08-.52-.18-1.04-.32-1.55-.04-.14-.24-.22-.37-.34-.15-.13-.4-.24-.42-.39-.12-.74-.73-.98-1.26-1.32-.19-.67-.47-1.24-1-1.77-.62-.6-1.46-.93-1.95-1.67-.27-.4-.47-.77-.48-1.27-.02-.69-.13-1.38-.2-2.07,0-.09-.05-.19-.11-.25-.68-.73-.37-1.56-.2-2.34,.11-.49,.47-.54,.88-.24,.25,.18,.49,.41,.77,.51,.25,.09,.55,.08,.83,.06,.15-.01,.31-.22,.43-.19,.18,.04,.44,.18,.48,.32,.18,.68,.72,.73,1.28,.88,.68,.18,.71,.33,.52,.89-.23,.68,.01,1.23,.42,1.77,.26,.35,.55,.79,.55,1.19,0,.85,.58,1.37,.91,2.03,.1,.2,.12,.43,.21,.63,.06,.13,.16,.26,.27,.35,.08,.07,.2,.08,.3,.12,.03,.04,.05,.09,.08,.13-1.18-.13-.84,.8-1.13,1.38,.29,.11,.57,.33,.79,.28,.22-.06,.37-.38,.6-.65,.18,.24,.36,.49,.56,.74,.29,.38,.52,.87,.91,1.08,.48,.26,.72,.64,1.01,1.04,.2,.28,.48,.51,.77,.72,.19,.14,.43,.19,.65,.28,.18-.07,.42-.14,.55-.05,.13,.08,.18,.33,.21,.51,.03,.21-.06,.46,.02,.64,.13,.32,.39,.58,.54,.89,.18,.37,.47,.63,.86,.63,.63-.01,.75,.35,.84,.85,.09,.51,.39,.74,.91,.65,.51-.1,.76,.23,.9,.55,.12,.26,.03,.64-.03,.95-.04,.2-.21,.38-.32,.57-.2,.35-.09,.98,.21,1.21,.2,.16,.43,.28,.6,.47,.35,.4,.72,.74,1.31,.67,.07,0,.14,.05,.21,.09,.25,.15,.5,.32,.75,.47,.33,.19,.66,.37,.99,.56-.02,.04-.05,.08-.07,.12-.16-.1-.31-.19-.51-.31,.35,1.03,1.37,2.23,2.46,2.29-.36,.38-.03,.53,.2,.71,.21,.17,.42,.32,.62,.49,.33,.3,.68,.59,.97,.93,.34,.39,.64,.83,.96,1.25,.09,.12,.2,.24,.3,.35,.5,.59,.94,1.24,1.51,1.75,.69,.61,.99,1.32,1.06,2.2,.03,.33,.12,.67,.25,.97,.25,.55,.49,1.13,1.1,1.28-.02,.28-.07,.48-.04,.68,.05,.39-.05,.68-.34,.96-.21,.2-.35,.47-.57,.77,.24,.06,.37,.07,.47,.13,.13,.07,.24,.18,.36,.28-.1,.1-.18,.24-.3,.3-.17,.07-.36,.07-.55,.12-.48,.12-.56,.37-.27,.77,.09,.12,.15,.27,.22,.4,.15,.32,.25,.67,.45,.95,.31,.46,.68,.88,1.04,1.3,.21,.24,.41,.53,.67,.67,.95,.49,2,.8,2.86,1.47,.46,.36,.8,.88,1.21,1.31,.18,.19,.38,.41,.62,.51,.56,.23,1.14,.41,1.72,.59,.58,.18,1.17,.34,1.75,.5,.08,.02,.2,.03,.27,0,.48-.28,.78,.02,1.09,.32,.25,.24,.5,.5,.78,.71,.48,.36,.97,.7,1.46,1.04,.14,.1,.29,.18,.45,.24,.57,.21,1.15,.39,1.72,.62,.56,.23,1.09,.52,1.64,.76,.33,.15,.67,.28,1.02,.38,.98,.28,2.08,.21,2.84,1.08,.1,.12,.3,.15,.46,.22,.56,.25,1.12,.51,1.69,.75,.25,.1,.52,.16,.78,.23,.6,.16,1.25,.1,1.83,.47,.77,.49,1.66,.65,2.55,.41,.62-.17,1.22-.46,1.82-.72,.37-.17,.72-.4,1.08-.58,.23-.11,.49-.18,.74-.26,.16-.05,.32-.1,.57-.18-.19-.13-.28-.2-.4-.28,.13-.1,.24-.18,.27-.2,.32,.1,.56,.18,.78,.25-.05,.05-.14,.15-.22,.24,.65,.21,1.27,.42,1.9,.62,1.64,.53,2.69,1.86,3.91,2.94,.65,.57,1.24,1.2,1.86,1.8,.03-.02,.08-.03,.08-.05,.08-.69,.57-1.32,.2-2.07-.07-.14-.03-.4,.06-.56,.3-.57,.65-1.1,.94-1.67,.18-.35,.41-.49,.81-.48,1,.02,2,.02,2.99,0,.16,0,.41-.11,.44-.23,.09-.31,.09-.65,.13-.97,0-.01-.05-.04-.07-.05-.42-.14-.6-.48-.8-.84-.08-.15-.25-.3-.41-.36-.66-.28-1.07-.81-1.53-1.34q1.06-.08,1.07-1.14s0-.06,0-.09c-.07-.48,.15-.61,.61-.61,1.5,.02,2.99,.01,4.49,0,.22,0,.47,.06,.54-.29,.06-.31,.29-.31,.49-.15,.25,.19,.44,.12,.57-.12,.23-.39,.45-.79,.67-1.19-.12,.15-.25,.29-.36,.44,.11-.15,.24-.29,.36-.44,0,0,0,0,0,0,0,0,.01-.01,.01-.02h0s0,0,0,0c.14-.14,.3-.41,.43-.4,.47,.02,.66-.25,.83-.6,.08-.17,.2-.32,.31-.48,.04,.02,.08,.03,.12,.05-.03,.17-.04,.35-.1,.51-.11,.27-.1,.47,.18,.62,.12,.07,.23,.17,.33,.26,.02,.02,.04,.04,.06,.06h0c.13,.4,.24,.1,.28-.03,.16-.43,.29-.88,.42-1.32,.19-.62,.36-1.24,.56-1.91h-.59c.35-.24,.82-.23,.74-.74-.28-.05-.57-.1-.78-.14,.25-.43,.61-.78,.66-1.17,.1-.83,.51-1.45,1.08-2,.2-.2,.45-.37,.58-.61Z"/><path class="cls-3" d="M93.71,43.65c0,.08,.05,.2,.12,.23,.06,.03,.2,0,.24-.06,.21-.27,.4-.56,.64-.91-.7-.1-1.06,.21-1,.74Z"/></g><path id="MEX2715" class="cls-1" d="M53.56,33.97c-.01,.12-.08,.29-.1,.41,.05-.06,.14-.13,.21-.17h.05c-.05,.3,.28,.37,.3,.62,0,.23-.28,.22-.4,.35v.04c.04,.08,.1,.16,.1,.26,.46,.21,.96,.43,1.45,.58l.03-.03c.01-.11-.04-.24-.07-.34h.03c.15,.04,.2,.24,.33,.31,.07-.01,.12-.11,.16-.17,.19,.24,.24,.6,.47,.8,.44,.04,.84,.31,1.28,.27,.11-.19,.26-.14,.43-.2l.05-.07c.15,.09,.31,.19,.44,.31,.17,.11,.46,.2,.51,.42,.02,.29-.26,.53-.31,.8h-.02s-.03-.02-.03-.02l-.03,.04c-.07,0-.14-.04-.2,0-.03,0-.13-.02-.16-.03v.1c.07,0,.14-.02,.2-.03v.03s-.06,.05-.07,.07l.02,.07-.07,.02c0,.07,.05,.14,.1,.19l.13-.02s.02,.08,.02,.12c.02,0,.06,.02,.08,.03,.05,.15-.15,.19-.2,.28-.02,0-.05-.03-.08-.03-.01,0-.04,.03-.05,.04v.03l.03,.02-.05,.05-.12-.02-.05,.04c-.01,.06,0,.14,0,.2-.01,.01-.05,.04-.05,.06,.03,.16,.24,.18,.34,.28,.06,.12,.04,.28,.05,.41-.07,.03-.18,.03-.24,.1,0,.17,.03,.36,0,.53l-.03-.02s-.07,.02-.1,.05c-.08,.01-.16-.05-.24-.02-.11,.03-.22,.12-.33,.11-.08-.05-.19-.07-.25-.14-.05-.07-.03-.19-.11-.24-.08-.03-.19-.03-.26,0l-.06,.07c-.05-.06-.13-.08-.21-.08,0-.07,.04-.23,.04-.3-.15-.25-.22-.59-.3-.87v.07c-.05,.07-.14,.09-.19,.15v.11c-.1,.14-.25-.09-.24,.18-.06,.05-.08,.15-.14,.21-.1,.01-.24-.04-.29,.09-.09,.03-.22-.03-.29,.05-.08,0-.1-.1-.18-.12-.03-.14-.17-.23-.28-.29l-.09,.03c-.05,.08-.09,.21-.13,.29-.15-.11-.34-.14-.52-.14-.21-.18-.41-.39-.7-.43-.22-.04-.41-.18-.62-.25-.03-.03-.06-.06-.11-.05-.21,.09-.18,.37-.25,.55-.1,.09-.27,.06-.39,.07-.34-.28-.71-.56-1.03-.86-.29-.16-.61,.03-.89-.04-.16-.09-.06-.24-.17-.34-.2-.09-.35,.18-.55,.15l-.12-.07c.18-.26,.48-.58,.61-.86,0-.28-.08-.6-.18-.86-.03-.18,.15-.24,.25-.33-.04-.16-.11-.37-.22-.49-.21,0-.49-.06-.67,.07-.05,.09-.08,.22-.15,.29-.09,.02-.2,0-.26,.08-.43,.31-.52-.52-.84-.65-.1,.02-.19-.14-.26-.19-.29-.21-.39-.57-.55-.87-.04-.12,.07-.22,.09-.32-.04-.19-.05-.41-.24-.51,0-.04,0-.1,.03-.13h.05s.07,.01,.1,0c.12-.12,.06-.34,.17-.47,.06,0,.15-.03,.2,.03,0,.04-.02,.1-.02,.15l.06,.03c.48-.09,.61-.65,.99-.87,.06-.03,.14,0,.2-.05,.06-.05,.06-.15,.11-.21,.31-.29,.76-.42,1-.78,.1-.19,.26-.25,.44-.31,.35-.51,.53-1.27,1.11-1.57,.06-.09,.1-.23,.13-.33,.22,.27,.43,.59,.65,.86,.07,.31,.03,.65,.04,.96,0,.43,.54,.66,.36,1.12-.08,.26,.17,.53,.08,.77-.07,.13,.03,.25,.02,.37-.02,.3,0,.55,.36,.56h.03c.02-.06,0-.16,0-.22,.26,0,.58,0,.83,.04Z"/></g></g></svg>