<svg xmlns="http://www.w3.org/2000/svg" viewBox="0 0 306.04 276.52"><defs><style>.cls-1{fill:#fef6fc;}.cls-1,.cls-2,.cls-3{stroke:#6d4162;stroke-miterlimit:10;stroke-width:0.78px;}.cls-2,.cls-3{fill:none;}.cls-3{isolation:isolate;}.cls-4{fill:#713972;}.cls-5{fill:#b25fac;}.cls-6{fill:#f230b9;}</style></defs><g id="estados"><circle class="cls-1" cx="136.96" cy="151.48" r="97.03"/><circle class="cls-2" cx="136.96" cy="151.48" r="104.09"/><polyline class="cls-3" points="213.34 81.1 271.32 41.25 305.78 41.25"/><polyline class="cls-3" points="214.19 220.92 271.32 255.56 305.78 255.56"/><polyline class="cls-3" points="239.72 131.27 272.01 116.16 306.47 116.16"/><polyline class="cls-3" points="238.56 172.75 271 186.07 305.46 186.07"/><path class="cls-4" d="M106.63,211.75a10.28,10.28,0,0,1-4.1-2,3.79,3.79,0,0,1-1.28-2.92,4,4,0,0,1,1.57-3.24,6.19,6.19,0,0,1,4.08-1.29,6.84,6.84,0,0,1,3,.67A5.13,5.13,0,0,1,112,204.8a4.7,4.7,0,0,1,.73,2.55h-2.2a3,3,0,0,0-1-2.38,3.88,3.88,0,0,0-2.7-.86,4,4,0,0,0-2.53.71,2.38,2.38,0,0,0-.91,2,2.17,2.17,0,0,0,.86,1.73,8.67,8.67,0,0,0,2.94,1.28,13.56,13.56,0,0,1,3.24,1.29,4.88,4.88,0,0,1,1.73,1.63,4.18,4.18,0,0,1,.57,2.21,3.88,3.88,0,0,1-1.58,3.23,6.71,6.71,0,0,1-4.21,1.22,7.8,7.8,0,0,1-3.2-.66,5.4,5.4,0,0,1-2.28-1.8,4.35,4.35,0,0,1-.81-2.59h2.2a2.86,2.86,0,0,0,1.12,2.38,4.68,4.68,0,0,0,3,.87,4.32,4.32,0,0,0,2.66-.7,2.29,2.29,0,0,0,.92-1.93,2.24,2.24,0,0,0-.85-1.89A10.17,10.17,0,0,0,106.63,211.75Z"/><path class="cls-4" d="M114.71,212.87a7.2,7.2,0,0,1,.72-3.26,5.22,5.22,0,0,1,2-2.24,5.38,5.38,0,0,1,2.91-.79,5.2,5.2,0,0,1,4.08,1.75A6.74,6.74,0,0,1,126,213v.15a7.4,7.4,0,0,1-.69,3.24,5.34,5.34,0,0,1-2,2.23,5.5,5.5,0,0,1-3,.8,5.21,5.21,0,0,1-4.07-1.75,6.66,6.66,0,0,1-1.56-4.62Zm2.13.25a5.26,5.26,0,0,0,1,3.3,3.23,3.23,0,0,0,5.1,0,5.72,5.72,0,0,0,1-3.53,5.29,5.29,0,0,0-1-3.29,3.08,3.08,0,0,0-2.56-1.26,3,3,0,0,0-2.53,1.24A5.74,5.74,0,0,0,116.84,213.12Z"/><path class="cls-4" d="M130.6,206.81l.07,1.55a4.5,4.5,0,0,1,3.69-1.78q3.91,0,3.95,4.42v8.16H136.2V211a2.87,2.87,0,0,0-.61-2,2.47,2.47,0,0,0-1.87-.64,3.09,3.09,0,0,0-1.8.55,3.77,3.77,0,0,0-1.21,1.44v8.8H128.6V206.81Z"/><path class="cls-4" d="M140.94,212.87a7.2,7.2,0,0,1,.71-3.26,5.24,5.24,0,0,1,2-2.24,5.32,5.32,0,0,1,2.9-.79,5.2,5.2,0,0,1,4.08,1.75,6.7,6.7,0,0,1,1.56,4.64v.15a7.4,7.4,0,0,1-.69,3.24,5.3,5.3,0,0,1-2,2.23,5.48,5.48,0,0,1-2.95.8,5.22,5.22,0,0,1-4.07-1.75,6.7,6.7,0,0,1-1.55-4.62Zm2.12.25a5.32,5.32,0,0,0,.95,3.3,3.24,3.24,0,0,0,5.11,0,5.79,5.79,0,0,0,.95-3.53,5.29,5.29,0,0,0-1-3.29,3.07,3.07,0,0,0-2.56-1.26,3,3,0,0,0-2.52,1.24A5.74,5.74,0,0,0,143.06,213.12Z"/><path class="cls-4" d="M160.79,208.71a5.63,5.63,0,0,0-1-.08,2.76,2.76,0,0,0-2.81,1.76v8.77h-2.12V206.81h2.06l0,1.43a3.29,3.29,0,0,1,3-1.66,2.22,2.22,0,0,1,.93.16Z"/><path class="cls-4" d="M169.9,219.16a4.69,4.69,0,0,1-.3-1.3,4.7,4.7,0,0,1-3.51,1.53,4.36,4.36,0,0,1-3-1,3.33,3.33,0,0,1-1.17-2.62,3.48,3.48,0,0,1,1.47-3,6.92,6.92,0,0,1,4.12-1.07h2.06v-1a2.37,2.37,0,0,0-.66-1.76,2.69,2.69,0,0,0-2-.66,3.07,3.07,0,0,0-1.89.57,1.67,1.67,0,0,0-.76,1.38h-2.13a2.89,2.89,0,0,1,.66-1.78,4.39,4.39,0,0,1,1.78-1.36,5.9,5.9,0,0,1,2.47-.51,4.87,4.87,0,0,1,3.34,1.07,3.84,3.84,0,0,1,1.26,2.94v5.68a7,7,0,0,0,.43,2.71v.18Zm-3.5-1.61a3.74,3.74,0,0,0,1.88-.51,3.19,3.19,0,0,0,1.29-1.34v-2.53h-1.66c-2.58,0-3.88.75-3.88,2.27a1.92,1.92,0,0,0,.66,1.55A2.59,2.59,0,0,0,166.4,217.55Z"/><path id="SON" class="cls-5" d="M172.77,190.47l0-.1.33-.58,0-.29.05-.19.1.05,0,.19-.14.39-.1.09-.09.15-.1.1-.05.14-.14.05Zm1-.44.05-.33v-.87l.14-.19h.29l.34.09.19.15.1.29v.09l-.15.15-.28.19-.58.39-.1,0ZM163,177.12h-.14l-.34-.49-.34-.24-.43-.19-.24,0-.15-.14.15,0,.29.1.48.24.43.29Zm-9-4.78-.05.29-.82-.33-.24-.25-.05-.67.05-.43.1-.39,0-.19,0,.67,0,.77.29.34.68.19Zm-12.78-11.47.1.29-.24-.1-.1-.19-.09-.14.09-.2.24.34ZM127.31,148v.1l-.1,0v-.15l-.09-.14,0-.1,0,.15.05.09v0l0,.05Zm-1.23-7.85c.3.45.19.78.2,1.26s1,1.61,1.1,2.31c0,.9-1.62,4-1,4.15.3.49-.57.15-.77.62-.38-.54-1-.17-1.35-.82-1-.11-1.55-.87-2.6-1.3-.43-.3,1-.77,1.1-1.25.31-.73-.29-1.5,0-2.36s.37-2.56,1.54-2a1.92,1.92,0,0,1,1.54-.58C126.1,139.81,126.64,139.63,126.08,140.15Zm-1.37-1.74h0l0-.1,0-.05,0,.1ZM91.11,95.12l.24.53h-.19L91,95.6l-.15-.14-.09-.14-.34.24-.73-.34-.53-.72.2-.87.48.09.67.63Zm86.62,7c-.16,3-1.31,6.51-.91,9.35,5.72,5.85,6.8,1.29,7.13,9.6.58,4.72-.64,9.58-.82,14.36.25.92-.94.57-1.45.68.22,1.91.69,6.05.92,8a30.17,30.17,0,0,0,.53,3.61,6.4,6.4,0,0,0-.53,2.17c.41,1.62,1.36,3.33,1.59,5-.66.54-1.27,1.79-2.26,1.2-2.26-.57-5.65-1.7-7,.87.71,1.6,1.36,4,2.31,5.4,1.23.69,1.58.83,2,2.22.83.81,1.8,1,1.4,2.31.47.9,2,1.13,1.92,2.26.06.54-.23,1.11-.19,1.64a1.88,1.88,0,0,1-.24,2.46c-.5.82,1.68,4.26,2.46,3.86.35-.29.5.19.63.43.41.45-.17,1.09-.25,1.59,0,1.77-.26,2-1.73,3-2.44,2.35-5.69,4.4-8.05,6.75-.1-.25-.33-.71-.63-.77l.15.29c-.56-.35-.81.21-1.21.43a6.11,6.11,0,0,1,.15-1.45,3.9,3.9,0,0,0-1.79-3,2.74,2.74,0,0,0-1.93-1.45c.25-.12.59.11.82.19-.1-.41-.06-.87-.67-.77-.14-.33-.17-.57-.48-.19,0-.68-.67-.26-.73.19.12.17.67,0,.49.34s.52.2.43.48a3.93,3.93,0,0,0-2.36-.43c-.24.21-.3.42-.68.29a3.72,3.72,0,0,1-2.7-3.33,12.32,12.32,0,0,1-1.06-2.31,4.11,4.11,0,0,0,.87,1.15,5.44,5.44,0,0,1-.48-2c-.42-.66-1.57-1.64-2.07-.53-.76-.13-2.18-.82-3.23-.92-1.88-.58-1.88-2.2-4-2.7,1.45.18,1.83.32.68-1,.22-.3,0-.32-.19-.48-.3-.31-1,.92-.92-.44-.25-.61-.72-.87-.53-1.73-.11-.64-.69-1.55-.58-2.22.07-.33.43-.4.72-.43.41-.48-.09-.81-.38-.24.06-1,.51-.59.87-1.06-.62,0-1.1-.2-.63-.82a.37.37,0,0,1-.34-.58c.3.54.26-.26.48-.24,2.21-.13.45-.84-.57-.82.64.69-1.53-.58-1.88-.48-.43-.23-1.52.27-1.64,0,.4-.15.75-.17.43-.63-.08-.31,0-.77-.48-.68a2.29,2.29,0,0,1-.58,1.55c.66-.24.37.85,0,1.06-.12-.3-.44-.8-.82-.77-.31-.22-.49-.64.05-.63-1.18-1.51-1.32-.22-2.56-.29.37-.51-.61-.79-1-.92a6.68,6.68,0,0,0-.72-1,.66.66,0,0,1-.68-.48c-.43-.37-.53-1.18-1.06-1.5,0-.17,0-1-.29-1-.57.09-.41-.7-.62-1-.74-.49-1.17-1.13-.68-1.93-1.35.26-2.68-1-4-1.25-.45-.33-.65-1.59-.92-2.17s-3.82-3-2.46-3.18c.52-.73.52.55.92.24.4-1.37-1-.42-1.4-1.26a2.74,2.74,0,0,0-1.15-.62c-.11-.65-.87-.9-1.06-1.55-.15-.39-1.4,0-1-.53.26.1-.16-1.77-.38-1.64,0-.27.38-.48.33-.77s-.52-.53-.38-.82a.68.68,0,0,1-.34-1.06c0-.58-.2-1.52-.77-1.78-.49,0-1.17-.11-1.06.58-1.69-1.17-1.44-1-.68-2.89.14-.58-.3-.59-.62-.82s-.09-.63-.2-.92a6.7,6.7,0,0,1-1.1-1,12.46,12.46,0,0,0-.58-1.4c-.24.09-.46-.17-.58-.34a4.34,4.34,0,0,0-.87-1.93c-.45-2.75-1.86-.17-1.64-2.31.46-.85-.06-1.31-.19-2.07.14-1,.29-2.27-.58-3-.18-.21-.69-.63-.87-.29.84-2.86-1.63-3.86-2.84-6.07a6.89,6.89,0,0,1-.92-5.31c.35-.85-.57-2.15-.33-2.84.59,2,.94,1.49,1.06-.19.16-1.06-.14-2.39-1.4-2.51,1.06,1.09-.32.17-.77-.1-.12-.36-.49-.72-.53-1.11-.24-.06-.45.19-.68.15.12.34.5.42.73.63a18.41,18.41,0,0,1-6.32-1.74c1,0,.19-1,.15-1.64.15-1.22-1.61-2.12-2.56-2.31-.36-.26-1.17-.42-1.25-.92-1.32.77-.85-.38-1.4-.87,0,.28-.25,1.72.24,1.5.32.24-.21.35-.29.63a.3.3,0,0,1-.38.33c0,.23-.25.43-.34.63a5.22,5.22,0,0,1-4.34-1.54,15.16,15.16,0,0,0-2.75-1.79c-.53-.37-1.05-1.44-1.68-1.59-1.16.2-1.35-.11-2.17-.77-.29-.21-.83,0-1.06-.38-.32-.64-1.23-1-1.74-1.4-.24-1,.44-2.42-.72-2.94a2.55,2.55,0,0,0,0-2.51c-.2-.43-1-1-.82-1.44,1.4-.88.67-2.34,1.69-3.43.42-.32,1.22.11,1.64-.29,16.77,6.19,34.31,12.5,51.09,18.66,2.63.85,5.48,2.62,8.34,2.31C156.58,102.1,169.49,102.12,177.73,102.11Z"/><path class="cls-1" d="M94.07,42.29a3.19,3.19,0,0,0,.53-1.36A1.53,1.53,0,0,0,94,39.62c-.42-.31-.74-.36-1.12.11l.29.08,0,.12a11.22,11.22,0,0,1-1.65-.34,3.48,3.48,0,0,0-2.58.07,8,8,0,0,1-2.47.61,5.56,5.56,0,0,0-2.64.84,1.41,1.41,0,0,0-.5.63A7.05,7.05,0,0,0,83,44.59a.88.88,0,0,1-.2.58,1.09,1.09,0,0,0-.5,1c0,.7-.43,1-.89,1.37s-.69.41-1,.64a4.27,4.27,0,0,0-.47.48h0l-1,.48h0a3.35,3.35,0,0,0-3,.34,1.34,1.34,0,0,1-.5.22c-.88.24-1.85-.18-2.71.52a3.91,3.91,0,0,1-1.73.43.65.65,0,0,1-.53-.16,3.25,3.25,0,0,0-1.32-1.22,3.61,3.61,0,0,0-1.47-.42,9,9,0,0,1-1-.11c-.28-.42-.51-.79-.76-1.15-.34-.51-.85-.94-.93-1.61A3.42,3.42,0,0,0,63.75,44a7.79,7.79,0,0,1-1.91-3.09,1,1,0,0,1,0-.63.74.74,0,0,0-.2-1,2.81,2.81,0,0,1-1.07-1.9c0-.32-.17-.63-.2-1a2.39,2.39,0,0,1,.05-.7c.06-.45.16-.9.22-1.35,0-.23,0-.47,0-.7.08-1.05.14-2.11.28-3.16A10.11,10.11,0,0,1,62,26.73a7.55,7.55,0,0,0,.5-1.59,1.27,1.27,0,0,0,0-.43,1.36,1.36,0,0,0-.51.11.46.46,0,0,1-.67-.05,1.67,1.67,0,0,0-1.24-.42,4.23,4.23,0,0,1-1.12-.25c-.64-.26-1.25-.61-1.9-.86a1,1,0,0,1-.65-.52c-.27-.58-.59-1.15-.88-1.73a1.36,1.36,0,0,1,0-.36c-.05-.42-.08-.85-.17-1.26A1.18,1.18,0,0,0,55,18.9c-.3-.32-.62-.62-.91-.94s-.6-.7-.89-1.06a1.4,1.4,0,0,1-.28-.36c-.25-.53-.46-1.09-.73-1.61a4.42,4.42,0,0,0-1.45-2.16c-.31-.2-.5-.6-.81-.79s-.45-.69-1-.7A20.29,20.29,0,0,1,46.7,11a.67.67,0,0,0-.31,0,4.68,4.68,0,0,0-.64.3,1.59,1.59,0,0,0-.57.48,6,6,0,0,0-.47,1.21,1.06,1.06,0,0,1-1.82.66c-.4-.28-.88-.45-1.31-.69a7.71,7.71,0,0,1-.77-.49,4.71,4.71,0,0,0-.45-.33,2.06,2.06,0,0,1-1.1-1.78,4.26,4.26,0,0,0-.93-2.12c-.28-.37-.82-.54-1.19-.86s-.93-.91-1.41-1.35c-.25-.23-.53-.43-.78-.65a2.62,2.62,0,0,1-.66-.67,1,1,0,0,0-1-.64c-1.34,0-2.68,0-4,0-1.15,0-1-.1-1,1,0,.47-.13.63-.61.62-2.54,0-5.08,0-7.62,0a2.57,2.57,0,0,1-.83-.12L8.77,1.84C8,1.57,8,1.56,8.18.78a4.09,4.09,0,0,0-.5,0l-6.47.58c-.52,0-.59.19-.36.67a2.8,2.8,0,0,0,.3.46L1.44,3a3,3,0,0,0,.34.57c.28.31.51.6.35,1.06-.1.31.06.54.29.78.4.41.87.82.75,1.52,0,.09.1.24.19.32.46.4.89.78.69,1.5,0,.15.13.52.22.53.46,0,.51.33.49.65a2.44,2.44,0,0,0,.52,1.65,7.29,7.29,0,0,0,1.65,1.16,4.11,4.11,0,0,1,.73.46c.82.86,1.61,1.74,2.39,2.63a.49.49,0,0,1,.09.39c-.14.53,0,1.14-.54,1.55-.06.06,0,.2-.08.31s-.22,0-.29.07a1.18,1.18,0,0,1-1.12.12,1.71,1.71,0,0,0-.5-.1,2.64,2.64,0,0,0-.46.13,2.59,2.59,0,0,0,.3.48c.51.5,1.33.7,1.47,1.56a.28.28,0,0,0,.16.16,7.17,7.17,0,0,0,1.36.73,1.36,1.36,0,0,1,.78.58c.19.27.4.56.82.19s1,.05,1.2.38a3,3,0,0,0,.43.52c.59.71,1.61.82,2.15,1.64a3.36,3.36,0,0,1,.33,2.66c-.22.49-.36,1-.56,1.61a5.24,5.24,0,0,0,.71.1c.39,0,.69.12.74.58l-.39.23.81.64.12-.1-.18-.57a.85.85,0,0,1,.27.13c1,.9,2.33,1.51,3.18,2.64a.89.89,0,0,0,.35.21,1.75,1.75,0,0,1,1,1.35,5.7,5.7,0,0,0,.22.81c.21.49.53.55.95.23.24-.19.5-.36.76-.53a1.15,1.15,0,0,0,0-1.86,1.14,1.14,0,0,1-.37-.49,6.73,6.73,0,0,0-.43-.94,3.48,3.48,0,0,0-.73-.57l-.8-.64-.12.07.1.79h0l-.45-.21a1.37,1.37,0,0,1-.66-1.56A1,1,0,0,0,20.46,28,5.64,5.64,0,0,1,19.9,27a3.45,3.45,0,0,0-.39-.82,2.24,2.24,0,0,1-.78-1.7.92.92,0,0,0-.07-.4c-.19-.53-.39-1.05-.59-1.57s-.47-1-1.14-1c-.09,0-.26-.25-.24-.35.06-.34-.09-.48-.37-.6-.12,0-.17-.23-.27-.35-.34-.41-.31-1.11-1-1.31a1.17,1.17,0,0,1-.81-1.09c-.08-.52-.18-1-.31-1.55,0-.13-.25-.22-.37-.33s-.4-.24-.43-.39c-.12-.75-.73-1-1.25-1.32a3.79,3.79,0,0,0-1-1.77c-.62-.6-1.46-.93-2-1.67a2.3,2.3,0,0,1-.48-1.27c0-.69-.13-1.38-.2-2.07a.45.45,0,0,0-.12-.25C7.5,6.48,7.81,5.65,8,4.87c.1-.49.46-.54.87-.24a3.27,3.27,0,0,0,.78.51,1.92,1.92,0,0,0,.83.06c.14,0,.3-.22.42-.19s.45.17.49.32c.18.68.72.73,1.28.88s.71.33.52.89a1.8,1.8,0,0,0,.43,1.77,2.27,2.27,0,0,1,.55,1.19c0,.85.58,1.37.91,2,.1.2.12.43.21.63a1,1,0,0,0,.27.35.91.91,0,0,0,.3.13l.08.13c-1.19-.14-.84.79-1.14,1.37.29.12.58.34.79.28s.37-.38.61-.65c.18.24.36.5.55.74s.53.88.91,1.09a2.87,2.87,0,0,1,1,1,3.31,3.31,0,0,0,.77.72,2.35,2.35,0,0,0,.65.27c.18-.07.42-.14.55-.05a.82.82,0,0,1,.21.51c0,.21-.06.46,0,.64s.39.58.54.89a.94.94,0,0,0,.86.63c.63,0,.75.35.84.85a.7.7,0,0,0,.91.64.78.78,0,0,1,.9.55,1.63,1.63,0,0,1,0,.95,2.17,2.17,0,0,1-.32.57,1.08,1.08,0,0,0,.21,1.21,4.61,4.61,0,0,1,.6.47,1.44,1.44,0,0,0,1.31.66.57.57,0,0,1,.21.1l.75.46,1,.56-.07.12L28,27.64a3.36,3.36,0,0,0,2.46,2.3c-.37.38,0,.52.2.71s.42.31.62.49a10.65,10.65,0,0,1,1,.93c.34.39.64.83,1,1.25.09.12.19.23.29.35a17,17,0,0,0,1.52,1.75,3.09,3.09,0,0,1,1.06,2.2,3,3,0,0,0,.25,1c.25.54.49,1.12,1.11,1.28a4.52,4.52,0,0,0,0,.68,1,1,0,0,1-.34,1,5.46,5.46,0,0,0-.57.78,3,3,0,0,1,.47.12c.13.08.24.19.36.28-.1.1-.18.24-.3.3a4.71,4.71,0,0,1-.54.12c-.48.12-.57.37-.28.77a2.67,2.67,0,0,1,.22.41,6.86,6.86,0,0,0,.45.95,14.44,14.44,0,0,0,1,1.3,2.51,2.51,0,0,0,.67.67,17.49,17.49,0,0,1,2.86,1.46A12.72,12.72,0,0,1,42.68,50a2,2,0,0,0,.62.5,17.32,17.32,0,0,0,1.71.6c.58.18,1.17.34,1.75.5a.36.36,0,0,0,.27,0c.49-.29.79,0,1.1.31a10.27,10.27,0,0,0,.77.71c.48.37,1,.71,1.47,1a2.14,2.14,0,0,0,.45.24c.57.21,1.15.38,1.71.61s1.09.52,1.65.76a7.35,7.35,0,0,0,1,.38c1,.29,2.08.22,2.84,1.09a1.45,1.45,0,0,0,.45.22c.57.25,1.13.51,1.7.74a5.36,5.36,0,0,0,.78.23,6,6,0,0,1,1.83.47,3.12,3.12,0,0,0,2.54.41,13.5,13.5,0,0,0,1.82-.72c.37-.17.71-.4,1.08-.58a6.49,6.49,0,0,1,.74-.26l.58-.18-.4-.28.26-.2.79.25-.22.23,1.9.63c1.64.53,2.69,1.85,3.91,2.94.65.57,1.24,1.19,1.86,1.79l.09,0c.08-.69.57-1.33.2-2.07a.74.74,0,0,1,0-.56c.3-.57.66-1.1,1-1.67a.78.78,0,0,1,.81-.48c1,0,2,0,3,0,.16,0,.41-.11.45-.23a5.15,5.15,0,0,0,.12-1s0,0-.07,0c-.42-.13-.6-.48-.8-.84a.82.82,0,0,0-.4-.36,4.22,4.22,0,0,1-1.53-1.35c1.06-.07,1.06-.07,1.06-1.13a.33.33,0,0,0,0-.1c-.07-.48.15-.61.62-.61,1.49,0,3,0,4.49,0,.22,0,.47.06.53-.29s.29-.3.5-.15.43.12.57-.11c.24-.39.45-.8.67-1.19-.11.14-.25.28-.35.43.1-.15.24-.29.35-.43h0l0,0h0c.14-.14.29-.41.43-.4.47,0,.66-.25.83-.6a4.94,4.94,0,0,1,.3-.49l.12,0a2.88,2.88,0,0,1-.1.51c-.12.27-.1.47.18.62a2.69,2.69,0,0,1,.33.26l.06.06h0c.13.4.24.1.28,0,.16-.43.29-.88.43-1.32.18-.62.36-1.24.55-1.91H91.8c.35-.24.82-.23.74-.74l-.78-.14a3.78,3.78,0,0,0,.66-1.17,3.3,3.3,0,0,1,1.08-2A2.72,2.72,0,0,0,94.07,42.29Z"/><path class="cls-1" d="M93.71,43.65a.29.29,0,0,0,.12.23.25.25,0,0,0,.24-.06c.21-.27.4-.56.64-.9C94,42.82,93.65,43.12,93.71,43.65Z"/><path id="MEX2712" class="cls-6" d="M25,23.77v0l.07-.11v-.1h0v0l0,.08,0,0,0,0,0,0v0Zm.19-.08v-.25l0,0h.06l.07,0,0,0,0,.06v0l0,0-.06,0-.12.08Zm-4-3.6v.06L21,20.08,21,20v-.22l0-.08V20l.06.07.14,0Zm-2.6-2.33,0,.06-.05,0,0,0,0,0,0,0,.05.07ZM15.8,15.14v0h0v0l0,0v0h0Zm.15-2,0,.07,0,0,0,0,0,0v0l0,.05,0,0,0,.08.2.17.19.32-.08.14,0,.15-.06.21-.08.06,0,.06-.08.08,0,.08-.05.06,0,.07V15h.07l0,.06-.05,0-.05,0-.08,0-.11.07-.08-.07h-.1l-.06,0-.05-.06h-.06l-.1-.08-.07,0-.06,0-.05,0h-.09l-.07,0v-.06h-.14v0l-.13-.06-.15,0-.06-.05h0l-.06,0,.14-.07.15-.08.08-.08h0l0,0,0,0v0l0,0v0l-.07,0v-.36l.05-.18.07-.17,0,0,0-.06.05-.05.08,0,.08.06h.11l.19-.12h.32l.07-.05,0,0,.08,0,0,0-.08.06Zm-.68,0h0v0h0v0ZM26,5.91v.2l0,.3,0,.31,0,.31,0,.34,0,.11v.18l0,0,.53.45.18.15.05,0,.05,0,.06,0,.06,0,.1,0,.08,0,.07.06.08.07.06.05,0,.05,0,.06v.09l0,.44v.14l0,.22,0,.24,0,.22,0,.23v.14l-.05.1,0,.06v.23l0,.22,0,.29,0,.28,0,.58,0,.33v.13h-.27l.08.7.11.93,0,.14,0,.29v.3l0,.1-.05.13,0,.12v.09l.07.21,0,.11,0,.1.11.29,0,.07,0,.09,0,.09v.05l-.13.13-.13.14,0,0h0l-.11,0-.43-.11-.16,0h-.45l-.08,0-.05,0-.05.05-.06.06-.06.05-.06.06,0,.05,0,.08.18.47.1.24.1.23,0,.05,0,0,.09.06.2.12,0,.06v.07l0,.07,0,.07.33.29,0,0V19l.06.08.07.07.07.06.09.05,0,0,0,.05,0,0v.21l0,.07v.13l0,.06,0,.05,0,.06,0,.11,0,.07-.05.06-.05.09,0,.07v.08l0,.08,0,.07.07.11.06.11.06.1.08.09,0,.05,0,0h.1l.05,0h0l0,0,0,0,0,0,0,0,0,0,0,.09,0,.07,0,.09,0,.09v.23l0,0-.32.26-.3.26-.3.26-.31.24-.3.25-.31.23-.08.07,0,.06-.06-.12-.07,0v.06l-.07,0h-.06l-.09.1-.32.3,0-.16a1.48,1.48,0,0,0-.06-.79.76.76,0,0,0-.45-.45h-.57a.64.64,0,0,1-.45-.12.74.74,0,0,1-.31-.62L23,21.17l-.34-.3c-.14-.07-.53,0-.78-.17a1.13,1.13,0,0,1-.45-.53l-.05-.07-.14-.25,0,0v0c-.23-.28-.35-.49-.34-.61s0-.22,0-.4-.09-.58-.24-.64a.52.52,0,0,0-.44,0l0,0h-.05a2.25,2.25,0,0,1-1.44-1,3.32,3.32,0,0,0-1.06-1.08A3.39,3.39,0,0,1,16.7,15l-.52-.68-.05,0,0-.1,0,0,0,0v-.07l0-.14v-.08l0,0v0L16,13.61l-.05-.29-.08-.12-.16,0-.14-.06-.15-.17-.13-.2-.2-.63-.23-.39-.38-.59-.12-.23c-.19-.31-.15-.88-.28-1.24a.85.85,0,0,0-.15-.3,2.93,2.93,0,0,1-.81-1.67A1.83,1.83,0,0,1,13.19,7l.06-.21c.08-.35-.19-.5-.55-.6a2.13,2.13,0,0,1-1.11-.45,2.05,2.05,0,0,1-.26-.51.58.58,0,0,0-.22-.17L10.88,5a.44.44,0,0,0-.27.14s-.09.06-.19.07H10a1.33,1.33,0,0,1-.55-.12,3.73,3.73,0,0,1-.64-.47.64.64,0,0,0-.6-.14l0-.41,0,0H8L8,4,7.9,3.88l0,0-.06,0-.18-.12V3.22l0-.05h0l0,0h0V3.05l.07-.12V2.85l0-.13,0-.12-.08-.11-.08-.11,0,0V2.3l0,0,.07,0,0-.07,0-.08v-.2l0-.07,0-.09,0-.08.06,0h.23l.12-.05,1.36.53,1.27.46L12,3l1.22.44,1.3.48,1.23.44,3.52,1.27.27.07,6.53,0Z"/></g></svg>