<?xml version="1.0" encoding="UTF-8"?><svg id="estados" xmlns="http://www.w3.org/2000/svg" viewBox="0 0 306.04 276.52"><defs><style>.cls-1,.cls-2{fill:#3bb1e6;}.cls-3{fill:#fff;}.cls-4{stroke-width:1.53px;}.cls-4,.cls-2,.cls-5{stroke:#fff;}.cls-4,.cls-5{fill:none;opacity:.67;stroke-miterlimit:10;}.cls-2{stroke-linecap:round;stroke-linejoin:round;stroke-width:1.46px;}.cls-6{fill:#0a2f3a;opacity:.5;}.cls-5{stroke-width:1.67px;}</style></defs><g id="son-icono"><circle class="cls-6" cx="136.96" cy="151.48" r="97.03"/><circle class="cls-5" cx="136.96" cy="151.48" r="104.09"/><polyline class="cls-4" points="229.53 104.17 271.63 73.79 306.09 73.79"/><polyline class="cls-4" points="229.02 199.66 271.63 220.23 306.09 220.23"/><polyline class="cls-4" points="240.77 150.49 271.63 150.49 306.09 150.49"/><g><path class="cls-1" d="M106.63,211.75c-1.88-.54-3.25-1.2-4.1-1.99-.86-.79-1.28-1.76-1.28-2.92,0-1.31,.52-2.39,1.57-3.25,1.05-.86,2.41-1.28,4.08-1.28,1.14,0,2.16,.22,3.05,.66,.89,.44,1.59,1.05,2.08,1.83s.74,1.62,.74,2.54h-2.2c0-1.01-.32-1.8-.96-2.38-.64-.58-1.54-.86-2.7-.86-1.08,0-1.92,.24-2.53,.71-.6,.48-.91,1.14-.91,1.98,0,.68,.29,1.25,.86,1.72s1.55,.9,2.93,1.29c1.38,.39,2.46,.82,3.24,1.29s1.36,1.01,1.73,1.64,.56,1.36,.56,2.2c0,1.35-.52,2.42-1.57,3.24-1.05,.81-2.45,1.22-4.21,1.22-1.14,0-2.21-.22-3.2-.66-.99-.44-1.75-1.04-2.29-1.8-.54-.76-.8-1.62-.8-2.59h2.2c0,1,.37,1.8,1.11,2.38,.74,.58,1.73,.87,2.97,.87,1.16,0,2.04-.24,2.66-.71,.62-.47,.92-1.11,.92-1.93s-.29-1.44-.86-1.89-1.61-.88-3.1-1.32Z"/><path class="cls-1" d="M114.71,212.87c0-1.21,.24-2.3,.71-3.26,.48-.97,1.14-1.71,1.99-2.24,.85-.53,1.82-.79,2.9-.79,1.68,0,3.04,.58,4.08,1.75,1.04,1.16,1.56,2.71,1.56,4.64v.15c0,1.2-.23,2.28-.69,3.24-.46,.96-1.12,1.7-1.97,2.23-.86,.53-1.84,.8-2.95,.8-1.67,0-3.03-.58-4.07-1.75-1.04-1.16-1.56-2.7-1.56-4.62v-.15Zm2.12,.25c0,1.37,.32,2.47,.95,3.3,.64,.83,1.49,1.24,2.55,1.24s1.92-.42,2.56-1.26c.63-.84,.95-2.02,.95-3.53,0-1.35-.32-2.45-.96-3.29-.64-.84-1.5-1.26-2.56-1.26s-1.88,.41-2.52,1.24c-.64,.83-.96,2.02-.96,3.56Z"/><path class="cls-1" d="M130.6,206.81l.07,1.55c.94-1.19,2.18-1.78,3.7-1.78,2.61,0,3.93,1.47,3.95,4.42v8.16h-2.11v-8.17c0-.89-.21-1.55-.61-1.97s-1.02-.64-1.87-.64c-.68,0-1.29,.18-1.8,.55-.52,.37-.92,.84-1.21,1.44v8.8h-2.11v-12.35h2Z"/><path class="cls-1" d="M140.94,212.87c0-1.21,.24-2.3,.71-3.26,.48-.97,1.14-1.71,1.99-2.24,.85-.53,1.82-.79,2.9-.79,1.68,0,3.04,.58,4.08,1.75,1.04,1.16,1.56,2.71,1.56,4.64v.15c0,1.2-.23,2.28-.69,3.24-.46,.96-1.12,1.7-1.97,2.23-.86,.53-1.84,.8-2.95,.8-1.67,0-3.03-.58-4.07-1.75-1.04-1.16-1.56-2.7-1.56-4.62v-.15Zm2.12,.25c0,1.37,.32,2.47,.95,3.3,.64,.83,1.49,1.24,2.55,1.24s1.92-.42,2.56-1.26c.63-.84,.95-2.02,.95-3.53,0-1.35-.32-2.45-.96-3.29-.64-.84-1.5-1.26-2.56-1.26s-1.88,.41-2.52,1.24c-.64,.83-.96,2.02-.96,3.56Z"/><path class="cls-1" d="M160.79,208.71c-.32-.05-.67-.08-1.04-.08-1.38,0-2.32,.59-2.82,1.77v8.76h-2.11v-12.35h2.05l.03,1.43c.69-1.1,1.67-1.65,2.94-1.65,.41,0,.72,.05,.94,.16v1.96Z"/><path class="cls-1" d="M169.9,219.16c-.12-.24-.22-.68-.3-1.3-.98,1.02-2.15,1.53-3.51,1.53-1.22,0-2.22-.34-3-1.03-.78-.69-1.17-1.56-1.17-2.62,0-1.29,.49-2.28,1.47-3,.98-.71,2.35-1.07,4.13-1.07h2.05v-.97c0-.74-.22-1.33-.66-1.76-.44-.44-1.09-.66-1.95-.66-.75,0-1.38,.19-1.89,.57-.51,.38-.76,.84-.76,1.38h-2.12c0-.62,.22-1.21,.66-1.79,.44-.57,1.03-1.03,1.78-1.36,.75-.33,1.57-.5,2.47-.5,1.42,0,2.54,.36,3.34,1.07,.81,.71,1.22,1.69,1.26,2.94v5.68c0,1.13,.14,2.04,.43,2.71v.18h-2.21Zm-3.5-1.61c.66,0,1.29-.17,1.88-.51,.59-.34,1.02-.79,1.29-1.33v-2.53h-1.65c-2.59,0-3.88,.76-3.88,2.27,0,.66,.22,1.18,.66,1.55,.44,.37,1.01,.56,1.7,.56Z"/></g><path id="SON" class="cls-2" d="M172.77,190.47l.05-.1,.34-.58,.05-.29,.05-.19,.1,.05,.05,.19-.14,.39-.1,.1-.1,.14-.1,.1-.05,.14-.14,.05h0Zm.96-.43l.05-.34v-.87l.14-.19h.29l.34,.1,.19,.14,.1,.29v.1l-.14,.14-.29,.19-.58,.39-.1,.05h0Zm-10.75-12.92h-.14l-.34-.48-.34-.24-.43-.19-.24-.05-.14-.14,.14-.05,.29,.1,.48,.24,.43,.29,.29,.53Zm-9.01-4.77l-.05,.29-.82-.34-.24-.24-.05-.67,.05-.43,.1-.39,.05-.19-.05,.67,.05,.77,.29,.34,.67,.19h0Zm-12.77-11.47l.1,.29-.24-.1-.1-.19-.1-.14,.1-.19,.24,.34h0Zm-13.88-12.87v.1l-.1-.05v-.14l-.1-.14,.05-.1,.05,.14,.05,.1v.05l.05,.05h0Zm-1.23-7.85c.29,.45,.19,.77,.19,1.25-.02,.61,1,1.62,1.11,2.31-.04,.9-1.62,4.03-.96,4.15,.3,.49-.57,.16-.77,.63-.37-.54-1.01-.18-1.35-.82-1.03-.12-1.55-.87-2.6-1.3-.42-.3,1-.77,1.11-1.25,.31-.73-.3-1.5-.05-2.36,.21-.94,.37-2.56,1.54-1.98,.38-.47,.98-.57,1.54-.58,.26-.39,.8-.57,.24-.05Zm-1.37-1.74h-.05l-.05-.1,.05-.05,.05,.1v.05Zm-33.6-43.29l.24,.53h-.19l-.19-.05-.14-.14-.1-.14-.34,.24-.72-.34-.53-.72,.19-.87,.48,.1,.67,.63,.63,.77Zm86.62,6.99c-.16,2.99-1.31,6.51-.92,9.35,5.72,5.85,6.8,1.28,7.13,9.59,.58,4.72-.64,9.58-.82,14.36,.25,.92-.94,.57-1.45,.67,.21,1.92,.69,6.06,.92,8,.15,1.14,.24,2.53,.53,3.62-.18,.68-.61,1.45-.53,2.17,.41,1.62,1.36,3.32,1.59,4.96-.66,.55-1.27,1.8-2.27,1.21-2.25-.57-5.65-1.7-7.04,.87,.72,1.6,1.36,3.98,2.31,5.4,1.23,.7,1.58,.83,1.98,2.22,.83,.81,1.8,.98,1.4,2.31,.48,.9,2.01,1.13,1.93,2.27,.05,.54-.24,1.1-.19,1.64,.54,.94,.45,1.63-.24,2.46-.5,.82,1.68,4.26,2.46,3.86,.35-.28,.5,.19,.63,.43,.42,.45-.16,1.09-.24,1.59-.04,1.76-.26,1.99-1.74,3.04-2.44,2.35-5.69,4.4-8.05,6.75-.1-.25-.33-.71-.63-.77l.14,.29c-.56-.35-.81,.22-1.21,.43-.11-.14,.12-1.28,.14-1.45-.03-1.2-.77-2.41-1.78-3.04-.33-.87-1.18-1.19-1.93-1.45,.25-.12,.59,.11,.82,.19-.11-.41-.06-.87-.67-.77-.14-.33-.17-.57-.48-.19-.05-.68-.67-.26-.72,.19,.12,.17,.66,.01,.48,.34-.09,.3,.52,.2,.43,.48-.6-.38-1.66-.54-2.36-.43-.24,.21-.29,.42-.67,.29-1.46-.46-2.65-1.73-2.7-3.33-.25-.53-1.03-1.85-1.06-2.31,.21,.33,.53,.95,.87,1.16-.31-.54-.43-1.42-.48-2.02-.42-.66-1.57-1.64-2.07-.53-.76-.13-2.18-.82-3.23-.92-1.88-.58-1.87-2.2-3.95-2.7,1.45,.18,1.82,.32,.67-.96,.22-.3,.02-.32-.19-.48-.3-.31-1.02,.93-.92-.43-.25-.61-.73-.88-.53-1.74-.11-.64-.69-1.55-.58-2.22,.07-.33,.43-.41,.72-.43,.41-.48-.1-.81-.39-.24,.06-.96,.51-.59,.87-1.06-.62,.02-1.1-.19-.63-.82-.31,0-.55-.31-.34-.58,.3,.54,.26-.26,.48-.24,2.2-.13,.45-.84-.58-.82,.64,.7-1.52-.58-1.88-.48-.43-.22-1.52,.27-1.64,0,.4-.15,.76-.17,.43-.63-.08-.31,0-.77-.48-.67-.09,.54-.11,1.17-.58,1.54,.65-.24,.37,.85,.05,1.06-.12-.3-.44-.79-.82-.77-.31-.21-.49-.63,.05-.63-1.18-1.51-1.32-.22-2.55-.29,.36-.51-.61-.79-1.01-.92-.19-.3-.47-.71-.72-.96-.3,0-.61-.16-.67-.48-.43-.37-.53-1.18-1.06-1.49-.04-.17-.03-.95-.29-.96-.57,.09-.41-.7-.63-1.01-.74-.48-1.17-1.12-.67-1.93-1.35,.26-2.68-.96-3.95-1.25-.45-.32-.65-1.58-.92-2.17-.24-.52-3.83-2.96-2.46-3.18,.51-.73,.51,.55,.92,.24,.4-1.37-.95-.42-1.4-1.25-.24-.32-.8-.49-1.16-.63-.11-.65-.86-.9-1.06-1.54-.14-.4-1.39-.02-.96-.53,.26,.09-.16-1.78-.39-1.64,.04-.28,.39-.49,.34-.77-.07-.27-.52-.54-.39-.82-.49-.28-.57-.55-.34-1.06-.02-.58-.2-1.52-.77-1.78-.49-.02-1.17-.11-1.06,.58-1.69-1.17-1.44-1.02-.67-2.89,.14-.57-.3-.58-.63-.82-.31-.18-.09-.62-.19-.92-.31-.19-.86-.69-1.11-.96-.12-.28-.4-1.16-.58-1.4-.24,.09-.46-.17-.58-.34-.14-.68-.4-1.39-.87-1.93-.45-2.76-1.87-.17-1.64-2.31,.46-.85-.06-1.31-.19-2.07,.14-.99,.29-2.27-.58-2.99-.18-.21-.69-.63-.87-.29,.84-2.86-1.63-3.86-2.84-6.07-.92-1.58-1.46-3.59-.92-5.3,.35-.86-.57-2.16-.34-2.84,.59,1.96,.94,1.49,1.06-.19,.17-1.05-.14-2.39-1.4-2.51,1.06,1.09-.32,.17-.77-.1-.12-.36-.49-.72-.53-1.11-.24-.06-.45,.19-.67,.14,.12,.34,.5,.42,.72,.63-2.09-.28-4.63-.76-6.31-1.74,.95,0,.19-1.03,.14-1.64,.16-1.23-1.6-2.12-2.55-2.31-.36-.25-1.17-.42-1.25-.92-1.31,.77-.85-.38-1.4-.87-.02,.27-.25,1.72,.24,1.49,.32,.24-.21,.35-.29,.63,0,.21-.15,.39-.39,.34-.03,.22-.24,.42-.34,.63-1.61,.14-3.25-.35-4.34-1.54-.68-.65-1.85-1.28-2.75-1.78-.53-.37-1.05-1.44-1.69-1.59-1.16,.2-1.35-.11-2.17-.77-.28-.21-.83-.05-1.06-.39-.31-.64-1.22-.95-1.74-1.4-.24-.98,.44-2.42-.72-2.94,.31-.91,.53-1.56-.05-2.51-.2-.43-.96-.96-.82-1.45,1.4-.87,.67-2.34,1.69-3.42,.43-.32,1.23,.11,1.64-.29,16.77,6.19,34.31,12.5,51.1,18.65,2.63,.85,5.48,2.62,8.34,2.31,8.3-.01,21.21,0,29.45,0Z"/><g><g><path class="cls-3" d="M94.07,42.29c.23-.43,.53-.9,.53-1.36,0-.45-.13-.96-.61-1.31-.43-.31-.75-.37-1.12,.1,.1,.03,.19,.06,.29,.09,0,.04-.02,.08-.02,.11-.55-.11-1.12-.15-1.65-.33-.89-.32-1.78-.27-2.58,.07-.81,.34-1.62,.54-2.47,.61-.95,.09-1.84,.3-2.64,.83-.21,.14-.4,.39-.5,.63-.4,.91-.32,1.89-.33,2.86,0,.2-.06,.48-.2,.57-.39,.26-.52,.65-.49,1.05,.04,.7-.43,1.02-.89,1.36-.32,.24-.7,.41-1.03,.64-.18,.13-.31,.32-.46,.48h0s0,0,0,0c-.34,.16-.68,.31-1.01,.47,0,0,0,0-.01,0,0,0,0,0,0,0-.73-.39-2.31-.19-2.94,.35-.13,.11-.32,.16-.5,.21-.88,.25-1.86-.18-2.72,.52-.42,.34-1.14,.33-1.73,.43-.16,.03-.43-.04-.52-.16-.38-.47-.67-.95-1.32-1.22-.49-.2-.93-.43-1.48-.42-.38,0-.76-.07-1.03-.1-.28-.42-.52-.79-.76-1.15-.35-.52-.85-.94-.93-1.61-.1-.86-.61-1.52-1.19-2.07-.91-.88-1.49-1.93-1.91-3.09-.07-.18-.04-.44,.03-.63,.17-.4,.19-.71-.2-1.02-.6-.48-.98-1.11-1.07-1.9-.04-.32-.17-.63-.21-.96-.03-.23,.02-.47,.05-.7,.07-.45,.16-.9,.22-1.35,.03-.23-.04-.47-.02-.7,.08-1.06,.14-2.12,.28-3.16,.18-1.28,.42-2.54,1.07-3.7,.27-.47,.36-1.05,.51-1.59,.04-.13-.02-.29-.03-.43-.17,.03-.38,.02-.51,.11-.26,.19-.49,.14-.67-.05-.34-.38-.78-.38-1.24-.42-.38-.03-.77-.1-1.12-.25-.65-.26-1.25-.62-1.9-.86-.29-.11-.51-.22-.64-.51-.28-.59-.6-1.15-.88-1.73-.05-.1-.03-.24-.05-.36-.05-.42-.08-.85-.18-1.27-.04-.17-.21-.33-.34-.47-.3-.32-.61-.62-.9-.94-.31-.34-.6-.7-.89-1.05-.1-.12-.22-.23-.28-.36-.25-.53-.46-1.09-.72-1.61-.39-.78-.62-1.66-1.45-2.16-.31-.19-.5-.6-.81-.79-.34-.21-.45-.69-.98-.69-.73-.01-1.46-.16-2.2-.25-.1-.01-.21,0-.3,.04-.22,.09-.44,.18-.64,.3-.21,.13-.46,.27-.57,.48-.21,.38-.35,.8-.47,1.21-.28,.99-1.01,1.24-1.83,.66-.4-.28-.87-.45-1.3-.69-.27-.15-.52-.32-.78-.49-.15-.1-.28-.25-.44-.33-.75-.36-1.03-1.07-1.1-1.78-.08-.84-.48-1.5-.93-2.12-.27-.38-.82-.54-1.19-.86-.49-.42-.93-.91-1.41-1.35-.25-.23-.53-.43-.78-.65-.23-.21-.53-.4-.66-.67-.22-.47-.54-.64-1.03-.63-1.34,0-2.68,0-4.02,0-1.15,0-1-.11-.99,1,0,.47-.14,.62-.61,.62-2.54-.02-5.08,0-7.63-.01-.28,0-.57-.03-.83-.12-3.48-1.25-6.95-2.52-10.42-3.79-.74-.27-.74-.28-.59-1.06-.18,0-.34-.01-.5,0-2.16,.19-4.31,.38-6.47,.58-.52,.05-.59,.19-.36,.68,.08,.17,.21,.31,.3,.46,.1,.17,.2,.34,.3,.51,.11,.19,.19,.42,.34,.58,.28,.31,.51,.6,.35,1.06-.1,.31,.06,.54,.29,.77,.4,.42,.87,.82,.75,1.52-.02,.09,.1,.24,.19,.32,.45,.4,.89,.78,.68,1.5-.04,.15,.13,.53,.22,.53,.46,.03,.51,.33,.49,.65-.04,.63,.18,1.23,.52,1.65,.42,.5,1.09,.79,1.65,1.16,.24,.16,.54,.26,.73,.46,.82,.86,1.61,1.74,2.39,2.63,.08,.09,.11,.27,.08,.39-.14,.53-.03,1.15-.53,1.56-.07,.05-.06,.2-.08,.3-.1,.02-.22,.02-.3,.07-.35,.26-.72,.24-1.11,.12-.16-.05-.33-.1-.5-.09-.16,0-.31,.09-.47,.13,.1,.16,.18,.35,.31,.47,.51,.5,1.33,.7,1.46,1.56,0,.06,.1,.12,.16,.16,.45,.25,.88,.58,1.36,.72,.37,.11,.57,.3,.78,.59,.19,.27,.41,.55,.82,.19,.28-.25,1,.05,1.2,.38,.11,.19,.28,.35,.43,.52,.59,.7,1.61,.82,2.16,1.64,.41,.62,.65,1.97,.33,2.66-.23,.49-.36,1.02-.56,1.61,.27,.04,.49,.1,.71,.1,.4,.01,.7,.12,.75,.57-.12,.07-.23,.14-.39,.23,.3,.24,.56,.44,.81,.64,.04-.03,.08-.06,.12-.09-.05-.17-.11-.35-.18-.58,.12,.06,.21,.08,.27,.13,1.03,.91,2.32,1.51,3.18,2.64,.08,.1,.23,.17,.36,.22,.63,.23,.88,.75,1.03,1.35,.07,.27,.12,.55,.22,.81,.2,.49,.53,.55,.94,.23,.25-.19,.51-.36,.76-.53,.63-.43,.6-1.45-.03-1.86-.16-.1-.27-.31-.36-.49-.16-.31-.23-.67-.43-.94-.18-.24-.48-.38-.73-.57-.27-.21-.53-.43-.8-.64-.04,.02-.08,.05-.12,.07,.03,.26,.06,.53,.09,.79,0,0,0,0,0,.01,0,0,0,0,0,0-.15-.07-.3-.15-.45-.21-.51-.22-.88-1.05-.66-1.56,.2-.46,.1-.82-.21-1.2-.23-.28-.39-.62-.56-.95-.14-.27-.19-.6-.39-.82-.44-.5-.85-.97-.79-1.69,.01-.13-.02-.28-.07-.41-.19-.52-.39-1.04-.59-1.57-.2-.53-.47-.98-1.14-.99-.09,0-.25-.24-.24-.35,.06-.34-.09-.48-.37-.6-.12-.05-.18-.23-.27-.35-.35-.42-.31-1.11-.95-1.31-.53-.17-.72-.58-.8-1.09-.08-.52-.18-1.04-.32-1.55-.04-.14-.24-.22-.37-.34-.15-.13-.4-.24-.42-.39-.12-.74-.73-.98-1.26-1.32-.19-.67-.47-1.24-1-1.77-.62-.6-1.46-.93-1.95-1.67-.27-.4-.47-.77-.48-1.27-.02-.69-.13-1.38-.2-2.07,0-.09-.05-.19-.11-.25-.68-.73-.37-1.56-.2-2.34,.11-.49,.47-.54,.88-.24,.25,.18,.49,.41,.77,.51,.25,.09,.55,.08,.83,.06,.15-.01,.31-.22,.43-.19,.18,.04,.44,.18,.48,.32,.18,.68,.72,.73,1.28,.88,.68,.18,.71,.33,.52,.89-.23,.68,.01,1.23,.42,1.77,.26,.35,.55,.79,.55,1.19,0,.85,.58,1.37,.91,2.03,.1,.2,.12,.43,.21,.63,.06,.13,.16,.26,.27,.35,.08,.07,.2,.08,.3,.12,.03,.04,.05,.09,.08,.13-1.18-.13-.84,.8-1.13,1.38,.29,.11,.57,.33,.79,.28,.22-.06,.37-.38,.6-.65,.18,.24,.36,.49,.56,.74,.29,.38,.52,.87,.91,1.08,.48,.26,.72,.64,1.01,1.04,.2,.28,.48,.51,.77,.72,.19,.14,.43,.19,.65,.28,.18-.07,.42-.14,.55-.05,.13,.08,.18,.33,.21,.51,.03,.21-.06,.46,.02,.64,.13,.32,.39,.58,.54,.89,.18,.37,.47,.63,.86,.63,.63-.01,.75,.35,.84,.85,.09,.51,.39,.74,.91,.65,.51-.1,.76,.23,.9,.55,.12,.26,.03,.64-.03,.95-.04,.2-.21,.38-.32,.57-.2,.35-.09,.98,.21,1.21,.2,.16,.43,.28,.6,.47,.35,.4,.72,.74,1.31,.67,.07,0,.14,.05,.21,.09,.25,.15,.5,.32,.75,.47,.33,.19,.66,.37,.99,.56-.02,.04-.05,.08-.07,.12-.16-.1-.31-.19-.51-.31,.35,1.03,1.37,2.23,2.46,2.29-.36,.38-.03,.53,.2,.71,.21,.17,.42,.32,.62,.49,.33,.3,.68,.59,.97,.93,.34,.39,.64,.83,.96,1.25,.09,.12,.2,.24,.3,.35,.5,.59,.94,1.24,1.51,1.75,.69,.61,.99,1.32,1.06,2.2,.03,.33,.12,.67,.25,.97,.25,.55,.49,1.13,1.1,1.28-.02,.28-.07,.48-.04,.68,.05,.39-.05,.68-.34,.96-.21,.2-.35,.47-.57,.77,.24,.06,.37,.07,.47,.13,.13,.07,.24,.18,.36,.28-.1,.1-.18,.24-.3,.3-.17,.07-.36,.07-.55,.12-.48,.12-.56,.37-.27,.77,.09,.12,.15,.27,.22,.4,.15,.32,.25,.67,.45,.95,.31,.46,.68,.88,1.04,1.3,.21,.24,.41,.53,.67,.67,.95,.49,2,.8,2.86,1.47,.46,.36,.8,.88,1.21,1.31,.18,.19,.38,.41,.62,.51,.56,.23,1.14,.41,1.72,.59,.58,.18,1.17,.34,1.75,.5,.08,.02,.2,.03,.27,0,.48-.28,.78,.02,1.09,.32,.25,.24,.5,.5,.78,.71,.48,.36,.97,.7,1.46,1.04,.14,.1,.29,.18,.45,.24,.57,.21,1.15,.39,1.72,.62,.56,.23,1.09,.52,1.64,.76,.33,.15,.67,.28,1.02,.38,.98,.28,2.08,.21,2.84,1.08,.1,.12,.3,.15,.46,.22,.56,.25,1.12,.51,1.69,.75,.25,.1,.52,.16,.78,.23,.6,.16,1.25,.1,1.83,.47,.77,.49,1.66,.65,2.55,.41,.62-.17,1.22-.46,1.82-.72,.37-.17,.72-.4,1.08-.58,.23-.11,.49-.18,.74-.26,.16-.05,.32-.1,.57-.18-.19-.13-.28-.2-.4-.28,.13-.1,.24-.18,.27-.2,.32,.1,.56,.18,.78,.25-.05,.05-.14,.15-.22,.24,.65,.21,1.27,.42,1.9,.62,1.64,.53,2.69,1.86,3.91,2.94,.65,.57,1.24,1.2,1.86,1.8,.03-.02,.08-.03,.08-.05,.08-.69,.57-1.32,.2-2.07-.07-.14-.03-.4,.06-.56,.3-.57,.65-1.1,.94-1.67,.18-.35,.41-.49,.81-.48,1,.02,2,.02,2.99,0,.16,0,.41-.11,.44-.23,.09-.31,.09-.65,.13-.97,0-.01-.05-.04-.07-.05-.42-.14-.6-.48-.8-.84-.08-.15-.25-.3-.41-.36-.66-.28-1.07-.81-1.53-1.34q1.06-.08,1.07-1.14s0-.06,0-.09c-.07-.48,.15-.61,.61-.61,1.5,.02,2.99,.01,4.49,0,.22,0,.47,.06,.54-.29,.06-.31,.29-.31,.49-.15,.25,.19,.44,.12,.57-.12,.23-.39,.45-.79,.67-1.19-.12,.15-.25,.29-.36,.44,.11-.15,.24-.29,.36-.44,0,0,0,0,0,0,0,0,.01-.01,.01-.02h0s0,0,0,0c.14-.14,.3-.41,.43-.4,.47,.02,.66-.25,.83-.6,.08-.17,.2-.32,.31-.48,.04,.02,.08,.03,.12,.05-.03,.17-.04,.35-.1,.51-.11,.27-.1,.47,.18,.62,.12,.07,.23,.17,.33,.26,.02,.02,.04,.04,.06,.06h0c.13,.4,.24,.1,.28-.03,.16-.43,.29-.88,.42-1.32,.19-.62,.36-1.24,.56-1.91h-.59c.35-.24,.82-.23,.74-.74-.28-.05-.57-.1-.78-.14,.25-.43,.61-.78,.66-1.17,.1-.83,.51-1.45,1.08-2,.2-.2,.45-.37,.58-.61Z"/><path class="cls-3" d="M93.71,43.65c0,.08,.05,.2,.12,.23,.06,.03,.2,0,.24-.06,.21-.27,.4-.56,.64-.91-.7-.1-1.06,.21-1,.74Z"/></g><path id="MEX2712" class="cls-1" d="M25.04,23.77v-.02s.08-.12,.08-.12v-.06s.02-.04,.02-.04h.02s0,.05,0,.05l-.03,.08-.02,.02-.02,.03-.02,.02v.03s-.04,0-.04,0h0Zm.2-.09v-.07s0-.18,0-.18l.03-.04h.06l.07,.02,.04,.03,.02,.06v.02l-.03,.03-.06,.04-.12,.08h-.02s0,0,0,0Zm-4.02-3.6v.06s-.18-.07-.18-.07l-.05-.05v-.14s0-.09,0-.09l.02-.08v-.04s0,.14,0,.14v.16s.07,.07,.07,.07l.14,.04h0Zm-2.6-2.33l.02,.06-.05-.02-.02-.04-.02-.03,.02-.04,.05,.07h0Zm-2.82-2.62v.02h-.02v-.04l-.02-.03v-.02s.02,.03,.02,.03v.02s0,0,0,0h0s0,0,0,0Zm.16-1.99l.03,.07,.05,.05,.02,.02-.02,.04-.02,.04-.02,.05,.02,.05-.02,.07,.19,.18,.19,.32-.08,.14-.02,.14-.06,.21-.08,.06,.03,.06-.08,.08-.03,.08-.05,.06-.03,.07,.02,.09h.06s.03,.07,.03,.07l-.05,.02-.05-.02-.08,.02-.11,.07-.08-.07h-.1s-.06,.01-.06,.01l-.05-.06h-.06l-.1-.08-.06-.04-.06,.02-.05-.02h-.1l-.06-.02v-.06h-.14v-.05l-.13-.06-.14-.05-.06-.05h-.05l-.06-.04,.14-.07,.14-.07,.08-.08h.03s.03-.05,.03-.05l.02-.05,.02-.04,.03-.05-.02-.05-.06-.04-.02-.18,.02-.19,.05-.18,.06-.17,.03-.05,.05-.06,.05-.05,.08-.05,.08,.06h.11l.19-.12h.1s.13-.01,.13-.01h.1s.06-.06,.06-.06l.03-.04,.08-.02-.02,.04-.08,.06h0Zm-.69,.04h0v-.02s0,0,0,0v.02s0,0,0,0Zm10.75-7.28v.19s-.05,.3-.05,.3l-.04,.31-.04,.3-.04,.34-.02,.11v.08s-.02,.06-.02,.06v.05s.05,.05,.05,.05l.53,.45,.18,.15,.05,.03,.06,.03,.06,.02,.06,.02,.1,.03,.08,.04,.07,.06,.09,.07,.06,.06,.03,.05,.02,.06v.09s.05,.44,.05,.44v.14s.03,.23,.03,.23l.02,.24,.02,.23,.02,.23v.14l-.05,.11-.02,.06v.23s-.03,.23-.03,.23l-.03,.28-.02,.28-.05,.58-.03,.33v.11s-.03,.02-.03,.02h-.26s.08,.71,.08,.71l.11,.93,.02,.15,.03,.28v.09s0,.04,0,.04v.04s.03,.03,.03,.03v.03s.02,.04,.02,.04v.04l-.03,.1-.05,.13-.03,.12v.1l.07,.21,.03,.11,.04,.1,.11,.29,.02,.07,.04,.09,.02,.1v.05l-.13,.13-.14,.14-.04,.02h-.05s-.11-.04-.11-.04l-.43-.11-.16-.03h-.14s-.15,0-.15,0h-.17s-.08,.03-.08,.03l-.05,.02-.05,.05-.07,.06-.06,.05-.06,.06-.03,.06,.03,.08,.19,.47,.1,.24,.1,.24,.02,.05,.04,.03,.09,.06,.21,.12,.04,.06v.07s.03,.08,.03,.08l.04,.07,.33,.28-.03,.04-.02,.05v.1l.07,.08,.07,.07,.07,.06,.09,.05,.05,.04,.03,.05,.02,.05v.21s-.03,.07-.03,.07v.07s0,.06,0,.06l.02,.06,.03,.06,.02,.06,.02,.11-.04,.07-.05,.06-.05,.09-.02,.08v.08l.03,.08,.05,.07,.07,.11,.06,.11,.07,.11,.08,.09,.04,.05,.03,.02h.04s.06,0,.06,0l.05-.02h.02s.02,.03,.02,.03l.02,.04,.02,.04,.02,.03,.02,.04-.03,.09-.03,.08-.03,.09-.02,.09v.23l-.02,.05-.31,.25-.3,.26-.3,.25-.3,.24-.3,.25-.31,.24-.08,.07-.03,.06-.06-.12-.07-.04v.02s.02,.02,.02,.02v.02s-.06-.02-.06-.02h-.06l-.09,.1-.32,.3,.04-.16c.05-.29,.03-.55-.06-.79-.12-.24-.27-.41-.45-.46h-.56c-.17,.01-.33-.02-.46-.12-.2-.13-.29-.34-.31-.62l-.13-.42-.33-.3c-.15-.07-.53,.02-.78-.17-.2-.11-.34-.29-.45-.53l-.04-.07-.15-.25-.03-.02v-.03c-.23-.27-.35-.49-.34-.6,0-.12,.01-.22,.02-.41-.02-.3-.09-.58-.24-.64-.15-.06-.29-.02-.44,.04l-.03,.03h-.05c-.58-.07-1.02-.48-1.44-1.02-.32-.5-.66-.84-1.05-1.08-.26-.14-.58-.61-.87-1.09l-.52-.68-.05-.02,.02-.1,.03-.03,.03-.02v-.03s-.02-.04-.02-.04l-.04-.15v-.08l-.05-.02v-.03s-.14-.23-.14-.23l-.05-.29-.08-.11-.16-.05-.14-.07-.15-.17-.13-.2-.2-.63-.23-.39-.38-.59-.12-.24c-.19-.31-.16-.88-.28-1.23-.03-.11-.08-.22-.15-.31-.46-.58-.72-.91-.81-1.67,0-.29,.05-.48,.11-.63l.06-.21c.08-.35-.19-.5-.55-.6-.56-.11-1.01-.29-1.11-.45-.14-.19-.18-.34-.26-.5-.05-.08-.11-.12-.22-.17-.07-.03-.16-.07-.23-.09-.08,0-.17,.05-.27,.14-.04,.04-.1,.07-.19,.08h-.27s-.13,0-.13,0c-.19,0-.37-.05-.54-.13-.22-.12-.43-.28-.64-.47-.26-.19-.43-.18-.6-.14l-.04-.41-.03-.02h-.11s-.03-.02-.03-.02l-.05-.04-.08-.11-.04-.03-.06-.02-.18-.13v-.08s0-.09,0-.09v-.19s0-.05,0-.05v-.05l-.02-.04-.03-.05h-.02s-.05-.05-.05-.05h-.02v-.07l.07-.12v-.08s-.03-.14-.03-.14l-.05-.12-.08-.11-.08-.11-.02-.02v-.06s.06-.06,.06-.06l.07-.05,.05-.07,.04-.08v-.2s.03-.08,.03-.08l.05-.09,.06-.08,.06-.03h.17s.06,0,.06,0l.12-.04,1.36,.53,1.26,.46,1.27,.47,1.22,.43,1.3,.48,1.23,.44,3.51,1.27,.27,.07,6.53,.04v.18Z"/></g></g></svg>