<svg xmlns="http://www.w3.org/2000/svg" viewBox="0 0 306.04 276.52"><defs><style>.cls-1{fill:#fef6fc;}.cls-1,.cls-2,.cls-3{stroke:#6d4162;stroke-miterlimit:10;stroke-width:0.78px;}.cls-2,.cls-3{fill:none;}.cls-3{isolation:isolate;}.cls-4{fill:#713972;}.cls-5{fill:#b25fac;}.cls-6{fill:#f230b9;}</style></defs><g id="estados"><circle class="cls-1" cx="136.96" cy="151.48" r="97.03"/><circle class="cls-2" cx="136.96" cy="151.48" r="104.09"/><polyline class="cls-3" points="213.34 81.1 271.32 41.25 305.78 41.25"/><polyline class="cls-3" points="214.19 220.92 271.32 255.56 305.78 255.56"/><polyline class="cls-3" points="239.72 131.27 272.01 116.16 306.47 116.16"/><polyline class="cls-3" points="238.56 172.75 271 186.07 305.46 186.07"/><path class="cls-4" d="M105.61,204.33h-5.35v14.83H98.09V204.33H92.76v-1.79h12.85Z"/><path class="cls-4" d="M114.07,219.16a4.34,4.34,0,0,1-.29-1.3,4.74,4.74,0,0,1-3.52,1.53,4.34,4.34,0,0,1-3-1,3.32,3.32,0,0,1-1.17-2.61,3.51,3.51,0,0,1,1.46-3,7,7,0,0,1,4.13-1.07h2v-1a2.37,2.37,0,0,0-.66-1.76,2.64,2.64,0,0,0-2-.66,3.1,3.1,0,0,0-1.9.57,1.67,1.67,0,0,0-.76,1.38h-2.12a2.94,2.94,0,0,1,.65-1.78,4.5,4.5,0,0,1,1.78-1.37,6.09,6.09,0,0,1,2.47-.5,4.9,4.9,0,0,1,3.35,1.07,3.86,3.86,0,0,1,1.25,2.94v5.68a6.93,6.93,0,0,0,.44,2.71v.18Zm-3.5-1.61a3.72,3.72,0,0,0,1.88-.51,3.07,3.07,0,0,0,1.29-1.34v-2.53h-1.65c-2.59,0-3.88.75-3.88,2.27a1.92,1.92,0,0,0,.66,1.55A2.56,2.56,0,0,0,110.57,217.55Z"/><path class="cls-4" d="M129.62,213.12a7.34,7.34,0,0,1-1.31,4.55,4.16,4.16,0,0,1-3.49,1.72,4.33,4.33,0,0,1-3.62-1.66l-.1,1.43h-1.94V201.63h2.11v6.54a4.29,4.29,0,0,1,3.53-1.59,4.18,4.18,0,0,1,3.53,1.7,7.56,7.56,0,0,1,1.29,4.66Zm-2.12-.24a5.65,5.65,0,0,0-.83-3.33,2.76,2.76,0,0,0-2.4-1.18,3.11,3.11,0,0,0-3,1.94v5.35a3.19,3.19,0,0,0,3,1.93,2.74,2.74,0,0,0,2.36-1.17A6.08,6.08,0,0,0,127.5,212.88Z"/><path class="cls-4" d="M139.9,219.16a4.6,4.6,0,0,1-.3-1.3,4.7,4.7,0,0,1-3.51,1.53,4.36,4.36,0,0,1-3-1,3.32,3.32,0,0,1-1.17-2.61,3.49,3.49,0,0,1,1.47-3,6.89,6.89,0,0,1,4.12-1.07h2.06v-1a2.34,2.34,0,0,0-.67-1.76,2.64,2.64,0,0,0-2-.66,3.07,3.07,0,0,0-1.89.57,1.69,1.69,0,0,0-.77,1.38h-2.12a2.89,2.89,0,0,1,.66-1.78,4.43,4.43,0,0,1,1.78-1.37,6.06,6.06,0,0,1,2.47-.5,4.87,4.87,0,0,1,3.34,1.07,3.84,3.84,0,0,1,1.26,2.94v5.68a7,7,0,0,0,.43,2.71v.18Zm-3.51-1.61a3.75,3.75,0,0,0,1.89-.51,3.19,3.19,0,0,0,1.29-1.34v-2.53h-1.66c-2.59,0-3.88.75-3.88,2.27a1.92,1.92,0,0,0,.66,1.55A2.56,2.56,0,0,0,136.39,217.55Z"/><path class="cls-4" d="M152.18,215.88a1.57,1.57,0,0,0-.65-1.33,6.37,6.37,0,0,0-2.25-.81,10.67,10.67,0,0,1-2.54-.82,3.6,3.6,0,0,1-1.39-1.14,2.77,2.77,0,0,1-.45-1.58,3.19,3.19,0,0,1,1.28-2.57,5,5,0,0,1,3.28-1,5.15,5.15,0,0,1,3.41,1.09,3.43,3.43,0,0,1,1.3,2.77h-2.12a1.89,1.89,0,0,0-.74-1.49,2.73,2.73,0,0,0-1.85-.63,2.83,2.83,0,0,0-1.8.5,1.55,1.55,0,0,0-.65,1.31,1.27,1.27,0,0,0,.6,1.15,7.41,7.41,0,0,0,2.19.75,11.11,11.11,0,0,1,2.56.84,3.73,3.73,0,0,1,1.45,1.18,2.88,2.88,0,0,1,.48,1.69,3.15,3.15,0,0,1-1.33,2.65,5.56,5.56,0,0,1-3.43,1,6.24,6.24,0,0,1-2.63-.53,4.3,4.3,0,0,1-1.78-1.46,3.55,3.55,0,0,1-.65-2h2.11a2.2,2.2,0,0,0,.85,1.68,3.28,3.28,0,0,0,2.1.62,3.41,3.41,0,0,0,1.92-.48A1.51,1.51,0,0,0,152.18,215.88Z"/><path class="cls-4" d="M162,217.66a3,3,0,0,0,2-.68,2.4,2.4,0,0,0,.94-1.71h2a3.86,3.86,0,0,1-.73,2,4.81,4.81,0,0,1-1.8,1.53,5.19,5.19,0,0,1-2.38.57,5.06,5.06,0,0,1-4-1.69,6.7,6.7,0,0,1-1.49-4.6v-.35a7.42,7.42,0,0,1,.66-3.21,5.06,5.06,0,0,1,1.9-2.18,5.39,5.39,0,0,1,2.93-.78,5,5,0,0,1,3.45,1.25,4.42,4.42,0,0,1,1.47,3.23h-2a2.88,2.88,0,0,0-.91-2,2.78,2.78,0,0,0-2-.77,3,3,0,0,0-2.5,1.16,5.48,5.48,0,0,0-.88,3.35v.39a5.3,5.3,0,0,0,.88,3.29A3,3,0,0,0,162,217.66Z"/><path class="cls-4" d="M168.71,212.87a7.33,7.33,0,0,1,.71-3.26,5.37,5.37,0,0,1,2-2.24,5.46,5.46,0,0,1,2.9-.79,5.2,5.2,0,0,1,4.08,1.75A6.7,6.7,0,0,1,180,213v.15a7.4,7.4,0,0,1-.69,3.24,5.28,5.28,0,0,1-2,2.23,5.5,5.5,0,0,1-2.95.8,5.21,5.21,0,0,1-4.07-1.75,6.66,6.66,0,0,1-1.56-4.62Zm2.12.25a5.26,5.26,0,0,0,1,3.3,3.23,3.23,0,0,0,5.1,0,5.79,5.79,0,0,0,1-3.53,5.29,5.29,0,0,0-1-3.29,3.08,3.08,0,0,0-2.57-1.26,3,3,0,0,0-2.52,1.24A5.74,5.74,0,0,0,170.83,213.12Z"/><path id="TAB" class="cls-5" d="M211.31,150.29v26.5l-20.24-.15-.15-.14-.29-.73.14-.73.15-.73.29-.43.58-.29H193l.14-.73-.14-.15-1.17-1.89-.29-.44-.43-.29-1,.15-.59-.15-.58-.14-.58-.44-.29-.44.29-1.45v-.73l-.44-.29-.44-.29-.29-.3-.87-.29-1-.29-.87-.29-.59-.29-.72-.29-1-.44-.73-.58-.29-.73v-1.89l-.29-1.61-.44-1.74-.58-1.75-.88-1.31-.87-.29-1-.15-.87.15h-1l-.59-.44.15-.87.44-.88.29-.43-.29-1.46-.15-.44v-1.6l-.73-1.16-.87-.73-1-.15-.87.73-1.17-.58-.73-.15h-.58l-.58.29-.29.44-.15.44-.29.58-.58-.73.14-1.6-.73-.44h-.29l-1,.29-1.31.88-1.31,1.31-1.16,1.31.87,1.46-1,.72-1.6.15-1.46-.29-.87.73-1,.72-1.17.59-1.16.43-1.46.3-1.6.43-1.6.44-1.17.87-.43,1.46.14,1.16-.43.88-1.61.43-1,.3-.87.72-1.46,1.61-4.07,3.49-1.75,1.75-2.77,2.62-.73.58-1.31.88-1.45.14-1.46-.58-1.31-.73-.58-.58-.59-.73-.58-.73-.43-.73-.88-1.45-.58-1.31-.73-1-1.46-.29h-1.16l-.73-.44-.29-1-.15-1.16v-2l-.87-3.79v-2l.29-.73.44-1.45.29-.73V148.1l-.15-.87v-1.17l-.14-1-.15-1.16-.58,1-.87-.15-1,1-1.6-.29-1.46-1-1-1.31-1.17-.58-.87-.59-.44-.29-1.6-.29-1.16-.29-.73-.15-.44.3-.58.72-.29.3-.58.14-.15,1-1,2.77-.87,2.91-.88,2.91-.73,2.77-.29.87-.14.88-.29.87-.29.73-.59.58-.73.44-.58.44-.58.58v.29l-.15.87h-.29l-.43.44-.88.44-.14.29-.29.58-.3.29-.58,1.9-1.16,2.76L92,170.82l-.88-.29-.73-.44-.58-.58-.29-.87v-.44l.44-1v-.58l.14-.44.29-1.46.29-1.16.15-1-.29-.73-1.46-.58-.58-.58-1-1-1-1.17-1-1.89-1.16-.88L83,155.24l-1.31-.44h-1l-.44-.15-.15-.29-.14-.87-.44-.44-.73-.14h-.87l-1.75-.59-.44-1.16-.14-1.31-1-1-.58-.29h-.73l-.58-.15-.59-.29V148l-.29-.59-.14-.14-.29-.15h-1l-.73-.73v-1L69.9,143l.14-.72.44-.59.44-.73-.44-.58L70,140v-1l-.14-.59-.29-.29-.44-.58-.14-.29.14-.29.29-.15.15-.44-.29-.29-.44-.43-.15-.59.15-.72v-.59l-.15-.58-.29-.29h-.58l-.44-.15-.29-.43v-1.17l-.29-.44H67l1-.58,1.31-.58,3.49-.73.73-.73.87-.43,5.1-1.75-.29.58-.44.44-.29.58-.14.58.43.29,3.64-.58.88-.14.58-.44.44-.58v-.44l-.29-.29-.15-.29.15-.44.29-.29.58-.29.29-.29.58.14.73-.14.58-.29.59-.44.29.87,1,.29,2.91-.58.58-.58.58-1.6-.43-1.17-.15-.14H92l-.59.29-.58.29-.29.29-.58.44-3.21,1-.29.29-.44.43-.29.3-2,.29-1.45,1.16-.58.29h-1l-.44.59.29-1,.87-.44.88-.29.43-.44.44-.44,8.59-3.2,2-.44,5-.72,6.41.29,6.85-.29v.29l-.44.73-.44.43-.43.15.29.43v1.17l.29.44h.44l.72-.29.73-.44.29-.29v.73l-.43.87-.15.73h.29l.73-1,.29-.29-.29-.29.87-.15.3-.73-.3-.87-1-.29-1-.15V120l.72-.43,1-.29,7.43-.15,3.79-1,2.33-1.31,2.18-2,.88-1.31.43-.73.15-.43.43-.3.44.15.15.29.58,1.6.44,4.66.58,1.31.29-1.45-.29-.73v-1l.29-2-.29-1-1-2.18-.15-.59.59-.43h1.16l2,.14,1-.14,4.81-1.17.29-.14.14.87.59,1,.58.87.58.88.44,1.16.14,1.17.44,1.16.73.88.29.29.73.58.43.29.44.15H149l.29-.29h.44l2,.29h2.19l2.18-.15h2l-.14,4.37v4.52l-.15,1.45-.14,1.89.14,1.9.58,1.16,1.17.73,1.16.88,1,.87,1,.73.59.43.58.3.58.29.73.29.87.43.15.88.29.73.73.43,1.31.73,1.31.88,1.46.72h10.48l.29-.43.58-1.17.44-1.16.15-.88v-.29l-.15-.58v-1l.29-.87.29-.59,1-.29,1.31-.14,1.32.14H189l.43.15.59.14,1.45.59.73.14.73.29.87.15h1l.73.29.73.44.87.58.73.58.87.58.88.59.73.14,1.89-.14.87.14.88.29.43.44.44.44.29.29.73.14,2.62.15,2.77.15v8Z"/><path class="cls-1" d="M94.07,42.29a3.19,3.19,0,0,0,.53-1.36A1.53,1.53,0,0,0,94,39.62c-.42-.31-.74-.36-1.12.11l.29.08,0,.12a11.22,11.22,0,0,1-1.65-.34,3.48,3.48,0,0,0-2.58.07,8,8,0,0,1-2.47.61,5.56,5.56,0,0,0-2.64.84,1.41,1.41,0,0,0-.5.63A7.05,7.05,0,0,0,83,44.59a.88.88,0,0,1-.2.58,1.09,1.09,0,0,0-.5,1c0,.7-.43,1-.89,1.37s-.69.41-1,.64a4.27,4.27,0,0,0-.47.48h0l-1,.48h0a3.35,3.35,0,0,0-3,.34,1.34,1.34,0,0,1-.5.22c-.88.24-1.85-.18-2.71.52a3.91,3.91,0,0,1-1.73.43.65.65,0,0,1-.53-.16,3.25,3.25,0,0,0-1.32-1.22,3.61,3.61,0,0,0-1.47-.42,9,9,0,0,1-1-.11c-.28-.42-.51-.79-.76-1.15-.34-.51-.85-.94-.93-1.61A3.42,3.42,0,0,0,63.75,44a7.79,7.79,0,0,1-1.91-3.09,1,1,0,0,1,0-.63.74.74,0,0,0-.2-1,2.81,2.81,0,0,1-1.07-1.9c0-.32-.17-.63-.2-1a2.39,2.39,0,0,1,.05-.7c.06-.45.16-.9.22-1.35,0-.23,0-.47,0-.7.08-1.05.14-2.11.28-3.16A10.11,10.11,0,0,1,62,26.73a7.55,7.55,0,0,0,.5-1.59,1.27,1.27,0,0,0,0-.43,1.36,1.36,0,0,0-.51.11.46.46,0,0,1-.67-.05,1.67,1.67,0,0,0-1.24-.42,4.23,4.23,0,0,1-1.12-.25c-.64-.26-1.25-.61-1.9-.86a1,1,0,0,1-.65-.52c-.27-.58-.59-1.15-.88-1.73a1.36,1.36,0,0,1,0-.36c-.05-.42-.08-.85-.17-1.26A1.18,1.18,0,0,0,55,18.9c-.3-.32-.62-.62-.91-.94s-.6-.7-.89-1.06a1.4,1.4,0,0,1-.28-.36c-.25-.53-.46-1.09-.73-1.61a4.42,4.42,0,0,0-1.45-2.16c-.31-.2-.5-.6-.81-.79s-.45-.69-1-.7A20.29,20.29,0,0,1,46.7,11a.67.67,0,0,0-.31,0,4.68,4.68,0,0,0-.64.3,1.59,1.59,0,0,0-.57.48,6,6,0,0,0-.47,1.21,1.06,1.06,0,0,1-1.82.66c-.4-.28-.88-.45-1.31-.69a7.71,7.71,0,0,1-.77-.49,4.71,4.71,0,0,0-.45-.33,2.06,2.06,0,0,1-1.1-1.78,4.26,4.26,0,0,0-.93-2.12c-.28-.37-.82-.54-1.19-.86s-.93-.91-1.41-1.35c-.25-.23-.53-.43-.78-.65a2.62,2.62,0,0,1-.66-.67,1,1,0,0,0-1-.64c-1.34,0-2.68,0-4,0-1.15,0-1-.1-1,1,0,.47-.13.63-.61.62-2.54,0-5.08,0-7.62,0a2.57,2.57,0,0,1-.83-.12L8.77,1.84C8,1.57,8,1.56,8.18.78a4.09,4.09,0,0,0-.5,0l-6.47.58c-.52,0-.59.19-.36.67a2.8,2.8,0,0,0,.3.46L1.44,3a3,3,0,0,0,.34.57c.28.31.51.6.35,1.06-.1.31.06.54.29.78.4.41.87.82.75,1.52,0,.09.1.24.19.32.46.4.89.78.69,1.5,0,.15.13.52.22.53.46,0,.51.33.49.65a2.44,2.44,0,0,0,.52,1.65,7.29,7.29,0,0,0,1.65,1.16,4.11,4.11,0,0,1,.73.46c.82.86,1.61,1.74,2.39,2.63a.49.49,0,0,1,.09.39c-.14.53,0,1.14-.54,1.55-.06.06,0,.2-.08.31s-.22,0-.29.07a1.18,1.18,0,0,1-1.12.12,1.71,1.71,0,0,0-.5-.1,2.64,2.64,0,0,0-.46.13,2.59,2.59,0,0,0,.3.48c.51.5,1.33.7,1.47,1.56a.28.28,0,0,0,.16.16,7.17,7.17,0,0,0,1.36.73,1.36,1.36,0,0,1,.78.58c.19.27.4.56.82.19s1,.05,1.2.38a3,3,0,0,0,.43.52c.59.71,1.61.82,2.15,1.64a3.36,3.36,0,0,1,.33,2.66c-.22.49-.36,1-.56,1.61a5.24,5.24,0,0,0,.71.1c.39,0,.69.12.74.58l-.39.23.81.64.12-.1-.18-.57a.85.85,0,0,1,.27.13c1,.9,2.33,1.51,3.18,2.64a.89.89,0,0,0,.35.21,1.75,1.75,0,0,1,1,1.35,5.7,5.7,0,0,0,.22.81c.21.49.53.55.95.23.24-.19.5-.36.76-.53a1.15,1.15,0,0,0,0-1.86,1.14,1.14,0,0,1-.37-.49,6.73,6.73,0,0,0-.43-.94,3.48,3.48,0,0,0-.73-.57l-.8-.64-.12.07.1.79h0l-.45-.21a1.37,1.37,0,0,1-.66-1.56A1,1,0,0,0,20.46,28,5.64,5.64,0,0,1,19.9,27a3.45,3.45,0,0,0-.39-.82,2.24,2.24,0,0,1-.78-1.7.92.92,0,0,0-.07-.4c-.19-.53-.39-1.05-.59-1.57s-.47-1-1.14-1c-.09,0-.26-.25-.24-.35.06-.34-.09-.48-.37-.6-.12,0-.17-.23-.27-.35-.34-.41-.31-1.11-1-1.31a1.17,1.17,0,0,1-.81-1.09c-.08-.52-.18-1-.31-1.55,0-.13-.25-.22-.37-.33s-.4-.24-.43-.39c-.12-.75-.73-1-1.25-1.32a3.79,3.79,0,0,0-1-1.77c-.62-.6-1.46-.93-2-1.67a2.3,2.3,0,0,1-.48-1.27c0-.69-.13-1.38-.2-2.07a.45.45,0,0,0-.12-.25C7.5,6.48,7.81,5.65,8,4.87c.1-.49.46-.54.87-.24a3.27,3.27,0,0,0,.78.51,1.92,1.92,0,0,0,.83.06c.14,0,.3-.22.42-.19s.45.17.49.32c.18.68.72.73,1.28.88s.71.33.52.89a1.8,1.8,0,0,0,.43,1.77,2.27,2.27,0,0,1,.55,1.19c0,.85.58,1.37.91,2,.1.2.12.43.21.63a1,1,0,0,0,.27.35.91.91,0,0,0,.3.13l.08.13c-1.19-.14-.84.79-1.14,1.37.29.12.58.34.79.28s.37-.38.61-.65c.18.24.36.5.55.74s.53.88.91,1.09a2.87,2.87,0,0,1,1,1,3.31,3.31,0,0,0,.77.72,2.35,2.35,0,0,0,.65.27c.18-.07.42-.14.55-.05a.82.82,0,0,1,.21.51c0,.21-.06.46,0,.64s.39.58.54.89a.94.94,0,0,0,.86.63c.63,0,.75.35.84.85a.7.7,0,0,0,.91.64.78.78,0,0,1,.9.55,1.63,1.63,0,0,1,0,.95,2.17,2.17,0,0,1-.32.57,1.08,1.08,0,0,0,.21,1.21,4.61,4.61,0,0,1,.6.47,1.44,1.44,0,0,0,1.31.66.57.57,0,0,1,.21.1l.75.46,1,.56-.07.12L28,27.64a3.36,3.36,0,0,0,2.46,2.3c-.37.38,0,.52.2.71s.42.31.62.49a10.65,10.65,0,0,1,1,.93c.34.39.64.83,1,1.25.09.12.19.23.29.35a17,17,0,0,0,1.52,1.75,3.09,3.09,0,0,1,1.06,2.2,3,3,0,0,0,.25,1c.25.54.49,1.12,1.11,1.28a4.52,4.52,0,0,0,0,.68,1,1,0,0,1-.34,1,5.46,5.46,0,0,0-.57.78,3,3,0,0,1,.47.12c.13.08.24.19.36.28-.1.1-.18.24-.3.3a4.71,4.71,0,0,1-.54.12c-.48.12-.57.37-.28.77a2.67,2.67,0,0,1,.22.41,6.86,6.86,0,0,0,.45.95,14.44,14.44,0,0,0,1,1.3,2.51,2.51,0,0,0,.67.67,17.49,17.49,0,0,1,2.86,1.46A12.72,12.72,0,0,1,42.68,50a2,2,0,0,0,.62.5,17.32,17.32,0,0,0,1.71.6c.58.18,1.17.34,1.75.5a.36.36,0,0,0,.27,0c.49-.29.79,0,1.1.31a10.27,10.27,0,0,0,.77.71c.48.37,1,.71,1.47,1a2.14,2.14,0,0,0,.45.24c.57.21,1.15.38,1.71.61s1.09.52,1.65.76a7.35,7.35,0,0,0,1,.38c1,.29,2.08.22,2.84,1.09a1.45,1.45,0,0,0,.45.22c.57.25,1.13.51,1.7.74a5.36,5.36,0,0,0,.78.23,6,6,0,0,1,1.83.47,3.12,3.12,0,0,0,2.54.41,13.5,13.5,0,0,0,1.82-.72c.37-.17.71-.4,1.08-.58a6.49,6.49,0,0,1,.74-.26l.58-.18-.4-.28.26-.2.79.25-.22.23,1.9.63c1.64.53,2.69,1.85,3.91,2.94.65.57,1.24,1.19,1.86,1.79l.09,0c.08-.69.57-1.33.2-2.07a.74.74,0,0,1,0-.56c.3-.57.66-1.1,1-1.67a.78.78,0,0,1,.81-.48c1,0,2,0,3,0,.16,0,.41-.11.45-.23a5.15,5.15,0,0,0,.12-1s0,0-.07,0c-.42-.13-.6-.48-.8-.84a.82.82,0,0,0-.4-.36,4.22,4.22,0,0,1-1.53-1.35c1.06-.07,1.06-.07,1.06-1.13a.33.33,0,0,0,0-.1c-.07-.48.15-.61.62-.61,1.49,0,3,0,4.49,0,.22,0,.47.06.53-.29s.29-.3.5-.15.43.12.57-.11c.24-.39.45-.8.67-1.19-.11.14-.25.28-.35.43.1-.15.24-.29.35-.43h0l0,0h0c.14-.14.29-.41.43-.4.47,0,.66-.25.83-.6a4.94,4.94,0,0,1,.3-.49l.12,0a2.88,2.88,0,0,1-.1.51c-.12.27-.1.47.18.62a2.69,2.69,0,0,1,.33.26l.06.06h0c.13.4.24.1.28,0,.16-.43.29-.88.43-1.32.18-.62.36-1.24.55-1.91H91.8c.35-.24.82-.23.74-.74l-.78-.14a3.78,3.78,0,0,0,.66-1.17,3.3,3.3,0,0,1,1.08-2A2.72,2.72,0,0,0,94.07,42.29Z"/><path class="cls-1" d="M93.71,43.65a.29.29,0,0,0,.12.23.25.25,0,0,0,.24-.06c.21-.27.4-.56.64-.9C94,42.82,93.65,43.12,93.71,43.65Z"/><path id="MEX2725" class="cls-6" d="M81.56,51.93v1.78H80.19l0,0v-.1l0,0,0,0h.08v0h0l-.08-.13,0,0,0,0h-.15l0,0,0,0,0-.1V53h0l0,0,0,0-.06,0-.06,0-.06,0,0,0,0,0-.07,0,0,0,0,0v-.13l0-.1,0-.12,0-.12-.06-.09-.05,0h-.2l0,0V52.1l0-.05,0,0,0-.1v-.14l0-.08L79,51.65h-.07l-.06,0-.07,0h-.09l0,0,0,0v0l0,0,0,0V51.6l0,0h-.09l-.08.06-.09.09-.08.09.06.1-.07,0h-.11L78,52l-.06.05-.06,0-.08,0-.08,0-.1,0-.11,0-.1,0-.08.06,0,.1v.08l0,.06-.11,0h-.07L77,52.6l-.1.11-.27.24-.12.11-.18.18,0,0-.09.06h-.1l-.1,0-.08-.05,0,0,0,0,0-.05,0,0L75.72,53l0-.09-.05-.07-.1,0h-.08l0,0,0-.07v-.21l-.06-.26v-.14l0,0,0-.1,0-.05v-.4l0,.07h-.06l-.07.06-.11,0-.1-.06-.06-.09-.08,0-.06,0,0,0-.11,0-.08,0h0l0,0,0,0,0,0h0v.07l-.07.18-.06.2-.06.2,0,.18,0,.06v.06l0,.06,0,.05,0,0,0,0,0,0,0,0v.08h0l0,0-.06,0v0l0,0,0,0,0,.13-.08.18-.09.19,0,0,0,0,0,0,0-.06v0l0-.07V53l0-.1,0-.08v-.07l0,0-.1,0,0,0-.07-.07-.07-.07-.07-.13L73,52.29l-.08,0-.09,0h-.1v-.08l0,0h-.11l-.11,0,0-.08V51.9l-.07-.07,0,0h-.09l0,0h0l0,0h-.1l0-.05v-.27l0,0,0-.05,0,0,0,0V51.1l0,0v0h0v0l0,0,0,0v-.17l0,0h-.07l0,0v-.08l0,0h0l.07,0,.09,0,.23-.05.05,0,.06,0,.34-.12,0,0,0,0,0,0v0l0,0,.25,0H73l0,0,0,0v-.12l0,0,0,0h.09l0,0,0,0,0,.06.07,0,.19,0,0,0,0-.1,0-.08h0l0,0,0,0,0,0,0,0-.22.07,0,0,0,0,0,0-.13,0-.1.08,0,0h-.07l0,0,0-.07.06,0,.06,0,0,0,0,0,.57-.21.14,0,.34,0,.43,0,.46,0v0l0,0,0,0h0l0,0v.08l0,0h0l0,0,0,0v0l0,0v.05h0l0-.06,0,0,0,0h.06l0-.05,0-.06-.07,0h-.06v0l0,0,.07,0h.5l.26-.07.15-.09.15-.13.06-.09,0-.05v0l0,0h0v0l0,.11,0,.31,0,.09,0-.1,0,0v-.07l0-.13,0-.07-.07-.15v0l0,0h.28l.32-.08h0v.06l0,.07,0,.06,0,.06,0,.08v.08l0,.07,0,.06,0,0,0,0,0,0h.06l0,0h0l.14,0H78v.95l0,.08.08,0,.08.06.07.06.07.05,0,0,0,0h0l0,0,.06,0v.06l0,0,0,0,.09,0,.09.06.09,0h.71l0,0,0-.08,0-.08v-.18l0-.06,0,0,.07,0h.35l.1,0h0l0,0h.12l0,0,0,0,.06,0,0,0,.06,0,.06,0H81l.06,0,0,0,0,0,0,0h.41v.54Z"/></g></svg>