<?xml version="1.0" encoding="UTF-8"?><svg id="estados" xmlns="http://www.w3.org/2000/svg" viewBox="0 0 306.04 276.52"><defs><style>.cls-1,.cls-2{fill:#3bb1e6;}.cls-3{fill:#fff;}.cls-4{stroke-width:1.53px;}.cls-4,.cls-2,.cls-5{stroke:#fff;}.cls-4,.cls-5{fill:none;opacity:.67;stroke-miterlimit:10;}.cls-6{fill:#0a2f3a;opacity:.5;}.cls-2{stroke-linecap:round;stroke-linejoin:round;stroke-width:1.37px;}.cls-5{stroke-width:1.67px;}</style></defs><g id="tamps-icono"><circle class="cls-6" cx="136.96" cy="151.48" r="97.03"/><circle class="cls-5" cx="136.96" cy="151.48" r="104.09"/><polyline class="cls-4" points="229.53 104.17 271.63 73.79 306.09 73.79"/><polyline class="cls-4" points="229.02 199.66 271.63 220.23 306.09 220.23"/><polyline class="cls-4" points="240.77 150.49 271.63 150.49 306.09 150.49"/><g><path class="cls-1" d="M89.68,204.33h-5.34v14.82h-2.18v-14.82h-5.33v-1.79h12.85v1.79Z"/><path class="cls-1" d="M98.14,219.16c-.12-.24-.22-.68-.3-1.3-.98,1.02-2.15,1.53-3.51,1.53-1.22,0-2.22-.34-3-1.03-.78-.69-1.17-1.56-1.17-2.62,0-1.29,.49-2.28,1.47-3,.98-.71,2.35-1.07,4.13-1.07h2.05v-.97c0-.74-.22-1.33-.66-1.76-.44-.44-1.09-.66-1.95-.66-.75,0-1.38,.19-1.89,.57-.51,.38-.76,.84-.76,1.38h-2.12c0-.62,.22-1.21,.66-1.79,.44-.57,1.03-1.03,1.78-1.36,.75-.33,1.57-.5,2.47-.5,1.42,0,2.54,.36,3.34,1.07s1.22,1.69,1.26,2.94v5.68c0,1.13,.14,2.04,.43,2.7v.18h-2.21Zm-3.5-1.61c.66,0,1.29-.17,1.88-.51,.59-.34,1.02-.79,1.29-1.34v-2.53h-1.65c-2.59,0-3.88,.76-3.88,2.27,0,.66,.22,1.18,.66,1.55,.44,.37,1.01,.56,1.7,.56Z"/><path class="cls-1" d="M105.22,206.81l.06,1.37c.91-1.06,2.13-1.6,3.66-1.6,1.73,0,2.9,.66,3.53,1.99,.41-.59,.95-1.07,1.6-1.44,.66-.37,1.44-.55,2.33-.55,2.71,0,4.09,1.43,4.13,4.3v8.27h-2.11v-8.15c0-.88-.2-1.54-.6-1.98-.4-.44-1.08-.66-2.03-.66-.78,0-1.43,.23-1.95,.7-.52,.47-.82,1.1-.9,1.89v8.19h-2.12v-8.09c0-1.79-.88-2.69-2.64-2.69-1.38,0-2.33,.59-2.84,1.77v9.01h-2.11v-12.35h2Z"/><path class="cls-1" d="M131.34,219.16c-.12-.24-.22-.68-.3-1.3-.98,1.02-2.15,1.53-3.51,1.53-1.22,0-2.22-.34-3-1.03-.78-.69-1.17-1.56-1.17-2.62,0-1.29,.49-2.28,1.47-3,.98-.71,2.35-1.07,4.13-1.07h2.05v-.97c0-.74-.22-1.33-.66-1.76-.44-.44-1.09-.66-1.95-.66-.75,0-1.38,.19-1.89,.57-.51,.38-.76,.84-.76,1.38h-2.12c0-.62,.22-1.21,.66-1.79,.44-.57,1.03-1.03,1.78-1.36,.75-.33,1.57-.5,2.47-.5,1.42,0,2.54,.36,3.34,1.07s1.22,1.69,1.26,2.94v5.68c0,1.13,.14,2.04,.43,2.7v.18h-2.21Zm-3.5-1.61c.66,0,1.29-.17,1.88-.51,.59-.34,1.02-.79,1.29-1.34v-2.53h-1.65c-2.59,0-3.88,.76-3.88,2.27,0,.66,.22,1.18,.66,1.55,.44,.37,1.01,.56,1.7,.56Z"/><path class="cls-1" d="M144.05,217.94c-.82,.97-2.03,1.45-3.62,1.45-1.32,0-2.32-.38-3.01-1.15-.69-.76-1.04-1.9-1.04-3.4v-8.03h2.11v7.98c0,1.87,.76,2.81,2.28,2.81,1.61,0,2.69-.6,3.22-1.8v-8.98h2.11v12.35h-2.01l-.05-1.22Z"/><path class="cls-1" d="M151.61,219.16h-2.11v-17.53h2.11v17.53Z"/><path class="cls-1" d="M155,203.54c0-.34,.1-.63,.31-.87s.52-.35,.93-.35,.72,.12,.94,.35c.21,.24,.32,.52,.32,.87s-.11,.63-.32,.86c-.21,.23-.52,.34-.94,.34s-.72-.11-.93-.34-.31-.51-.31-.86Zm2.28,15.62h-2.11v-12.35h2.11v12.35Z"/><path class="cls-1" d="M171.09,213.12c0,1.88-.43,3.39-1.29,4.54-.86,1.15-2.02,1.72-3.49,1.72s-2.68-.48-3.54-1.43v5.95h-2.11v-17.09h1.93l.1,1.37c.86-1.06,2.05-1.6,3.58-1.6s2.66,.56,3.52,1.68c.86,1.12,1.3,2.67,1.3,4.67v.19Zm-2.11-.24c0-1.39-.3-2.49-.89-3.3-.59-.81-1.41-1.21-2.44-1.21-1.28,0-2.24,.57-2.88,1.7v5.9c.63,1.13,1.6,1.69,2.9,1.69,1.01,0,1.82-.4,2.41-1.2,.6-.8,.9-2,.9-3.58Z"/><path class="cls-1" d="M181.39,219.16c-.12-.24-.22-.68-.3-1.3-.98,1.02-2.15,1.53-3.51,1.53-1.22,0-2.22-.34-3-1.03-.78-.69-1.17-1.56-1.17-2.62,0-1.29,.49-2.28,1.47-3,.98-.71,2.35-1.07,4.13-1.07h2.05v-.97c0-.74-.22-1.33-.66-1.76-.44-.44-1.09-.66-1.95-.66-.75,0-1.38,.19-1.89,.57-.51,.38-.76,.84-.76,1.38h-2.12c0-.62,.22-1.21,.66-1.79,.44-.57,1.03-1.03,1.78-1.36,.75-.33,1.57-.5,2.47-.5,1.42,0,2.54,.36,3.34,1.07s1.22,1.69,1.26,2.94v5.68c0,1.13,.14,2.04,.43,2.7v.18h-2.21Zm-3.5-1.61c.66,0,1.29-.17,1.88-.51,.59-.34,1.02-.79,1.29-1.34v-2.53h-1.65c-2.59,0-3.88,.76-3.88,2.27,0,.66,.22,1.18,.66,1.55,.44,.37,1.01,.56,1.7,.56Z"/><path class="cls-1" d="M193.67,215.88c0-.57-.22-1.01-.64-1.33-.43-.32-1.18-.59-2.25-.82-1.07-.23-1.92-.5-2.54-.82-.63-.32-1.09-.7-1.39-1.14s-.45-.97-.45-1.58c0-1.01,.43-1.87,1.28-2.57,.86-.7,1.95-1.05,3.28-1.05,1.4,0,2.54,.36,3.41,1.08,.87,.72,1.31,1.65,1.31,2.77h-2.12c0-.58-.25-1.08-.74-1.5s-1.11-.63-1.85-.63-1.37,.17-1.8,.5c-.43,.33-.65,.77-.65,1.31,0,.51,.2,.89,.6,1.15,.4,.26,1.13,.51,2.19,.74s1.91,.52,2.56,.84c.65,.33,1.14,.72,1.45,1.18,.32,.46,.47,1.02,.47,1.68,0,1.1-.44,1.99-1.32,2.65-.88,.67-2.03,1-3.43,1-.99,0-1.86-.17-2.62-.52s-1.36-.84-1.79-1.47c-.43-.63-.64-1.31-.64-2.04h2.11c.04,.71,.32,1.27,.85,1.68,.53,.41,1.23,.62,2.09,.62,.8,0,1.44-.16,1.92-.48,.48-.32,.72-.75,.72-1.3Z"/></g><path id="TAMPS" class="cls-2" d="M164.65,180.23l-.61,.27,.14-.27,.34-.34,.14-.2,.41-1.02,.2-.27,.07,.48-.27,.75-.41,.61h0Zm.75,9.83c-.26,.3-.84,.55-1.16,.75-.09,.26-.32,.54-.61,.55-.27-.54-1.02-.89-1.09-1.5,.14-.11-1.05-1.76-1.91-1.64-.46-.16-1.07-.49-1.57-.41-.42,0-2.04-1.64-2.18-2.39-.6-.38-1.04,.35-1.64,.34-.21-.13-.56,1.9-2.05,1.16,0,0-1.05-.16-1.16-.07-.26-.05-1.43-.71-1.57-.48-.42-.05-2.63,.27-3,.34-.3-.13-.61-.37-.89-.55-.46,1.06-1.89,.47-2.66,1.02-.52,.97-1.26,1.04-2.25,.75-.79-.09-1.75-.21-2.46-.61-.65-.28-1.52-.45-2.19-.68-1-.37-2.34-.13-3.14-.89-.58-.53-.79-1.45-1.16-2.12-.39-1.01-1.14-2.23-1.71-3.14-.24,.38-.59,1.08-1.09,1.16-.77-.44-1.12-1.48-1.84-1.98-.18-.15-.45-.36-.68-.2,.09,.73,.87,2,.27,2.59-3.4-.94-6.69-2.6-9.97-3.89-.23-.15-.18-.59-.27-.82-.03-.31-.35-.61-.48-.89-.41-.5,.33-.9,.68-1.16,.5-.08,1.12-.35,1.5-.68,1.41-1.53-.26-2.6-1.23-3.69-.34-.48-.24-1.16-.34-1.71-.68-.21-1.31,.71-1.78,1.09,.25-1.29,.77-2.84,.89-4.17-.24-.68-1.14-.99-1.71-1.37,2.13-2.3,2.21-.98,4.71-.48-.26-1.13-.8-2.7-.96-3.82,.59-1.11,1.03-2.38,1.64-3.48,.65-2.26,2.43-1.14,4.1-1.71,.7-.19,1.78,.21,2.18-.55,.08-.08,1.85-2.74,1.98-2.66,.26,.05,.62,.16,.89,.14,0-1.01-.33-2.06-1.3-2.53-.77-.59-1.72-1.36-2.12-2.25-.43-1.99,.16-4.05,.75-5.94-.02-1.24-.43-2.75-.68-3.96l-2.25,.96c-.54-1.79-1.09-2.04,.55-3.35,.46-.44,2.44-1.1,2.59-.75,.19,.01,.85-.54,1.09-.55,.57-.17,.3-.99,.48-1.43,.28-.52,1.94-1.39,2.39-1.23,.7,0,1.27-.37,1.64-.96,.27-.32,2.32,.89,3,1.09,.07-.47-.15-.98-.41-1.37-.7-1.16,.45-1.79,.89-2.73-.26-.48-.85-.88-.96-1.43,.26-.17,.66-.25,.96-.14-.07-.28-.33-.72-.07-.96,.2,.1,.6,.17,.82,.14,.18-.31,1.14-1.69,1.57-1.71,.88,1.59,1.61,1.22,3.14,.82,1.7-1.35,3.86-3.23,5.53-4.64,.74-.63,2.61-2.22,3.35-2.8,.73-.29,.78-1.05,.55-1.71-.64-.34-1.61,.17-2.25-.2-.25-.77-.12-1.94,0-2.73,0-1.12,0-5.38,0-6.49,.09-2.78,.53-3.23-2.46-3.82-2.93-.5-3.23-2.3-4.71,1.23-.76-.61-1.49-1.51-2.18-2.19-.37-.62-2.25-.38-2.39-.41-.32-.04-.47,.38-.68,.55-.73-.81-.55-5.49-1.3-5.6-.37,.02-2.72-1.72-3-2.53-.43,.08-.86,.64-1.3,.75-.64-.61-.83-1.55-.61-2.39,.13-.33,.52-.79,.61-1.16,.7-1.63-.27-3.03-1.91-3.41-.53-.16-1.13-.55-1.64-.75-.66-.02-1.39,.11-2.05,.07,.41-.48,.97-1.78,.96-1.84-.02-.71,.62-1.32,1.02-1.84-.3-.04-2.76-1.55-3-1.5-1.2-.87-.5-2.74-.14-3.89,.19-.77,.91-1.89,.55-2.66-.45-.25-.69-.81-.75-1.3-.16-1.12-.35-2.76-.48-3.89-.31-2.86-1.18-2.43-3.55-2.87-.29-.43-.23-1.21-.14-1.71,1.26-.9,2.89-1.76,4.3-2.39,.07,.06,.9,1.45,2.12,.61,.39-.23,2.09,1.06,2.25,1.71,0,0-.17,1.78,.07,1.91,.25-.04,.59,.04,.61,.34,.15,.67-.47,3.58-.96,4.1,.1,.05,1.61,1.36,1.71,1.64,.51,.94-.21,1.99-.27,2.94,.13,.16,.31,.39,.27,.61,.07,.31-.51,.94-.55,1.23-.04,.8,.9,.86,1.43,1.16,0,.22-.22,.64-.34,.82,.12,.31,.82,.63,1.09,.75,.36,.43,.41,1.38,.48,1.91-.02,.39-1.56,1.07-1.5,1.43,0,0,1.79,.43,1.84-.07,.04-.47,.47-.83,.82-1.09,.28,.15,.87,4.16,1.02,4.92-.24-.08-.5-.36-.75-.41-.4,.41,1.61,2.15,2.25,2.19-.02,.02,1.72,1.91,1.78,2.32-.3,.64-.72,1.04,.07,1.5,.47,.21,3.35,.34,3.35,.34,.33,.24,1.7,.71,1.91,.68,0,0,.76-.23,.89-.2,.21,.74,2.91,3.14,3.41,3.14,.55-.2,3.35,.2,3.62,.82l.34-.41c.62,.13,1.27,.71,1.91,.75-.08,.17-.26,.56-.2,.75,.17,.08,.64,.08,.82,.07,.11,.05,.55,.84,.61,.96,.82,.69,4.63,1.01,4.92,1.16,0,0,1.26,.13,1.78,.2,1.43,.33,3.3-.28,4.71,.14v.34c1.35,.26,3.23-.15,3.82,1.5,.07,.31,2.3,2.32,3.35,2.12,.27,.4,1.4,.8,1.43,.96,.18,.31,.6-1.01,.55-1.43,.08-.11,.5-.4,.61-.48,.48,.45,1.33-.05,1.3-.68,.72-.1,1.99,.03,2.73-.14l-.61,3.28s.05,2.19,.07,2.53c-.5,1.13-1.52,4.13-2.05,5.33-.63,1.75-3.22,6.03-4.23,7.65,0,0-2.12,7.92-2.12,7.92-1.75,5.13-2.98,14.42-3.48,19.8,0,0-.14,4.78-.14,4.78,0,0-.2,.41-.2,.41-.23,.31-1.63-.05-1.91,0v.14c2.15-.37,1.34,1.81,1.37,3.07h.14c.25-.76,.07-2.13,.41-2.87,.51,.42-.19,5-.2,5.6-.33,1.4-.5,5.02-.55,6.49,.18,1.97,.73,7.74,.34,9.63v-1.78c-.33,.04-.8,2.49-.89,2.73-.1,.26-1.78,3.51-2.05,4.23-.11,.37-.15,1,.41,.89,.99-.25-.15-1.62,.75-1.91,.39,.78-.16,2.36-.34,3.14,.12,.5,1.38,5.73,1.5,6.08h0Zm5.8-73.47c-1.44,1.43,.62,2.42-.82,2.66-.21-.81-.51-.86-1.3-.68-1.48-.09,1.11-1.54-1.16-1.3-.97-.56-.34,.72-.55,1.23-.56,.18-1.61,1.77-2.25,1.37,1.43,.9,1.72,3.39,1.71,5.46-.23,.85-1.3,1.38,.07,1.02,.07,.9,1.76,.53,1.91,1.5,.13,.87-2.67,.76-2.32,1.98,0,.44,.88,3.73,1.23,3.28,.11,1.59-.82,3.73-1.09,5.26-.65-.06-.81-1.91-1.23-1.98-.27,.69-1.16,2.19-1.16,2.19,.06,2.99,2.5-.72,2.66,.75-.61,1.31-.29,9.41-1.37,7.85-.37,.08-.2,1.17,.14,1.36,.2-.75,.18,.03,.34,.2-.52,1.77,.1,3.49,.14,5.39,.35-.19,.69-10.11,.82-10.38,.77-6.88,2.49-14.28,4.23-20.62,.02-2.14,2.23-2.42,1.84-5.26-.02-.3,.13-.64-.14-.89-.26-.57,1.15-.37,.41-1.09-.88,.18-2.61-2.03-2.66-.27,.19,.5,1.02,.4,.55,.96Z"/><g><g><path class="cls-3" d="M94.07,42.29c.23-.43,.53-.9,.53-1.36,0-.45-.13-.96-.61-1.31-.43-.31-.75-.37-1.12,.1,.1,.03,.19,.06,.29,.09,0,.04-.02,.08-.02,.11-.55-.11-1.12-.15-1.65-.33-.89-.32-1.78-.27-2.58,.07-.81,.34-1.62,.54-2.47,.61-.95,.09-1.84,.3-2.64,.83-.21,.14-.4,.39-.5,.63-.4,.91-.32,1.89-.33,2.86,0,.2-.06,.48-.2,.57-.39,.26-.52,.65-.49,1.05,.04,.7-.43,1.02-.89,1.36-.32,.24-.7,.41-1.03,.64-.18,.13-.31,.32-.46,.48h0s0,0,0,0c-.34,.16-.68,.31-1.01,.47,0,0,0,0-.01,0,0,0,0,0,0,0-.73-.39-2.31-.19-2.94,.35-.13,.11-.32,.16-.5,.21-.88,.25-1.86-.18-2.72,.52-.42,.34-1.14,.33-1.73,.43-.16,.03-.43-.04-.52-.16-.38-.47-.67-.95-1.32-1.22-.49-.2-.93-.43-1.48-.42-.38,0-.76-.07-1.03-.1-.28-.42-.52-.79-.76-1.15-.35-.52-.85-.94-.93-1.61-.1-.86-.61-1.52-1.19-2.07-.91-.88-1.49-1.93-1.91-3.09-.07-.18-.04-.44,.03-.63,.17-.4,.19-.71-.2-1.02-.6-.48-.98-1.11-1.07-1.9-.04-.32-.17-.63-.21-.96-.03-.23,.02-.47,.05-.7,.07-.45,.16-.9,.22-1.35,.03-.23-.04-.47-.02-.7,.08-1.06,.14-2.12,.28-3.16,.18-1.28,.42-2.54,1.07-3.7,.27-.47,.36-1.05,.51-1.59,.04-.13-.02-.29-.03-.43-.17,.03-.38,.02-.51,.11-.26,.19-.49,.14-.67-.05-.34-.38-.78-.38-1.24-.42-.38-.03-.77-.1-1.12-.25-.65-.26-1.25-.62-1.9-.86-.29-.11-.51-.22-.64-.51-.28-.59-.6-1.15-.88-1.73-.05-.1-.03-.24-.05-.36-.05-.42-.08-.85-.18-1.27-.04-.17-.21-.33-.34-.47-.3-.32-.61-.62-.9-.94-.31-.34-.6-.7-.89-1.05-.1-.12-.22-.23-.28-.36-.25-.53-.46-1.09-.72-1.61-.39-.78-.62-1.66-1.45-2.16-.31-.19-.5-.6-.81-.79-.34-.21-.45-.69-.98-.69-.73-.01-1.46-.16-2.2-.25-.1-.01-.21,0-.3,.04-.22,.09-.44,.18-.64,.3-.21,.13-.46,.27-.57,.48-.21,.38-.35,.8-.47,1.21-.28,.99-1.01,1.24-1.83,.66-.4-.28-.87-.45-1.3-.69-.27-.15-.52-.32-.78-.49-.15-.1-.28-.25-.44-.33-.75-.36-1.03-1.07-1.1-1.78-.08-.84-.48-1.5-.93-2.12-.27-.38-.82-.54-1.19-.86-.49-.42-.93-.91-1.41-1.35-.25-.23-.53-.43-.78-.65-.23-.21-.53-.4-.66-.67-.22-.47-.54-.64-1.03-.63-1.34,0-2.68,0-4.02,0-1.15,0-1-.11-.99,1,0,.47-.14,.62-.61,.62-2.54-.02-5.08,0-7.63-.01-.28,0-.57-.03-.83-.12-3.48-1.25-6.95-2.52-10.42-3.79-.74-.27-.74-.28-.59-1.06-.18,0-.34-.01-.5,0-2.16,.19-4.31,.38-6.47,.58-.52,.05-.59,.19-.36,.68,.08,.17,.21,.31,.3,.46,.1,.17,.2,.34,.3,.51,.11,.19,.19,.42,.34,.58,.28,.31,.51,.6,.35,1.06-.1,.31,.06,.54,.29,.77,.4,.42,.87,.82,.75,1.52-.02,.09,.1,.24,.19,.32,.45,.4,.89,.78,.68,1.5-.04,.15,.13,.53,.22,.53,.46,.03,.51,.33,.49,.65-.04,.63,.18,1.23,.52,1.65,.42,.5,1.09,.79,1.65,1.16,.24,.16,.54,.26,.73,.46,.82,.86,1.61,1.74,2.39,2.63,.08,.09,.11,.27,.08,.39-.14,.53-.03,1.15-.53,1.56-.07,.05-.06,.2-.08,.3-.1,.02-.22,.02-.3,.07-.35,.26-.72,.24-1.11,.12-.16-.05-.33-.1-.5-.09-.16,0-.31,.09-.47,.13,.1,.16,.18,.35,.31,.47,.51,.5,1.33,.7,1.46,1.56,0,.06,.1,.12,.16,.16,.45,.25,.88,.58,1.36,.72,.37,.11,.57,.3,.78,.59,.19,.27,.41,.55,.82,.19,.28-.25,1,.05,1.2,.38,.11,.19,.28,.35,.43,.52,.59,.7,1.61,.82,2.16,1.64,.41,.62,.65,1.97,.33,2.66-.23,.49-.36,1.02-.56,1.61,.27,.04,.49,.1,.71,.1,.4,.01,.7,.12,.75,.57-.12,.07-.23,.14-.39,.23,.3,.24,.56,.44,.81,.64,.04-.03,.08-.06,.12-.09-.05-.17-.11-.35-.18-.58,.12,.06,.21,.08,.27,.13,1.03,.91,2.32,1.51,3.18,2.64,.08,.1,.23,.17,.36,.22,.63,.23,.88,.75,1.03,1.35,.07,.27,.12,.55,.22,.81,.2,.49,.53,.55,.94,.23,.25-.19,.51-.36,.76-.53,.63-.43,.6-1.45-.03-1.86-.16-.1-.27-.31-.36-.49-.16-.31-.23-.67-.43-.94-.18-.24-.48-.38-.73-.57-.27-.21-.53-.43-.8-.64-.04,.02-.08,.05-.12,.07,.03,.26,.06,.53,.09,.79,0,0,0,0,0,.01,0,0,0,0,0,0-.15-.07-.3-.15-.45-.21-.51-.22-.88-1.05-.66-1.56,.2-.46,.1-.82-.21-1.2-.23-.28-.39-.62-.56-.95-.14-.27-.19-.6-.39-.82-.44-.5-.85-.97-.79-1.69,.01-.13-.02-.28-.07-.41-.19-.52-.39-1.04-.59-1.57-.2-.53-.47-.98-1.14-.99-.09,0-.25-.24-.24-.35,.06-.34-.09-.48-.37-.6-.12-.05-.18-.23-.27-.35-.35-.42-.31-1.11-.95-1.31-.53-.17-.72-.58-.8-1.09-.08-.52-.18-1.04-.32-1.55-.04-.14-.24-.22-.37-.34-.15-.13-.4-.24-.42-.39-.12-.74-.73-.98-1.26-1.32-.19-.67-.47-1.24-1-1.77-.62-.6-1.46-.93-1.95-1.67-.27-.4-.47-.77-.48-1.27-.02-.69-.13-1.38-.2-2.07,0-.09-.05-.19-.11-.25-.68-.73-.37-1.56-.2-2.34,.11-.49,.47-.54,.88-.24,.25,.18,.49,.41,.77,.51,.25,.09,.55,.08,.83,.06,.15-.01,.31-.22,.43-.19,.18,.04,.44,.18,.48,.32,.18,.68,.72,.73,1.28,.88,.68,.18,.71,.33,.52,.89-.23,.68,.01,1.23,.42,1.77,.26,.35,.55,.79,.55,1.19,0,.85,.58,1.37,.91,2.03,.1,.2,.12,.43,.21,.63,.06,.13,.16,.26,.27,.35,.08,.07,.2,.08,.3,.12,.03,.04,.05,.09,.08,.13-1.18-.13-.84,.8-1.13,1.38,.29,.11,.57,.33,.79,.28,.22-.06,.37-.38,.6-.65,.18,.24,.36,.49,.56,.74,.29,.38,.52,.87,.91,1.08,.48,.26,.72,.64,1.01,1.04,.2,.28,.48,.51,.77,.72,.19,.14,.43,.19,.65,.28,.18-.07,.42-.14,.55-.05,.13,.08,.18,.33,.21,.51,.03,.21-.06,.46,.02,.64,.13,.32,.39,.58,.54,.89,.18,.37,.47,.63,.86,.63,.63-.01,.75,.35,.84,.85,.09,.51,.39,.74,.91,.65,.51-.1,.76,.23,.9,.55,.12,.26,.03,.64-.03,.95-.04,.2-.21,.38-.32,.57-.2,.35-.09,.98,.21,1.21,.2,.16,.43,.28,.6,.47,.35,.4,.72,.74,1.31,.67,.07,0,.14,.05,.21,.09,.25,.15,.5,.32,.75,.47,.33,.19,.66,.37,.99,.56-.02,.04-.05,.08-.07,.12-.16-.1-.31-.19-.51-.31,.35,1.03,1.37,2.23,2.46,2.29-.36,.38-.03,.53,.2,.71,.21,.17,.42,.32,.62,.49,.33,.3,.68,.59,.97,.93,.34,.39,.64,.83,.96,1.25,.09,.12,.2,.24,.3,.35,.5,.59,.94,1.24,1.51,1.75,.69,.61,.99,1.32,1.06,2.2,.03,.33,.12,.67,.25,.97,.25,.55,.49,1.13,1.1,1.28-.02,.28-.07,.48-.04,.68,.05,.39-.05,.68-.34,.96-.21,.2-.35,.47-.57,.77,.24,.06,.37,.07,.47,.13,.13,.07,.24,.18,.36,.28-.1,.1-.18,.24-.3,.3-.17,.07-.36,.07-.55,.12-.48,.12-.56,.37-.27,.77,.09,.12,.15,.27,.22,.4,.15,.32,.25,.67,.45,.95,.31,.46,.68,.88,1.04,1.3,.21,.24,.41,.53,.67,.67,.95,.49,2,.8,2.86,1.47,.46,.36,.8,.88,1.21,1.31,.18,.19,.38,.41,.62,.51,.56,.23,1.14,.41,1.72,.59,.58,.18,1.17,.34,1.75,.5,.08,.02,.2,.03,.27,0,.48-.28,.78,.02,1.09,.32,.25,.24,.5,.5,.78,.71,.48,.36,.97,.7,1.46,1.04,.14,.1,.29,.18,.45,.24,.57,.21,1.15,.39,1.72,.62,.56,.23,1.09,.52,1.64,.76,.33,.15,.67,.28,1.02,.38,.98,.28,2.08,.21,2.84,1.08,.1,.12,.3,.15,.46,.22,.56,.25,1.12,.51,1.69,.75,.25,.1,.52,.16,.78,.23,.6,.16,1.25,.1,1.83,.47,.77,.49,1.66,.65,2.55,.41,.62-.17,1.22-.46,1.82-.72,.37-.17,.72-.4,1.08-.58,.23-.11,.49-.18,.74-.26,.16-.05,.32-.1,.57-.18-.19-.13-.28-.2-.4-.28,.13-.1,.24-.18,.27-.2,.32,.1,.56,.18,.78,.25-.05,.05-.14,.15-.22,.24,.65,.21,1.27,.42,1.9,.62,1.64,.53,2.69,1.86,3.91,2.94,.65,.57,1.24,1.2,1.86,1.8,.03-.02,.08-.03,.08-.05,.08-.69,.57-1.32,.2-2.07-.07-.14-.03-.4,.06-.56,.3-.57,.65-1.1,.94-1.67,.18-.35,.41-.49,.81-.48,1,.02,2,.02,2.99,0,.16,0,.41-.11,.44-.23,.09-.31,.09-.65,.13-.97,0-.01-.05-.04-.07-.05-.42-.14-.6-.48-.8-.84-.08-.15-.25-.3-.41-.36-.66-.28-1.07-.81-1.53-1.34q1.06-.08,1.07-1.14s0-.06,0-.09c-.07-.48,.15-.61,.61-.61,1.5,.02,2.99,.01,4.49,0,.22,0,.47,.06,.54-.29,.06-.31,.29-.31,.49-.15,.25,.19,.44,.12,.57-.12,.23-.39,.45-.79,.67-1.19-.12,.15-.25,.29-.36,.44,.11-.15,.24-.29,.36-.44,0,0,0,0,0,0,0,0,.01-.01,.01-.02h0s0,0,0,0c.14-.14,.3-.41,.43-.4,.47,.02,.66-.25,.83-.6,.08-.17,.2-.32,.31-.48,.04,.02,.08,.03,.12,.05-.03,.17-.04,.35-.1,.51-.11,.27-.1,.47,.18,.62,.12,.07,.23,.17,.33,.26,.02,.02,.04,.04,.06,.06h0c.13,.4,.24,.1,.28-.03,.16-.43,.29-.88,.42-1.32,.19-.62,.36-1.24,.56-1.91h-.59c.35-.24,.82-.23,.74-.74-.28-.05-.57-.1-.78-.14,.25-.43,.61-.78,.66-1.17,.1-.83,.51-1.45,1.08-2,.2-.2,.45-.37,.58-.61Z"/><path class="cls-3" d="M93.71,43.65c0,.08,.05,.2,.12,.23,.06,.03,.2,0,.24-.06,.21-.27,.4-.56,.64-.91-.7-.1-1.06,.21-1,.74Z"/></g><path id="MEX2716" class="cls-1" d="M60.48,35.8l-.09,.04,.02-.04,.05-.05,.02-.03,.06-.15,.03-.04v.07s-.03,.11-.03,.11l-.06,.09h0Zm.11,1.41c-.07,.06-.25,.19-.25,.19-.04-.06-.1-.12-.15-.17,0,0,.04-.1,.05-.13-.25-.26-.57-.11-.82-.4-.01-.04-.04-.12-.05-.16,0,0-.18,.06-.34,.02-.03,.06-.06,.23-.06,.23-.04,0-.09,0-.13-.03,0,0-.08-.04-.09-.06-.02,0-.06,.04-.08,.05-.04,0-.14-.05-.15-.04l-.05-.04s-.32,.04-.46,.06c-.04-.02-.09-.05-.13-.08,0,0-.37,.08-.48,.26-.44,.03-.85-.23-1.28-.27-.23-.2-.28-.56-.47-.8-.03,.05-.09,.16-.16,.17-.13-.08-.18-.27-.33-.32v.38c-.48-.15-.98-.36-1.44-.58,0-.1-.1-.3-.1-.3,.12-.14,.39-.12,.4-.35-.03-.25-.35-.32-.3-.61,0,0-.2,.1-.25,.16,.04-.18,.11-.41,.13-.6-.03-.1-.16-.14-.24-.2,.08-.06,.16-.17,.25-.2,.14,.02,.28,.11,.42,.13-.04-.16-.11-.39-.14-.55,.12-.22,.18-.48,.34-.68,.18-.07,.53-.05,.74-.09,.06-.05,.27-.4,.33-.44,.04,0,.09,.02,.13,.02,0-.18-.08-.32-.25-.4-.37-.24-.28-.7-.16-1.07,.06-.2-.05-.44-.08-.64l-.32,.14c-.03-.09-.09-.24-.08-.33,.13-.13,.27-.27,.46-.3,.01,0,.11,.05,.12,.05,.03-.01,.13-.09,.15-.1,.02-.06,.01-.13,.03-.19,.03-.04,.19-.15,.24-.18,.18,0,.25-.01,.37-.16,.12,.07,.26,.15,.4,.18,.02-.1-.06-.18-.09-.27-.02-.13,.12-.2,.16-.31-.04-.07-.12-.13-.14-.21,.04-.02,.09-.04,.14-.02,0-.03,0-.14,0-.14,.03,.01,.09,.02,.12,.02,.01-.02,.11-.11,.11-.11,.02-.03,.06-.1,.08-.13,0,0,.11,.09,.14,.13,.24,.11,.48-.11,.65-.26,.34-.28,.75-.62,1.08-.91,0-.02,0-.14-.02-.16-.09-.05-.23,.02-.32-.03-.06-.54,.09-1.25-.04-1.78-.26-.05-.56-.19-.81-.22-.08,.08-.12,.21-.18,.3-.17-.12-.28-.34-.46-.44-.02,0-.27,.13-.29,.15-.15-.21-.03-.56-.15-.79-.27,.01-.29-.07-.47-.37-.06,.01-.12,.09-.19,.11-.25-.23,.05-.45,.03-.71,0-.21-.24-.27-.4-.33-.13-.1-.28-.06-.43-.06,.21-.17,.08-.35,.28-.53-.04,0-.17-.13-.22-.17-.07,0-.31-.17-.31-.17-.02-.26,.14-.53,.18-.77-.26-.3-.09-.81-.31-1.14l-.39-.07c-.04-.06-.03-.17-.02-.24,.18-.13,.41-.25,.62-.34,0,0,.14,.04,.14,.04,.02,.02,.16,.05,.21,.04,.08-.01,.46,.52,.37,.55,.01,.52,.12,.76,.14,1.05-.06,.45,.21,.86,.41,1.24l.04-.05s.06,.07,.08,.11h.03c-.05,.26,.17,.55,.27,.77,.12,.32,.47,.59,.81,.68,1.06,.46,2.23,1.13,3.1,1.07,.17,0,.53,.12,.69,.16,.23,.05,.37,.32,.57,.43,.18,.07,.38,0,.52-.11,.14-.09,.38-.07,.53-.1,.18,.95-.48,1.96-.88,2.79-.91,2.44-.97,7.59-.97,7.55,0,0-.25,.6-.26,.85h0c0,.4,.07,.93,.17,1.32h0Z"/></g></g></svg>