<?xml version="1.0" encoding="UTF-8"?><svg id="estados" xmlns="http://www.w3.org/2000/svg" viewBox="0 0 306.04 276.52"><defs><style>.cls-1,.cls-2{fill:#3bb1e6;}.cls-3{fill:#fff;}.cls-4{stroke-width:1.53px;}.cls-4,.cls-2,.cls-5{stroke:#fff;}.cls-4,.cls-5{fill:none;opacity:.67;stroke-miterlimit:10;}.cls-6{fill:#0a2f3a;opacity:.5;}.cls-2{stroke-linecap:round;stroke-linejoin:round;stroke-width:1.37px;}.cls-5{stroke-width:1.67px;}</style></defs><g id="ver-icono"><circle class="cls-6" cx="136.96" cy="151.48" r="97.03"/><circle class="cls-5" cx="136.96" cy="151.48" r="104.09"/><polyline class="cls-4" points="229.53 104.17 271.63 73.79 306.09 73.79"/><polyline class="cls-4" points="229.02 199.66 271.63 220.23 306.09 220.23"/><polyline class="cls-4" points="240.77 150.49 271.63 150.49 306.09 150.49"/><g><path class="cls-1" d="M98.27,216.25l4.75-13.71h2.4l-6.16,16.62h-1.94l-6.15-16.62h2.39l4.72,13.71Z"/><path class="cls-1" d="M111.93,219.39c-1.67,0-3.04-.55-4.09-1.65s-1.57-2.57-1.57-4.41v-.39c0-1.22,.23-2.32,.7-3.28,.47-.96,1.12-1.72,1.96-2.26s1.75-.82,2.73-.82c1.6,0,2.85,.53,3.74,1.59s1.34,2.57,1.34,4.54v.88h-8.36c.03,1.22,.39,2.2,1.07,2.95s1.55,1.12,2.6,1.12c.75,0,1.38-.15,1.89-.46s.97-.71,1.36-1.21l1.29,1c-1.03,1.59-2.59,2.39-4.66,2.39Zm-.26-11.07c-.85,0-1.57,.31-2.15,.93s-.94,1.49-1.07,2.61h6.18v-.16c-.06-1.07-.35-1.9-.87-2.49-.52-.59-1.22-.88-2.1-.88Z"/><path class="cls-1" d="M125.15,208.71c-.32-.05-.67-.08-1.04-.08-1.38,0-2.32,.59-2.82,1.77v8.76h-2.11v-12.35h2.05l.03,1.43c.69-1.1,1.67-1.65,2.94-1.65,.41,0,.72,.05,.94,.16v1.96Z"/><path class="cls-1" d="M134.26,219.16c-.12-.24-.22-.68-.3-1.3-.98,1.02-2.15,1.53-3.51,1.53-1.22,0-2.22-.34-3-1.03-.78-.69-1.17-1.56-1.17-2.62,0-1.29,.49-2.28,1.47-3,.98-.71,2.35-1.07,4.13-1.07h2.05v-.97c0-.74-.22-1.33-.66-1.76-.44-.44-1.09-.66-1.95-.66-.75,0-1.38,.19-1.89,.57-.51,.38-.76,.84-.76,1.38h-2.12c0-.62,.22-1.21,.66-1.79,.44-.57,1.03-1.03,1.78-1.36,.75-.33,1.57-.5,2.47-.5,1.42,0,2.54,.36,3.34,1.07,.81,.71,1.22,1.69,1.26,2.94v5.68c0,1.13,.14,2.04,.43,2.71v.18h-2.21Zm-3.5-1.61c.66,0,1.29-.17,1.88-.51,.59-.34,1.02-.79,1.29-1.33v-2.53h-1.65c-2.59,0-3.88,.76-3.88,2.27,0,.66,.22,1.18,.66,1.55,.44,.37,1.01,.56,1.7,.56Z"/><path class="cls-1" d="M144.3,217.66c.75,0,1.41-.23,1.97-.68,.56-.46,.87-1.03,.94-1.71h2c-.04,.71-.28,1.38-.73,2.02-.45,.64-1.05,1.15-1.8,1.53-.75,.38-1.54,.57-2.38,.57-1.68,0-3.02-.56-4.01-1.68-.99-1.12-1.49-2.66-1.49-4.6v-.35c0-1.2,.22-2.27,.66-3.21s1.07-1.66,1.9-2.18c.83-.52,1.8-.78,2.93-.78,1.38,0,2.54,.41,3.45,1.24,.92,.83,1.41,1.91,1.47,3.23h-2c-.06-.8-.36-1.46-.91-1.97-.54-.51-1.22-.77-2.01-.77-1.07,0-1.9,.39-2.49,1.16-.59,.77-.88,1.89-.88,3.35v.4c0,1.42,.29,2.52,.88,3.29,.59,.77,1.42,1.15,2.51,1.15Z"/><path class="cls-1" d="M157.55,208.71c-.32-.05-.67-.08-1.04-.08-1.38,0-2.32,.59-2.82,1.77v8.76h-2.11v-12.35h2.05l.03,1.43c.69-1.1,1.67-1.65,2.94-1.65,.41,0,.72,.05,.94,.16v1.96Z"/><path class="cls-1" d="M167.11,217.94c-.82,.97-2.03,1.45-3.62,1.45-1.32,0-2.32-.38-3.01-1.15-.69-.76-1.04-1.9-1.04-3.39v-8.03h2.11v7.98c0,1.87,.76,2.81,2.28,2.81,1.61,0,2.69-.6,3.22-1.8v-8.98h2.11v12.35h-2.01l-.05-1.22Z"/><path class="cls-1" d="M174.36,217.43h7.22v1.72h-9.8v-1.55l6.81-9.05h-6.71v-1.75h9.36v1.5l-6.88,9.13Z"/></g><path id="Ver" class="cls-2" d="M121.49,97.14l-.19,.25-.56-.12-.49-.68-.31-.99-.12-.8,.31,.31,.12,.37,.06,.49,.19,.37,.68,.49,.31,.31h0Zm-9.8-4c-1.09,.96-1.68-1.66-1.75-2.46,.61,.84,.68,1.9,1.75,2.46Zm-3.32-11.57c.04,5.63,5.28,11.35,8.56,14.81,2,2.11-.59,4.41-.66,6.82-.28-.93-2.24-3.34-.91-4.05,.72-.34,.99,.11,.99-.96-.76-1.95-3.77-3.39-4.72-5.63-.96-2.1-2.57-4.74-3.63-6.99,2.13,4.2,1.08,10.17,4.79,13.59,1.31-.41,1.31,.03,.91,1.23,.32,.95,1.43,3.33,2.01,3.95,1.1,4.55,4.1,8.42,5.92,12.23,2.95,6.15,9.01,9.6,12.58,15.52,3.36,3.72,2.15,9.62,5,13.21,.83,1.19,2.09,2.76,2.84,3.83,1.21,1.72,1.43,2.5,2.91,2.91,.12,1.75,1,3.26,2.54,4.21,.78,.26,1.72-.19,1.31,.99-1.29-.61-.79-.28-1.59-.44,1.23,.25,.06,.08,.75,1.03-.4,0,.8,.64,1.03,.04,.23-.11,1.11,.35,1.87,.52,.81,.17,1.47,.2,1.75,.2,1.34,0,1.05-.12-.6-.75-4.13-1.59,5.79-.12,12.78,3.61,1.24,.66,3.1,1.47,4.3,2.12,.63,1.83,2.4,3.1,3.24,4.85,1.63,3.42,6.81,1.17,10,1.36-.3,.89,.81,1.07,.87,1.68-.32,.69,.59,1.1,.06,1.55,1.16,1.31,.25,2.49,.26,4.08,.73,.45,1.31,.89,2.2,1.1,.71,.89,.64,2.06,2.2,1.88,.34,1.18,1.83,.67,2.65,1.55,.31,1.63,2.98,1.95,2.2,3.62-1.27,2.49,2.11,2.82-.65,4.6-6.97,5.72-17.72,1.08-26.15,1.49-1.32-.37-.83-1.82-.97-2.66-1.85-1.44-4.54-3.13-5.44-5.44,.15-1.06,1.54-1.35,1.1-2.72-1.03-.82-.61,.88-1.36,.19-1.06,.76-1.75,1.62-3.37,1.68-.68,.93-2.31,1.11-2.65,2.14-5.04,1.62-5.11-.39-7.12-4.73-.2-1.71,1.7-2.67,2.33-4.08,.79-1.73-.65-4.29-2.65-4.34-.89-.67-1.98-.1-2.98-.52-.58-.11-.61,1.02-1.29,.65-.56,0-.76-.45-.71-.91-.45-.12-.92,.07-1.23-.39-.36-2.94-3.62-4.03-3.69-7.25-1.62-1.03-3.92-.99-5.18-2.78,1.22,1.81-.14,7.05-2.2,4.53-.59-.55,.04-2.34-1.16-1.94-1.51,.32-3.07,.54-4.27,1.49-1.66-.03-1.34-.52-1.16-1.88-.63-.42-.51-1.07-.71-1.68-.73-.37-1.73-.85-2.52-.39-1.66,.31-2.42-3.07-.91-3.75,.73-1.46,2.14-.74,1.1-2.91-.13-2.29-1.6-3.95,1.3-4.72,.59-.31,1.26,.59,1.75,.06,.02-.57,.5-.45,.91-.45,3.59-2.91-1.34-1.92-3.24-2.59-.73-.21-.73-1.55-1.49-1.55-.64,.34-.83,.21-1.17-.39-3.03-.55-.13-.44,.39-1.36-.35-.69-1.49-1.96-1.42-2.65-.13-1.47,1.68-1.62,1.68-3.17-.37-3.05,.86-5.2,3.17-7.18,1.16-1.66-1.29-1.69-2.27-2.33-1.31-.66-3.26-2.65-4.4-.71-3.04,5.05-1.51-.46-3.69,.91-.85,.15-.66-.93-1.1-1.29-.36-.4-1.29-.44-1.29-1.1,.95-.91-.56-2.83,.45-3.3,.58,.29,.87-.41,1.29-.58,.96,1.65,1.72,.9,2.46-.45,.82-.96-.42-2.53-1.55-2.52-.78-.12-2.09,.23-1.1-.91-.96-.94-.52-2.27-1.1-3.3-.62-.76-1.67-.18-2.46-.65-.73,.31-.09,1.28-.58,1.68-2.02,1,.11,3.57-1.42,5.37-1.62,1.04-.59-1.51-.65-2.14-.95-3.18-2.56-1.97-4.01,.45-1.4,1.31-2.13,3.58-3.82,2.72-.16,1.43-2.09,3.35-2.65,1.1-1.81-1.9-.21-2.04-.06-3.95,.14-1.45,2.61-1.78,2.2-3.5-.59,.17-2.18,.73-1.36-.58,.67-.17,1.48-.05,1.42-.97-1.22-2.44,2.11-.76,3.11-.26,1.26,.26,.22-1.01,.45-1.68,.13-.91,.86-2.23,1.68-2.52,1.4-1.17-.65-1.83-1.16-2.85-1.74,1.63-1.43-.29-1.1-1.55-.89-1.72-1,4.27-3.95-.26-1.41-.3-.27-2.03,.39-2.59-2.18-.66-.93-2.85-2.2-4.08-1.03-.41-2.3-1.11-1.55-2.26-.44-1.43,.79-.91,1.42-1.42-.94-.74,2.51-.57,1.94-2.27-.87-.23-.25-1.32-1.49-.84-.95-.76,.93-2.67,.13-2.27-.33,.17-.28-.41-.26-.45,.71-1.29,3.1-2.79,3.88-4.85,.94-2.5-3.84-3.26-5.44-4.98,2.68-.81,4.23,.08,6.28,.39,.46-.26,.13-1.07,.39-1.49,.72,.23,1.21,.11,1.88-.26,1.15,2.4,3.34,2.32,5.57,3.37,.95,.34,.17,.72,.26,1.3,1.08,1.57,1.77,.71,3.03-.18Z"/><g><g><path class="cls-3" d="M94.07,42.29c.23-.43,.53-.9,.53-1.36,0-.45-.13-.96-.61-1.31-.43-.31-.75-.37-1.12,.1,.1,.03,.19,.06,.29,.09,0,.04-.02,.08-.02,.11-.55-.11-1.12-.15-1.65-.33-.89-.32-1.78-.27-2.58,.07-.81,.34-1.62,.54-2.47,.61-.95,.09-1.84,.3-2.64,.83-.21,.14-.4,.39-.5,.63-.4,.91-.32,1.89-.33,2.86,0,.2-.06,.48-.2,.57-.39,.26-.52,.65-.49,1.05,.04,.7-.43,1.02-.89,1.36-.32,.24-.7,.41-1.03,.64-.18,.13-.31,.32-.46,.48h0s0,0,0,0c-.34,.16-.68,.31-1.01,.47,0,0,0,0-.01,0,0,0,0,0,0,0-.73-.39-2.31-.19-2.94,.35-.13,.11-.32,.16-.5,.21-.88,.25-1.86-.18-2.72,.52-.42,.34-1.14,.33-1.73,.43-.16,.03-.43-.04-.52-.16-.38-.47-.67-.95-1.32-1.22-.49-.2-.93-.43-1.48-.42-.38,0-.76-.07-1.03-.1-.28-.42-.52-.79-.76-1.15-.35-.52-.85-.94-.93-1.61-.1-.86-.61-1.52-1.19-2.07-.91-.88-1.49-1.93-1.91-3.09-.07-.18-.04-.44,.03-.63,.17-.4,.19-.71-.2-1.02-.6-.48-.98-1.11-1.07-1.9-.04-.32-.17-.63-.21-.96-.03-.23,.02-.47,.05-.7,.07-.45,.16-.9,.22-1.35,.03-.23-.04-.47-.02-.7,.08-1.06,.14-2.12,.28-3.16,.18-1.28,.42-2.54,1.07-3.7,.27-.47,.36-1.05,.51-1.59,.04-.13-.02-.29-.03-.43-.17,.03-.38,.02-.51,.11-.26,.19-.49,.14-.67-.05-.34-.38-.78-.38-1.24-.42-.38-.03-.77-.1-1.12-.25-.65-.26-1.25-.62-1.9-.86-.29-.11-.51-.22-.64-.51-.28-.59-.6-1.15-.88-1.73-.05-.1-.03-.24-.05-.36-.05-.42-.08-.85-.18-1.27-.04-.17-.21-.33-.34-.47-.3-.32-.61-.62-.9-.94-.31-.34-.6-.7-.89-1.05-.1-.12-.22-.23-.28-.36-.25-.53-.46-1.09-.72-1.61-.39-.78-.62-1.66-1.45-2.16-.31-.19-.5-.6-.81-.79-.34-.21-.45-.69-.98-.69-.73-.01-1.46-.16-2.2-.25-.1-.01-.21,0-.3,.04-.22,.09-.44,.18-.64,.3-.21,.13-.46,.27-.57,.48-.21,.38-.35,.8-.47,1.21-.28,.99-1.01,1.24-1.83,.66-.4-.28-.87-.45-1.3-.69-.27-.15-.52-.32-.78-.49-.15-.1-.28-.25-.44-.33-.75-.36-1.03-1.07-1.1-1.78-.08-.84-.48-1.5-.93-2.12-.27-.38-.82-.54-1.19-.86-.49-.42-.93-.91-1.41-1.35-.25-.23-.53-.43-.78-.65-.23-.21-.53-.4-.66-.67-.22-.47-.54-.64-1.03-.63-1.34,0-2.68,0-4.02,0-1.15,0-1-.11-.99,1,0,.47-.14,.62-.61,.62-2.54-.02-5.08,0-7.63-.01-.28,0-.57-.03-.83-.12-3.48-1.25-6.95-2.52-10.42-3.79-.74-.27-.74-.28-.59-1.06-.18,0-.34-.01-.5,0-2.16,.19-4.31,.38-6.47,.58-.52,.05-.59,.19-.36,.68,.08,.17,.21,.31,.3,.46,.1,.17,.2,.34,.3,.51,.11,.19,.19,.42,.34,.58,.28,.31,.51,.6,.35,1.06-.1,.31,.06,.54,.29,.77,.4,.42,.87,.82,.75,1.52-.02,.09,.1,.24,.19,.32,.45,.4,.89,.78,.68,1.5-.04,.15,.13,.53,.22,.53,.46,.03,.51,.33,.49,.65-.04,.63,.18,1.23,.52,1.65,.42,.5,1.09,.79,1.65,1.16,.24,.16,.54,.26,.73,.46,.82,.86,1.61,1.74,2.39,2.63,.08,.09,.11,.27,.08,.39-.14,.53-.03,1.15-.53,1.56-.07,.05-.06,.2-.08,.3-.1,.02-.22,.02-.3,.07-.35,.26-.72,.24-1.11,.12-.16-.05-.33-.1-.5-.09-.16,0-.31,.09-.47,.13,.1,.16,.18,.35,.31,.47,.51,.5,1.33,.7,1.46,1.56,0,.06,.1,.12,.16,.16,.45,.25,.88,.58,1.36,.72,.37,.11,.57,.3,.78,.59,.19,.27,.41,.55,.82,.19,.28-.25,1,.05,1.2,.38,.11,.19,.28,.35,.43,.52,.59,.7,1.61,.82,2.16,1.64,.41,.62,.65,1.97,.33,2.66-.23,.49-.36,1.02-.56,1.61,.27,.04,.49,.1,.71,.1,.4,.01,.7,.12,.75,.57-.12,.07-.23,.14-.39,.23,.3,.24,.56,.44,.81,.64,.04-.03,.08-.06,.12-.09-.05-.17-.11-.35-.18-.58,.12,.06,.21,.08,.27,.13,1.03,.91,2.32,1.51,3.18,2.64,.08,.1,.23,.17,.36,.22,.63,.23,.88,.75,1.03,1.35,.07,.27,.12,.55,.22,.81,.2,.49,.53,.55,.94,.23,.25-.19,.51-.36,.76-.53,.63-.43,.6-1.45-.03-1.86-.16-.1-.27-.31-.36-.49-.16-.31-.23-.67-.43-.94-.18-.24-.48-.38-.73-.57-.27-.21-.53-.43-.8-.64-.04,.02-.08,.05-.12,.07,.03,.26,.06,.53,.09,.79,0,0,0,0,0,.01,0,0,0,0,0,0-.15-.07-.3-.15-.45-.21-.51-.22-.88-1.05-.66-1.56,.2-.46,.1-.82-.21-1.2-.23-.28-.39-.62-.56-.95-.14-.27-.19-.6-.39-.82-.44-.5-.85-.97-.79-1.69,.01-.13-.02-.28-.07-.41-.19-.52-.39-1.04-.59-1.57-.2-.53-.47-.98-1.14-.99-.09,0-.25-.24-.24-.35,.06-.34-.09-.48-.37-.6-.12-.05-.18-.23-.27-.35-.35-.42-.31-1.11-.95-1.31-.53-.17-.72-.58-.8-1.09-.08-.52-.18-1.04-.32-1.55-.04-.14-.24-.22-.37-.34-.15-.13-.4-.24-.42-.39-.12-.74-.73-.98-1.26-1.32-.19-.67-.47-1.24-1-1.77-.62-.6-1.46-.93-1.95-1.67-.27-.4-.47-.77-.48-1.27-.02-.69-.13-1.38-.2-2.07,0-.09-.05-.19-.11-.25-.68-.73-.37-1.56-.2-2.34,.11-.49,.47-.54,.88-.24,.25,.18,.49,.41,.77,.51,.25,.09,.55,.08,.83,.06,.15-.01,.31-.22,.43-.19,.18,.04,.44,.18,.48,.32,.18,.68,.72,.73,1.28,.88,.68,.18,.71,.33,.52,.89-.23,.68,.01,1.23,.42,1.77,.26,.35,.55,.79,.55,1.19,0,.85,.58,1.37,.91,2.03,.1,.2,.12,.43,.21,.63,.06,.13,.16,.26,.27,.35,.08,.07,.2,.08,.3,.12,.03,.04,.05,.09,.08,.13-1.18-.13-.84,.8-1.13,1.38,.29,.11,.57,.33,.79,.28,.22-.06,.37-.38,.6-.65,.18,.24,.36,.49,.56,.74,.29,.38,.52,.87,.91,1.08,.48,.26,.72,.64,1.01,1.04,.2,.28,.48,.51,.77,.72,.19,.14,.43,.19,.65,.28,.18-.07,.42-.14,.55-.05,.13,.08,.18,.33,.21,.51,.03,.21-.06,.46,.02,.64,.13,.32,.39,.58,.54,.89,.18,.37,.47,.63,.86,.63,.63-.01,.75,.35,.84,.85,.09,.51,.39,.74,.91,.65,.51-.1,.76,.23,.9,.55,.12,.26,.03,.64-.03,.95-.04,.2-.21,.38-.32,.57-.2,.35-.09,.98,.21,1.21,.2,.16,.43,.28,.6,.47,.35,.4,.72,.74,1.31,.67,.07,0,.14,.05,.21,.09,.25,.15,.5,.32,.75,.47,.33,.19,.66,.37,.99,.56-.02,.04-.05,.08-.07,.12-.16-.1-.31-.19-.51-.31,.35,1.03,1.37,2.23,2.46,2.29-.36,.38-.03,.53,.2,.71,.21,.17,.42,.32,.62,.49,.33,.3,.68,.59,.97,.93,.34,.39,.64,.83,.96,1.25,.09,.12,.2,.24,.3,.35,.5,.59,.94,1.24,1.51,1.75,.69,.61,.99,1.32,1.06,2.2,.03,.33,.12,.67,.25,.97,.25,.55,.49,1.13,1.1,1.28-.02,.28-.07,.48-.04,.68,.05,.39-.05,.68-.34,.96-.21,.2-.35,.47-.57,.77,.24,.06,.37,.07,.47,.13,.13,.07,.24,.18,.36,.28-.1,.1-.18,.24-.3,.3-.17,.07-.36,.07-.55,.12-.48,.12-.56,.37-.27,.77,.09,.12,.15,.27,.22,.4,.15,.32,.25,.67,.45,.95,.31,.46,.68,.88,1.04,1.3,.21,.24,.41,.53,.67,.67,.95,.49,2,.8,2.86,1.47,.46,.36,.8,.88,1.21,1.31,.18,.19,.38,.41,.62,.51,.56,.23,1.14,.41,1.72,.59,.58,.18,1.17,.34,1.75,.5,.08,.02,.2,.03,.27,0,.48-.28,.78,.02,1.09,.32,.25,.24,.5,.5,.78,.71,.48,.36,.97,.7,1.46,1.04,.14,.1,.29,.18,.45,.24,.57,.21,1.15,.39,1.72,.62,.56,.23,1.09,.52,1.64,.76,.33,.15,.67,.28,1.02,.38,.98,.28,2.08,.21,2.84,1.08,.1,.12,.3,.15,.46,.22,.56,.25,1.12,.51,1.69,.75,.25,.1,.52,.16,.78,.23,.6,.16,1.25,.1,1.83,.47,.77,.49,1.66,.65,2.55,.41,.62-.17,1.22-.46,1.82-.72,.37-.17,.72-.4,1.08-.58,.23-.11,.49-.18,.74-.26,.16-.05,.32-.1,.57-.18-.19-.13-.28-.2-.4-.28,.13-.1,.24-.18,.27-.2,.32,.1,.56,.18,.78,.25-.05,.05-.14,.15-.22,.24,.65,.21,1.27,.42,1.9,.62,1.64,.53,2.69,1.86,3.91,2.94,.65,.57,1.24,1.2,1.86,1.8,.03-.02,.08-.03,.08-.05,.08-.69,.57-1.32,.2-2.07-.07-.14-.03-.4,.06-.56,.3-.57,.65-1.1,.94-1.67,.18-.35,.41-.49,.81-.48,1,.02,2,.02,2.99,0,.16,0,.41-.11,.44-.23,.09-.31,.09-.65,.13-.97,0-.01-.05-.04-.07-.05-.42-.14-.6-.48-.8-.84-.08-.15-.25-.3-.41-.36-.66-.28-1.07-.81-1.53-1.34q1.06-.08,1.07-1.14s0-.06,0-.09c-.07-.48,.15-.61,.61-.61,1.5,.02,2.99,.01,4.49,0,.22,0,.47,.06,.54-.29,.06-.31,.29-.31,.49-.15,.25,.19,.44,.12,.57-.12,.23-.39,.45-.79,.67-1.19-.12,.15-.25,.29-.36,.44,.11-.15,.24-.29,.36-.44,0,0,0,0,0,0,0,0,.01-.01,.01-.02h0s0,0,0,0c.14-.14,.3-.41,.43-.4,.47,.02,.66-.25,.83-.6,.08-.17,.2-.32,.31-.48,.04,.02,.08,.03,.12,.05-.03,.17-.04,.35-.1,.51-.11,.27-.1,.47,.18,.62,.12,.07,.23,.17,.33,.26,.02,.02,.04,.04,.06,.06h0c.13,.4,.24,.1,.28-.03,.16-.43,.29-.88,.42-1.32,.19-.62,.36-1.24,.56-1.91h-.59c.35-.24,.82-.23,.74-.74-.28-.05-.57-.1-.78-.14,.25-.43,.61-.78,.66-1.17,.1-.83,.51-1.45,1.08-2,.2-.2,.45-.37,.58-.61Z"/><path class="cls-3" d="M93.71,43.65c0,.08,.05,.2,.12,.23,.06,.03,.2,0,.24-.06,.21-.27,.4-.56,.64-.91-.7-.1-1.06,.21-1,.74Z"/></g><path id="MEX2734" class="cls-1" d="M61.13,38.95c-.16,.15-.26-.25-.26-.37,.09,.13,.1,.29,.26,.37Zm-.5-1.75c0,.85,.8,1.72,1.3,2.24,.3,.32-.09,.67-.1,1.03-.04-.14-.34-.51-.14-.61,.11-.05,.15,.02,.15-.14-.11-.3-.57-.51-.72-.85-.14-.32-.39-.72-.55-1.06,.32,.64,.16,1.54,.73,2.06,.2-.06,.2,0,.14,.19,.05,.14,.22,.5,.3,.6,.17,.69,.62,1.27,.9,1.85,.45,.93,1.36,1.45,1.9,2.35,.51,.56,.33,1.46,.76,2,.13,.18,.32,.42,.43,.58,.18,.26,.22,.38,.44,.44,.02,.27,.15,.49,.38,.64,.12,.04,.26-.03,.2,.15-.2-.09-.12-.04-.24-.07,.19,.04,0,.01,.11,.16-.06,0,.12,.1,.16,0,.03-.02,.17,.05,.28,.08,.12,.03,.22,.03,.26,.03,.2,0,.16-.02-.09-.11-.62-.24,.88-.02,1.93,.55,.19,.1,.47,.22,.65,.32,.1,.28,.36,.47,.49,.73,.25,.52,1.03,.18,1.51,.21-.05,.13,.12,.16,.13,.25-.05,.1,.09,.17,0,.24,.18,.2,.04,.38,.04,.62,.11,.07,.2,.14,.33,.17,.11,.13,.1,.31,.33,.28,.05,.18,.28,.1,.4,.24,.05,.25,.45,.3,.33,.55-.19,.38,.32,.43-.1,.7-1.06,.87-2.68,.16-3.96,.23-.2-.06-.12-.28-.15-.4-.28-.22-.69-.47-.82-.82,.02-.16,.23-.2,.17-.41-.16-.12-.09,.13-.21,.03-.16,.12-.26,.25-.51,.25-.1,.14-.35,.17-.4,.32-.76,.25-.77-.06-1.08-.72-.03-.26,.26-.4,.35-.62,.12-.26-.1-.65-.4-.66-.13-.1-.3-.02-.45-.08-.09-.02-.09,.15-.2,.1-.08,0-.11-.07-.11-.14-.07-.02-.14,.01-.19-.06-.06-.45-.55-.61-.56-1.1-.25-.16-.59-.15-.78-.42,.18,.27-.02,1.07-.33,.69-.09-.08,0-.35-.18-.29-.23,.05-.47,.08-.65,.23-.25,0-.2-.08-.18-.28-.1-.06-.08-.16-.11-.25-.11-.06-.26-.13-.38-.06-.25,.05-.37-.46-.14-.57,.11-.22,.32-.11,.17-.44-.02-.35-.24-.6,.2-.72,.09-.05,.19,.09,.26,0,0-.09,.08-.07,.14-.07,.54-.44-.2-.29-.49-.39-.11-.03-.11-.24-.23-.24-.1,.05-.13,.03-.18-.06-.46-.08-.02-.07,.06-.21-.05-.1-.22-.3-.22-.4-.02-.22,.25-.25,.25-.48-.06-.46,.13-.79,.48-1.09,.18-.25-.2-.26-.34-.35-.2-.1-.49-.4-.67-.11-.46,.77-.23-.07-.56,.14-.13,.02-.1-.14-.17-.2-.05-.06-.19-.07-.2-.17,.14-.14-.08-.43,.07-.5,.09,.04,.13-.06,.2-.09,.15,.25,.26,.14,.37-.07,.12-.15-.06-.38-.24-.38-.12-.02-.32,.03-.17-.14-.14-.14-.08-.34-.17-.5-.09-.12-.25-.03-.37-.1-.11,.05-.01,.19-.09,.25-.31,.15,.02,.54-.22,.81-.24,.16-.09-.23-.1-.32-.14-.48-.39-.3-.61,.07-.21,.2-.32,.54-.58,.41-.02,.22-.32,.51-.4,.17-.27-.29-.03-.31,0-.6,.02-.22,.39-.27,.33-.53-.09,.03-.33,.11-.21-.09,.1-.03,.22,0,.22-.15-.19-.37,.32-.12,.47-.04,.19,.04,.03-.15,.07-.25,.02-.14,.13-.34,.25-.38,.21-.18-.1-.28-.18-.43-.26,.25-.22-.04-.17-.24-.13-.26-.15,.65-.6-.04-.21-.05-.04-.31,.06-.39-.33-.1-.14-.43-.33-.62-.16-.06-.35-.17-.24-.34-.07-.22,.12-.14,.22-.22-.14-.11,.38-.09,.29-.34-.13-.04-.04-.2-.23-.13-.14-.11,.14-.4,.02-.34-.05,.03-.04-.06-.04-.07,.11-.19,.47-.42,.59-.73,.14-.38-.58-.49-.82-.75,.41-.12,.64,.01,.95,.06,.07-.04,.02-.16,.06-.23,.11,.03,.18,.02,.28-.04,.17,.36,.51,.35,.84,.51,.14,.05,.03,.11,.04,.2,.16,.24,.27,.11,.46-.03Z"/></g></g></svg>