<svg xmlns="http://www.w3.org/2000/svg" viewBox="0 0 306.04 276.52"><defs><style>.cls-1{fill:#fef6fc;}.cls-1,.cls-2,.cls-3{stroke:#6d4162;stroke-miterlimit:10;stroke-width:0.78px;}.cls-2,.cls-3{fill:none;}.cls-3{isolation:isolate;}.cls-4{fill:#713972;}.cls-5{fill:#b25fac;}.cls-6{fill:#f230b9;}</style></defs><g id="estados"><circle class="cls-1" cx="136.96" cy="151.48" r="97.03"/><circle class="cls-2" cx="136.96" cy="151.48" r="104.09"/><polyline class="cls-3" points="213.34 81.1 271.32 41.25 305.78 41.25"/><polyline class="cls-3" points="214.19 220.92 271.32 255.56 305.78 255.56"/><polyline class="cls-3" points="239.72 131.27 272.01 116.16 306.47 116.16"/><polyline class="cls-3" points="238.56 172.75 271 186.07 305.46 186.07"/><path class="cls-4" d="M101.26,210.88l4.34-8.34h2.49L102.36,213v6.2h-2.19V213l-5.73-10.42H97Z"/><path class="cls-4" d="M117.08,217.94a4.51,4.51,0,0,1-3.62,1.45,3.84,3.84,0,0,1-3-1.15,5,5,0,0,1-1-3.4v-8h2.11v8c0,1.87.76,2.8,2.29,2.8a3.15,3.15,0,0,0,3.21-1.8v-9h2.11v12.35h-2Z"/><path class="cls-4" d="M127.29,217.66a3.09,3.09,0,0,0,2-.68,2.42,2.42,0,0,0,.93-1.71h2a3.86,3.86,0,0,1-.73,2,4.81,4.81,0,0,1-1.8,1.53,5.19,5.19,0,0,1-2.38.57,5.08,5.08,0,0,1-4-1.69,6.7,6.7,0,0,1-1.49-4.6v-.36a7.27,7.27,0,0,1,.67-3.2,5,5,0,0,1,1.9-2.18,5.35,5.35,0,0,1,2.92-.78,4.93,4.93,0,0,1,3.45,1.25,4.42,4.42,0,0,1,1.47,3.23h-2a2.91,2.91,0,0,0-.9-2,2.82,2.82,0,0,0-2-.77,2.93,2.93,0,0,0-2.49,1.16,5.4,5.4,0,0,0-.89,3.34v.4a5.37,5.37,0,0,0,.88,3.29A3,3,0,0,0,127.29,217.66Z"/><path class="cls-4" d="M142.2,219.16a4.69,4.69,0,0,1-.3-1.3,4.7,4.7,0,0,1-3.51,1.53,4.36,4.36,0,0,1-3-1,3.34,3.34,0,0,1-1.17-2.62,3.48,3.48,0,0,1,1.47-3,6.89,6.89,0,0,1,4.12-1.07h2.06v-1a2.34,2.34,0,0,0-.67-1.76,2.64,2.64,0,0,0-1.95-.66,3.07,3.07,0,0,0-1.89.57,1.69,1.69,0,0,0-.77,1.38h-2.12a2.89,2.89,0,0,1,.66-1.78,4.5,4.5,0,0,1,1.78-1.37,6.06,6.06,0,0,1,2.47-.5,4.87,4.87,0,0,1,3.34,1.07,3.84,3.84,0,0,1,1.26,2.94v5.68a7,7,0,0,0,.43,2.71v.18Zm-3.51-1.61a3.75,3.75,0,0,0,1.89-.51,3.19,3.19,0,0,0,1.29-1.34v-2.53h-1.66c-2.59,0-3.88.75-3.88,2.27A1.92,1.92,0,0,0,137,217,2.56,2.56,0,0,0,138.69,217.55Z"/><path class="cls-4" d="M150.15,203.82v3h2.31v1.63h-2.31v7.67a1.67,1.67,0,0,0,.31,1.11,1.27,1.27,0,0,0,1,.37,5,5,0,0,0,1-.13v1.7a6.15,6.15,0,0,1-1.62.23,2.63,2.63,0,0,1-2.13-.86,3.67,3.67,0,0,1-.72-2.43v-7.66h-2.25v-1.63H148v-3Z"/><path class="cls-4" d="M162.54,219.16a4.42,4.42,0,0,1-.29-1.3,4.72,4.72,0,0,1-3.52,1.53,4.35,4.35,0,0,1-3-1,3.34,3.34,0,0,1-1.17-2.62,3.5,3.5,0,0,1,1.46-3,7,7,0,0,1,4.13-1.07h2.05v-1a2.37,2.37,0,0,0-.66-1.76,2.64,2.64,0,0,0-2-.66,3.07,3.07,0,0,0-1.89.57,1.69,1.69,0,0,0-.77,1.38h-2.12a2.94,2.94,0,0,1,.65-1.78,4.57,4.57,0,0,1,1.78-1.37,6.1,6.1,0,0,1,2.48-.5,4.89,4.89,0,0,1,3.34,1.07,3.83,3.83,0,0,1,1.25,2.94v5.68a7,7,0,0,0,.44,2.71v.18Zm-3.5-1.61a3.72,3.72,0,0,0,1.88-.51,3.07,3.07,0,0,0,1.29-1.34v-2.53h-1.65c-2.59,0-3.88.75-3.88,2.27a1.92,1.92,0,0,0,.66,1.55A2.56,2.56,0,0,0,159,217.55Zm2-15.92h2.56L160.49,205h-1.7Z"/><path class="cls-4" d="M169.63,206.81l.07,1.55a4.51,4.51,0,0,1,3.7-1.78q3.91,0,3.94,4.42v8.16h-2.11V211a2.83,2.83,0,0,0-.61-2,2.46,2.46,0,0,0-1.86-.64,3.1,3.1,0,0,0-1.81.55,3.86,3.86,0,0,0-1.21,1.44v8.8h-2.11V206.81Z"/><path id="YUC" class="cls-5" d="M203.36,96.61v.74l.59,9.3-.15,1.77-1.92,2.66-.59,3.11-.15,1.92,2.22,4.57.14,3.11-2.8,5.76-.15,1.62-.44,1.63-1,1.62-.59,1.77-1.48,3-2.8,1.77L191.69,143l-1.48.89-3.84,3.39-4,2.07-1.18.44-2.81-.14-1.47.44-1.33-.59-1.19-.89-1.62.3-1,1-.89,1.33-1,1.48-.59,1.62.59,2.07-.15,1.92-1-.15-.44-1.33-.89-1.18-1.62-.15-1.18.89-1.33,3.25-2.07,2.51-2.66.74-2.51,1.62-2.66.6-1.47.59-1.48.88-1.33.74-2.81,1.77-1,1.33.29,1-.44.74-1-.89-1.19-.74-2.95,2.81-.44.44-.74.44-.74.3-5.17.15-1.48.88-3,1L127.14,178,126,179.18l-5,.74-1.62-.15-1.18.44.15,1.77-.15,1.48-.45,1.63-.73,1.77-1,1.77L114.73,186l-.59-3.54-2.22-3-2.51-2.66L106,170.46l-2.81-2.21L100,167.07l-2.36-2.52L96.41,161l-1.62-2.95-2.66-1.92-.74-.89-.88-1.92v-1.18l-.74-1.33-1.92-2.66-1.18.89-.89,1.77-1.33.29-.89-.88-.88-.74-.89.29-.89.45-1.18-1L79,147.42l-1.18-1.33-1.92-.29H73.52l-2.22-.15-.74-1.48.6-12.41L71,130.43l.15-.14.59-2.81,1-2.81.15-1.62h-.3L72,125.71l-.88,1.92-.15.29-.15,1.18-.59,1.48-.89,1.18-1.18.45v-.3l.89-1.33,3-9,.45-.74.73-.88,5.32-3.25.89-.74,3.1-1.18,1.62-1.33,1-.45.44-.29,1.48-.15,2.51-.89,2.81-2.06.73-.3.89-.15,4.73-1.77,5-.89h3.69l6.5-1.18,8.86-.88,3.7-1,1.92-.29,1.18.29.44.15.45-.15,1-.44.29-.15,4-.74,3.1-.88L141,101l.89-.3,1.62-.73,5.62-1.33,1.62-1,3-2.66.88-.44,3-.3.88-.29,1.63-.89.88-.14h3.7l.73.14,1.63.74.89.15.73-.15,1.63-.44,2.51-.3.89-.29.59-.45.59-.29,3.1.15-.89-.45-1.18-.14h-1l-1.63.88-1.92.45h-.44l.3-.45L172,92l1-.44,1.33-.15,1-.45.44-.14h.59l2.07.59h4l1,.15,3,1.33,1.92.44,4.13.59,2.81.89.15.14-.45.3-.44.15-.59.14-.59-.14-.44-.3-.59-.29-3.4-.6-.89-.29,1,.89,1.47.73,1.48.59,1.63.15h3.1l1.47.3h.89l.74-.3-2.07-.15L197,96l-.73-.59.29-.3,3.1.44,2.51,1Z"/><path class="cls-1" d="M94.07,42.29a3.19,3.19,0,0,0,.53-1.36A1.53,1.53,0,0,0,94,39.62c-.42-.31-.74-.36-1.12.11l.29.08,0,.12a11.22,11.22,0,0,1-1.65-.34,3.48,3.48,0,0,0-2.58.07,8,8,0,0,1-2.47.61,5.56,5.56,0,0,0-2.64.84,1.41,1.41,0,0,0-.5.63A7.05,7.05,0,0,0,83,44.59a.88.88,0,0,1-.2.58,1.09,1.09,0,0,0-.5,1c0,.7-.43,1-.89,1.37s-.69.41-1,.64a4.27,4.27,0,0,0-.47.48h0l-1,.48h0a3.35,3.35,0,0,0-3,.34,1.34,1.34,0,0,1-.5.22c-.88.24-1.85-.18-2.71.52a3.91,3.91,0,0,1-1.73.43.65.65,0,0,1-.53-.16,3.25,3.25,0,0,0-1.32-1.22,3.61,3.61,0,0,0-1.47-.42,9,9,0,0,1-1-.11c-.28-.42-.51-.79-.76-1.15-.34-.51-.85-.94-.93-1.61A3.42,3.42,0,0,0,63.75,44a7.79,7.79,0,0,1-1.91-3.09,1,1,0,0,1,0-.63.74.74,0,0,0-.2-1,2.81,2.81,0,0,1-1.07-1.9c0-.32-.17-.63-.2-1a2.39,2.39,0,0,1,.05-.7c.06-.45.16-.9.22-1.35,0-.23,0-.47,0-.7.08-1.05.14-2.11.28-3.16A10.11,10.11,0,0,1,62,26.73a7.55,7.55,0,0,0,.5-1.59,1.27,1.27,0,0,0,0-.43,1.36,1.36,0,0,0-.51.11.46.46,0,0,1-.67-.05,1.67,1.67,0,0,0-1.24-.42,4.23,4.23,0,0,1-1.12-.25c-.64-.26-1.25-.61-1.9-.86a1,1,0,0,1-.65-.52c-.27-.58-.59-1.15-.88-1.73a1.36,1.36,0,0,1,0-.36c-.05-.42-.08-.85-.17-1.26A1.18,1.18,0,0,0,55,18.9c-.3-.32-.62-.62-.91-.94s-.6-.7-.89-1.06a1.4,1.4,0,0,1-.28-.36c-.25-.53-.46-1.09-.73-1.61a4.42,4.42,0,0,0-1.45-2.16c-.31-.2-.5-.6-.81-.79s-.45-.69-1-.7A20.29,20.29,0,0,1,46.7,11a.67.67,0,0,0-.31,0,4.68,4.68,0,0,0-.64.3,1.59,1.59,0,0,0-.57.48,6,6,0,0,0-.47,1.21,1.06,1.06,0,0,1-1.82.66c-.4-.28-.88-.45-1.31-.69a7.71,7.71,0,0,1-.77-.49,4.71,4.71,0,0,0-.45-.33,2.06,2.06,0,0,1-1.1-1.78,4.26,4.26,0,0,0-.93-2.12c-.28-.37-.82-.54-1.19-.86s-.93-.91-1.41-1.35c-.25-.23-.53-.43-.78-.65a2.62,2.62,0,0,1-.66-.67,1,1,0,0,0-1-.64c-1.34,0-2.68,0-4,0-1.15,0-1-.1-1,1,0,.47-.13.63-.61.62-2.54,0-5.08,0-7.62,0a2.57,2.57,0,0,1-.83-.12L8.77,1.84C8,1.57,8,1.56,8.18.78a4.09,4.09,0,0,0-.5,0l-6.47.58c-.52,0-.59.19-.36.67a2.8,2.8,0,0,0,.3.46L1.44,3a3,3,0,0,0,.34.57c.28.31.51.6.35,1.06-.1.31.06.54.29.78.4.41.87.82.75,1.52,0,.09.1.24.19.32.46.4.89.78.69,1.5,0,.15.13.52.22.53.46,0,.51.33.49.65a2.44,2.44,0,0,0,.52,1.65,7.29,7.29,0,0,0,1.65,1.16,4.11,4.11,0,0,1,.73.46c.82.86,1.61,1.74,2.39,2.63a.49.49,0,0,1,.09.39c-.14.53,0,1.14-.54,1.55-.06.06,0,.2-.08.31s-.22,0-.29.07a1.18,1.18,0,0,1-1.12.12,1.71,1.71,0,0,0-.5-.1,2.64,2.64,0,0,0-.46.13,2.59,2.59,0,0,0,.3.48c.51.5,1.33.7,1.47,1.56a.28.28,0,0,0,.16.16,7.17,7.17,0,0,0,1.36.73,1.36,1.36,0,0,1,.78.58c.19.27.4.56.82.19s1,.05,1.2.38a3,3,0,0,0,.43.52c.59.71,1.61.82,2.15,1.64a3.36,3.36,0,0,1,.33,2.66c-.22.49-.36,1-.56,1.61a5.24,5.24,0,0,0,.71.1c.39,0,.69.12.74.58l-.39.23.81.64.12-.1-.18-.57a.85.85,0,0,1,.27.13c1,.9,2.33,1.51,3.18,2.64a.89.89,0,0,0,.35.21,1.75,1.75,0,0,1,1,1.35,5.7,5.7,0,0,0,.22.81c.21.49.53.55.95.23.24-.19.5-.36.76-.53a1.15,1.15,0,0,0,0-1.86,1.14,1.14,0,0,1-.37-.49,6.73,6.73,0,0,0-.43-.94,3.48,3.48,0,0,0-.73-.57l-.8-.64-.12.07.1.79h0l-.45-.21a1.37,1.37,0,0,1-.66-1.56A1,1,0,0,0,20.46,28,5.64,5.64,0,0,1,19.9,27a3.45,3.45,0,0,0-.39-.82,2.24,2.24,0,0,1-.78-1.7.92.92,0,0,0-.07-.4c-.19-.53-.39-1.05-.59-1.57s-.47-1-1.14-1c-.09,0-.26-.25-.24-.35.06-.34-.09-.48-.37-.6-.12,0-.17-.23-.27-.35-.34-.41-.31-1.11-1-1.31a1.17,1.17,0,0,1-.81-1.09c-.08-.52-.18-1-.31-1.55,0-.13-.25-.22-.37-.33s-.4-.24-.43-.39c-.12-.75-.73-1-1.25-1.32a3.79,3.79,0,0,0-1-1.77c-.62-.6-1.46-.93-2-1.67a2.3,2.3,0,0,1-.48-1.27c0-.69-.13-1.38-.2-2.07a.45.45,0,0,0-.12-.25C7.5,6.48,7.81,5.65,8,4.87c.1-.49.46-.54.87-.24a3.27,3.27,0,0,0,.78.51,1.92,1.92,0,0,0,.83.06c.14,0,.3-.22.42-.19s.45.17.49.32c.18.68.72.73,1.28.88s.71.33.52.89a1.8,1.8,0,0,0,.43,1.77,2.27,2.27,0,0,1,.55,1.19c0,.85.58,1.37.91,2,.1.2.12.43.21.63a1,1,0,0,0,.27.35.91.91,0,0,0,.3.13l.08.13c-1.19-.14-.84.79-1.14,1.37.29.12.58.34.79.28s.37-.38.61-.65c.18.24.36.5.55.74s.53.88.91,1.09a2.87,2.87,0,0,1,1,1,3.31,3.31,0,0,0,.77.72,2.35,2.35,0,0,0,.65.27c.18-.07.42-.14.55-.05a.82.82,0,0,1,.21.51c0,.21-.06.46,0,.64s.39.58.54.89a.94.94,0,0,0,.86.63c.63,0,.75.35.84.85a.7.7,0,0,0,.91.64.78.78,0,0,1,.9.55,1.63,1.63,0,0,1,0,.95,2.17,2.17,0,0,1-.32.57,1.08,1.08,0,0,0,.21,1.21,4.61,4.61,0,0,1,.6.47,1.44,1.44,0,0,0,1.31.66.57.57,0,0,1,.21.1l.75.46,1,.56-.07.12L28,27.64a3.36,3.36,0,0,0,2.46,2.3c-.37.38,0,.52.2.71s.42.31.62.49a10.65,10.65,0,0,1,1,.93c.34.39.64.83,1,1.25.09.12.19.23.29.35a17,17,0,0,0,1.52,1.75,3.09,3.09,0,0,1,1.06,2.2,3,3,0,0,0,.25,1c.25.54.49,1.12,1.11,1.28a4.52,4.52,0,0,0,0,.68,1,1,0,0,1-.34,1,5.46,5.46,0,0,0-.57.78,3,3,0,0,1,.47.12c.13.08.24.19.36.28-.1.1-.18.24-.3.3a4.71,4.71,0,0,1-.54.12c-.48.12-.57.37-.28.77a2.67,2.67,0,0,1,.22.41,6.86,6.86,0,0,0,.45.95,14.44,14.44,0,0,0,1,1.3,2.51,2.51,0,0,0,.67.67,17.49,17.49,0,0,1,2.86,1.46A12.72,12.72,0,0,1,42.68,50a2,2,0,0,0,.62.5,17.32,17.32,0,0,0,1.71.6c.58.18,1.17.34,1.75.5a.36.36,0,0,0,.27,0c.49-.29.79,0,1.1.31a10.27,10.27,0,0,0,.77.71c.48.37,1,.71,1.47,1a2.14,2.14,0,0,0,.45.24c.57.21,1.15.38,1.71.61s1.09.52,1.65.76a7.35,7.35,0,0,0,1,.38c1,.29,2.08.22,2.84,1.09a1.45,1.45,0,0,0,.45.22c.57.25,1.13.51,1.7.74a5.36,5.36,0,0,0,.78.23,6,6,0,0,1,1.83.47,3.12,3.12,0,0,0,2.54.41,13.5,13.5,0,0,0,1.82-.72c.37-.17.71-.4,1.08-.58a6.49,6.49,0,0,1,.74-.26l.58-.18-.4-.28.26-.2.79.25-.22.23,1.9.63c1.64.53,2.69,1.85,3.91,2.94.65.57,1.24,1.19,1.86,1.79l.09,0c.08-.69.57-1.33.2-2.07a.74.74,0,0,1,0-.56c.3-.57.66-1.1,1-1.67a.78.78,0,0,1,.81-.48c1,0,2,0,3,0,.16,0,.41-.11.45-.23a5.15,5.15,0,0,0,.12-1s0,0-.07,0c-.42-.13-.6-.48-.8-.84a.82.82,0,0,0-.4-.36,4.22,4.22,0,0,1-1.53-1.35c1.06-.07,1.06-.07,1.06-1.13a.33.33,0,0,0,0-.1c-.07-.48.15-.61.62-.61,1.49,0,3,0,4.49,0,.22,0,.47.06.53-.29s.29-.3.5-.15.43.12.57-.11c.24-.39.45-.8.67-1.19-.11.14-.25.28-.35.43.1-.15.24-.29.35-.43h0l0,0h0c.14-.14.29-.41.43-.4.47,0,.66-.25.83-.6a4.94,4.94,0,0,1,.3-.49l.12,0a2.88,2.88,0,0,1-.1.51c-.12.27-.1.47.18.62a2.69,2.69,0,0,1,.33.26l.06.06h0c.13.4.24.1.28,0,.16-.43.29-.88.43-1.32.18-.62.36-1.24.55-1.91H91.8c.35-.24.82-.23.74-.74l-.78-.14a3.78,3.78,0,0,0,.66-1.17,3.3,3.3,0,0,1,1.08-2A2.72,2.72,0,0,0,94.07,42.29Z"/><path class="cls-1" d="M93.71,43.65a.29.29,0,0,0,.12.23.25.25,0,0,0,.24-.06c.21-.27.4-.56.64-.9C94,42.82,93.65,43.12,93.71,43.65Z"/><path id="MEX2737" class="cls-6" d="M92.12,39.7v0l0,.62v.12l-.12.17,0,.21V41l.15.31v.2l-.18.39V42l0,.11-.07.11,0,.12-.1.19-.18.12-.17.14-.1.06-.25.22-.27.14-.07,0h-.19l-.1,0-.09,0-.08-.06-.1,0-.07.07-.06.09-.07.1,0,.1,0,.14v.13h-.07l0-.09-.06-.08h-.1l-.08.06-.09.22-.14.16-.17.05-.17.11-.18,0-.09,0-.1.06-.09,0-.19.11-.07.09,0,.07,0,0-.06-.06-.08,0-.2.19,0,0-.05,0,0,0h-.34l-.1,0-.19.07-.08.09-.08.08-.33,0h-.11l-.08,0v.21l0,.11-.05.12-.07.12-.07-.18,0-.24-.15-.19L85.88,45l-.22-.42-.19-.15-.21-.07-.16-.17L85,44l-.11-.19-.17-.13,0-.06-.06-.13v-.07l0-.09-.13-.18-.08.06-.06.12-.08,0-.06-.06-.06,0-.06,0-.06,0-.08-.07,0-.12L83.79,43l-.13,0h-.31l0-.09,0-.83V42h0l0-.19.07-.19v-.1h0l0,.17-.06.13v.1l0,.1-.06.07-.08,0v0l.06-.08.19-.6,0,0,0-.06.35-.22.06,0,.21-.08.11-.09.07,0,0,0h.09l.17-.06.19-.14,0,0h.06l.32-.11.33-.06h.25l.43-.08.58-.06.25-.07.13,0,.08,0h0l.07,0h0l.27,0,.2-.05H88L88,40l.11,0,.37-.09.11-.07.19-.18.06,0,.2,0h.06l.1-.06h.36l.1.05h.11l.11,0,.17,0,.06,0,0,0,0,0h.21l-.06,0h-.15l-.1.06-.13,0h0l0,0,.06,0,.07,0h.08l.07,0h.07l.14,0h.33l.2.09.13,0,.27,0,.19,0h0l0,0h-.11l0,0,0,0-.23,0h0l.06,0,.1.05.1,0h.31l.1,0h.06l0,0h-.2l0,0,0,0,.21,0,.17.07Z"/></g></svg>