<?xml version="1.0" encoding="UTF-8"?><svg id="estados" xmlns="http://www.w3.org/2000/svg" viewBox="0 0 306.04 276.52"><defs><style>.cls-1,.cls-2{fill:#3bb1e6;}.cls-3{fill:#fff;}.cls-4{stroke-width:1.53px;}.cls-4,.cls-2,.cls-5{stroke:#fff;}.cls-4,.cls-5{fill:none;opacity:.67;stroke-miterlimit:10;}.cls-6{fill:#0a2f3a;opacity:.5;}.cls-2{stroke-linecap:round;stroke-linejoin:round;stroke-width:1.37px;}.cls-5{stroke-width:1.67px;}</style></defs><g id="yuc-icono"><circle class="cls-6" cx="136.96" cy="151.48" r="97.03"/><circle class="cls-5" cx="136.96" cy="151.48" r="104.09"/><polyline class="cls-4" points="229.53 104.17 271.63 73.79 306.09 73.79"/><polyline class="cls-4" points="229.02 199.66 271.63 220.23 306.09 220.23"/><polyline class="cls-4" points="240.77 150.49 271.63 150.49 306.09 150.49"/><g><path class="cls-1" d="M101.26,210.88l4.34-8.34h2.49l-5.73,10.42v6.2h-2.19v-6.2l-5.73-10.42h2.51l4.31,8.34Z"/><path class="cls-1" d="M117.08,217.94c-.82,.97-2.03,1.45-3.62,1.45-1.32,0-2.32-.38-3.01-1.15-.69-.76-1.04-1.9-1.04-3.39v-8.03h2.11v7.98c0,1.87,.76,2.81,2.28,2.81,1.61,0,2.69-.6,3.22-1.8v-8.98h2.11v12.35h-2.01l-.05-1.22Z"/><path class="cls-1" d="M127.29,217.66c.75,0,1.41-.23,1.97-.68,.56-.46,.87-1.03,.94-1.71h2c-.04,.71-.28,1.38-.73,2.02-.45,.64-1.05,1.15-1.8,1.53-.75,.38-1.54,.57-2.38,.57-1.68,0-3.02-.56-4.01-1.68-.99-1.12-1.49-2.66-1.49-4.6v-.35c0-1.2,.22-2.27,.66-3.21s1.07-1.66,1.9-2.18c.83-.52,1.8-.78,2.93-.78,1.38,0,2.54,.41,3.45,1.24,.92,.83,1.41,1.91,1.47,3.23h-2c-.06-.8-.36-1.46-.91-1.97-.54-.51-1.22-.77-2.01-.77-1.07,0-1.9,.39-2.49,1.16-.59,.77-.88,1.89-.88,3.35v.4c0,1.42,.29,2.52,.88,3.29,.59,.77,1.42,1.15,2.51,1.15Z"/><path class="cls-1" d="M142.2,219.16c-.12-.24-.22-.68-.3-1.3-.98,1.02-2.15,1.53-3.51,1.53-1.22,0-2.22-.34-3-1.03-.78-.69-1.17-1.56-1.17-2.62,0-1.29,.49-2.28,1.47-3,.98-.71,2.35-1.07,4.13-1.07h2.05v-.97c0-.74-.22-1.33-.66-1.76-.44-.44-1.09-.66-1.95-.66-.75,0-1.38,.19-1.89,.57-.51,.38-.76,.84-.76,1.38h-2.12c0-.62,.22-1.21,.66-1.79,.44-.57,1.03-1.03,1.78-1.36,.75-.33,1.57-.5,2.47-.5,1.42,0,2.54,.36,3.34,1.07,.81,.71,1.22,1.69,1.26,2.94v5.68c0,1.13,.14,2.04,.43,2.71v.18h-2.21Zm-3.5-1.61c.66,0,1.29-.17,1.88-.51,.59-.34,1.02-.79,1.29-1.33v-2.53h-1.65c-2.59,0-3.88,.76-3.88,2.27,0,.66,.22,1.18,.66,1.55,.44,.37,1.01,.56,1.7,.56Z"/><path class="cls-1" d="M150.15,203.82v2.99h2.31v1.63h-2.31v7.67c0,.5,.1,.87,.31,1.11,.21,.25,.56,.37,1.05,.37,.24,0,.58-.05,1-.14v1.7c-.56,.15-1.1,.23-1.62,.23-.94,0-1.65-.29-2.13-.86-.48-.57-.72-1.38-.72-2.43v-7.66h-2.25v-1.63h2.25v-2.99h2.11Z"/><path class="cls-1" d="M162.54,219.16c-.12-.24-.22-.68-.3-1.3-.98,1.02-2.15,1.53-3.51,1.53-1.22,0-2.22-.34-3-1.03-.78-.69-1.17-1.56-1.17-2.62,0-1.29,.49-2.28,1.47-3,.98-.71,2.35-1.07,4.13-1.07h2.05v-.97c0-.74-.22-1.33-.66-1.76-.44-.44-1.09-.66-1.95-.66-.75,0-1.38,.19-1.89,.57-.51,.38-.76,.84-.76,1.38h-2.12c0-.62,.22-1.21,.66-1.79,.44-.57,1.03-1.03,1.78-1.36,.75-.33,1.57-.5,2.47-.5,1.42,0,2.54,.36,3.34,1.07,.81,.71,1.22,1.69,1.26,2.94v5.68c0,1.13,.14,2.04,.43,2.71v.18h-2.21Zm-3.5-1.61c.66,0,1.29-.17,1.88-.51,.59-.34,1.02-.79,1.29-1.33v-2.53h-1.65c-2.59,0-3.88,.76-3.88,2.27,0,.66,.22,1.18,.66,1.55,.44,.37,1.01,.56,1.7,.56Zm1.95-15.92h2.56l-3.06,3.35h-1.7s2.2-3.35,2.2-3.35Z"/><path class="cls-1" d="M169.63,206.81l.07,1.55c.94-1.19,2.18-1.78,3.7-1.78,2.61,0,3.93,1.47,3.95,4.42v8.16h-2.11v-8.17c0-.89-.21-1.55-.61-1.97s-1.02-.64-1.87-.64c-.68,0-1.29,.18-1.8,.55-.52,.37-.92,.84-1.21,1.44v8.8h-2.11v-12.35h2Z"/></g><path id="YUC" class="cls-2" d="M203.36,96.61v.74l.59,9.31-.15,1.77-1.92,2.66-.59,3.1-.15,1.92,2.22,4.58,.15,3.1-2.81,5.76-.15,1.62-.44,1.62-1.03,1.62-.59,1.77-1.48,2.95-2.81,1.77-2.51,2.07-1.48,.89-3.84,3.4-3.99,2.07-1.18,.44-2.81-.15-1.48,.44-1.33-.59-1.18-.89-1.62,.3-1.03,1.03-.89,1.33-1.03,1.48-.59,1.62,.59,2.07-.15,1.92-1.03-.15-.44-1.33-.89-1.18-1.62-.15-1.18,.89-1.33,3.25-2.07,2.51-2.66,.74-2.51,1.62-2.66,.59-1.48,.59-1.48,.89-1.33,.74-2.81,1.77-1.03,1.33,.3,1.03-.44,.74-1.03-.89-1.18-.74-2.95,2.81-.44,.44-.74,.44-.74,.3-5.17,.15-1.48,.89-2.95,1.03-1.18,1.33-1.18,1.18-5.02,.74-1.62-.15-1.18,.44,.15,1.77-.15,1.48-.44,1.62-.74,1.77-1.03,1.77-1.18-2.66-.59-3.55-2.22-2.95-2.51-2.66-3.4-6.35-2.81-2.22-3.25-1.18-2.36-2.51-1.18-3.55-1.62-2.95-2.66-1.92-.74-.89-.89-1.92v-1.18l-.74-1.33-1.92-2.66-1.18,.89-.89,1.77-1.33,.3-.89-.89-.89-.74-.89,.3-.89,.44-1.18-1.03-.74-1.77-1.18-1.33-1.92-.3h-2.36l-2.22-.15-.74-1.48,.59-12.41-.15-1.33,.15-.15,.59-2.81,1.03-2.81,.15-1.62h-.3l-.59,2.66-.89,1.92-.15,.3-.15,1.18-.59,1.48-.89,1.18-1.18,.44v-.3l.89-1.33,2.95-9.01,.44-.74,.74-.89,5.32-3.25,.89-.74,3.1-1.18,1.62-1.33,1.03-.44,.44-.3,1.48-.15,2.51-.89,2.81-2.07,.74-.3,.89-.15,4.73-1.77,5.02-.89h3.69l6.5-1.18,8.86-.89,3.69-1.03,1.92-.3,1.18,.3,.44,.15,.44-.15,1.03-.44,.3-.15,3.99-.74,3.1-.89,2.07-.15,.89-.3,1.62-.74,5.61-1.33,1.62-1.03,2.95-2.66,.89-.44,2.95-.3,.89-.3,1.62-.89,.89-.15h3.69l.74,.15,1.62,.74,.89,.15,.74-.15,1.62-.44,2.51-.3,.89-.3,.59-.44,.59-.3,3.1,.15-.89-.44-1.18-.15h-1.03l-1.62,.89-1.92,.44h-.44l.3-.44,.89-.44,1.03-.44,1.33-.15,1.03-.44,.44-.15h.59l2.07,.59h3.99l1.03,.15,2.95,1.33,1.92,.44,4.14,.59,2.81,.89,.15,.15-.44,.3-.44,.15-.59,.15-.59-.15-.44-.3-.59-.3-3.4-.59-.89-.3,1.03,.89,1.48,.74,1.48,.59,1.62,.15h3.1l1.48,.3h.89l.74-.3-2.07-.15-.89-.15-.74-.59,.3-.3,3.1,.44,2.51,1.03h1.18Z"/><g><g><path class="cls-3" d="M94.07,42.29c.23-.43,.53-.9,.53-1.36,0-.45-.13-.96-.61-1.31-.43-.31-.75-.37-1.12,.1,.1,.03,.19,.06,.29,.09,0,.04-.02,.08-.02,.11-.55-.11-1.12-.15-1.65-.33-.89-.32-1.78-.27-2.58,.07-.81,.34-1.62,.54-2.47,.61-.95,.09-1.84,.3-2.64,.83-.21,.14-.4,.39-.5,.63-.4,.91-.32,1.89-.33,2.86,0,.2-.06,.48-.2,.57-.39,.26-.52,.65-.49,1.05,.04,.7-.43,1.02-.89,1.36-.32,.24-.7,.41-1.03,.64-.18,.13-.31,.32-.46,.48h0s0,0,0,0c-.34,.16-.68,.31-1.01,.47,0,0,0,0-.01,0,0,0,0,0,0,0-.73-.39-2.31-.19-2.94,.35-.13,.11-.32,.16-.5,.21-.88,.25-1.86-.18-2.72,.52-.42,.34-1.14,.33-1.73,.43-.16,.03-.43-.04-.52-.16-.38-.47-.67-.95-1.32-1.22-.49-.2-.93-.43-1.48-.42-.38,0-.76-.07-1.03-.1-.28-.42-.52-.79-.76-1.15-.35-.52-.85-.94-.93-1.61-.1-.86-.61-1.52-1.19-2.07-.91-.88-1.49-1.93-1.91-3.09-.07-.18-.04-.44,.03-.63,.17-.4,.19-.71-.2-1.02-.6-.48-.98-1.11-1.07-1.9-.04-.32-.17-.63-.21-.96-.03-.23,.02-.47,.05-.7,.07-.45,.16-.9,.22-1.35,.03-.23-.04-.47-.02-.7,.08-1.06,.14-2.12,.28-3.16,.18-1.28,.42-2.54,1.07-3.7,.27-.47,.36-1.05,.51-1.59,.04-.13-.02-.29-.03-.43-.17,.03-.38,.02-.51,.11-.26,.19-.49,.14-.67-.05-.34-.38-.78-.38-1.24-.42-.38-.03-.77-.1-1.12-.25-.65-.26-1.25-.62-1.9-.86-.29-.11-.51-.22-.64-.51-.28-.59-.6-1.15-.88-1.73-.05-.1-.03-.24-.05-.36-.05-.42-.08-.85-.18-1.27-.04-.17-.21-.33-.34-.47-.3-.32-.61-.62-.9-.94-.31-.34-.6-.7-.89-1.05-.1-.12-.22-.23-.28-.36-.25-.53-.46-1.09-.72-1.61-.39-.78-.62-1.66-1.45-2.16-.31-.19-.5-.6-.81-.79-.34-.21-.45-.69-.98-.69-.73-.01-1.46-.16-2.2-.25-.1-.01-.21,0-.3,.04-.22,.09-.44,.18-.64,.3-.21,.13-.46,.27-.57,.48-.21,.38-.35,.8-.47,1.21-.28,.99-1.01,1.24-1.83,.66-.4-.28-.87-.45-1.3-.69-.27-.15-.52-.32-.78-.49-.15-.1-.28-.25-.44-.33-.75-.36-1.03-1.07-1.1-1.78-.08-.84-.48-1.5-.93-2.12-.27-.38-.82-.54-1.19-.86-.49-.42-.93-.91-1.41-1.35-.25-.23-.53-.43-.78-.65-.23-.21-.53-.4-.66-.67-.22-.47-.54-.64-1.03-.63-1.34,0-2.68,0-4.02,0-1.15,0-1-.11-.99,1,0,.47-.14,.62-.61,.62-2.54-.02-5.08,0-7.63-.01-.28,0-.57-.03-.83-.12-3.48-1.25-6.95-2.52-10.42-3.79-.74-.27-.74-.28-.59-1.06-.18,0-.34-.01-.5,0-2.16,.19-4.31,.38-6.47,.58-.52,.05-.59,.19-.36,.68,.08,.17,.21,.31,.3,.46,.1,.17,.2,.34,.3,.51,.11,.19,.19,.42,.34,.58,.28,.31,.51,.6,.35,1.06-.1,.31,.06,.54,.29,.77,.4,.42,.87,.82,.75,1.52-.02,.09,.1,.24,.19,.32,.45,.4,.89,.78,.68,1.5-.04,.15,.13,.53,.22,.53,.46,.03,.51,.33,.49,.65-.04,.63,.18,1.23,.52,1.65,.42,.5,1.09,.79,1.65,1.16,.24,.16,.54,.26,.73,.46,.82,.86,1.61,1.74,2.39,2.63,.08,.09,.11,.27,.08,.39-.14,.53-.03,1.15-.53,1.56-.07,.05-.06,.2-.08,.3-.1,.02-.22,.02-.3,.07-.35,.26-.72,.24-1.11,.12-.16-.05-.33-.1-.5-.09-.16,0-.31,.09-.47,.13,.1,.16,.18,.35,.31,.47,.51,.5,1.33,.7,1.46,1.56,0,.06,.1,.12,.16,.16,.45,.25,.88,.58,1.36,.72,.37,.11,.57,.3,.78,.59,.19,.27,.41,.55,.82,.19,.28-.25,1,.05,1.2,.38,.11,.19,.28,.35,.43,.52,.59,.7,1.61,.82,2.16,1.64,.41,.62,.65,1.97,.33,2.66-.23,.49-.36,1.02-.56,1.61,.27,.04,.49,.1,.71,.1,.4,.01,.7,.12,.75,.57-.12,.07-.23,.14-.39,.23,.3,.24,.56,.44,.81,.64,.04-.03,.08-.06,.12-.09-.05-.17-.11-.35-.18-.58,.12,.06,.21,.08,.27,.13,1.03,.91,2.32,1.51,3.18,2.64,.08,.1,.23,.17,.36,.22,.63,.23,.88,.75,1.03,1.35,.07,.27,.12,.55,.22,.81,.2,.49,.53,.55,.94,.23,.25-.19,.51-.36,.76-.53,.63-.43,.6-1.45-.03-1.86-.16-.1-.27-.31-.36-.49-.16-.31-.23-.67-.43-.94-.18-.24-.48-.38-.73-.57-.27-.21-.53-.43-.8-.64-.04,.02-.08,.05-.12,.07,.03,.26,.06,.53,.09,.79,0,0,0,0,0,.01,0,0,0,0,0,0-.15-.07-.3-.15-.45-.21-.51-.22-.88-1.05-.66-1.56,.2-.46,.1-.82-.21-1.2-.23-.28-.39-.62-.56-.95-.14-.27-.19-.6-.39-.82-.44-.5-.85-.97-.79-1.69,.01-.13-.02-.28-.07-.41-.19-.52-.39-1.04-.59-1.57-.2-.53-.47-.98-1.14-.99-.09,0-.25-.24-.24-.35,.06-.34-.09-.48-.37-.6-.12-.05-.18-.23-.27-.35-.35-.42-.31-1.11-.95-1.31-.53-.17-.72-.58-.8-1.09-.08-.52-.18-1.04-.32-1.55-.04-.14-.24-.22-.37-.34-.15-.13-.4-.24-.42-.39-.12-.74-.73-.98-1.26-1.32-.19-.67-.47-1.24-1-1.77-.62-.6-1.46-.93-1.95-1.67-.27-.4-.47-.77-.48-1.27-.02-.69-.13-1.38-.2-2.07,0-.09-.05-.19-.11-.25-.68-.73-.37-1.56-.2-2.34,.11-.49,.47-.54,.88-.24,.25,.18,.49,.41,.77,.51,.25,.09,.55,.08,.83,.06,.15-.01,.31-.22,.43-.19,.18,.04,.44,.18,.48,.32,.18,.68,.72,.73,1.28,.88,.68,.18,.71,.33,.52,.89-.23,.68,.01,1.23,.42,1.77,.26,.35,.55,.79,.55,1.19,0,.85,.58,1.37,.91,2.03,.1,.2,.12,.43,.21,.63,.06,.13,.16,.26,.27,.35,.08,.07,.2,.08,.3,.12,.03,.04,.05,.09,.08,.13-1.18-.13-.84,.8-1.13,1.38,.29,.11,.57,.33,.79,.28,.22-.06,.37-.38,.6-.65,.18,.24,.36,.49,.56,.74,.29,.38,.52,.87,.91,1.08,.48,.26,.72,.64,1.01,1.04,.2,.28,.48,.51,.77,.72,.19,.14,.43,.19,.65,.28,.18-.07,.42-.14,.55-.05,.13,.08,.18,.33,.21,.51,.03,.21-.06,.46,.02,.64,.13,.32,.39,.58,.54,.89,.18,.37,.47,.63,.86,.63,.63-.01,.75,.35,.84,.85,.09,.51,.39,.74,.91,.65,.51-.1,.76,.23,.9,.55,.12,.26,.03,.64-.03,.95-.04,.2-.21,.38-.32,.57-.2,.35-.09,.98,.21,1.21,.2,.16,.43,.28,.6,.47,.35,.4,.72,.74,1.31,.67,.07,0,.14,.05,.21,.09,.25,.15,.5,.32,.75,.47,.33,.19,.66,.37,.99,.56-.02,.04-.05,.08-.07,.12-.16-.1-.31-.19-.51-.31,.35,1.03,1.37,2.23,2.46,2.29-.36,.38-.03,.53,.2,.71,.21,.17,.42,.32,.62,.49,.33,.3,.68,.59,.97,.93,.34,.39,.64,.83,.96,1.25,.09,.12,.2,.24,.3,.35,.5,.59,.94,1.24,1.51,1.75,.69,.61,.99,1.32,1.06,2.2,.03,.33,.12,.67,.25,.97,.25,.55,.49,1.13,1.1,1.28-.02,.28-.07,.48-.04,.68,.05,.39-.05,.68-.34,.96-.21,.2-.35,.47-.57,.77,.24,.06,.37,.07,.47,.13,.13,.07,.24,.18,.36,.28-.1,.1-.18,.24-.3,.3-.17,.07-.36,.07-.55,.12-.48,.12-.56,.37-.27,.77,.09,.12,.15,.27,.22,.4,.15,.32,.25,.67,.45,.95,.31,.46,.68,.88,1.04,1.3,.21,.24,.41,.53,.67,.67,.95,.49,2,.8,2.86,1.47,.46,.36,.8,.88,1.21,1.31,.18,.19,.38,.41,.62,.51,.56,.23,1.14,.41,1.72,.59,.58,.18,1.17,.34,1.75,.5,.08,.02,.2,.03,.27,0,.48-.28,.78,.02,1.09,.32,.25,.24,.5,.5,.78,.71,.48,.36,.97,.7,1.46,1.04,.14,.1,.29,.18,.45,.24,.57,.21,1.15,.39,1.72,.62,.56,.23,1.09,.52,1.64,.76,.33,.15,.67,.28,1.02,.38,.98,.28,2.08,.21,2.84,1.08,.1,.12,.3,.15,.46,.22,.56,.25,1.12,.51,1.69,.75,.25,.1,.52,.16,.78,.23,.6,.16,1.25,.1,1.83,.47,.77,.49,1.66,.65,2.55,.41,.62-.17,1.22-.46,1.82-.72,.37-.17,.72-.4,1.08-.58,.23-.11,.49-.18,.74-.26,.16-.05,.32-.1,.57-.18-.19-.13-.28-.2-.4-.28,.13-.1,.24-.18,.27-.2,.32,.1,.56,.18,.78,.25-.05,.05-.14,.15-.22,.24,.65,.21,1.27,.42,1.9,.62,1.64,.53,2.69,1.86,3.91,2.94,.65,.57,1.24,1.2,1.86,1.8,.03-.02,.08-.03,.08-.05,.08-.69,.57-1.32,.2-2.07-.07-.14-.03-.4,.06-.56,.3-.57,.65-1.1,.94-1.67,.18-.35,.41-.49,.81-.48,1,.02,2,.02,2.99,0,.16,0,.41-.11,.44-.23,.09-.31,.09-.65,.13-.97,0-.01-.05-.04-.07-.05-.42-.14-.6-.48-.8-.84-.08-.15-.25-.3-.41-.36-.66-.28-1.07-.81-1.53-1.34q1.06-.08,1.07-1.14s0-.06,0-.09c-.07-.48,.15-.61,.61-.61,1.5,.02,2.99,.01,4.49,0,.22,0,.47,.06,.54-.29,.06-.31,.29-.31,.49-.15,.25,.19,.44,.12,.57-.12,.23-.39,.45-.79,.67-1.19-.12,.15-.25,.29-.36,.44,.11-.15,.24-.29,.36-.44,0,0,0,0,0,0,0,0,.01-.01,.01-.02h0s0,0,0,0c.14-.14,.3-.41,.43-.4,.47,.02,.66-.25,.83-.6,.08-.17,.2-.32,.31-.48,.04,.02,.08,.03,.12,.05-.03,.17-.04,.35-.1,.51-.11,.27-.1,.47,.18,.62,.12,.07,.23,.17,.33,.26,.02,.02,.04,.04,.06,.06h0c.13,.4,.24,.1,.28-.03,.16-.43,.29-.88,.42-1.32,.19-.62,.36-1.24,.56-1.91h-.59c.35-.24,.82-.23,.74-.74-.28-.05-.57-.1-.78-.14,.25-.43,.61-.78,.66-1.17,.1-.83,.51-1.45,1.08-2,.2-.2,.45-.37,.58-.61Z"/><path class="cls-3" d="M93.71,43.65c0,.08,.05,.2,.12,.23,.06,.03,.2,0,.24-.06,.21-.27,.4-.56,.64-.91-.7-.1-1.06,.21-1,.74Z"/></g><path id="MEX2737" class="cls-1" d="M92.12,39.7v.05l.04,.62v.12s-.14,.18-.14,.18l-.04,.21v.13s.14,.3,.14,.3v.21s-.18,.38-.18,.38v.11s-.04,.11-.04,.11l-.07,.11-.04,.12-.1,.2-.19,.12-.17,.14-.1,.06-.25,.23-.26,.14-.08,.03h-.19s-.1,.02-.1,.02l-.09-.04-.08-.06-.11,.02-.07,.07-.06,.09-.07,.1-.04,.11,.04,.14v.13s-.08,0-.08,0l-.03-.09-.06-.08h-.11s-.08,.05-.08,.05l-.09,.22-.14,.17-.18,.05-.17,.11-.18,.04-.1,.04-.1,.06-.09,.05-.19,.12-.07,.09,.02,.07-.03,.05-.07-.06-.08-.05-.2,.19-.03,.03-.05,.03-.05,.02h-.34s-.1,.07-.1,.07l-.2,.07-.08,.09-.08,.08-.33,.05h-.11s-.08,.02-.08,.02v.12s0,.1,0,.1l-.03,.11-.05,.12-.07,.12-.08-.18-.04-.24-.15-.2-.17-.18-.23-.42-.19-.15-.22-.08-.16-.17-.08-.24-.11-.2-.18-.13-.05-.06-.06-.13v-.08l-.05-.09-.13-.18-.08,.06-.06,.12-.09,.02-.06-.06-.06-.05-.06,.02-.06,.03-.08-.07-.05-.12-.08-.09-.13-.02h-.3s-.05-.11-.05-.11l.04-.82v-.09s0,0,0,0l.04-.19,.07-.19v-.11s0,0,0,0l-.04,.18-.06,.13v.02s-.02,.08-.02,.08l-.04,.1-.06,.08-.08,.03v-.02l.06-.09,.2-.6,.03-.05,.05-.06,.35-.22,.06-.05,.21-.08,.11-.09,.07-.03,.03-.02h.1s.17-.07,.17-.07l.19-.14,.05-.02h.06s.31-.13,.31-.13l.33-.06h.24l.43-.08,.59-.06,.24-.07,.13-.02,.08,.02h.03s.03,0,.03,0l.07-.03h.02s.26-.06,.26-.06l.21-.06h.14s.06-.03,.06-.03l.11-.05,.37-.09,.11-.07,.2-.18,.06-.03,.2-.02,.06-.02,.11-.06h.06s.24,0,.24,0h.05s.11,.06,.11,.06h.06s.05,0,.05,0l.11-.03,.17-.02,.06-.02,.04-.03,.04-.02h.21s-.06-.02-.06-.02h-.08s-.07,0-.07,0l-.11,.06-.13,.03h-.03l.02-.03,.06-.03,.07-.03h.09s.07-.04,.07-.04h.03s.04,0,.04,0l.14,.04h.33s.2,.1,.2,.1l.13,.03,.27,.04,.19,.06h0s-.03,.03-.03,.03h-.03s-.04,.02-.04,.02h-.04s-.03-.03-.03-.03l-.04-.02-.23-.04-.06-.02,.07,.06,.1,.05,.1,.04h.11s.21,0,.21,0l.1,.02h.06l.05-.02h-.14s-.06-.02-.06-.02l-.05-.04,.02-.02,.21,.03,.17,.07h.08Z"/></g></g></svg>