<?xml version="1.0" encoding="UTF-8"?><svg id="estados" xmlns="http://www.w3.org/2000/svg" viewBox="0 0 306.04 276.52"><defs><style>.cls-1,.cls-2{fill:#3bb1e6;}.cls-3{fill:#fff;}.cls-4{stroke-width:1.53px;}.cls-4,.cls-2,.cls-5{stroke:#fff;}.cls-4,.cls-5{fill:none;opacity:.67;stroke-miterlimit:10;}.cls-6{fill:#0a2f3a;opacity:.5;}.cls-2{stroke-linecap:round;stroke-linejoin:round;stroke-width:1.37px;}.cls-5{stroke-width:1.67px;}</style></defs><g id="zac-icono"><circle class="cls-6" cx="136.96" cy="151.48" r="97.03"/><circle class="cls-5" cx="136.96" cy="151.48" r="104.09"/><polyline class="cls-4" points="229.53 104.17 271.63 73.79 306.09 73.79"/><polyline class="cls-4" points="229.02 199.66 271.63 220.23 306.09 220.23"/><polyline class="cls-4" points="240.77 150.49 271.63 150.49 306.09 150.49"/><g><path class="cls-1" d="M85.84,217.37h9.51v1.79h-12.1v-1.64l9.11-13.18h-8.96v-1.79h11.58v1.6l-9.14,13.23Z"/><path class="cls-1" d="M105.48,219.16c-.12-.24-.22-.68-.3-1.3-.98,1.02-2.15,1.53-3.51,1.53-1.22,0-2.22-.34-3-1.03-.78-.69-1.17-1.56-1.17-2.62,0-1.29,.49-2.28,1.47-3,.98-.71,2.35-1.07,4.13-1.07h2.05v-.97c0-.74-.22-1.33-.66-1.76-.44-.44-1.09-.66-1.95-.66-.75,0-1.38,.19-1.89,.57-.51,.38-.76,.84-.76,1.38h-2.12c0-.62,.22-1.21,.66-1.79,.44-.57,1.03-1.03,1.78-1.36s1.57-.5,2.47-.5c1.42,0,2.54,.36,3.34,1.07,.81,.71,1.22,1.69,1.26,2.94v5.68c0,1.13,.14,2.04,.43,2.7v.18h-2.21Zm-3.5-1.61c.66,0,1.29-.17,1.88-.51,.59-.34,1.02-.79,1.29-1.34v-2.53h-1.65c-2.59,0-3.88,.76-3.88,2.27,0,.66,.22,1.18,.66,1.55,.44,.37,1.01,.56,1.7,.56Z"/><path class="cls-1" d="M115.52,217.66c.75,0,1.41-.23,1.97-.68,.56-.46,.87-1.03,.94-1.71h2c-.04,.71-.28,1.38-.73,2.02-.45,.64-1.05,1.15-1.8,1.53s-1.54,.57-2.38,.57c-1.68,0-3.02-.56-4.01-1.68-.99-1.12-1.49-2.66-1.49-4.6v-.35c0-1.2,.22-2.27,.66-3.21,.44-.94,1.07-1.66,1.9-2.18,.83-.52,1.8-.78,2.93-.78,1.38,0,2.54,.41,3.45,1.24,.92,.83,1.41,1.91,1.47,3.23h-2c-.06-.8-.36-1.46-.91-1.97-.54-.51-1.22-.77-2.01-.77-1.07,0-1.9,.39-2.49,1.16-.59,.77-.88,1.89-.88,3.35v.4c0,1.42,.29,2.52,.88,3.29,.59,.77,1.42,1.15,2.51,1.15Z"/><path class="cls-1" d="M130.43,219.16c-.12-.24-.22-.68-.3-1.3-.98,1.02-2.15,1.53-3.51,1.53-1.22,0-2.22-.34-3-1.03-.78-.69-1.17-1.56-1.17-2.62,0-1.29,.49-2.28,1.47-3,.98-.71,2.35-1.07,4.13-1.07h2.05v-.97c0-.74-.22-1.33-.66-1.76-.44-.44-1.09-.66-1.95-.66-.75,0-1.38,.19-1.89,.57-.51,.38-.76,.84-.76,1.38h-2.12c0-.62,.22-1.21,.66-1.79,.44-.57,1.03-1.03,1.78-1.36s1.57-.5,2.47-.5c1.42,0,2.54,.36,3.34,1.07,.81,.71,1.22,1.69,1.26,2.94v5.68c0,1.13,.14,2.04,.43,2.7v.18h-2.21Zm-3.5-1.61c.66,0,1.29-.17,1.88-.51,.59-.34,1.02-.79,1.29-1.34v-2.53h-1.65c-2.59,0-3.88,.76-3.88,2.27,0,.66,.22,1.18,.66,1.55,.44,.37,1.01,.56,1.7,.56Z"/><path class="cls-1" d="M138.38,203.82v2.99h2.31v1.63h-2.31v7.67c0,.5,.1,.87,.31,1.11s.56,.37,1.05,.37c.24,0,.58-.05,1-.14v1.7c-.56,.15-1.1,.23-1.62,.23-.94,0-1.65-.29-2.13-.86-.48-.57-.72-1.38-.72-2.43v-7.66h-2.25v-1.63h2.25v-2.99h2.11Z"/><path class="cls-1" d="M148.27,219.39c-1.67,0-3.04-.55-4.09-1.65-1.05-1.1-1.57-2.57-1.57-4.41v-.39c0-1.23,.23-2.32,.7-3.28,.47-.96,1.12-1.72,1.96-2.26s1.75-.82,2.73-.82c1.6,0,2.85,.53,3.74,1.59s1.34,2.57,1.34,4.54v.88h-8.36c.03,1.22,.39,2.2,1.07,2.95,.68,.75,1.55,1.12,2.6,1.12,.75,0,1.38-.15,1.89-.46,.52-.3,.97-.71,1.36-1.21l1.29,1c-1.03,1.59-2.59,2.39-4.66,2.39Zm-.26-11.07c-.85,0-1.57,.31-2.15,.93-.58,.62-.94,1.49-1.07,2.61h6.18v-.16c-.06-1.07-.35-1.9-.87-2.49s-1.22-.88-2.1-.88Z"/><path class="cls-1" d="M160.48,217.66c.75,0,1.41-.23,1.97-.68,.56-.46,.87-1.03,.94-1.71h2c-.04,.71-.28,1.38-.73,2.02-.45,.64-1.05,1.15-1.8,1.53s-1.54,.57-2.38,.57c-1.68,0-3.02-.56-4.01-1.68-.99-1.12-1.49-2.66-1.49-4.6v-.35c0-1.2,.22-2.27,.66-3.21,.44-.94,1.07-1.66,1.9-2.18,.83-.52,1.8-.78,2.93-.78,1.38,0,2.54,.41,3.45,1.24,.92,.83,1.41,1.91,1.47,3.23h-2c-.06-.8-.36-1.46-.91-1.97-.54-.51-1.22-.77-2.01-.77-1.07,0-1.9,.39-2.49,1.16-.59,.77-.88,1.89-.88,3.35v.4c0,1.42,.29,2.52,.88,3.29,.59,.77,1.42,1.15,2.51,1.15Z"/><path class="cls-1" d="M175.39,219.16c-.12-.24-.22-.68-.3-1.3-.98,1.02-2.15,1.53-3.51,1.53-1.22,0-2.22-.34-3-1.03-.78-.69-1.17-1.56-1.17-2.62,0-1.29,.49-2.28,1.47-3,.98-.71,2.35-1.07,4.13-1.07h2.05v-.97c0-.74-.22-1.33-.66-1.76-.44-.44-1.09-.66-1.95-.66-.75,0-1.38,.19-1.89,.57-.51,.38-.76,.84-.76,1.38h-2.12c0-.62,.22-1.21,.66-1.79,.44-.57,1.03-1.03,1.78-1.36s1.57-.5,2.47-.5c1.42,0,2.54,.36,3.34,1.07,.81,.71,1.22,1.69,1.26,2.94v5.68c0,1.13,.14,2.04,.43,2.7v.18h-2.21Zm-3.5-1.61c.66,0,1.29-.17,1.88-.51,.59-.34,1.02-.79,1.29-1.34v-2.53h-1.65c-2.59,0-3.88,.76-3.88,2.27,0,.66,.22,1.18,.66,1.55,.44,.37,1.01,.56,1.7,.56Z"/><path class="cls-1" d="M187.67,215.88c0-.57-.22-1.01-.64-1.33-.43-.32-1.18-.59-2.25-.82s-1.92-.5-2.54-.82c-.63-.32-1.09-.7-1.39-1.14-.3-.44-.45-.97-.45-1.57,0-1.01,.43-1.87,1.28-2.57,.86-.7,1.95-1.05,3.28-1.05,1.4,0,2.54,.36,3.41,1.08,.87,.72,1.31,1.65,1.31,2.77h-2.12c0-.58-.25-1.08-.74-1.5s-1.11-.63-1.85-.63-1.37,.17-1.8,.5-.65,.77-.65,1.31c0,.51,.2,.89,.6,1.15s1.13,.51,2.19,.74c1.05,.24,1.91,.52,2.56,.84,.65,.33,1.14,.72,1.45,1.18,.32,.46,.47,1.02,.47,1.68,0,1.1-.44,1.99-1.32,2.65-.88,.67-2.03,1-3.43,1-.99,0-1.86-.18-2.62-.53-.76-.35-1.36-.84-1.79-1.47-.43-.63-.64-1.31-.64-2.04h2.11c.04,.71,.32,1.27,.85,1.68,.53,.42,1.23,.62,2.09,.62,.8,0,1.44-.16,1.92-.48,.48-.32,.72-.75,.72-1.3Z"/></g><path id="ZAC" class="cls-2" d="M188.61,88.75c-.24,.92-.61,2.18-1.14,2.98-5.14,2.62-6.74,9.51-9.9,14.02-2.84,.58-4.12,3.29-6.13,5.17-1.95,1.87-4.93,2.65-6.75,4.64-.78,2.67-1.87,1.58-3.68,2.89-2.56,2.37-4.07,6.46-7.89,7.19l-.53-.26c-.04-.4,.1-.93,.18-1.31-.49-.53-1.14-.23-1.75-.26-1.11,.97-.19,4.91-2.37,4.03l-.44,.09c-.21,.3-.31,.78-.26,1.14,1.62,.93,1.75,2.89,2.1,4.56-.14,.98-1.14,1.83-.79,2.89,1.44,3.54,3.31,6.8,6.31,9.2,.24,.21,.65,.29,.96,.26,2.91,1.12,3.64,8.55,7.54,5.78,.6-.66,1.59-.48,2.37-.7,1.34-3.96,3.64-3.51,7.27-3.24,.95,1.07,1.58,3.01,1.93,4.38-.94,.84-2.58,1.39-2.28,2.98,.81,2.46,1.76,5.53,1.49,8.15-1.54,2.24-3.72,5.1-5.35,7.27-.02-.27-.13-.81-.26-1.05-2.24,.33-2.86-3.26-5.35-2.45-3.06,0-4.2-4.05-7.1-4.82-.93-1.57,1.04-5.4-2.19-4.82-.64-.18-.98-.88-1.49-1.23l-.53,.09-.35-.35c-.08-.34-.28-1.04-.61-1.23-.23,.12-.54,.22-.7,.44,0,0-.53,.18-.53,.18-1.2-.7-1.01-2.68-2.19-3.33-.67,.48-.86,1.5-1.49,2.02-.79-.17-1.2,.57-1.67,1.05-.57,.05-1.29-.2-1.67,.35-.35,2.99-4.87-.36-5.87,2.72l.09,.44c3.32,3.06-10.85,10.56-2.37,14.81-.15,.82-.43,2-.61,2.8-.1,.39-.07,1.06,.18,1.4,1.14,.2,2.04,1.38,3.33,.88l.44,.26c.36,1.57-.79,5.56-2.63,5.7-.35,.38-.49,.75-.96,1.14,.03,.46,0,1.05-.44,1.31h-.61l-.09-.26c.08-.19,.23-.59,.26-.79l-.35-.35c-.83,0-1.39,.96-2.02,1.4-1.37,1-2.94,.03-4.38,.18-.89,2.19,.58,4.97-.35,7.19l-.7,.09c-.9-.68-1.92-1.25-3.07-.79-2.04-.43-3.69-2.22-5.7-2.8-1.42,.44-1.99-.09-2.98-.96-1.06-.21-2.31,.48-3.24-.35-.11-.42-.06-1-.26-1.4-.96-.73-1.94,.51-2.8,.88l-.26-.09c-.19-4.09,2.46-2.26,.35-8.76,4.14,2.85,2.41-1.02,5.96-2.28,.13-1.84,.09-3.91-.7-5.61,1-1.66,2.75-3.16,4.29-4.29,1.19-.15,2.22-.31,2.72-1.58,5.61,.87,2.31-1.09,5.52-2.63,.27-.41,.21-1.03,.09-1.49-.29-.25-.79-.33-1.14-.44-.04-.24-.12-.82,0-1.05,1.44,.17,3.26-3.01,2.02-3.94-.31,.08-.74,.18-1.05,.26-.04-.29-.16-.69-.26-.96l-.35-.26c-.65-.03-1.41,.31-2.02,.53,.09-.53,.3-1.23,.09-1.75-1.85-1.09-3.57-2.69-5.17-4.12-.1,.12-.23,.37-.26,.53-.57,.68-1.06,1.87-1.23,2.72,.23,.12,.58,.28,.79,.44l.18,.53,.26,.18c.16-.02,.47,.01,.61,.09l.09,.26-.09,.35c-.27,.1-.58,.49-.88,.53-.35,.59-.18,1.49-.44,2.1-.27,.15-.85,.41-1.14,.53-.58,1.06-.71,2.52-1.4,3.51-.03-.15-.17-.41-.26-.53-2.56-.87-2.08,1.13-4.12,.79l-.53-.61c0-1.72,.77-3.53-.18-5.17,.5-1.71,.52-4.39,2.02-5.52,.2-.68,.11-1.46-.79-1.31l-.18-.18c-.04-.32,.1-.74,.18-1.05l-.18-.26c-.55-.17-1.27-.06-1.84-.09-.09-.07-.23-.24-.26-.35l-.18-.09c-2.08,3.03-2.29,9.13-3.42,12.71-1.06-1.38-1.41-3.7-.88-5.35,.97-1.05,0-2.15-.09-3.24,1.27-.61,1.08-1.78,.96-2.98,1.74-1.11,1.91-3.06,2.02-4.99-1.57-.27-4.04-.87-5.61-1.14-1.19,10.33,1.81,5.02,1.4,9.29,0,3.97-2.5,3.22-5.52,3.51-1.84,.56-3.77,1.57-5.52,2.37,3.25-8.12,3.93-16.82,3.94-25.5-.06-.81,.42-1.49,1.23-1.66,.8-2.17,.57-5.56,.96-7.89,.72-1.66,3.08-2.19,4.29-3.51,.7-.84,.36-2.17,.96-3.07l.61-.35,.61,.18c.27,.33,.67,.83,1.14,.88,1.16-1.32,.61-2.96-.96-3.59l-.35-.79c1.81-2,.12-2.76-.7-4.56,.46-.12,1.39-.44,1.84-.61-.16-1.22,.05-2.59-.18-3.77,2.06-2.01,5.69-2.23,6.66-5.52,.2-1.22,1.2-1.13,2.1-1.4,.09-2.21,1.71-1.24,3.15-1.84,1.53-7.66,11.85-1.48,16.91-1.58,2.73,.13,5.83-1.23,8.5-1.49,.33-10.26,1.18-10.52-4.82-18.84,2.27-2.87,8.86-1.29,12.09-2.54,.97-.57,9.09,2.43,10.17,2.63,1.71,2.39,2.38,5.78,6.22,5.08,1.42,.5,1.74,1.79,1.75,3.15-.75-.05-1.56-.44-2.28-.61,.28,.66,.41,1.71,1.05,2.1,3.23,.36,5.56,.53,7.54-2.45-.02,.21,.11,.58,.09,.79,6.22-2.54,4.72,7.69,10.52,6.31,1.3-.71,2.62,.6,3.68,1.23h0Z"/><g><g><path class="cls-3" d="M94.07,42.29c.23-.43,.53-.9,.53-1.36,0-.45-.13-.96-.61-1.31-.43-.31-.75-.37-1.12,.1,.1,.03,.19,.06,.29,.09,0,.04-.02,.08-.02,.11-.55-.11-1.12-.15-1.65-.33-.89-.32-1.78-.27-2.58,.07-.81,.34-1.62,.54-2.47,.61-.95,.09-1.84,.3-2.64,.83-.21,.14-.4,.39-.5,.63-.4,.91-.32,1.89-.33,2.86,0,.2-.06,.48-.2,.57-.39,.26-.52,.65-.49,1.05,.04,.7-.43,1.02-.89,1.36-.32,.24-.7,.41-1.03,.64-.18,.13-.31,.32-.46,.48h0s0,0,0,0c-.34,.16-.68,.31-1.01,.47,0,0,0,0-.01,0,0,0,0,0,0,0-.73-.39-2.31-.19-2.94,.35-.13,.11-.32,.16-.5,.21-.88,.25-1.86-.18-2.72,.52-.42,.34-1.14,.33-1.73,.43-.16,.03-.43-.04-.52-.16-.38-.47-.67-.95-1.32-1.22-.49-.2-.93-.43-1.48-.42-.38,0-.76-.07-1.03-.1-.28-.42-.52-.79-.76-1.15-.35-.52-.85-.94-.93-1.61-.1-.86-.61-1.52-1.19-2.07-.91-.88-1.49-1.93-1.91-3.09-.07-.18-.04-.44,.03-.63,.17-.4,.19-.71-.2-1.02-.6-.48-.98-1.11-1.07-1.9-.04-.32-.17-.63-.21-.96-.03-.23,.02-.47,.05-.7,.07-.45,.16-.9,.22-1.35,.03-.23-.04-.47-.02-.7,.08-1.06,.14-2.12,.28-3.16,.18-1.28,.42-2.54,1.07-3.7,.27-.47,.36-1.05,.51-1.59,.04-.13-.02-.29-.03-.43-.17,.03-.38,.02-.51,.11-.26,.19-.49,.14-.67-.05-.34-.38-.78-.38-1.24-.42-.38-.03-.77-.1-1.12-.25-.65-.26-1.25-.62-1.9-.86-.29-.11-.51-.22-.64-.51-.28-.59-.6-1.15-.88-1.73-.05-.1-.03-.24-.05-.36-.05-.42-.08-.85-.18-1.27-.04-.17-.21-.33-.34-.47-.3-.32-.61-.62-.9-.94-.31-.34-.6-.7-.89-1.05-.1-.12-.22-.23-.28-.36-.25-.53-.46-1.09-.72-1.61-.39-.78-.62-1.66-1.45-2.16-.31-.19-.5-.6-.81-.79-.34-.21-.45-.69-.98-.69-.73-.01-1.46-.16-2.2-.25-.1-.01-.21,0-.3,.04-.22,.09-.44,.18-.64,.3-.21,.13-.46,.27-.57,.48-.21,.38-.35,.8-.47,1.21-.28,.99-1.01,1.24-1.83,.66-.4-.28-.87-.45-1.3-.69-.27-.15-.52-.32-.78-.49-.15-.1-.28-.25-.44-.33-.75-.36-1.03-1.07-1.1-1.78-.08-.84-.48-1.5-.93-2.12-.27-.38-.82-.54-1.19-.86-.49-.42-.93-.91-1.41-1.35-.25-.23-.53-.43-.78-.65-.23-.21-.53-.4-.66-.67-.22-.47-.54-.64-1.03-.63-1.34,0-2.68,0-4.02,0-1.15,0-1-.11-.99,1,0,.47-.14,.62-.61,.62-2.54-.02-5.08,0-7.63-.01-.28,0-.57-.03-.83-.12-3.48-1.25-6.95-2.52-10.42-3.79-.74-.27-.74-.28-.59-1.06-.18,0-.34-.01-.5,0-2.16,.19-4.31,.38-6.47,.58-.52,.05-.59,.19-.36,.68,.08,.17,.21,.31,.3,.46,.1,.17,.2,.34,.3,.51,.11,.19,.19,.42,.34,.58,.28,.31,.51,.6,.35,1.06-.1,.31,.06,.54,.29,.77,.4,.42,.87,.82,.75,1.52-.02,.09,.1,.24,.19,.32,.45,.4,.89,.78,.68,1.5-.04,.15,.13,.53,.22,.53,.46,.03,.51,.33,.49,.65-.04,.63,.18,1.23,.52,1.65,.42,.5,1.09,.79,1.65,1.16,.24,.16,.54,.26,.73,.46,.82,.86,1.61,1.74,2.39,2.63,.08,.09,.11,.27,.08,.39-.14,.53-.03,1.15-.53,1.56-.07,.05-.06,.2-.08,.3-.1,.02-.22,.02-.3,.07-.35,.26-.72,.24-1.11,.12-.16-.05-.33-.1-.5-.09-.16,0-.31,.09-.47,.13,.1,.16,.18,.35,.31,.47,.51,.5,1.33,.7,1.46,1.56,0,.06,.1,.12,.16,.16,.45,.25,.88,.58,1.36,.72,.37,.11,.57,.3,.78,.59,.19,.27,.41,.55,.82,.19,.28-.25,1,.05,1.2,.38,.11,.19,.28,.35,.43,.52,.59,.7,1.61,.82,2.16,1.64,.41,.62,.65,1.97,.33,2.66-.23,.49-.36,1.02-.56,1.61,.27,.04,.49,.1,.71,.1,.4,.01,.7,.12,.75,.57-.12,.07-.23,.14-.39,.23,.3,.24,.56,.44,.81,.64,.04-.03,.08-.06,.12-.09-.05-.17-.11-.35-.18-.58,.12,.06,.21,.08,.27,.13,1.03,.91,2.32,1.51,3.18,2.64,.08,.1,.23,.17,.36,.22,.63,.23,.88,.75,1.03,1.35,.07,.27,.12,.55,.22,.81,.2,.49,.53,.55,.94,.23,.25-.19,.51-.36,.76-.53,.63-.43,.6-1.45-.03-1.86-.16-.1-.27-.31-.36-.49-.16-.31-.23-.67-.43-.94-.18-.24-.48-.38-.73-.57-.27-.21-.53-.43-.8-.64-.04,.02-.08,.05-.12,.07,.03,.26,.06,.53,.09,.79,0,0,0,0,0,.01,0,0,0,0,0,0-.15-.07-.3-.15-.45-.21-.51-.22-.88-1.05-.66-1.56,.2-.46,.1-.82-.21-1.2-.23-.28-.39-.62-.56-.95-.14-.27-.19-.6-.39-.82-.44-.5-.85-.97-.79-1.69,.01-.13-.02-.28-.07-.41-.19-.52-.39-1.04-.59-1.57-.2-.53-.47-.98-1.14-.99-.09,0-.25-.24-.24-.35,.06-.34-.09-.48-.37-.6-.12-.05-.18-.23-.27-.35-.35-.42-.31-1.11-.95-1.31-.53-.17-.72-.58-.8-1.09-.08-.52-.18-1.04-.32-1.55-.04-.14-.24-.22-.37-.34-.15-.13-.4-.24-.42-.39-.12-.74-.73-.98-1.26-1.32-.19-.67-.47-1.24-1-1.77-.62-.6-1.46-.93-1.95-1.67-.27-.4-.47-.77-.48-1.27-.02-.69-.13-1.38-.2-2.07,0-.09-.05-.19-.11-.25-.68-.73-.37-1.56-.2-2.34,.11-.49,.47-.54,.88-.24,.25,.18,.49,.41,.77,.51,.25,.09,.55,.08,.83,.06,.15-.01,.31-.22,.43-.19,.18,.04,.44,.18,.48,.32,.18,.68,.72,.73,1.28,.88,.68,.18,.71,.33,.52,.89-.23,.68,.01,1.23,.42,1.77,.26,.35,.55,.79,.55,1.19,0,.85,.58,1.37,.91,2.03,.1,.2,.12,.43,.21,.63,.06,.13,.16,.26,.27,.35,.08,.07,.2,.08,.3,.12,.03,.04,.05,.09,.08,.13-1.18-.13-.84,.8-1.13,1.38,.29,.11,.57,.33,.79,.28,.22-.06,.37-.38,.6-.65,.18,.24,.36,.49,.56,.74,.29,.38,.52,.87,.91,1.08,.48,.26,.72,.64,1.01,1.04,.2,.28,.48,.51,.77,.72,.19,.14,.43,.19,.65,.28,.18-.07,.42-.14,.55-.05,.13,.08,.18,.33,.21,.51,.03,.21-.06,.46,.02,.64,.13,.32,.39,.58,.54,.89,.18,.37,.47,.63,.86,.63,.63-.01,.75,.35,.84,.85,.09,.51,.39,.74,.91,.65,.51-.1,.76,.23,.9,.55,.12,.26,.03,.64-.03,.95-.04,.2-.21,.38-.32,.57-.2,.35-.09,.98,.21,1.21,.2,.16,.43,.28,.6,.47,.35,.4,.72,.74,1.31,.67,.07,0,.14,.05,.21,.09,.25,.15,.5,.32,.75,.47,.33,.19,.66,.37,.99,.56-.02,.04-.05,.08-.07,.12-.16-.1-.31-.19-.51-.31,.35,1.03,1.37,2.23,2.46,2.29-.36,.38-.03,.53,.2,.71,.21,.17,.42,.32,.62,.49,.33,.3,.68,.59,.97,.93,.34,.39,.64,.83,.96,1.25,.09,.12,.2,.24,.3,.35,.5,.59,.94,1.24,1.51,1.75,.69,.61,.99,1.32,1.06,2.2,.03,.33,.12,.67,.25,.97,.25,.55,.49,1.13,1.1,1.28-.02,.28-.07,.48-.04,.68,.05,.39-.05,.68-.34,.96-.21,.2-.35,.47-.57,.77,.24,.06,.37,.07,.47,.13,.13,.07,.24,.18,.36,.28-.1,.1-.18,.24-.3,.3-.17,.07-.36,.07-.55,.12-.48,.12-.56,.37-.27,.77,.09,.12,.15,.27,.22,.4,.15,.32,.25,.67,.45,.95,.31,.46,.68,.88,1.04,1.3,.21,.24,.41,.53,.67,.67,.95,.49,2,.8,2.86,1.47,.46,.36,.8,.88,1.21,1.31,.18,.19,.38,.41,.62,.51,.56,.23,1.14,.41,1.72,.59,.58,.18,1.17,.34,1.75,.5,.08,.02,.2,.03,.27,0,.48-.28,.78,.02,1.09,.32,.25,.24,.5,.5,.78,.71,.48,.36,.97,.7,1.46,1.04,.14,.1,.29,.18,.45,.24,.57,.21,1.15,.39,1.72,.62,.56,.23,1.09,.52,1.64,.76,.33,.15,.67,.28,1.02,.38,.98,.28,2.08,.21,2.84,1.08,.1,.12,.3,.15,.46,.22,.56,.25,1.12,.51,1.69,.75,.25,.1,.52,.16,.78,.23,.6,.16,1.25,.1,1.83,.47,.77,.49,1.66,.65,2.55,.41,.62-.17,1.22-.46,1.82-.72,.37-.17,.72-.4,1.08-.58,.23-.11,.49-.18,.74-.26,.16-.05,.32-.1,.57-.18-.19-.13-.28-.2-.4-.28,.13-.1,.24-.18,.27-.2,.32,.1,.56,.18,.78,.25-.05,.05-.14,.15-.22,.24,.65,.21,1.27,.42,1.9,.62,1.64,.53,2.69,1.86,3.91,2.94,.65,.57,1.24,1.2,1.86,1.8,.03-.02,.08-.03,.08-.05,.08-.69,.57-1.32,.2-2.07-.07-.14-.03-.4,.06-.56,.3-.57,.65-1.1,.94-1.67,.18-.35,.41-.49,.81-.48,1,.02,2,.02,2.99,0,.16,0,.41-.11,.44-.23,.09-.31,.09-.65,.13-.97,0-.01-.05-.04-.07-.05-.42-.14-.6-.48-.8-.84-.08-.15-.25-.3-.41-.36-.66-.28-1.07-.81-1.53-1.34q1.06-.08,1.07-1.14s0-.06,0-.09c-.07-.48,.15-.61,.61-.61,1.5,.02,2.99,.01,4.49,0,.22,0,.47,.06,.54-.29,.06-.31,.29-.31,.49-.15,.25,.19,.44,.12,.57-.12,.23-.39,.45-.79,.67-1.19-.12,.15-.25,.29-.36,.44,.11-.15,.24-.29,.36-.44,0,0,0,0,0,0,0,0,.01-.01,.01-.02h0s0,0,0,0c.14-.14,.3-.41,.43-.4,.47,.02,.66-.25,.83-.6,.08-.17,.2-.32,.31-.48,.04,.02,.08,.03,.12,.05-.03,.17-.04,.35-.1,.51-.11,.27-.1,.47,.18,.62,.12,.07,.23,.17,.33,.26,.02,.02,.04,.04,.06,.06h0c.13,.4,.24,.1,.28-.03,.16-.43,.29-.88,.42-1.32,.19-.62,.36-1.24,.56-1.91h-.59c.35-.24,.82-.23,.74-.74-.28-.05-.57-.1-.78-.14,.25-.43,.61-.78,.66-1.17,.1-.83,.51-1.45,1.08-2,.2-.2,.45-.37,.58-.61Z"/><path class="cls-3" d="M93.71,43.65c0,.08,.05,.2,.12,.23,.06,.03,.2,0,.24-.06,.21-.27,.4-.56,.64-.91-.7-.1-1.06,.21-1,.74Z"/></g><path id="MEX2713" class="cls-1" d="M51.18,29.5c-.51,.59-.88,1.58-1.51,2.02-.3,.54-1,.67-1.27,1.19-.55,.03-.67,.97-1.24,.89,0-.04,.01-.1,.02-.15-.32-.19-.23,.3-.36,.44-.2-.07-.24,.13-.07,.21,.23,.26-.02,.56,.08,.82,.17,.44,.44,.87,.88,1.05,.31,.48,.41,.8,1,.5,.11-.4,.45-.41,.81-.36,.25,.33,.23,.47-.04,.74,.3,.71,.1,1.27-.43,1.8,0-.13-.07-.12-.18-.13-.13-.15-.28-.34-.5-.25-.43-.25-.83-.54-.8-1.06-.1-.05-.26,0-.31-.14-.18-.04-.1-.07-.21-.2-.05,.02-.09,.06-.14,.07-.13-.08-.11-.3-.24-.37-.08,.05-.1,.17-.17,.23-.13,.04-.23,.12-.37,.16-.03,.29-.42,.04-.59,.2,.17,.59-1.18,1.32-.32,1.81-.01,.15-.12,.33-.05,.47,.11,0,.19,.13,.31,.11,.34,.06-.07,.65-.24,.73-.1,.05-.02,.24-.18,.21-.02-.03,.02-.08,.02-.12-.11-.13-.23,.15-.35,.16-.13,.06-.27-.05-.4-.02-.1,.24,.07,.56-.04,.8-.45-.05-.86-.34-1.3-.42-.13-.2-.49,.08-.48-.27-.12-.1-.23,.11-.34,.09,.03-.37,.22-.6,.04-.98,.44,.36,.85-.51,.59-.88,.16-.25,.41-.49,.7-.53,.14-.27,.54,.06,.59-.36,.17-.05,.21-.25,0-.27,0-.03-.01-.09,0-.12,.2,.03,.44-.55,.11-.41,0-.19-.18-.13-.29-.08,.09-.32-.41-.42-.57-.66-.06,.11-.15,.24-.17,.36,.08,.02,.09,.09,.14,.13,.14-.01,.05,.12-.03,.14-.05,.12,0,.27-.18,.29-.06,.12-.08,.28-.16,.39-.01-.1-.15-.06-.22-.09-.53,.5-.32-.84-.2-1.1,.08-.03,.13-.19,0-.2-.11,0,0-.13-.05-.17-.09-.03-.2,.02-.25-.06-.23,.34-.26,1.02-.38,1.42-.28-.43,.01-.89,0-1.29,.19-.12,.21-.34,.23-.56-.18-.03-.45-.1-.63-.13-.03,.34-.07,.71,.18,.94,.03,.72-.83,.38-1.25,.75,.51-.93,.22-2.18,.58-3.04,.07-.57,.07-1.03,.63-1.33,.03-.27,.08-.42,.33-.21,.2-.25-.05-.31-.15-.49,.2-.22,.01-.31-.08-.51,.05-.01,.16-.05,.21-.07-.14-.76,.35-.42,.64-.89,.11-.16,.11-.29,.32-.3,0-.28,.28-.09,.38-.25,.43-.94,1.99,.27,2.81-.29,.11-.81,0-1.49-.54-2.11,.65-.39,2.37-.47,2.69,.39,.21,.31,.73,.03,.69,.54-.08,0-.17-.05-.25-.07,.1,.46,.79,.27,.96-.04,0,.02,.01,.06,0,.09,.66-.29,.55,.87,1.18,.71,.14-.08,.29,.07,.41,.14h0Z"/></g></g></svg>