<?xml version="1.0" encoding="UTF-8"?><svg id="logos" xmlns="http://www.w3.org/2000/svg" viewBox="0 0 32 32"><defs><style>.cls-1{fill:#efd643;}</style></defs><path class="cls-1" d="M10.87,18.4c3.8-3.95,7.47-7.87,11.25-11.68,1.42-1.43,3.03-2.69,4.68-3.84,.9-.63,2.05-.97,3.14-1.25,.39-.1,1.07,.23,1.33,.58,.22,.3,.16,.97-.03,1.35-.25,.51-.71,.93-1.14,1.32-7.8,7.11-13.31,15.76-17.24,25.48-.17,.42-.62,1.01-.93,1-.38-.01-.88-.49-1.11-.89-2.6-4.55-5.4-8.94-9.37-12.45-.47-.42-.56-.98-.22-1.42,.35-.45,.86-.92,1.38-1.03,.63-.14,1.4-.05,2.02,.19,1.51,.57,2.98,1.28,4.46,1.92,.63,.27,1.27,.51,1.77,.71Z"/></svg>