<svg xmlns="http://www.w3.org/2000/svg" viewBox="0 0 128 128"><defs><style>.cls-1{fill:#b25fac;stroke:#fff;stroke-linecap:round;stroke-linejoin:round;stroke-width:1.36px;}</style></defs><g id="estados"><path id="MEX2724" class="cls-1" d="M108.71,105.36c-1.39,3.84-2,6-6.23,7-2.1,1.14-2.71,3.85-4.66,5.11-2.74.31-5.42-1.3-7.91-2.17C87.58,115,84.69,116.41,83,118c-1.74,1.42-2,6.73-5.05,5.36a6.4,6.4,0,0,1-2.34-4.6c-1-1.47-3.13-1.81-4.27-3.19-.32-2.71,1.74-5.35,1.42-8-1.23.35-2.5,1.76-3.76,2l-.51-.13A38.16,38.16,0,0,0,64.12,117c.72,2.13,3.95,2.91,3.5,5.61-1.36,1.74-3.33,3.66-5.7,3.71-1.72-1.24-.47-4-2.08-5.11-3.1,1-6.57.32-9.72.51-1.41,1.12-1.56,3.68-3.24,4.72A4.67,4.67,0,0,1,44,126a8.8,8.8,0,0,1-1.56,1.28c-.36-.4-2.36-2.64-2.72-2.94-2.73,0-6,1.21-8.55-.51-3.46-.55-7.88-2-8.3-6a6.38,6.38,0,0,0-3.11-.64l-.65-.38a7.87,7.87,0,0,1-.38-2.43l-.52-.13a5,5,0,0,0-1,.64A5.65,5.65,0,0,1,16,114a5,5,0,0,1-.26-1.53l-1.16.13c-.28-2.11-.73-1.72-.78-4.73,1.24-1.17,3.16-1.42,4.54-2.3a4.86,4.86,0,0,0,.39-1.4,3.61,3.61,0,0,1,1.29-.77c.74-1.55,3-2,4.54-1.4,1.36.68,2.34,2.19,3.76,2.81l.77-.26c-.15-4-2.85-7.24-3-11.23a8.89,8.89,0,0,0,3.11.38,1.28,1.28,0,0,1,.26-.38c.33-2-2.41-2.75-1.81-4.6-.35.09-.7-.29-.91-.51,1-1,1.69-2.65,3.11-3.32a3.5,3.5,0,0,0-.78-1.27v-.9l.26-.25a1.64,1.64,0,0,0,.65.13c.87-3.63-.48-6.69.26-10a3.25,3.25,0,0,0,.65-.51c.12-3.83-3.14-8.25-.39-11.62a13.54,13.54,0,0,0,4.93,1,2.3,2.3,0,0,1,1.16-.64c1.18.21,1.2,1.38,1.43,2.3a7.05,7.05,0,0,1,1,2.43c2.29,1,2.48,3.45,3.89,5.1,1,.93,2.52,1.65,3.5,2.68.76.79,1,2.28,2.34,2.3a28.5,28.5,0,0,1,3.49-1.15,18.3,18.3,0,0,0,2.34-3.19c1.94.46,4,2.17,6,2.3.68-.36,1.56-1.26,2.2-1.66l.13-.77a3.1,3.1,0,0,0-1.16-1.4,3.2,3.2,0,0,1-.26-1,2.29,2.29,0,0,1,1.55-1l.26-.51a1.33,1.33,0,0,0,.39-.26c1,.21,2.31.8,3.37.64l.65-.38a7.55,7.55,0,0,0,1.29.89h1.3a7.58,7.58,0,0,0,1.94-1.53l.26-1.15-.38-.77-.78-.38c-3.93.72-3.81-5.83-8.3-2.68-.3-.49-.48-1.3-.78-1.79a1.08,1.08,0,0,1-.77-.64,1.67,1.67,0,0,1,.13-.76c.33-.17.83-.09,1.16-.26l.39-1.15c-1.33-.88-3.48-1-4.66-2-.7-1.33-1.91-1.65-3.24-1.91l-.26-.39.51-.76a2.77,2.77,0,0,0-1.42-2.94l-.39.64a2.85,2.85,0,0,1,0,1.66c-.79.43-2,.2-2.85.25-1.54-2.31-4.65-5.75-4.15-8.55a44.44,44.44,0,0,1,3-4.34c.09-2.09,1.37-3.55,2.85-4.85-.41-1.68-1-3.62-1.42-5.36l-1-.51A12.74,12.74,0,0,0,47,29a3.67,3.67,0,0,0-.65-.26l-.13-.38-.52-.26c-.69-1.11.72-2.36.78-3.57.91-1,2.67-.44,3.76-1.15.9-2.64,3.58-3.38,5.32-5.23.69-1.22,2.45-2,2.85-3.32.73-1.81,1.19-4.6-.26-6.13V8.34l.9-.39c.33-.3.27-1.39.26-1.78.19-.47.84-.69,1.3-.77L61,5V3c.13-.27.47-.8.78-.9,1.28.63,2.66.39,4,.51,2.76,1.88.54,4.58,3.12,7.28a3.9,3.9,0,0,1-.78,1v.51c1.72.47,3.86-.1,5.44,1.15.57,1,1.38,2.28,1.17,3.45-1.18,1.07-1.62,3.17-3.24,3.7l-.65-.26a10.67,10.67,0,0,0-1.56-1.91l-.38.13c-.56,1.14-1.68,1.07-2.73,1.15l-.39.38c.79,1.23.06,2.78.78,4a6.67,6.67,0,0,1-.78,2l.13.64c.8.78,2.17,1,2.86,1.91.2.77.32,1.78,1.16,2.17a4.52,4.52,0,0,0,2.21-.64l.64.26c.7.83,0,2.3,1,2.93h.39a10.13,10.13,0,0,0,4.15-5.1c2.41-1.78,5-.36,6.87,1.4a44,44,0,0,0,6.09,2.56l.78,1c-1.37,3.61-5.34,5.58-6.87,9.19-.87,3.12,1.17,7.93-2.21,10.34h-.65c-.84,1-.74,2.62-.77,3.83.35.43,1.09.69,1.42,1.15,0,.44-.27,1,0,1.4a2.63,2.63,0,0,1,1.43,1.53c-.56,1.62-2.42.84-3.5,1.54l.26.63c.69.49,1.69.31,2.46.52.37.25.54,1,.91,1.27.63-.09,1.27-.63,1.94-.51.93.85,1.22,2.55,2.47,3.06,2.11,0,4,1.8,6.09.39A15.8,15.8,0,0,1,98.34,68c.17.93-1,1.2-1.3,1.92a3.28,3.28,0,0,1-3.11,1.66l-.26.76-.52.39c-1-.06-2-.93-3-.51-.9.9-2.22,1-3.37,1.27-.9,2.92,1.34,8.31,1.56,11.37l-.39.38a6.38,6.38,0,0,0-2,.64c-.17,1.59-2.17,2.1-2.33,3.7,0,1.67.67,4.2,2.2,5.11,1,.43,2.25-.61,3.24-.52.75.75,2,.59,2.86,1,.68.56.45,1.64.64,2.42a10.38,10.38,0,0,0,1,1.15l.13.64a8.23,8.23,0,0,0-.65,2.17l.39.64a3.41,3.41,0,0,0,1.82,0l.64.25.52-.12c2.28-2.33,6.15-2.26,9.21-2.94.8,3.14.61,3.5,3,6Z"/></g></svg>