<svg xmlns="http://www.w3.org/2000/svg" viewBox="0 0 128 128"><defs><style>.cls-1{fill:#b25fac;stroke:#fff;stroke-linecap:round;stroke-linejoin:round;stroke-width:1.46px;}</style></defs><g id="estados"><path id="SON" class="cls-1" d="M97.75,118.21l0-.1.34-.58.05-.28,0-.2.09,0,.05.19-.14.39-.1.1-.09.14-.1.1,0,.14-.14,0Zm1-.43.05-.34v-.87l.14-.19h.29l.34.09.19.15.1.29V117l-.15.15-.28.19-.58.39-.1,0ZM88,104.86h-.14l-.34-.49-.34-.24-.43-.19-.24,0-.15-.14.15,0,.29.1.48.24.43.29Zm-9-4.78,0,.29-.82-.33-.24-.24,0-.68,0-.43.09-.39,0-.19,0,.67,0,.77.29.34.68.19ZM66.17,88.61l.1.29L66,88.81l-.1-.2-.09-.14.09-.19.24.33ZM52.29,75.74v.1l-.1,0v-.14l-.09-.15,0-.1,0,.15.05.1v0l0,0Zm-1.23-7.85a2,2,0,0,1,.2,1.26c0,.6,1,1.62,1.1,2.31,0,.9-1.62,4-1,4.15.3.49-.57.16-.77.62-.38-.53-1-.17-1.35-.82-1-.11-1.55-.87-2.6-1.3-.43-.3,1-.77,1.1-1.25.31-.73-.29-1.5,0-2.36s.37-2.56,1.54-2a1.94,1.94,0,0,1,1.54-.58C51.08,67.55,51.62,67.37,51.06,67.89Zm-1.37-1.74h0l0-.1,0,0,0,.09ZM16.09,22.86l.24.53h-.19l-.19,0-.15-.15-.1-.14-.33.24L14.64,23l-.53-.72.2-.87.48.1.67.62Zm86.62,7c-.16,3-1.31,6.51-.92,9.35,5.73,5.85,6.81,1.29,7.14,9.6.57,4.72-.64,9.58-.82,14.36.25.92-.94.57-1.45.68.22,1.92.69,6,.92,8a30.17,30.17,0,0,0,.53,3.61,6.4,6.4,0,0,0-.53,2.17c.41,1.62,1.36,3.33,1.59,5-.66.54-1.27,1.79-2.26,1.2-2.26-.56-5.65-1.7-7,.87.71,1.6,1.36,4,2.31,5.4,1.23.69,1.58.83,2,2.22.83.81,1.8,1,1.4,2.31.47.9,2,1.13,1.92,2.27.06.53-.23,1.1-.19,1.63a1.88,1.88,0,0,1-.24,2.46c-.51.82,1.68,4.26,2.46,3.86.35-.28.5.19.62.43.42.45-.16,1.09-.24,1.59,0,1.77-.26,2-1.73,3-2.44,2.35-5.69,4.4-8,6.75-.1-.25-.34-.71-.63-.77l.15.29c-.56-.35-.81.22-1.21.43a5.63,5.63,0,0,1,.15-1.45,3.9,3.9,0,0,0-1.79-3,2.74,2.74,0,0,0-1.93-1.45c.25-.12.59.11.82.19-.1-.41-.06-.87-.67-.77-.14-.33-.17-.57-.48-.19,0-.68-.67-.26-.73.19.12.17.67,0,.49.34s.52.2.43.48a3.93,3.93,0,0,0-2.36-.43c-.24.21-.3.42-.68.29a3.72,3.72,0,0,1-2.7-3.33,12.32,12.32,0,0,1-1.06-2.31,4.11,4.11,0,0,0,.87,1.15,5.44,5.44,0,0,1-.48-2c-.42-.66-1.57-1.64-2.07-.53-.76-.13-2.18-.82-3.23-.92-1.88-.58-1.88-2.2-4-2.7,1.45.18,1.83.33.68-1,.22-.3,0-.32-.19-.48-.3-.31-1,.93-.92-.44-.25-.61-.73-.87-.53-1.73-.11-.64-.69-1.55-.58-2.22.07-.33.43-.4.72-.43.41-.48-.09-.81-.38-.24.06-1,.51-.59.87-1.06-.62,0-1.1-.19-.63-.82a.37.37,0,0,1-.34-.58c.3.54.26-.26.48-.24,2.2-.13.45-.84-.57-.82.64.7-1.53-.58-1.88-.48-.43-.22-1.52.27-1.64,0,.4-.15.75-.17.43-.63-.08-.31,0-.77-.48-.67a2.29,2.29,0,0,1-.58,1.54c.65-.24.37.85,0,1.06-.12-.3-.44-.8-.82-.77-.31-.22-.49-.64,0-.63-1.18-1.51-1.32-.21-2.56-.29.37-.51-.61-.79-1-.91a6.25,6.25,0,0,0-.72-1,.65.65,0,0,1-.68-.48c-.43-.37-.53-1.18-1.06-1.5,0-.17,0-1-.29-1-.57.09-.41-.7-.62-1-.74-.48-1.17-1.13-.68-1.93-1.35.26-2.68-1-3.95-1.25-.45-.32-.65-1.59-.92-2.17s-3.82-3-2.46-3.18c.52-.73.52.55.92.24.4-1.37-1-.42-1.4-1.26a2.74,2.74,0,0,0-1.15-.62c-.11-.65-.87-.9-1.07-1.54-.14-.4-1.39,0-1-.54.26.1-.16-1.77-.38-1.63,0-.28.38-.49.33-.78s-.52-.53-.38-.81c-.49-.29-.58-.56-.34-1.07,0-.57-.2-1.52-.77-1.78-.49,0-1.17-.11-1.06.58-1.69-1.17-1.45-1-.68-2.89.14-.58-.3-.58-.62-.82s-.09-.62-.2-.92A6.7,6.7,0,0,1,49,60a12.46,12.46,0,0,0-.58-1.4c-.24.09-.46-.17-.58-.34a4.46,4.46,0,0,0-.87-1.93c-.45-2.75-1.86-.16-1.64-2.31.46-.85-.06-1.31-.19-2.07.14-1,.29-2.27-.58-3-.18-.21-.69-.63-.87-.29.84-2.86-1.63-3.86-2.84-6.07a6.89,6.89,0,0,1-.92-5.31c.35-.85-.57-2.15-.33-2.84.59,2,.94,1.49,1.06-.19.16-1.06-.14-2.39-1.4-2.51,1.06,1.09-.32.17-.77-.1-.12-.35-.49-.71-.53-1.1-.24-.07-.45.19-.68.14.12.34.5.42.72.63a18.42,18.42,0,0,1-6.31-1.74c1,0,.19-1,.14-1.64.16-1.22-1.6-2.12-2.55-2.31-.36-.25-1.17-.42-1.25-.92-1.32.77-.85-.38-1.4-.86,0,.27-.25,1.71.24,1.49.32.24-.21.35-.29.63a.31.31,0,0,1-.39.33c0,.23-.24.43-.33.63a5.22,5.22,0,0,1-4.34-1.54,15.16,15.16,0,0,0-2.75-1.79c-.53-.37-1-1.44-1.69-1.59-1.15.2-1.34-.1-2.16-.77-.29-.21-.83,0-1.06-.38-.32-.64-1.23-.95-1.74-1.4-.24-1,.44-2.42-.72-2.94a2.55,2.55,0,0,0,0-2.51c-.2-.43-1-1-.82-1.44,1.4-.88.67-2.34,1.69-3.43.42-.32,1.22.11,1.63-.29,16.78,6.19,34.32,12.51,51.1,18.66,2.63.85,5.48,2.62,8.34,2.31C81.56,29.84,94.47,29.86,102.71,29.85Z"/></g></svg>