<svg xmlns="http://www.w3.org/2000/svg" viewBox="0 0 128 128"><defs><style>.cls-1{fill:#b25fac;stroke:#fff;stroke-linecap:round;stroke-linejoin:round;stroke-width:1.45px;}</style></defs><g id="estados"><path id="CAMP" class="cls-1" d="M36.82,79.06v.53l-.22-.1-.1-.11-.64.53-.42.11-.43.1.11-.31.21-.22.21-.1.32-.11-.63.11-1.17.42h-.53l-1.27,1.8-.95.85-1.17.21.74-1.27-1.8,1.17L28,83.09l-.95.21h-.64l-.21-.1.1-.32.53-.53.32-.21,1.49-.64.95-.21,1.8-1,1.27-.85L34.27,79l1.49-.74h.53l.21.21.21.32.11.31ZM107.18,47.8l1.49,2,1.8,1.58,2.12,1.49,4,3.6,3.29,4.13.74,2.55-.32,2.22.11,2.55-.11.53.11,1.16-.53,1-1.59,1.59.21,2.65-1.06,7,.21,2,1.17,1.49.32,1.9-.43.53-.21.53.53.22.53.31v.75l-.32.84-.21.75.64,3.17.21,2.44V99l-.74,2-2.86,3.5L116,105l.21,2.75-.21.43-.21,1.37v3.08H101l-7.32-.11H55.57l-.74.21-.21.32v-5.83l-2-.1L50.7,107l-.53-.1-.21-.22-.32-.31-.32-.32-.64-.21-.63-.11-1.38.11-.53-.11-.63-.42-.64-.43-.53-.42-.64-.43-.53-.31-.53-.22H41.9l-.63-.1-.53-.21-.53-.11-1.06-.42-.43-.11-.31-.11H37.24l-1-.1-1,.1-.74.22-.21.42-.21.64v.74l.1.42v.21l-.1.64-.32.85-.43.85-.21.31H25.58l-1.06-.53-.95-.63-.95-.53-.53-.32-.22-.53-.1-.64-.64-.31-.53-.22-.42-.21-.43-.21-.42-.32-.74-.53-.74-.63-.85-.64-.85-.53-.42-.85-.11-1.37.11-1.38.1-1.06V93.05l.11-3.18H14.45L12.87,90H11.28l-1.49-.21H9.47L9.26,90H8.94l-.31-.11-.32-.21-.53-.42L7.57,89,7,88.39l-.32-.85-.11-.85-.32-.84-.42-.64-.42-.64L5,83.83l-.1-.63,2.43-.74,3.82-.22,3.5-.31,4.24-.53,2.65.1,1.05.21,1,1.06,1.8,1.17.21.32v.42l-.21.32-.32.32-.42.1.21-.21v-.32l-.32.21-.42.11h-1L22.83,85l.1-.32.11-.42-.21-.32h-.22l-.21.11-.74.52h-.1l-.11-.1h-.32l-.53.1-.1.11.21.21h.53v.32l-.43.11h-.42L20,85.21l-.32-.32v.21l.1.32.11.21-.32.22-.21.31-.11.32-.1.43.21-.22.53-.31.64.53.31.1.43.11.74-.21.42-.11.21.21.22.43.53.42.63.32.64.1-.85-.63-1-.64-.75-.74-.21-1.06.74.32.32.32.43.1.84-.32-.42.75.42.21.43.21.32.32.21.53-.53-.32v.32h-.21l.63.32,1.27.42.43.42-.11.53-.85,1-.21.53.21.53.64.53.64.53.42.1.32-.53-.11-.53-.32-.53-.21-.63.32.21.32.21.32.11.42-.11-.32-.42-.53-.43-.32-.53.22-.53.95.43,2,.53,1,.53.63-.21,1.49.31.84.11,1.7-.21.74-.21.53-.32.11.53.21.32.32.1.32-.21v-.42L38.19,89V88.6H38l-.1.11-.11.32-.11.31h-.31l-.85.32-.21-.1.21-.43.74-.85.21-.21.85-.42,1.91-.74.95-.53.53.21.53-.11.53-.32.42-.21.32-.42L44,84.47l.21-.21h1.7l.21-.22.32-.31,1.27-.43.53-.31-.64-.22H47.2l-.85.53-1.59.43-.42.21,1.06-2.65V80.23l-.64-1.06-.53-.53-.31-.21h-.43l-.32.1-.1.22L43,79l-.21.21L42,79l-1-1.27-.63-.22.53-.84.63-.85.75-.53,1.59-.53L45,74l.84-.85.53-.74-.74.1L43.39,74.3l-2.12,1.16-.85.74v.74l-.32.22L40,76.94l-.74.53-.42.22h-.64l-.74-.11v-.21l.74-1,1.7-1.27L42,73.87l2.86-1.8,4-1.8,2.75-2.55.64-.31,1.59-.53,2.54-1.8,2.65-3.4.74-.42,1.06-.42,1.17-1,.85-1.16.42-1.17.53-6.89.32-1.48.1-.74-.1-.74-.11-.64v-.53l.21-.85.64-1.48.63-1.06,1.91-1.38,3-2.12,1.38-1.48.31-1.49.11-.53v-.63L72.1,35l-1-2V31.59l.1-2.76.32-1.8-.11-1.91v-.84l.43-2,.1-1.38-.53-3V16.33l.74-3,.22-3.5.42-.95,1.8-2.23L75,6.05l.1,1-.42,8.9L75.18,17l1.59.11h1.69l1.38.21.85,1,.53,1.27.85.74.63-.32.64-.21.63.53.64.63,1-.21.64-1.27.85-.63,1.37,1.9.53,1v.84l.64,1.38.53.64L92,25.87,93.19,28,94,30.53l1.7,1.8,2.33.85,2,1.59,2.44,4.55,1.8,1.91,1.59,2.12.42,2.54.85,1.91Z"/></g></svg>