<svg xmlns="http://www.w3.org/2000/svg" viewBox="0 0 128 128"><defs><style>.cls-1{fill:#b25fac;stroke:#fff;stroke-linecap:round;stroke-linejoin:round;stroke-width:1.37px;}</style></defs><g id="estados"><path id="QRO" class="cls-1" d="M110.59,36.75v.75l-.19.75.19,2.82.19,1.51h-.57l-.94-.38-.37.19-.57.38L108,43h-.57l-1.5-.18-1.69.75-2.63,2.25-1.88.38-1.13-.38-2.07-1.31H95.36l-.56.19L93.86,46l-.56.38-1.13.19-.57.18-.94.94v.94L92.17,51V52l-.38.94-1.31,1.69-.19,1.13-.19,2.44-.38.94-.56.75-.56.38L85.21,62.5l-1.12,1.7-.76,2.06-.94,4.33-.18.56.18,1.32L83,73.59l.75.94.38.38.18.38h-.94l-.75.37-.56.57-.57.37-.37.19-.94.19-.19.19-.19.37-.19.57-.37.37-.19.38h-.38l-.56-.57h-.19l-.56.38-.38.56-.37.57-.19.56-.57.57-.75.56-.94.19-.94-.38-.19.38-2.06.37-2.07.76-2.26.94-1.88.94V86l-.18,1.5-.19,1.32-.57,4.32-.56,4.33L57.58,101l.94.94.56.94.76,1.13.75.94H58.9l-1.13.37-.94.94-1.13,1.32-2.63,3.19-.75,1.51-.94,1.5-.94,1.32-1.13,1.5-.38.38-.56.94-.56.94L47.24,120l-.56.93-1.32-.56-1.13-.94-.75-1.13v-6.76L42.17,108l-2.07-3-3-1.51-.56-.37-.57-.19-.75-.19-.56-.37L33.9,101l-.94-.56-1.13-.57-.75-1.5-.57-1.69-.94-1.32-1.31-1.32-1.13-1.31-.94-1.13-.94-2.07-.19-2.25V85.06l-.19-2.44-.56-1.13-.75-1.13-.76-1.13-.75-1.12-1.13-2.64-.56-2.63.19-2.63,1.13-2.63.56-.94.56-.94.38-1.13.19-.94V61.38l.37-1.13.94-.75.57-1.13.56-1.51.94-1.12h1.13l.94.94.19,1.5.56,1.13,1.69.56,1.32.19,1.13.19h1.13L36,59.87l.94-.56.94-.75L39,58l1.13.19h.37l.19.38.75.94.76,1.12.94.76h1.31L45,61l.37-.56.38-.57.37-.37.57-.19.56-.19.38-.19.56-.37.57-1.32.37-1.5.19-1.51v-1.5l.19-2.26L49.69,48l.37-2.26.75-2.06.94-1.32,1.51-.94,1.5-.38,1.5-.18.94.18.94.38.94.38.76.56.94,1.13,1.69.37,1.69-.18,1.5-.57.94-.37.19-.57.38-.56.37-.75.57-.57.56-.19,1.5-.56.76-.75.37-.75v-.94l-.75-.57-1.69-.19-1.5-.18-1.13-.94L66,33.18l.19-.75.19-.57V31.3l-.19-.94-.38-.75.19-.75.38-.94v-.76l.75-1.88.75-2.06.94-1.7L70.55,21l.75.38.94.56.75.56.57.57.37.37.38.38.38.19.37.37.38.76.37.75.19.75.75.38.57.37.75.94.56.38.76.19.37-.38.38-.19.37-.19h3L85,27.92l.75-1.13.37-.19.57-.19.94-.19.75-.18.75.18.75.19.76-.19.37-.37.19-.38.56-.94.57-.94.19-.56.37-.38.38-.37.18-1.88.38-.57.38-.19.37-.18h.19l1.13.56h.37l.57-.19.56-.37.57-.57V16.82l.94-.94,1.5-.75.94-1.12.19-1.32,1.69,5.83.38,1.69.56,1.5.56,1.69.57,1.51.56,1.69.94,1.88.57.94v.94l-.57,3.76-.19,1.13h.94l1.13.18,1.13.57.75.75Z"/></g></svg>