<svg xmlns="http://www.w3.org/2000/svg" viewBox="0 0 128 128"><defs><style>.cls-1{fill:#b25fac;stroke:#fff;stroke-linecap:round;stroke-linejoin:round;stroke-width:1.51px;}</style></defs><g id="estados"><path id="MICH" class="cls-1" d="M121.63,28.73c2.07.58,3.21,2.83,3.75,4.74v4A3.3,3.3,0,0,0,127.26,39a58.48,58.48,0,0,1-1.66,6.73,4.68,4.68,0,0,0,.22,1.32c.12.22-.58,1.76-.66,2-.17,1.18-1.13,2.94-1,4.08.61,1.53.93,3.37,2.31,4.41-1.34,1.61-4.82,2.79-6.39,4.19.26.7,1.87,2,.77,2.65-2,2.51-4,5.48-6.06,7.93a3.37,3.37,0,0,1-.88.67c-1.14,1.1.2,2.37-1.55,3-.71.19-1,1.08-1.54,1.44l-.11-.11a.82.82,0,0,0-.55.88A4.1,4.1,0,0,0,109,79.33a2.26,2.26,0,0,1-1.22,1.76c-.12-.4-.34-1.24-.44-1.65-.73-1-1.81-.75-2.31.33-.38.51-1.06,1.06-.88,1.76.62.72,2,1.46,1.32,2.54a1.94,1.94,0,0,0-.55,2,14.67,14.67,0,0,1,.77,2.32c0,1-.18,2.39.44,3.31,1.34,1.07,3,2.13,4.3,3.19.77,1-.34,2.16-.88,3a1,1,0,0,0-.66-.77l-1.22,1.21c-1.18-1-1.61-1.87-.22-3a3,3,0,0,0-.33-1.43.82.82,0,0,1-.55-.22c0,.16-.26.61-.22.77-4.24-2.13-.52-2.56-6.94-2.53l.44.55c0,.41-1.15.56-1.44.66-.24-.81-.13-1.83-1.32-1.32v.11c-.29-.11-.21-.66-.22-.88-.81-1-2.42-.37-3.42-.11l-5.51-.34c-1.88.79-4.36,1.22-6.28,1.88a5.31,5.31,0,0,1-5.4-1.21c-.52-.79-.85-2-1.88-2.21-2-.38-4.8-.75-6.72.11-4.3,4.63.71,8.87-2.32,11.91-.15.21-.51.78-.66,1,.12.51-.46.71-.88.66a4.84,4.84,0,0,0-1-.11,2.84,2.84,0,0,1-1,.44,3.19,3.19,0,0,0-2.21.22c-1.37.34-2.06-.37-3.09,1a10.19,10.19,0,0,0-.44,5.85c.28.45,1,1.42.67,2s-.52,1.44-1.33,1.21c-2.66-1.71-7-2.5-9.81-3.75-1,.14-3.39-.81-4.3-1.1a48.05,48.05,0,0,1-5-.66c-2.82-1-7-3.23-9.81-4.3-.95-.21-2.88.08-3.53-.77-.89.46-3.06-1.5-4-1a13.64,13.64,0,0,1-2.42-1c-.45-.2-1.42-.6-1.88-.22A22.93,22.93,0,0,0,10,98c-1.27-1.8-2.15-5.67-3.85-7.17a9.84,9.84,0,0,0-3.31-2.2c-.35-.4.47-1.14.66-1.43-.21-.8-1.31-1.67-1.87-2.21,1.75-.86,1-2.24,2.09-3.31a2,2,0,0,1,1-.22,2.5,2.5,0,0,0,.89-.66c.17-.58.06-1.34.44-1.87,0-.28-.14-.61-.11-.88a1,1,0,0,1,.33-.44c.6.37.91.39,1.43-.11a13.21,13.21,0,0,1,1.43-.78A2.24,2.24,0,0,0,9,76.13a.68.68,0,0,1,.66-.22c.44-.16.3-.91.67-1.21.43.24.88-.17,1.32-.22h1.65c2.23.15,2.29-.17,3.2-2.1,1.23-1.46,1.59-.4,2.42.67,2.21-.36,1.69,1.45,3.2,2.2.23-.19.77-.56.77-.88A2,2,0,0,1,23,73.6c1.34-1.61,4-1.35,5.51-2.76a17,17,0,0,0,1-2.86,5.61,5.61,0,0,1,4.19-2.65,2.37,2.37,0,0,1,.88-.11c.33-.08.49-.74.66-1a3.19,3.19,0,0,1,2.31.11,1.48,1.48,0,0,1,1,1c.88-.11,1.53-1.59,2.09-2.2.08-.15.9-1.15.77-1.33a4.08,4.08,0,0,1-.11-.77c.31-1,1.73-1.19,1.88-2.2-.22-.33-.77-.33-1.11-.44a6.26,6.26,0,0,1-.44-1.11c-.14-.31-.19-1.71-.66-1.76-1.41.27-3.27,1.06-4.74.55a12.73,12.73,0,0,1,0-2.76c.13-.73.47-1.68-.11-2.31-.33-.45-.27-1.09-.55-1.54s-.78-.54-1-.89a8.2,8.2,0,0,1-.66-5.29c1.22-.38,3-.17,3.63-1.54-.48-.57-1.65-.59-1.87-1.32s.35-1.9-.44-2.21c-.64.25-1.66-.19-2.32-.11a4,4,0,0,1-2.31-.33,3.52,3.52,0,0,0-1-.77,19.38,19.38,0,0,1-3.09.77c-.07,0-.53.07-.55-.11s-.43-.36-.66-.44c-.88-.42-.75-1.83-.88-2.65a2.56,2.56,0,0,1,.22-1.76c2.52-1.42,7.45-2.28,10.25-3.09,1.11-1.6,3.06-.82,4.63-1.32a7.81,7.81,0,0,0,2-1.65l2.21-.55a.75.75,0,0,0,.55-.78c.55-.74,3.06-1.29,3.86-1.65l1.65-.11c.57-.07,1.76-.62,2.31-.33l.89.33c.17.16.75.57,1,.33a6.32,6.32,0,0,1,1.76-.44l2.21-1.1c.5-.14,3.74-.55,4.3-.66a13.47,13.47,0,0,0-.77,2.09l.44.44c.43-.13.66-.95.77-1.32l.66-.22c1.42.6.45,4.09,1.43,4.85.32.5.18,1.66,1,1.65.52,0,1.3.13,1.66-.33.45-.31.91.28,1.32.33.25.08.52-.15.66-.33a1.51,1.51,0,0,1,.66-.11c1,.42,2.53-.13,3.31.77A13.4,13.4,0,0,1,74.56,28c.16-.55.61-1.12.77-1.65,0-.35-.2-.78,0-1.11,0-.68,1.17-.37,1.55-.44a4.89,4.89,0,0,1,2-.55,4.15,4.15,0,0,0,1.88.11c-.41,1.14.57,1,1.32,1.1,2.25.55,2,1.72,0,2.43-1,1.21.9.83.33,1.87,0,.77-.74.69.11,1.44.34,1.09-.46,2.4-.33,3.52,1.45,1,1.18.11,2.53,0a1.58,1.58,0,0,0,1.77.33c.44-.25,1.06.08,1.43.34a2,2,0,0,0,2.65-.67c.18-.88.3-2,1.43-2,.75,1,1.41.84,2.43.33a4.63,4.63,0,0,1,2.42.33,1.32,1.32,0,0,1,0,1.1c0,.18.43.54.55.67l-.11.66A7.51,7.51,0,0,0,95.18,37c0,1.06,1.14,1.54,2,1.87,1.85,1,4.51.71,5.51-1.32.27.5,1,.87,1.22,1.43.25,1,1.3,1.2,2.2,1.11-.23-1.5.82-1.2,1.87-1.22,1.39,0,3.27-.4,4.63-.11a1.21,1.21,0,0,1,0,.88c.06.53.59.61,1,.45.46-1.61.88-1.86,2.53-2,2.64.09,2.38-.77,2-3a1.66,1.66,0,0,1,0-2.2c-.06-.28-.23-.33,0-.66.43-.07,1,.27,1.32-.11.86-1,1.09-2.57,2.2-3.42Z"/></g></svg>