<svg xmlns="http://www.w3.org/2000/svg" viewBox="0 0 128 128"><defs><style>.cls-1{fill:#b25fac;stroke:#fff;stroke-linecap:round;stroke-linejoin:round;stroke-width:1.37px;}</style></defs><g id="estados"><path id="DUR" class="cls-1" d="M94.37,7.15l1.2,1,2,1.76,1,.89,1,1,1.12.88L102,13.8l1,1.2.32,1.44-.24,1.45-.64,1.28-.56,1.28-.4,1.36-.16,1.37.08,1.52.16,1.44.16,1.44.08.8.08.81.08.8.08,1.36.08.72V33l-.08.8-.24.4-.48.24-.24.32-.16.4-.24.49-.48.48-.16.24-.24.32-.16.24-.32.08-.24.16-.24.24-.41.24-.32.24-.24.32-.16.48v.56l.24.48.32.4.4.4.25.24.32.32.16.32.08.25-.16.16-.57.16-.24.16-.48.64-.32.72-.32.72-.08.8.08.48.16.32.32.32.4.24.48.4.41.48.32.57.32.72.56.88,1,.64,1,.56.88.64.4.88v2.25l.16,1,.64,1,1.05.64,1.12.4,1.12.32,1,.24,1,.24,1,.4,1,.48.56.4L113,60l.56.4.56.48.08-4.73.56-.16.64-.64.48-.72.4-.56,2.25-3,.4.88.48.8.56.8.56.73.72.88.8,1,.64,1,.32,1v9.7l-.08.4-.32.16-1.76.16-1.12.24-1.2.32-1.12.32-1.13.24-1.12-.08-1.12-.16L113,69.33l-4.49-1-4.49-1-1,.24-1.12.4-1,.56-.72.64-.16.48v1l-.24.4-.4.16-.48.08h-1l-.4.08-.32.16L97,72v.41l-.16.4-.32.16h-.48l-.48.08-.32.32-.16.32-.16.4-.16.32-.56.88-.48.72-.48.56-.81.56-.72.32-.64.24L90,78.14l-.88.57-.24.4.16.56-.08.56-.08.72.16.72v.88l-.88.32-.8.24.24.64.4.48.4.41.32.56.08.64-.16.4-.24.32-.16.4-.24.32.32.72.64.4.56.48.32.64-.08.56-.24.73-.32.48-.48-.16-.56-.65-.56-.16-.56.32-.32.73-.08.56-.09.56-.08.48-.32.48-.72.56-.72.56-.8.48-.72.48-.56.4-.24.24-.16.48-.08.65-.24,3.2-.16,1-.08,1.28-.08.65-.24.4-.56.24-.33.24-.16.32-.08.72-.16,3-.08,3-.08,3-.08,3-.16,1.12-.24,1.12-.4,1.12-.32,1-.4,1.36-.8,2.8-.4,1.44-.16-1-.16-1.12L76.5,123l-.88.4-1.85.72-.88.4-.72.08-.72-.32-1.36-.88-.64-.64-.4-.8-.24-.89-.32-1.28-.08-.4-.16-.32-.17-.24-.56-.32-.8-.56-.8-.4-.56-.08-1.52,1.12-1.52,1.12-.49.48-.72.56-.72.4-.64-.08-.16-.48v-.88l.16-1.52.08-.72.16-.4.24-.4.48-.48,1-1,.57-.56.24-.32-1.21-2.88-.24-.56-.24-.32-.32-.32-.56-.32-1.12-.56-1.2-.65-1.2-.64-1.21-.4-1.28-.16H52.54l-1.36.08-1.28.08-.16-3.2-1,.08-1.12.08-1-.08-.88-.48-.4-.4-.4-.48-.48-.41-.32-.32-.24-.16-.08-.24-.08-.24-.16-.24-.33-.32-.4-.24-.4-.24-.24-.4v-1l-.08-.32L42,98.82l-.24-.32-.16-.24.16-.48.08-.24v-.32L41.8,97l-.4-.41.08-.24.08-.24.08-.24-.32-.64-.4-.56-.4-.56-.16-.64-.4-.08-.4-.08-.4-.08-.32-.16-.48-.4-.24-.56L38,91.37l-.08-.56-.24-.49-.25-.48-.24-.4L37,89,36.75,87l-.16-1-.16-1.12-.08-1.13.16-1,.4-.88.4-.8.33-.88.24-.88-.57.24-.64.08-.48-.08L35.71,79l-.4-.64L35,77.66l-.56-1.44-.24-.72-.32-.88-.32-.8-.48-.64-1.85-1.69-.64-.56-.24-.24L30,70.53l-.24-.16-.32-.16-1-.16-.88.16-1,.48-.8.64-.32.4-.24.4-.33.41-.32.32-.4.16-.4.08H22l-.4-.16-.48-.4-.4-.41-.48-.4-.88-.88-.24-.4-.08-.4v-.88L19,68.61l-.09-.48-.16-.48-.24-.48-.32-.64L18,66.21l-.16-.41-.16-.48L17.36,65l-.64-.56-.56-1-.32-1-.48-.88L14.48,61,14,60.76l-.32-.4-.24-.49-.24-.48-.32-.24-.41-.08h-.72L11.27,59l-.4-.16-.24-.24-.24-.48v-.8L10.31,57l-.16-.32-.4-.24-.88-.24L8.55,56l-.32-.4L8.07,55l-.16-.56L7.75,54l-.48-1.13L7,51.62l-.33-1.2-.4-1.2L6,47.94V46.65l.16-1.36L6.38,44l.16-1.2.25-1.28.32-1.29.48-1,.48-.56.48-.4.4-.48.32-.56.24-.56.4-.48.88-.89,2.81.33.48.08.64.08.56.08.48-.08.48-.24.48-.49.48-.48.4-.48,1.93-1.68.48-.4.32-.32.32-.32.24-.32.08-.48.16-3.05V26.46l.08-1,.32-.8.8-.48h.88l.48-.08.4-.32.24-.48.24-.57.16-.64.16-.56.08-1-.16-1-.4-1-.4-1-.4-.89-.24-.88.16-.8.72-.56,2.25-.64,2.16-.72.48-.16.32-.24.16-.4-.08-.56-.24-.56-.16-.57-.4-1.2.08-.4.4-.4.48-.4L30.1,8l.16-.24v-.4l.08-.72V5.15l.08-.81.32-.56.4-.16.41.16.32.4.24.32L32.35,4l.56-1,.24-.56.16-.24L33.39,2l.32-.4.4.32.4.24.8.56,1,.8,1,.8,1,.81,1,.56h.64l.72.08h.64l.64-.16.64-.08.4.4.32.64.41.64.48.48.48.56.48.48.56.4,3.6,2,2.17,1.2.48-.08.72-.4,1.28-.72L56,10l.72-.32L57,10l.64.72.88,1.37.48.24.32-.4.32-.56.32-.32.56-.08.64.08.56.08.57.16,1.6.24,1.36.48,1.36.72,1.28,1,.89.8,1,.88,1,.32.88-.88,1.2-1.6,2.25-3.13,1.12-1.52.88-1.28L78.1,6,79,4.91l1.12-1L81,3.62l1-.16,1-.08h2.24l.56.16.64.24,3.93,1.69,4,1.68Z"/></g></svg>