<svg xmlns="http://www.w3.org/2000/svg" viewBox="0 0 128 128"><defs><style>.cls-1{fill:#b25fac;stroke:#fff;stroke-linecap:round;stroke-linejoin:round;stroke-width:1.2px;}</style></defs><g id="estados"><path id="TAB" class="cls-1" d="M127,69.34V93l-17.53-.13-.13-.13-.25-.65.13-.65.12-.65.25-.39.51-.26h1l.12-.65-.12-.13-1-1.69-.25-.39-.38-.26-.88.13-.51-.13-.5-.13-.51-.39-.25-.39.25-1.3v-.65l-.38-.25-.37-.26-.26-.26-.75-.26-.89-.26-.75-.26-.51-.26-.63-.26-.88-.39-.63-.52-.25-.65V78.82l-.26-1.43-.37-1.56-.51-1.55-.76-1.17-.75-.26-.88-.13-.76.13h-.88l-.51-.39.13-.78.38-.78.25-.39-.25-1.3-.13-.39V67.39l-.63-1-.76-.65-.88-.13-.76.65-1-.52-.63-.13h-.5l-.51.26-.25.39-.12.39-.26.52-.5-.65.13-1.42-.63-.39h-.26l-.88.26-1.14.77-1.13,1.17-1,1.17.76,1.3-.89.65-1.38.13L81,69.86l-.76.65-.88.65-1,.52-1,.39L76,72.33l-1.39.39-1.39.39-1,.78-.37,1.29.12,1-.38.78-1.38.39-.89.26-.75.65-1.26,1.43-3.54,3.12L62.28,84.4l-2.39,2.34-.64.52L58.12,88l-1.26.13-1.26-.52L54.46,87l-.5-.52-.51-.65-.5-.65-.38-.65-.76-1.29-.5-1.17-.63-.91-1.26-.26h-1l-.63-.39-.25-.91-.13-1V76.74l-.76-3.37V71.55l.26-.65.37-1.3.26-.65V67.39l-.13-.78v-1l-.13-.9-.12-1-.51.91-.75-.13-.89.9-1.38-.25-1.26-.91L41.47,63l-1-.52-.75-.52-.38-.26-1.39-.26-1-.26L36.3,61l-.38.26-.5.65-.25.26-.51.13-.12.91-.89,2.46-.75,2.6-.76,2.6-.63,2.47-.25.78-.13.77-.25.78-.25.65-.51.52-.63.39-.5.39-.51.52v.26l-.12.78H28.1l-.37.39L27,80l-.13.26-.25.52-.25.26-.51,1.69-1,2.46-1.14,2.47-.76-.26L22.3,87l-.5-.52-.25-.78v-.39l.37-.91v-.52l.13-.38.25-1.3.26-1,.12-.91-.25-.65-1.26-.52-.51-.52-.88-.91-.88-1L18,74.92l-1-.77-1.14-.39-1.13-.39h-.89l-.38-.13L13.35,73l-.13-.78-.38-.39-.63-.13h-.75l-1.52-.52-.37-1L9.44,69,8.56,68l-.51-.26H7.42l-.5-.13-.51-.26v-.13l-.25-.52L6,66.61l-.25-.13H4.9l-.63-.65v-.9l.25-2.08.13-.65L5,61.68,5.4,61,5,60.51l-.38-.39v-.91l-.13-.52-.25-.26-.38-.52-.13-.26.13-.26.25-.13.13-.39L4,56.61l-.38-.39-.13-.51.13-.65v-.52L3.51,54l-.25-.26h-.5l-.38-.13-.26-.39v-1l-.25-.39H2l.88-.52L4,50.77l3-.65.63-.65.76-.39,4.41-1.56-.25.52-.38.39L12,49l-.12.52.37.26,3.16-.52.75-.13.51-.39.38-.52v-.39l-.26-.26-.12-.26.12-.39.26-.26.5-.25.25-.26.51.13.63-.13.5-.26.51-.39.25.78.88.25L23.56,46l.51-.52.5-1.43-.38-1-.12-.13h-.38l-.5.26-.51.26-.25.26-.51.39-2.77.91-.25.26-.38.39-.25.26-1.77.26-1.26,1-.5.26h-.89l-.37.52.25-.91.75-.39.76-.25.38-.39.38-.39,7.44-2.86,1.76-.39,4.29-.65,5.55.26L41,41.68v.26l-.38.65-.38.39-.38.13.26.39v1l.25.39h.38l.63-.26.63-.39.25-.26v.65l-.38.78-.13.65H42l.63-.91.25-.26-.25-.26.75-.13.26-.65-.26-.78-.88-.26-.88-.13v-.39l.63-.39.88-.26,6.43-.13,3.28-.91,2-1.17,1.89-1.82.76-1.16.38-.65.12-.39.38-.26.38.13.13.26.5,1.43.38,4.15.5,1.17.26-1.3-.26-.65v-.91l.26-1.82-.26-.9-.88-2-.13-.52.51-.39h1l1.76.13.89-.13,4.16-1,.25-.13.13.78.5.91.51.78.5.78.38,1L70,38l.38,1,.63.78.26.26.63.52.37.26.38.13H73l.25-.26h.38L75.4,41h1.89l1.89-.13H81l-.13,3.9v4l-.13,1.3-.12,1.69.12,1.69.51,1,1,.65,1,.77.88.78.88.65.51.39L86,58l.51.26.63.26.75.39.13.78.25.65.63.39,1.14.65,1.13.78,1.26.65h9.08l.26-.39.5-1,.38-1,.12-.78v-.26l-.12-.52v-.91l.25-.78.25-.52.89-.26,1.13-.13,1.14.13h1.38l.38.13.51.13,1.26.52.63.13.63.26.76.13h.88l.63.26.63.39.76.52.63.52.75.52.76.52.63.13,1.64-.13.76.13.75.26.38.39.38.39.25.26.63.13,2.27.13,2.4.13v7.14Z"/></g></svg>