<svg xmlns="http://www.w3.org/2000/svg" viewBox="0 0 128 128"><defs><style>.cls-1{fill:#b25fac;stroke:#fff;stroke-linecap:round;stroke-linejoin:round;stroke-width:1.31px;}</style></defs><g id="estados"><path id="GRO" class="cls-1" d="M82.89,30.28l-.28.58-.2.57.1.48.67.19.57.1.1.48.19.57.58.19.19.39.48.76.19.39.29.38.28.29.39.19h.38l.57.09.2.48v.67l.28.29h1.92l.67-.1.09-.28.1-.39.1-.86.19-.76.38-.58L91.9,34l.76.09.29.1.19.1.19.19v.28l.1.39v.48l.09.28.29.29.19.29.19.19.1.19.09.38.39.87.67.67.57.67.29,1.15.1.48v1.43l.19.48.19.29.09.38v.48l.87-.1v.39l.09.38.1.38.29.29.57.38.38-.28.39-.19.38.09.1,1.25.19.57.48.29h.47l.77.09.67.2.38.19.39,1.43.86,1.15,1.15.77,1.34.57.57.19.67.1.58.19.57.1.29.19.29.1L110,53l.28.1,1,.19,1.05.09,1-.09,1-.19.57-.2h.29l.38.1.39.38,1.63,1.82.57.58.1.48-.2.57-.38.67-.19.58-.1.67-.19.57-.09.58-.1.47-.29.77-.19,1.25-.09.76v.77l.47.57.2.1.09.19V65l-.19.19-.29.29-.09.38.09.48.1.48.67.58.38.47.39.48.09.39v.48l-.29.86.2.19.28.67-.09.57-.19.67-.1.67.19.58.38.29,1.15.48.48.67.39.86.47.67.77.19.86-.1.39.1.38.1.38.47,1.06,1.15.86,1.25,1,1.24.86,1.25.19.29.09.28.1.39-.1.38-.09.29-.1.38-.09.29-.19.28-.2.48-.28.39-.29.38-.29.38-.19.39.1.28v.29l-.1.38v.58L126,89.28l-.1.57-.09.58-.19.38-.29.29-.38.28-.2.29-.09.19-.29.29-.19.1-.19.09-.48.19-.38.19-.39.1-.48-.1-.38-.09h-.77l-.38.19.29.86.29.86.09,1-.29.86-.19.39-.67.19h-.48l-.48-.19h-.57l-.77.38-.38.57v.68l.48.76.48,1-.19,1-.67.86-.77.77-.77.48-.76.1h-.77l-.86.09-.77.19-.67.29-.48.38-.47.48-.1.1-.38-.19v-.1l.09-.1v-.28l-.48-.67-1.15-1-2.39-2.2-1.15-1.63-.86-1-.1-.19-.28-.19-.39.09-.48-.19-.19.19h-.28l-.29.1-.48.09-.1.2-.19.38-1-.19h-.57l-1.15-.48-5.94-1.92-5-1.34-2-.48-3.64-.57H81l-1.44.1-1-.2-.76-.28-.77-.29L75.42,92l-1.63-1.34L73,90h-.19l-.19.29-.29-.19-.1-.19-.28-.1.19-.09.38.19.1-.29-.2-.19-.19-.1-.19.19-.29-.09h-.19l-.19-.19.19-.1v-.29l.19-.28.2.09.19-.09v-.19l-.29-.29-.19-.19-.48-.1-.48.19-.29.29v.19l.29-.09.19.09-.29.29-.38.09-.19-.19-.19-.76-.19-.1L69,87.07l-.1-.28-1-.48-2.21-.86-1.53-.39-1.53-.57-2-.77-2.59-1-7.37-2.59-2.68-.86-1.82-.57-2-1-1.63-.58-2-.57L38.84,76l-1.63-.58-1.05-.48-.48.19-.19-.38.38-.19-.1-.67-.47-.58-1-1-2-1.25-.39-.67L29.55,69,27,68.11l-1.34-.67-1.91-.67v-.38h.38l.1-.58-.29-.47L23.61,65l-1.15-1-.86-.09-.86.19-.1-.48h-.38L20,63.32h-.48l-.09-.57-.48-.19-.86-.29L18,61.12,17.2,60l-.77-.48L15,58.34l-.38-.76-.38-.39-.1-.67L13,55.28l-1.34-.67-.48-.19L9.34,53.36,7.62,52.6,6.18,52l-1.91.29L4,52.89l-.58.38-.47.57-.58.29-.19.1.29-.58.19-.29.09-.28-.09-.48-.58-1-.19-.57V49.25l.1-1,.19-.86.19-.58.1-.29.28-.28L3,46l.29-.19H4.65l.48-.1.48-.19.48-.09h.47l.48.09.39-.09.48-.29h.28l.58.09h.28l.29-.09.19-.19v-.29l.2-.29.38-.57.57-.67.29-.77.1-.77-.39-2.2-.19-2.2.38-2,1.25-1.73,1.15-.38L14.51,33l2.49.19.48.09.48.1.48.19.38.38.29.48.19.38.29.48.48.39.57.38.58.29.67.19.76.09,1.63-.28,1.53-.48,1.63-.38L29,35l.77-.29,4.79.29,1.53-.39h.67l.67.39.1.09v.58l.19.19v-.1l.29-.09h.38l.19.09.1.39.19.76,1-.29.19-.28-.38-.48,3.26.09.38.2,1,1.14.39.29.48.29.47.19V38l.2-.48v-.1l.09.1.29.09h.09l.1.19.1.29.09.48v.29l-.29.28-.28.29-.19.38v.48l.28.48.67.67,1-1,.1-.1.38.19.19.48.48-.67.38-.67.2-.67-.29-.58-.77-.57-.76-.58L47,36.7l-.86-.57-.58-.48-.28-.58-.1-.67V32.77L45,32.1l-.19-.67-.29-.67-.1-.76.2-.48L45,29l.19-.67-.29-.48-.57-.58-.48-.47v-.58l.38-.48.39-.48.38-.57.48-.29.67.1.48.48.19.76.19.67.29-.19.38-.38.29-.38.09-.58.19-.29.58-.57,1.15.38,1.15.29,1.15.19h1.62l.29.1.1.38v.48l.09.38.2.19.19.29v.38l-.29.58-.29.57v.67l.29.67.19.39v.76l-.09.39.09.38.19.29.29.28.19.29,1.15,1,.48.67.19.67-.09.87-.29.86-.19.76.28.58.29.29.19.28.48.48.29.29.38.19H59l.38-.09.39-.29.19-.29.19-.29.38-.09.67-.58.67-.48.67-.57.67-.57.68-.77.57-.77.38-.86.58-1.15.09-.19.67-.1.58-.09.57-.19.67-.19.58-.2.57-.19.67-.19.58-.19.38-.1.29-.09.67-.19h.48l.48.09.47.39.39.47.28.29.39.1.48-.48.28-.38.1-.29v-.77l.19-.38.29-.19.29-.19.86-.77.48-.48.76-.67.58.29.57.67.58.57L80,29l.19.19.29.67.38.38.77.1.67.1.57-.2Z"/></g></svg>