<svg xmlns="http://www.w3.org/2000/svg" viewBox="0 0 128 128"><defs><style>.cls-1{fill:#b25fac;stroke:#fff;stroke-linecap:round;stroke-linejoin:round;stroke-width:1.37px;}</style></defs><g id="estados"><path id="BC" class="cls-1" d="M89.37,122h-.51l-.2-.32-.19.06-.13-.12.07-.13.25-.19.26.19.32.32.13.19Zm-30.73-7.25.51.07.07.12-.32.2s-.5-.17-.52-.26Zm8.27,5.07c-.24.45.08,1.06,0,1.54-.3-.24-1.49-.72-1.6-1a1,1,0,0,0-1.73,0c-.65-1.2,1.74-2.59,2.18-3.72-.54-1-.75-2.9.51-3.34.69.28.21,1.26.84,1.6.19.68.17,3.35.38,3.85C67.42,118.91,66.74,119.52,66.91,119.79Zm58.26-6.42.06.13-.32-.13-.06-.19.19-.13.19.13Zm-9.56-4.62-.45-.77-.64-.38-.77-.39-.58-.83.71.19,1.09.77.83.77.26.32Zm-2.5-2.63v.13l-.19-.06-.26-.13-.19-.06-.07-.13v-.19l.26.25.45.07v.12Zm6.86-1c.73.76.16,1.76-.89,1.47.11-.31-.34-.9-.2-1.28.34-.19.79,0,1.09-.19Zm-9.62-3.66-.13.13v.06h-.06l-.07-.06h.07l.06-.07.07-.12v-.13l.06.06.06.07-.06.06ZM101.11,98v.06c-.08,0-.54-.34-.38-.57h-.07c.06-.3-.17-.44-.25-.71C101.22,96.46,100.55,97.81,101.11,98Zm-97,4,.13-.58-.32-1.73-.32-.32-.83-2L2.5,96.31l.64-1.16,1.67-.38.06,2.12.65,1.73L5.45,99.9l-.06,1ZM101,86.56c1.39.32,2.33,2.61,3,3.52-1.41,1,.06,2.35,1.28,2.38,2.25-.48,2.44-.27,2.18,1,.48,1.36-.58,4,1.54,4.24a2.44,2.44,0,0,0-.25,1.6A12.33,12.33,0,0,1,105,95.6a26.27,26.27,0,0,1-3.91-3.27A8.84,8.84,0,0,0,99.7,90c-1.46-1,.29-2.31-.19-3.59,0,0,1,.06,1-.19h.26ZM82.83,76.68h-.2l-.32-.2.13-.19L82.38,76h.32l.06.39Zm-3-3.08.13.06v.13h-.06l-.07-.13-.12-.06h-.07l-.06-.07ZM48.31,64.42h-.26l-.13-.06v-.13l.13-.13h.13l.13.19Zm-23-45.23h-.06l-.07-.26-.06-.19-.07-.06L25,18.42l.13.06.06.13.07.19.06.2ZM72,30.67c0,.38.32.46.22,1.2.35,2,2.3,2.5,3,4.48C75.32,38,70,48.66,76,53.45c1.86,1.48.53,5.19,1.33,7.37,1.27,3.47.06,6.37.53,9.05.3,1.74,1.83,3.22,1.93,5.29,0,1,2.85,3.94,3.28,4.33C84.72,81,84.94,81,85.13,81c1.82.67,3.4,2.83,5.07,4.17,2.63,2.36,5.6,3.61,7.07,7.12.86,2.08,1.84,2.63,2.37,4.49.27,1,.92,1.05.33,1.78.16.51-.2.35.29,1s.73.24,1.11.67c.93,1.07,1.48-.2,1.86.13.38,0,.2.68.38.77.63.44.66,1,1.71,1.78.91.24,3.53,3.48,3.3,5.77-.07.66,3,1.94,4.25,3.25.84.47,1.22,2.14,1.47,3.33a7.36,7.36,0,0,0,.39,2.28c.53,1.71.42,3.2,1.07,4.44-8.44,0-21.64,0-30.1,0,1.28-1.16,1.11-1.76,1.76-3.65.47-1.39.18-1.83.31-3.2.45-2.46,1-3.51,0-5a19.34,19.34,0,0,0-2.2-2.57c-2.47-2.07-3.17-3.83-5.3-5.72-.71-.63-2.37-2.51-1.86-2.1-2.75-2.2-5.56-6.79-7.21-7.68-2.44-1-1.81-1.23-4.54-2.57C62.34,86.93,60.29,86,57,82.89a11.87,11.87,0,0,1-3.41-6.32c-1.29-3.9.29-6.63-1.23-8.23a7.15,7.15,0,0,0-2.71-1.13c-1.28-.68-1.25-1.15-1.2-3.06a7.22,7.22,0,0,0-.29-5.27,17.28,17.28,0,0,0-3-3.83c-.69-.45-2.81-1.76-2.6-3,.68-3.33-.47-5.27-3-8.13a21,21,0,0,1-2.86-3c-.89-1.29-1.1-1.79-1.08-2.68-.26-.88.8-2.28.45-3.09a11.64,11.64,0,0,0-.42-2.2c-.24-1-1.07-1.55-1.44-2.28-1.73-2.05-2.25-3.56-3.33-5.12-1.69-2.43-5-6-4.72-9.75C40.55,13.93,61,12,75.69,11.31c-.21,1.41.09,1.63-.21,5.22-3.69-.09-6.17,4.51-5.68,5.35,1.06.49,1.59,3.42,1.8,4.64C71.88,28.19,71.67,29.37,72,30.67Z"/></g></svg>