<svg xmlns="http://www.w3.org/2000/svg" viewBox="0 0 128 128"><defs><style>.cls-1{fill:#b25fac;stroke:#fff;stroke-linecap:round;stroke-linejoin:round;stroke-width:1.37px;}</style></defs><g id="estados"><path id="SLP" class="cls-1" d="M72.53,51.2c-.14,1.23-.86,3-1,4.2a9.55,9.55,0,0,1,2.1-1.7l.5.1c.12.57.07,1.34.2,1.9.67,1.71,3.42,2.65,2.8,4.8a3.1,3.1,0,0,1-2.1,2,3.22,3.22,0,0,0-1.9,1.1L73,64a6.68,6.68,0,0,0,.8,1.3,14,14,0,0,1,.3,1.4,3.06,3.06,0,0,0,1.5.7c1.92.91,4.23,1.81,6.2,2.6a46.45,46.45,0,0,0,7.1,2.6l.3-.3a11.71,11.71,0,0,0-.7-3.5l.3-.1c1.55.53,2,2.52,3.4,3.3.73-.11,1.24-1.15,1.6-1.7a31.94,31.94,0,0,1,2.5,4.6c.62,1.25,1,2.82,2.3,3.6.94.33,2.14.33,3.1.6s2.08.57,3,.8c1.27.44,2.71,1.23,4.1,1.2a6.64,6.64,0,0,0,2.9.2,8.27,8.27,0,0,0,1-1.2c.92-.64,2.4-.26,3.4-.8l.5-.7a30.11,30.11,0,0,1,4.5,3.2c1.64,1,3.83,1.94,5,3.5,1,3.27-2.42,6-3,9l-.2.1-.3-.3-.3.4a3.48,3.48,0,0,1-1-.2,1.7,1.7,0,0,0-1,.3c-.31,0-1.32-.24-1.6-.3l.1,1a10.29,10.29,0,0,0,1.9-.3v.3a2.46,2.46,0,0,0-.7.7l.2.7-.7.2a2.81,2.81,0,0,0,1,1.9l1.3-.2a2,2,0,0,1,.2,1.2l.8.3c.3.74-.31,1.51-.9,1.9a7.82,7.82,0,0,0-.9.6c0,.1-.1.36-.2.4s-.55-.34-.8-.3a2.44,2.44,0,0,0-.5.4v.3l.3.2-.5.5-1.2-.2-.5.4a8.92,8.92,0,0,0,0,2c-.12.12-.47.44-.5.6.26,1.29,1.86,1.89,2.9,2.4a2.46,2.46,0,0,1,1,2.2c0,.79.16,1.71.1,2.5-.73.36-1.85.34-2.4,1a18.78,18.78,0,0,1-.1,5.4l-.3-.2a1.12,1.12,0,0,0-1,.5,3.94,3.94,0,0,1-1.7-.3,8.71,8.71,0,0,0-2.4.7,2.09,2.09,0,0,1-2.4.2c-.57-.44-1.55-.51-2-1.1a8.43,8.43,0,0,1-.6-1.9c-.19-.14-.31-.45-.5-.6a3.81,3.81,0,0,0-2.7.1l-.6.7a2.47,2.47,0,0,0-2.1-.8,24.79,24.79,0,0,0,.4-3.1c-1.54-2.6-2.21-6-3.1-8.9l-.1.7c-.37.68-1.35.91-1.8,1.5V109c-.51.6-1,.78-1.7.3-.78,0-.76.94-.8,1.5-.63.54-.81,1.52-1.4,2.1a1.84,1.84,0,0,1-1.2-.1,6.62,6.62,0,0,0-1.4.4l-.4.6c-.92.29-2.3-.27-3,.5-.79-.07-1-1-1.8-1.2a4.84,4.84,0,0,0-.5-1.2c-.15-.19-.45-.3-.6-.5a5.64,5.64,0,0,0-1.8-1.3l-.9.3a20.44,20.44,0,0,0-1.3,3,14.81,14.81,0,0,0-2.8-1.3,20.9,20.9,0,0,1-2.5-.1c-1.25-.79-2.45-2.41-3.7-3.2a33.83,33.83,0,0,0-3.4-1.2l-1.9-.5a7.88,7.88,0,0,0-1.9-.9,9.76,9.76,0,0,0-2.5-1.1,1.16,1.16,0,0,0-1.1-.5,4.48,4.48,0,0,0-1,.7,6.32,6.32,0,0,0-.9,2c-.34.89-.22,2.06-.7,2.9-1,1-2.73.65-4,.7-1.38-.91-2.7-2.4-4.1-3.3a78.21,78.21,0,0,1-6.4-5.5,10.59,10.59,0,0,0-5.2-.6c-1.62.44-3.75,1-4.8-.7a2,2,0,0,1-.2-1.5,2,2,0,0,0-.6-1.1c-2.06-.89-3.58,1.86-5.6,1.5l-1.2-.7c1.85-2.47,4.35-5.74,6.1-8.3.23-1-.27-3.62-.3-4.7-.26-1.31-1.1-3.29-1.4-4.6a2.62,2.62,0,0,1,1.1-2.4,4.34,4.34,0,0,0,1.5-1,10.71,10.71,0,0,0-.9-2.6,6,6,0,0,0-1.3-2.4,22.77,22.77,0,0,0-3.2-.1c-1.13,0-2.73,0-3.6.8a22.1,22.1,0,0,1-1.5,3,6.18,6.18,0,0,1-1.7.2,9.31,9.31,0,0,0-1.7,1.1c-3.74,1.68-4.89-5.94-7.9-7.1a1.53,1.53,0,0,1-1.1-.3A16.1,16.1,0,0,0,8.93,69a12.81,12.81,0,0,1-3.4-4.1,45.14,45.14,0,0,0-2.2-4.8c-.41-1.18.74-2.19.9-3.3-.2-1.17-.62-2.63-.9-3.8-.35-.56-1.07-.92-1.5-1.4a2.06,2.06,0,0,1,.3-1.3l.5-.1a1.82,1.82,0,0,0,1,.2c1.2-1.19.62-3.49,1.7-4.8.66,0,1.49-.29,2,.3a6,6,0,0,0-.2,1.5l.6.3c2.18-.39,4.07-2.2,5.5-3.8,1.32-1.78,2.51-4.07,4.6-5.1.44-.26,1.12-.17,1.6-.3,1-.32,1-1.58,1.5-2.3,1.19-1.42,3.2-2.33,4.8-3.2a20.62,20.62,0,0,0,5.4-4.8,8.93,8.93,0,0,1,2.4-2.5c.64-.2,1.59-.2,2.1-.7,1.53-2.73,3.44-6.23,5.1-8.9,1.44-2.69,3.1-6,6.2-7.1a12.6,12.6,0,0,0,1.3-3.4c1.62,1.75,3,4.22,4.5,6.1.57.93,1.65,1.7,2.1,2.7,1,4.24-.44,9,1.2,13.1.76,1.21,2,2.66,2.9,3.8a12,12,0,0,1-.2,5.5,42,42,0,0,0,1.2,5.1c.32,1.09-.69,2.18-.5,3.3a4.42,4.42,0,0,1,.5,2.1c0,1.64-.29,3.83,1.1,5a11.48,11.48,0,0,0,2.6.7l.3-.1a9.14,9.14,0,0,0,.1-2.1A50.28,50.28,0,0,1,72.53,51.2Z"/></g></svg>