<svg xmlns="http://www.w3.org/2000/svg" viewBox="0 0 128 128"><defs><style>.cls-1{fill:#b25fac;stroke:#fff;stroke-linecap:round;stroke-linejoin:round;stroke-width:1.37px;}</style></defs><g id="estados"><path id="BCS" class="cls-1" d="M113,94.75l-.12.36c-.38-.13-.95-.19-1.34-.3l.06-.19a7.61,7.61,0,0,1-1-2.24,1.16,1.16,0,0,1,.18-.37l-.42-.85c0-.21.07-.83.06-1h.12l.18.24v.31c.55.48.65,1.35,1.16,1.88.2.54.73,1,1,1.58a1.06,1.06,0,0,0,.18.61ZM102.32,86a3.35,3.35,0,0,1,1.09.6c.08.37.28,1.06.24,1l-.36.25.06.3a.5.5,0,0,1,0,.27l-.55.07c0-.08-.25-.28-.25-.28s-.37,0-.37,0a1.18,1.18,0,0,0-.12-.36l.31-.25c-.25-.27-.55-1.37-.67-1.27.1,0-.18-.55-.18-.55l-.25-.54.37-.43a4.09,4.09,0,0,0,.67.67ZM97.39,76.5a.81.81,0,0,0,.37.36,7.65,7.65,0,0,1,.12,1.28,6.5,6.5,0,0,0,.85,1.58.75.75,0,0,1-.73.12l-.18-.24a3.78,3.78,0,0,1-.73-.55l-.49-.3a8.53,8.53,0,0,1-.91-2l-.55-.24c-.15-.3,0-.66,0-1,0-.15,0-.52.13-.61.29.27.32.92.73,1.09a3.47,3.47,0,0,1,1.39.43Zm-2.53-3.27-.06.06v-.12l.12-.12v.12l-.06.06Zm-.25-1.4a.44.44,0,0,1-.3.06,1.07,1.07,0,0,1-.12-.61l.36-.36h.37L95,70.8a10.59,10.59,0,0,0-.43,1Zm-.79-7.11-.6-.12a1.79,1.79,0,0,1,.06-2.24l.18-.07.18.43a10.55,10.55,0,0,0,.18,2Zm-5.4-2.49.3.43.12.36c0,.19-.42.55-.42.55a3.55,3.55,0,0,1-.18-.61c-.11-.16.06-.67.06-.67l.12-.06Zm.2-7.92a1.84,1.84,0,0,0-.43,1.58h.18s.13.6.07.67l-.86-.67a21.24,21.24,0,0,1-1.33,2,2.53,2.53,0,0,0,0,.79l-.43.42c0,.2-.57.06-.54-.12a3.83,3.83,0,0,0,.42-1.64c.18-.23.69-1.05.77-1.17s-.13-1.14-.1-1.26a5,5,0,0,0,.73-.43l.18-.12.12.18.91-.18.31-.06ZM81,42.8l-.06.06c0-.06-.07-.22-.13-.25v-.18c.1.09.22.23.19.37ZM69,30.59l-.3.3-.37-.06-.18-.91-.24-.24.36-.49a2.56,2.56,0,0,1,.85.91l-.12.49Zm3.64-5.11a3.07,3.07,0,0,1-.6.07l-.25-.19.06-.3a1,1,0,0,1,.73.06l.13.18ZM9.39,16.37a.62.62,0,0,1-.3.06,1,1,0,0,0-.24-.66,3.58,3.58,0,0,0-.55-.19l.06-.18a.71.71,0,0,0,.42.12c.18.25.63.33.67.67l-.06.18Zm18.35-3.22h1.09a2.88,2.88,0,0,1,.36.61l.73-.06a1.69,1.69,0,0,0-.12-.55H55.31a5,5,0,0,0,.19.73,13.43,13.43,0,0,0,.3,3l.36.06a6.14,6.14,0,0,0,.12.91c.48.47,1.29,1.67,1.77,2.13,1.67.8,3.79,1.68,5.1,3,0,.2.7,1.6.73,1.89.68,1.48,1.5,3.08,2.31,4.49L67.39,31A9.18,9.18,0,0,1,70,32.78c.28,1.49-.27,3.4,1.33,4.38.3,0,1.47.11,1.75.11a3.5,3.5,0,0,1,.85.18c3.42,1.55,4.94,6,6.2,9.29a19.39,19.39,0,0,1,1.33,4.07l.61,1.58c1,2.16.1,5.47,1.28,7.6l.06.3,1.15,1.82c.8,1.64,1.64,2.17,3.22,4.07,1.08,2.07,1.46,3.5,2.37,5.41,1.2,3.44,4.54,5.87,5.16,9.41l.31.43-.13.91a8.47,8.47,0,0,0-.36,6.8l-.18.18c.77,3.25,3.82,4.78,6.56,6-.07-.92-.49-3.91-.62-4.87l.89-.53c1.21,1,8.13,6.23,9.57,7.26a3.33,3.33,0,0,1,.48,1.09c1.12,2.16,1.76,4.78,3.23,6.93,3.93,3.18,5.24,5.54,3.68,10-.53,1.78-3.56,3.47-4.94,4.54-3.4,2.7-6.74,4.78-8.49-1-1.88-8.14-3.06-9.94-9.36-13.4C89.07,97.16,85.64,96.41,74.74,88H74.5l1.1,3.47-.78.61-5.07-4,2.42-1.5c-.54-4.63-5.85-3-9-4.12.44-1.17,2.32-7.85,2.94-8.73a16,16,0,0,0,1.45-7.09c0-14.91-11.08-13.7-18.3-23-.54-.75-1.85-2.6-2.77-2.92a15.2,15.2,0,0,0-3.87-1c-1.28.25-3.22,2.77-5,1.31-1.58-.9-3.14-4.86-5.71-5.24A48.71,48.71,0,0,1,22,30.4l-2-4.34c-2-1.82-5.24-4.14-7.37-5.81l-1.91-2.91.79-.3a11.46,11.46,0,0,1,2.64-.59,17.82,17.82,0,0,1,3.68.9,9,9,0,0,0,3.94-.08c1-.45,3-1.71,4.19-1.26,0,.22.12.57.13.79A3.41,3.41,0,0,1,25.67,18a3,3,0,0,0,1,1.16,1.93,1.93,0,0,0,1.28.73c.32.25,1.53,1.32,1.76,1.51l.18.31a12.1,12.1,0,0,0,.91-1,3,3,0,0,1,0-.85c.38.19,1.38.85,1.83.79.15-.38.6-1.4.6-1.4A5.48,5.48,0,0,1,32,18.44s-1.25-.81-1.46-1l-.18.06c0,.12.55,1.45.55,1.45l-1.64.37a10.79,10.79,0,0,1-.92-1.94,4,4,0,0,1,.73-1.58,10.82,10.82,0,0,0-.79-1.34,1.76,1.76,0,0,1-1.21.61l-.43-.73C27.11,14.06,27.33,13.49,27.74,13.15Z"/></g></svg>