<svg xmlns="http://www.w3.org/2000/svg" viewBox="0 0 128 128"><defs><style>.cls-1{fill:#b25fac;stroke:#fff;stroke-linecap:round;stroke-linejoin:round;stroke-width:1.37px;}</style></defs><g id="estados"><path id="COAH" class="cls-1" d="M107.32,51.69l-.6.47-.54.47-.53.54-.54.53-1.21,1.14h-.2l-.13-.07-.34-.33-3.88-3.28-.13.06-.27.2-.4.34-.74.53-.8.47-.81.61-.53.6-.34.8-.2.94-.2,1-.2.8-.2,1-.2,1.34L94.06,61l-.47.6-.4.21-.2.06h-.2l-.14-.13v-.2l-.07-.2h-.13L90,62.27l-.27.21-.26.26-.27.34-.27.27L87,64.55l-.41.2-.33.27-.2.27-.07.47.34,2.88.33.13.4.07.27.27-.07.6.47-.07.34-.06.27-.21.06-.33-.06-.13-.07-.14-.14-.13V68.5l.14-.13h.4l.13-.07L89,68,89,67.7h.13l.27.4.4.27.6.07.54.06.4.27.13.47.07.74-.07.73v.54l.07.47v1l-.07.47-.33,1.21-.34,1.2-.47,1.14-.73,1-.34.33-.33.34-.4.33-.34.34-.87-2.68-.8.67-1.48,1.2-1.47,1.27L82.2,80.83,80.73,82.1l-1.61,1.34-1.54,1.41.67.6.81.74.73.8.54.8.07.4.06.41.14.4.2.33.26.41.21.2.26.06h.41l.4.14.33.27.34.33.27.33.2.67.06.61V93l.2.6.47.4.61.27.53.33.07.61-.07.87-.13.87v.87l.13.8.34.87.47.87.53.81.54.74.4.46.4.2.4.07H89l.2.07.2.07.13.13.2.13.14.27-.07.2V104l.27.14h.6l.27.13.2.27.07.27v.6l-.6-.2-.67-.34-.74-.2-.54.07-.13.47.67.33.8.34.47.47.14.46.53.54.81.2.8.2.53.47v.2l-.13.2v.2l.2.2.34.07.47-.13.4-.14.4-.06.33.06.41.07.4.07h.73l.21.13.53.4.54.34.67.4.26.34-.67.2-.2.06-.2.07-.2.13-.06.2v.21l.06.53v.2l-.27.14-.46-.07H96.2l-.53.2-.47.07-.47.06-.54-.2-.53-.2-.54-.2-.54-.13-.53-.14H90.64l-1.27.41-1.21.67-1.2.8-.54.6-.53,1-.34.87.54.33.4.07.33.33.67.67.27.47-.06.34-.34.27-.4.26-.47.34-.07.4.07.4.2.67.2.6.14.54v.47l-.14.6-.27,1.07L86.29,125,86,126.1l-.2,1.08-.4-.27-.4-.27-.87-.47-.4-.13-.34.06-.4.14-.4.13-.81-.07-.87-.4-.8-.53-.54-.61-.13-.4-.13-.4-.07-.4-.2-.34-.2-.4-.27-.4-.27-.33-.27-.34-.73-.47-.74-.13-.74.06-.87.21v-.14l-.06-.33v-.14l-.41.4-.46.47-.81.87-.4.27-.4.07-.47-.07h-.47l-1.74-.13h-.6l-.27-.2-.2-.47-.2-.54-.14-.4.47.13.4.14.4.13.47.07-.06-.47v-.47l-.14-.47-.2-.4-.27-.2-.33-.2-.34-.2H67.54l-.88-.2-.73-.47-.6-.6-.27-.61-.34-.8-.4-.8-.4-.41-6.57-2-.6-.06-.6.06-.6.14-.61.07-1.54.2-4.69.46-.66.07-.41.14-.33.26-.4.61L45,117.66l-.33.47-.41.61-.53.53-.47.14-.07,4-.47-.4-.46-.34-.47-.33-.47-.34-.87-.4-.87-.34-.87-.2-.88-.2-.93-.27-.94-.33-.87-.54-.54-.87-.13-.87v-1.87l-.34-.74-.73-.54-.87-.46-.81-.54-.47-.74-.26-.6L30.7,112l-.34-.4-.4-.33-.33-.21-.27-.26-.14-.27-.06-.4.06-.67.27-.61.27-.6.4-.53.2-.14.47-.13.14-.14-.07-.2-.14-.27-.26-.26-.2-.2L30,106l-.27-.33-.2-.41v-.46l.14-.41.2-.26.27-.21.33-.2.2-.2.2-.13.27-.07.13-.2.2-.27.14-.2.4-.4.2-.4.14-.34.2-.26.4-.21.2-.33.07-.67v-.74l-.07-.6L33,97.57,33,96.9l-.07-.67-.07-.67-.13-1.2-.14-1.21-.06-1.27.13-1.14L33,89.6l.46-1.07L34,87.46l.2-1.21-.27-1.2L33,84,32,83.1,31,82.37l-.8-.81-.87-.73-1.68-1.48-1-.87-.94-4-.33-1.34-1.07-4.55-2.22-9.18-1.07-4.55-.47-2.21-.87-3.75-.13-.74.67-1.2.94-1.68.87-1.67.87-1.74.87-1.68,1.34-2.54,1.27-2.55,1.74-3.35,1.74-3.35L31.64,25l1.9-3.63a6.13,6.13,0,0,0,4.52-1l.14-.2.2-.21,1.74-2.07,1.2-2.73L42,12.92l.83-2.75,1-2.18,1-2L46,5l.39-.3.84-.61L50.58,2,53.7.85,55.55,1l10,1.3,4.88.11.07-.14.2.07L72.16,3l.2.07.6.47.2-.07.2-.07.2-.07-.06.27.06.34,2.19,2.33,1.3,1,1.12,1,2.69,3.06.27-.06.2-.2.14.4L84.12,14,86,15.66l.4.27.27.4.47.8,1.07,1.74.07.14.13.2.2.07h.27l.2.06.2.34.14,1.4.4,1,1.41,3.21.46.74.14.13.07.14.13.2.07.13.13.27,1.61,3.89.67.8.2.2.13.2-.06.6v.27l.33.47.4.27.87.33-.6.34-.13.2.06.27.14.2.2.13.06.14L97,37.76l.33.54,1.41,2.07h.13l.07.2,2.68,2,.4.4.13.53.07.34.07.13.26.34.27.27.2.06-.06.14v.13l-.07.13.13.41.2.33.21.27.26.4.34.13.4.07.27.2-.2.34.2.33.33.47.34.34.33.2.07.06-.07.27.47,2.08.34.27.2.26v.14l.53.07.07.06Z"/></g></svg>