<svg xmlns="http://www.w3.org/2000/svg" viewBox="0 0 128 128"><defs><style>.cls-1{fill:#b25fac;stroke:#fff;stroke-linecap:round;stroke-linejoin:round;stroke-width:1.37px;}</style></defs><g id="estados"><path id="GTO" class="cls-1" d="M116.47,40.82v.56l-.28.7-.14.56.28.57.14.7v.42l-.14.42-.14.56.14,1.55.84.7,1.12.14,1.27.14.56.42V49l-.28.56-.56.56-1.13.43-.42.14-.42.42-.28.56-.28.42-.14.42-.7.28-1.13.42-1.26.14L112.26,53l-.71-.84-.56-.42-.7-.28-.7-.28-.7-.14-1.13.14-1.12.28-1.12.7-.7,1-.57,1.55L104,56.4l-.14,1.83-.14,1.68V61l-.14,1.13-.28,1.12-.42,1-.42.28-.28.14-.42.14-.42.14-.28.29-.29.42-.28.42-.42.28h-1l-.7-.56L97.8,65l-.57-.7L97.09,64h-.28L96,63.84l-.84.42-.7.56-.7.43-.85.28H92l-.84-.14-1-.14L89,64.82,88.53,64l-.14-1.12-.7-.7h-.84l-.71.84-.42,1.12L85.3,65l-.7.57-.28.84v1.68l-.14.71-.28.84-.42.7-.42.7-.85,2-.14,2,.42,2,.85,2,.56.85.56.84.56.84.42.84.14,1.83v1.68l.14,1.69L86.43,89l.7.84.84,1,1,1,.7,1L90.08,94l.56,1.13.84.42.7.42.56,1,.42.28.57.14.42.14.42.29-.7.7-.43.56-.28.56-.42.84-.14.42-.42.71-.42.56-.42.28-.7-.14h-.56l-.14.28v.28l.14.14v.14l-.43.84-.14.42V105l.57,1,.28,1.68v1.41l-.71.56-2.1.14-1.12.14-1,.28-.56.56-.28.84-.28.71-.7.14-.42-.29-.14-.42.14-.56-.14-.56-.71-.14h-1l-1.82.14-2.39.14H75.48l-.43.14-.28.42v1H73.65l-.7-.15-.56-.42-.42-.84-.28-.56-.85-.7-.42-.56-.56.84-.7.7-.7.42-1,.28-.7.14H65.23l-.7-.28-1.13-.42-1.26-.56-1-.7-.28-1.13.84-.7,1-.42.84-.42.14-.84-.56-.56-.14-.28.14-.43V104l-.14-.28-1-.42H59.89l-1,.42-.7.14-.56-.14-.42-.42-.43-.42-1.12.28-.42,1L55,105.4l-.7.84-.85.28h-.84l-1-.28-.7-.42-.7-.14-.43.14-.56.14h-1l-.7-.56h-.28l-.42.14-.42.14L46,106l-.42.14-1.26-.7v-1.13l.42-1.4.14-1.4-.14-.28v-.29l-.28-.28-.28-.42v-.14l.14-.14.14-.28.14-.28v-.28l.14-.28v-.28l-.28-.42L44.17,98l-.28-.14-.14-.43.42-.7,1.68-.84.42-.7-.28-.7-.84-.57-1-.28-.84-.14h-.56l-.29-.28-.14-.42.14-.56-.84.14-1.54-.28-.84.14h-.43l-1,.42-.28.14H36l-.28.14-.14.42-.14.42.14.57v.42l-.14.42-.43.7-.14.28-.28.7L33.5,98.24l-.42.7-.7-.56-.71-.14H30.13L28.87,98h-.42L28,98.1l-.42.42H27l-.7-.42L25.92,98l-.42.14-.56.42H23.39l-.56-.14-.28-.56-.28-1.13-.14-.28-.28-.14L21.71,96l-.42-4.21-.42-1.12-.57-.43-.84.29L19,91.78l-.56.42-.56-.56.28-1L18.9,89l-4.63.7.14-.7.7-1.68L16,85.88l1.12-1.54,1.27-1.27,1.26-1.4.56-1.4-.42-2-.28-.56-1.12-1.12-1.12-1-1.27-1-1-1.12-.42-1.41.28-1.54.56-1.4.7-1.41.56-1.12,1.83-3.09,1.26-2,1.27-2,1.26-1.82L23.81,56l.28-.42.29-.42.28-.84.42-.71.7-.42.56-.42.56-.42.42-.56.56-1.12.29-.57.56-.28.84-.14H32l.56-.14.56-.42.56-.42,1.12-1,1.13-1,1-1.13.7-1.4.28-1V41.38l-.28-.84-1-1.55-1-1.4-.85-1.4-.14-1.83,1.13-1.54,1.82-1.13,1.55-1.26.28-1.54-.71-1-.7-1-.7-1L37,24.81l.28-1.12.84-1.12,1.83-2,1.68,1h1.41L44.31,21,46,19.9l.43-.14,1-.42,1.12-.14,1,.28.71.84.14.7-.14.71.14.7.28.7.28.42.56.42.42.42.56.28,1.55.14,1.68-.28,1.69-.42L58.91,24h1.4l1.55.14,1.4.42,1.41.43.7.56.7.7,1.4,1.4,2,1.69L71.55,31l2.1,1.69,2.11,1.54.84.84,1,.85.84.7,1,.7H82.5L84,37l1-.7.42-1,.14-1,.14-1.12.28-1,.15-.57.28-.7.28-.56.28-.56.28-.42.42-.42.56-.28.42-.29h.56l.42.15.29.28.28.28.56.14.42.14.42.14.56.28.7.42.85.42.84.28.84.42.56.28.42.28.56.15.57.14,1.54.42,1.4.42,1.41.56,1.54.42.42.28,1.69,1.26,1.68,1.83,1.83,1.4,1.82.14h1.69l1.4.43,1.12.7,1.41.7Z"/></g></svg>