<svg xmlns="http://www.w3.org/2000/svg" viewBox="0 0 128 128"><defs><style>.cls-1{fill:#b25fac;stroke:#fff;stroke-linecap:round;stroke-linejoin:round;stroke-width:1.18px;}</style></defs><g id="estados"><path id="MEX2723" class="cls-1" d="M126.81,62c.36,1.22,0,2.83.08,4.08l-.68-.17-.34.53a26.57,26.57,0,0,1-.08,3.46c-1,.84-2.71,1.37-3.48,2.4a7.11,7.11,0,0,0,.17,2.75c.36,2.28-1.73,3.85-2.47,5.77.89,3.44,4,7.11,1.11,10.47a2.79,2.79,0,0,1-1.19-2.13s-3.46.52-4.76-.44c-.91-.57-1.75-2.29-3-1.6a6.13,6.13,0,0,1,0,1.42l6.28,3.55c.39.1,2,.46,2.38.62L120.27,94c-2-.62-6.82-3.39-8.67-3.82-1.4-.08-3.66.25-4.93-.44l-.76-.57c-.62,0-.66-.42-1.25-.69,0,0-.81-.48-.11-1.45l1.39-1.81c-.41-.65-2.06-.17-2.36-.18-.13.27-1.09,1.41-.9,1.06a12,12,0,0,0-1.78-2.84c-1.87-.63.17,4.08.17,4.08l.17.44a6.2,6.2,0,0,1-2.81.8c1,.55,3.15-.11,4.17.44l.25.89c-3.3-1.33-6.88.86-10.28.27a4.2,4.2,0,0,0,0,.62A5.38,5.38,0,0,1,91.3,91L90,91.29l-.08.45c-.24.05-.86.79-.94.88l-.59.27a2.46,2.46,0,0,0-2,1.33l.17.62c-.42.24-.92.74-1.44.8v.45l-1.79.26-2.12.53-.25.36-.85.44c-1.32.86-3.21.3-4.42,1.33a29.31,29.31,0,0,1-4.84,1.6l-.26.36a19.06,19.06,0,0,0-3.23,1.42.72.72,0,0,1-.42.26l-.6.18.09.45a14.42,14.42,0,0,0-3,1.59c-1.61-.14-3.69,0-5.26-.44l-.34.44a3.3,3.3,0,0,1-2.81.54l-.17.17a20,20,0,0,0-7.73-2.22c-1.42-1.33-4-1.63-5.44-2.75l.09-.09-.43-.8-.42.09a13.91,13.91,0,0,0-7.22-2.57c-1.28.64-3.69-.2-4.93-.71-1,.39-2.47-.36-3.48-.27-.14.11-.45.35-.6.45-2.66-.23-4.94-1.95-7-3.64-1.67-1.32-4.63-2.14-6.12-3.55a3.07,3.07,0,0,0,1.27,0,2.55,2.55,0,0,0-1.1-.36c0-.19-.34-.35-.34-.35-.18.06-.33.29-.51.35-2.92-1-6.82-1.48-9.6-2.84,1.85-2.45,5.83-.23,6.46-4.35A11,11,0,0,0,7,80.29v-.62c.56-1.44,2-.45,3-.89.74-1.11.23-2.5-.17-3.64.92-.47,2,.31,2.89-.45a5.83,5.83,0,0,0,1.61-1.77,13.45,13.45,0,0,0,.34-3.55A9.4,9.4,0,0,0,16.28,66c-.8-2.14-2.64-4.07-4-5.86-.64-.29-1.48,0-2.12-.27-.46-.54-.73-1.5-1.19-2a5.33,5.33,0,0,1-1.36-.71c-.37-.71.11-1.58.17-2.31-.07-.16-.26-.71-.42-.8.68-1.2-.19-2.3-1.11-3a2.42,2.42,0,0,1-.08-1.25l.42-.44A.64.64,0,0,0,6.51,49c-.16,0-.51-.51-.6-.62-.13-2.6,1.23-5.13,1.53-7.54l-.51-.53a6.2,6.2,0,0,0,1-.89,3,3,0,0,0,1.87.26c1.1-.72,1.2-2.5,2.12-3.28,2.07-.13,4.34.31,6.38-.35,1.05.78.23,2.69,1.35,3.55,1.56,0,2.85-1.37,3.74-2.58.3-1.88-1.82-2.42-2.29-3.9A26.92,26.92,0,0,1,24,27.83l.34.09c.82-.2,1.65-1.18,2.46-1.42.21,1.87-1.14,3.71-.93,5.59.74,1,2.14,1.2,2.8,2.22a4.52,4.52,0,0,0,1.53,3.19c2,1,2.17-2.73,3.31-3.72A5.92,5.92,0,0,1,38,31.91c1.63.61,3.38,1.73,5.18,1.51,1.28-.87,1.67-2.75,3.06-3.55,2.77-.68,3.17-2.21,4.08-4.88.91-1,2.23-2.34,2.54-3.73,0-1.27-.7-2.65-.85-3.9A9.92,9.92,0,0,0,55.78,20c1.21.33,3.13.27,3.32,1.95s.76,3.75,2.12,4.79c1.65.76,2.22,2.61,2.46,4.35l.26.27H64l.34.27a1.27,1.27,0,0,1,.94,0l.08.17a1.25,1.25,0,0,0-.08.54,1.56,1.56,0,0,0,1.61.53c.23-.19.45-.7.68-.89.79,0,1.59.29,2.38.36,1.14-.6,2.21.82,3.4.71a3.81,3.81,0,0,0,.85.44c.68,1.08,1,2.6,1.61,3.73-.43,2.48-3,3.88-3.57,6.21-.13,1.25.89,2.51,1.28,3.64.7,1.37,1.68,4.49,3.48,4.62,1.09-.14,2.13-1.26,3.23-.36.21,0,.55-.39.68-.53a1.44,1.44,0,0,0,.68-.09c0-1,1.45-1.37,2.21-1.6a2.78,2.78,0,0,1,3.06-1.51v-.35l.17-.18c1.12.12,1.66-.83,2.12-1.69a2.28,2.28,0,0,1,.94.45l.17-.18L90,45.23l.17-.18c.21,0,.64-.11.85-.09l.26.27c.18.67-.22,1.51-.17,2.22a1.72,1.72,0,0,0-1.36,1.86c1.4,2,3.36,3.75,4.84,5.68,1.13.26,2.64.84,2.55,2.31a.81.81,0,0,1-.26.18l-.08.17.51,1.87c9.16,2.09,20,1.44,29.48,2.48Z"/></g></svg>