<svg xmlns="http://www.w3.org/2000/svg" viewBox="0 0 128 128"><defs><style>.cls-1{fill:#b25fac;stroke:#fff;stroke-linecap:round;stroke-linejoin:round;stroke-width:1.37px;}</style></defs><g id="estados"><path id="Ver" class="cls-1" d="M46.06,25.06l-.18.25-.56-.13-.49-.68-.31-1-.13-.8.31.31.13.37.06.5.18.37.68.49.31.31Zm-9.8-4c-1.08,1-1.68-1.67-1.74-2.46C35.12,19.44,35.19,20.5,36.26,21.06ZM33,9.48c0,5.64,5.27,11.35,8.56,14.81,2,2.12-.6,4.42-.67,6.82-.27-.93-2.24-3.34-.91-4.05.72-.34,1,.12,1-.95-.75-2-3.77-3.4-4.72-5.64s-2.57-4.73-3.63-7c2.14,4.2,1.08,10.18,4.79,13.6,1.31-.41,1.32,0,.91,1.23a17.22,17.22,0,0,0,2,3.95c1.1,4.55,4.09,8.41,5.92,12.22,2.95,6.16,9,9.61,12.58,15.52,3.36,3.72,2.15,9.62,5,13.21.83,1.19,2.09,2.76,2.84,3.84,1.21,1.72,1.43,2.49,2.91,2.91a5.24,5.24,0,0,0,2.54,4.2c.79.26,1.72-.19,1.31,1-1.29-.62-.79-.28-1.59-.44,1.24.25.06.08.76,1-.41,0,.8.64,1,0,.23-.11,1.11.36,1.86.52a9.1,9.1,0,0,0,1.75.2c1.34,0,1.06-.12-.59-.76-4.13-1.59,5.79-.12,12.77,3.61,1.24.66,3.1,1.48,4.31,2.12.63,1.83,2.4,3.1,3.23,4.85,1.63,3.43,6.81,1.18,10,1.37-.3.88.81,1.07.88,1.68-.32.69.59,1.1.06,1.55,1.16,1.31.25,2.49.26,4.08a7.1,7.1,0,0,0,2.2,1.1c.71.88.64,2.06,2.2,1.88.34,1.18,1.83.67,2.66,1.55.3,1.62,3,1.95,2.2,3.62-1.28,2.5,2.11,2.82-.65,4.6-7,5.72-17.72,1.08-26.15,1.49-1.32-.37-.83-1.82-1-2.66-1.85-1.43-4.54-3.12-5.44-5.43.15-1.06,1.55-1.35,1.1-2.72-1-.82-.61.88-1.36.19-1.06.77-1.74,1.62-3.36,1.69-.69.92-2.31,1.1-2.66,2.13-5,1.63-5.1-.38-7.12-4.72-.2-1.71,1.71-2.67,2.33-4.08a3.25,3.25,0,0,0-2.65-4.34c-.89-.67-2-.1-3-.52-.58-.1-.61,1-1.29.65a.72.72,0,0,1-.71-.9c-.45-.13-.92.07-1.23-.39-.37-2.94-3.63-4-3.69-7.25-1.62-1-3.92-1-5.18-2.78,1.21,1.81-.14,7-2.2,4.53-.59-.56,0-2.34-1.17-2a10.09,10.09,0,0,0-4.27,1.49c-1.66,0-1.34-.52-1.16-1.87-.64-.43-.51-1.08-.72-1.69-.73-.37-1.73-.85-2.52-.39-1.67.32-2.42-3.06-.91-3.75.74-1.46,2.15-.74,1.1-2.91-.13-2.3-1.6-4,1.3-4.73.59-.3,1.26.59,1.74.07,0-.57.5-.45.91-.46,3.59-2.91-1.34-1.92-3.24-2.58-.73-.22-.72-1.56-1.48-1.56-.65.35-.83.21-1.17-.39-3-.55-.13-.44.39-1.36-.35-.69-1.49-1.95-1.43-2.65-.12-1.47,1.68-1.62,1.69-3.17-.37-3,.86-5.2,3.17-7.19,1.16-1.66-1.29-1.69-2.27-2.33-1.3-.66-3.25-2.65-4.4-.71-3,5.06-1.51-.45-3.69.91-.84.15-.66-.93-1.1-1.3s-1.28-.43-1.29-1.1c1-.91-.56-2.83.45-3.3.59.29.87-.41,1.3-.58,1,1.65,1.71.89,2.46-.45.82-1-.42-2.53-1.56-2.53-.78-.11-2.09.23-1.1-.9-.95-.94-.52-2.28-1.1-3.31-.62-.76-1.67-.17-2.46-.64-.72.31-.09,1.28-.58,1.68-2,1,.11,3.57-1.42,5.37-1.62,1-.59-1.5-.65-2.13-.95-3.18-2.56-2-4,.45-1.41,1.31-2.14,3.58-3.82,2.72-.16,1.43-2.1,3.35-2.66,1.1-1.81-1.9-.2-2-.06-3.95.14-1.45,2.61-1.78,2.2-3.5-.59.18-2.19.74-1.36-.58.67-.17,1.48,0,1.42-1-1.22-2.44,2.11-.76,3.11-.26,1.26.26.22-1,.45-1.68a3.48,3.48,0,0,1,1.69-2.52c1.39-1.17-.66-1.84-1.17-2.85-1.74,1.63-1.43-.29-1.1-1.56-.88-1.72-1,4.27-4-.26-1.4-.29-.27-2,.39-2.58-2.18-.66-.93-2.86-2.2-4.08-1-.41-2.3-1.11-1.55-2.27-.45-1.43.79-.91,1.42-1.42-.94-.74,2.51-.57,1.94-2.27-.87-.23-.24-1.31-1.49-.84-.95-.75.93-2.67.13-2.26-.32.16-.28-.42-.26-.46.71-1.28,3.11-2.79,3.89-4.85.94-2.5-3.84-3.26-5.44-5,2.68-.8,4.23.08,6.28.39.46-.25.13-1.07.39-1.49A2.11,2.11,0,0,0,24.09,5c1.16,2.39,3.34,2.32,5.57,3.36.95.34.17.72.26,1.3C31,11.24,31.69,10.38,33,9.48Z"/></g></svg>