<?xml version="1.0" encoding="UTF-8"?><svg xmlns="http://www.w3.org/2000/svg" xmlns:xlink="http://www.w3.org/1999/xlink" viewBox="0 0 221 218"><defs><style>.v{fill:none;filter:url(#g);stroke:#f9bfb4;stroke-miterlimit:10;stroke-width:.87px;}.w{fill:#f9bfb4;}</style><filter id="g" filterUnits="userSpaceOnUse"><feOffset dx="0" dy="3.11"/><feGaussianBlur result="h" stdDeviation="3.11"/><feFlood flood-color="#000" flood-opacity=".54"/><feComposite in2="h" operator="in"/><feComposite in="SourceGraphic"/></filter></defs><g id="a"/><g id="b"/><g id="c"/><g id="d"/><g id="e"/><g id="f"><rect class="v" x="10.97" y="7.53" width="198.83" height="196.26" transform="translate(220.77 211.32) rotate(180)"/><g><path class="w" d="M74.2,57.65c-1.98,0-4.3-1.04-6.08-2.55l-3.39,4.13c2.58,2.38,6.08,3.59,9.33,3.59,6.04,0,9.53-3.66,9.53-7.82,0-3.52-1.85-5.61-4.93-6.85l-3.12-1.24c-2.21-.87-3.79-1.41-3.79-2.79s1.14-2.08,2.99-2.08c1.95,0,3.49,.67,5.14,1.91l2.99-3.76c-2.18-2.18-5.24-3.29-8.12-3.29-5.3,0-9.06,3.36-9.06,7.55,0,3.63,2.45,5.81,5.07,6.85l3.19,1.34c2.15,.91,3.53,1.38,3.53,2.82,0,1.34-1.04,2.18-3.26,2.18Z"/><path class="w" d="M98.77,37.38h-4.4c-1.75,1.07-3.49,1.75-6.18,2.25v3.69h4.6v14.2h-5.3v4.83h15.78v-4.83h-4.5v-20.14Z"/><path class="w" d="M85.71,108.96l1.13-.98c-5.91-6.84-9.16-15.6-9.16-24.65,0-4.46,.77-8.82,2.28-12.96l-1.4-.51h0l-.67-.24-2.07-.76c-1.69,4.63-2.55,9.5-2.55,14.47,0,10.11,3.63,19.89,10.23,27.53l1.11-.96c4.08,4.73,9.28,8.55,15.33,11.04l.54-1.31c-5.84-2.41-10.84-6.11-14.78-10.67Z"/><path class="w" d="M128.3,47.83l.51-1.4c5.18,1.87,9.95,4.84,14.01,8.79l.99-1.02c-4.2-4.09-9.14-7.16-14.51-9.11l.51-1.41c-4.6-1.67-9.43-2.51-14.37-2.51-4.45,0-8.84,.69-13.04,2.05l.46,1.42h0l.22,.68,.68,2.1c3.76-1.22,7.68-1.84,11.67-1.84,4.42,0,8.75,.76,12.86,2.25Z"/><path class="w" d="M114.09,118.04h4.06v-1.34h-2.86c-.67,0-1.19,.59-1.19,1.34Z"/><rect class="w" x="114.09" y="96.63" width="24.4" height="1.34"/><rect class="w" x="114.09" y="92.61" width="24.4" height="1.34"/><path class="w" d="M130.37,100.65h-16.28v1.34h15.09c.67,0,1.19-.59,1.19-1.34Z"/><path class="w" d="M130.37,88.53h-16.28v1.34h15.09c.67,0,1.19-.59,1.19-1.34Z"/><rect class="w" x="132.42" y="100.65" width="6.11" height="1.34"/><rect class="w" x="132.42" y="80.32" width="6.11" height="1.34"/><rect class="w" x="114.09" y="104.62" width="24.4" height="1.34"/><rect class="w" x="114.09" y="112.67" width="24.4" height="1.34"/><rect class="w" x="123.25" y="108.65" width="15.28" height="1.34"/><rect class="w" x="114.09" y="108.65" width="7.11" height="1.34"/><rect class="w" x="120.2" y="116.7" width="18.33" height="1.34"/><path class="w" d="M151.61,60.69h-29.98c-2.72,0-4.97,2.52-4.97,5.58v1.18h-.43c-2.72,0-4.97,2.52-4.97,5.58v.54c-2.72,.48-4.82,3.17-4.82,6.33v41.2c0,3.54,2.58,6.44,5.73,6.44h28.45c3.01,0,5.49-2.63,5.73-6.01,2.67-.11,4.82-2.52,4.82-5.58v-1.18h.43c2.72,0,4.97-2.52,4.97-5.58v-42.92c0-3.06-2.2-5.58-4.97-5.58Zm-7.11,60.41c0,2.31-1.72,4.24-3.82,4.24h-28.45c-2.1,0-3.82-1.93-3.82-4.29v-41.15c0-2.36,1.72-4.29,3.82-4.29h28.45c2.1,0,3.82,1.93,3.82,4.29v41.2Zm4.77-5.15c0,1.82-1.29,3.33-2.91,3.43v-40.34c0-3.06-2.24-5.58-4.97-5.58h-28.22v-.43c0-1.88,1.38-3.43,3.06-3.43h29.98c1.67,0,3.06,1.56,3.06,3.43v42.92Zm2.48-3.33v-40.34c0-3.06-2.24-5.58-4.97-5.58h-28.26v-.43c0-1.88,1.38-3.43,3.06-3.43h29.98c1.67,0,3.06,1.56,3.06,3.43v42.92h.05c0,1.82-1.29,3.33-2.91,3.43Z"/></g><g><path class="w" d="M29.88,150.86c-1.23-.35-2.12-.79-2.68-1.3s-.84-1.15-.84-1.91c0-.86,.34-1.56,1.03-2.12s1.57-.84,2.67-.84c.75,0,1.41,.14,2,.43,.58,.29,1.04,.69,1.36,1.19,.32,.51,.48,1.06,.48,1.66h-1.44c0-.66-.21-1.18-.63-1.55s-1.01-.57-1.77-.57c-.71,0-1.26,.16-1.65,.47s-.59,.74-.59,1.3c0,.44,.19,.82,.56,1.12,.38,.31,1.01,.59,1.92,.84,.9,.25,1.61,.53,2.12,.84s.89,.66,1.13,1.07c.25,.41,.37,.89,.37,1.44,0,.88-.34,1.58-1.03,2.12-.69,.53-1.6,.79-2.75,.79-.75,0-1.44-.14-2.09-.43s-1.15-.68-1.5-1.17-.53-1.06-.53-1.69h1.44c0,.66,.24,1.17,.73,1.56,.48,.38,1.13,.57,1.94,.57,.76,0,1.34-.15,1.74-.46,.4-.31,.6-.73,.6-1.26s-.19-.94-.56-1.23-1.05-.58-2.03-.86Z"/><path class="w" d="M35.53,145.49c0-.22,.07-.41,.21-.57s.34-.23,.61-.23,.47,.08,.61,.23c.14,.15,.21,.34,.21,.57s-.07,.41-.21,.56c-.14,.15-.34,.22-.61,.22s-.47-.07-.61-.22-.21-.34-.21-.56Zm1.49,10.21h-1.38v-8.07h1.38v8.07Z"/><path class="w" d="M43.93,153.57c0-.37-.14-.66-.42-.87s-.77-.38-1.47-.53c-.7-.15-1.25-.33-1.66-.54-.41-.21-.71-.46-.91-.75-.2-.29-.29-.63-.29-1.03,0-.66,.28-1.22,.84-1.68,.56-.46,1.27-.69,2.15-.69,.92,0,1.66,.24,2.23,.71s.85,1.08,.85,1.81h-1.39c0-.38-.16-.7-.48-.98-.32-.27-.72-.41-1.21-.41s-.9,.11-1.18,.33c-.28,.22-.42,.5-.42,.86,0,.33,.13,.58,.4,.75s.74,.33,1.43,.49c.69,.15,1.25,.34,1.67,.55s.75,.47,.95,.77c.21,.3,.31,.67,.31,1.1,0,.72-.29,1.3-.87,1.73s-1.33,.65-2.25,.65c-.65,0-1.22-.12-1.72-.34s-.89-.55-1.17-.96c-.28-.41-.42-.85-.42-1.33h1.38c.03,.46,.21,.83,.56,1.1,.35,.27,.8,.41,1.37,.41,.52,0,.94-.11,1.26-.32,.32-.21,.47-.49,.47-.85Z"/><path class="w" d="M48.98,145.68v1.96h1.51v1.07h-1.51v5.01c0,.32,.07,.57,.2,.73,.13,.16,.36,.24,.69,.24,.16,0,.38-.03,.66-.09v1.11c-.36,.1-.72,.15-1.06,.15-.62,0-1.08-.19-1.4-.56s-.47-.9-.47-1.59v-5.01h-1.47v-1.07h1.47v-1.96h1.38Z"/><path class="w" d="M55.45,155.86c-1.09,0-1.98-.36-2.67-1.08s-1.03-1.68-1.03-2.88v-.25c0-.8,.15-1.52,.46-2.15,.31-.63,.73-1.12,1.28-1.48,.55-.36,1.14-.53,1.79-.53,1.05,0,1.87,.35,2.45,1.04s.87,1.68,.87,2.97v.57h-5.47c.02,.8,.25,1.44,.7,1.93,.45,.49,1.01,.74,1.7,.74,.49,0,.9-.1,1.24-.3,.34-.2,.63-.46,.89-.79l.84,.66c-.68,1.04-1.69,1.56-3.04,1.56Zm-.17-7.24c-.56,0-1.02,.2-1.4,.61s-.61,.97-.7,1.71h4.04v-.1c-.04-.7-.23-1.25-.57-1.63-.34-.39-.8-.58-1.37-.58Z"/><path class="w" d="M61.5,147.63l.04,.9c.59-.7,1.39-1.04,2.4-1.04,1.13,0,1.9,.43,2.31,1.3,.27-.39,.62-.7,1.05-.94,.43-.24,.94-.36,1.53-.36,1.77,0,2.67,.94,2.7,2.81v5.41h-1.38v-5.33c0-.58-.13-1.01-.4-1.29s-.71-.43-1.33-.43c-.51,0-.94,.15-1.28,.46-.34,.31-.53,.72-.59,1.23v5.36h-1.39v-5.29c0-1.17-.58-1.76-1.72-1.76-.91,0-1.52,.39-1.86,1.16v5.89h-1.38v-8.07h1.31Z"/><path class="w" d="M78.57,155.71c-.08-.16-.14-.44-.19-.85-.64,.67-1.41,1-2.3,1-.8,0-1.45-.23-1.96-.68s-.76-1.02-.76-1.71c0-.84,.32-1.49,.96-1.96,.64-.46,1.54-.7,2.7-.7h1.34v-.63c0-.48-.14-.87-.43-1.15-.29-.29-.71-.43-1.28-.43-.49,0-.91,.12-1.24,.37-.33,.25-.5,.55-.5,.9h-1.39c0-.4,.14-.79,.43-1.17,.29-.38,.67-.67,1.16-.89,.49-.22,1.03-.33,1.62-.33,.93,0,1.66,.23,2.19,.7,.53,.46,.8,1.11,.82,1.92v3.72c0,.74,.09,1.33,.28,1.77v.12h-1.45Zm-2.29-1.05c.43,0,.84-.11,1.23-.33,.39-.22,.67-.52,.84-.87v-1.66h-1.08c-1.69,0-2.54,.5-2.54,1.48,0,.43,.14,.77,.43,1.01,.29,.24,.66,.37,1.11,.37Z"/><path class="w" d="M85.35,151.6c0-1.24,.29-2.24,.88-2.99,.59-.75,1.36-1.13,2.31-1.13s1.69,.32,2.25,.97v-4.21h1.38v11.46h-1.27l-.07-.87c-.55,.68-1.32,1.02-2.31,1.02s-1.7-.38-2.29-1.15c-.59-.77-.88-1.77-.88-3v-.1Zm1.38,.16c0,.92,.19,1.63,.57,2.15,.38,.52,.9,.78,1.57,.78,.88,0,1.51-.39,1.92-1.18v-3.71c-.41-.76-1.05-1.14-1.9-1.14-.68,0-1.2,.26-1.58,.78s-.57,1.3-.57,2.32Z"/><path class="w" d="M97.65,155.86c-1.09,0-1.98-.36-2.67-1.08s-1.03-1.68-1.03-2.88v-.25c0-.8,.15-1.52,.46-2.15,.31-.63,.73-1.12,1.28-1.48,.55-.36,1.14-.53,1.79-.53,1.05,0,1.87,.35,2.45,1.04s.87,1.68,.87,2.97v.57h-5.47c.02,.8,.25,1.44,.7,1.93,.45,.49,1.01,.74,1.7,.74,.49,0,.9-.1,1.24-.3,.34-.2,.63-.46,.89-.79l.84,.66c-.68,1.04-1.69,1.56-3.04,1.56Zm-.17-7.24c-.56,0-1.02,.2-1.4,.61s-.61,.97-.7,1.71h4.04v-.1c-.04-.7-.23-1.25-.57-1.63-.34-.39-.8-.58-1.37-.58Z"/><path class="w" d="M106.4,155.71v-10.86h3.07c.95,0,1.78,.21,2.51,.63,.73,.42,1.29,1.01,1.68,1.78,.4,.77,.6,1.66,.6,2.66v.69c0,1.02-.2,1.92-.59,2.69-.4,.77-.96,1.36-1.69,1.78-.73,.41-1.59,.62-2.56,.63h-3.01Zm1.43-9.69v8.52h1.51c1.1,0,1.96-.34,2.58-1.03,.61-.69,.92-1.67,.92-2.93v-.63c0-1.24-.29-2.19-.87-2.88-.58-.68-1.4-1.03-2.47-1.04h-1.67Z"/><path class="w" d="M119.55,155.86c-1.09,0-1.98-.36-2.67-1.08s-1.03-1.68-1.03-2.88v-.25c0-.8,.15-1.52,.46-2.15,.31-.63,.73-1.12,1.28-1.48,.55-.36,1.14-.53,1.79-.53,1.05,0,1.87,.35,2.45,1.04s.87,1.68,.87,2.97v.57h-5.47c.02,.8,.25,1.44,.7,1.93,.45,.49,1.01,.74,1.7,.74,.49,0,.9-.1,1.24-.3,.34-.2,.63-.46,.89-.79l.84,.66c-.68,1.04-1.69,1.56-3.04,1.56Zm-.17-7.24c-.56,0-1.02,.2-1.4,.61s-.61,.97-.7,1.71h4.04v-.1c-.04-.7-.23-1.25-.57-1.63-.34-.39-.8-.58-1.37-.58Z"/><path class="w" d="M127.53,154.73c.49,0,.92-.15,1.29-.45,.37-.3,.57-.67,.61-1.12h1.31c-.03,.46-.18,.9-.48,1.32-.29,.42-.69,.75-1.18,1-.49,.25-1.01,.37-1.56,.37-1.1,0-1.97-.37-2.62-1.1-.65-.73-.97-1.74-.97-3.01v-.23c0-.79,.14-1.48,.43-2.1,.29-.61,.7-1.09,1.24-1.42,.54-.34,1.18-.51,1.91-.51,.91,0,1.66,.27,2.26,.81s.92,1.25,.96,2.11h-1.31c-.04-.52-.24-.95-.59-1.29s-.79-.5-1.32-.5c-.7,0-1.25,.25-1.63,.76-.38,.5-.58,1.23-.58,2.19v.26c0,.93,.19,1.65,.58,2.15,.38,.5,.93,.75,1.64,.75Z"/><path class="w" d="M133.79,155.71h-1.38v-11.46h1.38v11.46Z"/><path class="w" d="M140.99,155.71c-.08-.16-.14-.44-.19-.85-.64,.67-1.41,1-2.3,1-.8,0-1.45-.23-1.96-.68s-.76-1.02-.76-1.71c0-.84,.32-1.49,.96-1.96,.64-.46,1.54-.7,2.7-.7h1.34v-.63c0-.48-.14-.87-.43-1.15-.29-.29-.71-.43-1.28-.43-.49,0-.91,.12-1.24,.37-.33,.25-.5,.55-.5,.9h-1.39c0-.4,.14-.79,.43-1.17,.29-.38,.67-.67,1.16-.89,.49-.22,1.03-.33,1.62-.33,.93,0,1.66,.23,2.19,.7,.53,.46,.8,1.11,.82,1.92v3.72c0,.74,.09,1.33,.28,1.77v.12h-1.45Zm-2.29-1.05c.43,0,.84-.11,1.23-.33,.39-.22,.67-.52,.84-.87v-1.66h-1.08c-1.69,0-2.54,.5-2.54,1.48,0,.43,.14,.77,.43,1.01,.29,.24,.66,.37,1.11,.37Z"/><path class="w" d="M148.22,148.87c-.21-.03-.43-.05-.68-.05-.91,0-1.52,.39-1.84,1.16v5.73h-1.38v-8.07h1.34l.02,.93c.45-.72,1.09-1.08,1.92-1.08,.27,0,.47,.04,.61,.1v1.28Z"/><path class="w" d="M154.17,155.71c-.08-.16-.14-.44-.19-.85-.64,.67-1.41,1-2.3,1-.8,0-1.45-.23-1.96-.68s-.76-1.02-.76-1.71c0-.84,.32-1.49,.96-1.96,.64-.46,1.54-.7,2.7-.7h1.34v-.63c0-.48-.14-.87-.43-1.15-.29-.29-.71-.43-1.28-.43-.49,0-.91,.12-1.24,.37-.33,.25-.5,.55-.5,.9h-1.39c0-.4,.14-.79,.43-1.17,.29-.38,.67-.67,1.16-.89,.49-.22,1.03-.33,1.62-.33,.93,0,1.66,.23,2.19,.7,.53,.46,.8,1.11,.82,1.92v3.72c0,.74,.09,1.33,.28,1.77v.12h-1.45Zm-2.29-1.05c.43,0,.84-.11,1.23-.33,.39-.22,.67-.52,.84-.87v-1.66h-1.08c-1.69,0-2.54,.5-2.54,1.48,0,.43,.14,.77,.43,1.01,.29,.24,.66,.37,1.11,.37Z"/><path class="w" d="M160.74,154.73c.49,0,.92-.15,1.29-.45,.37-.3,.57-.67,.61-1.12h1.31c-.03,.46-.18,.9-.48,1.32-.29,.42-.69,.75-1.18,1-.49,.25-1.01,.37-1.56,.37-1.1,0-1.97-.37-2.62-1.1-.65-.73-.97-1.74-.97-3.01v-.23c0-.79,.14-1.48,.43-2.1,.29-.61,.7-1.09,1.24-1.42,.54-.34,1.18-.51,1.91-.51,.91,0,1.66,.27,2.26,.81s.92,1.25,.96,2.11h-1.31c-.04-.52-.24-.95-.59-1.29s-.79-.5-1.32-.5c-.7,0-1.25,.25-1.63,.76-.38,.5-.58,1.23-.58,2.19v.26c0,.93,.19,1.65,.58,2.15,.38,.5,.93,.75,1.64,.75Z"/><path class="w" d="M165.5,145.49c0-.22,.07-.41,.21-.57s.34-.23,.61-.23,.47,.08,.61,.23c.14,.15,.21,.34,.21,.57s-.07,.41-.21,.56c-.14,.15-.34,.22-.61,.22s-.47-.07-.61-.22-.21-.34-.21-.56Zm1.49,10.21h-1.38v-8.07h1.38v8.07Z"/><path class="w" d="M168.84,151.6c0-.79,.16-1.5,.47-2.13,.31-.63,.74-1.12,1.3-1.46,.55-.34,1.19-.51,1.9-.51,1.1,0,1.99,.38,2.67,1.14s1.02,1.77,1.02,3.04v.1c0,.79-.15,1.49-.45,2.12-.3,.62-.73,1.11-1.29,1.46-.56,.35-1.2,.52-1.93,.52-1.09,0-1.98-.38-2.66-1.14-.68-.76-1.02-1.77-1.02-3.02v-.1Zm1.39,.16c0,.9,.21,1.61,.62,2.16,.42,.54,.97,.81,1.67,.81s1.26-.27,1.67-.82,.62-1.32,.62-2.31c0-.89-.21-1.6-.63-2.15-.42-.55-.98-.82-1.67-.82s-1.23,.27-1.65,.81c-.42,.54-.63,1.32-.63,2.33Z"/><path class="w" d="M179.22,147.63l.04,1.01c.62-.78,1.42-1.16,2.42-1.16,1.71,0,2.57,.96,2.58,2.89v5.33h-1.38v-5.34c0-.58-.14-1.01-.4-1.29-.26-.28-.67-.42-1.22-.42-.45,0-.84,.12-1.18,.36-.34,.24-.6,.55-.79,.94v5.75h-1.38v-8.07h1.31Z"/><path class="w" d="M189.7,155.86c-1.09,0-1.98-.36-2.67-1.08s-1.03-1.68-1.03-2.88v-.25c0-.8,.15-1.52,.46-2.15,.31-.63,.73-1.12,1.28-1.48,.55-.36,1.14-.53,1.79-.53,1.05,0,1.87,.35,2.45,1.04s.87,1.68,.87,2.97v.57h-5.47c.02,.8,.25,1.44,.7,1.93,.45,.49,1.01,.74,1.7,.74,.49,0,.9-.1,1.24-.3,.34-.2,.63-.46,.89-.79l.84,.66c-.68,1.04-1.69,1.56-3.04,1.56Zm-.17-7.24c-.56,0-1.02,.2-1.4,.61s-.61,.97-.7,1.71h4.04v-.1c-.04-.7-.23-1.25-.57-1.63-.34-.39-.8-.58-1.37-.58Z"/><path class="w" d="M199.15,153.57c0-.37-.14-.66-.42-.87s-.77-.38-1.47-.53c-.7-.15-1.25-.33-1.66-.54-.41-.21-.71-.46-.91-.75-.2-.29-.29-.63-.29-1.03,0-.66,.28-1.22,.84-1.68,.56-.46,1.27-.69,2.15-.69,.92,0,1.66,.24,2.23,.71s.85,1.08,.85,1.81h-1.39c0-.38-.16-.7-.48-.98-.32-.27-.72-.41-1.21-.41s-.9,.11-1.18,.33c-.28,.22-.42,.5-.42,.86,0,.33,.13,.58,.4,.75s.74,.33,1.43,.49c.69,.15,1.25,.34,1.67,.55s.75,.47,.95,.77c.21,.3,.31,.67,.31,1.1,0,.72-.29,1.3-.87,1.73s-1.33,.65-2.25,.65c-.65,0-1.22-.12-1.72-.34s-.89-.55-1.17-.96c-.28-.41-.42-.85-.42-1.33h1.38c.03,.46,.21,.83,.56,1.1,.35,.27,.8,.41,1.37,.41,.52,0,.94-.11,1.26-.32,.32-.21,.47-.49,.47-.85Z"/></g></g><g id="i"/><g id="j"/><g id="k"/><g id="l"/><g id="m"/><g id="n"/><g id="o"/><g id="p"/><g id="q"/><g id="r"/><g id="s"/><g id="t"/><g id="u"/></svg>