<?xml version="1.0" encoding="UTF-8"?><svg xmlns="http://www.w3.org/2000/svg" xmlns:xlink="http://www.w3.org/1999/xlink" viewBox="0 0 221 218"><defs><style>.v{fill:none;filter:url(#g);stroke:#e7a2e3;stroke-miterlimit:10;stroke-width:.87px;}.w{fill:#e7a2e3;}</style><filter id="g" filterUnits="userSpaceOnUse"><feOffset dx="0" dy="3.11"/><feGaussianBlur result="h" stdDeviation="3.11"/><feFlood flood-color="#000" flood-opacity=".54"/><feComposite in2="h" operator="in"/><feComposite in="SourceGraphic"/></filter></defs><g id="a"/><g id="b"/><g id="c"/><g id="d"/><g id="e"/><g id="f"><rect class="v" x="11.03" y="7.53" width="198.83" height="196.26" transform="translate(220.9 211.32) rotate(180)"/><g><rect class="w" x="120.86" y="73.71" width="20.58" height="1.89"/><rect class="w" x="113.12" y="73.83" width="5.15" height="1.89"/><rect class="w" x="120.86" y="79.62" width="20.58" height="1.89"/><rect class="w" x="113.12" y="79.73" width="5.15" height="1.89"/><rect class="w" x="120.86" y="85.93" width="20.58" height="1.89"/><rect class="w" x="113.12" y="86.05" width="5.15" height="1.89"/><rect class="w" x="120.86" y="93.01" width="20.58" height="1.89"/><rect class="w" x="113.12" y="93.13" width="5.15" height="1.89"/><rect class="w" x="120.86" y="99.33" width="20.58" height="1.89"/><path class="w" d="M113.12,100.86v.41h5.15v-1.89h-3.92c-.69,0-1.23,.71-1.23,1.48Z"/><rect class="w" x="120.86" y="105.23" width="9.61" height="1.89"/><path class="w" d="M117.83,104.35l-.05-.12c-.2-.06-.39-.12-.59-.12s-.34,0-.49,.06l-.64,1.24-.39-.77c-.05-.18-.15-.3-.25-.35-.1-.06-.2-.12-.34-.12-.29,0-.59,.06-.83,.3l1.13,2.07-1.18,2.24,.05,.06c.15,.06,.39,.12,.59,.12s.39,0,.49-.06l.64-1.3,.49,.94c.2,.35,.39,.47,.69,.47,.25,0,.49-.12,.78-.35l-1.23-2.24,1.13-2.07Z"/><path class="w" d="M151.74,94.02l-.74,.78v-28.1c0-3.09-1.67-5.73-3.97-6.69v-.51h-12.5v-2.36h-14.7v2.36h-12.99v.37c-2.5,.81-4.36,3.57-4.36,6.83v50.34c0,.37,.03,.73,.08,1.09-1.98-.47-3.92-1.09-5.81-1.86l.65-1.57c-14.2-5.85-23.37-19.56-23.37-34.92,0-4.46,.77-8.82,2.28-12.96l-4.14-1.51c-1.69,4.63-2.55,9.5-2.55,14.47,0,17.15,10.25,32.46,26.1,38.99l.49-1.19c2.17,.89,4.41,1.57,6.7,2.07,.87,2.61,2.99,4.47,5.46,4.47h36.76c3.23,0,5.88-3.19,5.88-7.14v-13.01l4.51-4.76-3.77-5.19Zm-42.93-32.05h36.27v39.08l-6.37,6.72-.98,5.55,4.75-.35,2.6-2.74v5.57h-36.27V61.97Zm40.24,55.01c0,2.6-1.76,4.72-3.92,4.72h-36.76c-1.65,0-3.06-1.25-3.64-2.99l.02-.11s-.03,0-.05-.01c-.15-.5-.25-1.04-.25-1.61v-50.29c0-1.95,.99-3.63,2.4-4.35v55.76h40.19v-9.94l2.01-2.12v10.94Zm0-20.12l-2.01,2.12V62.6c1.19,.81,2.01,2.34,2.01,4.09v30.17Z"/><path class="w" d="M76.31,55.8c0-3.53-1.85-5.61-4.93-6.85l-3.12-1.24c-2.21-.87-3.79-1.41-3.79-2.79s1.14-2.08,2.99-2.08c1.95,0,3.49,.67,5.14,1.91l2.99-3.76c-2.18-2.18-5.24-3.29-8.12-3.29-5.3,0-9.06,3.36-9.06,7.55,0,3.62,2.45,5.81,5.07,6.85l3.19,1.34c2.15,.91,3.53,1.38,3.53,2.82,0,1.34-1.04,2.18-3.26,2.18-1.98,0-4.3-1.04-6.08-2.55l-3.39,4.13c2.58,2.38,6.08,3.59,9.33,3.59,6.04,0,9.53-3.66,9.53-7.82Z"/><path class="w" d="M86.18,42.38c1.98,0,3.26,1.24,3.26,3.52,0,3.62-4.2,8.16-10.44,13.83v3.42h17.32v-5.04h-4.6c-1.11,0-2.82,.17-4.06,.34,3.83-3.86,7.52-8.59,7.52-12.89,0-4.77-3.36-7.86-8.19-7.86-3.56,0-5.84,1.28-8.29,3.86l3.26,3.22c1.17-1.28,2.52-2.42,4.23-2.42Z"/><path class="w" d="M111.78,42.02c6.28,0,12.5,1.57,17.98,4.55l.66-1.21c.47,.26,4.23,2.37,8.4,6.4l.99-1.02c-4.3-4.16-8.23-6.36-8.71-6.63l.77-1.42c-6.13-3.33-13.07-5.08-20.09-5.08-4.45,0-8.84,.69-13.04,2.05l1.36,4.19c3.76-1.22,7.68-1.84,11.67-1.84Z"/></g><g><path class="w" d="M24.34,151.34c-1.23-.35-2.12-.79-2.68-1.3-.56-.52-.84-1.15-.84-1.91,0-.86,.34-1.56,1.03-2.12s1.57-.84,2.67-.84c.75,0,1.41,.14,2,.43,.58,.29,1.04,.69,1.36,1.19,.32,.51,.48,1.06,.48,1.66h-1.44c0-.66-.21-1.18-.63-1.55s-1.01-.57-1.77-.57c-.71,0-1.26,.16-1.65,.47s-.59,.74-.59,1.3c0,.44,.19,.82,.56,1.12,.38,.31,1.01,.59,1.92,.84,.9,.25,1.61,.53,2.12,.84,.51,.31,.89,.66,1.13,1.07,.25,.41,.37,.89,.37,1.44,0,.88-.34,1.59-1.03,2.12-.69,.53-1.6,.79-2.75,.79-.75,0-1.44-.14-2.09-.43s-1.15-.68-1.5-1.18c-.35-.5-.53-1.06-.53-1.69h1.44c0,.66,.24,1.17,.73,1.56,.48,.38,1.13,.57,1.94,.57,.76,0,1.34-.15,1.74-.46,.4-.31,.6-.73,.6-1.26s-.19-.94-.56-1.24-1.05-.58-2.03-.86Z"/><path class="w" d="M29.99,145.97c0-.22,.07-.41,.21-.57s.34-.23,.61-.23,.47,.08,.61,.23c.14,.15,.21,.34,.21,.57s-.07,.41-.21,.56c-.14,.15-.34,.22-.61,.22s-.47-.07-.61-.22-.21-.34-.21-.56Zm1.49,10.21h-1.38v-8.07h1.38v8.07Z"/><path class="w" d="M38.39,154.04c0-.37-.14-.66-.42-.87-.28-.21-.77-.38-1.47-.53-.7-.15-1.25-.33-1.66-.54-.41-.21-.71-.46-.91-.75s-.29-.63-.29-1.03c0-.66,.28-1.22,.84-1.68,.56-.46,1.27-.69,2.15-.69,.92,0,1.66,.24,2.23,.71,.57,.47,.85,1.08,.85,1.81h-1.39c0-.38-.16-.7-.48-.98-.32-.27-.72-.41-1.21-.41s-.9,.11-1.18,.33c-.28,.22-.42,.5-.42,.86,0,.33,.13,.58,.4,.75,.26,.17,.74,.33,1.43,.49,.69,.15,1.25,.34,1.67,.55,.43,.21,.75,.47,.95,.77,.21,.3,.31,.67,.31,1.1,0,.72-.29,1.3-.87,1.74-.58,.43-1.33,.65-2.25,.65-.65,0-1.22-.11-1.72-.34-.5-.23-.89-.55-1.17-.96-.28-.41-.42-.85-.42-1.33h1.38c.03,.46,.21,.83,.56,1.1s.8,.41,1.37,.41c.52,0,.94-.11,1.26-.32,.32-.21,.47-.49,.47-.85Z"/><path class="w" d="M43.45,146.15v1.96h1.51v1.07h-1.51v5.01c0,.32,.07,.57,.2,.73,.13,.16,.36,.24,.69,.24,.16,0,.38-.03,.66-.09v1.11c-.36,.1-.72,.15-1.06,.15-.62,0-1.08-.19-1.4-.56s-.47-.9-.47-1.59v-5.01h-1.47v-1.07h1.47v-1.96h1.38Z"/><path class="w" d="M49.91,156.33c-1.09,0-1.98-.36-2.67-1.08s-1.03-1.68-1.03-2.88v-.25c0-.8,.15-1.52,.46-2.14,.31-.63,.73-1.12,1.28-1.48,.55-.36,1.14-.53,1.79-.53,1.05,0,1.87,.35,2.45,1.04s.87,1.68,.87,2.97v.57h-5.47c.02,.8,.25,1.44,.7,1.93s1.01,.73,1.7,.73c.49,0,.9-.1,1.24-.3,.34-.2,.63-.46,.89-.79l.84,.66c-.68,1.04-1.69,1.56-3.04,1.56Zm-.17-7.24c-.56,0-1.02,.2-1.4,.61s-.61,.97-.7,1.7h4.04v-.1c-.04-.7-.23-1.25-.57-1.63s-.8-.58-1.37-.58Z"/><path class="w" d="M55.96,148.11l.04,.89c.59-.7,1.39-1.04,2.4-1.04,1.13,0,1.9,.43,2.31,1.3,.27-.39,.62-.7,1.05-.94,.43-.24,.94-.36,1.53-.36,1.77,0,2.67,.94,2.7,2.81v5.41h-1.38v-5.33c0-.58-.13-1.01-.4-1.29-.26-.29-.71-.43-1.33-.43-.51,0-.94,.15-1.28,.46-.34,.31-.53,.72-.59,1.24v5.36h-1.39v-5.29c0-1.17-.58-1.76-1.72-1.76-.91,0-1.52,.39-1.86,1.16v5.89h-1.38v-8.07h1.31Z"/><path class="w" d="M73.04,156.18c-.08-.16-.14-.44-.19-.85-.64,.67-1.41,1-2.3,1-.8,0-1.45-.22-1.96-.67s-.76-1.02-.76-1.71c0-.84,.32-1.49,.96-1.96,.64-.47,1.54-.7,2.7-.7h1.34v-.63c0-.48-.14-.87-.43-1.15-.29-.29-.71-.43-1.28-.43-.49,0-.91,.12-1.24,.37s-.5,.55-.5,.9h-1.39c0-.4,.14-.79,.43-1.17s.67-.67,1.16-.89,1.03-.33,1.62-.33c.93,0,1.66,.23,2.19,.7s.8,1.11,.82,1.92v3.72c0,.74,.09,1.33,.28,1.77v.12h-1.45Zm-2.29-1.05c.43,0,.84-.11,1.23-.34,.39-.22,.67-.51,.84-.87v-1.66h-1.08c-1.69,0-2.54,.5-2.54,1.49,0,.43,.14,.77,.43,1.01,.29,.24,.66,.37,1.11,.37Z"/><path class="w" d="M79.81,152.08c0-1.24,.29-2.23,.88-2.99,.59-.75,1.36-1.13,2.31-1.13s1.69,.32,2.25,.97v-4.21h1.38v11.46h-1.27l-.07-.87c-.55,.68-1.32,1.01-2.31,1.01s-1.7-.38-2.29-1.15c-.59-.77-.88-1.77-.88-3v-.1Zm1.38,.16c0,.92,.19,1.63,.57,2.15s.9,.78,1.57,.78c.88,0,1.51-.39,1.92-1.18v-3.71c-.41-.76-1.05-1.14-1.9-1.14-.68,0-1.2,.26-1.58,.78-.38,.52-.57,1.3-.57,2.32Z"/><path class="w" d="M92.11,156.33c-1.09,0-1.98-.36-2.67-1.08s-1.03-1.68-1.03-2.88v-.25c0-.8,.15-1.52,.46-2.14,.31-.63,.73-1.12,1.28-1.48,.55-.36,1.14-.53,1.79-.53,1.05,0,1.87,.35,2.45,1.04s.87,1.68,.87,2.97v.57h-5.47c.02,.8,.25,1.44,.7,1.93s1.01,.73,1.7,.73c.49,0,.9-.1,1.24-.3,.34-.2,.63-.46,.89-.79l.84,.66c-.68,1.04-1.69,1.56-3.04,1.56Zm-.17-7.24c-.56,0-1.02,.2-1.4,.61s-.61,.97-.7,1.7h4.04v-.1c-.04-.7-.23-1.25-.57-1.63s-.8-.58-1.37-.58Z"/><path class="w" d="M104.06,151.34c-1.23-.35-2.12-.79-2.68-1.3-.56-.52-.84-1.15-.84-1.91,0-.86,.34-1.56,1.03-2.12s1.57-.84,2.67-.84c.75,0,1.41,.14,2,.43,.58,.29,1.04,.69,1.36,1.19,.32,.51,.48,1.06,.48,1.66h-1.44c0-.66-.21-1.18-.63-1.55s-1.01-.57-1.77-.57c-.71,0-1.26,.16-1.65,.47s-.59,.74-.59,1.3c0,.44,.19,.82,.56,1.12,.38,.31,1.01,.59,1.92,.84,.9,.25,1.61,.53,2.12,.84,.51,.31,.89,.66,1.13,1.07,.25,.41,.37,.89,.37,1.44,0,.88-.34,1.59-1.03,2.12-.69,.53-1.6,.79-2.75,.79-.75,0-1.44-.14-2.09-.43s-1.15-.68-1.5-1.18c-.35-.5-.53-1.06-.53-1.69h1.44c0,.66,.24,1.17,.73,1.56,.48,.38,1.13,.57,1.94,.57,.76,0,1.34-.15,1.74-.46,.4-.31,.6-.73,.6-1.26s-.19-.94-.56-1.24-1.05-.58-2.03-.86Z"/><path class="w" d="M113.06,156.33c-1.09,0-1.98-.36-2.67-1.08s-1.03-1.68-1.03-2.88v-.25c0-.8,.15-1.52,.46-2.14,.31-.63,.73-1.12,1.28-1.48,.55-.36,1.14-.53,1.79-.53,1.05,0,1.87,.35,2.45,1.04s.87,1.68,.87,2.97v.57h-5.47c.02,.8,.25,1.44,.7,1.93s1.01,.73,1.7,.73c.49,0,.9-.1,1.24-.3,.34-.2,.63-.46,.89-.79l.84,.66c-.68,1.04-1.69,1.56-3.04,1.56Zm-.17-7.24c-.56,0-1.02,.2-1.4,.61s-.61,.97-.7,1.7h4.04v-.1c-.04-.7-.23-1.25-.57-1.63s-.8-.58-1.37-.58Z"/><path class="w" d="M121.71,149.35c-.21-.04-.43-.05-.68-.05-.91,0-1.52,.39-1.84,1.16v5.73h-1.38v-8.07h1.34l.02,.93c.45-.72,1.09-1.08,1.92-1.08,.27,0,.47,.03,.61,.1v1.28Z"/><path class="w" d="M125.77,154.31l2-6.2h1.41l-2.9,8.07h-1.05l-2.92-8.07h1.41l2.05,6.2Z"/><path class="w" d="M130.52,145.97c0-.22,.07-.41,.21-.57s.34-.23,.61-.23,.47,.08,.61,.23c.14,.15,.21,.34,.21,.57s-.07,.41-.21,.56c-.14,.15-.34,.22-.61,.22s-.47-.07-.61-.22-.21-.34-.21-.56Zm1.49,10.21h-1.38v-8.07h1.38v8.07Z"/><path class="w" d="M133.88,152.08c0-1.24,.29-2.23,.88-2.99,.59-.75,1.36-1.13,2.31-1.13s1.69,.32,2.25,.97v-4.21h1.38v11.46h-1.27l-.07-.87c-.55,.68-1.32,1.01-2.31,1.01s-1.7-.38-2.29-1.15c-.59-.77-.88-1.77-.88-3v-.1Zm1.38,.16c0,.92,.19,1.63,.57,2.15s.9,.78,1.57,.78c.88,0,1.51-.39,1.92-1.18v-3.71c-.41-.76-1.05-1.14-1.9-1.14-.68,0-1.2,.26-1.58,.78-.38,.52-.57,1.3-.57,2.32Z"/><path class="w" d="M142.47,152.07c0-.79,.16-1.5,.47-2.13,.31-.63,.74-1.12,1.3-1.46,.55-.34,1.19-.51,1.9-.51,1.1,0,1.99,.38,2.67,1.14,.68,.76,1.02,1.77,1.02,3.04v.1c0,.79-.15,1.49-.45,2.12-.3,.62-.73,1.11-1.29,1.46-.56,.35-1.2,.52-1.93,.52-1.09,0-1.98-.38-2.66-1.14s-1.02-1.77-1.02-3.02v-.1Zm1.39,.17c0,.89,.21,1.61,.62,2.16,.42,.54,.97,.81,1.67,.81s1.26-.27,1.67-.82,.62-1.32,.62-2.31c0-.88-.21-1.6-.63-2.15-.42-.55-.98-.82-1.67-.82s-1.23,.27-1.65,.81-.63,1.32-.63,2.33Z"/><path class="w" d="M155.45,149.35c-.21-.04-.43-.05-.68-.05-.91,0-1.52,.39-1.84,1.16v5.73h-1.38v-8.07h1.34l.02,.93c.45-.72,1.09-1.08,1.92-1.08,.27,0,.47,.03,.61,.1v1.28Z"/><path class="w" d="M159.93,156.33c-1.09,0-1.98-.36-2.67-1.08s-1.03-1.68-1.03-2.88v-.25c0-.8,.15-1.52,.46-2.14,.31-.63,.73-1.12,1.28-1.48,.55-.36,1.14-.53,1.79-.53,1.05,0,1.87,.35,2.45,1.04s.87,1.68,.87,2.97v.57h-5.47c.02,.8,.25,1.44,.7,1.93s1.01,.73,1.7,.73c.49,0,.9-.1,1.24-.3,.34-.2,.63-.46,.89-.79l.84,.66c-.68,1.04-1.69,1.56-3.04,1.56Zm-.17-7.24c-.56,0-1.02,.2-1.4,.61s-.61,.97-.7,1.7h4.04v-.1c-.04-.7-.23-1.25-.57-1.63s-.8-.58-1.37-.58Z"/><path class="w" d="M169.38,154.04c0-.37-.14-.66-.42-.87-.28-.21-.77-.38-1.47-.53-.7-.15-1.25-.33-1.66-.54-.41-.21-.71-.46-.91-.75s-.29-.63-.29-1.03c0-.66,.28-1.22,.84-1.68,.56-.46,1.27-.69,2.15-.69,.92,0,1.66,.24,2.23,.71,.57,.47,.85,1.08,.85,1.81h-1.39c0-.38-.16-.7-.48-.98-.32-.27-.72-.41-1.21-.41s-.9,.11-1.18,.33c-.28,.22-.42,.5-.42,.86,0,.33,.13,.58,.4,.75,.26,.17,.74,.33,1.43,.49,.69,.15,1.25,.34,1.67,.55,.43,.21,.75,.47,.95,.77,.21,.3,.31,.67,.31,1.1,0,.72-.29,1.3-.87,1.74-.58,.43-1.33,.65-2.25,.65-.65,0-1.22-.11-1.72-.34-.5-.23-.89-.55-1.17-.96-.28-.41-.42-.85-.42-1.33h1.38c.03,.46,.21,.83,.56,1.1s.8,.41,1.37,.41c.52,0,.94-.11,1.26-.32,.32-.21,.47-.49,.47-.85Z"/><path class="w" d="M22.57,170.27v4.25h-1.43v-10.86h4.01c1.19,0,2.12,.3,2.79,.91,.67,.61,1.01,1.41,1.01,2.41,0,1.05-.33,1.87-.99,2.44s-1.6,.85-2.83,.85h-2.56Zm0-1.17h2.57c.77,0,1.35-.18,1.76-.54,.41-.36,.61-.88,.61-1.57,0-.65-.2-1.17-.61-1.55s-.97-.59-1.68-.61h-2.66v4.27Z"/><path class="w" d="M35.54,173.72c-.54,.63-1.33,.95-2.37,.95-.86,0-1.52-.25-1.97-.75s-.68-1.24-.68-2.22v-5.25h1.38v5.22c0,1.22,.5,1.83,1.49,1.83,1.05,0,1.76-.39,2.1-1.18v-5.87h1.38v8.07h-1.31l-.03-.8Zm-1.12-10.66h1.67l-2,2.19h-1.11l1.44-2.19Z"/><path class="w" d="M45.82,170.57c0,1.23-.28,2.22-.85,2.97-.57,.75-1.33,1.12-2.28,1.12-1.02,0-1.81-.36-2.37-1.08l-.07,.93h-1.27v-11.46h1.38v4.28c.56-.69,1.33-1.04,2.31-1.04s1.75,.37,2.31,1.11,.84,1.76,.84,3.04v.12Zm-1.38-.16c0-.94-.18-1.67-.54-2.18-.36-.51-.89-.77-1.57-.77-.91,0-1.56,.42-1.96,1.27v3.49c.42,.85,1.08,1.27,1.98,1.27,.66,0,1.18-.26,1.54-.77,.37-.51,.55-1.28,.55-2.31Z"/><path class="w" d="M49.06,174.52h-1.38v-11.46h1.38v11.46Z"/><path class="w" d="M51.27,164.3c0-.22,.07-.41,.21-.57s.34-.23,.61-.23,.47,.08,.61,.23c.14,.15,.21,.34,.21,.57s-.07,.41-.21,.56c-.14,.15-.34,.22-.61,.22s-.47-.07-.61-.22-.21-.34-.21-.56Zm1.49,10.21h-1.38v-8.07h1.38v8.07Z"/><path class="w" d="M58.21,173.54c.49,0,.92-.15,1.29-.45,.37-.3,.57-.67,.61-1.12h1.31c-.03,.46-.18,.9-.48,1.32-.29,.42-.69,.75-1.18,1-.49,.25-1.01,.37-1.56,.37-1.1,0-1.97-.37-2.62-1.1-.65-.73-.97-1.74-.97-3.01v-.23c0-.79,.14-1.48,.43-2.1,.29-.61,.7-1.09,1.24-1.42,.54-.34,1.18-.51,1.91-.51,.91,0,1.66,.27,2.26,.81s.92,1.25,.96,2.11h-1.31c-.04-.52-.24-.95-.59-1.29s-.79-.5-1.32-.5c-.7,0-1.25,.25-1.63,.76-.38,.5-.58,1.23-.58,2.19v.26c0,.93,.19,1.65,.58,2.15,.38,.5,.93,.75,1.64,.75Z"/><path class="w" d="M62.61,170.41c0-.79,.16-1.5,.47-2.13,.31-.63,.74-1.12,1.3-1.46,.55-.34,1.19-.51,1.9-.51,1.1,0,1.99,.38,2.67,1.14s1.02,1.77,1.02,3.04v.1c0,.79-.15,1.49-.45,2.12-.3,.62-.73,1.11-1.29,1.46-.56,.35-1.2,.52-1.93,.52-1.09,0-1.98-.38-2.66-1.14-.68-.76-1.02-1.77-1.02-3.02v-.1Zm1.39,.16c0,.9,.21,1.61,.62,2.16,.42,.54,.97,.81,1.67,.81s1.26-.27,1.67-.82,.62-1.32,.62-2.31c0-.89-.21-1.6-.63-2.15-.42-.55-.98-.82-1.67-.82s-1.23,.27-1.65,.81c-.42,.54-.63,1.32-.63,2.33Z"/><path class="w" d="M76.39,172.38c0-.37-.14-.66-.42-.87s-.77-.38-1.47-.53c-.7-.15-1.25-.33-1.66-.54-.41-.21-.71-.46-.91-.75-.2-.29-.29-.63-.29-1.03,0-.66,.28-1.22,.84-1.68,.56-.46,1.27-.69,2.15-.69,.92,0,1.66,.24,2.23,.71s.85,1.08,.85,1.81h-1.39c0-.38-.16-.7-.48-.98-.32-.27-.72-.41-1.21-.41s-.9,.11-1.18,.33c-.28,.22-.42,.5-.42,.86,0,.33,.13,.58,.4,.75s.74,.33,1.43,.49c.69,.15,1.25,.34,1.67,.55s.75,.47,.95,.77c.21,.3,.31,.67,.31,1.1,0,.72-.29,1.3-.87,1.73s-1.33,.65-2.25,.65c-.65,0-1.22-.12-1.72-.34s-.89-.55-1.17-.96c-.28-.41-.42-.85-.42-1.33h1.38c.03,.46,.21,.83,.56,1.1,.35,.27,.8,.41,1.37,.41,.52,0,.94-.11,1.26-.32,.32-.21,.47-.49,.47-.85Z"/><path class="w" d="M86.7,174.67c-1.09,0-1.98-.36-2.67-1.08s-1.03-1.68-1.03-2.88v-.25c0-.8,.15-1.52,.46-2.15,.31-.63,.73-1.12,1.28-1.48,.55-.36,1.14-.53,1.79-.53,1.05,0,1.87,.35,2.45,1.04s.87,1.68,.87,2.97v.57h-5.47c.02,.8,.25,1.44,.7,1.93,.45,.49,1.01,.74,1.7,.74,.49,0,.9-.1,1.24-.3,.34-.2,.63-.46,.89-.79l.84,.66c-.68,1.04-1.69,1.56-3.04,1.56Zm-.17-7.24c-.56,0-1.02,.2-1.4,.61s-.61,.97-.7,1.71h4.04v-.1c-.04-.7-.23-1.25-.57-1.63-.34-.39-.8-.58-1.37-.58Z"/><path class="w" d="M92.75,166.45l.04,1.01c.62-.78,1.42-1.16,2.42-1.16,1.71,0,2.57,.96,2.58,2.89v5.33h-1.38v-5.34c0-.58-.14-1.01-.4-1.29-.26-.28-.67-.42-1.22-.42-.45,0-.84,.12-1.18,.36-.34,.24-.6,.55-.79,.94v5.75h-1.38v-8.07h1.31Z"/><path class="w" d="M106.9,173.54c.49,0,.92-.15,1.29-.45,.37-.3,.57-.67,.61-1.12h1.31c-.03,.46-.18,.9-.48,1.32-.29,.42-.69,.75-1.18,1-.49,.25-1.01,.37-1.56,.37-1.1,0-1.97-.37-2.62-1.1-.65-.73-.97-1.74-.97-3.01v-.23c0-.79,.14-1.48,.43-2.1,.29-.61,.7-1.09,1.24-1.42,.54-.34,1.18-.51,1.91-.51,.91,0,1.66,.27,2.26,.81s.92,1.25,.96,2.11h-1.31c-.04-.52-.24-.95-.59-1.29s-.79-.5-1.32-.5c-.7,0-1.25,.25-1.63,.76-.38,.5-.58,1.23-.58,2.19v.26c0,.93,.19,1.65,.58,2.15,.38,.5,.93,.75,1.64,.75Z"/><path class="w" d="M111.29,170.41c0-.79,.16-1.5,.47-2.13,.31-.63,.74-1.12,1.3-1.46,.55-.34,1.19-.51,1.9-.51,1.1,0,1.99,.38,2.67,1.14s1.02,1.77,1.02,3.04v.1c0,.79-.15,1.49-.45,2.12-.3,.62-.73,1.11-1.29,1.46-.56,.35-1.2,.52-1.93,.52-1.09,0-1.98-.38-2.66-1.14-.68-.76-1.02-1.77-1.02-3.02v-.1Zm1.39,.16c0,.9,.21,1.61,.62,2.16,.42,.54,.97,.81,1.67,.81s1.26-.27,1.67-.82,.62-1.32,.62-2.31c0-.89-.21-1.6-.63-2.15-.42-.55-.98-.82-1.67-.82s-1.23,.27-1.65,.81c-.42,.54-.63,1.32-.63,2.33Z"/><path class="w" d="M121.68,166.45l.04,1.01c.62-.78,1.42-1.16,2.42-1.16,1.71,0,2.57,.96,2.58,2.89v5.33h-1.38v-5.34c0-.58-.14-1.01-.4-1.29-.26-.28-.67-.42-1.22-.42-.45,0-.84,.12-1.18,.36-.34,.24-.6,.55-.79,.94v5.75h-1.38v-8.07h1.31Z"/><path class="w" d="M130.67,164.49v1.96h1.51v1.07h-1.51v5.01c0,.32,.07,.57,.2,.73,.13,.16,.36,.24,.69,.24,.16,0,.38-.03,.66-.09v1.11c-.36,.1-.72,.15-1.06,.15-.62,0-1.08-.19-1.4-.56s-.47-.9-.47-1.59v-5.01h-1.47v-1.07h1.47v-1.96h1.38Z"/><path class="w" d="M137.69,167.68c-.21-.03-.43-.05-.68-.05-.91,0-1.52,.39-1.84,1.16v5.73h-1.38v-8.07h1.34l.02,.93c.45-.72,1.09-1.08,1.92-1.08,.27,0,.47,.04,.61,.1v1.28Z"/><path class="w" d="M143.65,174.52c-.08-.16-.14-.44-.19-.85-.64,.67-1.41,1-2.3,1-.8,0-1.45-.23-1.96-.68s-.76-1.02-.76-1.71c0-.84,.32-1.49,.96-1.96,.64-.46,1.54-.7,2.7-.7h1.34v-.63c0-.48-.14-.87-.43-1.15-.29-.29-.71-.43-1.28-.43-.49,0-.91,.12-1.24,.37-.33,.25-.5,.55-.5,.9h-1.39c0-.4,.14-.79,.43-1.17,.29-.38,.67-.67,1.16-.89,.49-.22,1.03-.33,1.62-.33,.93,0,1.66,.23,2.19,.7,.53,.46,.8,1.11,.82,1.92v3.72c0,.74,.09,1.33,.28,1.77v.12h-1.45Zm-2.29-1.05c.43,0,.84-.11,1.23-.33,.39-.22,.67-.52,.84-.87v-1.66h-1.08c-1.69,0-2.54,.5-2.54,1.48,0,.43,.14,.77,.43,1.01,.29,.24,.66,.37,1.11,.37Z"/><path class="w" d="M148.85,164.49v1.96h1.51v1.07h-1.51v5.01c0,.32,.07,.57,.2,.73,.13,.16,.36,.24,.69,.24,.16,0,.38-.03,.66-.09v1.11c-.36,.1-.72,.15-1.06,.15-.62,0-1.08-.19-1.4-.56s-.47-.9-.47-1.59v-5.01h-1.47v-1.07h1.47v-1.96h1.38Z"/><path class="w" d="M156.95,174.52c-.08-.16-.14-.44-.19-.85-.64,.67-1.41,1-2.3,1-.8,0-1.45-.23-1.96-.68s-.76-1.02-.76-1.71c0-.84,.32-1.49,.96-1.96,.64-.46,1.54-.7,2.7-.7h1.34v-.63c0-.48-.14-.87-.43-1.15-.29-.29-.71-.43-1.28-.43-.49,0-.91,.12-1.24,.37-.33,.25-.5,.55-.5,.9h-1.39c0-.4,.14-.79,.43-1.17,.29-.38,.67-.67,1.16-.89,.49-.22,1.03-.33,1.62-.33,.93,0,1.66,.23,2.19,.7,.53,.46,.8,1.11,.82,1.92v3.72c0,.74,.09,1.33,.28,1.77v.12h-1.45Zm-2.29-1.05c.43,0,.84-.11,1.23-.33,.39-.22,.67-.52,.84-.87v-1.66h-1.08c-1.69,0-2.54,.5-2.54,1.48,0,.43,.14,.77,.43,1.01,.29,.24,.66,.37,1.11,.37Z"/><path class="w" d="M163.52,173.54c.49,0,.92-.15,1.29-.45,.37-.3,.57-.67,.61-1.12h1.31c-.03,.46-.18,.9-.48,1.32-.29,.42-.69,.75-1.18,1-.49,.25-1.01,.37-1.56,.37-1.1,0-1.97-.37-2.62-1.1-.65-.73-.97-1.74-.97-3.01v-.23c0-.79,.14-1.48,.43-2.1,.29-.61,.7-1.09,1.24-1.42,.54-.34,1.18-.51,1.91-.51,.91,0,1.66,.27,2.26,.81s.92,1.25,.96,2.11h-1.31c-.04-.52-.24-.95-.59-1.29s-.79-.5-1.32-.5c-.7,0-1.25,.25-1.63,.76-.38,.5-.58,1.23-.58,2.19v.26c0,.93,.19,1.65,.58,2.15,.38,.5,.93,.75,1.64,.75Z"/><path class="w" d="M168.28,164.3c0-.22,.07-.41,.21-.57s.34-.23,.61-.23,.47,.08,.61,.23c.14,.15,.21,.34,.21,.57s-.07,.41-.21,.56c-.14,.15-.34,.22-.61,.22s-.47-.07-.61-.22-.21-.34-.21-.56Zm1.49,10.21h-1.38v-8.07h1.38v8.07Z"/><path class="w" d="M171.62,170.41c0-.79,.16-1.5,.47-2.13,.31-.63,.74-1.12,1.3-1.46,.55-.34,1.19-.51,1.9-.51,1.1,0,1.99,.38,2.67,1.14s1.02,1.77,1.02,3.04v.1c0,.79-.15,1.49-.45,2.12-.3,.62-.73,1.11-1.29,1.46-.56,.35-1.2,.52-1.93,.52-1.09,0-1.98-.38-2.66-1.14-.68-.76-1.02-1.77-1.02-3.02v-.1Zm1.39,.16c0,.9,.21,1.61,.62,2.16,.42,.54,.97,.81,1.67,.81s1.26-.27,1.67-.82,.62-1.32,.62-2.31c0-.89-.21-1.6-.63-2.15-.42-.55-.98-.82-1.67-.82s-1.23,.27-1.65,.81c-.42,.54-.63,1.32-.63,2.33Z"/><path class="w" d="M182.01,166.45l.04,1.01c.62-.78,1.42-1.16,2.42-1.16,1.71,0,2.57,.96,2.58,2.89v5.33h-1.38v-5.34c0-.58-.14-1.01-.4-1.29-.26-.28-.67-.42-1.22-.42-.45,0-.84,.12-1.18,.36-.34,.24-.6,.55-.79,.94v5.75h-1.38v-8.07h1.31Z"/><path class="w" d="M192.48,174.67c-1.09,0-1.98-.36-2.67-1.08s-1.03-1.68-1.03-2.88v-.25c0-.8,.15-1.52,.46-2.15,.31-.63,.73-1.12,1.28-1.48,.55-.36,1.14-.53,1.79-.53,1.05,0,1.87,.35,2.45,1.04s.87,1.68,.87,2.97v.57h-5.47c.02,.8,.25,1.44,.7,1.93,.45,.49,1.01,.74,1.7,.74,.49,0,.9-.1,1.24-.3,.34-.2,.63-.46,.89-.79l.84,.66c-.68,1.04-1.69,1.56-3.04,1.56Zm-.17-7.24c-.56,0-1.02,.2-1.4,.61s-.61,.97-.7,1.71h4.04v-.1c-.04-.7-.23-1.25-.57-1.63-.34-.39-.8-.58-1.37-.58Z"/><path class="w" d="M201.93,172.38c0-.37-.14-.66-.42-.87s-.77-.38-1.47-.53c-.7-.15-1.25-.33-1.66-.54-.41-.21-.71-.46-.91-.75-.2-.29-.29-.63-.29-1.03,0-.66,.28-1.22,.84-1.68,.56-.46,1.27-.69,2.15-.69,.92,0,1.66,.24,2.23,.71s.85,1.08,.85,1.81h-1.39c0-.38-.16-.7-.48-.98-.32-.27-.72-.41-1.21-.41s-.9,.11-1.18,.33c-.28,.22-.42,.5-.42,.86,0,.33,.13,.58,.4,.75s.74,.33,1.43,.49c.69,.15,1.25,.34,1.67,.55s.75,.47,.95,.77c.21,.3,.31,.67,.31,1.1,0,.72-.29,1.3-.87,1.73s-1.33,.65-2.25,.65c-.65,0-1.22-.12-1.72-.34s-.89-.55-1.17-.96c-.28-.41-.42-.85-.42-1.33h1.38c.03,.46,.21,.83,.56,1.1,.35,.27,.8,.41,1.37,.41,.52,0,.94-.11,1.26-.32,.32-.21,.47-.49,.47-.85Z"/></g></g><g id="i"/><g id="j"/><g id="k"/><g id="l"/><g id="m"/><g id="n"/><g id="o"/><g id="p"/><g id="q"/><g id="r"/><g id="s"/><g id="t"/><g id="u"/></svg>