<?xml version="1.0" encoding="UTF-8"?><svg xmlns="http://www.w3.org/2000/svg" xmlns:xlink="http://www.w3.org/1999/xlink" viewBox="0 0 221 218"><defs><style>.w{fill:none;filter:url(#g);stroke:#b8aef9;stroke-miterlimit:10;stroke-width:.87px;}.x{fill:#b8aef9;}</style><filter id="g" filterUnits="userSpaceOnUse"><feOffset dx="0" dy="3.11"/><feGaussianBlur result="h" stdDeviation="3.11"/><feFlood flood-color="#000" flood-opacity=".54"/><feComposite in2="h" operator="in"/><feComposite in="SourceGraphic"/></filter></defs><g id="a"/><g id="b"/><g id="c"/><g id="d"/><g id="e"/><g id="f"><rect class="w" x="11.15" y="7.53" width="198.83" height="196.26" transform="translate(221.13 211.32) rotate(180)"/><g id="i"><g><path class="x" d="M131.58,111.19v-23.44c0-8.64-6.24-15.7-13.97-15.7h-3.09c-7.69,0-13.97,7.01-13.97,15.7v23.72c-2.65,1.85-4.44,5.27-4.44,9.2,0,.9,.1,1.74,.25,2.58l.2,.84h39.43l.2-.84c.2-.84,.25-1.74,.25-2.58,.05-4.09-1.95-7.68-4.84-9.48Zm-26.95-1.18c-.7,0-1.35,.06-2,.22v-22.49c0-7.4,5.34-13.46,11.98-13.46h3.09c6.59,0,11.98,6,11.98,13.46v22.43c-.5-.11-1-.17-1.55-.17h-23.51Zm29.79,11.89h-36.18c-.05-.39-.05-.79-.05-1.18,0-4.65,3.19-8.47,7.09-8.47h22.21c3.89,0,7.09,3.81,7.09,8.47-.1,.39-.1,.79-.15,1.18Z"/><path class="x" d="M115.76,102.32c-1.2,0-2.05-1.01-2.05-2.36s.85-2.36,2.1-2.36,2.05,.95,2.05,2.36c-.05,1.35-.85,2.36-2.1,2.36h0Zm-1.3-6l-.5-11.72h3.64l-.5,11.72h-2.65Z"/><path class="x" d="M96.8,90.94h-4.99c-.7,0-1.25-.62-1.25-1.4s.55-1.4,1.25-1.4h4.99c.7,0,1.25,.62,1.25,1.4s-.55,1.4-1.25,1.4Z"/><path class="x" d="M140.81,90.94h-4.99c-.7,0-1.25-.62-1.25-1.4s.55-1.4,1.25-1.4h4.99c.7,0,1.25,.62,1.25,1.4s-.55,1.4-1.25,1.4Z"/><path class="x" d="M116.16,68.4c-.7,0-1.25-.62-1.25-1.4v-5.61c0-.79,.55-1.4,1.25-1.4s1.25,.62,1.25,1.4v5.61c0,.79-.55,1.4-1.25,1.4Z"/><path class="x" d="M131.03,74c-.3,0-.65-.11-.9-.39-.5-.56-.5-1.46,0-1.96l3.49-3.93c.5-.56,1.3-.56,1.75,0,.45,.56,.5,1.46,0,1.96l-3.49,3.93c-.25,.28-.55,.39-.85,.39Z"/><path class="x" d="M100.94,74c-.3,0-.65-.11-.9-.39l-3.49-3.93c-.5-.56-.5-1.46,0-1.96s1.3-.56,1.75,0l3.49,3.93c.5,.56,.5,1.46,0,1.96-.2,.28-.55,.39-.85,.39Z"/></g><g><path class="x" d="M49.16,60.03l3.39-4.13c1.78,1.51,4.1,2.55,6.08,2.55,2.22,0,3.26-.84,3.26-2.18,0-1.44-1.38-1.91-3.53-2.82l-3.19-1.34c-2.62-1.04-5.07-3.22-5.07-6.85,0-4.2,3.76-7.55,9.06-7.55,2.89,0,5.94,1.11,8.12,3.29l-2.99,3.76c-1.65-1.24-3.19-1.91-5.14-1.91-1.85,0-2.99,.74-2.99,2.08s1.58,1.91,3.79,2.79l3.12,1.24c3.09,1.24,4.93,3.32,4.93,6.85,0,4.16-3.49,7.82-9.53,7.82-3.26,0-6.75-1.21-9.33-3.59Z"/><path class="x" d="M70.11,60.14l2.75-3.76c1.51,1.44,3.26,2.42,5.2,2.42,2.32,0,3.83-.97,3.83-2.85,0-2.15-1.14-3.42-6.38-3.42v-4.2c4.26,0,5.61-1.31,5.61-3.29,0-1.71-1.01-2.65-2.85-2.65-1.68,0-2.95,.77-4.46,2.08l-3.02-3.66c2.32-1.95,4.8-3.09,7.75-3.09,5.17,0,8.56,2.42,8.56,6.88,0,2.48-1.34,4.43-4.03,5.51v.17c2.79,.84,4.83,2.85,4.83,6.08,0,4.67-4.26,7.28-9.23,7.28-3.96,0-6.75-1.38-8.56-3.49Z"/></g><path class="x" d="M132.73,52.73c-7.09-6.9-16.44-10.7-26.34-10.7-3.99,0-7.92,.62-11.67,1.84l-1.36-4.19c4.2-1.36,8.58-2.05,13.04-2.05,11.05,0,21.5,4.25,29.41,11.95l-3.08,3.16Z"/><path class="x" d="M90.34,118.77c-15.86-6.54-26.1-21.84-26.1-38.99,0-4.97,.86-9.84,2.55-14.47l4.14,1.51c-1.51,4.14-2.28,8.5-2.28,12.96,0,15.36,9.17,29.06,23.37,34.92l-1.68,4.08Z"/><path class="x" d="M147.49,79.96h-1.42c0-1.12-.05-2.26-.14-3.37-1.01-11.85-7.26-22.49-17.16-29.17l.8-1.18c10.26,6.93,16.74,17.95,17.78,30.23,.1,1.15,.15,2.33,.15,3.49Z"/></g><g><path class="x" d="M31.82,153c-1.23-.35-2.12-.79-2.68-1.3-.56-.52-.84-1.15-.84-1.91,0-.86,.34-1.56,1.03-2.12s1.57-.84,2.67-.84c.75,0,1.41,.14,2,.43,.58,.29,1.04,.69,1.36,1.19,.32,.51,.48,1.06,.48,1.66h-1.44c0-.66-.21-1.18-.63-1.55s-1.01-.57-1.77-.57c-.71,0-1.26,.16-1.65,.47s-.59,.74-.59,1.3c0,.44,.19,.82,.56,1.12,.38,.31,1.01,.59,1.92,.84,.9,.25,1.61,.53,2.12,.84,.51,.31,.89,.66,1.13,1.07,.25,.41,.37,.89,.37,1.44,0,.88-.34,1.59-1.03,2.12-.69,.53-1.6,.79-2.75,.79-.75,0-1.44-.14-2.09-.43s-1.15-.68-1.5-1.18c-.35-.5-.53-1.06-.53-1.69h1.44c0,.66,.24,1.17,.73,1.56,.48,.38,1.13,.57,1.94,.57,.76,0,1.34-.15,1.74-.46,.4-.31,.6-.73,.6-1.26s-.19-.94-.56-1.24-1.05-.58-2.03-.86Z"/><path class="x" d="M37.47,147.63c0-.22,.07-.41,.21-.57s.34-.23,.61-.23,.47,.08,.61,.23c.14,.15,.21,.34,.21,.57s-.07,.41-.21,.56c-.14,.15-.34,.22-.61,.22s-.47-.07-.61-.22-.21-.34-.21-.56Zm1.49,10.21h-1.38v-8.07h1.38v8.07Z"/><path class="x" d="M45.87,155.7c0-.37-.14-.66-.42-.87-.28-.21-.77-.38-1.47-.53-.7-.15-1.25-.33-1.66-.54-.41-.21-.71-.46-.91-.75s-.29-.63-.29-1.03c0-.66,.28-1.22,.84-1.68,.56-.46,1.27-.69,2.15-.69,.92,0,1.66,.24,2.23,.71,.57,.47,.85,1.08,.85,1.81h-1.39c0-.38-.16-.7-.48-.98-.32-.27-.72-.41-1.21-.41s-.9,.11-1.18,.33c-.28,.22-.42,.5-.42,.86,0,.33,.13,.58,.4,.75,.26,.17,.74,.33,1.43,.49,.69,.15,1.25,.34,1.67,.55,.43,.21,.75,.47,.95,.77,.21,.3,.31,.67,.31,1.1,0,.72-.29,1.3-.87,1.74-.58,.43-1.33,.65-2.25,.65-.65,0-1.22-.11-1.72-.34-.5-.23-.89-.55-1.17-.96-.28-.41-.42-.85-.42-1.33h1.38c.03,.46,.21,.83,.56,1.1s.8,.41,1.37,.41c.52,0,.94-.11,1.26-.32,.32-.21,.47-.49,.47-.85Z"/><path class="x" d="M50.92,147.81v1.96h1.51v1.07h-1.51v5.01c0,.32,.07,.57,.2,.73,.13,.16,.36,.24,.69,.24,.16,0,.38-.03,.66-.09v1.11c-.36,.1-.72,.15-1.06,.15-.62,0-1.08-.19-1.4-.56s-.47-.9-.47-1.59v-5.01h-1.47v-1.07h1.47v-1.96h1.38Z"/><path class="x" d="M57.39,157.99c-1.09,0-1.98-.36-2.67-1.08s-1.03-1.68-1.03-2.88v-.25c0-.8,.15-1.52,.46-2.14,.31-.63,.73-1.12,1.28-1.48,.55-.36,1.14-.53,1.79-.53,1.05,0,1.87,.35,2.45,1.04s.87,1.68,.87,2.97v.57h-5.47c.02,.8,.25,1.44,.7,1.93s1.01,.73,1.7,.73c.49,0,.9-.1,1.24-.3,.34-.2,.63-.46,.89-.79l.84,.66c-.68,1.04-1.69,1.56-3.04,1.56Zm-.17-7.24c-.56,0-1.02,.2-1.4,.61s-.61,.97-.7,1.7h4.04v-.1c-.04-.7-.23-1.25-.57-1.63s-.8-.58-1.37-.58Z"/><path class="x" d="M63.44,149.77l.04,.89c.59-.7,1.39-1.04,2.4-1.04,1.13,0,1.9,.43,2.31,1.3,.27-.39,.62-.7,1.05-.94,.43-.24,.94-.36,1.53-.36,1.77,0,2.67,.94,2.7,2.81v5.41h-1.38v-5.33c0-.58-.13-1.01-.4-1.29-.26-.29-.71-.43-1.33-.43-.51,0-.94,.15-1.28,.46-.34,.31-.53,.72-.59,1.24v5.36h-1.39v-5.29c0-1.17-.58-1.76-1.72-1.76-.91,0-1.52,.39-1.86,1.16v5.89h-1.38v-8.07h1.31Z"/><path class="x" d="M80.52,157.84c-.08-.16-.14-.44-.19-.85-.64,.67-1.41,1-2.3,1-.8,0-1.45-.22-1.96-.67s-.76-1.02-.76-1.71c0-.84,.32-1.49,.96-1.96,.64-.47,1.54-.7,2.7-.7h1.34v-.63c0-.48-.14-.87-.43-1.15-.29-.29-.71-.43-1.28-.43-.49,0-.91,.12-1.24,.37s-.5,.55-.5,.9h-1.39c0-.4,.14-.79,.43-1.17s.67-.67,1.16-.89,1.03-.33,1.62-.33c.93,0,1.66,.23,2.19,.7s.8,1.11,.82,1.92v3.72c0,.74,.09,1.33,.28,1.77v.12h-1.45Zm-2.29-1.05c.43,0,.84-.11,1.23-.34,.39-.22,.67-.51,.84-.87v-1.66h-1.08c-1.69,0-2.54,.5-2.54,1.49,0,.43,.14,.77,.43,1.01,.29,.24,.66,.37,1.11,.37Z"/><path class="x" d="M87.29,153.74c0-1.24,.29-2.23,.88-2.99,.59-.75,1.36-1.13,2.31-1.13s1.69,.32,2.25,.97v-4.21h1.38v11.46h-1.27l-.07-.87c-.55,.68-1.32,1.01-2.31,1.01s-1.7-.38-2.29-1.15c-.59-.77-.88-1.77-.88-3v-.1Zm1.38,.16c0,.92,.19,1.63,.57,2.15s.9,.78,1.57,.78c.88,0,1.51-.39,1.92-1.18v-3.71c-.41-.76-1.05-1.14-1.9-1.14-.68,0-1.2,.26-1.58,.78-.38,.52-.57,1.3-.57,2.32Z"/><path class="x" d="M99.59,157.99c-1.09,0-1.98-.36-2.67-1.08s-1.03-1.68-1.03-2.88v-.25c0-.8,.15-1.52,.46-2.14,.31-.63,.73-1.12,1.28-1.48,.55-.36,1.14-.53,1.79-.53,1.05,0,1.87,.35,2.45,1.04s.87,1.68,.87,2.97v.57h-5.47c.02,.8,.25,1.44,.7,1.93s1.01,.73,1.7,.73c.49,0,.9-.1,1.24-.3,.34-.2,.63-.46,.89-.79l.84,.66c-.68,1.04-1.69,1.56-3.04,1.56Zm-.17-7.24c-.56,0-1.02,.2-1.4,.61s-.61,.97-.7,1.7h4.04v-.1c-.04-.7-.23-1.25-.57-1.63s-.8-.58-1.37-.58Z"/><path class="x" d="M111.54,153c-1.23-.35-2.12-.79-2.68-1.3-.56-.52-.84-1.15-.84-1.91,0-.86,.34-1.56,1.03-2.12s1.57-.84,2.67-.84c.75,0,1.41,.14,2,.43,.58,.29,1.04,.69,1.36,1.19,.32,.51,.48,1.06,.48,1.66h-1.44c0-.66-.21-1.18-.63-1.55s-1.01-.57-1.77-.57c-.71,0-1.26,.16-1.65,.47s-.59,.74-.59,1.3c0,.44,.19,.82,.56,1.12,.38,.31,1.01,.59,1.92,.84,.9,.25,1.61,.53,2.12,.84,.51,.31,.89,.66,1.13,1.07,.25,.41,.37,.89,.37,1.44,0,.88-.34,1.59-1.03,2.12-.69,.53-1.6,.79-2.75,.79-.75,0-1.44-.14-2.09-.43s-1.15-.68-1.5-1.18c-.35-.5-.53-1.06-.53-1.69h1.44c0,.66,.24,1.17,.73,1.56,.48,.38,1.13,.57,1.94,.57,.76,0,1.34-.15,1.74-.46,.4-.31,.6-.73,.6-1.26s-.19-.94-.56-1.24-1.05-.58-2.03-.86Z"/><path class="x" d="M122.17,157.84c-.08-.16-.14-.44-.19-.85-.64,.67-1.41,1-2.3,1-.8,0-1.45-.22-1.96-.67s-.76-1.02-.76-1.71c0-.84,.32-1.49,.96-1.96,.64-.47,1.54-.7,2.7-.7h1.34v-.63c0-.48-.14-.87-.43-1.15-.29-.29-.71-.43-1.28-.43-.49,0-.91,.12-1.24,.37s-.5,.55-.5,.9h-1.39c0-.4,.14-.79,.43-1.17s.67-.67,1.16-.89,1.03-.33,1.62-.33c.93,0,1.66,.23,2.19,.7s.8,1.11,.82,1.92v3.72c0,.74,.09,1.33,.28,1.77v.12h-1.45Zm-2.29-1.05c.43,0,.84-.11,1.23-.34,.39-.22,.67-.51,.84-.87v-1.66h-1.08c-1.69,0-2.54,.5-2.54,1.49,0,.43,.14,.77,.43,1.01,.29,.24,.66,.37,1.11,.37Z"/><path class="x" d="M126.81,149.77l.04,1.01c.62-.78,1.42-1.16,2.42-1.16,1.71,0,2.57,.96,2.58,2.89v5.33h-1.38v-5.34c0-.58-.14-1.01-.4-1.29-.26-.28-.67-.42-1.22-.42-.45,0-.84,.12-1.18,.36-.34,.24-.6,.55-.79,.94v5.75h-1.38v-8.07h1.31Z"/><path class="x" d="M137.17,156.86c.49,0,.92-.15,1.29-.45s.57-.67,.61-1.12h1.31c-.03,.46-.18,.9-.48,1.32-.29,.42-.69,.75-1.18,1-.49,.25-1.01,.37-1.56,.37-1.1,0-1.97-.37-2.62-1.1s-.97-1.74-.97-3.01v-.23c0-.79,.14-1.48,.43-2.1,.29-.61,.7-1.09,1.24-1.43,.54-.34,1.18-.51,1.91-.51,.91,0,1.66,.27,2.26,.81,.6,.54,.92,1.25,.96,2.11h-1.31c-.04-.52-.24-.95-.59-1.29s-.79-.5-1.32-.5c-.7,0-1.25,.25-1.63,.76-.38,.5-.58,1.23-.58,2.19v.26c0,.93,.19,1.65,.58,2.15,.38,.5,.93,.75,1.64,.75Z"/><path class="x" d="M141.94,147.63c0-.22,.07-.41,.21-.57s.34-.23,.61-.23,.47,.08,.61,.23c.14,.15,.21,.34,.21,.57s-.07,.41-.21,.56c-.14,.15-.34,.22-.61,.22s-.47-.07-.61-.22-.21-.34-.21-.56Zm1.49,10.21h-1.38v-8.07h1.38v8.07Z"/><path class="x" d="M145.27,153.73c0-.79,.16-1.5,.47-2.13,.31-.63,.74-1.12,1.3-1.46,.55-.34,1.19-.51,1.9-.51,1.1,0,1.99,.38,2.67,1.14,.68,.76,1.02,1.77,1.02,3.04v.1c0,.79-.15,1.49-.45,2.12-.3,.62-.73,1.11-1.29,1.46-.56,.35-1.2,.52-1.93,.52-1.09,0-1.98-.38-2.66-1.14s-1.02-1.77-1.02-3.02v-.1Zm1.39,.17c0,.89,.21,1.61,.62,2.16,.42,.54,.97,.81,1.67,.81s1.26-.27,1.67-.82,.62-1.32,.62-2.31c0-.88-.21-1.6-.63-2.15-.42-.55-.98-.82-1.67-.82s-1.23,.27-1.65,.81-.63,1.32-.63,2.33Z"/><path class="x" d="M155.66,149.77l.04,1.01c.62-.78,1.42-1.16,2.42-1.16,1.71,0,2.57,.96,2.58,2.89v5.33h-1.38v-5.34c0-.58-.14-1.01-.4-1.29-.26-.28-.67-.42-1.22-.42-.45,0-.84,.12-1.18,.36-.34,.24-.6,.55-.79,.94v5.75h-1.38v-8.07h1.31Z"/><path class="x" d="M167.77,157.84c-.08-.16-.14-.44-.19-.85-.64,.67-1.41,1-2.3,1-.8,0-1.45-.22-1.96-.67s-.76-1.02-.76-1.71c0-.84,.32-1.49,.96-1.96,.64-.47,1.54-.7,2.7-.7h1.34v-.63c0-.48-.14-.87-.43-1.15-.29-.29-.71-.43-1.28-.43-.49,0-.91,.12-1.24,.37s-.5,.55-.5,.9h-1.39c0-.4,.14-.79,.43-1.17s.67-.67,1.16-.89,1.03-.33,1.62-.33c.93,0,1.66,.23,2.19,.7s.8,1.11,.82,1.92v3.72c0,.74,.09,1.33,.28,1.77v.12h-1.45Zm-2.29-1.05c.43,0,.84-.11,1.23-.34,.39-.22,.67-.51,.84-.87v-1.66h-1.08c-1.69,0-2.54,.5-2.54,1.49,0,.43,.14,.77,.43,1.01,.29,.24,.66,.37,1.11,.37Z"/><path class="x" d="M170.76,153.74c0-1.24,.29-2.23,.88-2.99,.59-.75,1.36-1.13,2.31-1.13s1.69,.32,2.25,.97v-4.21h1.38v11.46h-1.27l-.07-.87c-.55,.68-1.32,1.01-2.31,1.01s-1.7-.38-2.29-1.15c-.59-.77-.88-1.77-.88-3v-.1Zm1.38,.16c0,.92,.19,1.63,.57,2.15s.9,.78,1.57,.78c.88,0,1.51-.39,1.92-1.18v-3.71c-.41-.76-1.05-1.14-1.9-1.14-.68,0-1.2,.26-1.58,.78-.38,.52-.57,1.3-.57,2.32Z"/><path class="x" d="M179.34,153.73c0-.79,.16-1.5,.47-2.13,.31-.63,.74-1.12,1.3-1.46,.55-.34,1.19-.51,1.9-.51,1.1,0,1.99,.38,2.67,1.14,.68,.76,1.02,1.77,1.02,3.04v.1c0,.79-.15,1.49-.45,2.12-.3,.62-.73,1.11-1.29,1.46-.56,.35-1.2,.52-1.93,.52-1.09,0-1.98-.38-2.66-1.14s-1.02-1.77-1.02-3.02v-.1Zm1.39,.17c0,.89,.21,1.61,.62,2.16,.42,.54,.97,.81,1.67,.81s1.26-.27,1.67-.82,.62-1.32,.62-2.31c0-.88-.21-1.6-.63-2.15-.42-.55-.98-.82-1.67-.82s-1.23,.27-1.65,.81-.63,1.32-.63,2.33Z"/><path class="x" d="M193.13,155.7c0-.37-.14-.66-.42-.87-.28-.21-.77-.38-1.47-.53-.7-.15-1.25-.33-1.66-.54-.41-.21-.71-.46-.91-.75s-.29-.63-.29-1.03c0-.66,.28-1.22,.84-1.68,.56-.46,1.27-.69,2.15-.69,.92,0,1.66,.24,2.23,.71,.57,.47,.85,1.08,.85,1.81h-1.39c0-.38-.16-.7-.48-.98-.32-.27-.72-.41-1.21-.41s-.9,.11-1.18,.33c-.28,.22-.42,.5-.42,.86,0,.33,.13,.58,.4,.75,.26,.17,.74,.33,1.43,.49,.69,.15,1.25,.34,1.67,.55,.43,.21,.75,.47,.95,.77,.21,.3,.31,.67,.31,1.1,0,.72-.29,1.3-.87,1.74-.58,.43-1.33,.65-2.25,.65-.65,0-1.22-.11-1.72-.34-.5-.23-.89-.55-1.17-.96-.28-.41-.42-.85-.42-1.33h1.38c.03,.46,.21,.83,.56,1.1s.8,.41,1.37,.41c.52,0,.94-.11,1.26-.32,.32-.21,.47-.49,.47-.85Z"/></g></g><g id="j"/><g id="k"/><g id="l"/><g id="m"/><g id="n"/><g id="o"/><g id="p"/><g id="q"/><g id="r"/><g id="s"/><g id="t"/><g id="u"/><g id="v"/></svg>