<?xml version="1.0" encoding="UTF-8"?><svg id="textos" xmlns="http://www.w3.org/2000/svg" xmlns:xlink="http://www.w3.org/1999/xlink" viewBox="0 0 220 218"><defs><style>.cls-1{fill:#65dcca;}.cls-2{fill:none;filter:url(#drop-shadow-8);stroke:#65dcca;stroke-miterlimit:10;stroke-width:.87px;}</style><filter id="drop-shadow-8" filterUnits="userSpaceOnUse"><feOffset dx="0" dy="3.11"/><feGaussianBlur result="blur" stdDeviation="3.11"/><feFlood flood-color="#000" flood-opacity=".54"/><feComposite in2="blur" operator="in"/><feComposite in="SourceGraphic"/></filter></defs><rect class="cls-2" x="10.41" y="7.53" width="198.83" height="196.26" transform="translate(219.64 211.32) rotate(180)"/><g id="ico_s5"><g><path class="cls-1" d="M56.38,69.3l3.39-4.13c1.78,1.51,4.1,2.55,6.08,2.55,2.21,0,3.26-.84,3.26-2.18,0-1.44-1.38-1.91-3.53-2.82l-3.19-1.34c-2.62-1.04-5.07-3.22-5.07-6.85,0-4.2,3.76-7.55,9.06-7.55,2.89,0,5.94,1.11,8.12,3.29l-2.99,3.76c-1.65-1.24-3.19-1.91-5.14-1.91-1.85,0-2.99,.74-2.99,2.08s1.58,1.91,3.79,2.79l3.12,1.24c3.09,1.24,4.93,3.32,4.93,6.85,0,4.16-3.49,7.82-9.53,7.82-3.26,0-6.75-1.21-9.33-3.59Z"/><path class="cls-1" d="M77.36,69.43l2.72-3.76c1.41,1.34,3.16,2.38,5.14,2.38,2.42,0,3.93-1.31,3.93-3.89s-1.51-3.86-3.66-3.86c-1.38,0-2.05,.27-3.52,1.21l-2.62-1.71,.64-12.35h14.03v4.97h-8.9l-.37,4.23c.91-.37,1.64-.5,2.59-.5,4.23,0,7.79,2.48,7.79,7.89s-4.23,8.86-9.03,8.86c-4,0-6.75-1.51-8.73-3.46Z"/></g><path class="cls-1" d="M138.31,64.53c-7.09-6.9-16.44-10.7-26.34-10.7-3.99,0-7.92,.62-11.67,1.84l-1.36-4.19c4.2-1.36,8.58-2.05,13.04-2.05,11.05,0,21.5,4.25,29.41,11.95l-3.08,3.16Z"/><path class="cls-1" d="M95.92,130.57c-15.86-6.54-26.1-21.84-26.1-38.99,0-4.97,.86-9.84,2.55-14.47l4.14,1.51c-1.51,4.14-2.28,8.5-2.28,12.96,0,15.36,9.17,29.06,23.37,34.92l-1.68,4.07Z"/><path class="cls-1" d="M141.48,117.49l-1.07-.94c8.03-9.08,11.39-21.12,9.22-33.04-1.41-7.74-5.05-14.79-10.52-20.39l1.02-.99c5.67,5.8,9.44,13.11,10.9,21.13,2.25,12.34-1.24,24.82-9.56,34.23Z"/><g><path class="cls-1" d="M102.35,90.52h.79v5.21c0,.69,.39,1.33,.96,1.62,.57,.25,1.27,.1,1.71-.39l.04-.05,4.64-6.39h19.82c1.71,0,3.11-1.57,3.11-3.49v-17.45c0-1.92-1.4-3.49-3.11-3.49h-27.91c-1.71,0-3.11,1.57-3.11,3.49v17.45c-.04,1.92,1.36,3.49,3.06,3.49Zm-1.53-20.94c0-.98,.7-1.72,1.53-1.72h27.91c.87,0,1.53,.79,1.53,1.72v17.45c0,.98-.7,1.72-1.53,1.72h-20.21c-.09,0-.22,.05-.31,.1-.04,.05-.09,.05-.13,.1-.04,.05-.09,.05-.13,.1l-.04,.05-4.81,6.64v-6.1c0-.49-.35-.88-.79-.88h-1.53c-.87,0-1.53-.79-1.53-1.72v-17.45h.04Z"/><path class="cls-1" d="M122.87,114.66c2.54-1.82,4.2-5.01,4.2-8.65,0-5.7-4.11-10.32-9.19-10.32s-9.19,4.62-9.19,10.32c0,3.59,1.62,6.74,4.11,8.6-6.12,.74-10.89,6.59-10.89,13.67,0,.29,0,.59,.04,.93l.09,1.38h31.15l.09-1.38c0-.29,.04-.59,.04-.93-.09-6.88-4.59-12.59-10.46-13.62Zm-11.55-8.65c0-4.08,2.93-7.37,6.56-7.37s6.56,3.29,6.56,7.37-2.93,7.37-6.56,7.37-6.56-3.34-6.56-7.37Zm-6.78,21.58c.31-5.65,4.51-10.18,9.62-10.18h6.87c5.12,0,9.32,4.52,9.62,10.18h-26.12Z"/></g></g><g><path class="cls-1" d="M50.25,155.04c-1.23-.35-2.12-.79-2.68-1.3-.56-.52-.84-1.15-.84-1.91,0-.86,.34-1.56,1.03-2.12s1.57-.84,2.67-.84c.75,0,1.41,.14,2,.43,.58,.29,1.04,.69,1.36,1.19,.32,.51,.48,1.06,.48,1.66h-1.44c0-.66-.21-1.18-.63-1.55s-1.01-.57-1.77-.57c-.71,0-1.26,.16-1.65,.47-.4,.31-.59,.74-.59,1.3,0,.44,.19,.82,.56,1.12,.38,.31,1.01,.59,1.92,.84,.9,.25,1.61,.53,2.12,.84,.51,.31,.89,.66,1.13,1.07s.37,.89,.37,1.44c0,.88-.34,1.59-1.03,2.12-.69,.53-1.6,.79-2.75,.79-.75,0-1.44-.14-2.09-.43s-1.15-.68-1.5-1.18c-.35-.5-.53-1.06-.53-1.69h1.44c0,.66,.24,1.17,.73,1.56s1.13,.57,1.94,.57c.76,0,1.34-.15,1.74-.46,.4-.31,.61-.73,.61-1.26s-.19-.94-.56-1.24-1.05-.58-2.03-.86Z"/><path class="cls-1" d="M55.9,149.67c0-.22,.07-.41,.21-.57s.34-.23,.61-.23,.47,.08,.61,.23c.14,.15,.21,.34,.21,.57s-.07,.41-.21,.56c-.14,.15-.34,.22-.61,.22s-.47-.07-.61-.22-.21-.34-.21-.56Zm1.49,10.21h-1.38v-8.07h1.38v8.07Z"/><path class="cls-1" d="M64.3,157.74c0-.37-.14-.66-.42-.87-.28-.21-.77-.38-1.47-.53s-1.25-.33-1.66-.54-.71-.46-.91-.75c-.2-.29-.29-.63-.29-1.03,0-.66,.28-1.22,.84-1.68,.56-.46,1.27-.69,2.14-.69,.92,0,1.66,.24,2.23,.71,.57,.47,.86,1.08,.86,1.81h-1.39c0-.38-.16-.7-.48-.98s-.72-.41-1.21-.41-.89,.11-1.18,.33c-.28,.22-.42,.5-.42,.86,0,.33,.13,.58,.39,.75,.26,.17,.74,.33,1.43,.49,.69,.15,1.25,.34,1.67,.55,.43,.21,.75,.47,.95,.77,.21,.3,.31,.67,.31,1.1,0,.72-.29,1.3-.87,1.74-.58,.43-1.33,.65-2.25,.65-.65,0-1.22-.11-1.72-.34-.5-.23-.89-.55-1.17-.96-.28-.41-.42-.85-.42-1.33h1.38c.03,.46,.21,.83,.56,1.1s.8,.41,1.37,.41c.52,0,.94-.11,1.26-.32,.31-.21,.47-.49,.47-.85Z"/><path class="cls-1" d="M69.35,149.86v1.96h1.51v1.07h-1.51v5.01c0,.32,.07,.57,.2,.73,.13,.16,.36,.24,.69,.24,.16,0,.38-.03,.66-.09v1.11c-.36,.1-.72,.15-1.06,.15-.62,0-1.08-.19-1.4-.56-.31-.37-.47-.9-.47-1.59v-5.01h-1.47v-1.07h1.47v-1.96h1.38Z"/><path class="cls-1" d="M75.82,160.03c-1.09,0-1.98-.36-2.67-1.08-.69-.72-1.03-1.68-1.03-2.88v-.25c0-.8,.15-1.52,.46-2.14,.31-.63,.73-1.12,1.29-1.48,.55-.36,1.14-.53,1.79-.53,1.05,0,1.87,.35,2.45,1.04s.87,1.68,.87,2.97v.57h-5.47c.02,.8,.25,1.44,.7,1.93s1.01,.73,1.7,.73c.49,0,.9-.1,1.24-.3,.34-.2,.63-.46,.89-.79l.84,.66c-.68,1.04-1.69,1.56-3.04,1.56Zm-.17-7.24c-.56,0-1.02,.2-1.4,.61-.38,.41-.61,.97-.7,1.7h4.04v-.1c-.04-.7-.23-1.25-.57-1.63s-.79-.58-1.37-.58Z"/><path class="cls-1" d="M81.87,151.81l.04,.89c.59-.7,1.39-1.04,2.39-1.04,1.13,0,1.9,.43,2.31,1.3,.27-.39,.62-.7,1.05-.94,.43-.24,.94-.36,1.53-.36,1.77,0,2.67,.94,2.7,2.81v5.41h-1.38v-5.33c0-.58-.13-1.01-.4-1.29-.26-.29-.71-.43-1.33-.43-.51,0-.94,.15-1.28,.46s-.54,.72-.59,1.24v5.36h-1.39v-5.29c0-1.17-.58-1.76-1.72-1.76-.9,0-1.52,.39-1.86,1.16v5.89h-1.38v-8.07h1.31Z"/><path class="cls-1" d="M98.94,159.88c-.08-.16-.14-.44-.19-.85-.64,.67-1.41,1-2.3,1-.8,0-1.45-.22-1.96-.67s-.76-1.02-.76-1.71c0-.84,.32-1.49,.96-1.96,.64-.47,1.54-.7,2.7-.7h1.34v-.63c0-.48-.14-.87-.43-1.15-.29-.29-.71-.43-1.28-.43-.49,0-.9,.12-1.24,.37-.33,.25-.5,.55-.5,.9h-1.39c0-.4,.14-.79,.43-1.17,.29-.38,.67-.67,1.16-.89s1.03-.33,1.62-.33c.93,0,1.66,.23,2.19,.7s.8,1.11,.82,1.92v3.72c0,.74,.09,1.33,.28,1.77v.12h-1.45Zm-2.29-1.05c.43,0,.84-.11,1.23-.34,.39-.22,.67-.51,.84-.87v-1.66h-1.08c-1.69,0-2.54,.5-2.54,1.49,0,.43,.14,.77,.43,1.01,.29,.24,.66,.37,1.11,.37Z"/><path class="cls-1" d="M105.72,155.78c0-1.24,.29-2.23,.88-2.99,.59-.75,1.36-1.13,2.31-1.13s1.69,.32,2.25,.97v-4.21h1.38v11.46h-1.27l-.07-.87c-.55,.68-1.32,1.01-2.31,1.01s-1.7-.38-2.29-1.15c-.59-.77-.88-1.77-.88-3v-.1Zm1.38,.16c0,.92,.19,1.63,.57,2.15,.38,.52,.9,.78,1.57,.78,.88,0,1.51-.39,1.92-1.18v-3.71c-.41-.76-1.05-1.14-1.9-1.14-.68,0-1.21,.26-1.58,.78-.38,.52-.57,1.3-.57,2.32Z"/><path class="cls-1" d="M118.02,160.03c-1.1,0-1.98-.36-2.67-1.08-.69-.72-1.03-1.68-1.03-2.88v-.25c0-.8,.15-1.52,.46-2.14,.31-.63,.73-1.12,1.28-1.48s1.14-.53,1.79-.53c1.05,0,1.87,.35,2.45,1.04s.87,1.68,.87,2.97v.57h-5.47c.02,.8,.25,1.44,.7,1.93s1.01,.73,1.7,.73c.49,0,.9-.1,1.24-.3s.63-.46,.89-.79l.84,.66c-.68,1.04-1.69,1.56-3.04,1.56Zm-.17-7.24c-.56,0-1.03,.2-1.4,.61-.38,.41-.61,.97-.7,1.7h4.04v-.1c-.04-.7-.23-1.25-.57-1.63s-.8-.58-1.37-.58Z"/><path class="cls-1" d="M126.77,159.88v-10.86h3.07c.95,0,1.78,.21,2.51,.63s1.29,1.01,1.68,1.78c.4,.77,.6,1.66,.6,2.66v.69c0,1.03-.2,1.92-.59,2.69-.39,.77-.96,1.36-1.69,1.78s-1.59,.62-2.56,.63h-3.01Zm1.43-9.69v8.52h1.51c1.11,0,1.96-.34,2.58-1.03,.62-.69,.92-1.67,.92-2.94v-.63c0-1.23-.29-2.19-.87-2.88s-1.4-1.03-2.46-1.04h-1.67Z"/><path class="cls-1" d="M139.92,160.03c-1.09,0-1.98-.36-2.67-1.08-.69-.72-1.03-1.68-1.03-2.88v-.25c0-.8,.15-1.52,.46-2.14,.31-.63,.73-1.12,1.29-1.48,.55-.36,1.14-.53,1.79-.53,1.05,0,1.87,.35,2.45,1.04s.87,1.68,.87,2.97v.57h-5.47c.02,.8,.25,1.44,.7,1.93s1.01,.73,1.7,.73c.49,0,.9-.1,1.24-.3,.34-.2,.63-.46,.89-.79l.84,.66c-.68,1.04-1.69,1.56-3.04,1.56Zm-.17-7.24c-.56,0-1.02,.2-1.4,.61-.38,.41-.61,.97-.7,1.7h4.04v-.1c-.04-.7-.23-1.25-.57-1.63s-.79-.58-1.37-.58Z"/><path class="cls-1" d="M145.97,151.81l.04,1.01c.62-.78,1.42-1.16,2.42-1.16,1.71,0,2.57,.96,2.58,2.89v5.33h-1.38v-5.34c0-.58-.14-1.01-.4-1.29s-.67-.42-1.22-.42c-.45,0-.84,.12-1.18,.36-.34,.24-.6,.55-.79,.94v5.75h-1.38v-8.07h1.31Z"/><path class="cls-1" d="M158.08,159.09c-.54,.63-1.32,.95-2.37,.95-.86,0-1.52-.25-1.96-.75-.45-.5-.68-1.24-.68-2.22v-5.25h1.38v5.21c0,1.22,.5,1.84,1.49,1.84,1.05,0,1.76-.39,2.1-1.18v-5.87h1.38v8.07h-1.31l-.03-.8Z"/><path class="cls-1" d="M162.83,151.81l.04,1.01c.62-.78,1.42-1.16,2.42-1.16,1.71,0,2.57,.96,2.58,2.89v5.33h-1.38v-5.34c0-.58-.14-1.01-.4-1.29-.26-.28-.67-.42-1.22-.42-.45,0-.84,.12-1.18,.36-.34,.24-.6,.55-.79,.94v5.75h-1.38v-8.07h1.3Z"/><path class="cls-1" d="M173.19,158.91c.49,0,.92-.15,1.29-.45,.37-.3,.57-.67,.61-1.12h1.31c-.03,.46-.19,.9-.48,1.32s-.69,.75-1.18,1c-.49,.25-1.01,.37-1.55,.37-1.1,0-1.97-.37-2.62-1.1-.65-.73-.97-1.74-.97-3.01v-.23c0-.79,.14-1.48,.43-2.1,.29-.61,.7-1.09,1.24-1.43,.54-.34,1.18-.51,1.91-.51,.91,0,1.66,.27,2.26,.81,.6,.54,.92,1.25,.96,2.11h-1.31c-.04-.52-.24-.95-.59-1.29s-.79-.5-1.32-.5c-.7,0-1.24,.25-1.63,.76-.38,.5-.58,1.23-.58,2.19v.26c0,.93,.19,1.65,.58,2.15,.38,.5,.93,.75,1.64,.75Z"/><path class="cls-1" d="M177.96,149.67c0-.22,.07-.41,.21-.57s.34-.23,.61-.23,.47,.08,.61,.23c.14,.15,.21,.34,.21,.57s-.07,.41-.21,.56c-.14,.15-.34,.22-.61,.22s-.47-.07-.61-.22-.21-.34-.21-.56Zm1.49,10.21h-1.38v-8.07h1.38v8.07Z"/><path class="cls-1" d="M186.64,159.88c-.08-.16-.14-.44-.19-.85-.64,.67-1.41,1-2.3,1-.79,0-1.45-.22-1.96-.67s-.77-1.02-.77-1.71c0-.84,.32-1.49,.96-1.96,.64-.47,1.54-.7,2.7-.7h1.34v-.63c0-.48-.14-.87-.43-1.15-.29-.29-.71-.43-1.28-.43-.49,0-.91,.12-1.24,.37-.33,.25-.5,.55-.5,.9h-1.39c0-.4,.14-.79,.43-1.17,.29-.38,.67-.67,1.16-.89s1.03-.33,1.62-.33c.93,0,1.66,.23,2.19,.7s.8,1.11,.82,1.92v3.72c0,.74,.1,1.33,.29,1.77v.12h-1.45Zm-2.29-1.05c.43,0,.84-.11,1.23-.34s.67-.51,.84-.87v-1.66h-1.08c-1.69,0-2.54,.5-2.54,1.49,0,.43,.14,.77,.43,1.01,.29,.24,.66,.37,1.11,.37Z"/><path class="cls-1" d="M194.67,157.74c0-.37-.14-.66-.42-.87-.28-.21-.77-.38-1.47-.53-.7-.15-1.25-.33-1.66-.54-.41-.21-.71-.46-.91-.75-.2-.29-.29-.63-.29-1.03,0-.66,.28-1.22,.84-1.68,.56-.46,1.28-.69,2.15-.69,.91,0,1.66,.24,2.23,.71,.57,.47,.85,1.08,.85,1.81h-1.39c0-.38-.16-.7-.48-.98-.32-.27-.72-.41-1.21-.41s-.9,.11-1.18,.33-.43,.5-.43,.86c0,.33,.13,.58,.4,.75,.26,.17,.74,.33,1.43,.49s1.25,.34,1.68,.55c.43,.21,.74,.47,.95,.77s.31,.67,.31,1.1c0,.72-.29,1.3-.87,1.74-.58,.43-1.32,.65-2.25,.65-.65,0-1.22-.11-1.71-.34-.5-.23-.89-.55-1.17-.96s-.42-.85-.42-1.33h1.38c.03,.46,.21,.83,.55,1.1s.8,.41,1.37,.41c.52,0,.94-.11,1.26-.32,.32-.21,.47-.49,.47-.85Z"/></g></svg>