<?xml version="1.0" encoding="UTF-8"?><svg xmlns="http://www.w3.org/2000/svg" xmlns:xlink="http://www.w3.org/1999/xlink" viewBox="0 0 221 218"><defs><style>.w{fill:#8dd9f6;}.x{fill:none;filter:url(#g);stroke:#8dd9f6;stroke-miterlimit:10;stroke-width:.87px;}</style><filter id="g" filterUnits="userSpaceOnUse"><feOffset dx="0" dy="3.11"/><feGaussianBlur result="h" stdDeviation="3.11"/><feFlood flood-color="#000" flood-opacity=".54"/><feComposite in2="h" operator="in"/><feComposite in="SourceGraphic"/></filter></defs><g id="a"/><g id="b"/><g id="c"/><g id="d"/><g id="e"/><g id="f"><rect class="x" x="10.79" y="7.25" width="198.83" height="196.26" transform="translate(220.41 210.76) rotate(180)"/><g id="i"><g><path class="w" d="M61.29,69.39l3.39-4.13c1.78,1.51,4.1,2.55,6.08,2.55,2.21,0,3.26-.84,3.26-2.18,0-1.44-1.38-1.91-3.53-2.82l-3.19-1.34c-2.62-1.04-5.07-3.22-5.07-6.85,0-4.2,3.76-7.55,9.06-7.55,2.89,0,5.94,1.11,8.12,3.29l-2.99,3.76c-1.65-1.24-3.19-1.91-5.14-1.91-1.85,0-2.99,.74-2.99,2.08s1.58,1.91,3.79,2.79l3.12,1.24c3.09,1.24,4.93,3.32,4.93,6.85,0,4.16-3.49,7.82-9.53,7.82-3.26,0-6.75-1.21-9.33-3.59Z"/><path class="w" d="M97.04,53.58c-.8-.87-2.35-1.75-3.72-1.75-2.59,0-4.63,1.85-4.87,7.29,1.24-1.58,3.36-2.45,4.77-2.45,4.16,0,7.32,2.42,7.32,7.86s-3.76,8.46-8.22,8.46c-4.7,0-9.33-3.66-9.33-12.76s4.77-13.16,9.94-13.16c3.29,0,5.71,1.38,7.29,2.99l-3.16,3.53Zm-1.98,10.94c0-2.75-1.34-3.66-2.99-3.66-1.24,0-2.52,.6-3.53,2.25,.5,4.16,2.05,5.41,3.62,5.41s2.89-1.18,2.89-4Z"/></g><path class="w" d="M146.13,65.53c-7.09-6.9-16.44-10.7-26.34-10.7-3.99,0-7.92,.62-11.67,1.84l-1.36-4.19c4.2-1.36,8.58-2.06,13.04-2.06,11.05,0,21.5,4.25,29.41,11.95l-3.08,3.16Z"/><path class="w" d="M103.74,131.57c-15.86-6.54-26.1-21.84-26.1-38.99,0-4.97,.86-9.84,2.55-14.47l4.14,1.51c-1.51,4.14-2.28,8.5-2.28,12.96,0,15.36,9.17,29.06,23.37,34.92l-1.68,4.08Z"/><path class="w" d="M119.67,132.88c-2.4,0-4.81-.21-7.16-.63-4.69-.83-9.15-2.47-13.27-4.87l.71-1.23c3.97,2.31,8.28,3.89,12.8,4.7,2.27,.4,4.59,.61,6.91,.61v1.42Z"/><path class="w" d="M157.39,81.34c-2.3-7.98-6.99-14.92-13.56-20.06l.88-1.12c6.82,5.33,11.67,12.52,14.05,20.79l-1.37,.39Z"/><g><g><g><rect class="w" x="122.08" y="99.7" width="12.48" height=".7"/><rect class="w" x="122.08" y="97.65" width="12.48" height=".7"/><rect class="w" x="122.08" y="101.76" width="8.31" height=".7"/><rect class="w" x="122.08" y="95.55" width="8.31" height=".7"/><rect class="w" x="131.45" y="101.76" width="3.11" height=".7"/><rect class="w" x="131.45" y="91.35" width="3.11" height=".7"/><rect class="w" x="122.08" y="103.77" width="12.48" height=".7"/><rect class="w" x="122.08" y="107.89" width="12.48" height=".7"/><rect class="w" x="126.76" y="105.83" width="7.8" height=".7"/><rect class="w" x="122.08" y="105.83" width="3.62" height=".7"/><rect class="w" x="122.08" y="109.94" width="2.09" height=".7"/><rect class="w" x="125.22" y="109.94" width="9.37" height=".7"/></g><path class="w" d="M138.51,84.73h-15.33c-1.43,0-2.6,1.32-2.6,2.92v.58c-1.43,.74-2.45,2.39-2.45,4.28v18.3c0,2.59,1.9,4.73,4.21,4.73h12.08c1.79,0,3.33-1.27,3.92-3.04h.15c1.43,0,2.6-1.32,2.6-2.92v-21.92c.04-1.6-1.13-2.92-2.56-2.92Zm-4.06,29.57h-12.08c-1.72,0-3.11-1.56-3.11-3.5v-18.3c0-1.93,1.39-3.5,3.11-3.5h12.08c1.72,0,3.11,1.56,3.11,3.5v18.3c0,1.93-1.43,3.5-3.11,3.5Zm5.56-4.73c0,.86-.59,1.6-1.35,1.69v-20.56c0-1.6-1.17-2.92-2.6-2.92h-14.35v-.16c0-.95,.66-1.69,1.5-1.69h15.33c.81,0,1.5,.74,1.5,1.69v21.96h-.04Z"/></g><g><path class="w" d="M106.67,107.35c-.07-.33-.37-.53-.66-.45s-.48,.41-.4,.74c.33,1.36,.73,2.71,1.24,3.99,.11,.25,.29,.37,.51,.37,.07,0,.15-.04,.18-.04,.29-.16,.4-.49,.29-.82-.48-1.23-.88-2.51-1.17-3.78Z"/><path class="w" d="M134.34,126.47c-.44,.11-.88,.19-1.32,.27,.11,.39,.17,.8,.17,1.23,.46-.08,.92-.16,1.38-.27,.29-.08,.51-.41,.44-.74-.07-.33-.37-.58-.66-.49Z"/><path class="w" d="M123.76,126.89c-.07,.33,.11,.66,.4,.74,.39,.11,.78,.19,1.18,.28,0-.43,.07-.84,.18-1.23-.37-.07-.74-.15-1.1-.24-.29-.08-.59,.12-.66,.45Z"/><path class="w" d="M140.38,124.09c-1.06,.62-2.16,1.15-3.29,1.56-.26,.12-.44,.45-.33,.78,.07,.25,.29,.41,.51,.41,.07,0,.11,0,.18-.04,1.17-.45,2.34-.99,3.44-1.65,.26-.16,.37-.53,.22-.82-.15-.29-.48-.41-.73-.25Z"/><path class="w" d="M121.6,125.57c-1.1-.45-2.2-1.03-3.26-1.65-.26-.16-.59-.04-.73,.25-.15,.29-.04,.66,.22,.82,1.1,.66,2.27,1.23,3.44,1.69,.07,.04,.11,.04,.18,.04,.22,0,.44-.16,.48-.37,.11-.33-.04-.66-.33-.78Z"/><path class="w" d="M145.65,119.89c-.88,.9-1.79,1.77-2.78,2.51-.26,.21-.33,.58-.15,.86,.11,.21,.26,.29,.44,.29,.11,0,.22-.04,.29-.12,1.02-.78,2.01-1.69,2.93-2.63,.22-.21,.22-.62,.04-.86-.18-.25-.55-.29-.77-.04Z"/><path class="w" d="M152.93,107.27c-.29-.12-.59,.08-.66,.41-.29,1.27-.73,2.55-1.21,3.78-.15,.33-.04,.7,.26,.82,.07,.04,.15,.04,.22,.04,.18,0,.4-.12,.48-.37,.51-1.27,.95-2.59,1.28-3.95,.11-.33-.07-.66-.37-.74Z"/><path class="w" d="M153.66,99.82c-.29,0-.55,.29-.55,.62v.08c0,1.36-.07,2.71-.26,4.03-.04,.33,.18,.66,.48,.7h.07c.26,0,.48-.25,.51-.53,.18-1.4,.29-2.8,.29-4.19v-.08c0-.33-.26-.62-.55-.62Z"/><path class="w" d="M115.56,78.97c.11,0,.22-.04,.33-.12,.99-.74,2.01-1.44,3.07-2.06,.29-.16,.4-.53,.26-.82-.15-.33-.48-.45-.73-.29-1.13,.66-2.2,1.36-3.22,2.18-.26,.21-.33,.58-.15,.86,.11,.16,.26,.25,.44,.25Z"/><path class="w" d="M113.15,119.69c-.22-.25-.55-.25-.77,0s-.22,.62,0,.86c.91,.95,1.87,1.85,2.89,2.67,.11,.08,.22,.12,.33,.12,.18,0,.33-.12,.44-.25,.15-.29,.11-.66-.15-.86-.95-.74-1.9-1.6-2.74-2.55Z"/><path class="w" d="M121.38,75.56h.22c1.1-.45,2.27-.82,3.44-1.07,.29-.08,.51-.41,.44-.74-.07-.33-.37-.58-.66-.49-1.24,.25-2.45,.66-3.62,1.11-.29,.12-.44,.45-.33,.78,.07,.25,.29,.41,.51,.41Z"/><path class="w" d="M140.34,76.96c1.06,.62,2.09,1.32,3.04,2.1,.11,.08,.22,.12,.33,.12,.18,0,.33-.08,.44-.21,.18-.29,.15-.66-.11-.86-.99-.82-2.09-1.56-3.18-2.22-.26-.16-.59-.04-.73,.25-.15,.29-.04,.66,.22,.82Z"/><path class="w" d="M152.93,97.23c.04,.29,.29,.53,.55,.53t.07-.04c.29-.04,.51-.37,.48-.7-.15-1.4-.4-2.76-.73-4.11-.11-.33-.4-.49-.7-.41-.29,.12-.44,.45-.37,.78,.33,1.27,.55,2.63,.7,3.95Z"/><path class="w" d="M134.26,74.53c1.17,.29,2.34,.66,3.44,1.11,.07,.04,.11,.04,.18,.04,.26,0,.44-.16,.51-.45,.11-.29-.04-.66-.33-.78-1.13-.49-2.38-.86-3.59-1.15-.29-.04-.59,.16-.66,.49-.04,.33,.15,.66,.44,.74Z"/><path class="w" d="M113.66,80.91c.22-.21,.26-.62,.04-.86-.18-.25-.55-.29-.77-.04-.79,.81-1.54,1.69-2.22,2.59,.35,.15,.68,.35,.98,.59,.61-.8,1.28-1.57,1.98-2.28Z"/><path class="w" d="M105.5,97.48h.07c.29,0,.51-.21,.55-.49,.15-1.36,.4-2.67,.73-3.95,.07-.33-.07-.7-.37-.78-.29-.08-.62,.08-.7,.41-.33,1.36-.59,2.71-.77,4.11-.04,.33,.18,.66,.48,.7Z"/><path class="w" d="M106.12,104.18c-.15-1.23-.22-2.43-.22-3.66v-.37c0-.33-.26-.62-.55-.62s-.55,.29-.55,.62v.37c0,1.27,.07,2.55,.22,3.82,.04,.33,.29,.53,.55,.53h.07c.29-.04,.51-.37,.48-.7Z"/><path class="w" d="M146.34,80.17c-.22-.21-.55-.21-.77,.04-.18,.25-.18,.62,.04,.86,.63,.68,1.27,1.43,1.86,2.2,.29-.26,.61-.48,.95-.65-.64-.87-1.33-1.69-2.07-2.46Z"/></g><g><path class="w" d="M129.25,67.09c-2.63,0-4.79,2.43-4.79,5.39s2.16,5.39,4.79,5.39,4.79-2.43,4.79-5.39-2.12-5.39-4.79-5.39h0Zm0,9.79c-2.16,0-3.92-1.97-3.92-4.4s1.76-4.4,3.92-4.4,3.92,1.97,3.92,4.4-1.76,4.4-3.92,4.4h0Z"/><path class="w" d="M130.06,71.28c-.22-.25-.44-.33-.7-.33-.29,0-.44,.12-.44,.41,0,.62,1.65,.58,1.65,1.93,0,.7-.33,1.23-.99,1.4v.74h-.66v-.7c-.37-.04-.81-.25-1.13-.53l.44-.74c.33,.29,.59,.41,.88,.41,.33,0,.48-.16,.48-.45,0-.66-1.65-.7-1.65-1.97,0-.7,.37-1.19,.95-1.32v-.74h.66v.74c.4,.08,.7,.29,.95,.58l-.44,.58Z"/></g><g><path class="w" d="M129.25,122.57c-2.63,0-4.79,2.43-4.79,5.39s2.16,5.39,4.79,5.39,4.79-2.43,4.79-5.39-2.12-5.39-4.79-5.39h0Zm0,9.79c-2.16,0-3.92-1.97-3.92-4.4s1.76-4.4,3.92-4.4,3.92,1.97,3.92,4.4-1.76,4.4-3.92,4.4h0Z"/><path class="w" d="M130.06,126.76c-.22-.25-.44-.33-.7-.33-.29,0-.44,.12-.44,.41,0,.62,1.65,.58,1.65,1.93,0,.7-.33,1.23-.99,1.4v.74h-.66v-.7c-.37-.04-.81-.25-1.13-.53l.44-.74c.33,.29,.59,.41,.88,.41,.33,0,.48-.16,.48-.45,0-.66-1.65-.7-1.65-1.97,0-.7,.37-1.19,.95-1.32v-.74h.66v.74c.4,.08,.7,.29,.95,.58l-.44,.58Z"/></g><g><path class="w" d="M149.93,81.28c-2.63,0-4.79,2.43-4.79,5.39s2.16,5.39,4.79,5.39,4.79-2.43,4.79-5.39-2.16-5.39-4.79-5.39h0Zm0,9.79c-2.16,0-3.92-1.97-3.92-4.4s1.76-4.4,3.92-4.4,3.92,1.97,3.92,4.4-1.76,4.4-3.92,4.4h0Z"/><path class="w" d="M150.73,85.47c-.22-.25-.44-.33-.7-.33-.29,0-.44,.12-.44,.41,0,.62,1.65,.58,1.65,1.93,0,.7-.33,1.23-.99,1.4v.74h-.66v-.7c-.37-.04-.81-.25-1.13-.53l.44-.74c.33,.29,.59,.41,.88,.41,.33,0,.48-.16,.48-.45,0-.66-1.65-.7-1.65-1.97,0-.7,.37-1.19,.95-1.32v-.74h.66v.74c.4,.08,.7,.29,.95,.58l-.44,.58Z"/></g><g><path class="w" d="M109.22,81.35c-2.63,0-4.79,2.43-4.79,5.39s2.16,5.39,4.79,5.39,4.79-2.43,4.79-5.39-2.16-5.39-4.79-5.39h0Zm0,9.79c-2.16,0-3.92-1.97-3.92-4.4s1.76-4.4,3.92-4.4,3.92,1.97,3.92,4.4-1.76,4.4-3.92,4.4h0Z"/><path class="w" d="M109.99,85.54c-.22-.21-.4-.33-.66-.33-.29,0-.44,.12-.44,.41,0,.62,1.65,.58,1.65,1.93,0,.7-.33,1.23-.99,1.4v.74h-.66v-.7c-.37-.04-.81-.25-1.13-.53l.48-.78c.33,.29,.59,.41,.88,.41,.33,0,.48-.16,.48-.45,0-.66-1.65-.7-1.65-1.97,0-.7,.37-1.19,.95-1.32v-.74h.66v.74c.4,.08,.7,.29,.95,.58l-.51,.62Z"/></g><g><path class="w" d="M149.34,111.34c-2.63,0-4.79,2.43-4.79,5.39s2.16,5.39,4.79,5.39,4.79-2.43,4.79-5.39-2.12-5.39-4.79-5.39h0Zm0,9.79c-2.16,0-3.92-1.97-3.92-4.4s1.76-4.4,3.92-4.4,3.92,1.97,3.92,4.4c.04,2.43-1.72,4.4-3.92,4.4h0Z"/><path class="w" d="M150.15,115.49c-.22-.25-.44-.33-.7-.33-.29,0-.44,.12-.44,.41,0,.62,1.65,.58,1.65,1.93,0,.7-.33,1.23-.99,1.36v.74h-.66v-.7c-.37-.04-.81-.25-1.13-.53l.44-.74c.33,.29,.59,.41,.88,.41,.33,0,.48-.16,.48-.45,0-.66-1.65-.7-1.65-1.97,0-.7,.37-1.19,.95-1.32v-.74h.66v.74c.4,.08,.7,.29,.95,.58l-.44,.62Z"/></g><g><path class="w" d="M108.87,111.34c-2.63,0-4.79,2.43-4.79,5.39s2.16,5.39,4.79,5.39,4.79-2.43,4.79-5.39-2.16-5.39-4.79-5.39h0Zm0,9.79c-2.16,0-3.92-1.97-3.92-4.4s1.76-4.4,3.92-4.4,3.92,1.97,3.92,4.4-1.76,4.4-3.92,4.4h0Z"/><path class="w" d="M109.63,115.49c-.22-.25-.44-.33-.7-.33-.29,0-.44,.12-.44,.41,0,.62,1.65,.58,1.65,1.93,0,.7-.33,1.23-.99,1.36v.74h-.66v-.7c-.37-.04-.81-.25-1.13-.53l.44-.74c.33,.29,.59,.41,.88,.41,.33,0,.48-.16,.48-.45,0-.66-1.65-.7-1.65-1.97,0-.7,.37-1.19,.95-1.32v-.74h.66v.74c.4,.08,.7,.29,.95,.58l-.44,.62Z"/></g></g></g><g><path class="w" d="M27.63,156.04c-1.23-.35-2.12-.79-2.68-1.3-.56-.52-.84-1.15-.84-1.91,0-.86,.34-1.56,1.03-2.12s1.57-.84,2.67-.84c.75,0,1.41,.14,1.99,.43,.59,.29,1.04,.69,1.36,1.19,.32,.51,.48,1.06,.48,1.66h-1.44c0-.66-.21-1.18-.63-1.55s-1.01-.57-1.77-.57c-.71,0-1.26,.16-1.65,.47-.39,.31-.59,.74-.59,1.3,0,.44,.19,.82,.56,1.12s1.02,.59,1.92,.84,1.61,.53,2.12,.84c.51,.31,.89,.66,1.13,1.07,.25,.41,.37,.89,.37,1.44,0,.88-.34,1.59-1.03,2.12-.69,.53-1.6,.79-2.75,.79-.75,0-1.44-.14-2.09-.43s-1.14-.68-1.5-1.18c-.35-.5-.53-1.06-.53-1.69h1.44c0,.66,.24,1.17,.73,1.56,.48,.38,1.13,.57,1.94,.57,.76,0,1.34-.15,1.74-.46s.6-.73,.6-1.26-.19-.94-.56-1.24-1.05-.58-2.03-.86Z"/><path class="w" d="M33.28,150.67c0-.22,.07-.41,.21-.57s.34-.23,.61-.23,.47,.08,.61,.23,.21,.34,.21,.57-.07,.41-.21,.56-.34,.22-.61,.22-.47-.07-.61-.22-.21-.34-.21-.56Zm1.49,10.21h-1.38v-8.07h1.38v8.07Z"/><path class="w" d="M41.69,158.74c0-.37-.14-.66-.42-.87-.28-.21-.77-.38-1.47-.53-.7-.15-1.25-.33-1.66-.54-.41-.21-.71-.46-.91-.75-.2-.29-.29-.63-.29-1.03,0-.66,.28-1.22,.84-1.68,.56-.46,1.28-.69,2.15-.69,.91,0,1.66,.24,2.23,.71,.57,.47,.85,1.08,.85,1.81h-1.39c0-.38-.16-.7-.48-.98-.32-.27-.72-.41-1.21-.41s-.9,.11-1.18,.33-.43,.5-.43,.86c0,.33,.13,.58,.4,.75,.26,.17,.74,.33,1.43,.49s1.25,.34,1.68,.55c.43,.21,.74,.47,.95,.77s.31,.67,.31,1.1c0,.72-.29,1.3-.87,1.74-.58,.43-1.32,.65-2.25,.65-.65,0-1.22-.11-1.71-.34-.5-.23-.89-.55-1.17-.96s-.42-.85-.42-1.33h1.38c.03,.46,.21,.83,.55,1.1s.8,.41,1.37,.41c.52,0,.94-.11,1.26-.32,.32-.21,.47-.49,.47-.85Z"/><path class="w" d="M46.74,150.86v1.96h1.51v1.07h-1.51v5.01c0,.32,.07,.57,.2,.73s.36,.24,.69,.24c.16,0,.38-.03,.66-.09v1.11c-.36,.1-.72,.15-1.06,.15-.62,0-1.08-.19-1.39-.56-.31-.37-.47-.9-.47-1.59v-5.01h-1.47v-1.07h1.47v-1.96h1.38Z"/><path class="w" d="M53.21,161.03c-1.1,0-1.98-.36-2.67-1.08-.69-.72-1.03-1.68-1.03-2.88v-.25c0-.8,.15-1.52,.46-2.14,.31-.63,.73-1.12,1.28-1.48s1.14-.53,1.79-.53c1.05,0,1.87,.35,2.45,1.04s.87,1.68,.87,2.97v.57h-5.47c.02,.8,.25,1.44,.7,1.93s1.01,.73,1.7,.73c.49,0,.9-.1,1.24-.3s.63-.46,.89-.79l.84,.66c-.68,1.04-1.69,1.56-3.04,1.56Zm-.17-7.24c-.56,0-1.03,.2-1.4,.61-.38,.41-.61,.97-.7,1.7h4.04v-.1c-.04-.7-.23-1.25-.57-1.63s-.8-.58-1.37-.58Z"/><path class="w" d="M59.25,152.81l.04,.89c.59-.7,1.39-1.04,2.4-1.04,1.13,0,1.9,.43,2.3,1.3,.27-.39,.62-.7,1.05-.94,.43-.24,.94-.36,1.53-.36,1.77,0,2.67,.94,2.7,2.81v5.41h-1.38v-5.33c0-.58-.13-1.01-.39-1.29-.26-.29-.71-.43-1.33-.43-.51,0-.94,.15-1.28,.46-.34,.31-.53,.72-.59,1.24v5.36h-1.39v-5.29c0-1.17-.57-1.76-1.72-1.76-.91,0-1.53,.39-1.86,1.16v5.89h-1.38v-8.07h1.3Z"/><path class="w" d="M76.33,160.88c-.08-.16-.14-.44-.19-.85-.64,.67-1.41,1-2.3,1-.79,0-1.45-.22-1.96-.67s-.77-1.02-.77-1.71c0-.84,.32-1.49,.96-1.96,.64-.47,1.54-.7,2.7-.7h1.34v-.63c0-.48-.14-.87-.43-1.15-.29-.29-.71-.43-1.28-.43-.49,0-.91,.12-1.24,.37-.33,.25-.5,.55-.5,.9h-1.39c0-.4,.14-.79,.43-1.17,.29-.38,.67-.67,1.16-.89s1.03-.33,1.62-.33c.93,0,1.66,.23,2.19,.7s.8,1.11,.82,1.92v3.72c0,.74,.1,1.33,.29,1.77v.12h-1.45Zm-2.29-1.05c.43,0,.84-.11,1.23-.34s.67-.51,.84-.87v-1.66h-1.08c-1.69,0-2.54,.5-2.54,1.49,0,.43,.14,.77,.43,1.01,.29,.24,.66,.37,1.11,.37Z"/><path class="w" d="M83.1,156.78c0-1.24,.29-2.23,.88-2.99,.59-.75,1.36-1.13,2.3-1.13s1.7,.32,2.25,.97v-4.21h1.38v11.46h-1.27l-.07-.87c-.55,.68-1.32,1.01-2.3,1.01s-1.7-.38-2.29-1.15c-.59-.77-.88-1.77-.88-3v-.1Zm1.38,.16c0,.92,.19,1.63,.57,2.15,.38,.52,.9,.78,1.57,.78,.88,0,1.52-.39,1.92-1.18v-3.71c-.41-.76-1.05-1.14-1.9-1.14-.68,0-1.2,.26-1.58,.78-.38,.52-.57,1.3-.57,2.32Z"/><path class="w" d="M95.41,161.03c-1.09,0-1.98-.36-2.67-1.08-.69-.72-1.03-1.68-1.03-2.88v-.25c0-.8,.15-1.52,.46-2.14,.31-.63,.73-1.12,1.29-1.48,.55-.36,1.14-.53,1.79-.53,1.05,0,1.87,.35,2.45,1.04s.87,1.68,.87,2.97v.57h-5.47c.02,.8,.25,1.44,.7,1.93s1.01,.73,1.7,.73c.49,0,.9-.1,1.24-.3,.34-.2,.63-.46,.89-.79l.84,.66c-.68,1.04-1.69,1.56-3.04,1.56Zm-.17-7.24c-.56,0-1.02,.2-1.4,.61-.38,.41-.61,.97-.7,1.7h4.04v-.1c-.04-.7-.23-1.25-.57-1.63s-.79-.58-1.37-.58Z"/><path class="w" d="M112.14,157.44c-.13,1.15-.56,2.04-1.27,2.66-.71,.62-1.66,.94-2.85,.94-1.28,0-2.31-.46-3.08-1.38-.77-.92-1.16-2.15-1.16-3.69v-1.04c0-1.01,.18-1.9,.54-2.66,.36-.77,.87-1.35,1.53-1.76,.66-.41,1.43-.62,2.3-.62,1.15,0,2.08,.32,2.78,.97,.7,.64,1.1,1.54,1.21,2.67h-1.44c-.12-.87-.39-1.5-.81-1.89-.41-.39-1-.58-1.74-.58-.91,0-1.63,.34-2.15,1.02-.52,.68-.78,1.64-.78,2.89v1.05c0,1.18,.25,2.12,.74,2.82s1.18,1.05,2.07,1.05c.8,0,1.41-.18,1.83-.54,.43-.36,.71-.99,.85-1.88h1.44Z"/><path class="w" d="M113.52,156.77c0-.79,.15-1.5,.47-2.13,.31-.63,.74-1.12,1.3-1.46,.55-.34,1.19-.51,1.9-.51,1.1,0,1.99,.38,2.67,1.14,.68,.76,1.02,1.77,1.02,3.04v.1c0,.79-.15,1.49-.45,2.12-.3,.62-.73,1.11-1.29,1.46-.56,.35-1.2,.52-1.93,.52-1.09,0-1.98-.38-2.66-1.14-.68-.76-1.02-1.77-1.02-3.02v-.1Zm1.39,.17c0,.89,.21,1.61,.62,2.16,.42,.54,.97,.81,1.67,.81s1.26-.27,1.67-.82c.41-.55,.62-1.32,.62-2.31,0-.88-.21-1.6-.63-2.15-.42-.55-.98-.82-1.67-.82s-1.23,.27-1.65,.81-.63,1.32-.63,2.33Z"/><path class="w" d="M123.9,152.81l.04,1.01c.62-.78,1.42-1.16,2.42-1.16,1.71,0,2.57,.96,2.58,2.89v5.33h-1.38v-5.34c0-.58-.14-1.01-.4-1.29s-.67-.42-1.22-.42c-.45,0-.84,.12-1.18,.36-.34,.24-.6,.55-.79,.94v5.75h-1.38v-8.07h1.31Z"/><path class="w" d="M132.9,150.86v1.96h1.51v1.07h-1.51v5.01c0,.32,.07,.57,.2,.73,.13,.16,.36,.24,.69,.24,.16,0,.38-.03,.66-.09v1.11c-.36,.1-.72,.15-1.06,.15-.62,0-1.08-.19-1.4-.56-.31-.37-.47-.9-.47-1.59v-5.01h-1.47v-1.07h1.47v-1.96h1.38Z"/><path class="w" d="M139.92,154.05c-.21-.04-.44-.05-.68-.05-.9,0-1.52,.39-1.84,1.16v5.73h-1.38v-8.07h1.34l.02,.93c.45-.72,1.09-1.08,1.93-1.08,.27,0,.47,.03,.61,.1v1.28Z"/><path class="w" d="M145.87,160.88c-.08-.16-.14-.44-.19-.85-.64,.67-1.41,1-2.3,1-.79,0-1.45-.22-1.96-.67s-.77-1.02-.77-1.71c0-.84,.32-1.49,.96-1.96,.64-.47,1.54-.7,2.7-.7h1.34v-.63c0-.48-.14-.87-.43-1.15-.29-.29-.71-.43-1.28-.43-.49,0-.91,.12-1.24,.37-.33,.25-.5,.55-.5,.9h-1.39c0-.4,.14-.79,.43-1.17,.29-.38,.67-.67,1.16-.89s1.03-.33,1.62-.33c.93,0,1.66,.23,2.19,.7s.8,1.11,.82,1.92v3.72c0,.74,.1,1.33,.29,1.77v.12h-1.45Zm-2.29-1.05c.43,0,.84-.11,1.23-.34s.67-.51,.84-.87v-1.66h-1.08c-1.69,0-2.54,.5-2.54,1.49,0,.43,.14,.77,.43,1.01,.29,.24,.66,.37,1.11,.37Z"/><path class="w" d="M151.07,150.86v1.96h1.51v1.07h-1.51v5.01c0,.32,.07,.57,.2,.73s.36,.24,.69,.24c.16,0,.38-.03,.66-.09v1.11c-.36,.1-.72,.15-1.06,.15-.62,0-1.08-.19-1.39-.56-.31-.37-.47-.9-.47-1.59v-5.01h-1.47v-1.07h1.47v-1.96h1.38Z"/><path class="w" d="M159.18,160.88c-.08-.16-.14-.44-.19-.85-.64,.67-1.41,1-2.3,1-.79,0-1.45-.22-1.96-.67s-.77-1.02-.77-1.71c0-.84,.32-1.49,.96-1.96,.64-.47,1.54-.7,2.7-.7h1.34v-.63c0-.48-.14-.87-.43-1.15-.29-.29-.71-.43-1.28-.43-.49,0-.91,.12-1.24,.37-.33,.25-.5,.55-.5,.9h-1.39c0-.4,.14-.79,.43-1.17,.29-.38,.67-.67,1.16-.89s1.03-.33,1.62-.33c.93,0,1.66,.23,2.19,.7s.8,1.11,.82,1.92v3.72c0,.74,.1,1.33,.29,1.77v.12h-1.45Zm-2.29-1.05c.43,0,.84-.11,1.23-.34s.67-.51,.84-.87v-1.66h-1.08c-1.69,0-2.54,.5-2.54,1.49,0,.43,.14,.77,.43,1.01,.29,.24,.66,.37,1.11,.37Z"/><path class="w" d="M165.74,159.91c.49,0,.92-.15,1.29-.45,.37-.3,.57-.67,.61-1.12h1.31c-.03,.46-.19,.9-.48,1.32s-.69,.75-1.18,1c-.49,.25-1.01,.37-1.55,.37-1.1,0-1.97-.37-2.62-1.1-.65-.73-.97-1.74-.97-3.01v-.23c0-.79,.14-1.48,.43-2.1,.29-.61,.7-1.09,1.24-1.43,.54-.34,1.18-.51,1.91-.51,.91,0,1.66,.27,2.26,.81,.6,.54,.92,1.25,.96,2.11h-1.31c-.04-.52-.24-.95-.59-1.29s-.79-.5-1.32-.5c-.7,0-1.24,.25-1.63,.76-.38,.5-.58,1.23-.58,2.19v.26c0,.93,.19,1.65,.58,2.15,.38,.5,.93,.75,1.64,.75Z"/><path class="w" d="M170.51,150.67c0-.22,.07-.41,.21-.57s.34-.23,.61-.23,.47,.08,.61,.23c.14,.15,.21,.34,.21,.57s-.07,.41-.21,.56c-.14,.15-.34,.22-.61,.22s-.47-.07-.61-.22-.21-.34-.21-.56Zm1.49,10.21h-1.38v-8.07h1.38v8.07Z"/><path class="w" d="M173.84,156.77c0-.79,.16-1.5,.47-2.13,.31-.63,.74-1.12,1.3-1.46,.55-.34,1.19-.51,1.9-.51,1.1,0,1.99,.38,2.67,1.14,.68,.76,1.02,1.77,1.02,3.04v.1c0,.79-.15,1.49-.45,2.12-.3,.62-.73,1.11-1.29,1.46-.56,.35-1.2,.52-1.93,.52-1.1,0-1.98-.38-2.66-1.14-.68-.76-1.02-1.77-1.02-3.02v-.1Zm1.39,.17c0,.89,.21,1.61,.62,2.16,.42,.54,.97,.81,1.67,.81s1.26-.27,1.67-.82c.41-.55,.62-1.32,.62-2.31,0-.88-.21-1.6-.63-2.15-.42-.55-.98-.82-1.68-.82s-1.23,.27-1.65,.81-.63,1.32-.63,2.33Z"/><path class="w" d="M184.23,152.81l.04,1.01c.62-.78,1.42-1.16,2.42-1.16,1.71,0,2.57,.96,2.58,2.89v5.33h-1.38v-5.34c0-.58-.14-1.01-.4-1.29-.26-.28-.67-.42-1.22-.42-.45,0-.84,.12-1.18,.36-.34,.24-.6,.55-.79,.94v5.75h-1.38v-8.07h1.3Z"/><path class="w" d="M194.7,161.03c-1.09,0-1.98-.36-2.67-1.08-.69-.72-1.03-1.68-1.03-2.88v-.25c0-.8,.15-1.52,.46-2.14,.31-.63,.73-1.12,1.29-1.48,.55-.36,1.14-.53,1.79-.53,1.05,0,1.87,.35,2.45,1.04s.87,1.68,.87,2.97v.57h-5.47c.02,.8,.25,1.44,.7,1.93s1.01,.73,1.7,.73c.49,0,.9-.1,1.24-.3,.34-.2,.63-.46,.89-.79l.84,.66c-.68,1.04-1.69,1.56-3.04,1.56Zm-.17-7.24c-.56,0-1.02,.2-1.4,.61-.38,.41-.61,.97-.7,1.7h4.04v-.1c-.04-.7-.23-1.25-.57-1.63s-.79-.58-1.37-.58Z"/><path class="w" d="M204.15,158.74c0-.37-.14-.66-.42-.87-.28-.21-.77-.38-1.47-.53-.7-.15-1.25-.33-1.66-.54-.41-.21-.71-.46-.91-.75-.2-.29-.29-.63-.29-1.03,0-.66,.28-1.22,.84-1.68,.56-.46,1.28-.69,2.15-.69,.91,0,1.66,.24,2.23,.71,.57,.47,.85,1.08,.85,1.81h-1.39c0-.38-.16-.7-.48-.98-.32-.27-.72-.41-1.21-.41s-.9,.11-1.18,.33-.43,.5-.43,.86c0,.33,.13,.58,.4,.75,.26,.17,.74,.33,1.43,.49s1.25,.34,1.68,.55c.43,.21,.74,.47,.95,.77s.31,.67,.31,1.1c0,.72-.29,1.3-.87,1.74-.58,.43-1.32,.65-2.25,.65-.65,0-1.22-.11-1.71-.34-.5-.23-.89-.55-1.17-.96s-.42-.85-.42-1.33h1.38c.03,.46,.21,.83,.55,1.1s.8,.41,1.37,.41c.52,0,.94-.11,1.26-.32,.32-.21,.47-.49,.47-.85Z"/></g></g><g id="j"/><g id="k"/><g id="l"/><g id="m"/><g id="n"/><g id="o"/><g id="p"/><g id="q"/><g id="r"/><g id="s"/><g id="t"/><g id="u"/><g id="v"/></svg>