<svg id="Capa_1" data-name="Capa 1" xmlns="http://www.w3.org/2000/svg" viewBox="0 0 225.7 222.06"><defs><style>.cls-1{fill:#fff;}.cls-2,.cls-5{fill:none;stroke:#8bd2f0;stroke-miterlimit:10;}.cls-2{stroke-width:4px;stroke-dasharray:4;}.cls-3{fill:#8bd2f0;}.cls-4{fill:#676767;}</style></defs><title>Mesa de trabajo 1</title><circle class="cls-1" cx="112.45" cy="111.79" r="108.7"/><path class="cls-1" d="M154.23,146.16V79.6a12,12,0,0,0-12-12H85.3a12,12,0,0,0-12,12v68.6a12,12,0,0,0,12,12h47.39a12,12,0,0,0,8.18,3.25h2.62a12,12,0,0,0,12-12h0A11.78,11.78,0,0,0,154.23,146.16Z"/><path class="cls-2" d="M80.68,68.41V59.13a12,12,0,0,1,12-12h62.81a12,12,0,0,1,12,12V96.41a12,12,0,0,1-12,12"/><path class="cls-2" d="M114.65,159.08a12.06,12.06,0,0,1-11.76,9.59H70a12,12,0,0,1-12-12V94.45a12,12,0,0,1,12-12"/><rect class="cls-3" x="101.4" y="93.02" width="11.29" height="2.5"/><rect class="cls-3" x="114.78" y="93.02" width="11.29" height="2.5"/><rect class="cls-3" x="101.4" y="102.51" width="11.29" height="2.5"/><rect class="cls-3" x="114.78" y="102.51" width="11.29" height="2.5"/><rect class="cls-3" x="128.14" y="102.51" width="11.29" height="2.5"/><rect class="cls-3" x="101.4" y="112.92" width="11.29" height="2.5"/><rect class="cls-3" x="114.78" y="112.92" width="11.29" height="2.5"/><rect class="cls-3" x="128.14" y="112.92" width="11.29" height="2.5"/><rect class="cls-3" x="87.3" y="81.31" width="54.26" height="2.5"/><rect class="cls-3" x="125.47" y="125.09" width="14.47" height="4.79" rx="0.89"/><path class="cls-3" d="M156,151.5l-12-12a63.92,63.92,0,0,1,6.24-5.71c3.48-2.48,8-1.43,11,2.17a8.07,8.07,0,0,1-.34,10.67C159.31,148.3,157.62,149.85,156,151.5Zm1.16-5.3a3.72,3.72,0,0,0-.41-1c-2.09-2.13-4.18-4.26-6.33-6.34a1.16,1.16,0,0,0-1.84.15,1.91,1.91,0,0,0-.13,1.74c2,2.2,4.14,4.3,6.3,6.36a1.75,1.75,0,0,0,1.48.11C156.58,147.09,156.82,146.55,157.12,146.2Z"/><path class="cls-4" d="M102.66,134.5,95,142.18l-2.34-2.34a1.88,1.88,0,0,0-2.56,0,1.86,1.86,0,0,0,0,2.56L93.7,146a1.81,1.81,0,0,0,2.56,0l9-9a1.81,1.81,0,0,0-2.56-2.56Z"/><path class="cls-3" d="M98.33,155.17a14.95,14.95,0,1,1,15-14.94A15,15,0,0,1,98.33,155.17Zm0-26.29a11.35,11.35,0,1,0,11.35,11.35A11.35,11.35,0,0,0,98.33,128.88Z"/><rect class="cls-5" x="88.68" y="90.6" width="6.82" height="6.64"/><rect class="cls-5" x="88.68" y="101.02" width="6.82" height="6.64"/><rect class="cls-5" x="88.68" y="111.12" width="6.82" height="6.64"/><path class="cls-4" d="M118.2,175.47c1.9-1.95,3.79-3.9,5.69-5.84.51-.52,1.07-1,1.64-1.54a11.4,11.4,0,0,1-2.46-7.36,10.63,10.63,0,0,1,3-7.25c1.85-1.94,3.78-3.81,5.68-5.7.95-.93,1.67-.94,2.59,0,.77.76,1.5,1.56,2.38,2.47,1-1.08,1.92-2,2.84-3s1.78-1.05,2.44-.44.58,1.49-.43,2.5-1.82,1.8-2.63,2.6l4.77,4.76c.79-.84,1.73-1.87,2.71-2.86s1.73-.95,2.32-.23a1.52,1.52,0,0,1-.28,2.26l-3,3c.56.56,1.11,1.13,1.68,1.69,1.81,1.82,1.81,2.07,0,3.92l-4.21,4.2c-4.57,4.57-9.9,5.08-15.33,1.42l-7.49,7.25H118.2Zm14.85-24.71c-1.7,1.65-3.6,3.23-5.19,5.07a8,8,0,0,0,.54,11.07c3.27,3.3,7.85,3.73,11.22.85,1.88-1.61,3.47-3.55,5.14-5.28Z"/><path class="cls-4" d="M170.74,126.66c-1.83,1.9-3.67,3.8-5.52,5.68-.57.58-1.18,1.12-1.8,1.71a11.43,11.43,0,0,1,2.47,6.89,10.72,10.72,0,0,1-3.09,7.8c-1.83,1.91-3.72,3.76-5.6,5.62-1,.94-1.65.95-2.59,0q-6.74-6.72-13.45-13.46c-.93-.93-.92-1.63,0-2.59,1.64-1.66,3.3-3.3,4.95-5,4.52-4.51,9.9-5,15.25-1.34l7.49-7.24h1.86ZM156,151.5c1.66-1.65,3.35-3.2,4.9-4.89a8.07,8.07,0,0,0,.34-10.67c-3-3.6-7.5-4.65-11-2.17a63.92,63.92,0,0,0-6.24,5.71Z"/><path class="cls-3" d="M133.05,150.76l11.71,11.71c-1.67,1.73-3.26,3.67-5.14,5.28-3.37,2.88-8,2.45-11.22-.85a8,8,0,0,1-.54-11.07C129.45,154,131.35,152.41,133.05,150.76Zm8,11.33a3.42,3.42,0,0,0-.44-1c-2.07-2.1-4.12-4.21-6.29-6.2a1.88,1.88,0,0,0-1.82.16,1.73,1.73,0,0,0-.1,1.72c2,2.18,4.16,4.28,6.33,6.33a1.73,1.73,0,0,0,1.5.06C140.64,163,140.84,162.45,141.09,162.09Z"/><path class="cls-4" d="M141.09,162.09c-.25.36-.45.94-.82,1.1a1.73,1.73,0,0,1-1.5-.06c-2.17-2-4.3-4.15-6.33-6.33a1.73,1.73,0,0,1,.1-1.72,1.88,1.88,0,0,1,1.82-.16c2.17,2,4.22,4.1,6.29,6.2A3.42,3.42,0,0,1,141.09,162.09Z"/><path class="cls-4" d="M157.12,146.2c-.3.35-.54.89-.93,1a1.75,1.75,0,0,1-1.48-.11c-2.16-2.06-4.28-4.16-6.3-6.36a1.91,1.91,0,0,1,.13-1.74,1.16,1.16,0,0,1,1.84-.15c2.15,2.08,4.24,4.21,6.33,6.34A3.72,3.72,0,0,1,157.12,146.2Z"/><path class="cls-4" d="M124.06,158.2H85.3a10,10,0,0,1-10-10V79.6a10,10,0,0,1,10-10h56.93a10,10,0,0,1,10,10v51.09h4V79.6a14,14,0,0,0-14-14H85.3a14,14,0,0,0-14,14v68.6a14,14,0,0,0,14,14h38.76Z"/></svg>