<?xml version="1.0"?>
<svg xmlns="http://www.w3.org/2000/svg" xmlns:xlink="http://www.w3.org/1999/xlink" version="1.1" viewBox="0 0 224 224" width="48px" height="48px"><g transform="translate(33.6,33.6) scale(0.7,0.7)"><g fill="none" fill-rule="nonzero" stroke="none" stroke-width="1" stroke-linecap="butt" stroke-linejoin="miter" stroke-miterlimit="10" stroke-dasharray="" stroke-dashoffset="0" font-family="none" font-weight="none" font-size="none" text-anchor="none" style="mix-blend-mode: normal"><path d="M0,224v-224h224v224z" fill="none"/><g><g id="surface1"><path d="M119.47396,160.52604c0.45573,-1.85938 0.45573,-4.19271 0.45573,-6.52604c0,-2.33333 0,-4.19271 -0.45573,-6.52604l13.05208,-9.33333c1.40364,-0.94792 1.8776,-2.80729 0.94792,-4.21094l-12.61458,-21.45573c-0.92969,-1.40365 -2.33333,-1.87761 -3.71875,-1.40365l-14.47396,7c-3.26302,-2.80729 -7,-4.66667 -11.19271,-6.54427l-1.40365,-15.85938c0,-1.40364 -1.40364,-2.80729 -2.80729,-2.80729h-24.73698c-1.38542,0 -2.78907,1.40364 -2.78907,2.80729l-1.8776,16.33333c-4.19271,1.40364 -7.45573,3.73698 -11.19271,6.52604l-14.47396,-6.52604c-1.38542,-0.47396 -3.26302,0 -3.71875,1.40364l-12.61458,21.45573c-0.92969,1.40364 -0.45573,3.28125 0.94792,4.21093l13.05208,9.33333c-0.45573,1.85938 -0.45573,4.19271 -0.45573,6.52604c0,2.33333 0,4.21094 0.45573,6.54427l-13.05208,9.33333c-1.40365,0.92968 -1.87761,2.78906 -0.94792,4.19271l12.61458,21.47396c0.92968,1.38542 2.33333,1.85937 3.71875,1.38542l14.47396,-6.52604c3.26302,2.80729 7,4.66667 11.19271,6.52604l1.40364,15.8776c0,1.40365 1.40364,2.78907 2.80729,2.78907h24.73698c1.38542,0 2.78906,-1.38542 2.78906,-2.78907l1.40364,-15.8776c4.19271,-1.38542 7.47396,-3.71875 11.19271,-6.52604l14.47396,6.52604c1.40364,0.47396 3.26302,0 3.73698,-1.38542l12.59636,-21.47396c0.92969,-1.40364 0.47396,-3.26302 -0.92969,-4.19271zM74.66667,177.33333c-13.07031,0 -23.33333,-10.26302 -23.33333,-23.33333c0,-13.07031 10.26302,-23.33333 23.33333,-23.33333c13.07031,0 23.33333,10.26302 23.33333,23.33333c0,13.07031 -10.26302,23.33333 -23.33333,23.33333z" fill="#3498db"/><path d="M195.52604,71.40364c0.47396,-2.33333 0.47396,-4.21093 0.47396,-6.07031c0,-1.85937 0,-3.73698 -0.47396,-6.07031l11.66667,-8.40364c1.40364,-0.92969 1.40364,-2.33333 0.94792,-3.71875l-11.66667,-20.07032c-0.94792,-1.40364 -2.33333,-1.8776 -3.73698,-0.92968l-13.54427,6.05208c-3.26302,-2.33333 -6.52604,-4.19271 -10.26302,-6.05208l-1.40364,-14.47396c0.47396,-1.40364 -0.45573,-2.33333 -1.85938,-2.33333h-22.85937c-1.40365,0 -2.80729,0.92969 -2.80729,2.33333l-1.40364,14.47396c-3.73698,1.38542 -7,3.26302 -10.26302,6.05208l-13.52604,-6.05208c-1.40365,-0.47396 -2.80729,0 -3.73698,0.92968l-11.66667,20.07032c-0.92968,1.38542 -0.47396,2.78906 0.92969,3.71875l11.66667,8.40364c0,2.33333 0,4.21094 0,6.07031c0,1.85938 0,3.73698 0.47396,6.07031l-11.66667,8.40365c-1.40365,0.92968 -1.40365,2.33333 -0.94792,3.71875l11.66667,20.07031c0.94792,1.40364 2.33333,1.87761 3.73698,0.92969l13.54427,-6.05208c3.26302,2.33333 6.52604,4.19271 10.26302,6.05208l1.40365,14.47396c0,1.40364 1.38542,2.33333 2.78906,2.33333h22.87761c1.38542,0 2.78906,-0.92969 2.78906,-2.33333l1.40364,-14.47396c3.73698,-1.38542 7,-3.26302 10.26302,-6.05208l13.54427,6.05208c1.38542,0.47396 2.78906,0 3.71875,-0.92969l11.66667,-20.07031c0.94792,-1.38542 0.47396,-2.78907 -0.92969,-3.71875zM154,88.66667c-13.07031,0 -23.33333,-10.26302 -23.33333,-23.33333c0,-13.07031 10.26302,-23.33333 23.33333,-23.33333c13.07031,0 23.33333,10.26302 23.33333,23.33333c0,13.07031 -10.26302,23.33333 -23.33333,23.33333z" fill="#ffa000"/></g></g><path d="" fill="none"/><path d="" fill="none"/><path d="M112,224c-61.85589,0 -112,-50.14411 -112,-112v0c0,-61.85589 50.14411,-112 112,-112v0c61.85589,0 112,50.14411 112,112v0c0,61.85589 -50.14411,112 -112,112z" fill="none"/><path d="M112,219.52c-59.38166,0 -107.52,-48.13834 -107.52,-107.52v0c0,-59.38166 48.13834,-107.52 107.52,-107.52h0c59.38166,0 107.52,48.13834 107.52,107.52v0c0,59.38166 -48.13834,107.52 -107.52,107.52z" fill="none"/><path d="M0,224v-224h224v224z" fill="none"/><path d="M4.48,219.52v-215.04h215.04v215.04z" fill="none"/><path d="M112,224c-61.85589,0 -112,-50.14411 -112,-112v0c0,-61.85589 50.14411,-112 112,-112v0c61.85589,0 112,50.14411 112,112v0c0,61.85589 -50.14411,112 -112,112z" fill="none"/><path d="M112,219.52c-59.38166,0 -107.52,-48.13834 -107.52,-107.52v0c0,-59.38166 48.13834,-107.52 107.52,-107.52h0c59.38166,0 107.52,48.13834 107.52,107.52v0c0,59.38166 -48.13834,107.52 -107.52,107.52z" fill="none"/></g></g></svg>
