<?xml version="1.0" encoding="utf-8"?>
<!-- Generator: Adobe Illustrator 21.0.0, SVG Export Plug-In . SVG Version: 6.00 Build 0)  -->
<svg version="1.1" id="Layer_1" xmlns="http://www.w3.org/2000/svg" xmlns:xlink="http://www.w3.org/1999/xlink" x="0px" y="0px"
	 viewBox="0 0 500 344" style="enable-background:new 0 0 500 344;" xml:space="preserve">
<style type="text/css">
	
		.st0{fill:none;stroke:#ADADAD;stroke-width:6;stroke-linecap:round;stroke-linejoin:round;stroke-dasharray:11.889,9.9075,11.889,9.9075;}
	.st1{fill:#606060;}
	.st2{font-family:'NotoSans-Bold';}
	.st3{font-size:12.6215px;}
	.st4{fill:#5FB1E6;stroke:#FFFFFF;stroke-width:9;stroke-miterlimit:10;}
	.st5{fill:#5FB1E6;}
	.st6{fill:none;stroke:#FFFFFF;stroke-width:9;stroke-miterlimit:10;}
	
		.st7{fill:none;stroke:#FFFFFF;stroke-width:2;stroke-linecap:round;stroke-linejoin:round;stroke-dasharray:4.0451,6.0677,4.0451,6.0677;}
	.st8{fill:#FFFFFF;}
	.st9{fill:#666666;}
	.st10{fill:none;stroke:#FFFFFF;stroke-width:3;stroke-miterlimit:10;}
</style>
<g>
	<g>
		<circle class="st0" cx="235.6" cy="190.7" r="145.7"/>
	</g>
	<g>
		<text transform="matrix(1 0 0 1 374.6873 299.5371)" class="st1 st2 st3">Datos</text>
	</g>
	<g>
		<text transform="matrix(1 0 0 1 410.8974 140.3157)"><tspan x="0" y="0" class="st1 st2 st3">Gobernanza y </tspan><tspan x="2" y="15.1" class="st1 st2 st3">normatividad</tspan></text>
	</g>
	<g>
		<text transform="matrix(1 0 0 1 -9.155273e-05 140.3154)" class="st1 st2 st3">Impacto</text>
	</g>
	<g>
		<text transform="matrix(1 0 0 1 22.5943 299.5376)" class="st1 st2 st3">Tecnología</text>
	</g>
	<g>
		<circle class="st4" cx="100.3" cy="148.4" r="39.4"/>
	</g>
	<g>
		<g>
			<g>
				<circle class="st5" cx="365.5" cy="148.4" r="39.4"/>
				<circle class="st6" cx="365.5" cy="148.4" r="39.4"/>
			</g>
		</g>
	</g>
	<g>
		<g>
			<g>
				<circle class="st5" cx="233.6" cy="44.4" r="39.4"/>
				<circle class="st6" cx="233.6" cy="44.4" r="39.4"/>
			</g>
		</g>
	</g>
	<g>
		<g>
			<g>
				<circle class="st5" cx="136.2" cy="296.5" r="39.4"/>
				<circle class="st6" cx="136.2" cy="296.5" r="39.4"/>
			</g>
		</g>
	</g>
	<g>
		<g>
			<g>
				<circle class="st5" cx="327.7" cy="296.5" r="39.4"/>
				<circle class="st6" cx="327.7" cy="296.5" r="39.4"/>
			</g>
		</g>
	</g>
	<g>
		<g>
			<g>
				<circle class="st7" cx="233" cy="45.6" r="19.3"/>
			</g>
		</g>
		<g>
			<g>
				<circle class="st8" cx="234.3" cy="22" r="3"/>
				<path class="st9" d="M234.3,25.6c-2,0-3.6-1.6-3.6-3.6s1.6-3.6,3.6-3.6s3.6,1.6,3.6,3.6S236.3,25.6,234.3,25.6z M234.3,19.5
					c-1.4,0-2.5,1.1-2.5,2.5c0,1.4,1.1,2.5,2.5,2.5c1.4,0,2.5-1.1,2.5-2.5C236.8,20.6,235.7,19.5,234.3,19.5z"/>
			</g>
			<g>
				<path class="st8" d="M239.7,29.9c0-0.1,0-0.2,0-0.3l0,0c0-2.3-1.9-4.2-4.2-4.2h-2.6c-2.3,0-4.2,1.9-4.2,4.2l0,0
					c0,0.1,0,0.2,0,0.3H239.7z"/>
				<path class="st9" d="M240.3,30.5h-12.1l0-0.5c0-0.1,0-0.2,0-0.3c0-2.6,2.2-4.8,4.8-4.8h2.6c2.6,0,4.8,2.2,4.8,4.8
					c0,0.1,0,0.2,0,0.3L240.3,30.5z M229.3,29.3h9.9c-0.2-1.9-1.7-3.3-3.6-3.3h-2.6C231,26,229.4,27.4,229.3,29.3z"/>
			</g>
		</g>
		<g>
			<g>
				<circle class="st8" cx="248.6" cy="51.6" r="3"/>
				<path class="st9" d="M248.6,55.2c-2,0-3.6-1.6-3.6-3.6s1.6-3.6,3.6-3.6c2,0,3.6,1.6,3.6,3.6S250.6,55.2,248.6,55.2z M248.6,49.1
					c-1.4,0-2.5,1.1-2.5,2.5s1.1,2.5,2.5,2.5c1.4,0,2.5-1.1,2.5-2.5S250,49.1,248.6,49.1z"/>
			</g>
			<g>
				<path class="st8" d="M254,59.5c0-0.1,0-0.2,0-0.3l0,0c0-2.3-1.9-4.2-4.2-4.2h-2.6c-2.3,0-4.2,1.9-4.2,4.2l0,0c0,0.1,0,0.2,0,0.3
					H254z"/>
				<path class="st9" d="M254.6,60.1h-12.1l0-0.5c0-0.1,0-0.2,0-0.3c0-2.6,2.2-4.8,4.8-4.8h2.6c2.6,0,4.8,2.2,4.8,4.8
					c0,0.1,0,0.2,0,0.3L254.6,60.1z M243.5,58.9h9.9c-0.2-1.9-1.7-3.3-3.6-3.3h-2.6C245.3,55.6,243.7,57.1,243.5,58.9z"/>
			</g>
		</g>
		<g>
			<g>
				<circle class="st8" cx="217.2" cy="51.6" r="3"/>
				<path class="st9" d="M217.2,55.2c-2,0-3.6-1.6-3.6-3.6s1.6-3.6,3.6-3.6c2,0,3.6,1.6,3.6,3.6S219.1,55.2,217.2,55.2z M217.2,49.1
					c-1.4,0-2.5,1.1-2.5,2.5s1.1,2.5,2.5,2.5c1.4,0,2.5-1.1,2.5-2.5S218.5,49.1,217.2,49.1z"/>
			</g>
			<g>
				<path class="st8" d="M222.6,59.5c0-0.1,0-0.2,0-0.3l0,0c0-2.3-1.9-4.2-4.2-4.2h-2.6c-2.3,0-4.2,1.9-4.2,4.2l0,0
					c0,0.1,0,0.2,0,0.3H222.6z"/>
				<path class="st9" d="M223.1,60.1h-12.1l0-0.5c0-0.1,0-0.2,0-0.3c0-2.6,2.2-4.8,4.8-4.8h2.6c2.6,0,4.8,2.2,4.8,4.8
					c0,0.1,0,0.2,0,0.3L223.1,60.1z M212.1,58.9h9.9c-0.2-1.9-1.7-3.3-3.6-3.3h-2.6C213.8,55.6,212.2,57.1,212.1,58.9z"/>
			</g>
		</g>
	</g>
	<g>
		<g>
			<g>
				<circle class="st7" cx="135.4" cy="298.4" r="19.3"/>
			</g>
		</g>
		<g>
			<g>
				<circle class="st8" cx="136.7" cy="274.7" r="3"/>
				<path class="st9" d="M136.7,278.4c-2,0-3.6-1.6-3.6-3.6s1.6-3.6,3.6-3.6s3.6,1.6,3.6,3.6S138.7,278.4,136.7,278.4z M136.7,272.3
					c-1.4,0-2.5,1.1-2.5,2.5s1.1,2.5,2.5,2.5c1.4,0,2.5-1.1,2.5-2.5S138.1,272.3,136.7,272.3z"/>
			</g>
			<g>
				<path class="st8" d="M142.1,282.7c0-0.1,0-0.2,0-0.3l0,0c0-2.3-1.9-4.2-4.2-4.2h-2.6c-2.3,0-4.2,1.9-4.2,4.2l0,0
					c0,0.1,0,0.2,0,0.3H142.1z"/>
				<path class="st9" d="M142.7,283.3h-12.1l0-0.5c0-0.1,0-0.2,0-0.3c0-2.6,2.2-4.8,4.8-4.8h2.6c2.6,0,4.8,2.2,4.8,4.8
					c0,0.1,0,0.2,0,0.3L142.7,283.3z M131.7,282.1h9.9c-0.2-1.9-1.7-3.3-3.6-3.3h-2.6C133.4,278.8,131.8,280.2,131.7,282.1z"/>
			</g>
		</g>
		<g>
			<g>
				<circle class="st8" cx="151" cy="304.4" r="3"/>
				<path class="st9" d="M151,308c-2,0-3.6-1.6-3.6-3.6c0-2,1.6-3.6,3.6-3.6s3.6,1.6,3.6,3.6C154.6,306.4,153,308,151,308z
					 M151,301.9c-1.4,0-2.5,1.1-2.5,2.5s1.1,2.5,2.5,2.5c1.4,0,2.5-1.1,2.5-2.5S152.4,301.9,151,301.9z"/>
			</g>
			<g>
				<path class="st8" d="M156.4,312.3c0-0.1,0-0.2,0-0.3l0,0c0-2.3-1.9-4.2-4.2-4.2h-2.6c-2.3,0-4.2,1.9-4.2,4.2l0,0
					c0,0.1,0,0.2,0,0.3H156.4z"/>
				<path class="st9" d="M157,312.9h-12.1l0-0.5c0-0.1,0-0.2,0-0.3c0-2.6,2.2-4.8,4.8-4.8h2.6c2.6,0,4.8,2.2,4.8,4.8
					c0,0.1,0,0.2,0,0.3L157,312.9z M146,311.7h9.9c-0.2-1.9-1.7-3.3-3.6-3.3h-2.6C147.7,308.4,146.1,309.8,146,311.7z"/>
			</g>
		</g>
		<g>
			<g>
				<circle class="st8" cx="119.6" cy="304.4" r="3"/>
				<path class="st9" d="M119.6,308c-2,0-3.6-1.6-3.6-3.6c0-2,1.6-3.6,3.6-3.6c2,0,3.6,1.6,3.6,3.6C123.2,306.4,121.6,308,119.6,308
					z M119.6,301.9c-1.4,0-2.5,1.1-2.5,2.5s1.1,2.5,2.5,2.5c1.4,0,2.5-1.1,2.5-2.5S120.9,301.9,119.6,301.9z"/>
			</g>
			<g>
				<path class="st8" d="M125,312.3c0-0.1,0-0.2,0-0.3l0,0c0-2.3-1.9-4.2-4.2-4.2h-2.6c-2.3,0-4.2,1.9-4.2,4.2l0,0
					c0,0.1,0,0.2,0,0.3H125z"/>
				<path class="st9" d="M125.5,312.9h-12.1l0-0.5c0-0.1,0-0.2,0-0.3c0-2.6,2.2-4.8,4.8-4.8h2.6c2.6,0,4.8,2.2,4.8,4.8
					c0,0.1,0,0.2,0,0.3L125.5,312.9z M114.5,311.7h9.9c-0.2-1.9-1.7-3.3-3.6-3.3h-2.6C116.2,308.4,114.6,309.8,114.5,311.7z"/>
			</g>
		</g>
	</g>
	<g>
		<g>
			<path class="st8" d="M336.4,306l-2.4-2.4l1.2-1.2l2.4,2.4L336.4,306z M339.8,305.9l-1.6-0.7l1.3-3.1l1.6,0.7L339.8,305.9z
				 M331.7,301.2l-2.4-2.4l1.2-1.2l2.4,2.4L331.7,301.2z M342.4,299.7l-1.6-0.7l1.3-3.1l1.6,0.7L342.4,299.7z M306.6,298.6l-1.2-1.2
				l2.4-2.4l1.2,1.2L306.6,298.6z M326.9,296.4l-2.4-2.4l1.2-1.2l2.4,2.4L326.9,296.4z M311.4,293.8l-1.2-1.2l2.4-2.4l1.2,1.2
				L311.4,293.8z M345.1,293.5l-1.6-0.7l1.3-3.1l1.6,0.7L345.1,293.5z M322.1,291.6l-2.4-2.4l1.2-1.2l2.4,2.4L322.1,291.6z
				 M316.2,289l-1.2-1.2l2.9-2.9l0.7,0.7l-0.6,0.6l0.5,0.5L316.2,289z M347.7,287.3l-1.6-0.7l1.3-3.1l1.6,0.7L347.7,287.3z"/>
		</g>
		<g>
			<g>
				<circle class="st9" cx="306.5" cy="297.6" r="4.2"/>
			</g>
			<g>
				<path class="st8" d="M306.5,302.4c-2.6,0-4.8-2.1-4.8-4.8c0-2.6,2.1-4.8,4.8-4.8c2.6,0,4.8,2.1,4.8,4.8
					C311.3,300.3,309.2,302.4,306.5,302.4z M306.5,294c-2,0-3.7,1.6-3.7,3.7c0,2,1.6,3.7,3.7,3.7c2,0,3.7-1.6,3.7-3.7
					C310.2,295.6,308.5,294,306.5,294z"/>
			</g>
		</g>
		<g>
			<g>
				<circle class="st9" cx="317.7" cy="286.1" r="3"/>
			</g>
			<g>
				<path class="st8" d="M317.7,289.7c-2,0-3.5-1.6-3.5-3.5c0-2,1.6-3.5,3.5-3.5s3.5,1.6,3.5,3.5
					C321.3,288.1,319.7,289.7,317.7,289.7z M317.7,283.7c-1.3,0-2.4,1.1-2.4,2.4c0,1.3,1.1,2.4,2.4,2.4c1.3,0,2.4-1.1,2.4-2.4
					C320.1,284.8,319.1,283.7,317.7,283.7z"/>
			</g>
		</g>
		<g>
			<g>
				<circle class="st9" cx="338.6" cy="306.5" r="4.2"/>
			</g>
			<g>
				<path class="st8" d="M338.6,311.3c-2.6,0-4.8-2.1-4.8-4.8c0-2.6,2.1-4.8,4.8-4.8c2.6,0,4.8,2.1,4.8,4.8
					C343.3,309.1,341.2,311.3,338.6,311.3z M338.6,302.8c-2,0-3.7,1.6-3.7,3.7s1.6,3.7,3.7,3.7s3.7-1.6,3.7-3.7
					S340.6,302.8,338.6,302.8z"/>
			</g>
		</g>
		<g>
			<g>
				<circle class="st9" cx="347" cy="285.4" r="3"/>
			</g>
			<g>
				<path class="st8" d="M347,288.9c-2,0-3.5-1.6-3.5-3.5c0-2,1.6-3.5,3.5-3.5c2,0,3.5,1.6,3.5,3.5C350.6,287.3,349,288.9,347,288.9
					z M347,282.9c-1.3,0-2.4,1.1-2.4,2.4c0,1.3,1.1,2.4,2.4,2.4c1.3,0,2.4-1.1,2.4-2.4C349.4,284,348.4,282.9,347,282.9z"/>
			</g>
		</g>
	</g>
	<g>
		<g>
			<path class="st8" d="M110.6,157.8l-2.4-2.4l1.2-1.2l2.4,2.4L110.6,157.8z M114,157.8l-1.6-0.7l1.3-3.1l1.6,0.7L114,157.8z
				 M105.8,153.1l-2.4-2.4l1.2-1.2l2.4,2.4L105.8,153.1z M116.6,151.6L115,151l1.3-3.1l1.6,0.7L116.6,151.6z M80.8,150.4l-1.2-1.2
				l2.4-2.4l1.2,1.2L80.8,150.4z M101.1,148.3l-2.4-2.4l1.2-1.2l2.4,2.4L101.1,148.3z M85.6,145.7l-1.2-1.2l2.4-2.4l1.2,1.2
				L85.6,145.7z M119.2,145.4l-1.6-0.7l1.3-3.1l1.6,0.7L119.2,145.4z M96.3,143.5l-2.4-2.4l1.2-1.2l2.4,2.4L96.3,143.5z M90.3,140.9
				l-1.2-1.2l2.9-2.9l0.7,0.7l-0.6,0.6l0.5,0.5L90.3,140.9z M121.9,139.2l-1.6-0.7l1.3-3.1l1.6,0.7L121.9,139.2z"/>
		</g>
		<g>
			<g>
				<circle class="st9" cx="80.7" cy="149.5" r="4.2"/>
			</g>
			<g>
				<path class="st8" d="M80.7,154.3c-2.6,0-4.8-2.1-4.8-4.8c0-2.6,2.1-4.8,4.8-4.8c2.6,0,4.8,2.1,4.8,4.8
					C85.5,152.1,83.3,154.3,80.7,154.3z M80.7,145.8c-2,0-3.7,1.6-3.7,3.7c0,2,1.6,3.7,3.7,3.7c2,0,3.7-1.6,3.7-3.7
					C84.3,147.5,82.7,145.8,80.7,145.8z"/>
			</g>
		</g>
		<g>
			<g>
				<circle class="st9" cx="91.9" cy="138" r="3"/>
			</g>
			<g>
				<path class="st8" d="M91.9,141.6c-2,0-3.5-1.6-3.5-3.5c0-2,1.6-3.5,3.5-3.5s3.5,1.6,3.5,3.5C95.4,140,93.8,141.6,91.9,141.6z
					 M91.9,135.6c-1.3,0-2.4,1.1-2.4,2.4c0,1.3,1.1,2.4,2.4,2.4s2.4-1.1,2.4-2.4C94.3,136.7,93.2,135.6,91.9,135.6z"/>
			</g>
		</g>
		<g>
			<g>
				<circle class="st9" cx="112.7" cy="158.4" r="4.2"/>
			</g>
			<g>
				<path class="st8" d="M112.7,163.1c-2.6,0-4.8-2.1-4.8-4.8c0-2.6,2.1-4.8,4.8-4.8s4.8,2.1,4.8,4.8
					C117.5,161,115.4,163.1,112.7,163.1z M112.7,154.7c-2,0-3.7,1.6-3.7,3.7c0,2,1.6,3.7,3.7,3.7s3.7-1.6,3.7-3.7
					C116.4,156.3,114.7,154.7,112.7,154.7z"/>
			</g>
		</g>
		<g>
			<g>
				<circle class="st9" cx="121.2" cy="137.2" r="3"/>
			</g>
			<g>
				<path class="st8" d="M121.2,140.8c-2,0-3.5-1.6-3.5-3.5s1.6-3.5,3.5-3.5s3.5,1.6,3.5,3.5S123.1,140.8,121.2,140.8z M121.2,134.8
					c-1.3,0-2.4,1.1-2.4,2.4c0,1.3,1.1,2.4,2.4,2.4c1.3,0,2.4-1.1,2.4-2.4C123.6,135.9,122.5,134.8,121.2,134.8z"/>
			</g>
		</g>
	</g>
	<rect x="351.5" y="143.2" class="st10" width="29.6" height="19.7"/>
	<rect x="364.3" y="146.9" class="st9" width="4" height="12.2"/>
	<rect x="356.3" y="146.9" class="st9" width="4" height="12.2"/>
	<rect x="371.8" y="146.9" class="st9" width="4" height="12.2"/>
	<rect x="347" y="137.4" class="st10" width="39.3" height="5.9"/>
</g>
</svg>
