<?xml version="1.0" encoding="iso-8859-1"?>
<!-- Generator: Adobe Illustrator 21.0.0, SVG Export Plug-In . SVG Version: 6.00 Build 0)  -->
<svg version="1.1" id="Layer_1" xmlns="http://www.w3.org/2000/svg" xmlns:xlink="http://www.w3.org/1999/xlink" x="0px" y="0px"
	 viewBox="0 0 377 368" style="enable-background:new 0 0 377 368;" xml:space="preserve">
<g>
	<g>
		<path style="fill:#F2F2F2;" d="M188.082,348.576l-0.929-0.003c-1.656-0.011-2.991-1.362-2.98-3.02c0.011-1.65,1.352-2.98,3-2.98
			c0.006,0,0.013,0,0.02,0l0.889,0.003c3.586-0.001,7.201-0.135,10.745-0.399c1.668-0.121,3.091,1.117,3.215,2.77
			c0.122,1.652-1.117,3.092-2.77,3.215C195.581,348.436,191.816,348.575,188.082,348.576z M177.282,348.182
			c-0.073,0-0.147-0.003-0.223-0.008c-4.012-0.295-8.063-0.757-12.044-1.375c-1.637-0.255-2.758-1.788-2.504-3.426
			c0.255-1.637,1.789-2.747,3.426-2.504c3.82,0.594,7.71,1.038,11.562,1.32c1.652,0.121,2.894,1.56,2.772,3.212
			C180.155,346.979,178.84,348.182,177.282,348.182z M208.889,347.101c-1.469,0-2.752-1.079-2.966-2.575
			c-0.234-1.641,0.905-3.16,2.545-3.395c3.827-0.548,7.677-1.26,11.441-2.116c1.62-0.371,3.224,0.643,3.591,2.259
			c0.368,1.615-0.644,3.224-2.259,3.591c-3.924,0.894-7.936,1.636-11.924,2.206C209.173,347.091,209.03,347.101,208.889,347.101z
			 M155.753,344.978c-0.22,0-0.442-0.024-0.666-0.075c-3.934-0.891-7.873-1.955-11.709-3.164c-1.58-0.498-2.458-2.183-1.96-3.763
			s2.185-2.46,3.763-1.96c3.68,1.159,7.458,2.181,11.232,3.035c1.615,0.366,2.629,1.973,2.263,3.589
			C158.36,344.032,157.123,344.978,155.753,344.978z M230.146,342.412c-1.289,0-2.48-0.838-2.872-2.136
			c-0.478-1.587,0.422-3.26,2.008-3.738c3.704-1.115,7.403-2.396,10.994-3.81c1.544-0.605,3.284,0.152,3.891,1.694
			c0.606,1.541-0.152,3.283-1.693,3.89c-3.744,1.473-7.6,2.809-11.461,3.972C230.724,342.37,230.433,342.412,230.146,342.412z
			 M134.926,338.576c-0.364,0-0.734-0.067-1.094-0.208c-3.744-1.468-7.481-3.112-11.107-4.889c-1.488-0.729-2.104-2.526-1.375-4.014
			c0.729-1.488,2.526-2.104,4.014-1.375c3.48,1.705,7.066,3.283,10.658,4.691c1.543,0.604,2.303,2.346,1.698,3.888
			C137.256,337.854,136.124,338.576,134.926,338.576z M250.453,334.59c-1.123,0-2.199-0.634-2.712-1.715
			c-0.711-1.497-0.073-3.286,1.424-3.997c3.491-1.656,6.956-3.477,10.297-5.411c1.434-0.829,3.27-0.34,4.1,1.094
			s0.341,3.269-1.094,4.1c-3.481,2.016-7.092,3.913-10.73,5.64C251.322,334.496,250.884,334.59,250.453,334.59z M115.296,329.124
			c-0.509,0-1.025-0.13-1.498-0.403c-3.485-2.014-6.934-4.198-10.248-6.492c-1.362-0.943-1.702-2.812-0.759-4.175
			c0.943-1.361,2.812-1.701,4.175-0.759c3.18,2.202,6.488,4.298,9.834,6.23c1.435,0.829,1.926,2.664,1.097,4.099
			C117.341,328.586,116.332,329.124,115.296,329.124z M269.359,323.816c-0.966,0-1.913-0.465-2.492-1.325
			c-0.925-1.375-0.56-3.239,0.814-4.164c3.195-2.149,6.351-4.466,9.38-6.885c1.296-1.033,3.184-0.823,4.216,0.472
			c1.034,1.294,0.823,3.182-0.472,4.216c-3.156,2.521-6.445,4.936-9.774,7.176C270.518,323.651,269.935,323.816,269.359,323.816z
			 M97.306,316.85c-0.656,0-1.316-0.214-1.869-0.654c-3.145-2.509-6.228-5.18-9.165-7.939c-1.208-1.135-1.268-3.033-0.133-4.24
			c1.135-1.209,3.031-1.268,4.24-0.133c2.82,2.649,5.781,5.214,8.8,7.622c1.295,1.033,1.508,2.92,0.474,4.216
			C99.061,316.463,98.187,316.85,97.306,316.85z M286.458,310.349c-0.812,0-1.621-0.327-2.213-0.974
			c-1.119-1.222-1.036-3.119,0.186-4.238c2.852-2.613,5.63-5.373,8.257-8.204c1.126-1.214,3.024-1.285,4.24-0.158
			c1.214,1.127,1.285,3.025,0.158,4.24c-2.737,2.949-5.632,5.824-8.603,8.546C287.908,310.088,287.182,310.349,286.458,310.349z
			 M81.342,302.046c-0.805,0-1.607-0.321-2.198-0.957c-2.742-2.95-5.396-6.049-7.889-9.21c-1.025-1.302-0.802-3.188,0.499-4.214
			c1.303-1.024,3.187-0.801,4.214,0.499c2.391,3.034,4.938,6.008,7.57,8.839c1.128,1.214,1.059,3.112-0.154,4.24
			C82.806,301.78,82.072,302.046,81.342,302.046z M301.376,294.489c-0.663,0-1.33-0.219-1.886-0.668
			c-1.287-1.042-1.486-2.932-0.444-4.22c2.433-3.006,4.771-6.148,6.951-9.339c0.935-1.368,2.802-1.72,4.17-0.785
			s1.72,2.802,0.785,4.17c-2.271,3.323-4.708,6.597-7.242,9.729C303.117,294.109,302.25,294.489,301.376,294.489z M67.752,285.044
			c-0.957,0-1.897-0.457-2.479-1.307c-2.275-3.326-4.438-6.783-6.431-10.276c-0.821-1.439-0.32-3.271,1.119-4.092
			c1.438-0.82,3.272-0.321,4.092,1.119c1.912,3.352,3.988,6.67,6.173,9.862c0.935,1.367,0.585,3.234-0.783,4.17
			C68.925,284.874,68.335,285.044,67.752,285.044z M313.779,276.589c-0.517,0-1.039-0.133-1.517-0.413
			c-1.429-0.839-1.906-2.678-1.067-4.106c1.964-3.343,3.809-6.799,5.483-10.271c0.721-1.493,2.515-2.117,4.005-1.399
			c1.493,0.72,2.119,2.513,1.399,4.005c-1.746,3.62-3.668,7.222-5.714,10.705C315.81,276.06,314.809,276.589,313.779,276.589z
			 M56.841,266.22c-1.114,0-2.185-0.624-2.703-1.695c-1.753-3.626-3.376-7.367-4.824-11.119c-0.597-1.546,0.173-3.282,1.719-3.879
			c1.549-0.598,3.281,0.174,3.879,1.719c1.39,3.6,2.946,7.188,4.629,10.668c0.721,1.491,0.097,3.285-1.396,4.007
			C57.724,266.123,57.279,266.22,56.841,266.22z M323.38,257.03c-0.371,0-0.748-0.069-1.114-0.216
			c-1.538-0.615-2.285-2.361-1.67-3.9c1.44-3.599,2.747-7.293,3.882-10.979c0.488-1.583,2.166-2.475,3.75-1.984
			c1.584,0.487,2.472,2.167,1.984,3.75c-1.184,3.843-2.545,7.693-4.046,11.444C325.696,256.316,324.57,257.03,323.38,257.03z
			 M48.865,245.972c-1.281,0-2.467-0.827-2.865-2.115c-1.188-3.845-2.232-7.789-3.103-11.723c-0.358-1.618,0.663-3.22,2.28-3.577
			c1.621-0.362,3.22,0.663,3.577,2.28c0.835,3.774,1.837,7.559,2.978,11.248c0.489,1.583-0.397,3.263-1.98,3.752
			C49.457,245.928,49.159,245.972,48.865,245.972z M44.016,224.749c-1.46,0-2.739-1.066-2.963-2.554
			c-0.598-3.977-1.04-8.032-1.314-12.053c-0.112-1.653,1.136-3.085,2.789-3.197c1.651-0.133,3.084,1.137,3.197,2.789
			c0.263,3.859,0.688,7.752,1.262,11.568c0.246,1.639-0.882,3.166-2.521,3.413C44.314,224.738,44.164,224.749,44.016,224.749z
			 M333.419,192.672c-1.562,0-2.881-1.211-2.99-2.793c-0.267-3.863-0.695-7.755-1.273-11.565c-0.249-1.639,0.878-3.168,2.516-3.416
			c1.638-0.252,3.167,0.879,3.416,2.516c0.603,3.972,1.05,8.026,1.328,12.052c0.114,1.653-1.134,3.086-2.786,3.2
			C333.559,192.67,333.488,192.672,333.419,192.672z M43.975,181.333c-0.146,0-0.295-0.011-0.444-0.032
			c-1.639-0.243-2.771-1.769-2.527-3.408c0.591-3.985,1.354-7.993,2.269-11.913c0.376-1.613,1.987-2.613,3.604-2.24
			c1.613,0.377,2.616,1.99,2.24,3.604c-0.878,3.761-1.61,7.606-2.177,11.431C46.718,180.263,45.436,181.333,43.975,181.333z
			 M330.301,171.132c-1.375,0-2.614-0.951-2.926-2.35c-0.84-3.776-1.846-7.561-2.989-11.246c-0.491-1.582,0.394-3.263,1.977-3.754
			c1.579-0.487,3.262,0.393,3.754,1.977c1.191,3.841,2.24,7.784,3.116,11.721c0.359,1.617-0.66,3.22-2.277,3.58
			C330.736,171.108,330.517,171.132,330.301,171.132z M48.772,160.101c-0.291,0-0.588-0.043-0.881-0.133
			c-1.584-0.486-2.474-2.164-1.988-3.748c1.184-3.858,2.541-7.71,4.034-11.449c0.614-1.538,2.357-2.288,3.899-1.673
			c1.538,0.615,2.287,2.36,1.673,3.899c-1.433,3.586-2.734,7.28-3.87,10.982C51.243,159.271,50.056,160.101,48.772,160.101z
			 M323.995,150.298c-1.203,0-2.338-0.729-2.799-1.918c-1.393-3.596-2.953-7.184-4.64-10.663c-0.723-1.491-0.101-3.285,1.391-4.008
			c1.492-0.724,3.286-0.101,4.008,1.391c1.758,3.626,3.386,7.365,4.837,11.114c0.598,1.545-0.17,3.282-1.715,3.881
			C324.722,150.232,324.354,150.298,323.995,150.298z M56.711,139.81c-0.437,0-0.879-0.096-1.298-0.297
			c-1.493-0.719-2.122-2.511-1.404-4.004c1.744-3.625,3.663-7.229,5.704-10.711c0.837-1.43,2.675-1.908,4.104-1.071
			c1.43,0.838,1.909,2.676,1.071,4.104c-1.958,3.342-3.8,6.8-5.473,10.277C58.9,139.183,57.828,139.81,56.711,139.81z
			 M314.642,130.657c-1.041,0-2.054-0.543-2.607-1.512c-1.916-3.353-3.996-6.668-6.182-9.855c-0.938-1.366-0.59-3.233,0.776-4.17
			c1.37-0.94,3.235-0.59,4.171,0.777c2.278,3.32,4.446,6.776,6.443,10.27c0.822,1.438,0.323,3.271-1.115,4.094
			C315.658,130.529,315.146,130.657,314.642,130.657z M67.597,120.94c-0.581,0-1.169-0.169-1.687-0.521
			c-1.369-0.934-1.723-2.8-0.79-4.169c2.267-3.326,4.699-6.602,7.231-9.736c1.041-1.291,2.931-1.49,4.219-0.449
			c1.289,1.041,1.49,2.93,0.449,4.219c-2.431,3.009-4.766,6.153-6.94,9.346C69.498,120.481,68.556,120.94,67.597,120.94z
			 M302.455,112.623c-0.887,0-1.764-0.391-2.356-1.141c-2.394-3.03-4.944-6.002-7.579-8.83c-1.129-1.212-1.062-3.11,0.15-4.24
			c1.213-1.13,3.111-1.062,4.24,0.15c2.745,2.947,5.402,6.043,7.897,9.201c1.026,1.3,0.806,3.187-0.495,4.214
			C303.762,112.412,303.106,112.623,302.455,112.623z M81.167,103.908c-0.729,0-1.46-0.265-2.037-0.799
			c-1.216-1.126-1.289-3.024-0.163-4.239c2.736-2.954,5.628-5.833,8.595-8.556c1.221-1.123,3.117-1.039,4.238,0.182
			s1.039,3.118-0.182,4.238c-2.848,2.614-5.623,5.377-8.249,8.212C82.778,103.585,81.974,103.908,81.167,103.908z M287.723,96.593
			c-0.735,0-1.473-0.269-2.052-0.812c-2.815-2.641-5.778-5.202-8.807-7.611c-1.296-1.032-1.511-2.919-0.479-4.216
			c1.032-1.295,2.918-1.512,4.216-0.479c3.154,2.511,6.242,5.179,9.176,7.932c1.208,1.133,1.269,3.031,0.135,4.24
			C289.321,96.274,288.522,96.593,287.723,96.593z M97.108,89.079c-0.88,0-1.752-0.385-2.345-1.126
			c-1.035-1.293-0.825-3.181,0.469-4.217c3.142-2.515,6.428-4.932,9.765-7.186c1.374-0.929,3.238-0.564,4.165,0.808
			c0.927,1.373,0.565,3.237-0.808,4.165c-3.203,2.163-6.357,4.484-9.374,6.898C98.428,88.864,97.766,89.079,97.108,89.079z
			 M270.772,82.918c-0.588,0-1.182-0.172-1.701-0.531c-3.183-2.197-6.494-4.29-9.842-6.221c-1.436-0.827-1.929-2.661-1.101-4.097
			c0.826-1.436,2.661-1.93,4.097-1.101c3.488,2.011,6.938,4.191,10.254,6.48c1.364,0.941,1.706,2.81,0.765,4.173
			C272.662,82.466,271.726,82.918,270.772,82.918z M115.064,76.783c-1.035,0-2.041-0.536-2.598-1.495
			c-0.832-1.434-0.344-3.27,1.089-4.101c3.479-2.019,7.088-3.92,10.725-5.651c1.494-0.71,3.285-0.076,3.998,1.42
			c0.712,1.496,0.076,3.286-1.42,3.998c-3.489,1.661-6.952,3.485-10.291,5.423C116.093,76.652,115.575,76.783,115.064,76.783z
			 M251.975,71.914c-0.442,0-0.892-0.099-1.315-0.306c-3.477-1.699-7.064-3.274-10.662-4.681c-1.544-0.603-2.306-2.343-1.702-3.886
			c0.604-1.543,2.345-2.306,3.886-1.702c3.751,1.466,7.489,3.107,11.113,4.878c1.488,0.728,2.105,2.524,1.378,4.013
			C254.151,71.295,253.084,71.914,251.975,71.914z M134.642,67.306c-1.196,0-2.326-0.72-2.792-1.899
			c-0.607-1.542,0.148-3.284,1.689-3.893c3.743-1.477,7.598-2.816,11.456-3.983c1.585-0.478,3.26,0.418,3.74,2.004
			c0.479,1.586-0.418,3.261-2.004,3.74c-3.702,1.118-7.399,2.404-10.989,3.821C135.381,67.238,135.008,67.306,134.642,67.306z
			 M231.734,63.845c-0.298,0-0.6-0.045-0.898-0.139c-3.685-1.155-7.465-2.173-11.236-3.022c-1.616-0.364-2.631-1.971-2.267-3.587
			c0.364-1.615,1.967-2.63,3.587-2.267c3.931,0.887,7.871,1.946,11.711,3.151c1.581,0.496,2.461,2.18,1.965,3.76
			C234.193,63.023,233.011,63.845,231.734,63.845z M155.432,60.863c-1.367,0-2.604-0.941-2.921-2.331
			c-0.37-1.615,0.639-3.225,2.254-3.594c3.92-0.898,7.931-1.645,11.923-2.22c1.644-0.23,3.161,0.902,3.397,2.542
			c0.235,1.64-0.902,3.161-2.542,3.397c-3.83,0.551-7.679,1.268-11.438,2.128C155.879,60.838,155.653,60.863,155.432,60.863z
			 M210.534,58.91c-0.153,0-0.308-0.012-0.463-0.035c-3.809-0.59-7.698-1.03-11.562-1.309c-1.652-0.119-2.896-1.556-2.776-3.208
			c0.12-1.651,1.565-2.876,3.208-2.776c4.025,0.29,8.079,0.749,12.048,1.363c1.638,0.254,2.759,1.786,2.506,3.424
			C213.266,57.851,211.988,58.91,210.534,58.91z M176.954,57.61c-1.555,0-2.869-1.199-2.988-2.774
			c-0.125-1.651,1.113-3.092,2.766-3.217c3.755-0.284,7.573-0.428,11.35-0.428l0.764,0.002c1.657,0.007,2.995,1.354,2.988,3.012
			c-0.007,1.652-1.349,2.988-3,2.988c-0.004,0-0.008,0-0.012,0l-0.74-0.002c-3.626,0-7.292,0.138-10.898,0.41
			C177.106,57.607,177.029,57.61,176.954,57.61z"/>
	</g>
	<g>
		<circle style="fill:#F2F2F2;" cx="186.097" cy="53.618" r="39.385"/>
		<circle style="fill:none;stroke:#FFFFFF;stroke-width:9;stroke-miterlimit:10;" cx="186.097" cy="53.618" r="39.385"/>
	</g>
	<g>
		<g>
			
				<circle style="fill:none;stroke:#606060;stroke-width:2;stroke-linecap:round;stroke-linejoin:round;stroke-dasharray:4.0451,6.0677,4.0451,6.0677;" cx="185.472" cy="54.831" r="19.319"/>
		</g>
		<g>
			<g>
				<circle style="fill:#FFFFFF;" cx="186.785" cy="31.205" r="3.037"/>
				<path style="fill:#34B3EB;" d="M186.785,34.825c-1.996,0-3.621-1.624-3.621-3.621c0-1.996,1.624-3.621,3.621-3.621
					s3.621,1.624,3.621,3.621C190.406,33.201,188.782,34.825,186.785,34.825z M186.785,28.751c-1.353,0-2.454,1.101-2.454,2.454
					s1.101,2.454,2.454,2.454c1.353,0,2.454-1.101,2.454-2.454S188.138,28.751,186.785,28.751z"/>
			</g>
			<g>
				<path style="fill:#FFFFFF;" d="M192.188,39.129c0.006-0.093,0.011-0.187,0.011-0.281l0,0c0-2.32-1.898-4.219-4.219-4.219h-2.642
					c-2.32,0-4.219,1.898-4.219,4.219l0,0c0,0.095,0.004,0.188,0.01,0.281H192.188z"/>
				<path style="fill:#34B3EB;" d="M192.734,39.713h-12.15l-0.037-0.544c-0.007-0.106-0.012-0.213-0.012-0.32
					c0-2.648,2.154-4.802,4.802-4.802h2.642c2.648,0,4.802,2.154,4.802,4.802c0,0.108-0.005,0.214-0.012,0.32L192.734,39.713z
					 M181.715,38.545h9.887c-0.154-1.863-1.72-3.333-3.623-3.333h-2.642C183.435,35.213,181.87,36.682,181.715,38.545z"/>
			</g>
		</g>
		<g>
			<g>
				<circle style="fill:#FFFFFF;" cx="201.069" cy="60.826" r="3.037"/>
				<path style="fill:#34B3EB;" d="M201.069,64.447c-1.996,0-3.621-1.624-3.621-3.621c0-1.996,1.624-3.621,3.621-3.621
					s3.621,1.624,3.621,3.621C204.689,62.823,203.065,64.447,201.069,64.447z M201.069,58.372c-1.353,0-2.454,1.101-2.454,2.454
					s1.101,2.454,2.454,2.454c1.353,0,2.454-1.101,2.454-2.454S202.421,58.372,201.069,58.372z"/>
			</g>
			<g>
				<path style="fill:#FFFFFF;" d="M206.471,68.751c0.006-0.093,0.01-0.187,0.01-0.281l0,0c0-2.32-1.898-4.219-4.219-4.219h-2.642
					c-2.32,0-4.219,1.898-4.219,4.219l0,0c0,0.095,0.004,0.188,0.011,0.281H206.471z"/>
				<path style="fill:#34B3EB;" d="M207.018,69.334h-12.15l-0.037-0.544c-0.007-0.106-0.012-0.213-0.012-0.32
					c0-2.648,2.154-4.802,4.802-4.802h2.642c2.648,0,4.802,2.154,4.802,4.802c0,0.108-0.005,0.214-0.012,0.32L207.018,69.334z
					 M195.999,68.167h9.887c-0.154-1.863-1.72-3.333-3.623-3.333h-2.642C197.719,64.834,196.153,66.303,195.999,68.167z"/>
			</g>
		</g>
		<g>
			<g>
				<circle style="fill:#FFFFFF;" cx="169.613" cy="60.826" r="3.037"/>
				<path style="fill:#34B3EB;" d="M169.613,64.447c-1.996,0-3.621-1.624-3.621-3.621c0-1.996,1.624-3.621,3.621-3.621
					s3.621,1.624,3.621,3.621C173.234,62.823,171.609,64.447,169.613,64.447z M169.613,58.372c-1.353,0-2.454,1.101-2.454,2.454
					s1.101,2.454,2.454,2.454c1.353,0,2.454-1.101,2.454-2.454S170.966,58.372,169.613,58.372z"/>
			</g>
			<g>
				<path style="fill:#FFFFFF;" d="M175.016,68.751c0.006-0.093,0.01-0.187,0.01-0.281l0,0c0-2.32-1.898-4.219-4.219-4.219h-2.642
					c-2.32,0-4.219,1.898-4.219,4.219l0,0c0,0.095,0.004,0.188,0.011,0.281H175.016z"/>
				<path style="fill:#34B3EB;" d="M175.562,69.334h-12.15l-0.037-0.544c-0.007-0.106-0.012-0.213-0.012-0.32
					c0-2.648,2.154-4.802,4.802-4.802h2.642c2.648,0,4.802,2.154,4.802,4.802c0,0.108-0.005,0.214-0.012,0.32L175.562,69.334z
					 M164.543,68.167h9.887c-0.154-1.863-1.72-3.333-3.623-3.333h-2.642C166.263,64.834,164.697,66.303,164.543,68.167z"/>
			</g>
		</g>
	</g>
	<g>
		<g>
			<circle style="fill:#F2F2F2;" cx="280.207" cy="300.769" r="39.385"/>
			<circle style="fill:none;stroke:#FFFFFF;stroke-width:9;stroke-miterlimit:10;" cx="280.207" cy="300.769" r="39.385"/>
		</g>
		<g>
			<g>
				<g>
					<path style="fill:#34B3EB;" d="M291.088,317.769l-2.385-2.385l1.192-1.192l2.385,2.385L291.088,317.769z M294.431,317.763
						l-1.553-0.658l1.316-3.105l1.553,0.658L294.431,317.763z M286.319,313l-2.385-2.385l1.192-1.192l2.385,2.385L286.319,313z
						 M297.063,311.553l-1.553-0.658l1.316-3.105l1.553,0.658L297.063,311.553z M261.28,310.378l-1.192-1.192l2.385-2.385
						l1.192,1.192L261.28,310.378z M281.55,308.231l-2.385-2.385l1.192-1.192l2.385,2.385L281.55,308.231z M266.049,305.609
						l-1.192-1.192l2.385-2.385l1.192,1.192L266.049,305.609z M299.695,305.343l-1.553-0.658l1.316-3.105l1.553,0.658
						L299.695,305.343z M276.78,303.461l-2.385-2.384l1.192-1.192l2.385,2.384L276.78,303.461z M270.819,300.839l-1.192-1.192
						l2.862-2.862l0.715,0.716l-0.597,0.596l0.477,0.477L270.819,300.839z M302.326,299.132l-1.553-0.658l1.316-3.105l1.553,0.658
						L302.326,299.132z"/>
				</g>
				<g>
					<g>
						<circle style="fill:#666666;" cx="261.168" cy="309.437" r="4.215"/>
					</g>
					<g>
						<path style="fill:#F2F2F2;" d="M261.168,314.214c-2.634,0-4.777-2.143-4.777-4.777s2.143-4.777,4.777-4.777
							c2.634,0,4.777,2.143,4.777,4.777S263.802,314.214,261.168,314.214z M261.168,305.784c-2.014,0-3.653,1.639-3.653,3.653
							s1.639,3.653,3.653,3.653c2.014,0,3.653-1.639,3.653-3.653S263.182,305.784,261.168,305.784z"/>
					</g>
				</g>
				<g>
					<g>
						<circle style="fill:#666666;" cx="271.365" cy="297.959" r="2.977"/>
					</g>
					<g>
						<path style="fill:#F2F2F2;" d="M271.365,301.498c-1.951,0-3.539-1.588-3.539-3.539c0-1.951,1.588-3.539,3.539-3.539
							s3.539,1.588,3.539,3.539C274.904,299.91,273.316,301.498,271.365,301.498z M271.365,295.544
							c-1.332,0-2.415,1.083-2.415,2.415s1.083,2.415,2.415,2.415s2.415-1.083,2.415-2.415S272.697,295.544,271.365,295.544z"/>
					</g>
				</g>
				<g>
					<g>
						<circle style="fill:#666666;" cx="292.071" cy="316.788" r="4.215"/>
					</g>
					<g>
						<path style="fill:#F2F2F2;" d="M292.071,321.565c-2.634,0-4.777-2.143-4.777-4.777c0-2.634,2.143-4.778,4.777-4.778
							s4.777,2.143,4.777,4.778C296.848,319.422,294.705,321.565,292.071,321.565z M292.071,313.134
							c-2.014,0-3.653,1.639-3.653,3.653s1.639,3.653,3.653,3.653s3.653-1.639,3.653-3.653S294.085,313.134,292.071,313.134z"/>
					</g>
				</g>
				<g>
					<g>
						<circle style="fill:#666666;" cx="301.665" cy="297.182" r="2.981"/>
					</g>
					<g>
						<path style="fill:#F2F2F2;" d="M301.665,300.726c-1.954,0-3.543-1.59-3.543-3.543c0-1.954,1.59-3.543,3.543-3.543
							c1.954,0,3.543,1.589,3.543,3.543C305.208,299.136,303.619,300.726,301.665,300.726z M301.665,294.763
							c-1.334,0-2.419,1.085-2.419,2.419c0,1.334,1.085,2.419,2.419,2.419c1.334,0,2.419-1.085,2.419-2.419
							C304.084,295.848,302.999,294.763,301.665,294.763z"/>
					</g>
				</g>
			</g>
		</g>
	</g>
	<g>
		<g>
			<circle style="fill:#F2F2F2;" cx="318.006" cy="155.648" r="39.385"/>
			<circle style="fill:none;stroke:#FFFFFF;stroke-width:9;stroke-miterlimit:10;" cx="318.006" cy="155.648" r="39.385"/>
		</g>
		<g>
			
				<rect x="305.827" y="157.06" style="fill:none;stroke:#666666;stroke-width:2;stroke-miterlimit:10;" width="25.48" height="16.934"/>
			<rect x="309.946" y="160.263" style="fill:#666666;" width="1.734" height="10.516"/>
			<rect x="313.246" y="160.263" style="fill:#666666;" width="1.734" height="10.516"/>
			<rect x="316.157" y="160.263" style="fill:#666666;" width="1.734" height="10.516"/>
			<rect x="319.3" y="160.263" style="fill:#666666;" width="1.734" height="10.516"/>
			<rect x="322.6" y="160.263" style="fill:#666666;" width="1.734" height="10.516"/>
			<rect x="325.952" y="160.263" style="fill:#666666;" width="1.734" height="10.516"/>
			<rect x="316.587" y="141.192" style="fill:#34B3EB;" width="1.734" height="10.516"/>
			
				<rect x="301.928" y="152.014" style="fill:none;stroke:#666666;stroke-width:2;stroke-miterlimit:10;" width="33.813" height="5.047"/>
			<path style="fill:#34B3EB;" d="M328.537,137.802c-0.155-0.374-0.521-0.618-0.926-0.618h-10.022c-0.553,0-1.002,0.449-1.002,1.002
				v6.013c0,0.553,0.449,1.002,1.002,1.002h10.022c0.405,0,0.771-0.244,0.926-0.618c0.155-0.375,0.069-0.805-0.218-1.092
				l-2.298-2.298l2.298-2.298C328.606,138.607,328.692,138.177,328.537,137.802z M323.896,141.901l1.296,1.296h-6.6v-4.009h6.6
				l-1.296,1.296C323.505,140.875,323.505,141.509,323.896,141.901z"/>
		</g>
	</g>
	<g>
		<g>
			<circle style="fill:#F2F2F2;" cx="88.628" cy="300.769" r="39.385"/>
			<circle style="fill:none;stroke:#FFFFFF;stroke-width:9;stroke-miterlimit:10;" cx="88.628" cy="300.769" r="39.385"/>
		</g>
		<g>
			<g>
				<g>
					<path style="fill:#34B3EB;" d="M72.771,288.241c0.94,0,1.702-0.762,1.702-1.702s-0.762-1.702-1.702-1.702
						c-0.94,0-1.702,0.762-1.702,1.702C71.07,287.479,71.831,288.241,72.771,288.241z"/>
					<path style="fill:#34B3EB;" d="M102.715,284.837c-0.94,0.001-1.702,0.763-1.701,1.703c0.001,0.94,0.763,1.702,1.703,1.701
						c0.939-0.001,1.701-0.762,1.701-1.701C104.417,285.6,103.655,284.838,102.715,284.837z"/>
					<path style="fill:#34B3EB;" d="M72.771,314.755c-0.94,0.003-1.7,0.767-1.697,1.707c0.003,0.94,0.767,1.7,1.707,1.697
						c0.938-0.003,1.697-0.764,1.697-1.702c-0.001-0.941-0.763-1.703-1.704-1.702C72.773,314.755,72.772,314.755,72.771,314.755z"/>
					<path style="fill:#34B3EB;" d="M102.715,314.755c-0.94,0.001-1.702,0.763-1.701,1.703c0.001,0.94,0.763,1.702,1.703,1.701
						c0.94-0.001,1.701-0.762,1.701-1.702C104.417,315.517,103.655,314.756,102.715,314.755z"/>
					<g>
						<g>
							<path style="fill:#606060;" d="M98.38,307.604c0.528-0.919,0.933-1.904,1.206-2.928h2.611c0.603,0,1.092-0.489,1.092-1.092
								l-0.006-4.203c0-0.603-0.489-1.092-1.092-1.092l0,0h-2.61c-0.275-1.024-0.682-2.007-1.212-2.924l1.841-1.846
								c0.427-0.426,0.427-1.118,0-1.545c0,0,0,0,0,0l-2.979-2.968c-0.426-0.427-1.118-0.427-1.545,0c0,0,0,0,0,0l-1.843,1.848
								c-0.919-0.528-1.903-0.933-2.927-1.206v-2.611c0-0.603-0.489-1.092-1.092-1.092l0,0l-4.203,0.006
								c-0.603,0-1.092,0.489-1.092,1.092v2.61c-1.024,0.275-2.007,0.682-2.924,1.212l-1.848-1.838
								c-0.205-0.204-0.482-0.318-0.771-0.318l0,0c-0.29,0-0.567,0.116-0.772,0.321l-2.968,2.979c-0.427,0.426-0.427,1.118,0,1.545
								c0,0,0,0,0,0l1.845,1.84c-0.528,0.919-0.933,1.903-1.206,2.927h-2.611c-0.603,0-1.092,0.489-1.092,1.092l0.006,4.203
								c0,0.603,0.489,1.092,1.092,1.092l0,0h2.61c0.275,1.024,0.682,2.007,1.212,2.924l-1.838,1.846
								c-0.427,0.426-0.427,1.118,0,1.545c0,0,0,0,0,0l2.979,2.968c0.426,0.427,1.118,0.427,1.545,0c0,0,0,0,0,0l1.841-1.848
								c0.919,0.528,1.903,0.933,2.927,1.206v2.611c0,0.603,0.489,1.092,1.092,1.092l0,0l4.203-0.006
								c0.603,0,1.092-0.489,1.092-1.092v-2.61c1.024-0.275,2.007-0.682,2.924-1.212l1.846,1.842
								c0.211,0.196,0.485,0.309,0.773,0.318c0.29,0,0.567-0.116,0.772-0.321l2.968-2.979c0.427-0.426,0.427-1.118,0-1.545
								c0,0,0,0,0,0L98.38,307.604z M96.222,308.538l1.688,1.682l-1.426,1.43l-1.688-1.688c-0.372-0.372-0.956-0.426-1.39-0.129
								c-1.134,0.774-2.415,1.305-3.764,1.561c-0.515,0.099-0.887,0.55-0.886,1.074v2.383h-2.019v-2.388
								c-0.001-0.524-0.374-0.974-0.889-1.071c-1.351-0.252-2.636-0.78-3.773-1.551c-0.435-0.296-1.02-0.24-1.39,0.134l-1.682,1.688
								l-1.43-1.426l1.688-1.688c0.372-0.372,0.426-0.956,0.129-1.39c-0.774-1.134-1.305-2.415-1.561-3.764
								c-0.099-0.514-0.549-0.886-1.072-0.886l0,0h-2.383v-2.019l2.388,0.015c0.524-0.001,0.974-0.374,1.071-0.889
								c0.252-1.351,0.78-2.636,1.551-3.773c0.292-0.436,0.233-1.017-0.14-1.385l-1.688-1.682l1.426-1.43l1.688,1.688
								c0.372,0.372,0.956,0.426,1.39,0.129c1.134-0.774,2.415-1.305,3.764-1.561c0.515-0.099,0.888-0.55,0.887-1.074v-2.383h2.019
								v2.388c0.001,0.524,0.374,0.974,0.889,1.071c1.351,0.252,2.636,0.78,3.773,1.552c0.435,0.296,1.02,0.24,1.39-0.134
								l1.682-1.688l1.43,1.426l-1.688,1.688c-0.372,0.372-0.426,0.956-0.129,1.39c0.774,1.134,1.305,2.415,1.561,3.764
								c0.099,0.515,0.549,0.887,1.072,0.887l0,0h2.383v2.019l-2.386-0.016c-0.524,0.001-0.974,0.374-1.071,0.889
								c-0.252,1.351-0.78,2.636-1.551,3.773c-0.292,0.436-0.233,1.017,0.14,1.385L96.222,308.538z"/>
						</g>
						<g>
							<path style="fill:none;stroke:#F2F2F2;stroke-width:0.5;stroke-miterlimit:10;" d="M98.38,307.604
								c0.528-0.919,0.933-1.904,1.206-2.928h2.611c0.603,0,1.092-0.489,1.092-1.092l-0.006-4.203c0-0.603-0.489-1.092-1.092-1.092
								l0,0h-2.61c-0.275-1.024-0.682-2.007-1.212-2.924l1.841-1.846c0.427-0.426,0.427-1.118,0-1.545c0,0,0,0,0,0l-2.979-2.968
								c-0.426-0.427-1.118-0.427-1.545,0c0,0,0,0,0,0l-1.843,1.848c-0.919-0.528-1.903-0.933-2.927-1.206v-2.611
								c0-0.603-0.489-1.092-1.092-1.092l0,0l-4.203,0.006c-0.603,0-1.092,0.489-1.092,1.092v2.61
								c-1.024,0.275-2.007,0.682-2.924,1.212l-1.848-1.838c-0.205-0.204-0.482-0.318-0.771-0.318l0,0
								c-0.29,0-0.567,0.116-0.772,0.321l-2.968,2.979c-0.427,0.426-0.427,1.118,0,1.545c0,0,0,0,0,0l1.845,1.84
								c-0.528,0.919-0.933,1.903-1.206,2.927h-2.611c-0.603,0-1.092,0.489-1.092,1.092l0.006,4.203
								c0,0.603,0.489,1.092,1.092,1.092l0,0h2.61c0.275,1.024,0.682,2.007,1.212,2.924l-1.838,1.846
								c-0.427,0.426-0.427,1.118,0,1.545c0,0,0,0,0,0l2.979,2.968c0.426,0.427,1.118,0.427,1.545,0c0,0,0,0,0,0l1.841-1.848
								c0.919,0.528,1.903,0.933,2.927,1.206v2.611c0,0.603,0.489,1.092,1.092,1.092l0,0l4.203-0.006
								c0.603,0,1.092-0.489,1.092-1.092v-2.61c1.024-0.275,2.007-0.682,2.924-1.212l1.846,1.842
								c0.211,0.196,0.485,0.309,0.773,0.318c0.29,0,0.567-0.116,0.772-0.321l2.968-2.979c0.427-0.426,0.427-1.118,0-1.545
								c0,0,0,0,0,0L98.38,307.604z M96.222,308.538l1.688,1.682l-1.426,1.43l-1.688-1.688c-0.372-0.372-0.956-0.426-1.39-0.129
								c-1.134,0.774-2.415,1.305-3.764,1.561c-0.515,0.099-0.887,0.55-0.886,1.074v2.383h-2.019v-2.388
								c-0.001-0.524-0.374-0.974-0.889-1.071c-1.351-0.252-2.636-0.78-3.773-1.551c-0.435-0.296-1.02-0.24-1.39,0.134l-1.682,1.688
								l-1.43-1.426l1.688-1.688c0.372-0.372,0.426-0.956,0.129-1.39c-0.774-1.134-1.305-2.415-1.561-3.764
								c-0.099-0.514-0.549-0.886-1.072-0.886l0,0h-2.383v-2.019l2.388,0.015c0.524-0.001,0.974-0.374,1.071-0.889
								c0.252-1.351,0.78-2.636,1.551-3.773c0.292-0.436,0.233-1.017-0.14-1.385l-1.688-1.682l1.426-1.43l1.688,1.688
								c0.372,0.372,0.956,0.426,1.39,0.129c1.134-0.774,2.415-1.305,3.764-1.561c0.515-0.099,0.888-0.55,0.887-1.074v-2.383h2.019
								v2.388c0.001,0.524,0.374,0.974,0.889,1.071c1.351,0.252,2.636,0.78,3.773,1.552c0.435,0.296,1.02,0.24,1.39-0.134
								l1.682-1.688l1.43,1.426l-1.688,1.688c-0.372,0.372-0.426,0.956-0.129,1.39c0.774,1.134,1.305,2.415,1.561,3.764
								c0.099,0.515,0.549,0.887,1.072,0.887l0,0h2.383v2.019l-2.386-0.016c-0.524,0.001-0.974,0.374-1.071,0.889
								c-0.252,1.351-0.78,2.636-1.551,3.773c-0.292,0.436-0.233,1.017,0.14,1.385L96.222,308.538z"/>
						</g>
					</g>
				</g>
			</g>
			<path style="fill:#34B3EB;" d="M93.734,300.027c0-3.308-2.691-5.999-5.999-5.999c-3.308,0-5.999,2.691-5.999,5.999
				c0,2.029,1.036,3.925,2.725,5.027v1.89c0,1.806,1.469,3.275,3.275,3.275c1.806,0,3.275-1.469,3.275-3.275v-1.062
				c0,0,0-0.828,0-0.828C92.698,303.952,93.734,302.055,93.734,300.027z M89.853,306.944c0,1.168-0.95,2.118-2.118,2.118
				s-2.118-0.95-2.118-2.118v-0.483h4.236V306.944z M87.727,301.394c-0.444,0-0.805-0.361-0.805-0.805
				c0-0.444,0.361-0.805,0.805-0.805s0.805,0.361,0.805,0.805C88.532,301.033,88.171,301.394,87.727,301.394z M90.143,304.229
				c-0.18,0.103-0.29,0.294-0.29,0.501v0.574h-1.54v-2.83c0.803-0.25,1.388-1.001,1.388-1.886c0-1.089-0.886-1.974-1.974-1.974
				s-1.974,0.886-1.974,1.974c0,0.89,0.593,1.645,1.404,1.89v2.825h-1.54v-0.574c0-0.207-0.111-0.398-0.29-0.501
				c-1.502-0.863-2.434-2.473-2.434-4.203c0-2.67,2.172-4.843,4.843-4.843c2.67,0,4.843,2.172,4.843,4.843
				C92.577,301.756,91.645,303.367,90.143,304.229z"/>
		</g>
	</g>
	<g>
		<path style="fill:#606060;" d="M287.691,198.158c0-2.843,1.703-4.569,4.03-4.569c1.224,0,2.026,0.552,2.53,1.091l-0.6,0.72
			c-0.443-0.468-1.008-0.839-1.907-0.839c-1.763,0-2.914,1.367-2.914,3.562c0,2.219,1.044,3.61,2.927,3.61
			c0.636,0,1.247-0.192,1.595-0.516v-2.303h-1.859v-0.924h2.879v3.694c-0.563,0.588-1.535,1.02-2.723,1.02
			C289.335,202.704,287.691,201.013,287.691,198.158z"/>
		<path style="fill:#606060;" d="M295.875,199.298c0-2.171,1.428-3.431,3.022-3.431c1.596,0,3.022,1.26,3.022,3.431
			c0,2.158-1.427,3.406-3.022,3.406C297.303,202.704,295.875,201.456,295.875,199.298z M300.793,199.298
			c0-1.499-0.768-2.519-1.896-2.519c-1.127,0-1.883,1.02-1.883,2.519s0.756,2.494,1.883,2.494
			C300.025,201.792,300.793,200.797,300.793,199.298z"/>
		<path style="fill:#606060;" d="M304.646,201.876h-0.035l-0.097,0.672h-0.875v-9.547h1.091v2.614l-0.035,1.176
			c0.587-0.516,1.319-0.924,2.038-0.924c1.691,0,2.603,1.319,2.603,3.311c0,2.243-1.331,3.526-2.83,3.526
			C305.906,202.704,305.223,202.404,304.646,201.876z M308.197,199.202c0-1.439-0.48-2.411-1.715-2.411
			c-0.552,0-1.128,0.312-1.752,0.899v3.418c0.576,0.504,1.164,0.684,1.596,0.684C307.405,201.792,308.197,200.82,308.197,199.202z"
			/>
		<path style="fill:#606060;" d="M310.563,199.298c0-2.111,1.428-3.431,2.938-3.431c1.655,0,2.591,1.199,2.591,3.059
			c0,0.24-0.024,0.468-0.048,0.624h-4.39c0.072,1.391,0.924,2.278,2.159,2.278c0.635,0,1.151-0.191,1.631-0.516l0.396,0.72
			c-0.575,0.372-1.271,0.672-2.159,0.672C311.955,202.704,310.563,201.444,310.563,199.298z M315.133,198.77
			c0-1.319-0.6-2.026-1.618-2.026c-0.924,0-1.739,0.743-1.871,2.026H315.133z"/>
		<path style="fill:#606060;" d="M317.703,196.035h0.899l0.096,1.188h0.036c0.456-0.827,1.115-1.355,1.847-1.355
			c0.288,0,0.492,0.036,0.696,0.145l-0.204,0.959c-0.216-0.084-0.372-0.107-0.636-0.107c-0.54,0-1.211,0.384-1.644,1.499v4.186
			h-1.091V196.035z"/>
		<path style="fill:#606060;" d="M322.359,196.035h0.899l0.096,0.936h0.036c0.624-0.611,1.295-1.104,2.183-1.104
			c1.367,0,1.991,0.888,1.991,2.555v4.126h-1.092v-3.981c0-1.224-0.371-1.739-1.235-1.739c-0.671,0-1.127,0.336-1.787,0.995v4.726
			h-1.091V196.035z"/>
		<path style="fill:#606060;" d="M329.283,200.856c0-1.415,1.235-2.122,4.006-2.435c0-0.839-0.275-1.643-1.343-1.643
			c-0.756,0-1.439,0.348-1.955,0.695l-0.432-0.756c0.6-0.384,1.522-0.852,2.566-0.852c1.583,0,2.255,1.067,2.255,2.675v4.006h-0.899
			l-0.097-0.779h-0.035c-0.624,0.516-1.355,0.936-2.159,0.936C330.099,202.704,329.283,202.032,329.283,200.856z M333.289,200.965
			v-1.823c-2.194,0.264-2.938,0.804-2.938,1.644c0,0.743,0.504,1.043,1.151,1.043C332.138,201.828,332.653,201.528,333.289,200.965z
			"/>
		<path style="fill:#606060;" d="M336.459,196.035h0.899l0.096,0.936h0.036c0.624-0.611,1.295-1.104,2.183-1.104
			c1.367,0,1.991,0.888,1.991,2.555v4.126h-1.092v-3.981c0-1.224-0.371-1.739-1.235-1.739c-0.671,0-1.127,0.336-1.787,0.995v4.726
			h-1.091V196.035z"/>
		<path style="fill:#606060;" d="M343.107,201.96l3.43-5.037h-3.058v-0.888h4.438v0.588l-3.431,5.037h3.55v0.888h-4.929V201.96z"/>
		<path style="fill:#606060;" d="M348.759,200.856c0-1.415,1.235-2.122,4.006-2.435c0-0.839-0.275-1.643-1.343-1.643
			c-0.756,0-1.439,0.348-1.955,0.695l-0.432-0.756c0.6-0.384,1.523-0.852,2.566-0.852c1.583,0,2.255,1.067,2.255,2.675v4.006h-0.899
			l-0.096-0.779h-0.036c-0.624,0.516-1.355,0.936-2.159,0.936C349.574,202.704,348.759,202.032,348.759,200.856z M352.765,200.965
			v-1.823c-2.194,0.264-2.938,0.804-2.938,1.644c0,0.743,0.504,1.043,1.151,1.043C351.613,201.828,352.129,201.528,352.765,200.965z
			"/>
		<path style="fill:#606060;" d="M280.239,219.623l0.216-0.876c0.133,0.048,0.324,0.108,0.492,0.108c0.743,0,1.211-0.6,1.476-1.403
			l0.144-0.492l-2.614-6.524h1.139l1.332,3.622c0.191,0.563,0.419,1.235,0.623,1.823h0.061c0.18-0.588,0.371-1.247,0.552-1.823
			l1.163-3.622h1.067l-2.459,7.053c-0.455,1.283-1.127,2.267-2.423,2.267C280.695,219.755,280.443,219.707,280.239,219.623z"/>
		<path style="fill:#606060;" d="M289.84,210.436h0.899l0.096,0.936h0.036c0.624-0.611,1.295-1.104,2.183-1.104
			c1.367,0,1.991,0.888,1.991,2.555v4.126h-1.092v-3.981c0-1.224-0.371-1.739-1.235-1.739c-0.671,0-1.127,0.336-1.787,0.995v4.726
			h-1.091V210.436z"/>
		<path style="fill:#606060;" d="M296.679,213.698c0-2.171,1.428-3.431,3.022-3.431c1.596,0,3.022,1.26,3.022,3.431
			c0,2.158-1.427,3.406-3.022,3.406C298.106,217.105,296.679,215.856,296.679,213.698z M301.597,213.698
			c0-1.499-0.768-2.519-1.896-2.519c-1.127,0-1.883,1.02-1.883,2.519s0.756,2.494,1.883,2.494
			C300.829,216.192,301.597,215.197,301.597,213.698z"/>
		<path style="fill:#606060;" d="M304.443,210.436h0.899l0.096,1.188h0.036c0.456-0.827,1.115-1.355,1.847-1.355
			c0.288,0,0.492,0.036,0.696,0.145l-0.204,0.959c-0.216-0.084-0.372-0.107-0.636-0.107c-0.54,0-1.211,0.384-1.644,1.499v4.186
			h-1.091V210.436z"/>
		<path style="fill:#606060;" d="M309.099,210.436h0.899l0.096,0.947h0.036c0.563-0.623,1.247-1.115,2.027-1.115
			c0.995,0,1.535,0.48,1.799,1.248c0.672-0.732,1.355-1.248,2.146-1.248c1.344,0,1.979,0.888,1.979,2.555v4.126h-1.092v-3.981
			c0-1.224-0.384-1.739-1.211-1.739c-0.504,0-1.032,0.323-1.644,0.995v4.726h-1.092v-3.981c0-1.224-0.384-1.739-1.211-1.739
			c-0.492,0-1.043,0.323-1.644,0.995v4.726h-1.091V210.436z"/>
		<path style="fill:#606060;" d="M319.803,215.257c0-1.415,1.235-2.122,4.006-2.435c0-0.839-0.275-1.643-1.343-1.643
			c-0.756,0-1.439,0.348-1.955,0.695l-0.432-0.756c0.6-0.384,1.522-0.852,2.566-0.852c1.583,0,2.255,1.067,2.255,2.675v4.006h-0.899
			l-0.097-0.779h-0.035c-0.624,0.516-1.355,0.936-2.159,0.936C320.618,217.105,319.803,216.433,319.803,215.257z M323.809,215.365
			v-1.823c-2.194,0.264-2.938,0.804-2.938,1.644c0,0.743,0.504,1.043,1.151,1.043C322.657,216.229,323.173,215.929,323.809,215.365z
			"/>
		<path style="fill:#606060;" d="M326.99,214.934v-3.61h-0.971v-0.827l1.02-0.061l0.132-1.822h0.911v1.822h1.763v0.888h-1.763v3.634
			c0,0.804,0.252,1.26,1.008,1.26c0.228,0,0.527-0.084,0.743-0.168l0.216,0.815c-0.372,0.12-0.804,0.24-1.199,0.24
			C327.458,217.105,326.99,216.24,326.99,214.934z"/>
		<path style="fill:#606060;" d="M331.119,208.385c0-0.443,0.324-0.707,0.756-0.707s0.756,0.264,0.756,0.707
			c0,0.408-0.324,0.708-0.756,0.708S331.119,208.793,331.119,208.385z M331.323,210.436h1.091v6.513h-1.091V210.436z"/>
		<path style="fill:#606060;" d="M333.676,210.436h1.139l1.224,3.706c0.204,0.636,0.408,1.308,0.611,1.919h0.049
			c0.191-0.611,0.407-1.283,0.6-1.919l1.235-3.706h1.079l-2.314,6.513h-1.271L333.676,210.436z"/>
		<path style="fill:#606060;" d="M340.671,208.385c0-0.443,0.324-0.707,0.756-0.707s0.756,0.264,0.756,0.707
			c0,0.408-0.324,0.708-0.756,0.708S340.671,208.793,340.671,208.385z M340.875,210.436h1.091v6.513h-1.091V210.436z"/>
		<path style="fill:#606060;" d="M343.707,213.698c0-2.111,1.331-3.431,2.818-3.431c0.768,0,1.26,0.288,1.835,0.768l-0.06-1.127
			v-2.507h1.091v9.547h-0.888l-0.107-0.768h-0.024c-0.516,0.504-1.199,0.924-1.979,0.924
			C344.763,217.105,343.707,215.869,343.707,213.698z M348.301,215.293v-3.418c-0.552-0.492-1.044-0.684-1.584-0.684
			c-1.055,0-1.883,1.008-1.883,2.494c0,1.571,0.648,2.507,1.8,2.507C347.233,216.192,347.761,215.893,348.301,215.293z"/>
		<path style="fill:#606060;" d="M351.206,215.257c0-1.415,1.235-2.122,4.006-2.435c0-0.839-0.275-1.643-1.343-1.643
			c-0.756,0-1.439,0.348-1.955,0.695l-0.432-0.756c0.6-0.384,1.523-0.852,2.566-0.852c1.583,0,2.255,1.067,2.255,2.675v4.006h-0.899
			l-0.096-0.779h-0.036c-0.624,0.516-1.355,0.936-2.159,0.936C352.021,217.105,351.206,216.433,351.206,215.257z M355.212,215.365
			v-1.823c-2.194,0.264-2.938,0.804-2.938,1.644c0,0.743,0.504,1.043,1.151,1.043C354.06,216.229,354.576,215.929,355.212,215.365z"
			/>
		<path style="fill:#606060;" d="M357.915,213.698c0-2.111,1.331-3.431,2.818-3.431c0.768,0,1.26,0.288,1.835,0.768l-0.06-1.127
			v-2.507h1.091v9.547h-0.888l-0.107-0.768h-0.024c-0.516,0.504-1.199,0.924-1.979,0.924
			C358.971,217.105,357.915,215.869,357.915,213.698z M362.509,215.293v-3.418c-0.552-0.492-1.044-0.684-1.583-0.684
			c-1.056,0-1.884,1.008-1.884,2.494c0,1.571,0.648,2.507,1.8,2.507C361.441,216.192,361.969,215.893,362.509,215.293z"/>
	</g>
	<g>
		<g>
			<g>
				<circle style="fill:#F2F2F2;" cx="52.786" cy="155.648" r="39.385"/>
				<circle style="fill:none;stroke:#FFFFFF;stroke-width:9;stroke-miterlimit:10;" cx="52.786" cy="155.648" r="39.385"/>
			</g>
		</g>
		<g>
			
				<rect x="38.556" y="143.418" style="fill:none;stroke:#606060;stroke-width:2;stroke-linecap:round;stroke-linejoin:round;stroke-miterlimit:10;" width="28.461" height="28.461"/>
			<g>
				<g>
					<path style="fill:#34B3EB;stroke:#34B3EB;stroke-width:0.5;stroke-miterlimit:10;" d="M53.631,154.84l2.408-2.408
						c0.168-0.168,0.168-0.437,0-0.605c-0.168-0.168-0.437-0.168-0.605,0l-1.678,1.678v-6.413c0-0.238-0.192-0.43-0.43-0.43
						c-0.238,0-0.43,0.192-0.43,0.43v6.409l-1.678-1.678c-0.168-0.168-0.437-0.168-0.605,0c-0.168,0.168-0.168,0.437,0,0.605
						l2.408,2.408c0.084,0.084,0.192,0.126,0.304,0.126C53.439,154.962,53.547,154.923,53.631,154.84z"/>
				</g>
			</g>
			<g>
				<path style="fill:#606060;" d="M49.165,152.173l-0.32-3.39c-0.022-0.236-0.23-0.408-0.466-0.385
					c-0.236,0.022-0.408,0.23-0.385,0.466l0.223,2.362l-4.94-4.089c-0.183-0.152-0.454-0.126-0.605,0.057
					c-0.152,0.183-0.126,0.454,0.057,0.605l4.938,4.087l-2.362,0.223c-0.236,0.022-0.408,0.23-0.385,0.466
					c0.022,0.236,0.23,0.408,0.466,0.385l3.39-0.32c0.118-0.011,0.219-0.068,0.291-0.154
					C49.137,152.399,49.176,152.291,49.165,152.173z"/>
			</g>
			<g>
				<path style="fill:#606060;" d="M57.153,161.149l0.32,3.39c0.022,0.236,0.23,0.408,0.466,0.385s0.408-0.23,0.385-0.466
					l-0.223-2.362l4.94,4.089c0.183,0.152,0.454,0.126,0.605-0.057c0.152-0.183,0.126-0.454-0.057-0.605l-4.938-4.087l2.362-0.223
					c0.236-0.022,0.408-0.23,0.385-0.466c-0.022-0.236-0.23-0.408-0.466-0.385l-3.39,0.32c-0.118,0.011-0.219,0.068-0.291,0.154
					C57.181,160.923,57.142,161.031,57.153,161.149z"/>
			</g>
			<g>
				<path style="fill:#606060;" d="M49.292,160.755l-3.399,0.209c-0.237,0.015-0.415,0.216-0.4,0.453s0.216,0.415,0.453,0.4
					l2.368-0.146l-4.247,4.805c-0.157,0.178-0.141,0.449,0.037,0.607c0.178,0.157,0.449,0.141,0.607-0.037l4.245-4.802l0.146,2.368
					c0.015,0.237,0.216,0.415,0.453,0.4s0.415-0.216,0.4-0.453l-0.209-3.399c-0.007-0.118-0.061-0.222-0.144-0.296
					S49.411,160.748,49.292,160.755z"/>
			</g>
			<g>
				<path style="fill:#606060;" d="M57.887,152.728l3.394-0.274c0.236-0.019,0.411-0.224,0.392-0.46
					c-0.019-0.236-0.224-0.411-0.46-0.392l-2.365,0.191l4.156-4.884c0.154-0.181,0.132-0.452-0.049-0.606
					c-0.181-0.154-0.452-0.132-0.606,0.049l-4.153,4.882l-0.191-2.365c-0.019-0.236-0.224-0.411-0.46-0.392
					c-0.236,0.019-0.411,0.224-0.392,0.46l0.274,3.394c0.01,0.118,0.065,0.22,0.15,0.293
					C57.662,152.697,57.769,152.738,57.887,152.728z"/>
			</g>
			<g>
				<g>
					<path style="fill:#34B3EB;stroke:#34B3EB;stroke-width:0.5;stroke-miterlimit:10;" d="M53.023,158.719l-2.408,2.408
						c-0.168,0.168-0.168,0.437,0,0.605s0.437,0.168,0.605,0l1.678-1.678v6.413c0,0.238,0.192,0.43,0.43,0.43
						c0.238,0,0.43-0.192,0.43-0.43v-6.409l1.678,1.678c0.168,0.168,0.437,0.168,0.605,0s0.168-0.437,0-0.605l-2.408-2.408
						c-0.084-0.084-0.192-0.126-0.304-0.126C53.215,158.596,53.107,158.635,53.023,158.719z"/>
				</g>
			</g>
			<g>
				<g>
					<path style="fill:#34B3EB;stroke:#34B3EB;stroke-width:0.5;stroke-miterlimit:10;" d="M54.768,157.056l2.408,2.408
						c0.168,0.168,0.437,0.168,0.605,0s0.168-0.437,0-0.605l-1.678-1.678h6.413c0.238,0,0.43-0.192,0.43-0.43
						c0-0.238-0.192-0.43-0.43-0.43h-6.409l1.678-1.678c0.168-0.168,0.168-0.437,0-0.605c-0.168-0.168-0.437-0.168-0.605,0
						l-2.408,2.408c-0.084,0.084-0.126,0.192-0.126,0.304S54.685,156.972,54.768,157.056z"/>
				</g>
			</g>
			<g>
				<g>
					<path style="fill:#34B3EB;stroke:#34B3EB;stroke-width:0.5;stroke-miterlimit:10;" d="M52.136,156.495l-2.408-2.408
						c-0.168-0.168-0.437-0.168-0.605,0c-0.168,0.168-0.168,0.437,0,0.605l1.678,1.678h-6.413c-0.238,0-0.43,0.192-0.43,0.43
						c0,0.238,0.192,0.43,0.43,0.43h6.409l-1.678,1.678c-0.168,0.168-0.168,0.437,0,0.605s0.437,0.168,0.605,0l2.408-2.408
						c0.084-0.084,0.126-0.192,0.126-0.304S52.22,156.579,52.136,156.495z"/>
				</g>
			</g>
		</g>
	</g>
	<g>
		<path style="fill:#606060;" d="M26.011,193.757h1.115v8.791h-1.115V193.757z"/>
		<path style="fill:#606060;" d="M29.431,196.035h0.899l0.096,0.947h0.036c0.563-0.623,1.247-1.115,2.027-1.115
			c0.995,0,1.535,0.48,1.799,1.248c0.672-0.732,1.355-1.248,2.146-1.248c1.344,0,1.979,0.888,1.979,2.555v4.126h-1.092v-3.981
			c0-1.224-0.384-1.739-1.211-1.739c-0.504,0-1.032,0.323-1.644,0.995v4.726h-1.092v-3.981c0-1.224-0.384-1.739-1.211-1.739
			c-0.492,0-1.043,0.323-1.644,0.995v4.726h-1.091V196.035z"/>
		<path style="fill:#606060;" d="M40.543,196.035h0.899l0.096,0.744h0.036c0.588-0.48,1.319-0.912,2.075-0.912
			c1.679,0,2.59,1.319,2.59,3.322c0,2.231-1.331,3.515-2.83,3.515c-0.588,0-1.211-0.276-1.799-0.756l0.023,1.14v2.206h-1.091
			V196.035z M45.101,199.202c0-1.439-0.48-2.411-1.715-2.411c-0.552,0-1.116,0.312-1.752,0.899v3.418
			c0.588,0.504,1.164,0.684,1.596,0.684C44.309,201.792,45.101,200.82,45.101,199.202z"/>
		<path style="fill:#606060;" d="M47.383,200.856c0-1.415,1.235-2.122,4.006-2.435c0-0.839-0.275-1.643-1.343-1.643
			c-0.756,0-1.439,0.348-1.955,0.695l-0.432-0.756c0.6-0.384,1.523-0.852,2.566-0.852c1.583,0,2.255,1.067,2.255,2.675v4.006h-0.899
			l-0.096-0.779h-0.036c-0.624,0.516-1.355,0.936-2.159,0.936C48.198,202.704,47.383,202.032,47.383,200.856z M51.389,200.965
			v-1.823c-2.194,0.264-2.938,0.804-2.938,1.644c0,0.743,0.504,1.043,1.151,1.043C50.237,201.828,50.753,201.528,51.389,200.965z"/>
		<path style="fill:#606060;" d="M54.066,199.298c0-2.171,1.476-3.431,3.143-3.431c0.852,0,1.439,0.36,1.907,0.768l-0.563,0.732
			c-0.384-0.349-0.78-0.588-1.308-0.588c-1.176,0-2.039,1.02-2.039,2.519s0.815,2.494,2.015,2.494c0.6,0,1.128-0.275,1.535-0.647
			l0.468,0.731c-0.575,0.528-1.319,0.828-2.099,0.828C55.398,202.704,54.066,201.456,54.066,199.298z"/>
		<path style="fill:#606060;" d="M60.727,200.533v-3.61h-0.971v-0.827l1.019-0.061l0.133-1.822h0.911v1.822h1.763v0.888h-1.763
			v3.634c0,0.804,0.252,1.26,1.008,1.26c0.228,0,0.527-0.084,0.743-0.168l0.216,0.815c-0.372,0.12-0.804,0.24-1.199,0.24
			C61.194,202.704,60.727,201.84,60.727,200.533z"/>
		<path style="fill:#606060;" d="M64.387,199.298c0-2.171,1.428-3.431,3.022-3.431c1.596,0,3.022,1.26,3.022,3.431
			c0,2.158-1.427,3.406-3.022,3.406C65.814,202.704,64.387,201.456,64.387,199.298z M69.305,199.298
			c0-1.499-0.768-2.519-1.896-2.519c-1.127,0-1.883,1.02-1.883,2.519s0.756,2.494,1.883,2.494
			C68.537,201.792,69.305,200.797,69.305,199.298z"/>
	</g>
	<g>
		<path style="fill:#606060;" d="M267.144,341.979h2.207c2.698,0,4.149,1.571,4.149,4.365c0,2.782-1.451,4.426-4.102,4.426h-2.255
			V341.979z M269.256,349.858c2.074,0,3.094-1.296,3.094-3.515c0-2.23-1.02-3.466-3.094-3.466h-0.996v6.98H269.256z"/>
		<path style="fill:#606060;" d="M274.885,349.078c0-1.415,1.235-2.122,4.006-2.435c0-0.839-0.275-1.643-1.343-1.643
			c-0.756,0-1.439,0.348-1.955,0.695l-0.432-0.756c0.6-0.384,1.522-0.852,2.566-0.852c1.583,0,2.255,1.067,2.255,2.675v4.006h-0.899
			l-0.097-0.779h-0.035c-0.624,0.516-1.355,0.936-2.159,0.936C275.7,350.926,274.885,350.254,274.885,349.078z M278.891,349.187
			v-1.823c-2.194,0.264-2.938,0.804-2.938,1.644c0,0.743,0.504,1.043,1.151,1.043C277.739,350.05,278.255,349.75,278.891,349.187z"
			/>
		<path style="fill:#606060;" d="M282.072,348.755v-3.61h-0.971v-0.827l1.02-0.061l0.132-1.822h0.911v1.822h1.763v0.888h-1.763
			v3.634c0,0.804,0.252,1.26,1.008,1.26c0.228,0,0.527-0.084,0.743-0.168l0.216,0.815c-0.372,0.12-0.804,0.24-1.199,0.24
			C282.54,350.926,282.072,350.062,282.072,348.755z"/>
		<path style="fill:#606060;" d="M285.732,347.52c0-2.171,1.428-3.431,3.022-3.431c1.596,0,3.022,1.26,3.022,3.431
			c0,2.158-1.427,3.406-3.022,3.406C287.16,350.926,285.732,349.678,285.732,347.52z M290.65,347.52
			c0-1.499-0.768-2.519-1.896-2.519c-1.127,0-1.883,1.02-1.883,2.519s0.756,2.494,1.883,2.494
			C289.883,350.014,290.65,349.019,290.65,347.52z"/>
		<path style="fill:#606060;" d="M292.765,350.026l0.539-0.72c0.564,0.455,1.151,0.768,1.932,0.768c0.863,0,1.283-0.456,1.283-1.02
			c0-0.66-0.768-0.96-1.487-1.235c-0.912-0.336-1.943-0.779-1.943-1.883c0-1.032,0.828-1.848,2.243-1.848
			c0.804,0,1.511,0.336,2.026,0.732l-0.527,0.707c-0.456-0.336-0.911-0.575-1.499-0.575c-0.815,0-1.188,0.432-1.188,0.936
			c0,0.623,0.708,0.851,1.439,1.127c0.947,0.359,1.991,0.743,1.991,1.979c0,1.056-0.84,1.932-2.375,1.932
			C294.275,350.926,293.388,350.542,292.765,350.026z"/>
	</g>
	<g>
		<path style="fill:#606060;" d="M59.317,342.914h-2.662v-0.936h6.44v0.936h-2.663v7.855h-1.115V342.914z"/>
		<path style="fill:#606060;" d="M63.194,347.52c0-2.111,1.428-3.43,2.938-3.43c1.655,0,2.591,1.199,2.591,3.059
			c0,0.24-0.024,0.467-0.048,0.623h-4.39c0.072,1.391,0.924,2.279,2.159,2.279c0.635,0,1.151-0.191,1.631-0.516l0.396,0.719
			c-0.575,0.373-1.271,0.672-2.159,0.672C64.585,350.926,63.194,349.666,63.194,347.52z M67.763,346.992
			c0-1.32-0.6-2.027-1.618-2.027c-0.924,0-1.739,0.744-1.871,2.027H67.763z"/>
		<path style="fill:#606060;" d="M69.842,347.52c0-2.17,1.476-3.43,3.143-3.43c0.852,0,1.439,0.359,1.907,0.768l-0.563,0.73
			c-0.384-0.348-0.78-0.586-1.308-0.586c-1.176,0-2.039,1.02-2.039,2.518c0,1.5,0.815,2.494,2.015,2.494
			c0.6,0,1.128-0.275,1.535-0.646l0.468,0.73c-0.575,0.529-1.319,0.828-2.099,0.828C71.174,350.926,69.842,349.678,69.842,347.52z"
			/>
		<path style="fill:#606060;" d="M76.442,344.258h0.899l0.096,0.936h0.036c0.624-0.611,1.295-1.104,2.183-1.104
			c1.367,0,1.991,0.887,1.991,2.555v4.125h-1.092v-3.98c0-1.225-0.371-1.74-1.235-1.74c-0.671,0-1.127,0.336-1.787,0.996v4.725
			h-1.091V344.258z"/>
		<path style="fill:#606060;" d="M83.282,347.52c0-2.17,1.428-3.43,3.022-3.43c1.596,0,3.022,1.26,3.022,3.43
			c0,2.158-1.427,3.406-3.022,3.406C84.709,350.926,83.282,349.678,83.282,347.52z M88.2,347.52c0-1.498-0.768-2.518-1.896-2.518
			c-1.127,0-1.883,1.02-1.883,2.518c0,1.5,0.756,2.494,1.883,2.494C87.432,350.014,88.2,349.02,88.2,347.52z"/>
		<path style="fill:#606060;" d="M91.045,349.475v-8.252h1.091v8.324c0,0.336,0.145,0.467,0.312,0.467c0.06,0,0.107,0,0.228-0.023
			l0.156,0.84c-0.156,0.061-0.348,0.096-0.636,0.096C91.381,350.926,91.045,350.398,91.045,349.475z"/>
		<path style="fill:#606060;" d="M93.973,347.52c0-2.17,1.428-3.43,3.022-3.43c1.596,0,3.022,1.26,3.022,3.43
			c0,2.158-1.427,3.406-3.022,3.406C95.401,350.926,93.973,349.678,93.973,347.52z M98.891,347.52c0-1.498-0.768-2.518-1.896-2.518
			c-1.127,0-1.883,1.02-1.883,2.518c0,1.5,0.756,2.494,1.883,2.494C98.123,350.014,98.891,349.02,98.891,347.52z"/>
		<path style="fill:#606060;" d="M101.234,352.018c0-0.553,0.359-1.08,0.972-1.475v-0.049c-0.348-0.203-0.6-0.551-0.6-1.068
			c0-0.539,0.396-0.971,0.731-1.211v-0.047c-0.432-0.348-0.852-0.973-0.852-1.752c0-1.428,1.127-2.326,2.446-2.326
			c0.36,0,0.684,0.084,0.912,0.168h2.267v0.84h-1.331c0.312,0.299,0.527,0.779,0.527,1.342c0,1.393-1.056,2.268-2.375,2.268
			c-0.323,0-0.684-0.084-0.971-0.229c-0.24,0.205-0.42,0.42-0.42,0.781c0,0.418,0.264,0.707,1.139,0.707h1.271
			c1.512,0,2.267,0.479,2.267,1.547c0,1.211-1.271,2.254-3.286,2.254C102.337,353.768,101.234,353.145,101.234,352.018z
			 M106.164,351.682c0-0.6-0.468-0.803-1.332-0.803h-1.127c-0.24,0-0.552-0.037-0.84-0.109c-0.468,0.336-0.671,0.721-0.671,1.104
			c0,0.695,0.707,1.152,1.895,1.152C105.335,353.025,106.164,352.365,106.164,351.682z M105.312,346.416
			c0-0.947-0.612-1.523-1.38-1.523s-1.391,0.564-1.391,1.523c0,0.947,0.636,1.547,1.391,1.547
			C104.676,347.963,105.312,347.363,105.312,346.416z"/>
		<path style="fill:#606060;" d="M108.29,342.543l1.896-2.23l0.768,0.73l-2.1,2.039L108.29,342.543z M108.494,344.258h1.091v6.512
			h-1.091V344.258z"/>
		<path style="fill:#606060;" d="M111.385,349.078c0-1.414,1.235-2.121,4.006-2.434c0-0.84-0.275-1.643-1.343-1.643
			c-0.756,0-1.439,0.348-1.955,0.695l-0.432-0.756c0.6-0.385,1.523-0.852,2.566-0.852c1.583,0,2.255,1.066,2.255,2.674v4.006h-0.899
			l-0.096-0.779h-0.036c-0.624,0.516-1.355,0.936-2.159,0.936C112.201,350.926,111.385,350.254,111.385,349.078z M115.391,349.188
			v-1.824c-2.194,0.264-2.938,0.805-2.938,1.645c0,0.742,0.504,1.043,1.151,1.043C114.24,350.051,114.755,349.75,115.391,349.188z"
			/>
	</g>
	<g>
		<path style="fill:#606060;" d="M172.025,101.815v-5.157h1.115v5.193c0,2.122,0.9,2.782,2.039,2.782
			c1.176,0,2.099-0.66,2.099-2.782v-5.193h1.067v5.157c0,2.83-1.367,3.79-3.166,3.79
			C173.392,105.605,172.025,104.646,172.025,101.815z"/>
		<path style="fill:#606060;" d="M179.837,104.706l0.539-0.72c0.564,0.455,1.151,0.768,1.932,0.768c0.863,0,1.283-0.456,1.283-1.02
			c0-0.66-0.768-0.96-1.487-1.235c-0.911-0.336-1.943-0.779-1.943-1.883c0-1.032,0.828-1.848,2.243-1.848
			c0.804,0,1.511,0.336,2.026,0.732l-0.527,0.707c-0.456-0.336-0.911-0.575-1.499-0.575c-0.815,0-1.188,0.432-1.188,0.936
			c0,0.623,0.708,0.851,1.439,1.127c0.947,0.359,1.99,0.743,1.99,1.979c0,1.056-0.839,1.932-2.374,1.932
			C181.348,105.605,180.46,105.222,179.837,104.706z"/>
		<path style="fill:#606060;" d="M185.693,102.199c0-2.171,1.428-3.431,3.022-3.431c1.596,0,3.023,1.26,3.023,3.431
			c0,2.158-1.427,3.406-3.023,3.406C187.121,105.605,185.693,104.357,185.693,102.199z M190.611,102.199
			c0-1.499-0.768-2.519-1.896-2.519c-1.127,0-1.883,1.02-1.883,2.519s0.756,2.494,1.883,2.494
			C189.843,104.693,190.611,103.698,190.611,102.199z"/>
		<path style="fill:#606060;" d="M195.485,108.124l0.216-0.876c0.133,0.048,0.324,0.108,0.492,0.108c0.743,0,1.211-0.6,1.476-1.403
			l0.144-0.492l-2.614-6.524h1.139l1.332,3.622c0.191,0.563,0.419,1.235,0.623,1.823h0.061c0.18-0.588,0.371-1.247,0.552-1.823
			l1.163-3.622h1.067l-2.459,7.053c-0.455,1.283-1.127,2.267-2.423,2.267C195.941,108.256,195.689,108.208,195.485,108.124z"/>
		<path style="fill:#606060;" d="M153.887,113.337h0.899l0.096,0.936h0.036c0.624-0.611,1.295-1.104,2.183-1.104
			c1.367,0,1.991,0.888,1.991,2.555v4.126H158v-3.981c0-1.224-0.371-1.739-1.235-1.739c-0.671,0-1.127,0.336-1.787,0.995v4.726
			h-1.091V113.337z"/>
		<path style="fill:#606060;" d="M160.727,116.6c0-2.111,1.428-3.431,2.938-3.431c1.655,0,2.591,1.199,2.591,3.059
			c0,0.24-0.024,0.468-0.048,0.624h-4.39c0.072,1.391,0.924,2.278,2.159,2.278c0.635,0,1.151-0.191,1.631-0.516l0.396,0.72
			c-0.575,0.372-1.271,0.672-2.159,0.672C162.119,120.006,160.727,118.746,160.727,116.6z M165.296,116.071
			c0-1.319-0.6-2.026-1.618-2.026c-0.924,0-1.739,0.743-1.871,2.026H165.296z"/>
		<path style="fill:#606060;" d="M167.374,116.6c0-2.171,1.476-3.431,3.143-3.431c0.852,0,1.439,0.36,1.907,0.768l-0.563,0.732
			c-0.384-0.349-0.78-0.588-1.308-0.588c-1.176,0-2.039,1.02-2.039,2.519s0.815,2.494,2.015,2.494c0.6,0,1.128-0.275,1.535-0.647
			l0.468,0.731c-0.575,0.528-1.319,0.828-2.099,0.828C168.706,120.006,167.374,118.758,167.374,116.6z"/>
		<path style="fill:#606060;" d="M173.195,116.6c0-2.111,1.428-3.431,2.938-3.431c1.655,0,2.591,1.199,2.591,3.059
			c0,0.24-0.024,0.468-0.048,0.624h-4.39c0.072,1.391,0.924,2.278,2.159,2.278c0.635,0,1.151-0.191,1.631-0.516l0.396,0.72
			c-0.575,0.372-1.271,0.672-2.159,0.672C174.586,120.006,173.195,118.746,173.195,116.6z M177.765,116.071
			c0-1.319-0.601-2.026-1.619-2.026c-0.924,0-1.739,0.743-1.871,2.026H177.765z"/>
		<path style="fill:#606060;" d="M179.603,119.106l0.539-0.72c0.564,0.455,1.151,0.768,1.932,0.768c0.863,0,1.283-0.456,1.283-1.02
			c0-0.66-0.768-0.96-1.487-1.235c-0.911-0.336-1.943-0.779-1.943-1.883c0-1.032,0.828-1.848,2.243-1.848
			c0.804,0,1.511,0.336,2.026,0.732l-0.527,0.707c-0.456-0.336-0.911-0.575-1.499-0.575c-0.815,0-1.188,0.432-1.188,0.936
			c0,0.623,0.708,0.851,1.439,1.127c0.947,0.359,1.99,0.743,1.99,1.979c0,1.056-0.839,1.932-2.374,1.932
			C181.114,120.006,180.226,119.622,179.603,119.106z"/>
		<path style="fill:#606060;" d="M185.747,111.286c0-0.443,0.324-0.707,0.756-0.707s0.756,0.264,0.756,0.707
			c0,0.408-0.324,0.708-0.756,0.708S185.747,111.694,185.747,111.286z M185.951,113.337h1.091v6.513h-1.091V113.337z"/>
		<path style="fill:#606060;" d="M188.783,116.6c0-2.111,1.331-3.431,2.819-3.431c0.768,0,1.26,0.288,1.835,0.768l-0.06-1.127
			v-2.507h1.091v9.547h-0.888l-0.107-0.768h-0.024c-0.516,0.504-1.199,0.924-1.979,0.924
			C189.838,120.006,188.783,118.771,188.783,116.6z M193.377,118.194v-3.418c-0.552-0.492-1.044-0.684-1.584-0.684
			c-1.055,0-1.883,1.008-1.883,2.494c0,1.571,0.648,2.507,1.8,2.507C192.31,119.094,192.837,118.794,193.377,118.194z"/>
		<path style="fill:#606060;" d="M196.283,118.158c0-1.415,1.235-2.122,4.006-2.435c0-0.839-0.275-1.643-1.343-1.643
			c-0.756,0-1.439,0.348-1.955,0.695l-0.432-0.756c0.6-0.384,1.522-0.852,2.566-0.852c1.583,0,2.255,1.067,2.255,2.675v4.006h-0.899
			l-0.097-0.779h-0.035c-0.624,0.516-1.355,0.936-2.159,0.936C197.099,120.006,196.283,119.334,196.283,118.158z M200.289,118.267
			v-1.823c-2.194,0.264-2.938,0.804-2.938,1.644c0,0.743,0.504,1.043,1.151,1.043C199.138,119.13,199.653,118.83,200.289,118.267z"
			/>
		<path style="fill:#606060;" d="M202.991,116.6c0-2.111,1.331-3.431,2.818-3.431c0.768,0,1.26,0.288,1.835,0.768l-0.06-1.127
			v-2.507h1.091v9.547h-0.888l-0.107-0.768h-0.024c-0.516,0.504-1.199,0.924-1.979,0.924
			C204.047,120.006,202.991,118.771,202.991,116.6z M207.585,118.194v-3.418c-0.552-0.492-1.044-0.684-1.583-0.684
			c-1.056,0-1.884,1.008-1.884,2.494c0,1.571,0.648,2.507,1.8,2.507C206.518,119.094,207.045,118.794,207.585,118.194z"/>
		<path style="fill:#606060;" d="M210.406,116.6c0-2.111,1.428-3.431,2.938-3.431c1.655,0,2.591,1.199,2.591,3.059
			c0,0.24-0.024,0.468-0.048,0.624h-4.39c0.072,1.391,0.924,2.278,2.159,2.278c0.635,0,1.151-0.191,1.631-0.516l0.396,0.72
			c-0.575,0.372-1.271,0.672-2.159,0.672C211.798,120.006,210.406,118.746,210.406,116.6z M214.977,116.071
			c0-1.319-0.601-2.026-1.619-2.026c-0.924,0-1.739,0.743-1.871,2.026H214.977z"/>
		<path style="fill:#606060;" d="M216.815,119.106l0.539-0.72c0.564,0.455,1.151,0.768,1.932,0.768c0.863,0,1.283-0.456,1.283-1.02
			c0-0.66-0.768-0.96-1.487-1.235c-0.912-0.336-1.943-0.779-1.943-1.883c0-1.032,0.828-1.848,2.243-1.848
			c0.804,0,1.511,0.336,2.026,0.732l-0.527,0.707c-0.456-0.336-0.911-0.575-1.499-0.575c-0.815,0-1.188,0.432-1.188,0.936
			c0,0.623,0.708,0.851,1.439,1.127c0.947,0.359,1.991,0.743,1.991,1.979c0,1.056-0.84,1.932-2.375,1.932
			C218.326,120.006,217.438,119.622,216.815,119.106z"/>
	</g>
</g>
<g>
</g>
<g>
</g>
<g>
</g>
<g>
</g>
<g>
</g>
<g>
</g>
<g>
</g>
<g>
</g>
<g>
</g>
<g>
</g>
<g>
</g>
<g>
</g>
<g>
</g>
<g>
</g>
<g>
</g>
</svg>
