<svg id="Capa_1" data-name="Capa 1" xmlns="http://www.w3.org/2000/svg" viewBox="0 0 261 95.67">
    <defs>
        <style>
            .cls-1{font-size:7.28px;fill:#66b65e;font-family:OpenSans-SemiBold, Open Sans;font-weight:700;}.cls-2{font-size:4.94px;fill:#333;font-family:OpenSans-Regular, Open Sans;}.cls-10,.cls-11,.cls-12,.cls-3,.cls-4,.cls-5,.cls-6,.cls-7,.cls-8,.cls-9{fill:none;stroke-width:2px;}.cls-10,.cls-11,.cls-3,.cls-4,.cls-5,.cls-6,.cls-7,.cls-8,.cls-9{stroke:#7bc082;stroke-miterlimit:10;}.cls-4{stroke-dasharray:2.95 2.95;}.cls-5{stroke-dasharray:3.21 3.21;}.cls-6{stroke-dasharray:2.75 2.75;}.cls-7{stroke-dasharray:3.16 3.16;}.cls-8{stroke-dasharray:2.9 2.9;}.cls-9{stroke-dasharray:3.11 3.11;}.cls-10{stroke-dasharray:3.15 3.15;}.cls-11{stroke-dasharray:3.05 3.05;}.cls-12{stroke:#82c38d;stroke-linejoin:round;}.cls-13{fill:#0b5f55;}
        </style>
    </defs>
    <title>Mesa de trabajo 17
    </title><text class="cls-1" transform="translate(0.75 6.1)">
    Cronograma 2018</text>
    <text class="cls-2" transform="translate(13.7 24.81)">Sept-2018
        <tspan x="-6.94" y="6.05">Datatón-Mecate</tspan></text>
    <polyline class="cls-3" points="49.68 37.43 49.68 38.93 48.18 38.93"/><line class="cls-4" x1="45.24" y1="38.93" x2="5.47" y2="38.93"/><polyline class="cls-3" points="3.99 38.93 2.49 38.93 2.49 37.43"/><line class="cls-5" x1="2.49" y1="34.22" x2="2.49" y2="16.56"/><polyline class="cls-3" points="2.49 14.96 2.49 13.46 3.99 13.46"/><line class="cls-4" x1="6.94" y1="13.45" x2="46.71" y2="13.45"/><polyline class="cls-3" points="48.18 13.46 49.68 13.46 49.68 14.96"/><line class="cls-5" x1="49.68" y1="18.17" x2="49.68" y2="35.83"/><text class="cls-2" transform="translate(46.54 74.56)">Sept-2018<tspan x="-1.08" y="6.05">Piloto CIDE </tspan><tspan x="4.05" y="12.1">(inicio)</tspan></text><polyline class="cls-3" points="82.24 91.7 82.24 93.2 80.74 93.2"/><line class="cls-4" x1="77.79" y1="93.2" x2="38.02" y2="93.2"/><polyline class="cls-3" points="36.55 93.2 35.05 93.2 35.05 91.7"/><line class="cls-6" x1="35.05" y1="88.96" x2="35.05" y2="68.36"/><polyline class="cls-3" points="35.05 66.99 35.05 65.49 36.55 65.49"/><line class="cls-4" x1="39.5" y1="65.49" x2="79.27" y2="65.49"/><polyline class="cls-3" points="80.74 65.49 82.24 65.49 82.24 66.99"/><line class="cls-6" x1="82.24" y1="69.74" x2="82.24" y2="90.33"/><text class="cls-2" transform="translate(115.41 74.56)">Oct-Nov 2018<tspan x="7.88" y="6.05">Pilotos </tspan><tspan x="-1" y="12.1">Subnacionales</tspan></text><polyline class="cls-3" points="154.67 91.7 154.67 93.2 153.17 93.2"/><line class="cls-4" x1="150.22" y1="93.2" x2="110.45" y2="93.2"/><polyline class="cls-3" points="108.98 93.2 107.48 93.2 107.48 91.7"/><line class="cls-6" x1="107.48" y1="88.96" x2="107.48" y2="68.36"/><polyline class="cls-3" points="107.48 66.99 107.48 65.49 108.98 65.49"/><line class="cls-4" x1="111.93" y1="65.49" x2="151.7" y2="65.49"/><polyline class="cls-3" points="153.17 65.49 154.67 65.49 154.67 66.99"/><line class="cls-6" x1="154.67" y1="69.74" x2="154.67" y2="90.33"/><text class="cls-2" transform="translate(189.82 74.56)">Dic - 2018<tspan x="-2.76" y="6.05">Piloto CIDE - </tspan><tspan x="0.2" y="12.1">concluido</tspan></text><polyline class="cls-3" points="225.27 91.7 225.27 93.2 223.77 93.2"/><line class="cls-4" x1="220.83" y1="93.2" x2="181.06" y2="93.2"/><polyline class="cls-3" points="179.58 93.2 178.08 93.2 178.08 91.7"/><line class="cls-6" x1="178.08" y1="88.96" x2="178.08" y2="68.36"/><polyline class="cls-3" points="178.08 66.99 178.08 65.49 179.58 65.49"/><line class="cls-4" x1="182.53" y1="65.49" x2="222.3" y2="65.49"/><polyline class="cls-3" points="223.77 65.49 225.27 65.49 225.27 66.99"/><line class="cls-6" x1="225.27" y1="69.74" x2="225.27" y2="90.33"/><text class="cls-2" transform="translate(70.54 24.81)">Sept-Oct 2018<tspan x="-4.2" y="6.05">Talleres c/usuario</tspan></text><polyline class="cls-3" points="110.28 37.43 110.28 38.93 108.78 38.93"/><line class="cls-4" x1="105.84" y1="38.93" x2="66.07" y2="38.93"/><polyline class="cls-3" points="64.59 38.93 63.09 38.93 63.09 37.43"/><line class="cls-7" x1="63.09" y1="34.27" x2="63.09" y2="16.9"/><polyline class="cls-3" points="63.09 15.32 63.09 13.82 64.59 13.82"/><line class="cls-4" x1="67.54" y1="13.82" x2="107.31" y2="13.82"/><polyline class="cls-3" points="108.78 13.82 110.28 13.82 110.28 15.32"/><line class="cls-7" x1="110.28" y1="18.48" x2="110.28" y2="35.85"/><text class="cls-2" transform="translate(150.21 20.87)">Dic-2018<tspan x="-15.26" y="6.05">Día Internacional vs la </tspan><tspan x="-13.59" y="12.1">Corrupción- Datatón</tspan></text><polyline class="cls-3" points="188.61 37.43 188.61 38.93 187.11 38.93"/><line class="cls-8" x1="184.21" y1="38.93" x2="133.39" y2="38.93"/><polyline class="cls-3" points="131.94 38.93 130.44 38.93 130.44 37.43"/><line class="cls-9" x1="130.44" y1="34.33" x2="130.44" y2="17.24"/><polyline class="cls-3" points="130.44 15.69 130.44 14.19 131.94 14.19"/><line class="cls-8" x1="134.84" y1="14.19" x2="185.66" y2="14.19"/><polyline class="cls-3" points="187.11 14.19 188.61 14.19 188.61 15.69"/><line class="cls-9" x1="188.61" y1="18.79" x2="188.61" y2="35.88"/><text class="cls-2" transform="translate(220.71 21.69)">Dic-2018<tspan x="-7.11" y="6.05">Versión alpha - </tspan><tspan x="-7.8" y="12.1">prototipos PDN</tspan></text><polyline class="cls-3" points="258.84 37.43 258.84 38.93 257.34 38.93"/><line class="cls-10" x1="254.19" y1="38.93" x2="205.4" y2="38.93"/><polyline class="cls-3" points="203.83 38.93 202.33 38.93 202.33 37.43"/><line class="cls-11" x1="202.33" y1="34.38" x2="202.33" y2="17.58"/><polyline class="cls-3" points="202.33 16.05 202.33 14.55 203.83 14.55"/><line class="cls-10" x1="206.98" y1="14.55" x2="255.76" y2="14.55"/><polyline class="cls-3" points="257.34 14.55 258.84 14.55 258.84 16.05"/><line class="cls-11" x1="258.84" y1="19.11" x2="258.84" y2="35.91"/><path class="cls-12" d="M59.89,54.06v8.36"/><path class="cls-12" d="M130.71,53.52v8.35"/><path class="cls-12" d="M160.68,51.39V43"/><path class="cls-12" d="M85.05,52V43.63"/><path class="cls-12" d="M201.23,53.52v8.35"/><path class="cls-12" d="M25.65,52.66H230.18"/><path class="cls-13" d="M19.18,52.66h0c0-1.13,1.45-2,3.24-2h0c1.78,0,3.23.92,3.23,2h0c0,1.12-1.45,2-3.23,2h0C20.63,54.7,19.18,53.78,19.18,52.66Z"/><path class="cls-13" d="M81.52,52.66h0c0-1.13,1.45-2,3.24-2h0c1.78,0,3.23.92,3.23,2h0c0,1.12-1.45,2-3.23,2h0C83,54.7,81.52,53.78,81.52,52.66Z"/><path class="cls-13" d="M56.71,52.66h0c0-1.13,1.45-2,3.23-2h0c1.79,0,3.24.92,3.24,2h0c0,1.12-1.45,2-3.24,2h0C58.16,54.7,56.71,53.78,56.71,52.66Z"/><path class="cls-13" d="M127.53,52.66h0c0-1.13,1.45-2,3.23-2h0c1.79,0,3.23.92,3.23,2h0c0,1.12-1.44,2-3.23,2h0C129,54.7,127.53,53.78,127.53,52.66Z"/><path class="cls-13" d="M157.39,52.66h0c0-1.13,1.45-2,3.23-2h0c1.79,0,3.24.92,3.24,2h0c0,1.12-1.45,2-3.24,2h0C158.84,54.7,157.39,53.78,157.39,52.66Z"/><path class="cls-13" d="M58.78,62.83h0c0-.42.52-.77,1.17-.77h0c.64,0,1.17.35,1.17.77h0c0,.43-.53.77-1.17.77h0C59.3,63.6,58.78,63.26,58.78,62.83Z"/><path class="cls-13" d="M129.6,62.19h0c0-.43.52-.77,1.16-.77h0c.65,0,1.17.34,1.17.77h0c0,.43-.52.77-1.17.77h0C130.12,63,129.6,62.62,129.6,62.19Z"/><path class="cls-13" d="M198.29,52.66h0c0-1.13,1.45-2,3.23-2h0c1.79,0,3.23.92,3.23,2h0c0,1.12-1.44,2-3.23,2h0C199.74,54.7,198.29,53.78,198.29,52.66Z"/><path class="cls-13" d="M161.79,42.62h0c0,.43-.52.77-1.16.77h0c-.65,0-1.17-.34-1.17-.77h0c0-.43.52-.77,1.17-.77h0C161.27,41.85,161.79,42.19,161.79,42.62Z"/><path class="cls-13" d="M86.17,43.21h0c0,.43-.53.78-1.17.78h0c-.65,0-1.17-.35-1.17-.78h0c0-.42.52-.77,1.17-.77h0C85.64,42.44,86.17,42.79,86.17,43.21Z"/><path class="cls-13" d="M200.12,62.19h0c0-.43.52-.77,1.17-.77h0c.64,0,1.16.34,1.16.77h0c0,.43-.52.77-1.16.77h0C200.64,63,200.12,62.62,200.12,62.19Z"/><path class="cls-12" d="M227,51.39V43"/><path class="cls-13" d="M223.72,52.66h0c0-1.13,1.45-2,3.24-2h0c1.78,0,3.23.92,3.23,2h0c0,1.12-1.45,2-3.23,2h0C225.17,54.7,223.72,53.78,223.72,52.66Z"/><path class="cls-13" d="M228.13,42.62h0c0,.43-.53.77-1.17.77h0c-.65,0-1.17-.34-1.17-.77h0c0-.43.52-.77,1.17-.77h0C227.6,41.85,228.13,42.19,228.13,42.62Z"/></svg>