<svg id="Capa_1" data-name="Capa 1" xmlns="http://www.w3.org/2000/svg" viewBox="0 0 69.67 69.58"><defs><style>.cls-1{fill:#ccc;}</style></defs><title>Mesa de trabajo 6</title><path class="cls-1" d="M69.45,23.18a4.68,4.68,0,0,0-.48.62,4.16,4.16,0,0,1-3.7,2.33A4,4,0,0,1,61.45,24a1.25,1.25,0,0,0-1.31-.71,11.06,11.06,0,0,1-1.41,0c-.58,0-.82.22-.81.79,0,1.4,0,2.8,0,4.19,0,1.56,0,3.11,0,4.67,0,1.33-.53,1.83-1.86,1.84H50.91A1.47,1.47,0,0,1,49.43,34a1.36,1.36,0,0,1,1.22-2c1.11-.05,2.21,0,3.32,0s1-.06,1-1c0-2.82,0-5.63,0-8.45a3.41,3.41,0,0,1,.22-1.31,1.44,1.44,0,0,1,1.46-.78c1.2,0,2.39,0,3.58,0a1.07,1.07,0,0,0,1.08-.62,4.05,4.05,0,0,1,3.76-2.23A4.2,4.2,0,0,1,69,19.92a3.28,3.28,0,0,0,.44.56Z"/><path class="cls-1" d="M.22,20.48a2.93,2.93,0,0,0,.44-.56,4.19,4.19,0,0,1,3.81-2.39,4.09,4.09,0,0,1,3.82,2.23,1.08,1.08,0,0,0,1.08.62c1.15,0,2.3,0,3.45,0s1.81.53,1.82,1.82c0,2.91,0,5.81,0,8.72,0,1,.07,1,1,1s2.07,0,3.11,0a1.38,1.38,0,0,1,1.55,1.4,1.43,1.43,0,0,1-1.55,1.43c-1.82,0-3.65,0-5.47,0-1.06,0-1.58-.6-1.58-1.77,0-2.63,0-5.27,0-7.91,0-2.05.18-1.74-1.81-1.82a1.93,1.93,0,0,0-1.91,1,4.25,4.25,0,0,1-7.29-.42,8,8,0,0,0-.51-.68Z"/><path class="cls-1" d="M69.45,49.15a4,4,0,0,0-.48.61A4.17,4.17,0,0,1,65.2,52.1a4,4,0,0,1-3.79-2.18,1.22,1.22,0,0,0-1.25-.68c-1.11,0-2.21,0-3.31,0-1.29,0-1.82-.55-1.83-1.83,0-2,0-3.92,0-5.88,0-.84-.09-.92-.93-.93-1.11,0-2.21,0-3.32,0a1.38,1.38,0,0,1-1.46-1.44,1.32,1.32,0,0,1,1.3-1.38c2-.05,4-.06,5.95,0,.9,0,1.34.64,1.36,1.7,0,1.78,0,3.56,0,5.34,0,.27,0,.54,0,.81-.05.65.24.92.88.85a2.44,2.44,0,0,1,.54,0,2.18,2.18,0,0,0,2.35-1.16,4.24,4.24,0,0,1,7.22.42,7.64,7.64,0,0,0,.54.73Z"/><path class="cls-1" d="M.22,46.44a4,4,0,0,0,.47-.62A4.17,4.17,0,0,1,4.53,43.5a4,4,0,0,1,3.79,2.28,1.08,1.08,0,0,0,1.17.67,7.61,7.61,0,0,1,1.35,0c.69,0,.92-.28.91-.93,0-1.69,0-3.38,0-5.07,0-.36,0-.72,0-1.08.06-1.13.55-1.65,1.7-1.67,1.75,0,3.51,0,5.27,0h.2a1.42,1.42,0,0,1,1.43,1.41,1.38,1.38,0,0,1-1.46,1.44c-1,0-2.07,0-3.11,0s-1.14,0-1.14,1.14c0,1.85,0,3.7,0,5.55,0,1.45-.5,1.94-2,2-1.11,0-2.21,0-3.32,0a1.09,1.09,0,0,0-1.08.62A4.1,4.1,0,0,1,4.47,52.1,4.21,4.21,0,0,1,.66,49.71a3.39,3.39,0,0,0-.44-.56Z"/><path class="cls-1" d="M52,.2a7.26,7.26,0,0,0,.63.46A4.16,4.16,0,0,1,55,4.28a4,4,0,0,1-2.13,3.94,1.26,1.26,0,0,0-.72,1.29c0,5.74,0,11.49,0,17.23a5.65,5.65,0,0,1,0,1A1.4,1.4,0,0,1,50.59,29a1.33,1.33,0,0,1-1.29-1.38c0-2.14,0-4.28,0-6.42,0-3.88,0-7.75,0-11.63a1.33,1.33,0,0,0-.75-1.34,4.07,4.07,0,0,1-2.19-3.85A4.24,4.24,0,0,1,48.79.64,6.75,6.75,0,0,0,49.44.2Z"/><path class="cls-1" d="M20.23.2a6.13,6.13,0,0,0,.58.42,4.12,4.12,0,0,1,2.4,3.43A4.08,4.08,0,0,1,21,8.28a1.15,1.15,0,0,0-.64,1.2q0,8.68,0,17.37c0,.29,0,.59,0,.88A1.38,1.38,0,0,1,19.15,29a1.35,1.35,0,0,1-1.51-1A3.82,3.82,0,0,1,17.53,27q0-8.68,0-17.37a1.4,1.4,0,0,0-.77-1.4,4,4,0,0,1-2.09-3.83A4.18,4.18,0,0,1,17,.69c.24-.14.46-.33.69-.49Z"/><path class="cls-1" d="M49.44,69.43a4.47,4.47,0,0,0-.59-.41,4.27,4.27,0,0,1-2.49-3.76,4.1,4.1,0,0,1,2.24-3.89,1.2,1.2,0,0,0,.69-1.24c0-4.68,0-9.37,0-14.05,0-.41,0-.82,0-1.22a1.41,1.41,0,0,1,2.8-.14,5.92,5.92,0,0,1,0,.94c0,4.82,0,9.64,0,14.46a1.28,1.28,0,0,0,.72,1.29A4,4,0,0,1,55,65.34,4.2,4.2,0,0,1,52.64,69a4.61,4.61,0,0,0-.63.46Z"/><path class="cls-1" d="M17.66,69.43A5.32,5.32,0,0,0,17,69a4.15,4.15,0,0,1-2.34-3.63,4,4,0,0,1,2.12-3.93,1.25,1.25,0,0,0,.72-1.29q0-7.27,0-14.53a4,4,0,0,1,.12-1.14,1.36,1.36,0,0,1,1.46-1,1.41,1.41,0,0,1,1.24,1.24,6.33,6.33,0,0,1,0,.87c0,4.8,0,9.6,0,14.4a1.39,1.39,0,0,0,.76,1.41,4,4,0,0,1,2.07,4.22A4.1,4.1,0,0,1,20.87,69c-.22.13-.43.3-.64.45Z"/><path class="cls-1" d="M34.62,26.16a23.87,23.87,0,0,1-7.33-1,10.5,10.5,0,0,1-2.79-1.32,2.42,2.42,0,0,1-.12-4.11,8.34,8.34,0,0,1,4.35-1.7,38.74,38.74,0,0,1,5.36-.52,25.33,25.33,0,0,1,9.07,1.1A7.64,7.64,0,0,1,45.52,20a2.27,2.27,0,0,1-.11,3.65,10.34,10.34,0,0,1-3,1.51A26,26,0,0,1,34.62,26.16Z"/><path class="cls-1" d="M34.75,52.25a29.3,29.3,0,0,1-8.07-1.2,10.23,10.23,0,0,1-1.49-.63,3.11,3.11,0,0,1-1.88-3.15c.06-.83,0-1.67,0-2.5s.13-.81.8-.49a21.64,21.64,0,0,0,9.14,2.13,26.89,26.89,0,0,0,8-.65c1.42-.42,2.81-1,4.19-1.49.73-.27.82-.24.83.54s0,1.72,0,2.57a2.82,2.82,0,0,1-1.75,2.94,20.35,20.35,0,0,1-4.29,1.35C38.48,52,36.61,52.07,34.75,52.25Z"/><path class="cls-1" d="M34.9,35a28.07,28.07,0,0,1-7.54-1.12,15.9,15.9,0,0,1-3.16-1.6,2.1,2.1,0,0,1-.88-1.95c0-.92,0-1.85,0-2.77s.11-.86.81-.54c5.76,2.64,11.73,2.69,17.77,1.32A25.21,25.21,0,0,0,45.52,27c.72-.29.81-.25.82.54s0,1.8,0,2.7a2.72,2.72,0,0,1-1.24,2.41,9.91,9.91,0,0,1-4.33,1.63C38.83,34.55,36.86,34.72,34.9,35Z"/><path class="cls-1" d="M34.7,43.46a23.21,23.21,0,0,1-7.32-1,12.44,12.44,0,0,1-2.59-1.14,2.71,2.71,0,0,1-1.48-2.68c.06-.89,0-1.8,0-2.7,0-.51.21-.65.67-.42,4.63,2.33,9.59,2.47,14.59,2.06a20.08,20.08,0,0,0,6.85-1.95c.8-.38.89-.32.9.54s0,1.8,0,2.7a2.65,2.65,0,0,1-1.16,2.31,8.59,8.59,0,0,1-3.78,1.55c-2.22.36-4.45.6-6.67.89Z"/></svg>