<svg id="Capa_1" data-name="Capa 1" xmlns="http://www.w3.org/2000/svg" viewBox="0 0 493.98 281.82"><defs><style>.cls-1{fill:none;stroke:#7bc082;stroke-miterlimit:10;}.cls-2{fill:#37464f;}.cls-3{fill:#fff;}.cls-4{fill:#7bc082;}</style></defs><title>Mesa de trabajo 7</title><circle class="cls-1" cx="220.99" cy="169.67" r="109.6"/><circle class="cls-2" cx="117.55" cy="132.02" r="32.2"/><path class="cls-3" d="M99.38,150.8V111.86H136.8c0,.92,0,1.84,0,2.76v35.2c0,.33,0,.66,0,1H104.16Zm17.89-1.93v-7.1l-1.93,2-.2-.1c.06-.69-.1-1.55.24-2a28.8,28.8,0,0,1,2.68-2.93,31.07,31.07,0,0,0,2.28,2.39c.91.76.62,1.68.47,2.67l-1.94-2v7.09H134l-9.22-9.48-.22.14v2.74c-.8-.74-1.57-1.22-1.45-2.42a32.31,32.31,0,0,0,0-3.27c1.15,0,2.18.08,3.19,0s1.58.74,2.34,1.53H126l8.91,9.5V132.13h-6.7l-.14.2,2,1.8-.09.23c-.64,0-1.46.16-1.89-.17a32.13,32.13,0,0,1-2.89-2.93,25.78,25.78,0,0,0,2.21-2.24c.74-1,1.64-.7,2.75-.68l-2,2.19h6.84V115.12l-9.19,9.49h2.75c-.45.59-.91,1.3-1.46,1.38a26.35,26.35,0,0,1-3.89.06V122.6a2.29,2.29,0,0,1,1.49-2.1v2.65l9.06-9.37H118.87v7l.28.23,1.74-2.11c.1.73.28,1.58,0,2a31.73,31.73,0,0,1-2.74,3c-.84-.88-1.52-1.72-2.32-2.41s-.52-1.7-.58-2.76l2.07,2v-7H102.64l8.93,9.36v-2.65l.17-.08c.42.5,1.13.95,1.21,1.5a33.72,33.72,0,0,1,0,4.16,20.19,20.19,0,0,0-2.92,0c-1.22.17-1.8-.59-2.53-1.52h2.85L101.23,115V130.5H108l.21-.29-2-2c.73.06,1.55-.14,2,.2a30.94,30.94,0,0,1,2.82,2.89l-2.29,2.35a2.09,2.09,0,0,1-2.5.46l1.84-2h-6.75v15.08l9.1-9.17h-2.66l-.08-.17c.49-.43.94-1.14,1.48-1.22a28.69,28.69,0,0,1,4-.06v3.61a2.18,2.18,0,0,1-1.5,1.9v-2.54l-9.14,9.3Z"/><circle class="cls-2" cx="218.4" cy="61.11" r="32.2"/><circle class="cls-2" cx="149.46" cy="249.89" r="32.2"/><circle class="cls-2" cx="299.3" cy="250.17" r="32.2"/><circle class="cls-2" cx="321.39" cy="131.71" r="32.2"/><path class="cls-3" d="M243,75.37c0,.95,0,1.91,0,2.86a1,1,0,0,1-.81,1.06,29.33,29.33,0,0,1-11.22,1c-1.8-.21-3.58-.62-5.36-.93a1.21,1.21,0,0,1-1.06-1.38c0-1.49,0-3,0-4.49a4.8,4.8,0,0,1,2.91-4.68,14.15,14.15,0,0,1,7.11-1.32,12.84,12.84,0,0,1,5.57,1.32c1.88,1,3,2.4,2.87,4.67C242.93,74.08,243,74.72,243,75.37Zm-1.88,2.17V76.21c0-.83-.06-1.65,0-2.47a3.17,3.17,0,0,0-2.26-3.43,13.83,13.83,0,0,0-6.88-.83,8.93,8.93,0,0,0-4.13,1.31,2.5,2.5,0,0,0-1.32,2.35c.06,1.26,0,2.53,0,3.79a.68.68,0,0,0,.67.81c1.55.23,3.09.54,4.64.69A27,27,0,0,0,241.09,77.54Z"/><path class="cls-3" d="M228.14,50v2.87a1,1,0,0,1-.86,1.09A30.12,30.12,0,0,1,217.6,55a28.43,28.43,0,0,1-7-1.07,1,1,0,0,1-.89-1c0-2-.09-3.93.05-5.88S211.3,44,213,43.26a15.09,15.09,0,0,1,12.19.13,4.52,4.52,0,0,1,3,4.75c0,.61,0,1.24,0,1.85Zm-1.91-.4a14.4,14.4,0,0,1,0-1.47,2.72,2.72,0,0,0-1.74-2.89,11.85,11.85,0,0,0-1.42-.6,14.34,14.34,0,0,0-6.7-.39,6.85,6.85,0,0,0-3.67,1.45,2.83,2.83,0,0,0-1,1.65,38,38,0,0,0,0,4.4.82.82,0,0,0,.48.6,29.5,29.5,0,0,0,13,.16c.84-.17,1.17-.52,1-1.37A11.3,11.3,0,0,1,226.23,49.59Z"/><path class="cls-3" d="M195,75.22c0-.74,0-1.49,0-2.24a4,4,0,0,1,2-3.68c2.41-1.64,5.15-1.93,8-1.85a12.68,12.68,0,0,1,5.63,1.35,4.66,4.66,0,0,1,2.8,4.57c-.07,1.55,0,3.09,0,4.64a1.21,1.21,0,0,1-1.06,1.34,28.91,28.91,0,0,1-11.06.88c-1.78-.2-3.53-.61-5.29-.91a1,1,0,0,1-1-1.24C195,77.13,195,76.18,195,75.22Zm16.42,2.33c0-1.69,0-3.31,0-4.93a2.07,2.07,0,0,0-.62-1.26,5.27,5.27,0,0,0-1.52-1,13.17,13.17,0,0,0-6.94-.85A7.84,7.84,0,0,0,198,70.92a2.74,2.74,0,0,0-1.12,1.56c-.14,1.68,0,3.38,0,5.07A27.89,27.89,0,0,0,211.37,77.55Z"/><path class="cls-3" d="M238,61.86a4.22,4.22,0,0,1-4.19,4.22,4.28,4.28,0,1,1,0-8.56A4.24,4.24,0,0,1,238,61.86Zm-4.24-2.38a2.32,2.32,0,1,0,.07,4.64,2.32,2.32,0,1,0-.07-4.64Z"/><path class="cls-3" d="M219,32.22a4.17,4.17,0,0,1,4.16,4.32,4.26,4.26,0,0,1-4.24,4.21,4.34,4.34,0,0,1-4.27-4.29A4.23,4.23,0,0,1,219,32.22Zm-.1,6.54a2.28,2.28,0,0,0,2.36-2.32,2.38,2.38,0,0,0-2.3-2.32,2.27,2.27,0,0,0-2.32,2.34A2.21,2.21,0,0,0,218.92,38.76Z"/><path class="cls-3" d="M199.89,61.79a4.22,4.22,0,0,1,4.24-4.27,4.29,4.29,0,0,1,0,8.57A4.23,4.23,0,0,1,199.89,61.79Zm4.22-2.31a2.28,2.28,0,0,0-2.3,2.28,2.31,2.31,0,1,0,2.3-2.28Z"/><path class="cls-3" d="M219.91,59.69c-.64,2.11.45,3.22,2.24,4a23.37,23.37,0,0,1,2.44,1.45c.84.5,1.07.94.75,1.5s-.88.69-1.71.19c-1.34-.8-2.69-1.6-4-2.43a1.08,1.08,0,0,0-1.32,0c-1.36.87-2.76,1.68-4.15,2.5-.74.44-1.27.36-1.58-.22s-.08-1.07.63-1.49c1.41-.84,2.81-1.69,4.24-2.5a1,1,0,0,0,.57-1.06c0-1.31,0-2.62,0-3.94,0-.87.32-1.31.94-1.31s1,.44,1,1.29Z"/><path class="cls-3" d="M290.35,229l1.15.48a4.4,4.4,0,0,1,2.5,2.67.76.76,0,0,0,.86.6q10.09,0,20.17.15c1.07,0,2.14,0,3.2.07a7,7,0,0,1,6.21,6.23,58.32,58.32,0,0,1-.05,6.34,6.92,6.92,0,0,1-2.39,4.92,4.73,4.73,0,0,1-3.12,1.2h-2.71c.3.35.5.56.69.79a1.12,1.12,0,0,1-.06,1.55,1,1,0,0,1-1.47-.07c-.85-.83-1.69-1.68-2.5-2.54a1.16,1.16,0,0,1,0-1.72c.82-.82,1.66-1.62,2.5-2.42a1.16,1.16,0,0,1,1.49-.11,1.14,1.14,0,0,1,.07,1.55c-.19.24-.42.45-.64.68a4.22,4.22,0,0,0,5.94-3.47,31.08,31.08,0,0,0,.12-6.61,4.83,4.83,0,0,0-4.84-4.26c-3.18,0-6.36-.06-9.55-.08-4.25,0-8.5-.06-12.75-.13a1.21,1.21,0,0,0-1.36.85,4.69,4.69,0,0,1-7.55,1.42,4.79,4.79,0,0,1,1.91-7.83,2.28,2.28,0,0,0,.45-.26Zm1.82,4.82a2.59,2.59,0,0,0-2.54-2.68,2.62,2.62,0,1,0,2.54,2.68Z"/><path class="cls-3" d="M278.38,255.2c.27-.66.49-1.35.82-2a6.63,6.63,0,0,1,6.2-3.89q8.16,0,16.32.07a1,1,0,0,0,1.14-.74,4.66,4.66,0,1,1,7.66,5,4.63,4.63,0,0,1-7.75-1.61c-.18-.5-.41-.58-.87-.58-5,0-9.93-.08-14.89-.08a11,11,0,0,0-2.94.26,4.75,4.75,0,0,0-3.55,4.62c0,1.66-.06,3.32,0,5a4.83,4.83,0,0,0,4.9,4.77h4l.16-.21a5.79,5.79,0,0,1-.77-.59,1,1,0,0,1-.05-1.52,1,1,0,0,1,1.52.06c.84.83,1.68,1.67,2.51,2.53a1.1,1.1,0,0,1,0,1.6c-.83.85-1.68,1.68-2.53,2.51a1.11,1.11,0,0,1-1.54,0,1.14,1.14,0,0,1,.1-1.6c.17-.17.37-.33.72-.64-.43,0-.67-.06-.91-.06l-3.85-.07a6.75,6.75,0,0,1-6.09-5.12,4.23,4.23,0,0,0-.25-.62v-2.57c0-.8.12-1.61.13-2.42a11.27,11.27,0,0,0-.13-1.29Zm28.79-2.13a2.59,2.59,0,0,0,0-5.17,2.64,2.64,0,0,0-2.61,2.56A2.69,2.69,0,0,0,307.17,253.07Z"/><path class="cls-3" d="M298.05,272.17c-.66-.33-1.36-.6-2-1a4.55,4.55,0,0,1-1.37-5.93,4.71,4.71,0,0,1,7.6-.9,4.62,4.62,0,0,1-2.18,7.57,4.86,4.86,0,0,0-.63.25Zm.8-7.24a2.56,2.56,0,0,0-2.62,2.52,2.53,2.53,0,0,0,2.53,2.63,2.58,2.58,0,0,0,.09-5.15Z"/><path class="cls-3" d="M320.79,106.4h.76a3,3,0,0,0,.43.44l4,2.66,8.89,5.92,4.85,3.2a1.68,1.68,0,0,1,.83,1.51c0,1.32,0,2.64,0,4,0,.83-.41,1.36-1,1.37-1.11,0-2.21,0-3.32,0a5.85,5.85,0,0,0-.59,0,3.8,3.8,0,0,0,0,.38q0,10,0,20c0,.54.15.67.49.67,1.25,0,2.5,0,3.76,0a2,2,0,0,1,.59.08c.46.14.66.58.67,1.25s-.19,1.14-.63,1.3a1.94,1.94,0,0,1-.76.09q-18.36,0-36.74,0a1.61,1.61,0,0,1-1.6-.85v-1.11a1.67,1.67,0,0,1,1.67-.8c.94.06,1.89,0,2.83,0h1.19v-21h-3.84c-.72,0-1.07-.5-1.08-1.55,0-1.31,0-2.63,0-4a1.73,1.73,0,0,1,.72-1.6c2.25-1.46,4.49-2.94,6.73-4.42q4.62-3,9.25-6.08C319.5,107.42,320.14,106.89,320.79,106.4ZM304,122.75h33.88a1.61,1.61,0,0,0,.49,0,.46.46,0,0,0,.26-.3,1.65,1.65,0,0,0-.55-1.85q-2.43-1.59-4.85-3.19c-3.92-2.61-7.83-5.23-11.75-7.82a.68.68,0,0,0-.66,0c-.54.29-1.06.68-1.59,1l-9.09,6c-1.95,1.28-3.9,2.55-5.84,3.84a.87.87,0,0,0-.29.56C304,121.53,304,122.08,304,122.75Zm18.12,23.69h11.54V125.52H322.15ZM309,125.5c0,.24,0,.4,0,.55,0,6.57,0,13.14,0,19.71,0,.71.24.74.61.74,3.36,0,6.72,0,10.08,0,.5,0,.6-.23.59-.9,0-6.44,0-12.88,0-19.32,0-.25,0-.5,0-.79Z"/><path class="cls-3" d="M152.05,272.54a1.8,1.8,0,0,1-1-2.08c.11-.86.08-1.74.27-2.58a3.4,3.4,0,0,1,3.47-2.8,14.88,14.88,0,0,0,2.22-.18,3.57,3.57,0,0,0,2.86-3.72c.07-2.15,0-4.3-.07-6.45,0-1.35.39-1.8,1.73-1.83.79,0,1.58,0,2.36,0s.9-.28.51-.89a28.24,28.24,0,0,0-1.93-2.79,5.75,5.75,0,0,1-1.19-3.3,15,15,0,0,0-7.56-12.13,14.7,14.7,0,0,0-9.23-2,15.15,15.15,0,0,0-11.59,7.05,14.35,14.35,0,0,0-2.35,7.1,15.39,15.39,0,0,0,12.36,16.32c.56.11,1.13.17,1.71.24a1,1,0,0,0,.27,0c0-.63,0-1.24,0-1.85a.93.93,0,0,0-.3-.52c-1.83-1.85-3.67-3.68-5.49-5.54a1.11,1.11,0,0,1-.3-.69c0-.76,0-1.53,0-2.29a.82.82,0,0,0-.33-.62,3.15,3.15,0,0,1-.77-4.73,2.94,2.94,0,0,1,2.92-1,2.75,2.75,0,0,1,2.13,1.7,3,3,0,0,1-1.3,4,.69.69,0,0,0-.2.13,4.37,4.37,0,0,0,.27,2.47l3.49,3.45v-3.09c0-4.12,0-8.24,0-12.35a1.3,1.3,0,0,0-.63-1.25,2.93,2.93,0,0,1-1-3.54,2.79,2.79,0,0,1,2.92-1.94A2.88,2.88,0,0,1,149,237a2.94,2.94,0,0,1-1.28,3.4.87.87,0,0,0-.43.86q0,5,0,9.94c0,.3,0,.61-.06,1.06a5.93,5.93,0,0,0,.51-.39c.87-.85,1.71-1.74,2.61-2.56a2,2,0,0,0,.75-1.71,1.56,1.56,0,0,0-.69-1.48,2.93,2.93,0,0,1-.86-3.73,3.06,3.06,0,0,1,3.3-1.65,3.11,3.11,0,0,1,1,5.68.92.92,0,0,0-.36.62,9.43,9.43,0,0,0,0,1.68,1.66,1.66,0,0,1-.6,1.45c-1.74,1.7-3.46,3.44-5.16,5.19a1.34,1.34,0,0,0-.34.85c0,2.32,0,4.64,0,7a5.34,5.34,0,0,1-.1,1c-.15.85-.52,1.15-1.4,1.14A18.19,18.19,0,0,1,129,253.74a33.45,33.45,0,0,1-1.16-4.79,1.31,1.31,0,0,0-.12-.27v-3c.09-.62.16-1.25.29-1.86a18.37,18.37,0,0,1,3.8-8.21,18,18,0,0,1,10.3-6.32c.84-.19,1.67-.34,2.51-.51h2.11l1.06.15a18.15,18.15,0,0,1,12.42,6.84A17.55,17.55,0,0,1,164,245a4.62,4.62,0,0,0,.79,2.72,15.88,15.88,0,0,1,2.92,4.83V254c-.19.21-.35.5-.6.61a10.09,10.09,0,0,1-2.14.86,14.93,14.93,0,0,1-2.32.21c0,.62,0,1.2,0,1.78,0,1.75,0,3.52-.18,5.25a5,5,0,0,1-3.6,4.6,15.18,15.18,0,0,1-3.24.48c-1.06.08-1.5.36-1.72,1.4a4.34,4.34,0,0,0-.11,1.29,1.69,1.69,0,0,1-1.25,2Z"/><path class="cls-4" d="M.38,127.45V113H2.74v14.46Z"/><path class="cls-4" d="M15.53,127.45H13.2v-6.74a3,3,0,0,0-.48-1.88,1.75,1.75,0,0,0-1.48-.62,2.27,2.27,0,0,0-2,.88A5.1,5.1,0,0,0,8.64,122v5.45H6.32V116.51H8.13L8.46,118h.12a3,3,0,0,1,1.32-1.21,4.31,4.31,0,0,1,1.9-.43c1.69,0,2.8.58,3.35,1.73h.16a3.21,3.21,0,0,1,1.36-1.27,4.39,4.39,0,0,1,2-.46,3.68,3.68,0,0,1,2.85,1,4.38,4.38,0,0,1,.9,3v7.13H20.11v-6.74a3,3,0,0,0-.48-1.88,1.77,1.77,0,0,0-1.49-.62,2.32,2.32,0,0,0-2,.85,4.35,4.35,0,0,0-.63,2.6Z"/><path class="cls-4" d="M31.23,127.65A3.84,3.84,0,0,1,28,126.16h-.14c.09.92.14,1.48.14,1.68v4.48H25.68V116.51h1.88c.05.21.16.69.33,1.47H28a3.63,3.63,0,0,1,3.26-1.67,3.79,3.79,0,0,1,3.19,1.49,8.15,8.15,0,0,1,0,8.35A3.82,3.82,0,0,1,31.23,127.65Zm-.56-9.44a2.43,2.43,0,0,0-2,.81,4.29,4.29,0,0,0-.63,2.6V122a5.17,5.17,0,0,0,.63,2.9,2.37,2.37,0,0,0,2.07.89,2.11,2.11,0,0,0,1.86-1,5.16,5.16,0,0,0,.65-2.82,4.94,4.94,0,0,0-.65-2.78A2.16,2.16,0,0,0,30.67,118.21Z"/><path class="cls-4" d="M45.15,127.45l-.47-1.52H44.6A4.42,4.42,0,0,1,43,127.29a5,5,0,0,1-2.06.36,3.47,3.47,0,0,1-2.51-.87,3.23,3.23,0,0,1-.91-2.46,2.91,2.91,0,0,1,1.26-2.56,7.32,7.32,0,0,1,3.83-.94l1.88,0v-.59a2.25,2.25,0,0,0-.48-1.57,2,2,0,0,0-1.52-.52,5.48,5.48,0,0,0-1.62.25,12.67,12.67,0,0,0-1.48.59l-.75-1.67a7.9,7.9,0,0,1,2-.7,9,9,0,0,1,2-.25,4.77,4.77,0,0,1,3.15.91,3.6,3.6,0,0,1,1.06,2.86v7.37Zm-3.46-1.58a2.89,2.89,0,0,0,2-.71,2.56,2.56,0,0,0,.76-2v-1l-1.4.06a4.8,4.8,0,0,0-2.39.55,1.65,1.65,0,0,0-.75,1.5,1.48,1.48,0,0,0,.44,1.13A1.87,1.87,0,0,0,41.69,125.87Z"/><path class="cls-4" d="M54.46,127.65a4.78,4.78,0,0,1-3.77-1.45,7.34,7.34,0,0,1,.06-8.4,5,5,0,0,1,3.9-1.49,7.32,7.32,0,0,1,3.12.65l-.7,1.87a7,7,0,0,0-2.44-.58q-2.84,0-2.84,3.77a4.54,4.54,0,0,0,.71,2.77,2.46,2.46,0,0,0,2.07.92,6,6,0,0,0,2.94-.77v2a4.49,4.49,0,0,1-1.33.52A7.68,7.68,0,0,1,54.46,127.65Z"/><path class="cls-4" d="M64.16,125.77a5.59,5.59,0,0,0,1.7-.27v1.75a4.54,4.54,0,0,1-1,.29,7.5,7.5,0,0,1-1.27.11q-3.3,0-3.3-3.48v-5.9H58.81v-1l1.6-.85.79-2.31h1.44v2.43h3.11v1.76H62.64v5.86a1.61,1.61,0,0,0,.42,1.24A1.5,1.5,0,0,0,64.16,125.77Z"/><path class="cls-4" d="M77.75,122a6,6,0,0,1-1.38,4.19,4.91,4.91,0,0,1-3.82,1.5,5.23,5.23,0,0,1-2.71-.69A4.63,4.63,0,0,1,68,125a6.8,6.8,0,0,1-.63-3,5.92,5.92,0,0,1,1.37-4.15,4.94,4.94,0,0,1,3.85-1.5,4.8,4.8,0,0,1,3.75,1.53A5.87,5.87,0,0,1,77.75,122Zm-8,0q0,3.8,2.8,3.79c1.84,0,2.77-1.26,2.77-3.79s-.94-3.75-2.79-3.75a2.41,2.41,0,0,0-2.13,1A5,5,0,0,0,69.79,122Z"/><path class="cls-4" d="M138.34,1.56v9.35a5.55,5.55,0,0,1-.69,2.81,4.58,4.58,0,0,1-2,1.85,6.9,6.9,0,0,1-3.11.64,5.82,5.82,0,0,1-4.18-1.42,5.13,5.13,0,0,1-1.49-3.92V1.56h2.37v9.15a3.68,3.68,0,0,0,.83,2.64,3.47,3.47,0,0,0,2.55.85q3.35,0,3.35-3.51V1.56Z"/><path class="cls-4" d="M149.14,12.9A2.86,2.86,0,0,1,148,15.36a5.57,5.57,0,0,1-3.34.85,7.9,7.9,0,0,1-3.51-.66v-2a8.53,8.53,0,0,0,3.59.89c1.43,0,2.15-.43,2.15-1.29a1,1,0,0,0-.24-.69,2.8,2.8,0,0,0-.78-.58,12.71,12.71,0,0,0-1.52-.67,7.15,7.15,0,0,1-2.55-1.46,2.69,2.69,0,0,1-.67-1.9,2.49,2.49,0,0,1,1.13-2.18,5.36,5.36,0,0,1,3.08-.78,8.7,8.7,0,0,1,3.65.78l-.75,1.75a8.05,8.05,0,0,0-3-.73c-1.22,0-1.84.35-1.84,1.05a1.06,1.06,0,0,0,.48.87,10.65,10.65,0,0,0,2.1,1,9.34,9.34,0,0,1,2,1,2.77,2.77,0,0,1,.91,1A2.87,2.87,0,0,1,149.14,12.9Z"/><path class="cls-4" d="M161.36,10.53A6,6,0,0,1,160,14.71a4.92,4.92,0,0,1-3.83,1.5,5.28,5.28,0,0,1-2.71-.69,4.61,4.61,0,0,1-1.81-2,6.76,6.76,0,0,1-.63-3,5.94,5.94,0,0,1,1.37-4.16,5,5,0,0,1,3.84-1.49A4.8,4.8,0,0,1,160,6.41,5.87,5.87,0,0,1,161.36,10.53Zm-8,0c0,2.52.94,3.79,2.8,3.79S159,13.05,159,10.53s-.93-3.75-2.79-3.75a2.38,2.38,0,0,0-2.12,1A4.9,4.9,0,0,0,153.39,10.53Z"/><path class="cls-4" d="M171.38,12.9a2.86,2.86,0,0,1-1.17,2.46,5.59,5.59,0,0,1-3.34.85,7.9,7.9,0,0,1-3.51-.66v-2a8.48,8.48,0,0,0,3.58.89c1.44,0,2.15-.43,2.15-1.29a1,1,0,0,0-.24-.69,2.53,2.53,0,0,0-.78-.58,12.45,12.45,0,0,0-1.51-.67A7.21,7.21,0,0,1,164,9.74a2.73,2.73,0,0,1-.66-1.9,2.47,2.47,0,0,1,1.13-2.18,5.34,5.34,0,0,1,3.08-.78,8.77,8.77,0,0,1,3.65.78l-.75,1.75a8.1,8.1,0,0,0-3-.73c-1.23,0-1.84.35-1.84,1.05a1.06,1.06,0,0,0,.48.87,10.77,10.77,0,0,0,2.09,1,9.47,9.47,0,0,1,2,1,2.66,2.66,0,0,1,1.21,2.36Z"/><path class="cls-4" d="M177.49,5.08H180l2.23,6.2a11.9,11.9,0,0,1,.67,2.49H183a10.51,10.51,0,0,1,.33-1.32c.15-.52,1-3,2.51-7.37h2.51l-4.68,12.39c-.85,2.28-2.27,3.41-4.25,3.41a6.7,6.7,0,0,1-1.5-.16V18.88a6,6,0,0,0,1.19.11,2.46,2.46,0,0,0,2.37-1.94l.4-1Z"/><path class="cls-4" d="M207.57,16h-2.9L197.56,4.49h-.08l.05.65c.09,1.22.14,2.34.14,3.36V16h-2.15V1.56h2.87L205.48,13h.06c0-.15,0-.7-.08-1.66s-.06-1.69-.06-2.23V1.56h2.17Z"/><path class="cls-4" d="M215.92,16.21a5.28,5.28,0,0,1-4-1.48,5.66,5.66,0,0,1-1.44-4.1,6.23,6.23,0,0,1,1.33-4.22,4.61,4.61,0,0,1,3.67-1.53,4.47,4.47,0,0,1,3.42,1.32,5,5,0,0,1,1.26,3.62v1.25h-7.29a3.59,3.59,0,0,0,.86,2.45,3,3,0,0,0,2.28.86,8.59,8.59,0,0,0,1.81-.19,8.9,8.9,0,0,0,1.8-.61v1.89a7.66,7.66,0,0,1-1.73.58A10.72,10.72,0,0,1,215.92,16.21Zm-.43-9.57a2.31,2.31,0,0,0-1.77.7,3.29,3.29,0,0,0-.8,2.05h5a3,3,0,0,0-.65-2.05A2.21,2.21,0,0,0,215.49,6.64Z"/><path class="cls-4" d="M227.22,16.21a4.8,4.8,0,0,1-3.77-1.44,6.08,6.08,0,0,1-1.29-4.16,6.11,6.11,0,0,1,1.35-4.25,5,5,0,0,1,3.9-1.48,7.35,7.35,0,0,1,3.12.64l-.71,1.87a7,7,0,0,0-2.43-.57c-1.89,0-2.84,1.25-2.84,3.77a4.53,4.53,0,0,0,.71,2.76,2.44,2.44,0,0,0,2.07.93,6,6,0,0,0,2.94-.77v2a4.63,4.63,0,0,1-1.33.53A8.39,8.39,0,0,1,227.22,16.21Z"/><path class="cls-4" d="M237.62,16.21a5.3,5.3,0,0,1-4-1.48,5.66,5.66,0,0,1-1.44-4.1,6.23,6.23,0,0,1,1.33-4.22,4.63,4.63,0,0,1,3.67-1.53,4.47,4.47,0,0,1,3.42,1.32,5,5,0,0,1,1.26,3.62v1.25h-7.29a3.59,3.59,0,0,0,.86,2.45,3,3,0,0,0,2.29.86,8.57,8.57,0,0,0,1.8-.19,8.9,8.9,0,0,0,1.8-.61v1.89a7.58,7.58,0,0,1-1.72.58A10.91,10.91,0,0,1,237.62,16.21Zm-.43-9.57a2.31,2.31,0,0,0-1.77.7,3.35,3.35,0,0,0-.8,2.05h5a3,3,0,0,0-.66-2.05A2.21,2.21,0,0,0,237.19,6.64Z"/><path class="cls-4" d="M251.86,12.9a2.86,2.86,0,0,1-1.17,2.46,5.57,5.57,0,0,1-3.34.85,7.9,7.9,0,0,1-3.51-.66v-2a8.53,8.53,0,0,0,3.59.89c1.43,0,2.15-.43,2.15-1.29a1,1,0,0,0-.24-.69,2.8,2.8,0,0,0-.78-.58A13.49,13.49,0,0,0,247,11.2a7.06,7.06,0,0,1-2.55-1.46,2.69,2.69,0,0,1-.67-1.9A2.49,2.49,0,0,1,245,5.66,5.36,5.36,0,0,1,248,4.88a8.7,8.7,0,0,1,3.65.78l-.75,1.75a8.05,8.05,0,0,0-3-.73c-1.22,0-1.84.35-1.84,1.05a1.06,1.06,0,0,0,.48.87,10.65,10.65,0,0,0,2.1,1,9.34,9.34,0,0,1,2,1,2.77,2.77,0,0,1,.91,1A2.87,2.87,0,0,1,251.86,12.9Z"/><path class="cls-4" d="M254.23,2.18a1.27,1.27,0,0,1,.35-1,1.33,1.33,0,0,1,1-.34,1.3,1.3,0,0,1,.95.34,1.27,1.27,0,0,1,.35,1,1.23,1.23,0,0,1-.35.93,1.26,1.26,0,0,1-.95.35,1.29,1.29,0,0,1-1-.35A1.23,1.23,0,0,1,254.23,2.18ZM256.7,16h-2.33V5.08h2.33Z"/><path class="cls-4" d="M263.71,16.21a3.8,3.8,0,0,1-3.19-1.48,6.64,6.64,0,0,1-1.15-4.16,6.71,6.71,0,0,1,1.16-4.19,3.85,3.85,0,0,1,3.22-1.5A3.76,3.76,0,0,1,267,6.47h.12A14.22,14.22,0,0,1,267,4.61v-4h2.34V16H267.5l-.41-1.44H267A3.69,3.69,0,0,1,263.71,16.21Zm.62-1.87a2.53,2.53,0,0,0,2.09-.81,4.2,4.2,0,0,0,.67-2.62v-.32a4.9,4.9,0,0,0-.67-2.94,2.5,2.5,0,0,0-2.11-.87,2.16,2.16,0,0,0-1.89,1,5.14,5.14,0,0,0-.66,2.84,5,5,0,0,0,.64,2.77A2.18,2.18,0,0,0,264.33,14.34Z"/><path class="cls-4" d="M279.49,16,279,14.49h-.08a4.48,4.48,0,0,1-1.59,1.36,5,5,0,0,1-2.06.36,3.51,3.51,0,0,1-2.52-.87,3.26,3.26,0,0,1-.9-2.46,2.88,2.88,0,0,1,1.26-2.55A7.21,7.21,0,0,1,277,9.39l1.89-.06V8.75a2.21,2.21,0,0,0-.49-1.57,2,2,0,0,0-1.51-.52,5.13,5.13,0,0,0-1.62.25,12,12,0,0,0-1.48.58L273,5.83a7.92,7.92,0,0,1,1.95-.71,9,9,0,0,1,2-.24,4.68,4.68,0,0,1,3.15.91,3.57,3.57,0,0,1,1.07,2.86V16ZM276,14.43a2.89,2.89,0,0,0,2-.7,2.58,2.58,0,0,0,.76-2v-1l-1.4.06a4.88,4.88,0,0,0-2.39.55,1.68,1.68,0,0,0-.75,1.5,1.45,1.45,0,0,0,.44,1.13A1.84,1.84,0,0,0,276,14.43Z"/><path class="cls-4" d="M288.08,16.21a3.8,3.8,0,0,1-3.19-1.48,6.64,6.64,0,0,1-1.15-4.16,6.71,6.71,0,0,1,1.16-4.19,3.85,3.85,0,0,1,3.22-1.5,3.79,3.79,0,0,1,3.29,1.59h.11a13.91,13.91,0,0,1-.16-1.86v-4h2.33V16h-1.82l-.41-1.44h-.1A3.72,3.72,0,0,1,288.08,16.21Zm.63-1.87a2.51,2.51,0,0,0,2.08-.81,4.2,4.2,0,0,0,.67-2.62v-.32a4.9,4.9,0,0,0-.67-2.94,2.49,2.49,0,0,0-2.1-.87,2.14,2.14,0,0,0-1.89,1,5.05,5.05,0,0,0-.67,2.84,5,5,0,0,0,.65,2.77A2.16,2.16,0,0,0,288.71,14.34Z"/><path class="cls-4" d="M301.79,16.21a5.3,5.3,0,0,1-4-1.48,5.66,5.66,0,0,1-1.44-4.1,6.23,6.23,0,0,1,1.34-4.22,4.61,4.61,0,0,1,3.67-1.53,4.5,4.5,0,0,1,3.42,1.32A5,5,0,0,1,306,9.82v1.25h-7.29a3.64,3.64,0,0,0,.86,2.45,3,3,0,0,0,2.29.86,8.59,8.59,0,0,0,1.81-.19,9,9,0,0,0,1.79-.61v1.89a7.58,7.58,0,0,1-1.72.58A10.76,10.76,0,0,1,301.79,16.21Zm-.42-9.57a2.34,2.34,0,0,0-1.78.7,3.41,3.41,0,0,0-.8,2.05h5a3,3,0,0,0-.65-2.05A2.22,2.22,0,0,0,301.37,6.64Z"/><path class="cls-4" d="M316,12.9a2.85,2.85,0,0,1-1.16,2.46,5.62,5.62,0,0,1-3.35.85,8,8,0,0,1-3.51-.66v-2a8.53,8.53,0,0,0,3.59.89c1.43,0,2.15-.43,2.15-1.29a1,1,0,0,0-.24-.69,2.8,2.8,0,0,0-.78-.58,13.21,13.21,0,0,0-1.51-.67,7.21,7.21,0,0,1-2.56-1.46,2.69,2.69,0,0,1-.67-1.9,2.49,2.49,0,0,1,1.13-2.18,5.4,5.4,0,0,1,3.09-.78,8.77,8.77,0,0,1,3.65.78l-.76,1.75a8.05,8.05,0,0,0-3-.73c-1.23,0-1.84.35-1.84,1.05a1.06,1.06,0,0,0,.48.87,10.47,10.47,0,0,0,2.09,1,9.74,9.74,0,0,1,2,1A2.63,2.63,0,0,1,316,12.9Z"/><path class="cls-4" d="M365.91,119.18h5.32v7.26a15.83,15.83,0,0,1-2.5.6,17.6,17.6,0,0,1-2.6.18,6.52,6.52,0,0,1-5.06-1.94,7.83,7.83,0,0,1-1.78-5.49,7.32,7.32,0,0,1,2-5.46,7.55,7.55,0,0,1,5.53-2,10.84,10.84,0,0,1,4.3.87l-.84,2a8.32,8.32,0,0,0-3.52-.81,4.75,4.75,0,0,0-3.66,1.46,5.64,5.64,0,0,0-1.34,4,5.92,5.92,0,0,0,1.21,4,4.4,4.4,0,0,0,3.49,1.38,11.51,11.51,0,0,0,2.45-.28v-3.73h-3Z"/><path class="cls-4" d="M384.16,121.53a6,6,0,0,1-1.37,4.19,4.93,4.93,0,0,1-3.83,1.5,5.25,5.25,0,0,1-2.71-.69,4.54,4.54,0,0,1-1.81-2,6.8,6.8,0,0,1-.63-3,5.91,5.91,0,0,1,1.36-4.15,4.93,4.93,0,0,1,3.85-1.49,4.83,4.83,0,0,1,3.76,1.52A5.93,5.93,0,0,1,384.16,121.53Zm-8,0q0,3.8,2.8,3.79t2.77-3.79q0-3.75-2.79-3.75a2.39,2.39,0,0,0-2.12,1A5,5,0,0,0,376.2,121.53Z"/><path class="cls-4" d="M392.42,115.89a3.78,3.78,0,0,1,3.19,1.48,8.18,8.18,0,0,1,0,8.35,4.22,4.22,0,0,1-6.44,0H389l-.43,1.29h-1.74V111.63h2.33v3.66c0,.27,0,.67,0,1.21s-.05.87-.06,1h.1A3.68,3.68,0,0,1,392.42,115.89Zm-.6,1.89a2.35,2.35,0,0,0-2,.83,4.7,4.7,0,0,0-.64,2.76v.16a5.17,5.17,0,0,0,.63,2.9,2.37,2.37,0,0,0,2.07.89,2.09,2.09,0,0,0,1.87-1,5.13,5.13,0,0,0,.64-2.83C394.37,119,393.52,117.78,391.82,117.78Z"/><path class="cls-4" d="M404.23,127.22a5.3,5.3,0,0,1-4-1.49,5.65,5.65,0,0,1-1.44-4.1,6.18,6.18,0,0,1,1.34-4.21,4.61,4.61,0,0,1,3.67-1.53,4.5,4.5,0,0,1,3.42,1.31,5,5,0,0,1,1.25,3.62v1.26h-7.29a3.66,3.66,0,0,0,.87,2.45,3,3,0,0,0,2.28.85,8.61,8.61,0,0,0,1.81-.18,9.73,9.73,0,0,0,1.79-.61v1.89a7.09,7.09,0,0,1-1.72.57A10.7,10.7,0,0,1,404.23,127.22Zm-.42-9.57a2.34,2.34,0,0,0-1.78.7,3.41,3.41,0,0,0-.8,2.05h5a3,3,0,0,0-.65-2.06A2.25,2.25,0,0,0,403.81,117.65Z"/><path class="cls-4" d="M416.67,115.89a6.13,6.13,0,0,1,1.16.09l-.23,2.17a4.34,4.34,0,0,0-1-.12,3,3,0,0,0-2.25.91,3.3,3.3,0,0,0-.87,2.37V127h-2.32V116.08h1.81l.31,1.93h.12a4.34,4.34,0,0,1,1.42-1.55A3.37,3.37,0,0,1,416.67,115.89Z"/><path class="cls-4" d="M429.48,127h-2.33V120.3a2.92,2.92,0,0,0-.51-1.89,2,2,0,0,0-1.62-.63,2.56,2.56,0,0,0-2.15.87,4.78,4.78,0,0,0-.69,2.92V127h-2.32V116.08h1.82l.33,1.44h.11a3.22,3.22,0,0,1,1.41-1.21,4.77,4.77,0,0,1,2-.42q3.93,0,3.93,4Z"/><path class="cls-4" d="M439.56,127l-.46-1.52H439a4.48,4.48,0,0,1-1.59,1.36,5.07,5.07,0,0,1-2.06.36,3.48,3.48,0,0,1-2.52-.87,3.26,3.26,0,0,1-.9-2.46,2.87,2.87,0,0,1,1.25-2.55,7.19,7.19,0,0,1,3.83-.94l1.89-.06v-.59a2.21,2.21,0,0,0-.49-1.57,2,2,0,0,0-1.52-.51,5.36,5.36,0,0,0-1.61.24,11.41,11.41,0,0,0-1.48.59l-.76-1.67a8.67,8.67,0,0,1,1.95-.7,9.07,9.07,0,0,1,2-.24,4.72,4.72,0,0,1,3.15.91,3.53,3.53,0,0,1,1.06,2.85V127Zm-3.46-1.58a2.89,2.89,0,0,0,2-.71,2.56,2.56,0,0,0,.77-2v-1l-1.4.06a4.74,4.74,0,0,0-2.39.55,1.65,1.65,0,0,0-.75,1.5,1.43,1.43,0,0,0,.44,1.13A1.84,1.84,0,0,0,436.1,125.44Z"/><path class="cls-4" d="M454.09,127h-2.33V120.3a2.92,2.92,0,0,0-.51-1.89,2,2,0,0,0-1.62-.63,2.56,2.56,0,0,0-2.15.87,4.78,4.78,0,0,0-.69,2.92V127h-2.32V116.08h1.82l.32,1.44h.12a3.22,3.22,0,0,1,1.41-1.21,4.73,4.73,0,0,1,2-.42q3.94,0,3.94,4Z"/><path class="cls-4" d="M464.64,127h-8.3v-1.43l5.53-7.73h-5.2v-1.78h7.81v1.63l-5.41,7.53h5.57Z"/><path class="cls-4" d="M473.86,127l-.47-1.52h-.08a4.48,4.48,0,0,1-1.59,1.36,5.07,5.07,0,0,1-2.06.36,3.51,3.51,0,0,1-2.52-.87,3.26,3.26,0,0,1-.9-2.46,2.89,2.89,0,0,1,1.25-2.55,7.19,7.19,0,0,1,3.83-.94l1.89-.06v-.59a2.21,2.21,0,0,0-.49-1.57,2,2,0,0,0-1.52-.51,5.41,5.41,0,0,0-1.61.24,12,12,0,0,0-1.48.59l-.75-1.67a8.42,8.42,0,0,1,1.94-.7,9.14,9.14,0,0,1,2-.24,4.72,4.72,0,0,1,3.15.91,3.53,3.53,0,0,1,1.07,2.85V127Zm-3.47-1.58a2.91,2.91,0,0,0,2-.71,2.56,2.56,0,0,0,.76-2v-1l-1.4.06a4.77,4.77,0,0,0-2.39.55,1.65,1.65,0,0,0-.75,1.5,1.46,1.46,0,0,0,.44,1.13A1.84,1.84,0,0,0,470.39,125.44Z"/><path class="cls-4" d="M482.36,116.08h2.53l2.23,6.2a12.14,12.14,0,0,1,.67,2.5h.08a9.72,9.72,0,0,1,.33-1.32c.16-.52,1-3,2.51-7.38h2.51l-4.68,12.4q-1.28,3.41-4.25,3.41a6.69,6.69,0,0,1-1.5-.17v-1.84A5.32,5.32,0,0,0,484,130a2.46,2.46,0,0,0,2.37-1.95l.4-1Z"/><path class="cls-4" d="M374.65,151.33h-2.9l-7.11-11.52h-.08l.05.64c.09,1.23.14,2.35.14,3.36v7.52h-2.14V136.87h2.86l7.1,11.46h.05c0-.15,0-.7-.07-1.65s-.06-1.7-.06-2.23v-7.58h2.16Z"/><path class="cls-4" d="M387.93,145.84a6,6,0,0,1-1.38,4.19,4.93,4.93,0,0,1-3.83,1.5,5.28,5.28,0,0,1-2.71-.69,4.6,4.6,0,0,1-1.81-2,6.83,6.83,0,0,1-.63-3,5.87,5.87,0,0,1,1.37-4.15,4.93,4.93,0,0,1,3.84-1.5,4.82,4.82,0,0,1,3.76,1.53A5.92,5.92,0,0,1,387.93,145.84Zm-8,0c0,2.53.94,3.79,2.8,3.79s2.77-1.26,2.77-3.79-.93-3.75-2.79-3.75a2.4,2.4,0,0,0-2.12,1A4.92,4.92,0,0,0,380,145.84Z"/><path class="cls-4" d="M396.15,140.19a6,6,0,0,1,1.15.1l-.22,2.17a4.4,4.4,0,0,0-1-.12,3,3,0,0,0-2.26.91,3.27,3.27,0,0,0-.87,2.36v5.72H390.6V140.39h1.82l.3,1.93h.12a4.34,4.34,0,0,1,1.42-1.55A3.34,3.34,0,0,1,396.15,140.19Z"/><path class="cls-4" d="M408.55,151.33h-2.34v-6.74a3,3,0,0,0-.47-1.88,1.76,1.76,0,0,0-1.48-.62,2.26,2.26,0,0,0-2,.88,5.1,5.1,0,0,0-.63,2.91v5.45h-2.32V140.39h1.82l.33,1.44h.12a2.93,2.93,0,0,1,1.32-1.21,4.28,4.28,0,0,1,1.9-.43c1.68,0,2.8.58,3.34,1.72h.16a3.28,3.28,0,0,1,1.37-1.26,4.35,4.35,0,0,1,2-.46,3.69,3.69,0,0,1,2.86,1,4.43,4.43,0,0,1,.89,3v7.13h-2.32v-6.74a3,3,0,0,0-.48-1.88,1.78,1.78,0,0,0-1.49-.62,2.29,2.29,0,0,0-2,.85,4.33,4.33,0,0,0-.63,2.59Z"/><path class="cls-4" d="M425.54,151.33l-.46-1.52H425a4.59,4.59,0,0,1-1.59,1.36,5.07,5.07,0,0,1-2.06.36,3.48,3.48,0,0,1-2.52-.87,3.26,3.26,0,0,1-.9-2.46,2.9,2.9,0,0,1,1.25-2.56,7.37,7.37,0,0,1,3.83-.94l1.89-.06v-.58a2.21,2.21,0,0,0-.49-1.57,2,2,0,0,0-1.52-.52,5.37,5.37,0,0,0-1.61.25,13,13,0,0,0-1.48.58l-.76-1.66a8.21,8.21,0,0,1,1.95-.7,8.55,8.55,0,0,1,2-.25,4.77,4.77,0,0,1,3.15.91A3.56,3.56,0,0,1,427.2,144v7.37Zm-3.46-1.58a2.89,2.89,0,0,0,2-.71,2.56,2.56,0,0,0,.77-2v-.95l-1.4.06a4.74,4.74,0,0,0-2.39.55,1.65,1.65,0,0,0-.75,1.5,1.47,1.47,0,0,0,.43,1.13A1.93,1.93,0,0,0,422.08,149.75Z"/><path class="cls-4" d="M434.52,149.65a5.54,5.54,0,0,0,1.7-.27v1.75a4.23,4.23,0,0,1-1,.29,7.47,7.47,0,0,1-1.26.11c-2.2,0-3.31-1.16-3.31-3.48v-5.9h-1.49v-1l1.6-.85.8-2.31H433v2.43h3.11v1.76H433V148a1.65,1.65,0,0,0,.42,1.24A1.52,1.52,0,0,0,434.52,149.65Z"/><path class="cls-4" d="M438.27,137.49a1.34,1.34,0,0,1,.34-1,1.37,1.37,0,0,1,1-.33,1.17,1.17,0,0,1,1.29,1.29,1.18,1.18,0,0,1-1.29,1.28,1.33,1.33,0,0,1-1-.34A1.3,1.3,0,0,1,438.27,137.49Zm2.46,13.84h-2.32V140.39h2.32Z"/><path class="cls-4" d="M446.55,151.33l-4.15-10.94h2.45l2.22,6.36a12.29,12.29,0,0,1,.7,2.59h.08a17.73,17.73,0,0,1,.69-2.59l2.22-6.36h2.48l-4.18,10.94Z"/><path class="cls-4" d="M454.76,137.49a1.3,1.3,0,0,1,.34-1,1.35,1.35,0,0,1,1-.33,1.32,1.32,0,0,1,.95.33,1.3,1.3,0,0,1,.34,1,1.26,1.26,0,0,1-.34.94,1.29,1.29,0,0,1-.95.34,1.31,1.31,0,0,1-1-.34A1.26,1.26,0,0,1,454.76,137.49Zm2.46,13.84H454.9V140.39h2.32Z"/><path class="cls-4" d="M464.24,151.53a3.84,3.84,0,0,1-3.2-1.48,8.11,8.11,0,0,1,0-8.36,3.82,3.82,0,0,1,3.21-1.5,3.76,3.76,0,0,1,3.29,1.6h.12a14.52,14.52,0,0,1-.17-1.86v-4h2.33v15.39H468l-.4-1.43h-.11A3.74,3.74,0,0,1,464.24,151.53Zm.62-1.88a2.53,2.53,0,0,0,2.09-.81,4.24,4.24,0,0,0,.67-2.61v-.33A5,5,0,0,0,467,143a2.51,2.51,0,0,0-2.11-.87,2.12,2.12,0,0,0-1.89,1,5.08,5.08,0,0,0-.66,2.83,5,5,0,0,0,.64,2.78A2.18,2.18,0,0,0,464.86,149.65Z"/><path class="cls-4" d="M480,151.33l-.46-1.52h-.08a4.59,4.59,0,0,1-1.59,1.36,5.11,5.11,0,0,1-2.06.36,3.48,3.48,0,0,1-2.52-.87,3.26,3.26,0,0,1-.9-2.46,2.9,2.9,0,0,1,1.25-2.56,7.37,7.37,0,0,1,3.83-.94l1.89-.06v-.58a2.21,2.21,0,0,0-.49-1.57,2,2,0,0,0-1.52-.52,5.37,5.37,0,0,0-1.61.25,13,13,0,0,0-1.48.58l-.76-1.66a8.21,8.21,0,0,1,1.95-.7,8.55,8.55,0,0,1,2-.25,4.77,4.77,0,0,1,3.15.91,3.56,3.56,0,0,1,1.06,2.86v7.37Zm-3.46-1.58a2.89,2.89,0,0,0,2-.71,2.56,2.56,0,0,0,.77-2v-.95l-1.41.06a4.72,4.72,0,0,0-2.38.55,1.65,1.65,0,0,0-.75,1.5,1.47,1.47,0,0,0,.43,1.13A1.92,1.92,0,0,0,476.55,149.75Z"/><path class="cls-4" d="M488.61,151.53a3.84,3.84,0,0,1-3.2-1.48,8.17,8.17,0,0,1,0-8.36,3.83,3.83,0,0,1,3.22-1.5,3.76,3.76,0,0,1,3.28,1.6h.12a14.52,14.52,0,0,1-.17-1.86v-4h2.34v15.39H492.4L492,149.9h-.11A3.73,3.73,0,0,1,488.61,151.53Zm.62-1.88a2.53,2.53,0,0,0,2.09-.81,4.24,4.24,0,0,0,.67-2.61v-.33a4.9,4.9,0,0,0-.67-2.94,2.5,2.5,0,0,0-2.11-.87,2.12,2.12,0,0,0-1.89,1,5.08,5.08,0,0,0-.66,2.83,5,5,0,0,0,.64,2.78A2.18,2.18,0,0,0,489.23,149.65Z"/><path class="cls-4" d="M350.65,256.39a7.22,7.22,0,0,1-2,5.47,8,8,0,0,1-5.73,1.89h-4V249.29h4.47a7.4,7.4,0,0,1,5.37,1.86A7,7,0,0,1,350.65,256.39Zm-2.5.08q0-5.21-4.85-5.2h-2.05v10.5h1.68Q348.15,261.77,348.15,256.47Z"/><path class="cls-4" d="M360.35,263.75l-.47-1.52h-.08a4.32,4.32,0,0,1-1.59,1.36,5,5,0,0,1-2.06.36,3.47,3.47,0,0,1-2.51-.87,3.23,3.23,0,0,1-.91-2.46,2.88,2.88,0,0,1,1.26-2.55,7.16,7.16,0,0,1,3.83-.94l1.89-.06v-.59a2.23,2.23,0,0,0-.49-1.56,2,2,0,0,0-1.52-.52,5.07,5.07,0,0,0-1.61.25,10.7,10.7,0,0,0-1.49.58l-.75-1.66a7.92,7.92,0,0,1,1.95-.71,9,9,0,0,1,2-.24,4.72,4.72,0,0,1,3.15.91,3.55,3.55,0,0,1,1.06,2.86v7.36Zm-3.46-1.58a2.88,2.88,0,0,0,2-.7,2.6,2.6,0,0,0,.77-2v-1l-1.41.06a4.8,4.8,0,0,0-2.39.55,1.69,1.69,0,0,0-.74,1.5,1.46,1.46,0,0,0,.43,1.13A1.87,1.87,0,0,0,356.89,262.17Z"/><path class="cls-4" d="M369.33,262.07a5.9,5.9,0,0,0,1.7-.26v1.75a5.24,5.24,0,0,1-1,.28,7.47,7.47,0,0,1-1.26.11q-3.31,0-3.31-3.48v-5.89H364v-1l1.6-.85.79-2.32h1.44v2.44h3.11v1.76h-3.11v5.85a1.63,1.63,0,0,0,.42,1.24A1.52,1.52,0,0,0,369.33,262.07Z"/><path class="cls-4" d="M382.92,258.27a6,6,0,0,1-1.37,4.18,5,5,0,0,1-3.83,1.5,5.23,5.23,0,0,1-2.71-.69,4.49,4.49,0,0,1-1.81-2,6.63,6.63,0,0,1-.64-3,5.94,5.94,0,0,1,1.37-4.16,4.93,4.93,0,0,1,3.85-1.49,4.83,4.83,0,0,1,3.76,1.53A5.9,5.9,0,0,1,382.92,258.27Zm-8,0q0,3.78,2.8,3.78c1.84,0,2.77-1.26,2.77-3.78s-.93-3.75-2.79-3.75a2.35,2.35,0,0,0-2.12,1A4.9,4.9,0,0,0,375,258.27Z"/><path class="cls-4" d="M392.94,260.64a2.86,2.86,0,0,1-1.17,2.46,5.59,5.59,0,0,1-3.34.85,7.9,7.9,0,0,1-3.51-.66v-2a8.49,8.49,0,0,0,3.59.89c1.43,0,2.14-.43,2.14-1.29a1,1,0,0,0-.23-.7,3,3,0,0,0-.78-.57,13.49,13.49,0,0,0-1.52-.67,6.9,6.9,0,0,1-2.55-1.47,2.67,2.67,0,0,1-.67-1.9,2.51,2.51,0,0,1,1.13-2.18,5.44,5.44,0,0,1,3.08-.77,8.74,8.74,0,0,1,3.65.78l-.75,1.75a8.05,8.05,0,0,0-3-.73c-1.22,0-1.84.35-1.84,1.05a1.06,1.06,0,0,0,.48.87,11.29,11.29,0,0,0,2.1,1,9.1,9.1,0,0,1,2,1,2.77,2.77,0,0,1,.91,1A2.87,2.87,0,0,1,392.94,260.64Z"/><path class="cls-4" d="M13.56,263.79H11.2V251.36H7v-2H17.82v2H13.56Z"/><path class="cls-4" d="M24.56,264a5.3,5.3,0,0,1-4-1.49,5.66,5.66,0,0,1-1.44-4.1,6.23,6.23,0,0,1,1.34-4.22,4.61,4.61,0,0,1,3.67-1.53A4.5,4.5,0,0,1,27.56,254a5,5,0,0,1,1.26,3.62v1.25H21.53a3.59,3.59,0,0,0,.86,2.45,3,3,0,0,0,2.28.86,8,8,0,0,0,1.81-.19,9.65,9.65,0,0,0,1.79-.6v1.88a7.12,7.12,0,0,1-1.72.58A10.7,10.7,0,0,1,24.56,264Zm-.42-9.58a2.38,2.38,0,0,0-1.78.7,3.35,3.35,0,0,0-.79,2.05h5a3,3,0,0,0-.65-2.05A2.21,2.21,0,0,0,24.14,254.41Z"/><path class="cls-4" d="M35.87,264a4.8,4.8,0,0,1-3.77-1.45,6,6,0,0,1-1.3-4.16,6.11,6.11,0,0,1,1.35-4.25,5.06,5.06,0,0,1,3.91-1.48,7.27,7.27,0,0,1,3.11.64l-.7,1.87a7,7,0,0,0-2.43-.57c-1.9,0-2.84,1.26-2.84,3.77a4.51,4.51,0,0,0,.7,2.76,2.47,2.47,0,0,0,2.08.93,6,6,0,0,0,2.93-.77v2a4.41,4.41,0,0,1-1.33.53A8.28,8.28,0,0,1,35.87,264Z"/><path class="cls-4" d="M51.11,263.79H48.78v-6.73a3,3,0,0,0-.51-1.89,2,2,0,0,0-1.62-.62,2.59,2.59,0,0,0-2.16.87,4.84,4.84,0,0,0-.68,2.92v5.45H41.49V252.85h1.82l.32,1.43h.12a3.2,3.2,0,0,1,1.41-1.2,4.59,4.59,0,0,1,2-.43q3.94,0,3.94,4Z"/><path class="cls-4" d="M64.05,258.3a5.94,5.94,0,0,1-1.38,4.18A4.92,4.92,0,0,1,58.85,264a5.14,5.14,0,0,1-2.71-.7,4.6,4.6,0,0,1-1.82-2,6.83,6.83,0,0,1-.63-3,6,6,0,0,1,1.37-4.16,5,5,0,0,1,3.84-1.49,4.8,4.8,0,0,1,3.76,1.53A5.87,5.87,0,0,1,64.05,258.3Zm-8,0c0,2.52.93,3.79,2.8,3.79s2.76-1.27,2.76-3.79-.93-3.75-2.79-3.75a2.38,2.38,0,0,0-2.12,1A5,5,0,0,0,56.09,258.3Z"/><path class="cls-4" d="M69,263.79H66.72V248.4H69Z"/><path class="cls-4" d="M82.07,258.3a5.94,5.94,0,0,1-1.38,4.18A4.92,4.92,0,0,1,76.87,264a5.14,5.14,0,0,1-2.71-.7,4.52,4.52,0,0,1-1.81-2,6.7,6.7,0,0,1-.64-3,6,6,0,0,1,1.37-4.16,5,5,0,0,1,3.85-1.49,4.83,4.83,0,0,1,3.76,1.53A5.91,5.91,0,0,1,82.07,258.3Zm-8,0c0,2.52.93,3.79,2.8,3.79s2.77-1.27,2.77-3.79-.93-3.75-2.79-3.75a2.35,2.35,0,0,0-2.12,1A4.92,4.92,0,0,0,74.11,258.3Z"/><path class="cls-4" d="M94,252.85v1.27l-1.87.35a2.93,2.93,0,0,1,.42.85,3.16,3.16,0,0,1,.17,1.07,3.29,3.29,0,0,1-1.16,2.66,4.87,4.87,0,0,1-3.22,1,5.44,5.44,0,0,1-.95-.08,1.31,1.31,0,0,0-.75,1.09.6.6,0,0,0,.35.56,3,3,0,0,0,1.29.19h1.91a4.27,4.27,0,0,1,2.75.77,2.72,2.72,0,0,1,.94,2.23,3.25,3.25,0,0,1-1.53,2.87,8.12,8.12,0,0,1-4.43,1,6.11,6.11,0,0,1-3.42-.79,2.55,2.55,0,0,1-1.17-2.25,2.43,2.43,0,0,1,.63-1.7,3.43,3.43,0,0,1,1.79-1,1.83,1.83,0,0,1-.77-.64,1.61,1.61,0,0,1-.3-.93,1.59,1.59,0,0,1,.35-1,3.66,3.66,0,0,1,1-.84,3.08,3.08,0,0,1-1.38-1.2,3.89,3.89,0,0,1,.59-4.69,4.75,4.75,0,0,1,3.2-1,8.27,8.27,0,0,1,1,.06,6.55,6.55,0,0,1,.77.14Zm-8.6,12.64a1.29,1.29,0,0,0,.68,1.16,3.73,3.73,0,0,0,1.9.4,5.78,5.78,0,0,0,2.83-.54,1.64,1.64,0,0,0,.93-1.45,1.08,1.08,0,0,0-.51-1,4.1,4.1,0,0,0-1.89-.3H87.56a2.43,2.43,0,0,0-1.59.47A1.53,1.53,0,0,0,85.38,265.49Zm1-9.1a2.22,2.22,0,0,0,.53,1.58,2,2,0,0,0,1.52.56c1.34,0,2-.72,2-2.16a2.48,2.48,0,0,0-.5-1.65,1.93,1.93,0,0,0-1.52-.58,2,2,0,0,0-1.53.58A2.44,2.44,0,0,0,86.38,256.39Z"/><path class="cls-4" d="M95.89,251.51v-.24c.37-.47.76-1,1.16-1.55s.71-1.05.94-1.45h2.7v.21A19.3,19.3,0,0,1,99.16,250a22,22,0,0,1-1.73,1.48Zm2.44,12.28H96V252.85h2.32Z"/><path class="cls-4" d="M108.5,263.79l-.47-1.53H108a4.32,4.32,0,0,1-1.59,1.36,4.87,4.87,0,0,1-2.06.37,3.47,3.47,0,0,1-2.51-.87,3.27,3.27,0,0,1-.91-2.47,2.89,2.89,0,0,1,1.26-2.55,7.25,7.25,0,0,1,3.83-.94l1.89-.06v-.58a2.25,2.25,0,0,0-.49-1.57,2,2,0,0,0-1.52-.52,5.18,5.18,0,0,0-1.62.25,12.62,12.62,0,0,0-1.48.58L102,253.6a7.92,7.92,0,0,1,2-.71,9,9,0,0,1,2-.24,4.72,4.72,0,0,1,3.15.91,3.56,3.56,0,0,1,1.06,2.86v7.37ZM105,262.21a2.89,2.89,0,0,0,2-.71,2.56,2.56,0,0,0,.77-2v-.95l-1.41.05a4.91,4.91,0,0,0-2.39.55,1.67,1.67,0,0,0-.74,1.5,1.44,1.44,0,0,0,.43,1.13A1.87,1.87,0,0,0,105,262.21Z"/></svg>