<svg id="Capa_1" data-name="Capa 1" xmlns="http://www.w3.org/2000/svg" viewBox="0 0 41.5 41.33"><defs><style>.cls-1{fill:#7bc082;}.cls-2{fill:#fff;}</style></defs><title>Mesa de trabajo 3 copia</title><circle class="cls-1" cx="20.77" cy="20.68" r="20.51"/><path class="cls-2" d="M20,24a5.06,5.06,0,0,1,1.31,1.57,5.83,5.83,0,0,0,1.55,1.75,5.57,5.57,0,0,0,2.65,1.15,4.15,4.15,0,0,1,.88.22,1.29,1.29,0,0,1,.6,1.48,1.18,1.18,0,0,1-1.32,1,5,5,0,0,1-2.21-.52,15.9,15.9,0,0,1-2.15-1.32,2.45,2.45,0,0,0-.51-.36v5.13l-.33-.2a13.82,13.82,0,0,1-6-7.22A3.89,3.89,0,0,1,15,24.35a2.6,2.6,0,0,1,2.49-1.07A3.54,3.54,0,0,1,20,24Zm4.16-5.06c.78,1.34,1.54,2.63,2.31,4a13,13,0,0,1,5.56-1L27.49,14A14.09,14.09,0,0,1,24.18,18.91Zm-.59.4c-.6.4-1.19.76-1.74,1.17a2.36,2.36,0,0,0-.63,3,2,2,0,0,0,2.65,1.13c.22.63.44,1.24.66,1.8.09.22.27.36.37.32s.78-.54.61-.91c0-.11-.68-1.64-.72-1.74.37-.24.73-.5,1.12-.75Zm6.59-5.93c0,.15-.14.77-.16.92,2.22,1,2.93,2.22,2.91,5l.84.24A5.23,5.23,0,0,0,30.18,13.38ZM31,11.55c0,.2-.15,1-.16,1.21,2.73,1.37,3.85,3.29,3.68,6.69l1,.34C36.21,15.91,33.6,12.12,31,11.55Zm-1.14,3.54-.16.84a2.74,2.74,0,0,1,1.71,2.94l.8.23A3.46,3.46,0,0,0,29.85,15.09ZM18.76,17.63A6.89,6.89,0,0,1,15,19.83a3,3,0,0,0,.13,1.05,2.46,2.46,0,0,0,2.1,1.72,2.5,2.5,0,0,0,2.54-.89,2.65,2.65,0,0,0,.48-2.56A2.32,2.32,0,0,0,18.76,17.63ZM13.69,7.5a5.63,5.63,0,1,0,5.62,5.63A5.63,5.63,0,0,0,13.69,7.5ZM15.39,16a3.05,3.05,0,0,1-2,.62,4,4,0,0,1-1.85-.37V15a3.59,3.59,0,0,0,.86.32,3.54,3.54,0,0,0,.94.13c.89,0,1.33-.37,1.33-1.09s-.46-1-1.38-1a3.86,3.86,0,0,0-.55,0c-.2,0-.36.07-.49.11l-.58-.31.26-3.51h3.74v1.23H13.17L13,12.24l.17,0a3.48,3.48,0,0,1,.71-.06,2.21,2.21,0,0,1,1.59.56,2,2,0,0,1,.59,1.53A2.26,2.26,0,0,1,15.39,16Z"/></svg>