<svg id="Capa_1" data-name="Capa 1" xmlns="http://www.w3.org/2000/svg" viewBox="0 0 41.5 41.33"><defs><style>.cls-1{fill:#7bc082;}.cls-2{fill:#fff;}</style></defs><title>Mesa de trabajo 3 copia 2</title><circle class="cls-1" cx="20.66" cy="20.74" r="20.51"/><path class="cls-2" d="M22.38,18.19a2.69,2.69,0,0,1,.49-1A4.56,4.56,0,0,0,19,16.9a5,5,0,0,0-2.87,2.36,4.58,4.58,0,0,0-.32,3.86A5.1,5.1,0,0,0,18.26,26a4.58,4.58,0,0,0,3.84.3.84.84,0,0,0,.14-.72c0-.35-.23-.45-.58-.29a3.55,3.55,0,0,1-3-.32,3.84,3.84,0,0,1-1.84-2.22,3.61,3.61,0,0,1,.32-3,4,4,0,0,1,2.26-1.86A3.56,3.56,0,0,1,22.38,18.19Z"/><path class="cls-2" d="M22,19.4l1.13,1.22L19.8,23.93A5.13,5.13,0,0,1,18.67,23a8,8,0,0,1-1-1.17l1.05-1,.93,1Z"/><path class="cls-2" d="M18.67,27.45a2.18,2.18,0,1,0,2.18,2.17A2.17,2.17,0,0,0,18.67,27.45Zm0,3.27a1.1,1.1,0,1,1,1.1-1.1A1.1,1.1,0,0,1,18.67,30.72Z"/><path class="cls-2" d="M21,11.29a2.17,2.17,0,1,0,2.17,2.17A2.17,2.17,0,0,0,21,11.29Zm0,3.27a1.1,1.1,0,1,1,1.1-1.1A1.1,1.1,0,0,1,21,14.56Z"/><circle class="cls-2" cx="15.63" cy="29.95" r="0.56"/><circle class="cls-2" cx="14.34" cy="29.17" r="0.56"/><circle class="cls-2" cx="13.56" cy="28.01" r="0.56"/><circle class="cls-2" cx="12.92" cy="26.59" r="0.56"/><circle class="cls-2" cx="13.05" cy="25.16" r="0.56"/><circle class="cls-2" cx="13.82" cy="23.87" r="0.56"/><circle class="cls-2" cx="14.86" cy="22.83" r="0.56"/><circle class="cls-2" cx="23.91" cy="13.13" r="0.56"/><circle class="cls-2" cx="25.2" cy="13.26" r="0.56"/><circle class="cls-2" cx="26.63" cy="13.39" r="0.56"/><circle class="cls-2" cx="27.92" cy="13.91" r="0.56"/><circle class="cls-2" cx="29.08" cy="14.82" r="0.56"/><circle class="cls-2" cx="29.99" cy="15.98" r="0.56"/><circle class="cls-2" cx="30.38" cy="17.4" r="0.56"/><circle class="cls-2" cx="30.12" cy="18.82" r="0.56"/><circle class="cls-2" cx="29.47" cy="20.25" r="0.56"/><path class="cls-2" d="M24.54,20.89c.1.54.22,1,.7,1s-.11-.6,0-1h.9a1,1,0,0,1-.06.25c-.18.27-.34.75.06.76.69,0,.19-1.33,1.36-.89a1.52,1.52,0,0,1,1,1.54c0,1,0,1.93,0,2.9a3.22,3.22,0,0,1-.68,1.94,2.13,2.13,0,0,0-.34.93c-.18.91-.31,1.82-.47,2.74-.13.76-.36.95-1.14.95-1.23,0-1.32-.07-1.54-1.28-.1-.56-.17-1.12-.27-1.68a4.64,4.64,0,0,0-.7-2.06A3.36,3.36,0,0,1,23,25.33c-.07-.88,0-1.77,0-2.66A1.64,1.64,0,0,1,24.54,20.89Z"/><path class="cls-2" d="M31.49,24.35c.14,0-.11.38-.11.53s.25.24.35.11,0-.65.48-.55.89.34.89.8A7.46,7.46,0,0,1,32.61,29a6.63,6.63,0,0,0-.46,2.13c-.13,1-.5,1-1.33.89a.68.68,0,0,1-.47-.53c-.08-2.39-.94-2.63-1.05-4-.05-.6,0-1.21,0-1.81s.26-1,1-1.23c.19.09.19.7.4.69.53,0,.07-.61.28-.73Z"/><path class="cls-2" d="M32.72,22.49a1.55,1.55,0,1,1-3.1,0,1.58,1.58,0,0,1,1.58-1.52A1.55,1.55,0,0,1,32.72,22.49Z"/><path class="cls-2" d="M28,18.14a2.25,2.25,0,1,1-2.21-2.29A2.25,2.25,0,0,1,28,18.14Z"/><path class="cls-2" d="M12.55,7.06a5.73,5.73,0,1,0,5.72,5.72A5.73,5.73,0,0,0,12.55,7.06Zm2.2,7.74h-.84v1.45H12.46V14.8h-3v-1l3.07-4.53h1.37v4.41h.84Z"/><path class="cls-2" d="M12.06,11.71l-1.29,1.94h1.69V12.46c0-.2,0-.49,0-.86s0-.6,0-.66h0A6.43,6.43,0,0,1,12.06,11.71Z"/></svg>