<svg id="Capa_1" data-name="Capa 1" xmlns="http://www.w3.org/2000/svg" viewBox="0 0 41.5 41.33"><defs><style>.cls-1{fill:#7bc082;}.cls-2{fill:#fff;}</style></defs><title>Mesa de trabajo 3 copia 4</title><circle class="cls-1" cx="20.85" cy="20.66" r="20.51"/><path class="cls-2" d="M19.8,26.84c0,.3-.15.44-.45.44h-.61a.39.39,0,0,1-.44-.44.39.39,0,0,1,.44-.45h.61A.4.4,0,0,1,19.8,26.84Zm-.45-2.67h-.61a.44.44,0,1,1,0-.88h.63A.44.44,0,1,1,19.35,24.17Zm0-3h-.63a.45.45,0,1,1,0-.89h.63A.45.45,0,1,1,19.39,21.13Zm14.72,1.58a5.63,5.63,0,0,0-1.54-3,5.36,5.36,0,0,0-3-1.62v-1.9a1.44,1.44,0,0,0-1.4-1.52H26.88V13.14c0-.77-.51-1.15-1.27-1.15H20.66a11,11,0,0,1,.06,1.14h3.93a.9.9,0,0,1,1,.89v.64h-5.2a6.11,6.11,0,0,1-.65,1.14h7.56a1,1,0,0,1,1,1v1.26a2.72,2.72,0,0,0-.68,0A5.61,5.61,0,0,0,24,20.24h-3c-.64,0-.76.89,0,.89h2.41a5.36,5.36,0,0,0-.51,2.16h-1.9a.45.45,0,1,0,0,.89h1.9a7.22,7.22,0,0,0,.63,2.15H20.92a.51.51,0,1,0,0,1h3.17a5.19,5.19,0,0,0,4.19,2v.76c0,.51-.26.89-1,.89H18.51a.94.94,0,0,1-1-1V17.83a3.15,3.15,0,0,1-1.27.38V28.36h-.38a.93.93,0,0,1-1-1v-9.1a2.7,2.7,0,0,1-1.27-.14v10A1.63,1.63,0,0,0,15,29.63h1.27V31a1.43,1.43,0,0,0,1.55,1.27H28a1.55,1.55,0,0,0,1.55-1.53V29.25A5.63,5.63,0,0,0,33.16,27,5.31,5.31,0,0,0,34.11,22.71Zm-2,3.68a4.35,4.35,0,0,1-2.89,1.7,4.06,4.06,0,0,1-3.36-.83,4.5,4.5,0,0,1-1.74-2.89A4.17,4.17,0,0,1,25,21a4.53,4.53,0,0,1,2.89-1.74,4.16,4.16,0,0,1,3.36.89A4.4,4.4,0,0,1,32.9,23,4.07,4.07,0,0,1,32.07,26.39ZM21,17.32H24.6a.45.45,0,1,1,0,.89H21C20.28,18.21,20.28,17.32,21,17.32Zm9.35,7.46a1.46,1.46,0,0,1-1.29,1.61V27h-.81v-.53a1.84,1.84,0,0,1-1.54-1.21L28,24.61a.71.71,0,0,0,.69.49c.19,0,.28-.07.28-.2s-.16-.27-.5-.41a3.68,3.68,0,0,1-1-.6,1.33,1.33,0,0,1-.51-1.09,1.42,1.42,0,0,1,1.38-1.54v-.41h.81v.41a1.81,1.81,0,0,1,1.25,1.17L29.18,23c-.16-.33-.35-.49-.57-.49s-.28.08-.28.24.17.27.52.41a3.85,3.85,0,0,1,1,.59A1.22,1.22,0,0,1,30.39,24.78ZM15.63,13.06a1.08,1.08,0,0,1,.21.7,1.23,1.23,0,0,1-.23.8.76.76,0,0,1-.64.28.78.78,0,0,1-.66-.34,1.35,1.35,0,0,1-.27-.85.83.83,0,0,1,.28-.6A1,1,0,0,1,15,12.8.74.74,0,0,1,15.63,13.06Zm-.58-5.34a5,5,0,1,0,5,5A5,5,0,0,0,15.05,7.72Zm1.49,7.59a2.06,2.06,0,0,1-1.54.57,2.2,2.2,0,0,1-1.19-.32,2,2,0,0,1-.78-.92,3.55,3.55,0,0,1-.28-1.46,4,4,0,0,1,.78-2.71,2.89,2.89,0,0,1,2.31-.89,4.36,4.36,0,0,1,.82.06v1a3.16,3.16,0,0,0-.74-.08,2.44,2.44,0,0,0-1.09.2,1.34,1.34,0,0,0-.63.59A2.7,2.7,0,0,0,14,12.52H14a1.42,1.42,0,0,1,1.33-.72,1.67,1.67,0,0,1,1.3.52,2,2,0,0,1,.46,1.43A2.17,2.17,0,0,1,16.54,15.31Z"/></svg>