<svg id="Capa_1" data-name="Capa 1" xmlns="http://www.w3.org/2000/svg" viewBox="0 0 41.5 41.33"><defs><style>.cls-1{fill:#7bc082;}.cls-2{fill:#fff;}</style></defs><title>Mesa de trabajo 3 copia 3</title><circle class="cls-1" cx="20.89" cy="20.76" r="20.51"/><path class="cls-2" d="M28.13,27.57A27.14,27.14,0,0,1,27,24.64c-.19-1-.46-3.7-.51-4a.92.92,0,1,0-1.83.2c0,1.08,0,2.15,0,3.23a1.38,1.38,0,0,1-1.52,1.45,2.51,2.51,0,0,1-1.86-.91,5.23,5.23,0,0,1-1.33-3.28s-.46-1.17-.52-1.28c-.41.36-.75.4-1,2.88-.42,3.36,2.93,7.34,3.1,7.71a2.53,2.53,0,0,1,.37,1.08v2.18c0,.62,4.78.82,5.07.33a11.06,11.06,0,0,0,.06-2.5.47.47,0,0,1,.2-.49A3.22,3.22,0,0,0,28.13,27.57Zm5.18-5.75c-.12-.26-6.57-13.74-6.6-13.77A1,1,0,0,0,25.62,8l-5.23,2.49a6.63,6.63,0,0,1,.86,3.28,6.79,6.79,0,0,1-1.85,4.65c0,.1,2.56,6.26,3.46,6.14.71.08,1.15-.35,1.09-1.31a20.1,20.1,0,0,1,0-3.29c.16-1.73,3.11-1.74,3.26.05.06.73.34,3.26.45,3.78a10.54,10.54,0,0,0,.45,1.34c.21-.08,4.05-2,4.57-2.23C33,22.72,33.53,22.36,33.31,21.82ZM24.07,16S22.7,13.29,22,11.86s1.49-1.87,1.89-1c.26.56,1.89,4.4,1.89,4.4ZM26,17.87c-.64.31-1.27.29-1.54-.28s.08-1.08.72-1.39,1.26-.24,1.52.3S26.62,17.56,26,17.87Z"/><path class="cls-2" d="M15,8.28a5.53,5.53,0,1,0,5.53,5.52A5.53,5.53,0,0,0,15,8.28Zm2,8.3a3.25,3.25,0,0,1-2,.55,4.81,4.81,0,0,1-2-.37V15.55a4.24,4.24,0,0,0,.87.32,3.71,3.71,0,0,0,.93.12,1.85,1.85,0,0,0,1-.24.88.88,0,0,0,.33-.77.69.69,0,0,0-.38-.67,2.81,2.81,0,0,0-1.25-.2h-.51V13h.52a2.37,2.37,0,0,0,1.15-.21.72.72,0,0,0,.37-.7c0-.51-.32-.77-1-.77a2.29,2.29,0,0,0-.67.11,3.21,3.21,0,0,0-.77.38l-.66-1a3.64,3.64,0,0,1,2.21-.67A2.82,2.82,0,0,1,17,10.6a1.37,1.37,0,0,1,.6,1.18,1.55,1.55,0,0,1-.38,1.08,2,2,0,0,1-1.08.61v0a2.11,2.11,0,0,1,1.24.5,1.39,1.39,0,0,1,.42,1.06A1.8,1.8,0,0,1,17.08,16.58Z"/></svg>