<svg id="Capa_1" data-name="Capa 1" xmlns="http://www.w3.org/2000/svg" viewBox="0 0 41.5 41.33"><defs><style>.cls-1{fill:#7bc082;}.cls-2{fill:#fff;}</style></defs><title>Mesa de trabajo 3</title><circle class="cls-1" cx="20.7" cy="20.63" r="20.51"/><path class="cls-2" d="M13.14,6.91a5,5,0,1,0,5,5A5,5,0,0,0,13.14,6.91Zm1,8.2h-1.3V11.55l0-.58,0-.64-.45.43-.71.56-.62-.78L13,9h1.07Zm18.1,2.22c-.06-.08-3.16-3.26-3.22-3.32a.38.38,0,0,0-.28-.11H24.26c-.89,0-1.78,0-1.91,1.4h-.76A1.6,1.6,0,0,0,19.81,17h0s0-.09,0,0h-.89a2,2,0,0,0-1.46-1.26,5.51,5.51,0,0,1-2.81,1.74,2.38,2.38,0,0,0,0,.46,2.28,2.28,0,0,0,2.28,2.29A2.16,2.16,0,0,0,19.05,18c.28,0,.77,0,1.27,0h2.41c0,.39,0,.84,0,1.24A1.64,1.64,0,0,0,24.19,21c.15,0,1.3,0,1.47,0V24.7c0,3.57,0,5.26,0,5.34,0,.35,0,.64-1.15.64H20.57c-.38,0-.63.23-.63.5s.25.51.63.51h4.2c1.78,0,1.9-.76,1.9-1.65h1.15a1.62,1.62,0,0,0,1.78-1.52h1c1.66,0,1.66-.64,1.66-1.91v-9A.42.42,0,0,0,32.21,17.33Zm-2.83-1.74s.05,0,.1.07L30.84,17c.07.07,0,.1-.31.1L30,17.06a.75.75,0,0,1-.51-.32,1,1,0,0,1-.2-.62C29.29,15.77,29.32,15.59,29.38,15.59Zm-4.57,4.63-.52-.06a.74.74,0,0,1-.52-.31,1.09,1.09,0,0,1-.2-.62c0-.36,0-.53.09-.53a.18.18,0,0,1,.1.06l1.36,1.37C25.19,20.19,25.08,20.22,24.81,20.22Zm3.76,8.3c0,.25-.18.5-.37.5H26.67V20.76a.87.87,0,0,0-.18-.32,1.94,1.94,0,0,0-.25-.27L26,20l-1.86-2-.42-.43c-.13-.15-.23-.24-.29-.3a.69.69,0,0,1-.17-.17c-.06-.06-.19-.17-.29-.16s-2.29,0-2.29,0a2,2,0,0,0,0-.25.55.55,0,0,1,.51-.51c.05,0,3.81,0,4.45,0v1.27a1.83,1.83,0,0,0,1.55,1.9c.14,0,1.2,0,1.37,0C28.58,19.37,28.61,28.44,28.57,28.52Zm-2-11c0-.36,0-.53.1-.53s.05,0,.09.06l1.37,1.37c.06.06,0,.09-.31.09s-.77.05-1-.37A1.13,1.13,0,0,1,26.58,17.56Zm3,11,1.82-6.88v5.47c0,.38-.34.4-.54.39H29.6V19a.36.36,0,0,0-.1-.25,2.6,2.6,0,0,0-.24-.27,2.79,2.79,0,0,1-.22-.2l-1.87-2-.41-.43-.3-.3a.91.91,0,0,1-.17-.17A.55.55,0,0,0,26,15.3s-2,0-2.8,0c0-.25.13-.51.38-.51.06,0,4.32,0,4.83,0,0,.4,0,.87,0,1.27a2,2,0,0,0,.36,1.18A1.87,1.87,0,0,0,30,18c.14,0,1.23,0,1.4,0ZM19.05,27.5a.57.57,0,0,1-.13,0,41.09,41.09,0,0,0-.81,4.2.58.58,0,0,1-.62.5h-1.2c-.67,0-.7-.73-.75-1s-.64-3.59-.67-3.62a.21.21,0,0,0-.12-.16,2.92,2.92,0,0,1-.75-2V22.36c0-1.34,1.61-1.57,1.64-1.58s.23,1,.44,1c.68.13.53-.36.54-.42s-.49-.72.25-.66c.41,0,.53.19.15.7-.13.13,0,.47.35.48.54,0,.56-1.06.7-1.14.33.06,1.74.41,1.7,1.62l0,.69h3.94c.76,0,.76.89.13.89H19.81v.89h4.07c.76,0,.76.89.13.89-.24,0-1.55.05-4.32,0,0,.1-.22.81-.26.89H24c.63,0,.63.89.12.89C24.05,27.52,22.51,27.5,19.05,27.5Z"/></svg>