<svg id="Capa_1" data-name="Capa 1" xmlns="http://www.w3.org/2000/svg" viewBox="0 0 41.33 41.17"><defs><style>.cls-1{fill:#7bc082;}.cls-2{fill:#fff;}</style></defs><title>Mesa de trabajo 11</title><circle class="cls-1" cx="20.76" cy="20.67" r="20.51"/><path class="cls-2" d="M30.75,15.47H22.36a1.58,1.58,0,0,0-1.47,1.47v3.33a1.61,1.61,0,0,1,1.2.79V17.47a.91.91,0,0,1,.93-.93h7.06a.91.91,0,0,1,.93.93l0,3.27s.74-1.21,1.17-1.27V16.94A1.58,1.58,0,0,0,30.75,15.47ZM28.13,29.11a1.64,1.64,0,0,1,.08-.19l.11-.26a2.38,2.38,0,0,0,.12-.27,1,1,0,0,1,.08-.21.26.26,0,0,0,0-.1l0-.08a.37.37,0,0,1,0-.17.8.8,0,0,1,.05-.29,1.22,1.22,0,0,1,.05-.17.09.09,0,0,1,.08-.06h.08l.13.07a.82.82,0,0,0,.19.09.48.48,0,0,1,.15.16s0,.1-.08.18A1.11,1.11,0,0,1,29,28l-.09.08-.42,1.13c0-.05.4-.4,1.09-1.05l.15-1.38-.56-.43-.21.2c-.16.14-.32.28-.48.44s-.24.27-.24.32,0,.39-.05.92-.05.85,0,.92S28.11,29.15,28.13,29.11Zm1.49-2.83c.29.13.47.11.56,0a19,19,0,0,0,1.2-2.13,16,16,0,0,0,1.17-2.62q.21-.82,0-1c-.16-.09-.41,0-.76.38a12.43,12.43,0,0,0-1.5,2.59,13.29,13.29,0,0,0-1,2.36C29.21,26,29.34,26.16,29.62,26.28Zm3.08-3.23a3.47,3.47,0,0,1-.38.69c-.17.25-.33.48-.49.69l-.24.32a.6.6,0,0,0-.06.27c0,.23.15.2.47-.1a4.5,4.5,0,0,0,1.44-3.06,1.5,1.5,0,0,0-.11-.72c-.08-.15-.17-.21-.26-.18s-.15,0-.15,0l-.08.58C33.07,21.79,33,22.29,32.7,23.05Zm-3.42.81H26.49a1.28,1.28,0,0,0,.26-.66h2.53A.33.33,0,0,1,29.28,23.86Zm0-1.73H26.49a1,1,0,0,0-.4-.67h3.19A.34.34,0,1,1,29.28,22.13Zm-1.4,7.59a.61.61,0,0,1-.44.23q-.32,0-.36-.09s-.09,0-.26.09-.3.08-.36,0-.1-.12-.2-.07l-.17.08.19-.89c.07-.15.13-.24.18-.26s.21.06.18.36c0,.09-.06.2-.09.32s0,.18,0,.18a.7.7,0,0,0,.49-.54c.06-.22.15-.34.27-.37a.08.08,0,0,1,.09.09.3.3,0,0,1,0,.23c-.06.4-.05.59,0,.59a.26.26,0,0,0,.14-.09c.08-.12.17-.15.26-.09S28,29.6,27.88,29.72Zm4.33-4v4.39c0,.67-.13,1.47-1.33,1.47H25.69c0-.54.13-.94.4-1.07h4c.67,0,.93-.27.93-.8V27.19A5.57,5.57,0,0,0,32.21,25.73ZM16.13,21.15c.1.58.23,1.11.75,1.09s-.12-.64,0-1.09h1a1.57,1.57,0,0,1-.07.27c-.19.3-.37.81.07.82.74,0,.21-1.44,1.47-1A1.67,1.67,0,0,1,20.48,23c0,1,0,2.09,0,3.13a3.44,3.44,0,0,1-.74,2.09,2.51,2.51,0,0,0-.37,1c-.19,1-.33,2-.5,3-.14.83-.39,1-1.23,1-1.34,0-1.44-.07-1.67-1.38-.1-.61-.19-1.21-.29-1.82a5.1,5.1,0,0,0-.75-2.22A3.68,3.68,0,0,1,14.43,26c-.07-1,0-1.92,0-2.89A1.77,1.77,0,0,1,16.13,21.15Zm8.21,3.75c.15,0-.12.41-.12.56s.27.27.38.12,0-.7.52-.6,1,.38,1,.88a8.21,8.21,0,0,1-.54,4,6.79,6.79,0,0,0-.49,2.31c-.15,1.12-.55,1-1.44,1a.76.76,0,0,1-.52-.57C23,30,22.09,29.72,22,28.25c0-.65,0-1.3,0-2s.29-1.1,1.13-1.33c.2.1.2.77.43.75.57,0,.07-.66.3-.78Zm1.33-2a1.68,1.68,0,1,1-3.35-.06,1.68,1.68,0,0,1,3.35.06Zm-2.51-2.21h6.26a.34.34,0,1,0,0-.67H23.16C22.62,20,22.62,20.67,23.16,20.67ZM25,18.8H28c.4,0,.4-.67,0-.67H25A.34.34,0,1,0,25,18.8Zm-5.16-.71a2.46,2.46,0,1,1-4.9-.31,5.69,5.69,0,0,0,3.51-1.9A2.44,2.44,0,0,1,19.85,18.09ZM14,6.75a5.2,5.2,0,1,0,5.2,5.2A5.2,5.2,0,0,0,14,6.75ZM16.36,15H11.9V14l1.6-1.62a11,11,0,0,0,.93-1,1.82,1.82,0,0,0,.31-.52,1.19,1.19,0,0,0,.1-.49.71.71,0,0,0-.21-.57.8.8,0,0,0-.57-.19,1.65,1.65,0,0,0-.71.17,3.26,3.26,0,0,0-.73.48l-.73-.86a4.36,4.36,0,0,1,.78-.57,2.83,2.83,0,0,1,.67-.26,4.15,4.15,0,0,1,.82-.08,2.46,2.46,0,0,1,1.05.21,1.64,1.64,0,0,1,.71.61,1.61,1.61,0,0,1,.26.9,2.12,2.12,0,0,1-.16.83,3.09,3.09,0,0,1-.48.79A10.62,10.62,0,0,1,14.4,13l-.82.77v.06h2.78Z"/></svg>