<svg id="Capa_1" data-name="Capa 1" xmlns="http://www.w3.org/2000/svg" viewBox="0 0 199 84.25"><defs><style>.cls-1,.cls-2{font-size:11.92px;font-family:OpenSans-Regular, Open Sans;}.cls-1,.cls-4{fill:#96cb99;}.cls-2,.cls-3{fill:#fff;}</style></defs><title>Mesa de trabajo 4</title><text class="cls-1" transform="translate(-0.04 80.73)">Inteligencia de datos anticorrupción</text><text class="cls-2" transform="translate(24.24 64.7)">Plataforma Digital Nacional</text><path class="cls-3" d="M69.43,13.88q0,6.74-4.22,10.31c-2.8,2.38-6.8,3.57-12,3.57h-3.8V42.6H40.59V.86H53.92q7.59,0,11.55,3.27T69.43,13.88Zm-20,6.62h2.91q4.08,0,6.11-1.61a5.66,5.66,0,0,0,2-4.7,5.81,5.81,0,0,0-1.7-4.6q-1.7-1.48-5.33-1.48h-4Z"/><path class="cls-3" d="M157.64,42.6H146.38L128.22,11H128q.54,8.37.54,11.94V42.6H120.6V.86h11.16L149.9,32.12h.2c-.29-5.42-.43-9.26-.43-11.5V.86h8Z"/><path class="cls-4" d="M85,43.27V35.4c6.59.19,10.42-.15,12-.69,5-1.4,7.75-4.79,8.65-9.8a19.94,19.94,0,0,0-.31-8.76c-1.32-4.89-4.62-7.68-9.51-8.63a23.25,23.25,0,0,0-4.33-.39c-6,0-12,0-18,0h-.72v-7h.61c5.67,0,11.34,0,17,0a29.1,29.1,0,0,1,10.3,1.68,16.67,16.67,0,0,1,10.62,11.4,29,29,0,0,1-.22,17.76c-2.08,6.15-6.5,9.87-12.72,11.49A57.26,57.26,0,0,1,85,43.27Z"/><path class="cls-4" d="M85.11,20.31c0-1.88,0-3.76,0-5.64,0-.48.13-.64.61-.61,1.92.09,4.85,0,6.75.25,3.22.38,4.89,2.44,4.83,5.69a6.42,6.42,0,0,1-1.74,4.86,6.82,6.82,0,0,1-4.32,1.71c-1.53.11-4.07,0-5.6,0-.44,0-.53-.2-.53-.59C85.11,24.12,85.11,22.21,85.11,20.31Z"/></svg>