<svg id="Capa_1" data-name="Capa 1" xmlns="http://www.w3.org/2000/svg" viewBox="0 0 156.02 97.27"><defs><style>.cls-1{fill:#ccc;}.cls-2{fill:#fff;}.cls-2,.cls-4{stroke:#7bc082;stroke-miterlimit:10;}.cls-3{fill:#324047;}.cls-4{fill:none;}</style></defs><title>Mesa de trabajo 2</title><path class="cls-1" d="M29,10.69c-.37.56.1,1.26.5,1.8a21.79,21.79,0,0,1,2.17,4c.84,1.83,1.67,3.67,2.5,5.5a10.48,10.48,0,0,0,2.09,3.37,5.59,5.59,0,0,0,4.62,1.41l-.36,3.57A1.76,1.76,0,0,0,41.1,32c.38.23.89.16,1.3.33a2.26,2.26,0,0,1,.71.51L45.45,35a1,1,0,0,1,.32.42c.11.34-.17.67-.41,1a5.17,5.17,0,0,0-1,2.08,1.73,1.73,0,0,0,.15,1.41c.52.7,1.62.54,2.48.31-.25.83.79,1.43,1.65,1.71l2.07.66a2.46,2.46,0,0,1,1.39.82c.29.46.06,1.23-.5,1.24a3.22,3.22,0,0,1-.74-.19c-.26-.06-.6.07-.59.32,0,0-.58.62.33,1.16.26.15.5.34.78.48a11.24,11.24,0,0,1,5,4.55c.25.43.46.86.73,1.27a7.38,7.38,0,0,0,1.25,1.43,10.53,10.53,0,0,0,4.07,2.26s-.59,2.7,1.08,4.24c.72.66,1.44,1.6,1.17,2.52a5.68,5.68,0,0,1-.81,1.23,2.19,2.19,0,0,0,.11,2.45,4.57,4.57,0,0,0-1.91.58c-.13.08-.27.18-.3.32a.58.58,0,0,0,.13.37c.52.79,2,1.52,1.55,2.37-.09.18,1.5,1.87,1.5,1.87A13.07,13.07,0,0,0,67,74.3a16,16,0,0,0,2.18,1.42c1,.56,1.89,1.15,2.8,1.77a1.53,1.53,0,0,1,.69.78c.13.49-.13,1.24.38,1.34l.28.31a39.93,39.93,0,0,0,5.29,1.27,5.88,5.88,0,0,1,2,.55c1,.56,1.54,1.67,2.53,2.23s2.51.41,3.74.77c1.93.57,3.25,2.49,5.24,2.82.58.09,1.18,0,1.76.16a6.18,6.18,0,0,1,1.6.65,30.91,30.91,0,0,0,8.65,2.83,5,5,0,0,1,1.85.55c.87.53,1.32,1.59,2.26,2a3.38,3.38,0,0,0,3.36-.67c1.93-1.64,5.75-2.66,5.75-2.66l.18,0a1.36,1.36,0,0,0,.72-.19c.2-.15.26-.41.41-.61a1,1,0,0,1,1.65.16,5.59,5.59,0,0,0,.22.57c.43.71,1.58.18,2.41.41.63.17,1,.78,1.52,1.18,1.11.87,2.84.67,3.95,1.55,1.34,1,1.46,3.39,3.13,3.81h.13a1.62,1.62,0,0,0,.7-1.59,4,4,0,0,0-1.09-2.51c.73.19,1.3-.64,1.42-1.36s.06-1.54.59-2a2.08,2.08,0,0,1,1-.48c2.14-.53,4.67,0,6.39-1.38a.9.9,0,0,0-.22-1A4.67,4.67,0,0,0,139,85.71a3.18,3.18,0,0,1-1.51-1.17c-.2-.36-.23-.79-.4-1.17s-.56-.73-1-.63c0,0,1.48.45,1.51-.73s-.2-2.11.3-2.25c2.33-.67,4.75-.5,7.17-.77a6.36,6.36,0,0,0,1.16-.17,4.32,4.32,0,0,0,2.4-2.63,6.37,6.37,0,0,1,2-3s.56-.71.85.12c.46,1.32,1.42,2.73.82,4a8.68,8.68,0,0,0,1.44-5.93s0-.73-.58-.81,0-1.08.81-1,2.28-.94,1.19-1.23a4.25,4.25,0,0,0-2.1,0c0-.34-.05-.68-.08-1,.16.28.65.14.79-.15a2.32,2.32,0,0,0,.06-1A5.15,5.15,0,0,1,155,63.68a5.6,5.6,0,0,0,.84-4.63c-.11-.32-.34-.68-.68-.66a.66.66,0,0,1-.32.94c-.37.13-.58-.28-.88-.52-1.22-1-5.05.41-5.05.41L141,61.61a3.6,3.6,0,0,0-1.68.86,3.34,3.34,0,0,0-.66,1.73c-.25,1.39-.5,2.78-.74,4.17a9,9,0,0,1-.52,2,7.46,7.46,0,0,1-1,1.53,21.14,21.14,0,0,1-2.88,3s-.45,1.2.82.25a2.3,2.3,0,0,1,1.42-.61c.53,0,1,.65.7,1.06a1,1,0,0,1-.4.27,10.3,10.3,0,0,1-3.53,1,2.92,2.92,0,0,0-.35-1.44c-.22-.48-3.17.4-3.17.4-.39.11-.77.24-1.14.37l-1.44.5-4.86,1.83c-.92.52-2.09-.06-2.87-.76a5.42,5.42,0,0,0-2.6-1.71c-.92-.14-1.87.34-2.78.14a1.74,1.74,0,0,1-.15-.84,6.82,6.82,0,0,0-3-1.11c-.87-.1-.31-1.58-.43-2.41a4.25,4.25,0,0,0-1.2-2,20.24,20.24,0,0,0-2.33-2.39,3.55,3.55,0,0,1-.85-.88c-.39-.74,0-1.64-.15-2.46a4.62,4.62,0,0,0-.64-1.62l-2.17-3.93-.47-.43c.61-1.19,1.23-2.56.76-3.8a6.28,6.28,0,0,1-.44-1.08c-.15-.77.38-1.55.23-2.33,0-.18-.11-.35-.13-.53a2.83,2.83,0,0,1,.14-.91s1.23-1.79.56-2-.7-.46-.34-1.16.76-1.78,0-1.92c-.27-.05,0-.54,0-.79.17-.6.86-.88,1.47-1.09A15.48,15.48,0,0,1,104.1,47a4.39,4.39,0,0,0,.94-2.79c.12-1.18,1.44-4.12.35-3.56-.13.07-.36.1-.84-.07-.31-.12-.41-.49-.65-.71a2.83,2.83,0,0,0-2.45-.45,2.83,2.83,0,0,1-.91.1c-1.08-.11-1.47-1.47-2.4-2a5.32,5.32,0,0,0-1.88-.42,1.76,1.76,0,0,1-1.52-1,9.09,9.09,0,0,1-1.16-4.6,1.62,1.62,0,0,0-.08-.82,1.73,1.73,0,0,0-.88-.62c-2.51-1.15-3.81-3.81-4.82-6.31a4.2,4.2,0,0,0-.64-1.2,4.27,4.27,0,0,0-1-.77L84,20.35a3.31,3.31,0,0,0-2-.73c-.62.07-1.24.49-1.82.26-.29-.11-.49-.36-.77-.49-.87-.41-1.76.54-2.08,1.41s-.58,1.92-1.46,2.29-2.52-.82-2.52-.82c-2.08-.9-4.36-2-5.1-4.08-.52-1.46-.31-3.39-1.68-4.19a13.88,13.88,0,0,1-1.67-.74c-.52-.4-.7-1.1-1.16-1.56-1-1-3.11-.92-3.4-2.27-.08-.35,0-.73-.1-1.08-.21-.69-1.13-.95-1.87-.86a21.25,21.25,0,0,1-2.22.44c-.84,0-1.65-.35-2.49-.27s-1.67,1-1.16,1.63c0,0-11.57.18-13.13.1S35.5,7.7,35.5,7.7a33.19,33.19,0,0,1-8.26-4.48C26,2.32,23,2.26,23.39.82c.22-.89-.77-.79-.77-.79A4.59,4.59,0,0,0,21.1.16c-1.48.24-3-.08-4.5.15A11.26,11.26,0,0,1,15,.56C13.9.57,12.85,0,11.81.24a.58.58,0,0,0-.34.17c-.32.36.24.8.63,1.07a2.41,2.41,0,0,1,1.05,2,2.39,2.39,0,0,0,0,1c.12.3.48.18.8.31.79.3.29,2.44.29,2.44-.1.4-.23,1,.17,1.11.11,0,.23,0,.34.06.5.12.48.82.28,1.29s-.43,1.06,0,1.39l1.12-.59c.31.8-.33,1.65-.28,2.5a3,3,0,0,0,.78,1.6c1.09,1.42,2.26,2.81,3.23,4.32.62,1,1.16,2,1.69,3l.61,1.12a2.6,2.6,0,0,1,.45,1.81s-.43,1.91-1.37.37c-.63-1-2.47.77-3.48.07.63,1,2.1,1.35,2.79,2.34.56.8.52,1.9,1.17,2.64s2,1,2.34,2c.09.28.12.66.41.76.68.23.9-1.37,1.56-1.11.7,1.64,1.56,3.44,3.27,4.07a7,7,0,0,1,1.28.48,3.19,3.19,0,0,1,1.15,2.18,2.45,2.45,0,0,1-.16,2,3.19,3.19,0,0,1-1.08.74,1.65,1.65,0,0,0-.88.92c-.11.42.26.94.69.85l.68-.83a2.89,2.89,0,0,0,1.7,2.41,8,8,0,0,1,2.55,1.81,5.7,5.7,0,0,0,.74,1c.79.7,2.27.5,2.76,1.41a7.86,7.86,0,0,1,.27.82c.33.78,1.36,1.21,1.44,2a6.23,6.23,0,0,1-.07.86s1.08,1.81,1.87,1.39a5.65,5.65,0,0,0,2.46-2.27,1.5,1.5,0,0,0,.19-1.16.72.72,0,0,0-1-.44,1.69,1.69,0,0,0-.28-1.65,5.19,5.19,0,0,0-1.34-1.16l-1.66-1.14a1.37,1.37,0,0,1-.52,1.3c-.29.2-.87-.49-.84-1s-.81-.51-1.06-.91.1-1.85.1-1.85a3.06,3.06,0,0,0,0-1.24c-.18-.49-.69-.78-1.12-1.09-1.84-1.38-2.3-3.9-2.1-6.14a6.87,6.87,0,0,0,0-1.81,1.9,1.9,0,0,0-1-1.47.62.62,0,0,0-.62,0,.72.72,0,0,0-.22.53,5,5,0,0,1-.14,1.34c-.3.83-1.14-2.25-1.14-2.25,0-.31,0-.62-.07-.93-.17-1.33-1.33-2.33-2.47-3.1a1.84,1.84,0,0,1-.52-.48,1.23,1.23,0,0,1-.14-.46c-.14-1.09.38-2.38-.39-3.2-.36-.37-1-.59-1.07-1.1a6.43,6.43,0,0,1,0-.76.88.88,0,0,0-.95-.74s-1.06,1.85-1.07.79c0-.88.12-1.74.18-2.61a2.54,2.54,0,0,0-.87-2.35c-.67-.44-1.62-.38-2.21-.9s-.59-1.58-.66-2.43a5.9,5.9,0,0,0-.64-2.28,3,3,0,0,1-.48-1.22c0-.74.61-1.34.85-2,.51-1.49-.84-3.12-.38-4.63"/><circle class="cls-2" cx="91.11" cy="83.17" r="2.18"/><circle class="cls-2" cx="76.62" cy="27.28" r="2.18"/><circle class="cls-2" cx="62.6" cy="51.89" r="2.18"/><circle class="cls-2" cx="130.96" cy="80.91" r="2.18"/><circle class="cls-2" cx="98.11" cy="53.44" r="2.18"/><circle class="cls-2" cx="18.05" cy="7.34" r="2.18"/><path class="cls-3" d="M145.76,79.45a5.14,5.14,0,1,0,5.13,5.13A5.13,5.13,0,0,0,145.76,79.45Zm1,8.38h-1.33V83.6l0-.65c-.22.22-.37.37-.45.43l-.73.58-.64-.79,2-1.61h1.09Z"/><line class="cls-4" x1="19.61" y1="8.9" x2="61.04" y2="50.02"/><line class="cls-4" x1="63.53" y1="50.02" x2="75.06" y2="28.83"/><line class="cls-4" x1="91.62" y1="80.68" x2="97.24" y2="55.55"/><line class="cls-4" x1="64.16" y1="53.13" x2="89.12" y2="81.43"/><line class="cls-4" x1="20.23" y1="7.34" x2="74.44" y2="26.03"/><line class="cls-4" x1="90.12" y1="81.35" x2="76.62" y2="29.46"/><line class="cls-4" x1="129.62" y1="79.68" x2="99.87" y2="54.68"/><line class="cls-4" x1="128.62" y1="81.26" x2="93.62" y2="82.76"/><line class="cls-4" x1="78.49" y1="28.52" x2="96.55" y2="51.58"/><path class="cls-3" d="M83.44,85.36a5.23,5.23,0,1,0,5.22,5.23A5.23,5.23,0,0,0,83.44,85.36Zm2.35,8.26H81.32v-.94l1.61-1.63c.47-.48.78-.82.93-1a2,2,0,0,0,.31-.52,1.24,1.24,0,0,0,.1-.5.71.71,0,0,0-.21-.57.8.8,0,0,0-.57-.19,1.65,1.65,0,0,0-.72.17,3.58,3.58,0,0,0-.73.49l-.73-.87a4.36,4.36,0,0,1,.78-.57,2.91,2.91,0,0,1,.68-.26,3.43,3.43,0,0,1,.82-.09,2.39,2.39,0,0,1,1.06.22,1.77,1.77,0,0,1,.71.61,1.65,1.65,0,0,1,.25.9,2.27,2.27,0,0,1-.15.83,3.46,3.46,0,0,1-.48.8,13.15,13.15,0,0,1-1.15,1.16l-.82.77v.06h2.78Z"/><path class="cls-3" d="M109.1,45.81a5.27,5.27,0,1,0,5.26,5.27A5.27,5.27,0,0,0,109.1,45.81ZM110.8,54a3.1,3.1,0,0,1-1.93.52,4.54,4.54,0,0,1-1.86-.35V53a4.65,4.65,0,0,0,.82.3,3.46,3.46,0,0,0,.89.12,1.68,1.68,0,0,0,1-.23.81.81,0,0,0,.32-.73.67.67,0,0,0-.37-.65,2.81,2.81,0,0,0-1.18-.19H108v-1h.5a2.37,2.37,0,0,0,1.1-.2.7.7,0,0,0,.34-.67c0-.49-.3-.73-.92-.73a2.1,2.1,0,0,0-.64.11,3.26,3.26,0,0,0-.73.36L107,48.5a3.53,3.53,0,0,1,2.1-.63,2.7,2.7,0,0,1,1.58.4,1.3,1.3,0,0,1,.58,1.13,1.54,1.54,0,0,1-.36,1,2,2,0,0,1-1,.58v0a2,2,0,0,1,1.18.47,1.32,1.32,0,0,1,.4,1A1.7,1.7,0,0,1,110.8,54Z"/><path class="cls-3" d="M54.11,54.93a5.32,5.32,0,1,0,5.32,5.32A5.33,5.33,0,0,0,54.11,54.93Zm2,7.19h-.78v1.35H54V62.12H51.24v-.95L54.1,57h1.27v4.09h.78Z"/><path class="cls-3" d="M53.65,59.25l-1.2,1.8H54V60c0-.19,0-.45,0-.8s0-.56,0-.61h0A5.49,5.49,0,0,1,53.65,59.25Z"/><path class="cls-3" d="M76.05,7.64a5.26,5.26,0,1,0,5.26,5.26A5.27,5.27,0,0,0,76.05,7.64Zm1.59,8a2.82,2.82,0,0,1-1.9.58A3.71,3.71,0,0,1,74,15.83V14.65a3,3,0,0,0,.81.3,3.43,3.43,0,0,0,.87.12c.83,0,1.25-.34,1.25-1s-.43-1-1.29-1a3.28,3.28,0,0,0-.52,0c-.19,0-.34.07-.46.1l-.54-.29.25-3.28h3.49V10.8h-2.3l-.12,1.27.15,0a3.13,3.13,0,0,1,.67-.06,2.08,2.08,0,0,1,1.49.52,1.92,1.92,0,0,1,.55,1.44A2.08,2.08,0,0,1,77.64,15.6Z"/><path class="cls-3" d="M7.34,1.73A5.38,5.38,0,1,0,12.71,7.1,5.37,5.37,0,0,0,7.34,1.73ZM8.93,9.82a2.17,2.17,0,0,1-1.64.61A2.38,2.38,0,0,1,6,10.1a2.17,2.17,0,0,1-.83-1,3.71,3.71,0,0,1-.3-1.56,4.4,4.4,0,0,1,.82-2.9,3.1,3.1,0,0,1,2.47-1,4.09,4.09,0,0,1,.88.07V4.89a3.61,3.61,0,0,0-.79-.09A2.82,2.82,0,0,0,7.1,5a1.44,1.44,0,0,0-.67.64,2.81,2.81,0,0,0-.26,1.2h0a1.53,1.53,0,0,1,1.43-.77A1.78,1.78,0,0,1,9,6.63a2.22,2.22,0,0,1,.5,1.53A2.31,2.31,0,0,1,8.93,9.82Z"/><path class="cls-3" d="M7.29,7.15a1,1,0,0,0-.72.27.83.83,0,0,0-.3.64,1.44,1.44,0,0,0,.28.9.87.87,0,0,0,.71.37A.81.81,0,0,0,7.94,9a1.32,1.32,0,0,0,.24-.85A1.18,1.18,0,0,0,8,7.42.82.82,0,0,0,7.29,7.15Z"/></svg>