<svg xmlns="http://www.w3.org/2000/svg" viewBox="0 0 128 128"><defs><style>.cls-1{fill:#b25fac;stroke:#fff;stroke-linecap:round;stroke-linejoin:round;stroke-width:1.37px;}</style></defs><g id="estados"><path id="CHIH" class="cls-1" d="M105.26,80.46c1.59,7.46,3.72,15.78,5.44,23.22-1.48-.6-4-1.73-5.49-2.31a3.32,3.32,0,0,0-1.18-.1c-2.28-.15-3.15.66-4.3,2.51a57.74,57.74,0,0,1-4,5.38c-1.06-.2-1.82-1.36-2.72-1.9a8.25,8.25,0,0,0-4.25-1.07c-.24.19-.4.6-.61.82l-.31-.16a7.7,7.7,0,0,0-1.18-1.53c-1.08.4-2.28,1.39-3.38,1.69-1-.6-3.06-1.63-4-2.31-.29-.27-.63-.7-.92-1s-.41-.84-.72-1.08a3.64,3.64,0,0,1-2.77-.25,31,31,0,0,0-2.87-2.26,13.23,13.23,0,0,0-1,1.85c-.16-.21-.34-.52-.62-.57l-.25.1c-.46.73-.18,1.75-.31,2.57-.22.3-.69.5-.92.82-.19.75.75,1.62.41,2.35-1,.69-2.85.69-3.8,1.49-.33,1.2.89,2.29.93,3.48a4.85,4.85,0,0,1-.57,2.11c-.27.32-.75.25-1.13.25l-.51.31c-.44,1-.21,2.72-.36,3.79a1,1,0,0,1-.41.72c-.8.72-1.89,1.66-2.61,2.46a1.88,1.88,0,0,1-1.38.1c-.18,0-1.88-.24-2.11-.25-.6-.69-1.62-1-2.25-1.59a7.08,7.08,0,0,0-1.23-1.49,8.79,8.79,0,0,0-1.74-1c-.13-.54,0-1.49-.72-1.59l-.15-.16a9.38,9.38,0,0,0-.77-2.51c-.47-.53-3.48-.9-4.15-1.13a21.39,21.39,0,0,1-2.57-.61,29.48,29.48,0,0,1-.61-4.05c-.2-1.23-.09-2.79-.62-3.94A15.07,15.07,0,0,1,39.82,100a4.61,4.61,0,0,0-.1-1.34c-1.59-.69-2.91-.23-3.74-2.2a1.65,1.65,0,0,0-1.39-.15l-.36-.16-.2-.36a10.72,10.72,0,0,1-1.49,1.8c-.2-.29-.29-.76-.61-.92-1.19.71-2-1.69-2.56-2.41-.88-1-.18-1.86.41-2.72A6,6,0,0,0,29.31,90c0-.76.44-1.6.11-2.35-.13-.34-.58-.56-.87-.72a7.87,7.87,0,0,1-1.08-1.08,1.21,1.21,0,0,1,.26-1c-.63-.58-2.24-1.58-2.1-2.61-.35-.6-1.47-.91-1.95-1.39-.68-1.65-1.63-3.9-2.26-5.58a2.23,2.23,0,0,1,.77-.87c.27-.19.55-.59.87-.67,2.15-.54,4.59.33,6.66.82a11.75,11.75,0,0,0,1.59-1.49,4.73,4.73,0,0,0-.41-1.59c-.42-1.1-.93-2.57-1.28-3.69a6.94,6.94,0,0,1,.57-2.3c-.7-3.65-1.05-8.61-1.54-12.35.19,0,1.22-.06,1.38-.05l.1-.11c.29-3.31.63-7,.88-10.35a2.52,2.52,0,0,1,.35-1.18c0-.9-.14-2.17-.2-3.07-.14-1.63-.31-3.8-.46-5.43a1.69,1.69,0,0,0-.62-1.34c-.21-.15-.62-.49-.82-.66a10.42,10.42,0,0,0-1.53-.57,31.21,31.21,0,0,1-4.46-3.69c.23-3.13.81-6.54,1.18-9.68H36.59V8.56c6.58,0,13.47,0,20,0h5.84c.33.05,1.8-.19,2,.31.47.09,1.15-.08,1.59.2,1.07.82,1.42,2.32,1.89,3.49.24.29.91.93.93,1.33s.53.49.71.62c0,0,1.51.72,2,1.07a2.35,2.35,0,0,1,2,1.49,1.21,1.21,0,0,1,.46.31s1.49,1.53,1.85,1.84a1.76,1.76,0,0,0,.25.62c.29.19,1.36.83,1.64,1a2.57,2.57,0,0,0,1,.87c.52.28.51,1.06.82,1.49.32.06.78.63,1,.87a10.77,10.77,0,0,1,2.1,2c.41,0,2.37.84,2.46.82s1.28.92,1.28.92a14.74,14.74,0,0,1,2.21,1.79,2.18,2.18,0,0,0,.25.77,15.88,15.88,0,0,1,1.64,2.1s.28.55.21.67.19,1,.2,1.18a3,3,0,0,0,.57.56,3.86,3.86,0,0,0,.51.82c.19.41.4,1,.61,1.39.49.12,1.13,2,1.13,2.4a5,5,0,0,0-.31,2,6.87,6.87,0,0,1,.31,1.18c-.12.3.83,1.79.92,2.36.14.37.62.67.88,1a6,6,0,0,0,.82,2.51c.25.19,1,.56,1.07.87,0,.14,1.68,1.24,1.85,1.54a4.62,4.62,0,0,1,1.12,0,15.59,15.59,0,0,0,1.7,2,2.71,2.71,0,0,0,.92.56,4.26,4.26,0,0,0,1.38,1.23,14.05,14.05,0,0,0,2.51.72c.37.05,1.41-.1,1.54.41a12.43,12.43,0,0,0,1.08,1.33,4.43,4.43,0,0,0,2.35.57,10.85,10.85,0,0,1,1.28,1.38,9.86,9.86,0,0,0,2.05.77l.62.26S108.86,73.82,105.26,80.46Z"/></g></svg>