<svg xmlns="http://www.w3.org/2000/svg" viewBox="0 0 128 128"><defs><style>.cls-1{fill:#b25fac;stroke:#fff;stroke-linecap:round;stroke-linejoin:round;stroke-width:1.37px;}</style></defs><g id="estados"><path id="CDMX" class="cls-1" d="M95.17,111.84H87.41l-2.39.6-1.19,1.79L82,116.61l-1.79,1.2-1.8-.6-3.58-2.39-3.58-2.38-3.58-1.2-3.58-.59-6-.6-6-1.2-6.57-1.19-6.56-2.39-4.18-4.18-1.2-1.19-1.19-1.19-1.79-3-.6-3-.59-3.59L30.1,85v-.6l-.59-.6-.6-.59H27.72L25.92,82l-.59-1.79,1.19-1.79,1.2-1.79V75.43l-1.2-1.2-.59-4.18,1.19-4.18,2.39-4.17.59-4.18,3.59.59,3.58.6,2.38-1.19,1.8-3.59L42,52.14l1.79-3,2.39-3.58,2.39-3,2.39-3,3-4.18.6-1.19,1.19-.6L57,33l1.19-.6L60,31.25l.6-1.19-1.2-1.79-1.79-.6,1.79-1.79V21.7l1.79-1.79,1.8-1.79,2.38-2.39,1.79,1.19,1.2,1.2,1.19,1.79.6,1.19v3l.6,3,1.19,2.39,1.19,1.19,2.39,1.2.6,1.79.6,1.79.59,1.19,1.79,3,1.2,3,1.19,1.79-.6,1.79-1.19,1.2-1.79,1.19.6,1.2,1.79,1.79-3,3,3,2.39,3,1.79,4.18,1.79,3,1.79,1.2,1.2,1.79,3,1.19,1.79,1.2,4.18.59,2.39V80.2L95.17,85v4.17l.6,3.59,3,6,1.2,3v1.19l-.6,2.39-1.2,2.39-3,4.18Z"/></g></svg>