<?xml version="1.0" encoding="UTF-8"?><svg id="estados" xmlns="http://www.w3.org/2000/svg" viewBox="0 0 128 128"><defs><style>.cls-1{fill:#3bb1e6;stroke:#fff;stroke-linecap:round;stroke-linejoin:round;stroke-width:1.45px;}</style></defs><path id="CAMP" class="cls-1" d="M36.82,79.06v.53l-.21-.11-.11-.11-.64,.53-.42,.11-.42,.11,.11-.32,.21-.21,.21-.11,.32-.11-.64,.11-1.17,.42h-.53l-1.27,1.8-.95,.85-1.17,.21,.74-1.27-1.8,1.17-1.06,.42-.95,.21h-.64l-.21-.11,.11-.32,.53-.53,.32-.21,1.48-.64,.95-.21,1.8-.95,1.27-.85,1.59-.53,1.48-.74h.53l.21,.21,.21,.32,.11,.32h0Zm70.37-31.26l1.48,2.01,1.8,1.59,2.12,1.48,4.03,3.6,3.29,4.13,.74,2.54-.32,2.23,.11,2.54-.11,.53,.11,1.17-.53,.95-1.59,1.59,.21,2.65-1.06,6.99,.21,2.01,1.17,1.48,.32,1.91-.42,.53-.21,.53,.53,.21,.53,.32v.74l-.32,.85-.21,.74,.64,3.18,.21,2.44v2.23l-.74,2.01-2.86,3.5-.32,.53,.21,2.76-.21,.42-.21,1.38v3.07h-14.73l-7.31-.11H55.57l-.74,.21-.21,.32v-5.83l-2.01-.11-1.91-.11-.53-.11-.21-.21-.32-.32-.32-.32-.64-.21-.64-.11-1.38,.11-.53-.11-.64-.42-.64-.42-.53-.42-.64-.42-.53-.32-.53-.21h-.74l-.64-.11-.53-.21-.53-.11-1.06-.42-.42-.11-.32-.11h-1.17l-.95-.11-.95,.11-.74,.21-.21,.42-.21,.64v.74l.11,.42v.21l-.11,.64-.32,.85-.42,.85-.21,.32h-7.63l-1.06-.53-.95-.64-.95-.53-.53-.32-.21-.53-.11-.64-.64-.32-.53-.21-.42-.21-.42-.21-.42-.32-.74-.53-.74-.64-.85-.64-.85-.53-.42-.85-.11-1.38,.11-1.38,.11-1.06v-3.29l.11-3.18h-1.48l-1.59,.11h-1.59l-1.48-.21h-.32l-.21,.21h-.32l-.32-.11-.32-.21-.53-.42-.21-.21-.53-.64-.32-.85-.11-.85-.32-.85-.42-.64-.42-.64-.42-.74-.11-.64,2.44-.74,3.82-.21,3.5-.32,4.24-.53,2.65,.11,1.06,.21,.95,1.06,1.8,1.17,.21,.32v.42l-.21,.32-.32,.32-.42,.11,.21-.21v-.32l-.32,.21-.42,.11h-.95l-.32-.21,.11-.32,.11-.42-.21-.32h-.21l-.21,.11-.74,.53h-.11l-.11-.11h-.32l-.53,.11-.11,.11,.21,.21h.53v.32l-.42,.11h-.42l-.42-.11-.32-.32v.21l.11,.32,.11,.21-.32,.21-.21,.32-.11,.32-.11,.42,.21-.21,.53-.32,.64,.53,.32,.11,.42,.11,.74-.21,.42-.11,.21,.21,.21,.42,.53,.42,.64,.32,.64,.11-.85-.64-.95-.64-.74-.74-.21-1.06,.74,.32,.32,.32,.42,.11,.85-.32-.42,.74,.42,.21,.42,.21,.32,.32,.21,.53-.53-.32v.32h-.21l.64,.32,1.27,.42,.42,.42-.11,.53-.85,.95-.21,.53,.21,.53,.64,.53,.64,.53,.42,.11,.32-.53-.11-.53-.32-.53-.21-.64,.32,.21,.32,.21,.32,.11,.42-.11-.32-.42-.53-.42-.32-.53,.21-.53,.95,.42,2.01,.53,.95,.53,.64-.21,1.48,.32,.85,.11,1.7-.21,.74-.21,.53-.32,.11,.53,.21,.32,.32,.11,.32-.21v-.42l-.21-1.06v-.42h-.21l-.11,.11-.11,.32-.11,.32h-.32l-.85,.32-.21-.11,.21-.42,.74-.85,.21-.21,.85-.42,1.91-.74,.95-.53,.53,.21,.53-.11,.53-.32,.42-.21,.32-.42,.53-1.06,.21-.21h1.7l.21-.21,.32-.32,1.27-.42,.53-.32-.64-.21h-.42l-.85,.53-1.59,.42-.42,.21,1.06-2.65v-1.06l-.64-1.06-.53-.53-.32-.21h-.42l-.32,.11-.11,.21-.11,.21-.21,.21-.74-.21-.95-1.27-.64-.21,.53-.85,.64-.85,.74-.53,1.59-.53,1.06-.74,.85-.85,.53-.74-.74,.11-2.23,1.8-2.12,1.17-.85,.74v.74l-.32,.21-.11-.21-.74,.53-.42,.21h-.64l-.74-.11v-.21l.74-.95,1.7-1.27,2.12-1.27,2.86-1.8,4.03-1.8,2.76-2.54,.64-.32,1.59-.53,2.54-1.8,2.65-3.39,.74-.42,1.06-.42,1.17-.95,.85-1.17,.42-1.17,.53-6.89,.32-1.48,.11-.74-.11-.74-.11-.64v-.53l.21-.85,.64-1.48,.64-1.06,1.91-1.38,2.97-2.12,1.38-1.48,.32-1.48,.11-.53v-.64l-.11-.53-1.06-2.01v-1.38l.11-2.76,.32-1.8-.11-1.91v-.85l.42-2.01,.11-1.38-.53-2.97v-1.59l.74-2.97,.21-3.5,.42-.95,1.8-2.23,.42-.64,.11,.95-.42,8.9,.53,1.06,1.59,.11h1.7l1.38,.21,.85,.95,.53,1.27,.85,.74,.64-.32,.64-.21,.64,.53,.64,.64,.95-.21,.64-1.27,.85-.64,1.38,1.91,.53,.95v.85l.64,1.38,.53,.64,1.91,1.38,1.17,2.12,.85,2.54,1.7,1.8,2.33,.85,2.01,1.59,2.44,4.56,1.8,1.91,1.59,2.12,.42,2.54,.85,1.91h0Z"/></svg>