<?xml version="1.0" encoding="UTF-8"?><svg id="estados" xmlns="http://www.w3.org/2000/svg" viewBox="0 0 128 128"><defs><style>.cls-1{fill:#3bb1e6;stroke:#fff;stroke-linecap:round;stroke-linejoin:round;stroke-width:1.25px;}</style></defs><path id="TLAX" class="cls-1" d="M10.23,59.25l-.36-2.88v-1.8l-.36-1.44-3.6-1.08-1.8-1.08-.72-2.52-.72-3.6h1.44l2.52-.36h1.44l1.44-.36,.72-.36,.36-1.08,.72-1.44,1.08,.72,1.44-.72,2.52-2.16,1.8-.36,1.44,1.08,1.44,1.08h1.8l1.44-1.08,1.8-1.8,1.8-.72,2.16,2.16,.36,.36,2.16,.72h2.52l2.52,.36,2.16,.36,1.44,.72,2.52,1.44,1.8-1.44,1.44-2.88,1.08-2.88,.72-1.44,1.08-1.08,.72-1.44,1.08-1.08,.72-1.08v-.72l.36-.36,1.8-.72h.36l.72,1.44,.36,.36,2.52,1.8,2.52,1.44,2.88,.72h9.01l1.8-.72,.36-1.08v-1.44l-.36-2.16,1.08-1.8,2.16,1.44,1.8,3.24v3.6l-1.44,2.16,.72,1.08,1.8,.72h2.16l2.16,1.08,1.44,1.8,1.44,1.8,1.8,1.44,2.88,1.08,4.68,1.44,3.6,1.8-1.08,3.24-1.08,.36h-1.08l-1.08,.36-.36,1.08v1.08l.72,1.08,.36,.36,1.08,.36,.72,1.44,.72,2.16,.72,1.44,1.8-.36,1.8-1.44,2.16-.72h1.8l2.16,1.08,1.44,1.44,1.08,1.44,1.44,1.44,1.08,1.44,1.08,1.08,1.44,1.08,1.44,1.08,1.44,.36,2.88-.36,2.16,1.08,1.08,2.16-.72,3.24-2.52,2.52-2.88,1.8h-3.6l-2.88-1.8-.36-.36-.36-.36-1.8,1.08h-3.24l-3.24-1.08-2.88-.72-.36,.36-.72,.36-.36,.72-.36,.72-1.44,.36-1.08,.72-1.08,.72-.72,1.08v.72l.72,2.16,2.16,1.8,1.08,2.16-.36,2.16-1.08,.72-2.88,2.52-2.16,1.44-2.88-.36-2.52-1.08-2.52-1.44-6.49-2.88-1.08-.36-1.08-.36-1.8,2.88-2.16,3.24-2.52,2.88-2.88,.72-2.16,.72-2.52,1.08-2.16,.72-2.52-.72-1.08-1.08-1.44-2.88-1.44-1.8-3.24-2.88-2.16-1.44-1.08-.72-.72-.72-1.08-.36-.72-.72-.72-.72-.72-.72-.72-.72-.36-.72-1.08-2.52-.72-1.8-.72-1.8-1.08-1.8-1.44-1.44-1.8-1.44-1.44-.72-.72-.72-.36-1.44-.36-1.44-.72-1.44-.72-1.08-.72-1.44-.36-1.44-.36-1.44v-1.08l-.36-.72-1.8-1.44-1.08-.36-1.44,.36-1.8,1.44h-3.24l-3.6-.72-3.6-1.08-3.24-1.08h0Z"/></svg>