<?xml version="1.0" encoding="UTF-8"?><svg id="estados" xmlns="http://www.w3.org/2000/svg" viewBox="0 0 128 128"><defs><style>.cls-1{fill:#3bb1e6;stroke:#fff;stroke-linecap:round;stroke-linejoin:round;stroke-width:1.2px;}</style></defs><path id="TAB" class="cls-1" d="M126.98,69.34v23.63l-17.53-.13-.13-.13-.25-.65,.13-.65,.13-.65,.25-.39,.5-.26h1.01l.13-.65-.13-.13-1.01-1.69-.25-.39-.38-.26-.88,.13-.5-.13-.5-.13-.5-.39-.25-.39,.25-1.3v-.65l-.38-.26-.38-.26-.25-.26-.76-.26-.88-.26-.76-.26-.5-.26-.63-.26-.88-.39-.63-.52-.25-.65v-1.69l-.25-1.43-.38-1.56-.5-1.56-.76-1.17-.76-.26-.88-.13-.76,.13h-.88l-.5-.39,.13-.78,.38-.78,.25-.39-.25-1.3-.13-.39v-1.43l-.63-1.04-.76-.65-.88-.13-.76,.65-1.01-.52-.63-.13h-.5l-.5,.26-.25,.39-.13,.39-.25,.52-.5-.65,.13-1.43-.63-.39h-.25l-.88,.26-1.14,.78-1.14,1.17-1.01,1.17,.76,1.3-.88,.65-1.39,.13-1.26-.26-.76,.65-.88,.65-1.01,.52-1.01,.39-1.26,.26-1.39,.39-1.39,.39-1.01,.78-.38,1.3,.13,1.04-.38,.78-1.39,.39-.88,.26-.76,.65-1.26,1.43-3.53,3.12-1.51,1.56-2.4,2.34-.63,.52-1.14,.78-1.26,.13-1.26-.52-1.14-.65-.5-.52-.5-.65-.5-.65-.38-.65-.76-1.3-.5-1.17-.63-.91-1.26-.26h-1.01l-.63-.39-.25-.91-.13-1.04v-1.82l-.76-3.38v-1.82l.25-.65,.38-1.3,.25-.65v-1.56l-.13-.78v-1.04l-.13-.91-.13-1.04-.5,.91-.76-.13-.88,.91-1.39-.26-1.26-.91-.88-1.17-1.01-.52-.76-.52-.38-.26-1.39-.26-1.01-.26-.63-.13-.38,.26-.5,.65-.25,.26-.5,.13-.13,.91-.88,2.47-.76,2.6-.76,2.6-.63,2.47-.25,.78-.13,.78-.25,.78-.25,.65-.5,.52-.63,.39-.5,.39-.5,.52v.26l-.13,.78h-.25l-.38,.39-.76,.39-.13,.26-.25,.52-.25,.26-.5,1.69-1.01,2.47-1.14,2.47-.76-.26-.63-.39-.5-.52-.25-.78v-.39l.38-.91v-.52l.13-.39,.25-1.3,.25-1.04,.13-.91-.25-.65-1.26-.52-.5-.52-.88-.91-.88-1.04-.88-1.69-1.01-.78-1.14-.39-1.14-.39h-.88l-.38-.13-.13-.26-.13-.78-.38-.39-.63-.13h-.76l-1.51-.52-.38-1.04-.13-1.17-.88-.91-.5-.26h-.63l-.5-.13-.5-.26v-.13l-.25-.52-.13-.13-.25-.13h-.88l-.63-.65v-.91l.25-2.08,.13-.65,.38-.52,.38-.65-.38-.52-.38-.39v-.91l-.13-.52-.25-.26-.38-.52-.13-.26,.13-.26,.25-.13,.13-.39-.25-.26-.38-.39-.13-.52,.13-.65v-.52l-.13-.52-.25-.26h-.5l-.38-.13-.25-.39v-1.04l-.25-.39h.13l.88-.52,1.14-.52,3.03-.65,.63-.65,.76-.39,4.41-1.56-.25,.52-.38,.39-.25,.52-.13,.52,.38,.26,3.15-.52,.76-.13,.5-.39,.38-.52v-.39l-.25-.26-.13-.26,.13-.39,.25-.26,.5-.26,.25-.26,.5,.13,.63-.13,.5-.26,.5-.39,.25,.78,.88,.26,2.52-.52,.5-.52,.5-1.43-.38-1.04-.13-.13h-.38l-.5,.26-.5,.26-.25,.26-.5,.39-2.77,.91-.25,.26-.38,.39-.25,.26-1.77,.26-1.26,1.04-.5,.26h-.88l-.38,.52,.25-.91,.76-.39,.76-.26,.38-.39,.38-.39,7.44-2.86,1.77-.39,4.29-.65,5.55,.26,5.93-.26v.26l-.38,.65-.38,.39-.38,.13,.25,.39v1.04l.25,.39h.38l.63-.26,.63-.39,.25-.26v.65l-.38,.78-.13,.65h.25l.63-.91,.25-.26-.25-.26,.76-.13,.25-.65-.25-.78-.88-.26-.88-.13v-.39l.63-.39,.88-.26,6.43-.13,3.28-.91,2.02-1.17,1.89-1.82,.76-1.17,.38-.65,.13-.39,.38-.26,.38,.13,.13,.26,.5,1.43,.38,4.16,.5,1.17,.25-1.3-.25-.65v-.91l.25-1.82-.25-.91-.88-1.95-.13-.52,.5-.39h1.01l1.77,.13,.88-.13,4.16-1.04,.25-.13,.13,.78,.5,.91,.5,.78,.5,.78,.38,1.04,.13,1.04,.38,1.04,.63,.78,.25,.26,.63,.52,.38,.26,.38,.13h.38l.25-.26h.38l1.77,.26h1.89l1.89-.13h1.77l-.13,3.9v4.03l-.13,1.3-.13,1.69,.13,1.69,.5,1.04,1.01,.65,1.01,.78,.88,.78,.88,.65,.5,.39,.5,.26,.5,.26,.63,.26,.76,.39,.13,.78,.25,.65,.63,.39,1.14,.65,1.14,.78,1.26,.65h9.08l.25-.39,.5-1.04,.38-1.04,.13-.78v-.26l-.13-.52v-.91l.25-.78,.25-.52,.88-.26,1.14-.13,1.14,.13h1.39l.38,.13,.5,.13,1.26,.52,.63,.13,.63,.26,.76,.13h.88l.63,.26,.63,.39,.76,.52,.63,.52,.76,.52,.76,.52,.63,.13,1.64-.13,.76,.13,.76,.26,.38,.39,.38,.39,.25,.26,.63,.13,2.27,.13,2.4,.13v7.14h0Z"/></svg>