<?xml version="1.0" encoding="UTF-8"?><svg id="estados" xmlns="http://www.w3.org/2000/svg" viewBox="0 0 128 128"><defs><style>.cls-1{fill:#3bb1e6;stroke:#fff;stroke-linecap:round;stroke-linejoin:round;stroke-width:1.35px;}</style></defs><path id="TAMPS" class="cls-1" d="M85.63,117.18l-.61,.27,.14-.27,.34-.33,.14-.2,.41-1,.2-.27,.07,.47-.27,.74-.41,.6h0Zm.75,9.64c-.26,.29-.84,.54-1.16,.74-.09,.25-.32,.53-.61,.54-.27-.53-1.02-.88-1.09-1.47,.14-.11-1.05-1.73-1.91-1.61-.46-.15-1.07-.48-1.57-.4-.42,0-2.04-1.61-2.18-2.34-.6-.38-1.04,.34-1.64,.33-.21-.12-.56,1.86-2.05,1.14,0,0-1.05-.16-1.16-.07-.26-.05-1.43-.69-1.57-.47-.42-.04-2.63,.27-3,.33-.3-.13-.61-.36-.89-.54-.46,1.04-1.89,.46-2.66,1-.52,.96-1.26,1.02-2.25,.74-.79-.09-1.75-.2-2.46-.6-.65-.28-1.52-.44-2.19-.67-1-.36-2.34-.12-3.14-.87-.58-.52-.79-1.42-1.16-2.08-.39-.99-1.14-2.19-1.71-3.08-.24,.37-.59,1.06-1.09,1.14-.77-.43-1.12-1.45-1.84-1.94-.18-.14-.45-.35-.68-.2,.09,.71,.87,1.96,.27,2.54-3.4-.92-6.69-2.55-9.97-3.82-.23-.15-.18-.58-.27-.8-.03-.31-.35-.6-.48-.87-.41-.5,.33-.89,.68-1.14,.5-.08,1.12-.34,1.5-.67,1.41-1.5-.26-2.55-1.23-3.62-.34-.47-.24-1.14-.34-1.67-.68-.2-1.31,.69-1.78,1.07,.25-1.26,.77-2.79,.89-4.09-.24-.67-1.14-.97-1.71-1.34,2.13-2.26,2.21-.97,4.71-.47-.26-1.11-.8-2.65-.96-3.75,.59-1.08,1.03-2.33,1.64-3.42,.65-2.22,2.43-1.12,4.1-1.67,.7-.18,1.78,.21,2.18-.54,.08-.08,1.85-2.69,1.98-2.61,.26,.04,.62,.16,.89,.13,0-.99-.33-2.02-1.3-2.48-.77-.58-1.72-1.33-2.12-2.21-.43-1.96,.16-3.97,.75-5.83-.02-1.21-.43-2.69-.68-3.88l-2.25,.94c-.54-1.76-1.09-2,.55-3.28,.46-.43,2.44-1.08,2.59-.74,.19,.01,.85-.52,1.09-.54,.57-.17,.3-.97,.48-1.41,.28-.51,1.94-1.37,2.39-1.21,.7,0,1.27-.36,1.64-.94,.27-.31,2.32,.88,3,1.07,.07-.46-.15-.96-.41-1.34-.7-1.14,.45-1.76,.89-2.68-.26-.47-.85-.87-.96-1.41,.26-.17,.66-.24,.96-.13-.07-.27-.33-.71-.07-.94,.2,.09,.6,.16,.82,.13,.18-.31,1.14-1.66,1.57-1.67,.88,1.56,1.61,1.2,3.14,.8,1.7-1.32,3.86-3.17,5.53-4.55,.74-.62,2.61-2.18,3.35-2.75,.73-.28,.78-1.03,.55-1.67-.64-.34-1.61,.16-2.25-.2-.25-.76-.12-1.9,0-2.68,0-1.1,0-5.28,0-6.36,.09-2.73,.53-3.16-2.46-3.75-2.93-.49-3.23-2.25-4.71,1.21-.76-.59-1.49-1.48-2.18-2.14-.37-.61-2.25-.38-2.39-.4-.32-.04-.47,.37-.68,.54-.73-.79-.55-5.38-1.3-5.49-.37,.02-2.72-1.68-3-2.48-.43,.07-.86,.62-1.3,.74-.64-.6-.83-1.52-.61-2.34,.13-.33,.52-.78,.61-1.14,.7-1.6-.27-2.97-1.91-3.35-.53-.16-1.13-.54-1.64-.74-.66-.02-1.39,.1-2.05,.07,.41-.47,.97-1.75,.96-1.81-.02-.7,.62-1.29,1.02-1.81-.3-.03-2.76-1.52-3-1.47-1.2-.85-.5-2.69-.14-3.82,.19-.75,.91-1.85,.55-2.61-.45-.25-.69-.79-.75-1.27-.16-1.1-.35-2.71-.48-3.82-.31-2.8-1.18-2.38-3.55-2.81-.29-.43-.23-1.19-.14-1.67,1.26-.89,2.89-1.73,4.3-2.34,.07,.06,.9,1.42,2.12,.6,.39-.22,2.09,1.04,2.25,1.67,0,0-.17,1.75,.07,1.88,.25-.04,.59,.03,.61,.33,.15,.65-.47,3.51-.96,4.02,.1,.05,1.61,1.33,1.71,1.61,.51,.92-.21,1.96-.27,2.88,.13,.16,.31,.39,.27,.6,.07,.3-.51,.92-.55,1.21-.04,.79,.9,.84,1.43,1.14,0,.22-.22,.62-.34,.8,.12,.3,.82,.61,1.09,.74,.36,.42,.41,1.35,.48,1.88-.02,.39-1.56,1.04-1.5,1.41,0,0,1.79,.42,1.84-.07,.04-.46,.47-.81,.82-1.07,.28,.15,.87,4.08,1.02,4.82-.24-.08-.5-.35-.75-.4-.4,.4,1.61,2.11,2.25,2.14-.02,.02,1.72,1.87,1.78,2.28-.3,.63-.72,1.02,.07,1.47,.47,.21,3.35,.33,3.35,.33,.33,.24,1.7,.7,1.91,.67,0,0,.76-.23,.89-.2,.21,.72,2.91,3.08,3.41,3.08,.55-.2,3.35,.2,3.62,.8l.34-.4c.62,.13,1.27,.69,1.91,.74-.08,.16-.26,.55-.2,.74,.17,.07,.64,.07,.82,.07,.11,.05,.55,.83,.61,.94,.82,.68,4.63,.99,4.92,1.14,0,0,1.26,.12,1.78,.2,1.43,.32,3.3-.28,4.71,.13v.33c1.35,.26,3.23-.14,3.82,1.47,.07,.3,2.3,2.27,3.35,2.08,.27,.39,1.4,.78,1.43,.94,.18,.3,.6-.99,.55-1.41,.08-.11,.5-.39,.61-.47,.48,.44,1.33-.05,1.3-.67,.72-.1,1.99,.03,2.73-.13l-.61,3.21s.05,2.14,.07,2.48c-.5,1.11-1.52,4.05-2.05,5.22-.63,1.71-3.22,5.91-4.23,7.5,0,0-2.12,7.77-2.12,7.77-1.75,5.03-2.98,14.14-3.48,19.42,0,0-.14,4.69-.14,4.69l-.2,.4c-.23,.3-1.63-.05-1.91,0v.13c2.15-.36,1.34,1.77,1.37,3.01h.14c.25-.74,.07-2.09,.41-2.81,.51,.42-.19,4.91-.2,5.49-.33,1.37-.5,4.92-.55,6.36,.18,1.93,.73,7.59,.34,9.44v-1.74c-.33,.04-.8,2.44-.89,2.68-.1,.25-1.78,3.45-2.05,4.15-.11,.36-.15,.98,.41,.87,.99-.25-.15-1.59,.75-1.88,.39,.77-.16,2.31-.34,3.08,.12,.49,1.38,5.62,1.5,5.96h0Zm5.8-72.06c-1.44,1.41,.62,2.37-.82,2.61-.21-.8-.51-.84-1.3-.67-1.48-.09,1.11-1.51-1.16-1.27-.97-.55-.34,.71-.55,1.21-.56,.18-1.61,1.74-2.25,1.34,1.43,.88,1.72,3.32,1.71,5.36-.23,.83-1.3,1.35,.07,1,.07,.88,1.76,.52,1.91,1.47,.13,.85-2.67,.75-2.32,1.94,0,.43,.88,3.66,1.23,3.21,.11,1.56-.82,3.66-1.09,5.16-.65-.06-.81-1.87-1.23-1.94-.27,.67-1.16,2.14-1.16,2.14,.06,2.93,2.5-.7,2.66,.74-.61,1.29-.29,9.23-1.37,7.7-.37,.08-.2,1.15,.14,1.34,.2-.73,.18,.03,.34,.2-.52,1.74,.1,3.43,.14,5.29,.35-.18,.69-9.92,.82-10.18,.77-6.75,2.49-14.01,4.23-20.22,.02-2.1,2.23-2.38,1.84-5.16-.02-.3,.13-.63-.14-.87-.26-.56,1.15-.36,.41-1.07-.88,.17-2.61-1.99-2.66-.27,.19,.49,1.02,.39,.55,.94Z"/></svg>