<svg xmlns="http://www.w3.org/2000/svg" viewBox="0 0 128 128"><defs><style>.cls-1{fill:#b25fac;stroke:#fff;stroke-linecap:round;stroke-linejoin:round;stroke-width:1.25px;}</style></defs><g id="estados"><path id="TLAX" class="cls-1" d="M10.23,59.25l-.36-2.89v-1.8l-.36-1.44L5.9,52,4.1,51l-.72-2.52-.72-3.61H4.1l2.53-.36H8.07l1.44-.36.72-.36.36-1.08.72-1.44,1.08.72,1.44-.72,2.52-2.16,1.81-.36,1.44,1.08L21,40.87h1.8l1.44-1.08,1.8-1.8,1.81-.72,2.16,2.16.36.36,2.16.72h2.52l2.52.36,2.17.36,1.44.72,2.52,1.44L45.54,42,47,39.07l1.08-2.88.73-1.45,1.08-1.08.72-1.44,1.08-1.08.72-1.08v-.72l.36-.36,1.8-.72h.36l.72,1.44.36.36,2.52,1.8L61,33.3l2.88.72h9l1.8-.72.36-1.08V30.78l-.36-2.16,1.08-1.8L78,28.26l1.8,3.24v3.6l-1.44,2.17.72,1.08,1.81.72H83l2.16,1.08L86.62,42l1.44,1.8,1.8,1.44,2.89,1.08,4.68,1.45,3.6,1.8L100,52.76l-1.08.36H97.79l-1.08.36-.36,1.08v1.08l.72,1.08.36.36,1.08.36.72,1.45.72,2.16.72,1.44,1.81-.36,1.8-1.44,2.16-.72h1.8l2.16,1.08,1.44,1.44,1.09,1.44,1.44,1.44,1.08,1.44,1.08,1.08L118,69l1.44,1.08,1.44.36,2.89-.36,2.16,1.08L127,73.3l-.72,3.24-2.52,2.52-2.89,1.81h-3.6l-2.88-1.81L114,78.7l-.36-.36-1.81,1.09H108.6l-3.24-1.09-2.88-.72-.36.36-.73.36-.36.72-.36.73-1.44.36-1.08.72-1.08.72-.72,1.08v.72l.72,2.16,2.16,1.8,1.08,2.16L100,91.68l-1.08.72L96,94.92l-2.16,1.44L91,96l-2.53-1.08L85.9,93.48,79.41,90.6l-1.08-.36-1.08-.36-1.8,2.88L73.29,96l-2.52,2.88-2.89.72-2.16.73-2.52,1.08-2.16.72-2.52-.72-1.09-1.08L56,97.44l-1.44-1.8-3.24-2.88-2.16-1.44-1.08-.72-.73-.72-1.08-.36-.72-.73-.72-.72-.72-.72-.72-.72L43,85.91l-1.08-2.52-.72-1.8-.72-1.8L39.42,78,38,76.54,36.17,75.1l-1.44-.72L34,73.66l-.36-1.44-.36-1.44-.72-1.44-.72-1.09-.72-1.44-.36-1.44-.36-1.44V62.85l-.36-.72-1.8-1.44-1.08-.36-1.45.36-1.8,1.44H20.68l-3.6-.72-3.61-1.08-3.24-1.08Z"/></g></svg>