<?xml version="1.0" encoding="UTF-8"?><svg id="estados" xmlns="http://www.w3.org/2000/svg" viewBox="0 0 128 128"><defs><style>.cls-1{fill:#3bb1e6;stroke:#fff;stroke-linecap:round;stroke-linejoin:round;stroke-width:1.37px;}</style></defs><path id="QROO" class="cls-1" d="M84.51,109.69h-.19c.41-.72,1.19-1.4,1.22-2.34,.1-.78,.06-2.32,.84-2.81l-.56,1.03c.55,1.43-.48,3.03-1.31,4.12h0Zm3.65-7.77l-.37,.66c.19-.56-.12-2.77-.19-3.37l.37,.37c.08,.53,.24,1.81,.19,2.34Zm15.55-61.24c-1.37,2.33-3.36,5.59-5.36,7.45l-.54,1.38c-.38,.22-2.41,1.5-2.81,1.54-1.23-2.5-1.51-5.59-.17-8.14,.7-.52,2.68-1.67,3.3-2.23,.29-.05,.63,.13,.89,.2,1.19-.49,3.26-.15,4.47-.5,.02-.07,.26-.54,.22-.6h.22c.08,.05,.19,.22,.22,.3-.09,.04-.39,.52-.45,.6h0Zm1.01-20.51l.75,1.4c-.73-.46-1.22-1.56-1.5-2.34l.28-.47c-.01,.39,.26,1.08,.47,1.4Zm-1.86-7.72l-.17,.38c-.32-.68-.22-.95-.21-1.69,.18,.28,.3,.99,.37,1.31ZM32.99,122.63c-1.14-3.16,2.74-4.99,3.28-7.77,.29-2.92-1.1-6.2-.28-8.99-.21-.15-.69-.39-.94-.47,.06-.28,.37-.74,.56-.94,.01-.95-.59-2.37-1.31-3-.57-2.6,1.21-7.69,.56-10.3,2.86-1.76,1.38-5.23,2.06-7.96-1.27-6.12-8.62-8.85-11.89-13.58,.99-1.52,1.74-3.5,1.4-5.34,1.07-.38,3.78-.31,4.96-.66,1.66-2.24,4.89-3.09,7.58-2.9,.98-.23,2.34-1.91,3.09-2.53,.38,.21,1.09,.72,1.4,1.03l.28-.47-.19-.66c2.09-2.6,7.03-4,10.11-5.24,1.28-.95,1.63-3.4,2.9-4.21l1.03,.09c.33,.34,.76,1.12,.84,1.59l.66,.09c.16-.67-.01-1.9-.28-2.53,.58-1.42,1.53-3.59,3.28-3.65,.35,.32,1.14,.79,1.59,.94,5.6,.04,8.23-4.34,12.73-6.93,1.7-2.91,2.45-6.79,4.12-9.74,.46-1.95-1.82-4.23-1.4-6.09,0-1.11,.81-2.87,1.59-3.65,.16-.67,.15-7.14,.2-7.97l7.3,1.27,.51-.98-2.76-.69,.46-.61-.09-.19c-.61,.14-1.14,.96-1.78,1.03v.19l.19,.09-.28,.09-.28-.09c-.08-.15-.11-.49-.09-.66,.97-1.05,1.81-1.67,3.28-1.12l.04-.28c2.64-2.99,6.97-1.66,9.64,.63,1.46,1.03,2.64,3.38,4.36,3.95,.6,2.45,1.33,6.15,1.12,8.71l1.4-.19c-.39,1.3-1.72,2.68-1.22,4.03h-.28c-.79,.39-1.27,.67-1.12,1.69-.16,1.2-1.06,2.89-1.31,4.03-1.92,2.8-4.48,6.67-7.3,8.52-1.8,1.14-6.53,7.05-7.12,9.17l-.47,.09c-.12,.12-.23,.39-.19,.56l.19,.19c-2.22,1.62-2.91,6.3-2.62,8.89,.59,1.34,1.52,2.84,.66,4.31h-.28c-.38,.29-.44,1.61-.75,1.97,.04-.39-.11-1.44,.09-1.78,.27,.07,.52-.18,.75-.28,.3-.42,.19-1.47,.28-1.97-.6-.28-.67-.95-.84-1.5l-.19-.09-.19,.09c-.09,.1-.11,.34-.09,.47,.58,.44,.53,1.62,.37,2.25,.14-.15,.38-.37,.56-.47-.53,.66-1.36,2.57-2.25,2.72-.12-.14-.4-.38-.56-.47l-.19,.09c-1.23,1.69-2.42,3.82-3.28,5.71l-.37-.09c.48-.13,.74-.66,.75-1.12l-1.45,1.88c1.58,.36,5.93,.98,7.35,1.58l-.37,.19v.28l.84-.19c.21-.28,.47-.86,.37-1.22l-.37-.09c.12,.12,.23,.39,.19,.56-.85,.26-2.03,0-2.81-.37,.37-.06,2.04,.22,2.43,.28,.02-.12,0-.37-.09-.47,.15-.31,.35-.97,.28-1.31,.23,.43,.71,1.41,.84,1.87-.81,.95-.28,3.02-1.4,3.84-2.2,1.85-5.48,2.52-6.11,3.49,1.15,.14,3.65,.08,4.82,0l-.4,1.76c.42-.21,.61-.82,1.03-1.03h.56v.19c-1.99,.74-1.91,3.35-2.81,4.87l.28,.75c-1.82,3.25-2.33,7.87-3.37,11.42-1.37,2.76-2.71,7.58-3,10.58-1.07,2.23-2.91,4.49-2.43,7.21h-.19c.04-.38-.03-1.14-.19-1.5l-.47,.56-.37-.09-.09-.47c.2-.07,.41-.37,.47-.56-.29-2.05-4.59-5.19-6.07-6.36-2.64-2.34,.28-6.84,.34-9.82l-1.01-.68c-.38,.73-.15,1.98-.94,2.43l-.28-.19-.47,.84,.28,.19c-.09,.22-.41,.48-.66,.47-1.04,1.96-2.27,4.05-3.28,5.99-.06,.01-.41,.11-.47,.09l-.09,.09v.09c-1.58,.01-3.69,.48-5.25,.47-.75,.72-2.22,1.99-2.05,3.18-.16,.9-1.31,1.73-1.69,2.53-.06,2.24-1.16,2.13-2.62,3.28,.61,1.06-1.2,2.25-.84,3.46-.38,.73-1.31,.88-1.69,1.59-.06,1.31-1.44,2.19-2.34,2.9l-.09,.75c-.08,.13-.32,.26-.47,.28-.6-.3-1.96-.46-2.62-.46-1.34-.68-3.77-2.96-5.24-1.5Zm43.1-42.14l.19-.56h.19c-.05,.08-.29,.52-.37,.56h0Z"/></svg>