<?xml version="1.0" encoding="UTF-8"?><svg id="estados" xmlns="http://www.w3.org/2000/svg" viewBox="0 0 128 128"><defs><style>.cls-1{fill:#3bb1e6;stroke:#fff;stroke-linecap:round;stroke-linejoin:round;stroke-width:1.37px;}</style></defs><path id="ZAC" class="cls-1" d="M116.59,20.49c-.24,.92-.61,2.18-1.14,2.98-5.14,2.62-6.74,9.51-9.9,14.02-2.84,.58-4.12,3.29-6.13,5.17-1.95,1.87-4.93,2.65-6.75,4.64-.78,2.67-1.87,1.58-3.68,2.89-2.56,2.37-4.07,6.46-7.89,7.19l-.53-.26c-.04-.4,.1-.93,.18-1.31-.49-.53-1.14-.23-1.75-.26-1.11,.97-.19,4.91-2.37,4.03l-.44,.09c-.21,.3-.31,.78-.26,1.14,1.62,.93,1.75,2.89,2.1,4.56-.14,.98-1.14,1.83-.79,2.89,1.44,3.54,3.31,6.8,6.31,9.2,.24,.21,.65,.29,.96,.26,2.91,1.12,3.64,8.55,7.54,5.78,.6-.66,1.59-.48,2.37-.7,1.34-3.96,3.64-3.51,7.27-3.24,.95,1.07,1.58,3.01,1.93,4.38-.94,.84-2.58,1.39-2.28,2.98,.81,2.46,1.76,5.53,1.49,8.15-1.54,2.24-3.72,5.1-5.35,7.27-.02-.27-.13-.81-.26-1.05-2.24,.33-2.86-3.26-5.35-2.45-3.06,0-4.2-4.05-7.1-4.82-.93-1.57,1.04-5.4-2.19-4.82-.64-.18-.98-.88-1.49-1.23l-.53,.09-.35-.35c-.08-.34-.28-1.04-.61-1.23-.23,.12-.54,.22-.7,.44,0,0-.53,.18-.53,.18-1.2-.7-1.01-2.68-2.19-3.33-.67,.48-.86,1.5-1.49,2.02-.79-.17-1.2,.57-1.67,1.05-.57,.05-1.29-.2-1.67,.35-.35,2.99-4.87-.36-5.87,2.72l.09,.44c3.32,3.06-10.85,10.56-2.37,14.81-.15,.82-.43,2-.61,2.8-.1,.39-.07,1.06,.18,1.4,1.14,.2,2.04,1.38,3.33,.88l.44,.26c.36,1.57-.79,5.56-2.63,5.7-.35,.38-.49,.75-.96,1.14,.03,.46,0,1.05-.44,1.31h-.61l-.09-.26c.08-.19,.23-.59,.26-.79l-.35-.35c-.83,0-1.39,.96-2.02,1.4-1.37,1-2.94,.03-4.38,.18-.89,2.19,.58,4.97-.35,7.19l-.7,.09c-.9-.68-1.92-1.25-3.07-.79-2.04-.43-3.69-2.22-5.7-2.8-1.42,.44-1.99-.09-2.98-.96-1.06-.21-2.31,.48-3.24-.35-.11-.42-.06-1-.26-1.4-.96-.73-1.94,.51-2.8,.88l-.26-.09c-.19-4.09,2.46-2.26,.35-8.76,4.14,2.85,2.41-1.02,5.96-2.28,.13-1.84,.09-3.91-.7-5.61,1-1.66,2.75-3.16,4.29-4.29,1.19-.15,2.22-.31,2.72-1.58,5.61,.87,2.31-1.09,5.52-2.63,.27-.41,.21-1.03,.09-1.49-.29-.25-.79-.33-1.14-.44-.04-.24-.12-.82,0-1.05,1.44,.17,3.26-3.01,2.02-3.94-.31,.08-.74,.18-1.05,.26-.04-.29-.16-.69-.26-.96l-.35-.26c-.65-.03-1.41,.31-2.02,.53,.09-.53,.3-1.23,.09-1.75-1.85-1.09-3.57-2.69-5.17-4.12-.1,.12-.23,.37-.26,.53-.57,.68-1.06,1.87-1.23,2.72,.23,.12,.58,.28,.79,.44l.18,.53,.26,.18c.16-.02,.47,.01,.61,.09l.09,.26-.09,.35c-.27,.1-.58,.49-.88,.53-.35,.59-.18,1.49-.44,2.1-.27,.15-.85,.41-1.14,.53-.58,1.06-.71,2.52-1.4,3.51-.03-.15-.17-.41-.26-.53-2.56-.87-2.08,1.13-4.12,.79l-.53-.61c0-1.72,.77-3.53-.18-5.17,.5-1.71,.52-4.39,2.02-5.52,.2-.68,.11-1.46-.79-1.31l-.18-.18c-.04-.32,.1-.74,.18-1.05l-.18-.26c-.55-.17-1.27-.06-1.84-.09-.09-.07-.23-.24-.26-.35l-.18-.09c-2.08,3.03-2.29,9.13-3.42,12.71-1.06-1.38-1.41-3.7-.88-5.35,.97-1.05,0-2.15-.09-3.24,1.27-.61,1.08-1.78,.96-2.98,1.74-1.11,1.91-3.06,2.02-4.99-1.57-.27-4.04-.87-5.61-1.14-1.19,10.33,1.81,5.02,1.4,9.29,0,3.97-2.5,3.22-5.52,3.51-1.84,.56-3.77,1.57-5.52,2.37,3.25-8.12,3.93-16.82,3.94-25.5-.06-.81,.42-1.49,1.23-1.66,.8-2.17,.57-5.56,.96-7.89,.72-1.66,3.08-2.19,4.29-3.51,.7-.84,.36-2.17,.96-3.07l.61-.35,.61,.18c.27,.33,.67,.83,1.14,.88,1.16-1.32,.61-2.96-.96-3.59l-.35-.79c1.81-2,.12-2.76-.7-4.56,.46-.12,1.39-.44,1.84-.61-.16-1.22,.05-2.59-.18-3.77,2.06-2.01,5.69-2.23,6.66-5.52,.2-1.22,1.2-1.13,2.1-1.4,.09-2.21,1.71-1.24,3.15-1.84,1.53-7.66,11.85-1.48,16.91-1.58,2.73,.13,5.83-1.23,8.5-1.49,.33-10.26,1.18-10.52-4.82-18.84,2.27-2.87,8.86-1.29,12.09-2.54,.97-.57,9.09,2.43,10.17,2.63,1.71,2.39,2.38,5.78,6.22,5.08,1.42,.5,1.74,1.79,1.75,3.15-.75-.05-1.56-.44-2.28-.61,.28,.66,.41,1.71,1.05,2.1,3.23,.36,5.56,.53,7.54-2.45-.02,.21,.11,.58,.09,.79,6.22-2.54,4.72,7.69,10.52,6.31,1.3-.71,2.62,.6,3.68,1.23h0Z"/></svg>