<svg xmlns="http://www.w3.org/2000/svg" viewBox="0 0 128 128"><defs><style>.cls-1{fill:#b25fac;stroke:#fff;stroke-linecap:round;stroke-linejoin:round;stroke-width:1.37px;}</style></defs><g id="estados"><path id="NL" class="cls-1" d="M71.91,3c.28.23.47.7.76.92a2.9,2.9,0,0,0,.84.38c.1.23.14.6.23.84a3.15,3.15,0,0,1,.46.61,28.6,28.6,0,0,0-4.81,2.67,3,3,0,0,0,.15,1.91l3.06.53c1.4,2.13.9,5.25,1.6,7.63.07.49.77.74.84,1.22-.32,1.93-1.55,4-1.37,6l.76.92a1.24,1.24,0,0,1,.76.23c.25,0,.67.13.92.15a5.5,5.5,0,0,0,1.14.69c.11.25.2.58.54.61-.46.58-1.17,1.26-1.15,2.06.2.87-.56,1.47-1.07,2.06.74,0,1.56-.11,2.29-.08a21.06,21.06,0,0,0,2.67,1.15c1.78.77,1.86,2.67,1,4.19a2.49,2.49,0,0,0,.3,3.28c.49-.13,1-.75,1.45-.84a13.54,13.54,0,0,0,1.91,2.75c.47.36,1.24-.05,1.75.15.54,1,.44,2.81.54,4,0,.56.12,1.83.61,2.22.19-.17.36-.51.61-.62s.48.11.69.08a2.61,2.61,0,0,0,.3-.46,2.24,2.24,0,0,1,.69-.15c1.37.8,2.28,2.48,3.58,3.43a10.73,10.73,0,0,1,1.38-2.36,5.18,5.18,0,0,1,2.36.61c.93.21,3,.8,4,1.07.69,1.29.21,3.17.31,4.58v6.25a7.69,7.69,0,0,0,0,3.06c.71.41,1.79-.16,2.51.23a5.89,5.89,0,0,1,.16,1.22c-2.56,2.24-5.78,4.87-8.4,7.09a10.77,10.77,0,0,1-2.74,2.06c-.73.09-1.61.46-2.29,0l-.77-1.07-.3.08a11.48,11.48,0,0,0-.61,1l-.46.16c-.08.17-.28.52-.38.68a1.94,1.94,0,0,1-.92-.15l-.15.23a5,5,0,0,0,.23.84,1.3,1.3,0,0,0-1.07.15c.12.62.77,1.07,1.07,1.6-.5,1.12-1.76,1.66-1,3.06a2.32,2.32,0,0,1,.46,1.52A9.31,9.31,0,0,1,85,82.53c-.16-.15-.53-.47-.76-.46-.38.23-.66.71-1,1-.68.32-1.26.11-1.9.23-.35.24-.48.73-.84.92a1.12,1.12,0,0,0-1,.45c-.13.45-.07,1-.23,1.45a2.06,2.06,0,0,1-.61.23c-.18.15-.31.44-.54.54h-.38l-.15-.23a1.61,1.61,0,0,1-.38-.16,13.2,13.2,0,0,0-1.53.54c-.67.5-1.43,1.27-2.06,1.83a7.59,7.59,0,0,0,.61,2.59l2.52-1.06a25.87,25.87,0,0,1,.76,4.42c-.66,2.11-1.32,4.41-.84,6.64.13.3.44.94.76,1.07A10,10,0,0,0,79,104,3.87,3.87,0,0,1,80.15,105a8,8,0,0,1,.31,1.75,4.16,4.16,0,0,1-1-.15c-.54.34-2.14,3-2.6,3.43-.61.1-1.45.06-2.06.16a7.13,7.13,0,0,1-1.37.23c-.89,0-2.07-.22-2.67.61-.9,1.57-1.54,3.35-2.37,5,.18,1.25.78,3,1.07,4.27-1.11-.16-2.17-.87-3.28-1-.76.2-1.4,1-2,1.52.63.42,1.64.77,1.91,1.53l-.23,1.45a37.93,37.93,0,0,0-6.48-.31,7.19,7.19,0,0,1-.08,1.61l-.23.07a8.9,8.9,0,0,1-2-.53c-1.07-.9-.81-2.57-.84-3.82a3.34,3.34,0,0,0-.38-1.6c-.15-.85.62-1.69.38-2.52a31.88,31.88,0,0,1-.92-3.89,9.18,9.18,0,0,0,.15-4.2c-.64-.87-1.63-2-2.21-2.9a12,12,0,0,1-.61-2.51v-5c-.12-.94,0-2.18-.61-3-1.78-1.81-3-4.3-4.73-6.18.18-2.22,1.82-4.57,1.3-6.79a4.67,4.67,0,0,1-.46-2.36c.4-.31,1-.67,1.37-1l.08-.38a7.25,7.25,0,0,0-1.45-1.68,2.26,2.26,0,0,1-1.07-.45,5.93,5.93,0,0,1,3-3.74,6.33,6.33,0,0,1,5.64-.92l1.83.69c1.06-.1,2.06-.59,3.13-.31l.31-.15c0-.38-.18-.94,0-1.3a5.46,5.46,0,0,1,1.45-.53c-.62-.77-1.78-1.18-2.52-1.83A8.56,8.56,0,0,1,57.79,68c-.59,0-1.24.51-1.83.3l-.23-.23v-.23l.16-.22v-.23c-.54-.69-1.67-.77-2.45-1-.28-.23-.76-.74-.76-1.14-.47-.66-1.55-.91-2.21-1.3l.15-.53c1-.28,2,.53,2.9.76,0-.54,0-1.27-.61-1.45-.24,0-.81,0-1-.15a1.93,1.93,0,0,1,.07-.76,1.37,1.37,0,0,0-1-.77,2.56,2.56,0,0,1-1.52-.3c-1.22-1.46-2.54-3.25-2.75-5.19-.09-1.15.37-2.52.15-3.66a11.5,11.5,0,0,1-1.83-1.15c-.38-.87-.13-2-.53-2.9a6,6,0,0,0-1.07-1.07,8.72,8.72,0,0,0-1.22-.23,3.7,3.7,0,0,1-1.07-2.44A15.36,15.36,0,0,0,38,40.78c3.59-3.18,7.44-6.56,11.14-9.61l1,3c2.49-2,3-3.73,3.74-6.71a14.86,14.86,0,0,0,0-2.83,4.86,4.86,0,0,0-.15-2.21c-.76-.67-2.06-.07-2.52-1.22h-.15a4.65,4.65,0,0,1-.23.69c-.16.12-.43.06-.61.07l-.15.16v.15a1.23,1.23,0,0,1,.3.46l-.07.38c-.28.31-.84.32-1.23.38l.08-.69-.3-.3a2.9,2.9,0,0,1-.84-.23c.06-.95-1-3.93.3-4.43a11.72,11.72,0,0,0,3.51-2.59A15.68,15.68,0,0,1,55.12,14a.92.92,0,0,1,.08.46l.15.15c1.79,0,1.73-2.54,2-3.81s.64-2.94.91-4.28,1.69-2.21,2.82-2.82c.54-.33,1.22-1,1.76-1.3.53.3,4.71,4.28,5.19,4.2C69.26,5.49,70.56,4,71.91,3Z"/></g></svg>