<svg xmlns="http://www.w3.org/2000/svg" viewBox="0 0 128 128"><defs><style>.cls-1{fill:#b25fac;stroke:#fff;stroke-linecap:round;stroke-linejoin:round;stroke-width:1.37px;}</style></defs><g id="estados"><path id="MEX2730" class="cls-1" d="M119.58,63.69a17.64,17.64,0,0,1-7.11,6c-1,1.19-1.81,3.75-3.27,4.42-1.49.42-3.69,0-4.8,1.34-.11,1.79-2.2,3.91-1.15,5.38l.77.38.19.58a5.64,5.64,0,0,1,1,.38c1.26-.47,3.23-1.45,4.61-1.53l1.54.76a14.81,14.81,0,0,1,1,4.81c.41,1,1.35,2.17,1.15,3.26-2.31,2.12-4,4-4.23,7.3-1.17,1.66-2.55,3.48-3.65,5.19-1.88,2.1-.74,4.8.77,6.72a31.15,31.15,0,0,0,4.61,7.49c-2.29.2-5.27-1-6.34-3.07a2.6,2.6,0,0,0-1.34.57c-3.42,5.27-3,6.41-4.61,7.5-2.46-2.24-6.5-.44-8.45-3.27-1,.2-1.85,1.39-2.69,1.92h-1L85,118.63c-1.14,0-2.07,1.4-3.07,1.73l-.58-.39a7.63,7.63,0,0,0-.58,1.35,4.09,4.09,0,0,1-1.15.38c1.25-2.62,2.84-5.18,3.84-7.87-.28-3.41-3.57-6.26-5.57-8.84-2.38-1.14-4.84,2.29-6.72-1.92l-2.11-.77c-1.14,1.38-3.57,4.09-4.81,5.38l-2.69-.38c-1.22-2.39.95-5.55,1.73-7.88-.24,0-.71-.24-1-.19,1.85-3.92-2.39-8.38-6.34-6.53-4.06,3.25-5.73,2.11-9.22,3.65-.9,1.61-.11,3.89-1.15,5.38a2.09,2.09,0,0,1-1.73,0l-1.34,1a8.56,8.56,0,0,1-1,3.84l-1.92-.19c-1.69.83-2.63,3.27-4,4.41-.86-1.59.12-4.67-2.11-5.18-.44-1.1,0-2.91-.58-4-1.2-1.23-3.45-1.23-4.8-2.3-1.15-2.66,1.09-5.46,1.54-8.07-1-1.67-3-4.62-3.84-6.34-2.12-1.17-5-.59-5.57,1.92a29.54,29.54,0,0,1-7.69-7.1C11.57,77.1,10.51,76.13,8,75,8.38,71,9.4,66,9.51,62A27.94,27.94,0,0,1,18,58.89l.19-.38c2.69,1.63,3.19-2.39,5-3.08l.57.58h.39c.64-.82.8-2.18,2.11-2.11,1.1-.49,1.89-1.86,3.27-1.54-3.42-2.9-1.4-7.78-.2-11.33.82-2.24,4.52-3.39,5.77-5.19.94-3.58.1-3.8,2.49-7.3.4-1.35-1.93-3.07-1.53-4.42,1.1-1.53,3.5-1.05,4.22-3.07,2.39-1,4.36,2.61,6.92,1.15.91-.85,3.17-2.81,4.42-3.07A3.82,3.82,0,0,0,55,18.55a3.26,3.26,0,0,0,1.54.39,23.38,23.38,0,0,1-.19-6c2-3.19,7.84-2.51,7.87,1.73-.36,2,5.21,4.27,6.53,4.23,2.35-.41,4.62-2.31,7.11-2.31a8,8,0,0,0,3.27.58c.58-.78,1.68-1.4,2.49-.58.85-3.25.35-7.08.2-10.37C84.91,5,87.06,5,88.46,4.34c1.28.82,3.16,2.16,4.41,3.07-1.76,1.78-4.06,4.48-2.68,7.11,3.35.62,4.09,5.85,7.68,5.76,1.16-1,3-2.17,3.84-3.46a8.46,8.46,0,0,0-.19-2.3l.77-.19c2.51,1.49.36,4.7-.2,6.72l.77,1.15,1.73.19a6.77,6.77,0,0,1,2.11-1.92c.52.71,1.47,2.46,2.5,2.5.39.47.66,1.35,1.15,1.73h.58c1.56.91.21,4.59-1.54,4.22-3,3.29-5.69,7.66-3.45,12.11-3.93,2.17-8.89-5.89-12.49-1.54.6,1.66,1.61,2.7.77,4.61-1.12.73-2.63.51-3.84,1l-.77,1a3,3,0,0,0,.77,1.73l1.15.19a15,15,0,0,0,2.11-1.34l.77.19c1,4.55-4.64,6-6.34,9.22C88,58.8,87.44,61.4,85,63.12c.41,3,3.52,5.42,4.22,8.45l1.92.57c3.79-1.07,3.45-5,5.58-7.1a7.25,7.25,0,0,1,1.72,1.73l.77.19c2.66-3.06,5.32-6.41,8.07-9.42,2.09-2.49,4-6.9,7.49-7.49.51.1.92,1,1.15,1.35a5.06,5.06,0,0,0,1.73.19l.58.77c.15.86-.34,1.9,0,2.69s1.4,1.46,1.34,2.49C117.71,59.4,117.59,61.88,119.58,63.69Z"/></g></svg>