<?xml version="1.0" encoding="UTF-8"?><svg id="estados" xmlns="http://www.w3.org/2000/svg" viewBox="0 0 128 128"><defs><style>.cls-1{fill:#3bb1e6;stroke:#fff;stroke-linecap:round;stroke-linejoin:round;stroke-width:1.37px;}</style></defs><path id="COAH" class="cls-1" d="M107.32,51.69l-.6,.47-.54,.47-.54,.54-.54,.54-1.21,1.14h-.2l-.13-.07-.33-.33-3.88-3.28-.13,.07-.27,.2-.4,.33-.74,.54-.8,.47-.8,.6-.54,.6-.33,.8-.2,.94-.2,1-.2,.8-.2,1-.2,1.34-.27,1.14-.47,.6-.4,.2-.2,.07h-.2l-.13-.13v-.2l-.07-.2h-.13l-2.48,.94-.27,.2-.27,.27-.27,.33-.27,.27-1.88,1.21-.4,.2-.33,.27-.2,.27-.07,.47,.33,2.88,.33,.13,.4,.07,.27,.27-.07,.6,.47-.07,.33-.07,.27-.2,.07-.33-.07-.13-.07-.13-.13-.13v-.13l.13-.13h.4l.13-.07,.13-.33,.07-.27h.13l.27,.4,.4,.27,.6,.07,.54,.07,.4,.27,.13,.47,.07,.74-.07,.74v.54l.07,.47v1l-.07,.47-.33,1.21-.33,1.21-.47,1.14-.74,1-.33,.33-.33,.33-.4,.33-.33,.33-.87-2.68-.8,.67-1.47,1.21-1.47,1.27-1.41,1.27-1.47,1.27-1.61,1.34-1.54,1.41,.67,.6,.8,.74,.74,.8,.54,.8,.07,.4,.07,.4,.13,.4,.2,.33,.27,.4,.2,.2,.27,.07h.4l.4,.13,.33,.27,.33,.33,.27,.33,.2,.67,.07,.6v.67l.2,.6,.47,.4,.6,.27,.54,.33,.07,.6-.07,.87-.13,.87v.87l.13,.8,.33,.87,.47,.87,.54,.8,.54,.74,.4,.47,.4,.2,.4,.07h.54l.2,.07,.2,.07,.13,.13,.2,.13,.13,.27-.07,.2v.47l.27,.13h.6l.27,.13,.2,.27,.07,.27v.6l-.6-.2-.67-.33-.74-.2-.54,.07-.13,.47,.67,.33,.8,.33,.47,.47,.13,.47,.54,.54,.8,.2,.8,.2,.54,.47v.2l-.13,.2v.2l.2,.2,.33,.07,.47-.13,.4-.13,.4-.07,.33,.07,.4,.07,.4,.07h.74l.2,.13,.54,.4,.54,.33,.67,.4,.27,.33-.67,.2-.2,.07-.2,.07-.2,.13-.07,.2v.2l.07,.54v.2l-.27,.13-.47-.07h-.8l-.54,.2-.47,.07-.47,.07-.54-.2-.54-.2-.54-.2-.54-.13-.54-.13h-1.41l-1.27,.4-1.21,.67-1.21,.8-.54,.6-.54,1-.33,.87,.54,.33,.4,.07,.33,.33,.67,.67,.27,.47-.07,.33-.33,.27-.4,.27-.47,.33-.07,.4,.07,.4,.2,.67,.2,.6,.13,.54v.47l-.13,.6-.27,1.07-.33,1.07-.33,1.14-.2,1.07-.4-.27-.4-.27-.87-.47-.4-.13-.33,.07-.4,.13-.4,.13-.8-.07-.87-.4-.8-.54-.54-.6-.13-.4-.13-.4-.07-.4-.2-.33-.2-.4-.27-.4-.27-.33-.27-.33-.74-.47-.74-.13-.74,.07-.87,.2v-.13l-.07-.33v-.13l-.4,.4-.47,.47-.8,.87-.4,.27-.4,.07-.47-.07h-.47l-1.74-.13h-.6l-.27-.2-.2-.47-.2-.54-.13-.4,.47,.13,.4,.13,.4,.13,.47,.07-.07-.47v-.47l-.13-.47-.2-.4-.27-.2-.33-.2-.33-.2h-1.14l-.87-.2-.74-.47-.6-.6-.27-.6-.33-.8-.4-.8-.4-.4-6.56-2.01-.6-.07-.6,.07-.6,.13-.6,.07-1.54,.2-4.69,.47-.67,.07-.4,.13-.33,.27-.4,.6-1.88,2.48-.33,.47-.4,.6-.54,.54-.47,.13-.07,3.95-.47-.4-.47-.33-.47-.33-.47-.33-.87-.4-.87-.33-.87-.2-.87-.2-.94-.27-.94-.33-.87-.54-.54-.87-.13-.87v-1.88l-.33-.74-.74-.54-.87-.47-.8-.54-.47-.74-.27-.6-.27-.47-.33-.4-.4-.33-.33-.2-.27-.27-.13-.27-.07-.4,.07-.67,.27-.6,.27-.6,.4-.54,.2-.13,.47-.13,.13-.13-.07-.2-.13-.27-.27-.27-.2-.2-.33-.33-.27-.33-.2-.4v-.47l.13-.4,.2-.27,.27-.2,.33-.2,.2-.2,.2-.13,.27-.07,.13-.2,.2-.27,.13-.2,.4-.4,.2-.4,.13-.33,.2-.27,.4-.2,.2-.33,.07-.67v-.74l-.07-.6-.07-1.14-.07-.67-.07-.67-.07-.67-.13-1.21-.13-1.21-.07-1.27,.13-1.14,.33-1.14,.47-1.07,.54-1.07,.2-1.21-.27-1.21-.87-1-1.07-.94-.94-.74-.8-.8-.87-.74-1.67-1.47-1-.87-.94-4.02-.33-1.34-1.07-4.55-2.21-9.18-1.07-4.55-.47-2.21-.87-3.75-.13-.74,.67-1.21,.94-1.67,.87-1.67,.87-1.74,.87-1.67,1.34-2.55,1.27-2.55,1.74-3.35,1.74-3.35,1.74-3.42,1.9-3.63c1.64,.18,3.2,.02,4.53-.99l.14-.2,.2-.2,1.74-2.08,1.2-2.73,.7-2.22,.82-2.75,1.03-2.18,.99-2.01,1.11-.94,.39-.3,.84-.61,3.37-2.09,3.12-1.19,1.85,.14,10.06,1.29,4.88,.11,.07-.13,.2,.07,1.41,.67,.2,.07,.6,.47,.2-.07,.2-.07,.2-.07-.07,.27,.07,.33,2.18,2.33,1.3,.95,1.12,1.02,2.7,3.07,.27-.07,.2-.2,.13,.4,2.66,2.55,1.9,1.67,.4,.27,.27,.4,.47,.8,1.07,1.74,.07,.13,.13,.2,.2,.07h.27l.2,.07,.2,.33,.13,1.41,.4,1,1.41,3.21,.47,.74,.13,.13,.07,.13,.13,.2,.07,.13,.13,.27,1.61,3.88,.67,.8,.2,.2,.13,.2-.07,.6v.27l.33,.47,.4,.27,.87,.33-.6,.33-.13,.2,.07,.27,.13,.2,.2,.13,.07,.13,.87,2.55,.33,.54,1.41,2.08h.13l.07,.2,2.68,1.94,.4,.4,.13,.54,.07,.33,.07,.13,.27,.33,.27,.27,.2,.07-.07,.13v.13l-.07,.13,.13,.4,.2,.33,.2,.27,.27,.4,.33,.13,.4,.07,.27,.2-.2,.33,.2,.33,.33,.47,.33,.33,.33,.2,.07,.07-.07,.27,.47,2.08,.33,.27,.2,.27v.13l.54,.07,.07,.07h0Z"/></svg>