<?xml version="1.0" encoding="UTF-8"?><svg id="estados" xmlns="http://www.w3.org/2000/svg" viewBox="0 0 128 128"><defs><style>.cls-1{fill:#3bb1e6;stroke:#fff;stroke-linecap:round;stroke-linejoin:round;stroke-width:1.37px;}</style></defs><path id="MEX2730" class="cls-1" d="M119.58,63.69c-1.77,2.58-4.28,4.65-7.11,5.95-1,1.19-1.81,3.76-3.26,4.42-1.5,.43-3.69,.03-4.8,1.34-.11,1.79-2.2,3.91-1.15,5.38l.77,.38,.19,.58c.23,.07,.76,.26,.96,.38,1.26-.48,3.23-1.46,4.61-1.54l1.54,.77c.44,1.26,1.07,3.46,.96,4.8,.41,.95,1.35,2.17,1.15,3.27-2.31,2.12-4.01,3.96-4.23,7.3-1.17,1.66-2.55,3.48-3.65,5.19-1.88,2.1-.75,4.8,.77,6.72,1.13,2.36,2.78,5.58,4.61,7.49-2.29,.2-5.27-.97-6.34-3.07-.29-.01-1.17,.34-1.34,.58-3.42,5.27-2.95,6.4-4.61,7.49-2.46-2.24-6.5-.43-8.45-3.27-1.03,.2-1.85,1.39-2.69,1.92h-.96c-.38-.28-1.16-.87-1.54-1.15-1.14-.05-2.07,1.41-3.07,1.73l-.58-.38c-.17,.3-.5,1.01-.58,1.34-.22,.16-.89,.33-1.15,.38,1.25-2.62,2.84-5.18,3.84-7.88-.28-3.4-3.58-6.25-5.57-8.84-2.39-1.14-4.84,2.29-6.72-1.92l-2.11-.77c-1.14,1.38-3.56,4.09-4.8,5.38l-2.69-.38c-1.23-2.39,.94-5.55,1.73-7.88-.24,.05-.72-.24-.96-.19,1.85-3.92-2.4-8.37-6.34-6.53-4.06,3.25-5.74,2.11-9.22,3.65-.9,1.61-.12,3.89-1.15,5.38-.5,.25-1.23,.25-1.73,0l-1.34,.96c.03,1.04-.39,2.96-.96,3.84l-1.92-.19c-1.69,.84-2.63,3.28-4.03,4.42-.86-1.6,.11-4.67-2.11-5.19-.44-1.1,.04-2.91-.58-4.03-1.21-1.23-3.46-1.23-4.8-2.31-1.15-2.66,1.09-5.46,1.54-8.07-1.04-1.67-2.97-4.62-3.84-6.34-2.12-1.17-4.99-.59-5.57,1.92-2.84-1.74-5.69-4.44-7.68-7.11-1.02-2.53-2.07-3.51-4.61-4.61,.41-4.01,1.43-9.05,1.54-13.06,2.51-1.27,5.63-2.72,8.45-3.07l.19-.38c2.68,1.63,3.19-2.39,4.99-3.07l.58,.58h.38c.65-.82,.81-2.18,2.11-2.11,1.1-.49,1.89-1.86,3.27-1.54-3.41-2.9-1.4-7.78-.19-11.33,.82-2.24,4.51-3.38,5.76-5.19,.95-3.58,.1-3.8,2.5-7.3,.39-1.35-1.93-3.07-1.54-4.42,1.11-1.53,3.51-1.05,4.23-3.07,2.38-.97,4.36,2.61,6.91,1.15,.91-.85,3.17-2.81,4.42-3.07,1.19,.29,2.5,.24,3.46-.58,.34,.16,1.15,.49,1.54,.38-.28-1.71-.42-4.26-.19-5.95,2.02-3.19,7.84-2.51,7.88,1.73-.37,1.99,5.21,4.27,6.53,4.23,2.34-.41,4.61-2.31,7.11-2.31,1.03,.3,2.16,.74,3.27,.58,.58-.77,1.68-1.4,2.5-.58,.85-3.25,.34-7.08,.19-10.37,1.06-1.27,3.22-1.24,4.61-1.92,1.29,.82,3.16,2.16,4.42,3.07-1.76,1.78-4.07,4.48-2.69,7.11,3.35,.63,4.1,5.85,7.68,5.76,1.16-1,2.96-2.17,3.84-3.46,.03-.57-.01-1.77-.19-2.31l.77-.19c2.51,1.49,.36,4.7-.19,6.72l.77,1.15,1.73,.19c.42-.56,1.43-1.68,2.11-1.92,.52,.71,1.47,2.45,2.5,2.5,.39,.47,.66,1.35,1.15,1.73h.58c1.56,.92,.21,4.59-1.54,4.23-2.99,3.28-5.69,7.65-3.46,12.1-3.93,2.18-8.88-5.89-12.49-1.54,.6,1.66,1.61,2.7,.77,4.61-1.11,.73-2.62,.51-3.84,.96l-.77,.96c.01,.53,.38,1.37,.77,1.73l1.15,.19c.69-.27,1.49-.95,2.11-1.34l.77,.19c.98,4.56-4.64,5.99-6.34,9.22-.07,2.8-.63,5.4-3.07,7.11,.41,3,3.52,5.42,4.23,8.45l1.92,.58c3.79-1.07,3.44-4.98,5.57-7.11,.52,.34,1.39,1.21,1.73,1.73l.77,.19c2.66-3.06,5.31-6.4,8.07-9.41,2.09-2.5,3.95-6.91,7.49-7.49,.51,.09,.92,.96,1.15,1.34,.41,.16,1.29,.23,1.73,.19l.58,.77c.15,.86-.34,1.9,0,2.69,.46,.77,1.4,1.46,1.34,2.5-1.87,1.85-1.98,4.33,0,6.15Z"/></svg>