<?xml version="1.0" encoding="UTF-8"?><svg id="estados" xmlns="http://www.w3.org/2000/svg" viewBox="0 0 128 128"><defs><style>.cls-1{fill:#3bb1e6;stroke:#fff;stroke-linecap:round;stroke-linejoin:round;stroke-width:1.37px;}</style></defs><path id="NL" class="cls-1" d="M71.91,3.01c.28,.23,.47,.7,.76,.92,.21,.17,.58,.3,.84,.38,.1,.23,.13,.61,.23,.84,.12,.09,.37,.48,.46,.61-1.58,.7-3.4,1.66-4.81,2.67-.1,.56-.18,1.42,.15,1.91l3.05,.53c1.41,2.13,.91,5.25,1.6,7.63,.07,.49,.77,.74,.84,1.22-.32,1.93-1.55,4.01-1.37,6.03l.76,.92c.27-.05,.53,.11,.76,.23,.25,.03,.67,.14,.92,.15,.32,.27,.76,.51,1.14,.69,.11,.26,.2,.58,.53,.61-.46,.59-1.16,1.27-1.14,2.06,.2,.87-.56,1.47-1.07,2.06,.74,.04,1.55-.1,2.29-.08,.82,.39,1.79,.88,2.67,1.14,1.78,.77,1.85,2.67,.99,4.2-.83,.9-.53,2.47,.31,3.28,.49-.13,.96-.75,1.45-.84,.31,.9,1.36,1.97,1.91,2.75,.47,.36,1.24-.05,1.76,.15,.54,1.05,.43,2.81,.53,3.97,.03,.56,.13,1.82,.61,2.21,.19-.17,.37-.5,.61-.61,.2-.02,.48,.11,.69,.08,.07-.04,.26-.39,.31-.46,.09-.09,.56-.13,.69-.15,1.37,.8,2.28,2.48,3.59,3.43,.44-.74,.73-1.75,1.37-2.37,.79-.07,1.66,.3,2.37,.61,.92,.21,3.04,.8,3.97,1.07,.69,1.29,.21,3.17,.31,4.58,0,.45,0,6.01,0,6.26-.13,.88-.28,2.19,0,3.05,.72,.42,1.8-.16,2.52,.23,.1,.14,.13,1.05,.15,1.22-2.56,2.24-5.78,4.88-8.39,7.1-.76,.61-1.81,1.77-2.75,2.06-.73,.09-1.61,.46-2.29,0l-.76-1.07-.31,.08c-.17,.23-.47,.74-.61,.99l-.46,.15c-.08,.17-.28,.52-.38,.69-.25,.03-.69-.05-.92-.15l-.15,.23c.03,.21,.15,.64,.23,.84-.33-.12-.78-.04-1.07,.15,.12,.62,.77,1.07,1.07,1.6-.5,1.11-1.76,1.66-.99,3.05,.29,.43,.53,1,.46,1.53-.76-.22-1.69-.48-2.37-.92-.16-.14-.53-.47-.76-.46-.37,.23-.65,.72-.99,.99-.68,.32-1.27,.11-1.91,.23-.35,.24-.47,.73-.84,.92-.37-.03-.77,.16-.99,.46-.12,.44-.07,1.01-.23,1.45-.16,.1-.42,.2-.61,.23-.17,.15-.31,.44-.53,.53h-.38l-.15-.23c-.1-.03-.3-.1-.38-.15-.45,.16-1.09,.32-1.53,.53-.67,.5-1.43,1.28-2.06,1.83-.09,.74,.39,1.9,.61,2.59l2.52-1.07c.28,1.36,.74,3.04,.76,4.43-.66,2.11-1.32,4.41-.84,6.64,.13,.29,.44,.93,.76,1.07,.45,.42,1.06,1.16,1.6,1.45,.42,.23,.87,.68,1.14,1.07,.16,.52,.28,1.22,.31,1.76-.3,.03-.7-.1-.99-.15-.54,.34-2.14,3.04-2.59,3.43-.61,.1-1.45,.05-2.06,.15-.33,.11-1.03,.21-1.37,.23-.88,.04-2.07-.22-2.67,.61-.89,1.58-1.54,3.36-2.37,4.96,.18,1.25,.78,3.02,1.07,4.27-1.11-.16-2.17-.87-3.28-.99-.76,.21-1.39,1.06-1.98,1.53,.63,.42,1.63,.76,1.91,1.53l-.23,1.45c-2.01-.38-4.45-.3-6.49-.31-.03,.45,.08,1.18-.08,1.6l-.23,.08c-.59-.16-1.44-.24-1.98-.53-1.06-.9-.8-2.56-.84-3.82,.06-.54-.17-1.12-.38-1.6-.14-.86,.63-1.69,.38-2.52-.32-1.23-.75-2.63-.92-3.89,.26-1.34,.54-2.85,.15-4.2-.64-.87-1.63-1.98-2.21-2.9-.26-.6-.54-1.87-.61-2.52,0-1.56,0-3.47,0-5.04-.12-.94-.02-2.17-.61-2.98-1.78-1.81-3.03-4.3-4.73-6.18,.18-2.22,1.82-4.57,1.3-6.79-.2-.71-.67-1.61-.46-2.37,.4-.3,.99-.67,1.37-.99l.08-.38c-.25-.6-1.02-1.22-1.45-1.68-.31,.02-.83-.28-1.07-.46,.46-1.58,1.48-2.99,2.98-3.74,1.58-1.09,3.8-1.62,5.65-.92,.54,.2,1.29,.48,1.83,.69,1.05-.1,2.05-.59,3.13-.31l.31-.15c.03-.38-.18-.93,0-1.3,.35-.27,1.04-.39,1.45-.53-.61-.77-1.78-1.18-2.52-1.83-.69,.04-1.46-.08-2.14-.23-.59,.02-1.24,.51-1.83,.31l-.23-.23v-.23l.15-.23v-.23c-.53-.69-1.67-.77-2.44-.99-.28-.24-.76-.75-.76-1.14-.47-.66-1.55-.91-2.21-1.3l.15-.53c.99-.28,1.98,.53,2.9,.76,.03-.54,.02-1.27-.61-1.45-.24,.01-.81,.03-.99-.15,0-.23-.03-.55,.08-.76-.15-.41-.58-.66-.99-.76-.48,.03-1.12-.02-1.53-.31-1.22-1.46-2.53-3.25-2.75-5.19-.09-1.15,.37-2.52,.15-3.66-.53-.39-1.39-.65-1.83-1.14-.38-.87-.13-2.02-.53-2.9-.26-.37-.7-.8-1.07-1.07-.34-.19-.86-.12-1.22-.23-.67-.62-.99-1.55-1.07-2.44-.72-1.27-2.06-2.4-3.13-3.36,3.59-3.19,7.44-6.56,11.14-9.62l.99,3.05c2.49-1.99,3.01-3.74,3.74-6.72,.19-.9,0-1.92,0-2.82,.1-.65,.09-1.59-.15-2.21-.76-.67-2.06-.07-2.52-1.22h-.15c-.03,.18-.16,.52-.23,.69-.16,.12-.43,.07-.61,.08l-.15,.15v.15c.14,.1,.24,.31,.31,.46l-.08,.38c-.28,.31-.84,.32-1.22,.38l.08-.69-.31-.31c-.22-.02-.64-.12-.84-.23,.07-.95-1.01-3.93,.31-4.43,1.05-.53,2.81-1.64,3.51-2.59,.2-.25,2.94-1.27,3.28-1.3,.05,.11,.09,.34,.08,.46l.15,.15c1.79-.05,1.73-2.54,1.98-3.82,.27-1.34,.65-2.93,.92-4.27,.34-1.32,1.69-2.21,2.82-2.82,.53-.33,1.22-.99,1.76-1.3,.53,.3,4.71,4.28,5.19,4.2,1.24-1.11,2.55-2.61,3.89-3.59h0Z"/></svg>