<?xml version="1.0" encoding="UTF-8"?><svg id="estados" xmlns="http://www.w3.org/2000/svg" viewBox="0 0 128 128"><defs><style>.cls-1{fill:#3bb1e6;stroke:#fff;stroke-linecap:round;stroke-linejoin:round;stroke-width:1.46px;}</style></defs><path id="SON" class="cls-1" d="M97.75,118.21l.05-.1,.34-.58,.05-.29,.05-.19,.1,.05,.05,.19-.14,.39-.1,.1-.1,.14-.1,.1-.05,.14-.14,.05h0Zm.96-.43l.05-.34v-.87l.14-.19h.29l.34,.1,.19,.14,.1,.29v.1l-.14,.14-.29,.19-.58,.39-.1,.05h0Zm-10.75-12.92h-.14l-.34-.48-.34-.24-.43-.19-.24-.05-.14-.14,.14-.05,.29,.1,.48,.24,.43,.29,.29,.53Zm-9.01-4.77l-.05,.29-.82-.34-.24-.24-.05-.67,.05-.43,.1-.39,.05-.19-.05,.67,.05,.77,.29,.34,.67,.19h0Zm-12.77-11.47l.1,.29-.24-.1-.1-.19-.1-.14,.1-.19,.24,.34h0Zm-13.88-12.87v.1l-.1-.05v-.14l-.1-.14,.05-.1,.05,.14,.05,.1v.05l.05,.05h0Zm-1.23-7.85c.29,.45,.19,.77,.19,1.25-.02,.61,1,1.62,1.11,2.31-.04,.9-1.62,4.03-.96,4.15,.3,.49-.57,.16-.77,.63-.37-.54-1.01-.18-1.35-.82-1.03-.12-1.55-.87-2.6-1.3-.42-.3,1-.77,1.11-1.25,.31-.73-.3-1.5-.05-2.36,.21-.94,.37-2.56,1.54-1.98,.38-.47,.98-.57,1.54-.58,.26-.39,.8-.57,.24-.05Zm-1.37-1.74h-.05l-.05-.1,.05-.05,.05,.1v.05ZM16.09,22.86l.24,.53h-.19l-.19-.05-.14-.14-.1-.14-.34,.24-.72-.34-.53-.72,.19-.87,.48,.1,.67,.63,.63,.77Zm86.62,6.99c-.16,2.99-1.31,6.51-.92,9.35,5.72,5.85,6.8,1.28,7.13,9.59,.58,4.72-.64,9.58-.82,14.36,.25,.92-.94,.57-1.45,.67,.21,1.92,.69,6.06,.92,8,.15,1.14,.24,2.53,.53,3.62-.18,.68-.61,1.45-.53,2.17,.41,1.62,1.36,3.32,1.59,4.96-.66,.55-1.27,1.8-2.27,1.21-2.25-.57-5.65-1.7-7.04,.87,.72,1.6,1.36,3.98,2.31,5.4,1.23,.7,1.58,.83,1.98,2.22,.83,.81,1.8,.98,1.4,2.31,.48,.9,2.01,1.13,1.93,2.27,.05,.54-.24,1.1-.19,1.64,.54,.94,.45,1.63-.24,2.46-.5,.82,1.68,4.26,2.46,3.86,.35-.28,.5,.19,.63,.43,.42,.45-.16,1.09-.24,1.59-.04,1.76-.26,1.99-1.74,3.04-2.44,2.35-5.69,4.4-8.05,6.75-.1-.25-.33-.71-.63-.77l.14,.29c-.56-.35-.81,.22-1.21,.43-.11-.14,.12-1.28,.14-1.45-.03-1.2-.77-2.41-1.78-3.04-.33-.87-1.18-1.19-1.93-1.45,.25-.12,.59,.11,.82,.19-.11-.41-.06-.87-.67-.77-.14-.33-.17-.57-.48-.19-.05-.68-.67-.26-.72,.19,.12,.17,.66,.01,.48,.34-.09,.3,.52,.2,.43,.48-.6-.38-1.66-.54-2.36-.43-.24,.21-.29,.42-.67,.29-1.46-.46-2.65-1.73-2.7-3.33-.25-.53-1.03-1.85-1.06-2.31,.21,.33,.53,.95,.87,1.16-.31-.54-.43-1.42-.48-2.02-.42-.66-1.57-1.64-2.07-.53-.76-.13-2.18-.82-3.23-.92-1.88-.58-1.87-2.2-3.95-2.7,1.45,.18,1.82,.32,.67-.96,.22-.3,.02-.32-.19-.48-.3-.31-1.02,.93-.92-.43-.25-.61-.73-.88-.53-1.74-.11-.64-.69-1.55-.58-2.22,.07-.33,.43-.41,.72-.43,.41-.48-.1-.81-.39-.24,.06-.96,.51-.59,.87-1.06-.62,.02-1.1-.19-.63-.82-.31,0-.55-.31-.34-.58,.3,.54,.26-.26,.48-.24,2.2-.13,.45-.84-.58-.82,.64,.7-1.52-.58-1.88-.48-.43-.22-1.52,.27-1.64,0,.4-.15,.76-.17,.43-.63-.08-.31,0-.77-.48-.67-.09,.54-.11,1.17-.58,1.54,.65-.24,.37,.85,.05,1.06-.12-.3-.44-.79-.82-.77-.31-.21-.49-.63,.05-.63-1.18-1.51-1.32-.22-2.55-.29,.36-.51-.61-.79-1.01-.92-.19-.3-.47-.71-.72-.96-.3,0-.61-.16-.67-.48-.43-.37-.53-1.18-1.06-1.49-.04-.17-.03-.95-.29-.96-.57,.09-.41-.7-.63-1.01-.74-.48-1.17-1.12-.67-1.93-1.35,.26-2.68-.96-3.95-1.25-.45-.32-.65-1.58-.92-2.17-.24-.52-3.83-2.96-2.46-3.18,.51-.73,.51,.55,.92,.24,.4-1.37-.95-.42-1.4-1.25-.24-.32-.8-.49-1.16-.63-.11-.65-.86-.9-1.06-1.54-.14-.4-1.39-.02-.96-.53,.26,.09-.16-1.78-.39-1.64,.04-.28,.39-.49,.34-.77-.07-.27-.52-.54-.39-.82-.49-.28-.57-.55-.34-1.06-.02-.58-.2-1.52-.77-1.78-.49-.02-1.17-.11-1.06,.58-1.69-1.17-1.44-1.02-.67-2.89,.14-.57-.3-.58-.63-.82-.31-.18-.09-.62-.19-.92-.31-.19-.86-.69-1.11-.96-.12-.28-.4-1.16-.58-1.4-.24,.09-.46-.17-.58-.34-.14-.68-.4-1.39-.87-1.93-.45-2.76-1.87-.17-1.64-2.31,.46-.85-.06-1.31-.19-2.07,.14-.99,.29-2.27-.58-2.99-.18-.21-.69-.63-.87-.29,.84-2.86-1.63-3.86-2.84-6.07-.92-1.58-1.46-3.59-.92-5.3,.35-.86-.57-2.16-.34-2.84,.59,1.96,.94,1.49,1.06-.19,.17-1.05-.14-2.39-1.4-2.51,1.06,1.09-.32,.17-.77-.1-.12-.36-.49-.72-.53-1.11-.24-.06-.45,.19-.67,.14,.12,.34,.5,.42,.72,.63-2.09-.28-4.63-.76-6.31-1.74,.95,0,.19-1.03,.14-1.64,.16-1.23-1.6-2.12-2.55-2.31-.36-.25-1.17-.42-1.25-.92-1.31,.77-.85-.38-1.4-.87-.02,.27-.25,1.72,.24,1.49,.32,.24-.21,.35-.29,.63,0,.21-.15,.39-.39,.34-.03,.22-.24,.42-.34,.63-1.61,.14-3.25-.35-4.34-1.54-.68-.65-1.85-1.28-2.75-1.78-.53-.37-1.05-1.44-1.69-1.59-1.16,.2-1.35-.11-2.17-.77-.28-.21-.83-.05-1.06-.39-.31-.64-1.22-.95-1.74-1.4-.24-.98,.44-2.42-.72-2.94,.31-.91,.53-1.56-.05-2.51-.2-.43-.96-.96-.82-1.45,1.4-.87,.67-2.34,1.69-3.42,.43-.32,1.23,.11,1.64-.29,16.77,6.19,34.31,12.5,51.1,18.65,2.63,.85,5.48,2.62,8.34,2.31,8.3-.01,21.21,0,29.45,0Z"/></svg>