<?xml version="1.0" encoding="UTF-8"?><svg id="estados" xmlns="http://www.w3.org/2000/svg" viewBox="0 0 128 128"><defs><style>.cls-1{fill:#3bb1e6;stroke:#fff;stroke-linecap:round;stroke-linejoin:round;stroke-width:1.37px;}</style></defs><path id="MEX2731" class="cls-1" d="M116.37,50.23c-.75-.06-1.86,.23-2.61,.17,.13,.73,.46,2.27,.7,2.96,.49,.43,1.98,.88,2.61,1.05,.26,.81,.17,2.12,.35,2.96-.94,1.12-1.38,2.79-1.74,4.18,.81,3.64,2,7.93,2.27,11.67-.17,.21-.63,.56-.87,.7-.34,2.14-.89,5.24,.35,7.14,.06,.57-.29,1.35-.35,1.92-.95,.33-1.92,1.07-2.79,1.57-.14,.4-.49,1.2-.7,1.57-2.04,.91-3.12,.22-5.05,.17-.22-.06-.56-.35-.7-.52v-.52c-.39-.89-.79-2.2-1.05-3.14l-.35-.35c-.12-.04-.58,.14-.7,.17-.82-.29-1.56-1.26-2.09-1.92-1.15-.38-2.82-.6-4.01-.87,.57-.79,1.48-1.92,1.39-2.96-.34-1.05-1.37-2.51-1.39-3.66-.12-1.57,.74-3.33,.17-4.88-.58-3.42-3.22-3.37-5.4-5.23l.87-.87c-.19-.17-.64-.61-.7-.87,.24-.14,.7-.48,.87-.7l.17-.52c-.63-1.13-1.36-2.41-1.74-3.66-1.32-.39-1.66-1.92-1.57-3.14-.26-.62-.79-1.25-1.39-1.57-.51,.51-1.23,1.23-1.74,1.74v1.22l-.52,.52,.52,.17,.35,.52-.17,.35c-.45,.33-1.07,.63-1.57,.87-1.39,2.25-3.45,4.25-4.36,6.8l-.7,.35c-.51-.09-1.58-.26-2.09-.35l-.17,1.22c-.39,.56-.94,1.77-1.05,2.44l.17,1.22,.35,.35v.35c-.17,.25-.53,.79-.7,1.05l.17,.52,.52,.35h.35c.08,.08,.27,.27,.35,.35-.31,1.69-.07,3.76,1.39,4.88-.6,1.22-2.06,1.88-2.61,3.14l.17,.87c.4,.32,1.01,1.11,1.22,1.57-.34,.26-1.05,.79-1.39,1.05l-.17,.7,.35,1.05,1.22,1.22,.35,1.57-.35,.87c-1.21,1.19-3.02,1.65-4.53,2.27-2.3,2.34-1.17,3.55-4.53,5.58,.05,2.39-.84,5-1.22,7.32l-1.05,.35c-.64-.1-1.97-.27-2.61-.35l-.7-.7-.52-1.22-.35-.35-.7-.17c-.56-.52-1.61-1.67-2.09-2.27l-1.05-.52c-1.55,1.26-3.15,3.15-4.88,4.18l-.35,.7c.27,1.42-.49,2.63-1.57,3.48l-.7-.17c-.63-.6-1.33-1.62-2.09-2.09-4.15-.56-8.77,2.75-13.07,2.96-1.84,4.9-4.96,7.78-9.06,10.8l-.7,.17c-.32,.54-.82,1.26-1.39,1.57-.37,.15-1.17,.21-1.57,.17-1.48-.77-2.74-2.36-3.48-3.83,.29-1.35,1.03-3.12,1.05-4.53-.33-2.81-4.09-4.01-4.7-6.62,.22-.6,.18-1.47,.17-2.09-.23-.41-.69-1.47-.87-1.92v-1.22c.26-.52,.79-1.58,1.05-2.09v-.7c-.14-.24-.48-.7-.7-.87-.25-.65-.1-1.61-.35-2.27-3.15-.24-6.77-.43-9.76-1.74l.52-.35v-.52c.13-.36,.51-.74,.87-.87l.17,.17,.35-.17c.6-1.54,2.28-2.06,3.48-2.96,.24-.64,.17-1.59,.17-2.27,.12-.44,.55-1.24,.87-1.57,4.54-3.66,7.47-9.86,11.5-14.11l.17-.52c-.17-.48-1.62-2.66-1.92-3.14,2.48-2.22,7.98-4.08,10.11-6.62-2.3-1.75-2.82-4.94-3.83-7.49,.89-2.6,1.63-6.03,2.79-8.54-1.03-4.26,2.06-8.96,2.26-13.24,1.16-2.33,2.79-4.55,4.36-6.62,1.43-2.69,3.73-5.71,5.92-7.84,.59-.33,1.95-.4,2.61-.35-.99-1.07-1.67-2.72-2.79-3.66l5.23-3.31c.6,.32,2.24,1.21,2.79,1.57,1.7,3.69,4.88,6.9,8.36,9.06,.42-.45,.45-1.29,.87-1.74,1.2-.58,3.01-.73,4.18,0,.78,1.55,2.55,4.25,3.48,5.75-.44,2.05-1.71,4.15-1.74,6.27l.35,1.05c.91,.65,2.42,1.11,3.48,1.39l.87,.7c.39,.89,.38,2.36,.35,3.31l.17,.35,.52,.17c.17,.17,.53,.53,.7,.7,.22,1.06,.25,2.79,.7,3.83,1.28-1.04,2.13-3.25,3.66-4.01l1.74,.17c.52-.8,.9-2.54,.87-3.48l1.22-.87c.45,.23,1.11,.23,1.57,0l.35-.52c.27-1.36,.07-3.06,.7-4.36,.98-.86,2.48-.61,3.66-.87,2.01-.38,3.71-2.09,5.58-2.79,.83-.06,1.98,.18,2.79,.35,2.1,1.08,3.04,3.77,2.09,5.92,.22-.04,.65,.22,.87,.17-.79,2.12-2.38,4.67-1.74,6.97l.17,.17,2.44,.35c1.13-1.17,3.32-3.63,4.36-4.88l1.92,.7,.87,1.39c.48,.31,1.51,.68,2.09,.7,.66-.17,1.93-.78,2.61-.7l.52,.35c1.35,1.54,3,3.41,4.01,5.23,1.29,1.51,1.38,3.38,0,4.88-.46,1.75-1.75,3.38-2.44,5.05h0Z"/></svg>