<?xml version="1.0" encoding="UTF-8"?><svg id="estados" xmlns="http://www.w3.org/2000/svg" viewBox="0 0 128 128"><defs><style>.cls-1{fill:#3bb1e6;stroke:#fff;stroke-linecap:round;stroke-linejoin:round;stroke-width:1.31px;}</style></defs><path id="GRO" class="cls-1" d="M82.89,30.28l-.29,.57-.19,.57,.1,.48,.67,.19,.57,.1,.1,.48,.19,.57,.57,.19,.19,.38,.48,.77,.19,.38,.29,.38,.29,.29,.38,.19h.38l.57,.1,.19,.48v.67l.29,.29h1.92l.67-.1,.1-.29,.1-.38,.1-.86,.19-.77,.38-.57,.57-.38,.77,.1,.29,.1,.19,.1,.19,.19v.29l.1,.38v.48l.1,.29,.29,.29,.19,.29,.19,.19,.1,.19,.1,.38,.38,.86,.67,.67,.57,.67,.29,1.15,.1,.48v1.44l.19,.48,.19,.29,.1,.38v.48l.86-.1v.38l.1,.38,.1,.38,.29,.29,.57,.38,.38-.29,.38-.19,.38,.1,.1,1.24,.19,.57,.48,.29h.48l.77,.1,.67,.19,.38,.19,.38,1.44,.86,1.15,1.15,.77,1.34,.57,.57,.19,.67,.1,.57,.19,.57,.1,.29,.19,.29,.1,.29,.1,.29,.1,.96,.19,1.05,.1,.96-.1,.96-.19,.57-.19h.29l.38,.1,.38,.38,1.63,1.82,.57,.57,.1,.48-.19,.57-.38,.67-.19,.57-.1,.67-.19,.57-.1,.57-.1,.48-.29,.77-.19,1.24-.1,.77v.77l.48,.57,.19,.1,.1,.19v.19l-.19,.19-.29,.29-.1,.38,.1,.48,.1,.48,.67,.57,.38,.48,.38,.48,.1,.38v.48l-.29,.86,.19,.19,.29,.67-.1,.57-.19,.67-.1,.67,.19,.57,.38,.29,1.15,.48,.48,.67,.38,.86,.48,.67,.77,.19,.86-.1,.38,.1,.38,.1,.38,.48,1.05,1.15,.86,1.24,.96,1.24,.86,1.24,.19,.29,.1,.29,.1,.38-.1,.38-.1,.29-.1,.38-.1,.29-.19,.29-.19,.48-.29,.38-.29,.38-.29,.38-.19,.38,.1,.29v.29l-.1,.38v.57l-.19,1.15-.1,.57-.1,.57-.19,.38-.29,.29-.38,.29-.19,.29-.1,.19-.29,.29-.19,.1-.19,.1-.48,.19-.38,.19-.38,.1-.48-.1-.38-.1h-.77l-.38,.19,.29,.86,.29,.86,.1,.96-.29,.86-.19,.38-.67,.19h-.48l-.48-.19h-.57l-.77,.38-.38,.57v.67l.48,.77,.48,1.05-.19,.96-.67,.86-.77,.77-.77,.48-.77,.1h-.77l-.86,.1-.77,.19-.67,.29-.48,.38-.48,.48-.1,.1-.38-.19v-.1l.1-.1v-.29l-.48-.67-1.15-.96-2.39-2.2-1.15-1.63-.86-.96-.1-.19-.29-.19-.38,.1-.48-.19-.19,.19h-.29l-.29,.1-.48,.1-.1,.19-.19,.38-.96-.19h-.57l-1.15-.48-5.94-1.92-4.98-1.34-2.01-.48-3.64-.57h-1.92l-1.44,.1-.96-.19-.77-.29-.77-.29-1.63-.67-1.63-1.34-.77-.57h-.19l-.19,.29-.29-.19-.1-.19-.29-.1,.19-.1,.38,.19,.1-.29-.19-.19-.19-.1-.19,.19-.29-.1h-.19l-.19-.19,.19-.1v-.29l.19-.29,.19,.1,.19-.1v-.19l-.29-.29-.19-.19-.48-.1-.48,.19-.29,.29v.19l.29-.1,.19,.1-.29,.29-.38,.1-.19-.19-.19-.77-.19-.1-.67-.77-.1-.29-1.05-.48-2.2-.86-1.53-.38-1.53-.57-2.01-.77-2.59-1.05-7.37-2.59-2.68-.86-1.82-.57-2.01-.96-1.63-.57-2.01-.57-1.63-.57-1.63-.57-1.05-.48-.48,.19-.19-.38,.38-.19-.1-.67-.48-.57-.96-.96-2.01-1.24-.38-.67-2.39-1.44-2.59-.86-1.34-.67-1.92-.67v-.38h.38l.1-.57-.29-.48-.29-.38-1.15-.96-.86-.1-.86,.19-.1-.48h-.38l-.29-.29h-.48l-.1-.57-.48-.19-.86-.29-.1-1.15-.77-1.15-.77-.48-1.44-1.15-.38-.77-.38-.38-.1-.67-1.15-1.24-1.34-.67-.48-.19-1.82-1.05-1.72-.77-1.44-.57-1.92,.29-.29,.57-.57,.38-.48,.57-.57,.29-.19,.1,.29-.57,.19-.29,.1-.29-.1-.48-.57-.96-.19-.57v-1.82l.1-.96,.19-.86,.19-.57,.1-.29,.29-.29,.29-.29,.29-.19h1.34l.48-.1,.48-.19,.48-.1h.48l.48,.1,.38-.1,.48-.29h.29l.57,.1h.29l.29-.1,.19-.19v-.29l.19-.29,.38-.57,.57-.67,.29-.77,.1-.77-.38-2.2-.19-2.2,.38-2.01,1.24-1.72,1.15-.38,1.24-.1,2.49,.19,.48,.1,.48,.1,.48,.19,.38,.38,.29,.48,.19,.38,.29,.48,.48,.38,.57,.38,.57,.29,.67,.19,.77,.1,1.63-.29,1.53-.48,1.63-.38,1.53-.48,.77-.29,4.79,.29,1.53-.38h.67l.67,.38,.1,.1v.57l.19,.19v-.1l.29-.1h.38l.19,.1,.1,.38,.19,.77,1.05-.29,.19-.29-.38-.48,3.26,.1,.38,.19,1.05,1.15,.38,.29,.48,.29,.48,.19v-.1l.19-.48v-.1l.1,.1,.29,.1h.1l.1,.19,.1,.29,.1,.48v.29l-.29,.29-.29,.29-.19,.38v.48l.29,.48,.67,.67,.96-.96,.1-.1,.38,.19,.19,.48,.48-.67,.38-.67,.19-.67-.29-.57-.77-.57-.77-.57-.77-.57-.86-.57-.57-.48-.29-.57-.1-.67v-1.63l-.19-.67-.19-.67-.29-.67-.1-.77,.19-.48,.38-.48,.19-.67-.29-.48-.57-.57-.48-.48v-.57l.38-.48,.38-.48,.38-.57,.48-.29,.67,.1,.48,.48,.19,.77,.19,.67,.29-.19,.38-.38,.29-.38,.1-.57,.19-.29,.57-.57,1.15,.38,1.15,.29,1.15,.19h1.63l.29,.1,.1,.38v.48l.1,.38,.19,.19,.19,.29v.38l-.29,.57-.29,.57v.67l.29,.67,.19,.38v.77l-.1,.38,.1,.38,.19,.29,.29,.29,.19,.29,1.15,1.05,.48,.67,.19,.67-.1,.86-.29,.86-.19,.77,.29,.57,.29,.29,.19,.29,.48,.48,.29,.29,.38,.19h.48l.38-.1,.38-.29,.19-.29,.19-.29,.38-.1,.67-.57,.67-.48,.67-.57,.67-.57,.67-.77,.57-.77,.38-.86,.57-1.15,.1-.19,.67-.1,.57-.1,.57-.19,.67-.19,.57-.19,.57-.19,.67-.19,.57-.19,.38-.1,.29-.1,.67-.19h.48l.48,.1,.48,.38,.38,.48,.29,.29,.38,.1,.48-.48,.29-.38,.1-.29v-.77l.19-.38,.29-.19,.29-.19,.86-.77,.48-.48,.77-.67,.57,.29,.57,.67,.57,.57,.38,.1,.19,.19,.29,.67,.38,.38,.77,.1,.67,.1,.57-.19h0Z"/></svg>