<svg xmlns="http://www.w3.org/2000/svg" viewBox="0 0 128 128"><defs><style>.cls-1{fill:#b25fac;stroke:#fff;stroke-linecap:round;stroke-linejoin:round;stroke-width:1.37px;}</style></defs><g id="estados"><path id="SIN" class="cls-1" d="M32.41,45.59l1.28.45.29.15.45.67.3.23-.45.3L33.54,47l-.83-.52-.67-.3h-.15l-.22-.07L31.52,46H29.8l-.3-.15-.15-.37H32l.37.07Zm46.15-5.32-.82.82-.38.45-.22.53-.3.52-.37.45-.45.37-.45.53-.45.89-.3,1.2-.22,1.19-.15,1.13-.23,1.19-.15,1.27V52l.23,1.2.37,1.12.3,1.12.3,1.12.45,1,.15.44.15.53.15.52.3.38.3.22.82.22.37.23.15.3.08.3v.74l.22.45.22.23.38.15.45.07h.67l.37.08.3.22.23.45.22.45.3.37.45.23.82.52.45.82.3,1,.52.9.6.52.3.3.15.45.15.37.15.3.3.6.22.45.15.45.08.45.07.52v.82l.07.38.23.37.82.82.45.38.37.37.45.37.38.15h1.64l.37-.07.38-.15.3-.3.3-.37.22-.38.3-.37.75-.6.89-.45.83-.15,1,.15.3.15.22.15.3.15.22.23.6.52,1.72,1.57.45.6.3.74.3.83.22.67.53,1.34.3.68.37.6.45.44.45.08.59-.08.53-.22-.23.82-.3.82-.37.75-.37.82-.15,1,.07,1,.15,1,.15,1,.23,1.8.15.44.22.38.22.45.23.45.07.52.15.67.23.52.45.38.29.15.38.07.37.08.38.07.15.6.37.52.37.53.3.6-.07.22-.08.22-.07.23.37.37.08.23v.29l-.08.23-.15.45.15.22.23.3.14.3.08.3v.9l.22.37.38.22.37.23.3.3.15.22.07.23.08.22.22.15.3.3.45.37.38.45.37.38.82.44.9.08,1-.08.89-.07.15,3-.6-.08-.52.08-.37.22-.3.45-.15.53-.08.29.15.3.15.45.38.53v.22l-.15.37-.38.3-.45.38-.44.37-.38.3-.37.45-.45.45-.37.59-.15.53.07.22.15.15.15.15.45.3.15.15.15.22.15.38.15.22.22.15.3.08.22.15v.15l-.15.37v.15l.08.07.3.08.07.07.23.6.22.67.15.68.15.59v.9l-.6.52-.74.08-.83-.22-.3-.3-.37-.3-.3-.3-.37-.23-.53-.15-.52.15-.52.15-.45.08.22.9.15.52-.07.45-.38.3-.37-.38-.67-1.12.15-.15-.15-.37-.23-.3-.22-.15-.23.3h-.14l-2.92-4.56-1-1.35-.37-.37-1-.67-.15-.15-.08-.08-.07-.07-.15-.08-.45-.45-.22.23-4.64-5.83-.45-.15-.22-.15-.45-.38-2.24-2.54-.38-.22-.3.07-.22.15-.22.08-.3-.08V102.7l-.08-.38-.82-1.27-.45-.3v-.22l.3-.23-.08-.15-.07-.15-.07-.15-1.57-2.09-.45-.3-1-.89-.08-.15L86,96.27l-.22-.6-.23-.3-.6-.3-.37-.45L84,93.8l-.68-.75-.44-.3-1-.37-.22-.52-.22-1.2-.38-.52-.37-.45-.38-.45-.3-1.12-5.75-6-2.06-1.58-2.58-1.94-1.49-1-.3-.3L66.6,75.93l-.9-.6-1.42-1.42-5.46-3.36-.45-.45-.14-.45.07-.3-.22-.15-.68-.15-1.79-1.12-2-1.79-.22-.37-.08-.38-.15-1L53.07,64l-.23-.45-.3-.37L52.32,63l-.15-.08-.07-.22-.68-1.12-.89-.52L49.85,60,48,56.27l-.59-.75-.83-.74-.45-.23-.22-.15-.15-.3h.52l.53.08-.53-1.27-.59-.08-.45-.22-.82.15-.3.45L44,53l.15-1.19v-.38L44,50.89l-3.52-2L39,48.05l-1-.3-1-.08h-.82l.52-.44L36,47l-.6.08-2.75-.77-3.53-1.48-.74-.52L27.2,43l.52-.3-.89-1-.3-.3-2.62-2.24.08.29.15.3.22.23,1.57,1.34.37.6-.07.45L25.71,42l-.53-.75-.6-.67-.82-.22H21.15l-.9-.23.52-.37.67-.23h.75l.67.3-.07-.44.07-.45.08-.15L21,37.13l-.23.15-.15.3v1.5l-.07.22-.3-.37.15-.53v-.59l-.08-.6-.15-.3-.52-.15-.07-.45.07-.6.22-1,.15-.22h.08V34L20,33.62l-.07-.3L19.8,33l-.15-.6-.07-.45.07-1.2.08-.37.82-1.5.89-1,.45-.52.3-1.05L23,24.65l.23-.08-.08.38v.52l-.07.3-.08.3-.07.3.15.22.22.08.23-.23.07-.3.15-.82L24.51,24l.15-.08.9-.6L26,23l.23-.22v.37l-.15.45-.3.23V24l.45.22,1.12,1,.37.08V25l-.29-.6L27.35,24l.22-.15.23-.08L28,23.6l-.08-.37-.67.07-.52-1.12.22-.45.6-.52,2.39-1.8,2.32-1.86,2.32-1.87,2.31-1.95,2.32-2,2.39-1.94.15-.37V7.68L41.85,7l.23-.67.22-.6.23-.67.59-.6.53-.59.52-.68.52-.75L45,3l.53.22.59-.07L46.64,3l.52.15.38.23.22.45.3.44.75,1L50,5.81l1.27.3,1.12.22.6.3.15.6V8.57l.38.83.52.82.52.75.53.74.44.6,1,1,.44.6.45,1.2.15,1.57.15,1.57.15,1.42.3,2.39.3,2.39.07.75.23.38.45.22.75.15,1,.15,1.57.37,4.78,1,.67.15.6.45.38.59.22.75.08.45.07.37.07.45.15.38.08.37.07.3.23.22.3.08.22.15.23.3.07.37.08.3.07.37v.38l.07.37.15.15.53.15.67.37.6.38.6.45.59.52.38.52.45.6.37.52.45.45.75.38.74.45.68.44.67.6Z"/></g></svg>