<?xml version="1.0" encoding="UTF-8"?><svg id="estados" xmlns="http://www.w3.org/2000/svg" viewBox="0 0 128 128"><defs><style>.cls-1{fill:#3bb1e6;stroke:#fff;stroke-linecap:round;stroke-linejoin:round;stroke-width:1.37px;}</style></defs><path id="CDMX" class="cls-1" d="M95.17,111.84h-7.76l-2.39,.6-1.19,1.79-1.79,2.39-1.79,1.19-1.79-.6-3.58-2.39-3.58-2.39-3.58-1.19-3.58-.6-5.97-.6-5.97-1.19-6.57-1.19-6.57-2.39-4.18-4.18-1.19-1.19-1.19-1.19-1.79-2.98-.6-2.98-.6-3.58,.6-4.18v-.6l-.6-.6-.6-.6h-1.19l-1.79-1.19-.6-1.79,1.19-1.79,1.19-1.79v-1.19l-1.19-1.19-.6-4.18,1.19-4.18,2.39-4.18,.6-4.18,3.58,.6,3.58,.6,2.39-1.19,1.79-3.58,.6-1.79,1.79-2.98,2.39-3.58,2.39-2.98,2.39-2.98,2.98-4.18,.6-1.19,1.19-.6,1.19-.6,1.19-.6,1.79-1.19,.6-1.19-1.19-1.79-1.79-.6,1.79-1.79v-4.18l1.79-1.79,1.79-1.79,2.39-2.39,1.79,1.19,1.19,1.19,1.19,1.79,.6,1.19v2.98l.6,2.98,1.19,2.39,1.19,1.19,2.39,1.19,.6,1.79,.6,1.79,.6,1.19,1.79,2.98,1.19,2.98,1.19,1.79-.6,1.79-1.19,1.19-1.79,1.19,.6,1.19,1.79,1.79-2.98,2.98,2.98,2.39,2.98,1.79,4.18,1.79,2.98,1.79,1.19,1.19,1.79,2.98,1.19,1.79,1.19,4.18,.6,2.39v5.37l-1.19,4.78v4.18l.6,3.58,2.98,5.97,1.19,2.98v1.19l-.6,2.39-1.19,2.39-2.98,4.18h0Z"/></svg>