<svg xmlns="http://www.w3.org/2000/svg" viewBox="0 0 128 128"><defs><style>.cls-1{fill:#b25fac;stroke:#fff;stroke-linecap:round;stroke-linejoin:round;stroke-width:1.29px;}</style></defs><g id="estados"><path id="JAL" class="cls-1" d="M90,36.16c5.6-2.76,4.11,1.86,12.4,2.27,3,.61,3.91-.14,6-2.18,2.82-.72,2.09-1.59,2.84-3.88a3.9,3.9,0,0,1,1.52-.66l1-1.14a5.53,5.53,0,0,0,3.59-3.12,28.68,28.68,0,0,1,2.46,1.8c.8.35,1.74,0,2.56,0a6,6,0,0,1,2.56,2.18,1.27,1.27,0,0,0,1.51.47c2,1-1.41,2.64-1.32,4.07.13,1,1.08,1.89,1.61,2.75,0,2.22-4,2.35-3.13,4.92.61,1.34,2.22,2.59,2.08,4.16,0,2.19-2.2,4-4,4.93-2.24,0-2.35-.2-3.41,1.8a23.13,23.13,0,0,0-1.89,2.17,49.09,49.09,0,0,0-5.87,9.19c-1.87,3.22,1.55,4,2.93,6.15,1.17,2.91-6.44,8.89-7.67,9.09-.46.24-1.1-.55-1.61-.57-.5-.21-5.19,1-6.34,1.42-.44.24-3.3,1.73-3.79,2.56-1,.84-2.64.36-3.78.75-1.1,1.31-5.4,1.72-6.91,2.37-2.2.44-3.51,1-2.84,3.5A12.68,12.68,0,0,0,81.74,93a7,7,0,0,0,2.37-.47c.87-.54,1.33.52,2.08.76a11.58,11.58,0,0,1,2.94.19c.35-.17.79,1.89,2.46,2.93-.52,1.18-2.08,1-3.13,1.33-.43,1.48,2.32,6.89,2.18,7.57-.93,4,.21,4.09,3.69,2.93.91.09,1.9,2.57,2.09,2.85-.13.86-1.35,1-1.61,1.89.36,1.28-1.15,2.41-1.8,3.41-.79.79-.59-.44-1.42-.57-1.53-.46-3.6.94-4.07,1-3.85.92-2.28,3.55-4.36,5-1.25.63-2.85.78-4,1.7-.23.32-1,1.76-1.32,1.33-.6-.89-1-1.9-2.27-1.61-.76-1.23-1.47-1.75-2.27-.19-.57,2.39-3.18.85-4.74,1.7-.53-3.12-2.22-2.89-.76-6.34.38-1-.14-2.17-.09-3.22.31-1,.92-1.32-.38-1.89-.55-.14-2-2.23-2.46-2.56-.84-1.4-1-4.35-2.84-1.8-.61,1-3.66,2.59-4.64,2a20.93,20.93,0,0,1-4.35-2.27,5.64,5.64,0,0,1-1.71-2c-1.27,1.25-2.8,2.57-2.93,4.45-.94.31-3,2.28-3.6,2.56a5.74,5.74,0,0,1-3.31,1.42c-.34.07-.65-.26-.86-.48-.41-.2-1.21,1.74-1.89,1.8-1-1.2-1.87-.94-2.18.57-.55.57-1.43,1.06-1.32,2-1.46-.46-4.08-2-4.17-2.56-2-.25-2.45,1.21-2-1.7.12-.84-2.21-.32-2.36.09a22,22,0,0,1-3.41-2c-.85-.61-.88-2.08-1.33-2.93-.19-.18-.87-1.79-1.42-2.18,0-.84,0-2.16-.94-2.55-1.19.28-1.28-.43-2.18-1-3.09-2.14-4.5-6.24-7.1-8.71-1.11-2-3-4.23-3.5-6.44-.11-1.17.23-3.36-.67-4.26-.87-.46-1.22-1.62-1.8-2.37-.71-.06-1.93-3-2.08-3.4.1-.48,3.37-2.22,3.69-2.56,1.23-.4,3.27.17,4.36-.57,1.1-.11,2.94,0,3.79-.85,1.24-1.2,2-1.18,2-3.31-.33-.69-1.43-.84-1.7-1.52,1-.33,1.34-1.8,2.08-2.46,1.63-1.81,2.42-4.73,4.93-5.59a11.47,11.47,0,0,1,1.89.29c2.57.76,4.1-2.28,6.15-2.94,2.52-.53,3.44,3,5.68,3.13,2.1-.46,2.93,1.56,4,2.93,1,.65,2.44,1.09,2.93,2.27.5.81,1.67,1,2.37,1.61.35-1.17-.08-2.71.19-4a18.14,18.14,0,0,1,2-4.45c.67-2.05,0-4.34-.29-6.34,1.78-2.82,4.54,1,7.58-3.79.42-.82-.16-2.25.75-2.84C52,47,49.25,44.92,46.71,43.54c2.09-2.33,2-5.77,3.32-8.52a40.12,40.12,0,0,0-5.78-6.43c-.8-1.3-3.53-2.14-3-3.89,2.48-6.61,1-5,7.86-7.76,5.17-.57,5.37.82,6.15-4.73,0-1-1.19-1.47-1.8-2.09-.44-1.55.17-5.35.1-7,1.7.29,4.36.94,6.06,1.23-.21,1.36-.1,3.21-1,4.35-1.34.71-1.3,1.18-1.13,2.56.19,1.69-2.13,1.14-.67,3.12.46,1.17-.63,2.11-.66,3.22.12,1.53.15,3.45,1.23,4.64C58.49,18.38,61.32,8.73,61.58,9h1.61c.93,0,1.12,1.65,1.42,1.89a1.3,1.3,0,0,1-.67,1.71,46.88,46.88,0,0,0-1.51,5.11c.06.85.56,1.76.57,2.65.1,1.27-1.07,3,.19,4,1.12.38,1.86-.65,2.65-1.14.65.25,2-.09,2.08.85,1-1.4.68-3.91,2.74-4.35.36-1.15-.07-2.14,1.24-2.75.59-.31-2-2.27-1.61-2.74a12,12,0,0,1,1.42-2.84c1.41,1.32,3.09,2.7,4.63,3.88,1.29.47,1.14,1.31.86,2.46,1.24-.46,2.73-1.23,2.84.76,2.83-1.13,1.22,2.32.38,3.4-.33.5-.93.45-1.42.57-.23.67,0,1.37.75,1.33.76.24.7,1.31.38,1.89-.3.1-1.67,2.33-2.36,2.84-1.37.94-3.45-1.1-4.17.85-.37.84-1.3.56-2,.76-1.8.66-3.1,2.66-4.54,3.88-.74.76-.2,1.76.19,2.56a31.63,31.63,0,0,1,.09,4.35c-.58.51-1.6.82-2.18,1.33-1.35,3.07-1.6,2.65-4.26,1.13.47,2,1.3,4.26.57,6.25-.25.5-1.1.77-.95,1.42s-.45,1.74.29,1.9c5-3.35,1.49,1.36,5,1,3.16-.84,1.82,1.79,5,.94,2.48.59,4.53,3.55,7.2,2.84.81-.17,1.6.71,2.27,1,2.27-.17.41-5.5.85-7.2s2.86.32,4.17-.47c1.24-.09,2.29-2.73,3.41-1.52,0,.35-.4.8-.19,1.14.9.22,1.85-2.29,2.17-2.65.31-.08.75-.18,1-.29,1-1.59,2.25-3.93,1.8-5.87-.74-.54-1.88.12-2.66-.56a2.48,2.48,0,0,0-1.42-.67c-.68-1.36.37-3.11.48-4.54Z"/></g></svg>