<?xml version="1.0" encoding="UTF-8"?><svg id="estados" xmlns="http://www.w3.org/2000/svg" viewBox="0 0 128 128"><defs><style>.cls-1{fill:#3bb1e6;stroke:#fff;stroke-linecap:round;stroke-linejoin:round;stroke-width:1.37px;}</style></defs><path id="Ver" class="cls-1" d="M46.06,25.06l-.19,.25-.56-.12-.49-.68-.31-.99-.12-.8,.31,.31,.12,.37,.06,.49,.19,.37,.68,.49,.31,.31h0Zm-9.8-4c-1.09,.96-1.68-1.66-1.75-2.46,.61,.84,.68,1.9,1.75,2.46Zm-3.32-11.57c.04,5.63,5.28,11.35,8.56,14.81,2,2.11-.59,4.41-.66,6.82-.28-.93-2.24-3.34-.91-4.05,.72-.34,.99,.11,.99-.96-.76-1.95-3.77-3.39-4.72-5.63-.96-2.1-2.57-4.74-3.63-6.99,2.13,4.2,1.08,10.17,4.79,13.59,1.31-.41,1.31,.03,.91,1.23,.32,.95,1.43,3.33,2.01,3.95,1.1,4.55,4.1,8.42,5.92,12.23,2.95,6.15,9.01,9.6,12.58,15.52,3.36,3.72,2.15,9.62,5,13.21,.83,1.19,2.09,2.76,2.84,3.83,1.21,1.72,1.43,2.5,2.91,2.91,.12,1.75,1,3.26,2.54,4.21,.78,.26,1.72-.19,1.31,.99-1.29-.61-.79-.28-1.59-.44,1.23,.25,.06,.08,.75,1.03-.4,0,.8,.64,1.03,.04,.23-.11,1.11,.35,1.87,.52,.81,.17,1.47,.2,1.75,.2,1.34,0,1.05-.12-.6-.75-4.13-1.59,5.79-.12,12.78,3.61,1.24,.66,3.1,1.47,4.3,2.12,.63,1.83,2.4,3.1,3.24,4.85,1.63,3.42,6.81,1.17,10,1.36-.3,.89,.81,1.07,.87,1.68-.32,.69,.59,1.1,.06,1.55,1.16,1.31,.25,2.49,.26,4.08,.73,.45,1.31,.89,2.2,1.1,.71,.89,.64,2.06,2.2,1.88,.34,1.18,1.83,.67,2.65,1.55,.31,1.63,2.98,1.95,2.2,3.62-1.27,2.49,2.11,2.82-.65,4.6-6.97,5.72-17.72,1.08-26.15,1.49-1.32-.37-.83-1.82-.97-2.66-1.85-1.44-4.54-3.13-5.44-5.44,.15-1.06,1.54-1.35,1.1-2.72-1.03-.82-.61,.88-1.36,.19-1.06,.76-1.75,1.62-3.37,1.68-.68,.93-2.31,1.11-2.65,2.14-5.04,1.62-5.11-.39-7.12-4.73-.2-1.71,1.7-2.67,2.33-4.08,.79-1.73-.65-4.29-2.65-4.34-.89-.67-1.98-.1-2.98-.52-.58-.11-.61,1.02-1.29,.65-.56,0-.76-.45-.71-.91-.45-.12-.92,.07-1.23-.39-.36-2.94-3.62-4.03-3.69-7.25-1.62-1.03-3.92-.99-5.18-2.78,1.22,1.81-.14,7.05-2.2,4.53-.59-.55,.04-2.34-1.16-1.94-1.51,.32-3.07,.54-4.27,1.49-1.66-.03-1.34-.52-1.16-1.88-.63-.42-.51-1.07-.71-1.68-.73-.37-1.73-.85-2.52-.39-1.66,.31-2.42-3.07-.91-3.75,.73-1.46,2.14-.74,1.1-2.91-.13-2.29-1.6-3.95,1.3-4.72,.59-.31,1.26,.59,1.75,.06,.02-.57,.5-.45,.91-.45,3.59-2.91-1.34-1.92-3.24-2.59-.73-.21-.73-1.55-1.49-1.55-.64,.34-.83,.21-1.17-.39-3.03-.55-.13-.44,.39-1.36-.35-.69-1.49-1.96-1.42-2.65-.13-1.47,1.68-1.62,1.68-3.17-.37-3.05,.86-5.2,3.17-7.18,1.16-1.66-1.29-1.69-2.27-2.33-1.31-.66-3.26-2.65-4.4-.71-3.04,5.05-1.51-.46-3.69,.91-.85,.15-.66-.93-1.1-1.29-.36-.4-1.29-.44-1.29-1.1,.95-.91-.56-2.83,.45-3.3,.58,.29,.87-.41,1.29-.58,.96,1.65,1.72,.9,2.46-.45,.82-.96-.42-2.53-1.55-2.52-.78-.12-2.09,.23-1.1-.91-.96-.94-.52-2.27-1.1-3.3-.62-.76-1.67-.18-2.46-.65-.73,.31-.09,1.28-.58,1.68-2.02,1,.11,3.57-1.42,5.37-1.62,1.04-.59-1.51-.65-2.14-.95-3.18-2.56-1.97-4.01,.45-1.4,1.31-2.13,3.58-3.82,2.72-.16,1.43-2.09,3.35-2.65,1.1-1.81-1.9-.21-2.04-.06-3.95,.14-1.45,2.61-1.78,2.2-3.5-.59,.17-2.18,.73-1.36-.58,.67-.17,1.48-.05,1.42-.97-1.22-2.44,2.11-.76,3.11-.26,1.26,.26,.22-1.01,.45-1.68,.13-.91,.86-2.23,1.68-2.52,1.4-1.17-.65-1.83-1.16-2.85-1.74,1.63-1.43-.29-1.1-1.55-.89-1.72-1,4.27-3.95-.26-1.41-.3-.27-2.03,.39-2.59-2.18-.66-.93-2.85-2.2-4.08-1.03-.41-2.3-1.11-1.55-2.26-.44-1.43,.79-.91,1.42-1.42-.94-.74,2.51-.57,1.94-2.27-.87-.23-.25-1.32-1.49-.84-.95-.76,.93-2.67,.13-2.27-.33,.17-.28-.41-.26-.45,.71-1.29,3.1-2.79,3.88-4.85,.94-2.5-3.84-3.26-5.44-4.98,2.68-.81,4.23,.08,6.28,.39,.46-.26,.13-1.07,.39-1.49,.72,.23,1.21,.11,1.88-.26,1.15,2.4,3.34,2.32,5.57,3.37,.95,.34,.17,.72,.26,1.3,1.08,1.57,1.77,.71,3.03-.18Z"/></svg>