<?xml version="1.0" encoding="UTF-8"?><svg id="estados" xmlns="http://www.w3.org/2000/svg" viewBox="0 0 128 128"><defs><style>.cls-1{fill:#3bb1e6;stroke:#fff;stroke-linecap:round;stroke-linejoin:round;stroke-width:1.51px;}</style></defs><path id="MICH" class="cls-1" d="M121.63,28.73c2.07,.58,3.2,2.83,3.75,4.74,0,1.1,0,2.88,0,3.97,.35,.69,1.13,1.33,1.87,1.54-.22,2.06-1.16,4.7-1.65,6.72-.06,.29,.14,1.04,.22,1.32,.12,.22-.59,1.76-.66,1.98-.17,1.18-1.13,2.94-.99,4.08,.61,1.53,.93,3.37,2.32,4.41-1.34,1.61-4.82,2.79-6.39,4.19,.26,.69,1.87,2.02,.77,2.65-1.96,2.51-4.06,5.48-6.06,7.94-.17,.22-.64,.54-.88,.66-1.14,1.11,.2,2.37-1.54,2.98-.72,.19-1.01,1.08-1.54,1.43l-.11-.11c-.36,.13-.62,.5-.55,.88-.4,.24-.98,.81-1.21,1.21,0,.74-.61,1.4-1.21,1.76-.12-.41-.34-1.24-.44-1.65-.73-1-1.82-.75-2.31,.33-.38,.51-1.06,1.06-.88,1.76,.62,.72,1.95,1.46,1.32,2.54-.54,.49-.77,1.29-.55,1.98,.33,.65,.57,1.62,.77,2.31,.03,1.05-.18,2.39,.44,3.31,1.33,1.07,2.95,2.13,4.3,3.2,.77,.97-.34,2.16-.88,2.98-.07-.32-.32-.7-.66-.77,0,0-1.16,1.16-1.21,1.21-1.19-1.02-1.62-1.87-.22-2.98,.02-.45-.11-1.03-.33-1.43-.16,0-.46-.09-.55-.22,.04,.16-.26,.61-.22,.77-4.25-2.14-.52-2.56-6.94-2.54l.44,.55c-.05,.41-1.15,.56-1.43,.66-.24-.81-.14-1.83-1.32-1.32v.11c-.29-.11-.21-.65-.22-.88-.81-.96-2.42-.37-3.42-.11,0,0-5.51-.33-5.51-.33-1.88,.78-4.36,1.21-6.28,1.87-1.96,.59-3.91,.22-5.4-1.21-.51-.78-.84-1.97-1.87-2.2-2-.38-4.8-.75-6.72,.11-4.3,4.63,.71,8.87-2.31,11.91-.15,.21-.52,.78-.66,.99,.12,.51-.47,.71-.88,.66-.22-.05-.78-.13-.99-.11-.22,.15-.72,.42-.99,.44-.7-.21-1.56-.11-2.2,.22-1.38,.34-2.06-.38-3.09,.99-.63,1.78-.97,4.01-.44,5.84,.28,.46,1.01,1.42,.66,1.98-.38,.48-.51,1.44-1.32,1.21-2.66-1.71-6.95-2.51-9.81-3.75-.97,.13-3.39-.82-4.3-1.1-1.08-.12-3.92-.37-4.96-.66-2.83-.99-7.05-3.23-9.81-4.3-.95-.21-2.88,.08-3.53-.77-.89,.46-3.06-1.5-3.97-.99-.44-.16-2.09-.68-2.43-.99-.45-.19-1.42-.59-1.87-.22-1.07-.95-3.44-1.93-4.74-2.54-1.28-1.8-2.15-5.67-3.86-7.17-.95-.79-2.06-1.87-3.31-2.2-.35-.4,.47-1.14,.66-1.43-.21-.8-1.31-1.66-1.87-2.2,1.75-.86,.99-2.24,2.09-3.31,.24-.12,.72-.27,.99-.22,.28-.08,.7-.44,.88-.66,.17-.59,.06-1.35,.44-1.87,.05-.27-.14-.61-.11-.88,.05-.16,.21-.33,.33-.44,.6,.38,.91,.39,1.43-.11,.41-.3,.99-.54,1.43-.77,.02-.07-.09-.47-.11-.55,.12-.23,.44-.24,.66-.22,.43-.16,.3-.91,.66-1.21,.44,.24,.89-.17,1.32-.22,.4,0,1.26,0,1.65,0,2.23,.15,2.29-.17,3.2-2.09,1.23-1.47,1.59-.4,2.43,.66,2.2-.35,1.68,1.45,3.2,2.2,.23-.19,.77-.56,.77-.88,0-.21,0-.58,.11-.77,1.34-1.61,3.99-1.34,5.51-2.76,.5-.78,.66-2.02,.99-2.87,.79-1.57,2.54-2.35,4.19-2.65,.21-.08,.66-.14,.88-.11,.34-.08,.49-.74,.66-.99,.68-.33,1.63-.13,2.31,.11,.51,.18,.81,.47,.99,.99,.89-.11,1.54-1.59,2.09-2.2,.07-.15,.9-1.14,.77-1.32-.03-.15-.14-.62-.11-.77,.31-.99,1.73-1.19,1.87-2.2-.22-.32-.77-.33-1.1-.44-.15-.24-.36-.83-.44-1.1-.14-.31-.2-1.71-.66-1.76-1.41,.27-3.27,1.06-4.74,.55-.07-.68-.14-2.1,0-2.76,.13-.74,.47-1.69-.11-2.31-.33-.45-.27-1.09-.55-1.54-.13-.37-.78-.54-.99-.88-.68-1.61-1.16-3.56-.66-5.29,1.22-.39,3.04-.17,3.64-1.54-.49-.57-1.66-.59-1.87-1.32-.12-.66,.35-1.9-.44-2.2-.64,.25-1.66-.2-2.32-.11-.73-.02-1.69,.14-2.31-.33-.2-.26-.7-.63-.99-.77-.97,.18-2.1,.77-3.09,.77-.07-.03-.53,.06-.55-.11-.06-.29-.43-.36-.66-.44-.88-.42-.75-1.83-.88-2.65-.15-.49-.04-1.32,.22-1.76,2.53-1.42,7.45-2.28,10.25-3.09,1.11-1.6,3.06-.83,4.63-1.32,.57-.2,1.58-1.22,1.98-1.65,0,0,2.2-.55,2.2-.55,.37-.09,.54-.4,.55-.77,.56-.75,3.06-1.3,3.86-1.65,0,0,1.65-.11,1.65-.11,.57-.07,1.76-.62,2.31-.33,0,0,.88,.33,.88,.33,.17,.16,.75,.56,.99,.33,.49-.25,1.23-.36,1.76-.44,0,0,2.2-1.1,2.2-1.1,.51-.14,3.74-.54,4.3-.66-.21,.47-.67,1.6-.77,2.09l.44,.44c.43-.13,.67-.95,.77-1.32l.66-.22c1.42,.61,.45,4.09,1.43,4.85,.32,.5,.18,1.66,.99,1.65,.51-.02,1.29,.13,1.65-.33,.45-.31,.91,.27,1.32,.33,.25,.08,.52-.15,.66-.33,.16-.08,.49-.13,.66-.11,1.01,.42,2.52-.13,3.31,.77,.17-.38,.94-1.32,1.21-1.65,.15-.55,.61-1.12,.77-1.65,.05-.35-.2-.78,0-1.1-.03-.68,1.17-.38,1.54-.44,.55-.35,1.35-.48,1.98-.55,.42,.1,1.45,.29,1.87,.11-.4,1.14,.57,.96,1.32,1.1,2.25,.55,1.98,1.72,0,2.43-1.01,1.21,.9,.83,.33,1.87-.01,.77-.74,.69,.11,1.43,.34,1.09-.46,2.41-.33,3.53,1.45,1.03,1.18,.11,2.54,0,.43,.52,1.16,.54,1.76,.33,.44-.25,1.06,.08,1.43,.33,.92,.39,2.14,.3,2.65-.66,.18-.89,.31-1.99,1.43-1.98,.75,1,1.41,.84,2.43,.33,.75,0,1.76-.1,2.43,.33,.19,.31,.13,.78,0,1.1,.04,.18,.42,.54,.55,.66l-.11,.66c-.65,.34-1.59,.66-2.09,1.21,0,1.06,1.15,1.54,1.98,1.87,1.84,.99,4.5,.71,5.51-1.32,.27,.5,1.05,.87,1.21,1.43,.25,1.01,1.3,1.2,2.2,1.1-.23-1.5,.82-1.19,1.87-1.21,1.39,0,3.27-.4,4.63-.11,.11,.23,.11,.65,0,.88,.05,.53,.58,.6,.99,.44,.47-1.61,.88-1.86,2.54-1.98,2.64,.08,2.38-.77,1.98-2.98-.61-.73-.5-1.44,0-2.2-.06-.28-.22-.33,0-.66,.43-.07,.99,.27,1.32-.11,.86-1.03,1.09-2.56,2.2-3.42h0Z"/></svg>