<?xml version="1.0" encoding="UTF-8"?><svg id="estados" xmlns="http://www.w3.org/2000/svg" viewBox="0 0 128 128"><defs><style>.cls-1{fill:#3bb1e6;stroke:#fff;stroke-linecap:round;stroke-linejoin:round;stroke-width:1.37px;}</style></defs><path id="GTO" class="cls-1" d="M116.47,40.82v.56l-.28,.7-.14,.56,.28,.56,.14,.7v.42l-.14,.42-.14,.56,.14,1.54,.84,.7,1.12,.14,1.26,.14,.56,.42v.7l-.28,.56-.56,.56-1.12,.42-.42,.14-.42,.42-.28,.56-.28,.42-.14,.42-.7,.28-1.12,.42-1.26,.14-1.26-.28-.7-.84-.56-.42-.7-.28-.7-.28-.7-.14-1.12,.14-1.12,.28-1.12,.7-.7,.98-.56,1.54-.28,1.68-.14,1.83-.14,1.68v1.12l-.14,1.12-.28,1.12-.42,.98-.42,.28-.28,.14-.42,.14-.42,.14-.28,.28-.28,.42-.28,.42-.42,.28h-.98l-.7-.56-.56-.84-.56-.7-.14-.28h-.28l-.84-.14-.84,.42-.7,.56-.7,.42-.84,.28h-.84l-.84-.14-.98-.14-1.26-.42-.42-.84-.14-1.12-.7-.7h-.84l-.7,.84-.42,1.12-.42,.84-.7,.56-.28,.84v1.68l-.14,.7-.28,.84-.42,.7-.42,.7-.84,1.97-.14,1.97,.42,1.97,.84,1.97,.56,.84,.56,.84,.56,.84,.42,.84,.14,1.83v1.68l.14,1.68,.7,1.54,.7,.84,.84,.98,.98,.98,.7,.98,.42,1.26,.56,1.12,.84,.42,.7,.42,.56,.98,.42,.28,.56,.14,.42,.14,.42,.28-.7,.7-.42,.56-.28,.56-.42,.84-.14,.42-.42,.7-.42,.56-.42,.28-.7-.14h-.56l-.14,.28v.28l.14,.14v.14l-.42,.84-.14,.42v.56l.56,.98,.28,1.68v1.4l-.7,.56-2.11,.14-1.12,.14-.98,.28-.56,.56-.28,.84-.28,.7-.7,.14-.42-.28-.14-.42,.14-.56-.14-.56-.7-.14h-.98l-1.83,.14-2.39,.14h-1.68l-.42,.14-.28,.42v.98h-1.12l-.7-.14-.56-.42-.42-.84-.28-.56-.84-.7-.42-.56-.56,.84-.7,.7-.7,.42-.98,.28-.7,.14h-1.54l-.7-.28-1.12-.42-1.26-.56-.98-.7-.28-1.12,.84-.7,.98-.42,.84-.42,.14-.84-.56-.56-.14-.28,.14-.42v-.7l-.14-.28-.98-.42h-2.11l-.98,.42-.7,.14-.56-.14-.42-.42-.42-.42-1.12,.28-.42,.98-.28,1.26-.7,.84-.84,.28h-.84l-.98-.28-.7-.42-.7-.14-.42,.14-.56,.14h-.98l-.7-.56h-.28l-.42,.14-.42,.14-.42,.28-.42,.14-1.26-.7v-1.12l.42-1.4,.14-1.4-.14-.28v-.28l-.28-.28-.28-.42v-.14l.14-.14,.14-.28,.14-.28v-.28l.14-.28v-.28l-.28-.42-.28-.14-.28-.14-.14-.42,.42-.7,1.68-.84,.42-.7-.28-.7-.84-.56-.98-.28-.84-.14h-.56l-.28-.28-.14-.42,.14-.56-.84,.14-1.54-.28-.84,.14h-.42l-.98,.42-.28,.14h-1.54l-.28,.14-.14,.42-.14,.42,.14,.56v.42l-.14,.42-.42,.7-.14,.28-.28,.7-1.12,1.4-.42,.7-.7-.56-.7-.14h-1.54l-1.26-.28h-.42l-.42,.14-.42,.42h-.56l-.7-.42-.42-.14-.42,.14-.56,.42h-1.54l-.56-.14-.28-.56-.28-1.12-.14-.28-.28-.14-.14-.28-.42-4.21-.42-1.12-.56-.42-.84,.28-.42,1.26-.56,.42-.56-.56,.28-.98,.7-1.68-4.63,.7,.14-.7,.7-1.68,.84-1.4,1.12-1.54,1.26-1.26,1.26-1.4,.56-1.4-.42-1.97-.28-.56-1.12-1.12-1.12-.98-1.26-.98-.98-1.12-.42-1.4,.28-1.54,.56-1.4,.7-1.4,.56-1.12,1.83-3.09,1.26-1.97,1.26-1.97,1.26-1.83,1.54-1.83,.28-.42,.28-.42,.28-.84,.42-.7,.7-.42,.56-.42,.56-.42,.42-.56,.56-1.12,.28-.56,.56-.28,.84-.14h2.39l.56-.14,.56-.42,.56-.42,1.12-.98,1.12-.98,.98-1.12,.7-1.4,.28-.98v-1.83l-.28-.84-.98-1.54-.98-1.4-.84-1.4-.14-1.83,1.12-1.54,1.83-1.12,1.54-1.26,.28-1.54-.7-.98-.7-.98-.7-.98-.28-1.12,.28-1.12,.84-1.12,1.83-1.97,1.68,.98h1.4l1.26-.56,1.68-1.12,.42-.14,.98-.42,1.12-.14,.98,.28,.7,.84,.14,.7-.14,.7,.14,.7,.28,.7,.28,.42,.56,.42,.42,.42,.56,.28,1.54,.14,1.68-.28,1.68-.42,1.54-.14h1.4l1.54,.14,1.4,.42,1.4,.42,.7,.56,.7,.7,1.4,1.4,1.97,1.68,2.11,1.68,2.11,1.68,2.11,1.54,.84,.84,.98,.84,.84,.7,.98,.7h3.09l1.54-.28,.98-.7,.42-.98,.14-.98,.14-1.12,.28-.98,.14-.56,.28-.7,.28-.56,.28-.56,.28-.42,.42-.42,.56-.28,.42-.28h.56l.42,.14,.28,.28,.28,.28,.56,.14,.42,.14,.42,.14,.56,.28,.7,.42,.84,.42,.84,.28,.84,.42,.56,.28,.42,.28,.56,.14,.56,.14,1.54,.42,1.4,.42,1.4,.56,1.54,.42,.42,.28,1.68,1.26,1.68,1.83,1.83,1.4,1.83,.14h1.68l1.4,.42,1.12,.7,1.4,.7h0Z"/></svg>