<?xml version="1.0" encoding="UTF-8"?><svg id="estados" xmlns="http://www.w3.org/2000/svg" viewBox="0 0 128 128"><defs><style>.cls-1{fill:#3bb1e6;stroke:#fff;stroke-linecap:round;stroke-linejoin:round;stroke-width:1.37px;}</style></defs><path id="COL" class="cls-1" d="M121.88,82.55l-1.32-.33-.66,.99-.33,.99-.33,1.32-.66,.33h-1.32l-.33,.33-.33,.33,.33,1.32v.33l-.66,.33-1.32,.66-1.32,.66-.99,.66-1.32,.99-.66,.33-.99-.33-1.32-.66-.33,.33-.33,.33-.33,.66v.66l.33,.99v.99l-.66,1.32-.33,1.65v1.32l-.33,1.32-1.32,1.32-1.32,.66h-1.32l-1.65,.66-.99,.99-.66,1.32-.33,1.32-.33,1.65-.66,1.65-.99,1.32-2.31,1.65-5.6-5.6-16.48-11.87-2.64-2.97-11.54-5.6-9.56-4.95-6.26-2.31-5.6-1.98-1.98-.66-1.65-.66,.33-3.3,2.31-.33,.66-.99-.66-1.98-2.31-1.98h-1.32l-.99,.99-.66-.33,.33-1.98-1.65-.66-1.65,.33-.99,.66,.33,1.65-.66,.33-.99-.99-.99-.66-.99,1.65-1.32,.99-1.32-2.31-3.63-1.65-1.98-1.32-9.23-1.98,.33-2.64,.99-1.32,1.65-1.32,1.65-1.65,.99-2.64,.33-1.32,1.32-.66,2.64,.33,.66,.66,.99,.99,.66,.66,.99-.33,.33-.99v-2.31l.66-.66,.99-.33,.66-.66,.99-.33,1.32-.99,.66,.33,.99,.99,.99,.66h.99l1.32-.33,1.65-.33,.99-.33,1.32-.33h.99l.99-.33,.99-.66,1.65-1.32,1.65-1.32,1.98-.33h4.29l.99-1.32,.66-1.98,.66-2.31,1.32-1.32,1.32-.99,1.32-.66,.66-2.31,.33-2.64,.99-1.65,1.32-1.65,2.97-3.3,3.96-3.96,.33,1.32,.33,1.32v.66l-.33,.66,2.64,1.65,2.97,1.32,2.64,1.65,2.64,1.65,1.65,.99,1.98,.99,2.31,.99,1.65,.66,2.31,.99,1.98,.66,1.65-.33,1.65-2.31,1.32-.66h4.62l2.64-1.65,2.31-2.64,2.31-2.64,2.64-1.32,1.32,1.65,.99,2.31,1.65,4.62,.99,1.65,1.98,1.32,1.65,.99,1.32,1.98,.33,1.32,.66,.99,.66,.99,.99,.99,.99,.33,.99,.66,1.32,.66,.66,.66-.33,1.32-.33,.99-.66,.99-.33,1.32v1.98l.33,1.98,.33,2.31,.33,1.65-.66,3.3-1.32,4.29-.99,3.96,.33,2.64,1.98,2.64,.99,2.64,.99,2.97,.66,2.97h0Z"/></svg>