<?xml version="1.0" encoding="UTF-8"?><svg id="estados" xmlns="http://www.w3.org/2000/svg" viewBox="0 0 128 128"><defs><style>.cls-1{fill:#3bb1e6;stroke:#fff;stroke-linecap:round;stroke-linejoin:round;stroke-width:1.37px;}</style></defs><path id="CHIS" class="cls-1" d="M7.47,72.08l.7-1.4,.4,.2,.8,.6,.8,1.2,.4,.3,1,.4,.5,.3,.2,.4-4.8-2h0ZM92.07,32.68h-.2l-.1,.5,.7,.4,1,.2,.5,.2,.2,.8,.6,.1,.9-.1h.9l.3,.3,.3,.6,.2,.6v.5l.1,.2,.7,.2,.3,.1,.1,.3,.2,.5,.1,.4,.3,.4,1.1,1.3,.3,.1,.8-.1,.3,.1,.2,.2,.1,.6,.2,.3,1.1,1.3,.2,.4,.1,.7,.4,.3,1.2,.5,.2,.1,.4,.4,.1,.1,.3-.1v-.3l-.1-.3v-.2h.6l.4,.1,.1,.3-.5,.5,.6,.3,1,1,.5,.3,2.2,.7h.4l.3-.3,.4,.3v.2l-.1,.4,.5,.4,1.1,.6,.4,.3,2.2,3.1,.4,1.2-.4,.8v.2l.3-.1h.1l.1-.1,.1-.2,.4,.2-.1,.5-.2,.5,.2,.6-.3,.5,.3,.1h.5l.3,.3v.3l-.2,.2-.3,.3-.1,.3,.4-.1h.5l.4,.1,.2,.1,.2-.1,.8-.2h.3l.1,.7,.2,.3,.8-.4,.3,.1,.3,.2,.2,.2,.2,.4-.1,.2,.1,.2,1,.2,.3,.1,.3,.2h.5l.3-.1h.2v.9l.1,.2,.4,.6-.5-.1-.5-.1-.3,.2v.5h.2v-.3h.2l.3,.5-.2,.5-.5,.4-.6,.2-.2,.1,.3,.3,.5,.2,.2-.1v.3l-.2,.1-.3-.1-.2-.1v.2h-.2l.1,.2,.2,.3,.1,.2h-.4l-.1-.1-.1-.1-.4,.4,.1,.3,.3,.2,.4,.2-.3,.2-.4,.3-.3,.4,.2,.7,.9,.5,.2,.3-.7,.3v.2l.4,.4-.8,.6,.2,.6h.2l.1-.1,.3-.1-.1,.2-.2,.5-.1,.2-.6,.2-.6,.1h-39l-.5,.3-.4,.5-2.8,4.9-2.2,3.8-2.5,4.3-2.5,4.3-4.3,7.4-.2,.6v.6l.3,.6,4.1,5.3-.7,1.4-.3,.4-.4,.2h-.4l-.4,.2-.4,.3-.1,1.1,.1,2-.3,1-.7,.8-.1,.4v.9l.3,.8,.1,.3-.1,.5v.2l.6,1.6v.6l-.1,.5-.7,1.3-.7,1.9-.5,.7-.7,.1-.1-.1-1.7-2.1-2.4-2.3-4-4-6.1-6.3-3.9-4.4-.5-.9v-.6l.5,.3,1.4,.4,.3,.3v.6l.2,.6,.4,.5,.5,.2-.4-.7-.2-1.3-.4-.6-.5-.3-.6-.2-.7-.2-.5,.1-.1-.5-.3-.1-.2,.2,.4,.4h-.5l-1.9-1.5-1.3-.6-.6-.4-.5-.9-2.5-1.8-2.9-3.3-.5-.9-.4-.4-.9-.4-7.7-6.5-.5-.3-5.3-4.3-3.2-2.1-5.9-3.5,.4-.2,.8,.1,.4-.1,.2,.4h.3l.4-.2,.4-.4-.7-.8-.3-.7-.4-.6-.8-.4-3.8-.8-1-.6-.3-.2,.2-.4,.6-.8,.2-.4,.2-.6,.1-.6,.1-.7,.1-.6-.1-1-.4-1.1-.5-1-.4-.9-.5-1.3-.3-.6-.3-.5-.3-1.3,.7-1.4,1-1.3,.7-1.1,.3-.7,.2-.6v-1.4l-.1-.7-.2-.9v-.9l.1-.6,.4-.5,.6-.4,.7-.3,.5-.3,1.9-1.2,.1-.4v-3.5l.4-.6,.8,.2v-1l.1-1.8v-.9l-.2-.9,.4-.1,.4-.2,.7-.6,4.6-3.2,.7-.4,.6-.4,.6-.6,.4-.6,.5-1.3,.9-1.9,.8-1.9,.4-1.3,.2-.2,.2-.4,.1-.2,.6-.3,.3-.3h.2l.1-.6v-.2l.4-.4,.4-.3,.5-.3,.4-.4,.2-.5,.2-.6,.1-.6,.2-.6,.5-1.9,.6-2,.6-2,.7-1.9,.1-.7,.4-.1,.2-.2,.4-.5,.3-.2,.5,.1,.8,.2,1.1,.2,.3,.2,.6,.4,.8,.4,.7,.9,1,.7,1.1,.2,.7-.7,.6,.1,.4-.7,.1,.8,.1,.7v.8l.1,.6v1.2l-.2,.5-.3,1-.2,.5v1.4l.6,2.6v1.4l.1,.8,.2,.7,.5,.3h.8l1,.2,.5,.7,.4,.9,.6,1,.3,.5,.4,.5,.4,.5,.4,.4,.9,.5,1,.4,1-.1,.9-.6,.5-.4,1.9-1.8,1.2-1.2,2.8-2.4,1-1.1,.6-.5,.7-.2,1.1-.3,.3-.6-.1-.8,.3-1,.8-.6,1.1-.3,1.1-.3,1-.2,.8-.3,.8-.4,.7-.5,.6-.5,1,.2,1.1-.1,.7-.5-.6-1,.8-.9,.9-.9,.9-.6,.7-.2h.2l.5,.3-.1,1.1,.4,.5,.2-.4,.1-.3,.2-.3,.4-.2h.4l.5,.1,.8,.4,.6-.5,.7,.1,.6,.5,.5,.8v1.1l.1,.3,.2,1-.2,.3-.3,.6-.1,.6,.4,.3h.7l.6-.1,.7,.1,.6,.2,.6,.9,.4,1.2,.3,1.2,.2,1.1v1.3l.2,.5,.5,.4,.7,.3,.5,.2,.4,.2,.6,.2,.7,.2,.6,.2,.2,.2,.3,.2,.3,.2v.5l-.2,1,.2,.3,.4,.3,.4,.1,.4,.1,.7-.1,.3,.2,.2,.3,.8,1.3,.1,.1-.1,.5h-.8l-.4,.2-.2,.3-.1,.5-.1,.5,.2,.5,.1,.1h0Z"/></svg>