<?xml version="1.0" encoding="UTF-8"?><svg id="estados" xmlns="http://www.w3.org/2000/svg" viewBox="0 0 128 128"><defs><style>.cls-1{fill:#3bb1e6;stroke:#fff;stroke-linecap:round;stroke-linejoin:round;stroke-width:1.36px;}</style></defs><path id="MEX2724" class="cls-1" d="M108.71,105.36c-1.38,3.84-2,6.04-6.22,7.02-2.11,1.14-2.72,3.85-4.67,5.11-2.74,.31-5.42-1.3-7.91-2.17-2.34-.32-5.23,1.1-6.87,2.68-1.74,1.43-2.05,6.73-5.05,5.36-1.39-1.09-2.24-2.87-2.33-4.6-1.01-1.47-3.14-1.82-4.28-3.19-.32-2.71,1.74-5.35,1.43-8.04-1.23,.35-2.51,1.76-3.76,2.04l-.52-.13c-1.75,2.21-3.22,4.97-4.41,7.53,.72,2.14,3.95,2.91,3.5,5.62-1.36,1.74-3.33,3.66-5.7,3.7-1.72-1.23-.47-3.98-2.07-5.11-3.11,.95-6.57,.33-9.72,.51-1.41,1.12-1.56,3.68-3.24,4.72-.89,.22-2.05-.01-2.85-.38-.32,.38-1.13,1.01-1.56,1.28-.36-.39-2.37-2.64-2.72-2.94-2.73,.02-5.95,1.21-8.55-.51-3.46-.55-7.88-2.01-8.3-6-.87-.49-2.13-.67-3.11-.64l-.65-.38c-.27-.47-.36-1.89-.39-2.43l-.52-.13c-.28,.11-.81,.44-1.04,.64-.29-.18-.96-.62-1.17-.89-.11-.45-.31-1.06-.26-1.53l-1.17,.13c-.28-2.11-.72-1.72-.78-4.72,1.24-1.18,3.16-1.43,4.54-2.3,.18-.32,.36-1.04,.39-1.4,.28-.27,.92-.68,1.3-.77,.74-1.55,3.02-1.97,4.54-1.4,1.36,.68,2.35,2.19,3.76,2.81l.78-.26c-.16-4-2.85-7.24-2.98-11.23,.86,.29,2.22,.46,3.11,.38,.04-.1,.16-.33,.26-.38,.33-1.99-2.41-2.75-1.81-4.6-.35,.09-.7-.29-.91-.51,1.04-1.03,1.69-2.65,3.11-3.32-.09-.37-.51-1.01-.78-1.28v-.89l.26-.26c.14,.06,.49,.16,.65,.13,.87-3.63-.48-6.68,.26-9.96,.17-.1,.52-.35,.65-.51,.12-3.83-3.14-8.25-.39-11.62,1.5,.49,3.32,1.15,4.93,1.02,.24-.23,.81-.64,1.17-.64,1.17,.21,1.2,1.38,1.43,2.3,.42,.75,.92,1.56,1.04,2.43,2.28,.96,2.48,3.45,3.89,5.11,1.01,.92,2.52,1.65,3.5,2.68,.75,.78,1,2.27,2.33,2.3,1.09-.35,2.35-.95,3.5-1.15,.84-.83,1.72-2.19,2.33-3.19,1.94,.46,3.96,2.17,5.96,2.3,.68-.36,1.56-1.26,2.2-1.66l.13-.77c-.13-.48-.74-1.15-1.17-1.4-.06-.17-.32-.84-.26-1.02,.29-.53,.97-.92,1.56-1.02,.06-.12,.2-.39,.26-.51,.1-.04,.33-.16,.39-.26,1.01,.21,2.31,.79,3.37,.64l.65-.38c.13,.22,1.07,.75,1.3,.89h1.3c.57-.27,1.54-1.05,1.94-1.53l.26-1.15-.39-.77-.78-.38c-3.93,.72-3.81-5.83-8.3-2.68-.3-.49-.48-1.3-.78-1.79-.34-.03-.63-.35-.78-.64-.03-.2,.04-.59,.13-.77,.33-.16,.84-.09,1.17-.26l.39-1.15c-1.33-.89-3.48-.97-4.67-2.04-.69-1.33-1.91-1.65-3.24-1.92l-.26-.38,.52-.77c.18-1.08-.35-2.48-1.43-2.94l-.39,.64c.09,.48,.24,1.21,0,1.66-.79,.43-1.98,.2-2.85,.26-1.54-2.31-4.65-5.75-4.15-8.55,.82-1.51,1.99-2.95,2.98-4.34,.09-2.09,1.36-3.55,2.85-4.85-.42-1.68-.99-3.61-1.43-5.36l-1.04-.51c-.93,.05-2.26,.71-3.11,1.02-.14-.08-.49-.21-.65-.26l-.13-.38-.52-.26c-.69-1.11,.72-2.36,.78-3.57,.91-1.04,2.67-.44,3.76-1.15,.9-2.65,3.58-3.38,5.31-5.23,.69-1.22,2.45-1.97,2.85-3.32,.73-1.81,1.19-4.6-.26-6.13v-.38l.91-.38c.32-.31,.27-1.39,.26-1.79,.19-.47,.83-.68,1.3-.77l.39-.38V2.98c.13-.26,.47-.8,.78-.89,1.28,.63,2.67,.39,4.02,.51,2.75,1.87,.53,4.57,3.11,7.28-.14,.28-.52,.83-.78,1.02v.51c1.73,.47,3.86-.11,5.44,1.15,.57,.96,1.38,2.28,1.17,3.45-1.18,1.07-1.62,3.17-3.24,3.7l-.65-.26c-.32-.48-1.1-1.57-1.56-1.91l-.39,.13c-.56,1.14-1.68,1.07-2.72,1.15l-.39,.38c.79,1.23,.05,2.78,.78,3.96-.1,.6-.46,1.51-.78,2.04l.13,.64c.8,.78,2.16,1.01,2.85,1.91,.21,.77,.33,1.78,1.17,2.17,.66,.13,1.63-.39,2.2-.64l.65,.26c.69,.83,0,2.3,1.04,2.94h.39c1.99-1.05,3.28-3.13,4.15-5.11,2.41-1.78,4.97-.35,6.87,1.4,1.88,1.06,4.07,1.8,6.09,2.55l.78,1.02c-1.36,3.61-5.34,5.58-6.87,9.19-.87,3.12,1.17,7.93-2.2,10.34h-.65c-.84,.97-.74,2.62-.78,3.83,.35,.43,1.09,.69,1.43,1.15-.01,.45-.27,.97,0,1.4,.67,.22,1.18,.91,1.43,1.53-.56,1.62-2.42,.83-3.5,1.53l.26,.64c.69,.48,1.69,.31,2.46,.51,.37,.25,.54,1.03,.91,1.28,.64-.09,1.27-.63,1.94-.51,.93,.85,1.22,2.55,2.46,3.06,2.12-.04,4.03,1.79,6.09,.38,1.07,.25,2.27,.78,3.24,1.28,.17,.93-1,1.2-1.3,1.91-.98,1.37-1.54,1.53-3.11,1.66-.06,.18-.2,.58-.26,.77l-.52,.38c-.98-.06-1.97-.92-2.98-.51-.9,.9-2.23,.97-3.37,1.28-.91,2.91,1.34,8.3,1.56,11.36l-.39,.38c-.6,.09-1.42,.34-1.94,.64-.17,1.59-2.18,2.1-2.33,3.7,0,1.67,.67,4.2,2.2,5.11,1.01,.43,2.24-.6,3.24-.51,.74,.75,1.98,.58,2.85,1.02,.69,.56,.46,1.65,.65,2.43,.23,.31,.75,.9,1.04,1.15l.13,.64c-.27,.61-.58,1.5-.65,2.17l.39,.64c.52,.19,1.29,.14,1.81,0l.65,.26,.52-.13c2.28-2.33,6.14-2.25,9.2-2.94,.81,3.14,.61,3.5,2.98,6h0Z"/></svg>