<svg xmlns="http://www.w3.org/2000/svg" viewBox="0 0 128 128"><defs><style>.cls-1{fill:#b25fac;stroke:#fff;stroke-linecap:round;stroke-linejoin:round;stroke-width:1.37px;}</style></defs><g id="estados"><path id="NAY" class="cls-1" d="M21.78,88.84l.13.14.14.13v1l-.14.82-.41-.14-.41.14-1-.41-.41-.69.82-1,.82.14.42-.14Zm-8.93-7.42.55.28,1,.27H15.6l.13.55.42.28v.41l-.83.41-.14.69-.13.55-.69-.14-1.1-.55h-.69l-.68-.55-.83-.14-.55-.82.83-.69.55-.55.55.14.41-.14ZM4.06,72l.82.41,1-.14.55.41L8,73.32l.69.55-.28,1,.55.55.28.41.27.28.42.27-.42.28L9.42,77l.13.41.14.41L9.28,78v.27l-.55.55v.42l-.14-.14H8.32V79l.13-.41-.27-.28H7.9l-1.64-.68-1.79-1.1.14-.41v-.28l-.28-.55-.27-.55-.69-1,.28-.13v-1l-.41-.41L4.06,72Zm-1-3.71v.41l.27.14v.55l-.27.27.27.41-1,.55-.41-1,.14-.55.27-.68.28.13.41-.27ZM104.87,43l-.14.55-.14.68L104,45.44,103,48.6l-1.1,3L101.3,53l-.14.83.14.82,1,.83L104,57l1.65,1.65,1.65,1.51L109,61.78l1.37,1.51,1.24,1.52,1.23,1.51L114.07,68l-.14.55-.55,1.38-.55,1.37-.27.82-.41,1.52-.14.82-.14.69-.41,1.51L110.91,78l-.69,1.1-1,1.24L112.15,82l2.74,1.79,2.89,1.65,2.61,1.37.41.14-.55.55-.27.82v1.92l-.28.83-.55.82-2.47,2.34-.82.55-1.1.13h-3.3l-1.65.28h-.13l-1,1.37v.83l.42,1.09.13.83.14,1,.14,1.79v.68l-.14,2.06-.27,1-.83,1.65-.55.83-.68,1.37-.42,1.24-.41,1.37-.14,1.51v2.2l.14,1.1-.14.27v.41L106,118l-.83-.55-1.1-.55-1-.55-.55-.69-.55-1-.82-.69-1-.55-1-.54-1-.55-.55-.69-.55-.82-.55-.83-1-1.24-.83-.54-1.1-.14H92.51l-1-.14-.83-.41-.68-.69-.69-.68-.41-.42-1.1-1-.55-.55-.41-.27-.55-.14-.83-.27h-.41l-.41-.14-.41.14h-.42l-1.78,1.23-1.79,1.65-1.92,1.24-2.2.27-.82-.14h-.41l-.41.14-.42.28-.27.13-.14-.13-.27-.14v-.41l-.28-.28h-.55l-1.65.83-1.37,1.23L68.47,111l-1,1.65-1,1.51-1.1,1.37-1.1,1.38-.82,1.51-.55.41-.55.28L61.61,117l-1.38-1.24-.82-.41-.28.41-.82.69-1,.27L56,116l-1.64-.13-1.51-.83-.83.69-.55-.55.41-.55.55-.55.42.14.41.14.82-.55.41-1.1.42-.69.27-1,.28-.55.27-.27.27.13.69-.82,1-1.92,1.38-1.1.55-.14.27-.69.82-.68.69-1.51.28-.55.54-.14.28.27,1,.14.83-.82.68-.83.14-1.37V99l-.28-.68.42-1.1L65,96l.69-1.1-.42-3.7-.82-2.61.55-2.2.55-.83.69-1.37.82-.41L67,83.35l-.41-1-.14-.83-.27-.69-.41-.54-.55-.28-.69-.14-.28.55-.54.14L63,79.91l-1.79-.82-3-2.06-1-.55L55.7,75.11,55,73.18,51.3,65.77l-3.57-5.91-.68-1.65-.41-2.61L47.05,49l-.28-3.16L45.54,41.6l-1-3.44-.69-2.47-.55-1.37.41-.28L45,36.1l.68.69.69-.55.14-.83-.28-1-.41-1.64.83-.14,1-.28,1-.27,1,.27.69.42.55.54.68.55.55.55,1.51.42,1.38-.14,1.09-1V32.12L55.7,31l-.27-1.24L55,28.55l-.41-1.1-.14-.14-.55-.14L53.78,27v-.28l.27-.68V25.8l-.41-.27-.55-.14-.41-.28-.28-.41L52.13,24l-.28-.42-.27-.27-.82-.55-.28-.28-.27-.27-.14-.41.27-1,.69-1.1.82-.83.69-.82.69-.55.82-.69.83-.68.68-.55.28-.69v-.41l-.69-1-.27-.83-.28-.55.14-.55.27-1,.55-.82.69-.41,1-.14,1.1.14,2.2-.14,2.33-.14h2.34l2.19.28,2.06.68,2.06,1.1,2.06,1.1,1.93,1,1,.55.55.55.41.55.41,1,2.06,4.95-.41.55-1,1L76.85,24l-.82.82-.42.69-.27.68-.14,1.24-.27,2.61v1.51l.27.82,1.1.14,1.24-.69,1.23-1,.83-.82,2.61-1.92,2.61-1.93,1,.14,1.37.69,1.37,1,1,.55.27.41.28.55.13.69.55,2.19.41,1.51.69,1.38,1.1,1.1,2.33,1.51,1.24.55,1.24-.14,1.51-.69,3.16-1.23,1.51-.69.41,3.57.27,1.92.28,1.79Z"/></g></svg>