<svg xmlns="http://www.w3.org/2000/svg" viewBox="0 0 128 128"><defs><style>.cls-1{fill:#b25fac;stroke:#fff;stroke-linecap:round;stroke-linejoin:round;stroke-width:1.37px;}</style></defs><g id="estados"><path id="ZAC" class="cls-1" d="M116.59,20.49a11,11,0,0,1-1.14,3c-5.14,2.62-6.74,9.5-9.9,14-2.85.58-4.13,3.29-6.14,5.17s-4.92,2.65-6.74,4.64C91.89,50,90.8,48.88,89,50.19c-2.56,2.38-4.08,6.47-7.89,7.19l-.53-.26a5.38,5.38,0,0,1,.18-1.32c-.49-.53-1.15-.23-1.75-.26-1.11,1-.19,4.91-2.37,4l-.44.09a1.76,1.76,0,0,0-.26,1.14c1.62.93,1.75,2.89,2.1,4.56-.14,1-1.14,1.82-.79,2.89a21.84,21.84,0,0,0,6.31,9.2,1.39,1.39,0,0,0,1,.26c2.91,1.12,3.64,8.55,7.53,5.79.6-.66,1.59-.49,2.37-.71,1.34-4,3.64-3.5,7.27-3.24a11.37,11.37,0,0,1,1.93,4.38c-.94.84-2.58,1.39-2.28,3,.81,2.47,1.76,5.53,1.49,8.15-1.53,2.24-3.72,5.1-5.34,7.28a3.13,3.13,0,0,0-.27-1c-2.24.32-2.86-3.27-5.34-2.46-3.06,0-4.2-4-7.1-4.82-.93-1.57,1-5.39-2.19-4.82-.65-.18-1-.88-1.49-1.22l-.53.08-.35-.35c-.08-.34-.27-1-.61-1.22a2,2,0,0,0-.7.43l-.53.18c-1.2-.7-1-2.68-2.19-3.33-.67.48-.86,1.5-1.49,2-.79-.17-1.2.58-1.66,1.06-.57,0-1.3-.21-1.67.35-.35,3-4.87-.36-5.87,2.71l.09.44c3.32,3.06-10.85,10.56-2.37,14.81-.14.82-.43,2-.61,2.81a1.94,1.94,0,0,0,.17,1.4c1.15.2,2,1.38,3.33.87l.44.27c.36,1.57-.79,5.55-2.63,5.69a8,8,0,0,1-1,1.14,1.39,1.39,0,0,1-.44,1.32h-.61l-.09-.27a4.2,4.2,0,0,0,.26-.78l-.35-.35c-.83,0-1.39,1-2,1.4-1.38,1-2.94,0-4.39.17-.89,2.19.59,5-.35,7.19l-.7.09a3,3,0,0,0-3.06-.79c-2-.43-3.69-2.22-5.7-2.81-1.42.44-2-.08-3-1-1.06-.21-2.31.48-3.24-.35a6.54,6.54,0,0,0-.27-1.4c-1-.73-1.94.5-2.8.87l-.26-.08c-.19-4.09,2.46-2.26.35-8.77,4.14,2.85,2.4-1,6-2.28a11.57,11.57,0,0,0-.7-5.6,16.4,16.4,0,0,1,4.29-4.3c1.19-.15,2.22-.3,2.72-1.58,5.61.88,2.3-1.08,5.52-2.63a2,2,0,0,0,.08-1.49,3.52,3.52,0,0,0-1.13-.43,2.23,2.23,0,0,1,0-1.06c1.43.18,3.26-3,2-3.94l-1,.26a5.23,5.23,0,0,0-.26-1l-.35-.26a6,6,0,0,0-2,.52,3.48,3.48,0,0,0,.09-1.75,34.12,34.12,0,0,1-5.17-4.12,1.57,1.57,0,0,0-.27.53,6.92,6.92,0,0,0-1.22,2.71,6.11,6.11,0,0,1,.79.44l.17.53.26.17a1.44,1.44,0,0,1,.62.09l.09.26-.09.35c-.27.11-.58.5-.88.53-.35.59-.18,1.49-.44,2.1-.27.15-.85.41-1.14.53-.57,1.06-.7,2.52-1.4,3.5a1.5,1.5,0,0,0-.26-.52c-2.56-.87-2.08,1.13-4.12.79l-.53-.62c0-1.71.77-3.53-.17-5.17.5-1.7.52-4.39,2-5.52.19-.68.1-1.45-.79-1.31l-.18-.18a3.18,3.18,0,0,1,.18-1l-.18-.26A8.06,8.06,0,0,0,36.93,80a.89.89,0,0,1-.26-.35l-.18-.09c-2.08,3-2.29,9.14-3.42,12.71a6.37,6.37,0,0,1-.87-5.35c1-1,0-2.14-.09-3.24,1.27-.61,1.09-1.78,1-3,1.74-1.11,1.92-3.06,2-5-1.57-.27-4-.88-5.61-1.14-1.18,10.33,1.81,5,1.4,9.29,0,4-2.49,3.22-5.52,3.5a48.78,48.78,0,0,0-5.52,2.37c3.25-8.12,3.93-16.82,3.94-25.5A1.54,1.54,0,0,1,25,62.55c.81-2.17.58-5.55,1-7.89.71-1.66,3.08-2.18,4.29-3.5.7-.84.36-2.17,1-3.07l.62-.35.61.18c.27.33.67.83,1.14.87a2.16,2.16,0,0,0-1-3.59l-.35-.79c1.81-2,.12-2.76-.71-4.56.47-.12,1.4-.43,1.85-.61-.16-1.22,0-2.59-.18-3.77,2.06-2,5.69-2.22,6.66-5.52.2-1.22,1.2-1.13,2.1-1.4.1-2.21,1.72-1.24,3.16-1.84,1.52-7.66,11.85-1.48,16.91-1.58,2.74.13,5.83-1.23,8.5-1.49.33-10.25,1.19-10.52-4.82-18.84C68,1.93,74.62,3.51,77.86,2.26c1-.57,9.08,2.42,10.16,2.63,1.71,2.39,2.38,5.78,6.22,5.08,1.43.51,1.75,1.79,1.76,3.16a15.07,15.07,0,0,1-2.28-.62c.28.66.4,1.71,1,2.11,3.23.36,5.56.52,7.54-2.46,0,.22.11.58.08.79,6.23-2.54,4.72,7.7,10.52,6.31,1.3-.71,2.62.6,3.68,1.23Z"/></g></svg>