<?xml version="1.0" encoding="UTF-8"?><svg id="estados" xmlns="http://www.w3.org/2000/svg" viewBox="0 0 128 128"><defs><style>.cls-1{fill:#3bb1e6;stroke:#fff;stroke-linecap:round;stroke-linejoin:round;stroke-width:1.29px;}</style></defs><path id="JAL" class="cls-1" d="M89.98,36.16c5.61-2.76,4.11,1.86,12.4,2.27,3,.61,3.91-.14,5.96-2.18,2.82-.73,2.08-1.59,2.84-3.88,.33-.27,1.08-.62,1.51-.66,.23-.28,.71-.85,.95-1.14,1.64-.44,2.89-1.6,3.6-3.12,.85,.44,1.67,1.27,2.46,1.8,.8,.36,1.73-.04,2.56,0,1,.47,1.97,1.23,2.56,2.18,.31,.55,.98,.63,1.51,.47,2.04,1.04-1.42,2.64-1.33,4.07,.13,1.03,1.08,1.89,1.61,2.75,.04,2.23-4.01,2.35-3.12,4.92,.61,1.34,2.22,2.59,2.08,4.17,.03,2.19-2.2,4.03-3.98,4.92-2.24-.05-2.35-.2-3.41,1.8-.35,.27-1.62,1.83-1.89,2.18-2.24,2.75-4.31,5.99-5.87,9.18-1.87,3.23,1.55,3.96,2.94,6.15,1.17,2.91-6.44,8.89-7.67,9.09-.46,.24-1.1-.55-1.61-.57-.5-.21-5.2,.99-6.34,1.42-.44,.23-3.3,1.73-3.79,2.56-1.01,.84-2.64,.37-3.79,.76-1.1,1.31-5.4,1.71-6.91,2.37-2.19,.44-3.51,.96-2.84,3.5,.12,.35,1.15,1.58,1.33,1.8,.77,.13,1.63-.33,2.37-.47,.87-.54,1.34,.52,2.08,.76,.92,0,2.04-.05,2.93,.19,.35-.16,.8,1.89,2.46,2.93-.52,1.18-2.08,.99-3.12,1.33-.43,1.49,2.31,6.89,2.18,7.57-.93,3.98,.21,4.09,3.69,2.93,.9,.08,1.9,2.56,2.08,2.84-.13,.87-1.35,1.05-1.61,1.89,.36,1.28-1.15,2.41-1.8,3.41-.79,.79-.58-.43-1.42-.57-1.53-.46-3.6,.94-4.07,1.04-3.84,.92-2.27,3.55-4.35,5.02-1.25,.64-2.85,.78-3.98,1.7-.24,.32-.97,1.76-1.33,1.32-.6-.89-.99-1.89-2.27-1.61-.76-1.23-1.47-1.75-2.27-.19-.56,2.39-3.17,.85-4.73,1.7-.54-3.12-2.22-2.89-.76-6.34,.38-1.03-.15-2.17-.09-3.22,.31-1.03,.92-1.32-.38-1.89-.55-.14-1.98-2.23-2.46-2.56-.84-1.4-1.03-4.35-2.84-1.8-.61,.96-3.66,2.59-4.64,1.99-1.51-.56-3.02-1.37-4.35-2.27-.42-.16-1.65-1.64-1.7-1.99-1.27,1.25-2.8,2.57-2.93,4.45-.94,.31-2.95,2.28-3.6,2.56-.9,.98-2.08,1.15-3.31,1.42-.34,.08-.64-.25-.85-.47-.42-.2-1.21,1.74-1.89,1.8-1.01-1.21-1.87-.94-2.18,.57-.55,.57-1.43,1.06-1.33,1.99-1.45-.45-4.07-2-4.17-2.56-1.96-.25-2.45,1.21-1.99-1.7,.12-.84-2.22-.32-2.37,.09-.8-.44-2.77-1.37-3.41-1.99-.85-.61-.88-2.09-1.33-2.93-.19-.18-.87-1.79-1.42-2.18,.02-.84-.04-2.16-.95-2.56-1.18,.29-1.28-.42-2.18-.95-3.09-2.14-4.5-6.24-7.1-8.71-1.11-1.95-3.02-4.23-3.5-6.44-.1-1.17,.24-3.36-.66-4.26-.88-.46-1.23-1.62-1.8-2.37-.71-.06-1.94-3-2.08-3.41,.09-.48,3.37-2.21,3.69-2.56,1.23-.4,3.27,.18,4.36-.57,1.1-.11,2.95-.03,3.79-.85,1.24-1.2,1.99-1.18,1.99-3.31-.33-.68-1.43-.84-1.7-1.51,.99-.33,1.34-1.8,2.08-2.46,1.63-1.81,2.42-4.73,4.92-5.59,.34-.06,1.6,.24,1.89,.28,2.57,.77,4.1-2.28,6.15-2.94,2.52-.53,3.44,2.95,5.68,3.12,2.09-.46,2.92,1.56,3.98,2.93,1,.65,2.45,1.09,2.93,2.27,.49,.8,1.67,1.04,2.37,1.61,.35-1.18-.08-2.71,.19-3.98,.32-1.57,1.27-3.05,1.99-4.45,.67-2.05,.04-4.33-.28-6.34,1.78-2.81,4.54,1.03,7.57-3.79,.43-.82-.16-2.25,.76-2.84-2.66-1.13-5.42-3.17-7.95-4.54,2.09-2.34,1.99-5.78,3.31-8.52-1.66-2.27-3.65-4.59-5.78-6.44-.8-1.29-3.53-2.14-3.03-3.88,2.48-6.61,.98-4.97,7.86-7.76,5.17-.57,5.38,.82,6.15-4.73-.02-.99-1.2-1.47-1.8-2.08-.44-1.56,.17-5.35,.09-7.01,1.7,.29,4.36,.94,6.06,1.23-.21,1.36-.1,3.21-.95,4.35-1.34,.71-1.3,1.18-1.14,2.56,.19,1.69-2.13,1.14-.66,3.12,.46,1.16-.63,2.1-.66,3.22,.12,1.53,.15,3.45,1.23,4.64,1.07-3.86,3.91-13.51,4.17-13.25,.47,0,1.14,0,1.61,0,.93,.05,1.12,1.65,1.42,1.89,.28,.66,0,1.43-.66,1.7-.71,1.52-.99,3.54-1.51,5.11,.06,.85,.57,1.76,.57,2.65,.11,1.27-1.06,3,.19,3.98,1.12,.39,1.87-.65,2.65-1.14,.65,.25,1.97-.09,2.08,.85,1.05-1.4,.68-3.91,2.75-4.35,.35-1.15-.08-2.13,1.23-2.75,.6-.31-1.97-2.27-1.61-2.75,.29-.95,.9-2.02,1.42-2.84,1.42,1.33,3.1,2.71,4.64,3.88,1.29,.48,1.13,1.31,.85,2.46,1.25-.46,2.73-1.23,2.84,.76,2.83-1.13,1.23,2.33,.38,3.41-.32,.49-.92,.45-1.42,.57-.23,.67-.05,1.36,.76,1.33,.75,.24,.69,1.32,.38,1.89-.3,.1-1.67,2.33-2.37,2.84-1.37,.94-3.45-1.1-4.17,.85-.37,.84-1.3,.55-1.99,.76-1.8,.66-3.1,2.66-4.54,3.88-.73,.75-.2,1.76,.19,2.56,.07,1.35,.24,3.02,.09,4.35-.58,.51-1.6,.82-2.18,1.33-1.35,3.07-1.6,2.65-4.26,1.14,.47,1.97,1.3,4.25,.57,6.25-.25,.5-1.1,.76-.95,1.42,.15,.53-.45,1.74,.28,1.89,5.03-3.35,1.49,1.36,5.02,1.04,3.16-.84,1.83,1.79,5.02,.95,2.48,.59,4.52,3.54,7.19,2.84,.81-.17,1.6,.71,2.27,1.04,2.27-.16,.4-5.5,.85-7.19,.51-1.76,2.86,.32,4.17-.47,1.24-.09,2.29-2.73,3.41-1.51-.03,.35-.4,.8-.19,1.14,.91,.22,1.85-2.28,2.18-2.65,.3-.08,.75-.17,1.04-.28,1-1.59,2.26-3.93,1.8-5.87-.73-.54-1.88,.12-2.65-.57-.37-.31-.92-.66-1.42-.66-.69-1.36,.37-3.11,.47-4.54h0Z"/></svg>