<?xml version="1.0" encoding="UTF-8"?><svg id="estados" xmlns="http://www.w3.org/2000/svg" viewBox="0 0 128 128"><defs><style>.cls-1{fill:#3bb1e6;stroke:#fff;stroke-linecap:round;stroke-linejoin:round;stroke-width:1.18px;}</style></defs><path id="MEX2723" class="cls-1" d="M126.81,62c.36,1.22,.02,2.83,.08,4.08l-.68-.18-.34,.53c-.05,1.08,.11,2.4-.08,3.46-.98,.84-2.71,1.37-3.48,2.4-.23,.86,.05,1.9,.17,2.75,.36,2.28-1.72,3.85-2.46,5.77,.89,3.45,3.98,7.11,1.1,10.47-.68-.45-1.14-1.29-1.19-2.13,0,0-3.46,.52-4.76-.44-.91-.57-1.75-2.29-2.97-1.6-.03,.43,.14,1,0,1.42l6.29,3.55c.38,.09,2.05,.46,2.38,.62l-.59,1.24c-1.96-.62-6.82-3.38-8.67-3.82-1.4-.08-3.66,.25-4.93-.44l-.77-.56c-.62-.02-.66-.42-1.25-.69,0,0-.81-.48-.1-1.45l1.39-1.81c-.42-.65-2.06-.16-2.36-.18-.13,.27-1.09,1.41-.9,1.06-.11-.26-1.16-2.34-1.78-2.84-1.87-.62,.17,4.08,.17,4.08l.17,.44c-.74,.49-1.93,.76-2.8,.8,1.03,.55,3.15-.12,4.16,.44l.25,.89c-3.3-1.33-6.88,.86-10.28,.27,0,0-.03,.51,0,.62-.16,.14-1.27,.27-1.27,.27l-1.27,.27-.08,.44c-.24,.06-.86,.79-.93,.89l-.59,.27c-.81,0-1.56,.64-1.95,1.33l.17,.62c-.42,.24-.93,.74-1.44,.8v.44l-1.78,.27-2.12,.53-.25,.36-.85,.44c-1.31,.85-3.21,.29-4.42,1.33,0,0-3.28,1.37-4.84,1.6l-.25,.36c-1.13,.26-2.21,.97-3.23,1.42-.07,.12-.29,.24-.42,.27l-.59,.18,.08,.44c-.66,.29-2.47,1.08-2.97,1.6-1.61-.15-3.7,.03-5.27-.44l-.34,.44c-.9,.48-1.76,.91-2.8,.53l-.17,.18c-2.22-1.08-5.23-2.2-7.73-2.22-1.42-1.33-4.04-1.63-5.44-2.75l.08-.09-.42-.8-.42,.09c-2.09-1.55-4.67-2.39-7.22-2.57-1.28,.64-3.69-.2-4.93-.71-.96,.39-2.47-.36-3.48-.27-.14,.11-.45,.35-.59,.44-2.66-.22-4.94-1.94-6.97-3.64-1.67-1.32-4.63-2.14-6.12-3.55,.53,.16,1.27,0,1.27,0-.25-.18-.8-.35-1.1-.36-.03-.19-.34-.36-.34-.36-.18,.06-.33,.3-.51,.36-2.92-1.02-6.82-1.48-9.6-2.84,1.85-2.45,5.83-.23,6.46-4.35-.17-.44-.58-1.31-.85-1.69v-.62c.56-1.44,1.97-.44,2.97-.89,.74-1.11,.23-2.5-.17-3.64,.92-.47,1.98,.31,2.89-.44,.64-.4,1.2-1.13,1.61-1.77,.12-1.12,.54-2.45,.34-3.55,.63-1.07,1.43-2.08,1.61-3.37-.8-2.14-2.63-4.07-3.99-5.86-.64-.29-1.48,.02-2.12-.27-.46-.54-.73-1.5-1.19-2.04-.28-.12-1.16-.47-1.36-.71-.37-.71,.1-1.58,.17-2.31-.07-.16-.26-.71-.42-.8,.69-1.21-.19-2.31-1.1-3.02-.06-.37-.24-.88-.08-1.24,.1-.1,.33-.34,.42-.44,.02-.1-.03-.28-.08-.36-.15,0-.5-.52-.59-.62-.13-2.6,1.23-5.13,1.53-7.54l-.51-.53c.28-.18,.81-.62,1.02-.89,.53,.26,1.29,.42,1.87,.27,1.1-.73,1.2-2.5,2.12-3.28,2.07-.13,4.34,.31,6.37-.35,1.05,.78,.23,2.7,1.36,3.55,1.56-.03,2.85-1.36,3.74-2.57,.3-1.88-1.82-2.42-2.29-3.91,.78-1.78,1.74-3.7,2.89-5.24l.34,.09c.82-.2,1.65-1.18,2.46-1.42,.21,1.87-1.14,3.71-.93,5.59,.75,.96,2.14,1.2,2.8,2.22,.06,1.2,.62,2.44,1.53,3.2,1.97,.96,2.17-2.74,3.31-3.73,1.08-1.1,2.97-2.09,4.5-1.86,1.63,.61,3.39,1.73,5.18,1.51,1.28-.87,1.68-2.75,3.06-3.55,2.77-.69,3.17-2.21,4.08-4.88,.91-.99,2.23-2.34,2.55-3.73-.02-1.27-.7-2.65-.85-3.91,1.04,1.05,2.32,2.22,3.74,2.66,1.21,.33,3.13,.28,3.31,1.95,.34,1.62,.76,3.75,2.12,4.79,1.65,.76,2.22,2.61,2.46,4.35l.25,.27h.08l.34,.27c.27-.1,.67-.14,.93,0l.08,.18c-.06,.12-.11,.39-.08,.53,.35,.47,1.07,.71,1.61,.53,.23-.19,.45-.7,.68-.89,.79,.02,1.59,.29,2.38,.36,1.14-.59,2.21,.82,3.4,.71,.19,.14,.62,.37,.85,.44,.69,1.08,1.03,2.6,1.61,3.73-.43,2.48-3,3.88-3.57,6.21-.13,1.25,.89,2.5,1.27,3.64,.7,1.37,1.68,4.49,3.48,4.62,1.09-.14,2.13-1.26,3.23-.36,.21,0,.55-.39,.68-.53,.2,0,.49,.01,.68-.09-.01-.97,1.45-1.37,2.21-1.6,.6-1.23,1.79-1.69,3.06-1.51v-.36l.17-.18c1.12,.12,1.66-.83,2.12-1.69,.31,.05,.69,.25,.93,.44l.17-.18-.25-.44,.17-.18c.21,.02,.64-.11,.85-.09l.25,.27c.19,.68-.22,1.52-.17,2.22-.94,.19-1.32,.94-1.36,1.86,1.41,2.02,3.37,3.75,4.84,5.68,1.13,.26,2.64,.84,2.55,2.31-.04,.07-.19,.15-.25,.18l-.08,.18,.51,1.86c9.17,2.09,20,1.44,29.48,2.49h0Z"/></svg>