<?xml version="1.0" encoding="UTF-8"?><svg id="estados" xmlns="http://www.w3.org/2000/svg" viewBox="0 0 128 128"><defs><style>.cls-1{fill:#3bb1e6;stroke:#fff;stroke-linecap:round;stroke-linejoin:round;stroke-width:1.37px;}</style></defs><path id="DUR" class="cls-1" d="M94.37,7.15l1.2,1.04,2,1.76,1.04,.88,.96,.96,1.12,.88,1.28,1.12,1.04,1.2,.32,1.44-.24,1.44-.64,1.28-.56,1.28-.4,1.36-.16,1.36,.08,1.52,.16,1.44,.16,1.44,.08,.8,.08,.8,.08,.8,.08,1.36,.08,.72v.88l-.08,.8-.24,.4-.48,.24-.24,.32-.16,.4-.24,.48-.48,.48-.16,.24-.24,.32-.16,.24-.32,.08-.24,.16-.24,.24-.4,.24-.32,.24-.24,.32-.16,.48v.56l.24,.48,.32,.4,.4,.4,.24,.24,.32,.32,.16,.32,.08,.24-.16,.16-.56,.16-.24,.16-.48,.64-.32,.72-.32,.72-.08,.8,.08,.48,.16,.32,.32,.32,.4,.24,.48,.4,.4,.48,.32,.56,.32,.72,.56,.88,.96,.64,1.04,.56,.88,.64,.4,.88v2.24l.16,1.04,.64,1.04,1.04,.64,1.12,.4,1.12,.32,1.04,.24,1.04,.24,1.04,.4,1.04,.48,.56,.4,.56,.4,.56,.4,.56,.48,.08-4.73,.56-.16,.64-.64,.48-.72,.4-.56,2.24-2.96,.4,.88,.48,.8,.56,.8,.56,.72,.72,.88,.8,.96,.64,1.04,.32,1.04v9.7l-.08,.4-.32,.16-1.76,.16-1.12,.24-1.2,.32-1.12,.32-1.12,.24-1.12-.08-1.12-.16-1.12-.16-4.49-.96-4.49-.96-.96,.24-1.12,.4-1.04,.56-.72,.64-.16,.48v.96l-.24,.4-.4,.16-.48,.08h-.96l-.4,.08-.32,.16-.16,.4v.4l-.16,.4-.32,.16h-.48l-.48,.08-.32,.32-.16,.32-.16,.4-.16,.32-.56,.88-.48,.72-.48,.56-.8,.56-.72,.32-.64,.24-1.12,.48-.88,.56-.24,.4,.16,.56-.08,.56-.08,.72,.16,.72v.88l-.88,.32-.8,.24,.24,.64,.4,.48,.4,.4,.32,.56,.08,.64-.16,.4-.24,.32-.16,.4-.24,.32,.32,.72,.64,.4,.56,.48,.32,.64-.08,.56-.24,.72-.32,.48-.48-.16-.56-.64-.56-.16-.56,.32-.32,.72-.08,.56-.08,.56-.08,.48-.32,.48-.72,.56-.72,.56-.8,.48-.72,.48-.56,.4-.24,.24-.16,.48-.08,.64-.24,3.21-.16,1.04-.08,1.28-.08,.64-.24,.4-.56,.24-.32,.24-.16,.32-.08,.72-.16,2.96-.08,2.96-.08,2.96-.08,2.96-.16,1.12-.24,1.12-.4,1.12-.32,1.04-.4,1.36-.8,2.8-.4,1.44-.16-1.04-.16-1.12-.24-2.08-.88,.4-1.84,.72-.88,.4-.72,.08-.72-.32-1.36-.88-.64-.64-.4-.8-.24-.88-.32-1.28-.08-.4-.16-.32-.16-.24-.56-.32-.8-.56-.8-.4-.56-.08-1.52,1.12-1.52,1.12-.48,.48-.72,.56-.72,.4-.64-.08-.16-.48v-.88l.16-1.52,.08-.72,.16-.4,.24-.4,.48-.48,.96-.96,.56-.56,.24-.32-1.2-2.88-.24-.56-.24-.32-.32-.32-.56-.32-1.12-.56-1.2-.64-1.2-.64-1.2-.4-1.28-.16h-1.36l-1.36,.08-1.28,.08-.16-3.21-.96,.08-1.12,.08-.96-.08-.88-.48-.4-.4-.4-.48-.48-.4-.32-.32-.24-.16-.08-.24-.08-.24-.16-.24-.32-.32-.4-.24-.4-.24-.24-.4v-.96l-.08-.32-.16-.32-.24-.32-.16-.24,.16-.48,.08-.24v-.32l-.08-.24-.4-.4,.08-.24,.08-.24,.08-.24-.32-.64-.4-.56-.4-.56-.16-.64-.4-.08-.4-.08-.4-.08-.32-.16-.48-.4-.24-.56-.16-.72-.08-.56-.24-.48-.24-.48-.24-.4-.16-.48-.24-1.92-.16-1.04-.16-1.12-.08-1.12,.16-1.04,.4-.88,.4-.8,.32-.88,.24-.88-.56,.24-.64,.08-.48-.08-.48-.48-.4-.64-.32-.72-.56-1.44-.24-.72-.32-.88-.32-.8-.48-.64-1.84-1.68-.64-.56-.24-.24-.32-.16-.24-.16-.32-.16-1.04-.16-.88,.16-.96,.48-.8,.64-.32,.4-.24,.4-.32,.4-.32,.32-.4,.16-.4,.08h-1.76l-.4-.16-.48-.4-.4-.4-.48-.4-.88-.88-.24-.4-.08-.4v-.88l-.08-.56-.08-.48-.16-.48-.24-.48-.32-.64-.16-.32-.16-.4-.16-.48-.32-.32-.64-.56-.56-.96-.32-1.04-.48-.88-.88-.56-.48-.24-.32-.4-.24-.48-.24-.48-.32-.24-.4-.08h-.72l-.48-.08-.4-.16-.24-.24-.24-.48v-.8l-.08-.32-.16-.32-.4-.24-.88-.24-.32-.24-.32-.4-.16-.56-.16-.56-.16-.48-.48-1.12-.32-1.2-.32-1.2-.4-1.2-.24-1.28v-1.28l.16-1.36,.24-1.28,.16-1.2,.24-1.28,.32-1.28,.48-.96,.48-.56,.48-.4,.4-.48,.32-.56,.24-.56,.4-.48,.88-.88,2.8,.32,.48,.08,.64,.08,.56,.08,.48-.08,.48-.24,.48-.48,.48-.48,.4-.48,1.92-1.68,.48-.4,.32-.32,.32-.32,.24-.32,.08-.48,.16-3.04v-1.12l.08-.96,.32-.8,.8-.48h.88l.48-.08,.4-.32,.24-.48,.24-.56,.16-.64,.16-.56,.08-1.04-.16-.96-.4-.96-.4-.96-.4-.88-.24-.88,.16-.8,.72-.56,2.24-.64,2.16-.72,.48-.16,.32-.24,.16-.4-.08-.56-.24-.56-.16-.56-.4-1.2,.08-.4,.4-.4,.48-.4,.4-.24,.16-.24v-.4l.08-.72v-1.52l.08-.8,.32-.56,.4-.16,.4,.16,.32,.4,.24,.32,.24-.48,.56-1.04,.24-.56,.16-.24,.08-.16,.32-.4,.4,.32,.4,.24,.8,.56,.96,.8,.96,.8,.96,.8,1.04,.56h.64l.72,.08h.64l.64-.16,.64-.08,.4,.4,.32,.64,.4,.64,.48,.48,.48,.56,.48,.48,.56,.4,3.61,2,2.16,1.2,.48-.08,.72-.4,1.28-.72,2.08-1.12,.72-.32,.32,.32,.64,.72,.88,1.36,.48,.24,.32-.4,.32-.56,.32-.32,.56-.08,.64,.08,.56,.08,.56,.16,1.6,.24,1.36,.48,1.36,.72,1.28,.96,.88,.8,1.04,.88,1.04,.32,.88-.88,1.2-1.6,2.24-3.13,1.12-1.52,.88-1.28,.88-1.28,.88-1.12,1.12-.96,.88-.32,1.04-.16,.96-.08h2.24l.56,.16,.64,.24,3.93,1.68,4.01,1.68h0Z"/></svg>