<svg xmlns="http://www.w3.org/2000/svg" viewBox="0 0 128 128"><defs><style>.cls-1{fill:#b25fac;stroke:#fff;stroke-linecap:round;stroke-linejoin:round;stroke-width:1.37px;}</style></defs><g id="estados"><path id="QROO" class="cls-1" d="M84.51,109.69h-.18c.41-.72,1.18-1.39,1.21-2.34.1-.78.07-2.32.85-2.81l-.57,1c.55,1.43-.47,3-1.31,4.12Zm3.66-7.77-.38.66a14.77,14.77,0,0,0-.19-3.37l.38.37A15.49,15.49,0,0,1,88.17,101.92Zm15.54-61.24a35.87,35.87,0,0,1-5.36,7.45l-.54,1.38A20.46,20.46,0,0,1,95,51.05a9.08,9.08,0,0,1-.17-8.14c.7-.52,2.67-1.67,3.3-2.23a2.35,2.35,0,0,1,.89.2c1.2-.49,3.26-.15,4.47-.5,0-.07.26-.54.22-.61h.23a.87.87,0,0,1,.22.31,3,3,0,0,0-.45.6Zm1-20.51.75,1.4A4.71,4.71,0,0,1,104,19.23l.28-.47A3.22,3.22,0,0,0,104.72,20.17Zm-1.86-7.72-.17.38a2.87,2.87,0,0,1-.2-1.69A6.18,6.18,0,0,1,102.86,12.45ZM33,122.63c-1.14-3.16,2.74-5,3.28-7.77.29-2.93-1.11-6.2-.28-9a4.86,4.86,0,0,0-.94-.47,2.8,2.8,0,0,1,.56-.94,4.54,4.54,0,0,0-1.31-3c-.57-2.6,1.22-7.69.56-10.3,2.86-1.76,1.39-5.23,2.06-8C35.65,77.09,28.31,74.36,25,69.64a7.65,7.65,0,0,0,1.41-5.34c1.07-.38,3.78-.31,5-.66,1.66-2.24,4.89-3.09,7.58-2.9,1-.23,2.35-1.91,3.09-2.53a8.5,8.5,0,0,1,1.41,1l.28-.46-.19-.66c2.09-2.6,7-4,10.11-5.24,1.28-1,1.64-3.4,2.9-4.22l1,.1a3.9,3.9,0,0,1,.85,1.59l.65.09a4.93,4.93,0,0,0-.28-2.52c.58-1.42,1.53-3.6,3.28-3.66a5.8,5.8,0,0,0,1.59.94c5.6,0,8.23-4.34,12.73-6.93,1.7-2.91,2.45-6.79,4.12-9.73.46-1.95-1.82-4.24-1.4-6.09a6.4,6.4,0,0,1,1.59-3.65c.16-.67.15-7.14.2-8l7.29,1.26.51-1L86,10.43l.46-.62-.09-.19c-.61.14-1.14,1-1.78,1v.19l.19.09-.29.1-.28-.1a1.41,1.41,0,0,1-.09-.65c1-1,1.81-1.67,3.28-1.12l0-.28c2.64-3,7-1.67,9.65.63,1.45,1,2.63,3.38,4.36,4a31.65,31.65,0,0,1,1.12,8.71L104,22c-.39,1.3-1.72,2.68-1.22,4h-.28c-.79.39-1.27.67-1.12,1.68-.16,1.21-1.06,2.89-1.31,4-1.92,2.8-4.48,6.67-7.31,8.52-1.79,1.13-6.52,7-7.11,9.17l-.47.1a.73.73,0,0,0-.19.56l.19.19c-2.22,1.61-2.91,6.29-2.62,8.89.59,1.34,1.52,2.84.65,4.31h-.28c-.38.29-.44,1.61-.75,2,0-.39-.1-1.44.1-1.78.27.07.52-.18.75-.28.3-.41.19-1.47.28-2-.6-.29-.67-1-.84-1.5l-.19-.09-.19.09a.69.69,0,0,0-.09.47c.57.44.53,1.61.37,2.24a2.75,2.75,0,0,1,.56-.46c-.53.65-1.36,2.57-2.24,2.71a2.6,2.6,0,0,0-.57-.47l-.18.1a34.05,34.05,0,0,0-3.28,5.71l-.37-.1A1.13,1.13,0,0,0,77,69l-1.45,1.88c1.59.36,5.93,1,7.35,1.58l-.37.19v.28l.84-.18a1.81,1.81,0,0,0,.38-1.22l-.38-.09a.71.71,0,0,1,.19.56,4.28,4.28,0,0,1-2.81-.38,18.66,18.66,0,0,1,2.43.28.7.7,0,0,0-.09-.47,2.69,2.69,0,0,0,.28-1.31A13.67,13.67,0,0,1,84.2,72c-.8,1-.28,3-1.4,3.84-2.2,1.84-5.48,2.52-6.11,3.48a35.24,35.24,0,0,0,4.82,0l-.4,1.76c.42-.21.62-.82,1-1h.57v.19c-2,.74-1.91,3.35-2.81,4.86l.28.75c-1.83,3.25-2.34,7.87-3.37,11.43a36.64,36.64,0,0,0-3,10.57c-1.06,2.24-2.91,4.49-2.43,7.21h-.19a3.76,3.76,0,0,0-.19-1.49l-.47.56-.37-.1-.09-.46a1,1,0,0,0,.46-.57c-.28-2-4.58-5.19-6.07-6.36-2.64-2.33.29-6.84.35-9.81l-1-.68c-.38.73-.14,2-.93,2.44l-.28-.19-.47.84.28.19a.88.88,0,0,1-.66.47c-1,2-2.27,4.05-3.27,6A2.77,2.77,0,0,1,58,106l-.09.1v.09c-1.58,0-3.69.48-5.26.47-.75.73-2.21,2-2,3.18-.16.9-1.31,1.73-1.68,2.53-.06,2.24-1.16,2.13-2.62,3.28.6,1-1.21,2.25-.85,3.46-.37.73-1.31.88-1.68,1.59-.06,1.31-1.44,2.19-2.34,2.9l-.1.75a.8.8,0,0,1-.46.28,8.08,8.08,0,0,0-2.63-.46C36.89,123.45,34.46,121.17,33,122.63Zm43.1-42.15.19-.56h.18a3.2,3.2,0,0,1-.37.56Z"/></g></svg>