<?xml version="1.0" encoding="UTF-8"?><svg id="estados" xmlns="http://www.w3.org/2000/svg" viewBox="0 0 128 128"><defs><style>.cls-1{fill:#3bb1e6;stroke:#fff;stroke-linecap:round;stroke-linejoin:round;stroke-width:1.37px;}</style></defs><path id="NAY" class="cls-1" d="M21.78,88.84l.14,.14,.14,.14v.96l-.14,.82-.41-.14-.41,.14-.96-.41-.41-.69,.82-.96,.82,.14,.41-.14h0Zm-8.93-7.42l.55,.27,.96,.27h1.24l.14,.55,.41,.27v.41l-.82,.41-.14,.69-.14,.55-.69-.14-1.1-.55h-.69l-.69-.55-.82-.14-.55-.82,.82-.69,.55-.55,.55,.14,.41-.14h0Zm-8.79-9.48l.82,.41,.96-.14,.55,.41,1.65,.69,.69,.55-.27,.96,.55,.55,.27,.41,.27,.27,.41,.27-.41,.27-.14,.41,.14,.41,.14,.41-.41,.14v.27l-.55,.55v.41l-.14-.14h-.27v-.14l.14-.41-.27-.27h-.27l-1.65-.69-1.79-1.1,.14-.41v-.27l-.27-.55-.27-.55-.69-.96,.27-.14v-.96l-.41-.41,.82-.27h0Zm-.96-3.71v.41l.27,.14v.55l-.27,.27,.27,.41-.96,.55-.41-.96,.14-.55,.27-.69,.27,.14,.41-.27h0Zm101.77-25.27l-.14,.55-.14,.69-.55,1.24-1.1,3.16-1.1,3.02-.55,1.37-.14,.82,.14,.82,.96,.82,1.79,1.51,1.65,1.65,1.65,1.51,1.65,1.65,1.37,1.51,1.24,1.51,1.24,1.51,1.24,1.65-.14,.55-.55,1.37-.55,1.37-.27,.82-.41,1.51-.14,.82-.14,.69-.41,1.51-.55,1.37-.69,1.1-.96,1.24,2.88,1.65,2.75,1.79,2.88,1.65,2.61,1.37,.41,.14-.55,.55-.27,.82v1.92l-.27,.82-.55,.82-2.47,2.33-.82,.55-1.1,.14h-3.3l-1.65,.27h-.14l-.96,1.37v.82l.41,1.1,.14,.82,.14,.96,.14,1.79v.69l-.14,2.06-.27,.96-.82,1.65-.55,.82-.69,1.37-.41,1.24-.41,1.37-.14,1.51v2.2l.14,1.1-.14,.27v.41l-.14,.27-.82-.55-1.1-.55-.96-.55-.55-.69-.55-.96-.82-.69-.96-.55-.96-.55-.96-.55-.55-.69-.55-.82-.55-.82-.96-1.24-.82-.55-1.1-.14h-1.24l-.96-.14-.82-.41-.69-.69-.69-.69-.41-.41-1.1-.96-.55-.55-.41-.27-.55-.14-.82-.27h-.41l-.41-.14-.41,.14h-.41l-1.79,1.24-1.79,1.65-1.92,1.24-2.2,.27-.82-.14h-.41l-.41,.14-.41,.27-.27,.14-.14-.14-.27-.14v-.41l-.27-.27h-.55l-1.65,.82-1.37,1.24-1.1,1.51-.96,1.65-.96,1.51-1.1,1.37-1.1,1.37-.82,1.51-.55,.41-.55,.27-.82-2.06-1.37-1.24-.82-.41-.27,.41-.82,.69-.96,.27-1.37-.69-1.65-.14-1.51-.82-.82,.69-.55-.55,.41-.55,.55-.55,.41,.14,.41,.14,.82-.55,.41-1.1,.41-.69,.27-.96,.27-.55,.27-.27,.27,.14,.69-.82,.96-1.92,1.37-1.1,.55-.14,.27-.69,.82-.69,.69-1.51,.27-.55,.55-.14,.27,.27,.96,.14,.82-.82,.69-.82,.14-1.37v-1.24l-.27-.69,.41-1.1-.14-1.24,.69-1.1-.41-3.71-.82-2.61,.55-2.2,.55-.82,.69-1.37,.82-.41-.14-.41-.41-.96-.14-.82-.27-.69-.41-.55-.55-.27-.69-.14-.27,.55-.55,.14-.69-.69-1.79-.82-3.02-2.06-.96-.55-1.51-1.37-.69-1.92-3.71-7.42-3.57-5.91-.69-1.65-.41-2.61,.41-6.59-.27-3.16-1.24-4.26-.96-3.43-.69-2.47-.55-1.37,.41-.27,1.24,2.06,.69,.69,.69-.55,.14-.82-.27-.96-.41-1.65,.82-.14,.96-.27,.96-.27,.96,.27,.69,.41,.55,.55,.69,.55,.55,.55,1.51,.41,1.37-.14,1.1-.96v-1.65l-.27-1.1-.27-1.24-.41-1.24-.41-1.1-.14-.14-.55-.14-.14-.14v-.27l.27-.69v-.27l-.41-.27-.55-.14-.41-.27-.27-.41-.27-.69-.27-.41-.27-.27-.82-.55-.27-.27-.27-.27-.14-.41,.27-.96,.69-1.1,.82-.82,.69-.82,.69-.55,.82-.69,.82-.69,.69-.55,.27-.69v-.41l-.69-.96-.27-.82-.27-.55,.14-.55,.27-.96,.55-.82,.69-.41,.96-.14,1.1,.14,2.2-.14,2.33-.14h2.33l2.2,.27,2.06,.69,2.06,1.1,2.06,1.1,1.92,.96,.96,.55,.55,.55,.41,.55,.41,.96,2.06,4.94-.41,.55-.96,.96-1.65,1.65-.82,.82-.41,.69-.27,.69-.14,1.24-.27,2.61v1.51l.27,.82,1.1,.14,1.24-.69,1.24-.96,.82-.82,2.61-1.92,2.61-1.92,.96,.14,1.37,.69,1.37,.96,.96,.55,.27,.41,.27,.55,.14,.69,.55,2.2,.41,1.51,.69,1.37,1.1,1.1,2.33,1.51,1.24,.55,1.24-.14,1.51-.69,3.16-1.24,1.51-.69,.41,3.57,.27,1.92,.27,1.79h0Z"/></svg>