<?xml version="1.0" encoding="UTF-8"?><svg id="estados" xmlns="http://www.w3.org/2000/svg" viewBox="0 0 128 128"><defs><style>.cls-1{fill:#3bb1e6;stroke:#fff;stroke-linecap:round;stroke-linejoin:round;stroke-width:1.37px;}</style></defs><path id="SIN" class="cls-1" d="M32.41,45.59l1.27,.45,.3,.15,.45,.67,.3,.22-.45,.3-.75-.37-.82-.52-.67-.3h-.15l-.22-.07-.15-.07h-1.72l-.3-.15-.15-.37h2.69l.37,.07h0Zm46.15-5.32l-.82,.82-.37,.45-.22,.52-.3,.52-.37,.45-.45,.37-.45,.52-.45,.9-.3,1.2-.22,1.2-.15,1.12-.22,1.2-.15,1.27v1.2l.22,1.2,.37,1.12,.3,1.12,.3,1.12,.45,1.05,.15,.45,.15,.52,.15,.52,.3,.37,.3,.22,.82,.22,.37,.22,.15,.3,.07,.3v.75l.22,.45,.22,.22,.37,.15,.45,.07h.67l.37,.07,.3,.22,.22,.45,.22,.45,.3,.37,.45,.22,.82,.52,.45,.82,.3,.97,.52,.9,.6,.52,.3,.3,.15,.45,.15,.37,.15,.3,.3,.6,.22,.45,.15,.45,.07,.45,.07,.52v.82l.07,.37,.22,.37,.82,.82,.45,.37,.37,.37,.45,.37,.37,.15h1.64l.37-.07,.37-.15,.3-.3,.3-.37,.22-.37,.3-.37,.75-.6,.9-.45,.82-.15,.97,.15,.3,.15,.22,.15,.3,.15,.22,.22,.6,.52,1.72,1.57,.45,.6,.3,.75,.3,.82,.22,.67,.52,1.35,.3,.67,.37,.6,.45,.45,.45,.07,.6-.07,.52-.22-.22,.82-.3,.82-.37,.75-.37,.82-.15,.97,.07,1.05,.15,1.05,.15,.97,.22,1.79,.15,.45,.22,.37,.22,.45,.22,.45,.07,.52,.15,.67,.22,.52,.45,.37,.3,.15,.37,.07,.37,.07,.37,.07,.15,.6,.37,.52,.37,.52,.3,.6-.07,.22-.07,.22-.07,.22,.37,.37,.07,.22v.3l-.07,.22-.15,.45,.15,.22,.22,.3,.15,.3,.07,.3v.9l.22,.37,.37,.22,.37,.22,.3,.3,.15,.22,.07,.22,.07,.22,.22,.15,.3,.3,.45,.37,.37,.45,.37,.37,.82,.45,.9,.07,1.05-.07,.9-.07,.15,2.99-.6-.07-.52,.07-.37,.22-.3,.45-.15,.52-.07,.3,.15,.3,.15,.45,.37,.52v.22l-.15,.37-.37,.3-.45,.37-.45,.37-.37,.3-.37,.45-.45,.45-.37,.6-.15,.52,.07,.22,.15,.15,.15,.15,.45,.3,.15,.15,.15,.22,.15,.37,.15,.22,.22,.15,.3,.07,.22,.15v.15l-.15,.37v.15l.07,.07,.3,.07,.07,.07,.22,.6,.22,.67,.15,.67,.15,.6v.9l-.6,.52-.75,.07-.82-.22-.3-.3-.37-.3-.3-.3-.37-.22-.52-.15-.52,.15-.52,.15-.45,.07,.22,.9,.15,.52-.07,.45-.37,.3-.37-.37-.67-1.12,.15-.15-.15-.37-.22-.3-.22-.15-.22,.3h-.15l-2.92-4.56-1.05-1.35-.37-.37-.97-.67-.15-.15-.07-.07-.07-.07-.15-.07-.45-.45-.22,.22-4.64-5.83-.45-.15-.22-.15-.45-.37-2.24-2.54-.37-.22-.3,.07-.22,.15-.22,.07-.3-.07v-1.2l-.07-.37-.82-1.27-.45-.3v-.22l.3-.22-.07-.15-.07-.15-.07-.15-1.57-2.09-.45-.3-.97-.9-.07-.15-.15-.15-.22-.6-.22-.3-.6-.3-.37-.45-.52-.82-.67-.75-.45-.3-.97-.37-.22-.52-.22-1.2-.37-.52-.37-.45-.37-.45-.3-1.12-5.76-5.98-2.06-1.58-2.58-1.94-1.5-1.05-.3-.3-1.27-1.35-.9-.6-1.42-1.42-5.46-3.36-.45-.45-.15-.45,.07-.3-.22-.15-.67-.15-1.79-1.12-2.02-1.79-.22-.37-.07-.37-.15-.97-.07-.45-.22-.45-.3-.37-.22-.15-.15-.07-.07-.22-.67-1.12-.9-.52-.67-1.05-1.87-3.74-.6-.75-.82-.75-.45-.22-.22-.15-.15-.3h.52l.52,.07-.52-1.27-.6-.07-.45-.22-.82,.15-.3,.45-.07-.22,.15-1.2v-.37l-.22-.52-3.51-1.94-1.42-.9-.97-.3-.97-.07h-.82l.52-.45-.75-.22-.6,.07-2.75-.77-3.53-1.48-.75-.52-1.2-1.27,.52-.3-.9-.97-.3-.3-2.62-2.24,.07,.3,.15,.3,.22,.22,1.57,1.35,.37,.6-.07,.45-.52-.45-.52-.75-.6-.67-.82-.22h-2.62l-.9-.22,.52-.37,.67-.22h.75l.67,.3-.07-.45,.07-.45,.07-.15-1.94-1.64-.22,.15-.15,.3v1.5l-.07,.22-.3-.37,.15-.52v-.6l-.07-.6-.15-.3-.52-.15-.07-.45,.07-.6,.22-.97,.15-.22h.07v-.52l-.07-.37-.07-.3-.15-.37-.15-.6-.07-.45,.07-1.2,.07-.37,.82-1.5,.9-.97,.45-.52,.3-1.05,.82-1.64,.22-.07-.07,.37v.52l-.07,.3-.07,.3-.07,.3,.15,.22,.22,.07,.22-.22,.07-.3,.15-.82,.75-1.35,.15-.07,.9-.6,.45-.3,.22-.22v.37l-.15,.45-.3,.22v.15l.45,.22,1.12,.97,.37,.07v-.3l-.3-.6-.07-.37,.22-.15,.22-.07,.15-.15-.07-.37-.67,.07-.52-1.12,.22-.45,.6-.52,2.39-1.79,2.32-1.87,2.32-1.87,2.32-1.94,2.32-2.02,2.39-1.94,.15-.37v-1.72l.15-.67,.22-.67,.22-.6,.22-.67,.6-.6,.52-.6,.52-.67,.52-.75,.3,.52,.52,.22,.6-.07,.52-.07,.52,.15,.37,.22,.22,.45,.3,.45,.75,.97,1.2,.52,1.27,.3,1.12,.22,.6,.3,.15,.6v1.35l.37,.82,.52,.82,.52,.75,.52,.75,.45,.6,.97,.97,.45,.6,.45,1.2,.15,1.57,.15,1.57,.15,1.42,.3,2.39,.3,2.39,.07,.75,.22,.37,.45,.22,.75,.15,.97,.15,1.57,.37,4.78,1.05,.67,.15,.6,.45,.37,.6,.22,.75,.07,.45,.07,.37,.07,.45,.15,.37,.07,.37,.07,.3,.22,.22,.3,.07,.22,.15,.22,.3,.07,.37,.07,.3,.07,.37v.37l.07,.37,.15,.15,.52,.15,.67,.37,.6,.37,.6,.45,.6,.52,.37,.52,.45,.6,.37,.52,.45,.45,.75,.37,.75,.45,.67,.45,.67,.6h0Z"/></svg>