<?xml version="1.0" encoding="UTF-8"?><svg id="estados" xmlns="http://www.w3.org/2000/svg" viewBox="0 0 128 128"><defs><style>.cls-1{fill:#3bb1e6;stroke:#fff;stroke-linecap:round;stroke-linejoin:round;stroke-width:1.37px;}</style></defs><path id="SLP" class="cls-1" d="M72.53,51.2c-.14,1.22-.86,2.98-1,4.2,.55-.58,1.39-1.32,2.1-1.7l.5,.1c.12,.56,.07,1.34,.2,1.9,.67,1.71,3.42,2.65,2.8,4.8-.23,1-1.17,1.68-2.1,2-.69,.07-1.46,.58-1.9,1.1l-.1,.4c.19,.41,.51,.95,.8,1.3,.11,.4,.25,.98,.3,1.4,.35,.39,1.01,.57,1.5,.7,1.92,.91,4.23,1.8,6.2,2.6,2.26,.92,4.72,2.07,7.1,2.6l.3-.3c.11-1.17-.45-2.4-.7-3.5l.3-.1c1.55,.53,2.05,2.51,3.4,3.3,.73-.11,1.24-1.15,1.6-1.7,.82,1.33,1.93,3.13,2.5,4.6,.62,1.25,1.04,2.81,2.3,3.6,.94,.33,2.14,.33,3.1,.6,.93,.2,2.08,.57,3,.8,1.28,.44,2.71,1.23,4.1,1.2,.9,.16,1.99,.46,2.9,.2,.35-.31,.72-.83,1-1.2,.92-.65,2.4-.26,3.4-.8l.5-.7c1.55,.97,3.15,1.95,4.5,3.2,1.64,.97,3.83,1.93,5,3.5,1.05,3.27-2.42,6-3,9l-.2,.1-.3-.3-.3,.4c-.31,.04-.7-.14-1-.2-.33-.07-.72,.15-1,.3-.31-.03-1.32-.24-1.6-.3l.1,1c.57,.06,1.34-.25,1.9-.3v.3c-.23,.13-.57,.47-.7,.7l.2,.7-.7,.2c-.01,.68,.5,1.47,1,1.9l1.3-.2c.25,.32,.21,.82,.2,1.2,.19,.05,.62,.22,.8,.3,.31,.74-.31,1.51-.9,1.9-.08,.05-.87,.53-.9,.6-.03,.09-.1,.35-.2,.4-.22-.09-.55-.34-.8-.3-.14,.08-.4,.27-.5,.4v.3l.3,.2-.5,.5-1.2-.2-.5,.4c-.15,.59,0,1.41,0,2-.11,.11-.47,.44-.5,.6,.27,1.29,1.86,1.89,2.9,2.4,.76,.4,1,1.41,1,2.2-.02,.79,.16,1.71,.1,2.5-.73,.35-1.84,.34-2.4,1,.08,1.72,.34,3.71-.1,5.4l-.3-.2c-.41-.08-.75,.2-1,.5-.63,.08-1.12-.14-1.7-.3-.76,.01-1.7,.44-2.4,.7-.67,.49-1.69,.73-2.4,.2-.56-.44-1.54-.52-2-1.1-.36-.5-.37-1.33-.6-1.9-.19-.15-.31-.45-.5-.6-.8-.29-1.93-.27-2.7,.1l-.6,.7c-.47-.61-1.35-.86-2.1-.8,.1-.71,.43-2.37,.4-3.1-1.54-2.6-2.21-6.03-3.1-8.9l-.1,.7c-.37,.68-1.35,.9-1.8,1.5v1.1c-.51,.6-1.03,.78-1.7,.3-.78,.03-.75,.94-.8,1.5-.63,.54-.81,1.52-1.4,2.1-.37,.17-.84-.01-1.2-.1-.43,.13-1.01,.17-1.4,.4l-.4,.6c-.92,.29-2.3-.27-3,.5-.79-.07-1.05-1-1.8-1.2-.06-.39-.33-.85-.5-1.2-.15-.19-.45-.31-.6-.5-.47-.54-1.15-1.01-1.8-1.3l-.9,.3c-.54,.82-.92,2.1-1.3,3-.85-.38-1.87-1.14-2.8-1.3-.62,.02-1.88-.03-2.5-.1-1.25-.79-2.45-2.41-3.7-3.2-.74-.4-2.53-.89-3.4-1.2-.5-.14-1.41-.38-1.9-.5-.54-.36-1.27-.71-1.9-.9-.79-.39-1.61-.95-2.5-1.1-.26-.34-.65-.58-1.1-.5-.3,.22-.77,.39-1,.7-.38,.59-.75,1.31-.9,2-.34,.89-.22,2.06-.7,2.9-1.01,.97-2.73,.65-4,.7-1.38-.92-2.7-2.4-4.1-3.3-2.17-1.64-4.43-3.64-6.4-5.5-1.61-.61-3.49-.88-5.2-.6-1.62,.44-3.75,1.04-4.8-.7-.2-.43-.38-1.04-.2-1.5,.03-.36-.36-.87-.6-1.1-2.06-.9-3.58,1.85-5.6,1.5l-1.2-.7c1.85-2.48,4.35-5.75,6.1-8.3,.23-1.02-.27-3.63-.3-4.7-.26-1.32-1.1-3.29-1.4-4.6-.16-.94,.39-1.83,1.1-2.4,.49-.23,1.16-.57,1.5-1,.05-.5-.71-2.13-.9-2.6-.33-.74-.62-1.89-1.3-2.4-.98-.18-2.21-.07-3.2-.1-1.13-.03-2.73-.04-3.6,.8-.5,.87-.84,2.22-1.5,3-.46,.11-1.24,.25-1.7,.2-.55,.16-1.22,.8-1.7,1.1-3.74,1.68-4.89-5.94-7.9-7.1-.36,.03-.83-.05-1.1-.3-.03-.18-1.44-1.45-1.6-1.6-1.23-1.05-2.75-2.6-3.4-4.1-.58-1.62-1.43-3.27-2.2-4.8-.41-1.19,.75-2.2,.9-3.3-.19-1.18-.61-2.64-.9-3.8-.35-.56-1.06-.92-1.5-1.4-.06-.37,.07-1,.3-1.3l.5-.1c.24,.14,.72,.25,1,.2,1.2-1.19,.62-3.5,1.7-4.8,.66,.03,1.49-.29,2,.3-.09,.44-.24,1.04-.2,1.5l.6,.3c2.18-.4,4.07-2.2,5.5-3.8,1.32-1.79,2.51-4.08,4.6-5.1,.44-.26,1.12-.18,1.6-.3,.97-.32,.97-1.59,1.5-2.3,1.19-1.43,3.21-2.33,4.8-3.2,1.97-1.17,3.99-2.99,5.4-4.8,.61-.9,1.46-1.92,2.4-2.5,.64-.2,1.59-.2,2.1-.7,1.53-2.73,3.44-6.23,5.1-8.9,1.44-2.69,3.1-6.03,6.2-7.1,.6-.91,1.02-2.36,1.3-3.4,1.62,1.75,3.04,4.22,4.5,6.1,.57,.92,1.65,1.69,2.1,2.7,1.03,4.24-.44,8.98,1.2,13.1,.76,1.2,2.06,2.66,2.9,3.8,.51,1.77,.14,3.74-.2,5.5,.21,1.66,.79,3.49,1.2,5.1,.32,1.09-.68,2.18-.5,3.3,.28,.63,.58,1.39,.5,2.1,.05,1.64-.29,3.83,1.1,5,.71,.38,1.83,.5,2.6,.7l.3-.1c.21-.55,.06-1.52,.1-2.1,2.67,0,5.86-.1,8.5,.4Z"/></svg>