<svg xmlns="http://www.w3.org/2000/svg" viewBox="0 0 128 128"><defs><style>.cls-1{fill:#b25fac;stroke:#fff;stroke-linecap:round;stroke-linejoin:round;stroke-width:1.37px;}</style></defs><g id="estados"><path id="COL" class="cls-1" d="M121.88,82.55l-1.31-.33-.66,1-.33,1-.33,1.32-.66.33h-1.32l-.33.33-.33.33.33,1.32v.33l-.66.33-1.32.66-1.32.66-1,.66-1.31,1-.66.33-1-.33-1.32-.65-.33.32-.33.33-.33.66v.66l.33,1v1l-.66,1.32-.33,1.65V99l-.33,1.32-1.32,1.31-1.32.66h-1.32l-1.64.66-1,1-.66,1.32-.33,1.32-.33,1.65-.66,1.65-1,1.31-2.31,1.65-5.6-5.6L72.43,95.41l-2.63-3-11.54-5.6-9.56-5-6.27-2.3-5.6-2-2-.66-1.65-.66.33-3.3,2.31-.33.66-1-.66-2-2.31-2H32.21l-1,1-.66-.33.33-2-1.65-.66-1.65.33-1,.66.33,1.65-.66.33-1-1-1-.66-1,1.65L22,69.7l-1.31-2.31-3.63-1.65-2-1.32-9.23-2,.33-2.63,1-1.32,1.65-1.32,1.65-1.65,1-2.64.33-1.32,1.31-.66,2.64.33.66.66,1,1,.66.66,1-.33.33-1v-2.3l.66-.66,1-.33.66-.66,1-.33L24,47l.66.33,1,1,1,.66h1l1.32-.33,1.65-.33,1-.33,1.31-.33h1l1-.33,1-.66,1.65-1.32L39.14,44l2-.33H45.4l1-1.32.66-2,.66-2.31L49,36.73l1.32-1,1.31-.66.66-2.31.33-2.63,1-1.65L55,26.84l3-3.3,4-3.95.33,1.31.33,1.32v.66l-.33.66,2.64,1.65,3,1.32,2.64,1.65,2.63,1.65,1.65,1,2,1,2.31,1,1.65.66,2.3,1,2,.66,1.65-.33,1.65-2.31,1.32-.66h4.61l2.64-1.64,2.31-2.64,2.3-2.64,2.64-1.32,1.32,1.65,1,2.31L108,32.11l1,1.65,2,1.32,1.64,1,1.32,2,.33,1.32.66,1,.66,1,1,1,1,.33,1,.66,1.32.66.66.66L120.24,46l-.33,1-.66,1-.33,1.32v2l.33,2,.33,2.31.33,1.65-.66,3.29-1.32,4.29-1,4,.33,2.63,2,2.64,1,2.64,1,3,.66,3Z"/></g></svg>