<svg xmlns="http://www.w3.org/2000/svg" viewBox="0 0 128 128"><defs><style>.cls-1{fill:#b25fac;stroke:#fff;stroke-linecap:round;stroke-linejoin:round;stroke-width:1.35px;}</style></defs><g id="estados"><path id="TAMPS" class="cls-1" d="M85.63,117.18l-.62.27.14-.27.34-.33.14-.2.41-1,.2-.27.07.47-.27.74-.41.6Zm.75,9.64a5.44,5.44,0,0,1-1.16.74.75.75,0,0,1-.62.54c-.26-.53-1-.88-1.09-1.48.14-.11-1-1.72-1.91-1.6a3.82,3.82,0,0,0-1.57-.41,5,5,0,0,1-2.18-2.34c-.61-.38-1,.34-1.64.34-.21-.13-.56,1.86-2,1.13a4.26,4.26,0,0,0-1.16-.06c-.27-.06-1.44-.7-1.57-.47a26.9,26.9,0,0,0-3,.33,8,8,0,0,1-.89-.53c-.45,1-1.89.46-2.66,1-.52,1-1.26,1-2.25.74a6.74,6.74,0,0,1-2.46-.6c-.65-.28-1.52-.44-2.18-.67-1-.36-2.35-.13-3.15-.87a7.71,7.71,0,0,1-1.16-2.08,21,21,0,0,0-1.7-3.08c-.25.37-.6,1.06-1.1,1.14-.77-.43-1.12-1.45-1.84-1.94-.18-.15-.45-.36-.68-.21.08.72.86,2,.27,2.55-3.4-.92-6.69-2.55-10-3.82-.23-.15-.17-.58-.27-.8s-.35-.6-.48-.87c-.41-.5.33-.89.68-1.14a3.38,3.38,0,0,0,1.51-.67c1.41-1.5-.26-2.55-1.23-3.62-.35-.46-.24-1.14-.35-1.67-.67-.2-1.3.69-1.77,1.07.25-1.26.77-2.79.89-4.08-.25-.67-1.15-1-1.71-1.34,2.13-2.26,2.21-1,4.71-.47-.26-1.11-.8-2.65-1-3.75.59-1.09,1-2.33,1.63-3.42.65-2.22,2.44-1.12,4.1-1.67.7-.18,1.79.21,2.19-.54a24.77,24.77,0,0,1,2-2.61,3.35,3.35,0,0,0,.88.13,2.56,2.56,0,0,0-1.29-2.47A6.58,6.58,0,0,1,47.05,85a11.43,11.43,0,0,1,.75-5.83,22.53,22.53,0,0,0-.68-3.88l-2.25.93c-.54-1.75-1.1-2,.54-3.28.46-.43,2.44-1.08,2.6-.73.18,0,.84-.53,1.09-.54.57-.17.3-1,.48-1.41A3.7,3.7,0,0,1,52,69.1a1.93,1.93,0,0,0,1.64-.94c.27-.31,2.32.88,3,1.07a2,2,0,0,0-.41-1.34c-.7-1.14.45-1.75.89-2.68-.27-.47-.85-.86-1-1.4a1.2,1.2,0,0,1,1-.14c-.07-.27-.33-.7-.07-.93a1.91,1.91,0,0,0,.82.13c.18-.31,1.14-1.66,1.57-1.67.88,1.56,1.61,1.19,3.14.8,1.7-1.32,3.86-3.17,5.53-4.55.74-.62,2.61-2.18,3.35-2.75.73-.28.77-1,.54-1.67-.64-.34-1.61.16-2.25-.2a6.54,6.54,0,0,1,0-2.68V43.79c.08-2.73.53-3.17-2.46-3.75s-3.23-2.26-4.71,1.2c-.76-.59-1.49-1.48-2.18-2.14-.38-.61-2.25-.38-2.39-.4-.32-.05-.48.37-.69.53-.73-.79-.54-5.38-1.29-5.49a7.42,7.42,0,0,1-3-2.48c-.43.08-.86.63-1.3.74a2.36,2.36,0,0,1-.61-2.34,11.28,11.28,0,0,0,.61-1.14c.7-1.6-.27-3-1.91-3.35-.53-.16-1.13-.54-1.64-.74-.65,0-1.39.11-2,.07a7.34,7.34,0,0,0,1-1.81c0-.7.62-1.29,1-1.81-.3,0-2.76-1.51-3-1.47-1.2-.86-.5-2.69-.14-3.82.19-.75.92-1.85.55-2.61a1.69,1.69,0,0,1-.75-1.27c-.16-1.1-.35-2.71-.48-3.82-.31-2.8-1.18-2.38-3.55-2.81a2.54,2.54,0,0,1-.14-1.68,25.92,25.92,0,0,1,4.3-2.34c.07.06.91,1.42,2.12.6.39-.22,2.09,1,2.26,1.68,0,0-.17,1.75.06,1.87.25,0,.59,0,.62.34a8.82,8.82,0,0,1-1,4,10.08,10.08,0,0,1,1.71,1.6c.51.92-.21,2-.27,2.88.13.16.31.39.27.6s-.51.92-.55,1.21c0,.79.9.84,1.44,1.14a2,2,0,0,1-.34.8c.11.3.81.62,1.09.74a4.25,4.25,0,0,1,.48,1.87c0,.39-1.57,1.05-1.51,1.41,0,0,1.79.42,1.85-.07s.47-.81.82-1.07c.28.15.87,4.08,1,4.82-.24-.08-.5-.35-.75-.4-.4.4,1.61,2.11,2.25,2.14a16.23,16.23,0,0,1,1.78,2.28c-.31.63-.72,1,.07,1.47a23,23,0,0,0,3.34.34,6.45,6.45,0,0,0,1.91.67,5,5,0,0,1,.89-.2,9.8,9.8,0,0,0,3.42,3.08c.55-.2,3.35.2,3.61.8l.35-.4c.61.13,1.27.69,1.91.74a1.5,1.5,0,0,0-.21.73,2.51,2.51,0,0,0,.82.07,6.37,6.37,0,0,1,.62.94c.82.67,4.63,1,4.91,1.14,0,0,1.26.12,1.78.2,1.43.32,3.3-.28,4.71.13v.34c1.35.25,3.23-.15,3.82,1.47.07.3,2.3,2.27,3.35,2.08.27.39,1.4.78,1.43.93.18.3.6-1,.55-1.4a4.71,4.71,0,0,1,.61-.47.82.82,0,0,0,1.3-.67c.72-.1,2,0,2.73-.14l-.61,3.22s0,2.14.07,2.48c-.51,1.11-1.52,4-2,5.22a62.15,62.15,0,0,1-4.24,7.5l-2.11,7.77c-1.75,5-3,14.14-3.48,19.42l-.14,4.69-.21.4c-.22.3-1.62,0-1.91,0v.13c2.16-.36,1.34,1.78,1.37,3H87c.26-.75.07-2.09.41-2.82.51.42-.18,4.91-.2,5.49a47.87,47.87,0,0,0-.55,6.37c.18,1.93.74,7.58.34,9.44V112c-.33,0-.79,2.44-.88,2.68s-1.79,3.44-2,4.15c-.12.36-.15,1,.41.87,1-.25-.15-1.59.75-1.88.39.77-.16,2.32-.34,3.08.12.5,1.38,5.62,1.5,6Zm5.8-72c-1.43,1.4.63,2.37-.82,2.61-.21-.8-.51-.84-1.29-.67-1.49-.09,1.1-1.51-1.16-1.27-1-.55-.34.71-.55,1.2-.56.18-1.61,1.74-2.25,1.34,1.42.89,1.72,3.33,1.7,5.36-.23.83-1.29,1.35.07,1,.08.89,1.76.53,1.91,1.48s-2.66.75-2.32,1.94c0,.43.88,3.65,1.23,3.21.11,1.57-.82,3.66-1.09,5.16-.65-.06-.81-1.87-1.23-1.94a23,23,0,0,1-1.16,2.14c.06,2.93,2.5-.7,2.66.74-.61,1.29-.29,9.23-1.36,7.7-.37.08-.2,1.15.13,1.34.21-.73.18,0,.34.2-.51,1.74.11,3.43.14,5.29.35-.18.69-9.92.82-10.18A134.37,134.37,0,0,1,92.18,61.2c0-2.1,2.23-2.38,1.85-5.16,0-.3.13-.63-.14-.87-.26-.56,1.15-.36.41-1.07-.88.17-2.61-2-2.66-.27C91.83,54.32,92.66,54.22,92.18,54.77Z"/></g></svg>