<?xml version="1.0" encoding="UTF-8"?><svg id="estados" xmlns="http://www.w3.org/2000/svg" viewBox="0 0 128 128"><defs><style>.cls-1{fill:#3bb1e6;stroke:#fff;stroke-linecap:round;stroke-linejoin:round;stroke-width:1.37px;}</style></defs><path id="BC" class="cls-1" d="M89.37,121.97h-.51l-.19-.32-.19,.06-.13-.13,.06-.13,.26-.19,.26,.19,.32,.32,.13,.19h0Zm-30.73-7.25s.4,.05,.51,.06l.06,.13-.32,.19s-.49-.16-.51-.26l.26-.13Zm8.28,5.07c-.24,.45,.07,1.06,0,1.54-.3-.24-1.5-.72-1.6-.96-.43-.67-1.31-.66-1.73,0-.65-1.2,1.74-2.58,2.18-3.72-.54-.96-.74-2.9,.51-3.34,.68,.28,.2,1.26,.83,1.6,.19,.67,.17,3.35,.38,3.85-.08,.14-.75,.76-.58,1.03Zm58.26-6.42l.06,.13-.32-.13-.06-.19,.19-.13,.19,.13-.06,.19Zm-9.56-4.62l-.45-.77-.64-.38-.77-.38-.58-.83,.71,.19,1.09,.77,.83,.77,.26,.32-.45,.32Zm-2.5-2.63v.13l-.19-.06-.26-.13-.19-.06-.06-.13v-.19l.26,.26,.45,.06v.13h0Zm6.86-1.03c.73,.77,.16,1.76-.9,1.48,.12-.31-.33-.91-.19-1.28,.33-.19,.78,.02,1.09-.19h0Zm-9.62-3.66l-.13,.13v.06h-.06l-.06-.06h.06l.06-.06,.06-.13v-.13l.06,.06,.06,.06-.06,.06h0Zm-9.24-3.4v.06c-.08,.01-.54-.34-.38-.58h-.06c.06-.3-.17-.43-.26-.71,.81-.36,.15,.99,.71,1.22Zm-97.01,3.98l.13-.58-.32-1.73-.32-.32-.83-1.99-.26-1.09,.64-1.15,1.67-.38,.06,2.12,.64,1.73-.06,1.28-.06,1.03-1.28,1.09Zm96.88-15.46c1.39,.33,2.33,2.62,3.02,3.53-1.41,1.01,.06,2.34,1.28,2.37,2.25-.48,2.44-.27,2.18,1.03,.48,1.35-.59,3.95,1.54,4.23-.35,.42-.27,1.1-.26,1.6-1.5-1.03-2.77-2.1-3.79-3.72-1-.52-3.6-2.9-3.91-3.27-.27-.87-.83-1.55-1.35-2.31-1.46-.97,.29-2.31-.19-3.59,0,0,1,.06,.96-.19h.26s.26,.32,.26,.32Zm-18.16-9.88h-.19l-.32-.19,.13-.19-.06-.26h.32l.06,.38,.06,.26Zm-2.95-3.08l.13,.06v.13h-.06l-.06-.13-.13-.06h-.06l-.06-.06,.26,.06Zm-31.57-9.17h-.26l-.13-.06v-.13l.13-.13h.13l.13,.19v.13ZM25.34,19.19h-.06l-.06-.26-.06-.19-.06-.06-.06-.26,.13,.06,.06,.13,.06,.19,.06,.19v.19Zm46.64,11.48c0,.38,.32,.46,.22,1.19,.35,2.03,2.3,2.5,3.02,4.48,.1,1.63-5.26,12.31,.75,17.1,1.86,1.48,.52,5.19,1.32,7.37,1.28,3.47,.07,6.37,.53,9.06,.3,1.73,1.83,3.22,1.93,5.28,.05,1.02,2.85,3.94,3.28,4.33,1.69,1.53,1.91,1.48,2.11,1.55,1.82,.67,3.4,2.83,5.07,4.17,2.62,2.36,5.59,3.61,7.06,7.13,.87,2.07,1.84,2.62,2.37,4.49,.27,.98,.92,1.05,.33,1.78,.16,.51-.2,.35,.29,.94,.37,.45,.74,.25,1.11,.68,.93,1.07,1.48-.2,1.86,.13,.38-.04,.2,.68,.38,.77,.63,.44,.66,.97,1.7,1.78,.92,.24,3.54,3.48,3.3,5.77-.07,.66,2.96,1.94,4.25,3.25,.84,.47,1.22,2.14,1.47,3.33,.05,1.15,.18,1.6,.39,2.28,.52,1.7,.42,3.2,1.07,4.44-8.44,0-21.65,.05-30.1,.05,1.28-1.15,1.11-1.76,1.76-3.64,.47-1.39,.18-1.84,.31-3.2,.45-2.46,.94-3.51-.05-4.96-.76-.81-1.07-1.62-2.2-2.57-2.46-2.07-3.17-3.83-5.3-5.72-.72-.64-2.38-2.51-1.86-2.1-2.75-2.2-5.56-6.79-7.21-7.68-2.44-1.02-1.81-1.23-4.54-2.57-4.27-2.65-6.32-3.54-9.6-6.69-1.91-1.84-2.7-3.62-3.41-6.32-1.28-3.91,.29-6.63-1.23-8.23-.94-.71-1.51-.76-2.7-1.13-1.28-.68-1.26-1.15-1.21-3.07,.5-1.94,.54-3.39-.29-5.27-.87-1.44-2.18-3.23-2.96-3.83-.69-.45-2.81-1.76-2.6-2.96,.68-3.33-.47-5.27-2.96-8.13-.79-.82-2.23-1.97-2.86-3.02-.89-1.28-1.1-1.79-1.08-2.67-.26-.89,.8-2.29,.45-3.09-.03-.94-.31-1.6-.42-2.2-.24-1.02-1.08-1.55-1.44-2.28-1.73-2.05-2.25-3.55-3.33-5.11-1.69-2.43-4.96-6.03-4.72-9.75,14.29-1.89,34.7-3.87,49.43-4.51-.21,1.42,.1,1.63-.21,5.22-3.69-.09-6.16,4.51-5.67,5.36,1.05,.49,1.59,3.41,1.79,4.63,.28,1.67,.08,2.85,.39,4.16Z"/></svg>