<?xml version="1.0" encoding="UTF-8"?><svg id="estados" xmlns="http://www.w3.org/2000/svg" viewBox="0 0 128 128"><defs><style>.cls-1{fill:#3bb1e6;stroke:#fff;stroke-linecap:round;stroke-linejoin:round;stroke-width:1.37px;}</style></defs><path id="CHIH" class="cls-1" d="M105.26,80.46c1.59,7.46,3.72,15.78,5.43,23.22-1.48-.6-4.01-1.72-5.48-2.31-.33-.14-.82-.1-1.18-.1-2.28-.15-3.16,.66-4.3,2.51-1.25,1.68-2.59,3.88-4.05,5.38-1.06-.2-1.82-1.36-2.72-1.9-1.11-.68-2.96-1.16-4.25-1.08-.24,.19-.4,.6-.61,.82l-.31-.15c-.27-.46-.78-1.19-1.18-1.54-1.08,.4-2.28,1.39-3.38,1.69-1.02-.6-3.06-1.63-4.05-2.31-.29-.27-.63-.7-.92-.97-.23-.31-.4-.83-.72-1.08-.9,.16-1.98,.31-2.77-.26-.9-.76-1.9-1.6-2.87-2.25-.42,.51-.69,1.27-1.02,1.84-.16-.21-.34-.52-.61-.56l-.26,.1c-.46,.72-.18,1.75-.31,2.56-.22,.3-.69,.51-.92,.82-.18,.75,.75,1.62,.41,2.36-1.02,.69-2.85,.68-3.79,1.49-.33,1.2,.89,2.29,.92,3.48-.02,.7-.22,1.49-.56,2.1-.27,.32-.75,.25-1.13,.26l-.51,.31c-.45,.99-.21,2.72-.36,3.79,0,.28-.21,.54-.41,.72-.8,.72-1.89,1.66-2.61,2.46-.39,.29-.94,.16-1.38,.1-.18-.03-1.88-.24-2.1-.26-.6-.68-1.63-.96-2.25-1.59-.36-.48-.74-1.12-1.23-1.49-.49-.44-1.2-.73-1.74-1.02-.13-.54,.02-1.49-.72-1.59l-.15-.15c-.28-.81-.25-1.8-.77-2.51-.47-.54-3.48-.9-4.15-1.13-.75-.26-1.86-.26-2.56-.61-.42-1.07-.39-2.9-.62-4.05-.2-1.23-.09-2.79-.61-3.95-.94-1.11-2.04-2.27-2.61-3.64,.01-.27,.02-1.08-.1-1.33-1.59-.7-2.9-.23-3.74-2.2-.38-.33-.93-.23-1.38-.15l-.36-.15-.2-.36c-.41,.61-.95,1.29-1.49,1.79-.2-.29-.29-.75-.62-.92-1.19,.71-1.97-1.68-2.56-2.41-.87-.95-.17-1.86,.41-2.72-.04-.5-.29-1.03-.46-1.49-.04-.77,.44-1.61,.1-2.36-.13-.33-.57-.56-.87-.72-.35-.28-.79-.73-1.08-1.08-.02-.33,0-.73,.26-.97-.63-.58-2.24-1.58-2.1-2.61-.34-.6-1.47-.91-1.95-1.38-.68-1.65-1.62-3.9-2.25-5.59,.12-.34,.5-.65,.77-.87,.27-.19,.54-.59,.87-.67,2.14-.54,4.59,.33,6.66,.82,.52-.28,1.15-1.1,1.59-1.49,.06-.53-.28-1.09-.41-1.59-.42-1.1-.93-2.57-1.28-3.69-.09-.77,.38-1.59,.56-2.31-.7-3.65-1.05-8.61-1.54-12.35,.19,0,1.22-.06,1.38-.05l.1-.1c.29-3.32,.62-7.03,.87-10.35-.06-.36,.21-.86,.36-1.18,.03-.9-.14-2.17-.21-3.07-.14-1.63-.31-3.8-.46-5.43,0-.49-.21-1.03-.62-1.33-.21-.15-.63-.5-.82-.67-.44-.26-1.06-.39-1.54-.56-1.21-.69-3.45-2.71-4.46-3.69,.23-3.13,.81-6.54,1.18-9.69h12.15V8.56c6.58-.02,13.47,.03,20.04,.05,1.37,0,4.48,0,5.84,0,.33,.05,1.8-.19,1.95,.31,.47,.09,1.15-.08,1.59,.21,1.07,.81,1.42,2.31,1.9,3.48,.24,.29,.91,.93,.92,1.33-.06,.31,.54,.48,.72,.61,0,0,1.5,.72,2.05,1.08,.83,.05,1.67,.71,1.95,1.49,.13,.05,.38,.19,.46,.31,0,0,1.49,1.53,1.84,1.84,.03,.17,.15,.48,.26,.62,.29,.2,1.35,.83,1.64,.97,.21,.34,.62,.7,.97,.87,.52,.28,.52,1.06,.82,1.49,.32,.06,.79,.63,.97,.87,.64,.43,1.65,1.39,2.1,2,.41,.04,2.37,.84,2.46,.82,.12,.04,1.28,.92,1.28,.92,0,0,1.89,1.3,2.2,1.79,.08,.24,.09,.57,.26,.77,.17,.08,1.55,1.88,1.64,2.1,.05,.03,.28,.55,.2,.67,.02,.22,.19,1.03,.2,1.18,.13,.22,.39,.39,.56,.56,.08,.16,.42,.78,.51,.82,.19,.41,.4,.99,.61,1.38,.48,.13,1.12,1.99,1.13,2.41-.1,.61-.47,1.32-.31,1.95,.03,.1,.35,1.1,.31,1.18-.12,.29,.83,1.79,.92,2.36,.14,.37,.62,.67,.87,.97-.02,.57,.55,2.29,.82,2.51,.26,.19,.95,.56,1.08,.87,.05,.13,1.68,1.24,1.84,1.54,0,0,.92-.13,1.13-.05,.14,.27,1.33,1.74,1.69,2.05,.18,.21,.66,.47,.92,.56,.28,.36,.94,1.08,1.38,1.23,.59,.22,1.89,.65,2.51,.72,.36,.05,1.4-.11,1.54,.41,0,0,.85,1.17,1.08,1.33,.51,.32,1.75,.69,2.36,.56,.18,.07,1.21,1.31,1.28,1.38,.24,.12,1.99,.89,2.05,.77l.61,.26s-6.91,13.71-10.51,20.35Z"/></svg>