<?xml version="1.0" encoding="UTF-8"?><svg id="estados" xmlns="http://www.w3.org/2000/svg" viewBox="0 0 128 128"><defs><style>.cls-1{fill:#3bb1e6;stroke:#fff;stroke-linecap:round;stroke-linejoin:round;stroke-width:1.37px;}</style></defs><path id="AGS" class="cls-1" d="M121.43,72.09l-.7,1.41-.35,.35-2.11,3.17-1.76,2.47-2.47,1.76-3.52,1.41-2.47,1.06-1.76,2.11-1.76,2.11-2.82,.7-2.82,1.76-1.06,2.82-.35,3.17-.7,3.17-1.41,2.47-2.11,1.06-2.47,.7-2.47,1.06-2.47,2.11-2.11,2.11-2.47,2.11-2.47,1.76-3.17,.7h-3.17l-2.82-.35-3.52-.35-3.17-.35-7.05-1.41-3.52-.35-5.29-1.41-4.23-2.47-3.88-3.17-4.58-2.11-3.52-.7-3.88,.7-3.88,1.41-3.17,1.41-3.88-2.47-3.17-2.11-2.47-3.17-1.06-4.58v-4.93l.7-2.47,.7-2.47,1.41-2.11,1.41-2.11,1.41-2.11,1.76-2.11,1.41-2.82,1.76-3.17,1.76-2.82,2.11-2.47,2.11-2.47,2.47-2.47,2.11-2.82,1.41-2.82,.35-3.17-1.06-2.11-1.76-1.76-.35-1.76,2.47-3.88,3.88-1.76,4.23-.35,3.88,.35h5.99l1.76-1.06,.7-1.41,.7-2.82,1.06-1.06,.7-.35h4.93l1.06-1.06,1.06-1.41,1.06-1.06,1.41-.7h2.11l1.41-1.41,1.41-2.47,1.06-2.11,2.11-2.11,1.76,1.06,1.41,2.82,1.06,2.47,1.06,2.47,1.41,2.82,2.11,1.76,2.11-.7,.7-.7,.7-.35,.7-.35,.7-.35,1.41,1.41,1.06,3.52,1.41,1.41,2.11-.35,1.41,1.06,1.06,1.41,1.41,1.41,2.11,1.06h4.58l2.11,1.06,1.06,2.82,.35,4.23-.35,4.58-.35,3.52,1.41,3.17,2.47,1.41,3.17,1.41,2.82,1.76,1.76,1.76,1.76,1.76,1.41,2.11,1.41,2.11h0Z"/></svg>