<svg xmlns="http://www.w3.org/2000/svg" viewBox="0 0 128 128"><defs><style>.cls-1{fill:#b25fac;stroke:#fff;stroke-linecap:round;stroke-linejoin:round;stroke-width:1.37px;}</style></defs><g id="estados"><path id="AGS" class="cls-1" d="M121.43,72.09l-.7,1.41-.35.35L118.26,77l-1.76,2.46L114,81.25l-3.52,1.41L108,83.72l-1.76,2.12L104.51,88l-2.82.71-2.82,1.76-1.05,2.82-.36,3.17-.7,3.17-1.41,2.47-2.12,1.06-2.46.7-2.47,1.06L85.83,107l-2.11,2.11-2.47,2.11L78.78,113l-3.17.7H72.44l-2.82-.35L66.09,113l-3.17-.36-7.05-1.41-3.52-.35-5.29-1.41L42.83,107,39,103.81l-4.58-2.11L30.85,101,27,101.7l-3.88,1.41-3.17,1.41L16,102.05l-3.17-2.11L10.4,96.76,9.35,92.18V87.25l.7-2.47.71-2.47,1.41-2.11,1.41-2.12L15,76l1.76-2.12L18.16,71l1.76-3.17L21.68,65l2.12-2.47,2.11-2.46,2.47-2.47,2.11-2.82L31.9,52l.36-3.17L31.2,46.71,29.44,45l-.36-1.76,2.47-3.88,3.88-1.76,4.23-.35,3.88.35h6l1.76-1.06L52,35.08l.7-2.82,1.06-1.06.7-.35H59.4l1.05-1.06,1.06-1.41,1.06-1.05L64,26.62h2.11l1.41-1.41,1.41-2.47L70,20.63l2.12-2.12,1.76,1.06,1.41,2.82,1.06,2.47,1.05,2.47,1.41,2.82,2.12,1.76L83,31.2l.71-.7.7-.35.71-.36.7-.35,1.41,1.41,1.06,3.53,1.41,1.41,2.11-.36,1.41,1.06,1.06,1.41,1.41,1.41,2.12,1.06h4.58l2.11,1.05,1.06,2.82.35,4.23-.35,4.59-.35,3.52,1.41,3.17,2.47,1.41,3.17,1.41,2.82,1.77,1.76,1.76,1.76,1.76L120,70l1.41,2.11Z"/></g></svg>