<svg xmlns="http://www.w3.org/2000/svg" viewBox="0 0 128 128"><defs><style>.cls-1{fill:#b25fac;stroke:#fff;stroke-linecap:round;stroke-linejoin:round;stroke-width:1.26px;}</style></defs><g id="estados"><path id="YUC" class="cls-1" d="M126.38,25.92v.68l.55,8.61-.14,1.64L125,39.31l-.54,2.87L124.33,44l2,4.24.14,2.87-2.6,5.33-.14,1.5-.41,1.5-1,1.51-.55,1.63-1.37,2.74-2.59,1.64-2.32,1.91-1.37.82-3.55,3.14L107,74.7l-1.09.4-2.6-.13-1.37.41-1.23-.55L99.6,74l-1.5.28-1,.95-.82,1.23-1,1.37-.54,1.5.54,1.91L95.23,83l-1-.14-.41-1.23L93,80.57l-1.5-.14-1.09.82-1.23,3L87.3,86.58l-2.46.69-2.32,1.5-2.46.54-1.36.55-1.37.82-1.23.68L73.5,93l-1,1.23.27,1-.41.68-1-.82-1.09-.68L67.63,97l-.41.41-.69.41-.68.27-4.78.14L59.7,99,57,100l-1.09,1.23-1.1,1.09-4.64.69-1.5-.14-1.1.41.14,1.64-.14,1.37-.41,1.5-.68,1.64-1,1.64-1.09-2.46-.55-3.28-2.05-2.73-2.32-2.46-3.14-5.88-2.6-2-3-1.09-2.19-2.32-1.09-3.28L26,82.76,23.5,81l-.69-.82L22,78.38V77.29l-.68-1.23L19.53,73.6l-1.09.82-.82,1.64-1.23.27-.82-.81-.82-.69-.82.28-.82.41-1.09-1-.68-1.64-1.1-1.23-1.77-.27H6.28l-2-.14-.68-1.37.54-11.47L4,57.21l.13-.14.55-2.6,1-2.59.13-1.51H5.46l-.55,2.46-.82,1.78L4,54.88,3.82,56l-.55,1.36-.82,1.1-1.09.41v-.28l.82-1.23L4.91,49l.41-.68L6,47.51l4.92-3,.82-.68,2.86-1.1,1.51-1.23.95-.41.41-.27,1.37-.14,2.32-.82,2.6-1.91.68-.27.82-.14,4.37-1.64,4.65-.82h3.42l6-1.09,8.2-.82,3.41-1,1.78-.27,1.09.27.41.14L59,32.2l1-.41.27-.13L63.94,31l2.87-.82L68.72,30l.82-.28,1.5-.68,5.2-1.23,1.5-1,2.73-2.46.82-.41L84,23.73l.82-.27,1.51-.82.82-.14h3.41l.69.14,1.5.68.82.14.68-.14,1.5-.41,2.33-.27.82-.28.54-.41.55-.27,2.87.14-.82-.41L101,21.27h-1l-1.5.82-1.78.41h-.41l.27-.41.82-.41,1-.41,1.23-.13,1-.41.41-.14h.54l1.92.55h3.69l.95.13,2.73,1.23,1.78.41,3.83.55,2.59.82.14.13-.41.28-.41.13-.55.14-.54-.14-.41-.27-.55-.27-3.14-.55-.82-.27,1,.82,1.37.68,1.37.55,1.5.13h2.87l1.36.28h.82l.69-.28-1.92-.13-.81-.14-.69-.55.28-.27L123,25l2.33,1Z"/></g></svg>