<?xml version="1.0" encoding="UTF-8"?><svg id="estados" xmlns="http://www.w3.org/2000/svg" viewBox="0 0 128 128"><defs><style>.cls-1{fill:#3bb1e6;stroke:#fff;stroke-linecap:round;stroke-linejoin:round;stroke-width:1.37px;}</style></defs><path id="MOR" class="cls-1" d="M79.23,19.1l1.97,.39,3.94,.79,1.97,.39,1.18,.39,1.97,2.36,.79,.79,1.18,.79,.79,.39,1.18-.39h.39l.79,.79,.79,2.76,.79,2.36,.79,1.97v1.18l.79,.79,.79,.39h2.36l2.76,.79h1.57l1.97-.39,1.57-.39,1.18-.39,.79-1.57,.79-1.97,1.18-.79,1.57-.79,1.57-1.18,1.97-.79-.39,8.27-.39,1.97h-.79l-1.18-.39-.79,.79v2.76l1.57,1.97,.79,1.97-2.36,1.57-1.97,1.97-1.97,2.36-1.18,2.36-1.97,1.97,1.18,1.18,.79,.39h.79v1.57l-.39,.79v.79l.39,.79,.39,.79,1.57,1.18,1.18,1.57,1.18,1.57,.79,1.97,.39,1.97v1.18l-.39,.39-.39,.79h-4.72l-4.72-1.18,.39,2.76v1.18l.39,1.57,.39,1.57,.39,1.97,.39,2.36,.39,1.97,.39,1.18,1.97,2.36,1.18,2.76,.79,3.15,1.18,5.12,.79,2.76,.39,2.36v1.57l-2.36,.79-2.76-1.57-2.76-2.36-1.97-1.97-1.97-1.57-1.97-1.18-2.36-.79h-2.36l-1.57,.39-1.97,.39-1.57,.39-1.57,.79-.79,.79-.79,1.18-.79,1.18-1.97,.79-1.97,1.57-.39,2.36-.79,1.97-2.36,1.57-3.15,.79-2.76,1.18-2.76,1.57-2.76,1.97-1.18-4.72-2.36-2.76-2.76-2.76-1.57-3.54-.39-1.57-.39-.79-.79-.79-.79-1.18-1.18-1.18-.39-1.18v-1.97l-.39-1.57v-1.18l-.79-.79-.79-.39-1.18-.39-3.15-.39-2.36,1.57-1.57,2.36-.79,3.15-.39,3.54-.39,1.57-.39,1.18-2.76,.39h-7.87l-1.18-1.18v-2.76l-.79-1.97-2.36-.39h-1.57l-1.57-.79-1.18-1.18-1.18-1.57-.79-1.57-1.97-3.15-.79-1.57-2.36-.79-.79-2.36-.39-1.97-2.36-.39-2.76-.79-.39-1.97,.79-2.36,1.18-2.36v-.39l.79-3.94,1.18-3.94,.39-3.54,.39-3.94v-.79l1.18-1.18,1.57-.79,1.57-1.18,1.18-1.57,.79-1.97,1.18-2.36,1.18-1.97,1.57-1.57,1.18-.39,1.57-.79,1.18-.39,1.57-.39,2.76-1.57,1.97-1.57,.79-1.97-.79-3.54-2.76-2.76-.79-2.36,.39-1.57,1.57-1.18,1.57-1.18-1.18-1.97-1.57-1.57-.39-1.97,1.18-1.97,1.18-1.18,1.57-1.18,1.18-1.57,.79-1.18,2.76,2.76,4.33,1.57,4.33,.79,3.94,.79,3.94,.39,2.36,.39,2.36,.79,2.36,1.57,2.36,1.57,1.18,.39,1.18-.79,1.18-1.57,.79-1.18,1.57-.39h5.12Z"/></svg>