<?xml version="1.0" encoding="UTF-8"?><svg id="estados" xmlns="http://www.w3.org/2000/svg" viewBox="0 0 128 128"><defs><style>.cls-1{fill:#3bb1e6;stroke:#fff;stroke-linecap:round;stroke-linejoin:round;stroke-width:1.26px;}</style></defs><path id="YUC" class="cls-1" d="M126.38,25.92v.68l.55,8.61-.14,1.64-1.78,2.46-.55,2.87-.14,1.78,2.05,4.24,.14,2.87-2.6,5.33-.14,1.5-.41,1.5-.96,1.5-.55,1.64-1.37,2.73-2.6,1.64-2.32,1.91-1.37,.82-3.55,3.14-3.69,1.91-1.09,.41-2.6-.14-1.37,.41-1.23-.55-1.09-.82-1.5,.27-.96,.96-.82,1.23-.96,1.37-.55,1.5,.55,1.91-.14,1.78-.96-.14-.41-1.23-.82-1.09-1.5-.14-1.09,.82-1.23,3.01-1.91,2.32-2.46,.68-2.32,1.5-2.46,.55-1.37,.55-1.37,.82-1.23,.68-2.6,1.64-.96,1.23,.27,.96-.41,.68-.96-.82-1.09-.68-2.73,2.6-.41,.41-.68,.41-.68,.27-4.78,.14-1.37,.82-2.73,.96-1.09,1.23-1.09,1.09-4.65,.68-1.5-.14-1.09,.41,.14,1.64-.14,1.37-.41,1.5-.68,1.64-.96,1.64-1.09-2.46-.55-3.28-2.05-2.73-2.32-2.46-3.14-5.88-2.6-2.05-3.01-1.09-2.19-2.32-1.09-3.28-1.5-2.73-2.46-1.78-.68-.82-.82-1.78v-1.09l-.68-1.23-1.78-2.46-1.09,.82-.82,1.64-1.23,.27-.82-.82-.82-.68-.82,.27-.82,.41-1.09-.96-.68-1.64-1.09-1.23-1.78-.27h-2.19l-2.05-.14-.68-1.37,.55-11.48-.14-1.23,.14-.14,.55-2.6,.96-2.6,.14-1.5h-.27l-.55,2.46-.82,1.78-.14,.27-.14,1.09-.55,1.37-.82,1.09-1.09,.41v-.27l.82-1.23,2.73-8.33,.41-.68,.68-.82,4.92-3.01,.82-.68,2.87-1.09,1.5-1.23,.96-.41,.41-.27,1.37-.14,2.32-.82,2.6-1.91,.68-.27,.82-.14,4.37-1.64,4.65-.82h3.42l6.01-1.09,8.2-.82,3.42-.96,1.78-.27,1.09,.27,.41,.14,.41-.14,.96-.41,.27-.14,3.69-.68,2.87-.82,1.91-.14,.82-.27,1.5-.68,5.19-1.23,1.5-.96,2.73-2.46,.82-.41,2.73-.27,.82-.27,1.5-.82,.82-.14h3.42l.68,.14,1.5,.68,.82,.14,.68-.14,1.5-.41,2.32-.27,.82-.27,.55-.41,.55-.27,2.87,.14-.82-.41-1.09-.14h-.96l-1.5,.82-1.78,.41h-.41l.27-.41,.82-.41,.96-.41,1.23-.14,.96-.41,.41-.14h.55l1.91,.55h3.69l.96,.14,2.73,1.23,1.78,.41,3.83,.55,2.6,.82,.14,.14-.41,.27-.41,.14-.55,.14-.55-.14-.41-.27-.55-.27-3.14-.55-.82-.27,.96,.82,1.37,.68,1.37,.55,1.5,.14h2.87l1.37,.27h.82l.68-.27-1.91-.14-.82-.14-.68-.55,.27-.27,2.87,.41,2.32,.96h1.09Z"/></svg>