<?xml version="1.0" encoding="UTF-8"?><svg id="estados" xmlns="http://www.w3.org/2000/svg" viewBox="0 0 128 128"><defs><style>.cls-1{fill:#3bb1e6;stroke:#fff;stroke-linecap:round;stroke-linejoin:round;stroke-width:1.37px;}</style></defs><path id="BCS" class="cls-1" d="M112.97,94.75l-.12,.36c-.38-.13-.95-.19-1.34-.3l.06-.18c-.5-.61-.77-1.51-1.03-2.25,.02-.1,.12-.28,.18-.36l-.43-.85c.02-.21,.08-.83,.06-1.03h.12l.18,.24v.3c.55,.48,.65,1.36,1.15,1.88,.2,.54,.74,1.06,.97,1.58-.05,.17,.1,.47,.18,.61h0Zm-10.65-8.72c.34,.02,1.09,.61,1.09,.61,.08,.37,.28,1.06,.24,.97l-.36,.24,.06,.3s.05,.15,.01,.27l-.55,.06c-.02-.08-.25-.27-.25-.27-.05-.06-.36,0-.36,0-.02-.09-.07-.29-.12-.36l.3-.24c-.25-.28-.55-1.37-.67-1.28,.1-.04-.18-.55-.18-.55l-.24-.55,.36-.43s.46,.55,.67,.67c0,0,0,.55,0,.55Zm-4.92-9.53c.05,.16,.23,.28,.36,.36,0,0,.16,.96,.12,1.28,.26,.5,.46,1.17,.85,1.58-.17,.15-.52,.23-.73,.12l-.18-.24c-.25-.09-.73-.55-.73-.55-.12-.07-.49-.3-.49-.3-.28-.19-.89-1.87-.91-1.94l-.55-.24c-.15-.3,.03-.66,0-.97,0-.15-.05-.52,.12-.61,.29,.27,.32,.92,.73,1.09,.44,.02,1.02,.21,1.4,.43h0Zm-2.54-3.27l-.06,.06v-.12l.12-.12v.12l-.06,.06h0Zm-.24-1.4c-.07,.06-.22,.07-.3,.06-.1-.16-.14-.42-.12-.61l.36-.36h.36l.12-.12c-.1,.32-.36,.69-.43,1.03h0Zm-.79-7.11l-.61-.12c-.43-.8-.55-1.5,.06-2.25l.18-.06,.18,.43c-.13,.54,.18,1.44,.18,2h0Zm-5.41-2.49l.3,.43,.12,.36c-.04,.19-.43,.55-.43,.55-.06-.07-.18-.61-.18-.61-.1-.16,.06-.67,.06-.67l.12-.06h0Zm.2-7.92c-.34,.41-.57,1.05-.43,1.58h.18s.13,.6,.06,.67l-.85-.67s-1.06,1.75-1.34,2c0,0-.08,.61,0,.79l-.43,.43c-.01,.2-.57,.06-.55-.12,.28-.42,.38-1.14,.43-1.64,.18-.23,.69-1.05,.77-1.17,0-.02-.13-1.14-.1-1.26,.16-.04,.73-.43,.73-.43l.18-.12,.12,.18,.91-.18,.3-.06h0Zm-7.67-11.52l-.06,.06c-.02-.06-.06-.21-.12-.24v-.18c.1,.08,.21,.22,.18,.36h0Zm-11.97-12.21l-.3,.3-.36-.06-.18-.91-.24-.24,.36-.49c.3,.16,.7,.61,.85,.91l-.12,.49h0Zm3.64-5.1c-.14,.03-.46,.08-.61,.06l-.24-.18,.06-.3c.2-.05,.55-.07,.73,.06l.12,.18-.06,.18ZM9.39,16.37c-.07,.03-.23,.08-.3,.06,0-.19-.08-.54-.24-.67-.13-.06-.41-.16-.55-.18l.06-.18c.1,.06,.31,.15,.43,.12,.18,.25,.62,.33,.67,.67l-.06,.18h0Zm18.34-3.22h1.09c.12,.13,.29,.45,.37,.61l.73-.06c-.02-.1-.05-.47-.12-.55h25.51s.11,.57,.18,.73c0,0,0,2.12,.3,2.98l.36,.06c-.03,.12,.12,.91,.12,.91,.48,.47,1.29,1.67,1.76,2.12,1.67,.81,3.8,1.69,5.1,3.04-.02,.19,.7,1.59,.73,1.88,.69,1.48,1.5,3.08,2.31,4.49,0,0,1.2,1.58,1.2,1.58,.77,.36,2.1,1.16,2.64,1.82,.27,1.49-.27,3.41,1.33,4.38,.3,.02,1.47,.1,1.74,.11,.11-.05,.85,.18,.85,.18,3.42,1.55,4.94,6,6.2,9.29,.46,1.06,1.18,2.91,1.34,4.07l.61,1.58c.97,2.16,.1,5.47,1.27,7.59l.06,.3,1.16,1.82c.8,1.64,1.64,2.17,3.22,4.07,1.08,2.07,1.46,3.5,2.37,5.41,1.2,3.44,4.54,5.87,5.16,9.41l.3,.43-.12,.91c-1.08,2.16-1.18,4.32-.37,6.8l-.18,.18c.77,3.25,3.83,4.78,6.56,5.97-.07-.92-.49-3.91-.62-4.87l.89-.53c1.2,1.01,8.13,6.23,9.56,7.26,.21,.27,.41,.76,.48,1.09,1.12,2.16,1.76,4.78,3.23,6.92,3.92,3.18,5.24,5.55,3.67,9.98-.53,1.78-3.56,3.47-4.94,4.54-3.4,2.7-6.74,4.78-8.49-.97-1.88-8.14-3.06-9.94-9.36-13.4-6.91-8.17-10.34-8.91-21.24-17.32h-.24l1.1,3.46-.78,.61-5.06-3.97,2.42-1.51c-.54-4.63-5.85-3.05-8.99-4.11,.44-1.17,2.32-7.85,2.94-8.73,1.04-2.08,1.49-4.78,1.45-7.09,.02-14.9-11.09-13.7-18.3-23.03-.54-.75-1.85-2.61-2.77-2.92-1.19-.46-2.7-.93-3.86-1.02-1.28,.26-3.22,2.78-5.04,1.32-1.58-.9-3.14-4.86-5.71-5.24-3.37-1.16-6.91-3.44-9.88-5.36l-1.99-4.34c-2.03-1.82-5.25-4.14-7.38-5.81,0,0-1.91-2.91-1.91-2.91l.79-.3s1.8-.61,2.64-.59c.94,.12,2.82,.52,3.68,.9,.99,.31,2.94,.19,3.94-.08,1.04-.45,3.03-1.71,4.2-1.26-.01,.22,.11,.57,.12,.79-.05,.39-.24,.81-.42,1.15,.22,.37,.56,.97,.97,1.15,.29,.37,.79,.7,1.27,.73,.32,.25,1.53,1.33,1.76,1.52l.18,.3s.75-.72,.91-.97c-.08-.17,0-.85,0-.85,.38,.19,1.37,.85,1.83,.79,.15-.37,.61-1.4,.61-1.4-.4-.2-.89-.49-1.21-.79,0,0-1.25-.81-1.46-.97l-.18,.06c.02,.12,.55,1.46,.55,1.46l-1.64,.36c-.2-.2-.83-1.66-.91-1.94,.07-.46,.42-1.23,.73-1.58-.02-.18-.79-1.34-.79-1.34-.26,.35-.79,.58-1.22,.61l-.42-.73c.46-.3,.69-.87,1.09-1.22Z"/></svg>