<svg xmlns="http://www.w3.org/2000/svg" viewBox="0 0 128 128"><defs><style>.cls-1{fill:#b25fac;stroke:#fff;stroke-linecap:round;stroke-linejoin:round;stroke-width:1.37px;}</style></defs><g id="estados"><path id="MOR" class="cls-1" d="M79.23,19.1l2,.4,3.93.78,2,.4,1.18.39,2,2.36.79.79,1.18.79.79.39L94.19,25h.39l.79.78.79,2.76.78,2.36.79,2v1.18l.79.79.79.39h2.36l2.75.79H106l2-.39,1.57-.4,1.18-.39.79-1.58.79-2,1.18-.79,1.57-.79,1.58-1.18,2-.79L118.2,36l-.39,2H117l-1.18-.39-.79.78v2.76l1.58,2,.79,2-2.37,1.57-2,2-2,2.36-1.18,2.36-2,2,1.18,1.18.79.4h.78v1.57l-.39.79v.79l.39.78.4.79,1.57,1.18,1.18,1.58L115.05,66l.79,2,.39,2v1.18l-.39.39-.39.79h-4.73L106,71.07l.39,2.75V75l.4,1.57.39,1.58.39,2,.4,2.37.39,2,.39,1.19,2,2.36,1.18,2.75.79,3.15L113.87,99l.79,2.76.39,2.36v1.57l-2.36.79-2.75-1.57-2.76-2.37-2-2-2-1.58-2-1.18-2.36-.79H96.55l-1.57.4-2,.39-1.58.39L89.86,99l-.79.79L88.28,101l-.79,1.18-2,.79-2,1.57-.4,2.36-.78,2L80,110.44l-3.14.79-2.76,1.18L71.35,114l-2.75,2-1.18-4.72-2.37-2.76-2.75-2.76-1.58-3.54-.39-1.57-.39-.79L59.15,99l-.79-1.18-1.18-1.18-.39-1.18v-2l-.4-1.58V90.75L55.61,90l-.79-.4-1.18-.39-3.15-.4-2.36,1.58-1.58,2.36-.79,3.15-.39,3.54L45,101l-.4,1.18-2.75.39H34l-1.18-1.18V98.63l-.78-2-2.37-.4H28.05l-1.58-.78L25.29,94.3l-1.18-1.58-.79-1.57-2-3.15-.79-1.58-2.36-.78-.79-2.37-.39-2-2.37-.39-2.75-.79-.4-2,.79-2.37,1.18-2.36V73l.79-3.94,1.18-3.94.39-3.54.4-3.94V56.9l1.18-1.18L19,54.93l1.58-1.18,1.18-1.58.79-2,1.18-2.36,1.18-2,1.57-1.57,1.19-.4,1.57-.78,1.18-.4L32,42.33l2.75-1.58,2-1.57.79-2-.79-3.54L34,30.91l-.78-2.36L33.56,27l1.58-1.19,1.57-1.18-1.18-2L34,21.07l-.39-2,1.18-2L35.92,16l1.58-1.18,1.18-1.57L39.47,12l2.75,2.75,4.33,1.58,4.33.78,3.94.79,3.94.4,2.36.39,2.36.79,2.36,1.57,2.36,1.58,1.19.39,1.18-.79,1.18-1.57.79-1.18,1.57-.4h5.12Z"/></g></svg>