<?xml version="1.0" encoding="UTF-8"?><svg id="estados" xmlns="http://www.w3.org/2000/svg" viewBox="0 0 128 128"><defs><style>.cls-1{fill:#3bb1e6;stroke:#fff;stroke-linecap:round;stroke-linejoin:round;stroke-width:1.37px;}</style></defs><path id="QRO" class="cls-1" d="M110.59,36.75v.75l-.19,.75,.19,2.82,.19,1.5h-.56l-.94-.38-.38,.19-.56,.38-.38,.19h-.56l-1.5-.19-1.69,.75-2.63,2.26-1.88,.38-1.13-.38-2.07-1.32h-1.13l-.56,.19-.94,1.32-.56,.38-1.13,.19-.56,.19-.94,.94v.94l1.5,2.44v.94l-.38,.94-1.32,1.69-.19,1.13-.19,2.44-.38,.94-.56,.75-.56,.38-3.38,2.26-1.13,1.69-.75,2.07-.94,4.32-.19,.56,.19,1.32,.56,1.13,.75,.94,.38,.38,.19,.38h-.94l-.75,.38-.56,.56-.56,.38-.38,.19-.94,.19-.19,.19-.19,.38-.19,.56-.38,.38-.19,.38h-.38l-.56-.56h-.19l-.56,.38-.38,.56-.38,.56-.19,.56-.56,.56-.75,.56-.94,.19-.94-.38-.19,.38-2.07,.38-2.07,.75-2.26,.94-1.88,.94v1.32l-.19,1.5-.19,1.32-.56,4.32-.56,4.32-5.64,3.57,.94,.94,.56,.94,.75,1.13,.75,.94h-1.69l-1.13,.38-.94,.94-1.13,1.32-2.63,3.2-.75,1.5-.94,1.5-.94,1.32-1.13,1.5-.38,.38-.56,.94-.56,.94-.56,1.13-.56,.94-1.32-.56-1.13-.94-.75-1.13v-6.77l-1.32-3.57-2.07-3.01-3.01-1.5-.56-.38-.56-.19-.75-.19-.56-.38-.75-1.32-.94-.56-1.13-.56-.75-1.5-.56-1.69-.94-1.32-1.32-1.32-1.13-1.32-.94-1.13-.94-2.07-.19-2.26v-2.26l-.19-2.44-.56-1.13-.75-1.13-.75-1.13-.75-1.13-1.13-2.63-.56-2.63,.19-2.63,1.13-2.63,.56-.94,.56-.94,.38-1.13,.19-.94v-2.26l.38-1.13,.94-.75,.56-1.13,.56-1.5,.94-1.13h1.13l.94,.94,.19,1.5,.56,1.13,1.69,.56,1.32,.19,1.13,.19h1.13l1.13-.38,.94-.56,.94-.75,1.13-.56,1.13,.19h.38l.19,.38,.75,.94,.75,1.13,.94,.75h1.32l.56-.38,.38-.56,.38-.56,.38-.38,.56-.19,.56-.19,.38-.19,.56-.38,.56-1.32,.38-1.5,.19-1.5v-1.5l.19-2.26,.19-2.44,.38-2.26,.75-2.07,.94-1.32,1.5-.94,1.5-.38,1.5-.19,.94,.19,.94,.38,.94,.38,.75,.56,.94,1.13,1.69,.38,1.69-.19,1.5-.56,.94-.38,.19-.56,.38-.56,.38-.75,.56-.56,.56-.19,1.5-.56,.75-.75,.38-.75v-.94l-.75-.56-1.69-.19-1.5-.19-1.13-.94-.19-2.07,.19-.75,.19-.56v-.56l-.19-.94-.38-.75,.19-.75,.38-.94v-.75l.75-1.88,.75-2.07,.94-1.69,1.69-.56,.75,.38,.94,.56,.75,.56,.56,.56,.38,.38,.38,.38,.38,.19,.38,.38,.38,.75,.38,.75,.19,.75,.75,.38,.56,.38,.75,.94,.56,.38,.75,.19,.38-.38,.38-.19,.38-.19h3.01l1.5-.19,.75-1.13,.38-.19,.56-.19,.94-.19,.75-.19,.75,.19,.75,.19,.75-.19,.38-.38,.19-.38,.56-.94,.56-.94,.19-.56,.38-.38,.38-.38,.19-1.88,.38-.56,.38-.19,.38-.19h.19l1.13,.56h.38l.56-.19,.56-.38,.56-.56v-2.07l.94-.94,1.5-.75,.94-1.13,.19-1.32,1.69,5.83,.38,1.69,.56,1.5,.56,1.69,.56,1.5,.56,1.69,.94,1.88,.56,.94v.94l-.56,3.76-.19,1.13h.94l1.13,.19,1.13,.56,.75,.75h0Z"/></svg>