<svg xmlns="http://www.w3.org/2000/svg" viewBox="0 0 128 128"><defs><style>.cls-1{fill:#b25fac;stroke:#fff;stroke-linecap:round;stroke-linejoin:round;stroke-width:1.37px;}</style></defs><g id="estados"><path id="MEX2731" class="cls-1" d="M116.37,50.23c-.75-.06-1.86.23-2.61.17a26.72,26.72,0,0,0,.7,3,8.75,8.75,0,0,0,2.61,1c.26.81.17,2.12.35,3a11,11,0,0,0-1.75,4.19c.82,3.63,2,7.92,2.27,11.67a4.24,4.24,0,0,1-.87.7c-.34,2.13-.89,5.23.35,7.14a10.78,10.78,0,0,1-.35,1.92,19.09,19.09,0,0,0-2.79,1.56,12.29,12.29,0,0,1-.7,1.57c-2,.91-3.11.22-5,.18a2,2,0,0,1-.7-.53v-.52a26.69,26.69,0,0,1-1-3.13l-.35-.35c-.12,0-.58.14-.7.17A5.9,5.9,0,0,1,103.65,80c-1.15-.38-2.82-.6-4-.87.58-.79,1.49-1.92,1.4-3-.34-1-1.37-2.51-1.4-3.66-.12-1.56.75-3.33.18-4.88-.58-3.42-3.22-3.37-5.4-5.22l.87-.87a2.81,2.81,0,0,1-.7-.88,3.89,3.89,0,0,0,.87-.69l.18-.53a19.09,19.09,0,0,1-1.74-3.65c-1.33-.39-1.67-1.93-1.57-3.14a3.34,3.34,0,0,0-1.4-1.57l-1.74,1.74v1.22l-.52.53.52.17.35.52-.17.35a10.07,10.07,0,0,1-1.57.87c-1.4,2.26-3.45,4.25-4.36,6.8l-.7.35-2.09-.35-.17,1.22a7.78,7.78,0,0,0-1,2.44l.18,1.22.35.34v.35l-.7,1,.17.52.53.35h.34l.35.35c-.31,1.69-.07,3.76,1.4,4.88-.61,1.22-2.07,1.88-2.62,3.13l.18.87a5.82,5.82,0,0,1,1.22,1.57l-1.4,1-.17.7.35,1,1.22,1.22.35,1.57-.35.87c-1.21,1.19-3,1.65-4.53,2.26-2.3,2.34-1.18,3.56-4.53,5.58,0,2.39-.85,5-1.22,7.32l-1,.35c-.63-.1-2-.28-2.61-.35l-.7-.7-.52-1.22-.35-.35-.7-.17a28.1,28.1,0,0,1-2.09-2.27l-1-.52c-1.56,1.26-3.15,3.15-4.88,4.18l-.35.7a3.6,3.6,0,0,1-1.57,3.48l-.7-.17a15.29,15.29,0,0,0-2.09-2.09c-4.15-.56-8.76,2.75-13.06,3-1.84,4.9-5,7.78-9.06,10.8l-.7.18a4.56,4.56,0,0,1-1.39,1.57,4.89,4.89,0,0,1-1.57.17,9,9,0,0,1-3.49-3.83c.29-1.36,1-3.13,1.05-4.53-.33-2.81-4.09-4-4.71-6.62a6.4,6.4,0,0,0,.18-2.09c-.23-.41-.69-1.48-.87-1.92V99.54l1-2.09v-.7a3.93,3.93,0,0,0-.7-.87c-.25-.65-.09-1.61-.34-2.26-3.15-.25-6.77-.44-9.76-1.75L9,91.52V91a1.61,1.61,0,0,1,.87-.87l.18.17.35-.17c.59-1.54,2.28-2.06,3.48-3a7.2,7.2,0,0,0,.17-2.27A4.73,4.73,0,0,1,15,83.34c4.54-3.66,7.47-9.87,11.5-14.12l.17-.52c-.17-.48-1.62-2.66-1.92-3.14,2.49-2.21,8-4.08,10.11-6.62C32.53,57.19,32,54,31,51.45c.89-2.6,1.62-6,2.78-8.54-1-4.25,2.07-9,2.27-13.24a43.93,43.93,0,0,1,4.35-6.62,34.3,34.3,0,0,1,5.93-7.84,6.06,6.06,0,0,1,2.61-.35c-1-1.07-1.66-2.72-2.79-3.66l5.23-3.31c.6.33,2.24,1.21,2.79,1.57a22,22,0,0,0,8.36,9.06c.42-.45.45-1.29.87-1.74a4.69,4.69,0,0,1,4.18,0c.79,1.54,2.55,4.25,3.49,5.75-.44,2-1.71,4.15-1.74,6.27l.35,1a11.88,11.88,0,0,0,3.48,1.4l.87.7a8.57,8.57,0,0,1,.35,3.31l.17.34.53.18.69.7a23.2,23.2,0,0,0,.7,3.83c1.28-1,2.13-3.25,3.66-4l1.74.18A7.7,7.7,0,0,0,82.74,33L84,32.11a1.87,1.87,0,0,0,1.57,0l.35-.52c.27-1.37.07-3.06.7-4.36,1-.86,2.48-.61,3.66-.87,2-.38,3.7-2.09,5.57-2.79a11.47,11.47,0,0,1,2.79.35,4.68,4.68,0,0,1,2.09,5.92c.22,0,.65.22.87.18-.79,2.12-2.37,4.67-1.74,7l.17.17,2.44.35c1.13-1.17,3.32-3.63,4.36-4.88l1.91.7.88,1.39a5,5,0,0,0,2.09.7,9.81,9.81,0,0,1,2.61-.7l.52.35a32.39,32.39,0,0,1,4,5.23,3.47,3.47,0,0,1,0,4.88c-.46,1.74-1.75,3.38-2.44,5Z"/></g></svg>