<?xml version="1.0" encoding="utf-8"?>
<!-- Generator: Adobe Illustrator 21.1.0, SVG Export Plug-In . SVG Version: 6.00 Build 0)  -->
<svg version="1.1" id="Capa_1" xmlns="http://www.w3.org/2000/svg" xmlns:xlink="http://www.w3.org/1999/xlink" x="0px" y="0px"
	 viewBox="0 0 220 220" style="enable-background:new 0 0 220 220;" xml:space="preserve">
<style type="text/css">
	.st0{fill:#FFFFFF;}
	.st1{fill:#89D4F2;}
	.st2{fill:#666666;}
</style>
<g>
	<g>
		<circle class="st0" cx="110" cy="110" r="108.7"/>
	</g>
	<g>
		<g>
			<g>
				<g>
					<rect x="123.6" y="83" class="st1" width="42" height="3.2"/>
				</g>
				<g>
					<rect x="107.8" y="83.2" class="st1" width="10.5" height="3.2"/>
				</g>
			</g>
			<g>
				<g>
					<rect x="123.6" y="93" class="st1" width="42" height="3.2"/>
				</g>
				<g>
					<rect x="107.8" y="93.2" class="st1" width="10.5" height="3.2"/>
				</g>
			</g>
			<g>
				<g>
					<rect x="123.6" y="103.7" class="st1" width="42" height="3.2"/>
				</g>
				<g>
					<rect x="107.8" y="103.9" class="st1" width="10.5" height="3.2"/>
				</g>
			</g>
			<g>
				<g>
					<rect x="123.6" y="115.7" class="st1" width="42" height="3.2"/>
				</g>
				<g>
					<rect x="107.8" y="115.9" class="st1" width="10.5" height="3.2"/>
				</g>
			</g>
			<g>
				<g>
					<rect x="123.6" y="126.4" class="st1" width="42" height="3.2"/>
				</g>
				<g>
					<path class="st1" d="M110.3,126.5h8v3.2h-10.5V129C107.8,127.7,108.9,126.5,110.3,126.5z"/>
				</g>
			</g>
			<g>
				<path class="st1" d="M173.1,168.4h-75c-6.6,0-12-5.4-12-12V71.1c0-6.6,5.4-12,12-12h75c6.6,0,12,5.4,12,12v85.2
					C185.1,163,179.7,168.4,173.1,168.4z M98.1,63.1c-4.4,0-8,3.6-8,8v85.2c0,4.4,3.6,8,8,8h75c4.4,0,8-3.6,8-8V71.1
					c0-4.4-3.6-8-8-8H98.1z"/>
			</g>
			<g>
				<rect x="123.6" y="136.4" class="st1" width="19.6" height="3.2"/>
			</g>
			<g>
				<g>
					<path class="st1" d="M115.1,134.6c0.3-0.1,0.6-0.1,1-0.1s0.8,0.1,1.2,0.2l0.1,0.2l-2.3,3.5l2.5,3.8c-0.6,0.4-1.1,0.6-1.6,0.6
						c-0.6,0-1-0.2-1.4-0.8l-1-1.6l-1.3,2.2c-0.2,0.1-0.6,0.1-1,0.1s-0.9-0.1-1.2-0.2l-0.1-0.1l2.4-3.8l-2.3-3.5
						c0.5-0.4,1.1-0.5,1.7-0.5c0.3,0,0.5,0.1,0.7,0.2c0.2,0.1,0.4,0.3,0.5,0.6l0.8,1.3L115.1,134.6z"/>
				</g>
			</g>
			<path class="st2" d="M151.5,58.9v-4h-30v4H95v99.3h82V58.9H151.5z M173,154.3H99V62.9h74V154.3z"/>
			<g>
				<path class="st2" d="M161.4,141.6l-1.5,7l7.2-0.4l7.5-6.5l17.6-15.4l-5.7-6.6L161.4,141.6z M161.4,141.6"/>
				<path class="st2" d="M158,150.1l2-9.4l26.6-23.3l7.7,8.8l-26.6,23.3L158,150.1z"/>
			</g>
		</g>
	</g>
	<g>
		<g>
			<path class="st2" d="M27.6,131.8c14.6-13.1,23.3-23.2,23.3-31.5c0-5.5-3-8.7-8.1-8.7c-3.9,0-7.2,2.5-9.9,5.5l-5.8-5.8
				c5-5.2,9.8-8.2,17.1-8.2c10.2,0,17,6.6,17,16.6c0,9.8-8.1,20.2-17.9,29.9c2.7-0.3,6.3-0.6,8.7-0.6h11.7v9H27.6V131.8z"/>
		</g>
	</g>
</g>
</svg>
