<?xml version="1.0" encoding="utf-8"?>
<!-- Generator: Adobe Illustrator 21.1.0, SVG Export Plug-In . SVG Version: 6.00 Build 0)  -->
<svg version="1.1" id="Capa_1" xmlns="http://www.w3.org/2000/svg" xmlns:xlink="http://www.w3.org/1999/xlink" x="0px" y="0px"
	 viewBox="0 0 220 220" style="enable-background:new 0 0 220 220;" xml:space="preserve">
<style type="text/css">
	.st0{fill:#FFFFFF;}
	.st1{fill:#666666;}
	.st2{fill:#89D4F2;}
</style>
<g>
	<circle class="st0" cx="110" cy="110" r="108.7"/>
	<g>
		<path class="st1" d="M161.2,139.3c0-0.2,0-0.5,0-0.7V97.5c0-15.4-12.5-28-28-28h-6.2c-15.4,0-28,12.5-28,28v41.1
			c0,0.4,0,0.8,0,1.2c-5.3,3.3-8.9,9.4-8.9,16.4c0,1.6,0.2,3.1,0.5,4.6l0.4,1.5h79l0.4-1.5c0.4-1.5,0.5-3.1,0.5-4.6
			C171,148.9,167,142.5,161.2,139.3z M107.2,137.2c-1.4,0-2.7,0.1-4,0.4V97.5c0-13.2,10.7-24,24-24h6.2c13.2,0,24,10.7,24,24v40
			c-1-0.2-2-0.3-3.1-0.3h-1.2h-44.5H107.2z M166.9,158.4H94.4c-0.1-0.7-0.1-1.4-0.1-2.1c0-8.3,6.4-15.1,14.2-15.1h44.5
			c7.8,0,14.2,6.8,14.2,15.1C167,157,167,157.7,166.9,158.4z"/>
		<g>
			<path class="st2" d="M129.5,123.5c-2.4,0-4.1-1.8-4.1-4.2c0-2.5,1.7-4.2,4.2-4.2c2.4,0,4.1,1.7,4.1,4.2
				C133.6,121.7,132,123.5,129.5,123.5L129.5,123.5z M126.9,112.8l-1-20.9h7.3l-1,20.9H126.9z"/>
		</g>
		<g>
			<path class="st2" d="M91.5,103.2h-10c-1.4,0-2.5-1.1-2.5-2.5s1.1-2.5,2.5-2.5h10c1.4,0,2.5,1.1,2.5,2.5S92.9,103.2,91.5,103.2z"
				/>
		</g>
		<g>
			<path class="st2" d="M179.7,103.2h-10c-1.4,0-2.5-1.1-2.5-2.5s1.1-2.5,2.5-2.5h10c1.4,0,2.5,1.1,2.5,2.5S181.1,103.2,179.7,103.2
				z"/>
		</g>
		<g>
			<path class="st2" d="M130.3,63c-1.4,0-2.5-1.1-2.5-2.5v-10c0-1.4,1.1-2.5,2.5-2.5s2.5,1.1,2.5,2.5v10
				C132.8,61.9,131.7,63,130.3,63z"/>
		</g>
		<g>
			<path class="st2" d="M160.1,73c-0.6,0-1.3-0.2-1.8-0.7c-1-1-1-2.6,0-3.5l7-7c1-1,2.6-1,3.5,0s1,2.6,0,3.5l-7,7
				C161.3,72.8,160.7,73,160.1,73z"/>
		</g>
		<g>
			<path class="st2" d="M99.8,73c-0.6,0-1.3-0.2-1.8-0.7l-7-7c-1-1-1-2.6,0-3.5s2.6-1,3.5,0l7,7c1,1,1,2.6,0,3.5
				C101.1,72.8,100.4,73,99.8,73z"/>
		</g>
	</g>
	<g>
		<g>
			<g>
				<path class="st1" d="M16.8,131.5l5-6.8c3.2,3.1,7.1,5.5,12,5.5c5.5,0,9.2-2.7,9.2-7.5c0-5.3-3.1-8.6-14.9-8.6v-7.7
					c9.9,0,13.1-3.4,13.1-8.2c0-4.2-2.6-6.7-7.2-6.8c-3.9,0.1-7,1.9-10.2,4.8l-5.5-6.6c4.7-4.1,9.8-6.6,16.2-6.6
					c10.4,0,17.5,5.1,17.5,14.3c0,5.8-3.3,10-9,12.3v0.4c6.1,1.7,10.8,6.2,10.8,13.3c0,9.9-8.7,15.7-18.9,15.7
					C26.4,139,20.6,135.8,16.8,131.5z"/>
			</g>
		</g>
	</g>
</g>
</svg>
