<?xml version="1.0" encoding="utf-8"?>
<!-- Generator: Adobe Illustrator 21.1.0, SVG Export Plug-In . SVG Version: 6.00 Build 0)  -->
<svg version="1.1" id="Capa_1" xmlns="http://www.w3.org/2000/svg" xmlns:xlink="http://www.w3.org/1999/xlink" x="0px" y="0px"
	 viewBox="0 0 220 220" style="enable-background:new 0 0 220 220;" xml:space="preserve">
<style type="text/css">
	.st0{fill:#FFFFFF;}
	.st1{fill:#666666;}
	.st2{fill:#89D4F2;stroke:#89D4F2;stroke-miterlimit:10;}
</style>
<g>
	<circle class="st0" cx="110" cy="110" r="108.7"/>
	<g>
		<g>
			<g>
				<path class="st1" d="M26.4,130.3l5-6.8c3.1,3,6.8,5.5,11.9,5.5c5.6,0,9.5-3.6,9.5-9.9c0-6.3-3.6-9.8-9.1-9.8
					c-3.2,0-5,0.8-8.1,2.8l-4.9-3.2l1.5-26.1H61v9H41.4l-1,11.4c2.1-1,4-1.5,6.5-1.5c9,0,16.6,5.4,16.6,17.1
					c0,12-8.9,18.9-18.9,18.9C36.1,137.7,30.4,134.3,26.4,130.3z"/>
			</g>
		</g>
	</g>
	<g>
		<path class="st2" d="M100.5,86.3h1.8v10.6c0,1.4,0.9,2.7,2.2,3.3c1.3,0.5,2.9,0.2,3.9-0.8c0,0,0.1-0.1,0.1-0.1l10.6-13h45.3
			c3.9,0,7.1-3.2,7.1-7.1V43.7c0-3.9-3.2-7.1-7.1-7.1h-63.8c-3.9,0-7.1,3.2-7.1,7.1v35.5C93.4,83.1,96.6,86.3,100.5,86.3z M97,43.7
			c0-2,1.6-3.5,3.5-3.5h63.8c2,0,3.5,1.6,3.5,3.5v35.5c0,2-1.6,3.5-3.5,3.5h-46.1c0,0-0.1,0-0.1,0c-0.2,0-0.5,0.1-0.7,0.2
			c-0.1,0.1-0.2,0.1-0.3,0.2c-0.1,0.1-0.2,0.1-0.3,0.2c0,0,0,0-0.1,0.1l-11,13.5V84.5c0-1-0.8-1.8-1.8-1.8h-3.5
			c-2,0-3.5-1.6-3.5-3.5V43.7z"/>
		<path class="st1" d="M147.4,135.4c5.8-3.7,9.6-10.2,9.6-17.6c0-11.6-9.4-21-21-21s-21,9.4-21,21c0,7.3,3.7,13.7,9.4,17.5
			c-14,1.5-24.9,13.4-24.9,27.8c0,0.6,0,1.2,0.1,1.9l0.2,2.8h71.2l0.2-2.8c0-0.6,0.1-1.2,0.1-1.9
			C171.1,149.1,160.8,137.5,147.4,135.4z M121,117.8c0-8.3,6.7-15,15-15s15,6.7,15,15s-6.7,15-15,15S121,126,121,117.8z
			 M105.5,161.7c0.7-11.5,10.3-20.7,22-20.7h15.7c11.7,0,21.3,9.2,22,20.7H105.5z"/>
	</g>
</g>
</svg>
