<?xml version="1.0" encoding="iso-8859-1"?>
<!-- Generator: Adobe Illustrator 16.0.0, SVG Export Plug-In . SVG Version: 6.00 Build 0)  -->
<!DOCTYPE svg PUBLIC "-//W3C//DTD SVG 1.1//EN" "http://www.w3.org/Graphics/SVG/1.1/DTD/svg11.dtd">
<svg version="1.1" id="Capa_1" xmlns="http://www.w3.org/2000/svg" xmlns:xlink="http://www.w3.org/1999/xlink" x="0px" y="0px"
	 width="916.1px" height="916.1px" viewBox="0 0 916.1 916.1" style="enable-background:new 0 0 916.1 916.1;" xml:space="preserve"
	>
<g>
	<path style="fill:#fff;" d="M699.699,619.75c20.701,33,57.4,55,99.301,55c64.699,0,117.1-52.4,117.1-117.101c0-64.699-52.4-117.1-117.1-117.1
		s-117.1,52.4-117.1,117.1c0,1.601,0,3.2,0.1,4.801l-163.9,50.6c-11.4-24-27.199-45.6-46.299-63.6l202.398-288.2
		c15.801,6.5,33.102,10,51.201,10c74.6,0,135.1-60.5,135.1-135.1S800,1.05,725.4,1.05c-59.4,0-109.801,38.3-127.9,91.5l-126.6-13.3
		c-9.6-30-37.701-51.8-70.9-51.8c-41.101,0-74.5,33.3-74.5,74.5c0,41.2,33.3,74.5,74.5,74.5c27.699,0,51.8-15.1,64.599-37.5
		l126.6,13.3c3.4,28.5,15.602,54.3,33.9,74.5l-202.4,288.2c-28.8-14.601-61.3-22.9-95.8-22.9c-36.399,0-70.6,9.2-100.5,25.4
		l-73.4-99c8.1-12.801,12.8-28,12.8-44.301c0-45.8-37.1-82.899-82.9-82.899c-45.8,0-82.9,37-82.9,82.8s37.1,82.9,82.9,82.9
		c7.6,0,14.9-1,21.9-2.9l73.4,99.1c-38.8,38.301-62.8,91.601-62.8,150.4c0,116.8,94.7,211.5,211.5,211.5s211.5-94.7,211.5-211.5
		c0-11.3-0.9-22.4-2.6-33.2L699.699,619.75z"/>
</g>
<g>
</g>
<g>
</g>
<g>
</g>
<g>
</g>
<g>
</g>
<g>
</g>
<g>
</g>
<g>
</g>
<g>
</g>
<g>
</g>
<g>
</g>
<g>
</g>
<g>
</g>
<g>
</g>
<g>
</g>
</svg>
