<svg height="512pt" viewBox="0 0 512 512" width="512pt" xmlns="http://www.w3.org/2000/svg"><path style="fill:#fff;" d="m346 0h-180c-8.285156 0-15 6.714844-15 15v110c0 8.285156 6.714844 15 15 15h180c8.285156 0 15-6.714844 15-15v-110c0-8.285156-6.714844-15-15-15zm0 0"/><path style="fill:#fff;" d="m346 186h-180c-8.285156 0-15 6.714844-15 15v110c0 8.285156 6.714844 15 15 15h180c8.285156 0 15-6.714844 15-15v-110c0-8.285156-6.714844-15-15-15zm0 0"/><path style="fill:#fff;" d="m346 372h-180c-8.285156 0-15 6.714844-15 15v110c0 8.285156 6.714844 15 15 15h180c8.285156 0 15-6.714844 15-15v-110c0-8.285156-6.714844-15-15-15zm0 0"/><path style="fill:#fff;" d="m457 78h-60c-8.285156 0-15 6.714844-15 15s6.714844 15 15 15h60c13.785156 0 25 11.214844 25 25v60c0 13.785156-11.214844 25-25 25h-23.785156l14.390625-14.394531c5.859375-5.855469 5.859375-15.355469 0-21.210938-5.855469-5.859375-15.355469-5.859375-21.210938 0l-40 40c-5.859375 5.855469-5.859375 15.351563 0 21.210938l40 40c2.925781 2.929687 6.765625 4.394531 10.605469 4.394531s7.679688-1.464844 10.605469-4.394531c5.859375-5.855469 5.859375-15.355469 0-21.210938l-14.390625-14.394531h23.785156c30.328125 0 55-24.671875 55-55v-60c0-30.328125-24.671875-55-55-55zm0 0"/><path style="fill:#fff;" d="m85.605469 368.394531c-5.855469-5.859375-15.355469-5.859375-21.210938 0-5.859375 5.855469-5.859375 15.355469 0 21.210938l14.390625 14.394531h-23.785156c-13.785156 0-25-11.214844-25-25v-60c0-13.785156 11.214844-25 25-25h60c8.285156 0 15-6.714844 15-15s-6.714844-15-15-15h-60c-30.328125 0-55 24.671875-55 55v60c0 30.328125 24.671875 55 55 55h23.785156l-14.390625 14.394531c-5.859375 5.855469-5.859375 15.355469 0 21.210938 2.925781 2.929687 6.765625 4.394531 10.605469 4.394531s7.679688-1.464844 10.605469-4.394531l40-40c5.859375-5.855469 5.859375-15.355469 0-21.210938zm0 0"/></svg>