<?xml version="1.0" encoding="utf-8"?>
<!-- Generator: Adobe Illustrator 21.1.0, SVG Export Plug-In . SVG Version: 6.00 Build 0)  -->
<svg version="1.1" id="Capa_1" xmlns="http://www.w3.org/2000/svg" xmlns:xlink="http://www.w3.org/1999/xlink" x="0px" y="0px"
	 viewBox="0 0 222 222" style="enable-background:new 0 0 222 222;" xml:space="preserve">
<style type="text/css">
	.st0{fill:#FFFFFF;}
	.st1{fill:#89D4F2;}
	.st2{fill:#666666;}
</style>
<g>
	<g>
		<circle class="st0" cx="110.4" cy="111.4" r="108.7"/>
	</g>
	<g>
		<path class="st1" d="M152.2,163.1c-0.4,0-0.8-0.1-1.2-0.2c-1.5-0.6-2.2-2.4-1.6-3.9l4.7-11c0.6-1.5,2.4-2.2,3.9-1.6
			c1.5,0.6,2.2,2.4,1.6,3.9l-4.7,11C154.5,162.4,153.3,163.1,152.2,163.1z M145.2,162.1c-0.8,0-1.5-0.3-2.1-0.9l-8.5-8.5
			c-1.2-1.2-1.2-3.1,0-4.2c1.2-1.2,3.1-1.2,4.2,0l8.5,8.5c1.2,1.2,1.2,3.1,0,4.2C146.7,161.8,145.9,162.1,145.2,162.1z M128.2,145.2
			c-0.8,0-1.5-0.3-2.1-0.9l-8.5-8.5c-1.2-1.2-1.2-3.1,0-4.2c1.2-1.2,3.1-1.2,4.2,0l8.5,8.5c1.2,1.2,1.2,3.1,0,4.2
			C129.7,144.9,129,145.2,128.2,145.2z M161.5,141c-0.4,0-0.8-0.1-1.2-0.2c-1.5-0.6-2.2-2.4-1.6-3.9l4.7-11c0.6-1.5,2.4-2.2,3.9-1.6
			c1.5,0.6,2.2,2.4,1.6,3.9l-4.7,11C163.8,140.3,162.7,141,161.5,141z M34.9,135.8c-0.8,0-1.5-0.3-2.1-0.9c-1.2-1.2-1.2-3.1,0-4.2
			l8.5-8.5c1.2-1.2,3.1-1.2,4.2,0c1.2,1.2,1.2,3.1,0,4.2L37,135C36.4,135.5,35.6,135.8,34.9,135.8z M111.2,128.2
			c-0.8,0-1.5-0.3-2.1-0.9l-8.5-8.5c-1.2-1.2-1.2-3.1,0-4.2c1.2-1.2,3.1-1.2,4.2,0l8.5,8.5c1.2,1.2,1.2,3.1,0,4.2
			C112.8,127.9,112,128.2,111.2,128.2z M170.9,118.9c-0.4,0-0.8-0.1-1.2-0.2c-1.5-0.6-2.2-2.4-1.6-3.9l4.7-11
			c0.6-1.5,2.4-2.2,3.9-1.6c1.5,0.6,2.2,2.4,1.6,3.9l-4.7,11C173.2,118.2,172.1,118.9,170.9,118.9z M51.8,118.9
			c-0.8,0-1.5-0.3-2.1-0.9c-1.2-1.2-1.2-3.1,0-4.2l8.5-8.5c1.2-1.2,3.1-1.2,4.2,0c1.2,1.2,1.2,3.1,0,4.2l-8.5,8.5
			C53.4,118.6,52.6,118.9,51.8,118.9z M94.2,111.2c-0.8,0-1.5-0.3-2.1-0.9l-8.5-8.5c-1.2-1.2-1.2-3.1,0-4.2c1.2-1.2,3.1-1.2,4.2,0
			l8.5,8.5c1.2,1.2,1.2,3.1,0,4.2C95.8,110.9,95,111.2,94.2,111.2z M68.8,101.9c-0.8,0-1.5-0.3-2.1-0.9c-1.2-1.2-1.2-3.1,0-4.2
			l8.1-8.1c1.2-1.2,3.1-1.2,4.2,0l0.4,0.4c1.2,1.2,1.2,3.1,0,4.2c-0.5,0.5-1.1,0.8-1.7,0.8l-6.8,6.8
			C70.3,101.6,69.6,101.9,68.8,101.9z M180.3,96.8c-0.4,0-0.8-0.1-1.2-0.2c-1.5-0.6-2.2-2.4-1.6-3.9l4.7-11c0.6-1.5,2.4-2.2,3.9-1.6
			c1.5,0.6,2.2,2.4,1.6,3.9l-4.7,11C182.5,96.1,181.4,96.8,180.3,96.8z"/>
	</g>
	<g>
		<g>
			<circle class="st2" cx="36.6" cy="131.6" r="15"/>
		</g>
		<g>
			<path class="st0" d="M36.6,148.6c-9.4,0-17-7.6-17-17s7.6-17,17-17c9.4,0,17,7.6,17,17S45.9,148.6,36.6,148.6z M36.6,118.6
				c-7.2,0-13,5.8-13,13s5.8,13,13,13c7.2,0,13-5.8,13-13S43.7,118.6,36.6,118.6z"/>
		</g>
	</g>
	<g>
		<g>
			<circle class="st2" cx="75.4" cy="91.8" r="10.6"/>
		</g>
		<g>
			<path class="st0" d="M75.4,104.4c-6.9,0-12.6-5.6-12.6-12.6s5.6-12.6,12.6-12.6S88,84.8,88,91.8S82.4,104.4,75.4,104.4z
				 M75.4,83.2c-4.7,0-8.6,3.9-8.6,8.6s3.9,8.6,8.6,8.6s8.6-3.9,8.6-8.6S80.2,83.2,75.4,83.2z"/>
		</g>
	</g>
	<g>
		<g>
			<circle class="st2" cx="150.6" cy="161.1" r="15"/>
		</g>
		<g>
			<path class="st0" d="M150.6,178.1c-9.4,0-17-7.6-17-17c0-9.4,7.6-17,17-17s17,7.6,17,17C167.6,170.5,159.9,178.1,150.6,178.1z
				 M150.6,148.1c-7.2,0-13,5.8-13,13s5.8,13,13,13s13-5.8,13-13S157.7,148.1,150.6,148.1z"/>
		</g>
	</g>
	<g>
		<g>
			<circle class="st2" cx="180.7" cy="88" r="10.6"/>
		</g>
		<g>
			<path class="st0" d="M180.7,100.6c-7,0-12.6-5.7-12.6-12.6s5.7-12.6,12.6-12.6s12.6,5.7,12.6,12.6S187.6,100.6,180.7,100.6z
				 M180.7,79.4c-4.7,0-8.6,3.9-8.6,8.6s3.9,8.6,8.6,8.6c4.7,0,8.6-3.9,8.6-8.6S185.4,79.4,180.7,79.4z"/>
		</g>
	</g>
</g>
</svg>
