<?xml version="1.0" encoding="UTF-8"?>
<svg id="ico-denuncia" xmlns="http://www.w3.org/2000/svg" version="1.1" xmlns:xlink="http://www.w3.org/1999/xlink" viewBox="0 0 420 250">
  <defs>
    <style>
      .cls-1 {
        fill: none;
        stroke: #825374;
        stroke-width: 2px;
      }

      .cls-2 {
        fill: url(#Degradado_sin_nombre_3);
      }

      .cls-2, .cls-3, .cls-4, .cls-5, .cls-6, .cls-7 {
        stroke-width: 0px;
      }

      .cls-3 {
        fill: #7b3e7c;
      }

      .cls-4 {
        fill: url(#Degradado_sin_nombre_39);
      }

      .cls-5 {
        fill: url(#Degradado_sin_nombre_4);
      }

      .cls-6 {
        fill: url(#Degradado_sin_nombre_18);
      }

      .cls-7 {
        fill: url(#Degradado_sin_nombre_2);
      }
    </style>
    <linearGradient id="Degradado_sin_nombre_39" data-name="Degradado sin nombre 39" x1="-94.3" y1="520.9" x2="-94.3" y2="519.9" gradientTransform="translate(39805 130230) scale(420 -250)" gradientUnits="userSpaceOnUse">
      <stop offset="0" stop-color="#ebe3eb"/>
      <stop offset="1" stop-color="#f8f2f8"/>
    </linearGradient>
    <linearGradient id="Degradado_sin_nombre_2" data-name="Degradado sin nombre 2" x1="-93.8" y1="519.8" x2="-93.8" y2="518.8" gradientTransform="translate(12165.4 62463.5) scale(128 -120)" gradientUnits="userSpaceOnUse">
      <stop offset="0" stop-color="#6d4061"/>
      <stop offset=".5" stop-color="#6a4264"/>
      <stop offset="1" stop-color="#1d3546"/>
    </linearGradient>
    <linearGradient id="Degradado_sin_nombre_3" data-name="Degradado sin nombre 3" x1="-92.7" y1="518.6" x2="-92.7" y2="517.6" gradientTransform="translate(4906.4 40911.7) scale(52 -78.6)" gradientUnits="userSpaceOnUse">
      <stop offset="0" stop-color="#6d4061"/>
      <stop offset=".5" stop-color="#6a4264"/>
      <stop offset="1" stop-color="#1d3546"/>
    </linearGradient>
    <linearGradient id="Degradado_sin_nombre_4" data-name="Degradado sin nombre 4" x1="-89.6" y1="514.1" x2="-89.6" y2="513.1" gradientTransform="translate(1780.2 17695.9) scale(19.3 -34.1)" gradientUnits="userSpaceOnUse">
      <stop offset="0" stop-color="#6d4061"/>
      <stop offset=".5" stop-color="#6a4264"/>
      <stop offset="1" stop-color="#1d3546"/>
    </linearGradient>
    <linearGradient id="Degradado_sin_nombre_18" data-name="Degradado sin nombre 18" x1="-93.3" y1="520.4" x2="-93.3" y2="519.4" gradientTransform="translate(7458.8 88958.6) scale(77.4 -170.9)" gradientUnits="userSpaceOnUse">
      <stop offset="0" stop-color="#1c7cbf"/>
      <stop offset="1" stop-color="#a949c9" stop-opacity=".6"/>
    </linearGradient>
  </defs>
  <g id="Rectángulo_33" data-name="Rectángulo 33">
    <rect class="cls-4" y="0" width="420" height="250" rx="50" ry="50"/>
    <rect class="cls-1" x="2.5" y="2.5" width="415" height="245" rx="47.5" ry="47.5"/>
  </g>
  <g id="Grupo_52" data-name="Grupo 52">
    <path id="Trazado_105" data-name="Trazado 105" class="cls-7" d="M193.1,82.9c0,12.2,1.5,24.4,4.4,36.3,2.2,9.6,4.8,19.2,7.9,28.5,3.3,9.1,7.1,18,11.4,26.6,3.1,6.4,7.2,12.4,10.9,18.5.2.4.3.8.5,1.2-.4.1-.9.1-1.3,0-8.8-3.1-17.9-5.4-27.1-6.8-5.7-1-11.4-1.6-17.1-2.1-5.8-.5-11.7-.7-17.5-.5-13.1.4-26.1,1.6-38.8,4.8-2.6.7-5.3.9-7.9,1.6-1.1.4-2.4,0-2.9-1.1-4.6-6.4-8.3-13.4-10.9-20.8-3.3-9.7-4.7-19.9-4.2-30.1,0-1.9.6-2.7,2.5-3.4,9.3-3.3,18.7-6.6,27.3-11.6,6.9-4,14.1-7.5,20.7-12,15.4-10.3,29.2-22.4,40.6-37.1.3-.3.7-.6,1.1-.8.3.5.5,1,.6,1.5,0,2.4,0,4.8,0,7.2"/>
    <path id="Trazado_106" data-name="Trazado 106" class="cls-2" d="M92.3,135.1c0,3.3-.1,6.5,0,9.8.3,11.1,2.7,22.1,7.1,32.4,2.9,7.1,6.8,13.7,11.6,19.6.4.5.7,1.1,1,1.8,1,2.4.7,2.9-1.7,3.6-7.9,2.3-15.9,4.6-23.8,7-2.3.7-3.8.5-5.5-1.3-9.6-10.7-16.2-23.7-19-37.8-1.5-8-1.8-16.2-1-24.4.5-4.9,2.4-7.3,7.3-8.3,6.9-1.5,13.6-3.9,20.4-5.9,3.6-1,4.1-.5,3.5,3.6"/>
    <path id="Trazado_110" data-name="Trazado 110" class="cls-5" d="M43,168.9c0-2,.4-3.3,2.7-3.6,1.6-.3,3.2-.8,4.7-1.4,2.4-.8,2.9-.5,3.4,2.2.4,3.1,1.1,6.2,1.8,9.3,1.9,6.1,4.1,12.2,6.4,18.1.6,1.5.3,1.9-1,2.2-1.4.3-2.8.6-4.2,1-4.3,1.5-4.3,1.6-6.6-2.4-3.6-6.5-5.8-13.6-6.6-21-.2-1.4-.4-2.9-.6-4.3"/>
    <path id="Trazado_148" data-name="Trazado 148" class="cls-3" d="M332,35.4c-.7,1-1.2,2.4-2.1,3.1-7.6,5.7-15.3,11.2-22.9,16.8-3,2.2-6,4.5-9,6.7-2.4,1.7-4.7,1.5-6.1-.3-1.5-1.9-1.1-4.5,1.3-6.3,5.4-4.1,11-8,16.5-12,4.9-3.6,9.8-7.3,14.7-10.9.9-.7,2-1.1,3.1-1.2,2.7-.3,4.1,1.2,4.5,4.2"/>
    <path id="Trazado_149" data-name="Trazado 149" class="cls-3" d="M320.8,107c-3.5,0-4.7-1-5.1-3.4-.4-2,.8-4,2.9-4.5,0,0,0,0,0,0,8.3-2.4,16.6-4.8,24.9-7.2,4-1.2,7.9-2.5,11.8-3.6,1.9-.5,4-1.3,5.8.2,2.8,2.4,1.8,6-2,7.4-2.1.8-4.3,1.2-6.4,1.8-7.5,2.2-15.1,4.5-22.6,6.8-3.4,1-6.8,1.9-9.4,2.6"/>
    <path id="Trazado_150" data-name="Trazado 150" class="cls-3" d="M324.4,149.4c9.6.7,19.9,1.4,30.1,2.1,2.8.2,5.6.1,8.4.2,2.1,0,3.4,1.3,4.2,3,.8,1.4.3,3.2-1.1,4.1-1.6.9-3.3,1.3-5.1,1.2-3.8,0-7.7-.6-11.5-.9-8.9-.6-17.8-1.1-26.8-1.7-2.6-.2-3.8-1.5-3.9-4,0-2.2,1.8-3.9,4-4,.3,0,.6,0,1.5,0"/>
    <path id="Trazado_151" data-name="Trazado 151" class="cls-6" d="M270.5,116.9c-13.8-46.9-38.2-81.1-54.5-76.3-13.4,3.9-17.2,33-10.5,69.3,11.8-5.6,26-.6,31.6,11.2,5.6,11.8.6,26-11.2,31.6-2.4,1.1-4.9,1.9-7.5,2.2,14,35.9,33.7,59.7,47.5,55.7,16.3-4.8,18.4-46.7,4.7-93.7"/>
    <path id="Trazado_152" data-name="Trazado 152" class="cls-3" d="M149.4,193.5c1.3-.3,1.4,1.1,1.7,2.2,1.7,5.7,3.3,11.5,5,17.2,3,10.2,6,20.3,9,30.5.9,3,1.6,4.2-1.8,4.2-2.7,0-4.4,0-7.7,0-3.8-.2-4-.3-4.4-2-1.3-4.6-2.1-6.9-3.5-11.5-3.6-12.2-7.2-24.4-10.8-36.6-.5-1.7-.2-2.5,1.8-2.6,3.5-.3,6.9-.9,10.8-1.4"/>  </g>
</svg>