<svg id="Capa_1" data-name="Capa 1" xmlns="http://www.w3.org/2000/svg" viewBox="0 0 82.35 62.3"><defs><style>.cls-1{fill:#afacb3;}.cls-2{fill:#c3bdcb;}.cls-3{fill:#3e5866;}.cls-4{fill:#93c7ef;}.cls-5{fill:#cce9f9;}.cls-6{fill:#5b747f;}.cls-7{fill:#3bb1e6;}</style></defs><path class="cls-1" d="M52.51,56l0,.19,0-.19Z"/><path class="cls-2" d="M46,39.38v-.16a.37.37,0,0,1,0,.11S46,39.36,46,39.38Z"/><path class="cls-3" d="M14.21,52.2H7.35l1.72-8.05h-5a4.86,4.86,0,0,1,.39-2.93,26.66,26.66,0,0,1,4.21-6.85c.14-.19.29-.37.51-.65H3.91a18.71,18.71,0,0,1,.4-2.45,13.49,13.49,0,0,1,3.83-5.66c1.1-1.06,2.3-2,3.51-3L6.7,21.31c2.58-4.69,7-6.77,11.67-8.57l-5.31-1.87a5.32,5.32,0,0,1,3.55-2.94,20.2,20.2,0,0,1,8.08-.52c1,.08,2.1.25,3.35.41L24.12,4a8.79,8.79,0,0,1,6.62-.46,20.65,20.65,0,0,1,6.15,2.9l.85.57V3A15.67,15.67,0,0,1,50.19,8.88V4.36a15.59,15.59,0,0,1,11,9.05c1-1.08,1.3-1.19,2.46-2.39,3.31,4,4.13,8.56,4.44,13.29-.23,0-2.77,0-3,0-.57-3.17.09-3.9-.21-6.73-1,1-2.29,1.93-3.21,2.86-3.34-4.64-3.08-8-7.5-9.32,0,1.39.12,3.26.12,4.65-.7-.72-7-5.9-10-6.12-1.06-.07-1.06,0-1.06,1,0,.75.23,2.52.23,3.33-.22-.07-5.55-3.78-8.21-4.16a6.85,6.85,0,0,0-4.15.81c1.19,1.17,3,2.46,4.09,3.54-.84-.11-2.64-.48-3.45-.56a18.32,18.32,0,0,0-6.72.39c-1.51.4-2.68.71-3.34,2.45,1.5.53,3,1.12,4.64,1.7-4.16,1.59-7.88,3.48-10.15,7.53,1.51.4,3,.61,4.48,1-4.55,2.67-7.35,8.69-7.1,9.83,1.48,0,3.55-.06,5.12-.06-.17.23-3.15,2.94-4,5.39a38.14,38.14,0,0,0-1.45,3.83c1.62,0,7.27-1.15,8.8-1.15a22.4,22.4,0,0,0-5,2.91c-.57.57-1.31,1.12-1.43,1.91C15.29,50.31,14.5,51.27,14.21,52.2Z"/><path class="cls-4" d="M14.21,52.2l.87-2.78a11,11,0,0,1,6.6-4.66,29.41,29.41,0,0,1,7.44-1.14,65.8,65.8,0,0,1,11.74.54c2.25.31,4.49.64,6.8,1A7.35,7.35,0,0,1,47.14,44c-.4-1.46-.77-2.92-1.14-4.38.1.09.24.16.3.28a6.78,6.78,0,0,0,2.39,2.57,18.73,18.73,0,0,0,9.61,2.81,33.05,33.05,0,0,0,8.87-.56,21,21,0,0,0,7.53-2.87,13.22,13.22,0,0,0,1.45-1.26l1,.36A33.21,33.21,0,0,1,75,45a17.05,17.05,0,0,1-11.45,7,33.63,33.63,0,0,1-3.77.2c-2.19,0-4.39,0-6.59,0-.52,0-.73.13-.71.69,0,1,0,2.07,0,3.11l0,.19,0-.19.13.46a4.32,4.32,0,0,0-.36.58,3.82,3.82,0,0,1-3.63,2.31,3.75,3.75,0,0,1-3.36-2.85,10.53,10.53,0,0,1-.06-2c0-.72,0-1.44,0-2.25h-23c-.29,0-.7-.11-.67.4.07,1.29.17,2.57.25,3.85a3.62,3.62,0,0,0-.37.53,3.81,3.81,0,0,1-3.72,2.35,3.6,3.6,0,0,1-3.3-3.22C14.24,54.81,14.25,53.5,14.21,52.2Z"/><path class="cls-5" d="M76.15,40.62a13.22,13.22,0,0,1-1.45,1.26,21,21,0,0,1-7.53,2.87,33.05,33.05,0,0,1-8.87.56,18.73,18.73,0,0,1-9.61-2.81,6.78,6.78,0,0,1-2.39-2.57c-.06-.12-.2-.19-.3-.28v-.27s0,0,0-.05a.37.37,0,0,0,0-.11c0-.66,0-1.31,0-2a.74.74,0,0,0-.5-.83,4.84,4.84,0,1,1,4.26-8.7.75.75,0,0,0,1-.12,12.17,12.17,0,0,1,5.73-2.84,22.42,22.42,0,0,1,3.47-.35c2.49-.09,5-.1,7.49-.14l.68,0a10.82,10.82,0,0,0,4.26,8.39,13.45,13.45,0,0,0-.22,2.51A6.31,6.31,0,0,0,76.15,40.62Z"/><path class="cls-6" d="M21.75,56.44c-.08-1.28-.18-2.56-.25-3.85,0-.51.38-.4.67-.4h6.75c0,1.37,0,2.76-.15,4.12a3.54,3.54,0,0,1-3.46,2.95A3.6,3.6,0,0,1,21.75,56.44Z"/><path class="cls-6" d="M52.51,56c0-1,0-2.08,0-3.11,0-.56.19-.69.71-.69,2.2,0,4.4,0,6.59,0,0,1.18,0,2.37,0,3.56a3.65,3.65,0,0,1-3.5,3.5,3.6,3.6,0,0,1-3.64-2.82c0-.15-.08-.31-.13-.46Z"/><path class="cls-7" d="M75,41a6.32,6.32,0,0,1-4-5.41,5.17,5.17,0,0,1,1.4-2.88c1.3.56,2.58,1.18,3.91,1.65a10.69,10.69,0,0,0,2.19.32,16.84,16.84,0,0,1-1.14,6.17c0,.06-.11.09-.16.14A2.91,2.91,0,0,1,75,41Z"/><path class="cls-7" d="M66.69,24.27c-2.5,0-4.3.06-6.79.15a22.42,22.42,0,0,0-3.47.35,12.17,12.17,0,0,0-5.73,2.84.75.75,0,0,1-1,.12,4.84,4.84,0,1,0-4.26,8.7c.4.19.59.42.5.83-.25,1.09,1.86,8,2.2,8.06-2.31-.33-5.07-.85-7.32-1.16a65.8,65.8,0,0,0-11.74-.54,29.41,29.41,0,0,0-7.44,1.14c-2.71.83-2.09,1.22-3.84.94-1.53,0-3.14.12-4.76.12a15.87,15.87,0,0,1,.63-2.3A20.91,20.91,0,0,1,17.65,37l.33-.41h-4.5c-.52-3.27,5.17-9.48,6.9-9.74-1.46-.39-3.07-.75-4.58-1.15,2.27-4.05,6-5.89,10.21-7.47L21.4,16.56c.66-1.74,2.1-2.33,3.6-2.73a18.62,18.62,0,0,1,6.82-.24c.81.08,1.62.19,2.45.3l-3.39-3.31A6.81,6.81,0,0,1,35,9.76c2.67.38,7.7,3.22,7.92,3.3V10.74c0-1.05-.06-1.39,1-1.31A13.54,13.54,0,0,1,52,13c.59.53,1.12,1.13,1.82,1.84v-4c4.72,1.23,7,4.74,8.79,8.62l2.82-2.86A37.5,37.5,0,0,1,66.69,24.27Z"/><path class="cls-3" d="M61.13,31A2.85,2.85,0,0,1,64,33.77a2.84,2.84,0,0,1-5.68,0A2.84,2.84,0,0,1,61.13,31Z"/></svg>