<?xml version="1.0" encoding="iso-8859-1"?>
<!-- Generator: Adobe Illustrator 21.0.0, SVG Export Plug-In . SVG Version: 6.00 Build 0)  -->
<svg version="1.1" id="Layer_1" xmlns="http://www.w3.org/2000/svg" xmlns:xlink="http://www.w3.org/1999/xlink" x="0px" y="0px"
	 viewBox="0 0 174.125 178.5" style="enable-background:new 0 0 174.125 178.5;" xml:space="preserve">
<g>
	<g>
		<defs>
			<circle id="SVGID_1_" cx="87.062" cy="89.25" r="85"/>
		</defs>
		<use xlink:href="#SVGID_1_"  style="overflow:visible;fill:#F2F2F2;"/>
		<clipPath id="SVGID_2_">
			<use xlink:href="#SVGID_1_"  style="overflow:visible;"/>
		</clipPath>
		<path style="clip-path:url(#SVGID_2_);fill:#606060;" d="M135.298,137.655l-23.865-5.968l-1.377-5.513
			c16.464-2.772,24.935-7.706,25.31-7.924c0.885-0.517,1.433-1.457,1.507-2.479c0.068-1.021-0.386-2.025-1.19-2.666
			c-0.112-0.087-11.244-9.281-11.244-41.138c0-26.867-6.285-40.49-18.688-40.49h-1.838c-4.473-4.323-7.83-6.229-16.85-6.229
			c-11.705,0-37.376,11.767-37.376,46.72c0,31.856-11.131,41.051-11.213,41.113c-0.829,0.623-1.296,1.613-1.246,2.647
			c0.056,1.04,0.616,1.975,1.507,2.51c0.374,0.225,8.765,5.183,25.328,7.948l-1.377,5.5l-23.865,5.968
			c-15.61,3.905-26.512,17.872-26.512,33.981c0,1.719,1.395,3.114,3.114,3.114h143.274c1.719,0,3.114-1.408,3.114-3.127
			C161.816,155.526,150.914,141.56,135.298,137.655z"/>
	</g>
</g>
<g>
</g>
<g>
</g>
<g>
</g>
<g>
</g>
<g>
</g>
<g>
</g>
</svg>
