<?xml version="1.0" encoding="iso-8859-1"?>
<!-- Generator: Adobe Illustrator 21.0.0, SVG Export Plug-In . SVG Version: 6.00 Build 0)  -->
<svg version="1.1" id="Layer_1" xmlns="http://www.w3.org/2000/svg" xmlns:xlink="http://www.w3.org/1999/xlink" x="0px" y="0px"
	 viewBox="0 0 60 60" style="enable-background:new 0 0 60 60;" xml:space="preserve">
<g>
	<circle style="fill:#FFFFFF;" cx="30" cy="30" r="30"/>
	<g>
		<g>
			<path style="fill:#666666;" d="M34.782,25.482c-1.437,0-2.607-1.169-2.607-2.607c0-1.437,1.169-2.607,2.607-2.607
				c1.437,0,2.607,1.169,2.607,2.607C37.388,24.313,36.219,25.482,34.782,25.482z M34.782,21.109c-0.974,0-1.766,0.792-1.766,1.766
				c0,0.974,0.792,1.766,1.766,1.766c0.974,0,1.766-0.792,1.766-1.766C36.548,21.901,35.756,21.109,34.782,21.109z"/>
		</g>
		<g>
			<path style="fill:#666666;" d="M39.065,29h-8.747l-0.026-0.392c-0.005-0.076-0.009-0.153-0.009-0.231
				c0-1.906,1.551-3.457,3.457-3.457h1.902c1.906,0,3.457,1.551,3.457,3.457c0,0.077-0.003,0.154-0.009,0.23L39.065,29z
				 M31.132,28.16h7.118c-0.111-1.341-1.238-2.399-2.608-2.399H33.74C32.37,25.761,31.243,26.818,31.132,28.16z"/>
		</g>
	</g>
	<g>
		<g>
			<path style="fill:#666666;" d="M34.623,11c-7.927,0-14.377,6.449-14.377,14.377c0,2.895,0.863,5.591,2.341,7.85l-9.854,9.854
				c-1.352,1.352-1.352,3.553,0,4.905C13.41,48.662,14.298,49,15.186,49c0.888,0,1.777-0.338,2.453-1.014l8.276-8.627
				c0.361-0.361,0.361-0.948,0-1.309c-0.362-0.361-0.947-0.361-1.309,0l-8.276,8.627c-0.631,0.631-1.657,0.631-2.288,0
				c-0.631-0.631-0.631-1.657,0-2.288l9.668-9.668c2.639,3.077,6.55,5.032,10.912,5.032c7.927,0,14.377-6.449,14.377-14.377
				C48.999,17.449,42.55,11,34.623,11z M34.623,38.087c-7.009,0-12.711-5.702-12.711-12.711c0-7.009,5.702-12.711,12.711-12.711
				c7.009,0,12.711,5.702,12.711,12.711C47.333,32.385,41.631,38.087,34.623,38.087z"/>
		</g>
	</g>
	<g>
		<path style="fill:#34B3EB;" d="M34.623,35.508c-5.618,0-10.188-4.571-10.188-10.188s4.571-10.188,10.188-10.188
			s10.188,4.571,10.188,10.188S40.241,35.508,34.623,35.508z M34.623,17.585c-4.265,0-7.734,3.47-7.734,7.734
			s3.47,7.734,7.734,7.734s7.734-3.47,7.734-7.734S38.888,17.585,34.623,17.585z"/>
	</g>
</g>
<g>
</g>
<g>
</g>
<g>
</g>
<g>
</g>
<g>
</g>
<g>
</g>
<g>
</g>
<g>
</g>
<g>
</g>
<g>
</g>
<g>
</g>
<g>
</g>
<g>
</g>
<g>
</g>
<g>
</g>
</svg>
