<svg id="Capa_1" data-name="Capa 1" xmlns="http://www.w3.org/2000/svg" viewBox="0 0 76 66.8"><defs><style>.cls-1{fill:#afacb3;}.cls-2{fill:#c3bdcb;}.cls-3{fill:#3e5866;}.cls-4{fill:#cce9f9;}.cls-5{fill:#5b747f;}.cls-6{fill:#3bb1e6;}.cls-7{fill:#93c7ef;}.cls-8{fill:#dcb92b;}.cls-9{fill:#f9e28e;}.cls-10{fill:#f6e8a8;}</style></defs><path class="cls-1" d="M48.6,55.71l-.06.19.06-.19Z"/><path class="cls-2" d="M42.08,39.12V39a.37.37,0,0,1,0,.11S42.1,39.1,42.08,39.12Z"/><path class="cls-3" d="M10.29,51.94H3.44l1.72-8h-5A4.72,4.72,0,0,1,.57,41a26.35,26.35,0,0,1,4.2-6.85l.52-.65H0A17.21,17.21,0,0,1,.39,31a13.51,13.51,0,0,1,3.84-5.66c1.09-1.05,2.29-2,3.51-3L2.79,21.05c2.57-4.69,6.94-6.77,11.67-8.56L9.15,10.61A5.32,5.32,0,0,1,12.7,7.67a20.16,20.16,0,0,1,8.07-.52c1.05.08,2.1.25,3.35.41L20.2,3.69a8.81,8.81,0,0,1,6.63-.46A20.71,20.71,0,0,1,33,6.13l.85.58v-4A15.65,15.65,0,0,1,46.27,8.62V4.1a15.63,15.63,0,0,1,11,9.05c1.05-1.08,1.29-1.19,2.46-2.39,3.3,4,4.12,8.56,4.43,13.29-.22,0-2.77,0-3,0-.57-3.17.08-3.9-.21-6.73-1,1-2.3,1.93-3.22,2.86-3.33-4.64-3.07-8-7.5-9.32,0,1.39.12,3.26.12,4.65-.7-.72-7-5.89-10-6.12-1.06-.07-1.07,0-1.07,1,0,.76.24,2.52.24,3.33C39.29,13.7,34,10,31.31,9.61a6.88,6.88,0,0,0-4.16.81c1.2,1.17,3,2.46,4.09,3.54-.83-.11-2.64-.48-3.45-.56a18.35,18.35,0,0,0-6.72.39c-1.5.4-2.67.71-3.34,2.45,1.5.53,3,1.12,4.65,1.7-4.16,1.59-7.88,3.49-10.15,7.53,1.51.4,3,.61,4.47,1-4.55,2.67-7.34,8.69-7.09,9.83,1.47,0,3.55-.06,5.12-.06-.18.23-3.15,2.94-4,5.39-.23.65-1.3,3-1.45,3.83,1.62,0,7.27-1.15,8.8-1.15a22.63,22.63,0,0,0-5,2.91c-.56.57-1.3,1.12-1.43,1.91C11.37,50.06,10.58,51,10.29,51.94Z"/><path class="cls-4" d="M72.23,40.37a13,13,0,0,1-1.44,1.25,21.06,21.06,0,0,1-7.53,2.88,33.51,33.51,0,0,1-8.88.55,18.76,18.76,0,0,1-9.61-2.81,6.75,6.75,0,0,1-2.38-2.57c-.06-.12-.2-.19-.31-.28v-.27s.05,0,0,0a.37.37,0,0,0,0-.11c0-.66,0-1.31,0-2a.75.75,0,0,0-.49-.83,4.84,4.84,0,1,1,4.26-8.7.75.75,0,0,0,1-.12,12.08,12.08,0,0,1,5.73-2.84A22.29,22.29,0,0,1,56,24.16c2.5-.09,5-.1,7.49-.14l.68,0a10.88,10.88,0,0,0,4.26,8.39A14.36,14.36,0,0,0,68.19,35,6.34,6.34,0,0,0,72.23,40.37Z"/><path class="cls-5" d="M17.84,56.19c-.09-1.29-.18-2.57-.26-3.86,0-.51.38-.4.68-.4H25c-.05,1.37,0,2.76-.16,4.12a3.53,3.53,0,0,1-3.45,3A3.59,3.59,0,0,1,17.84,56.19Z"/><path class="cls-5" d="M48.6,55.71c0-1,0-2.07,0-3.11,0-.56.18-.69.71-.69,2.19,0,4.39,0,6.59,0,0,1.18,0,2.37,0,3.56A3.66,3.66,0,0,1,52.36,59a3.59,3.59,0,0,1-3.63-2.82l-.13-.46Z"/><path class="cls-6" d="M71.06,40.73a6.29,6.29,0,0,1-4-5.41,5.08,5.08,0,0,1,1.39-2.88c1.31.56,2.59,1.18,3.92,1.65a10.59,10.59,0,0,0,2.19.32,16.85,16.85,0,0,1-1.15,6.17c0,.06-.1.09-.16.14A2.88,2.88,0,0,1,71.06,40.73Z"/><path class="cls-6" d="M62.77,24c-2.5,0-4.29.06-6.79.15a22.29,22.29,0,0,0-3.46.35,12.08,12.08,0,0,0-5.73,2.84.75.75,0,0,1-1,.12,4.84,4.84,0,1,0-4.26,8.7c.39.19.59.42.49.83-.25,1.09,1.87,8,2.2,8.06C42,44.73,39.19,44.22,37,43.9a65.89,65.89,0,0,0-11.74-.54,29.27,29.27,0,0,0-7.44,1.14c-2.71.83-2.1,1.22-3.84.94-1.53,0-3.15.12-4.77.12a15.83,15.83,0,0,1,.64-2.3,20.75,20.75,0,0,1,3.94-6.55l.32-.42H9.56C9,33,14.73,26.82,16.46,26.55c-1.45-.39-3.07-.75-4.58-1.15,2.27-4,6-5.89,10.21-7.47L17.48,16.3c.66-1.74,2.1-2.32,3.6-2.73a18.67,18.67,0,0,1,6.83-.24c.81.08,1.61.2,2.44.3L27,10.32a6.86,6.86,0,0,1,4.15-.82c2.66.38,7.69,3.22,7.92,3.3V10.48c0-1.05-.07-1.39,1-1.31a13.49,13.49,0,0,1,8.08,3.61c.59.53,1.12,1.13,1.82,1.84v-4c4.72,1.23,7,4.74,8.79,8.62l2.82-2.86A36.91,36.91,0,0,1,62.77,24Z"/><path class="cls-3" d="M57.22,30.69a2.85,2.85,0,0,1,2.85,2.82,2.84,2.84,0,0,1-5.67,0A2.83,2.83,0,0,1,57.22,30.69Z"/><path class="cls-6" d="M38.18,58.72s0,0,0,0l.09-.34h0a2.87,2.87,0,0,1,1.9-1.65v0l.14,0h0l.21,0v0l.18,0,21.54.56c.39,0,.51-.13.5-.47h0a16.85,16.85,0,0,1,1.24-2,5.18,5.18,0,0,1,3.28-1.66l0,0,0,0H69l.94,0h.66l.93.06.21,0h0l.33.07h0a16.25,16.25,0,0,1,1.68.81,5.36,5.36,0,0,1,2.18,3c0,.12,0,.24.07.48l-6.71-.22c0,1.61-.07,3.21-.12,4.81,0,.26.11.29.32.23h.14v0h.26l0,0v0l.52,0h.14v0h.12v0h.13v0h.27v0h.13v0h.13v0h.13v0h.13v0h.13v0h.13v0h.26v0h.27l.92,0h.54v0H74v0h.53v0h.13v0H75v0h.13v0h.12v0h.13v0h.13v0h.13v0l.19.29h0l0,.14,0,0h0l-.15.42a0,0,0,0,0,0,.05,5.82,5.82,0,0,1-3.15,3s0,0,0,0l-.43.12h0l-.33.07v0l-.33.06h0l-.4,0H67.45l-.74-.08h0l-.34-.08h0c-.29-.11-.58-.22-.86-.35a5.49,5.49,0,0,1-2.94-3.42h0c0-.36-.12-.48-.48-.49l-21.92-.56h0a6,6,0,0,1-.92-.44A2.59,2.59,0,0,1,38.18,58.72Z"/><path class="cls-7" d="M10.29,51.94l.88-2.78a11,11,0,0,1,6.6-4.66,29.27,29.27,0,0,1,7.44-1.14A65.89,65.89,0,0,1,37,43.9l6.8,1a7.44,7.44,0,0,1-.53-1.11c-.4-1.46-.76-2.92-1.14-4.38.11.09.25.16.31.28a6.75,6.75,0,0,0,2.38,2.57,18.76,18.76,0,0,0,9.61,2.81,33.51,33.51,0,0,0,8.88-.55,21.06,21.06,0,0,0,7.53-2.88,13,13,0,0,0,1.44-1.25l1,.35a31.79,31.79,0,0,1-2.1,4,17.1,17.1,0,0,1-11.46,7,33.58,33.58,0,0,1-3.76.2c-2.2,0-4.4,0-6.59,0-.53,0-.74.13-.71.69,0,1,0,2.07,0,3.11l-.06.19.06-.19.13.46a5.15,5.15,0,0,0-.37.58,3.81,3.81,0,0,1-3.62,2.31,3.74,3.74,0,0,1-3.36-2.85,10.53,10.53,0,0,1-.07-2c0-.72,0-1.44,0-2.25h-23c-.3,0-.7-.11-.68.4.08,1.29.17,2.57.26,3.86a2.66,2.66,0,0,0-.38.52,3.8,3.8,0,0,1-3.72,2.35,3.58,3.58,0,0,1-3.29-3.22C10.33,54.55,10.34,53.24,10.29,51.94Z"/><path class="cls-3" d="M39.83,3.24c.69-.6,6.1-3.81,10.69-2.77s10.55,4,12,8.34.51,9.58.72,10.6S58,22.85,55.93,22.5s-5.92,0-5.49-1.37S54.24,9.27,52.36,9,31.66,10.38,39.83,3.24Z"/><path class="cls-8" d="M52.9,21.29s2.85-9.08-.49-14.36S45.51.62,45.51.62,39.68,2.1,36.05,6.28s-2.77,5.6-3.2,6.38-.13,1.18-.88,1.47-2.16,1.31-1.78,2.45-.25,2.37,4.25,4.79,14.84,7.15,21.21,6.18,9.79-2.2,10.61-3.9-1.17-3.56-2.14-3.3a20,20,0,0,1-5.77,1.3A16,16,0,0,1,52.9,21.29Z"/><path class="cls-8" d="M47.62.39A15.22,15.22,0,0,1,58.51,3.16a10.84,10.84,0,0,1,5,10.1c-.09.93-.31,4.69-.81,5.16s-1.22,1.8-5.24,2.22a32.76,32.76,0,0,0-3.91.47s2.28-3.33,1.32-11.55C54.34,4.76,51.13,2.5,47.62.39Z"/><path class="cls-9" d="M55.91,21.15c1.45-.09,6-.46,6.94-2.23s2.42.63,2.82,1.43,1.49,2.73.35,3.77-12.35-.93-13.15-1.87,0-1.06.52-1.05S54.74,21.21,55.91,21.15Z"/><path class="cls-10" d="M46.08,4.87a1.41,1.41,0,0,0-2.31-.08c-1,.91-1.7,1.16-1.27,2.15a8,8,0,0,0,1,1.65c.23.38.62.38,1.59-.3s2.2-1.62,2.2-1.62Z"/><path class="cls-10" d="M44.42,9.71l3.19-2c.54-.33.72,0,1.07.33s1.52,1.14.9,1.63-2.68,2-2.68,2-.95,1-1.4.1A20.49,20.49,0,0,1,44.42,9.71Z"/></svg>