<svg id="Capa_1" data-name="Capa 1" xmlns="http://www.w3.org/2000/svg" viewBox="0 0 181.42 181.42"><defs><style>.cls-1{fill:#3bb1e6;}.cls-2{fill:#ced8db;}</style></defs><path class="cls-1" d="M162.83,106.22l-14.51,3.35L143,115.16,141.3,122l-3.71,3.92-10.35,3.34-10.35-5.4-6.31-8-4.16-12.84.65-12.76L109.36,88l-2.93-4.36-9.66-5.22-7.14-12C87.11,63.54,80,61.05,80,61.05l-5.34,3.8L64.06,53.45l-8.67-4.23L34,49.83,9.89,39.39l-6,2S17,68.55,17.59,70.59a30.62,30.62,0,0,1-4.56.69L12.74,74l10.85,7.6,2.52,6.9,4.08,4.77,4.68,8,4.38-3.29-2.71-6.65-11-22.78-5.22-9.42-2.17-7.26L22,53.06l31.63,45.4,8,15.21L60.47,120,82.4,135.79a10.31,10.31,0,0,1,6.23-1.72,10,10,0,0,1,9.52,9l11.08,4.07,2.76-.07a3.62,3.62,0,0,1-.06-.46,14.33,14.33,0,0,0,5.77,1.14,14.72,14.72,0,0,0,5.25-.92h0l6.08-.16,9.28,4.82,2.4-2.52-.62-4.39,6.26-.45,2.71-4.9s-4.23-4-4.35-5h.12l5.9-.61,4.93-5.68,3.72.7,7.5-19.76A43,43,0,0,0,162.83,106.22Z"/><path class="cls-1" d="M51.94,132.48c.07-1.69-.44-3.54,1.48-4.82,1.61-1.07,1.72-2.41.83-4.17s-1.65-3.27-2.52-4.89a3.14,3.14,0,0,0-4-1.86,4.18,4.18,0,0,1-5.34-3.48,3,3,0,0,0-3.25-2.78l-5.25-.25c-2.38-.13-3.23.47-3.93,2.73-.17.56-.29,1.4-.68,1.59-1.5.71-2.81,2-4.83,1.13s-3.07-.31-4.24,1.44c-.92,1.38-1.81,2.79-2.71,4.19-1.36,2.14-1.26,3.15.48,5a4.13,4.13,0,0,1-.27,5.72,4,4,0,0,0-1.77,2.79,13.79,13.79,0,0,0,.6,1.78c.79,1.61,1.62,3.2,2.45,4.79,1,1.87,2.13,2.39,4.21,1.92a4.16,4.16,0,0,1,5.18,3.35c.44,2.11,1.35,2.88,3.51,3,1.62.08,3.25.15,4.87.24,2.46.13,3.36-.51,4.11-2.9.17-.52.27-1.31.63-1.47,1.54-.69,2.85-2.14,4.93-1.1,1.73.86,3.07.22,4.14-1.42q1.44-2.21,2.85-4.41c1.2-1.88,1.1-2.95-.38-4.59C52.62,133.51,51.93,133,51.94,132.48ZM35,137a7,7,0,0,1-6.57-7.29,6.92,6.92,0,0,1,7.31-6.5,6.83,6.83,0,0,1,6.53,7.24A7,7,0,0,1,35,137Z"/><path class="cls-2" d="M98.65,38a8,8,0,0,1-3,6.59q-3,2.4-8.36,2.4a19.61,19.61,0,0,1-8.74-1.86V39.06a35.41,35.41,0,0,0,5.29,2,15.61,15.61,0,0,0,4,.57,5.58,5.58,0,0,0,3.3-.82,2.82,2.82,0,0,0,1.15-2.45,2.74,2.74,0,0,0-.5-1.61,5.7,5.7,0,0,0-1.49-1.36,36,36,0,0,0-4-2.09A19,19,0,0,1,82,30.7a9.68,9.68,0,0,1-2.26-2.84,8.19,8.19,0,0,1-.84-3.8,8,8,0,0,1,2.77-6.44q2.77-2.34,7.67-2.34a18,18,0,0,1,4.59.57,32.54,32.54,0,0,1,4.57,1.6l-2.11,5.09a29.55,29.55,0,0,0-4.08-1.41,13.09,13.09,0,0,0-3.18-.41,4.21,4.21,0,0,0-2.85.87,3.07,3.07,0,0,0-.59,3.77A4.48,4.48,0,0,0,87,26.6a39.48,39.48,0,0,0,4.15,2.16C94,30.14,96,31.52,97,32.91A8.07,8.07,0,0,1,98.65,38Z"/><path class="cls-2" d="M123.65,46.57H102.09V42l7.74-7.82q3.44-3.53,4.49-4.89a10.47,10.47,0,0,0,1.52-2.52,6.37,6.37,0,0,0,.47-2.4,3.5,3.5,0,0,0-1-2.77,4,4,0,0,0-2.73-.91,7.84,7.84,0,0,0-3.48.83,17.87,17.87,0,0,0-3.52,2.34L102,19.69A23,23,0,0,1,105.78,17a13.75,13.75,0,0,1,3.27-1.24,17.19,17.19,0,0,1,4-.43,11.65,11.65,0,0,1,5.1,1.06,8.1,8.1,0,0,1,3.44,2.95,7.81,7.81,0,0,1,1.22,4.35,10.57,10.57,0,0,1-.75,4,14.79,14.79,0,0,1-2.32,3.83,54.84,54.84,0,0,1-5.53,5.59l-4,3.74v.29h13.44Z"/><path class="cls-2" d="M151.14,78.63a8,8,0,0,1-3,6.59c-2,1.6-4.79,2.4-8.37,2.4A19.59,19.59,0,0,1,131,85.76V79.69a35.75,35.75,0,0,0,5.28,2,15.68,15.68,0,0,0,4,.57,5.63,5.63,0,0,0,3.3-.82A2.82,2.82,0,0,0,144.73,79a2.68,2.68,0,0,0-.51-1.61A5.49,5.49,0,0,0,142.74,76a37,37,0,0,0-4-2.09,18.74,18.74,0,0,1-4.24-2.56,9.52,9.52,0,0,1-2.26-2.84,8.19,8.19,0,0,1-.84-3.8,8,8,0,0,1,2.77-6.44q2.78-2.34,7.67-2.34a18.15,18.15,0,0,1,4.59.57,33,33,0,0,1,4.57,1.6l-2.11,5.09a30.8,30.8,0,0,0-4.09-1.42,13.43,13.43,0,0,0-3.17-.4,4.19,4.19,0,0,0-2.85.87,2.86,2.86,0,0,0-1,2.26,2.79,2.79,0,0,0,.4,1.51,4.35,4.35,0,0,0,1.28,1.24,38.93,38.93,0,0,0,4.14,2.16c2.89,1.38,4.86,2.76,5.93,4.15A8.06,8.06,0,0,1,151.14,78.63Z"/><path class="cls-2" d="M174.94,63.25a7.25,7.25,0,0,1-1.75,4.92A9,9,0,0,1,168.28,71v.13a9.83,9.83,0,0,1,5.65,2.27,6.34,6.34,0,0,1,1.92,4.86,8.24,8.24,0,0,1-3.23,6.93q-3.23,2.48-9.22,2.48A22.22,22.22,0,0,1,154.5,86V80.41a20.37,20.37,0,0,0,3.94,1.47,16.66,16.66,0,0,0,4.27.57,8.26,8.26,0,0,0,4.76-1.09A4,4,0,0,0,169,77.83a3.19,3.19,0,0,0-1.77-3.08,13.15,13.15,0,0,0-5.65-.91h-2.34v-5h2.38a11.16,11.16,0,0,0,5.24-.93,3.39,3.39,0,0,0,1.66-3.22c0-2.34-1.46-3.5-4.39-3.5a10,10,0,0,0-3.09.5,15.13,15.13,0,0,0-3.49,1.75l-3-4.49a16.74,16.74,0,0,1,10.07-3,13,13,0,0,1,7.56,1.94A6.23,6.23,0,0,1,174.94,63.25Z"/><path class="cls-2" d="M112.35,147.73c.1-2.48-.65-5.18,2.16-7.06,2.35-1.58,2.52-3.53,1.22-6.11-1.21-2.4-2.43-4.8-3.7-7.17-1.4-2.62-3-3.33-5.86-2.73-4,.84-7-1.13-7.82-5.09-.57-2.78-1.93-3.94-4.76-4.08-2.57-.13-5.13-.23-7.69-.37-3.49-.18-4.74.69-5.76,4-.25.83-.43,2-1,2.33-2.2,1-4.11,3-7.07,1.67-2.76-1.26-4.5-.47-6.21,2.1-1.36,2-2.66,4.08-4,6.14-2,3.14-1.86,4.61.69,7.29a6.05,6.05,0,0,1-.39,8.38c-1.22,1.09-2.49,2.15-2.6,4.09a21.06,21.06,0,0,0,.88,2.61c1.16,2.36,2.38,4.68,3.6,7,1.43,2.75,3.12,3.51,6.17,2.82a6.09,6.09,0,0,1,7.58,4.91c.65,3.09,2,4.22,5.15,4.38,2.37.12,4.75.22,7.12.35,3.61.19,4.94-.75,6-4.24.24-.76.39-1.92.92-2.16,2.25-1,4.17-3.13,7.21-1.62,2.54,1.27,4.5.33,6.08-2.07,1.4-2.15,2.78-4.31,4.17-6.47,1.76-2.75,1.61-4.31-.55-6.72C113.34,149.23,112.32,148.44,112.35,147.73Zm-24.8,6.54a10.29,10.29,0,0,1-9.62-10.68,10.13,10.13,0,0,1,10.7-9.52,10,10,0,0,1,9.58,10.6A10.21,10.21,0,0,1,87.55,154.27Z"/></svg>