<?xml version="1.0" encoding="UTF-8"?><svg id="menu_interconexion" xmlns="http://www.w3.org/2000/svg" viewBox="0 0 181.42 181.42"><defs><style>.cls-1{fill:#3bb1e6;}.cls-2{fill:#ced8db;}</style></defs><path class="cls-1" d="M162.83,106.22l-14.51,3.35-5.32,5.59-1.7,6.84-3.71,3.92-10.35,3.34-10.35-5.4-6.31-8-4.16-12.84,.65-12.76,2.29-2.26-2.93-4.36-9.66-5.22-7.14-12c-2.52-2.88-9.63-5.37-9.63-5.37l-5.34,3.8-10.6-11.4-8.67-4.23-21.39,.61-24.11-10.44-6,2s13.11,27.16,13.7,29.2c-1.5,.34-3.02,.57-4.56,.69l-.29,2.72,10.85,7.6,2.52,6.9,4.08,4.77,4.68,8,4.38-3.29-2.71-6.65-11-22.78-5.22-9.42-2.17-7.26,3.85,1.19,31.63,45.4,8,15.21-1.16,6.33,21.93,15.79c1.84-1.23,4.02-1.83,6.23-1.72,4.97,.21,9.03,4.05,9.52,9l11.08,4.07,2.76-.07c-.03-.15-.05-.31-.06-.46,1.82,.77,3.79,1.16,5.77,1.14,1.79,.02,3.57-.3,5.25-.92h0l6.08-.16,9.28,4.82,2.4-2.52-.62-4.39,6.26-.45,2.71-4.9s-4.23-4-4.35-5h.12l5.9-.61,4.93-5.68,3.72,.7,7.5-19.76c-1.3-.96-2.65-1.85-4.05-2.66Z"/><path class="cls-1" d="M51.94,132.48c.07-1.69-.44-3.54,1.48-4.82,1.61-1.07,1.72-2.41,.83-4.17s-1.65-3.27-2.52-4.89c-.6-1.61-2.38-2.44-4-1.86-2.21,.66-4.54-.6-5.2-2.81-.06-.22-.11-.44-.14-.67-.12-1.65-1.55-2.9-3.2-2.78-.02,0-.03,0-.05,0l-5.25-.25c-2.38-.13-3.23,.47-3.93,2.73-.17,.56-.29,1.4-.68,1.59-1.5,.71-2.81,2-4.83,1.13s-3.07-.31-4.24,1.44c-.92,1.38-1.81,2.79-2.71,4.19-1.36,2.14-1.26,3.15,.48,5,1.46,1.67,1.34,4.2-.27,5.72-.96,.63-1.61,1.65-1.77,2.79,.16,.61,.36,1.2,.6,1.78,.79,1.61,1.62,3.2,2.45,4.79,1,1.87,2.13,2.39,4.21,1.92,2.22-.59,4.5,.73,5.09,2.94,.04,.13,.06,.27,.09,.41,.44,2.11,1.35,2.88,3.51,3,1.62,.08,3.25,.15,4.87,.24,2.46,.13,3.36-.51,4.11-2.9,.17-.52,.27-1.31,.63-1.47,1.54-.69,2.85-2.14,4.93-1.1,1.73,.86,3.07,.22,4.14-1.42,.96-1.47,1.91-2.94,2.85-4.41,1.2-1.88,1.1-2.95-.38-4.59-.42-.5-1.11-1.01-1.1-1.53Zm-16.94,4.52c-3.81-.23-6.74-3.47-6.57-7.29,.23-3.81,3.5-6.72,7.31-6.5,3.77,.16,6.7,3.34,6.54,7.11,0,.04,0,.09,0,.13-.24,3.8-3.47,6.7-7.27,6.55Z"/><path class="cls-2" d="M98.65,38c.11,2.55-1.01,5-3,6.59-2,1.6-4.79,2.4-8.36,2.4-3.02,.06-6.01-.58-8.74-1.86v-6.07c1.71,.81,3.48,1.48,5.29,2,1.3,.36,2.65,.55,4,.57,1.16,.08,2.31-.21,3.3-.82,.78-.57,1.21-1.49,1.15-2.45,0-.58-.17-1.14-.5-1.61-.41-.54-.92-1-1.49-1.36-1.29-.78-2.62-1.48-4-2.09-1.54-.67-2.99-1.55-4.3-2.6-.93-.8-1.69-1.76-2.26-2.84-.58-1.18-.87-2.48-.84-3.8-.12-2.46,.91-4.83,2.77-6.44,1.85-1.56,4.4-2.34,7.67-2.34,1.55,0,3.09,.18,4.59,.57,1.56,.42,3.09,.95,4.57,1.6l-2.11,5.09c-1.32-.57-2.69-1.04-4.08-1.41-1.04-.27-2.11-.4-3.18-.41-1.02-.07-2.04,.24-2.85,.87-1.05,.97-1.29,2.53-.59,3.77,.35,.5,.79,.92,1.31,1.24,1.34,.8,2.73,1.52,4.15,2.16,2.85,1.38,4.85,2.76,5.85,4.15,1.11,1.46,1.69,3.26,1.65,5.09Z"/><path class="cls-2" d="M123.65,46.57h-21.56v-4.57l7.74-7.82c2.29-2.35,3.79-3.98,4.49-4.89,.62-.76,1.13-1.61,1.52-2.52,.31-.76,.47-1.58,.47-2.4,.09-1.03-.28-2.04-1-2.77-.77-.63-1.74-.96-2.73-.91-1.21,0-2.4,.29-3.48,.83-1.26,.64-2.44,1.42-3.52,2.34l-3.58-4.17c1.17-1.02,2.43-1.92,3.78-2.69,1.03-.55,2.13-.97,3.27-1.24,1.31-.3,2.65-.44,4-.43,1.76-.04,3.5,.33,5.1,1.06,1.4,.64,2.6,1.66,3.44,2.95,.83,1.3,1.25,2.81,1.22,4.35,.01,1.37-.24,2.73-.75,4-.57,1.39-1.36,2.68-2.32,3.83-1.71,1.99-3.56,3.86-5.53,5.59l-4,3.74v.29h13.44v5.43Z"/><path class="cls-2" d="M151.14,78.63c.11,2.55-1.01,5-3,6.59-2,1.6-4.79,2.4-8.37,2.4-3.03,.07-6.03-.57-8.77-1.86v-6.07c1.7,.8,3.47,1.47,5.28,2,1.3,.36,2.65,.55,4,.57,1.16,.07,2.31-.21,3.3-.82,.77-.57,1.21-1.48,1.15-2.44,0-.58-.17-1.14-.51-1.61-.4-.55-.9-1.02-1.48-1.39-1.29-.78-2.63-1.48-4-2.09-1.52-.66-2.95-1.52-4.24-2.56-.93-.79-1.7-1.76-2.26-2.84-.58-1.18-.87-2.48-.84-3.8-.12-2.46,.91-4.83,2.77-6.44,1.85-1.56,4.41-2.34,7.67-2.34,1.55,0,3.09,.19,4.59,.57,1.56,.42,3.09,.96,4.57,1.6l-2.11,5.09c-1.33-.57-2.7-1.04-4.09-1.42-1.04-.26-2.1-.39-3.17-.4-1.02-.07-2.04,.24-2.85,.87-.66,.56-1.03,1.39-1,2.26-.01,.53,.13,1.06,.4,1.51,.34,.5,.77,.92,1.28,1.24,1.34,.8,2.72,1.52,4.14,2.16,2.89,1.38,4.86,2.76,5.93,4.15,1.09,1.46,1.66,3.25,1.61,5.07Z"/><path class="cls-2" d="M174.94,63.25c.05,1.8-.58,3.55-1.75,4.92-1.29,1.45-3.01,2.44-4.91,2.83v.13c2.08,.14,4.05,.93,5.65,2.27,1.31,1.27,2.01,3.04,1.92,4.86,.13,2.7-1.08,5.29-3.23,6.93-2.15,1.65-5.23,2.48-9.22,2.48-3.05,.06-6.08-.51-8.9-1.67v-5.59c1.26,.62,2.58,1.12,3.94,1.47,1.39,.37,2.83,.57,4.27,.57,1.66,.12,3.32-.26,4.76-1.09,1.08-.84,1.66-2.17,1.53-3.53,.09-1.29-.61-2.51-1.77-3.08-1.79-.71-3.72-1.03-5.65-.91h-2.34v-5h2.38c1.8,.12,3.59-.2,5.24-.93,1.13-.66,1.77-1.92,1.66-3.22,0-2.34-1.46-3.5-4.39-3.5-1.05,0-2.09,.17-3.09,.5-1.23,.43-2.41,1.02-3.49,1.75l-3-4.49c2.95-2.05,6.48-3.11,10.07-3,2.66-.14,5.3,.53,7.56,1.94,1.78,1.19,2.82,3.22,2.76,5.36Z"/><path class="cls-2" d="M112.35,147.73c.1-2.48-.65-5.18,2.16-7.06,2.35-1.58,2.52-3.53,1.22-6.11-1.21-2.4-2.43-4.8-3.7-7.17-1.4-2.62-3-3.33-5.86-2.73-4,.84-7-1.13-7.82-5.09-.57-2.78-1.93-3.94-4.76-4.08-2.57-.13-5.13-.23-7.69-.37-3.49-.18-4.74,.69-5.76,4-.25,.83-.43,2-1,2.33-2.2,1-4.11,3-7.07,1.67-2.76-1.26-4.5-.47-6.21,2.1-1.36,2-2.66,4.08-4,6.14-2,3.14-1.86,4.61,.69,7.29,2.14,2.44,1.97,6.14-.39,8.38-1.22,1.09-2.49,2.15-2.6,4.09,.24,.89,.53,1.76,.88,2.61,1.16,2.36,2.38,4.68,3.6,7,1.43,2.75,3.12,3.51,6.17,2.82,3.25-.87,6.59,1.07,7.45,4.32,.05,.2,.09,.39,.13,.59,.65,3.09,2,4.22,5.15,4.38,2.37,.12,4.75,.22,7.12,.35,3.61,.19,4.94-.75,6-4.24,.24-.76,.39-1.92,.92-2.16,2.25-1,4.17-3.13,7.21-1.62,2.54,1.27,4.5,.33,6.08-2.07,1.4-2.15,2.78-4.31,4.17-6.47,1.76-2.75,1.61-4.31-.55-6.72-.55-.68-1.57-1.47-1.54-2.18Zm-24.8,6.54c-5.57-.36-9.84-5.1-9.62-10.68,.33-5.58,5.12-9.84,10.7-9.52,5.52,.22,9.81,4.88,9.59,10.39,0,.07,0,.14-.01,.21-.33,5.58-5.08,9.86-10.66,9.6h0Z"/><g><path class="cls-2" d="M32.14,24.22c0,2.85-1.03,5.1-3.08,6.74-2.05,1.64-4.91,2.46-8.57,2.46-3.37,0-6.35-.63-8.95-1.9v-6.22c2.13,.95,3.94,1.62,5.41,2.01,1.48,.39,2.83,.58,4.05,.58,1.47,0,2.6-.28,3.38-.84,.78-.56,1.18-1.4,1.18-2.51,0-.62-.17-1.17-.52-1.65-.35-.48-.85-.95-1.52-1.39-.67-.45-2.04-1.16-4.1-2.14-1.93-.91-3.38-1.78-4.34-2.61s-1.74-1.81-2.31-2.92c-.58-1.11-.86-2.41-.86-3.89,0-2.79,.95-4.99,2.84-6.59S19.26,.94,22.61,.94c1.64,0,3.21,.19,4.7,.58,1.49,.39,3.05,.94,4.68,1.64l-2.16,5.21c-1.69-.69-3.08-1.17-4.18-1.45-1.1-.27-2.19-.41-3.25-.41-1.27,0-2.24,.3-2.92,.89s-1.02,1.36-1.02,2.31c0,.59,.14,1.11,.41,1.55,.27,.44,.71,.86,1.31,1.27,.6,.41,2.01,1.15,4.25,2.21,2.95,1.41,4.98,2.83,6.07,4.25,1.09,1.42,1.64,3.16,1.64,5.22Z"/><path class="cls-2" d="M52.17,32.99h-6.68V14.71l.06-3,.11-3.28c-1.11,1.11-1.88,1.84-2.31,2.18l-3.63,2.92-3.22-4.02L46.68,1.4h5.49v31.59Z"/></g></svg>