<svg id="Capa_1" data-name="Capa 1" xmlns="http://www.w3.org/2000/svg" viewBox="0 0 64 64"><defs><style>.cls-1{fill:#ced8db;}.cls-2{fill:#3aafe4;}</style></defs><g id="ico_mercado_digital"><path class="cls-1" d="M36.54,20.61a2.51,2.51,0,0,1-5,0,2.47,2.47,0,0,1,2.52-2.46A2.45,2.45,0,0,1,36.54,20.61Zm-2.49,1.31a1.36,1.36,0,0,0,1.35-1.38A1.38,1.38,0,0,0,34,19.2a1.36,1.36,0,0,0-1.34,1.38A1.32,1.32,0,0,0,34.05,21.92Z"/><path class="cls-1" d="M40.05,21.17c0-.63-.23-1.28.46-1.77a1,1,0,0,0,.23-1.51c-.33-.59-.66-1.14-1-1.73a1.11,1.11,0,0,0-1.47-.59,1.52,1.52,0,0,1-2-1.15,1.07,1.07,0,0,0-1.21-.95h-1.9c-.85,0-1.15.23-1.38,1-.06.19-.06.52-.22.59-.53.29-1,.78-1.74.49a1.09,1.09,0,0,0-1.51.59c-.29.52-.62,1-.91,1.57-.46.79-.4,1.15.26,1.8a1.5,1.5,0,0,1,0,2.07,1.39,1.39,0,0,0-.59,1,.11.11,0,0,0,0,.07h.16a6.61,6.61,0,0,1,1.09,0c0-.13,0-.23.16-.36l.39-.39a1,1,0,0,0,.3-.86v-1A1.5,1.5,0,0,0,28.78,19c-.56-.49-.39-.75-.2-1.14.07-.14.2-.46.3-.66a.86.86,0,0,1,.49-.46c.26-.13.69.1,1.05.13a1.19,1.19,0,0,0,.59-.13c.29-.16.95-.52,1.24-.72.53-.33.49-.39.53-1s.26-.55.68-.52a9.54,9.54,0,0,0,1.31,0c.3,0,.43.1.46.39s.07.3.1.46c.07.36.3.52.62.75s.76.36,1,.49a1.18,1.18,0,0,0,1.27.14c.33-.17.5,0,.69.26a5.89,5.89,0,0,1,.62.95.7.7,0,0,1-.06.82,1.34,1.34,0,0,0-.75,1.4c0,.07.09,1.05.09,1.12a1.24,1.24,0,0,0,.69,1.05c.2.13.23.29.1.52a15,15,0,0,1-.82,1.34.49.49,0,0,1-.42.17c-.2,0-.43-.17-.63-.17a1.48,1.48,0,0,0-.78.13,4.66,4.66,0,0,0-.95.56c-.4.26-.59.39-.72.82-.2.88,0,.75-1,.75-.32,0-.68,0-1,0H33.1c0,.13.1.26.14.4a.77.77,0,0,0,.45.45,4,4,0,0,1,.92.36h.2c.88,0,1.21-.22,1.44-1.11.06-.2.06-.49.2-.56.55-.26,1-.81,1.76-.49s1.12,0,1.48-.59.62-1.08,1-1.63a1.11,1.11,0,0,0-.23-1.64C40.31,21.53,40.05,21.36,40.05,21.17Z"/><path class="cls-1" d="M31.66,44.19l14-18.14c.13-.33.43-4,3.21-4.72.66-.43,3.67-.1,4.1.2l10,2.75c-.1.33.45,2.42-.43,2.09L50.66,24.7c-2,2.92-4.42,6.23-4.52,6.59L34.25,49.11a.65.65,0,0,1-.82.39l-31-11.17c-.42-.16-1.34-20-1.47-24l2.82,2.2c.16-.23,1.44,19.13,1.7,19.23l25.38,8.81A.67.67,0,0,0,31.66,44.19Z"/><path class="cls-1" d="M4.41,44.65a4.23,4.23,0,1,1,7.93,2.92,4.26,4.26,0,0,1-5.41,2.49A4.33,4.33,0,0,1,4.41,44.65Zm6,2.16a2.08,2.08,0,1,0-3.89-1.5A2,2,0,0,0,7.69,48,2.08,2.08,0,0,0,10.37,46.81Z"/><path class="cls-1" d="M28.16,48.65a4.13,4.13,0,1,1-5.27,2.55A4.08,4.08,0,0,1,28.16,48.65Zm.56,4.58a2,2,0,1,0-2.59,1.25A2.06,2.06,0,0,0,28.72,53.23Z"/><path class="cls-2" d="M19.58,30.93l-.23-1.28-1.9-.23-.53,1.18-1.17-.13,2.45-5,1.34.16,1.22,5.44Zm-.4-2.23c-.19-1.15-.32-1.8-.36-2s0-.26,0-.36c-.13.3-.42,1-.95,2.17Z"/><path class="cls-2" d="M25.41,28.05a1.61,1.61,0,0,1-.69,1.21,2.3,2.3,0,0,1-1.54.26l-.46-.07-.23,1.84-1.08-.13L22,26l1.67.2a2,2,0,0,1,1.38.59A1.57,1.57,0,0,1,25.41,28.05Zm-2.56.52.36,0a1.47,1.47,0,0,0,.79-.1.65.65,0,0,0,.33-.55.68.68,0,0,0-.13-.59,1,1,0,0,0-.63-.26L23.08,27Z"/><path class="cls-2" d="M26,31.71l.63-5.17,1.11.13-.62,5.17Z"/><path class="cls-1" d="M12.6,14.58a1.49,1.49,0,0,0,.39-.13L15.52,19s0,0,0,.06a7.78,7.78,0,0,1,1.87-.75,2.13,2.13,0,0,0-.75,0,1.68,1.68,0,0,0-.59.26l-2.49-4.52a2,2,0,0,0,.65-1.8L24.92,10.1a1.68,1.68,0,0,0,.32.59l-6.55,7.43a8.82,8.82,0,0,1,.89,0l6.12-7a1.93,1.93,0,0,0,1.64.3,2.07,2.07,0,0,0-.95-4,2.05,2.05,0,0,0-1.6,2.06L14,11.67A2.06,2.06,0,0,0,10.11,13,2.06,2.06,0,0,0,12.6,14.58Zm14-6.45a1.31,1.31,0,0,1,.59,2.56,1.31,1.31,0,0,1-1.58-1A1.29,1.29,0,0,1,26.59,8.13Z"/><path class="cls-2" d="M6.38,29.72a6.11,6.11,0,0,1,4.94-6,.81.81,0,0,0,.66-.56,7.86,7.86,0,0,1,7.63-5,7.8,7.8,0,0,1,6.81,4.13.77.77,0,0,0,.85.49,5.7,5.7,0,0,1,6,4.19.77.77,0,0,0,.46.46,4.3,4.3,0,0,1-.17,8.42c-.36,0-.68.1-1.05.1s-.81-.17-.81-.63.36-.62.81-.62a3,3,0,0,0,3.28-2.52A3,3,0,0,0,33,28.57a.85.85,0,0,1-.86-.79,4.45,4.45,0,0,0-5.43-3.7c-.62.13-.85-.16-1.08-.65a6.57,6.57,0,0,0-6.42-4.06A6.66,6.66,0,0,0,13,24.05a1,1,0,0,1-1,.85,4.89,4.89,0,0,0-1,9.5,1,1,0,0,1,.36.13.53.53,0,0,1,.36.75c-.13.2-.52.46-.72.4a5.33,5.33,0,0,1-1.57-.63A6.06,6.06,0,0,1,6.38,29.72Z"/></g></svg>