<svg id="Capa_1" data-name="Capa 1" xmlns="http://www.w3.org/2000/svg" viewBox="0 0 181.42 181.42"><defs><style>.cls-1{fill:#3bb1e6;}.cls-2{fill:#ced8db;}</style></defs><path class="cls-1" d="M168.09,101.78l-14.93,3.45L147.68,111,145.93,118l-3.82,4-10.66,3.44L120.79,120l-1.45-1.84q0,13.13,0,26.24a15.53,15.53,0,0,0,2.3.18,15.26,15.26,0,0,0,5.4-.94h0l6.26-.16,9.56,5,2.47-2.59-.64-4.52,6.45-.47,2.78-5s-4.35-4.14-4.47-5.2h.12l6.07-.63,5.08-5.85,3.83.72,7.72-20.35A45.44,45.44,0,0,0,168.09,101.78Z"/><path class="cls-1" d="M69.33,120.75q.14-14.79.26-29.59a4.72,4.72,0,0,1,4.32-4.77,8.42,8.42,0,0,1,.87,0h35.86l0-1L113,83.05l-3-4.49-10-5.37L92.73,60.86c-2.6-3-9.91-5.59-9.91-5.59l-5.5,3.91L66.4,47.45l-8.93-4.36-22,.63L10.63,33l-6.17,2.1S17.9,63,18.56,65.09a31.15,31.15,0,0,1-4.71.72l-.29,2.77L24.73,76.4l2.59,7.11,4.21,4.91,4.81,8.22,4.52-3.39-2.8-6.84L26.76,63l-5.38-9.71-2.23-7.47L23.08,47,55.64,93.79l8.27,15.66L62.7,116Z"/><path class="cls-2" d="M178.36,53.87c-3.38,4.18-8.05,5.32-12.94,5.61-6.31.38-12.29-.51-17-5.7a16.84,16.84,0,0,1,2.7-.26,2.28,2.28,0,0,0,2.67-1.75q3.1-8.9,6.4-17.74a13.3,13.3,0,0,1,1.91-2.69s-.49-.12-.92-.29a34.33,34.33,0,0,1-5-2,5.83,5.83,0,0,0-5.75-.46c-2.31,1.05-4.68,2-7,3.1a1.91,1.91,0,0,0-.84,1.48c-.08,3.31-.1,6.62,0,9.93a5.18,5.18,0,0,0,.89,2.52,10.91,10.91,0,0,1,1.71,6.76c-.14,2.74,0,5.49-.06,8.24,0,1.43.49,2.13,2.13,2,.55-.05,1.12,0,1.67,0,1.62-.12,2.59.29,2.57,2a3.65,3.65,0,0,0,.88,2c1.41,1.84,2.91,3.62,4.37,5.43.42.52.8,1.07,1.42,1.9H125.76a12.79,12.79,0,0,1,.73-1.52c1.19-1.84,2.48-3.62,3.61-5.49a6.59,6.59,0,0,0,.94-2.65c.11-1.24.74-1.67,2-1.65,1.05,0,2.11,0,3.15,0,1.45.07,2-.51,2-1.8-.06-3.19.12-6.4-.08-9.59-.15-2.29,1.05-4.09,1.86-6.07a9.41,9.41,0,0,0,.75-3.06c.1-2.92,0-5.84.06-8.75,0-1-.35-1.44-1.42-1.83-2.29-.83-4.49-1.85-6.67-2.89a5.6,5.6,0,0,0-5.55.37,63.39,63.39,0,0,1-6.36,2.64,14.56,14.56,0,0,1,1.64,2.69q3.18,8.72,6.17,17.47a2.27,2.27,0,0,0,2.67,1.74,17,17,0,0,1,2.24.19,17.66,17.66,0,0,1-1.86,2c-6.35,4.87-19,5.18-25.55.62a26.1,26.1,0,0,1-2.72-2.57,11.65,11.65,0,0,1,2.3-.27c1.92.22,2.7-.64,3.25-2.22q3-8.74,6.28-17.43a4.91,4.91,0,0,1,1.86-2c1-.7.5-1.1-.14-1.54a4.53,4.53,0,0,1-2.22-3.16c1.48.16,2.84.28,4.19.46.27,0,.49.36.76.41a8.11,8.11,0,0,0,2.29.23,2.39,2.39,0,0,0,1.32-.86c3.43-4.31,7.89-4.45,12.84-2.67a2.46,2.46,0,0,0,.53.15l3.71.7a28,28,0,0,0,.26-4.28c0-.45-.89-.95-1.47-1.28-2.32-1.29-3.1-3.71-1.76-5.64a4.73,4.73,0,0,1,6.46-1.25,3.85,3.85,0,0,1,0,6.61c-1.37.89-2.32,4.31-1.4,5.51a2,2,0,0,0,1.58.33c2.21-.5,4.41-1.09,6.59-1.71,3.24-.91,5.78.15,8,2.24a18.32,18.32,0,0,0,2,1.75c.81.58,1.71,1.34,2.59,0,.1-.16.5-.33.62-.26,1.72.9,3-.11,4.45-1,.38,2.59-1.92,3.4-2.93,4.28a24.57,24.57,0,0,1,2.31,3.85q3,8.2,5.82,16.5c.52,1.54,1.22,2.52,3.19,2.26A7,7,0,0,1,178.36,53.87Zm-23.23-.38c2.26,0,4-.06,5.79,0,1.55.07,2-.55,2-1.89-.06-5.43,0-10.86,0-16.29a9.85,9.85,0,0,0-.19-1.31l-.57-.05C159.87,40.31,157.59,46.66,155.13,53.49ZM120.15,34l-.42.06c0,.58-.09,1.16-.1,1.74,0,4.37,0,8.75,0,13.12,0,5.24-.84,4.5,5,4.55,2.41,0,2.56-.17,1.79-2.36-1.86-5.28-3.76-10.55-5.66-15.83A13.46,13.46,0,0,0,120.15,34Zm-2.57.06-.52,0-7,19.43c2.12,0,3.77-.07,5.42,0s2.25-.55,2.23-2.06c-.07-5.31,0-10.63,0-16A13.92,13.92,0,0,0,117.58,34.08Zm54.64,19.38c-2.37-6.73-4.59-13.05-6.82-19.37l-.55.1c0,6.08,0,12.16.05,18.23,0,.35.74,1,1.16,1C168,53.52,169.85,53.46,172.22,53.46Z"/><path class="cls-2" d="M124.62,107.28v43.85a15.74,15.74,0,0,1-1.21,6.79c-2.4,5.11-6.39,7.91-11.81,8-15.67.12-31.35.07-47,0-7,0-12.78-6-12.94-13.28,0-2.32,0-4.65,0-7a2.76,2.76,0,0,1,3-3.09c2.6,0,5.21-.06,7.81,0,1.14,0,1.5-.32,1.5-1.51q0-14.26.1-28.54c0-7.11.13-14.21.2-21.31,0-5.75,4.37-10.36,9.92-10.37q27.72,0,55.45,0A10.62,10.62,0,0,1,140,91.59c.05,4.17,0,8.35,0,12.53,0,2.06-1.09,3.15-3.09,3.16-3.6,0-7.19,0-10.79,0Zm-4.06-20.84c-.65,0-1-.07-1.38-.07H74.78a8.42,8.42,0,0,0-.87,0,4.72,4.72,0,0,0-4.32,4.77c-.15,16.61-.27,33.22-.45,49.83,0,1.23.32,1.6,1.52,1.59,10,0,20,0,30,0,2.19,0,3.15,1,3.16,3.32s0,4.39,0,6.59a7.77,7.77,0,0,0,10,7.5c3.4-1.14,5.44-4.24,5.44-8.34q0-27.89,0-55.78C119.34,92.74,118.91,89.56,120.56,86.44ZM98.4,148.09H60.33c-3.39,0-3.39,0-3.38,3.57,0,5.31,3.23,8.7,8.35,8.71,11.44,0,22.89,0,34.33,0,.37,0,.75-.06.94-.07a48.89,48.89,0,0,1-1.79-5.83A51.08,51.08,0,0,1,98.4,148.09Zm26.22-46.36c3.29,0,6.41,0,9.54,0,.2,0,.54-.58.55-.9,0-3.14.09-6.29,0-9.43a5.16,5.16,0,0,0-4.94-5,5.08,5.08,0,0,0-5.11,5c-.06,1.46,0,2.93,0,4.39Z"/><path class="cls-2" d="M93.69,116.43c5,0,9.92,0,14.88,0,1.93,0,3.21,1.14,3.17,2.81s-1.26,2.72-3.13,2.72H78.75c-1.91,0-3.06-1-3.07-2.74a2.7,2.7,0,0,1,3-2.79C83.7,116.42,88.7,116.43,93.69,116.43Z"/><path class="cls-2" d="M93.68,110.42c-5,0-10,0-15,0-1.74,0-2.79-.84-3-2.27A2.63,2.63,0,0,1,78.43,105c4.92,0,9.84,0,14.76,0,5.25,0,10.5,0,15.76,0a2.67,2.67,0,0,1,2.38,4.1,2.72,2.72,0,0,1-2.64,1.32C103.69,110.41,98.68,110.42,93.68,110.42Z"/><path class="cls-2" d="M93.73,133.41c-5,0-10.09,0-15.13,0-1.92,0-3-1.1-2.92-2.85A2.54,2.54,0,0,1,78,128c.2,0,.41,0,.62,0h30.14a2.51,2.51,0,0,1,2.79,1.84,2.46,2.46,0,0,1-.87,3,3.81,3.81,0,0,1-2.07.59C103.66,133.44,98.69,133.41,93.73,133.41Z"/><path class="cls-2" d="M85.39,99c-2.27,0-4.54,0-6.82,0a2.77,2.77,0,1,1-.07-5.53q6.94,0,13.88,0a2.76,2.76,0,1,1,0,5.51C90,99,87.7,99,85.39,99Z"/></svg>