<?xml version="1.0" encoding="UTF-8"?>
<svg id="menu_interconexion" data-name="menu interconexion" xmlns="http://www.w3.org/2000/svg" viewBox="0 0 181.42 181.42">
  <defs>
    <style>
      .cls-1 {
        fill: #ced8db;
        stroke-width: 0px;
      }
    </style>
  </defs>
  <path class="cls-1" d="M149.3,56.42c0,1.63,0,2.8,0,3.98,0,29.74,0,59.48,0,89.22,0,4.97-.42,9.88-2.46,14.43-4.89,10.86-13.02,16.83-24.07,16.91-31.94.24-63.87.14-95.81.06-14.26-.04-26.04-12.75-26.37-28.22-.1-4.94-.05-9.88,0-14.82.04-4.26,2.2-6.55,6.15-6.56,5.31-.02,10.62-.13,15.92.05,2.32.08,3.05-.7,3.05-3.22,0-20.22.09-40.45.21-60.67.09-15.1.27-30.19.4-45.29C26.4,10.05,35.22.26,46.52.24c37.67-.07,75.34-.06,113,0,11.67.02,21.05,10.18,21.19,22.83.1,8.87.04,17.75,0,26.63-.02,4.38-2.22,6.71-6.3,6.73-7.33.02-14.66,0-21.99,0-.91,0-1.82,0-3.13,0ZM141.02,12.13c-1.33-.07-2.07-.15-2.82-.15-30.16,0-60.31,0-90.47,0-.59,0-1.18-.02-1.77.04-5.04.48-8.77,4.72-8.81,10.14-.3,35.3-.56,70.61-.91,105.91-.03,2.63.65,3.41,3.1,3.39,20.39-.1,40.77-.06,61.16-.05,4.44,0,6.42,2.18,6.43,7.07.01,4.67-.04,9.33.02,14,.15,11.37,10.53,19.42,20.49,15.93,6.92-2.42,11.07-9,11.07-17.72.02-39.52-.01-79.03.03-118.55,0-6.62-.88-13.38,2.48-20ZM95.86,143.16c-1.19,0-2.26,0-3.34,0-24.75,0-49.49,0-74.24,0q-6.91,0-6.89,7.59c.02,11.28,6.58,18.49,17.03,18.52,23.32.05,46.63.02,69.95,0,.77,0,1.54-.12,1.93-.15-1.31-4.31-2.95-8.25-3.66-12.38-.73-4.26-.54-8.7-.78-13.58ZM149.3,44.62c6.69,0,13.07.04,19.44-.09.4,0,1.1-1.25,1.11-1.92.08-6.68.19-13.36,0-20.03-.17-5.8-4.93-10.59-10.08-10.58-5.72.02-10.2,4.57-10.42,10.7-.11,3.11-.05,6.22-.05,9.33,0,4.09,0,8.18,0,12.59Z"/>
  <g>
    <path class="cls-1" d="M86.27,75.85c10.1,0,20.2,0,30.3,0,3.93,0,6.54,2.43,6.48,5.97-.06,3.47-2.58,5.78-6.38,5.78-20.29,0-40.57,0-60.86,0-3.89,0-6.23-2.21-6.25-5.81-.02-3.62,2.34-5.93,6.16-5.94,10.19-.02,20.37,0,30.56,0Z"/>
    <path class="cls-1" d="M86.24,63.09c-10.2,0-20.39.02-30.59-.01-3.54-.01-5.69-1.78-6.07-4.81-.48-3.85,1.78-6.67,5.58-6.69,10.03-.06,20.05-.03,30.08-.03,10.7,0,21.4-.05,32.1.04,4.6.04,7.09,4.66,4.86,8.73-1.22,2.23-3.13,2.81-5.39,2.8-10.2-.04-20.39-.02-30.59-.02Z"/>
    <path class="cls-1" d="M86.35,111.96c-10.28,0-20.56.03-30.84-.02-3.9-.02-6.09-2.34-5.95-6.07.11-2.94,2.02-5.12,4.75-5.4.42-.04.84-.05,1.26-.05,20.47,0,40.95-.01,61.42,0,3.19,0,4.8,1.19,5.68,3.92.83,2.58.19,4.85-1.77,6.31-1.15.85-2.8,1.24-4.23,1.25-10.11.1-20.22.05-30.33.05Z"/>
    <path class="cls-1" d="M69.35,38.75c-4.63,0-9.26.02-13.89,0-3.62-.02-5.92-2.37-5.9-5.91.02-3.4,2.31-5.81,5.75-5.83,9.43-.05,18.85-.05,28.28,0,3.4.02,5.69,2.52,5.66,5.93-.02,3.39-2.34,5.77-5.76,5.8-4.71.04-9.43.01-14.14.01Z"/>
  </g>
</svg>