<?xml version="1.0" encoding="UTF-8"?><svg xmlns="http://www.w3.org/2000/svg" xmlns:xlink="http://www.w3.org/1999/xlink" viewBox="0 0 181.42 181.42"><defs><style>.cls-1{fill:#3bb1e6;}.cls-2{fill:#ced8db;}.cls-3{fill:#fff;}.cls-4{filter:url(#drop-shadow-43);}.cls-5{fill:#6cd4f4;}.cls-6{clip-path:url(#clippath);}.cls-7{fill:#0d3b49;}</style><filter id="drop-shadow-43" filterUnits="userSpaceOnUse"><feOffset dx="0" dy="60.15"/><feGaussianBlur result="blur" stdDeviation="19.05"/><feFlood flood-color="#000" flood-opacity=".75"/><feComposite in2="blur" operator="in"/><feComposite in="SourceGraphic"/></filter><clipPath id="clippath"><rect class="cls-7" x="-2103.87" y="93.79" width="1924.19" height="417.19"/></clipPath></defs><g id="menu_interconexion"><g class="cls-4"><rect class="cls-7" x="-2103.87" y="93.79" width="1924.19" height="417.19"/><g class="cls-6"><rect class="cls-7" x="-2331.56" y="-56.79" width="2437.11" height="739.4"/></g></g></g><g id="logos"><rect class="cls-3" x="103.8" y="28.21" width="76.2" height="11.32" rx="5.46" ry="5.46"/><rect class="cls-1" x="104.03" y="43.86" width="75.97" height="11.32" rx="5.46" ry="5.46"/><rect class="cls-2" x="104.03" y="58.84" width="75.97" height="11.32" rx="5.46" ry="5.46"/><path class="cls-1" d="M109.51,28.35h47.05v11h-47.05c-3.04,0-5.5-2.47-5.5-5.5h0c0-3.04,2.47-5.5,5.5-5.5Z"/><path class="cls-3" d="M111.45,54.98h-1.62c-2.18,0-5.31-1.91-5.55-4.98v-.11c-.25-3.44,2.75-5.99,6.45-5.88h.72v10.97Z"/><path class="cls-1" d="M107.75,69.51l-.28-.16c-1.75-.73-3.11-2.61-3.19-4.63v-.52c0-1.8,1.15-3.52,3.29-4.6l.18-.04v9.96Z"/><g><g><path class="cls-3" d="M123.51,157.33l6.73-14.7h-8.83v-3.19h12.85v2.38l-6.78,15.51h-3.97Z"/><path class="cls-3" d="M148.49,148.37c0,3.13-.51,5.44-1.54,6.95-1.03,1.5-2.6,2.25-4.74,2.25s-3.62-.78-4.67-2.33-1.57-3.84-1.57-6.87,.51-5.49,1.53-6.99,2.59-2.25,4.72-2.25,3.63,.78,4.69,2.35c1.06,1.57,1.59,3.86,1.59,6.89Zm-8.76,0c0,2.2,.19,3.77,.57,4.72,.38,.95,1.02,1.43,1.92,1.43s1.52-.48,1.91-1.45c.39-.96,.59-2.53,.59-4.71s-.2-3.78-.59-4.74-1.03-1.44-1.91-1.44-1.53,.48-1.91,1.44c-.38,.96-.58,2.54-.58,4.74Z"/><path class="cls-3" d="M158.67,144.75c0,1.88-.36,3.29-1.09,4.23-.73,.94-1.79,1.42-3.2,1.42s-2.39-.48-3.12-1.45c-.74-.97-1.1-2.37-1.1-4.2,0-3.73,1.41-5.6,4.23-5.6,1.38,0,2.44,.48,3.18,1.45,.74,.97,1.11,2.35,1.11,4.15Zm-5.43,.02c0,1.04,.09,1.81,.28,2.32s.48,.77,.89,.77c.78,0,1.18-1.03,1.18-3.09s-.39-3.06-1.18-3.06c-.41,0-.71,.25-.89,.75-.18,.5-.28,1.27-.28,2.31Zm13.86-5.37l-9.94,17.92h-2.94l9.94-17.92h2.94Zm4.12,12.5c0,1.87-.36,3.28-1.09,4.22-.73,.94-1.79,1.42-3.2,1.42s-2.39-.48-3.12-1.45c-.74-.97-1.1-2.36-1.1-4.18,0-3.73,1.41-5.6,4.23-5.6,1.38,0,2.44,.48,3.18,1.45,.74,.97,1.11,2.35,1.11,4.15Zm-5.43,.02c0,1.04,.09,1.81,.28,2.32,.18,.51,.48,.77,.89,.77,.78,0,1.18-1.03,1.18-3.09s-.39-3.06-1.18-3.06c-.41,0-.7,.25-.89,.75-.18,.5-.28,1.27-.28,2.31Z"/></g><path class="cls-3" d="M-8.03,122.2H36.43c3.25,0,5.89,2.64,5.89,5.89v.52c0,3.25-2.64,5.89-5.89,5.89H-8.03v-12.3h0Z" transform="translate(-111.2 145.49) rotate(-90)"/><path class="cls-1" d="M12.37,122.2H56.82c3.25,0,5.89,2.64,5.89,5.89v.52c0,3.25-2.64,5.89-5.89,5.89H12.37v-12.3h0Z" transform="translate(-90.81 165.89) rotate(-90)"/><path class="cls-2" d="M32.76,122.2h44.46c3.25,0,5.89,2.64,5.89,5.89v.52c0,3.25-2.64,5.89-5.89,5.89H32.76v-12.3h0Z" transform="translate(-70.42 186.28) rotate(-90)"/><path class="cls-1" d="M53.49,122.2h44.46c3.25,0,5.89,2.64,5.89,5.89v.52c0,3.25-2.64,5.89-5.89,5.89H53.49v-12.3h0Z" transform="translate(-49.69 207.01) rotate(-90)"/><path class="cls-1" d="M75.92,122.2h44.46c3.25,0,5.89,2.64,5.89,5.89v.52c0,3.25-2.64,5.89-5.89,5.89h-44.46v-12.3h0Z" transform="translate(-27.26 229.44) rotate(-90)"/><rect class="cls-1" x="13.72" y="143.96" width="6.81" height="12" transform="translate(167.08 132.83) rotate(90)"/><rect class="cls-1" x="45.27" y="134.72" width="25.29" height="12" transform="translate(198.63 82.81) rotate(90)"/><rect class="cls-5" x="71.18" y="139.92" width="14.88" height="12" transform="translate(224.55 67.3) rotate(90)"/><rect class="cls-2" x="89.19" y="135.51" width="23.8" height="11.9" transform="translate(242.55 40.37) rotate(90)"/><rect class="cls-2" x="10.74" y="161.07" width="98.32" height="4.55" rx="2.27" ry="2.27"/><path class="cls-1" d="M146.28,102.73l18.46,14.95c-8.26,10.2-23.22,11.77-33.42,3.51-10.2-8.26-11.77-23.22-3.51-33.42,4.58-5.66,11.18-8.81,18.46-8.81v23.76Z"/><path class="cls-3" d="M146.28,102.73v-23.76c13.12,0,23.76,10.64,23.76,23.76,0,5.83-1.63,10.42-5.29,14.95l-18.46-14.95Z"/></g><path class="cls-1" d="M91.63,64.36l-8.27,2.16-3.04,3.59-.97,4.41-2.11,2.52-5.9,2.15-5.9-3.48-3.6-5.11-2.37-8.26,.37-8.21,1.3-1.47-1.67-2.8-5.51-3.36-4.07-7.7c-1.44-1.89-5.49-3.49-5.49-3.49l-3.04,2.44-6.05-7.33-4.94-2.72-12.19,.39-13.76-6.72-3.42,1.31s7.44,17.45,7.81,18.76c-.86,.22-1.73,.37-2.61,.45l-.16,1.73,6.19,4.89,1.44,4.44,2.33,3.07,2.67,5.14,2.5-2.12-1.55-4.27-6.26-14.65-2.98-6.06-1.24-4.67,2.17,.79,18.04,29.21,4.58,9.78-.67,4.08,14.89,12.08,12.92,5.36,1.58-.04c-.02-.1-.02-.2-.04-.3,.91,.46,2.05,.73,3.29,.73,1.11,0,2.14-.22,2.99-.59,0,0,0,0,0,0l3.47-.1,5.29,3.1,1.37-1.62-.36-2.82,3.57-.29,1.54-3.15s-2.41-2.59-2.48-3.25h.07l3.37-.39,2.81-3.65,2.12,.45,4.27-12.71c-.02-.15-2.31-1.68-2.31-1.68Z"/></g></svg>