<svg id="Capa_1" data-name="Capa 1" xmlns="http://www.w3.org/2000/svg" viewBox="0 0 64 64"><defs><style>.cls-1{fill:#3bb1e6;}.cls-2{fill:#ced8db;}</style></defs><g id="ico_interconexion"><path class="cls-1" d="M62.21,34l-5.66,1.31-2.08,2.18-.66,2.67-1.44,1.53-4,1.3-4-2.1-2.46-3.11-1.63-5,.26-5,.89-.89-1.14-1.7-3.77-2-2.78-4.67c-1-1.15-3.76-2.12-3.76-2.12l-2.08,1.48-4.14-4.44L20.3,11.72,12,12,2.55,7.88l-2.34.8S5.3,19.26,5.55,20.05a10.63,10.63,0,0,1-1.78.27l-.11,1.05,4.23,3,1,2.69,1.6,1.86L12.29,32,14,30.72l-1.06-2.59L8.66,19.24l-2-3.67-.84-2.84,1.48.48L19.6,30.93l3.14,5.93-.46,2.47,10.18,7.33,8.84,3.25,1.08,0a2.24,2.24,0,0,1-.07-.51,2.19,2.19,0,1,1,4.38-.21.74.74,0,0,1,0,.21,1.84,1.84,0,0,1,0,.41L49,49.73l3.62,1.88.93-1-.24-1.71,2.44-.18,1.06-1.91s-1.65-1.57-1.7-2h0l2.3-.24,1.92-2.22,1.46.28L63.79,35A18.2,18.2,0,0,0,62.21,34Zm-42-13.05a3.44,3.44,0,1,1,3.43-3.44v0A3.43,3.43,0,0,1,20.22,20.9ZM34.33,39.63a2.2,2.2,0,1,1,2.19-2.19h0A2.19,2.19,0,0,1,34.33,39.63Z"/><rect class="cls-1" x="25.66" y="7.68" width="7.25" height="1.59"/><rect class="cls-1" x="25.66" y="11.57" width="7.25" height="1.59"/><rect class="cls-1" x="53.49" y="25.62" width="7.25" height="1.59"/><rect class="cls-1" x="53.49" y="29.51" width="7.25" height="1.59"/><rect class="cls-1" x="7.46" y="44.09" width="7.25" height="1.59"/><rect class="cls-1" x="7.46" y="47.98" width="7.25" height="1.59"/><rect class="cls-1" x="31.38" y="50.85" width="7.25" height="1.59"/><rect class="cls-1" x="31.38" y="54.73" width="7.25" height="1.59"/><path class="cls-2" d="M55.28,33.74A3.32,3.32,0,0,0,52,36.53l-14.36.12a3.42,3.42,0,0,0-4.13-2.53,2.93,2.93,0,0,0-.65.22L22.53,20a3.42,3.42,0,1,0-3,.84l-.42,18.33a3.42,3.42,0,1,0,4.07,2.67l8.38-2.36a3.42,3.42,0,0,0,2.76,1.41A3.33,3.33,0,0,0,36,40.47l6.2,6.4a3.44,3.44,0,1,0,5.44,1L53.8,40a3.31,3.31,0,0,0,3-5.89A3.33,3.33,0,0,0,55.28,33.74ZM18,17.48a2.2,2.2,0,1,1,2.2,2.19h0A2.2,2.2,0,0,1,18,17.48Zm12.87,20a3.25,3.25,0,0,0,.18,1.07l-8.25,2.34a3.44,3.44,0,0,0-2.68-1.75l.42-18.22a3.25,3.25,0,0,0,1.11-.29L32,34.94A3.51,3.51,0,0,0,30.89,37.44Zm1.25,0a2.2,2.2,0,1,1,2.19,2.19h0A2.19,2.19,0,0,1,32.14,37.44ZM44.51,51.55a2.2,2.2,0,1,1,2.2-2.2h0a2.19,2.19,0,0,1-2.19,2.19ZM47,47a3.43,3.43,0,0,0-2.47-1.05,3.3,3.3,0,0,0-1.38.3l-6.27-6.46a3.39,3.39,0,0,0,.89-2L52,37.59A3.27,3.27,0,0,0,53,39.41Z"/></g></svg>