<?xml version="1.0" encoding="UTF-8"?><svg id="Capa_1" xmlns="http://www.w3.org/2000/svg" viewBox="0 0 175.62 171.33"><defs><style>.cls-1{fill:#3bb1e6;}.cls-2{fill:#ced8db;}</style></defs><g><path class="cls-2" d="M39.38,23.28c0,2.73-.98,4.9-2.95,6.52-1.97,1.62-4.76,2.43-8.38,2.43-3.25,0-6.15-.62-8.7-1.85v-6.07c1.46,.63,2.98,1.21,4.54,1.74,1.56,.53,3.12,.8,4.67,.8s2.75-.31,3.42-.93c.67-.62,1.01-1.4,1.01-2.35,0-.77-.27-1.43-.8-1.98-.53-.54-1.24-1.06-2.13-1.53-.89-.47-1.91-.98-3.06-1.53-.72-.34-1.49-.75-2.33-1.23-.83-.47-1.63-1.06-2.39-1.77-.76-.7-1.39-1.56-1.87-2.56-.49-1-.73-2.21-.73-3.62,0-2.76,.93-4.9,2.8-6.44,1.87-1.54,4.41-2.3,7.62-2.3,1.61,0,3.13,.19,4.57,.56,1.44,.37,2.96,.9,4.57,1.59l-2.11,5.08c-1.41-.57-2.67-1.02-3.79-1.33-1.12-.32-2.27-.47-3.45-.47-1.23,0-2.18,.29-2.84,.86-.66,.57-.99,1.32-.99,2.24,0,1.09,.49,1.95,1.46,2.58,.98,.63,2.43,1.41,4.35,2.33,1.58,.75,2.92,1.52,4.03,2.33,1.1,.8,1.96,1.75,2.56,2.84,.6,1.09,.9,2.44,.9,4.05Z"/><path class="cls-2" d="M58.89,31.81h-6.5V14.02c0-.72,.01-1.69,.04-2.91,.03-1.22,.07-2.29,.13-3.21-.14,.17-.45,.48-.93,.93-.47,.45-.91,.84-1.31,1.18l-3.53,2.84-3.14-3.92L53.55,1.06h5.34V31.81Z"/></g><path class="cls-1" d="M160.91,103.47l-14.5,3.36-5.33,5.59-1.7,6.85-3.71,3.92-10.35,3.34-10.35-5.4-6.31-7.95-4.16-12.83,.65-12.77,2.28-2.28-2.92-4.36-9.66-5.22-7.14-11.97c-2.52-2.94-9.62-5.43-9.62-5.43l-5.34,3.8-10.61-11.4-8.67-4.23-21.37,.61L7.97,36.64l-5.99,2.04s13.05,27.13,13.69,29.16c-1.5,.34-3.03,.58-4.57,.69l-.29,2.69,10.85,7.6,2.52,6.91,4.09,4.76,4.67,7.99,4.39-3.29-2.72-6.65-10.98-22.78-5.22-9.43-2.17-7.26,3.81,1.23,31.63,45.4,8.03,15.21-1.17,6.34,21.93,15.78c1.77-1.18,3.93-1.84,6.24-1.72,5.09,.26,9.02,4.09,9.52,8.98l11.07,4.07,2.77-.07c-.04-.15-.04-.31-.06-.46,1.59,.71,3.59,1.14,5.77,1.14,1.94,0,3.75-.34,5.25-.92,0,0,0,0,0,0l6.08-.16,9.28,4.82,2.4-2.52-.63-4.39,6.27-.46,2.7-4.9s-4.23-4.02-4.35-5.05h.12l5.9-.61,4.93-5.68,3.72,.71,7.49-19.76c-.04-.24-4.05-2.61-4.05-2.61Z"/><path class="cls-1" d="M50.02,129.73c.07-1.7-.44-3.54,1.48-4.82,1.61-1.08,1.72-2.41,.83-4.17-.83-1.64-1.66-3.28-2.53-4.89-.96-1.79-2.04-2.27-4-1.86-2.72,.57-4.78-.77-5.34-3.48-.39-1.9-1.31-2.69-3.25-2.79-1.75-.09-3.5-.15-5.25-.25-2.38-.13-3.23,.47-3.93,2.73-.17,.56-.29,1.4-.69,1.59-1.49,.71-2.8,2.06-4.82,1.14-1.89-.86-3.07-.32-4.24,1.43-.92,1.38-1.82,2.79-2.71,4.2-1.36,2.14-1.26,3.15,.47,4.97,1.46,1.54,1.34,4.29-.26,5.72-.84,.75-1.7,1.47-1.78,2.79,.2,.6,.33,1.22,.6,1.78,.79,1.61,1.62,3.2,2.45,4.79,.98,1.87,2.13,2.39,4.21,1.92,2.48-.56,4.65,.84,5.18,3.35,.44,2.11,1.35,2.88,3.51,2.99,1.62,.08,3.24,.15,4.86,.24,2.46,.13,3.37-.51,4.12-2.89,.16-.52,.27-1.31,.63-1.48,1.54-.69,2.84-2.14,4.92-1.1,1.73,.86,3.07,.22,4.15-1.42,.96-1.46,1.9-2.94,2.85-4.41,1.2-1.88,1.1-2.95-.38-4.59-.42-.47-1.12-1.01-1.1-1.5Zm-16.92,4.47c-3.77-.21-6.77-3.53-6.57-7.29,.2-3.79,3.46-6.69,7.31-6.5,3.85,.19,6.73,3.38,6.54,7.23-.19,3.78-3.51,6.76-7.27,6.55Z"/><g><path class="cls-2" d="M99.36,38.47c0,2.78-1,4.98-3.01,6.58s-4.79,2.41-8.37,2.41c-3.29,0-6.2-.62-8.73-1.86v-6.08c2.08,.93,3.84,1.58,5.28,1.96s2.76,.57,3.96,.57c1.43,0,2.54-.27,3.3-.82s1.15-1.36,1.15-2.45c0-.6-.17-1.14-.51-1.61-.34-.47-.83-.92-1.49-1.36-.65-.44-1.99-1.13-4-2.09-1.89-.89-3.3-1.74-4.24-2.55-.94-.82-1.7-1.77-2.26-2.85s-.84-2.35-.84-3.8c0-2.73,.92-4.87,2.77-6.43,1.85-1.56,4.41-2.34,7.67-2.34,1.6,0,3.13,.19,4.59,.57,1.46,.38,2.98,.92,4.57,1.6l-2.11,5.08c-1.65-.67-3.01-1.15-4.08-1.41-1.08-.27-2.13-.4-3.18-.4-1.24,0-2.19,.29-2.85,.87-.66,.58-.99,1.33-.99,2.26,0,.58,.13,1.08,.4,1.51,.27,.43,.69,.84,1.28,1.25,.58,.4,1.97,1.12,4.15,2.16,2.88,1.38,4.86,2.76,5.93,4.15,1.07,1.39,1.6,3.08,1.6,5.1Z"/><path class="cls-2" d="M124.36,47.03h-21.56v-4.54l7.74-7.83c2.29-2.35,3.79-3.98,4.49-4.88,.7-.91,1.21-1.75,1.52-2.52,.31-.77,.46-1.58,.46-2.41,0-1.24-.34-2.16-1.02-2.76-.68-.6-1.59-.91-2.73-.91-1.2,0-2.36,.27-3.48,.82-1.13,.55-2.3,1.33-3.52,2.34l-3.54-4.2c1.52-1.29,2.78-2.21,3.78-2.74,1-.53,2.09-.95,3.27-1.23,1.18-.29,2.5-.43,3.97-.43,1.93,0,3.63,.35,5.11,1.05,1.48,.7,2.62,1.69,3.44,2.95s1.22,2.71,1.22,4.35c0,1.42-.25,2.75-.75,4-.5,1.25-1.27,2.52-2.32,3.83-1.05,1.31-2.89,3.17-5.54,5.59l-3.97,3.73v.3h13.44v5.49Z"/></g><g><path class="cls-2" d="M149.23,75.88c0,2.78-1,4.98-3.01,6.58s-4.79,2.41-8.37,2.41c-3.29,0-6.2-.62-8.73-1.86v-6.08c2.08,.93,3.84,1.58,5.28,1.96s2.76,.57,3.96,.57c1.43,0,2.54-.27,3.3-.82s1.15-1.36,1.15-2.45c0-.6-.17-1.14-.51-1.61-.34-.47-.83-.92-1.49-1.36-.65-.44-1.99-1.13-4-2.09-1.89-.89-3.3-1.74-4.24-2.55-.94-.82-1.7-1.77-2.26-2.85s-.84-2.35-.84-3.8c0-2.73,.92-4.87,2.77-6.43,1.85-1.56,4.41-2.34,7.67-2.34,1.6,0,3.13,.19,4.59,.57,1.46,.38,2.98,.92,4.57,1.6l-2.11,5.08c-1.65-.67-3.01-1.15-4.08-1.41-1.08-.27-2.13-.4-3.18-.4-1.24,0-2.19,.29-2.85,.87-.66,.58-.99,1.33-.99,2.26,0,.58,.13,1.08,.4,1.51,.27,.43,.69,.84,1.28,1.25,.58,.4,1.97,1.12,4.15,2.16,2.88,1.38,4.86,2.76,5.93,4.15,1.07,1.39,1.6,3.08,1.6,5.1Z"/><path class="cls-2" d="M173.02,60.5c0,1.93-.58,3.57-1.75,4.92-1.17,1.35-2.81,2.28-4.92,2.79v.13c2.49,.31,4.37,1.07,5.65,2.27,1.28,1.2,1.92,2.82,1.92,4.86,0,2.97-1.08,5.28-3.23,6.93-2.15,1.65-5.23,2.48-9.22,2.48-3.35,0-6.32-.56-8.9-1.67v-5.55c1.2,.61,2.51,1.1,3.95,1.48s2.85,.57,4.26,.57c2.15,0,3.74-.37,4.77-1.1s1.54-1.91,1.54-3.52c0-1.45-.59-2.48-1.77-3.08-1.18-.61-3.07-.91-5.65-.91h-2.34v-5h2.38c2.39,0,4.14-.31,5.24-.94,1.1-.63,1.66-1.7,1.66-3.22,0-2.33-1.46-3.5-4.39-3.5-1.01,0-2.04,.17-3.09,.51-1.05,.34-2.21,.92-3.49,1.75l-3.02-4.49c2.81-2.03,6.17-3.04,10.06-3.04,3.19,0,5.71,.65,7.56,1.94s2.77,3.09,2.77,5.4Z"/></g><path class="cls-2" d="M110.43,144.98c.1-2.48-.64-5.19,2.16-7.07,2.35-1.58,2.52-3.53,1.22-6.11-1.21-2.4-2.43-4.8-3.7-7.17-1.4-2.62-3-3.33-5.86-2.73-3.98,.84-7.01-1.13-7.82-5.09-.57-2.78-1.92-3.94-4.76-4.08-2.56-.13-5.12-.23-7.69-.36-3.49-.19-4.74,.69-5.76,4-.25,.82-.43,2.05-1.01,2.33-2.19,1.04-4.11,3.01-7.06,1.67-2.77-1.26-4.5-.46-6.21,2.1-1.35,2.03-2.66,4.09-3.97,6.15-2,3.14-1.85,4.61,.69,7.29,2.15,2.26,1.97,6.29-.38,8.38-1.23,1.09-2.49,2.15-2.6,4.09,.29,.87,.48,1.79,.88,2.61,1.15,2.36,2.38,4.68,3.6,7.01,1.43,2.75,3.12,3.51,6.17,2.81,3.63-.83,6.81,1.23,7.59,4.91,.65,3.09,1.98,4.22,5.15,4.38,2.37,.12,4.75,.22,7.12,.34,3.6,.19,4.93-.75,6.03-4.24,.24-.76,.4-1.93,.92-2.16,2.25-1.01,4.17-3.13,7.21-1.62,2.54,1.26,4.5,.33,6.07-2.08,1.41-2.15,2.79-4.3,4.17-6.46,1.76-2.75,1.61-4.32-.55-6.72-.62-.69-1.64-1.48-1.61-2.19Zm-24.79,6.54c-5.52-.31-9.91-5.18-9.63-10.68,.29-5.55,5.07-9.8,10.71-9.52,5.64,.28,9.86,4.96,9.58,10.6-.28,5.53-5.14,9.9-10.65,9.6Z"/></svg>
