<svg id="Capa_1" data-name="Capa 1" xmlns="http://www.w3.org/2000/svg" viewBox="0 0 42.29 41.26"><defs><style>.cls-1{fill:#fff;opacity:0.08;}.cls-2{opacity:0.31;}.cls-3{fill:#ced8db;}</style></defs><circle class="cls-1" cx="21.51" cy="21.11" r="20.43"/><g class="cls-2"><path class="cls-3" d="M25.14,21.17a6.34,6.34,0,1,0-6.95,0,8.44,8.44,0,0,0-7.52,8.4,3.83,3.83,0,0,0,0,.57l.06.85H32.27l.06-.85c0-.18,0-.36,0-.57A8.6,8.6,0,0,0,25.14,21.17Zm-8-5.32a4.54,4.54,0,1,1,4.54,4.54A4.53,4.53,0,0,1,17.16,15.85ZM12.48,29.12a6.68,6.68,0,0,1,6.65-6.26h4.74a6.68,6.68,0,0,1,6.65,6.26Z"/></g></svg>