<svg xmlns="http://www.w3.org/2000/svg" viewBox="0 0 134.51 137.94"><defs><style>.cls-1{opacity:0.9;}.cls-2{fill:#3bb1e6;}.cls-3{fill:#ced8db;}</style></defs><g id="menu_interconexion" data-name="menu interconexion"><g class="cls-1"><path class="cls-2" d="M83.24,0c11.94,0,23.88-.06,35.82,0,5.08,0,9.57,1.84,12.66,6.78,2.16,3.44,2.76,7.42,2.77,11.54q0,23.85,0,47.72c0,8.24-3.49,13.9-10.34,16.91a2.09,2.09,0,0,0-1.42,2.35c.08,4.33.07,8.67,0,13a5.76,5.76,0,0,1-3.08,5.48,5,5,0,0,1-5.94-.76,9.74,9.74,0,0,1-.92-.9c-4.44-5.11-8.91-10.18-13.31-15.34a8.17,8.17,0,0,0-6.67-3L48.74,84a18.46,18.46,0,0,1-8.19-1.62c-5.06-2.43-7.55-7.06-8.17-13a91.43,91.43,0,0,1-.31-9.66q0-21.16,0-42.33C32.11,7,38.18.05,47.29,0,59.27,0,71.25,0,83.24,0Zm-1.45,56.1a42.59,42.59,0,0,0,4.39-.35,2.08,2.08,0,0,0,1.31-1.28,19.26,19.26,0,0,1,4.42-8c1.4-1.52,2.93-2.89,4.39-4.33,8-7.9,5.47-22.77-1.74-27.64a20.38,20.38,0,0,0-9.25-3.37c-5.67-.64-11.07.38-15.75,4.35a12.64,12.64,0,0,0-4.36,10.2,2.61,2.61,0,0,0,1.85,2.84c3.61,1.1,8.69-.77,10.93-4.13,1.65-2.48,3.9-2.88,6.36-2.32s3.74,2.18,4.24,4.83a11.83,11.83,0,0,1-2.51,10.28,30.65,30.65,0,0,1-4.47,4.22c-4.12,3.18-5.71,7.71-5.71,13.15a1.4,1.4,0,0,0,.82,1.06C78.39,55.89,80.1,56,81.79,56.12Zm-.33,16.39v-.17a25,25,0,0,0,3.24,0c1.76-.24,2.68-1.25,2.85-3.21a33.85,33.85,0,0,0,0-4.83c-.1-1.64-.92-2.77-2.42-2.81q-3.81-.12-7.62,0c-1.25.05-2,1-2,2.43-.09,1.83-.09,3.66,0,5.48a2.57,2.57,0,0,0,2.34,2.73C79,72.31,80.24,72.39,81.46,72.51Z"/><path class="cls-3" d="M92.28,94.22c2.28,2.54,2.89,3.25,5.1,5.87,1.84,2.16,2.11,1.72.8,4.36-.12,2.36-.27,5.89-1.52,7.73-2.29,3.38-5.62,4.48-9.19,4.83-.49,0-1,0-1.46,0q-22.77,0-45.53,0c-3.53.15-4.75.89-6.56,3-4.37,5-8.76,10-13.1,15-2.31,2.67-4.47,3.5-6.81,2.44s-3.45-3.16-3.51-5.91,0-5.25.16-7.87c.27-4.57-.24-7.75-3.9-9.49C2.28,112.1.18,108,.12,102.86-.07,88.25,0,76.64,0,62c0-3,.14-6,0-9-.38-8.56,5.05-15.94,13.1-16.43,3.3-.21,5.62,0,9,0v9.54c-2.74,0-5.4-.07-8.07,0-3.55.11-5,3.89-5,8q0,24.06,0,48.12c0,4.26,1.52,6,5.28,6.19,2.05.08,4.11,0,6.34,0v13.07c.91-1,1.59-1.66,2.23-2.4,2.23-2.55,4.48-5.07,6.64-7.68a7.57,7.57,0,0,1,6.15-3q24,0,48.08,0a20.87,20.87,0,0,0,3.62-.28c2.24-.4,3.27-1.52,3.47-4s.14-5.34.28-8a7.86,7.86,0,0,1,.59-1.94Z"/></g></g></svg>