<svg xmlns="http://www.w3.org/2000/svg" viewBox="0 0 64 64"><defs><style>.cls-1{fill:#3bb1e6;}.cls-2{fill:#edf2f9;}</style></defs><g id="logos"><g id="ico_blog"><path class="cls-1" d="M61.77,55.94,49.88,56,43.72,34H.48L7.32,59.09h56.2Zm-51.88.49L4.15,36.72h37l5.48,19.71Z"/><path class="cls-2" d="M33.62,4.91H4.27V29.8H14.9l12.26,8.93-1-8.93h7.46ZM23.5,27.64l1,6.75-8.7-6.77H6.51V7.3H31.4V27.64Z"/><rect class="cls-1" x="19.91" y="42.94" width="14.53" height="1.81"/><rect class="cls-1" x="22.85" y="47.93" width="14.53" height="1.81"/><path class="cls-2" d="M12.21,25.18l1.15-4,8.32-8.38,2.87,2.93-3.86,3.85-4.36,4.36Z"/><path class="cls-2" d="M25.51,14.77,22.68,11.9l1.47-1.55.94.1,1.8,1.81v1.1Z"/></g></g></svg>