<svg id="Capa_1" data-name="Capa 1" xmlns="http://www.w3.org/2000/svg" viewBox="0 0 64 64"><defs><style>.cls-1{fill:none;stroke:#ced8db;stroke-linecap:round;stroke-linejoin:round;stroke-width:2.45px;}.cls-2{fill:#3bb1e6;}</style></defs><g id="ico_mesa_ayuda"><polyline class="cls-1" points="26.08 1.98 20.45 11.67 19.51 22.93 11.69 30.44 18.26 35.13 17.01 39.19 19.82 41.7 17.29 44.17 21.07 47.32 21.7 55.14 36.4 56.08 44.21 62.02"/><path class="cls-2" d="M53.28,20.43a6.88,6.88,0,1,0-7.72,6.82,7,7,0,0,1,.13,2c-.06,4-1.89,8.39-10.83,8.39a1.86,1.86,0,0,1-.34,0V35.75H24.2v6.57H34.52V41c16.11.51,14.42-11.64,14.7-13.24a5.18,5.18,0,0,1,.53-1.26h0A6.87,6.87,0,0,0,53.28,20.43Z"/></g></svg>