<?xml version="1.0" encoding="UTF-8"?>
<svg id="menu_interconexion" xmlns="http://www.w3.org/2000/svg" viewBox="0 0 181.42 181.42">
  <defs>
    <style>
      .cls-1 {
        fill: #3bb1e6;
      }

      .cls-2 {
        fill: #ced8db;
      }
    </style>
  </defs>
  <path class="cls-1" d="M158.94,114.02l-14.51,3.35-5.32,5.59-1.7,6.84-3.71,3.92-10.35,3.34-10.35-5.4-6.31-8-4.16-12.84.65-12.76,2.29-2.26-2.93-4.36-9.66-5.22-7.14-12c-2.52-2.88-9.63-5.37-9.63-5.37l-5.34,3.8-10.6-11.4-8.67-4.23-21.39.61-24.11-10.44-6,2s13.11,27.16,13.7,29.2c-1.5.34-3.02.57-4.56.69l-.29,2.72,10.85,7.6,2.52,6.9,4.08,4.77,4.68,8,4.38-3.29-2.71-6.65-11-22.78-5.22-9.42-2.17-7.26,3.85,1.19,31.63,45.4,8,15.21-1.16,6.33,21.93,15.79c1.84-1.23,4.02-1.83,6.23-1.72,4.97.21,9.03,4.05,9.52,9l11.08,4.07,2.76-.07c-.03-.15-.05-.31-.06-.46,1.82.77,3.79,1.16,5.77,1.14,1.79.02,3.57-.3,5.25-.92h0l6.08-.16,9.28,4.82,2.4-2.52-.62-4.39,6.26-.45,2.71-4.9s-4.23-4-4.35-5h.12l5.9-.61,4.93-5.68,3.72.7,7.5-19.76c-1.3-.96-2.65-1.85-4.05-2.66Z"/>
  <path class="cls-1" d="M48.05,140.28c.07-1.69-.44-3.54,1.48-4.82,1.61-1.07,1.72-2.41.83-4.17-.89-1.76-1.65-3.27-2.52-4.89-.6-1.61-2.38-2.44-4-1.86-2.21.66-4.54-.6-5.2-2.81-.06-.22-.11-.44-.14-.67-.12-1.65-1.55-2.9-3.2-2.78-.02,0-.03,0-.05,0l-5.25-.25c-2.38-.13-3.23.47-3.93,2.73-.17.56-.29,1.4-.68,1.59-1.5.71-2.81,2-4.83,1.13-2.02-.87-3.07-.31-4.24,1.44-.92,1.38-1.81,2.79-2.71,4.19-1.36,2.14-1.26,3.15.48,5,1.46,1.67,1.34,4.2-.27,5.72-.96.63-1.61,1.65-1.77,2.79.16.61.36,1.2.6,1.78.79,1.61,1.62,3.2,2.45,4.79,1,1.87,2.13,2.39,4.21,1.92,2.22-.59,4.5.73,5.09,2.94.04.13.06.27.09.41.44,2.11,1.35,2.88,3.51,3,1.62.08,3.25.15,4.87.24,2.46.13,3.36-.51,4.11-2.9.17-.52.27-1.31.63-1.47,1.54-.69,2.85-2.14,4.93-1.1,1.73.86,3.07.22,4.14-1.42.96-1.47,1.91-2.94,2.85-4.41,1.2-1.88,1.1-2.95-.38-4.59-.42-.5-1.11-1.01-1.1-1.53ZM31.11,144.8c-3.81-.23-6.74-3.47-6.57-7.29.23-3.81,3.5-6.72,7.31-6.5,3.77.16,6.7,3.34,6.54,7.11,0,.04,0,.09,0,.13-.24,3.8-3.47,6.7-7.27,6.55Z"/>
  <g>
    <path class="cls-2" d="M76.13,37.89c.1,2.37-.94,4.65-2.79,6.13-1.86,1.49-4.45,2.23-7.78,2.23-2.81.06-5.59-.54-8.13-1.73v-5.65c1.59.75,3.23,1.37,4.92,1.86,1.21.34,2.46.52,3.72.53,1.08.07,2.15-.2,3.07-.76.72-.53,1.12-1.39,1.07-2.28,0-.54-.16-1.06-.47-1.5-.38-.5-.85-.93-1.39-1.26-1.2-.73-2.44-1.37-3.72-1.94-1.43-.63-2.78-1.44-4-2.42-.86-.74-1.57-1.64-2.1-2.64-.54-1.1-.81-2.31-.78-3.53-.11-2.29.84-4.5,2.58-5.99,1.72-1.45,4.1-2.18,7.13-2.18,1.44,0,2.87.17,4.27.53,1.45.39,2.87.89,4.25,1.49l-1.96,4.73c-1.23-.53-2.5-.97-3.79-1.31-.97-.25-1.96-.38-2.96-.38-.95-.06-1.9.23-2.65.81-.98.9-1.2,2.35-.55,3.51.32.46.74.86,1.22,1.15,1.25.75,2.53,1.42,3.86,2.01,2.65,1.28,4.51,2.57,5.44,3.86,1.04,1.36,1.58,3.03,1.53,4.73Z"/>
    <path class="cls-2" d="M99.38,45.86h-20.05v-4.25l7.2-7.27c2.13-2.19,3.53-3.7,4.18-4.55.58-.71,1.06-1.5,1.41-2.34.29-.71.44-1.47.44-2.23.08-.95-.26-1.9-.93-2.58-.71-.59-1.62-.89-2.54-.85-1.12,0-2.23.27-3.24.77-1.17.59-2.27,1.32-3.27,2.18l-3.33-3.88c1.08-.95,2.26-1.79,3.52-2.5.96-.51,1.98-.9,3.04-1.15,1.22-.28,2.47-.41,3.72-.4,1.64-.03,3.26.3,4.74.99,1.31.59,2.42,1.54,3.2,2.74.77,1.21,1.16,2.61,1.13,4.05.01,1.27-.23,2.54-.7,3.72-.53,1.29-1.26,2.49-2.16,3.56-1.59,1.85-3.31,3.59-5.14,5.2l-3.72,3.48v.27h12.5v5.05Z"/>
  </g>
  <g>
    <path class="cls-2" d="M125.69,65.42c.1,2.29-.9,4.48-2.69,5.91-1.79,1.43-4.29,2.15-7.5,2.15-2.71.06-5.41-.51-7.86-1.67v-5.44c1.53.72,3.11,1.32,4.73,1.79,1.17.32,2.37.5,3.59.51,1.04.07,2.07-.19,2.96-.74.69-.51,1.08-1.33,1.03-2.19,0-.52-.15-1.02-.46-1.44-.36-.49-.81-.92-1.33-1.25-1.16-.7-2.35-1.32-3.59-1.87-1.36-.59-2.64-1.37-3.8-2.29-.83-.71-1.52-1.58-2.03-2.55-.52-1.06-.78-2.23-.75-3.41-.1-2.2.81-4.33,2.48-5.77,1.66-1.4,3.95-2.1,6.88-2.1,1.39,0,2.77.17,4.11.51,1.4.38,2.77.86,4.1,1.43l-1.89,4.56c-1.19-.51-2.42-.94-3.67-1.27-.93-.23-1.88-.35-2.84-.36-.92-.06-1.83.22-2.55.78-.59.5-.92,1.25-.9,2.03-.01.48.11.95.36,1.35.3.45.69.82,1.15,1.11,1.2.72,2.44,1.37,3.71,1.94,2.59,1.24,4.36,2.47,5.32,3.72.98,1.31,1.49,2.91,1.44,4.54Z"/>
    <path class="cls-2" d="M147.03,51.63c.04,1.61-.52,3.19-1.57,4.41-1.16,1.3-2.7,2.19-4.4,2.54v.12c1.86.13,3.63.84,5.06,2.03,1.17,1.14,1.8,2.72,1.72,4.36.11,2.42-.97,4.74-2.9,6.21-1.93,1.48-4.69,2.22-8.27,2.22-2.73.05-5.45-.46-7.98-1.5v-5.01c1.13.56,2.31,1,3.53,1.32,1.25.34,2.54.51,3.83.51,1.49.11,2.98-.23,4.27-.98.97-.75,1.48-1.94,1.37-3.16.08-1.16-.55-2.25-1.59-2.76-1.61-.64-3.34-.92-5.06-.82h-2.1v-4.48h2.13c1.61.1,3.22-.18,4.7-.83,1.01-.59,1.59-1.72,1.49-2.89,0-2.1-1.31-3.14-3.94-3.14-.94,0-1.88.15-2.77.45-1.11.39-2.16.91-3.13,1.57l-2.69-4.02c2.64-1.84,5.81-2.78,9.03-2.69,2.38-.13,4.75.48,6.78,1.74,1.6,1.07,2.53,2.88,2.47,4.8Z"/>
  </g>
  <path class="cls-2" d="M108.46,155.53c.1-2.48-.65-5.18,2.16-7.06,2.35-1.58,2.52-3.53,1.22-6.11-1.21-2.4-2.43-4.8-3.7-7.17-1.4-2.62-3-3.33-5.86-2.73-4,.84-7-1.13-7.82-5.09-.57-2.78-1.93-3.94-4.76-4.08-2.57-.13-5.13-.23-7.69-.37-3.49-.18-4.74.69-5.76,4-.25.83-.43,2-1,2.33-2.2,1-4.11,3-7.07,1.67-2.76-1.26-4.5-.47-6.21,2.1-1.36,2-2.66,4.08-4,6.14-2,3.14-1.86,4.61.69,7.29,2.14,2.44,1.97,6.14-.39,8.38-1.22,1.09-2.49,2.15-2.6,4.09.24.89.53,1.76.88,2.61,1.16,2.36,2.38,4.68,3.6,7,1.43,2.75,3.12,3.51,6.17,2.82,3.25-.87,6.59,1.07,7.45,4.32.05.2.09.39.13.59.65,3.09,2,4.22,5.15,4.38,2.37.12,4.75.22,7.12.35,3.61.19,4.94-.75,6-4.24.24-.76.39-1.92.92-2.16,2.25-1,4.17-3.13,7.21-1.62,2.54,1.27,4.5.33,6.08-2.07,1.4-2.15,2.78-4.31,4.17-6.47,1.76-2.75,1.61-4.31-.55-6.72-.55-.68-1.57-1.47-1.54-2.18ZM83.66,162.07c-5.57-.36-9.84-5.1-9.62-10.68.33-5.58,5.12-9.84,10.7-9.52,5.52.22,9.81,4.88,9.59,10.39,0,.07,0,.14-.01.21-.33,5.58-5.08,9.86-10.66,9.6h0Z"/>
  <g>
    <path class="cls-2" d="M23.96,25.51c0,2.65-.96,4.74-2.86,6.27-1.91,1.53-4.57,2.29-7.97,2.29-3.14,0-5.91-.59-8.32-1.77v-5.79c1.98.88,3.66,1.51,5.04,1.87,1.37.36,2.63.54,3.77.54,1.37,0,2.41-.26,3.15-.78.73-.52,1.09-1.3,1.09-2.33,0-.58-.16-1.09-.48-1.54-.32-.45-.79-.88-1.42-1.3-.62-.42-1.89-1.08-3.81-1.99-1.8-.84-3.14-1.65-4.04-2.43s-1.61-1.68-2.15-2.71c-.54-1.03-.8-2.24-.8-3.62,0-2.6.88-4.64,2.64-6.13s4.2-2.23,7.31-2.23c1.53,0,2.98.18,4.37.54,1.39.36,2.84.87,4.35,1.53l-2.01,4.84c-1.57-.64-2.86-1.09-3.89-1.35-1.03-.25-2.03-.38-3.03-.38-1.18,0-2.08.27-2.71.82s-.94,1.27-.94,2.15c0,.55.13,1.03.38,1.44.25.41.66.8,1.22,1.19.56.38,1.87,1.07,3.95,2.06,2.75,1.31,4.63,2.63,5.65,3.95,1.02,1.32,1.53,2.94,1.53,4.85Z"/>
    <path class="cls-2" d="M42.59,33.67h-6.21v-17l.06-2.79.1-3.06c-1.03,1.03-1.75,1.71-2.15,2.03l-3.38,2.71-2.99-3.74,9.47-7.54h5.11v29.39Z"/>
  </g>
  <g>
    <path class="cls-2" d="M155.54,102.54c0,2.56-.9,4.58-2.7,6.05-1.8,1.47-4.3,2.21-7.5,2.21-2.95,0-5.56-.57-7.83-1.71v-5.59c1.87.85,3.45,1.46,4.74,1.8,1.29.35,2.48.52,3.55.52,1.29,0,2.27-.25,2.96-.76.69-.5,1.03-1.25,1.03-2.25,0-.56-.15-1.05-.45-1.48s-.75-.85-1.33-1.25c-.59-.4-1.78-1.04-3.59-1.92-1.69-.81-2.96-1.6-3.8-2.35-.85-.75-1.52-1.62-2.02-2.62-.51-1-.76-2.16-.76-3.49,0-2.51.83-4.48,2.49-5.92,1.66-1.44,3.95-2.15,6.88-2.15,1.44,0,2.81.17,4.11.52,1.31.35,2.67.84,4.1,1.47l-1.89,4.68c-1.48-.62-2.7-1.05-3.66-1.3-.96-.25-1.91-.37-2.85-.37-1.11,0-1.96.27-2.55.8-.59.53-.89,1.22-.89,2.08,0,.53.12.99.36,1.39.24.39.62.78,1.14,1.14.52.37,1.76,1.03,3.72,1.99,2.59,1.27,4.36,2.54,5.32,3.81.96,1.27,1.44,2.84,1.44,4.69Z"/>
    <path class="cls-2" d="M158.43,98.37c0-5.61,1.16-9.79,3.47-12.54,2.31-2.74,5.78-4.11,10.4-4.11,1.58,0,2.81.1,3.71.29v4.79c-1.12-.26-2.23-.39-3.33-.39-2.01,0-3.64.31-4.91.93-1.27.62-2.22,1.54-2.85,2.76-.63,1.22-1,2.94-1.12,5.18h.25c1.25-2.2,3.25-3.3,6-3.3,2.47,0,4.41.8,5.81,2.39,1.4,1.59,2.1,3.79,2.1,6.6,0,3.03-.83,5.42-2.5,7.19-1.66,1.77-3.97,2.65-6.92,2.65-2.04,0-3.82-.49-5.34-1.46-1.52-.97-2.69-2.39-3.52-4.25-.83-1.86-1.24-4.11-1.24-6.73ZM168.42,106.02c1.25,0,2.21-.43,2.87-1.29.67-.86,1-2.09,1-3.68,0-1.38-.31-2.47-.94-3.27-.62-.8-1.57-1.19-2.83-1.19-1.19,0-2.2.39-3.04,1.18-.84.79-1.26,1.71-1.26,2.76,0,1.54.39,2.84,1.18,3.9.79,1.06,1.79,1.59,3,1.59Z"/>
  </g>
</svg>