<svg xmlns="http://www.w3.org/2000/svg" viewBox="0 0 171.13 117.71"><defs><style>.cls-1{opacity:0.9;}.cls-2{fill:#3bb1e6;}.cls-3{fill:#155065;}.cls-4{fill:#ced8db;}.cls-5{fill:#3ab0e5;}</style></defs><g id="menu_interconexion" data-name="menu interconexion"><g class="cls-1"><path class="cls-2" d="M166.88,70.17l-15.23,3.52-5.59,5.87-1.78,7.2-3.9,4.11-10.87,3.51L118.64,88.7,112,80.36l-4.37-13.48.68-13.41,2.4-2.39-3.07-4.58L97.52,41,90,28.44c-2.65-3.08-10.1-5.7-10.1-5.7l-5.61,4-11.14-12-9.11-4.44L31.62,11,6.29,0,0,2.14S13.71,30.62,14.38,32.76a32.34,32.34,0,0,1-4.8.73l-.3,2.82,11.39,8,2.65,7.25,4.29,5,4.91,8.38,4.6-3.45-2.85-7L22.74,30.58l-5.48-9.89L15,13.06l4,1.29L52.2,62l8.43,16L59.4,84.66l27.41,19.73,23.79,8.74,2.9-.07c0-.16,0-.32-.07-.48a16.15,16.15,0,0,0,11.57.23h0l6.39-.17,9.75,5.06,2.52-2.65-.66-4.6,6.58-.48,2.84-5.14s-4.44-4.22-4.57-5.31H148l6.19-.64,5.19-6,3.9.74,7.87-20.76A47.35,47.35,0,0,0,166.88,70.17Z"/><rect class="cls-3" x="40.69" y="72.23" width="80.8" height="41.9" rx="11.22"/><path class="cls-4" d="M110.27,72.23a11.22,11.22,0,0,1,11.22,11.22V102.9a11.22,11.22,0,0,1-11.22,11.23H51.91A11.22,11.22,0,0,1,40.69,102.9V83.45A11.22,11.22,0,0,1,51.91,72.23h58.36m0-2.26H51.91A13.5,13.5,0,0,0,38.43,83.45V102.9a13.5,13.5,0,0,0,13.48,13.49h58.36a13.49,13.49,0,0,0,13.48-13.49V83.45A13.49,13.49,0,0,0,110.27,70Z"/><g id="ico_logo"><path class="cls-4" d="M66.56,90.12a5.74,5.74,0,0,1-2,4.69A8.5,8.5,0,0,1,59,96.44H57.25v6.77H53.13v-19h6.21a8.41,8.41,0,0,1,5.38,1.49A5.39,5.39,0,0,1,66.56,90.12Zm-9.31,3h1.36a4.57,4.57,0,0,0,2.84-.74,2.55,2.55,0,0,0,.95-2.14,2.61,2.61,0,0,0-.79-2.09,3.73,3.73,0,0,0-2.48-.68H57.25Z"/><path class="cls-4" d="M107.64,103.21H102.4L93.94,88.82h-.12c.17,2.54.26,4.35.26,5.43v9H90.39v-19h5.2L104,98.43h.09c-.13-2.47-.2-4.22-.2-5.24v-9h3.71Z"/><path class="cls-5" d="M73.81,103.51V99.92a20.23,20.23,0,0,0,5.59-.31,5.27,5.27,0,0,0,4-4.46,8.86,8.86,0,0,0-.14-4,5.25,5.25,0,0,0-4.43-3.93,11.41,11.41,0,0,0-2-.18c-2.79,0-5.57,0-8.36,0h-.34V83.82h8.2a14,14,0,0,1,4.8.76,7.71,7.71,0,0,1,5,5.2A13,13,0,0,1,86,97.87a7.89,7.89,0,0,1-5.92,5.24A27.3,27.3,0,0,1,73.81,103.51Z"/><path class="cls-5" d="M73.86,93.05c0-.86,0-1.71,0-2.57,0-.22.06-.29.29-.28.89,0,2.25,0,3.14.11a2.34,2.34,0,0,1,2.25,2.6,2.93,2.93,0,0,1-.81,2.21,3.2,3.2,0,0,1-2,.78c-.71,0-1.89,0-2.6,0-.21,0-.25-.09-.25-.27C73.87,94.78,73.86,93.92,73.86,93.05Z"/></g></g></g></svg>