<svg id="Capa_1" data-name="Capa 1" xmlns="http://www.w3.org/2000/svg" viewBox="0 0 64 64"><defs><style>.cls-1{fill:#3bb1e6;}.cls-2{fill:#ced8db;}</style></defs><g id="ico_especificaciones"><rect class="cls-1" x="15.25" y="26.93" width="9.12" height="2"/><rect class="cls-1" x="15.25" y="31.82" width="9.12" height="2"/><rect class="cls-2" x="8.58" y="13.21" width="16.22" height="2.02"/><rect class="cls-2" x="8.58" y="18.78" width="16.22" height="2.02"/><polygon class="cls-1" points="61.92 6.13 0.42 5.99 0.41 45.84 23.35 45.93 23.24 43.01 3.62 42.88 3.62 9.03 30.46 9.22 30.69 37.73 34.23 37.73 34.22 9.09 59.39 9.18 59.6 26.63 62.18 29.21 61.92 6.13"/><path class="cls-2" d="M46.65,23.46l1.49.5v9.93l2,0V29.45H51a1.48,1.48,0,0,1,1.59,1.37v6.42h1.84s.06-4.67.06-4.79h1A1.58,1.58,0,0,1,57.13,34V34l.07,5.8H59V35.44h1.06A1.56,1.56,0,0,1,61.64,37V47.43c0,.68-.23,2.94-.23,2.94L55.7,55.91,43.41,56l-4-9.69,0-9.22,3.69-1.61,0,7.32h2.06V23.92l1.49-.46m0-2.13-.64.2-1.5.46-1.42.44V33.2l-.88.39-3.69,1.6-1.22.54v1.34l.06,9.21v.39l.14.37,4,9.68L42,58h1.36l12.29,0h.81l.59-.57,5.71-5.54.53-.51.07-.74c0-.39.23-2.39.24-3.13V37.1a3.69,3.69,0,0,0-1.06-2.62,3.48,3.48,0,0,0-2.51-1H59a3.51,3.51,0,0,0-3.55-3h-.94a3.47,3.47,0,0,0-3.55-3h-.82V22.51l-1.37-.46-1.47-.5-.64-.22Z"/></g></svg>