<svg xmlns="http://www.w3.org/2000/svg" viewBox="0 0 218.17 80.56"><defs><style>.cls-1{font-size:14.46px;font-family:NotoSansSC-Black-90ms-RKSJ-H, Noto Sans SC Black;}.cls-1,.cls-7{fill:#fff;}.cls-2{letter-spacing:-0.02em;}.cls-3{letter-spacing:-0.02em;}.cls-4{letter-spacing:0em;}.cls-5{letter-spacing:-0.01em;}.cls-6{letter-spacing:0em;}.cls-7{font-size:12.89px;font-family:NotoSansSC-Regular-90ms-RKSJ-H, Noto Sans SC Regular;}.cls-8{letter-spacing:-0.01em;}.cls-9{letter-spacing:-0.02em;}.cls-10{letter-spacing:0em;}.cls-11{letter-spacing:-0.02em;}.cls-12{fill:#ced8db;}.cls-13{fill:#3ab0e5;}</style></defs><g id="logos"><text class="cls-1" transform="translate(0 51.88)">Pl<tspan class="cls-2" x="14.74" y="0">a</tspan><tspan class="cls-3" x="23.19" y="0">t</tspan><tspan class="cls-4" x="29.29" y="0">a</tspan><tspan class="cls-5" x="38.05" y="0">f</tspan><tspan class="cls-6" x="43.64" y="0">orma Digi</tspan><tspan class="cls-3" x="114.63" y="0">t</tspan><tspan class="cls-4" x="120.73" y="0">al Nacional</tspan></text><text class="cls-7" transform="translate(0 67.05)">In<tspan class="cls-8" x="11.65" y="0">t</tspan><tspan x="16.32" y="0">eli</tspan><tspan class="cls-9" x="30.68" y="0">g</tspan><tspan x="37.74" y="0">encia de D</tspan><tspan class="cls-8" x="99.91" y="0">at</tspan><tspan class="cls-10" x="111.65" y="0">os Anti</tspan><tspan class="cls-11" x="152.49" y="0">c</tspan><tspan class="cls-10" x="158.74" y="0">orrupción</tspan></text><path class="cls-12" d="M23.36,10.15q0,4.95-3.1,7.58c-2.06,1.74-5,2.62-8.79,2.62H8.68v10.9H2.18V.59H12q5.58,0,8.48,2.4T23.36,10.15ZM8.68,15h2.14a7.11,7.11,0,0,0,4.48-1.18,4.13,4.13,0,0,0,1.49-3.45A4.23,4.23,0,0,0,15.54,7a5.82,5.82,0,0,0-3.91-1.09h-3Z"/><path class="cls-12" d="M88.14,31.25H79.88L66.54,8.06h-.19c.26,4.09.4,7,.4,8.76V31.25H60.94V.59h8.2l13.32,23h.14q-.31-6-.31-8.46V.59h5.85Z"/><path class="cls-13" d="M34.79,31.74V26c4.85.14,7.65-.11,8.81-.5A8.44,8.44,0,0,0,50,18.26a14.7,14.7,0,0,0-.23-6.43,8.3,8.3,0,0,0-7-6.34,17,17,0,0,0-3.18-.29c-4.4,0-8.8,0-13.19,0h-.53V0h.45c4.16,0,8.32,0,12.48,0a21.43,21.43,0,0,1,7.57,1.23,12.23,12.23,0,0,1,7.8,8.37A21.31,21.31,0,0,1,54,22.66a12.55,12.55,0,0,1-9.34,8.43A41.38,41.38,0,0,1,34.79,31.74Z"/><path class="cls-13" d="M34.87,14.88c0-1.38,0-2.76,0-4.14,0-.35.1-.47.46-.45,1.4.06,3.56,0,5,.18a3.73,3.73,0,0,1,3.55,4.18,4.71,4.71,0,0,1-1.28,3.57,5,5,0,0,1-3.17,1.26c-1.12.08-3,0-4.12,0-.31,0-.39-.14-.38-.43C34.88,17.67,34.87,16.28,34.87,14.88Z"/></g></svg>