<svg id="Capa_1" data-name="Capa 1" xmlns="http://www.w3.org/2000/svg" viewBox="0 0 154.17 55.78"><defs><style>.cls-1{fill:#ced8db;}.cls-2{fill:#3ab0e5;}</style></defs><g id="ico_logo"><path class="cls-1" d="M38,17.82q0,8.68-5.55,13.28T16.66,35.7h-5V54.84H0V1H17.56q10,0,15.22,4.21T38,17.82ZM11.66,26.36H15.5c3.58,0,6.26-.7,8-2.08a7.23,7.23,0,0,0,2.67-6.06c0-2.67-.74-4.65-2.23-5.92s-3.83-1.91-7-1.91h-5.3Z"/><path class="cls-1" d="M154.17,54.84H139.35l-23.92-40.7h-.34q.7,10.78.71,15.38V54.84H105.38V1h14.71L144,41.33h.27q-.57-10.48-.57-14.83V1h10.5Z"/><path class="cls-2" d="M58.5,55.7V45.55c8.68.24,13.72-.19,15.8-.88C80.85,42.86,84.52,38.5,85.69,32a25,25,0,0,0-.4-11.29c-1.74-6.3-6.09-9.9-12.53-11.12a31.06,31.06,0,0,0-5.7-.51c-7.88,0-15.77,0-23.66,0h-.94V0h.8c7.47,0,14.93,0,22.39,0A39.36,39.36,0,0,1,79.22,2.17a21.71,21.71,0,0,1,14,14.7,36.6,36.6,0,0,1-.3,22.88c-2.74,7.93-8.55,12.72-16.75,14.81A77.24,77.24,0,0,1,58.5,55.7Z"/><path class="cls-2" d="M58.64,26.11c0-2.42,0-4.84,0-7.27,0-.61.18-.82.81-.79,2.53.12,6.39,0,8.89.33,4.25.49,6.45,3.15,6.37,7.33,0,2.34-.47,4.56-2.3,6.26a9,9,0,0,1-5.69,2.21c-2,.13-5.36,0-7.38,0-.57,0-.7-.25-.69-.76C58.65,31,58.64,28.56,58.64,26.11Z"/></g></svg>