<svg id="Capa_1" data-name="Capa 1" xmlns="http://www.w3.org/2000/svg" viewBox="0 0 149.82 145.04"><defs><style>.cls-1{fill:#3bb1e6;}.cls-2{fill:#ced8db;}</style></defs><path class="cls-1" d="M145.27,64.11l-.12-.85c-.09-.7-.19-1.42-.35-2.19a34.58,34.58,0,0,0-5.41-13,4.56,4.56,0,0,1-1.16,1.42c-.58.48-1.12,1-1.69,1.48a31.11,31.11,0,0,1,4.34,10.89c.2.93.29,1.89.43,2.83v4.19a2.24,2.24,0,0,1-.1.37c-.15,1.07-.25,2.15-.46,3.22A28.31,28.31,0,0,1,118,94.63c-1,.16-1.92.29-2.88.43h-4.19a2.93,2.93,0,0,1-.37-.1c-1.07-.15-2.15-.25-3.21-.46A28.29,28.29,0,0,1,85.19,71.77c-.16-1-.29-1.93-.43-2.89V64.7c.11-.75.21-1.49.32-2.23a28.26,28.26,0,0,1,23-23.52c1-.17,1.92-.29,2.88-.43h4.19l.43.1a46.45,46.45,0,0,1,5.82,1.16,32.37,32.37,0,0,1,9,4.66c.49-.43,1-.88,1.47-1.31a4.63,4.63,0,0,1,2-1A35.33,35.33,0,0,0,122.69,36a28.19,28.19,0,0,0-4.62-1c-.61-.09-1.18-.18-1.72-.29h-.19l-.46-.11h-5.29l-.89.13c-.67.09-1.37.19-2.09.32A32.36,32.36,0,0,0,86.54,48.39l.18-.27a18.5,18.5,0,0,0-13-3.91,2.63,2.63,0,0,1-2.8-1.65c-5-8.5-12.41-13.1-22.22-13.43a25.75,25.75,0,0,0-25,16.5,2.58,2.58,0,0,1-2.12,1.86A19.94,19.94,0,0,0,5.4,67.07a19.52,19.52,0,0,0,9.84,17.31,19.06,19.06,0,0,0,5.16,2,2.88,2.88,0,0,0,2.35-1.31c.55-1-.1-2-1.21-2.41-.39-.16-.8-.27-1.19-.41C13,79.73,8.73,72.89,9.57,64.91c.72-6.86,6.77-12.85,14-13.63A3.45,3.45,0,0,0,27,48.49,21.8,21.8,0,0,1,47.33,33.21c9.74,0,16.71,4.48,20.88,13.26.75,1.6,1.58,2.51,3.56,2.11a14.75,14.75,0,0,1,12.79,3h0a31,31,0,0,0-3.45,10.26c-.07.51-.14,1-.22,1.52l-.1.73v5.35a7,7,0,0,0,.13.9c.1.69.2,1.38.31,2.06a32.47,32.47,0,0,0,25.35,26c.84.16,1.63.26,2.4.36l.79.1h.09l.52.14h5.29l.9-.13,2-.31a32.41,32.41,0,0,0,26-25.36c.16-.83.26-1.61.36-2.38a5.64,5.64,0,0,1,.1-.8v-.09l.14-.52v-5Z"/><path class="cls-2" d="M39.75,106c0-1.56,1-2.46,1.93-3.39a4.87,4.87,0,0,0,0-6.75c-2.15-2.06-2.32-3.23-.84-5.84,1-1.7,2-3.41,3-5.09,1.27-2.13,2.64-2.83,4.91-1.93,2.43,1,3.89-.69,5.61-1.62.46-.24.55-1.24.72-1.91.7-2.7,1.67-3.45,4.48-3.43h6.19c2.29,0,3.42.88,4,3.1a4.93,4.93,0,0,0,5.72,4,5.12,5.12,0,0,0,.77-.2c2.28-.59,3.59-.08,4.82,2,1.11,1.85,2.19,3.73,3.26,5.62s1.08,3.59-.75,5c-2.18,1.62-1.48,3.77-1.46,5.77,0,.57.86,1.17,1.38,1.7,1.83,1.84,2,3.1.7,5.38-1,1.79-2,3.58-3.1,5.36-1.17,2-2.71,2.82-4.8,1.9-2.51-1.1-4,.69-5.74,1.58-.41.21-.49,1.15-.66,1.78-.74,2.85-1.77,3.65-4.68,3.64H59.47c-2.56,0-3.67-.86-4.31-3.32a4.93,4.93,0,0,0-5.73-4,4.61,4.61,0,0,0-.64.16c-2.42.68-3.81.13-5.07-2-1.06-1.83-2.14-3.65-3.16-5.5A14.93,14.93,0,0,1,39.75,106ZM80.4,90.7a35.7,35.7,0,0,0-2.08-3.08c-.73-1-1.23-1.34-2.29-.86-1.81.83-2.76.45-4.14-.38-.76-.45-2.23-1-3.23-1.61a3.48,3.48,0,0,1-2-2.41c-.08-.5-.28-1-.35-1.47a1.24,1.24,0,0,0-1.22-1.26,1.53,1.53,0,0,0-.3,0,33.17,33.17,0,0,1-4.23,0c-1.35-.1-2.08.3-2.2,1.73-.15,1.87,0,2-1.72,3.1-1,.59-3.08,1.86-4.07,2.34a4.08,4.08,0,0,1-2,.42c-1.17-.09-2.55-.87-3.41-.46a2.72,2.72,0,0,0-1.63,1.5c-.26.59-.65,1.62-.92,2.1-.68,1.21-1.18,2.06.61,3.7,1.19,1.09,1.35,2.17,1.43,3.83.06,1.11.06,2,.05,3.16a3.17,3.17,0,0,1-1,2.8c-.46.39-.86.86-1.32,1.24a1.11,1.11,0,0,0-.39,1.52,1.09,1.09,0,0,0,.13.17c.88,1.41,1.73,2.84,2.52,4.31.41.75.88,1,1.69.66a4.2,4.2,0,0,1,4.35.09c.47.22,3.56,1.82,3.8,2,1.11.7,1.76,1.43,2,3.6.08,1,.58,1.38,1.6,1.31s2.22,0,3.32,0c3.18,0,2.54.36,3.22-2.49.33-1.37,1-1.81,2.3-2.7a23.63,23.63,0,0,1,3.14-1.77,4.11,4.11,0,0,1,2.53-.47c.68,0,1.35.46,2,.49a1.81,1.81,0,0,0,1.4-.58c1-1.42,1.74-3,2.65-4.4.43-.7.38-1.21-.28-1.66-2-1.41-2.07-2.18-2.27-3.42,0-.2-.31-3.47-.33-3.67-.19-2.1.54-3.29,2.45-4.61A2.53,2.53,0,0,0,80.4,90.7Z"/><path class="cls-2" d="M70.54,99.26a8.17,8.17,0,1,1-8.19-8.15h.08a8.06,8.06,0,0,1,8.11,8Zm-8.09,4.34a4.4,4.4,0,0,0,4.38-4.42v0a4.47,4.47,0,0,0-4.48-4.36A4.36,4.36,0,0,0,58,99.19v.08a4.3,4.3,0,0,0,4.28,4.33Z"/><path class="cls-2" d="M40.15,70.71l-1.24-4.06H32.69l-1.24,4.06H27.57l6-17.11H38l6,17.11Zm-2.1-7.09c-1.14-3.67-1.79-5.75-1.93-6.24s-.25-.86-.31-1.14c-.26,1-1,3.46-2.2,7.38Z"/><path class="cls-2" d="M58,59a5.24,5.24,0,0,1-1.71,4.21,7.44,7.44,0,0,1-4.9,1.46H49.8v6.06H46.19v-17h5.44A7.24,7.24,0,0,1,56.35,55,4.89,4.89,0,0,1,58,59ZM49.8,61.69H51a4,4,0,0,0,2.5-.66,2.35,2.35,0,0,0,.83-1.92,2.42,2.42,0,0,0-.7-1.88,3.29,3.29,0,0,0-2.17-.6H49.8Z"/><path class="cls-2" d="M61.18,70.71v-17H64.8v17Z"/><path class="cls-2" d="M131.86,43.13a104.42,104.42,0,0,0-14.17,14.5c-2,2.51-3.94,5.07-5.76,7.71-1,1.43-1.85,3-2.74,4.57-1.59-3.18-3-6.5-4.57-9.57-2.62-5.16-10.39-.61-7.77,4.55q2.28,4.52,4.58,9c1.12,2.19,2.11,5.52,4,7.21,4.12,3.68,7.61-.52,9.61-3.93a106.53,106.53,0,0,1,23.19-27.68C142.69,45.76,136.27,39.42,131.86,43.13Z"/></svg>