<svg id="Capa_1" data-name="Capa 1" xmlns="http://www.w3.org/2000/svg" viewBox="0 0 137.05 135.8"><defs><style>.cls-1{fill:#3ab2e7;}.cls-2{fill:#676767;}</style></defs><title>Mesa de trabajo 1 copia 17</title><path class="cls-1" d="M42.42,15.4l-3.91-.81a13.87,13.87,0,0,1,1.68-4.33l3.44,2.05A9.9,9.9,0,0,0,42.42,15.4Zm57.43-2.9a10.25,10.25,0,0,0-2.1-2.58l2.64-3a14,14,0,0,1,2.93,3.6ZM45.78,9.78,43.19,6.72a14,14,0,0,1,4-2.37l1.45,3.73A9.71,9.71,0,0,0,45.78,9.78ZM94.93,8.17a9.73,9.73,0,0,0-3.23-.73l.21-4a13.89,13.89,0,0,1,4.54,1ZM87.8,7.42h-4v-4h4Zm-8,0h-4v-4h4Zm-8,0h-4v-4h4Zm-19.93,0-.14-4h4.07v4H51.88Zm11.93,0h-4v-4h4Z"/><path class="cls-2" d="M103.48,34.78a5.23,5.23,0,1,1,5.23-5.23A5.22,5.22,0,0,1,103.48,34.78Zm0-8.82A3.53,3.53,0,1,0,107,29.49,3.57,3.57,0,0,0,103.48,26Z"/><path class="cls-2" d="M112.12,41.84H94.53l-.07-.75v-.44a6.92,6.92,0,0,1,6.94-6.94h3.84a6.92,6.92,0,0,1,6.94,6.94v.44Zm-16-1.7h14.31a5.29,5.29,0,0,0-5.24-4.85H101.4A5.28,5.28,0,0,0,96.17,40.14Z"/><rect class="cls-2" x="28.12" y="30.65" width="43.15" height="2.44"/><rect class="cls-2" x="28.12" y="37.62" width="43.15" height="2.44"/><rect class="cls-2" x="28.12" y="44.59" width="43.15" height="2.44"/><rect class="cls-2" x="92.08" y="48.16" width="23.13" height="2.5"/><rect class="cls-2" x="92.08" y="55.31" width="23.13" height="2.5"/><rect class="cls-2" x="92.08" y="62.46" width="23.13" height="2.5"/><path class="cls-2" d="M37.76,93.27c-2.67,0-4.26-1.62-4.22-4.22A4,4,0,0,1,38,85a4,4,0,0,1,4.23,4.29C42.12,91.81,40.48,93.31,37.76,93.27Z"/><path class="cls-2" d="M52.52,93.27c-2.68,0-4.27-1.62-4.23-4.22A4,4,0,0,1,52.7,85a4,4,0,0,1,4.24,4.29C56.88,91.81,55.23,93.31,52.52,93.27Z"/><path class="cls-2" d="M67.59,93.27c-2.67,0-4.26-1.62-4.22-4.22a4.32,4.32,0,0,1,8.64.2C72,91.81,70.31,93.31,67.59,93.27Z"/><path class="cls-1" d="M107.44,104.84a2.93,2.93,0,0,0-2.75-3.06H85.5v4.3a11.23,11.23,0,0,1-2.63,7.23h25.41c1.52,0,2.76-3.38,2.76-5.06Z"/><path class="cls-1" d="M19.08,106.08v-.71l-3.8,2.88c0,1.68,1.24,5.06,2.76,5.06h3.67A11.23,11.23,0,0,1,19.08,106.08Z"/><path class="cls-2" d="M83.59,106.46a9,9,0,0,1-.43,2.5H102v-2.5Z"/><path class="cls-1" d="M97.7,88H83.61v9.53H97.7a3.07,3.07,0,0,0,3.06-3.06V91.05A3.07,3.07,0,0,0,97.7,88Z"/><path class="cls-1" d="M112.27,13.81H24.78A13.9,13.9,0,0,0,10.9,27.69V84.63A13.91,13.91,0,0,0,21,98V94a10.12,10.12,0,0,1-6.29-9.36V27.69A10.11,10.11,0,0,1,24.78,17.58h87.49a10.12,10.12,0,0,1,10.12,10.11V84.63a10.12,10.12,0,0,1-10.12,10.11H83.61v3.77h28.66a13.9,13.9,0,0,0,13.89-13.88V27.69A13.9,13.9,0,0,0,112.27,13.81Z"/><path class="cls-2" d="M44.5,132.39a1.82,1.82,0,0,1-.76-.16,1.9,1.9,0,0,1-1.13-1.68l-.27-11.27h-12a13.21,13.21,0,0,1-13.19-13.2V73.17A13.21,13.21,0,0,1,30.38,60H74.19a13.21,13.21,0,0,1,13.19,13.2v32.91a13.21,13.21,0,0,1-13.19,13.2H60.28L45.73,131.93A1.9,1.9,0,0,1,44.5,132.39ZM30.38,63.74A9.44,9.44,0,0,0,21,73.17v32.91a9.44,9.44,0,0,0,9.42,9.43h13.8a1.88,1.88,0,0,1,1.88,1.84l.22,9.1L58.34,116a1.86,1.86,0,0,1,1.23-.46H74.19a9.43,9.43,0,0,0,9.42-9.43V73.17a9.43,9.43,0,0,0-9.42-9.43Z"/></svg>