<svg id="Capa_1" data-name="Capa 1" xmlns="http://www.w3.org/2000/svg" viewBox="0 0 136.22 135.36"><defs><style>.cls-1{fill:#676767;}.cls-2{fill:#3bb1e6;}</style></defs><title>Mesa de trabajo 1 copia 18</title><path class="cls-1" d="M83.12,63.94V78.47h-4V69a12.8,12.8,0,0,1-1.89,1.2,13.89,13.89,0,0,1-2.28.87V67.77a9.82,9.82,0,0,0,3.15-1.57,6.41,6.41,0,0,0,1.75-2.26Z"/><path class="cls-1" d="M88.11,71.27q0-4.08,1.47-5.7A5.67,5.67,0,0,1,94,63.94a6.64,6.64,0,0,1,2.37.36,4.24,4.24,0,0,1,1.51.92,4.81,4.81,0,0,1,.92,1.2,5.77,5.77,0,0,1,.54,1.47,13.44,13.44,0,0,1,.4,3.33q0,3.89-1.31,5.69t-4.53,1.8A6.4,6.4,0,0,1,91,78.14a4.75,4.75,0,0,1-1.82-1.69,6.31,6.31,0,0,1-.8-2.16A14.14,14.14,0,0,1,88.11,71.27Zm3.94,0A9.67,9.67,0,0,0,92.53,75a1.51,1.51,0,0,0,1.4,1,1.45,1.45,0,0,0,1-.42,2.59,2.59,0,0,0,.66-1.34,14,14,0,0,0,.21-2.86,9.75,9.75,0,0,0-.49-3.82,1.54,1.54,0,0,0-1.44-1,1.48,1.48,0,0,0-1.43,1A10.61,10.61,0,0,0,92.05,71.28Z"/><path class="cls-1" d="M75.36,91q0-4.06,1.47-5.7a5.74,5.74,0,0,1,4.47-1.62,6.56,6.56,0,0,1,2.36.35,4.31,4.31,0,0,1,1.51.93,5.11,5.11,0,0,1,.93,1.2,6.54,6.54,0,0,1,.54,1.46,14.06,14.06,0,0,1,.4,3.33c0,2.6-.44,4.49-1.32,5.7s-2.39,1.8-4.53,1.8a6.25,6.25,0,0,1-2.91-.58,4.75,4.75,0,0,1-1.83-1.68,6.48,6.48,0,0,1-.8-2.16A14.84,14.84,0,0,1,75.36,91Zm3.94,0a9.73,9.73,0,0,0,.48,3.73,1.51,1.51,0,0,0,1.4,1,1.49,1.49,0,0,0,1-.42,2.71,2.71,0,0,0,.65-1.34,14.07,14.07,0,0,0,.21-2.86,10,10,0,0,0-.48-3.82,1.54,1.54,0,0,0-1.45-1,1.46,1.46,0,0,0-1.42,1A10.44,10.44,0,0,0,79.3,91Z"/><path class="cls-1" d="M98.33,83.64V98.16h-4V88.64a11.34,11.34,0,0,1-1.89,1.2,13.82,13.82,0,0,1-2.28.88V87.47A9.82,9.82,0,0,0,93.3,85.9a6.5,6.5,0,0,0,1.75-2.26Z"/><path class="cls-2" d="M111.66,60.84c-1.58-1.45-2.94-2.86-4.46-4.06a30,30,0,0,0-19.63-6.63c-.91,0-1-.48-1.17-1.06a26.12,26.12,0,0,0-17.32-17,26.62,26.62,0,0,0-11.33-.92c-1.66-7.85-3.31-15.67-5-23.66C68.48,5.3,82.51,8.86,94.4,19.28,106.86,30.19,112.39,44.19,111.66,60.84Z"/><path class="cls-1" d="M109.86,97.34c2,.1,3.4,1.32,4.72,2.66,3.55,3.6,7.14,7.14,10.72,10.72a5.58,5.58,0,1,1-7.86,7.9c-3.86-3.83-7.69-7.69-11.56-11.51a6.38,6.38,0,0,1-1.91-4,27.2,27.2,0,1,1-.49-44.4C113.59,65.54,120.39,82.71,109.86,97.34Zm2.27-16.27a24.21,24.21,0,1,0-24.38,24.27A24,24,0,0,0,112.13,81.07Z"/><path class="cls-2" d="M56.16,55.45H61.1a7.66,7.66,0,0,1,.08.85c0,1.08,0,2.16,0,3.23,0,6.18-.12,6.83-2.87,12.17-.23.44-1.33.43-2.16.68Z"/><path class="cls-2" d="M49,72.11V60h5V72.11Z"/><path class="cls-2" d="M63.29,62.27v-14h5V52c0,1.54.39,3.23-.12,4.58S66.26,58.88,65.26,60C64.63,60.7,64,61.43,63.29,62.27Z"/><path class="cls-2" d="M70.48,43.1h4.88c0,3.1,0,6.16,0,9.22a1.17,1.17,0,0,1-.57.72c-1.39.8-2.81,1.56-4.29,2.38Z"/><path class="cls-2" d="M47,72.11H41.88v-5H47Z"/><path class="cls-1" d="M57.34,86.71A26.84,26.84,0,0,1,32.52,65.09a25.88,25.88,0,0,1,1.9-16A26.67,26.67,0,0,1,51,34.47c-1.41-6.3-2.8-12.49-4.18-18.68A44.65,44.65,0,0,0,17.93,39.12l3.88,1.62C26.91,31,35.42,24.05,43.63,21.33c.8,3.6,1.61,7.18,2.37,10.59C31.38,40,25.78,52.1,29,68.37c.55,1.8,1.29,3,1.59,3.91a31,31,0,0,0,18.69,17c1.26.31,2.62.65,4.08,1.08l5,.44Z"/><path class="cls-2" d="M20.17,75.81a9.69,9.69,0,1,0,9.68,9.69A9.69,9.69,0,0,0,20.17,75.81Zm0,15.87a6.18,6.18,0,1,1,6.18-6.18A6.18,6.18,0,0,1,20.17,91.68Z"/><circle class="cls-2" cx="12.73" cy="57.3" r="9.68"/><circle class="cls-2" cx="45.08" cy="102.19" r="9.68"/></svg>