<svg id="Capa_1" data-name="Capa 1" xmlns="http://www.w3.org/2000/svg" viewBox="0 0 135.41 135.36"><defs><style>.cls-1{fill:#3bb1e6;}.cls-2{fill:#676767;}</style></defs><title>Mesa de trabajo 1 copia 19</title><rect class="cls-1" x="44.41" y="69.15" width="11.29" height="2.5"/><rect class="cls-1" x="44.41" y="75.28" width="11.29" height="2.5"/><path class="cls-1" d="M67.62,99.84h-4v-4h4Zm-8,0h-4v-4h4Zm-8,0h-4v-4h4Zm-8,0h-4v-4h4Zm-8,0h-4v-4h4Zm-8,0H26.16a15,15,0,0,1-2.91-.25L24,95.65a11.11,11.11,0,0,0,2.14.18h1.46Zm-9-3.06a9.92,9.92,0,0,1-1.5-4.71l4-.41a6.26,6.26,0,0,0,.81,2.85ZM21,87.86H17v-4h4Zm0-8H17v-4h4Zm0-8H17v-4h4Zm0-8H17v-4h4Zm0-8H17v-4h4Z"/><path class="cls-1" d="M109.08,80.59v-4h4v4Zm0-8v-4h4v4Zm0-8v-4h4v4Zm0-8v-4h4v4Zm0-8V45.66h4v2.93Z"/><rect class="cls-2" x="36.14" y="52.15" width="20.09" height="2.5"/><rect class="cls-2" x="36.14" y="59.05" width="20.09" height="2.5"/><path class="cls-2" d="M93.58,71c6.84-1.62,9.88.39,11,7a3.39,3.39,0,0,0,.9,0c5.49-1.52,9.7,1.58,9.68,7.26,0,6.68.34,13.42-.4,20-1.34,11.83-8.15,17.81-20,18.38a36.05,36.05,0,0,1-7.83-.49c-5.23-.88-9.43-3.55-11.47-8.57A64.48,64.48,0,0,0,63.65,96.31a7.12,7.12,0,0,1-.93-8.25c1.46-2.55,4.4-4.2,7.31-3.25,2,.66,3.72,2.38,5.44,3.79,1.09.88,1.73,1.93,3,1.91,1.53-.26,1.18-2.09,1.19-3.51.08-7.87,0-15.74,0-23.61,0-4.38,2.58-7.15,6.71-7.34,3.87-.18,6.78,2.4,7.12,6.63C93.75,65.35,93.58,68.06,93.58,71ZM83.83,90.12a5.09,5.09,0,0,1-3.32,4.66A4.36,4.36,0,0,1,76.05,94c-.91-.77-2.44-2.06-3.45-2.93-1.92-1.66-3.36-2.9-4.93-1.37S66.32,93,68,94.88a56.91,56.91,0,0,1,10.84,16.79,10.07,10.07,0,0,0,5.35,5.73c3.66,1.64,7.54,1.6,11.39,1.34,7.69-.53,13.15-5,14-12.61.77-6.93.47-14,.51-21a3.21,3.21,0,0,0-3.51-3.1,3.14,3.14,0,0,0-3.21,3.15,31.43,31.43,0,0,1-.11,4.24c-.18.89-.92,2.23-1.57,2.33-1.52.23-1.51-1.18-1.51-2.32,0-3.47,0-6.94,0-10.41a3.52,3.52,0,0,0-3.5-3.7c-1.89.05-2.78,1.51-2.88,3.7-.09,2,0,4-.13,6-.07,1.37.32,3.35-1.87,3.43-2.39.08-2.07-2.53-2.09-3.82-.09-6.31-.18-11.3-.25-17.61,0-3.28-.89-5.37-2.94-5.37-2.93,0-2.93,3.58-2.93,5C83.58,70.85,83.83,86.1,83.83,90.12Z"/><path class="cls-2" d="M62.84,35.71a4.34,4.34,0,0,1,3.42-6.91,4.36,4.36,0,0,1,4.39,4.27,4.24,4.24,0,0,1-.86,2.61c1.44-.36,2.88-.65,4.33-.9a7.78,7.78,0,0,0,.17-1.61,7.88,7.88,0,0,0-8-8,7.88,7.88,0,0,0-7.88,9.6C59.92,35,61.38,35.34,62.84,35.71Z"/><path class="cls-2" d="M47.26,33.91c1.23,0,2.47,0,3.7.08,0-.72,0-1.37-.05-2.14-.08-1.63-.24-2.69-1.41-3.76-1.75-1.6-1.26-2.44-.59-3.63.26-.46.64-1.47.9-2.05a2.67,2.67,0,0,1,1.6-1.47c.83-.41,2.19.36,3.34.45A3.9,3.9,0,0,0,56.67,21c1-.48,3.06-1.72,4-2.29,1.65-1,1.54-1.21,1.7-3.05.11-1.39.83-1.79,2.15-1.69a31.93,31.93,0,0,0,4.15,0,1.22,1.22,0,0,1,1.49,1.21c.07.48.26,1,.34,1.43.2,1.18.93,1.72,2,2.37s2.42,1.13,3.16,1.58c1.36.81,2.29,1.19,4.06.37,1-.47,1.53-.11,2.24.84,1,1.36,1.25,1.83,2,3a2.45,2.45,0,0,1-.17,2.67c-1.88,1.3-2.59,2.47-2.4,4.52,0,.11.09,1.09.17,2,1.31,0,2.62-.07,3.93,0-.12-1.61-.24-3.24,1.49-4.53s1.86-2.88.73-4.86-2.09-3.69-3.19-5.5c-1.2-2-2.48-2.51-4.72-1.93a4.83,4.83,0,0,1-6.36-3.71c-.55-2.17-1.66-3-3.9-3-2,0-4.05,0-6.07,0-2.76,0-3.71.72-4.39,3.37-.17.66-.26,1.63-.7,1.87-1.69.91-3.12,2.53-5.5,1.58s-3.57-.19-4.82,1.9c-1,1.64-1.94,3.32-2.89,5-1.46,2.55-1.29,3.7.82,5.72A4.69,4.69,0,0,1,47.26,33.91Z"/><path class="cls-1" d="M106.08,42.62c.12-1.72-.67-2.73-2.72-3.17-12.86-2.79-22.65-3-35.36.65a5.06,5.06,0,0,1-2.59,0c-11.82-3.5-23.82-3.49-35.92-1.26-5.28,1-5.23,1.06-5.4,5.43,0,.65.2,30.05.2,43.73,0,3.47,1.28,4.58,5.48,4.58l24.8,0c1,0,.37-1.2.73-3.65a102.71,102.71,0,0,0-26.77.33V43.87a96.83,96.83,0,0,1,33.41.45c1.73.36,2.38,1,2.36,2.56-.09,11.19,0,21.38,0,32.57v2.31h4.67V78.82c0-11,0-21,0-31.95,0-1.09,0-2,1.68-2.35a80.14,80.14,0,0,1,31.56-.45v2.31c0,7.53.07,13.06-.05,20.59,0,2.34,0,4.5,2.52,6.08.89.55,1.46,1.89,1.44.87C106,70.39,106,44.33,106.08,42.62Z"/></svg>