<svg id="Capa_1" data-name="Capa 1" xmlns="http://www.w3.org/2000/svg" viewBox="0 0 136.22 135.36"><defs><style>.cls-1{fill:#3bb1e6;}.cls-2{fill:#676767;}</style></defs><title>Mesa de trabajo 1 copia 18</title><path class="cls-1" d="M44.07,28.06H49c0,.28.09,20.57.09,20.86,0,1.07,0,2.15,0,3.23,0,6.17-.11,6.83-2.86,12.16-.23.45-1.34.44-2.17.68Z"/><path class="cls-1" d="M36.87,64.73V42.64h5V64.73Z"/><path class="cls-1" d="M51.21,54.89v-34h5V44.65c0,1.54.4,3.23-.11,4.58s-1.93,2.26-2.94,3.39C52.54,53.32,51.94,54,51.21,54.89Z"/><path class="cls-1" d="M58.4,25.72h4.88c0,3.1,0,16.16,0,19.22,0,.24-.32.57-.57.71-1.39.81-2.81,1.57-4.28,2.38Z"/><path class="cls-1" d="M34.86,64.73H29.8v-15h5.06Z"/><rect class="cls-2" x="76.64" y="57.76" width="3.27" height="14.8"/><path class="cls-2" d="M117.56,107.29,98.76,88.5c9.09-14.3,2.41-30.57-7.36-37.15a27.26,27.26,0,1,0-.66,45.18l18.79,18.79Zm-41.89-10A23.5,23.5,0,1,1,99.34,73.69,23.4,23.4,0,0,1,75.67,97.25Z"/><path class="cls-2" d="M61.71,65.21q0-4.29,1.54-6A6,6,0,0,1,68,57.5a7,7,0,0,1,2.49.38,4.61,4.61,0,0,1,1.59,1,5.32,5.32,0,0,1,1,1.26,6.77,6.77,0,0,1,.57,1.54A14.42,14.42,0,0,1,74,65.16c0,2.73-.46,4.72-1.39,6S70.09,73,67.84,73a6.73,6.73,0,0,1-3.07-.6,4.93,4.93,0,0,1-1.92-1.77A6.73,6.73,0,0,1,62,68.39,15.62,15.62,0,0,1,61.71,65.21Zm4.14,0a10.12,10.12,0,0,0,.51,3.92,1.58,1.58,0,0,0,1.47,1,1.52,1.52,0,0,0,1.1-.44,2.82,2.82,0,0,0,.69-1.41,15.35,15.35,0,0,0,.22-3,10.45,10.45,0,0,0-.51-4,1.62,1.62,0,0,0-1.52-1,1.56,1.56,0,0,0-1.5,1A11,11,0,0,0,65.85,65.22Z"/><rect class="cls-2" x="87.22" y="74.39" width="3.27" height="14.8"/><path class="cls-2" d="M72.28,81.84q0-4.29,1.55-6a6,6,0,0,1,4.7-1.71A7,7,0,0,1,81,74.5a4.61,4.61,0,0,1,1.59,1,5.32,5.32,0,0,1,1,1.26,7.17,7.17,0,0,1,.57,1.55,14.4,14.4,0,0,1,.42,3.5q0,4.09-1.39,6t-4.77,1.9a6.58,6.58,0,0,1-3.06-.61,4.93,4.93,0,0,1-1.92-1.77A6.67,6.67,0,0,1,72.59,85,14.91,14.91,0,0,1,72.28,81.84Zm4.15,0a10.41,10.41,0,0,0,.5,3.92,1.6,1.6,0,0,0,1.48,1,1.53,1.53,0,0,0,1.1-.45A2.7,2.7,0,0,0,80.19,85a14.49,14.49,0,0,0,.22-3,10.53,10.53,0,0,0-.5-4,1.64,1.64,0,0,0-1.53-1,1.55,1.55,0,0,0-1.49,1A11,11,0,0,0,76.43,81.85Z"/></svg>