<svg id="Capa_1" data-name="Capa 1" xmlns="http://www.w3.org/2000/svg" viewBox="0 0 135.83 135.78"><defs><style>.cls-1{fill:#3bb1e6;}.cls-2{fill:#676767;}</style></defs><title>Mesa de trabajo 1 copia 20</title><path class="cls-1" d="M127.6,77.34l-11.11,2.57-4.08,4.28-1.3,5.25-2.84,3L100.34,95l-7.93-4.14-4.83-6.09-3.19-9.83.5-9.78,1.75-1.75L84.4,60.07l-7.4-4L71.53,46.9c-1.93-2.25-7.37-4.16-7.37-4.16l-4.09,2.91-8.13-8.73L45.3,33.68l-16.37.47-18.48-8L5.86,27.71s10,20.78,10.49,22.34a23.62,23.62,0,0,1-3.5.53l-.22,2.06,8.31,5.82,1.93,5.29L26,67.4l3.58,6.12L32.94,71l-2.08-5.09L22.45,48.46l-4-7.22-1.66-5.56,2.92.94L43.94,71.4l6.15,11.65-.9,4.86,20,14.39,17.35,6.38,2.12-.05a4.49,4.49,0,0,1-.14-1,4.31,4.31,0,1,1,8.61,0,4.47,4.47,0,0,1-.08.82l4.66-.12,7.11,3.69,1.84-1.93-.48-3.36,4.8-.35,2.07-3.75s-3.24-3.08-3.33-3.87l.09,0,4.52-.47,3.78-4.35,2.85.54,5.74-15.14C130.67,79.16,127.6,77.34,127.6,77.34ZM45.14,51.72A6.75,6.75,0,1,1,51.88,45,6.75,6.75,0,0,1,45.14,51.72ZM72.85,88.5a4.31,4.31,0,1,1,4.31-4.31A4.31,4.31,0,0,1,72.85,88.5Z"/><rect class="cls-1" x="55.84" y="25.75" width="14.23" height="3.12"/><rect class="cls-1" x="55.84" y="33.39" width="14.23" height="3.12"/><rect class="cls-1" x="110.48" y="60.98" width="14.23" height="3.12"/><rect class="cls-1" x="110.48" y="68.62" width="14.23" height="3.12"/><rect class="cls-1" x="20.1" y="97.24" width="14.23" height="3.12"/><rect class="cls-1" x="20.1" y="104.88" width="14.23" height="3.12"/><rect class="cls-1" x="67.07" y="110.52" width="14.23" height="3.12"/><rect class="cls-1" x="67.07" y="118.15" width="14.23" height="3.12"/><path class="cls-2" d="M114,76.93a6.49,6.49,0,0,0-6.4,5.48l-28.21.24A6.73,6.73,0,0,0,70,78.11L49.69,49.94a6.73,6.73,0,1,0-5.9,1.65l-.82,36a6.72,6.72,0,1,0,8,5.25l16.44-4.65a6.71,6.71,0,0,0,5.43,2.77,6.64,6.64,0,0,0,3.2-.81L88.22,102.7a6.75,6.75,0,1,0,10.67,1.89L111.08,89.2A6.49,6.49,0,1,0,114,76.93ZM40.83,45a4.31,4.31,0,1,1,4.31,4.3A4.31,4.31,0,0,1,40.83,45ZM66.11,84.19a6.71,6.71,0,0,0,.34,2.11L50.26,90.88A6.76,6.76,0,0,0,45,87.45l.82-35.77A6.56,6.56,0,0,0,48,51.1L68.23,79.29A6.73,6.73,0,0,0,66.11,84.19Zm2.44,0a4.31,4.31,0,1,1,4.3,4.31A4.31,4.31,0,0,1,68.55,84.19Zm24.3,27.7a4.31,4.31,0,1,1,4.31-4.3A4.3,4.3,0,0,1,92.85,111.89Zm4.85-9a6.76,6.76,0,0,0-4.85-2.06,6.66,6.66,0,0,0-2.72.58L77.83,88.73a6.67,6.67,0,0,0,1.74-4l28.06-.24a6.55,6.55,0,0,0,1.84,3.57Z"/></svg>