<svg id="Capa_1" data-name="Capa 1" xmlns="http://www.w3.org/2000/svg" viewBox="0 0 135.41 135.36"><defs><style>.cls-1{fill:#3bb1e6;}.cls-2{fill:#676767;}.cls-3{fill:#686868;}</style></defs><title>Mesa de trabajo 1 copia 19</title><rect class="cls-1" x="42.35" y="68.94" width="14.23" height="3.12"/><rect class="cls-1" x="42.35" y="76.58" width="14.23" height="3.12"/><rect class="cls-2" x="31.94" y="47.53" width="25.31" height="3.15"/><rect class="cls-2" x="31.94" y="56.22" width="25.31" height="3.15"/><polygon class="cls-1" points="115.19 36.48 19.21 36.27 19.19 98.45 54.99 98.59 54.82 94.03 24.2 93.83 24.2 41 66.09 41.3 66.44 85.8 71.97 85.8 71.95 41.1 111.24 41.24 111.57 68.47 115.59 72.5 115.19 36.48"/><path class="cls-3" d="M91.36,63.53l2.31.78,0,15.49,3.07-.08V72.87h1.43a2.32,2.32,0,0,1,2.48,2.48c0,3,0,9.68,0,9.68l2.87,0s.1-7.28.1-7.47h1.53A2.46,2.46,0,0,1,107.71,80l.1,9.06h2.86V82.22h1.65a2.44,2.44,0,0,1,2.42,2.54c0,5.39,0,10.78,0,16.18,0,1.06-.35,4.59-.35,4.59l-8.92,8.64-19.17.08L80.08,99.12,80,84.74l5.76-2.52.06,11.42,3.2,0V64.25l2.34-.72m0-3.32-1,.3-2.34.72-2.23.69V78.73l-1.36.6-5.76,2.51-1.91.84v2.08l.09,14.38v.61l.23.57,6.19,15.12.81,2h2.13l19.17-.08h1.27l.91-.88,8.92-8.64.83-.81.11-1.15c.06-.61.36-3.73.37-4.88,0-2.64,0-5.28,0-7.92s0-5.51,0-8.26a5.79,5.79,0,0,0-1.65-4.09,5.48,5.48,0,0,0-3.93-1.63h-1.54a5.48,5.48,0,0,0-5.54-4.68h-1.46a5.43,5.43,0,0,0-5.55-4.67H96.84V62.05l-2.13-.73-2.3-.78-1-.33Z"/></svg>