<svg id="Capa_1" data-name="Capa 1" xmlns="http://www.w3.org/2000/svg" viewBox="0 0 137.15 137.23"><defs><style>.cls-1{fill:none;stroke:#676767;stroke-linecap:round;stroke-linejoin:round;stroke-width:4px;}.cls-2{fill:#3bb1e6;}</style></defs><title>Mesa de trabajo 1 copia 16</title><polyline class="cls-1" points="63.81 21.21 54.62 37.04 53.08 55.42 40.32 67.68 51.04 75.34 49 81.97 53.59 86.06 49.45 90.11 55.64 95.25 56.66 108.02 80.66 109.55 93.42 119.25"/><path class="cls-2" d="M108.23,51.34A11.24,11.24,0,1,0,95.62,62.48a11.54,11.54,0,0,1,.21,3.24c-.09,6.5-3.09,13.7-17.69,13.7a3.43,3.43,0,0,1-.55-.06v-3H60.74V87.08h6.64c1.07,0,2.14,0,3.21,0h7V84.89c26.3.83,23.55-19,24-21.62a9.15,9.15,0,0,1,.87-2.06v0A11.21,11.21,0,0,0,108.23,51.34Z"/></svg>