<svg id="Capa_1" data-name="Capa 1" xmlns="http://www.w3.org/2000/svg" viewBox="0 0 137.05 135.8"><defs><style>.cls-1{fill:#3bb1e6;}.cls-2{fill:#676767;}</style></defs><title>Mesa de trabajo 1 copia 17</title><path class="cls-1" d="M126.13,112.75l-20.7.15L94.71,74.59H19.4l11.91,43.64h75.31l22.57,0Zm-90.33.85-10-34.32H90.25l9.54,34.32Z"/><path class="cls-2" d="M77.11,23.9H26V67.24H44.51L65.87,82.79l-1.8-15.55h13ZM59.49,63.47l1.79,11.75L46.13,63.44H29.9V28.05H73.25l0,35.42Z"/><rect class="cls-1" x="53.25" y="90.11" width="25.31" height="3.15"/><rect class="cls-1" x="58.36" y="98.8" width="25.31" height="3.15"/><path class="cls-2" d="M39.83,59.19l2-7L56.32,37.59l5,5.11L54.6,49.41,47,57Z"/><path class="cls-2" d="M63,41.07l-4.93-5,2.56-2.7,1.63.17,3.14,3.15,0,1.92Z"/></svg>