<svg id="Capa_1" data-name="Capa 1" xmlns="http://www.w3.org/2000/svg" viewBox="0 0 137.15 137.23"><defs><style>.cls-1{fill:#3bb1e6;}.cls-2{fill:#676767;}</style></defs><title>Mesa de trabajo 1 copia 16</title><rect class="cls-1" x="27.77" y="31.12" width="4" height="4" transform="translate(-0.04 0.04) rotate(-0.07)"/><rect class="cls-1" x="27.76" y="23.12" width="4" height="4" transform="translate(-0.03 0.04) rotate(-0.07)"/><path class="cls-1" d="M27.76,19.13V17.32A14.49,14.49,0,0,1,28,14.77l3.93.73a11.1,11.1,0,0,0-.17,1.82v1.8Z"/><path class="cls-1" d="M33.06,12.39l-3.47-2a14.29,14.29,0,0,1,2.93-3.6l2.64,3A10.2,10.2,0,0,0,33.06,12.39Z"/><path class="cls-1" d="M87.13,9.67A10.16,10.16,0,0,0,84.28,8l1.44-3.73a13.81,13.81,0,0,1,4,2.38Z"/><path class="cls-1" d="M38,8.06l-1.52-3.7a13.87,13.87,0,0,1,4.54-1l.21,4A10,10,0,0,0,38,8.06Z"/><rect class="cls-1" x="45.1" y="3.31" width="4" height="4"/><rect class="cls-1" x="53.1" y="3.31" width="4" height="4"/><rect class="cls-1" x="61.1" y="3.31" width="4" height="4"/><path class="cls-1" d="M81,7.31H77.1v-4h4.07Z"/><rect class="cls-1" x="69.1" y="3.31" width="4" height="4"/><path class="cls-1" d="M125.06,78.57a6,6,0,0,0-3.43-5.83c-2.73-1.42-2.84-3.53-3.39-5.56a28.19,28.19,0,0,0-6.54-11.53c-.26-.3-.52-.58-.79-.86a9.47,9.47,0,0,1-4.09,1.14c4.24,3.27,7.71,8.37,8.32,13.74.14,1.18-2.84,1.77-3.32,0a47.72,47.72,0,0,0-6.58-13.48.57.57,0,0,1-.07-.22H99.4a12,12,0,0,1,4.37,4.42c1.47,2.5,3.44,4.88,3.68,7.84.07.91.85,2,.57,2.68s-1.46,1.31-2.27,1.92c-1.78,1.34-2.23,3.92-2.55,6.85-.31,2.74.26,5.47-.09,8.13-.51,3.75,1.18,6.24,4.62,8.24,1.1.64,3.16,1.48,2.8,2.47a8.28,8.28,0,0,1-2.14,3.52c-2.91,2.81-7,3.26-11.18,3.37-1.18,0-2.47,0-2.41-1.9.07-2.57-6.23-2.45-7.89-2.66-3.27-.42-4.17-.16-4.47,3.6-.15,1.92,1.87,3.75,4.26,4.36a35.45,35.45,0,0,0,16,.23A16.59,16.59,0,0,0,115,99.66a3.55,3.55,0,0,1,2.52-2.12c1.27-.35,2.87-.47,3.68-1.23a10.11,10.11,0,0,0,3.45-5.62C125.41,86.64,125,82.63,125.06,78.57ZM120.4,90c-.37,3.12-4.16,4.8-7,3.92-3.72-.59-5.77-1.94-5.92-4-.17-2.36-.06-4.73-.06-7.09,0-1-1-9.19,5.58-9,3.05.08,7.17,1.37,7.41,4A64.44,64.44,0,0,1,120.4,90Z"/><path class="cls-1" d="M97.31,26.51,84.63,39.19l-3.86-3.85a3,3,0,0,0-4.23,4.22l6,6a3,3,0,0,0,4.23,0l14.8-14.8a3,3,0,1,0-4.23-4.22Z"/><path class="cls-1" d="M43.2,71.88H38.31c-.58-2.9-.23-5.54,2.2-7.59,1.13-1,2.53-1.68,3.38-2.83a5.74,5.74,0,0,0,1.26-3.72c-.22-1.59-1.94-2-3.39-1.8-2.29.33-4.53,1-7.1,1.52l-2.06-4C37.29,51,42,49.93,46.86,51.81A6.93,6.93,0,0,1,49.4,63.13,16.2,16.2,0,0,1,47.33,65C43.82,67.83,43.82,67.82,43.2,71.88Z"/><path class="cls-1" d="M40.88,81.38a3.21,3.21,0,0,1-3.5-3.49A3.31,3.31,0,0,1,41,74.5a3.34,3.34,0,0,1,3.51,3.55C44.49,80.17,43.12,81.41,40.88,81.38Z"/><path class="cls-2" d="M86.66,117.84c-3,.1-4.76-1.87-4.56-4.48a7.64,7.64,0,0,0-2-6.1c-.55-.64-1.36-.7-.54-1.9.64-.94.52-3.33-1-3.9-1.1-.42-.61-.87-.22-1.56,1.73-3.14-1.08-6.49-2.81-7a24.77,24.77,0,0,1-3.65-1c-.37-.16-1.64-.7-.41-1.79,2.5-2.22,6.75-5.88,8.36-8.14,2.71-3.79-.86-15.63,5.93-22.66l-3-2.58c-4.61,3.87-6.45,10.8-6.45,18.31,0,3.65-1,5.81-3,7.48s-6.35,4.29-7,7.91c-.86,4.42,9,5.65,7.75,7.63-1.85,2.91.51,3.75,2,5.28.43.44-1,1.46-1.37,2.79-.25.94,1,2.29,1.69,2.69,4.08,2.3-1.19,10,5.47,12.31,4.9,1.58,15.62-2.12,20.77,5.88.73,1.13,1.67,2.81,3.66,2.3,1.78-.46,2.43-1.49.9-3.59C103.09,120,99,117.4,86.66,117.84Z"/><path class="cls-1" d="M68.85,56a9.52,9.52,0,0,1-4.74-1.32,23.51,23.51,0,0,1,2.25,6.81c2.45,14.77-7.36,28.24-21.71,30A26.27,26.27,0,0,1,27.84,88a3.23,3.23,0,0,0-2.19-.24c-2.65.66-5.26,1.48-8.33,2.36.85-2.94,1.68-5.41,2.25-8a4.41,4.41,0,0,0-.37-2.93A25.58,25.58,0,0,1,59.54,48.33a9.54,9.54,0,0,1-.22-2V42.7a31.15,31.15,0,0,0-10.89-5c-12-3-22.47.49-30.19,10.19S9.76,68.42,15,79.67a5,5,0,0,1,.3,3.16c-1.12,4.26-2.43,8.46-3.78,13,4.51-1.32,8.64-2.47,12.72-3.76a4.79,4.79,0,0,1,3.79.36c10.68,5.06,21.07,4.4,30.58-2.61S72.26,72.92,70.2,61.22A35.64,35.64,0,0,0,68.85,56Z"/><path class="cls-1" d="M94.33,14.2a13.78,13.78,0,0,0-1.61-4l-3.44,2.06a9.14,9.14,0,0,1,.9,2Z"/><path class="cls-2" d="M94.73,68.75a1.58,1.58,0,0,1-1-.4L81.27,57.57H69A11.27,11.27,0,0,1,57.71,46.31V25.45A11.26,11.26,0,0,1,69,14.2h37.37a11.26,11.26,0,0,1,11.25,11.25V46.31a11.27,11.27,0,0,1-11.25,11.26H96.57l-.23,9.61a1.62,1.62,0,0,1-1,1.43A1.65,1.65,0,0,1,94.73,68.75ZM69,17.41a8,8,0,0,0-8,8V46.31a8,8,0,0,0,8,8H81.87a1.6,1.6,0,0,1,1,.39l10.29,8.95.19-7.77A1.61,1.61,0,0,1,95,54.35h11.33a8.05,8.05,0,0,0,8-8V25.45a8.05,8.05,0,0,0-8-8Z"/></svg>