<svg id="Capa_1" data-name="Capa 1" xmlns="http://www.w3.org/2000/svg" viewBox="0 0 135.83 135.78"><defs><style>.cls-1{fill:#8bd2f0;}.cls-2{fill:#676767;}.cls-3{fill:#3cb0e6;}</style></defs><title>Mesa de trabajo 1 copia 20</title><path class="cls-1" d="M131,80.78c-.48.79-1,1.58-1.42,2.38a7.22,7.22,0,0,0-.4,1l-1.12,3.17c1,.51,1.06,1.45.73,2.45-.43,1.34-.88,2.68-1.4,4a1.46,1.46,0,0,1-2.13.86,12.92,12.92,0,0,1-1.68-.8.78.78,0,0,0-1.17.27,16,16,0,0,1-1,1.43,29.42,29.42,0,0,1-2.77,2.92c-1.17,1-4.37.52-4.53.47s0,0-.08,0a1.81,1.81,0,0,0,1.15,1.78,3.45,3.45,0,0,1,2.18,2.09,3,3,0,0,1-2.07,3.74,11.4,11.4,0,0,1-2.76.34c-.63,0-1.28,0-2,0l.22,1.52c.09.62.21,1.23.26,1.85a1.61,1.61,0,0,1-1.84,1.93,7.48,7.48,0,0,1-4-1.36c-1.08-.74-2.14-1.51-3.15-2.33a6.65,6.65,0,0,0-7.84-.78c-.41.21-.83.4-1.22.63a6.87,6.87,0,0,1-6.12.54c-5.79-2.09-11.69-3.88-17.34-6.38-1.74-.77-6.73-3.56-7.69-3.77a9.85,9.85,0,0,1-4.89-2.55c-1.42-1.33-6.63-5.34-7.49-6.33a3.89,3.89,0,0,1-1-3.55,9.32,9.32,0,0,1,.86-2.19c.18-.34.63-.54,1-.86,0,0-1.46-4.56-2.23-6.66a11.61,11.61,0,0,0-3.91-5L42,69.88a4.68,4.68,0,0,1-1.62-2.25c-.25-.77-6.33-7.53-5.82-8.28C33,59,29.62,55.28,29.36,54.06a2.6,2.6,0,0,0-1.23-1.78,6.34,6.34,0,0,1-2.29-2.66c-1.38-2.7-2.79-5.39-4.06-8.14a7.37,7.37,0,0,1-.5-2.78A1.73,1.73,0,0,0,20,36.88l-2.93-.94c.32,2,.39,4,1.66,5.55a29.56,29.56,0,0,1,4,7.22A47.42,47.42,0,0,0,26,54.3c.45.74,1,1.45,1.48,2.16A11.53,11.53,0,0,1,29,60c.31,1.05,1.74,5.16,2.12,6.16a2.79,2.79,0,0,0,.72,1c.65.58,1.42,1,2,1.64A6.23,6.23,0,0,1,35.5,75a1.46,1.46,0,0,1-2.32,1,13.84,13.84,0,0,1-2.3-2.09c-1-1.15-1.93-2.39-2.86-3.62a5,5,0,0,0-2.53-1.92,5.86,5.86,0,0,1-1-.47A2.73,2.73,0,0,1,23.13,64,3.49,3.49,0,0,0,23,60.79c-.11-.24-.28-.46-.4-.7a4.2,4.2,0,0,0-3.39-2.39,9.52,9.52,0,0,1-6.07-4.25,2.08,2.08,0,0,1-.27-.56,2,2,0,0,1,.23-2.06,1.73,1.73,0,0,1,2-.37c.34.09.66.24,1,.35a4.51,4.51,0,0,0,.53.08,2,2,0,0,0,0-.59A8.49,8.49,0,0,0,14,46.35c-.49-.42-1-.8-1.54-1.17A6.15,6.15,0,0,1,9.77,40a5.11,5.11,0,0,0-1.11-3.39,7.77,7.77,0,0,1-1.29-4A6.26,6.26,0,0,0,6.12,29V28a4.88,4.88,0,0,1,4.58-1.53c1.16.1,2.31.33,3.46.36a4.94,4.94,0,0,1,4.23,2.43,2.93,2.93,0,0,0,1.12,1.09c2.08.93,4.2,1.76,6.31,2.64,1.12.47,2.26.92,3.36,1.46a7.29,7.29,0,0,0,3.12.77A68.78,68.78,0,0,0,40,34.93a5.28,5.28,0,0,1,5.54-1A18.36,18.36,0,0,1,48.21,35c1.35.68,2.66,1.44,4,2.18A8.55,8.55,0,0,1,55.8,41a22.09,22.09,0,0,0,1.29,2.27,7.52,7.52,0,0,0,3.24,2.61,3.87,3.87,0,0,0,.23-.53c.46-2.06,2.09-2.63,3.85-2.38a11.69,11.69,0,0,1,7.38,4.16,9.44,9.44,0,0,1,1.47,2.92,6.69,6.69,0,0,0,2,3.13,6.41,6.41,0,0,1,2,3.14A4.85,4.85,0,0,0,82,60a21.37,21.37,0,0,1,2.65.36c1.79.35,2.73,1.76,2.25,3.29a2.83,2.83,0,0,1-1.76,1.75,1.13,1.13,0,0,0-.79,1.13c0,1.39,0,2.78.09,4.17s.16,3,.2,4.49A8.32,8.32,0,0,0,86,80a3.66,3.66,0,0,1,.54,2,3.88,3.88,0,0,0,1.32,3c.86.82,1.75,1.61,2.61,2.42a7.16,7.16,0,0,1,2.22,3.68,2.44,2.44,0,0,0,1.76,1.85c0,.77,3.4,2,5.06,2.06a1,1,0,0,0,1.12.22c2.71-.84,5.49-1.06,7.92-2.51.89-.54,1.53-2.08,2.43-2.61.16-.09.37-.23.42-.39.41-1.51,1.26-5,1.29-5.24a4.84,4.84,0,0,1,4.09-4.29c.54-.12,9.25-1.86,9.7-2.07a6.92,6.92,0,0,1,1.41-.49,2.41,2.41,0,0,1,2.94,1.57,1.78,1.78,0,0,0,.19.36Z"/><path class="cls-2" d="M117.15,79.94a7.11,7.11,0,1,0,7.11,7.11A7.11,7.11,0,0,0,117.15,79.94Z"/><path class="cls-2" d="M97,105a7.07,7.07,0,1,0,7.06,7.07A7.08,7.08,0,0,0,97,105Zm0,11.58a4.51,4.51,0,1,1,4.51-4.51A4.51,4.51,0,0,1,97,116.61Z"/><path class="cls-2" d="M40.79,91.43a7.4,7.4,0,1,0,7.39,7.4A7.39,7.39,0,0,0,40.79,91.43Z"/><path class="cls-2" d="M41.63,37.51A7.4,7.4,0,1,0,49,44.91,7.39,7.39,0,0,0,41.63,37.51Zm0,12.12a4.72,4.72,0,1,1,4.72-4.72A4.72,4.72,0,0,1,41.63,49.63Z"/><path class="cls-2" d="M72.41,80.81A7.4,7.4,0,1,0,79.8,88.2,7.39,7.39,0,0,0,72.41,80.81Zm0,12.11a4.72,4.72,0,1,1,4.71-4.72A4.72,4.72,0,0,1,72.41,92.92Z"/><rect class="cls-2" x="46.23" y="92.66" width="20.5" height="2.27" transform="translate(-23.4 18.92) rotate(-15.8)"/><rect class="cls-2" x="78.64" y="86.07" width="31.88" height="2.27" transform="translate(-0.72 0.79) rotate(-0.48)"/><rect class="cls-2" x="97.67" y="98.78" width="19.06" height="2.27" transform="translate(-37.69 121.9) rotate(-51.61)"/><rect class="cls-2" x="20.31" y="70.97" width="41.04" height="2.27" transform="translate(-32.18 111.28) rotate(-88.7)"/><rect class="cls-2" x="82.85" y="89.58" width="2.27" height="23.01" transform="translate(-46.67 86.91) rotate(-44.08)"/><rect class="cls-2" x="55.56" y="45.93" width="2.28" height="40.79" transform="matrix(0.81, -0.58, 0.58, 0.81, -28.05, 45.59)"/><rect class="cls-3" x="13.34" y="84.15" width="14.14" height="2.5"/><rect class="cls-3" x="13.34" y="90.28" width="14.14" height="2.5"/><rect class="cls-3" x="13.34" y="96.4" width="14.14" height="2.5"/><rect class="cls-3" x="26.94" y="20.32" width="17.12" height="2.5"/><rect class="cls-3" x="26.94" y="13.85" width="17.12" height="2.5"/><rect class="cls-3" x="26.94" y="26.45" width="17.12" height="2.5"/><rect class="cls-3" x="106.34" y="63.96" width="16.27" height="2.5"/><rect class="cls-3" x="106.34" y="58.17" width="16.27" height="2.5"/><rect class="cls-3" x="106.34" y="70.09" width="16.27" height="2.5"/><rect class="cls-3" x="71.96" y="118.75" width="14.91" height="2.5"/><rect class="cls-3" x="71.96" y="112.96" width="14.91" height="2.5"/><rect class="cls-3" x="71.96" y="124.87" width="14.91" height="2.5"/><path class="cls-3" d="M116.79,52.75h-4v-4h4Zm0-8h-4v-4h4Zm0-8h-4V34.4a8.93,8.93,0,0,0-.1-1.37l4-.55a13.8,13.8,0,0,1,.13,1.93Zm-5.1-6.88a9.92,9.92,0,0,0-2-2.66l2.77-2.89a14,14,0,0,1,2.77,3.73ZM107,25.33a9.6,9.6,0,0,0-3.19-.88l.39-4a13.76,13.76,0,0,1,4.49,1.23Zm-7-.93H96v-4h4Zm-8,0H88v-4h4Zm-8,0H80v-4h4Zm-8,0H72v-4h4Zm-8,0H64v-4h4Zm-8,0H56v-4h4Zm-8,0H48v-4h4Z"/><path class="cls-3" d="M60.38,121.85H56.46v-4h3.92Zm7.15,0H63.61v-4h3.92Zm-15,0H48.62v-4h3.92Zm-7.84,0H40.78v-4H44.7Zm-7.84,0H32.94v-4h3.92Zm-8.32-.5a13.72,13.72,0,0,1-4.13-1.95l2.22-3.3a10,10,0,0,0,2.95,1.4Zm-7.4-5.17a14.08,14.08,0,0,1-2.08-4.13l3.74-1.21a10.22,10.22,0,0,0,1.48,3Zm1.21-8.68H18.43v-3.93h3.92Z"/></svg>