<svg height="512pt" viewBox="-10 0 512 512" width="512pt" xmlns="http://www.w3.org/2000/svg"><path style="fill:#fff;" d="m453 307.800781v-103.601562c22.757812-8.53125 39-30.5 39-56.199219 0-33.085938-26.914062-60-60-60-16.261719 0-31.023438 6.511719-41.839844 17.050781l-84.328125-40.800781c.101563-1.40625.167969-2.820312.167969-4.25 0-33.085938-26.914062-60-60-60s-60 26.914062-60 60c0 1.566406.078125 3.117188.199219 4.65625l-84.683594 40.089844c-10.785156-10.359375-25.414063-16.746094-41.515625-16.746094-33.085938 0-60 26.914062-60 60 0 25.699219 16.242188 47.667969 39 56.199219v103.601562c-22.757812 8.53125-39 30.5-39 56.199219 0 33.085938 26.914062 60 60 60 16.355469 0 31.199219-6.585938 42.03125-17.238281l84.191406 40.285156c-.136718 1.636719-.222656 3.285156-.222656 4.953125 0 33.085938 26.914062 60 60 60s60-26.914062 60-60c0-1.804688-.09375-3.585938-.25-5.351562l84.542969-39.574219c10.804687 10.464843 25.511719 16.925781 41.707031 16.925781 33.085938 0 60-26.914062 60-60 0-25.699219-16.242188-47.667969-39-56.199219zm-21-179.800781c11.027344 0 20 8.972656 20 20s-8.972656 20-20 20-20-8.972656-20-20 8.972656-20 20-20zm-186-88c11.027344 0 20 8.972656 20 20s-8.972656 20-20 20-20-8.972656-20-20 8.972656-20 20-20zm-186 88c11.027344 0 20 8.972656 20 20s-8.972656 20-20 20-20-8.972656-20-20 8.972656-20 20-20zm0 256c-11.027344 0-20-8.972656-20-20s8.972656-20 20-20 20 8.972656 20 20-8.972656 20-20 20zm186 88c-11.027344 0-20-8.972656-20-20s8.972656-20 20-20 20 8.972656 20 20-8.972656 20-20 20zm0-80c-17.027344 0-32.40625 7.140625-43.339844 18.570312l-83.058594-39.746093c.253907-2.242188.398438-4.515625.398438-6.824219 0-26.445312-17.203125-48.929688-41-56.898438v-102.203124c23.796875-7.96875 41-30.453126 41-56.898438 0-2.546875-.179688-5.054688-.488281-7.519531l82.945312-39.265625c10.941407 11.554687 26.410157 18.785156 43.542969 18.785156 17.273438 0 32.851562-7.347656 43.8125-19.066406l82.621094 39.976562c-.277344 2.328125-.433594 4.691406-.433594 7.089844 0 26.445312 17.203125 48.929688 41 56.898438v102.203124c-23.796875 7.96875-41 30.457032-41 56.898438 0 2.460938.164062 4.878906.453125 7.257812l-83.382813 39.03125c-10.914062-11.265624-26.183593-18.289062-43.070312-18.289062zm186-8c-11.027344 0-20-8.972656-20-20s8.972656-20 20-20 20 8.972656 20 20-8.972656 20-20 20zm-127.015625-184.015625c0-32.523437-26.917969-58.984375-60-58.984375v40c11.027344 0 20 8.515625 20 18.984375v16h-40v-16c0-10.46875 8.96875-18.984375 20-18.984375v-40c-33.085937 0-60 26.460938-60 58.984375v16h-31.984375v144h184v-144h-32.015625zm-7.984375 120h-104v-64h104zm0 0"/></svg>