<?xml version="1.0" encoding="iso-8859-1"?>
<!-- Generator: Adobe Illustrator 19.1.0, SVG Export Plug-In . SVG Version: 6.00 Build 0)  -->
<svg version="1.1" id="Capa_1" xmlns="http://www.w3.org/2000/svg" xmlns:xlink="http://www.w3.org/1999/xlink" x="0px" y="0px"
	 viewBox="0 0 487.343 487.343" style="enable-background:new 0 0 487.343 487.343;" xml:space="preserve">
<g>
	<g>
		<path style="fill:#fff;" d="M51.725,354.622c-3.7,3.7-8.1,6.7-12.8,8.7v25.5v42.2c0,10.1,8.2,18.2,18.2,18.2h41c10.1,0,18.2-8.2,18.2-18.2v-42.2
			v-53.8v-42.2c0-0.9-0.1-1.8-0.2-2.6L51.725,354.622z"/>
		<path style="fill:#fff;" d="M476.325,90.722c-0.4,0-0.8,0-1.3,0c-27.6,1.3-55.3,2.6-82.9,3.9c-4.3,0.2-8.5,0.4-10.9,5.6c-2.4,5.1,0.3,8,3.3,11
			c8.5,8.5,16.9,17.1,25.5,25.4l-9.4,9.4l-76.5,76.5l-6.8,6.8l-16.7,16.7l-65.8,65.8l-3.8-3.8l-78.7-78.7l-16.7-16.7l-4.5-4.5
			c-3.6-3.6-8.2-5.3-12.9-5.3s-9.3,1.8-12.9,5.3l-4.5,4.5l-95.5,95.5c-7.1,7.1-7.1,18.7,0,25.8l4.5,4.5c3.6,3.6,8.2,5.3,12.9,5.3
			s9.3-1.8,12.9-5.3l82.6-82.6l3.8,3.8l78.7,78.7l16.7,16.7l4.5,4.5c3.6,3.6,8.2,5.3,12.9,5.3s9.3-1.8,12.9-5.3l4.5-4.5l78.7-78.7
			l16.7-16.7l6.8-6.8l76.5-76.5l9.3-9.3l25,24.8c2.3,2.3,4.6,4.8,7.9,4.8c1.2,0,2.6-0.4,4.1-1.2c5-2.7,6.1-7.1,6.3-12
			c1.2-27,2.5-53.9,3.8-80.9C487.625,94.422,484.225,90.722,476.325,90.722z"/>
		<path style="fill:#fff;" d="M190.025,207.222c7.9,3.8,16.3,5.8,24.8,7.1c6.7,1.1,6.9,1.4,7,8.3c0,3.2,0.1,6.3,0.1,9.5c0,4,2,6.3,6,6.4
			c4.7,0.1,9.3,0.1,14,0c3.8-0.1,5.8-2.2,5.8-6c0-4.3,0.2-8.6,0-13s1.7-6.6,5.9-7.8c9.7-2.7,18-7.9,24.4-15.6
			c17.7-21.5,10.9-53-14.2-66.9c-7.9-4.4-16.2-7.7-24.5-11.1c-4.8-2-9.4-4.3-13.4-7.6c-8-6.4-6.5-16.7,2.9-20.8
			c2.6-1.1,5.4-1.5,8.3-1.7c10.8-0.6,21.1,1.4,31,6.1c4.9,2.4,6.5,1.6,8.2-3.5c1.7-5.4,3.2-10.8,4.8-16.3c1.1-3.6-0.2-6.1-3.7-7.6
			c-6.3-2.8-12.8-4.8-19.5-5.8c-8.9-1.4-8.9-1.4-8.9-10.3c-0.1-12.6-0.1-12.6-12.6-12.6c-1.8,0-3.7,0-5.5,0c-5.9,0.2-6.9,1.2-7,7.1
			c-0.1,2.7,0,5.3,0,8c0,7.9-0.1,7.8-7.6,10.5c-18.2,6.6-29.5,19-30.7,38.9c-1.1,17.6,8.1,29.5,22.5,38.1
			c8.9,5.3,18.8,8.5,28.2,12.6c3.7,1.6,7.2,3.5,10.3,6c9.1,7.5,7.4,20-3.4,24.7c-5.8,2.5-11.8,3.1-18.1,2.4
			c-9.6-1.2-18.9-3.7-27.6-8.3c-5.1-2.7-6.6-2-8.3,3.6c-1.5,4.8-2.8,9.6-4.1,14.4C183.225,202.622,183.825,204.222,190.025,207.222z
			"/>
		<path style="fill:#fff;" d="M201.025,371.422l-16.7-16.7l-36-36c-1.6,2.7-2.5,5.9-2.5,9.2v7.2v88.8v7.2c0,10.1,8.2,18.2,18.2,18.2h41
			c10.1,0,18.2-8.2,18.2-18.2v-7.2v-37.5c-6.6-1.9-12.7-5.5-17.7-10.5L201.025,371.422z"/>
		<path style="fill:#fff;" d="M268.525,371.422l-4.5,4.5c-3.3,3.3-7.1,6-11.3,8v40v7.2c0,10.1,8.2,18.2,18.2,18.2h41c10.1,0,18.2-8.2,18.2-18.2v-7.2
			v-88.8v-7.2c0-5-2-9.5-5.3-12.8L268.525,371.422z"/>
		<path style="fill:#fff;" d="M370.725,269.122l-6.8,6.8l-4.4,4.4v12.5v8.6v33.6v8.6v45.1v42.2c0,10.1,8.2,18.2,18.2,18.2h41c10.1,0,18.2-8.2,18.2-18.2
			v-42.2v-45v-8.6v-33.6v-8.6v-45.2v-42.2c0-0.8-0.1-1.6-0.2-2.4L370.725,269.122z"/>
	</g>
</g>
<g>
</g>
<g>
</g>
<g>
</g>
<g>
</g>
<g>
</g>
<g>
</g>
<g>
</g>
<g>
</g>
<g>
</g>
<g>
</g>
<g>
</g>
<g>
</g>
<g>
</g>
<g>
</g>
<g>
</g>
</svg>
