<?xml version="1.0" encoding="iso-8859-1"?>
<!-- Generator: Adobe Illustrator 19.1.0, SVG Export Plug-In . SVG Version: 6.00 Build 0)  -->
<svg version="1.1" id="Capa_1" xmlns="http://www.w3.org/2000/svg" xmlns:xlink="http://www.w3.org/1999/xlink" x="0px" y="0px"
	 viewBox="0 0 485.019 485.019" style="enable-background:new 0 0 485.019 485.019;" xml:space="preserve">
<g>
	<g>
		<path style="fill:#fff;" d="M324.718,66.719c6.7-14.4,13.4-28.7,20.5-44c-78-32.8-154.1-31.2-226.9,12.1c-70.3,41.9-108.5,105.4-118.3,187.3
			c16.7,1.5,32.5,2.8,48.3,4.2C56.918,102.619,193.618,7.719,324.718,66.719z"/>
		<path style="fill:#fff;" d="M481.518,201.219c-15.7,2.7-31.3,5.5-47.6,8.3c8.4,56.7-3.2,107.7-37.9,152.4c-34.4,44.5-80.4,69-136.8,75.2
			c1.4,16,2.7,31.6,4.1,47.2C381.318,480.119,507.718,361.619,481.518,201.219z"/>
		<path style="fill:#fff;" d="M47.518,260.319c-15,1.3-30.6,2.6-46.2,4c3.6,98.9,89.9,210.1,219.9,220.7c1.4-16,2.8-31.7,4.1-46.9
			C123.718,421.119,64.718,362.219,47.518,260.319z"/>
		<path style="fill:#fff;" d="M396.318,124.819c12.1,15.7,21.5,33,28.8,52c15.1-5.5,30-10.9,45.6-16.6c-18-47.9-47.4-86-89-115.9
			c-9.3,13.2-18.4,26.2-27.8,39.7C369.918,95.819,384.218,109.119,396.318,124.819z"/>
		<path style="fill:#fff;" d="M302.218,177.819c-4.4,0-7.9,3.5-7.9,7.9v156.3c0,4.4,3.5,7.9,7.9,7.9h54.1c4.4,0,7.9-3.5,7.9-7.9v-156.3
			c0-4.4-3.5-7.9-7.9-7.9H302.218z M348.418,334.119h-38.3v-140.4h38.3V334.119z"/>
		<path style="fill:#fff;" d="M128.718,219.319c-4.4,0-7.9,3.5-7.9,7.9v114.8c0,4.4,3.5,7.9,7.9,7.9h54.1c4.4,0,7.9-3.5,7.9-7.9v-114.8
			c0-4.4-3.5-7.9-7.9-7.9H128.718z M136.618,334.119v-12.3l12.3,12.3H136.618z M161.418,334.119l-24.8-24.8v-12.5l37.4,37.4h-12.6
			V334.119z M174.918,322.519l-38.3-38.3v-12.5l38.3,38.3V322.519z M174.918,297.519l-38.3-38.3v-12.5l38.3,38.3V297.519z
			 M174.918,272.519l-37.3-37.3h12.5l24.8,24.8V272.519z M174.918,247.419l-12.3-12.3h12.3V247.419z"/>
		<path style="fill:#fff;" d="M215.418,114.319c-4.4,0-7.9,3.5-7.9,7.9v219.8c0,4.4,3.5,7.9,7.9,7.9h54.1c4.4,0,7.9-3.5,7.9-7.9v-219.8
			c0-4.4-3.5-7.9-7.9-7.9C269.518,114.319,215.418,114.319,215.418,114.319z"/>
	</g>
</g>
<g>
</g>
<g>
</g>
<g>
</g>
<g>
</g>
<g>
</g>
<g>
</g>
<g>
</g>
<g>
</g>
<g>
</g>
<g>
</g>
<g>
</g>
<g>
</g>
<g>
</g>
<g>
</g>
<g>
</g>
</svg>
