<?xml version="1.0" encoding="iso-8859-1"?>
<!-- Generator: Adobe Illustrator 16.0.0, SVG Export Plug-In . SVG Version: 6.00 Build 0)  -->
<!DOCTYPE svg PUBLIC "-//W3C//DTD SVG 1.1//EN" "http://www.w3.org/Graphics/SVG/1.1/DTD/svg11.dtd">
<svg version="1.1" id="Capa_1" xmlns="http://www.w3.org/2000/svg" xmlns:xlink="http://www.w3.org/1999/xlink" x="0px" y="0px"
	 width="47.784px" height="47.785px" viewBox="0 0 47.784 47.785" style="enable-background:new 0 0 47.784 47.785;"
	 xml:space="preserve">
<g>
	<g>
		<path style="fill:#fff;" d="M25.721,29.98c5.377,0,9.75-4.373,9.75-9.75c0-5.375-4.373-9.75-9.75-9.75c-5.375,0-9.75,4.375-9.75,9.75
			C15.971,25.607,20.345,29.98,25.721,29.98z M25.721,12.48c4.273,0,7.75,3.477,7.75,7.75c0,4.273-3.477,7.75-7.75,7.75
			c-4.272,0-7.75-3.477-7.75-7.75C17.971,15.957,21.448,12.48,25.721,12.48z"/>
		<circle style="fill:#fff;" cx="7" cy="28.179" r="7"/>
		<circle style="fill:#fff;" cx="35.159" cy="38.679" r="5.5"/>
		<circle style="fill:#fff;" cx="19.559" cy="38.929" r="6.25"/>
		<circle style="fill:#fff;" cx="43.284" cy="27.179" r="4.5"/>
		<circle style="fill:#fff;" cx="42.971" cy="16.23" r="3.5"/>
		<circle style="fill:#fff;" cx="38.159" cy="9.105" r="2.5"/>
		<circle style="fill:#fff;" cx="30.784" cy="5.105" r="2.5"/>
		<circle style="fill:#fff;" cx="23.43" cy="4.605" r="2"/>
		<circle style="fill:#fff;" cx="18.059" cy="7.105" r="1.5"/>
		<circle style="fill:#fff;" cx="14" cy="11.105" r="1"/>
		<circle style="fill:#fff;" cx="12.14" cy="14.98" r="0.5"/>
	</g>
</g>
<g>
</g>
<g>
</g>
<g>
</g>
<g>
</g>
<g>
</g>
<g>
</g>
<g>
</g>
<g>
</g>
<g>
</g>
<g>
</g>
<g>
</g>
<g>
</g>
<g>
</g>
<g>
</g>
<g>
</g>
</svg>
