<?xml version="1.0"?>
<svg xmlns="http://www.w3.org/2000/svg" viewBox="0 0 64 64" width="512" height="512"><g id="Database-3" data-name="Database"><path style="fill:#fff;" d="M32,30c-7.3,0-18.48-.48-23-3.19V39c0,2.04,8.96,5,23,5s23-2.96,23-5V26.81C50.48,29.52,39.3,30,32,30ZM17.98,36.87a1.1,1.1,0,0,1-.18-.02c-1.46-.26-2.82-.57-4.04-.91a1,1,0,0,1-.7-1.23,1.014,1.014,0,0,1,1.24-.7c1.16.33,2.45.62,3.85.87a1,1,0,0,1-.17,1.99Zm24.16.58A91.118,91.118,0,0,1,32,38a89.119,89.119,0,0,1-10.17-.56,1,1,0,1,1,.23-1.98A87.426,87.426,0,0,0,32,36a86.888,86.888,0,0,0,9.91-.54.989.989,0,0,1,1.11.88A1.007,1.007,0,0,1,42.14,37.45Z"/><path style="fill:#fff;" d="M32,14c-7.3,0-18.48-.48-23-3.19V24c0,1.66,7.14,4,23,4s23-2.34,23-4V10.81C50.48,13.52,39.3,14,32,14ZM17.98,20.87a1.1,1.1,0,0,1-.18-.02c-1.46-.26-2.82-.57-4.04-.91a1,1,0,0,1-.7-1.23,1.014,1.014,0,0,1,1.24-.7c1.16.33,2.45.62,3.85.87a1,1,0,0,1-.17,1.99Zm24.16.58A91.118,91.118,0,0,1,32,22a89.119,89.119,0,0,1-10.17-.56,1,1,0,1,1,.23-1.98A87.426,87.426,0,0,0,32,20a86.888,86.888,0,0,0,9.91-.54,1,1,0,0,1,1.11.88A1.007,1.007,0,0,1,42.14,21.45Z"/><path style="fill:#fff;" d="M32,46c-9.44,0-18.97-1.39-23-4.08V55c0,2.04,8.96,5,23,5s23-2.96,23-5V41.92C50.97,44.61,41.44,46,32,46ZM17.98,52.87a1.1,1.1,0,0,1-.18-.02c-1.46-.26-2.82-.57-4.04-.91a1,1,0,0,1-.7-1.23,1.014,1.014,0,0,1,1.24-.7c1.16.33,2.45.62,3.85.87a1,1,0,0,1-.17,1.99Zm24.16.58A91.118,91.118,0,0,1,32,54a89.119,89.119,0,0,1-10.17-.56,1,1,0,1,1,.23-1.98A87.426,87.426,0,0,0,32,52a86.888,86.888,0,0,0,9.91-.54.989.989,0,0,1,1.11.88A1.007,1.007,0,0,1,42.14,53.45Z"/><path style="fill:#fff;" d="M9,7.076V8c0,1.661,7.136,4,23,4S55,9.661,55,8V7.076C54.259,6.015,46.679,4,32,4S9.741,6.015,9,7.076Z"/></g></svg>
