<?xml version="1.0" encoding="utf-8"?>
<!-- Generator: Adobe Illustrator 21.1.0, SVG Export Plug-In . SVG Version: 6.00 Build 0)  -->
<svg version="1.1" id="Capa_1" xmlns="http://www.w3.org/2000/svg" xmlns:xlink="http://www.w3.org/1999/xlink" x="0px" y="0px"
	 viewBox="0 0 220 220" style="enable-background:new 0 0 220 220;" xml:space="preserve">
<style type="text/css">
	.st0{fill:#FFFFFF;}
	.st1{fill:#666666;}
	.st2{fill:#FECB6E;}
	.st3{fill:#89D4F2;}
</style>
<g>
	<circle class="st0" cx="110" cy="110" r="108.7"/>
	<g>
		<g>
			<path class="st1" d="M149.7,54c-22.6,0-41,18.4-41,41c0,8.3,2.5,15.9,6.7,22.4l-28.1,28.1c-3.9,3.9-3.9,10.1,0,14
				c1.9,1.9,4.5,2.9,7,2.9c2.5,0,5.1-1,7-2.9l23.6-24.6c1-1,1-2.7,0-3.7c-1-1-2.7-1-3.7,0l-23.6,24.6c-1.8,1.8-4.7,1.8-6.5,0
				c-1.8-1.8-1.8-4.7,0-6.5l27.6-27.6c7.5,8.8,18.7,14.4,31.1,14.4c22.6,0,41-18.4,41-41C190.7,72.4,172.3,54,149.7,54z
				 M149.7,131.2c-20,0-36.3-16.3-36.3-36.3c0-20,16.3-36.3,36.3-36.3c20,0,36.3,16.3,36.3,36.3C185.9,115,169.7,131.2,149.7,131.2z
				"/>
			<path class="st1" d="M155.4,87.1l-10.2,10.2l-3.1-3.1c-0.9-0.9-2.4-0.9-3.4,0c-0.9,0.9-0.9,2.4,0,3.4l4.8,4.8
				c0.5,0.5,1.1,0.7,1.7,0.7s1.2-0.2,1.7-0.7l11.9-11.9c0.9-0.9,0.9-2.4,0-3.4C157.8,86.2,156.3,86.2,155.4,87.1z"/>
		</g>
		<g>
			<path class="st2" d="M149.7,123.9c-16,0-29.1-13-29.1-29.1s13-29.1,29.1-29.1s29.1,13,29.1,29.1S165.7,123.9,149.7,123.9z
				 M149.7,72.7c-12.2,0-22.1,9.9-22.1,22.1s9.9,22.1,22.1,22.1s22.1-9.9,22.1-22.1S161.9,72.7,149.7,72.7z"/>
		</g>
	</g>
	<g>
		<g>
			<g>
				<path class="st3" d="M63,122.7h-6.4v14h-10v-14H23.7v-7.3l20.1-32.6h12.8v31.7H63V122.7z M46.7,114.5v-11c0-3.1,0.3-8,0.4-11.1
					h-0.3c-1.3,2.8-2.8,5.8-4.3,8.7l-8.4,13.4H46.7z"/>
			</g>
		</g>
	</g>
</g>
</svg>
