<?xml version="1.0" encoding="UTF-8"?><svg id="logos" xmlns="http://www.w3.org/2000/svg" viewBox="0 0 32 32"><defs><style>.cls-1{fill:#55575a;}</style></defs><path class="cls-1" d="M15.13,29.61h-.02c-.68-.04-1.36-.14-2.03-.3-.16-.04-.26-.2-.22-.36,.04-.16,.2-.26,.36-.22,.64,.14,1.28,.24,1.95,.28,.16,.02,.3,.16,.28,.32-.02,.16-.16,.28-.32,.28Zm5.16-.68c-.12,0-.24-.08-.28-.2-.06-.16,.04-.32,.18-.38,.62-.2,1.22-.46,1.81-.76,.14-.08,.32-.02,.4,.12,.08,.14,.02,.32-.12,.4-.6,.32-1.24,.58-1.89,.8-.04,.02-.06,.02-.1,.02Zm-8.69-.06s-.06,0-.1-.02c-.64-.22-1.28-.5-1.89-.82-.14-.08-.2-.26-.12-.4s.26-.2,.4-.12c.58,.3,1.18,.58,1.79,.8,.16,.06,.24,.22,.18,.38-.02,.1-.12,.18-.26,.18Zm11.92-1.55c-.1,0-.18-.04-.24-.14-.1-.14-.06-.32,.08-.42,.54-.36,1.04-.78,1.53-1.22,.12-.12,.32-.1,.42,.02,.12,.12,.1,.32-.02,.42-.5,.46-1.04,.9-1.61,1.28-.04,.04-.1,.06-.16,.06Zm-15.11-.1c-.06,0-.12-.02-.18-.06-.56-.4-1.08-.84-1.59-1.3-.12-.12-.12-.3,0-.42s.3-.12,.42,0c.46,.46,.98,.88,1.51,1.24,.14,.1,.16,.28,.08,.42-.06,.06-.16,.12-.24,.12Zm20.73-8.83h-.04c-.16-.02-.28-.18-.26-.34,.1-.64,.14-1.3,.14-1.97v-.04c0-.16,.14-.3,.3-.3s.3,.14,.3,.3v.04c0,.68-.06,1.36-.16,2.05-.02,.14-.14,.26-.28,.26Zm-26.23-.18c-.14,0-.28-.1-.3-.26-.08-.62-.12-1.24-.12-1.87v-.18c0-.16,.14-.3,.3-.3s.3,.14,.3,.3v.18c0,.6,.04,1.2,.12,1.79,.02,.16-.1,.32-.26,.34h-.04Zm26.27-3.47c-.14,0-.28-.12-.3-.26-.08-.64-.2-1.3-.38-1.93-.04-.16,.04-.32,.2-.38,.16-.04,.32,.04,.38,.2,.18,.66,.32,1.32,.4,2.01,.02,.16-.1,.32-.26,.34t-.04,.02Zm-26.27-.14h-.04c-.16-.02-.28-.18-.26-.34,.1-.68,.24-1.34,.42-2.01,.04-.16,.22-.24,.38-.2,.16,.04,.24,.22,.2,.38-.18,.62-.32,1.26-.4,1.93-.02,.14-.16,.24-.3,.24Zm23.5-6.44c-.08,0-.18-.04-.24-.12-.4-.5-.86-1-1.32-1.45-.12-.12-.12-.3-.02-.42,.12-.12,.3-.12,.42-.02,.5,.46,.96,.96,1.38,1.51,.1,.12,.08,.32-.04,.42-.04,.06-.1,.08-.18,.08Zm-20.67-.12c-.06,0-.14-.02-.18-.06-.12-.1-.14-.3-.04-.42,.42-.52,.9-1.02,1.41-1.49,.12-.12,.32-.1,.42,.02,.12,.12,.1,.32-.02,.42-.48,.44-.94,.92-1.34,1.43-.06,.06-.14,.1-.24,.1Zm18.08-2.37c-.06,0-.12-.02-.18-.06-.52-.38-1.08-.72-1.67-1.02-.14-.08-.2-.26-.12-.4s.26-.2,.4-.12c.6,.32,1.2,.68,1.75,1.08,.14,.1,.16,.28,.06,.42-.06,.06-.16,.1-.24,.1Zm-15.46-.1c-.1,0-.18-.04-.24-.12-.1-.14-.06-.32,.08-.42,.56-.4,1.14-.74,1.77-1.06,.14-.08,.32-.02,.4,.14,.08,.14,.02,.32-.14,.4-.58,.3-1.14,.64-1.69,1-.06,.04-.12,.06-.18,.06Zm12.26-1.61s-.06,0-.1-.02c-.6-.22-1.24-.4-1.89-.54-.16-.04-.26-.2-.24-.36,.04-.16,.2-.26,.36-.24,.66,.14,1.34,.32,1.97,.56,.16,.06,.24,.24,.18,.38-.04,.14-.16,.22-.28,.22Zm-9.05-.06c-.12,0-.24-.08-.28-.2-.06-.16,.02-.32,.18-.38,.64-.22,1.3-.42,1.99-.54,.16-.04,.32,.08,.36,.24s-.08,.32-.24,.36c-.64,.12-1.28,.3-1.89,.52h-.12Z"/><g><g><circle class="cls-1" cx="3.97" cy="20.73" r="1.41"/><path class="cls-1" d="M3.97,22.4c-.92,0-1.67-.74-1.67-1.67s.74-1.67,1.67-1.67,1.67,.74,1.67,1.67-.74,1.67-1.67,1.67Zm0-2.79c-.62,0-1.12,.5-1.12,1.12s.5,1.12,1.12,1.12,1.12-.5,1.12-1.12-.5-1.12-1.12-1.12Z"/></g><g><path class="cls-1" d="M6.45,24.39v-.12h0c0-1.06-.88-1.95-1.95-1.95h-1.22c-1.06,0-1.95,.88-1.95,1.95h0v.12H6.45Z"/><path class="cls-1" d="M6.72,24.65H1.12l-.02-.24v-.14c0-1.22,.98-2.21,2.21-2.21h1.22c1.22,0,2.21,.98,2.21,2.21v.14l-.02,.24Zm-5.08-.52H6.19c-.08-.86-.78-1.55-1.67-1.55h-1.22c-.88,0-1.61,.68-1.67,1.55Z"/></g></g><g><g><circle class="cls-1" cx="17.46" cy="28.03" r="1.41"/><path class="cls-1" d="M17.46,29.7c-.92,0-1.67-.74-1.67-1.67s.74-1.67,1.67-1.67,1.67,.74,1.67,1.67-.74,1.67-1.67,1.67Zm0-2.79c-.62,0-1.12,.5-1.12,1.12s.5,1.12,1.12,1.12,1.12-.5,1.12-1.12-.5-1.12-1.12-1.12Z"/></g><g><path class="cls-1" d="M19.95,31.68v-.12h0c0-1.06-.88-1.95-1.95-1.95h-1.22c-1.06,0-1.95,.88-1.95,1.95h0v.12h5.12Z"/><path class="cls-1" d="M20.21,31.94h-5.6l-.02-.24v-.14c0-1.22,.98-2.21,2.21-2.21h1.22c1.22,0,2.21,.98,2.21,2.21v.14l-.02,.24Zm-5.08-.52h4.56c-.08-.86-.78-1.55-1.67-1.55h-1.22c-.88,0-1.61,.68-1.67,1.55Z"/></g></g><g><g><circle class="cls-1" cx="16.18" cy="1.72" r="1.41"/><path class="cls-1" d="M16.18,3.39c-.92,0-1.67-.74-1.67-1.67S15.26,.06,16.18,.06s1.67,.74,1.67,1.67-.74,1.67-1.67,1.67Zm0-2.79c-.62,0-1.12,.5-1.12,1.12s.5,1.12,1.12,1.12,1.12-.5,1.12-1.12-.5-1.12-1.12-1.12Z"/></g><g><path class="cls-1" d="M18.67,5.38v-.12h0c0-1.06-.88-1.95-1.95-1.95h-1.22c-1.06,0-1.95,.88-1.95,1.95h0v.12h5.12Z"/><path class="cls-1" d="M18.93,5.64h-5.6l-.02-.24v-.14c0-1.22,.98-2.21,2.21-2.21h1.22c1.22,0,2.21,.98,2.21,2.21v.14l-.02,.24Zm-5.08-.52h4.56c-.08-.86-.78-1.55-1.67-1.55h-1.22c-.88,0-1.61,.68-1.67,1.55Z"/></g></g><g><g><circle class="cls-1" cx="28.13" cy="21.26" r="1.41"/><path class="cls-1" d="M28.13,22.93c-.92,0-1.67-.74-1.67-1.67s.74-1.67,1.67-1.67,1.67,.74,1.67,1.67-.74,1.67-1.67,1.67Zm0-2.79c-.62,0-1.12,.5-1.12,1.12s.5,1.12,1.12,1.12,1.12-.5,1.12-1.12-.5-1.12-1.12-1.12Z"/></g><g><path class="cls-1" d="M30.62,24.92v-.12h0c0-1.06-.88-1.95-1.95-1.95h-1.22c-1.06,0-1.95,.88-1.95,1.95h0v.12h5.12Z"/><path class="cls-1" d="M30.88,25.18h-5.6l-.02-.24v-.14c0-1.22,.98-2.21,2.21-2.21h1.22c1.22,0,2.21,.98,2.21,2.21v.14l-.02,.24Zm-5.08-.52h4.56c-.08-.86-.78-1.55-1.67-1.55h-1.22c-.88,0-1.61,.68-1.67,1.55Z"/></g></g><g><g><circle class="cls-1" cx="4.18" cy="8.44" r="1.41"/><path class="cls-1" d="M4.18,10.11c-.92,0-1.67-.74-1.67-1.67s.74-1.67,1.67-1.67,1.67,.74,1.67,1.67-.74,1.67-1.67,1.67Zm0-2.79c-.62,0-1.12,.5-1.12,1.12s.5,1.12,1.12,1.12,1.12-.5,1.12-1.12-.5-1.12-1.12-1.12Z"/></g><g><path class="cls-1" d="M6.67,12.1v-.12h0c0-1.06-.88-1.95-1.95-1.95h-1.22c-1.06,0-1.95,.88-1.95,1.95h0v.12H6.67Z"/><path class="cls-1" d="M6.93,12.36H1.33l-.02-.24v-.14c0-1.22,.98-2.21,2.21-2.21h1.22c1.22,0,2.21,.98,2.21,2.21v.14l-.02,.24Zm-5.08-.52H6.41c-.08-.86-.78-1.55-1.67-1.55h-1.22c-.88,0-1.61,.68-1.67,1.55Z"/></g></g><g><g><circle class="cls-1" cx="28.13" cy="8.25" r="1.41"/><path class="cls-1" d="M28.13,9.91c-.92,0-1.67-.74-1.67-1.67s.74-1.67,1.67-1.67,1.67,.74,1.67,1.67-.74,1.67-1.67,1.67Zm0-2.79c-.62,0-1.12,.5-1.12,1.12s.5,1.12,1.12,1.12,1.12-.5,1.12-1.12-.5-1.12-1.12-1.12Z"/></g><g><path class="cls-1" d="M30.62,11.9v-.12h0c0-1.06-.88-1.95-1.95-1.95h-1.22c-1.06,0-1.95,.88-1.95,1.95h0v.12h5.12Z"/><path class="cls-1" d="M30.88,12.16h-5.6l-.02-.24v-.14c0-1.22,.98-2.21,2.21-2.21h1.22c1.22,0,2.21,.98,2.21,2.21v.14l-.02,.24Zm-5.08-.52h4.56c-.08-.86-.78-1.55-1.67-1.55h-1.22c-.88,0-1.61,.68-1.67,1.55Z"/></g></g><g><g><rect class="cls-1" x="14.96" y="11.92" width="4.98" height=".46"/><rect class="cls-1" x="13.09" y="11.95" width="1.24" height=".46"/></g><g><rect class="cls-1" x="14.96" y="13.35" width="4.98" height=".46"/><rect class="cls-1" x="13.09" y="13.38" width="1.24" height=".46"/></g><g><rect class="cls-1" x="14.96" y="14.88" width="4.98" height=".46"/><rect class="cls-1" x="13.09" y="14.91" width="1.24" height=".46"/></g><g><rect class="cls-1" x="14.96" y="16.59" width="4.98" height=".46"/><rect class="cls-1" x="13.09" y="16.62" width="1.24" height=".46"/></g><g><rect class="cls-1" x="14.96" y="18.12" width="4.98" height=".46"/><path class="cls-1" d="M13.38,18.13h.95v.46h-1.24v-.1c0-.19,.13-.36,.3-.36Z"/></g><path class="cls-1" d="M20.83,24.12H11.94c-.78,0-1.42-.77-1.42-1.71V10.22c0-.94,.64-1.71,1.42-1.71h8.89c.78,0,1.42,.77,1.42,1.71v12.17c0,.96-.64,1.73-1.42,1.73ZM11.94,9.08c-.52,0-.95,.51-.95,1.14v12.17c0,.63,.43,1.14,.95,1.14h8.89c.52,0,.95-.51,.95-1.14V10.22c0-.63-.43-1.14-.95-1.14H11.94Z"/><rect class="cls-1" x="14.96" y="19.55" width="2.32" height=".46"/><path class="cls-1" d="M13.95,19.29s.07-.01,.12-.01,.09,.01,.14,.03v.03l-.26,.5,.3,.54c-.07,.06-.13,.09-.19,.09-.07,0-.12-.03-.17-.11l-.12-.23-.15,.31s-.07,.01-.12,.01-.11-.01-.14-.03h-.01l.28-.56-.27-.5c.06-.06,.13-.07,.2-.07,.04,0,.06,.01,.08,.03,.02,.01,.05,.04,.06,.09l.09,.19,.15-.3Z"/><path class="cls-1" d="M18.27,8.48v-.57h-3.56v.57h-3.14v14.18h9.72V8.48h-3.02Zm2.55,13.62H12.04V9.05h8.77v13.05Z"/><g><path class="cls-1" d="M19.44,20.29l-.18,1,.85-.06,.89-.93,2.09-2.2-.68-.94-2.98,3.13Z"/><path class="cls-1" d="M19.04,21.5l.24-1.34,3.15-3.33,.91,1.26-3.15,3.33-1.15,.09Z"/></g></g></svg>