<?xml version="1.0" encoding="UTF-8"?><svg id="logos" xmlns="http://www.w3.org/2000/svg" viewBox="0 0 32 32"><defs><style>.cls-1{fill:#55575a;}</style></defs><g><path class="cls-1" d="M7.18,26.63h1.56v.63h-2.21c0-.35,.29-.63,.65-.63Z"/><g><rect class="cls-1" x="6.53" y="17.19" width="13.26" height=".63"/><rect class="cls-1" x="6.53" y="15.29" width="13.26" height=".63"/><path class="cls-1" d="M6.53,19.08H15.38c0,.35-.29,.63-.65,.63H6.53v-.63Z"/><path class="cls-1" d="M6.53,13.37H15.38c0,.35-.29,.63-.65,.63H6.53v-.63Z"/><rect class="cls-1" x="16.49" y="19.08" width="3.32" height=".63"/><rect class="cls-1" x="16.49" y="9.51" width="3.32" height=".63"/><rect class="cls-1" x="6.53" y="20.95" width="13.26" height=".63"/><rect class="cls-1" x="6.53" y="24.74" width="13.26" height=".63"/><rect class="cls-1" x="11.51" y="22.84" width="8.3" height=".63"/><rect class="cls-1" x="6.53" y="22.84" width="3.87" height=".63"/><rect class="cls-1" x="9.85" y="26.63" width="9.96" height=".63"/></g></g><path class="cls-1" d="M26.92,.26H10.63c-1.48,0-2.7,1.19-2.7,2.63v.56h-.23c-1.48,0-2.7,1.19-2.7,2.63v.25c-1.48,.23-2.62,1.49-2.62,2.98V28.7c0,1.67,1.4,3.03,3.11,3.03h15.46c1.63,0,2.98-1.24,3.11-2.83,1.45-.05,2.62-1.19,2.62-2.63v-.56h.23c1.48,0,2.7-1.19,2.7-2.63V2.89c0-1.44-1.19-2.63-2.7-2.63Zm-5.94,30.43H5.52c-1.14,0-2.08-.91-2.08-2.02V9.31c0-1.11,.93-2.02,2.08-2.02h15.46c1.14,0,2.08,.91,2.08,2.02V28.7c0,1.09-.93,2-2.08,2Zm4.67-4.42c0,.86-.7,1.57-1.58,1.62V8.9c0-1.44-1.22-2.63-2.7-2.63H6.04v-.2c0-.88,.75-1.62,1.66-1.62H23.99c.91,0,1.66,.73,1.66,1.62V26.28h0Zm2.93-3.18c0,.86-.7,1.57-1.58,1.62V5.72c0-1.44-1.22-2.63-2.7-2.63H8.94v-.2c0-.88,.75-1.62,1.66-1.62H26.9c.91,0,1.66,.73,1.66,1.62V23.1h.03Z"/></svg>