<?xml version="1.0" encoding="UTF-8"?><svg id="logos" xmlns="http://www.w3.org/2000/svg" viewBox="0 0 32 32"><defs><style>.cls-1{fill:#34b3eb;}.cls-2{fill:#55575a;}</style></defs><path class="cls-2" d="M-.02,32c.56-6.06,5.64-12.39,11.7-12.54v-2.9c-1.88-1.44-3.1-3.68-3.1-6.23,0-4.38,3.53-7.9,7.9-7.9s7.9,3.67,7.9,7.9c0,2.86-1.52,5.34-3.79,6.72v2.43c6.07,.16,10.86,6.55,11.41,12.52H-.02Z"/><path class="cls-1" d="M16.14,27.75c-1.55,0-2.54-1.13-2.54-2.54,0-1.55,1.13-2.54,2.54-2.54,1.55,0,2.54,1.13,2.54,2.54,.14,1.41-.99,2.54-2.54,2.54h0Zm-1.55-6.63l-.56-12.98h4.52l-.56,12.98h-3.39Z"/></svg>