<?xml version="1.0" encoding="UTF-8"?><svg id="logos" xmlns="http://www.w3.org/2000/svg" viewBox="0 0 32 32"><defs><style>.cls-1{fill:#55575a;}.cls-2{fill:#f9bfb4;}</style></defs><g><path class="cls-1" d="M7.27,28.2h1.56v.63h-2.21c0-.36,.29-.63,.65-.63Z"/><g><rect class="cls-1" x="6.63" y="18.71" width="13.26" height=".63"/><rect class="cls-1" x="6.63" y="16.81" width="13.26" height=".63"/><path class="cls-1" d="M6.63,20.61H15.47c0,.36-.29,.63-.65,.63H6.63v-.63Z"/><path class="cls-1" d="M6.63,14.88H15.47c0,.36-.29,.63-.65,.63H6.63v-.63Z"/><rect class="cls-1" x="16.59" y="20.61" width="3.32" height=".63"/><rect class="cls-1" x="16.59" y="10.99" width="3.32" height=".63"/><rect class="cls-1" x="6.63" y="22.49" width="13.26" height=".63"/><rect class="cls-1" x="6.63" y="26.3" width="13.26" height=".63"/><rect class="cls-1" x="11.61" y="24.39" width="8.3" height=".63"/><rect class="cls-1" x="6.63" y="24.39" width="3.87" height=".63"/><rect class="cls-1" x="9.95" y="28.2" width="9.96" height=".63"/></g></g><path class="cls-2" d="M27.02,.3H10.73c-1.48,0-2.7,1.19-2.7,2.64v.56h-.23c-1.48,0-2.7,1.19-2.7,2.64v.25c-1.48,.23-2.62,1.5-2.62,2.99V28.88c0,1.67,1.4,3.05,3.11,3.05h15.46c1.63,0,2.98-1.24,3.11-2.84,1.45-.05,2.62-1.19,2.62-2.64v-.56h.23c1.48,0,2.7-1.19,2.7-2.64V2.94c0-1.45-1.19-2.64-2.7-2.64Zm-5.94,30.58H5.61c-1.14,0-2.08-.91-2.08-2.03V9.39c0-1.12,.93-2.03,2.08-2.03h15.46c1.14,0,2.08,.91,2.08,2.03V28.88c0,1.09-.93,2-2.08,2Zm4.67-4.44c0,.86-.7,1.57-1.58,1.62V8.98c0-1.45-1.22-2.64-2.7-2.64H6.13v-.2c0-.89,.75-1.62,1.66-1.62H24.09c.91,0,1.66,.74,1.66,1.62V26.44h0Zm2.93-3.2c0,.86-.7,1.57-1.58,1.62V5.78c0-1.45-1.22-2.64-2.7-2.64H9.04v-.2c0-.89,.75-1.62,1.66-1.62H26.99c.91,0,1.66,.74,1.66,1.62V23.25h.03Z"/><g><g><ellipse class="cls-1" cx="9.24" cy="10.58" rx="1.27" ry="1.11"/><path class="cls-1" d="M9.24,11.89c-.83,0-1.51-.58-1.51-1.31s.67-1.31,1.51-1.31,1.51,.58,1.51,1.31-.67,1.31-1.51,1.31Zm0-2.2c-.56,0-1.02,.39-1.02,.88s.45,.88,1.02,.88,1.02-.39,1.02-.88-.45-.88-1.02-.88Z"/></g><g><path class="cls-1" d="M11.49,13.46v-.09h0c0-.84-.8-1.53-1.76-1.53h-1.11c-.96,0-1.76,.7-1.76,1.53h0v.09h4.63Z"/><path class="cls-1" d="M11.72,13.66H6.66l-.02-.19v-.11c0-.96,.89-1.74,2-1.74h1.11c1.11,0,2,.77,2,1.74v.11l-.02,.19Zm-4.59-.41h4.12c-.07-.68-.71-1.22-1.51-1.22h-1.11c-.8,0-1.45,.54-1.51,1.22Z"/></g></g></svg>