<?xml version="1.0" encoding="UTF-8"?><svg id="logos" xmlns="http://www.w3.org/2000/svg" viewBox="0 0 32 32"><defs><style>.cls-1{fill:#8dd9f6;}.cls-2{fill:#a9d68f;}.cls-3{fill:#65dcca;}.cls-4{fill:#e7a2e3;}.cls-5{fill:#55575a;}.cls-6{fill:#f9bfb4;}.cls-7{fill:#b8aef9;}</style></defs><path class="cls-5" d="M15.22,29.77h-.02c-.68-.04-1.36-.14-2.01-.3-.16-.04-.26-.2-.22-.36,.04-.16,.2-.26,.36-.22,.64,.14,1.28,.24,1.93,.28,.16,.02,.3,.16,.28,.32-.02,.16-.16,.28-.32,.28Zm5.13-.68c-.12,0-.24-.08-.28-.2-.06-.16,.04-.32,.18-.38,.62-.2,1.22-.46,1.79-.76,.14-.08,.32-.02,.4,.12,.08,.14,.02,.32-.12,.4-.6,.32-1.24,.58-1.87,.8-.04,.02-.06,.02-.1,.02Zm-8.64-.06s-.06,0-.1-.02c-.64-.22-1.28-.5-1.87-.82-.14-.08-.2-.26-.12-.4s.26-.2,.4-.12c.58,.3,1.18,.58,1.77,.8,.16,.06,.24,.22,.18,.38-.02,.1-.12,.18-.26,.18Zm11.85-1.54c-.1,0-.18-.04-.24-.14-.1-.14-.06-.32,.08-.42,.54-.36,1.04-.78,1.52-1.22,.12-.12,.32-.1,.42,.02,.12,.12,.1,.32-.02,.42-.5,.46-1.04,.9-1.6,1.28-.04,.04-.1,.06-.16,.06Zm-15.02-.1c-.06,0-.12-.02-.18-.06-.56-.4-1.08-.84-1.58-1.3-.12-.12-.12-.3,0-.42s.3-.12,.42,0c.46,.46,.98,.88,1.5,1.24,.14,.1,.16,.28,.08,.42-.06,.06-.16,.12-.24,.12Zm20.6-8.77h-.04c-.16-.02-.28-.18-.26-.34,.1-.64,.14-1.3,.14-1.95v-.04c0-.16,.14-.3,.3-.3s.3,.14,.3,.3v.04c0,.68-.06,1.36-.16,2.03-.02,.14-.14,.26-.28,.26Zm-26.07-.18c-.14,0-.28-.1-.3-.26-.08-.62-.12-1.24-.12-1.85v-.18c0-.16,.14-.3,.3-.3s.3,.14,.3,.3v.18c0,.6,.04,1.2,.12,1.77,.02,.16-.1,.32-.26,.34h-.04Zm26.1-3.45c-.14,0-.28-.12-.3-.26-.08-.64-.2-1.3-.38-1.91-.04-.16,.04-.32,.2-.38,.16-.04,.32,.04,.38,.2,.18,.66,.32,1.32,.4,1.99,.02,.16-.1,.32-.26,.34t-.04,.02Zm-26.1-.14h-.04c-.16-.02-.28-.18-.26-.34,.1-.68,.24-1.34,.42-1.99,.04-.16,.22-.24,.38-.2,.16,.04,.24,.22,.2,.38-.18,.62-.32,1.26-.4,1.91-.02,.14-.16,.24-.3,.24Zm23.35-6.4c-.08,0-.18-.04-.24-.12-.4-.5-.86-1-1.32-1.44-.12-.12-.12-.3-.02-.42,.12-.12,.3-.12,.42-.02,.5,.46,.96,.96,1.38,1.5,.1,.12,.08,.32-.04,.42-.04,.06-.1,.08-.18,.08Zm-20.54-.12c-.06,0-.14-.02-.18-.06-.12-.1-.14-.3-.04-.42,.42-.52,.9-1.02,1.4-1.48,.12-.12,.32-.1,.42,.02,.12,.12,.1,.32-.02,.42-.48,.44-.94,.92-1.34,1.42-.06,.06-.14,.1-.24,.1Zm17.97-2.35c-.06,0-.12-.02-.18-.06-.52-.38-1.08-.72-1.66-1.02-.14-.08-.2-.26-.12-.4s.26-.2,.4-.12c.6,.32,1.2,.68,1.74,1.08,.14,.1,.16,.28,.06,.42-.06,.06-.16,.1-.24,.1Zm-15.36-.1c-.1,0-.18-.04-.24-.12-.1-.14-.06-.32,.08-.42,.56-.4,1.14-.74,1.75-1.06,.14-.08,.32-.02,.4,.14,.08,.14,.02,.32-.14,.4-.58,.3-1.14,.64-1.68,1-.06,.04-.12,.06-.18,.06Zm12.18-1.6s-.06,0-.1-.02c-.6-.22-1.24-.4-1.87-.54-.16-.04-.26-.2-.24-.36,.04-.16,.2-.26,.36-.24,.66,.14,1.34,.32,1.95,.56,.16,.06,.24,.24,.18,.38-.04,.14-.16,.22-.28,.22Zm-8.99-.06c-.12,0-.24-.08-.28-.2-.06-.16,.02-.32,.18-.38,.64-.22,1.3-.42,1.97-.54,.16-.04,.32,.08,.36,.24s-.08,.32-.24,.36c-.64,.12-1.28,.3-1.87,.52h-.12Z"/><g><g><rect class="cls-5" x="15.05" y="12.19" width="4.95" height=".45"/><rect class="cls-5" x="13.18" y="12.22" width="1.24" height=".45"/></g><g><rect class="cls-5" x="15.05" y="13.61" width="4.95" height=".45"/><rect class="cls-5" x="13.18" y="13.64" width="1.24" height=".45"/></g><g><rect class="cls-5" x="15.05" y="15.13" width="4.95" height=".45"/><rect class="cls-5" x="13.18" y="15.16" width="1.24" height=".45"/></g><g><rect class="cls-5" x="15.05" y="16.83" width="4.95" height=".45"/><rect class="cls-5" x="13.18" y="16.86" width="1.24" height=".45"/></g><g><rect class="cls-5" x="15.05" y="18.35" width="4.95" height=".45"/><path class="cls-5" d="M13.48,18.37h.94v.45h-1.24v-.1c0-.18,.13-.35,.29-.35Z"/></g><path class="cls-5" d="M20.88,24.31H12.04c-.78,0-1.41-.77-1.41-1.7V10.51c0-.94,.64-1.7,1.41-1.7h8.84c.78,0,1.41,.77,1.41,1.7v12.09c0,.95-.64,1.72-1.41,1.72ZM12.04,9.37c-.52,0-.94,.51-.94,1.13v12.09c0,.62,.42,1.13,.94,1.13h8.84c.52,0,.94-.51,.94-1.13V10.51c0-.62-.42-1.13-.94-1.13H12.04Z"/><rect class="cls-5" x="15.05" y="19.77" width="2.31" height=".45"/><path class="cls-5" d="M14.04,19.52s.07-.01,.12-.01,.09,.01,.14,.03v.03l-.26,.5,.29,.54c-.07,.06-.13,.09-.19,.09-.07,0-.12-.03-.16-.11l-.12-.23-.15,.31s-.07,.01-.12,.01-.11-.01-.14-.03h-.01l.28-.55-.27-.5c.06-.06,.13-.07,.2-.07,.04,0,.06,.01,.08,.03,.02,.01,.05,.04,.06,.09l.09,.18,.15-.3Z"/><path class="cls-5" d="M18.33,8.78v-.57h-3.53v.57h-3.12v14.09h9.66V8.78h-3Zm2.53,13.53H12.15V9.34h8.72v12.97Z"/><g><path class="cls-5" d="M19.5,20.51l-.18,.99,.85-.06,.88-.92,2.07-2.18-.67-.94-2.96,3.11Z"/><path class="cls-5" d="M19.1,21.71l.24-1.33,3.13-3.31,.91,1.25-3.13,3.31-1.14,.09Z"/></g></g><g><circle class="cls-6" cx="4.6" cy="10.08" r="2.35"/><path class="cls-6" d="M4.6,12.87c-1.55,0-2.8-1.26-2.8-2.8s1.26-2.8,2.8-2.8,2.8,1.26,2.8,2.8-1.26,2.8-2.8,2.8Zm0-4.7c-1.04,0-1.91,.87-1.91,1.91s.87,1.91,1.91,1.91,1.91-.87,1.91-1.91-.87-1.91-1.91-1.91Z"/></g><g><circle class="cls-4" cx="13.98" cy="3.3" r="2.35"/><path class="cls-4" d="M13.98,6.09c-1.55,0-2.8-1.26-2.8-2.8S12.45,.5,13.98,.5s2.8,1.26,2.8,2.8-1.26,2.8-2.8,2.8Zm0-4.7c-1.04,0-1.91,.87-1.91,1.91s.87,1.91,1.91,1.91,1.91-.87,1.91-1.91-.87-1.91-1.91-1.91Z"/></g><g><circle class="cls-7" cx="26.96" cy="8.02" r="2.35"/><path class="cls-7" d="M26.96,10.81c-1.55,0-2.8-1.26-2.8-2.8s1.26-2.8,2.8-2.8,2.8,1.26,2.8,2.8-1.26,2.8-2.8,2.8Zm0-4.7c-1.04,0-1.91,.87-1.91,1.91s.87,1.91,1.91,1.91,1.91-.87,1.91-1.91-.87-1.91-1.91-1.91Z"/></g><g><circle class="cls-2" cx="27.85" cy="22.52" r="2.35"/><path class="cls-2" d="M27.85,25.32c-1.55,0-2.8-1.26-2.8-2.8s1.26-2.8,2.8-2.8,2.8,1.26,2.8,2.8-1.26,2.8-2.8,2.8Zm0-4.7c-1.04,0-1.91,.87-1.91,1.91s.87,1.91,1.91,1.91,1.91-.87,1.91-1.91-.87-1.91-1.91-1.91Z"/></g><g><circle class="cls-3" cx="15.76" cy="29.19" r="2.35"/><path class="cls-3" d="M15.76,31.99c-1.55,0-2.8-1.26-2.8-2.8s1.26-2.8,2.8-2.8,2.8,1.26,2.8,2.8-1.26,2.8-2.8,2.8Zm0-4.7c-1.04,0-1.91,.87-1.91,1.91s.87,1.91,1.91,1.91,1.91-.87,1.91-1.91-.87-1.91-1.91-1.91Z"/></g><g><circle class="cls-1" cx="4.34" cy="22.67" r="2.35"/><path class="cls-1" d="M4.34,25.46c-1.55,0-2.8-1.26-2.8-2.8s1.26-2.8,2.8-2.8,2.8,1.26,2.8,2.8-1.26,2.8-2.8,2.8Zm0-4.7c-1.04,0-1.91,.87-1.91,1.91s.87,1.91,1.91,1.91,1.91-.87,1.91-1.91-.87-1.91-1.91-1.91Z"/></g></svg>