<?xml version="1.0" encoding="UTF-8"?><svg id="logos" xmlns="http://www.w3.org/2000/svg" viewBox="0 0 32 32"><defs><style>.cls-1{fill:#55575a;}</style></defs><g><g><rect class="cls-1" x="12.12" y="13.76" width="9.81" height=".9"/><rect class="cls-1" x="8.43" y="13.82" width="2.45" height=".9"/></g><g><rect class="cls-1" x="12.12" y="17.14" width="9.81" height=".9"/><rect class="cls-1" x="8.43" y="17.2" width="2.45" height=".9"/></g><g><rect class="cls-1" x="12.12" y="20.15" width="9.81" height=".9"/><path class="cls-1" d="M9.02,20.18h1.87v.9h-2.45v-.2c0-.37,.26-.7,.58-.7Z"/></g><path class="cls-1" d="M23.69,31.97H6.17c-1.54,0-2.8-1.52-2.8-3.38V4.59c0-1.86,1.26-3.38,2.8-3.38H23.69c1.54,0,2.8,1.52,2.8,3.38V28.56c0,1.88-1.26,3.4-2.8,3.4ZM6.17,2.34c-1.03,0-1.87,1.01-1.87,2.25V28.56c0,1.24,.84,2.25,1.87,2.25H23.69c1.03,0,1.87-1.01,1.87-2.25V4.59c0-1.24-.84-2.25-1.87-2.25H6.17Z"/><rect class="cls-1" x="12.12" y="22.96" width="4.58" height=".9"/><path class="cls-1" d="M10.14,22.46c.07-.03,.14-.03,.23-.03s.19,.03,.28,.06l.02,.06-.54,.98,.58,1.07c-.14,.11-.26,.17-.37,.17-.14,0-.23-.06-.33-.23l-.23-.45-.3,.62s-.14,.03-.23,.03-.21-.03-.28-.06l-.02-.03,.56-1.07-.54-.98c.12-.11,.26-.14,.4-.14,.07,0,.12,.03,.16,.06,.05,.03,.09,.08,.12,.17l.19,.37,.3-.59Z"/><path class="cls-1" d="M18.64,1.16V.03h-7.01V1.16H5.44V29.1H24.6V1.16h-5.96Zm5.02,26.84H6.38V2.29H23.66V28Z"/><g><path class="cls-1" d="M20.95,24.43l-.35,1.97,1.68-.11,1.75-1.83,4.11-4.33-1.33-1.86-5.86,6.16Z"/><path class="cls-1" d="M20.16,26.82l.47-2.64,6.21-6.55,1.8,2.48-6.21,6.55-2.27,.17Z"/></g></g><g><path class="cls-1" d="M7.65,9.4c0-.4,.27-.68,.66-.68s.65,.28,.65,.68-.26,.68-.66,.68-.65-.29-.65-.68Z"/><path class="cls-1" d="M13.06,6.41c-.01,.23-.03,.53-.03,1.06v2c0,.69-.14,1.25-.54,1.61-.4,.34-.93,.44-1.46,.44-.47,0-.97-.1-1.29-.28l.22-.84c.23,.13,.62,.27,1.04,.27,.53,0,.93-.29,.93-.95v-.23h-.01c-.21,.3-.56,.47-.97,.47-.89,0-1.52-.72-1.52-1.75,0-1.15,.75-1.89,1.63-1.89,.49,0,.8,.21,.98,.51h.01l.04-.43h.97Zm-1.14,1.46c0-.07,0-.15-.02-.21-.08-.29-.29-.49-.6-.49-.4,0-.73,.37-.73,1.02,0,.54,.26,.95,.73,.95,.29,0,.51-.19,.59-.46,.03-.08,.04-.2,.04-.29v-.53Z"/><path class="cls-1" d="M17.47,8.16c0,1.31-.93,1.92-1.89,1.92-1.05,0-1.86-.69-1.86-1.85s.76-1.9,1.92-1.9,1.83,.76,1.83,1.83Zm-2.6,.04c0,.62,.26,1.08,.73,1.08,.43,0,.71-.43,.71-1.08,0-.54-.21-1.08-.71-1.08-.54,0-.73,.55-.73,1.08Z"/><path class="cls-1" d="M18.12,10c.01-.23,.03-.67,.03-1.07V4.79h1.12v2.05h.01c.21-.31,.59-.51,1.09-.51,.86,0,1.49,.71,1.48,1.81,0,1.29-.82,1.94-1.64,1.94-.42,0-.82-.15-1.08-.58h-.01l-.04,.5h-.95Zm1.15-1.53c0,.07,0,.14,.02,.2,.07,.3,.33,.53,.65,.53,.48,0,.77-.37,.77-1.01,0-.56-.25-1-.77-1-.3,0-.58,.23-.65,.55-.01,.07-.02,.13-.02,.21v.53Z"/></g></svg>