<?xml version="1.0" encoding="UTF-8"?><svg id="logos" xmlns="http://www.w3.org/2000/svg" viewBox="0 0 32 32"><defs><style>.cls-1{fill:#34b3eb;}.cls-2{fill:#55575a;}</style></defs><g><g><rect class="cls-2" x="26.66" y="14.57" width="1.11" height="1.11"/><rect class="cls-2" x="26.66" y="16.94" width="1.11" height="1.11"/><rect class="cls-2" x="26.66" y="19.3" width="1.11" height="1.11"/><rect class="cls-2" x="26.66" y="21.67" width="1.11" height="1.11"/><path class="cls-2" d="M26.66,24.96h.73s.03,0,.05,0h.33v-1.11h-1.11v1.11Z"/><rect class="cls-2" x="26.66" y="26.21" width="1.11" height="1.11"/></g><g><rect class="cls-2" x="4.3" y="14.57" width="1.11" height="1.11"/><rect class="cls-2" x="4.3" y="16.94" width="1.11" height="1.11"/><rect class="cls-2" x="4.3" y="19.3" width="1.11" height="1.11"/><rect class="cls-2" x="4.3" y="21.67" width="1.11" height="1.11"/><path class="cls-2" d="M4.3,24.96h.33s.03,0,.05,0l.18,.04,.26-.05h.29v-1.11h-1.11v1.11Z"/><path class="cls-2" d="M4.3,27.33h1.11v-1.11h-1.11v1.11Z"/></g><path class="cls-2" d="M30.39,28.47h-.89v-.52c0-.1,0-.2,0-.3,0-.3,0-.6,0-.9,0-.1,0-.2,0-.3,0-.3,0-.6,0-.9,0-.1,0-.2,0-.3,0-.3,0-.6,0-.9,0-.1,0-.2,0-.3,0-.3,0-.6,0-.9,0-.1,0-.2,0-.3,0-.3,0-.6,0-.9,0-.1,0-.2,0-.3v-.9s0-.1,0-.15c0-2.19,0-4.38,0-6.57,0-.35-.13-.55-.45-.68-.99-.43-1.98-.89-2.97-1.32-.2-.09-.25-.2-.25-.4,.01-.8,0-1.59,0-2.39,0-.39-.09-.51-.46-.62-.26-.08-.51-.15-.77-.23-2.59-.76-5.19-1.53-7.78-2.27-.25-.07-.31-.19-.31-.44,.01-.84,0-1.67,0-2.51,0-.49-.27-.69-.74-.55-3.01,.88-6.03,1.77-9.04,2.65-.36,.11-.48,.27-.48,.65,0,.79,0,1.57,0,2.36,0,1.14,0,2.27,0,3.41,0,.13,.02,.24-.14,.32-1,.44-1.99,.9-3,1.33-.43,.19-.46,.2-.46,.67,0,.89,0,1.77,0,2.66,0,1.4,0,2.81-.01,4.21v.29c0,.1,0,.2,0,.3,0,.3,0,.6,0,.89,0,.1,0,.2,0,.3,0,.3,0,.6,0,.89,0,.1,0,.2,0,.3,0,.3,0,.6,0,.89,0,.1,0,.2,0,.3,0,.3,0,.6,0,.89,0,.1,0,.2,0,.3,0,.7,0,1.39,0,2.09l-.1,.1c-.3,0-.6,0-.89,.02-.28,.01-.43,.18-.43,.46,0,.31,.17,.45,.54,.45,1.76,0,3.52,.01,5.29,.01,3.34,0,6.67,0,10.01,0,4.4,0,8.8,0,13.2-.01,.33,0,.5-.13,.54-.39,.04-.26-.09-.43-.4-.54Zm-24.21,0c-.34,0-.67,0-1.01,0-.06,0-.13,0-.19,0-.34,0-.67,0-1.01,0-.06,0-.13,0-.19,0h-.21v-7.1c0-.34,0-.67,0-1.01,0-.1,0-.2,0-.3,0-.3,0-.59,0-.89v-5.03c.85-.38,1.72-.76,2.59-1.14l.06-.03v.04c.01,.34,.01,.68,.01,1.02,0,.1,0,.2,0,.3,0,.3,0,.6,0,.9,0,.1,0,.2,0,.3,0,.3,0,.6,0,.9,0,.1,0,.2,0,.3,0,.3,0,.6,0,.9,0,.1,0,.2,0,.3,0,.3,0,.6,0,.9,0,.1,0,.2,0,.3,0,.3,0,.6,0,.9,0,.1,0,.2,0,.3,0,.3,0,.6,0,.9,0,.1,0,.2,0,.3,0,.3,0,.6,0,.9,0,.1,0,.2,0,.3,0,.3,0,.6,0,.9,0,.1,0,.2,0,.3,0,.3,0,.6,0,.9,0,.1,0,.2,0,.3,0,.3,0,.6,0,.9,0,.1,0,.2,0,.3-.01,.28-.03,.57-.04,.85,0,.04,.01,.07,.02,.11l.02,.24c-.01,.28-.03,.57-.04,.85,.02,.03,.04,.06,.05,.1,0,0-.05,.03-.07,.04Zm22.34-.51v.51h-2.66v-.46c0-.1,0-.2,0-.3,0-.3,0-.6,0-.9,0-.1,0-.2,0-.3,0-.3,0-.6,0-.9,0-.1,0-.2,0-.3,0-.3,0-.6,0-.9,0-.1,0-.2,0-.3,0-.3,0-.6,0-.9,0-.1,0-.2,0-.3,.01-.32,.03-.63,.04-.95l-.04-.25c0-.3,0-.6,0-.9,0-.1,0-.2,0-.3,0-.3,0-.6,0-.9,0-.1,0-.2,0-.3,0-.3,0-.6,0-.9,0-.1,0-.2,0-.3,0-.3,0-.6,0-.9,0-.1,0-.2,0-.3,0-.3,0-.6,0-.9,0-.1,0-.2,0-.3,0-.3,0-.6,0-.9,0-.1,0-.2,0-.3,0-.3,0-.6,0-.9v-.72c.17,.09,.32,.16,.48,.24,.22,.1,.44,.2,.66,.29l.26,.12c.17,.08,.35,.15,.52,.23,.1,.05,.2,.09,.3,.14,.07,.03,.15,.06,.22,.08,.21,.06,.28,.19,.23,.4,0,.04,0,.09,0,.13,0,.08,0,.16,0,.24,0,.3,0,.6,0,.89,0,.1,0,.2,0,.3,0,.3,0,.6,0,.89,0,.1,0,.2,0,.3,0,.28,0,.55,0,.83,0,.04,0,.09,0,.13v.24c0,.3,0,.6,0,.89,0,.1,0,.2,0,.3,0,.3,0,.6,0,.89,0,.1,0,.2,0,.3,0,.3,0,.6,0,.89,0,.1,0,.2,0,.3,0,.3,0,.6,0,.89,0,.1,0,.2,0,.3,0,.3,0,.6,0,.89,0,.1,0,.2,0,.3,0,.28,0,.55,0,.83,0,.04,0,.09,0,.13v.24c0,.28,0,.55,0,.83,0,.12,0,.25,0,.37,0,.28,0,.55,0,.83,0,.12,0,.25,0,.37Z"/></g><path class="cls-1" d="M16.37,27.39c-1.35,0-2.21-.98-2.21-2.21,0-1.35,.98-2.21,2.21-2.21,1.35,0,2.21,.98,2.21,2.21,.12,1.23-.86,2.21-2.21,2.21h0Zm-1.35-5.77l-.49-11.3h3.93l-.49,11.3h-2.95Z"/></svg>