<?xml version="1.0" encoding="UTF-8"?><svg id="logos" xmlns="http://www.w3.org/2000/svg" viewBox="0 0 32 32"><defs><style>.cls-1{fill:#55575a;}</style></defs><path class="cls-1" d="M15.14,29.19h-.02c-.66-.04-1.32-.14-1.96-.29-.16-.04-.25-.19-.21-.35,.04-.16,.19-.25,.35-.21,.62,.14,1.24,.23,1.89,.27,.16,.02,.29,.16,.27,.31-.02,.16-.16,.27-.31,.27Zm5-.66c-.12,0-.23-.08-.27-.19-.06-.16,.04-.31,.18-.37,.6-.19,1.19-.45,1.75-.74,.14-.08,.31-.02,.39,.12,.08,.14,.02,.31-.12,.39-.58,.31-1.21,.56-1.83,.78-.04,.02-.06,.02-.1,.02Zm-8.42-.06s-.06,0-.1-.02c-.62-.21-1.24-.49-1.83-.8-.14-.08-.19-.25-.12-.39s.25-.19,.39-.12c.56,.29,1.15,.56,1.73,.78,.16,.06,.23,.21,.18,.37-.02,.1-.12,.18-.25,.18Zm11.55-1.5c-.1,0-.18-.04-.23-.14-.1-.14-.06-.31,.08-.41,.53-.35,1.01-.76,1.48-1.19,.12-.12,.31-.1,.41,.02,.12,.12,.1,.31-.02,.41-.49,.45-1.01,.88-1.56,1.24-.04,.04-.1,.06-.16,.06Zm-14.65-.1c-.06,0-.12-.02-.18-.06-.54-.39-1.05-.82-1.54-1.26-.12-.12-.12-.29,0-.41s.29-.12,.41,0c.45,.45,.95,.86,1.46,1.21,.14,.1,.16,.27,.08,.41-.06,.06-.16,.12-.23,.12Zm20.09-8.56h-.04c-.16-.02-.27-.18-.25-.33,.1-.62,.14-1.26,.14-1.91v-.04c0-.16,.14-.29,.29-.29s.29,.14,.29,.29v.04c0,.66-.06,1.32-.16,1.98-.02,.14-.14,.25-.27,.25Zm-25.42-.18c-.14,0-.27-.1-.29-.25-.08-.6-.12-1.21-.12-1.81v-.18c0-.16,.14-.29,.29-.29s.29,.14,.29,.29v.18c0,.58,.04,1.17,.12,1.73,.02,.16-.1,.31-.25,.33h-.04Zm25.46-3.37c-.14,0-.27-.12-.29-.25-.08-.62-.19-1.26-.37-1.87-.04-.16,.04-.31,.19-.37,.16-.04,.31,.04,.37,.19,.18,.64,.31,1.28,.39,1.95,.02,.16-.1,.31-.25,.33t-.04,.02Zm-25.46-.14h-.04c-.16-.02-.27-.18-.25-.33,.1-.66,.23-1.3,.41-1.95,.04-.16,.21-.23,.37-.19,.16,.04,.23,.21,.19,.37-.18,.6-.31,1.23-.39,1.87-.02,.14-.16,.23-.29,.23Zm22.78-6.24c-.08,0-.18-.04-.23-.12-.39-.49-.84-.97-1.28-1.4-.12-.12-.12-.29-.02-.41,.12-.12,.29-.12,.41-.02,.49,.45,.93,.93,1.34,1.46,.1,.12,.08,.31-.04,.41-.04,.06-.1,.08-.18,.08Zm-20.04-.12c-.06,0-.14-.02-.18-.06-.12-.1-.14-.29-.04-.41,.41-.51,.88-.99,1.36-1.44,.12-.12,.31-.1,.41,.02,.12,.12,.1,.31-.02,.41-.47,.43-.91,.89-1.3,1.38-.06,.06-.14,.1-.23,.1Zm17.53-2.3c-.06,0-.12-.02-.18-.06-.51-.37-1.05-.7-1.61-.99-.14-.08-.19-.25-.12-.39s.25-.19,.39-.12c.58,.31,1.17,.66,1.69,1.05,.14,.1,.16,.27,.06,.41-.06,.06-.16,.1-.23,.1Zm-14.98-.1c-.1,0-.18-.04-.23-.12-.1-.14-.06-.31,.08-.41,.54-.39,1.11-.72,1.71-1.03,.14-.08,.31-.02,.39,.14,.08,.14,.02,.31-.14,.39-.56,.29-1.11,.62-1.63,.97-.06,.04-.12,.06-.18,.06Zm11.88-1.56s-.06,0-.1-.02c-.58-.21-1.21-.39-1.83-.53-.16-.04-.25-.19-.23-.35,.04-.16,.19-.25,.35-.23,.64,.14,1.3,.31,1.91,.54,.16,.06,.23,.23,.18,.37-.04,.14-.16,.21-.27,.21Zm-8.77-.06c-.12,0-.23-.08-.27-.19-.06-.16,.02-.31,.18-.37,.62-.21,1.26-.41,1.93-.53,.16-.04,.31,.08,.35,.23s-.08,.31-.23,.35c-.62,.12-1.24,.29-1.83,.51h-.12Z"/><g><g><rect class="cls-1" x="14.97" y="12.05" width="4.83" height=".44"/><rect class="cls-1" x="13.16" y="12.08" width="1.21" height=".44"/></g><g><rect class="cls-1" x="14.97" y="13.43" width="4.83" height=".44"/><rect class="cls-1" x="13.16" y="13.46" width="1.21" height=".44"/></g><g><rect class="cls-1" x="14.97" y="14.91" width="4.83" height=".44"/><rect class="cls-1" x="13.16" y="14.94" width="1.21" height=".44"/></g><g><rect class="cls-1" x="14.97" y="16.58" width="4.83" height=".44"/><rect class="cls-1" x="13.16" y="16.6" width="1.21" height=".44"/></g><g><rect class="cls-1" x="14.97" y="18.06" width="4.83" height=".44"/><path class="cls-1" d="M13.44,18.07h.92v.44h-1.21v-.1c0-.18,.13-.35,.29-.35Z"/></g><path class="cls-1" d="M20.66,23.87H12.04c-.76,0-1.38-.75-1.38-1.66V10.4c0-.91,.62-1.66,1.38-1.66h8.62c.76,0,1.38,.75,1.38,1.66v11.79c0,.93-.62,1.67-1.38,1.67ZM12.04,9.3c-.51,0-.92,.5-.92,1.11v11.79c0,.61,.41,1.11,.92,1.11h8.62c.51,0,.92-.5,.92-1.11V10.4c0-.61-.41-1.11-.92-1.11H12.04Z"/><rect class="cls-1" x="14.97" y="19.44" width="2.25" height=".44"/><path class="cls-1" d="M14,19.19s.07-.01,.11-.01,.09,.01,.14,.03v.03l-.25,.48,.29,.53c-.07,.06-.13,.08-.18,.08-.07,0-.11-.03-.16-.11l-.11-.22-.15,.3s-.07,.01-.11,.01-.1-.01-.14-.03h-.01l.28-.54-.26-.48c.06-.06,.13-.07,.2-.07,.03,0,.06,.01,.08,.03,.02,.01,.05,.04,.06,.08l.09,.18,.15-.29Z"/><path class="cls-1" d="M18.18,8.72v-.55h-3.45v.55h-3.04v13.74h9.42V8.72h-2.93Zm2.47,13.2H12.15V9.27h8.5v12.65Z"/><g><path class="cls-1" d="M19.32,20.16l-.17,.97,.83-.06,.86-.9,2.02-2.13-.65-.91-2.88,3.03Z"/><path class="cls-1" d="M18.93,21.34l.23-1.3,3.06-3.22,.88,1.22-3.06,3.22-1.11,.08Z"/></g></g><g><circle class="cls-1" cx="4.79" cy="9.99" r="2.29"/><path class="cls-1" d="M4.79,12.71c-1.51,0-2.73-1.23-2.73-2.73s1.23-2.73,2.73-2.73,2.73,1.23,2.73,2.73-1.23,2.73-2.73,2.73Zm0-4.59c-1.02,0-1.86,.84-1.86,1.86s.84,1.86,1.86,1.86,1.86-.84,1.86-1.86-.84-1.86-1.86-1.86Z"/></g><g><circle class="cls-1" cx="13.93" cy="3.37" r="2.29"/><path class="cls-1" d="M13.93,6.1c-1.51,0-2.73-1.23-2.73-2.73s1.23-2.73,2.73-2.73,2.73,1.23,2.73,2.73-1.23,2.73-2.73,2.73Zm0-4.59c-1.02,0-1.86,.84-1.86,1.86s.84,1.86,1.86,1.86,1.86-.84,1.86-1.86-.84-1.86-1.86-1.86Z"/></g><g><circle class="cls-1" cx="26.6" cy="7.98" r="2.29"/><path class="cls-1" d="M26.6,10.7c-1.51,0-2.73-1.23-2.73-2.73s1.23-2.73,2.73-2.73,2.73,1.23,2.73,2.73-1.23,2.73-2.73,2.73Zm0-4.59c-1.02,0-1.86,.84-1.86,1.86s.84,1.86,1.86,1.86,1.86-.84,1.86-1.86-.84-1.86-1.86-1.86Z"/></g><g><circle class="cls-1" cx="27.47" cy="22.13" r="2.29"/><path class="cls-1" d="M27.47,24.85c-1.51,0-2.73-1.23-2.73-2.73s1.23-2.73,2.73-2.73,2.73,1.23,2.73,2.73-1.23,2.73-2.73,2.73Zm0-4.59c-1.02,0-1.86,.84-1.86,1.86s.84,1.86,1.86,1.86,1.86-.84,1.86-1.86-.84-1.86-1.86-1.86Z"/></g><g><circle class="cls-1" cx="15.67" cy="28.63" r="2.29"/><path class="cls-1" d="M15.67,31.36c-1.51,0-2.73-1.23-2.73-2.73s1.23-2.73,2.73-2.73,2.73,1.23,2.73,2.73-1.23,2.73-2.73,2.73Zm0-4.59c-1.02,0-1.86,.84-1.86,1.86s.84,1.86,1.86,1.86,1.86-.84,1.86-1.86-.84-1.86-1.86-1.86Z"/></g><g><circle class="cls-1" cx="4.53" cy="22.26" r="2.29"/><path class="cls-1" d="M4.53,24.99c-1.51,0-2.73-1.23-2.73-2.73s1.23-2.73,2.73-2.73,2.73,1.23,2.73,2.73-1.23,2.73-2.73,2.73Zm0-4.59c-1.02,0-1.86,.84-1.86,1.86s.84,1.86,1.86,1.86,1.86-.84,1.86-1.86-.84-1.86-1.86-1.86Z"/></g></svg>