<?xml version="1.0" encoding="UTF-8"?><svg id="logos" xmlns="http://www.w3.org/2000/svg" viewBox="0 0 32 32"><defs><style>.cls-1{fill:#8dd9f6;}.cls-2{fill:#a9d68f;}.cls-3{fill:#65dcca;}.cls-4{fill:#e7a2e3;}.cls-5{fill:#55575a;}.cls-6{fill:#f9bfb4;}.cls-7{fill:#b8aef9;}</style></defs><path class="cls-5" d="M15.15,29.55h-.02c-.68-.04-1.36-.14-2.03-.3-.16-.04-.26-.2-.22-.36,.04-.16,.2-.26,.36-.22,.64,.14,1.28,.24,1.95,.28,.16,.02,.3,.16,.28,.32-.02,.16-.16,.28-.32,.28Zm5.15-.68c-.12,0-.24-.08-.28-.2-.06-.16,.04-.32,.18-.38,.62-.2,1.22-.46,1.8-.76,.14-.08,.32-.02,.4,.12,.08,.14,.02,.32-.12,.4-.6,.32-1.24,.58-1.89,.8-.04,.02-.06,.02-.1,.02Zm-8.68-.06s-.06,0-.1-.02c-.64-.22-1.28-.5-1.89-.82-.14-.08-.2-.26-.12-.4s.26-.2,.4-.12c.58,.3,1.18,.58,1.78,.8,.16,.06,.24,.22,.18,.38-.02,.1-.12,.18-.26,.18Zm11.91-1.54c-.1,0-.18-.04-.24-.14-.1-.14-.06-.32,.08-.42,.54-.36,1.04-.78,1.52-1.22,.12-.12,.32-.1,.42,.02,.12,.12,.1,.32-.02,.42-.5,.46-1.04,.9-1.6,1.28-.04,.04-.1,.06-.16,.06Zm-15.1-.1c-.06,0-.12-.02-.18-.06-.56-.4-1.08-.84-1.58-1.3-.12-.12-.12-.3,0-.42s.3-.12,.42,0c.46,.46,.98,.88,1.5,1.24,.14,.1,.16,.28,.08,.42-.06,.06-.16,.12-.24,.12Zm20.72-8.82h-.04c-.16-.02-.28-.18-.26-.34,.1-.64,.14-1.3,.14-1.97v-.04c0-.16,.14-.3,.3-.3s.3,.14,.3,.3v.04c0,.68-.06,1.36-.16,2.05-.02,.14-.14,.26-.28,.26Zm-26.21-.18c-.14,0-.28-.1-.3-.26-.08-.62-.12-1.24-.12-1.86v-.18c0-.16,.14-.3,.3-.3s.3,.14,.3,.3v.18c0,.6,.04,1.2,.12,1.78,.02,.16-.1,.32-.26,.34h-.04Zm26.25-3.47c-.14,0-.28-.12-.3-.26-.08-.64-.2-1.3-.38-1.93-.04-.16,.04-.32,.2-.38,.16-.04,.32,.04,.38,.2,.18,.66,.32,1.32,.4,2.01,.02,.16-.1,.32-.26,.34t-.04,.02Zm-26.25-.14h-.04c-.16-.02-.28-.18-.26-.34,.1-.68,.24-1.34,.42-2.01,.04-.16,.22-.24,.38-.2,.16,.04,.24,.22,.2,.38-.18,.62-.32,1.26-.4,1.93-.02,.14-.16,.24-.3,.24Zm23.48-6.44c-.08,0-.18-.04-.24-.12-.4-.5-.86-1-1.32-1.44-.12-.12-.12-.3-.02-.42,.12-.12,.3-.12,.42-.02,.5,.46,.96,.96,1.38,1.5,.1,.12,.08,.32-.04,.42-.04,.06-.1,.08-.18,.08Zm-20.66-.12c-.06,0-.14-.02-.18-.06-.12-.1-.14-.3-.04-.42,.42-.52,.9-1.02,1.4-1.48,.12-.12,.32-.1,.42,.02,.12,.12,.1,.32-.02,.42-.48,.44-.94,.92-1.34,1.42-.06,.06-.14,.1-.24,.1Zm18.07-2.37c-.06,0-.12-.02-.18-.06-.52-.38-1.08-.72-1.66-1.02-.14-.08-.2-.26-.12-.4s.26-.2,.4-.12c.6,.32,1.2,.68,1.74,1.08,.14,.1,.16,.28,.06,.42-.06,.06-.16,.1-.24,.1Zm-15.44-.1c-.1,0-.18-.04-.24-.12-.1-.14-.06-.32,.08-.42,.56-.4,1.14-.74,1.76-1.06,.14-.08,.32-.02,.4,.14,.08,.14,.02,.32-.14,.4-.58,.3-1.14,.64-1.68,1-.06,.04-.12,.06-.18,.06Zm12.25-1.6s-.06,0-.1-.02c-.6-.22-1.24-.4-1.89-.54-.16-.04-.26-.2-.24-.36,.04-.16,.2-.26,.36-.24,.66,.14,1.34,.32,1.97,.56,.16,.06,.24,.24,.18,.38-.04,.14-.16,.22-.28,.22Zm-9.04-.06c-.12,0-.24-.08-.28-.2-.06-.16,.02-.32,.18-.38,.64-.22,1.3-.42,1.99-.54,.16-.04,.32,.08,.36,.24s-.08,.32-.24,.36c-.64,.12-1.28,.3-1.89,.52h-.12Z"/><g><g><circle class="cls-4" cx="3.99" cy="20.68" r="1.4"/><path class="cls-4" d="M3.99,22.35c-.92,0-1.66-.74-1.66-1.66s.74-1.66,1.66-1.66,1.66,.74,1.66,1.66-.74,1.66-1.66,1.66Zm0-2.79c-.62,0-1.12,.5-1.12,1.12s.5,1.12,1.12,1.12,1.12-.5,1.12-1.12-.5-1.12-1.12-1.12Z"/></g><g><path class="cls-4" d="M6.48,24.33v-.12h0c0-1.06-.88-1.95-1.95-1.95h-1.22c-1.06,0-1.95,.88-1.95,1.95h0v.12H6.48Z"/><path class="cls-4" d="M6.74,24.59H1.14l-.02-.24v-.14c0-1.22,.98-2.21,2.21-2.21h1.22c1.22,0,2.21,.98,2.21,2.21v.14l-.02,.24Zm-5.07-.52H6.22c-.08-.86-.78-1.54-1.66-1.54h-1.22c-.88,0-1.6,.68-1.66,1.54Z"/></g></g><g><g><circle class="cls-7" cx="17.48" cy="27.97" r="1.4"/><path class="cls-7" d="M17.48,29.64c-.92,0-1.66-.74-1.66-1.66s.74-1.66,1.66-1.66,1.66,.74,1.66,1.66-.74,1.66-1.66,1.66Zm0-2.79c-.62,0-1.12,.5-1.12,1.12s.5,1.12,1.12,1.12,1.12-.5,1.12-1.12-.5-1.12-1.12-1.12Z"/></g><g><path class="cls-7" d="M19.96,31.62v-.12h0c0-1.06-.88-1.95-1.95-1.95h-1.22c-1.06,0-1.95,.88-1.95,1.95h0v.12h5.11Z"/><path class="cls-7" d="M20.22,31.88h-5.59l-.02-.24v-.14c0-1.22,.98-2.21,2.21-2.21h1.22c1.22,0,2.21,.98,2.21,2.21v.14l-.02,.24Zm-5.07-.52h4.55c-.08-.86-.78-1.54-1.66-1.54h-1.22c-.88,0-1.6,.68-1.66,1.54Z"/></g></g><g><g><circle class="cls-1" cx="16.2" cy="1.69" r="1.4"/><path class="cls-1" d="M16.2,3.35c-.92,0-1.66-.74-1.66-1.66S15.27,.03,16.2,.03s1.66,.74,1.66,1.66-.74,1.66-1.66,1.66Zm0-2.79c-.62,0-1.12,.5-1.12,1.12s.5,1.12,1.12,1.12,1.12-.5,1.12-1.12-.5-1.12-1.12-1.12Z"/></g><g><path class="cls-1" d="M18.68,5.34v-.12h0c0-1.06-.88-1.95-1.95-1.95h-1.22c-1.06,0-1.95,.88-1.95,1.95h0v.12h5.11Z"/><path class="cls-1" d="M18.94,5.6h-5.59l-.02-.24v-.14c0-1.22,.98-2.21,2.21-2.21h1.22c1.22,0,2.21,.98,2.21,2.21v.14l-.02,.24Zm-5.07-.52h4.55c-.08-.86-.78-1.54-1.66-1.54h-1.22c-.88,0-1.6,.68-1.66,1.54Z"/></g></g><g><g><circle class="cls-2" cx="28.14" cy="21.21" r="1.4"/><path class="cls-2" d="M28.14,22.88c-.92,0-1.66-.74-1.66-1.66s.74-1.66,1.66-1.66,1.66,.74,1.66,1.66-.74,1.66-1.66,1.66Zm0-2.79c-.62,0-1.12,.5-1.12,1.12s.5,1.12,1.12,1.12,1.12-.5,1.12-1.12-.5-1.12-1.12-1.12Z"/></g><g><path class="cls-2" d="M30.62,24.86v-.12h0c0-1.06-.88-1.95-1.95-1.95h-1.22c-1.06,0-1.95,.88-1.95,1.95h0v.12h5.11Z"/><path class="cls-2" d="M30.88,25.12h-5.59l-.02-.24v-.14c0-1.22,.98-2.21,2.21-2.21h1.22c1.22,0,2.21,.98,2.21,2.21v.14l-.02,.24Zm-5.07-.52h4.55c-.08-.86-.78-1.54-1.66-1.54h-1.22c-.88,0-1.6,.68-1.66,1.54Z"/></g></g><g><g><circle class="cls-6" cx="4.2" cy="8.4" r="1.4"/><path class="cls-6" d="M4.2,10.07c-.92,0-1.66-.74-1.66-1.66s.74-1.66,1.66-1.66,1.66,.74,1.66,1.66-.74,1.66-1.66,1.66Zm0-2.79c-.62,0-1.12,.5-1.12,1.12s.5,1.12,1.12,1.12,1.12-.5,1.12-1.12-.5-1.12-1.12-1.12Z"/></g><g><path class="cls-6" d="M6.69,12.05v-.12h0c0-1.06-.88-1.95-1.95-1.95h-1.22c-1.06,0-1.95,.88-1.95,1.95h0v.12H6.69Z"/><path class="cls-6" d="M6.95,12.32H1.36l-.02-.24v-.14c0-1.22,.98-2.21,2.21-2.21h1.22c1.22,0,2.21,.98,2.21,2.21v.14l-.02,.24Zm-5.07-.52H6.43c-.08-.86-.78-1.54-1.66-1.54h-1.22c-.88,0-1.6,.68-1.66,1.54Z"/></g></g><g><g><circle class="cls-3" cx="28.14" cy="8.21" r="1.4"/><path class="cls-3" d="M28.14,9.87c-.92,0-1.66-.74-1.66-1.66s.74-1.66,1.66-1.66,1.66,.74,1.66,1.66-.74,1.66-1.66,1.66Zm0-2.79c-.62,0-1.12,.5-1.12,1.12s.5,1.12,1.12,1.12,1.12-.5,1.12-1.12-.5-1.12-1.12-1.12Z"/></g><g><path class="cls-3" d="M30.62,11.86v-.12h0c0-1.06-.88-1.95-1.95-1.95h-1.22c-1.06,0-1.95,.88-1.95,1.95h0v.12h5.11Z"/><path class="cls-3" d="M30.88,12.12h-5.59l-.02-.24v-.14c0-1.22,.98-2.21,2.21-2.21h1.22c1.22,0,2.21,.98,2.21,2.21v.14l-.02,.24Zm-5.07-.52h4.55c-.08-.86-.78-1.54-1.66-1.54h-1.22c-.88,0-1.6,.68-1.66,1.54Z"/></g></g><g><g><rect class="cls-5" x="14.97" y="11.88" width="4.98" height=".46"/><rect class="cls-5" x="13.1" y="11.91" width="1.24" height=".46"/></g><g><rect class="cls-5" x="14.97" y="13.31" width="4.98" height=".46"/><rect class="cls-5" x="13.1" y="13.34" width="1.24" height=".46"/></g><g><rect class="cls-5" x="14.97" y="14.83" width="4.98" height=".46"/><rect class="cls-5" x="13.1" y="14.86" width="1.24" height=".46"/></g><g><rect class="cls-5" x="14.97" y="16.55" width="4.98" height=".46"/><rect class="cls-5" x="13.1" y="16.58" width="1.24" height=".46"/></g><g><rect class="cls-5" x="14.97" y="18.07" width="4.98" height=".46"/><path class="cls-5" d="M13.4,18.09h.95v.46h-1.24v-.1c0-.19,.13-.36,.3-.36Z"/></g><path class="cls-5" d="M20.84,24.06H11.95c-.78,0-1.42-.77-1.42-1.71V10.18c0-.94,.64-1.71,1.42-1.71h8.88c.78,0,1.42,.77,1.42,1.71v12.15c0,.96-.64,1.73-1.42,1.73ZM11.95,9.04c-.52,0-.95,.51-.95,1.14v12.15c0,.63,.43,1.14,.95,1.14h8.88c.52,0,.95-.51,.95-1.14V10.18c0-.63-.43-1.14-.95-1.14H11.95Z"/><rect class="cls-5" x="14.97" y="19.5" width="2.32" height=".46"/><path class="cls-5" d="M13.97,19.24s.07-.01,.12-.01,.09,.01,.14,.03v.03l-.26,.5,.3,.54c-.07,.06-.13,.09-.19,.09-.07,0-.12-.03-.17-.11l-.12-.23-.15,.31s-.07,.01-.12,.01-.11-.01-.14-.03h-.01l.28-.56-.27-.5c.06-.06,.13-.07,.2-.07,.04,0,.06,.01,.08,.03,.02,.01,.05,.04,.06,.09l.09,.19,.15-.3Z"/><path class="cls-5" d="M18.28,8.44v-.57h-3.55v.57h-3.14v14.17h9.71V8.44h-3.02Zm2.55,13.61H12.06V9.01h8.77v13.04Z"/><g><path class="cls-5" d="M19.45,20.24l-.18,1,.85-.06,.89-.93,2.08-2.2-.68-.94-2.97,3.12Z"/><path class="cls-5" d="M19.05,21.45l.24-1.34,3.15-3.32,.91,1.26-3.15,3.32-1.15,.09Z"/></g></g></svg>