<?xml version="1.0" encoding="UTF-8"?><svg id="Capa_2" xmlns="http://www.w3.org/2000/svg" viewBox="0 0 32.62 26.49"><defs><style>.cls-1{fill:#a0b0c7;}</style></defs><g id="Capa_1-2"><path class="cls-1" d="m29.26,6.6c.02.29.02.58.02.87,0,8.84-6.73,19.02-19.02,19.02-3.79,0-7.31-1.1-10.27-3,.54.06,1.06.08,1.61.08,3.13,0,6-1.06,8.3-2.86-2.94-.06-5.4-1.99-6.25-4.64.41.06.83.1,1.26.1.6,0,1.2-.08,1.76-.23-3.06-.62-5.36-3.31-5.36-6.56v-.08c.89.5,1.92.81,3.02.85-1.8-1.2-2.98-3.25-2.98-5.57,0-1.24.33-2.38.91-3.37,3.29,4.06,8.24,6.71,13.78,7-.1-.5-.17-1.01-.17-1.53,0-3.68,2.98-6.68,6.68-6.68,1.92,0,3.66.81,4.88,2.11,1.51-.29,2.96-.85,4.24-1.61-.5,1.55-1.55,2.86-2.94,3.68,1.35-.14,2.65-.52,3.85-1.03-.91,1.32-2.05,2.5-3.35,3.46h0Z"/></g></svg>