<?xml version="1.0" encoding="UTF-8"?><svg id="Capa_2" xmlns="http://www.w3.org/2000/svg" viewBox="0 0 34.79 24.46"><defs><style>.cls-1{fill:#a0b0c7;}</style></defs><g id="Capa_1-2"><path class="cls-1" d="m34.06,3.83c-.4-1.51-1.58-2.69-3.08-3.1-2.71-.73-13.59-.73-13.59-.73,0,0-10.88,0-13.59.73-1.5.4-2.68,1.59-3.08,3.1-.73,2.73-.73,8.43-.73,8.43,0,0,0,5.7.73,8.43.4,1.51,1.58,2.64,3.08,3.05,2.71.73,13.59.73,13.59.73,0,0,10.88,0,13.59-.73,1.5-.4,2.68-1.54,3.08-3.05.73-2.73.73-8.43.73-8.43,0,0,0-5.7-.73-8.43Zm-20.23,13.6V7.08l9.09,5.17-9.09,5.17h0Z"/></g></svg>