<?xml version="1.0" encoding="UTF-8"?><svg id="Capa_2" xmlns="http://www.w3.org/2000/svg" viewBox="0 0 28.54 28.54"><defs><style>.cls-1{fill:#a0b0c7;}</style></defs><g id="Capa_1-2"><path class="cls-1" d="m25.48,0H3.06C1.37,0,0,1.37,0,3.06v22.42c0,1.69,1.37,3.06,3.06,3.06h8.74v-9.7h-4.01v-4.57h4.01v-3.48c0-3.96,2.36-6.15,5.97-6.15,1.73,0,3.54.31,3.54.31v3.89h-1.99c-1.96,0-2.57,1.22-2.57,2.47v2.97h4.38l-.7,4.57h-3.68v9.7h8.74c1.69,0,3.06-1.37,3.06-3.06V3.06c0-1.69-1.37-3.06-3.06-3.06Z"/></g></svg>