<svg xmlns="http://www.w3.org/2000/svg" viewBox="0 0 32 32"><defs><style>.cls-1{fill:#a0b0c7;}</style></defs><g id="logos"><g id="ico_youtube"><path class="cls-1" d="M30.82,6a4.75,4.75,0,0,0-2.74-3.68C25.67,1.44,16,1.44,16,1.44s-9.67,0-12.08.87A4.75,4.75,0,0,0,1.18,6,72.48,72.48,0,0,0,.53,16a72.48,72.48,0,0,0,.65,10,4.64,4.64,0,0,0,2.74,3.62c2.41.87,12.08.87,12.08.87s9.67,0,12.08-.87a4.64,4.64,0,0,0,2.74-3.62,72.48,72.48,0,0,0,.65-10A72.48,72.48,0,0,0,30.82,6Zm-18,16.2V9.87L20.92,16l-8.08,6.16Z"/></g></g></svg>