<?xml version="1.0" encoding="UTF-8"?><svg id="Capa_1" xmlns="http://www.w3.org/2000/svg" xmlns:xlink="http://www.w3.org/1999/xlink" viewBox="0 0 64 64"><defs><style>.cls-1{fill:#6d4162;}.cls-2{fill:#f4d3d3;}.cls-3{fill:none;}</style><clipPath id="clippath"><rect class="cls-3" x="-152.29" y="827.8" width="1920.69" height="846.91"/></clipPath></defs><path class="cls-1" d="m38.87,24.76c-2.25,0-4.07-1.81-4.08-4.06,0-2.25,1.81-4.07,4.06-4.08,2.25,0,4.07,1.81,4.08,4.06,0,0,0,.01,0,.02,0,2.24-1.82,4.06-4.06,4.06h0Zm0-6.82c-1.52,0-2.76,1.23-2.77,2.75,0,1.52,1.23,2.76,2.75,2.77,1.52,0,2.76-1.23,2.77-2.75,0,0,0,0,0,0,0-1.52-1.23-2.75-2.75-2.76Z"/><path class="cls-1" d="m45.54,30.24h-13.63v-.97c0-2.95,2.38-5.36,5.33-5.39h3c2.97,0,5.38,2.42,5.39,5.39v.36l-.09.61Zm-12.36-1.31h11.06c-.17-2.09-1.9-3.71-4-3.74h-3c-2.12,0-3.88,1.63-4.06,3.74Z"/><path class="cls-1" d="m38.62,2.19c-12.37,0-22.39,10.02-22.4,22.38,0,4.35,1.27,8.61,3.65,12.26l-15.36,15.35c-2.08,2.14-2.03,5.57.12,7.65,2.1,2.04,5.43,2.04,7.53,0l12.89-13.45c.45-.66.27-1.55-.38-2-.49-.33-1.13-.33-1.62,0l-12.93,13.41c-.99.99-2.58.99-3.57,0s-.99-2.58,0-3.57h0l15.07-15.06c8.06,9.38,22.21,10.45,31.59,2.39,9.38-8.06,10.45-22.21,2.39-31.59-4.25-4.95-10.45-7.8-16.98-7.8v.03Zm0,42.21c-10.94,0-19.81-8.87-19.81-19.81,0-10.94,8.87-19.81,19.81-19.81,10.94,0,19.81,8.87,19.81,19.81-.01,10.94-8.87,19.8-19.81,19.81Z"/><path class="cls-2" d="m38.62,40.38c-8.77,0-15.88-7.11-15.88-15.88,0-8.77,7.11-15.88,15.88-15.88s15.88,7.11,15.88,15.88h0c-.01,8.77-7.12,15.87-15.88,15.88Zm0-27.93c-6.66-.03-12.09,5.34-12.12,12s5.34,12.09,12,12.12c6.66.03,12.09-5.34,12.12-12,0-.02,0-.05,0-.07,0-6.63-5.37-12.02-12-12.05Z"/></svg>