<svg xmlns="http://www.w3.org/2000/svg" viewBox="0 0 96 82"><defs><style>.cls-1{fill:#fff;}.cls-2{fill:#34b3eb;}</style></defs><g id="guias"><path class="cls-1" d="M51.63,34.69a4.07,4.07,0,1,1,4.06-4.06A4.06,4.06,0,0,1,51.63,34.69Zm0-6.82a2.76,2.76,0,1,0,2.75,2.76A2.76,2.76,0,0,0,51.63,27.87Z"/><path class="cls-1" d="M58.3,40.17H44.67l0-.61c0-.12,0-.24,0-.36A5.39,5.39,0,0,1,50,33.81h3a5.4,5.4,0,0,1,5.39,5.39c0,.12,0,.24,0,.36ZM45.94,38.86H57A4.08,4.08,0,0,0,53,35.12H50A4.08,4.08,0,0,0,45.94,38.86Z"/><path class="cls-1" d="M51.38,12.12A22.39,22.39,0,0,0,32.63,46.76L17.27,62.11a5.41,5.41,0,0,0,7.65,7.65L37.81,56.31a1.44,1.44,0,0,0-2-2L22.88,67.72a2.52,2.52,0,0,1-3.57-3.57L34.38,49.09a22.4,22.4,0,1,0,17-37Zm0,42.21A19.81,19.81,0,1,1,71.19,34.52,19.83,19.83,0,0,1,51.38,54.33Z"/><path class="cls-2" d="M51.38,50.31A15.88,15.88,0,1,1,67.26,34.44,15.89,15.89,0,0,1,51.38,50.31Zm0-27.93a12.06,12.06,0,1,0,12,12.05A12.06,12.06,0,0,0,51.38,22.38Z"/></g></svg>