<?xml version="1.0" encoding="UTF-8"?><svg id="Capa_1" xmlns="http://www.w3.org/2000/svg" xmlns:xlink="http://www.w3.org/1999/xlink" viewBox="0 0 64 64"><defs><style>.cls-1{fill:#e2d0e1;}.cls-2{fill:#6d4162;}.cls-3{fill:none;}</style><clipPath id="clippath"><rect class="cls-3" x="-322.29" y="697.8" width="1920.69" height="846.91"/></clipPath></defs><g id="guias"><path class="cls-1" d="m24.78,32.06l3.46-2.9c-4.05-2.89-5.22-8.9-2.63-13.41,2.6-4.51,7.99-5.82,12.03-2.93,1.78,1.28,3.09,3.23,3.67,5.51l3.51-2.9c-2.76-7.3-10.3-10.73-16.85-7.66-6.55,3.07-9.63,11.48-6.87,18.78.81,2.14,2.07,4.03,3.68,5.51Z"/><path class="cls-1" d="m43.37,34.57l-4.27,3.49c5.94.95,10.5,6.34,11,13h-26.78l-5.56,4.64h36.36l.11-2.16c0-.42.06-.85.06-1.27,0-7.85-4.34-14.89-10.92-17.69Z"/><path class="cls-1" d="m23.92,32.77c-4.58,1.2-8.5,4.45-10.86,8.98l10.86-8.98Z"/><polygon class="cls-2" points="5.4 53.32 55.25 12.08 58.6 17.11 8.75 58.35 5.4 53.32"/></g></svg>