<svg xmlns="http://www.w3.org/2000/svg" viewBox="0 0 96 82"><defs><style>.cls-1{fill:#89d4f2;}.cls-2{fill:#fff;}.cls-3{fill:#34b3eb;}</style></defs><g id="guias"><rect class="cls-1" x="40.31" y="40.2" width="13.53" height="0.67"/><rect class="cls-1" x="40.31" y="38.22" width="13.53" height="0.67"/><rect class="cls-1" x="40.31" y="42.18" width="9.01" height="0.67"/><rect class="cls-1" x="40.31" y="36.19" width="9.01" height="0.67"/><rect class="cls-1" x="50.47" y="42.18" width="3.37" height="0.67"/><rect class="cls-1" x="50.47" y="32.15" width="3.37" height="0.67"/><rect class="cls-1" x="40.31" y="44.13" width="13.53" height="0.67"/><rect class="cls-1" x="40.31" y="48.1" width="13.53" height="0.67"/><rect class="cls-1" x="45.39" y="46.11" width="8.45" height="0.67"/><rect class="cls-1" x="40.31" y="46.11" width="3.93" height="0.67"/><rect class="cls-1" x="40.31" y="50.08" width="2.26" height="0.67"/><rect class="cls-1" x="43.68" y="50.08" width="10.16" height="0.67"/><path class="cls-2" d="M58.13,52.5h-1v-21a1.62,1.62,0,0,0-1.63-1.63H38.69V28.53a2.83,2.83,0,0,1,2.81-2.81H58.13A2.83,2.83,0,0,1,61,28.53V49.72A2.82,2.82,0,0,1,58.13,52.5ZM39.88,28.69H55.43a2.83,2.83,0,0,1,2.82,2.82v19.8a1.61,1.61,0,0,0,1.47-1.63V28.57A1.61,1.61,0,0,0,58.09,27H41.5a1.6,1.6,0,0,0-1.62,1.62Z"/><path class="cls-2" d="M53.68,55.48H40.59A4.59,4.59,0,0,1,36,50.91V33.26a4.59,4.59,0,0,1,4.56-4.57H53.68a4.6,4.6,0,0,1,4.57,4.57V50.91A4.58,4.58,0,0,1,53.68,55.48ZM40.59,29.88a3.37,3.37,0,0,0-3.37,3.38V50.91a3.37,3.37,0,0,0,3.37,3.38H53.68a3.38,3.38,0,0,0,3.38-3.38V33.26a3.38,3.38,0,0,0-3.38-3.38Z"/><path class="cls-1" d="M46.58,67.74h0a22.57,22.57,0,0,1-4-.6.59.59,0,0,1-.43-.71.59.59,0,0,1,.71-.44,24.81,24.81,0,0,0,3.85.56.61.61,0,0,1,.56.63A.65.65,0,0,1,46.58,67.74Zm10.2-1.35a.59.59,0,0,1-.2-1.15,24.33,24.33,0,0,0,3.57-1.51A.6.6,0,0,1,61,64a.6.6,0,0,1-.24.79A25.49,25.49,0,0,1,57,66.35.36.36,0,0,1,56.78,66.39ZM39.6,66.27a.36.36,0,0,1-.2,0,25.69,25.69,0,0,1-3.73-1.63.58.58,0,0,1-.24-.79.6.6,0,0,1,.8-.24,30.81,30.81,0,0,0,3.53,1.59.57.57,0,0,1,.35.75A.48.48,0,0,1,39.6,66.27Zm23.57-3.06a.53.53,0,0,1-.48-.27.59.59,0,0,1,.16-.84,25.82,25.82,0,0,0,3-2.42.59.59,0,0,1,.79.87,25.85,25.85,0,0,1-3.18,2.54A.41.41,0,0,1,63.17,63.21ZM33.29,63a.65.65,0,0,1-.36-.12,34.05,34.05,0,0,1-3.13-2.58.59.59,0,0,1,.83-.84,20.93,20.93,0,0,0,3,2.46.65.65,0,0,1,.16.84A.79.79,0,0,1,33.29,63Zm41-17.46H74.2a.62.62,0,0,1-.52-.68A25.09,25.09,0,0,0,74,41v-.08a.6.6,0,0,1,1.19,0V41a27.63,27.63,0,0,1-.32,4A.6.6,0,0,1,74.28,45.56ZM22.42,45.2a.6.6,0,0,1-.6-.52A28.58,28.58,0,0,1,21.58,41v-.35a.62.62,0,0,1,.6-.6.61.61,0,0,1,.59.6V41A25.73,25.73,0,0,0,23,44.52a.62.62,0,0,1-.51.68Zm51.94-6.86a.64.64,0,0,1-.6-.52A25.92,25.92,0,0,0,73,34a.63.63,0,0,1,.39-.75.64.64,0,0,1,.76.39,26.82,26.82,0,0,1,.79,4,.62.62,0,0,1-.51.68S74.4,38.34,74.36,38.34Zm-51.94-.28h-.08a.62.62,0,0,1-.52-.68,33.33,33.33,0,0,1,.84-4,.6.6,0,0,1,1.15.36,23.85,23.85,0,0,0-.8,3.81A.59.59,0,0,1,22.42,38.06ZM68.88,25.32a.63.63,0,0,1-.48-.24,29.39,29.39,0,0,0-2.61-2.85.62.62,0,0,1,0-.84.61.61,0,0,1,.83,0,25.81,25.81,0,0,1,2.74,3,.61.61,0,0,1-.08.83A.39.39,0,0,1,68.88,25.32ZM28,25.08a.56.56,0,0,1-.36-.12.62.62,0,0,1-.07-.83,28.38,28.38,0,0,1,2.77-2.94.59.59,0,0,1,.8.88,24.27,24.27,0,0,0-2.66,2.81A.66.66,0,0,1,28,25.08ZM63.76,20.4a.59.59,0,0,1-.35-.12,25.77,25.77,0,0,0-3.3-2,.59.59,0,1,1,.56-1,27.61,27.61,0,0,1,3.45,2.14.57.57,0,0,1,.12.83A.74.74,0,0,1,63.76,20.4Zm-30.55-.2a.57.57,0,0,1-.48-.24.59.59,0,0,1,.16-.83A27.83,27.83,0,0,1,36.38,17a.58.58,0,0,1,.8.28.57.57,0,0,1-.28.79,34.76,34.76,0,0,0-3.33,2A.65.65,0,0,1,33.21,20.2ZM57.45,17a.31.31,0,0,1-.19,0,27.93,27.93,0,0,0-3.73-1.07.61.61,0,1,1,.23-1.19,24.4,24.4,0,0,1,3.89,1.11.58.58,0,0,1,.36.75A.59.59,0,0,1,57.45,17Zm-17.89-.12a.6.6,0,0,1-.56-.4.57.57,0,0,1,.36-.75,24.77,24.77,0,0,1,3.93-1.07.61.61,0,0,1,.71.47.62.62,0,0,1-.47.72,23.35,23.35,0,0,0-3.73,1Z"/><circle class="cls-2" cx="24.51" cy="50.19" r="2.78"/><path class="cls-3" d="M24.51,53.49a3.3,3.3,0,1,1,3.29-3.3A3.29,3.29,0,0,1,24.51,53.49Zm0-5.52a2.23,2.23,0,1,0,2.22,2.22A2.21,2.21,0,0,0,24.51,48Z"/><path class="cls-2" d="M29.43,57.42v-.24h0a3.88,3.88,0,0,0-3.85-3.85H23.16a3.88,3.88,0,0,0-3.85,3.85h0v.24Z"/><path class="cls-3" d="M29.94,57.93H18.87l0-.47v-.28a4.36,4.36,0,0,1,4.37-4.37h2.42A4.35,4.35,0,0,1,30,57.18v.28Zm-10-1h9a3.33,3.33,0,0,0-3.29-3.06H23.2A3.3,3.3,0,0,0,19.9,56.9Z"/><circle class="cls-2" cx="51.19" cy="64.62" r="2.78"/><path class="cls-3" d="M51.19,67.91a3.29,3.29,0,1,1,3.3-3.29A3.29,3.29,0,0,1,51.19,67.91Zm0-5.51a2.22,2.22,0,1,0,2.22,2.22A2.21,2.21,0,0,0,51.19,62.4Z"/><path class="cls-2" d="M56.11,71.84V71.6h0a3.88,3.88,0,0,0-3.85-3.85H49.84A3.88,3.88,0,0,0,46,71.6h0v.24Z"/><path class="cls-3" d="M56.63,72.36H45.56l0-.48V71.6a4.34,4.34,0,0,1,4.36-4.36H52.3a4.35,4.35,0,0,1,4.37,4.36v.28Zm-10-1h9a3.33,3.33,0,0,0-3.3-3H49.88A3.3,3.3,0,0,0,46.59,71.32Z"/><circle class="cls-2" cx="48.66" cy="12.61" r="2.78"/><path class="cls-3" d="M48.66,15.91A3.3,3.3,0,1,1,52,12.61,3.28,3.28,0,0,1,48.66,15.91Zm0-5.52a2.22,2.22,0,1,0,2.22,2.22A2.21,2.21,0,0,0,48.66,10.39Z"/><path class="cls-2" d="M53.58,19.83V19.6h0a3.88,3.88,0,0,0-3.85-3.85H47.31a3.88,3.88,0,0,0-3.85,3.85h0v.23Z"/><path class="cls-3" d="M54.09,20.35H43l0-.48V19.6a4.36,4.36,0,0,1,4.37-4.37h2.42a4.35,4.35,0,0,1,4.36,4.37v.27Zm-10-1h9a3.32,3.32,0,0,0-3.29-3.06H47.35A3.29,3.29,0,0,0,44.06,19.32Z"/><circle class="cls-2" cx="72.29" cy="51.24" r="2.78"/><path class="cls-3" d="M72.29,54.54a3.3,3.3,0,1,1,3.29-3.3A3.29,3.29,0,0,1,72.29,54.54Zm0-5.52a2.23,2.23,0,1,0,2.22,2.22A2.22,2.22,0,0,0,72.29,49Z"/><path class="cls-2" d="M77.21,58.46v-.23h0a3.88,3.88,0,0,0-3.85-3.85H70.94a3.87,3.87,0,0,0-3.85,3.85h0v.23Z"/><path class="cls-3" d="M77.72,59H66.65l0-.48v-.27A4.36,4.36,0,0,1,71,53.86H73.4a4.35,4.35,0,0,1,4.36,4.37v.27Zm-10-1h9a3.33,3.33,0,0,0-3.29-3.06H71A3.3,3.3,0,0,0,67.68,58Z"/><circle class="cls-2" cx="24.93" cy="25.9" r="2.78"/><path class="cls-3" d="M24.93,29.19a3.3,3.3,0,1,1,3.29-3.29A3.28,3.28,0,0,1,24.93,29.19Zm0-5.51a2.22,2.22,0,1,0,2.22,2.22A2.21,2.21,0,0,0,24.93,23.68Z"/><path class="cls-2" d="M29.85,33.12v-.24h0A3.88,3.88,0,0,0,26,29H23.58a3.88,3.88,0,0,0-3.85,3.85h0v.24Z"/><path class="cls-3" d="M30.37,33.64H19.3l0-.48v-.28a4.34,4.34,0,0,1,4.36-4.36H26a4.35,4.35,0,0,1,4.37,4.36v.28Zm-10-1h9A3.31,3.31,0,0,0,26,29.55H23.62A3.29,3.29,0,0,0,20.33,32.6Z"/><circle class="cls-2" cx="72.29" cy="25.51" r="2.78"/><path class="cls-3" d="M72.29,28.8a3.3,3.3,0,1,1,3.29-3.29A3.29,3.29,0,0,1,72.29,28.8Zm0-5.51a2.22,2.22,0,1,0,2.22,2.22A2.22,2.22,0,0,0,72.29,23.29Z"/><path class="cls-2" d="M77.21,32.73v-.24h0a3.88,3.88,0,0,0-3.85-3.85H70.94a3.88,3.88,0,0,0-3.85,3.85h0v.24Z"/><path class="cls-3" d="M77.72,33.24H66.65l0-.47v-.28A4.35,4.35,0,0,1,71,28.13H73.4a4.34,4.34,0,0,1,4.36,4.36v.28Zm-10-1h9a3.33,3.33,0,0,0-3.29-3.05H71A3.3,3.3,0,0,0,67.68,32.21Z"/></g></svg>