<?xml version="1.0" encoding="UTF-8"?><svg id="Capa_1" xmlns="http://www.w3.org/2000/svg" xmlns:xlink="http://www.w3.org/1999/xlink" viewBox="0 0 64 64"><defs><style>.cls-1{fill:#fff;}.cls-2{fill:#e2d0e1;}.cls-3{fill:#6d4162;}.cls-4{fill:none;}</style><clipPath id="clippath"><rect class="cls-4" x="-322.29" y="827.8" width="1920.69" height="846.91"/></clipPath></defs><g id="guias"><rect class="cls-3" x="23.99" y="31.36" width="13.53" height=".67"/><rect class="cls-3" x="23.99" y="29.38" width="13.53" height=".67"/><rect class="cls-3" x="23.99" y="33.34" width="9.01" height=".67"/><rect class="cls-3" x="23.99" y="27.35" width="9.01" height=".67"/><rect class="cls-3" x="34.15" y="33.34" width="3.37" height=".67"/><rect class="cls-3" x="34.15" y="23.31" width="3.37" height=".67"/><rect class="cls-3" x="23.99" y="35.29" width="13.53" height=".67"/><rect class="cls-3" x="23.99" y="39.26" width="13.53" height=".67"/><rect class="cls-3" x="29.07" y="37.27" width="8.45" height=".67"/><rect class="cls-3" x="23.99" y="37.27" width="3.93" height=".67"/><rect class="cls-3" x="23.99" y="41.24" width="2.26" height=".67"/><rect class="cls-3" x="27.36" y="41.24" width="10.16" height=".67"/><path class="cls-2" d="m41.81,43.66h-1v-21c0-.89-.72-1.62-1.61-1.63,0,0-.01,0-.02,0h-16.81v-1.34c.01-1.55,1.26-2.8,2.81-2.81h16.63c1.56-.02,2.85,1.23,2.87,2.79,0,0,0,.01,0,.02v21.19c-.02,1.56-1.3,2.8-2.86,2.78,0,0,0,0-.01,0Zm-18.25-23.81h15.55c1.56,0,2.81,1.26,2.82,2.82v19.8c.84-.07,1.48-.79,1.47-1.63v-21.11c-.02-.88-.75-1.58-1.63-1.57h-16.59c-.88-.01-1.61.7-1.62,1.58,0,.01,0,.03,0,.04v.07Z"/><path class="cls-2" d="m37.36,46.64h-13.09c-2.53,0-4.58-2.04-4.59-4.57v-17.65c.01-2.52,2.04-4.55,4.56-4.57h13.12c2.52.02,4.55,2.05,4.57,4.57v17.65c0,2.52-2.05,4.56-4.57,4.57Zm-13.09-25.6c-1.86,0-3.37,1.51-3.37,3.37,0,0,0,0,0,.01v17.65c0,1.86,1.5,3.37,3.36,3.38,0,0,0,0,.01,0h13.09c1.87,0,3.38-1.51,3.38-3.38h0v-17.65c0-1.87-1.51-3.38-3.38-3.38h-13.09Z"/><path class="cls-3" d="m30.26,58.9h0c-1.35-.08-2.69-.28-4-.6-.31-.08-.51-.4-.43-.71.07-.32.39-.51.71-.44,0,0,0,0,0,0,1.27.29,2.55.47,3.85.56.33.03.57.3.56.63-.05.34-.35.58-.69.56Zm10.2-1.35c-.33,0-.6-.25-.6-.57,0-.26.16-.49.4-.58,1.23-.41,2.42-.91,3.57-1.51.29-.17.65-.07.82.21.01.02.02.04.03.06.14.29.04.63-.24.79-1.21.62-2.47,1.14-3.76,1.56-.07.04-.14.05-.22.04Zm-17.18-.12c-.07.02-.13.02-.2,0-1.28-.44-2.53-.99-3.73-1.63-.28-.15-.39-.5-.24-.78,0,0,0,0,0,0,.16-.28.51-.39.8-.24,1.14.6,2.32,1.13,3.53,1.59.3.1.46.42.36.72,0,0,0,.02-.01.03-.07.21-.29.35-.51.32Zm23.57-3.06c-.2,0-.38-.1-.48-.27-.19-.26-.13-.63.14-.82,0,0,.02-.01.02-.02,1.06-.73,2.06-1.54,3-2.42.26-.2.63-.14.83.12.17.23.16.54-.04.75-.99.93-2.05,1.78-3.18,2.54-.08.08-.18.12-.29.12Zm-29.88-.21c-.13,0-.25-.05-.36-.12-1.09-.8-2.14-1.66-3.13-2.58-.23-.23-.23-.6,0-.83.23-.23.6-.23.83,0,.92.91,1.93,1.73,3,2.46.26.2.32.56.16.84-.13.14-.31.22-.5.24Zm41-17.46h-.09c-.33-.05-.56-.35-.52-.68.21-1.28.31-2.57.32-3.86v-.08c.04-.33.34-.56.67-.52.27.04.48.25.52.52v.08c0,1.34-.12,2.68-.32,4-.02.31-.28.56-.59.56v-.02Zm-51.87-.34c-.3,0-.56-.22-.6-.52-.16-1.22-.24-2.45-.24-3.68v-.35c.01-.33.27-.59.6-.6.33.01.58.27.59.6v.35c0,1.18.07,2.35.23,3.52.04.33-.19.62-.51.68h-.07Zm51.94-6.86c-.3-.01-.54-.23-.6-.52-.16-1.29-.41-2.57-.76-3.82-.08-.31.09-.64.39-.75.32-.08.64.09.76.39.36,1.31.63,2.65.79,4,.04.33-.19.62-.51.68,0,0-.03.02-.07.02Zm-51.94-.28h-.08c-.33-.05-.56-.35-.52-.68.2-1.35.48-2.69.84-4,.1-.32.44-.49.75-.4.32.1.49.44.4.76h0c-.37,1.25-.64,2.52-.8,3.81-.04.29-.29.51-.59.51Zm46.46-12.74c-.19,0-.36-.09-.48-.24-.81-1.01-1.68-1.96-2.61-2.85-.22-.24-.22-.6,0-.84.23-.22.6-.22.83,0,.99.93,1.91,1.93,2.74,3,.2.25.16.62-.08.83-.1.11-.26.15-.4.1Zm-40.88-.24c-.13,0-.26-.04-.36-.12-.23-.22-.26-.58-.07-.83.85-1.04,1.78-2.03,2.77-2.94.24-.22.62-.2.84.04.22.24.2.62-.04.84-.96.86-1.85,1.8-2.66,2.81-.13.13-.3.2-.48.2Zm35.76-4.68c-.13,0-.25-.04-.35-.12-1.05-.75-2.15-1.42-3.3-2-.31-.09-.5-.41-.41-.73.09-.31.41-.5.73-.41.09.03.18.07.24.14,1.2.63,2.35,1.34,3.45,2.14.26.18.33.53.15.79,0,.01-.02.03-.03.04-.14.1-.31.16-.48.15Zm-30.55-.2c-.19,0-.37-.08-.48-.24-.19-.27-.12-.64.15-.82,0,0,0,0,.01,0,1.11-.79,2.28-1.51,3.49-2.13.28-.15.63-.04.78.24,0,.01.01.02.02.04.15.28.04.62-.24.77-.01,0-.03.01-.04.02-1.15.6-2.26,1.27-3.33,2-.1.08-.23.12-.36.13Zm24.24-3.2c-.06.02-.13.02-.19,0-1.22-.44-2.46-.8-3.73-1.07-.34-.03-.59-.32-.56-.65.03-.34.32-.59.65-.56.05,0,.09.01.14.03,1.33.26,2.63.63,3.89,1.11.3.1.47.43.37.73,0,0,0,.01,0,.02-.08.24-.31.4-.56.4Zm-17.89-.12c-.25,0-.48-.16-.56-.4-.11-.29.03-.62.32-.74.01,0,.02,0,.04-.01,1.28-.46,2.59-.82,3.93-1.07.32-.06.64.15.71.47.06.33-.15.65-.47.72-1.27.23-2.52.56-3.73,1l-.24.03Z"/><circle class="cls-1" cx="8.19" cy="41.35" r="2.78"/><path class="cls-3" d="m8.19,44.65c-1.82,0-3.3-1.47-3.31-3.29,0-1.82,1.47-3.3,3.29-3.31,1.82,0,3.3,1.47,3.31,3.29,0,0,0,0,0,0,0,1.82-1.46,3.29-3.28,3.3,0,0,0,0-.01,0Zm0-5.52c-1.23,0-2.23.99-2.24,2.22,0,1.23.99,2.23,2.22,2.24,1.23,0,2.23-.99,2.24-2.22,0,0,0-.01,0-.02-.01-1.22-1-2.2-2.22-2.19v-.03Z"/><path class="cls-1" d="m13.11,48.58v-.24h0c-.02-2.12-1.73-3.83-3.85-3.85h-2.42c-2.12.02-3.83,1.73-3.85,3.85h0v.24h10.12Z"/><path class="cls-3" d="m13.62,49.09H2.55v-.75c0-2.41,1.94-4.36,4.35-4.37,0,0,.01,0,.02,0h2.42c2.4,0,4.35,1.96,4.34,4.36,0,0,0,0,0,.01v.28l-.06.47Zm-10-1h9c-.14-1.72-1.57-3.04-3.29-3.06h-2.45c-1.72,0-3.16,1.31-3.3,3.03l.04.03Z"/><circle class="cls-1" cx="34.87" cy="55.78" r="2.78"/><path class="cls-3" d="m34.87,59.07c-1.82,0-3.29-1.48-3.28-3.3,0-1.82,1.48-3.29,3.3-3.28,1.81,0,3.28,1.48,3.28,3.29,0,1.82-1.47,3.29-3.29,3.29,0,0,0,0-.01,0Zm0-5.51c-1.23,0-2.22.99-2.22,2.22,0,1.23.99,2.22,2.22,2.22s2.22-.99,2.22-2.22c0-1.22-.98-2.21-2.2-2.22,0,0-.01,0-.02,0Z"/><path class="cls-1" d="m39.79,63v-.24h0c-.02-2.12-1.73-3.83-3.85-3.85h-2.42c-2.12.02-3.82,1.73-3.84,3.85h0v.24h10.11Z"/><path class="cls-3" d="m40.31,63.52h-11.07v-.76c-.01-2.4,1.92-4.35,4.32-4.36.01,0,.03,0,.04,0h2.38c2.4-.01,4.36,1.93,4.37,4.33,0,.01,0,.02,0,.03v.28l-.04.48Zm-10-1h9c-.17-1.7-1.59-2.99-3.3-3h-2.45c-1.69,0-3.12,1.28-3.29,2.96l.04.04Z"/><circle class="cls-1" cx="32.34" cy="3.77" r="2.78"/><path class="cls-3" d="m32.34,7.07c-1.82-.02-3.28-1.52-3.26-3.34.02-1.82,1.52-3.28,3.34-3.26,1.81.02,3.26,1.49,3.26,3.3.01,1.81-1.45,3.29-3.26,3.3-.03,0-.05,0-.08,0Zm0-5.52c-1.23,0-2.22.99-2.22,2.22,0,1.23.99,2.22,2.22,2.22,1.23,0,2.22-.99,2.22-2.22,0-1.22-.98-2.21-2.2-2.22,0,0-.01,0-.02,0Z"/><path class="cls-1" d="m37.26,10.99v-.23h0c-.02-2.12-1.73-3.83-3.85-3.85h-2.42c-2.12.02-3.83,1.73-3.85,3.85h0v.23h10.12Z"/><path class="cls-3" d="m37.77,11.51h-11.09v-.75c0-2.41,1.94-4.36,4.35-4.37,0,0,.01,0,.02,0h2.42c2.4,0,4.35,1.94,4.36,4.34,0,.01,0,.02,0,.03v.27l-.06.48Zm-10-1h9c-.14-1.72-1.56-3.05-3.29-3.06h-2.45c-1.72,0-3.15,1.32-3.29,3.03l.03.03Z"/><circle class="cls-1" cx="55.97" cy="42.4" r="2.78"/><path class="cls-3" d="m55.97,45.7c-1.82,0-3.3-1.47-3.31-3.29s1.47-3.3,3.29-3.31c1.82,0,3.3,1.47,3.31,3.29,0,0,0,0,0,0,0,1.82-1.46,3.29-3.28,3.3,0,0,0,0-.01,0Zm0-5.52c-1.23,0-2.23.99-2.24,2.22s.99,2.23,2.22,2.24c1.23,0,2.23-.99,2.24-2.22,0,0,0-.01,0-.02.01-1.23-.97-2.23-2.2-2.24,0,0-.01,0-.02,0v.02Z"/><path class="cls-1" d="m60.89,49.62v-.23h0c-.02-2.12-1.73-3.83-3.85-3.85h-2.42c-2.12.01-3.84,1.73-3.85,3.85h0v.23h10.12Z"/><path class="cls-3" d="m61.4,50.16h-11.07v-.75c-.02-2.41,1.92-4.37,4.33-4.39,0,0,.01,0,.02,0h2.4c2.4,0,4.35,1.94,4.36,4.34,0,.01,0,.02,0,.03v.27l-.04.5Zm-10-1h9c-.14-1.72-1.57-3.04-3.29-3.06h-2.43c-1.74-.02-3.19,1.32-3.32,3.06h.04Z"/><circle class="cls-1" cx="8.61" cy="17.06" r="2.78"/><path class="cls-3" d="m8.61,20.35c-1.82,0-3.3-1.47-3.31-3.29,0-1.82,1.47-3.3,3.29-3.31s3.3,1.47,3.31,3.29c0,0,0,.01,0,.02,0,1.81-1.46,3.28-3.27,3.29,0,0-.01,0-.02,0Zm0-5.51c-1.23,0-2.22.99-2.22,2.22s.99,2.22,2.22,2.22,2.22-.99,2.22-2.22h0c0-1.22-.98-2.21-2.2-2.22,0,0-.01,0-.02,0Z"/><path class="cls-1" d="m13.53,24.28v-.24h0c0-2.13-1.72-3.86-3.85-3.88h-2.42c-2.12.02-3.83,1.73-3.85,3.85h0v.24l10.12.03Z"/><path class="cls-3" d="m14.05,24.8H2.98v-.76c-.01-2.4,1.92-4.35,4.32-4.36.01,0,.03,0,.04,0h2.34c2.4-.01,4.36,1.93,4.37,4.33,0,.01,0,.02,0,.03v.76Zm-10-1h9c-.12-1.77-1.6-3.13-3.37-3.09h-2.38c-1.73,0-3.16,1.33-3.29,3.05l.04.04Z"/><circle class="cls-1" cx="55.97" cy="16.67" r="2.78"/><path class="cls-3" d="m55.97,19.96c-1.82,0-3.3-1.47-3.31-3.29,0-1.82,1.47-3.3,3.29-3.31,1.82,0,3.3,1.47,3.31,3.29,0,0,0,.01,0,.02,0,1.82-1.47,3.29-3.29,3.29h0Zm0-5.51c-1.23,0-2.22.99-2.22,2.22s.99,2.22,2.22,2.22c1.23,0,2.22-.99,2.22-2.22s-.99-2.22-2.22-2.22Z"/><path class="cls-1" d="m60.89,23.89v-.24h0c-.02-2.12-1.73-3.83-3.85-3.85h-2.42c-2.12.02-3.83,1.73-3.85,3.85h0v.24h10.12Z"/><path class="cls-3" d="m61.4,24.4h-11.07v-.75c0-2.4,1.94-4.35,4.34-4.36,0,0,0,0,.01,0h2.4c2.4-.01,4.35,1.92,4.36,4.32,0,.01,0,.03,0,.04v.28l-.04.47Zm-10-1h9c-.14-1.71-1.57-3.04-3.29-3.05h-2.43c-1.73-.02-3.17,1.3-3.32,3.02l.04.03Z"/></g></svg>