<svg xmlns="http://www.w3.org/2000/svg" viewBox="0 0 96 82"><defs><style>.cls-1{opacity:0.15;}.cls-2{fill:#89d4f2;}.cls-3{fill:#fff;}</style></defs><g id="guias"><path class="cls-2" d="M64.85,56.34a2,2,0,0,1-.48-.08,1.21,1.21,0,0,1-.65-1.57l1.9-4.44a1.2,1.2,0,1,1,2.22.93l-1.9,4.44A1.18,1.18,0,0,1,64.85,56.34ZM62,55.94a1.16,1.16,0,0,1-.85-.36l-3.43-3.43a1.2,1.2,0,1,1,1.69-1.7l3.43,3.43a1.17,1.17,0,0,1,0,1.7A1.22,1.22,0,0,1,62,55.94Zm-6.87-6.82a1.15,1.15,0,0,1-.84-.36l-3.44-3.44a1.2,1.2,0,0,1,1.7-1.69L56,47.06a1.18,1.18,0,0,1,0,1.7A1.16,1.16,0,0,1,55.16,49.12Zm13.45-1.7a2,2,0,0,1-.49-.08,1.22,1.22,0,0,1-.65-1.57l1.9-4.44a1.2,1.2,0,1,1,2.22.93L69.7,46.7A1.16,1.16,0,0,1,68.61,47.42ZM17.5,45.32a1.21,1.21,0,0,1-.85-2l3.43-3.44a1.2,1.2,0,0,1,1.7,1.7L18.35,45A1.43,1.43,0,0,1,17.5,45.32Zm30.8-3.06a1.15,1.15,0,0,1-.85-.37L44,38.46a1.2,1.2,0,0,1,1.7-1.69l3.43,3.43a1.17,1.17,0,0,1,0,1.69A1.09,1.09,0,0,1,48.3,42.26ZM72.4,38.5a2,2,0,0,1-.48-.08,1.22,1.22,0,0,1-.65-1.57l1.9-4.44a1.2,1.2,0,1,1,2.22.93l-1.9,4.44A1.15,1.15,0,0,1,72.4,38.5Zm-48.08,0a1.21,1.21,0,0,1-.85-2.06L26.91,33a1.2,1.2,0,1,1,1.69,1.7l-3.43,3.43A1.11,1.11,0,0,1,24.32,38.5Zm17.12-3.11a1.16,1.16,0,0,1-.85-.36L37.16,31.6a1.2,1.2,0,1,1,1.69-1.7l3.44,3.44a1.17,1.17,0,0,1,0,1.69A1.13,1.13,0,0,1,41.44,35.39ZM31.18,31.64a1.15,1.15,0,0,1-.84-.36,1.17,1.17,0,0,1,0-1.7l3.27-3.27a1.17,1.17,0,0,1,1.69,0l.16.16a1.17,1.17,0,0,1,0,1.7,1,1,0,0,1-.68.32L32,31.24A1.06,1.06,0,0,1,31.18,31.64Zm45-2.06a2,2,0,0,1-.48-.08,1.22,1.22,0,0,1-.65-1.57L77,23.49a1.2,1.2,0,1,1,2.22.92l-1.9,4.44A1.21,1.21,0,0,1,76.19,29.58Z"/><circle class="cls-3" cx="18.19" cy="43.63" r="6.06"/><path class="cls-3" d="M18.19,50.49a6.86,6.86,0,1,1,6.86-6.86A6.86,6.86,0,0,1,18.19,50.49Zm0-12.11a5.25,5.25,0,1,0,5.24,5.25A5.24,5.24,0,0,0,18.19,38.38Z"/><circle class="cls-3" cx="33.85" cy="27.56" r="4.28"/><path class="cls-3" d="M33.85,32.65a5.09,5.09,0,1,1,5.08-5.09A5.09,5.09,0,0,1,33.85,32.65Zm0-8.56a3.47,3.47,0,1,0,3.47,3.47A3.5,3.5,0,0,0,33.85,24.09Z"/><circle class="cls-3" cx="64.21" cy="55.54" r="6.06"/><path class="cls-3" d="M64.21,62.4a6.87,6.87,0,1,1,6.86-6.86A6.86,6.86,0,0,1,64.21,62.4Zm0-12.11a5.25,5.25,0,1,0,5.24,5.25A5.24,5.24,0,0,0,64.21,50.29Z"/><circle class="cls-3" cx="76.36" cy="26.03" r="4.28"/><path class="cls-3" d="M76.36,31.11A5.09,5.09,0,1,1,81.44,26,5.09,5.09,0,0,1,76.36,31.11Zm0-8.55A3.47,3.47,0,1,0,79.83,26,3.5,3.5,0,0,0,76.36,22.56Z"/></g></svg>