<svg xmlns="http://www.w3.org/2000/svg" viewBox="0 0 96 82"><defs><style>.cls-1{fill:#fff;}.cls-2{fill:#89d4f2;}</style></defs><g id="guias"><path class="cls-1" d="M44.6,39.76l3.46-2.6a8.71,8.71,0,1,1,13.08-9.72l3.51-2.6A12.87,12.87,0,1,0,44.6,39.76Z"/><path class="cls-1" d="M63.19,41.11l-4.27,3.13a12.88,12.88,0,0,1,11,11.67H43.14l-5.56,4.16H73.94l.11-1.94c0-.38.06-.76.06-1.14A17,17,0,0,0,63.19,41.11Z"/><path class="cls-1" d="M43.74,40.4a17.06,17.06,0,0,0-10.86,8.06Z"/><rect class="cls-2" x="20.78" y="38.88" width="62.09" height="5.62" transform="translate(-14.64 39.11) rotate(-36.59)"/></g></svg>