<svg xmlns="http://www.w3.org/2000/svg" viewBox="0 0 96 82"><defs><style>.cls-1{opacity:0.15;}.cls-2{fill:#89d4f2;}.cls-3{fill:#fff;}.cls-4{fill:none;stroke:#fff;stroke-miterlimit:10;stroke-width:0.94px;}</style></defs><g id="guias"><path class="cls-2" d="M64,60.81a2.18,2.18,0,0,1-.49-.08,1.22,1.22,0,0,1-.64-1.58l1.9-4.47a1.21,1.21,0,0,1,2.23.94l-1.9,4.46A1.2,1.2,0,0,1,64,60.81Zm-2.84-.4a1.18,1.18,0,0,1-.85-.37l-3.45-3.45a1.2,1.2,0,0,1,1.7-1.7L62,58.34A1.17,1.17,0,0,1,62,60,1.24,1.24,0,0,1,61.16,60.41Zm-6.9-6.86a1.16,1.16,0,0,1-.85-.37L50,49.74A1.2,1.2,0,0,1,50,48a1.18,1.18,0,0,1,1.71,0l3.45,3.45a1.18,1.18,0,0,1,0,1.7A1.17,1.17,0,0,1,54.26,53.55Zm13.51-1.71a2,2,0,0,1-.48-.08,1.21,1.21,0,0,1-.65-1.58l1.91-4.46a1.21,1.21,0,1,1,2.23.93l-1.91,4.46A1.15,1.15,0,0,1,67.77,51.84Zm-20.4-5.19a1.2,1.2,0,0,1-.86-.36l-3.44-3.45a1.21,1.21,0,1,1,1.7-1.71l3.45,3.45a1.18,1.18,0,0,1,0,1.71A1.11,1.11,0,0,1,47.37,46.65Zm24.22-3.77a2.09,2.09,0,0,1-.49-.08,1.24,1.24,0,0,1-.65-1.59l1.91-4.46a1.21,1.21,0,0,1,2.23.93l-1.91,4.47A1.15,1.15,0,0,1,71.59,42.88Zm-48.32,0a1.17,1.17,0,0,1-.86-.37,1.18,1.18,0,0,1,0-1.7l3.45-3.45a1.21,1.21,0,0,1,1.71,1.7l-3.45,3.45A1.09,1.09,0,0,1,23.27,42.88Zm17.2-3.13a1.16,1.16,0,0,1-.85-.36l-3.45-3.45a1.2,1.2,0,0,1,1.7-1.7l3.45,3.44a1.18,1.18,0,0,1,0,1.71A1.11,1.11,0,0,1,40.47,39.75ZM30.16,36a1.22,1.22,0,0,1-.85-2.07l3.29-3.28a1.17,1.17,0,0,1,1.7,0l.16.16a1.17,1.17,0,0,1,0,1.7,1,1,0,0,1-.69.33L31,35.58A1.1,1.1,0,0,1,30.16,36Z"/><circle class="cls-3" cx="32.84" cy="31.88" r="4.3"/><path class="cls-3" d="M32.84,37A5.12,5.12,0,1,1,38,31.88,5.12,5.12,0,0,1,32.84,37Zm0-8.61a3.49,3.49,0,1,0,3.49,3.49A3.52,3.52,0,0,0,32.84,28.39Z"/><circle class="cls-3" cx="63.35" cy="60" r="6.09"/><path class="cls-3" d="M63.35,66.9a6.9,6.9,0,1,1,6.9-6.9A6.9,6.9,0,0,1,63.35,66.9Zm0-12.17A5.27,5.27,0,1,0,68.63,60,5.26,5.26,0,0,0,63.35,54.73Z"/><path class="cls-4" d="M73.69,28.7h9.54a3.22,3.22,0,0,1,1,.16V20.22A5.29,5.29,0,0,0,79,14.94H77.74a5.3,5.3,0,0,0-5.28,5.28v8.69A3.74,3.74,0,0,1,73.69,28.7Z"/><path class="cls-4" d="M86.17,33a3.25,3.25,0,0,0,.1-.85h0A3.39,3.39,0,0,0,83,28.7H74a3.39,3.39,0,0,0-3.3,3.46h0a3.09,3.09,0,0,0,.1.85Z"/><path class="cls-2" d="M78.24,25.5a.81.81,0,0,1-.83-.85.84.84,0,1,1,.83.85Zm-.52-2.17-.21-4.26H79l-.21,4.26Z"/><path class="cls-2" d="M70.51,21.37h-2a.52.52,0,0,1,0-1h2a.52.52,0,1,1,0,1Z"/><path class="cls-2" d="M88.46,21.37h-2a.52.52,0,1,1,0-1h2a.52.52,0,0,1,.52.52A.56.56,0,0,1,88.46,21.37Z"/><path class="cls-2" d="M78.4,13.2a.52.52,0,0,1-.52-.52v-2a.52.52,0,1,1,1,0v2A.52.52,0,0,1,78.4,13.2Z"/><path class="cls-2" d="M84.45,15.25a.48.48,0,0,1-.35-.14.54.54,0,0,1,0-.73l1.44-1.44a.52.52,0,1,1,.73.73l-1.44,1.44A.62.62,0,0,1,84.45,15.25Z"/><path class="cls-2" d="M72.21,15.25a.51.51,0,0,1-.36-.14l-1.43-1.44a.52.52,0,1,1,.73-.73l1.43,1.44a.54.54,0,0,1,0,.73A.66.66,0,0,1,72.21,15.25Z"/><path class="cls-4" d="M11.65,56.56h9.53a3,3,0,0,1,1,.16V48.08A5.3,5.3,0,0,0,17,42.8H15.7a5.3,5.3,0,0,0-5.28,5.28v8.69A3.65,3.65,0,0,1,11.65,56.56Z"/><path class="cls-4" d="M24.13,60.87a3.31,3.31,0,0,0,.09-.85h0a3.38,3.38,0,0,0-3.29-3.46h-9A3.38,3.38,0,0,0,8.61,60h0a3.56,3.56,0,0,0,.09.85Z"/><path class="cls-2" d="M16.19,53.35a.85.85,0,0,1,0-1.69.85.85,0,0,1,0,1.69Zm-.52-2.16-.21-4.27H17l-.22,4.27Z"/><path class="cls-2" d="M8.47,49.23h-2a.52.52,0,1,1,0-1h2a.52.52,0,0,1,0,1Z"/><path class="cls-2" d="M26.41,49.23h-2a.52.52,0,1,1,0-1h2a.51.51,0,0,1,.52.51A.55.55,0,0,1,26.41,49.23Z"/><path class="cls-2" d="M16.36,41.06a.52.52,0,0,1-.52-.52v-2a.52.52,0,0,1,1,0v2A.52.52,0,0,1,16.36,41.06Z"/><path class="cls-2" d="M22.41,43.11a.48.48,0,0,1-.35-.14.54.54,0,0,1,0-.73l1.43-1.44a.52.52,0,0,1,.73.73L22.79,43A.62.62,0,0,1,22.41,43.11Z"/><path class="cls-2" d="M10.16,43.11A.48.48,0,0,1,9.81,43L8.37,41.53a.52.52,0,1,1,.73-.73l1.44,1.44a.54.54,0,0,1,0,.73A.66.66,0,0,1,10.16,43.11Z"/></g></svg>