<?xml version="1.0" encoding="UTF-8"?><svg id="Capa_1" xmlns="http://www.w3.org/2000/svg" xmlns:xlink="http://www.w3.org/1999/xlink" viewBox="0 0 64 64"><defs><style>.cls-1{fill:#6d4162;}.cls-2{fill:#fff;stroke:#6d4162;stroke-miterlimit:10;}.cls-3{fill:none;}.cls-4{fill:#f8f8ff;}</style><clipPath id="clippath"><rect class="cls-3" x="-477.63" y="827.8" width="1920.69" height="846.91"/></clipPath></defs><g id="guias"><path class="cls-2" d="m26.8,12.6c.21-2.22,2.07-4.55,4.3-4.61v-1.06c-1.27-.97-1.52-2.78-.55-4.05.55-.72,1.4-1.14,2.31-1.14,1.6.02,2.89,1.3,2.91,2.9,0,1.01-.53,1.95-1.4,2.47v.89c2.22.06,4,2.41,4.18,4.6h-11.75Z"/><rect class="cls-1" x="24.49" y="31.92" width="13.77" height=".69"/><rect class="cls-1" x="24.49" y="29.91" width="13.77" height=".69"/><rect class="cls-1" x="24.49" y="33.94" width="9.16" height=".69"/><rect class="cls-1" x="24.49" y="27.85" width="9.16" height=".69"/><rect class="cls-1" x="34.83" y="33.94" width="3.43" height=".69"/><rect class="cls-1" x="34.83" y="23.73" width="3.43" height=".69"/><rect class="cls-1" x="24.49" y="35.92" width="13.77" height=".69"/><rect class="cls-1" x="24.49" y="39.96" width="13.77" height=".69"/><rect class="cls-1" x="29.66" y="37.94" width="8.6" height=".69"/><rect class="cls-1" x="24.49" y="37.94" width="4" height=".69"/><rect class="cls-1" x="24.49" y="41.98" width="2.3" height=".69"/><rect class="cls-1" x="27.92" y="41.98" width="10.33" height=".69"/><path class="cls-4" d="m42.62,44.46h-1.05v-21.38c0-.9-.74-1.63-1.64-1.62,0,0-.01,0-.02,0h-17.07v-1.4c0-1.58,1.28-2.86,2.86-2.87h16.92c1.58,0,2.86,1.29,2.86,2.87v21.55c-.01,1.57-1.29,2.84-2.86,2.85Zm-18.57-24.24h15.82c1.58,0,2.86,1.28,2.87,2.86v20.15c.86-.07,1.52-.8,1.5-1.66v-21.47c0-.9-.72-1.63-1.62-1.64-.01,0-.03,0-.04,0h-16.88c-.9-.01-1.64.71-1.65,1.61,0,.02,0,.03,0,.05v.1Z"/><path class="cls-4" d="m38.1,47.46h-13.33c-2.56-.02-4.63-2.09-4.64-4.65v-18c.02-2.56,2.08-4.62,4.64-4.64h13.33c2.58.02,4.65,2.11,4.64,4.69v18c-.03,2.54-2.1,4.59-4.64,4.6Zm-13.33-26c-1.88,0-3.41,1.52-3.43,3.4v18c0,1.89,1.54,3.43,3.43,3.43h13.33c1.89,0,3.43-1.54,3.43-3.43h0v-18c-.02-1.88-1.55-3.4-3.43-3.4h-13.33Z"/><path class="cls-1" d="m30.87,59.94h0c-1.38-.08-2.74-.28-4.08-.61-.32-.08-.52-.41-.44-.73.08-.32.41-.52.73-.44,1.29.3,2.59.49,3.91.57.33.03.58.31.57.64-.05.34-.35.59-.69.57Zm10.37-1.37c-.25,0-.48-.17-.56-.41-.1-.31.06-.64.36-.76,1.25-.41,2.47-.93,3.64-1.54.32-.07.64.14.71.46.04.19-.02.39-.15.54-1.22.64-2.49,1.18-3.79,1.62-.06.05-.13.08-.21.09Zm-17.47-.11c-.07.02-.14.02-.21,0-1.3-.45-2.57-1.01-3.79-1.66-.29-.16-.4-.52-.24-.81.16-.28.51-.39.8-.24,1.17.61,2.37,1.15,3.6,1.62.3.1.47.43.37.73,0,0,0,.02,0,.03-.08.22-.29.35-.52.33Zm24-3.11c-.2,0-.39-.11-.48-.29-.19-.26-.13-.63.14-.82,0,0,.02-.01.02-.02,1.08-.74,2.11-1.57,3.07-2.47.25-.22.63-.21.85.04s.21.63-.04.85c-1.01.94-2.09,1.81-3.23,2.59-.1.09-.23.13-.36.11h.03Zm-30.39-.2c-.13,0-.26-.05-.37-.13-1.12-.8-2.18-1.68-3.19-2.62-.23-.23-.23-.62,0-.85.23-.23.62-.23.85,0,.92.92,1.93,1.76,3,2.51.26.2.33.56.16.84-.13.13-.3.22-.48.24h.03Zm41.7-17.77h-.08c-.33-.05-.57-.35-.53-.68.2-1.32.29-2.66.28-4v-.08c0-.34.27-.61.61-.61s.61.27.61.61v.08c-.01,1.38-.12,2.76-.33,4.12-.03.31-.28.55-.59.55h.03Zm-52.76-.36c-.31,0-.57-.22-.61-.52-.16-1.25-.24-2.5-.24-3.76v-.36c-.04-.33.19-.64.53-.68.33-.04.64.19.68.53,0,.05,0,.1,0,.16v.36c0,1.2.08,2.4.24,3.59.04.33-.19.63-.52.69h-.08Zm52.84-7c-.3-.02-.55-.23-.61-.53-.15-1.31-.41-2.6-.76-3.87-.09-.32.08-.66.4-.77.32-.08.65.09.77.4.36,1.31.63,2.65.8,4,.04.33-.19.63-.52.69,0,0-.07.09-.11.09h.03Zm-52.84-.29h-.08c-.33-.05-.57-.35-.53-.68.2-1.35.48-2.69.85-4,.11-.32.45-.5.77-.4.32.11.49.44.4.76-.37,1.27-.64,2.57-.81,3.88-.07.28-.34.47-.63.45h.03Zm47.27-13c-.19,0-.37-.1-.49-.25-.82-1.03-1.71-1.99-2.66-2.9-.25-.22-.26-.6-.04-.85.22-.25.6-.26.85-.04,1.01.92,1.94,1.93,2.78,3,.2.26.16.62-.08.84-.05.17-.22.27-.39.26l.03-.06Zm-41.58-.25c-.13,0-.26-.04-.37-.12-.24-.22-.28-.59-.08-.85.87-1.07,1.82-2.07,2.83-3,.25-.22.63-.21.85.04.22.25.21.63-.04.85-.98.88-1.88,1.84-2.71,2.86-.12.17-.31.27-.51.28l.03-.06Zm36.37-4.76c-.13,0-.25-.05-.36-.12-1.06-.77-2.18-1.46-3.35-2.06-.29-.15-.4-.52-.25-.81.16-.28.52-.39.81-.24,1.22.64,2.39,1.37,3.51,2.18.26.18.33.54.15.81-.01.02-.02.03-.03.04-.13.15-.31.25-.51.26l.03-.06Zm-31.14-.14c-.19,0-.38-.08-.49-.24-.2-.27-.14-.64.13-.84.02-.01.04-.03.06-.04,1.13-.8,2.32-1.52,3.56-2.14.28-.15.63-.04.78.24,0,.01.01.02.02.04.15.29.04.65-.25.8,0,0-.02,0-.03.01-1.17.6-2.3,1.27-3.39,2-.11.1-.24.16-.39.17Zm24.66-3.23c-.07.02-.13.02-.2,0-1.24-.45-2.51-.82-3.8-1.09-.33-.1-.52-.44-.42-.77.09-.29.37-.48.67-.44,1.36.27,2.7.64,4,1.13.31.1.48.44.38.75,0,0,0,0,0,.01-.08.25-.32.42-.59.41h-.03Zm-18.2-.12c-.26,0-.49-.16-.57-.41-.12-.3.03-.63.33-.75,0,0,.02,0,.03,0,1.3-.47,2.64-.83,4-1.09.34-.07.68.14.75.48,0,0,0,0,0,0,.06.33-.16.66-.49.73-1.29.23-2.56.56-3.79,1l-.26.04Z"/><path class="cls-1" d="m32.73,11.04c-.49.02-.91-.36-.93-.85,0-.03,0-.05,0-.08-.05-.52.32-.98.84-1.03.52-.05.98.32,1.03.84,0,.06,0,.13,0,.19.03.48-.33.9-.8.93-.05,0-.09,0-.14,0Zm-.57-2.44l-.2-4.76h1.66l-.21,4.76h-1.25Z"/><path class="cls-2" d="m1.57,27.3c.21-2.22,2.07-4.55,4.3-4.6v-1.07c-1.26-.98-1.48-2.8-.5-4.06.54-.7,1.38-1.11,2.26-1.11,1.6.02,2.89,1.3,2.91,2.9,0,1.01-.53,1.95-1.4,2.47v.9c2.22.05,4,2.4,4.19,4.59l-11.76-.02Z"/><path class="cls-1" d="m7.5,25.74c-.51,0-.93-.43-.92-.94,0-.51.43-.93.94-.92.51,0,.92.42.92.93.03.48-.33.9-.8.93-.05,0-.09,0-.14,0Zm-.57-2.43l-.2-4.77h1.66l-.21,4.77h-1.25Z"/><path class="cls-2" d="m.97,50.15c.21-2.23,2.08-4.55,4.3-4.61v-1.08c-1.27-.98-1.51-2.8-.53-4.07.55-.72,1.4-1.13,2.3-1.13,1.6.02,2.88,1.31,2.9,2.91,0,1.01-.53,1.95-1.39,2.47v.89c2.23.06,4,2.41,4.19,4.6l-11.77.02Z"/><path class="cls-1" d="m6.91,48.59c-.52,0-.94-.41-.95-.93,0-.52.41-.94.93-.95.52,0,.94.41.95.93,0,0,0,0,0,0,.04.48-.32.9-.79.94-.05,0-.09,0-.14,0Zm-.57-2.44l-.21-4.77h1.66l-.21,4.77h-1.24Z"/><path class="cls-2" d="m27.24,62.27c.2-2.23,2.07-4.56,4.3-4.61v-1.07c-1.27-.98-1.5-2.8-.51-4.07.53-.69,1.34-1.1,2.21-1.12,1.6.02,2.89,1.31,2.9,2.91,0,1.01-.53,1.95-1.39,2.47v.89c2.23.06,4,2.4,4.19,4.6h-11.7Z"/><path class="cls-1" d="m33.13,60.7c-.51,0-.93-.42-.93-.93s.42-.93.93-.93.93.42.93.93c.04.47-.31.89-.78.93-.05,0-.1,0-.15,0Zm-.57-2.43l-.21-4.81h1.66l-.2,4.77-1.25.04Z"/><path class="cls-2" d="m51.24,50.35c.21-2.23,2.08-4.56,4.3-4.61v-1.07c-.71-.54-1.13-1.39-1.13-2.28-.02-1.6,1.27-2.91,2.87-2.93,0,0,.01,0,.02,0,1.62,0,2.93,1.31,2.94,2.93,0,1.01-.53,1.95-1.39,2.47v.89c2.23.06,4,2.4,4.19,4.6h-11.8Z"/><path class="cls-1" d="m57.17,48.79c-.52,0-.94-.41-.95-.93,0-.52.41-.94.93-.95s.94.41.95.93c0,0,0,0,0,0,.04.48-.32.9-.79.94-.05,0-.09,0-.14,0Zm-.57-2.44l-.21-4.77h1.66l-.21,4.77h-1.24Z"/><path class="cls-2" d="m50.24,24.72c.21-2.23,2.07-4.55,4.3-4.61v-1.06c-1.27-.97-1.52-2.78-.55-4.05.55-.72,1.4-1.14,2.31-1.14,1.61,0,2.92,1.29,2.94,2.9,0,1.01-.53,1.95-1.4,2.47v.89c2.22.06,4,2.41,4.19,4.6h-11.79Z"/><path class="cls-1" d="m56.18,23.16c-.52,0-.94-.41-.95-.93s.41-.94.93-.95c.52,0,.94.41.95.93,0,0,0,.01,0,.02.03.48-.33.9-.81.93-.04,0-.08,0-.12,0Zm-.57-2.44l-.21-4.77h1.66l-.21,4.77h-1.24Z"/></g></svg>