<svg xmlns="http://www.w3.org/2000/svg" viewBox="0 0 96 82"><defs><style>.cls-1{fill:none;stroke:#fff;stroke-miterlimit:10;stroke-width:2.35px;}.cls-2{fill:#89d4f2;}</style></defs><g id="textos"><path class="cls-1" d="M37.78,58.21H61.62a7.84,7.84,0,0,1,2.59.41V37A13.24,13.24,0,0,0,51,23.84H47.9A13.24,13.24,0,0,0,34.71,37V58.74A9.22,9.22,0,0,1,37.78,58.21Z"/><path class="cls-1" d="M69,69a7.87,7.87,0,0,0,.24-2.12h0A8.48,8.48,0,0,0,61,58.21H38.42a8.48,8.48,0,0,0-8.24,8.65h0A8.46,8.46,0,0,0,30.42,69Z"/><path class="cls-2" d="M49.14,50.21a2,2,0,0,1-2.06-2.12,2.09,2.09,0,1,1,2.06,2.12Zm-1.3-5.42-.53-10.65H51l-.53,10.65Z"/><path class="cls-2" d="M29.83,39.91H24.77a1.3,1.3,0,1,1,0-2.59h5.06a1.3,1.3,0,0,1,0,2.59Z"/><path class="cls-2" d="M74.68,39.91H69.62a1.3,1.3,0,0,1,0-2.59h5.06A1.3,1.3,0,0,1,76,38.61,1.4,1.4,0,0,1,74.68,39.91Z"/><path class="cls-2" d="M49.55,19.48a1.31,1.31,0,0,1-1.3-1.3V13.12a1.3,1.3,0,0,1,2.59,0v5.06A1.31,1.31,0,0,1,49.55,19.48Z"/><path class="cls-2" d="M64.68,24.6a1.23,1.23,0,0,1-.89-.35,1.36,1.36,0,0,1,0-1.83l3.59-3.59a1.29,1.29,0,0,1,1.83,1.83l-3.59,3.59A1.48,1.48,0,0,1,64.68,24.6Z"/><path class="cls-2" d="M34.07,24.6a1.23,1.23,0,0,1-.89-.35l-3.59-3.59a1.29,1.29,0,0,1,1.83-1.83L35,22.42a1.36,1.36,0,0,1,0,1.83A1.61,1.61,0,0,1,34.07,24.6Z"/></g></svg>