<svg xmlns="http://www.w3.org/2000/svg" viewBox="0 0 96 82"><defs><style>.cls-1{fill:#fff;}.cls-2{fill:#89d4f2;}.cls-3{fill:#34b3eb;}</style></defs><g id="guias"><path class="cls-1" d="M40.56,21.14c.21-2.22,2.07-4.55,4.3-4.61V15.47a2.89,2.89,0,0,1,1.76-5.19,2.94,2.94,0,0,1,2.91,2.9,2.88,2.88,0,0,1-1.4,2.47v.89c2.22.06,4,2.41,4.18,4.6Z"/><rect class="cls-2" x="38.25" y="40.46" width="13.77" height="0.69"/><rect class="cls-2" x="38.25" y="38.45" width="13.77" height="0.69"/><rect class="cls-2" x="38.25" y="42.48" width="9.16" height="0.69"/><rect class="cls-2" x="38.25" y="36.39" width="9.16" height="0.69"/><rect class="cls-2" x="48.59" y="42.48" width="3.43" height="0.69"/><rect class="cls-2" x="48.59" y="32.27" width="3.43" height="0.69"/><rect class="cls-2" x="38.25" y="44.46" width="13.77" height="0.69"/><rect class="cls-2" x="38.25" y="48.5" width="13.77" height="0.69"/><rect class="cls-2" x="43.42" y="46.48" width="8.6" height="0.69"/><rect class="cls-2" x="38.25" y="46.48" width="4" height="0.69"/><rect class="cls-2" x="38.25" y="50.52" width="2.3" height="0.69"/><rect class="cls-2" x="41.68" y="50.52" width="10.33" height="0.69"/><path class="cls-1" d="M56.38,53H55.33V31.62A1.63,1.63,0,0,0,53.67,30H36.6V28.6a2.87,2.87,0,0,1,2.86-2.87H56.38a2.87,2.87,0,0,1,2.86,2.87V50.15A2.87,2.87,0,0,1,56.38,53ZM37.81,28.76H53.63a2.87,2.87,0,0,1,2.87,2.86V51.77A1.63,1.63,0,0,0,58,50.11V28.64A1.63,1.63,0,0,0,56.34,27H39.46a1.63,1.63,0,0,0-1.65,1.66Z"/><path class="cls-1" d="M51.86,56H38.53a4.67,4.67,0,0,1-4.64-4.65v-18a4.67,4.67,0,0,1,4.64-4.64H51.86A4.67,4.67,0,0,1,56.5,33.4v18A4.65,4.65,0,0,1,51.86,56ZM38.53,30A3.43,3.43,0,0,0,35.1,33.4v18a3.43,3.43,0,0,0,3.43,3.43H51.86a3.43,3.43,0,0,0,3.43-3.43v-18A3.43,3.43,0,0,0,51.86,30Z"/><path class="cls-2" d="M44.63,68.48h0a22.45,22.45,0,0,1-4.08-.61.6.6,0,0,1,.29-1.17,24.41,24.41,0,0,0,3.91.57.62.62,0,0,1,.57.64A.66.66,0,0,1,44.63,68.48ZM55,67.11a.6.6,0,0,1-.56-.41.61.61,0,0,1,.36-.76,24.22,24.22,0,0,0,3.64-1.54.6.6,0,0,1,.56,1,26.34,26.34,0,0,1-3.79,1.62A.38.38,0,0,1,55,67.11ZM37.53,67a.38.38,0,0,1-.21,0,26.55,26.55,0,0,1-3.79-1.66.6.6,0,0,1-.24-.81.6.6,0,0,1,.8-.24,32,32,0,0,0,3.6,1.62.58.58,0,0,1,.36.76A.5.5,0,0,1,37.53,67Zm24-3.11a.51.51,0,0,1-.48-.29.59.59,0,0,1,.16-.84,25.93,25.93,0,0,0,3.07-2.47.6.6,0,1,1,.81.89,28.62,28.62,0,0,1-3.23,2.59A.46.46,0,0,1,61.5,63.88Zm-30.39-.2a.62.62,0,0,1-.37-.13,32.19,32.19,0,0,1-3.19-2.62.6.6,0,1,1,.85-.85,22.42,22.42,0,0,0,3,2.51.63.63,0,0,1,.16.84A.8.8,0,0,1,31.11,63.68Zm41.7-17.77h-.08a.62.62,0,0,1-.53-.68,26,26,0,0,0,.28-4v-.08a.61.61,0,0,1,1.22,0v.08a28.6,28.6,0,0,1-.33,4.12A.6.6,0,0,1,72.81,45.91Zm-52.76-.36a.6.6,0,0,1-.61-.52,29.78,29.78,0,0,1-.24-3.76v-.36a.61.61,0,1,1,1.21,0v.36a26.62,26.62,0,0,0,.24,3.59.63.63,0,0,1-.52.69Zm52.84-7a.66.66,0,0,1-.61-.53,25.46,25.46,0,0,0-.76-3.87.63.63,0,0,1,.4-.77.65.65,0,0,1,.77.4,28,28,0,0,1,.8,4,.63.63,0,0,1-.52.69S72.93,38.57,72.89,38.57Zm-52.84-.29H20a.62.62,0,0,1-.53-.68,32.57,32.57,0,0,1,.85-4,.62.62,0,0,1,.77-.4.62.62,0,0,1,.4.76,25,25,0,0,0-.81,3.88A.6.6,0,0,1,20.05,38.28Zm47.27-13a.66.66,0,0,1-.49-.25,29.21,29.21,0,0,0-2.66-2.9.6.6,0,1,1,.81-.89,25,25,0,0,1,2.78,3,.62.62,0,0,1-.08.84A.38.38,0,0,1,67.32,25.33Zm-41.58-.25a.61.61,0,0,1-.37-.12.63.63,0,0,1-.08-.85,29.39,29.39,0,0,1,2.83-3,.6.6,0,0,1,.81.89,25.21,25.21,0,0,0-2.71,2.86A.66.66,0,0,1,25.74,25.08Zm36.37-4.76a.65.65,0,0,1-.36-.12,25.92,25.92,0,0,0-3.35-2.06.6.6,0,0,1-.25-.81.61.61,0,0,1,.81-.24,28.6,28.6,0,0,1,3.51,2.18.58.58,0,0,1,.12.85A.74.74,0,0,1,62.11,20.32ZM31,20.12a.58.58,0,0,1-.49-.24A.6.6,0,0,1,30.7,19a27.08,27.08,0,0,1,3.56-2.14.58.58,0,0,1,.8.28.59.59,0,0,1-.28.81,34,34,0,0,0-3.39,2A.65.65,0,0,1,31,20.12Zm24.66-3.23a.36.36,0,0,1-.2,0,27.71,27.71,0,0,0-3.8-1.09.62.62,0,0,1,.25-1.21,25.17,25.17,0,0,1,4,1.13.59.59,0,0,1,.37.76A.6.6,0,0,1,55.69,16.89Zm-18.2-.12a.6.6,0,0,1-.57-.41.58.58,0,0,1,.36-.76,26,26,0,0,1,4-1.09A.63.63,0,0,1,42,15a.64.64,0,0,1-.49.73,23.08,23.08,0,0,0-3.79,1Z"/><path class="cls-3" d="M46.49,19.58a.89.89,0,0,1-.93-.93.94.94,0,1,1,1.87,0,.87.87,0,0,1-.94.93Zm-.57-2.44-.2-4.76h1.66l-.21,4.76Z"/><path class="cls-1" d="M15.33,35.84c.21-2.22,2.07-4.55,4.3-4.6V30.17A2.89,2.89,0,0,1,21.39,25a2.94,2.94,0,0,1,2.91,2.9,2.88,2.88,0,0,1-1.4,2.47v.9c2.22.05,4,2.4,4.19,4.59Z"/><path class="cls-3" d="M21.26,34.28a.93.93,0,1,1,.94-.93.87.87,0,0,1-.94.93Zm-.57-2.43-.2-4.77h1.66l-.21,4.77Z"/><path class="cls-1" d="M14.73,58.69c.21-2.23,2.08-4.55,4.3-4.61V53a2.9,2.9,0,0,1,1.77-5.2,2.94,2.94,0,0,1,2.9,2.91,2.89,2.89,0,0,1-1.39,2.47v.89c2.23.06,4,2.41,4.19,4.6Z"/><path class="cls-3" d="M20.67,57.13a.94.94,0,1,1,.93-.94.87.87,0,0,1-.93.94Zm-.57-2.44-.21-4.77h1.66l-.21,4.77Z"/><path class="cls-1" d="M41,70.81c.2-2.23,2.07-4.56,4.3-4.61V65.13A2.9,2.9,0,0,1,47,59.94a2.93,2.93,0,0,1,2.9,2.91,2.89,2.89,0,0,1-1.39,2.47v.89c2.23.06,4,2.4,4.19,4.6Z"/><path class="cls-3" d="M46.89,69.24a.93.93,0,1,1,.93-.93.86.86,0,0,1-.93.93Zm-.57-2.43L46.11,62h1.66l-.2,4.77Z"/><path class="cls-1" d="M65,58.89c.21-2.23,2.08-4.56,4.3-4.61V53.21a2.86,2.86,0,0,1-1.13-2.28A2.9,2.9,0,0,1,71.06,48,2.94,2.94,0,0,1,74,50.93a2.89,2.89,0,0,1-1.39,2.47v.89c2.23.06,4,2.4,4.19,4.6Z"/><path class="cls-3" d="M70.93,57.33a.94.94,0,1,1,.93-.94.87.87,0,0,1-.93.94Zm-.57-2.44-.21-4.77h1.66l-.21,4.77Z"/><path class="cls-1" d="M64,33.26c.21-2.23,2.07-4.55,4.3-4.61V27.59a2.89,2.89,0,0,1,1.76-5.19A2.93,2.93,0,0,1,73,25.3a2.88,2.88,0,0,1-1.4,2.47v.89c2.22.06,4,2.41,4.19,4.6Z"/><path class="cls-3" d="M69.94,31.7a.94.94,0,1,1,.93-.93.87.87,0,0,1-.93.93Zm-.57-2.44-.21-4.77h1.66l-.21,4.77Z"/></g></svg>