<?xml version="1.0" encoding="UTF-8"?><svg id="Capa_1" xmlns="http://www.w3.org/2000/svg" xmlns:xlink="http://www.w3.org/1999/xlink" viewBox="0 0 64 64"><defs><style>.cls-1{fill:#6d4162;}.cls-2,.cls-3{fill:none;}.cls-3{stroke:#f8f8ff;stroke-miterlimit:10;stroke-width:2.35px;}</style><clipPath id="clippath"><rect class="cls-2" x="-479.21" y="697.8" width="1920.69" height="846.91"/></clipPath></defs><g id="textos"><path class="cls-3" d="m20.1,49.16h23.84c.88,0,1.76.13,2.59.41v-21.62c-.04-7.27-5.94-13.14-13.21-13.16h-3.1c-7.26.03-13.15,5.9-13.19,13.16v21.74c.99-.35,2.02-.53,3.07-.53Z"/><path class="cls-3" d="m51.32,59.95c.18-.69.26-1.41.24-2.12h0c.11-4.66-3.58-8.54-8.24-8.67h-22.58c-4.66.13-8.34,3.99-8.24,8.65h0c-.01.72.07,1.44.24,2.14h38.58Z"/><path class="cls-1" d="m31.46,41.16c-1.1.04-2.03-.83-2.06-1.94,0-.06,0-.12,0-.18.02-1.15.97-2.08,2.12-2.06,1.15.02,2.08.97,2.06,2.12-.02,1.15-.97,2.08-2.12,2.06Zm-1.3-5.42l-.53-10.65h3.69l-.53,10.65h-2.63Z"/><path class="cls-1" d="m12.15,30.86h-5.06c-.72.06-1.35-.47-1.41-1.18-.06-.72.47-1.35,1.18-1.41.08,0,.15,0,.23,0h5.06c.72.06,1.24.69,1.18,1.41-.06.63-.55,1.13-1.18,1.18Z"/><path class="cls-1" d="m57,30.86h-5.06c-.72-.06-1.24-.69-1.18-1.41.06-.63.55-1.13,1.18-1.18h5.06c.72-.01,1.31.56,1.32,1.28,0,0,0,0,0,.01-.05.7-.62,1.26-1.32,1.3Z"/><path class="cls-1" d="m31.87,10.43c-.72,0-1.29-.58-1.3-1.3v-5.06c.06-.72.69-1.24,1.41-1.18.63.06,1.13.55,1.18,1.18v5.06c0,.71-.58,1.29-1.29,1.3Z"/><path class="cls-1" d="m47,15.55c-.33,0-.65-.12-.89-.35-.47-.52-.47-1.31,0-1.83l3.59-3.59c.51-.51,1.32-.51,1.83,0,.51.51.51,1.32,0,1.83h0l-3.59,3.59c-.26.22-.6.35-.94.35Z"/><path class="cls-1" d="m16.39,15.55c-.33,0-.65-.12-.89-.35l-3.59-3.59c-.51-.51-.51-1.32,0-1.83s1.32-.51,1.83,0l3.58,3.59c.47.52.47,1.31,0,1.83-.27.21-.59.33-.93.35Z"/></g></svg>