<svg xmlns="http://www.w3.org/2000/svg" viewBox="0 0 96 82"><defs><style>.cls-1{fill:#89d4f2;}.cls-2{fill:#fff;}.cls-3{fill:#34b3eb;}</style></defs><g id="guias"><path class="cls-1" d="M63.89,60.8a2,2,0,0,1-.48-.08,1.22,1.22,0,0,1-.64-1.56l1.87-4.37a1.19,1.19,0,1,1,2.19.91L65,60.08A1.16,1.16,0,0,1,63.89,60.8Zm-2.79-.4a1.13,1.13,0,0,1-.83-.36l-3.39-3.38A1.19,1.19,0,1,1,58.56,55l3.38,3.39a1.15,1.15,0,0,1,0,1.67A1.22,1.22,0,0,1,61.1,60.4Zm-6.76-6.73a1.15,1.15,0,0,1-.84-.36l-3.38-3.38a1.18,1.18,0,0,1,1.67-1.67l3.38,3.38a1.2,1.2,0,0,1-.83,2ZM67.59,52a2,2,0,0,1-.48-.08,1.2,1.2,0,0,1-.63-1.55L68.35,46a1.2,1.2,0,0,1,1.55-.64,1.22,1.22,0,0,1,.64,1.56l-1.88,4.37A1.11,1.11,0,0,1,67.59,52ZM17.2,49.93a1.11,1.11,0,0,1-.83-.36,1.15,1.15,0,0,1,0-1.67l3.38-3.38a1.18,1.18,0,0,1,1.67,1.67L18,49.61A1.38,1.38,0,0,1,17.2,49.93Zm30.37-3a1.15,1.15,0,0,1-.84-.36l-3.38-3.39A1.18,1.18,0,0,1,45,41.49l3.39,3.39a1.17,1.17,0,0,1,0,1.67A1.09,1.09,0,0,1,47.57,46.91ZM71.33,43.2a2,2,0,0,1-.48-.08,1.2,1.2,0,0,1-.63-1.55l1.87-4.38a1.19,1.19,0,0,1,2.19.92l-1.87,4.38A1.14,1.14,0,0,1,71.33,43.2Zm-47.4,0a1.18,1.18,0,0,1-.84-.35,1.16,1.16,0,0,1,0-1.68l3.38-3.38a1.18,1.18,0,0,1,1.68,1.67l-3.39,3.39A1.09,1.09,0,0,1,23.93,43.2ZM40.8,40.14a1.15,1.15,0,0,1-.83-.36L36.58,36.4a1.18,1.18,0,0,1,1.68-1.67l3.38,3.38a1.15,1.15,0,0,1,0,1.67A1.09,1.09,0,0,1,40.8,40.14Zm-10.11-3.7a1.2,1.2,0,0,1-.83-2l3.22-3.23a1.16,1.16,0,0,1,1.67,0l.16.16a1.15,1.15,0,0,1,0,1.67,1,1,0,0,1-.67.32L31.53,36A1.06,1.06,0,0,1,30.69,36.44Zm44.38-2a1.85,1.85,0,0,1-.47-.08A1.2,1.2,0,0,1,74,32.78l1.87-4.38a1.19,1.19,0,1,1,2.19.91l-1.87,4.38A1.22,1.22,0,0,1,75.07,34.41Z"/><circle class="cls-2" cx="33.32" cy="32.42" r="4.22"/><path class="cls-2" d="M33.32,37.43a5,5,0,1,1,5-5A5,5,0,0,1,33.32,37.43Zm0-8.44a3.43,3.43,0,1,0,3.42,3.43A3.45,3.45,0,0,0,33.32,29Z"/><circle class="cls-2" cx="63.25" cy="60" r="5.97"/><path class="cls-2" d="M63.25,66.77A6.77,6.77,0,1,1,70,60,6.76,6.76,0,0,1,63.25,66.77Zm0-11.94A5.17,5.17,0,1,0,68.43,60,5.16,5.16,0,0,0,63.25,54.83Z"/><path class="cls-2" d="M64.7,35.64c.4-4.39,4.08-9,8.48-9.09v-2.1a5.71,5.71,0,0,1,3.49-10.24,5.78,5.78,0,0,1,5.72,5.72,5.71,5.71,0,0,1-2.74,4.88v1.76c4.4.11,7.86,4.75,8.27,9.07Z"/><path class="cls-3" d="M76.4,32.56a1.84,1.84,0,1,1,1.84-1.84,1.71,1.71,0,0,1-1.84,1.84Zm-1.12-4.81-.41-9.4h3.27l-.41,9.4Z"/><path class="cls-2" d="M6.52,64.62c.41-4.39,4.09-9,8.48-9.09v-2.1a5.65,5.65,0,0,1-2.24-4.51,5.71,5.71,0,0,1,5.72-5.73,5.79,5.79,0,0,1,5.73,5.73,5.69,5.69,0,0,1-2.75,4.87v1.76c4.39.12,7.86,4.75,8.26,9.07Z"/><path class="cls-3" d="M18.23,61.54a1.84,1.84,0,1,1,1.84-1.84,1.72,1.72,0,0,1-1.84,1.84Zm-1.13-4.8-.4-9.41H20l-.41,9.41Z"/></g></svg>