<svg xmlns="http://www.w3.org/2000/svg" viewBox="0 0 96 82"><defs><style>.cls-1{fill:#fff;}.cls-2{fill:#89d4f2;}</style></defs><g id="guias"><path class="cls-1" d="M57.25,13.13A21.83,21.83,0,0,0,39,46.89l-15,15a5.27,5.27,0,0,0,7.46,7.45L44,56.21a1.41,1.41,0,0,0-2-2L29.46,67.33A2.46,2.46,0,1,1,26,63.85L40.67,49.16a21.83,21.83,0,1,0,16.58-36Zm0,41.15A19.31,19.31,0,1,1,76.55,35,19.33,19.33,0,0,1,57.25,54.28Z"/><rect class="cls-2" x="49.37" y="33.68" width="11.65" height="0.58"/><rect class="cls-2" x="49.37" y="31.97" width="11.65" height="0.58"/><rect class="cls-2" x="49.37" y="35.38" width="7.75" height="0.58"/><rect class="cls-2" x="49.37" y="30.22" width="7.75" height="0.58"/><rect class="cls-2" x="58.12" y="35.38" width="2.9" height="0.58"/><rect class="cls-2" x="58.12" y="26.74" width="2.9" height="0.58"/><rect class="cls-2" x="49.37" y="37.06" width="11.65" height="0.58"/><rect class="cls-2" x="49.37" y="40.47" width="11.65" height="0.58"/><rect class="cls-2" x="53.75" y="38.76" width="7.28" height="0.58"/><rect class="cls-2" x="49.37" y="38.76" width="3.38" height="0.58"/><rect class="cls-2" x="49.37" y="42.18" width="1.95" height="0.58"/><rect class="cls-2" x="52.28" y="42.18" width="8.74" height="0.58"/><path class="cls-1" d="M64.71,44.26h-.89V26.19a1.39,1.39,0,0,0-1.4-1.4H48V23.63a2.44,2.44,0,0,1,2.43-2.42H64.71a2.44,2.44,0,0,1,2.43,2.42V41.87A2.43,2.43,0,0,1,64.71,44.26ZM49,23.77H62.39a2.43,2.43,0,0,1,2.42,2.42V43.24a1.39,1.39,0,0,0,1.27-1.4V23.67a1.39,1.39,0,0,0-1.4-1.4H50.4a1.38,1.38,0,0,0-1.4,1.4Z"/><path class="cls-1" d="M60.88,46.83H49.61a4,4,0,0,1-3.93-3.93V27.7a4,4,0,0,1,3.93-3.93H60.88a4,4,0,0,1,3.93,3.93V42.9A3.93,3.93,0,0,1,60.88,46.83Zm-11.27-22a2.9,2.9,0,0,0-2.9,2.91V42.9a2.9,2.9,0,0,0,2.9,2.9H60.88a2.9,2.9,0,0,0,2.91-2.9V27.7a2.91,2.91,0,0,0-2.91-2.91Z"/></g></svg>