<svg xmlns="http://www.w3.org/2000/svg" viewBox="0 0 96 82"><defs><style>.cls-1{fill:#89d4f2;}.cls-2{fill:#fff;}</style></defs><g id="guias"><path class="cls-1" d="M65.37,60.28a1.93,1.93,0,0,1-.47-.08,1.19,1.19,0,0,1-.63-1.54l1.85-4.34a1.18,1.18,0,1,1,2.17.91l-1.85,4.34A1.17,1.17,0,0,1,65.37,60.28Zm-2.76-.4a1.12,1.12,0,0,1-.83-.35l-3.35-3.36a1.17,1.17,0,1,1,1.65-1.65l3.36,3.35a1.15,1.15,0,0,1,0,1.66A1.18,1.18,0,0,1,62.61,59.88ZM55.9,53.21a1.16,1.16,0,0,1-.83-.35L51.71,49.5a1.17,1.17,0,0,1,1.66-1.66l3.36,3.36a1.15,1.15,0,0,1,0,1.66A1.18,1.18,0,0,1,55.9,53.21ZM69,51.56a2,2,0,0,1-.47-.08,1.19,1.19,0,0,1-.63-1.54l1.85-4.34a1.17,1.17,0,1,1,2.17.9l-1.85,4.34A1.12,1.12,0,0,1,69,51.56ZM49.19,46.5a1.16,1.16,0,0,1-.83-.35L45,42.79a1.17,1.17,0,0,1,1.66-1.66L50,44.49a1.15,1.15,0,0,1,0,1.66A1.11,1.11,0,0,1,49.19,46.5Zm23.56-3.67a2,2,0,0,1-.47-.08,1.19,1.19,0,0,1-.63-1.54l1.85-4.34a1.18,1.18,0,0,1,2.17.91l-1.85,4.34A1.11,1.11,0,0,1,72.75,42.83Zm-47,0a1.18,1.18,0,0,1-.83-.35,1.15,1.15,0,0,1,0-1.66l3.36-3.36a1.17,1.17,0,1,1,1.66,1.66l-3.36,3.36A1.09,1.09,0,0,1,25.74,42.83Zm16.74-3a1.16,1.16,0,0,1-.83-.35l-3.36-3.36A1.17,1.17,0,0,1,40,34.42l3.36,3.36a1.15,1.15,0,0,1,0,1.66A1.11,1.11,0,0,1,42.48,39.79Zm-10-3.67a1.18,1.18,0,0,1-.83-.35,1.15,1.15,0,0,1,0-1.66l3.2-3.2a1.15,1.15,0,0,1,1.66,0l.16.16a1.15,1.15,0,0,1,0,1.66A1,1,0,0,1,36,33l-2.69,2.69A1.06,1.06,0,0,1,32.45,36.12Z"/><circle class="cls-2" cx="35.06" cy="32.14" r="4.18"/><path class="cls-2" d="M35.06,37.11a5,5,0,1,1,5-5A5,5,0,0,1,35.06,37.11Zm0-8.37a3.4,3.4,0,1,0,3.39,3.4A3.42,3.42,0,0,0,35.06,28.74Z"/><circle class="cls-2" cx="64.74" cy="59.49" r="5.92"/><path class="cls-2" d="M64.74,66.2a6.71,6.71,0,1,1,6.71-6.71A6.7,6.7,0,0,1,64.74,66.2Zm0-11.84a5.13,5.13,0,1,0,5.13,5.13A5.12,5.12,0,0,0,64.74,54.36Z"/><rect class="cls-1" x="74.09" y="23.23" width="9.25" height="0.46"/><rect class="cls-1" x="74.09" y="21.87" width="9.25" height="0.46"/><rect class="cls-1" x="74.09" y="24.58" width="6.16" height="0.46"/><rect class="cls-1" x="74.09" y="20.49" width="6.16" height="0.46"/><rect class="cls-1" x="81.04" y="24.58" width="2.31" height="0.46"/><rect class="cls-1" x="81.04" y="17.72" width="2.31" height="0.46"/><rect class="cls-1" x="74.09" y="25.91" width="9.25" height="0.46"/><rect class="cls-1" x="74.09" y="28.63" width="9.25" height="0.46"/><rect class="cls-1" x="77.56" y="27.27" width="5.78" height="0.46"/><rect class="cls-1" x="74.09" y="27.27" width="2.69" height="0.46"/><rect class="cls-1" x="74.09" y="29.98" width="1.55" height="0.46"/><rect class="cls-1" x="76.4" y="29.98" width="6.94" height="0.46"/><path class="cls-2" d="M86.27,31.64h-.7V17.29a1.1,1.1,0,0,0-1.12-1.11H73v-.93a1.94,1.94,0,0,1,1.93-1.92H86.27a1.94,1.94,0,0,1,1.93,1.92V29.74A1.93,1.93,0,0,1,86.27,31.64ZM73.79,15.36H84.43a1.94,1.94,0,0,1,1.92,1.93V30.82a1.1,1.1,0,0,0,1-1.11V15.28a1.1,1.1,0,0,0-1.12-1.11H74.91a1.1,1.1,0,0,0-1.12,1.11Z"/><path class="cls-2" d="M83.23,33.67h-9a3.14,3.14,0,0,1-3.12-3.12V18.48a3.14,3.14,0,0,1,3.12-3.12h9a3.14,3.14,0,0,1,3.12,3.12V30.55A3.12,3.12,0,0,1,83.23,33.67Zm-9-17.49a2.3,2.3,0,0,0-2.3,2.3V30.55a2.3,2.3,0,0,0,2.3,2.31h9a2.3,2.3,0,0,0,2.31-2.31V18.48a2.3,2.3,0,0,0-2.31-2.3Z"/><rect class="cls-1" x="10.65" y="54.64" width="9.25" height="0.46"/><rect class="cls-1" x="10.65" y="53.28" width="9.25" height="0.46"/><rect class="cls-1" x="10.65" y="56" width="6.16" height="0.46"/><rect class="cls-1" x="10.65" y="51.9" width="6.16" height="0.46"/><rect class="cls-1" x="17.59" y="56" width="2.31" height="0.46"/><rect class="cls-1" x="17.59" y="49.13" width="2.31" height="0.46"/><rect class="cls-1" x="10.65" y="57.33" width="9.25" height="0.46"/><rect class="cls-1" x="10.65" y="60.04" width="9.25" height="0.46"/><rect class="cls-1" x="14.12" y="58.68" width="5.78" height="0.46"/><rect class="cls-1" x="10.65" y="58.68" width="2.69" height="0.46"/><rect class="cls-1" x="10.65" y="61.39" width="1.55" height="0.46"/><rect class="cls-1" x="12.96" y="61.39" width="6.94" height="0.46"/><path class="cls-2" d="M22.83,63.05h-.71V48.7A1.1,1.1,0,0,0,21,47.59H9.54v-.92a1.94,1.94,0,0,1,1.92-1.93H22.83a1.94,1.94,0,0,1,1.93,1.93V61.15A1.93,1.93,0,0,1,22.83,63.05ZM10.35,46.77H21a1.94,1.94,0,0,1,1.92,1.93V62.24a1.1,1.1,0,0,0,1-1.12V46.69a1.1,1.1,0,0,0-1.11-1.11H11.46a1.1,1.1,0,0,0-1.11,1.11Z"/><path class="cls-2" d="M19.79,65.08H10.84A3.14,3.14,0,0,1,7.72,62V49.89a3.14,3.14,0,0,1,3.12-3.12h9a3.14,3.14,0,0,1,3.12,3.12V62A3.12,3.12,0,0,1,19.79,65.08ZM10.84,47.59a2.3,2.3,0,0,0-2.3,2.3V62a2.3,2.3,0,0,0,2.3,2.31h9A2.3,2.3,0,0,0,22.1,62V49.89a2.3,2.3,0,0,0-2.31-2.3Z"/></g></svg>