<?xml version="1.0" encoding="utf-8"?>
<!-- Generator: Adobe Illustrator 26.0.3, SVG Export Plug-In . SVG Version: 6.00 Build 0)  -->
<svg version="1.1" id="Capa_1" xmlns="http://www.w3.org/2000/svg" xmlns:xlink="http://www.w3.org/1999/xlink" x="0px" y="0px"
	 viewBox="0 0 1137.1 257.9" style="enable-background:new 0 0 1137.1 257.9;" xml:space="preserve">
<style type="text/css">
	.st0{opacity:0.9;}
	.st1{fill:#89D4F2;}
	.st2{fill:#CDD7DB;}
	.st3{fill:#39B1E6;}
	.st4{fill:#39D5FF;}
	.st5{fill:#FFFFFF;}
	.st6{opacity:0.71;}
</style>
<g id="menu">
	<g class="st0">
		<path class="st1" d="M756.7,230.8H576.1c-2.8,0-5.1-2.3-5.1-5.1V123c0-2.8,2.3-5.1,5.1-5.1h180.6c2.8,0,5.1,2.3,5.1,5.1v102.7
			C761.8,228.5,759.5,230.8,756.7,230.8L756.7,230.8z M576.1,122.8c-0.1,0-0.2,0.1-0.2,0.2v102.6c0,0.1,0.1,0.2,0.2,0.2h180.6
			c0.1,0,0.2-0.1,0.2-0.2V123c0-0.1-0.1-0.2-0.2-0.2H576.1z"/>
		<rect x="574.8" y="144.5" class="st1" width="185.3" height="4.9"/>
		<path class="st2" d="M606.5,167.3c0.1,2.1-0.7,4.2-2.3,5.6c-1.9,1.4-4.1,2.1-6.5,1.9h-2v8H591v-22.5h7.2c2.2-0.2,4.4,0.5,6.2,1.8
			C605.9,163.3,606.7,165.3,606.5,167.3z M595.7,170.8h1.6c1.2,0.1,2.3-0.2,3.3-0.9c0.7-0.6,1.1-1.6,1.1-2.5
			c0.1-0.9-0.3-1.8-0.9-2.5c-0.8-0.6-1.8-0.9-2.9-0.8h-2.2L595.7,170.8z"/>
		<path class="st2" d="M654.1,182.8H648l-9.8-17h-0.1c0.2,3,0.3,5.1,0.3,6.4v10.6h-4.3v-22.5h6l9.8,16.9h0.1c-0.2-2.9-0.2-5-0.2-6.2
			v-10.7h4.3V182.8z"/>
		<path class="st3" d="M614.9,183.1v-4.3c3.6,0.1,5.6-0.1,6.5-0.4c2.5-0.6,4.4-2.7,4.7-5.3c0.3-1.6,0.2-3.2-0.2-4.7
			c-0.6-2.5-2.6-4.3-5.1-4.7c-0.8-0.1-1.5-0.2-2.3-0.2c-3.2,0-6.5,0-9.7,0h-0.4v-3.8h9.5c1.9,0,3.8,0.3,5.5,0.9c2.8,1,5,3.3,5.7,6.1
			c1,3.1,0.9,6.5-0.1,9.6s-3.6,5.5-6.9,6.2C619.7,183.1,617.3,183.2,614.9,183.1z"/>
		<path class="st3" d="M615,170.7c0-1,0-2,0-3c0-0.3,0.1-0.4,0.3-0.3c1,0,2.6,0,3.6,0.1c1.5,0.1,2.7,1.4,2.6,2.9c0,0.1,0,0.1,0,0.2
			c0.1,1-0.3,1.9-0.9,2.6c-0.6,0.6-1.5,0.9-2.3,0.9c-0.8,0.1-2.2,0-3,0c-0.2,0-0.3-0.1-0.3-0.3L615,170.7z"/>
		<polygon class="st4" points="167.9,146.4 149.8,146.4 166.2,162.8 112.2,162.8 112.2,172.5 166.2,172.5 149.8,188.9 167.9,188.9 
			189.1,167.7 		"/>
		<path class="st1" d="M1076.7,175c-1.3,4.4,0.9,6.7,4.7,8.4c1.8,0.9,3.5,1.9,5.1,3c1.8,1,2.2,2,1.6,3.1c-0.8,1.3-1.8,1.4-3.6,0.4
			c-2.8-1.7-5.6-3.3-8.4-5.1c-0.8-0.6-1.9-0.6-2.8,0c-2.8,1.8-5.8,3.5-8.7,5.2c-1.5,0.9-2.6,0.8-3.3-0.5s-0.2-2.2,1.3-3.1
			c2.9-1.7,5.9-3.5,8.8-5.2c0.8-0.4,1.3-1.3,1.2-2.2c-0.1-2.7,0-5.5,0-8.2c0-1.8,0.7-2.8,2-2.8s2,0.9,2,2.7L1076.7,175z"/>
		<path class="st1" d="M1074,169.7c-15.1,0-27.4-12.3-27.4-27.4s12.3-27.4,27.4-27.4s27.4,12.3,27.4,27.4l0,0
			C1101.4,157.5,1089.1,169.7,1074,169.7z M1074,118.8c-13,0-23.5,10.5-23.5,23.5s10.5,23.5,23.5,23.5s23.5-10.5,23.5-23.5
			S1087,118.8,1074,118.8L1074,118.8z"/>
		<path class="st1" d="M1109.7,228.1c-15.1,0-27.4-12.3-27.4-27.4c0-15.1,12.3-27.4,27.4-27.4s27.4,12.3,27.4,27.4
			S1124.8,228.1,1109.7,228.1z M1109.7,177.2c-13,0-23.5,10.5-23.5,23.5s10.5,23.5,23.5,23.5s23.5-10.5,23.5-23.5l0,0
			C1133.2,187.7,1122.7,177.2,1109.7,177.2z"/>
		<path class="st1" d="M1040,228.1c-15.1,0-27.4-12.3-27.4-27.4s12.3-27.4,27.4-27.4s27.4,12.3,27.4,27.4S1055.1,228.1,1040,228.1z
			 M1040,177.2c-13,0-23.5,10.5-23.5,23.5s10.5,23.5,23.5,23.5s23.5-10.5,23.5-23.5l0,0C1063.5,187.7,1053,177.2,1040,177.2z"/>
		<path class="st5" d="M1052.2,244.3v7.7c0,0.8-0.2,1.6-0.6,2.3s-1,1.2-1.7,1.5c-0.8,0.4-1.7,0.6-2.6,0.5c-1.3,0.1-2.6-0.3-3.6-1.2
			c-0.9-0.8-1.3-2-1.3-3.2v-7.7h2.5v7.3c-0.1,0.7,0.1,1.4,0.6,2c0.5,0.5,1.2,0.7,1.8,0.6c0.7,0.1,1.3-0.2,1.8-0.6
			c0.4-0.6,0.6-1.3,0.6-2v-7.3L1052.2,244.3z"/>
		<path class="st5" d="M1061.2,253.5c0,0.8-0.3,1.6-1,2.1c-0.9,0.5-1.9,0.8-2.9,0.7c-0.6,0-1.1,0-1.7-0.1c-0.4-0.1-0.9-0.2-1.3-0.4
			v-2c0.5,0.2,1,0.4,1.6,0.5c0.5,0.1,1,0.2,1.5,0.2c0.9,0,1.3-0.3,1.3-0.8c0-0.2-0.1-0.3-0.2-0.5c-0.2-0.2-0.4-0.3-0.6-0.4
			c-0.3-0.1-0.7-0.3-1.2-0.5s-1.1-0.5-1.5-0.8c-0.3-0.2-0.6-0.5-0.7-0.9c-0.2-0.4-0.2-0.8-0.2-1.2c0-0.7,0.3-1.5,0.9-1.9
			c0.8-0.5,1.7-0.7,2.7-0.7c1.1,0,2.2,0.2,3.2,0.7l-0.8,1.8c-0.4-0.2-0.8-0.3-1.3-0.5c-0.4-0.1-0.8-0.2-1.2-0.2
			c-0.7,0-1.1,0.2-1.1,0.6c0,0.2,0.1,0.5,0.3,0.6c0.5,0.3,1,0.5,1.6,0.7s1.1,0.5,1.6,0.8c0.3,0.2,0.6,0.5,0.7,0.9
			C1061.1,252.7,1061.2,253.1,1061.2,253.5z"/>
		<path class="st5" d="M1069.6,256.2l-0.3-1.2h-0.1c-0.3,0.4-0.7,0.8-1.1,1c-0.5,0.2-1.1,0.4-1.7,0.4c-0.9,0.1-1.8-0.2-2.4-0.9
			c-0.6-0.7-0.9-1.6-0.8-2.5v-5.9h2.5v5.3c0,0.5,0.1,1,0.4,1.4c0.3,0.3,0.7,0.5,1.1,0.5c0.6,0.1,1.2-0.2,1.5-0.7
			c0.4-0.7,0.5-1.5,0.5-2.3V247h2.5v9.1L1069.6,256.2z"/>
		<path class="st5" d="M1079.9,256.2l-0.5-1.2h-0.1c-0.3,0.5-0.8,0.8-1.3,1.1c-0.6,0.2-1.1,0.3-1.7,0.3c-0.8,0-1.5-0.2-2.1-0.7
			c-0.5-0.6-0.8-1.3-0.8-2.1c-0.1-0.8,0.3-1.7,1-2.1c0.9-0.5,2-0.8,3.1-0.8h1.6v-0.4c0.1-0.7-0.4-1.3-1.1-1.4c-0.1,0-0.2,0-0.3,0
			c-0.9,0-1.8,0.3-2.6,0.7l-0.8-1.7c1.1-0.6,2.3-0.8,3.5-0.8c1-0.1,2,0.2,2.8,0.8c0.7,0.6,1.1,1.5,1,2.4v6.1h-1.7V256.2z
			 M1079.2,252h-1c-0.6,0-1.1,0.1-1.6,0.4c-0.4,0.2-0.6,0.7-0.5,1.1c0,0.7,0.4,1,1.2,1c0.5,0,1-0.1,1.4-0.5c0.4-0.3,0.5-0.8,0.5-1.3
			V252z"/>
		<path class="st5" d="M1089.3,246.9c0.3,0,0.6,0,0.8,0.1l-0.2,2.3c-0.2-0.1-0.5-0.1-0.7-0.1c-0.7,0-1.3,0.2-1.8,0.6
			c-0.5,0.4-0.7,1.1-0.7,1.7v4.6h-2.5V247h1.9l0.4,1.5h0.1c0.3-0.5,0.7-0.9,1.1-1.2C1088.2,247.1,1088.7,246.9,1089.3,246.9z"/>
		<path class="st5" d="M1091.7,244.7c0-0.8,0.4-1.2,1.3-1.2s1.3,0.4,1.3,1.2c0,0.3-0.1,0.7-0.3,0.9c-0.3,0.2-0.6,0.3-1,0.3
			C1092.1,245.9,1091.7,245.5,1091.7,244.7z M1094.2,256.2h-2.5v-9.1h2.5V256.2z"/>
		<path class="st5" d="M1105.1,251.6c0.1,1.3-0.3,2.5-1.2,3.5c-0.9,0.9-2,1.3-3.3,1.2c-0.8,0-1.6-0.2-2.3-0.6
			c-0.7-0.4-1.2-1-1.5-1.6c-0.4-0.8-0.6-1.6-0.5-2.5c-0.1-1.3,0.3-2.5,1.2-3.5c0.9-0.9,2.1-1.3,3.3-1.2c0.8,0,1.6,0.2,2.3,0.6
			c0.7,0.4,1.2,1,1.5,1.6C1105,249.9,1105.1,250.7,1105.1,251.6z M1098.8,251.6c0,0.7,0.1,1.4,0.4,2c0.3,0.5,0.9,0.7,1.4,0.7
			c0.6,0,1.1-0.2,1.4-0.7c0.3-0.6,0.5-1.3,0.4-2c0-0.7-0.1-1.4-0.4-2c-0.7-0.8-1.8-0.9-2.6-0.2c-0.1,0.1-0.2,0.2-0.2,0.2
			C1098.9,250.2,1098.8,250.9,1098.8,251.6z"/>
		<path class="st5" d="M1113.5,253.5c0,0.8-0.3,1.6-1,2.1c-0.9,0.5-1.9,0.8-2.9,0.7c-0.6,0-1.1,0-1.7-0.1c-0.4-0.1-0.9-0.2-1.3-0.4
			v-2c0.5,0.2,1,0.4,1.6,0.5c0.5,0.1,1,0.2,1.5,0.2c0.9,0,1.4-0.3,1.4-0.8c0-0.2-0.1-0.3-0.2-0.5c-0.2-0.2-0.4-0.3-0.6-0.4
			c-0.3-0.1-0.7-0.3-1.2-0.5s-1.1-0.5-1.6-0.8c-0.3-0.2-0.5-0.5-0.7-0.9s-0.2-0.8-0.2-1.2c0-0.7,0.3-1.5,0.9-1.9
			c0.8-0.5,1.7-0.7,2.7-0.7c1.1,0,2.2,0.2,3.2,0.7l-0.8,1.8c-0.4-0.2-0.8-0.3-1.3-0.5c-0.4-0.1-0.8-0.2-1.2-0.2
			c-0.7,0-1.1,0.2-1.1,0.6c0,0.2,0.1,0.5,0.3,0.6c0.5,0.3,1,0.5,1.6,0.7s1.1,0.5,1.6,0.8c0.3,0.2,0.6,0.5,0.7,0.9
			C1113.4,252.7,1113.5,253.1,1113.5,253.5z"/>
		<path class="st1" d="M101.3,191.6c0-2.1-0.3-2.2-2.2-1.5c-3.7,1.4-7.4,2.9-11.2,4c-7,2.1-14.3,1.8-21.6,1.7
			c-8.5-0.1-16.9-2-24.5-5.7c-1.8-0.9-2.1-0.7-2.1,1.3c0,2.2,0.1,4.5,0,6.7c-0.3,4,1.7,6.7,5,8.5c1.3,0.7,2.6,1.2,4,1.7
			c6.6,2.2,13.3,2.8,20.2,3.2v5.8c-2,0.7-3.5,2.3-4.1,4.4H44.7v3.9h20.1c1,3.4,4.5,5.3,7.9,4.4c2.1-0.6,3.8-2.3,4.4-4.4h20.2v-3.9
			H77.1c-0.6-2.1-2.2-3.8-4.4-4.5v-5.9c4.2-0.4,8.3-0.6,12.4-1.4c4-0.8,7.8-2,11.5-3.6c3.2-1.3,5.1-4.5,4.7-7.9
			C101.2,196.2,101.3,193.8,101.3,191.6z M63.4,206.1c-1.7,0-3-1.3-3-3s1.3-3,3-3c1.7,0,3,1.3,3,3S65,206.1,63.4,206.1z M73.5,223.5
			c-0.1,1.4-1.3,2.5-2.7,2.4s-2.5-1.3-2.4-2.7s1.2-2.4,2.6-2.4C72.4,220.9,73.5,222.1,73.5,223.5z M71,206.1c-1.7,0-3-1.3-3-3
			s1.3-3,3-3s3,1.3,3,3S72.7,206.1,71,206.1z M79.3,206.1c-1.7,0-3-1.3-3-3s1.3-3,3-3s3,1.3,3,3S81,206.1,79.3,206.1z"/>
		<path class="st1" d="M42,157.8c2.7,1.7,5.5,3.2,8.5,4.3c6.5,2.2,13.3,2.6,20.2,3c5.3-0.6,10.5-1.1,15.8-1.9
			c4.1-0.5,8.1-2,11.6-4.4c2.2-1.4,3.5-3.9,3.3-6.5c-0.1-2.4,0-4.8,0-7.2c0-2.1-0.3-2.2-2.2-1.4c-3.2,1.3-6.3,2.8-9.7,3.6
			c-16.2,3.7-32.2,3.5-47.6-3.5c-1.9-0.9-2.2-0.7-2.2,1.4c0,2.5,0,5,0,7.4C39.6,154.8,40.2,156.7,42,157.8z M79.3,153.8
			c1.7,0,3,1.3,3,3s-1.3,3-3,3s-3-1.3-3-3C76.3,155.2,77.7,153.8,79.3,153.8L79.3,153.8z M71,153.8c1.7,0,3,1.3,3,3s-1.3,3-3,3
			s-3-1.3-3-3S69.3,153.8,71,153.8z M63.4,153.8c1.7,0,3,1.3,3,3s-1.3,3-3,3s-3-1.3-3-3S61.7,153.8,63.4,153.8z"/>
		<g class="st6">
			<path class="st5" d="M9.2,57.6c0-1.4,0.2-2.7,0.6-4c0.4-1.2,1-2.3,1.8-3.3H13c-0.8,1-1.4,2.2-1.8,3.4c-0.4,1.3-0.6,2.6-0.6,3.9
				c0,1.3,0.2,2.6,0.6,3.8c0.4,1.2,1,2.4,1.8,3.4h-1.3c-0.8-1-1.4-2.1-1.8-3.2C9.4,60.3,9.2,58.9,9.2,57.6z"/>
			<path class="st5" d="M20.4,62.1l-0.3-1.3H20c-0.3,0.5-0.8,0.9-1.3,1.1c-0.5,0.2-1.1,0.3-1.7,0.3c-0.8,0-1.5-0.2-2.1-0.7
				c-0.5-0.5-0.8-1.2-0.8-1.9c0-1.8,1.4-2.7,4.3-2.8h1.5v-0.6c0-0.6-0.1-1.1-0.5-1.6C19,54.2,18.5,54,18,54.1
				c-0.9,0-1.7,0.3-2.5,0.7l-0.4-1c0.5-0.2,0.9-0.4,1.4-0.6c0.5-0.1,1-0.2,1.6-0.2c0.9-0.1,1.7,0.2,2.4,0.7c0.6,0.6,0.8,1.4,0.8,2.3
				v6.1H20.4z M17.4,61.2c0.7,0,1.5-0.2,2-0.7s0.8-1.2,0.7-1.9v-0.8l-1.4,0.1c-0.8,0-1.6,0.1-2.3,0.5c-0.5,0.3-0.8,0.8-0.7,1.4
				c0,0.4,0.1,0.8,0.4,1.1C16.5,61.1,16.9,61.2,17.4,61.2L17.4,61.2z"/>
			<path class="st5" d="M25.5,62.1h-1.4V49.5h1.4V62.1z"/>
			<path class="st5" d="M32.6,50.8c0-0.2,0.1-0.5,0.2-0.7c0.2-0.1,0.4-0.2,0.6-0.2c0.2,0,0.4,0.1,0.6,0.2c0.2,0.2,0.3,0.4,0.2,0.7
				c0,0.3-0.1,0.5-0.2,0.7c-0.3,0.3-0.8,0.3-1.1,0C32.7,51.3,32.6,51.1,32.6,50.8z M34.1,62.2h-1.3v-8.9h1.3V62.2z"/>
			<path class="st5" d="M43.1,62.1v-5.8c0-0.6-0.1-1.2-0.5-1.6c-0.4-0.4-1-0.6-1.6-0.5c-0.7-0.1-1.5,0.2-2,0.8
				c-0.5,0.7-0.7,1.6-0.7,2.5v4.7H37v-8.9h1.1l0.2,1.2h0.1c0.3-0.4,0.7-0.8,1.2-1c0.5-0.3,1.1-0.4,1.7-0.4c0.9-0.1,1.8,0.2,2.4,0.8
				c0.6,0.7,0.9,1.6,0.8,2.5v5.8L43.1,62.1z"/>
			<path class="st5" d="M50.1,61.2c0.2,0,0.5,0,0.7-0.1c0.2,0,0.4-0.1,0.5-0.1v1c-0.2,0.1-0.4,0.1-0.6,0.2c-0.3,0-0.5,0.1-0.8,0.1
				c-1.7,0-2.6-0.9-2.6-2.7v-5.3H46v-0.7l1.3-0.6l0.6-1.9h0.8v2.1h2.6v1.1h-2.6v5.2c0,0.4,0.1,0.9,0.4,1.2
				C49.3,61,49.7,61.2,50.1,61.2z"/>
			<path class="st5" d="M56.8,62.3c-1.2,0.1-2.3-0.4-3.1-1.2c-0.8-0.9-1.2-2.1-1.1-3.4c-0.1-1.2,0.3-2.4,1.1-3.4
				c0.7-0.8,1.8-1.3,2.9-1.3c1,0,2,0.4,2.7,1.1c0.7,0.8,1,1.8,1,2.9v0.9H54c0,0.9,0.2,1.7,0.8,2.4c0.6,0.6,1.3,0.9,2.1,0.8
				c1,0,2-0.2,2.8-0.6v1.2c-0.4,0.2-0.9,0.3-1.3,0.4C57.9,62.3,57.4,62.3,56.8,62.3z M56.5,54.2c-0.6,0-1.3,0.2-1.7,0.7
				c-0.5,0.5-0.7,1.2-0.8,1.9h4.7c0.1-0.7-0.1-1.4-0.6-2C57.7,54.4,57.1,54.1,56.5,54.2z"/>
			<path class="st5" d="M66.5,53c0.4,0,0.7,0,1.1,0.1l-0.2,1.2c-0.3-0.1-0.7-0.1-1-0.1c-0.7,0-1.4,0.3-1.8,0.9
				c-0.5,0.6-0.8,1.4-0.8,2.2v4.8h-1.3v-8.9h1.1l0.2,1.6h0.1c0.3-0.5,0.7-1,1.2-1.3C65.4,53.2,66,53.1,66.5,53z"/>
			<path class="st5" d="M69.1,50.8c0-0.2,0.1-0.5,0.2-0.7c0.2-0.1,0.4-0.2,0.6-0.2s0.4,0.1,0.6,0.2c0.2,0.2,0.3,0.4,0.2,0.7
				c0,0.3-0.1,0.5-0.2,0.7c-0.3,0.3-0.8,0.3-1.1,0C69.2,51.3,69.1,51.1,69.1,50.8z M70.6,62.2h-1.4v-8.9h1.3L70.6,62.2z"/>
			<path class="st5" d="M81.2,57.7c0.1,1.2-0.3,2.4-1.1,3.4c-0.8,0.8-1.9,1.3-3,1.2c-0.7,0-1.5-0.2-2.1-0.6
				c-0.6-0.4-1.1-0.9-1.4-1.6c-0.3-0.8-0.5-1.6-0.5-2.5c-0.1-1.2,0.3-2.4,1.1-3.4c0.8-0.8,1.9-1.3,3-1.2c1.1-0.1,2.2,0.4,3,1.2
				C80.9,55.2,81.2,56.5,81.2,57.7z M74.4,57.7c-0.1,0.9,0.2,1.8,0.7,2.6c0.5,0.6,1.2,0.9,2,0.9s1.5-0.3,2-0.9
				c0.5-0.8,0.8-1.7,0.7-2.6c0.1-0.9-0.2-1.8-0.7-2.6c-0.5-0.6-1.2-0.9-2-0.9s-1.5,0.3-2,0.9C74.5,55.8,74.3,56.8,74.4,57.7z"/>
			<path class="st5" d="M87.6,53c0.4,0,0.7,0,1.1,0.1l-0.2,1.2c-0.3-0.1-0.7-0.1-1-0.1c-0.7,0-1.4,0.3-1.8,0.9
				c-0.5,0.6-0.8,1.4-0.8,2.2v4.8h-1.3v-8.9h1.1l0.2,1.6H85c0.3-0.5,0.7-1,1.2-1.4C86.5,53.2,87.1,53,87.6,53z"/>
			<path class="st5" d="M100.7,60.9L100.7,60.9c-0.7,0.9-1.8,1.4-2.9,1.4c-1,0.1-2.1-0.4-2.7-1.2c-0.7-1-1.1-2.2-1-3.4
				c-0.1-1.2,0.3-2.4,1-3.4c0.7-0.8,1.7-1.3,2.7-1.2c1.1-0.1,2.1,0.4,2.8,1.3h0.1v-0.6v-0.6v-3.6h1.3v12.7h-1.1L100.7,60.9z
				 M98,61.2c0.7,0.1,1.5-0.2,2-0.8c0.5-0.7,0.7-1.6,0.6-2.4v-0.3c0.1-0.9-0.1-1.9-0.6-2.7c-0.5-0.6-1.2-0.9-2-0.8
				c-0.7,0-1.4,0.3-1.8,0.9c-0.5,0.8-0.7,1.7-0.6,2.6c-0.1,0.9,0.2,1.8,0.6,2.6C96.6,60.9,97.3,61.2,98,61.2L98,61.2z"/>
			<path class="st5" d="M108.7,62.3c-1.2,0.1-2.3-0.4-3.1-1.2c-0.8-0.9-1.2-2.1-1.1-3.4c-0.1-1.2,0.3-2.4,1.1-3.4
				c0.7-0.8,1.8-1.3,2.8-1.3s2,0.4,2.7,1.1c0.7,0.8,1,1.8,1,2.9v0.9H106c0,0.9,0.2,1.7,0.8,2.4c0.6,0.6,1.3,0.9,2.1,0.8
				c1,0,2-0.2,2.8-0.6v1.2c-0.4,0.2-0.9,0.3-1.4,0.4C109.7,62.3,109.2,62.3,108.7,62.3z M108.3,54.2c-0.6,0-1.3,0.2-1.7,0.7
				c-0.5,0.5-0.7,1.2-0.8,1.9h4.7c0.1-0.7-0.1-1.4-0.6-2C109.5,54.4,108.9,54.1,108.3,54.2z"/>
			<path class="st5" d="M119.9,62.1h-1.3V49.5h1.3V62.1z"/>
			<path class="st5" d="M128.3,62.1l-0.3-1.3h-0.1c-0.3,0.5-0.8,0.9-1.3,1.1c-0.5,0.2-1.1,0.3-1.7,0.3c-0.8,0-1.5-0.2-2.1-0.7
				c-0.5-0.5-0.8-1.2-0.8-1.9c0-1.8,1.4-2.7,4.3-2.8h1.5v-0.6c0-0.6-0.1-1.1-0.5-1.6c-0.4-0.4-0.9-0.6-1.4-0.5
				c-0.9,0-1.7,0.3-2.5,0.7l-0.4-1c0.5-0.2,0.9-0.4,1.4-0.6c0.5-0.1,1-0.2,1.6-0.2c0.9-0.1,1.7,0.2,2.4,0.7c0.6,0.6,0.8,1.4,0.8,2.3
				v6.1H128.3z M125.2,61.2c0.7,0,1.5-0.2,2-0.7s0.8-1.2,0.7-1.9v-0.8l-1.3,0.1c-0.8,0-1.6,0.1-2.3,0.5c-0.5,0.3-0.8,0.8-0.7,1.4
				c0,0.4,0.1,0.9,0.4,1.1C124.3,61.1,124.8,61.2,125.2,61.2z"/>
			<path class="st5" d="M30.4,70.2c0-0.2,0.1-0.5,0.2-0.7c0.2-0.1,0.4-0.2,0.6-0.2s0.4,0.1,0.6,0.2c0.2,0.2,0.3,0.4,0.2,0.7
				c0,0.3-0.1,0.5-0.2,0.7c-0.1,0.1-0.4,0.2-0.6,0.2s-0.4-0.1-0.6-0.2C30.4,70.7,30.3,70.5,30.4,70.2z M31.8,81.6h-1.4v-8.9h1.4
				V81.6z"/>
			<path class="st5" d="M40.8,81.6v-5.8c0-0.6-0.1-1.2-0.5-1.6s-1-0.6-1.5-0.5c-0.8-0.1-1.5,0.2-2.1,0.8C36.2,75.2,36,76,36,76.9
				v4.7h-1.3v-8.9h1.1l0.2,1.2h0.1c0.3-0.4,0.7-0.8,1.2-1s1.1-0.4,1.7-0.4c0.9-0.1,1.7,0.2,2.4,0.8c0.6,0.7,0.9,1.6,0.8,2.5v5.8
				H40.8z"/>
			<path class="st5" d="M50.7,79.2c0,0.8-0.3,1.5-0.9,1.9c-0.8,0.5-1.7,0.7-2.6,0.7c-1,0-1.9-0.1-2.8-0.6V80
				c0.4,0.2,0.9,0.4,1.4,0.5s0.9,0.2,1.4,0.2c0.6,0,1.1-0.1,1.6-0.3c0.6-0.3,0.7-1,0.4-1.6c-0.1-0.1-0.2-0.2-0.3-0.3
				c-0.5-0.4-1.1-0.7-1.8-0.9c-0.6-0.2-1.2-0.5-1.8-0.8c-0.3-0.2-0.6-0.5-0.8-0.8s-0.3-0.7-0.2-1.1c0-0.7,0.3-1.3,0.9-1.7
				c0.7-0.5,1.6-0.7,2.4-0.6c1,0,1.9,0.2,2.8,0.6l-0.4,1c-0.8-0.3-1.6-0.5-2.4-0.6c-0.5,0-1,0.1-1.5,0.3c-0.3,0.2-0.5,0.5-0.5,0.8
				c0,0.2,0.1,0.4,0.2,0.6c0.2,0.2,0.4,0.4,0.6,0.5c0.5,0.3,1,0.5,1.6,0.7c0.8,0.2,1.5,0.6,2.1,1.2C50.5,78.1,50.7,78.6,50.7,79.2z"
				/>
			<path class="st5" d="M55.8,80.6c0.2,0,0.5,0,0.7-0.1l0.5-0.1v1c-0.2,0.1-0.4,0.1-0.6,0.2c-0.3,0-0.5,0.1-0.8,0.1
				c-1.7,0-2.6-0.9-2.6-2.7v-5.3h-1.3V73l1.3-0.6l0.6-1.9h0.8v2.1H57v1h-2.6v5.2c0,0.4,0.1,0.9,0.4,1.2C55,80.5,55.4,80.6,55.8,80.6
				z"/>
			<path class="st5" d="M58.7,70.2c0-0.2,0.1-0.5,0.2-0.7c0.2-0.1,0.4-0.2,0.6-0.2c0.2,0,0.4,0.1,0.6,0.2c0.2,0.2,0.3,0.4,0.2,0.7
				c0,0.3-0.1,0.5-0.2,0.7c-0.3,0.3-0.8,0.3-1.1,0C58.7,70.7,58.6,70.5,58.7,70.2z M60.1,81.6h-1.4v-8.9H60L60.1,81.6z"/>
			<path class="st5" d="M65.9,80.6c0.2,0,0.5,0,0.7-0.1l0.5-0.1v1c-0.2,0.1-0.4,0.1-0.7,0.2c-0.3,0-0.5,0.1-0.8,0.1
				c-1.7,0-2.6-0.9-2.6-2.7v-5.3h-1.3V73l1.3-0.6l0.6-1.9h0.8v2.1H67v1h-2.6v5.2c0,0.4,0.1,0.9,0.4,1.2
				C65.1,80.5,65.5,80.6,65.9,80.6z"/>
			<path class="st5" d="M70.1,72.7v5.8c0,0.6,0.1,1.2,0.5,1.6s1,0.6,1.6,0.5c0.7,0.1,1.5-0.2,2-0.8c0.5-0.7,0.7-1.6,0.7-2.5v-4.7
				h1.3v8.9h-1.1l-0.2-1.2h-0.1c-0.3,0.4-0.7,0.8-1.2,1s-1.1,0.4-1.7,0.4c-0.9,0.1-1.8-0.2-2.4-0.8c-0.6-0.7-0.9-1.6-0.8-2.5v-5.8
				L70.1,72.7z"/>
			<path class="st5" d="M82.7,81.8c-1.1,0.1-2.2-0.4-3-1.2c-0.8-1-1.1-2.2-1.1-3.4c-0.1-1.2,0.3-2.5,1.1-3.5
				c0.8-0.8,1.9-1.3,3.1-1.2c0.4,0,0.9,0,1.3,0.1c0.3,0.1,0.7,0.2,1,0.3L84.7,74c-0.3-0.1-0.7-0.2-1-0.3c-0.3-0.1-0.6-0.1-0.9-0.1
				c-1.8,0-2.7,1.2-2.7,3.5c-0.1,0.9,0.2,1.8,0.7,2.5c0.5,0.6,1.2,0.9,2,0.9s1.6-0.2,2.3-0.5v1.2C84.2,81.6,83.5,81.8,82.7,81.8z"/>
			<path class="st5" d="M86.9,70.2c0-0.2,0.1-0.5,0.2-0.7c0.2-0.1,0.4-0.2,0.6-0.2s0.4,0.1,0.6,0.2c0.2,0.2,0.3,0.4,0.2,0.7
				c0,0.3-0.1,0.5-0.2,0.7c-0.2,0.1-0.4,0.2-0.6,0.2s-0.4-0.1-0.6-0.2C87,70.7,86.9,70.5,86.9,70.2z M88.4,81.6H87v-8.9h1.4V81.6z"
				/>
			<path class="st5" d="M99,77.1c0.1,1.2-0.3,2.5-1.1,3.4c-0.8,0.8-1.9,1.3-3,1.2c-0.7,0-1.5-0.2-2.1-0.6s-1.1-0.9-1.4-1.6
				c-0.4-0.8-0.5-1.6-0.5-2.5c-0.1-1.2,0.3-2.4,1.1-3.4c0.8-0.8,1.9-1.3,3-1.2c1.1-0.1,2.2,0.4,3,1.2C98.7,74.7,99.1,75.9,99,77.1z
				 M92.2,77.1c-0.1,0.9,0.2,1.8,0.7,2.6c1,1.1,2.7,1.2,3.8,0.2c0.1-0.1,0.1-0.1,0.2-0.2c0.5-0.8,0.8-1.7,0.7-2.6
				c0.1-0.9-0.2-1.8-0.7-2.6c-0.5-0.6-1.2-0.9-2-0.9c-0.8-0.1-1.5,0.3-2,0.9C92.4,75.3,92.1,76.2,92.2,77.1L92.2,77.1z M93.8,71.3
				c0.3-0.4,0.6-0.8,0.8-1.2c0.3-0.4,0.5-0.8,0.7-1.2H97V69c-0.3,0.5-0.7,0.9-1.1,1.3s-0.8,0.8-1.2,1.2h-0.9V71.3z"/>
			<path class="st5" d="M107.4,81.6v-5.8c0-0.6-0.1-1.2-0.5-1.6s-1-0.6-1.6-0.5c-0.7-0.1-1.5,0.2-2,0.8c-0.5,0.7-0.7,1.6-0.7,2.5
				v4.7h-1.3v-8.9h1.1l0.2,1.2h0.1c0.3-0.4,0.7-0.8,1.2-1s1.1-0.4,1.7-0.4c0.9-0.1,1.7,0.2,2.4,0.8c0.6,0.7,0.9,1.6,0.8,2.5v5.8
				L107.4,81.6z"/>
			<path class="st5" d="M20.9,96.6c0.1,1.2-0.3,2.4-1.1,3.4c-0.8,0.8-1.9,1.3-3,1.2c-0.7,0-1.5-0.2-2.1-0.6s-1.1-1-1.4-1.6
				c-0.4-0.8-0.5-1.6-0.5-2.4c-0.1-1.2,0.3-2.4,1.1-3.4c0.8-0.8,1.9-1.3,3-1.2c1.1-0.1,2.2,0.4,3,1.2C20.6,94.2,21,95.4,20.9,96.6z
				 M14.1,96.6c-0.1,0.9,0.2,1.8,0.7,2.6c0.5,0.6,1.2,0.9,2,0.9s1.5-0.3,2-0.9c0.5-0.8,0.8-1.7,0.7-2.6c0.1-0.9-0.2-1.8-0.7-2.6
				c-0.5-0.6-1.2-0.9-2-0.9c-0.8-0.1-1.5,0.3-2,0.9C14.3,94.7,14,95.7,14.1,96.6z"/>
			<path class="st5" d="M33.7,99.8L33.7,99.8c-0.7,0.9-1.8,1.4-2.9,1.4c-1,0.1-2.1-0.4-2.7-1.2c-0.7-1-1.1-2.2-1-3.4
				c-0.1-1.2,0.3-2.4,1-3.4c0.7-0.8,1.7-1.3,2.7-1.2c1.1-0.1,2.1,0.4,2.8,1.3h0.1v-0.6V92v-3.6H35V101h-1.1L33.7,99.8z M31,100.1
				c0.7,0.1,1.5-0.2,2-0.8c0.5-0.7,0.7-1.6,0.6-2.4v-0.3c0.1-0.9-0.1-1.9-0.6-2.7c-0.5-0.6-1.2-0.9-2-0.8c-0.7,0-1.4,0.3-1.8,0.9
				c-0.8,1.6-0.8,3.6,0,5.2C29.6,99.8,30.3,100.1,31,100.1L31,100.1z"/>
			<path class="st5" d="M41.6,101.2c-1.2,0.1-2.3-0.4-3.1-1.2c-0.8-0.9-1.2-2.1-1.2-3.3c-0.1-1.2,0.3-2.5,1.1-3.4
				c0.7-0.8,1.8-1.3,2.8-1.3s2,0.4,2.7,1.1c0.7,0.8,1,1.8,1,2.9v0.9h-6.2c0,0.9,0.3,1.7,0.8,2.4c0.6,0.6,1.3,0.9,2.1,0.8
				c1,0,2-0.2,2.8-0.6v1.2c-0.4,0.2-0.9,0.3-1.4,0.4C42.6,101.2,42.1,101.2,41.6,101.2z M41.2,93.1c-0.6,0-1.3,0.2-1.7,0.7
				c-0.5,0.5-0.7,1.2-0.8,1.9h4.7c0.1-0.7-0.1-1.4-0.6-2C42.4,93.3,41.8,93,41.2,93.1L41.2,93.1z"/>
			<path class="st5" d="M51.3,101.2c-0.5,0-1.1-0.1-1.6-0.3c-0.5-0.2-0.9-0.6-1.2-1h-0.1c0.1,0.5,0.1,1,0.1,1.5v3.7h-1.4v-13h1.1
				l0.2,1.2h0.1c0.3-0.4,0.7-0.8,1.2-1s1-0.3,1.6-0.3c1.1-0.1,2.1,0.4,2.7,1.2c0.7,1,1.1,2.2,1,3.4c0.1,1.2-0.3,2.4-1,3.4
				C53.4,100.8,52.4,101.3,51.3,101.2z M51.1,93.1c-0.7-0.1-1.5,0.2-2,0.8c-0.5,0.7-0.7,1.6-0.6,2.4v0.3c-0.1,0.9,0.1,1.9,0.6,2.7
				c0.5,0.6,1.2,0.9,2,0.8c0.7,0,1.4-0.3,1.8-0.9c0.5-0.8,0.7-1.7,0.7-2.6c0.1-0.9-0.2-1.8-0.7-2.6C52.5,93.4,51.9,93.1,51.1,93.1z"
				/>
			<path class="st5" d="M61.2,101.2c-1.2,0.1-2.3-0.4-3.1-1.2c-0.8-0.9-1.2-2.1-1.1-3.3c-0.1-1.2,0.3-2.5,1.1-3.4
				c0.7-0.8,1.8-1.3,2.8-1.3s2,0.4,2.7,1.1c0.7,0.8,1,1.8,1,2.9v0.9h-6.2c0,0.9,0.2,1.7,0.8,2.4c0.6,0.6,1.3,0.9,2.1,0.8
				c1,0,2-0.2,2.8-0.6v1.2c-0.4,0.2-0.9,0.3-1.3,0.4C62.2,101.2,61.7,101.2,61.2,101.2z M60.8,93.1c-0.6,0-1.3,0.2-1.7,0.7
				c-0.5,0.5-0.7,1.2-0.8,1.9H63c0.1-0.7-0.1-1.4-0.6-2C62,93.3,61.4,93,60.8,93.1L60.8,93.1z"/>
			<path class="st5" d="M72.9,101v-5.8c0-0.6-0.1-1.2-0.5-1.6s-1-0.6-1.6-0.5c-0.7,0-1.5,0.2-2,0.8c-0.5,0.7-0.7,1.6-0.7,2.5v4.7
				h-1.4v-8.9h1.1l0.2,1.2h0.1c0.3-0.4,0.7-0.8,1.2-1S70.4,92,71,92c0.9-0.1,1.7,0.2,2.4,0.8c0.6,0.7,0.9,1.6,0.8,2.5v5.8L72.9,101z
				"/>
			<path class="st5" d="M83.1,99.8L83.1,99.8c-0.7,0.9-1.8,1.4-2.9,1.4c-1,0.1-2.1-0.4-2.7-1.2c-0.7-1-1.1-2.2-1-3.4
				c-0.1-1.2,0.3-2.4,1-3.4c0.7-0.8,1.7-1.3,2.7-1.2c1.1-0.1,2.2,0.4,2.8,1.3h0.1v-0.6V92v-3.6h1.3V101h-1.2L83.1,99.8z M80.4,100.1
				c0.7,0.1,1.5-0.2,2-0.8c0.5-0.7,0.7-1.6,0.6-2.4v-0.3c0.1-0.9-0.1-1.9-0.6-2.7c-0.5-0.6-1.2-0.9-2-0.8c-0.7,0-1.4,0.3-1.8,0.9
				c-0.8,1.6-0.8,3.6,0,5.2C78.9,99.8,79.6,100.1,80.4,100.1L80.4,100.1z"/>
			<path class="st5" d="M91,101.2c-1.2,0.1-2.3-0.4-3.1-1.2c-0.8-0.9-1.2-2.1-1.2-3.3c-0.1-1.2,0.3-2.5,1.1-3.4
				c0.7-0.8,1.8-1.3,2.8-1.3s2,0.4,2.7,1.1c0.7,0.8,1,1.8,1,2.9v0.9h-6.2c0,0.9,0.3,1.7,0.8,2.4c0.6,0.6,1.3,0.9,2.1,0.8
				c1,0,2-0.2,2.8-0.6v1.2c-0.4,0.2-0.9,0.3-1.4,0.4C92,101.2,91.5,101.2,91,101.2z M90.6,93.1c-0.6,0-1.3,0.2-1.7,0.7
				c-0.5,0.5-0.7,1.2-0.8,1.9h4.7c0.1-0.7-0.1-1.4-0.6-2C91.8,93.3,91.2,93,90.6,93.1L90.6,93.1z"/>
			<path class="st5" d="M102.7,101v-5.8c0-0.6-0.1-1.2-0.5-1.6s-1-0.6-1.6-0.5c-0.8-0.1-1.5,0.2-2.1,0.8c-0.5,0.7-0.7,1.6-0.7,2.5
				v4.7h-1.3v-8.9h1.1l0.2,1.2H98c0.3-0.4,0.7-0.8,1.2-1s1.1-0.4,1.7-0.4c0.9-0.1,1.8,0.2,2.4,0.8c0.6,0.7,0.9,1.6,0.8,2.5v5.8
				L102.7,101z"/>
			<path class="st5" d="M110.4,101.2c-1.1,0.1-2.2-0.4-3-1.2c-0.8-1-1.1-2.2-1.1-3.4c-0.1-1.2,0.3-2.5,1.1-3.5
				c0.8-0.8,1.9-1.3,3.1-1.2c0.4,0,0.9,0,1.3,0.1c0.3,0.1,0.7,0.2,1,0.3l-0.4,1.1c-0.3-0.1-0.7-0.2-1-0.3c-0.3-0.1-0.6-0.1-0.9-0.1
				c-1.8,0-2.7,1.2-2.7,3.5c-0.1,0.9,0.2,1.8,0.7,2.5c0.5,0.6,1.2,0.9,2,0.9s1.6-0.2,2.3-0.5v1.2
				C111.9,101.1,111.2,101.2,110.4,101.2z"/>
			<path class="st5" d="M114.6,89.7c0-0.2,0.1-0.5,0.2-0.7c0.2-0.1,0.4-0.2,0.6-0.2s0.4,0.1,0.6,0.2c0.2,0.2,0.3,0.4,0.2,0.7
				c0,0.3-0.1,0.5-0.2,0.7c-0.3,0.3-0.8,0.3-1.1,0C114.7,90.2,114.6,89.9,114.6,89.7z M116.1,101h-1.3v-8.9h1.3V101z"/>
			<path class="st5" d="M124.4,101l-0.3-1.3H124c-0.4,0.5-0.8,0.9-1.3,1.1s-1.1,0.3-1.7,0.3c-0.8,0-1.5-0.2-2.1-0.7
				c-0.5-0.5-0.8-1.2-0.8-1.9c0-1.8,1.4-2.8,4.3-2.8h1.5v-0.6c0-0.6-0.1-1.1-0.5-1.6c-0.4-0.4-0.9-0.5-1.4-0.5
				c-0.9,0-1.7,0.3-2.5,0.7l-0.4-1c0.5-0.2,0.9-0.4,1.4-0.6c0.5-0.1,1-0.2,1.6-0.2c0.8-0.1,1.7,0.2,2.4,0.7c0.6,0.6,0.8,1.4,0.8,2.3
				v6.1H124.4z M121.4,100c0.7,0,1.5-0.2,2-0.7s0.8-1.2,0.7-1.9v-0.8h-1.3c-0.8,0-1.6,0.2-2.3,0.5c-0.5,0.3-0.8,0.8-0.7,1.4
				c0,0.4,0.1,0.8,0.4,1.1C120.5,99.9,121,100.1,121.4,100L121.4,100z"/>
			<path class="st5" d="M131.1,96.5c0,1.4-0.2,2.7-0.6,4c-0.4,1.2-1,2.3-1.8,3.2h-1.3c0.8-1,1.3-2.2,1.7-3.4
				c0.4-1.2,0.6-2.5,0.6-3.8s-0.2-2.6-0.6-3.9c-0.4-1.2-1-2.4-1.8-3.4h1.3c0.8,1,1.4,2.1,1.8,3.3C130.9,93.8,131.1,95.1,131.1,96.5z
				"/>
			<path class="st5" d="M359.3,129.1c0-1.4,0.2-2.7,0.6-4c0.4-1.2,1-2.3,1.8-3.3h1.3c-0.8,1-1.4,2.2-1.8,3.4
				c-0.4,1.3-0.6,2.6-0.6,3.9c0,1.3,0.2,2.6,0.6,3.8s1,2.4,1.7,3.4h-1.3c-0.8-1-1.4-2-1.8-3.2C359.5,131.8,359.3,130.4,359.3,129.1z
				"/>
			<path class="st5" d="M370.8,131.2c0,0.8-0.3,1.5-0.9,1.9c-0.8,0.5-1.7,0.7-2.6,0.7c-1,0.1-1.9-0.1-2.8-0.6V132
				c0.4,0.2,0.9,0.4,1.4,0.5s0.9,0.2,1.4,0.2c0.6,0,1.1-0.1,1.6-0.3c0.4-0.2,0.6-0.6,0.6-1s-0.2-0.7-0.5-0.9
				c-0.5-0.4-1.1-0.7-1.8-0.9c-0.6-0.2-1.2-0.5-1.8-0.8c-0.3-0.2-0.6-0.5-0.8-0.8c-0.2-0.3-0.3-0.7-0.3-1.1c0-0.7,0.3-1.3,0.9-1.7
				c0.7-0.5,1.6-0.7,2.4-0.6c1,0,1.9,0.2,2.8,0.6l-0.5,1.1c-0.8-0.3-1.6-0.5-2.4-0.6c-0.5,0-1,0.1-1.5,0.3c-0.3,0.2-0.5,0.5-0.5,0.8
				c0,0.2,0.1,0.4,0.2,0.6c0.2,0.2,0.4,0.4,0.6,0.5c0.5,0.3,1,0.5,1.6,0.7c0.8,0.2,1.5,0.6,2.1,1.2
				C370.6,130.1,370.8,130.7,370.8,131.2z"/>
			<path class="st5" d="M376.8,133.8c-1.2,0.1-2.3-0.4-3.1-1.2c-0.8-0.9-1.2-2.1-1.1-3.4c-0.1-1.2,0.3-2.4,1.1-3.4
				c0.7-0.8,1.8-1.3,2.9-1.3c1-0.1,2,0.4,2.6,1.1c0.7,0.8,1,1.8,1,2.9v0.9H374c0,0.9,0.2,1.7,0.8,2.4c0.6,0.6,1.3,0.9,2.1,0.8
				c1,0,2-0.2,2.9-0.6v1.2C378.8,133.7,377.8,133.9,376.8,133.8L376.8,133.8z M376.4,125.7c-0.6,0-1.3,0.2-1.7,0.7
				c-0.5,0.5-0.7,1.2-0.8,1.9h4.7c0.1-0.7-0.1-1.4-0.6-2C377.6,125.9,377,125.6,376.4,125.7L376.4,125.7z"/>
			<path class="st5" d="M383.7,133.6h-1.4V121h1.4V133.6z"/>
			<path class="st5" d="M390.3,133.8c-1.2,0.1-2.3-0.4-3.1-1.2c-0.8-0.9-1.2-2.1-1.1-3.4c-0.1-1.2,0.3-2.4,1.1-3.4
				c0.7-0.8,1.8-1.3,2.9-1.3c1-0.1,2,0.4,2.6,1.1c0.7,0.8,1,1.8,1,2.9v0.9h-6.1c0,0.9,0.3,1.7,0.8,2.4c0.6,0.6,1.3,0.9,2.1,0.8
				c1,0,2-0.2,2.9-0.6v1.2C392.3,133.7,391.4,133.9,390.3,133.8L390.3,133.8z M390,125.7c-0.6,0-1.3,0.2-1.7,0.7
				c-0.5,0.5-0.7,1.2-0.8,1.9h4.7c0.1-0.7-0.1-1.4-0.6-2C391.2,125.9,390.6,125.7,390,125.7L390,125.7z"/>
			<path class="st5" d="M399.5,133.8c-1.1,0.1-2.2-0.4-3-1.2c-0.8-1-1.1-2.2-1.1-3.4c-0.1-1.2,0.3-2.5,1.1-3.5
				c0.8-0.8,1.9-1.3,3.1-1.2c0.4,0,0.9,0,1.3,0.1c0.3,0.1,0.7,0.2,1,0.3l-0.4,1.1c-0.3-0.1-0.7-0.2-1-0.3c-0.3-0.1-0.6-0.1-0.9-0.1
				c-1.8,0-2.7,1.2-2.7,3.5c-0.1,0.9,0.2,1.8,0.7,2.5c0.5,0.6,1.2,0.9,2,0.9s1.6-0.2,2.3-0.5v1.2C401,133.7,400.3,133.9,399.5,133.8
				z"/>
			<path class="st5" d="M407.4,133.8c-1.1,0.1-2.2-0.4-3-1.2c-0.8-1-1.1-2.2-1.1-3.4c-0.1-1.2,0.3-2.5,1.1-3.5
				c0.8-0.8,1.9-1.3,3.1-1.2c0.4,0,0.9,0,1.3,0.1c0.3,0.1,0.7,0.2,1,0.3l-0.4,1.1c-0.3-0.1-0.7-0.2-1-0.3c-0.3-0.1-0.6-0.1-0.9-0.1
				c-1.8,0-2.7,1.2-2.7,3.5c-0.1,0.9,0.2,1.8,0.7,2.5c0.5,0.6,1.2,0.9,2,0.9s1.6-0.2,2.3-0.5v1.2C409,133.7,408.2,133.9,407.4,133.8
				z"/>
			<path class="st5" d="M411.7,122.3c0-0.2,0.1-0.5,0.2-0.7c0.2-0.1,0.4-0.2,0.6-0.2s0.4,0.1,0.6,0.2c0.3,0.4,0.3,1,0,1.4
				c-0.2,0.1-0.4,0.2-0.6,0.2s-0.4-0.1-0.6-0.2C411.8,122.8,411.7,122.5,411.7,122.3z M413.1,133.6h-1.4v-8.9h1.4V133.6z"/>
			<path class="st5" d="M423.7,129.2c0.1,1.2-0.3,2.5-1.1,3.4c-0.8,0.8-1.9,1.3-3,1.2c-0.7,0-1.5-0.2-2.1-0.6
				c-0.6-0.4-1.1-0.9-1.4-1.6c-0.4-0.8-0.5-1.6-0.5-2.5c-0.1-1.2,0.3-2.4,1.1-3.4c0.8-0.8,1.9-1.3,3-1.2c1.1-0.1,2.2,0.4,3,1.2
				C423.4,126.7,423.8,127.9,423.7,129.2z M416.9,129.2c-0.1,0.9,0.2,1.8,0.7,2.6c1,1.1,2.7,1.2,3.8,0.2c0.1-0.1,0.1-0.1,0.2-0.2
				c0.5-0.8,0.8-1.7,0.7-2.6c0.1-0.9-0.2-1.8-0.7-2.6c-0.5-0.6-1.2-0.9-2-0.9c-0.8-0.1-1.5,0.3-2,0.9
				C417.1,127.3,416.9,128.2,416.9,129.2z M418.5,123.3c0.3-0.4,0.6-0.8,0.8-1.2c0.2-0.4,0.5-0.8,0.7-1.3h1.6v0.2
				c-0.3,0.5-0.7,0.9-1.1,1.3s-0.8,0.8-1.2,1.2h-0.9L418.5,123.3z"/>
			<path class="st5" d="M432.2,133.6v-5.8c0-0.6-0.1-1.2-0.5-1.6s-1-0.6-1.6-0.5c-0.8-0.1-1.5,0.2-2,0.8c-0.5,0.7-0.7,1.6-0.6,2.5
				v4.7h-1.4v-8.9h1.1l0.2,1.2h0.1c0.3-0.4,0.7-0.8,1.2-1s1.1-0.4,1.7-0.4c0.9-0.1,1.7,0.2,2.4,0.8c0.6,0.7,0.9,1.6,0.8,2.5v5.8
				L432.2,133.6z"/>
			<path class="st5" d="M446.7,132.4L446.7,132.4c-0.7,0.9-1.8,1.4-2.9,1.4c-1,0.1-2.1-0.4-2.7-1.2c-1.3-2.1-1.3-4.7,0-6.8
				c1.3-1.5,3.6-1.6,5.1-0.3c0.1,0.1,0.3,0.3,0.4,0.4h0.1l-0.1-0.6v-0.6V121h1.3v12.7h-1.1L446.7,132.4z M444,132.7
				c0.7,0.1,1.5-0.2,2-0.8c0.5-0.7,0.7-1.6,0.6-2.4v-0.3c0.1-0.9-0.1-1.9-0.6-2.7c-0.5-0.6-1.2-0.9-2-0.8c-0.7,0-1.4,0.3-1.8,0.9
				c-0.5,0.8-0.7,1.7-0.6,2.6c-0.1,0.9,0.2,1.8,0.6,2.6C442.6,132.4,443.3,132.7,444,132.7L444,132.7z"/>
			<path class="st5" d="M454.6,133.8c-1.2,0.1-2.3-0.4-3.1-1.2c-0.8-0.9-1.2-2.1-1.1-3.4c-0.1-1.2,0.3-2.4,1.1-3.4
				c0.7-0.8,1.8-1.3,2.9-1.3c1-0.1,2,0.4,2.7,1.1c0.7,0.8,1,1.8,1,2.9v0.9H452c0,0.9,0.2,1.7,0.8,2.4c0.6,0.6,1.3,0.9,2.1,0.8
				c1,0,2-0.2,2.9-0.6v1.2c-0.4,0.2-0.9,0.3-1.4,0.4C455.7,133.8,455.2,133.8,454.6,133.8z M454.3,125.7c-0.6,0-1.3,0.2-1.7,0.7
				c-0.5,0.5-0.7,1.2-0.8,1.9h4.7c0.1-0.7-0.1-1.4-0.6-2C455.5,125.9,454.9,125.6,454.3,125.7L454.3,125.7z"/>
			<path class="st5" d="M468.1,133.8c-1.1,0.1-2.2-0.4-3-1.2c-0.8-1-1.1-2.2-1.1-3.4c-0.1-1.2,0.3-2.5,1.1-3.5
				c0.8-0.8,1.9-1.3,3.1-1.2c0.4,0,0.9,0,1.3,0.1c0.3,0.1,0.7,0.2,1,0.3l-0.4,1.1c-0.3-0.1-0.7-0.2-1-0.3c-0.3-0.1-0.6-0.1-0.9-0.1
				c-1.8,0-2.7,1.2-2.7,3.5c-0.1,0.9,0.2,1.8,0.7,2.5c0.5,0.6,1.2,0.9,2,0.9s1.6-0.2,2.3-0.5v1.2
				C469.7,133.7,468.9,133.9,468.1,133.8z"/>
			<path class="st5" d="M478,133.6l-0.3-1.3h-0.1c-0.3,0.5-0.8,0.9-1.3,1.1c-0.5,0.2-1.1,0.3-1.7,0.3c-0.8,0-1.5-0.2-2.1-0.7
				c-0.5-0.5-0.8-1.2-0.8-1.9c0-1.8,1.4-2.7,4.3-2.8l1.5-0.1v-0.6c0-0.6-0.1-1.1-0.5-1.6c-0.4-0.4-0.9-0.5-1.5-0.5
				c-0.9,0-1.7,0.3-2.5,0.7l-0.4-1c0.5-0.2,0.9-0.4,1.5-0.6c0.5-0.1,1-0.2,1.6-0.2c0.9-0.1,1.7,0.2,2.4,0.7c0.6,0.6,0.8,1.4,0.8,2.3
				v6.1L478,133.6z M474.9,132.6c0.7,0,1.5-0.2,2-0.7s0.8-1.2,0.7-1.9v-0.8l-1.4,0.1c-0.8,0-1.6,0.1-2.3,0.5
				c-0.5,0.3-0.7,0.8-0.7,1.4c0,0.4,0.1,0.8,0.4,1.1C474.1,132.5,474.5,132.7,474.9,132.6L474.9,132.6z"/>
			<path class="st5" d="M493.1,133.6v-5.8c0-0.6-0.1-1.1-0.5-1.6c-0.4-0.4-0.9-0.6-1.4-0.5c-0.7-0.1-1.4,0.2-1.9,0.7
				c-0.5,0.7-0.7,1.4-0.6,2.2v5h-1.4v-5.8c0-0.6-0.1-1.1-0.5-1.6c-0.4-0.4-0.9-0.6-1.4-0.5c-0.7-0.1-1.4,0.2-1.9,0.8
				c-0.5,0.8-0.7,1.6-0.6,2.5v4.7h-1.4v-8.9h1.1l0.2,1.2h0.1c0.3-0.4,0.6-0.8,1.1-1s1-0.4,1.6-0.4c1.1-0.1,2.3,0.5,2.7,1.5h0.1
				c0.3-0.5,0.7-0.9,1.2-1.1c0.5-0.3,1.1-0.4,1.7-0.4c0.8-0.1,1.6,0.2,2.3,0.8c0.6,0.7,0.8,1.6,0.8,2.5v5.8L493.1,133.6z"/>
			<path class="st5" d="M501.4,133.8c-0.5,0-1.1-0.1-1.6-0.3s-0.9-0.6-1.2-1h-0.1c0.1,0.5,0.1,1,0.1,1.5v3.7h-1.4v-13h1.1l0.2,1.2
				h0.1c0.3-0.5,0.7-0.8,1.2-1.1c0.5-0.2,1-0.3,1.6-0.3c1.1-0.1,2.1,0.4,2.7,1.2c1.3,2.1,1.3,4.7,0,6.8
				C503.5,133.4,502.5,133.9,501.4,133.8z M501.2,125.7c-0.7-0.1-1.5,0.2-2,0.8c-0.5,0.7-0.7,1.6-0.6,2.4v0.3
				c-0.1,0.9,0.1,1.9,0.6,2.7c0.5,0.6,1.2,0.9,2,0.8c0.7,0,1.4-0.3,1.8-0.9c0.5-0.8,0.7-1.7,0.7-2.6c0.1-0.9-0.2-1.8-0.7-2.6
				C502.6,126,502,125.7,501.2,125.7L501.2,125.7z"/>
			<path class="st5" d="M515.2,129.2c0.1,1.2-0.3,2.5-1.1,3.4c-0.8,0.8-1.9,1.3-3,1.2c-0.7,0-1.5-0.2-2.1-0.6
				c-0.6-0.4-1.1-0.9-1.4-1.6c-0.4-0.8-0.5-1.6-0.5-2.5c-0.1-1.2,0.3-2.4,1.1-3.4c0.8-0.8,1.9-1.3,3-1.2c1.1-0.1,2.2,0.4,3,1.2
				C514.9,126.7,515.3,127.9,515.2,129.2z M508.4,129.2c-0.1,0.9,0.2,1.8,0.7,2.6c1,1.1,2.7,1.2,3.8,0.2c0.1-0.1,0.1-0.1,0.2-0.2
				c0.5-0.8,0.8-1.7,0.7-2.6c0.1-0.9-0.2-1.8-0.7-2.6c-0.5-0.6-1.2-0.9-2-0.9c-0.8-0.1-1.5,0.3-2,0.9
				C508.6,127.3,508.3,128.2,508.4,129.2L508.4,129.2z"/>
			<path class="st5" d="M523.3,131.2c0,0.8-0.3,1.5-0.9,1.9c-0.8,0.5-1.7,0.7-2.6,0.7c-1,0.1-1.9-0.1-2.8-0.6V132
				c0.4,0.2,0.9,0.4,1.4,0.5s0.9,0.2,1.4,0.2c0.6,0,1.1-0.1,1.6-0.3c0.6-0.3,0.7-1,0.4-1.6c-0.1-0.1-0.2-0.2-0.3-0.3
				c-0.5-0.4-1.1-0.7-1.8-0.9c-0.6-0.2-1.2-0.5-1.8-0.8c-0.3-0.2-0.6-0.5-0.8-0.8c-0.2-0.3-0.3-0.7-0.3-1.1c0-0.7,0.3-1.3,0.9-1.7
				c0.7-0.5,1.6-0.7,2.4-0.6c1,0,1.9,0.2,2.8,0.6l-0.5,1.1c-0.8-0.3-1.6-0.5-2.4-0.6c-0.5,0-1,0.1-1.5,0.3c-0.3,0.2-0.5,0.5-0.5,0.8
				c0,0.2,0.1,0.4,0.2,0.6c0.2,0.2,0.4,0.4,0.6,0.5c0.5,0.3,1,0.5,1.6,0.7c0.8,0.2,1.5,0.6,2.2,1.2
				C523.1,130.1,523.3,130.7,523.3,131.2z"/>
			<path class="st5" d="M528.4,129.1c0,1.4-0.2,2.7-0.6,4c-0.4,1.2-1,2.3-1.8,3.2h-1.3c0.8-1,1.3-2.2,1.7-3.4s0.6-2.5,0.6-3.8
				c0-1.3-0.2-2.6-0.6-3.9c-0.4-1.2-1-2.4-1.8-3.4h1.3c0.8,1,1.4,2.1,1.8,3.3C528.2,126.3,528.4,127.7,528.4,129.1z"/>
			<path class="st5" d="M361.9,236h-6.6v-11.9h6.6v1.2h-5.3v3.8h4.9v1.2h-4.9v4.4h5.3V236z"/>
			<path class="st5" d="M370.4,236v-5.8c0-0.6-0.1-1.2-0.5-1.6c-0.4-0.4-1-0.6-1.6-0.5c-0.7,0-1.5,0.2-2,0.8
				c-0.5,0.7-0.7,1.6-0.6,2.5v4.7h-1.4v-8.9h1.1l0.2,1.2h0.1c0.3-0.4,0.7-0.8,1.2-1s1.1-0.4,1.7-0.4c0.9-0.1,1.7,0.2,2.4,0.8
				c0.6,0.7,0.9,1.6,0.8,2.5v5.8L370.4,236z"/>
			<path class="st5" d="M376.5,236l-3.4-8.9h1.5l1.9,5.3c0.3,0.8,0.6,1.6,0.8,2.4h0.1c0.2-0.6,0.3-1.2,0.6-1.8
				c0.3-0.9,1-2.9,2.1-5.9h1.4l-3.4,8.9H376.5z"/>
			<path class="st5" d="M382.8,225.7c0.3-0.3,0.5-0.8,0.8-1.2c0.3-0.5,0.5-0.9,0.7-1.2h1.6v0.2c-0.7,0.9-1.4,1.8-2.3,2.5h-0.9
				L382.8,225.7z M384.2,236h-1.4v-8.9h1.4V236z"/>
			<path class="st5" d="M394.8,231.5c0.1,1.2-0.3,2.5-1.1,3.4c-0.8,0.8-1.9,1.3-3,1.2c-0.7,0-1.5-0.2-2.1-0.6
				c-0.6-0.4-1.1-0.9-1.4-1.6c-0.3-0.8-0.5-1.6-0.5-2.5c-0.1-1.2,0.3-2.4,1.1-3.4c0.8-0.8,1.9-1.3,3-1.2c1.1-0.1,2.2,0.4,3,1.2
				C394.5,229.1,394.9,230.3,394.8,231.5z M388,231.5c-0.1,0.9,0.2,1.8,0.7,2.6c1,1.1,2.8,1.2,3.9,0.1l0.1-0.1
				c0.5-0.8,0.8-1.7,0.7-2.6c0.1-0.9-0.2-1.8-0.7-2.6c-1-1.1-2.8-1.2-3.9-0.1l-0.1,0.1C388.2,229.7,387.9,230.6,388,231.5z"/>
			<path class="st5" d="M407.6,234.8L407.6,234.8c-0.7,0.9-1.8,1.4-2.9,1.4c-1,0.1-2.1-0.4-2.7-1.2c-1.3-2.1-1.3-4.7,0-6.8
				c0.7-0.8,1.7-1.3,2.7-1.2c1.1-0.1,2.1,0.4,2.8,1.3h0.1l-0.1-0.6V227v-3.6h1.4V236h-1.1L407.6,234.8z M404.9,235
				c0.7,0.1,1.5-0.2,2-0.8c0.5-0.7,0.7-1.6,0.6-2.4v-0.3c0.1-0.9-0.1-1.9-0.6-2.7c-0.5-0.6-1.2-0.9-2-0.8c-0.7,0-1.4,0.3-1.8,0.9
				c-0.5,0.8-0.7,1.7-0.6,2.6c-0.1,0.9,0.2,1.8,0.6,2.6C403.5,234.7,404.2,235.1,404.9,235L404.9,235z"/>
			<path class="st5" d="M415.5,236.1c-1.2,0.1-2.3-0.4-3.1-1.2c-0.8-0.9-1.2-2.1-1.1-3.4c-0.1-1.2,0.3-2.4,1.1-3.4
				c0.7-0.8,1.8-1.3,2.9-1.3c1,0,2,0.4,2.6,1.1c0.7,0.8,1,1.8,1,2.9v0.9h-6.1c0,0.9,0.2,1.7,0.8,2.4c0.6,0.6,1.3,0.9,2.1,0.8
				c1,0,2-0.2,2.9-0.6v1.2C417.5,236,416.5,236.2,415.5,236.1L415.5,236.1z M415.1,228c-0.6,0-1.3,0.2-1.7,0.7
				c-0.5,0.5-0.7,1.2-0.8,1.9h4.7c0.1-0.7-0.1-1.4-0.6-2C416.3,228.2,415.7,228,415.1,228z"/>
			<path class="st5" d="M429.5,226.9c0.4,0,0.7,0,1.1,0.1l-0.2,1.3c-0.3-0.1-0.7-0.1-1-0.1c-0.7,0-1.4,0.3-1.9,0.9
				c-0.5,0.6-0.8,1.4-0.8,2.2v4.8h-1.3v-8.9h1.1l0.1,1.6h0.1c0.3-0.5,0.7-1,1.2-1.3C428.4,227.1,428.9,226.9,429.5,226.9z"/>
			<path class="st5" d="M436,236.1c-1.2,0.1-2.3-0.4-3.1-1.2c-0.8-0.9-1.2-2.1-1.1-3.4c-0.1-1.2,0.3-2.4,1.1-3.4
				c0.7-0.8,1.8-1.3,2.9-1.3c1-0.1,2,0.4,2.6,1.1c0.7,0.8,1,1.8,1,2.9v0.9h-6.1c0,0.9,0.2,1.7,0.8,2.4c0.6,0.6,1.3,0.9,2.1,0.8
				c1,0,2-0.2,2.9-0.6v1.2c-0.4,0.2-0.9,0.3-1.4,0.4C437,236.1,436.5,236.2,436,236.1z M435.6,228c-0.6,0-1.3,0.2-1.7,0.7
				c-0.5,0.5-0.7,1.2-0.8,1.9h4.7c0.1-0.7-0.1-1.4-0.6-2C436.8,228.2,436.2,228,435.6,228L435.6,228z"/>
			<path class="st5" d="M447.3,233.5c0,0.8-0.3,1.5-0.9,1.9c-0.8,0.5-1.7,0.7-2.6,0.7c-1,0.1-1.9-0.1-2.8-0.6v-1.2
				c0.4,0.2,0.9,0.4,1.4,0.5s0.9,0.2,1.4,0.2c0.6,0,1.1-0.1,1.6-0.3c0.4-0.2,0.6-0.6,0.6-1s-0.2-0.7-0.5-0.9
				c-0.5-0.4-1.1-0.7-1.8-0.9c-0.6-0.2-1.2-0.5-1.8-0.8c-0.3-0.2-0.6-0.5-0.8-0.8c-0.2-0.3-0.3-0.7-0.3-1c0-0.7,0.3-1.3,0.9-1.7
				c0.7-0.5,1.6-0.7,2.4-0.6c1,0,1.9,0.2,2.8,0.6l-0.5,1.1c-0.8-0.3-1.6-0.5-2.4-0.5c-0.5,0-1,0.1-1.5,0.3c-0.3,0.2-0.5,0.5-0.5,0.8
				c0,0.2,0.1,0.4,0.2,0.6c0.2,0.2,0.4,0.4,0.6,0.5c0.5,0.3,1,0.5,1.6,0.7c0.8,0.2,1.5,0.6,2.1,1.2
				C447.1,232.5,447.3,233,447.3,233.5z"/>
			<path class="st5" d="M453.7,236.1c-0.5,0-1.1-0.1-1.6-0.3s-0.9-0.6-1.2-1h-0.1c0.1,0.5,0.1,1,0.1,1.5v3.7h-1.4v-12.9h1.1l0.2,1.2
				h0.1c0.3-0.5,0.7-0.8,1.2-1.1c0.5-0.2,1-0.3,1.6-0.3c1.1-0.1,2.1,0.4,2.7,1.2c0.7,1,1.1,2.2,1,3.4c0.1,1.2-0.3,2.4-1,3.4
				C455.7,235.8,454.7,236.2,453.7,236.1z M453.5,228c-0.7-0.1-1.5,0.2-2,0.8c-0.5,0.7-0.7,1.6-0.6,2.4v0.3
				c-0.1,0.9,0.1,1.9,0.6,2.7c0.5,0.6,1.2,0.9,2,0.8c0.7,0,1.4-0.3,1.8-0.9c0.5-0.8,0.7-1.7,0.6-2.6c0.1-0.9-0.2-1.8-0.6-2.6
				C454.9,228.4,454.2,228,453.5,228L453.5,228z"/>
			<path class="st5" d="M461,227.1v5.8c0,0.6,0.1,1.2,0.5,1.6c0.4,0.4,1,0.6,1.6,0.5c0.8,0.1,1.5-0.2,2-0.8c0.5-0.7,0.7-1.6,0.6-2.5
				V227h1.4v8.9H466l-0.2-1.2h-0.1c-0.3,0.4-0.7,0.8-1.1,1c-0.5,0.2-1.1,0.4-1.7,0.4c-0.9,0.1-1.8-0.2-2.4-0.8
				c-0.6-0.7-0.9-1.6-0.8-2.5V227L461,227.1z"/>
			<path class="st5" d="M473.7,236.1c-1.2,0.1-2.3-0.4-3.1-1.2c-0.8-0.9-1.2-2.1-1.1-3.4c-0.1-1.2,0.3-2.4,1.1-3.4
				c0.7-0.8,1.8-1.3,2.9-1.3c1-0.1,2,0.4,2.6,1.1c0.7,0.8,1,1.8,1,2.9v0.9H471c0,0.9,0.3,1.7,0.8,2.4c0.6,0.6,1.3,0.9,2.1,0.8
				c1,0,2-0.2,2.9-0.6v1.2c-0.4,0.2-0.9,0.3-1.4,0.4C474.8,236.1,474.3,236.2,473.7,236.1z M473.4,228c-0.6,0-1.3,0.2-1.7,0.7
				c-0.5,0.5-0.7,1.2-0.8,1.9h4.7c0.1-0.7-0.1-1.4-0.6-2C474.6,228.2,474,228,473.4,228z"/>
			<path class="st5" d="M485.1,233.5c0,0.8-0.3,1.5-0.9,1.9c-0.8,0.5-1.7,0.7-2.6,0.7c-1,0.1-1.9-0.1-2.8-0.6v-1.2
				c0.4,0.2,0.9,0.4,1.4,0.5s0.9,0.2,1.4,0.2c0.6,0,1.1-0.1,1.6-0.3c0.4-0.2,0.6-0.6,0.6-1s-0.2-0.7-0.5-0.9
				c-0.5-0.4-1.1-0.7-1.8-0.9c-0.6-0.2-1.2-0.5-1.8-0.8c-0.3-0.2-0.6-0.5-0.8-0.8c-0.2-0.3-0.3-0.7-0.2-1c0-0.7,0.3-1.3,0.9-1.7
				c0.7-0.5,1.6-0.7,2.4-0.6c1,0,1.9,0.2,2.8,0.6l-0.5,1.1c-0.8-0.3-1.6-0.5-2.4-0.5c-0.5,0-1,0.1-1.5,0.3c-0.3,0.2-0.5,0.5-0.5,0.8
				c0,0.2,0.1,0.4,0.2,0.6c0.2,0.2,0.4,0.4,0.6,0.5c0.5,0.2,1,0.5,1.6,0.7c0.8,0.2,1.5,0.6,2.1,1.2
				C484.9,232.5,485.1,233,485.1,233.5z"/>
			<path class="st5" d="M490.2,235c0.2,0,0.5,0,0.7,0s0.4-0.1,0.5-0.1v1c-0.2,0.1-0.4,0.1-0.6,0.2c-0.3,0-0.5,0.1-0.8,0.1
				c-1.7,0-2.6-0.9-2.6-2.7v-5.3h-1.3v-0.6l1.3-0.6l0.6-1.9h0.8v2.1h2.6v1h-2.6v5.2c0,0.4,0.1,0.9,0.4,1.2
				C489.4,234.8,489.8,235,490.2,235z"/>
			<path class="st5" d="M498.6,236l-0.3-1.3h-0.1c-0.3,0.5-0.8,0.9-1.3,1.1c-0.5,0.2-1.1,0.3-1.7,0.3c-0.8,0-1.5-0.2-2.1-0.7
				c-0.5-0.5-0.8-1.2-0.8-1.9c0-1.8,1.4-2.8,4.3-2.8h1.5v-0.5c0-0.6-0.1-1.1-0.5-1.5s-0.9-0.5-1.4-0.5c-0.9,0-1.7,0.3-2.5,0.7
				l-0.4-1c0.9-0.5,2-0.8,3-0.8c0.9-0.1,1.7,0.2,2.4,0.7c0.6,0.6,0.8,1.4,0.8,2.3v6.1L498.6,236z M495.6,235c0.7,0,1.5-0.2,2-0.7
				s0.8-1.2,0.7-1.9v-0.8l-1.4,0.1c-0.8,0-1.6,0.1-2.3,0.5c-0.5,0.3-0.8,0.8-0.7,1.4c0,0.4,0.1,0.8,0.5,1.1
				C494.8,234.9,495.2,235,495.6,235L495.6,235z"/>
			<path class="st5" d="M593.7,253.7c0,1-0.4,1.9-1.1,2.4c-0.9,0.6-2,0.9-3.1,0.9c-1.1,0.1-2.2-0.1-3.2-0.5v-1.3
				c0.5,0.2,1,0.4,1.6,0.5s1.1,0.2,1.7,0.2c0.7,0.1,1.5-0.1,2.1-0.5c0.5-0.3,0.7-0.9,0.7-1.5c0-0.4-0.1-0.7-0.2-1
				c-0.2-0.3-0.5-0.6-0.8-0.7c-0.6-0.3-1.2-0.6-1.8-0.8c-0.9-0.3-1.7-0.8-2.4-1.4c-0.5-0.6-0.8-1.3-0.7-2.1c0-0.8,0.3-1.7,1-2.2
				c0.8-0.6,1.8-0.9,2.7-0.8c1.1,0,2.2,0.2,3.3,0.6l-0.4,1.2c-0.9-0.4-1.9-0.6-2.9-0.6c-0.6,0-1.2,0.1-1.7,0.5
				c-0.4,0.3-0.6,0.8-0.6,1.3c0,0.3,0.1,0.7,0.2,1c0.2,0.3,0.5,0.5,0.8,0.7c0.5,0.3,1.1,0.5,1.7,0.7c1,0.3,1.8,0.8,2.6,1.4
				C593.5,252.2,593.7,252.9,593.7,253.7z"/>
			<path class="st5" d="M599.7,257c-1.2,0.1-2.3-0.3-3.1-1.2c-0.8-0.9-1.2-2.1-1.2-3.3c-0.1-1.2,0.3-2.5,1.1-3.4
				c0.7-0.8,1.8-1.3,2.8-1.3c1-0.1,1.9,0.3,2.6,1c0.7,0.8,1,1.8,1,2.9v0.9h-6.2c0,0.9,0.2,1.7,0.8,2.4c0.6,0.6,1.3,0.9,2.1,0.8
				c1,0,2-0.2,2.8-0.6v1.2c-0.4,0.2-0.9,0.3-1.4,0.4C600.8,256.9,600.2,257,599.7,257z M599.3,248.9c-0.6,0-1.3,0.2-1.7,0.7
				c-0.5,0.5-0.7,1.2-0.8,1.9h4.7c0.1-0.7-0.1-1.4-0.6-2C600.6,249,600,248.8,599.3,248.9L599.3,248.9z"/>
			<path class="st5" d="M606.7,256.8h-1.4v-12.7h1.4V256.8z"/>
			<path class="st5" d="M613.3,257c-1.2,0.1-2.3-0.4-3.1-1.2c-0.8-0.9-1.2-2.1-1.1-3.3c-0.1-1.2,0.3-2.4,1.1-3.4
				c0.7-0.8,1.8-1.3,2.8-1.3s2,0.4,2.7,1.1c0.7,0.8,1,1.8,1,2.9v0.9h-6.1c0,0.9,0.2,1.7,0.8,2.4c0.6,0.6,1.3,0.9,2.1,0.8
				c1,0,2-0.2,2.8-0.6v1.2c-0.4,0.2-0.9,0.3-1.4,0.4C614.3,257,613.8,257,613.3,257z M612.9,248.9c-0.6,0-1.3,0.2-1.7,0.7
				c-0.5,0.5-0.7,1.2-0.8,1.9h4.7c0.1-0.7-0.1-1.4-0.6-2C614.1,249,613.5,248.8,612.9,248.9L612.9,248.9z"/>
			<path class="st5" d="M622.4,257c-1.1,0.1-2.2-0.4-3-1.2c-0.8-1-1.1-2.2-1.1-3.4c-0.1-1.2,0.3-2.5,1.1-3.5
				c0.8-0.8,1.9-1.3,3.1-1.2c0.4,0,0.9,0,1.3,0.1c0.3,0.1,0.7,0.2,1,0.3l-0.4,1.1c-0.3-0.1-0.7-0.2-1-0.3s-0.6-0.1-0.9-0.1
				c-1.8,0-2.7,1.1-2.7,3.5c-0.1,0.9,0.2,1.8,0.7,2.5c0.5,0.6,1.2,0.9,2,0.9s1.6-0.2,2.3-0.5v1.2C624,256.9,623.2,257,622.4,257z"/>
			<path class="st5" d="M630.4,257c-1.1,0.1-2.2-0.4-3-1.2c-0.8-1-1.1-2.2-1.1-3.4c-0.1-1.2,0.3-2.5,1.1-3.5
				c0.8-0.8,1.9-1.3,3.1-1.2c0.4,0,0.9,0,1.3,0.1c0.3,0.1,0.7,0.2,1,0.3l-0.4,1.1c-0.3-0.1-0.7-0.2-1-0.3s-0.6-0.1-0.9-0.1
				c-1.8,0-2.7,1.1-2.7,3.5c-0.1,0.9,0.2,1.8,0.7,2.5c0.5,0.6,1.2,0.9,2,0.9s1.6-0.2,2.3-0.5v1.2C631.9,256.9,631.2,257,630.4,257z"
				/>
			<path class="st5" d="M634.6,245.5c0-0.2,0.1-0.5,0.2-0.7c0.2-0.1,0.4-0.2,0.6-0.2c0.2,0,0.4,0.1,0.6,0.2c0.3,0.4,0.3,1,0,1.4
				c-0.1,0.1-0.4,0.2-0.6,0.2c-0.2,0-0.4-0.1-0.6-0.2C634.7,246,634.6,245.7,634.6,245.5z M636.1,256.8h-1.3v-8.9h1.3V256.8z"/>
			<path class="st5" d="M646.7,252.4c0.1,1.2-0.3,2.4-1.1,3.4c-0.8,0.8-1.9,1.3-3,1.2c-0.7,0-1.5-0.2-2.1-0.6s-1.1-0.9-1.4-1.6
				c-0.4-0.8-0.5-1.6-0.5-2.5c-0.1-1.2,0.3-2.4,1.1-3.4c0.8-0.8,1.9-1.3,3-1.2c1.1-0.1,2.2,0.4,3,1.2
				C646.3,249.9,646.7,251.1,646.7,252.4z M639.9,252.4c-0.1,0.9,0.2,1.8,0.7,2.6c0.5,0.6,1.2,0.9,2,0.9s1.5-0.3,2-0.9
				c0.5-0.8,0.8-1.7,0.7-2.6c0.1-0.9-0.2-1.8-0.7-2.6c-1.1-1.1-2.8-1.1-3.9-0.1l-0.1,0.1C640.1,250.5,639.8,251.4,639.9,252.4z
				 M641.4,246.5c0.3-0.3,0.5-0.8,0.8-1.2s0.5-0.8,0.7-1.2h1.7v0.2c-0.3,0.5-0.7,0.9-1.1,1.3c-0.4,0.4-0.8,0.8-1.2,1.2h-0.9V246.5z"
				/>
			<path class="st5" d="M655.2,256.8V251c0-0.6-0.1-1.2-0.5-1.6c-0.4-0.4-1-0.6-1.5-0.5c-0.8-0.1-1.5,0.2-2.1,0.8
				c-0.5,0.7-0.7,1.6-0.7,2.5v4.7H649V248h1.1l0.2,1.2h0.1c0.3-0.4,0.7-0.8,1.2-1s1.1-0.4,1.7-0.4c0.9-0.1,1.8,0.2,2.4,0.8
				c0.6,0.7,0.9,1.6,0.8,2.5v5.8h-1.3V256.8z"/>
			<path class="st5" d="M669.7,255.6L669.7,255.6c-0.7,0.9-1.8,1.4-2.9,1.4c-1,0.1-2.1-0.4-2.7-1.2c-0.7-1-1.1-2.2-1-3.4
				c-0.1-1.2,0.3-2.4,1-3.4c0.7-0.8,1.7-1.3,2.7-1.2c1.1-0.1,2.1,0.4,2.8,1.3h0.1l-0.1-0.6v-0.6v-3.6h1.4V257h-1.1L669.7,255.6z
				 M667,255.8c0.7,0.1,1.5-0.2,2-0.8c0.5-0.7,0.7-1.6,0.6-2.4v-0.3c0.1-0.9-0.1-1.9-0.6-2.7c-0.5-0.6-1.2-0.9-2-0.8
				c-0.7,0-1.4,0.3-1.8,0.9c-0.5,0.8-0.7,1.7-0.6,2.6c-0.1,0.9,0.2,1.8,0.6,2.6C665.6,255.5,666.3,255.9,667,255.8z"/>
			<path class="st5" d="M677.6,257c-1.2,0.1-2.3-0.4-3.1-1.2c-0.8-0.9-1.2-2.1-1.1-3.3c-0.1-1.2,0.3-2.4,1.1-3.4
				c0.7-0.8,1.8-1.3,2.8-1.3s2,0.4,2.7,1.1c0.7,0.8,1,1.8,1,2.9v0.9h-6.2c0,0.9,0.2,1.7,0.8,2.4c0.6,0.6,1.3,0.9,2.1,0.8
				c1,0,2-0.2,2.8-0.6v1.2c-0.4,0.2-0.9,0.3-1.3,0.4C678.6,257,678.1,257,677.6,257z M677.2,248.9c-0.6,0-1.3,0.2-1.7,0.7
				c-0.5,0.5-0.7,1.2-0.8,1.9h4.7c0.1-0.7-0.1-1.4-0.6-2C678.5,249,677.8,248.8,677.2,248.9L677.2,248.9z"/>
			<path class="st5" d="M691.1,257c-1.1,0.1-2.2-0.4-3-1.2c-0.8-1-1.1-2.2-1.1-3.4c-0.1-1.2,0.3-2.5,1.1-3.5
				c0.8-0.8,1.9-1.3,3.1-1.2c0.4,0,0.9,0,1.3,0.1c0.3,0.1,0.7,0.2,1,0.3l-0.4,1.1c-0.3-0.1-0.7-0.2-1-0.3s-0.6-0.1-0.9-0.1
				c-1.8,0-2.7,1.1-2.7,3.5c-0.1,0.9,0.2,1.8,0.7,2.5c0.5,0.6,1.2,0.9,2,0.9s1.6-0.2,2.3-0.5v1.2C692.6,256.9,691.9,257,691.1,257z"
				/>
			<path class="st5" d="M700.9,256.8l-0.3-1.3h-0.1c-0.4,0.5-0.8,0.9-1.3,1.1c-0.5,0.2-1.1,0.3-1.7,0.3c-0.8,0-1.5-0.2-2.1-0.7
				c-0.5-0.5-0.8-1.2-0.8-1.9c0-1.8,1.4-2.8,4.3-2.8h1.5v-0.6c0-0.6-0.1-1.1-0.5-1.5s-0.9-0.5-1.5-0.5c-0.9,0-1.7,0.3-2.5,0.7
				l-0.4-1c0.5-0.2,0.9-0.4,1.5-0.6c0.5-0.1,1-0.2,1.6-0.2c0.8-0.1,1.7,0.2,2.4,0.7c0.6,0.6,0.8,1.4,0.8,2.3v6L700.9,256.8
				L700.9,256.8z M697.9,255.8c0.7,0,1.5-0.2,2-0.7s0.8-1.2,0.7-1.9v-0.8h-1.3c-0.8,0-1.6,0.2-2.3,0.5c-0.5,0.3-0.7,0.8-0.7,1.4
				c0,0.4,0.1,0.8,0.4,1.1C697,255.7,697.4,255.9,697.9,255.8z"/>
			<path class="st5" d="M716.1,256.8V251c0-0.6-0.1-1.1-0.5-1.6c-0.4-0.4-0.9-0.6-1.4-0.5c-0.7-0.1-1.4,0.2-1.9,0.7
				c-0.4,0.7-0.7,1.4-0.6,2.2v5h-1.3V251c0-0.6-0.1-1.1-0.5-1.6c-0.4-0.4-0.9-0.6-1.4-0.5c-0.7-0.1-1.4,0.2-1.9,0.8
				c-0.5,0.7-0.7,1.6-0.6,2.5v4.7h-1.3V248h1.1l0.2,1.2h0.1c0.3-0.4,0.6-0.8,1.1-1c0.5-0.3,1-0.4,1.6-0.4c1.1-0.1,2.2,0.5,2.7,1.5
				h0.1c0.3-0.5,0.7-0.9,1.2-1.1c0.5-0.3,1.1-0.4,1.7-0.4c0.8-0.1,1.7,0.2,2.3,0.8c0.6,0.7,0.8,1.6,0.8,2.5v5.8h-1.5V256.8z"/>
			<path class="st5" d="M724.4,257c-0.5,0-1.1-0.1-1.6-0.3c-0.5-0.2-0.9-0.6-1.2-1h-0.1c0.1,0.5,0.1,1,0.1,1.5v3.7h-1.3V248h1.1
				l0.2,1.2h0.1c0.3-0.4,0.7-0.8,1.2-1s1-0.3,1.6-0.3c1.1-0.1,2.1,0.4,2.7,1.2c0.7,1,1.1,2.2,1,3.4c0.1,1.2-0.3,2.4-1,3.4
				C726.5,256.6,725.4,257,724.4,257z M724.2,248.9c-0.7-0.1-1.5,0.2-2,0.8c-0.5,0.7-0.7,1.6-0.6,2.4v0.3c-0.1,0.9,0.1,1.9,0.6,2.7
				c0.5,0.6,1.2,0.9,2,0.8c0.7,0,1.4-0.3,1.8-0.9c0.5-0.8,0.7-1.7,0.7-2.6c0-0.9-0.2-1.8-0.7-2.5
				C725.6,249.2,724.9,248.9,724.2,248.9z"/>
			<path class="st5" d="M738.2,252.4c0.1,1.2-0.3,2.4-1.1,3.4c-0.8,0.8-1.9,1.3-3,1.2c-0.7,0-1.5-0.2-2.1-0.6s-1.1-0.9-1.4-1.6
				c-0.4-0.8-0.5-1.6-0.5-2.5c-0.1-1.2,0.3-2.4,1.1-3.4c0.8-0.8,1.9-1.3,3-1.2c1.1-0.1,2.2,0.4,3,1.2
				C737.8,249.9,738.2,251.1,738.2,252.4z M731.4,252.4c-0.1,0.9,0.2,1.8,0.7,2.6c0.5,0.6,1.2,0.9,2,0.9s1.5-0.3,2-0.9
				c0.5-0.8,0.7-1.7,0.7-2.6c0.1-0.9-0.2-1.8-0.7-2.6c-0.5-0.6-1.2-0.9-2-0.9c-0.8-0.1-1.5,0.3-2,0.9
				C731.5,250.5,731.3,251.4,731.4,252.4L731.4,252.4z"/>
			<path class="st5" d="M746.3,254.4c0,0.8-0.3,1.5-0.9,1.9c-0.8,0.5-1.7,0.7-2.6,0.7c-1,0-1.9-0.1-2.8-0.6v-1.3
				c0.4,0.2,0.9,0.4,1.4,0.5s0.9,0.2,1.4,0.2c0.6,0,1.1-0.1,1.6-0.3c0.6-0.3,0.7-1.1,0.4-1.6c-0.1-0.1-0.2-0.2-0.3-0.3
				c-0.5-0.4-1.1-0.7-1.8-0.9c-0.6-0.2-1.2-0.5-1.8-0.8c-0.3-0.2-0.6-0.5-0.8-0.8s-0.3-0.7-0.3-1c0-0.7,0.3-1.3,0.9-1.7
				c0.7-0.5,1.6-0.7,2.4-0.6c1,0,1.9,0.2,2.8,0.6l-0.5,1.1c-0.8-0.3-1.6-0.5-2.4-0.6c-0.5,0-1,0.1-1.5,0.3c-0.3,0.2-0.5,0.5-0.5,0.8
				c0,0.2,0.1,0.4,0.2,0.6c0.2,0.2,0.4,0.4,0.6,0.5c0.5,0.3,1,0.5,1.6,0.7c0.8,0.2,1.5,0.6,2.1,1.2
				C746.1,253.3,746.3,253.8,746.3,254.4z"/>
		</g>
		<polygon class="st4" points="998.9,167.3 796.8,167.3 813.2,150.8 795.2,150.8 773.9,172.1 795.2,193.4 813.2,193.4 796.8,177 
			998.9,177 		"/>
		<polygon class="st4" points="519.7,188.4 536.1,204.8 314,204.8 314,214.5 536.1,214.5 519.7,230.9 537.7,230.9 559,209.6 
			537.7,188.4 		"/>
		<polygon class="st4" points="347.8,171.2 331.4,154.8 552.4,154.8 552.4,145.1 331.4,145.1 347.8,128.6 329.8,128.6 308.5,149.9 
			329.8,171.2 		"/>
		<path class="st4" d="M42.8,135.5c2.3,1.5,4.8,2.7,7.5,3.5c6.4,1.9,13,2.7,19.7,2.6c7.1,0,14.2-0.5,20.9-2.6c2.9-0.9,5.6-2.3,8-4.1
			c2.8-1.9,3.4-5.7,1.5-8.5c-0.3-0.5-0.7-0.9-1.2-1.3c-1.9-1.6-4-2.8-6.3-3.7c-7.8-2.9-16.1-3-24.3-3c-4.8,0.1-9.6,0.6-14.4,1.4
			c-4.2,0.6-8.3,1.8-11.7,4.6C38.5,127.7,38.6,132.6,42.8,135.5z"/>
		<path class="st4" d="M101.3,168.3c0-2.1-0.3-2.2-2.2-1.5c-3.7,1.4-7.4,2.9-11.2,4c-7,2.1-14.3,1.8-21.6,1.7
			c-8.5-0.1-16.9-2.1-24.5-5.7c-1.8-0.9-2.1-0.6-2.1,1.3c0,2.2,0.1,4.5,0,6.7c-0.3,4,1.7,6.7,5,8.5c1.3,0.7,2.6,1.2,4,1.7
			c7,2.3,14.3,2.9,21.6,3.2c5-0.5,10-0.7,14.9-1.6c4-0.8,7.8-2,11.5-3.6c3.2-1.3,5.1-4.5,4.7-7.9
			C101.2,172.9,101.3,170.6,101.3,168.3z M63.4,183.5c-1.7,0-3-1.3-3-3s1.3-3,3-3c1.7,0,3,1.3,3,3S65,183.5,63.4,183.5z M71,183.5
			c-1.7,0-3-1.3-3-3s1.3-3,3-3s3,1.3,3,3S72.7,183.5,71,183.5z M79.3,183.5c-1.7,0-3-1.3-3-3s1.3-3,3-3s3,1.3,3,3
			S81,183.5,79.3,183.5z"/>
		<path class="st4" d="M238.9,204.5c0-1.6,1-2.5,1.9-3.4c1.8-1.9,1.8-4.9,0-6.8c-2.2-2.1-2.3-3.2-0.9-5.9c1-1.7,1.9-3.4,3-5.1
			c1.3-2.1,2.7-2.9,4.9-1.9c2.4,1,3.9-0.7,5.6-1.6c0.4-0.2,0.6-1.2,0.7-1.9c0.7-2.7,1.7-3.5,4.5-3.5c2.1,0,4.1,0,6.2,0
			c2.3,0,3.4,0.9,4,3.1c0.5,2.7,3,4.5,5.7,4c0.3,0,0.5-0.1,0.8-0.2c2.3-0.6,3.6-0.1,4.8,2c1.1,1.9,2.2,3.8,3.3,5.6s1.1,3.6-0.7,5
			c-2.2,1.6-1.5,3.8-1.5,5.8c0,0.6,0.9,1.2,1.4,1.7c1.8,1.9,2,3.1,0.7,5.4c-1,1.8-2.1,3.6-3.1,5.4c-1.2,2-2.7,2.8-4.8,1.9
			c-2.5-1.1-4,0.7-5.8,1.6c-0.4,0.2-0.5,1.2-0.7,1.8c-0.8,2.9-1.8,3.7-4.7,3.7h-5.8c-2.6,0-3.7-0.9-4.3-3.3
			c-0.6-2.7-3.2-4.4-5.8-3.8c-0.2,0-0.3,0.1-0.5,0.1c-2.4,0.7-3.8,0.1-5.1-2c-1.1-1.8-2.1-3.7-3.2-5.5
			C239.4,206,239.1,205.3,238.9,204.5z M279.7,189.2c-0.8-1.2-1-1.7-2.1-3.1c-0.7-1-1.2-1.4-2.3-0.9c-1.8,0.8-2.8,0.5-4.2-0.4
			c-0.8-0.5-2.2-1-3.2-1.6s-1.8-1.2-2-2.4c-0.1-0.5-0.3-1-0.4-1.5c0-0.7-0.5-1.3-1.2-1.3c-0.1,0-0.2,0-0.3,0c-1.4,0.1-2.8,0.1-4.2,0
			c-1.4-0.1-2.1,0.3-2.2,1.7c-0.1,1.9,0,2.1-1.7,3.1c-0.9,0.6-3.1,1.9-4.1,2.4c-0.6,0.3-1.3,0.5-2,0.4c-1.2-0.1-2.6-0.9-3.4-0.5
			c-0.7,0.3-1.3,0.8-1.6,1.5c-0.3,0.6-0.6,1.6-0.9,2.1c-0.7,1.2-1.2,2.1,0.6,3.7c1.2,1.1,1.4,2.2,1.4,3.9c0.1,1.1,0.1,2,0,3.2
			c0.2,1-0.2,2.1-1,2.8c-0.5,0.4-0.9,0.9-1.3,1.2c-0.5,0.3-0.7,1-0.4,1.5c0,0.1,0.1,0.1,0.1,0.2c0.9,1.4,1.7,2.9,2.5,4.3
			c0.4,0.8,0.9,1,1.7,0.7c1.4-0.8,3-0.7,4.4,0.1c0.5,0.2,3.6,1.8,3.8,2c1.1,0.7,1.8,1.4,2,3.6c0.1,1,0.6,1.4,1.6,1.3s2.2,0,3.3,0
			c3.2,0,2.5,0.4,3.2-2.5c0.3-1.4,1-1.8,2.3-2.7c1-0.7,2.1-1.3,3.1-1.8c0.8-0.4,1.7-0.6,2.5-0.5c0.7,0,1.4,0.5,2,0.5
			c0.5,0,1-0.2,1.4-0.6c1-1.4,1.7-3,2.6-4.4c0.4-0.4,0.4-1.1,0-1.5c-0.1-0.1-0.2-0.1-0.2-0.2c-2-1.4-2.1-2.2-2.3-3.4
			c0-0.2-0.3-3.5-0.3-3.7c-0.2-2.1,0.5-3.3,2.5-4.6C280.1,191.2,280.2,190.1,279.7,189.2z"/>
		<path class="st4" d="M204.4,165.5c0-9.6,6.8-17.8,16.2-19.6c1-0.1,1.8-0.9,2.1-1.9c4.2-10.4,13.9-16.9,25-16.6
			c9.8,0.3,17.3,4.9,22.3,13.5c0.4,1.1,1.6,1.8,2.8,1.6c9-0.8,17.3,5,19.6,13.8c0.3,0.7,0.8,1.2,1.5,1.5c6.5,1.8,10.1,5.9,11,12.6
			s-4.6,14.1-11.5,15c-1.1,0.1-2.3,0.3-3.4,0.3c-1.4,0-2.7-0.5-2.7-2.1s1.2-2,2.6-2c6-0.2,9.6-3,10.7-8.3c1.1-5.8-2.9-11.1-9.2-11.7
			c-1.5,0-2.7-1.1-2.8-2.6c-1.7-8.8-9-13.8-17.8-12.1c-2,0.4-2.8-0.5-3.6-2.1c-4.2-8.8-11.2-13.3-20.9-13.3
			c-9.4,0.2-17.6,6.4-20.4,15.4c-0.3,1.6-1.7,2.8-3.4,2.8c-7.3,0.8-13.4,6.8-14.1,13.7c-0.8,8,3.4,14.9,10.8,17.4
			c0.4,0.1,0.8,0.2,1.2,0.4c1.1,0.5,1.8,1.4,1.2,2.4c-0.5,0.8-1.4,1.3-2.4,1.3c-1.8-0.4-3.6-1.1-5.2-2
			C208.1,179.4,204.3,172.7,204.4,165.5z"/>
		<path class="st4" d="M269.8,197.8c0,4.5-3.7,8.2-8.2,8.2s-8.2-3.7-8.2-8.2s3.7-8.2,8.2-8.2h0.1c4.5,0,8.1,3.6,8.1,8
			C269.8,197.7,269.8,197.8,269.8,197.8z M261.7,202.2c2.4,0,4.4-2,4.4-4.4l0,0c-0.1-2.4-2.1-4.4-4.5-4.4s-4.4,2-4.4,4.4
			c0,0,0,0,0,0.1c0,2.4,1.9,4.3,4.3,4.4C261.6,202.2,261.6,202.2,261.7,202.2z"/>
		<path class="st4" d="M239.3,169.2l-1.2-4.1h-6.2l-1.2,4.1h-3.9l6-17.2h4.4l6.1,17.2H239.3z M237.2,162.1c-1.1-3.7-1.8-5.8-1.9-6.3
			s-0.2-0.9-0.3-1.1c-0.2,1-1,3.5-2.2,7.4L237.2,162.1L237.2,162.1z"/>
		<path class="st4" d="M257.2,157.4c0.1,1.6-0.5,3.2-1.7,4.2c-1.4,1.1-3.2,1.6-4.9,1.5H249v6.1h-3.6v-17.1h5.5
			c1.7-0.1,3.4,0.4,4.7,1.3C256.7,154.4,257.3,155.9,257.2,157.4z M249,160.1h1.2c0.9,0.1,1.8-0.2,2.5-0.7c0.6-0.5,0.9-1.2,0.8-1.9
			c0.1-0.7-0.2-1.4-0.7-1.9c-0.6-0.5-1.4-0.7-2.2-0.6H249V160.1z"/>
		<path class="st4" d="M260.4,169.2v-17.1h3.6v17.1H260.4z"/>
		<path class="st4" d="M1077.9,123.1c3.3,0,6.8,3,6.8,5.9c0,2.2,0.1,10.6,0.2,12.6s3.3,2.9,3.3,3.9s-0.9,0.8-3,0.8h-5.6
			c0,0-3.6,14-4.9,14s-4.3-13.6-5.8-13.9c-1.8-0.2-3.5-0.3-5.3-0.3c-1.5,0-4.1-0.9-2.1-1.6s2.9-1.1,2.9-2.9c0-1.4,0.4-9.7,0.4-12.6
			C1064.8,126.1,1071.4,119.4,1077.9,123.1z"/>
		<path class="st4" d="M1056.8,157.3c0.3-1.2,0.9-2.3,1.8-3.2c1.2-1.1,4.4-4.9,9.1-5.5c0.6-0.1-3.2,5.2-3.2,5.2l2.8,0.2l-1.4,1.5
			l9,7.3l8.7-7.2l-1.4-1.8l3.2,0.1c0,0-3.8-4.6-4.2-5.2c-0.2-0.4,2.1,0.2,4.1,1.4c2.3,1.6,4.5,3.5,6.5,5.6c1.7,1.9,1.3,2.1,1.3,2.1
			c-4.8,5.3-11.6,8.3-18.7,8.2c-6.4,0-12.6-2.5-17.2-7C1056.7,158.4,1056.6,157.8,1056.8,157.3z"/>
		<path class="st4" d="M1100.2,191.3c0.3,0-0.9-2.7,0.7-5.8c1.6-3.3,5-5.4,8.7-5.3c3.6-0.1,7,1.9,8.8,5.1c0.9,1.7,1.2,3.6,0.9,5.5
			c0,0-0.3,1.2,0.1,1.2c1.3,0,1.2,0.9,1.1,1.6s-0.2,2-1.1,1.9s-0.9-0.9-1.3,0.2c-0.6,1.4-1.3,2.7-2.1,3.9c-1.7,2.5-3.8,4.4-6.3,4.4
			s-5.6-3.1-6.7-5.3c-1.5-2.8-1.5-3.9-2.3-3.7c-0.6,0.1-1.3-0.4-1.3-1.5C1099.3,192,1098.7,191.3,1100.2,191.3z"/>
		<path class="st4" d="M1102.7,205.9c-0.4-1.3-4.4-1-7.5,1.8s-3.4,7.2-3.3,8.9s0,1.9,0.3,2.2c8.1,8,20.6,9.5,30.3,3.6
			c3.3-2,6.1-4.7,6.3-5.4s-0.6-6-2.8-8s-5.3-3.7-6.7-3.9s-2.4,0-2.6,1.2c-1.5,7.7-4,16.3-4,16.3l-1-14.2c0,0-0.2-1.9-1.8-1.8
			s-2.2,0.6-2.2,1.7s-0.7,10.3-0.8,14.3C1103.4,209.2,1103.1,207.1,1102.7,205.9z"/>
		<path class="st4" d="M1030.6,191.3c0.3,0-0.9-2.7,0.7-5.8c1.7-3.3,5-5.4,8.7-5.3c3.6-0.1,7,1.9,8.8,5.1c0.9,1.7,1.2,3.6,0.9,5.5
			c0,0-0.3,1.2,0.1,1.2c1.2,0,1.2,0.9,1.1,1.6s-0.2,2-1.1,1.9s-0.9-0.9-1.3,0.2c-0.6,1.4-1.3,2.7-2.1,3.9c-1.7,2.5-3.8,4.4-6.3,4.4
			s-5.6-3.1-6.7-5.3c-1.5-2.8-1.5-3.9-2.3-3.7c-0.6,0.1-1.3-0.4-1.3-1.5C1029.7,192,1029.1,191.3,1030.6,191.3z"/>
		<path class="st4" d="M1033.1,205.9c-0.4-1.3-4.4-1-7.5,1.8s-3.4,7.2-3.3,8.9s0,1.9,0.3,2.2c4.7,4.7,11,7.2,17.6,7.2
			c4.5,0,8.9-1.2,12.7-3.5c3.3-2,6.1-4.7,6.3-5.4s-0.6-6-2.8-8s-5.3-3.7-6.7-3.9s-2.4,0-2.6,1.2c-1.5,7.7-4,16.3-4,16.3l-0.9-14.2
			c0,0-0.2-1.9-1.8-1.8s-2.2,0.6-2.2,1.7s-0.7,10.3-0.8,14.3C1033.8,209.2,1033.5,207.1,1033.1,205.9z"/>
		<rect x="586.3" y="130.7" class="st4" width="6.5" height="4.9"/>
		<path class="st4" d="M647.4,139.4l-0.8-3.8l-1.1-4.8h-0.1l-2,8.6h-3.2l-3.1-10.9h3l1.3,4.8c0.2,0.9,0.4,2.1,0.6,3.6h0.1
			c0.1-0.8,0.2-1.6,0.3-2.4l0.2-0.8l1.3-5.2h3.3l1.3,5.2c0,0.1,0.1,0.4,0.1,0.6s0.1,0.6,0.2,0.9s0.1,0.6,0.1,0.9
			c0,0.2,0.1,0.5,0.1,0.7h0.1c0.1-0.5,0.2-1.1,0.3-1.9s0.3-1.4,0.3-1.7l1.3-4.8h2.9l-3.1,10.9L647.4,139.4z"/>
		<path class="st4" d="M664.5,139.4l-0.8-3.8l-1.1-4.8h-0.1l-2,8.6h-3.2l-3.1-10.9h3l1.3,4.8c0.2,0.9,0.4,2.1,0.6,3.6l0,0
			c0.1-0.8,0.2-1.6,0.3-2.4l0.2-0.8l1.3-5.2h3.3l1.3,5.2c0,0.1,0.1,0.4,0.1,0.6s0.1,0.6,0.2,0.9s0.1,0.6,0.1,0.9
			c0,0.2,0.1,0.5,0.1,0.7h0.1c0.1-0.5,0.2-1.1,0.3-1.9s0.3-1.4,0.3-1.7l1.3-4.8h2.9l-3.1,10.9L664.5,139.4z"/>
		<path class="st4" d="M681.6,139.4l-0.8-3.8l-1.1-4.8h-0.1l-2,8.6h-3.2l-3.1-10.9h3l1.3,4.8c0.2,0.9,0.4,2.1,0.6,3.6h0.1
			c0.1-0.8,0.2-1.6,0.3-2.4l0.2-0.8l1.3-5.2h3.3l1.3,5.2c0,0.1,0.1,0.4,0.1,0.6s0.1,0.6,0.2,0.9s0.1,0.6,0.1,0.9
			c0,0.2,0.1,0.5,0.1,0.7h0.1c0.1-0.5,0.2-1.1,0.3-1.9s0.2-1.4,0.3-1.7l1.3-4.8h2.9l-3.1,10.9L681.6,139.4z"/>
		<path class="st4" d="M744.2,131.5l-2.5-3.8h2.4l1.5,2.5l1.5-2.5h2.4l-2.6,3.8l2.7,4h-2.4l-1.6-2.7l-1.6,2.7h-2.4L744.2,131.5z"/>
		<path class="st4" d="M595.5,198.4c0,0.7-0.2,1.4-0.8,1.9s-1.4,0.7-2.2,0.6h-0.7v2.7h-1.6V196h2.4c0.7-0.1,1.5,0.2,2.1,0.6
			C595.3,197,595.6,197.7,595.5,198.4z M591.9,199.6h0.5c0.4,0,0.8-0.1,1.1-0.3s0.4-0.5,0.4-0.9c0-0.3-0.1-0.6-0.3-0.8
			c-0.3-0.2-0.6-0.3-1-0.3h-0.7V199.6z"/>
		<path class="st4" d="M598.4,203.6h-1.6v-8.1h1.6V203.6z"/>
		<path class="st4" d="M603.8,203.6l-0.3-0.8l0,0c-0.2,0.3-0.5,0.5-0.8,0.7c-0.3,0.1-0.7,0.2-1.1,0.2c-0.5,0-1-0.1-1.3-0.5
			s-0.5-0.9-0.5-1.4s0.2-1,0.6-1.4c0.6-0.3,1.3-0.5,2-0.5h1v-0.3c0.1-0.4-0.3-0.8-0.7-0.9c-0.1,0-0.1,0-0.2,0
			c-0.6,0-1.1,0.2-1.6,0.4l-0.5-1.1c0.7-0.4,1.4-0.5,2.2-0.5c0.6,0,1.3,0.1,1.8,0.5c0.4,0.4,0.7,1,0.6,1.5v3.9L603.8,203.6z
			 M603.3,200.9h-0.6c-0.3,0-0.7,0.1-1,0.2c-0.2,0.2-0.4,0.4-0.3,0.7c0,0.4,0.2,0.7,0.8,0.7c0.3,0,0.6-0.1,0.9-0.3
			c0.2-0.2,0.3-0.5,0.3-0.8L603.3,200.9z"/>
		<path class="st4" d="M609,202.4c0.3,0,0.7-0.1,1-0.2v1.2c-0.5,0.2-1,0.3-1.5,0.3s-1-0.1-1.4-0.5c-0.3-0.4-0.5-0.9-0.4-1.4V199H606
			v-0.7l0.9-0.5l0.5-1.2h1v1.3h1.6v1.2h-1.6v2.8c0,0.2,0.1,0.4,0.2,0.5C608.6,202.4,608.8,202.4,609,202.4z"/>
		<path class="st4" d="M614.8,203.6l-0.3-0.8l0,0c-0.2,0.3-0.5,0.5-0.8,0.7c-0.3,0.1-0.7,0.2-1.1,0.2c-0.5,0-1-0.1-1.3-0.5
			s-0.5-0.9-0.5-1.4s0.2-1,0.6-1.4c0.6-0.3,1.3-0.5,2-0.5h1v-0.3c0.1-0.4-0.3-0.8-0.7-0.9c-0.1,0-0.1,0-0.2,0
			c-0.6,0-1.1,0.2-1.6,0.4l-0.5-1.1c0.7-0.4,1.4-0.5,2.2-0.5c0.6,0,1.3,0.1,1.8,0.5c0.4,0.4,0.7,1,0.6,1.5v3.9L614.8,203.6z
			 M614.3,200.9h-0.6c-0.3,0-0.7,0.1-1,0.2c-0.2,0.2-0.4,0.4-0.3,0.7c0,0.4,0.3,0.7,0.8,0.7c0.3,0,0.6-0.1,0.9-0.3
			c0.2-0.2,0.3-0.5,0.3-0.8L614.3,200.9z"/>
		<path class="st4" d="M620.7,199h-1.4v4.6h-1.6V199h-0.9v-0.8l0.9-0.4v-0.4c0-0.5,0.1-1.1,0.5-1.4c0.4-0.3,1-0.5,1.6-0.5
			c0.5,0,1,0.1,1.5,0.2l-0.4,1.2c-0.3-0.1-0.6-0.1-0.9-0.1c-0.2,0-0.4,0.1-0.5,0.2c-0.1,0.1-0.2,0.3-0.2,0.5v0.4h1.4L620.7,199z"/>
		<path class="st4" d="M626.9,200.7c0,0.8-0.2,1.6-0.7,2.2c-0.5,0.6-1.3,0.8-2.1,0.8c-0.5,0-1-0.1-1.5-0.4c-0.4-0.2-0.8-0.6-1-1
			c-0.2-0.5-0.4-1-0.3-1.6c0-0.8,0.2-1.6,0.7-2.2c0.6-0.6,1.3-0.8,2.1-0.8c0.5,0,1,0.1,1.5,0.4c0.4,0.2,0.8,0.6,1,1
			C626.8,199.6,626.9,200.1,626.9,200.7z M622.9,200.7c0,0.5,0.1,0.9,0.3,1.3c0.4,0.5,1.1,0.6,1.6,0.2c0.1-0.1,0.1-0.1,0.2-0.2
			c0.2-0.4,0.3-0.8,0.3-1.3c0-0.4-0.1-0.9-0.3-1.3c-0.2-0.3-0.6-0.5-0.9-0.4c-0.4,0-0.7,0.1-0.9,0.4
			C623,199.8,622.9,200.2,622.9,200.7z"/>
		<path class="st4" d="M631.5,197.7c0.2,0,0.4,0,0.5,0l-0.1,1.5c-0.2,0-0.3-0.1-0.5,0c-0.4,0-0.9,0.1-1.2,0.4
			c-0.3,0.3-0.4,0.7-0.4,1.1v3h-1.6v-5.8h1.2l0.2,1h0.1c0.2-0.3,0.4-0.6,0.7-0.8C630.7,197.8,631.1,197.7,631.5,197.7z"/>
		<path class="st4" d="M638.2,203.6h-1.6v-3.4c0-0.3-0.1-0.7-0.2-0.9c-0.1-0.2-0.4-0.3-0.7-0.3c-0.4,0-0.7,0.1-0.9,0.4
			c-0.2,0.5-0.3,1-0.3,1.5v2.7H633v-5.8h1.2l0.2,0.7h0.1c0.2-0.3,0.4-0.5,0.7-0.6c0.3-0.2,0.7-0.2,1-0.2c0.7-0.1,1.4,0.2,1.8,0.9
			h0.1c0.2-0.3,0.4-0.5,0.7-0.6s0.7-0.2,1-0.2c0.5,0,1.1,0.1,1.5,0.5c0.4,0.5,0.6,1,0.5,1.6v3.8h-1.6v-3.4c0-0.3-0.1-0.7-0.2-0.9
			c-0.1-0.2-0.4-0.3-0.7-0.3s-0.7,0.1-0.9,0.4c-0.2,0.4-0.3,0.9-0.3,1.3L638.2,203.6z"/>
		<path class="st4" d="M647.2,203.6l-0.3-0.8l0,0c-0.2,0.3-0.5,0.5-0.8,0.7c-0.4,0.1-0.7,0.2-1.1,0.2c-0.5,0-1-0.1-1.3-0.5
			s-0.5-0.9-0.5-1.4s0.2-1,0.7-1.4c0.6-0.3,1.3-0.5,1.9-0.5h1v-0.3c0.1-0.4-0.3-0.8-0.7-0.9c-0.1,0-0.1,0-0.2,0
			c-0.6,0-1.1,0.2-1.6,0.4l-0.5-1.1c0.7-0.4,1.4-0.5,2.2-0.5c0.6,0,1.3,0.1,1.8,0.5c0.4,0.4,0.7,1,0.6,1.5v3.9L647.2,203.6z
			 M646.7,200.9h-0.6c-0.3,0-0.7,0.1-1,0.2c-0.2,0.2-0.4,0.4-0.3,0.7c0,0.4,0.3,0.7,0.8,0.7c0.3,0,0.6-0.1,0.9-0.3
			c0.2-0.2,0.3-0.5,0.3-0.8L646.7,200.9z"/>
		<path class="st4" d="M659,199.7c0.1,1.1-0.3,2.1-1.1,2.9c-0.9,0.7-2,1.1-3.1,1h-2.2V196h2.4c1.1-0.1,2.1,0.3,2.9,1
			C658.7,197.7,659.1,198.7,659,199.7z M657.4,199.8c0-1.6-0.7-2.5-2.2-2.5h-0.8v4.9h0.7C656.6,202.2,657.4,201.4,657.4,199.8z"/>
		<path class="st4" d="M660.4,196.3c0-0.5,0.3-0.8,0.9-0.8s0.9,0.3,0.9,0.8c0,0.2-0.1,0.4-0.2,0.6c-0.2,0.1-0.4,0.2-0.6,0.2
			C660.7,197.1,660.4,196.8,660.4,196.3z M662.1,203.6h-1.6v-5.8h1.6V203.6z"/>
		<path class="st4" d="M668.8,197.8v0.8l-0.9,0.2c0.2,0.3,0.3,0.6,0.2,0.9c0,0.6-0.2,1.1-0.7,1.5s-1.2,0.6-1.8,0.5h-0.3h-0.2
			c-0.1,0.1-0.2,0.2-0.2,0.4s0.3,0.3,0.9,0.3h1c0.5,0,1,0.1,1.5,0.4c0.3,0.3,0.5,0.7,0.5,1.2c0,0.6-0.3,1.2-0.8,1.6
			c-0.7,0.4-1.6,0.6-2.4,0.6c-0.6,0-1.3-0.1-1.8-0.4c-0.4-0.2-0.7-0.7-0.6-1.2c0-0.3,0.1-0.6,0.3-0.9c0.3-0.3,0.6-0.4,1-0.5
			c-0.2-0.1-0.3-0.2-0.4-0.3c-0.2-0.3-0.2-0.7,0-1c0.2-0.2,0.3-0.3,0.5-0.4c-0.3-0.1-0.5-0.4-0.7-0.6c-0.2-0.3-0.3-0.6-0.3-1
			c0-0.6,0.2-1.1,0.6-1.5c0.5-0.4,1.1-0.6,1.8-0.5c0.2,0,0.4,0,0.6,0l0.4,0.1L668.8,197.8z M664.3,204.4c0,0.2,0.1,0.4,0.3,0.5
			c0.3,0.1,0.6,0.2,0.9,0.2c0.5,0,0.9-0.1,1.3-0.2c0.3-0.1,0.5-0.3,0.5-0.6c0-0.2-0.1-0.4-0.3-0.5c-0.3-0.1-0.6-0.1-0.9-0.1h-0.8
			c-0.3,0-0.5,0.1-0.7,0.2C664.4,204,664.3,204.2,664.3,204.4L664.3,204.4z M664.9,199.7c0,0.3,0.1,0.5,0.2,0.7
			c0.3,0.4,0.9,0.4,1.3,0l0,0c0.1-0.2,0.2-0.5,0.2-0.7c0-0.7-0.3-1-0.9-1S664.9,199,664.9,199.7L664.9,199.7z"/>
		<path class="st4" d="M669.7,196.3c0-0.5,0.3-0.8,0.9-0.8s0.9,0.3,0.9,0.8c0,0.2-0.1,0.4-0.2,0.6c-0.2,0.1-0.4,0.2-0.6,0.2
			C670,197.1,669.7,196.8,669.7,196.3z M671.3,203.6h-1.6v-5.8h1.6V203.6z"/>
		<path class="st4" d="M675.4,202.4c0.3,0,0.7-0.1,1-0.2v1.2c-0.5,0.2-1,0.3-1.5,0.3s-1-0.1-1.4-0.5c-0.3-0.4-0.5-0.9-0.4-1.4V199
			h-0.8v-0.7l0.9-0.5l0.5-1.2h1v1.3h1.6v1.2h-1.6v2.8c0,0.2,0.1,0.4,0.2,0.5C675.1,202.4,675.2,202.4,675.4,202.4z"/>
		<path class="st4" d="M681.3,203.6l-0.3-0.8l0,0c-0.2,0.3-0.5,0.5-0.8,0.7c-0.3,0.1-0.7,0.2-1.1,0.2c-0.5,0-1-0.1-1.3-0.5
			s-0.5-0.9-0.5-1.4s0.2-1,0.6-1.4c0.6-0.3,1.3-0.5,2-0.5h1v-0.3c0.1-0.4-0.3-0.8-0.7-0.9c-0.1,0-0.1,0-0.2,0
			c-0.6,0-1.1,0.2-1.6,0.4l-0.5-1.1c0.7-0.4,1.4-0.5,2.2-0.5c0.6,0,1.3,0.1,1.8,0.5c0.4,0.4,0.7,1,0.6,1.5v3.9L681.3,203.6z
			 M680.8,200.9h-0.6c-0.3,0-0.7,0.1-1,0.2c-0.2,0.2-0.4,0.4-0.3,0.7c0,0.4,0.3,0.7,0.8,0.7c0.3,0,0.6-0.1,0.9-0.3
			c0.2-0.2,0.3-0.5,0.3-0.8L680.8,200.9z"/>
		<path class="st4" d="M685.6,203.6H684v-8.1h1.6V203.6z"/>
		<path class="st4" d="M696.8,203.6h-2l-3.3-5.8l0,0c0.1,1,0.1,1.7,0.1,2.2v3.6h-1.4V196h2l3.3,5.7l0,0c0-1-0.1-1.7-0.1-2.1V196h1.4
			V203.6z"/>
		<path class="st4" d="M702.3,203.6l-0.3-0.8l0,0c-0.2,0.3-0.5,0.5-0.8,0.7c-0.3,0.1-0.7,0.2-1.1,0.2c-0.5,0-1-0.1-1.3-0.5
			s-0.5-0.9-0.5-1.4s0.2-1,0.7-1.4c0.6-0.3,1.3-0.5,1.9-0.5h1v-0.3c0.1-0.4-0.3-0.8-0.7-0.9c-0.1,0-0.1,0-0.2,0
			c-0.6,0-1.1,0.2-1.6,0.4l-0.5-1.1c0.7-0.4,1.4-0.5,2.2-0.5c0.6,0,1.3,0.1,1.8,0.5c0.4,0.4,0.7,1,0.6,1.5v3.9L702.3,203.6z
			 M701.8,200.9h-0.6c-0.3,0-0.7,0.1-1,0.2c-0.2,0.2-0.4,0.4-0.3,0.7c0,0.4,0.3,0.7,0.8,0.7c0.3,0,0.6-0.1,0.9-0.3
			c0.2-0.2,0.3-0.5,0.3-0.8L701.8,200.9z"/>
		<path class="st4" d="M707.4,203.7c-1.8,0-2.7-1-2.7-3c-0.1-0.8,0.2-1.6,0.7-2.3c0.6-0.5,1.3-0.8,2.1-0.8c0.6,0,1.2,0.1,1.8,0.4
			l-0.5,1.2l-0.7-0.2c-0.2-0.1-0.4-0.1-0.7-0.1c-0.8,0-1.2,0.6-1.2,1.8s0.4,1.7,1.2,1.7c0.3,0,0.6,0,0.8-0.1
			c0.3-0.1,0.5-0.2,0.8-0.4v1.4c-0.2,0.2-0.5,0.3-0.8,0.3C708.1,203.6,707.7,203.7,707.4,203.7z"/>
		<path class="st4" d="M710.4,196.3c0-0.5,0.3-0.8,0.9-0.8s0.9,0.3,0.9,0.8c0,0.2-0.1,0.4-0.2,0.6c-0.2,0.1-0.4,0.2-0.7,0.2
			C710.7,197.1,710.4,196.8,710.4,196.3z M712.1,203.6h-1.6v-5.8h1.6V203.6z"/>
		<path class="st4" d="M719,200.7c0,0.8-0.2,1.6-0.8,2.2c-0.5,0.6-1.3,0.8-2.1,0.8c-0.5,0-1-0.1-1.5-0.4c-0.4-0.2-0.8-0.6-1-1
			c-0.2-0.5-0.4-1-0.3-1.6c-0.1-0.8,0.2-1.6,0.8-2.2c0.5-0.6,1.3-0.8,2.1-0.8c0.5,0,1,0.1,1.5,0.4c0.4,0.2,0.8,0.6,1,1
			C718.9,199.6,719,200.1,719,200.7z M715,200.7c0,0.5,0.1,0.9,0.3,1.3c0.2,0.3,0.6,0.5,0.9,0.4c0.4,0,0.7-0.1,0.9-0.4
			c0.4-0.8,0.4-1.8,0-2.6c-0.4-0.5-1.2-0.6-1.7-0.1l-0.1,0.1C715.1,199.8,715,200.2,715,200.7z"/>
		<path class="st4" d="M725.7,203.6h-1.6v-3.4c0-0.3-0.1-0.7-0.2-0.9c-0.2-0.2-0.4-0.3-0.7-0.3c-0.4-0.1-0.8,0.1-1,0.4
			c-0.2,0.5-0.3,1-0.3,1.5v2.7h-1.6v-5.8h1.2l0.2,0.7h0.1c0.2-0.3,0.4-0.5,0.7-0.6c0.3-0.2,0.7-0.2,1-0.2c0.6,0,1.1,0.2,1.5,0.5
			c0.4,0.4,0.6,1,0.5,1.6L725.7,203.6z"/>
		<path class="st4" d="M731,203.6l-0.3-0.8l0,0c-0.2,0.3-0.5,0.5-0.8,0.7c-0.3,0.1-0.7,0.2-1.1,0.2c-0.5,0-1-0.1-1.3-0.5
			s-0.5-0.9-0.5-1.4s0.2-1,0.6-1.4c0.6-0.3,1.3-0.5,2-0.5h1v-0.3c0.1-0.4-0.3-0.8-0.7-0.9c-0.1,0-0.1,0-0.2,0
			c-0.6,0-1.1,0.2-1.6,0.4l-0.5-1.1c0.7-0.4,1.4-0.5,2.2-0.5c0.6,0,1.3,0.1,1.8,0.5c0.4,0.4,0.7,1,0.6,1.5v3.9L731,203.6z
			 M730.5,200.9h-0.6c-0.3,0-0.7,0.1-1,0.2c-0.2,0.2-0.4,0.4-0.3,0.7c0,0.4,0.3,0.7,0.8,0.7c0.3,0,0.6-0.1,0.9-0.3
			c0.2-0.2,0.3-0.5,0.3-0.8L730.5,200.9z"/>
		<path class="st4" d="M735.3,203.6h-1.6v-8.1h1.6V203.6z"/>
		<path class="st4" d="M590.3,214.7V208h0.8v6.8h-0.8V214.7z"/>
		<path class="st4" d="M596.3,214.7v-3.3c0-0.3-0.1-0.7-0.3-0.9s-0.6-0.3-0.9-0.3c-0.4,0-0.9,0.1-1.2,0.4c-0.3,0.4-0.4,0.9-0.4,1.4
			v2.7h-0.8v-5.1h0.6l0.1,0.7l0,0c0.2-0.3,0.4-0.5,0.7-0.6c0.3-0.2,0.7-0.2,1-0.2c0.9-0.1,1.7,0.5,1.8,1.4c0,0.2,0,0.3,0,0.5v3.3
			L596.3,214.7L596.3,214.7z"/>
		<path class="st4" d="M600.3,214.2h0.4l0.3-0.1v0.6c-0.1,0.1-0.2,0.1-0.4,0.1c-0.1,0-0.3,0-0.4,0c-1,0-1.5-0.5-1.5-1.5v-3H598v-0.4
			l0.7-0.3l0.3-1.1h0.5v1.2h1.5v0.6h-1.5v3c0,0.3,0.1,0.5,0.2,0.7C599.8,214.1,600,214.2,600.3,214.2z"/>
		<path class="st4" d="M604.1,214.8c-0.7,0-1.3-0.2-1.8-0.7s-0.7-1.2-0.7-1.9s0.2-1.4,0.6-2c0.4-0.5,1-0.7,1.6-0.7s1.1,0.2,1.5,0.6
			c0.4,0.4,0.6,1,0.6,1.6v0.5h-3.5c0,0.5,0.1,1,0.5,1.4c0.3,0.3,0.8,0.5,1.2,0.5c0.6,0,1.1-0.1,1.6-0.3v0.7
			c-0.2,0.1-0.5,0.2-0.8,0.3C604.7,214.8,604.4,214.8,604.1,214.8z M603.9,210.2c-0.4,0-0.7,0.1-1,0.4c-0.3,0.3-0.4,0.7-0.4,1.1h2.7
			c0-0.4-0.1-0.8-0.3-1.1C604.6,210.3,604.2,210.2,603.9,210.2L603.9,210.2z"/>
		<path class="st4" d="M608,214.7h-0.8v-7.2h0.8V214.7z"/>
		<path class="st4" d="M609.6,208.3c0-0.1,0-0.3,0.1-0.4c0.1-0.1,0.2-0.1,0.3-0.1s0.2,0,0.3,0.1s0.2,0.2,0.1,0.4
			c0,0.1,0,0.3-0.1,0.4c-0.1,0.1-0.2,0.1-0.3,0.1s-0.2,0-0.3-0.1C609.6,208.6,609.6,208.4,609.6,208.3z M610.4,214.7h-0.8v-5.1h0.8
			V214.7z"/>
		<path class="st4" d="M616.2,209.6v0.5l-0.9,0.1c0.1,0.1,0.2,0.3,0.2,0.4c0.1,0.2,0.1,0.4,0.1,0.6c0,0.5-0.2,0.9-0.5,1.2
			c-0.4,0.3-0.9,0.5-1.4,0.4c-0.1,0-0.3,0-0.4,0c-0.3,0.1-0.5,0.4-0.5,0.6c0,0.1,0.1,0.2,0.2,0.3c0.2,0.1,0.4,0.1,0.6,0.1h0.9
			c0.4,0,0.9,0.1,1.3,0.3c0.3,0.2,0.5,0.6,0.4,1c0,0.5-0.2,1-0.7,1.3c-0.6,0.3-1.3,0.5-2,0.4c-0.5,0-1.1-0.1-1.5-0.4
			c-0.6-0.4-0.7-1.2-0.3-1.8c0,0,0,0,0.1-0.1c0.2-0.2,0.5-0.4,0.8-0.5c-0.1-0.1-0.2-0.2-0.3-0.3s-0.1-0.3-0.1-0.4
			c0-0.2,0-0.3,0.1-0.5s0.3-0.3,0.5-0.4c-0.3-0.1-0.5-0.3-0.6-0.5c-0.2-0.3-0.3-0.6-0.2-0.9c0-0.5,0.2-1,0.5-1.3
			c0.4-0.3,0.9-0.5,1.4-0.5c0.2,0,0.5,0,0.7,0.1L616.2,209.6z M612.2,215.6c0,0.3,0.1,0.5,0.3,0.6c0.3,0.2,0.7,0.2,1,0.2
			c0.5,0,1-0.1,1.4-0.3c0.3-0.2,0.5-0.5,0.5-0.8c0-0.2-0.1-0.4-0.2-0.6c-0.3-0.1-0.7-0.2-1-0.2h-0.9c-0.3,0-0.6,0.1-0.8,0.2
			C612.3,215,612.2,215.3,612.2,215.6L612.2,215.6z M612.6,211.3c0,0.3,0.1,0.6,0.3,0.8s0.5,0.3,0.8,0.3c0.5,0.1,1-0.3,1.1-0.9
			c0-0.1,0-0.1,0-0.2c0.1-0.5-0.3-1.1-0.8-1.1c-0.1,0-0.2,0-0.3,0c-0.3,0-0.6,0.1-0.8,0.3C612.7,210.6,612.6,210.9,612.6,211.3
			L612.6,211.3z"/>
		<path class="st4" d="M619.4,214.8c-0.7,0-1.3-0.2-1.8-0.7s-0.7-1.2-0.7-1.9s0.2-1.4,0.6-2c0.4-0.5,1-0.7,1.6-0.7s1.1,0.2,1.5,0.6
			c0.4,0.5,0.6,1.1,0.5,1.6v0.5h-3.5c0,0.5,0.1,1,0.5,1.4c0.3,0.3,0.8,0.5,1.2,0.5c0.5,0,1.1-0.1,1.6-0.3v0.7
			c-0.2,0.1-0.5,0.2-0.8,0.3C619.9,214.8,619.7,214.8,619.4,214.8z M619.2,210.2c-0.4,0-0.7,0.1-1,0.4c-0.3,0.3-0.4,0.7-0.4,1.1h2.7
			c0-0.4-0.1-0.8-0.3-1.1C619.8,210.3,619.5,210.2,619.2,210.2L619.2,210.2z"/>
		<path class="st4" d="M626,214.7v-3.3c0-0.3-0.1-0.7-0.3-0.9s-0.6-0.3-0.9-0.3c-0.4,0-0.9,0.1-1.2,0.4c-0.3,0.4-0.4,0.9-0.4,1.4
			v2.7h-0.8v-5.1h0.6l0.1,0.7l0,0c0.2-0.3,0.4-0.5,0.7-0.6c0.3-0.2,0.7-0.2,1-0.2c0.5,0,1,0.1,1.4,0.4c0.3,0.4,0.5,0.9,0.5,1.4v3.3
			L626,214.7z"/>
		<path class="st4" d="M630.4,214.8c-0.6,0-1.3-0.2-1.7-0.7s-0.6-1.2-0.6-1.9c-0.1-0.7,0.2-1.4,0.6-2c0.4-0.5,1.1-0.7,1.7-0.7
			c0.2,0,0.5,0,0.7,0.1c0.2,0,0.4,0.1,0.6,0.2l-0.2,0.6c-0.2-0.1-0.4-0.1-0.5-0.2c-0.2,0-0.4-0.1-0.5-0.1c-1,0-1.5,0.7-1.5,2
			c0,0.5,0.1,1,0.4,1.4c0.3,0.3,0.7,0.5,1.1,0.5c0.4,0,0.9-0.1,1.3-0.3v0.7C631.3,214.7,630.8,214.8,630.4,214.8z"/>
		<path class="st4" d="M632.8,208.3c0-0.1,0-0.3,0.1-0.4c0.1-0.1,0.2-0.1,0.3-0.1s0.2,0,0.3,0.1s0.2,0.2,0.1,0.4
			c0,0.1,0,0.3-0.1,0.4c-0.1,0.1-0.2,0.1-0.3,0.1s-0.2,0-0.3-0.1C632.8,208.6,632.8,208.4,632.8,208.3z M633.6,214.7h-0.8v-5.1h0.8
			V214.7z"/>
		<path class="st4" d="M638.4,214.7l-0.2-0.7l0,0c-0.2,0.3-0.5,0.5-0.8,0.6s-0.6,0.2-0.9,0.2c-0.4,0-0.9-0.1-1.2-0.4
			c-0.3-0.3-0.5-0.7-0.4-1.1c0-1,0.8-1.6,2.5-1.6h0.9v-0.3c0-0.3-0.1-0.6-0.2-0.9c-0.2-0.2-0.5-0.3-0.8-0.3c-0.5,0-1,0.2-1.4,0.4
			l-0.2-0.6c0.3-0.1,0.5-0.2,0.8-0.3s0.6-0.1,0.9-0.1c0.5,0,1,0.1,1.3,0.4c0.3,0.3,0.5,0.8,0.4,1.3v3.5L638.4,214.7z M636.6,214.2
			c0.4,0,0.8-0.1,1.1-0.4c0.3-0.3,0.4-0.7,0.4-1.1v-0.5h-0.8c-0.5,0-0.9,0.1-1.3,0.3c-0.3,0.2-0.4,0.5-0.4,0.8
			c0,0.2,0.1,0.5,0.3,0.6C636.1,214.1,636.4,214.2,636.6,214.2z"/>
		<path class="st4" d="M646.4,214L646.4,214c-0.4,0.5-1,0.8-1.6,0.8s-1.2-0.2-1.5-0.7c-0.4-0.6-0.6-1.2-0.5-1.9
			c0-0.7,0.1-1.4,0.5-1.9s0.9-0.7,1.5-0.7s1.2,0.2,1.6,0.8h0.1V210v-0.4v-2.1h0.8v7.2h-0.6L646.4,214z M644.9,214.2
			c0.4,0,0.8-0.1,1.1-0.4c0.3-0.4,0.4-0.9,0.3-1.4v-0.2c0-0.5-0.1-1.1-0.3-1.5c-0.3-0.3-0.7-0.5-1.2-0.5c-0.4,0-0.8,0.2-1,0.5
			c-0.3,0.4-0.4,1-0.4,1.5s0.1,1,0.4,1.5C644.1,214,644.5,214.2,644.9,214.2L644.9,214.2z"/>
		<path class="st4" d="M650.9,214.8c-0.7,0-1.3-0.2-1.8-0.7s-0.7-1.2-0.7-1.9s0.2-1.4,0.6-2c0.4-0.5,1-0.7,1.6-0.7s1.1,0.2,1.5,0.6
			c0.4,0.5,0.6,1,0.6,1.6v0.5h-3.5c0,0.5,0.1,1,0.5,1.4c0.3,0.3,0.8,0.5,1.2,0.5c0.6,0,1.1-0.1,1.6-0.3v0.7
			c-0.2,0.1-0.5,0.2-0.8,0.3C651.5,214.8,651.2,214.8,650.9,214.8z M650.7,210.2c-0.4,0-0.7,0.1-1,0.4c-0.3,0.3-0.4,0.7-0.4,1.1h2.7
			c0-0.4-0.1-0.8-0.3-1.1C651.4,210.3,651.1,210.2,650.7,210.2L650.7,210.2z"/>
		<path class="st4" d="M662,211.3c0.1,0.9-0.3,1.9-0.9,2.6c-0.7,0.6-1.7,0.9-2.6,0.9h-1.9V208h2.1c1.6-0.2,3.1,1,3.3,2.6
			C662.1,210.8,662.1,211,662,211.3L662,211.3z M661.2,211.3c0.1-0.7-0.2-1.4-0.7-2c-0.5-0.5-1.3-0.7-2-0.7h-1.1v5.4h1
			c0.8,0.1,1.5-0.2,2.1-0.7C661,212.8,661.3,212,661.2,211.3L661.2,211.3z"/>
		<path class="st4" d="M666.6,214.7l-0.2-0.7l0,0c-0.2,0.3-0.5,0.5-0.8,0.6s-0.6,0.2-0.9,0.2c-0.4,0-0.8-0.1-1.2-0.4
			c-0.3-0.3-0.5-0.7-0.4-1.1c0-1,0.8-1.6,2.5-1.6h0.9v-0.3c0-0.3-0.1-0.6-0.3-0.9c-0.2-0.2-0.5-0.3-0.8-0.3c-0.5,0-1,0.2-1.4,0.4
			l-0.2-0.6c0.5-0.3,1.1-0.4,1.7-0.4c0.5,0,1,0.1,1.3,0.4c0.3,0.4,0.5,0.8,0.4,1.3v3.5L666.6,214.7z M664.8,214.2
			c0.4,0.1,0.8-0.1,1.2-0.3c0.3-0.3,0.4-0.7,0.4-1.1v-0.5h-0.8c-0.5,0-0.9,0.1-1.3,0.3c-0.3,0.2-0.4,0.5-0.4,0.8
			c0,0.2,0.1,0.5,0.2,0.6C664.4,214.1,664.6,214.2,664.8,214.2z"/>
		<path class="st4" d="M670.3,214.2c0.1,0,0.3,0,0.4,0l0.3-0.1v0.6c-0.1,0.1-0.2,0.1-0.4,0.1c-0.1,0-0.3,0-0.4,0
			c-1,0-1.5-0.5-1.5-1.5v-3H668v-0.4l0.7-0.3l0.3-1.1h0.4v1.2h1.5v0.6h-1.5v3c0,0.3,0.1,0.5,0.2,0.7
			C669.9,214.1,670.1,214.2,670.3,214.2z"/>
		<path class="st4" d="M676.4,212.2c0,0.7-0.2,1.4-0.6,1.9c-0.4,0.5-1.1,0.7-1.7,0.7c-0.4,0-0.8-0.1-1.2-0.3s-0.6-0.5-0.8-0.9
			s-0.3-0.9-0.3-1.4c0-0.7,0.2-1.4,0.6-1.9c0.4-0.5,1.1-0.7,1.7-0.7c0.6,0,1.3,0.2,1.7,0.7C676.2,210.8,676.5,211.5,676.4,212.2z
			 M672.6,212.2c0,0.5,0.1,1,0.4,1.5c0.6,0.6,1.5,0.7,2.2,0.1l0.1-0.1c0.3-0.4,0.4-1,0.4-1.5s-0.1-1-0.4-1.5
			c-0.6-0.6-1.6-0.7-2.2-0.1l-0.1,0.1C672.7,211.1,672.5,211.7,672.6,212.2z"/>
		<path class="st4" d="M681,213.3c0,0.4-0.2,0.8-0.5,1.1c-0.4,0.3-0.9,0.4-1.5,0.4c-0.5,0-1.1-0.1-1.6-0.3v-0.7
			c0.3,0.1,0.5,0.2,0.8,0.3s0.5,0.1,0.8,0.1s0.6,0,0.9-0.2c0.3-0.2,0.4-0.6,0.2-0.9c0-0.1-0.1-0.1-0.2-0.2c-0.3-0.2-0.6-0.4-1-0.5
			c-0.3-0.1-0.7-0.3-1-0.5c-0.2-0.1-0.3-0.3-0.5-0.5c-0.1-0.2-0.1-0.4-0.1-0.6c0-0.4,0.2-0.8,0.5-1c0.4-0.3,0.9-0.4,1.4-0.4
			c0.6,0,1.1,0.1,1.6,0.3l-0.3,0.6c-0.4-0.2-0.9-0.3-1.4-0.3c-0.3,0-0.6,0-0.8,0.2c-0.2,0.1-0.3,0.3-0.3,0.5c0,0.1,0,0.2,0.1,0.3
			s0.2,0.2,0.3,0.3c0.3,0.1,0.6,0.3,0.9,0.4c0.4,0.1,0.9,0.4,1.2,0.7C680.9,212.7,681,213,681,213.3z"/>
		<path class="st4" d="M689.1,214.7l-0.8-2.1h-2.7l-0.8,2.1H684l2.7-6.8h0.7l2.7,6.8H689.1z M688,211.8l-0.8-2.1
			c-0.1-0.3-0.2-0.7-0.3-1c-0.1,0.3-0.2,0.7-0.3,1l-0.8,2.1H688z"/>
		<path class="st4" d="M694.2,214.7v-3.3c0-0.3-0.1-0.7-0.3-0.9s-0.6-0.3-0.9-0.3c-0.4,0-0.9,0.1-1.2,0.4c-0.3,0.4-0.4,0.9-0.4,1.4
			v2.7h-0.8v-5.1h0.6l0.1,0.7l0,0c0.2-0.3,0.4-0.5,0.7-0.6c0.3-0.2,0.7-0.2,1-0.2c0.9-0.1,1.7,0.5,1.8,1.3c0,0.2,0,0.3,0,0.5v3.3
			h-0.6V214.7z"/>
		<path class="st4" d="M698.2,214.2h0.4l0.3-0.1v0.6c-0.1,0.1-0.2,0.1-0.4,0.1c-0.1,0-0.3,0-0.4,0c-1,0-1.5-0.5-1.5-1.5v-3h-0.7
			v-0.4l0.7-0.3l0.3-1.1h0.4v1.2h1.5v0.6h-1.5v3c0,0.3,0.1,0.5,0.2,0.7C697.7,214.1,697.9,214.2,698.2,214.2z"/>
		<path class="st4" d="M699.8,208.3c0-0.1,0-0.3,0.1-0.4c0.1-0.1,0.2-0.1,0.3-0.1s0.2,0,0.3,0.1s0.1,0.2,0.1,0.4
			c0,0.1,0,0.3-0.1,0.4c-0.1,0.1-0.2,0.1-0.3,0.1s-0.2,0-0.3-0.1C699.8,208.6,699.8,208.4,699.8,208.3z M700.6,214.7h-0.8v-5.1h0.8
			V214.7z"/>
		<path class="st4" d="M704.3,214.8c-0.6,0-1.3-0.2-1.7-0.7s-0.7-1.2-0.6-1.9c-0.1-0.7,0.2-1.4,0.6-2c0.4-0.5,1.1-0.7,1.7-0.7
			c0.2,0,0.5,0,0.7,0.1c0.2,0,0.4,0.1,0.6,0.2l-0.2,0.6c-0.2-0.1-0.4-0.1-0.6-0.2c-0.2,0-0.4-0.1-0.5-0.1c-1,0-1.5,0.7-1.5,2
			c0,0.5,0.1,1,0.4,1.4c0.3,0.3,0.7,0.5,1.1,0.5c0.4,0,0.9-0.1,1.3-0.3v0.7C705.2,214.7,704.7,214.8,704.3,214.8z"/>
		<path class="st4" d="M711.1,212.2c0,0.7-0.2,1.4-0.6,1.9c-0.8,0.8-2,0.9-2.9,0.4c-0.4-0.2-0.6-0.5-0.8-0.9s-0.3-0.9-0.3-1.4
			c0-0.7,0.2-1.4,0.6-1.9c0.4-0.5,1.1-0.7,1.7-0.7c0.6,0,1.3,0.2,1.7,0.7C711,210.8,711.2,211.5,711.1,212.2z M707.3,212.2
			c0,0.5,0.1,1,0.4,1.5c0.3,0.3,0.7,0.5,1.1,0.5c0.4,0,0.9-0.2,1.2-0.5c0.3-0.4,0.4-1,0.4-1.5s-0.1-1-0.4-1.5
			c-0.3-0.3-0.7-0.5-1.2-0.5c-0.4,0-0.9,0.2-1.1,0.5C707.4,211.1,707.2,211.7,707.3,212.2z"/>
		<path class="st4" d="M714.8,209.5c0.2,0,0.4,0,0.6,0.1l-0.1,0.7c-0.2,0-0.4-0.1-0.6-0.1c-0.4,0-0.8,0.2-1,0.5
			c-0.3,0.3-0.5,0.8-0.4,1.2v2.7h-0.8v-5.1h0.6l0.1,0.9l0,0c0.2-0.3,0.4-0.6,0.7-0.8C714.2,209.6,714.5,209.6,714.8,209.5z"/>
		<path class="st4" d="M718.7,209.5c0.2,0,0.4,0,0.6,0.1l-0.1,0.7c-0.2,0-0.4-0.1-0.6-0.1c-0.4,0-0.8,0.2-1,0.5
			c-0.3,0.3-0.4,0.8-0.4,1.2v2.7h-0.8v-5.1h0.7l0.1,0.9l0,0c0.2-0.3,0.4-0.6,0.7-0.8C718,209.6,718.3,209.5,718.7,209.5z"/>
		<path class="st4" d="M720.9,209.6v3.3c0,0.3,0.1,0.7,0.3,0.9s0.6,0.3,0.9,0.3c0.4,0,0.9-0.1,1.2-0.4c0.3-0.4,0.4-0.9,0.4-1.4v-2.7
			h0.8v5.1h-0.6l-0.1-0.7l0,0c-0.2,0.2-0.4,0.4-0.7,0.6c-0.3,0.1-0.7,0.2-1,0.2c-0.5,0-1-0.1-1.4-0.4c-0.3-0.4-0.5-0.9-0.5-1.4v-3.3
			h0.7V209.6z"/>
		<path class="st4" d="M728.4,214.8c-0.3,0-0.6-0.1-0.9-0.2c-0.3-0.1-0.5-0.3-0.7-0.6h-0.1c0,0.3,0.1,0.6,0.1,0.8v2.1H726v-7.3h0.6
			l0.1,0.7l0,0c0.2-0.3,0.4-0.5,0.7-0.6s0.6-0.2,0.9-0.2c0.6,0,1.2,0.2,1.5,0.7c0.7,1.2,0.7,2.7,0,3.9
			C729.5,214.6,729,214.8,728.4,214.8z M728.3,210.2c-0.4,0-0.8,0.1-1.1,0.4c-0.3,0.4-0.4,0.9-0.3,1.4v0.2c0,0.5,0.1,1.1,0.3,1.5
			c0.3,0.3,0.7,0.5,1.1,0.5c0.4,0,0.8-0.2,1-0.5c0.3-0.4,0.4-1,0.4-1.5s-0.1-1-0.4-1.5C729.1,210.4,728.7,210.2,728.3,210.2
			L728.3,210.2z"/>
		<path class="st4" d="M733.8,214.8c-0.6,0-1.3-0.2-1.7-0.7s-0.6-1.2-0.6-1.9c-0.1-0.7,0.2-1.4,0.6-2c0.4-0.5,1.1-0.7,1.7-0.7
			c0.2,0,0.5,0,0.7,0.1c0.2,0,0.4,0.1,0.6,0.2l-0.2,0.6c-0.2-0.1-0.4-0.1-0.6-0.2c-0.2,0-0.4-0.1-0.5-0.1c-1,0-1.5,0.7-1.5,2
			c0,0.5,0.1,1,0.4,1.4c0.3,0.3,0.7,0.5,1.1,0.5c0.4,0,0.9-0.1,1.3-0.3v0.7C734.7,214.7,734.3,214.8,733.8,214.8z"/>
		<path class="st4" d="M736.3,208.3c0-0.1,0-0.3,0.1-0.4c0.1-0.1,0.2-0.1,0.3-0.1s0.2,0,0.3,0.1s0.1,0.2,0.1,0.4
			c0,0.1,0,0.3-0.1,0.4c-0.1,0.1-0.2,0.1-0.3,0.1s-0.2,0-0.3-0.1C736.3,208.6,736.2,208.4,736.3,208.3z M737.1,214.7h-0.8v-5.1h0.8
			V214.7z"/>
		<path class="st4" d="M743.1,212.2c0,0.7-0.2,1.4-0.6,1.9c-0.4,0.5-1.1,0.7-1.7,0.7c-0.4,0-0.8-0.1-1.2-0.3s-0.6-0.5-0.8-0.9
			s-0.3-0.9-0.3-1.4c0-0.7,0.2-1.4,0.6-1.9c0.4-0.5,1.1-0.7,1.7-0.7c0.6,0,1.3,0.2,1.7,0.7S743.1,211.5,743.1,212.2z M739.2,212.2
			c0,0.5,0.1,1,0.4,1.5c0.6,0.6,1.5,0.7,2.2,0.1l0.1-0.1c0.3-0.4,0.4-1,0.4-1.5s-0.1-1-0.4-1.5c-0.6-0.6-1.6-0.7-2.2-0.1l-0.1,0.1
			C739.3,211.1,739.2,211.7,739.2,212.2L739.2,212.2z M740.1,208.9c0.1-0.2,0.3-0.4,0.5-0.7s0.3-0.5,0.4-0.7h0.9v0.1
			c-0.2,0.3-0.4,0.5-0.6,0.7c-0.2,0.2-0.5,0.5-0.7,0.7h-0.5L740.1,208.9z"/>
		<path class="st4" d="M747.9,214.7v-3.3c0-0.3-0.1-0.7-0.3-0.9s-0.6-0.3-0.9-0.3c-0.4,0-0.9,0.1-1.2,0.4c-0.3,0.4-0.4,0.9-0.4,1.4
			v2.7h-0.8v-5.1h0.6l0.1,0.7l0,0c0.2-0.3,0.4-0.5,0.7-0.6s0.6-0.2,0.9-0.2c0.5,0,1,0.1,1.4,0.4c0.3,0.4,0.5,0.9,0.5,1.4v3.3
			L747.9,214.7z"/>
		<path class="st1" d="M0,22.7V10.8h2.5v9.8h4.8v2.1H0z"/>
		<path class="st1" d="M17.5,18.1c0.1,1.3-0.3,2.5-1.2,3.5c-0.9,0.9-2,1.3-3.3,1.2c-0.8,0-1.6-0.2-2.3-0.6s-1.2-1-1.5-1.6
			c-0.4-0.8-0.6-1.6-0.5-2.5c-0.1-1.3,0.3-2.5,1.2-3.5c0.9-0.9,2.1-1.3,3.3-1.2c0.8,0,1.6,0.2,2.3,0.6c0.7,0.4,1.2,1,1.6,1.7
			C17.4,16.4,17.5,17.2,17.5,18.1z M11.2,18.1c0,0.7,0.1,1.4,0.4,2c0.3,0.5,0.9,0.7,1.4,0.7c0.6,0,1.1-0.2,1.4-0.7
			c0.3-0.6,0.5-1.3,0.4-2c0-0.7-0.1-1.4-0.4-2c-0.3-0.5-0.9-0.7-1.4-0.7c-0.6,0-1.1,0.2-1.4,0.7C11.3,16.7,11.2,17.4,11.2,18.1z
			 M11.7,12.6v-0.2c0.7-0.8,1.3-1.6,1.9-2.4h2.8v0.2c-0.3,0.3-0.8,0.7-1.4,1.3s-1.2,1-1.6,1.2L11.7,12.6L11.7,12.6z"/>
		<path class="st1" d="M27.5,13.6v1.3L26,15.2c0.3,0.4,0.4,0.9,0.4,1.4c0.1,0.9-0.3,1.7-1,2.3c-0.8,0.6-1.8,0.9-2.8,0.8h-0.5h-0.4
			c-0.2,0.1-0.4,0.4-0.4,0.7c0,0.4,0.5,0.5,1.4,0.5h1.5c0.8-0.1,1.6,0.2,2.3,0.6c0.5,0.5,0.8,1.2,0.8,1.9c0,1-0.5,1.9-1.4,2.4
			c-1.2,0.7-2.5,1-3.8,0.9c-1,0.1-2-0.2-2.9-0.7c-0.6-0.4-1-1.1-1-1.9c0-0.5,0.2-1,0.5-1.4c0.4-0.4,0.9-0.7,1.5-0.8
			c-0.3-0.1-0.5-0.3-0.7-0.5s-0.3-0.5-0.3-0.8s0.1-0.6,0.3-0.9c0.3-0.3,0.5-0.5,0.9-0.7c-0.5-0.2-0.9-0.6-1.1-1
			c-0.3-0.5-0.4-1-0.4-1.6c0-0.9,0.3-1.7,1-2.3c0.8-0.6,1.8-0.9,2.8-0.8c0.3,0,0.6,0,0.9,0.1l0.7,0.1L27.5,13.6z M20.5,24
			c0,0.3,0.2,0.7,0.5,0.8c0.4,0.2,0.9,0.3,1.4,0.3c0.7,0,1.4-0.1,2.1-0.4c0.4-0.2,0.7-0.5,0.8-1c0-0.3-0.2-0.6-0.5-0.7
			c-0.4-0.2-0.9-0.2-1.4-0.2H22c-0.4,0-0.8,0.1-1.1,0.3C20.6,23.3,20.4,23.6,20.5,24L20.5,24z M21.4,16.5c0,0.4,0.1,0.8,0.3,1.2
			c0.6,0.5,1.4,0.5,2,0c0.2-0.3,0.4-0.8,0.3-1.2c0-1.1-0.5-1.6-1.4-1.6S21.4,15.5,21.4,16.5L21.4,16.5z"/>
		<path class="st1" d="M28.9,11.2c0-0.8,0.5-1.2,1.4-1.2s1.4,0.4,1.4,1.2c0,0.3-0.1,0.7-0.3,0.9c-0.3,0.2-0.6,0.3-1,0.3
			C29.3,12.4,28.9,12,28.9,11.2z M31.5,22.7H29v-9.1h2.5V22.7z"/>
		<path class="st1" d="M37.8,22.8c-2.8,0-4.2-1.6-4.2-4.7c-0.1-1.3,0.3-2.6,1.2-3.5s2.1-1.3,3.3-1.2c1,0,2,0.2,2.8,0.6l-0.7,1.9
			c-0.4-0.2-0.8-0.3-1.1-0.4c-0.3-0.1-0.7-0.1-1-0.2c-1.3,0-1.9,0.9-1.9,2.7s0.6,2.7,1.9,2.7c0.5,0,0.9-0.1,1.3-0.2
			c0.4-0.1,0.8-0.3,1.2-0.6V22c-0.4,0.2-0.8,0.4-1.2,0.5C38.8,22.8,38.3,22.8,37.8,22.8z"/>
		<path class="st1" d="M48.4,22.7l-0.5-1.2h-0.1c-0.3,0.5-0.8,0.8-1.3,1.1c-0.5,0.2-1.1,0.3-1.7,0.3c-0.8,0-1.5-0.2-2.1-0.8
			C42.3,21.5,42,20.7,42,20c-0.1-0.8,0.3-1.6,1-2.1c0.9-0.5,2-0.8,3.1-0.8h1.6v-0.4c0.1-0.7-0.4-1.3-1.1-1.4c-0.1,0-0.2,0-0.3,0
			c-0.9,0-1.8,0.3-2.6,0.7l-0.8-1.7c1.1-0.6,2.3-0.8,3.5-0.8c1-0.1,2,0.2,2.8,0.8c0.7,0.6,1.1,1.5,1,2.4v6.1L48.4,22.7z M47.7,18.5
			h-1c-0.6,0-1.1,0.1-1.6,0.4c-0.4,0.2-0.6,0.7-0.5,1.1c0,0.7,0.4,1,1.2,1c0.5,0,1-0.1,1.4-0.5c0.4-0.3,0.5-0.8,0.5-1.3L47.7,18.5z"
			/>
		<path class="st1" d="M59.9,22.8c-1,0-1.9-0.4-2.5-1.2c-0.7-1-1-2.2-0.9-3.4c-0.1-1.2,0.3-2.5,0.9-3.5c0.6-0.8,1.6-1.3,2.6-1.2
			c1,0,2,0.5,2.6,1.3h0.1c-0.1-0.6-0.2-1.2-0.2-1.8v-3H65v12.7h-1.9l-0.5-1.2h-0.1C61.9,22.4,61,22.9,59.9,22.8z M60.8,20.8
			c0.5,0,1-0.2,1.4-0.6c0.4-0.6,0.5-1.2,0.5-1.9V18c0.1-0.7-0.1-1.5-0.5-2.1c-0.4-0.4-0.9-0.7-1.5-0.6c-0.5,0-1,0.3-1.3,0.7
			c-0.3,0.6-0.5,1.3-0.5,2s0.1,1.4,0.5,2C59.7,20.6,60.2,20.8,60.8,20.8z"/>
		<path class="st1" d="M71.7,22.8c-1.3,0.1-2.5-0.4-3.4-1.2c-0.9-0.9-1.3-2.2-1.3-3.4c-0.1-1.3,0.3-2.6,1.2-3.5
			c0.8-0.9,2-1.3,3.2-1.2c1.1-0.1,2.2,0.3,3,1.1c0.7,0.8,1.1,1.9,1.1,3v1.2h-5.8c0,0.6,0.2,1.2,0.6,1.7c0.4,0.4,1,0.6,1.7,0.6
			c0.5,0,1-0.1,1.6-0.2c0.5-0.1,1-0.3,1.5-0.6v1.9c-0.4,0.2-0.9,0.4-1.4,0.5C72.9,22.8,72.3,22.8,71.7,22.8z M71.3,15.2
			c-0.5,0-0.9,0.2-1.2,0.5c-0.3,0.4-0.5,0.9-0.5,1.4h3.5c0-0.5-0.1-1-0.5-1.4C72.3,15.3,71.8,15.1,71.3,15.2L71.3,15.2z"/>
		<path class="st1" d="M90.2,22.7h-2.5v-5.3c0-0.5-0.1-1-0.3-1.5c-0.3-0.3-0.7-0.5-1.1-0.5c-0.6,0-1.2,0.2-1.5,0.7
			c-0.4,0.7-0.5,1.5-0.5,2.3v4.3h-2.5v-9.1h1.9l0.3,1.2h0.1c0.3-0.4,0.7-0.8,1.1-1c0.5-0.2,1.1-0.3,1.7-0.3c0.9-0.1,1.8,0.2,2.4,0.9
			s0.9,1.6,0.8,2.5L90.2,22.7L90.2,22.7z"/>
		<path class="st1" d="M96.8,22.8c-1.3,0.1-2.5-0.4-3.4-1.2c-0.9-0.9-1.3-2.2-1.2-3.4c-0.1-1.3,0.3-2.6,1.2-3.5
			c0.8-0.9,2-1.3,3.2-1.2c1.1-0.1,2.2,0.3,3,1.1c0.7,0.8,1.1,1.9,1.1,3v1.2h-5.9c0,0.6,0.2,1.2,0.6,1.7c0.4,0.4,1,0.6,1.6,0.6
			c0.5,0,1-0.1,1.6-0.2c0.5-0.1,1-0.3,1.5-0.6v1.9c-0.4,0.2-0.9,0.4-1.4,0.5C98.1,22.8,97.5,22.8,96.8,22.8z M96.5,15.2
			c-0.5,0-0.9,0.2-1.2,0.5c-0.3,0.4-0.5,0.9-0.5,1.4h3.5c0-0.5-0.1-1-0.5-1.4C97.4,15.3,97,15.1,96.5,15.2L96.5,15.2z"/>
		<path class="st1" d="M110.5,13.6v1.3l-1.4,0.4c0.3,0.4,0.4,0.9,0.4,1.4c0.1,0.9-0.3,1.7-1,2.3c-0.8,0.6-1.8,0.9-2.8,0.8h-0.4h-0.4
			c-0.2,0.1-0.4,0.4-0.4,0.7c0,0.4,0.5,0.5,1.4,0.5h1.5c0.8-0.1,1.6,0.2,2.3,0.6c0.5,0.5,0.8,1.2,0.8,1.9c0,1-0.5,1.9-1.3,2.5
			c-1.2,0.7-2.5,1-3.8,0.9c-1,0.1-2-0.2-2.9-0.7c-0.6-0.4-1-1.1-1-1.9c0-0.5,0.2-1,0.5-1.4c0.4-0.4,0.9-0.7,1.5-0.8
			c-0.3-0.1-0.5-0.3-0.7-0.5s-0.3-0.5-0.3-0.8s0.1-0.6,0.3-0.9c0.3-0.3,0.5-0.5,0.9-0.7c-0.5-0.2-0.9-0.6-1.1-1
			c-0.3-0.5-0.4-1-0.4-1.6c0-0.9,0.3-1.7,1-2.3c0.8-0.6,1.8-0.9,2.8-0.8c0.3,0,0.6,0,0.9,0.1l0.7,0.1L110.5,13.6z M103.5,24
			c0,0.3,0.2,0.7,0.5,0.8c0.4,0.2,0.9,0.3,1.4,0.3c0.7,0,1.4-0.1,2.1-0.4c0.4-0.2,0.7-0.5,0.8-1c0-0.3-0.2-0.6-0.4-0.7
			c-0.4-0.2-0.9-0.2-1.4-0.2h-1.3c-0.4,0-0.8,0.1-1.2,0.3C103.7,23.3,103.5,23.6,103.5,24L103.5,24z M104.4,16.5
			c0,0.4,0.1,0.8,0.3,1.2c0.6,0.5,1.4,0.5,2,0c0.2-0.3,0.4-0.8,0.3-1.2c0-1.1-0.4-1.6-1.3-1.6S104.4,15.5,104.4,16.5L104.4,16.5z"/>
		<path class="st1" d="M120.3,18.1c0.1,1.3-0.3,2.5-1.2,3.5c-0.9,0.9-2,1.3-3.3,1.3c-0.8,0-1.6-0.2-2.3-0.6c-0.7-0.4-1.2-1-1.5-1.6
			c-0.4-0.8-0.6-1.6-0.5-2.5c-0.1-1.3,0.3-2.5,1.2-3.5c0.9-0.9,2.1-1.3,3.3-1.2c0.8,0,1.6,0.2,2.3,0.6c0.7,0.4,1.2,1,1.5,1.6
			C120.1,16.4,120.3,17.2,120.3,18.1z M114,18.1c0,0.7,0.1,1.4,0.4,2c0.3,0.5,0.9,0.7,1.4,0.7c0.6,0,1.1-0.2,1.4-0.7
			c0.3-0.6,0.5-1.3,0.4-2c0-0.7-0.1-1.4-0.4-2c-0.7-0.8-1.8-0.9-2.6-0.2c-0.1,0.1-0.2,0.2-0.2,0.2C114.1,16.7,113.9,17.4,114,18.1
			L114,18.1z"/>
		<path class="st1" d="M126,22.8c-2.8,0-4.2-1.6-4.2-4.7c-0.1-1.3,0.3-2.6,1.2-3.5c0.9-0.9,2.1-1.3,3.3-1.2c1,0,1.9,0.2,2.8,0.6
			l-0.7,1.9c-0.4-0.2-0.8-0.3-1.1-0.4c-0.3-0.1-0.7-0.1-1-0.2c-1.3,0-1.9,0.9-1.9,2.7s0.7,2.7,1.9,2.7c0.5,0,0.9-0.1,1.3-0.2
			s0.8-0.3,1.2-0.6V22c-0.4,0.2-0.8,0.4-1.2,0.5C127.1,22.8,126.5,22.8,126,22.8z"/>
		<path class="st1" d="M130.8,11.2c0-0.8,0.4-1.2,1.4-1.2s1.4,0.4,1.4,1.2c0,0.3-0.1,0.7-0.3,0.9c-0.3,0.2-0.6,0.3-1,0.3
			C131.2,12.4,130.8,12,130.8,11.2z M133.4,22.7h-2.5v-9.1h2.5V22.7z"/>
		<path class="st1" d="M144.3,18.1c0.1,1.3-0.4,2.5-1.2,3.5c-0.9,0.9-2,1.3-3.3,1.3c-0.8,0-1.6-0.2-2.3-0.6s-1.2-1-1.5-1.6
			c-0.4-0.8-0.6-1.6-0.5-2.5c-0.1-1.3,0.3-2.5,1.2-3.5c0.9-0.9,2.1-1.3,3.3-1.2c0.8,0,1.6,0.2,2.3,0.6c0.7,0.4,1.2,1,1.5,1.6
			C144.1,16.4,144.3,17.2,144.3,18.1z M138,18.1c0,0.7,0.1,1.4,0.4,2c0.6,0.8,1.8,0.9,2.6,0.3c0.1-0.1,0.2-0.2,0.3-0.3
			c0.3-0.6,0.5-1.3,0.4-2c0-0.7-0.1-1.4-0.4-2c-0.3-0.5-0.9-0.7-1.4-0.7c-0.6-0.1-1.1,0.2-1.4,0.7C138.1,16.7,137.9,17.4,138,18.1
			L138,18.1z"/>
		<path class="st1" d="M47.3,42.8c-1,0-1.9-0.4-2.5-1.2c-1.2-2.1-1.2-4.8,0-6.9c1.1-1.4,3.1-1.7,4.6-0.6c0.2,0.2,0.5,0.4,0.6,0.7h0
			c-0.1-0.6-0.2-1.2-0.2-1.8v-3h2.5v12.7h-1.9L50,41.5h-0.1C49.3,42.4,48.3,42.9,47.3,42.8z M48.1,40.8c0.5,0,1-0.2,1.4-0.6
			c0.3-0.6,0.5-1.2,0.5-1.9V38c0.1-0.7-0.1-1.5-0.5-2.1c-0.3-0.5-0.9-0.7-1.5-0.6c-0.5,0-1,0.3-1.3,0.7c-0.3,0.6-0.5,1.3-0.5,2
			s0.1,1.4,0.5,2C47.1,40.6,47.6,40.8,48.1,40.8z"/>
		<path class="st1" d="M59.1,42.8c-1.3,0.1-2.5-0.4-3.4-1.2c-0.9-0.9-1.3-2.2-1.2-3.4c-0.1-1.3,0.3-2.5,1.1-3.5
			c0.8-0.9,2-1.3,3.2-1.2c1.1-0.1,2.2,0.3,3,1.1c0.7,0.8,1.1,1.9,1.1,3v1.2H57c0,0.6,0.2,1.2,0.6,1.7c0.4,0.4,1,0.6,1.6,0.6
			c0.5,0,1-0.1,1.6-0.2c0.5-0.1,1-0.3,1.5-0.6v1.9c-0.4,0.2-0.9,0.4-1.4,0.5C60.3,42.8,59.7,42.8,59.1,42.8z M58.7,35.2
			c-0.5,0-0.9,0.2-1.2,0.5c-0.3,0.4-0.5,0.9-0.5,1.4h3.5c0-0.5-0.1-1-0.5-1.4S59.2,35.2,58.7,35.2L58.7,35.2z"/>
		<path class="st1" d="M67.3,42.7h-2.5V30h2.5V42.7z"/>
		<path class="st1" d="M81.7,42.7l-0.9-2.9h-4.3l-0.9,2.8h-2.7l4.2-12h3.1l4.2,12L81.7,42.7z M80.2,37.7c-0.8-2.6-1.2-4-1.3-4.4
			s-0.2-0.6-0.2-0.8c-0.2,0.7-0.7,2.4-1.5,5.2H80.2z"/>
		<path class="st1" d="M94.1,34.5c0.1,1.1-0.4,2.2-1.2,2.9c-1,0.7-2.2,1.1-3.4,1h-1.1v4.2h-2.5V30.8h3.8c1.2-0.1,2.3,0.2,3.3,0.9
			C93.8,32.5,94.2,33.5,94.1,34.5z M88.4,36.4h0.8c0.6,0,1.2-0.1,1.8-0.5c0.4-0.3,0.6-0.8,0.6-1.3s-0.1-1-0.5-1.3s-1-0.5-1.5-0.4
			h-1.2C88.4,32.9,88.4,36.4,88.4,36.4z"/>
		<path class="st1" d="M96.4,42.7V30.8h2.5v11.9L96.4,42.7z"/>
		<path class="st1" d="M354.4,106c0.1,1.1-0.4,2.2-1.2,2.9c-1,0.7-2.2,1.1-3.4,1h-1.1v4.2h-2.5v-11.9h3.9c1.2-0.1,2.3,0.2,3.3,0.9
			C354.1,103.9,354.5,104.9,354.4,106z M348.7,107.9h0.8c0.6,0,1.2-0.1,1.8-0.5c0.4-0.3,0.6-0.8,0.6-1.3s-0.1-1-0.5-1.3
			s-1-0.5-1.5-0.4h-1.1L348.7,107.9L348.7,107.9z"/>
		<path class="st1" d="M362.2,114.2l-0.5-1.2h-0.1c-0.3,0.5-0.8,0.8-1.3,1.1c-0.5,0.2-1.1,0.3-1.7,0.3c-0.8,0-1.5-0.2-2.1-0.8
			c-0.5-0.6-0.8-1.3-0.8-2.1c-0.1-0.8,0.3-1.7,1-2.1c0.9-0.5,2-0.8,3-0.8h1.6v-0.4c0.1-0.7-0.4-1.3-1.1-1.4c-0.1,0-0.2,0-0.4,0
			c-0.9,0-1.8,0.3-2.6,0.7l-0.8-1.7c1.1-0.6,2.3-0.8,3.5-0.8c1-0.1,2,0.2,2.8,0.8c0.7,0.6,1.1,1.5,1,2.4v6.1L362.2,114.2z
			 M361.5,110h-1c-0.6,0-1.1,0.1-1.6,0.4c-0.4,0.2-0.6,0.7-0.5,1.1c0,0.7,0.4,1,1.2,1c0.5,0,1-0.2,1.4-0.5c0.3-0.3,0.5-0.8,0.5-1.3
			V110z"/>
		<path class="st1" d="M371.6,104.9c0.3,0,0.6,0,0.8,0.1l-0.2,2.3c-0.9-0.2-1.8,0-2.6,0.5c-0.5,0.4-0.7,1.1-0.7,1.7v4.6h-2.5V105
			h1.9l0.4,1.5h0.1c0.3-0.5,0.7-0.9,1.1-1.2C370.5,105.1,371,104.9,371.6,104.9z"/>
		<path class="st1" d="M379.9,114.2l-0.5-1.2h-0.1c-0.3,0.5-0.8,0.8-1.3,1.1c-0.5,0.2-1.1,0.3-1.7,0.3c-0.8,0-1.5-0.2-2.1-0.8
			c-0.5-0.6-0.8-1.3-0.8-2.1c-0.1-0.8,0.3-1.7,1-2.1c0.9-0.5,2-0.8,3.1-0.8h1.6v-0.4c0.1-0.7-0.4-1.3-1.1-1.4c-0.1,0-0.2,0-0.3,0
			c-0.9,0-1.8,0.3-2.6,0.7l-0.8-1.7c1.1-0.6,2.3-0.8,3.5-0.8c1-0.1,2,0.2,2.8,0.8c0.7,0.6,1.1,1.5,1,2.4v6.1L379.9,114.2z
			 M379.1,110h-1c-0.6,0-1.1,0.1-1.6,0.4c-0.4,0.2-0.6,0.7-0.5,1.1c0,0.7,0.4,1,1.2,1c0.5,0,1-0.2,1.4-0.5s0.5-0.8,0.5-1.3V110z
			 M376.4,104.1v-0.2c0.7-0.8,1.3-1.6,1.9-2.4h2.8v0.2c-0.5,0.4-0.9,0.9-1.4,1.3c-0.7,0.6-1.2,1-1.6,1.2L376.4,104.1z"/>
		<path class="st1" d="M392.3,114.2h-2.5v-5.4c0-0.5-0.1-1-0.3-1.5c-0.2-0.3-0.6-0.5-1-0.5c-0.6,0-1.1,0.2-1.4,0.7
			c-0.3,0.7-0.5,1.5-0.4,2.3v4.3h-2.5V105h1.8l0.3,1.2h0.1c0.2-0.4,0.6-0.8,1.1-1s1-0.4,1.6-0.4c1.1-0.1,2.2,0.4,2.8,1.3h0.2
			c0.3-0.4,0.6-0.8,1.1-1s1.1-0.4,1.6-0.4c0.9-0.1,1.7,0.2,2.3,0.8c0.6,0.7,0.9,1.6,0.8,2.5v5.9h-2.5v-5.3c0-0.5-0.1-1-0.3-1.5
			c-0.2-0.3-0.6-0.5-1-0.5c-0.5,0-1.1,0.2-1.4,0.6c-0.3,0.6-0.5,1.4-0.5,2.1L392.3,114.2z"/>
		<path class="st1" d="M404.6,114.3c-1.3,0.1-2.5-0.4-3.4-1.2c-0.9-0.9-1.3-2.2-1.2-3.4c-0.1-1.3,0.3-2.5,1.1-3.5
			c0.8-0.9,2-1.3,3.2-1.2c1.1-0.1,2.2,0.3,3,1.1c0.7,0.8,1.1,1.9,1.1,3v1.2h-5.9c0,0.6,0.2,1.2,0.6,1.6s1,0.6,1.6,0.6
			c0.5,0,1-0.1,1.5-0.2s1-0.3,1.5-0.5v1.9c-0.4,0.2-0.9,0.4-1.4,0.5C405.8,114.3,405.2,114.3,404.6,114.3z M404.3,106.7
			c-0.5,0-0.9,0.2-1.2,0.5c-0.3,0.4-0.5,0.9-0.5,1.4h3.5c0-0.5-0.1-1-0.5-1.4C405.2,106.8,404.7,106.7,404.3,106.7z"/>
		<path class="st1" d="M414.2,112.4c0.5,0,1.1-0.1,1.6-0.3v1.9c-0.7,0.3-1.5,0.4-2.3,0.4c-0.8,0.1-1.6-0.2-2.2-0.8
			c-0.5-0.6-0.7-1.4-0.7-2.3v-4.4h-1.2v-1.1l1.4-0.8l0.7-1.9h1.6v1.9h2.5v1.9h-2.5v4.4c0,0.3,0.1,0.6,0.3,0.8
			C413.6,112.3,413.9,112.4,414.2,112.4z"/>
		<path class="st1" d="M422.7,104.9c0.3,0,0.6,0,0.8,0.1l-0.2,2.3c-0.2-0.1-0.5-0.1-0.7-0.1c-0.7,0-1.3,0.2-1.9,0.6
			c-0.5,0.4-0.7,1.1-0.7,1.7v4.6h-2.5V105h1.9l0.4,1.5h0.1c0.3-0.5,0.7-0.9,1.1-1.2C421.6,105.1,422.1,104.9,422.7,104.9z"/>
		<path class="st1" d="M433.5,109.6c0.1,1.3-0.3,2.5-1.2,3.5c-0.9,0.9-2,1.3-3.3,1.2c-0.8,0-1.6-0.2-2.3-0.6c-0.7-0.4-1.2-1-1.5-1.6
			c-0.4-0.8-0.6-1.6-0.5-2.5c-0.1-1.3,0.3-2.5,1.2-3.5c0.9-0.9,2.1-1.3,3.3-1.2c0.8,0,1.6,0.2,2.3,0.6c0.7,0.4,1.2,1,1.5,1.6
			C433.3,107.9,433.5,108.7,433.5,109.6z M427.2,109.6c0,0.7,0.1,1.4,0.5,2c0.6,0.8,1.8,0.9,2.6,0.3c0.1-0.1,0.2-0.2,0.3-0.3
			c0.3-0.6,0.5-1.3,0.4-2.1c0-0.7-0.1-1.4-0.4-2c-0.7-0.8-1.9-0.9-2.6-0.2c-0.1,0.1-0.2,0.1-0.2,0.2
			C427.3,108.2,427.1,108.9,427.2,109.6L427.2,109.6z"/>
		<path class="st1" d="M441.9,111.5c0,0.8-0.3,1.6-1,2.1c-0.9,0.5-1.9,0.8-2.9,0.7c-0.6,0-1.1,0-1.7-0.1c-0.4-0.1-0.8-0.2-1.2-0.4
			v-2c0.5,0.2,1,0.4,1.6,0.6c0.5,0.1,1,0.2,1.5,0.2c0.9,0,1.4-0.3,1.4-0.8c0-0.2-0.1-0.3-0.2-0.5c-0.2-0.2-0.4-0.3-0.6-0.4
			c-0.3-0.1-0.7-0.3-1.2-0.5s-1.1-0.5-1.5-0.8c-0.3-0.2-0.5-0.5-0.7-0.9s-0.2-0.8-0.2-1.2c0-0.7,0.3-1.5,0.9-1.9
			c0.8-0.5,1.7-0.7,2.7-0.7c1.1,0,2.2,0.2,3.2,0.7l-0.8,1.8c-0.5-0.2-0.9-0.4-1.3-0.5s-0.8-0.2-1.2-0.2c-0.7,0-1.1,0.2-1.1,0.6
			c0,0.2,0.1,0.5,0.4,0.6c0.5,0.3,1,0.5,1.5,0.7c0.6,0.2,1.1,0.5,1.6,0.8c0.3,0.2,0.6,0.5,0.7,0.9
			C441.8,110.7,441.9,111.1,441.9,111.5z"/>
		<path class="st1" d="M451,114.3c-1,0-1.9-0.4-2.5-1.2c-0.7-1-1-2.2-0.9-3.5c-0.1-1.2,0.3-2.5,0.9-3.5c1.1-1.4,3.1-1.7,4.6-0.6
			c0.2,0.2,0.5,0.4,0.6,0.7h0.1c-0.1-0.6-0.2-1.2-0.2-1.8v-2.9h2.5v12.7h-1.9l-0.5-1.2h-0.1C453,113.9,452,114.4,451,114.3z
			 M451.9,112.3c0.5,0,1-0.2,1.4-0.6c0.3-0.6,0.5-1.2,0.5-1.9v-0.3c0.1-0.7-0.1-1.5-0.5-2.1c-0.4-0.4-0.9-0.7-1.5-0.6
			c-0.5,0-1,0.3-1.3,0.7c-0.3,0.6-0.5,1.3-0.5,2s0.1,1.4,0.5,2C450.8,112.1,451.3,112.4,451.9,112.3L451.9,112.3z"/>
		<path class="st1" d="M462.8,114.3c-1.3,0.1-2.5-0.4-3.4-1.2c-0.9-0.9-1.3-2.2-1.2-3.4c-0.1-1.3,0.3-2.5,1.1-3.5
			c0.8-0.9,2-1.3,3.2-1.2c1.1-0.1,2.2,0.3,3,1.1c0.7,0.8,1.1,1.9,1.1,3v1.2h-5.9c0,0.6,0.2,1.2,0.6,1.6s1,0.6,1.6,0.6
			c0.5,0,1-0.1,1.6-0.2c0.5-0.1,1.1-0.2,1.5-0.4v1.9c-0.4,0.2-0.9,0.4-1.4,0.5C464,114.3,463.4,114.4,462.8,114.3z M462.4,106.7
			c-0.5,0-0.9,0.2-1.2,0.5c-0.3,0.4-0.5,0.9-0.5,1.4h3.5c0-0.5-0.1-1-0.5-1.4C463.4,106.8,462.9,106.6,462.4,106.7z"/>
		<path class="st1" d="M476.5,114.3c-2.8,0-4.2-1.6-4.2-4.7c-0.1-1.3,0.3-2.6,1.1-3.6c0.9-0.9,2.1-1.3,3.3-1.2c1,0,1.9,0.2,2.8,0.6
			l-0.7,1.9c-0.4-0.2-0.8-0.3-1.1-0.4c-0.3-0.1-0.7-0.1-1-0.1c-1.3,0-1.9,0.9-1.9,2.8s0.6,2.7,1.9,2.7c0.5,0,0.9-0.1,1.3-0.2
			s0.8-0.3,1.2-0.6v2.1c-0.4,0.2-0.8,0.4-1.2,0.5C477.6,114.3,477.1,114.4,476.5,114.3z"/>
		<path class="st1" d="M489.7,109.6c0.1,1.3-0.3,2.5-1.2,3.5c-0.9,0.9-2.1,1.3-3.3,1.2c-0.8,0-1.6-0.2-2.3-0.6
			c-0.7-0.4-1.2-1-1.5-1.6c-0.4-0.8-0.6-1.6-0.5-2.5c-0.1-1.3,0.3-2.5,1.2-3.5c0.9-0.9,2.1-1.3,3.3-1.2c0.8,0,1.6,0.2,2.3,0.6
			c0.7,0.4,1.2,1,1.5,1.6C489.5,107.9,489.7,108.7,489.7,109.6z M483.4,109.6c0,0.7,0.1,1.4,0.5,2c0.6,0.8,1.8,0.9,2.6,0.3
			c0.1-0.1,0.2-0.2,0.3-0.3c0.3-0.6,0.5-1.3,0.4-2.1c0-0.7-0.1-1.4-0.4-2c-0.7-0.8-1.9-0.9-2.6-0.2c-0.1,0.1-0.2,0.1-0.2,0.2
			C483.5,108.2,483.4,108.9,483.4,109.6L483.4,109.6z"/>
		<path class="st1" d="M500.1,114.2h-2.5v-5.4c0-0.5-0.1-1-0.4-1.5c-0.3-0.3-0.7-0.5-1.1-0.5c-0.6-0.1-1.2,0.2-1.5,0.7
			c-0.4,0.7-0.5,1.5-0.5,2.3v4.3h-2.5V105h1.9l0.3,1.2h0.1c0.3-0.4,0.7-0.8,1.1-1c0.5-0.2,1.1-0.3,1.7-0.3c0.9-0.1,1.8,0.2,2.4,0.9
			c0.6,0.7,0.9,1.6,0.8,2.5v5.9H500.1z"/>
		<path class="st1" d="M509.1,111.5c0,0.8-0.3,1.6-1,2.1c-0.9,0.5-1.9,0.8-2.9,0.7c-0.6,0-1.1,0-1.7-0.1c-0.5-0.1-0.9-0.2-1.3-0.4
			v-2c0.5,0.2,1,0.4,1.6,0.6c0.5,0.1,1,0.2,1.5,0.2c0.9,0,1.4-0.3,1.4-0.8c0-0.2-0.1-0.3-0.2-0.5c-0.2-0.2-0.4-0.3-0.6-0.4
			c-0.3-0.1-0.7-0.3-1.2-0.5s-1.1-0.5-1.5-0.8c-0.3-0.2-0.5-0.5-0.7-0.9s-0.2-0.8-0.2-1.2c0-0.7,0.3-1.5,0.9-1.9
			c0.8-0.5,1.7-0.7,2.7-0.7c1.1,0,2.2,0.2,3.2,0.7l-0.8,1.8c-0.5-0.2-0.9-0.4-1.3-0.5s-0.8-0.2-1.2-0.2c-0.7,0-1.1,0.2-1.1,0.6
			c0,0.2,0.1,0.5,0.4,0.6c0.5,0.3,1,0.5,1.5,0.7c0.6,0.2,1.1,0.5,1.6,0.8c0.3,0.2,0.6,0.5,0.7,0.9
			C509,110.7,509.1,111.1,509.1,111.5z"/>
		<path class="st1" d="M517.4,114.2l-0.3-1.2H517c-0.3,0.4-0.7,0.8-1.1,1c-0.5,0.2-1.1,0.4-1.7,0.3c-0.9,0.1-1.8-0.2-2.4-0.9
			c-0.6-0.7-0.9-1.6-0.8-2.5V105h2.5v5.3c0,0.5,0.1,1,0.3,1.5c0.3,0.3,0.7,0.5,1.1,0.5c0.6,0,1.2-0.2,1.5-0.7
			c0.4-0.7,0.5-1.5,0.5-2.3V105h2.5v9.1L517.4,114.2z"/>
		<path class="st1" d="M524.4,114.2H522v-12.7h2.5L524.4,114.2z"/>
		<path class="st1" d="M530.9,112.4c0.5,0,1.1-0.1,1.6-0.3v1.9c-0.7,0.3-1.5,0.4-2.3,0.4c-0.8,0.1-1.6-0.2-2.2-0.8
			c-0.5-0.6-0.7-1.4-0.7-2.3v-4.4h-1.2v-1.1l1.4-0.8l0.7-1.9h1.6v1.9h2.5v1.9h-2.5v4.4c0,0.3,0.1,0.6,0.3,0.8
			S530.6,112.4,530.9,112.4z"/>
		<path class="st1" d="M540.1,114.2l-0.5-1.2h-0.1c-0.3,0.5-0.8,0.8-1.3,1.1c-0.5,0.2-1.1,0.3-1.7,0.3c-0.8,0-1.5-0.2-2.1-0.8
			c-0.5-0.6-0.8-1.3-0.8-2.1c-0.1-0.8,0.3-1.7,1-2.1c0.9-0.5,2-0.8,3.1-0.8h1.6v-0.4c0.1-0.7-0.4-1.3-1.1-1.4c-0.1,0-0.2,0-0.3,0
			c-0.9,0-1.8,0.3-2.6,0.7l-0.8-1.7c1.1-0.6,2.3-0.8,3.5-0.8c1-0.1,2,0.2,2.8,0.8c0.7,0.6,1.1,1.5,1,2.4v6.1L540.1,114.2z
			 M539.3,110h-1c-0.6,0-1.1,0.1-1.6,0.4c-0.4,0.2-0.6,0.7-0.5,1.1c0,0.7,0.4,1,1.2,1c0.5,0,1-0.2,1.4-0.5s0.5-0.8,0.5-1.3
			L539.3,110z"/>
	</g>
</g>
</svg>
