<?xml version="1.0" encoding="UTF-8"?><svg id="Capa_1" xmlns="http://www.w3.org/2000/svg" viewBox="0 0 24 24"><defs><style>.cls-1{fill:#fff;}.cls-2{fill:#3ab0e5;}.cls-3{fill:#ebb91a;}</style></defs><path class="cls-1" d="M15.59,18.46c-2.05-.09-4.04-1.13-5.36-2.77-1.58-1.97-2.24-4.78-4.28-6.21-1.1-1.58-2.21-3.16-3.31-4.73-.19-.28-.44-.58-.77-.57-.36,.01-.6,.44-.57,.81s1.34,1.65,1.55,1.95c1.14,1.71,1.79,3.35,2.75,4.32,.23,.23-.1,.58-.38,.72-.21,.11-.78-.33-.92-.53-2.06-2.88-.94-2.38-3.05-3.62,.26-.21,.37-.34,.31-.59s-.25-.44-.41-.63C.33,5.62,.04,4.16,.41,2.9c.77-.29,1.61,.12,2.29,.6s1.33,1.07,2.14,1.21c1.1,.18,2.3-.53,3.3-.01,.62,.32,1.34,1.4,1.94,1.75,.72,.41,1.25-.17,2.05,0,.99,.2,1.49,1.54,1.83,2.52,.15,.43,.83,.35,.89,.81,.04,.32-.19,.63-.14,.94,.15,1.12,.31,2.26,.72,3.3s1.12,2.01,2.1,2.48,2.27,.34,3-.49c.45-.51,.66-1.21,1.05-1.78s1.11-.32,2.07-.46c.47-.07,.18,.67,.06,1.14s-.3,1.03-.65,1.36c-.77,.73-1.05,.32-2.34,1.16,.29,.11-.15,.7-.26,1s-.36,.52-.56,.77-.37,.57-.29,.88c-.77-1.5-2.8-2.09-4.2-1.24"/><ellipse class="cls-1" cx="17.11" cy="21.96" rx="1.38" ry="1.41" transform="translate(-3.08 2.79) rotate(-8.56)"/><ellipse class="cls-1" cx="10.61" cy="3.28" rx="1.31" ry="1.33" transform="translate(.79 8.47) rotate(-45)"/><ellipse class="cls-1" cx="4.87" cy="2.15" rx=".83" ry=".84" transform="translate(-.27 .75) rotate(-8.56)"/><path class="cls-2" d="M13.59,12.2c.03,.06,.06,.11,0,0-.06-.11-.03-.06,0,0-.21-.36-.57-.59-.94-.74-.25-.1-.51-.17-.77-.23v-1.72c.22,.04,.44,.11,.62,.24,.08,.06,.16,.14,.21,.22,.03,.05,.05,.09,.07,.14,.02,.05,.03,.1,.05,.15,.06,.17,.23,.28,.4,.29,.18,0,.35-.1,.43-.26,.04-.08,.05-.17,.04-.26,0-.05-.03-.11-.04-.16-.02-.06-.04-.11-.06-.17-.09-.19-.21-.37-.36-.52-.32-.31-.75-.49-1.18-.57-.06-.01-.12-.02-.18-.03v-.5c0-.18-.1-.34-.26-.41-.16-.07-.36-.05-.49,.07-.1,.09-.15,.21-.15,.34v.5c-.44,.06-.89,.23-1.22,.54-.16,.14-.28,.32-.37,.51-.09,.21-.14,.43-.14,.66,0,.22,.04,.45,.14,.65,.09,.19,.23,.35,.4,.48,.34,.27,.77,.41,1.19,.51v1.79c-.21-.06-.42-.16-.58-.31-.08-.07-.15-.16-.2-.25-.03-.05-.05-.1-.07-.15-.02-.05-.03-.11-.05-.16-.06-.17-.21-.29-.39-.31-.18-.02-.36,.08-.44,.24-.04,.08-.06,.17-.05,.26,0,.05,.02,.1,.04,.15,.02,.06,.04,.11,.06,.16,.08,.21,.2,.4,.34,.56,.29,.34,.68,.56,1.11,.68,.08,.02,.15,.04,.23,.05v.53c0,.18,.1,.34,.26,.41,.16,.07,.36,.05,.49-.07,.1-.09,.15-.21,.15-.34v-.48c.46-.04,.91-.17,1.28-.45,.35-.27,.58-.66,.62-1.1,.04-.33-.02-.68-.18-.97Zm-2.63-1.19c-.1-.03-.2-.07-.29-.1-.1-.04-.2-.09-.3-.15-.08-.06-.16-.13-.2-.22-.04-.1-.05-.22-.04-.32,.01-.1,.05-.2,.11-.29,.16-.23,.45-.35,.71-.41v1.49Zm1.83,2.31c-.18,.32-.58,.45-.92,.49v-1.65c.21,.06,.43,.12,.62,.22,.09,.05,.18,.1,.25,.18,.06,.07,.1,.16,.12,.25,.04,.17,.02,.36-.07,.51Z"/><path class="cls-3" d="M23.08,.06h-6.16c-.45,0-.83,.39-.83,.86V9.14c0,.47,.37,.86,.83,.86h6.16c.45,0,.83-.39,.83-.85V.92c0-.47-.37-.86-.83-.86Zm-3.63,1.05h3.22v.92h-3.22v-.92Zm-2.21,1.74h3.82c0,.49-.12,.87-.28,.87h-3.54v-.87Zm.04,1.81h5.47v.85h-5.47v-.85Zm0,1.87h5.47v.85h-5.47v-.85Zm2.43,2.57h-2.43c0-.43,.31-.76,.72-.76h1.72v.76Z"/><path class="cls-1" d="M4.89,17.33c.26-1.15,1.43-1.86,2.57-1.6s1.86,1.43,1.6,2.57-1.43,1.86-2.57,1.57c-1.15-.23-1.87-1.37-1.6-2.54Zm2.32-.62c-.63-.14-1.24,.26-1.38,.89s.26,1.24,.89,1.38,1.24-.26,1.38-.89-.24-1.23-.89-1.38Z"/><path class="cls-1" d="M2.08,16.2c-.12,.52-.05,1.11-.72,1.39-.54,.25-.66,.63-.48,1.21,.16,.55,.33,1.08,.49,1.63,.21,.59,.51,.8,1.12,.77,.87-.03,1.41,.49,1.45,1.33,0,.6,.26,.89,.83,1.02l1.58,.36c.71,.16,1,.03,1.34-.61,.09-.15,.15-.42,.3-.45,.49-.15,.97-.47,1.54-.08,.52,.35,.92,.27,1.37-.21,.34-.38,.72-.76,1.06-1.14,.53-.57,.54-.88,.12-1.55-.36-.54-.17-1.39,.39-1.72,.3-.19,.6-.35,.69-.76,0-.03-.01-.06-.01-.06l-.14-.03c-.31-.04-.61-.11-.9-.2,0,.12-.07,.18-.2,.27-.13,.08-.27,.17-.4,.25-.26,.14-.34,.35-.41,.65l-.19,.82c-.07,.44-.11,.72,.13,1.06,.37,.51,.18,.7-.05,.99-.08,.1-.25,.34-.37,.49-.13,.17-.25,.23-.5,.29s-.55-.21-.85-.31c-.16-.04-.36-.05-.52,0-.28,.08-.89,.26-1.17,.36-.5,.17-.48,.23-.62,.69-.11,.35-.32,.41-.67,.31-.35-.11-.7-.19-1.09-.25-.25-.06-.34-.16-.31-.41,0-.14,0-.26,0-.4,.01-.31-.15-.49-.38-.75-.21-.22-.56-.44-.73-.6-.31-.3-.53-.44-1.04-.35-.3,.07-.42-.07-.52-.35-.19-.42-.22-.54-.34-.91-.11-.28,.09-.64,.21-.67,.57-.22,.83-.5,.89-1.03,.01-.05,.12-.89,.13-.95,.02-.34,.06-.53-.37-1-.14-.15-.14-.29,.02-.46,.31-.33,.61-.66,.94-.96,.07-.07,.28-.11,.39-.06,.16,.04,.32,.22,.49,.25,.22,.05,.35,.11,.68,.04,.3-.07,.63-.14,.9-.28,.38-.14,.57-.22,.76-.55,.33-.7,.14-.63,.96-.44,.27,.06,.57,.16,.85,.19l.14,.03c0-.12-.03-.24-.03-.35-.02-.18-.14-.38-.3-.47-.25-.14-.51-.29-.7-.47l-.16-.04c-.74-.17-1.05-.04-1.41,.65-.09,.15-.15,.4-.27,.43-.51,.11-.97,.5-1.57,.07-.49-.37-.92-.24-1.34,.21-.38,.4-.72,.78-1.1,1.18-.46,.5-.5,.83-.12,1.41,.06,.13,.24,.31,.21,.48Z"/></svg>