<svg id="Capa_1" data-name="Capa 1" xmlns="http://www.w3.org/2000/svg" viewBox="0 0 225.7 222.06"><defs><style>.cls-1,.cls-2{fill:#fff;}.cls-2{stroke:#676767;stroke-width:4px;}.cls-2,.cls-5{stroke-miterlimit:10;}.cls-3{fill:#8bd2f0;}.cls-4{fill:#676767;}.cls-5{fill:none;stroke:#8bd2f0;}</style></defs><title>Mesa de trabajo 1 copia</title><circle class="cls-1" cx="113.47" cy="113.84" r="108.7"/><rect class="cls-2" x="67.28" y="52.16" width="80.94" height="111.49" rx="12" transform="translate(215.65 0.16) rotate(90)"/><rect class="cls-3" x="74.39" y="111.13" width="2.5" height="11.29"/><rect class="cls-3" x="80.27" y="115.28" width="2.5" height="7.13"/><rect class="cls-3" x="85.54" y="119.45" width="2.5" height="2.96"/><rect class="cls-3" x="68.41" y="106.52" width="2.5" height="15.9"/><rect class="cls-4" x="68.15" y="124.86" width="20.09" height="2.5"/><path class="cls-3" d="M133.25,90.64l-6,5.93a1.39,1.39,0,0,1-1.94-.15h0a1.38,1.38,0,0,1-.11-1.94l6-5.93a1.38,1.38,0,0,1,1.94.15h0A1.37,1.37,0,0,1,133.25,90.64Z"/><rect class="cls-3" x="64.66" y="92.49" width="10.93" height="3.62" rx="0.89"/><path class="cls-3" d="M127.26,112.33a18.26,18.26,0,1,1,18.25-18.25A18.27,18.27,0,0,1,127.26,112.33Zm0-32.12a13.87,13.87,0,1,0,13.86,13.87A13.87,13.87,0,0,0,127.26,80.21Z"/><rect class="cls-5" x="103.4" y="119.96" width="8.33" height="8.11"/><rect class="cls-5" x="117.13" y="119.96" width="8.33" height="8.11"/><rect class="cls-5" x="130.02" y="119.96" width="8.33" height="8.11"/><rect class="cls-5" x="142.91" y="119.96" width="8.33" height="8.11"/><rect class="cls-4" x="74.17" y="139.73" width="65.81" height="9.53" rx="3.06"/><path class="cls-3" d="M152.61,165.56H62.36c-1.51,0-2.75-3.38-2.75-5.06l4.5-3.41A2.93,2.93,0,0,1,66.86,154H149a2.93,2.93,0,0,1,2.76,3.06l3.59,3.41C155.36,162.18,154.12,165.56,152.61,165.56Z"/><path class="cls-1" d="M107.55,147.94a3.1,3.1,0,1,1,3.09-3.09A3.1,3.1,0,0,1,107.55,147.94Z"/><rect class="cls-4" x="70.17" y="158.71" width="76.16" height="2.5"/><path class="cls-4" d="M127.26,81.72A12.34,12.34,0,0,0,114.9,94.08h3a9.39,9.39,0,1,1,18.77,0h3A12.34,12.34,0,0,0,127.26,81.72Z"/><circle class="cls-1" cx="70.2" cy="83.18" r="2.63"/><path class="cls-4" d="M70.2,86.29a3.12,3.12,0,1,1,3.12-3.11A3.11,3.11,0,0,1,70.2,86.29Zm0-5.25a2.1,2.1,0,1,0,2.1,2.1A2.1,2.1,0,0,0,70.2,81Z"/><path class="cls-1" d="M74.85,90v-.23h0a3.67,3.67,0,0,0-3.64-3.64H68.93a3.67,3.67,0,0,0-3.64,3.64h0V90Z"/><path class="cls-4" d="M75.34,90.49H64.87l0-.45v-.26A4.11,4.11,0,0,1,69,85.65h2.29a4.12,4.12,0,0,1,4.13,4.13V90Zm-9.49-1h8.52a3.15,3.15,0,0,0-3.12-2.89H69A3.14,3.14,0,0,0,65.85,89.48Z"/><rect class="cls-3" x="80.79" y="92.49" width="10.93" height="3.62" rx="0.89"/><circle class="cls-1" cx="86.34" cy="83.18" r="2.63"/><path class="cls-4" d="M86.34,86.29a3.12,3.12,0,1,1,3.11-3.11A3.11,3.11,0,0,1,86.34,86.29Zm0-5.25a2.1,2.1,0,1,0,2.1,2.1A2.12,2.12,0,0,0,86.34,81Z"/><path class="cls-1" d="M91,90v-.23h0a3.67,3.67,0,0,0-3.64-3.64H85.06a3.67,3.67,0,0,0-3.64,3.64h0V90Z"/><path class="cls-4" d="M91.48,90.49H81L81,90v-.26a4.12,4.12,0,0,1,4.13-4.13h2.29a4.11,4.11,0,0,1,4.12,4.13V90Zm-9.5-1H90.5a3.14,3.14,0,0,0-3.11-2.89H85.1A3.16,3.16,0,0,0,82,89.48Z"/><path class="cls-3" d="M171.47,127.64a.91.91,0,0,1,1.35.07l.55.68,1-.34.07-1.17a.9.9,0,0,1,.85-.86c.54,0,1.07,0,1.6,0h1.49a.92.92,0,0,1,.91.93V127a.91.91,0,0,0,1.5.71l.09-.07a.9.9,0,0,1,1.25.06l2.13,2.21a.91.91,0,0,1,0,1.25l-.64.69.4.83,1,0a.92.92,0,0,1,.87.81,15,15,0,0,1,0,3.29.9.9,0,0,1-.93.77h0a.91.91,0,0,0-.72,1.51l.12.13a.91.91,0,0,1,0,1.24l-2.12,2.12a.92.92,0,0,1-1.28,0c-.13-.12-.26-.24-.4-.35s-.54-.29-.69-.21a1.09,1.09,0,0,0-.5.68,2.78,2.78,0,0,0,0,.51.9.9,0,0,1-.85.9c-1.3.06-2.58,0-3.91,0a5.77,5.77,0,0,1-.1-1.11.87.87,0,0,0-.93-1.07l-.64.58a.92.92,0,0,1-1.26,0l-2.2-2.17a.93.93,0,0,1,0-1.26h0a.91.91,0,0,0-.71-1.52h-.09a.92.92,0,0,1-.91-.88c0-.49.07-1,0-1.52s0-1,0-1.54a.92.92,0,0,1,.85-.91l1.14-.07.37-.85-.75-.82a.91.91,0,0,1,0-1.26Zm5.32,12a4.38,4.38,0,0,0,4.6-4.52,4.43,4.43,0,0,0-4.51-4.46,4.5,4.5,0,0,0-4.54,4.51A4.42,4.42,0,0,0,176.79,139.6Z"/><path class="cls-4" d="M185.64,92.46l-2.82,3,.92,2.25h4.07v10.86H184c-.44.77-.8,1.38-1.35,2.33l3.69,2.57-8.44,8.45c-.73-.94-1.33-1.77-2-2.56a1.65,1.65,0,0,0-2-.43c-.84.31-1,1-1,1.79s0,1.82,0,3c-1.08,0-2,.11-2.87.13s-1.62,0-2.55,0V112.67a7.64,7.64,0,0,1,1.55-.52c3.64-.44,7-3.25,7.65-8.63.44-3.73-2.89-8.1-6.73-9.17-.62-.17-1.25-.31-1.87-.48a4.22,4.22,0,0,1-.6-.34V82.74h5.33c0,1.07,0,2.15.1,3.22a1.65,1.65,0,0,0,2.77,1.25A31.7,31.7,0,0,0,178.05,85Z"/></svg>