<svg id="Capa_1" data-name="Capa 1" xmlns="http://www.w3.org/2000/svg" viewBox="0 0 119.08 44.73"><defs><style>.cls-1{fill:#fff;}.cls-2{fill:#96cb99;}</style></defs><title>Mesa de trabajo 5</title><path class="cls-1" d="M30.17,14.69Q30.17,21.43,26,25T14,28.57H10.19V43.42H1.33V1.67H14.67q7.59,0,11.55,3.27T30.17,14.69Zm-20,6.62H13.1c2.72,0,4.76-.53,6.11-1.61a5.66,5.66,0,0,0,2-4.7,5.81,5.81,0,0,0-1.7-4.6c-1.14-1-2.91-1.48-5.33-1.48h-4Z"/><path class="cls-1" d="M118.38,43.42H107.13L89,11.83h-.26q.56,8.37.55,11.94V43.42H81.35V1.67H92.51l18.13,31.27h.2q-.42-8.14-.42-11.51V1.67h8Z"/><path class="cls-2" d="M45.75,44.08V36.21c6.59.19,10.21,0,12-.69,5-1.4,7.76-4.78,8.66-9.79A20.08,20.08,0,0,0,66.09,17c-1.32-4.9-4.63-7.69-9.52-8.64a23.14,23.14,0,0,0-4.32-.39c-6,0-12,0-18,0h-.72v-7h.61c5.67,0,11.33,0,17,0a28.91,28.91,0,0,1,10.3,1.67A16.67,16.67,0,0,1,72.1,14a29,29,0,0,1-.23,17.76c-2.07,6.15-6.49,9.87-12.71,11.49A57.26,57.26,0,0,1,45.75,44.08Z"/><path class="cls-2" d="M45.85,21.12c0-1.88,0-3.76,0-5.64,0-.47.13-.64.62-.61,1.92.09,4.85,0,6.75.25,3.22.38,4.89,2.44,4.83,5.69a6.37,6.37,0,0,1-1.75,4.86A6.71,6.71,0,0,1,52,27.38c-1.53.11-4.07,0-5.61,0-.43,0-.53-.2-.52-.59C45.86,24.93,45.85,23,45.85,21.12Z"/></svg>