<svg id="Capa_1" data-name="Capa 1" xmlns="http://www.w3.org/2000/svg" viewBox="0 0 65.37 24.23"><defs><style>.cls-1{fill:#295d55;}.cls-2{fill:#96cb99;}</style></defs><title>Mesa de trabajo 5 copia</title><path class="cls-1" d="M16.17,7.82a7.08,7.08,0,0,1-2.35,5.74c-1.56,1.33-3.79,2-6.67,2H5v8.28H.1V.57H7.53c2.82,0,5,.6,6.44,1.82A6.65,6.65,0,0,1,16.17,7.82ZM5,11.51H6.65a5.4,5.4,0,0,0,3.41-.9A3.15,3.15,0,0,0,11.19,8a3.26,3.26,0,0,0-.95-2.57,4.43,4.43,0,0,0-3-.82H5Z"/><path class="cls-1" d="M65.32,23.83H59.05L48.93,6.23h-.14c.2,3.11.3,5.32.3,6.65V23.83H44.68V.57H50.9L61,18h.12c-.16-3-.24-5.16-.24-6.41V.57h4.44Z"/><path class="cls-2" d="M23.6,24.21V19.82c3.68.11,7.77-.09,7.93-.39A6.4,6.4,0,0,0,36.35,14a11.16,11.16,0,0,0-.17-4.88,6.32,6.32,0,0,0-5.3-4.81,13,13,0,0,0-2.41-.22c-3.34,0-6.67,0-10,0h-.4V.12h9.81a16.27,16.27,0,0,1,5.74.94,9.28,9.28,0,0,1,5.92,6.35,16.07,16.07,0,0,1-.13,9.89,9.54,9.54,0,0,1-7.08,6.41A46.78,46.78,0,0,1,23.6,24.21Z"/><path class="cls-2" d="M26,11.41c0-1.05,0-2.1,0-3.15,0-.26.08-.35.35-.34,1.06,0,2.14,0,3.2.14a2.83,2.83,0,0,1,2.69,3.17,3.61,3.61,0,0,1-1,2.71,3.78,3.78,0,0,1-2.41,1c-.85.06-1.71,0-2.56,0-.24,0-.3-.11-.29-.33Z"/></svg>