<svg id="Capa_1" data-name="Capa 1" xmlns="http://www.w3.org/2000/svg" viewBox="0 0 39.85 43.28"><defs><style>.cls-1{fill:#96cb99;}</style></defs><title>Mesa de trabajo 25</title><path class="cls-1" d="M12.18,43.21V35.34c6.59.19,10.36-.07,12-.68,5-1.41,7.75-4.79,8.65-9.8a19.93,19.93,0,0,0-.31-8.76C31.2,11.2,27.9,8.41,23,7.46a24.13,24.13,0,0,0-4.33-.39c-6,0-12,0-18,0H0V0H.61C6.28,0,12,0,17.61,0a28.87,28.87,0,0,1,10.3,1.67,16.67,16.67,0,0,1,10.62,11.4,29,29,0,0,1-.22,17.76c-2.08,6.15-6.5,9.87-12.72,11.49A57.26,57.26,0,0,1,12.18,43.21Z"/><path class="cls-1" d="M12.29,20.26c0-1.88,0-3.76,0-5.64,0-.48.13-.64.61-.62,1.92.09,4.85,0,6.75.25,3.22.39,4.89,2.45,4.83,5.69a6.4,6.4,0,0,1-1.74,4.86,6.77,6.77,0,0,1-4.32,1.72c-1.53.1-4.07,0-5.6,0-.44,0-.53-.19-.53-.59C12.29,24.06,12.29,22.16,12.29,20.26Z"/></svg>