<?xml version="1.0" encoding="iso-8859-1"?>
<!-- Generator: Adobe Illustrator 21.0.0, SVG Export Plug-In . SVG Version: 6.00 Build 0)  -->
<svg version="1.1" id="Layer_1" xmlns="http://www.w3.org/2000/svg" xmlns:xlink="http://www.w3.org/1999/xlink" x="0px" y="0px"
	 viewBox="0 0 142 50" style="enable-background:new 0 0 142 50;" xml:space="preserve">
<path style="fill:#606060;" d="M35.279,16.737c0,5.18-1.602,9.141-4.807,11.884s-7.815,4.115-13.833,4.115h-4.392v17.118H2.035
	V1.728h15.377c5.833,0,10.271,1.256,13.314,3.769C33.769,8.011,35.287,11.757,35.279,16.737z M12.225,24.368h3.377
	c3.135,0,5.487-0.611,7.043-1.856c1.586-1.337,2.442-3.348,2.305-5.418c0.161-1.97-0.556-3.911-1.96-5.302
	c-1.314-1.153-3.354-1.706-6.144-1.706h-4.611L12.225,24.368z"/>
<path style="fill:#34B3EB;" d="M53.238,50.615v-9.072c7.596,0.219,11.769,0,13.833-0.795c5.764-1.614,8.945-5.51,9.982-11.285
	c0.617-3.341,0.491-6.777-0.369-10.063c-1.522-5.648-5.337-8.864-10.974-9.959c-1.642-0.305-3.309-0.456-4.98-0.45
	c-6.916,0-13.833,0-20.749,0h-0.83V0.921h0.703c6.536,0,13.06,0,19.596,0c4.042-0.084,8.065,0.569,11.873,1.925
	c6.009,2.065,10.609,6.967,12.288,13.095c2.055,6.684,1.962,13.844-0.265,20.472c-2.386,7.089-7.481,11.377-14.651,13.245
	C63.599,50.583,58.411,50.904,53.238,50.615z"/>
<path style="fill:#34B3EB;" d="M53.354,24.149c0-2.167,0-4.334,0-6.501c0-0.542,0.15-0.738,0.715-0.703
	c2.213,0.104,5.591,0,7.781,0.288c3.712,0.438,5.637,2.813,5.568,6.559c0.149,2.068-0.584,4.103-2.017,5.602
	c-1.366,1.224-3.123,1.923-4.957,1.971c-1.764,0.127-4.692,0-6.467,0c-0.496,0-0.611-0.231-0.599-0.68
	C53.365,28.54,53.354,26.316,53.354,24.149z"/>
<path style="fill:#606060;" d="M136.96,49.854h-12.968L103.093,13.44h-0.3c0.43,6.432,0.642,11.02,0.634,13.763v22.651h-9.153V1.728
	h12.864l20.899,36.045h0.231c-0.323-6.255-0.484-10.678-0.484-13.268V1.728h9.222L136.96,49.854z"/>
<g>
</g>
<g>
</g>
<g>
</g>
<g>
</g>
<g>
</g>
<g>
</g>
<g>
</g>
<g>
</g>
<g>
</g>
<g>
</g>
<g>
</g>
<g>
</g>
<g>
</g>
<g>
</g>
<g>
</g>
</svg>
