<?xml version="1.0" encoding="iso-8859-1"?>
<!-- Generator: Adobe Illustrator 18.0.0, SVG Export Plug-In . SVG Version: 6.00 Build 0)  -->
<!DOCTYPE svg PUBLIC "-//W3C//DTD SVG 1.1//EN" "http://www.w3.org/Graphics/SVG/1.1/DTD/svg11.dtd">
<svg version="1.1" id="Capa_1" xmlns="http://www.w3.org/2000/svg" xmlns:xlink="http://www.w3.org/1999/xlink" x="0px" y="0px"
	 viewBox="0 0 342.84 342.84" style="enable-background:new 0 0 342.84 342.84;" xml:space="preserve">
<g>
	<path style="fill:#fff;" d="M188.365,0.545c-50.53,0-97.23,24.744-125.866,64.929c7.257,2.05,13.915,5.92,19.401,11.401l4.717,4.717
		c23.306-32.233,60.994-52.047,101.748-52.047c69.187,0,125.475,56.289,125.475,125.477c0,40.957-19.755,78.521-52.016,101.777
		l3.643,3.643c5.865,5.869,9.891,13.115,11.809,20.942c40.614-28.537,65.564-75.303,65.564-126.362
		C342.84,69.843,273.543,0.545,188.365,0.545z"/>
	<path style="fill:#fff;" d="M210.072,240.764c-4.131-4.131-9.78-6.2-15.714-5.604c-10.477,1.059-20.305,5.092-28.421,11.665
		c-1.113,0.91-2.552,1.418-4.033,1.418c-1.45,0-2.867-0.493-3.99-1.387c-22.968-18.488-43.955-39.489-62.399-62.435
		c-1.884-2.326-1.878-5.72,0.027-8.056c6.555-8.095,10.583-17.917,11.638-28.388c0.586-5.837-1.457-11.566-5.604-15.717
		L64.045,94.733c-3.678-3.674-8.564-5.699-13.756-5.699c-0.626,0-1.269,0.031-1.908,0.093c-12.29,1.205-23.893,6.7-32.663,15.472
		c-16.863,16.866-20.593,43.159-9.069,63.942c29.353,53.547,99.945,130.727,167.293,167.231c7.827,4.27,16.702,6.523,25.678,6.523
		c14.268,0,28.162-5.711,38.121-15.67c8.771-8.774,14.268-20.378,15.473-32.673c0.572-5.813-1.473-11.52-5.609-15.66
		L210.072,240.764z"/>
	<path style="fill:#fff;" d="M194.379,52.67c-5.523,0-10,4.477-10,10v82c0,5.523,4.477,10,10,10h76.461c5.522,0,10-4.477,10-10s-4.478-10-10-10h-66.461
		v-72C204.379,57.147,199.901,52.67,194.379,52.67z"/>
</g>
<g>
</g>
<g>
</g>
<g>
</g>
<g>
</g>
<g>
</g>
<g>
</g>
<g>
</g>
<g>
</g>
<g>
</g>
<g>
</g>
<g>
</g>
<g>
</g>
<g>
</g>
<g>
</g>
<g>
</g>
</svg>
