<?xml version="1.0" encoding="iso-8859-1"?>
<!-- Generator: Adobe Illustrator 18.0.0, SVG Export Plug-In . SVG Version: 6.00 Build 0)  -->
<!DOCTYPE svg PUBLIC "-//W3C//DTD SVG 1.1//EN" "http://www.w3.org/Graphics/SVG/1.1/DTD/svg11.dtd">
<svg version="1.1" id="Capa_1" xmlns="http://www.w3.org/2000/svg" xmlns:xlink="http://www.w3.org/1999/xlink" x="0px" y="0px"
	 viewBox="0 0 326.682 326.682" style="enable-background:new 0 0 326.682 326.682;" xml:space="preserve">
<g>
	<path style="fill:#fff;" d="M143.822,184.241c22.539,0,75.531-27.126,75.531-92.121c0-50.878-6.869-92.12-75.531-92.12
		C75.157,0,68.288,41.242,68.288,92.12C68.288,157.115,121.281,184.241,143.822,184.241z"/>
	<path style="fill:#fff;" d="M317.925,199.313H186.95c-2.883,0-5.229,2.346-5.229,5.229v84.045c0,2.883,2.346,5.228,5.229,5.228h44.697l-1.588,6.235
		c-1.309,5.135-2.965,9.9-4.926,14.164c-0.744,1.624-0.611,3.494,0.354,5.001c0.965,1.506,2.611,2.405,4.4,2.405h45.098
		c1.791,0,3.436-0.899,4.402-2.405c0.965-1.507,1.096-3.379,0.35-5.008c-1.957-4.26-3.613-9.024-4.922-14.157l-1.59-6.235h44.699
		c2.883,0,5.229-2.346,5.229-5.228v-84.045C323.154,201.658,320.808,199.313,317.925,199.313z M309.56,281.982h-6.52v-1.286
		c0-1.904-1.545-3.448-3.447-3.448c-1.906,0-3.449,1.544-3.449,3.448v1.286h-4.35v-1.286c0-1.904-1.543-3.448-3.447-3.448
		s-3.449,1.544-3.449,3.448v1.286h-18.641h-27.641h-43.303v-70.839H309.56V281.982z"/>
	<path style="fill:#fff;" d="M170.222,288.586v-84.045c0-9.224,7.504-16.729,16.729-16.729h25.514c-8.209-4.444-15.803-8.502-21.082-11.322l-0.34-0.182
		c-1.854-0.99-4.113-0.791-5.764,0.505c-8.49,6.664-17.787,11.154-27.629,13.345c-1.74,0.388-3.168,1.624-3.801,3.29l-10.027,26.431
		l-10.029-26.431c-0.633-1.666-2.061-2.902-3.799-3.29c-9.844-2.19-19.139-6.681-27.631-13.346c-1.65-1.295-3.91-1.494-5.764-0.504
		c-16.006,8.551-54.4,29.23-65.24,36.535c-18.334,12.354-26.344,57.041-27.764,65.874c-0.141,0.876-0.059,1.772,0.236,2.608
		c0.656,1.852,17.477,45.355,139.99,45.355c28.711,0,51.617-2.39,69.871-6.072c-0.963-3.679-0.646-7.621,0.994-11.2
		c0.627-1.363,1.191-2.736,1.703-4.095H186.95C177.726,305.314,170.222,297.81,170.222,288.586z"/>
</g>
<g>
</g>
<g>
</g>
<g>
</g>
<g>
</g>
<g>
</g>
<g>
</g>
<g>
</g>
<g>
</g>
<g>
</g>
<g>
</g>
<g>
</g>
<g>
</g>
<g>
</g>
<g>
</g>
<g>
</g>
</svg>
