<?xml version="1.0" encoding="iso-8859-1"?>
<!-- Generator: Adobe Illustrator 18.0.0, SVG Export Plug-In . SVG Version: 6.00 Build 0)  -->
<!DOCTYPE svg PUBLIC "-//W3C//DTD SVG 1.1//EN" "http://www.w3.org/Graphics/SVG/1.1/DTD/svg11.dtd">
<svg version="1.1" id="Capa_1" xmlns="http://www.w3.org/2000/svg" xmlns:xlink="http://www.w3.org/1999/xlink" x="0px" y="0px"
	 viewBox="0 0 363.054 363.054" style="enable-background:new 0 0 363.054 363.054;" xml:space="preserve">
<g>
	<path style="fill:#fff;" d="M233.334,200.462c-8.162-0.004-15.806-3.629-20.972-9.949c-4.502-5.51-7.751-11.832-9.593-18.605
		c-7.086-0.575-14.233-0.866-21.33-0.866c-7.044,0-14.137,0.286-21.149,0.851c-1.838,6.765-5.092,13.1-9.611,18.636
		c-0.577,0.704-1.186,1.376-1.807,1.997c-5.116,5.115-11.919,7.932-19.155,7.932l-29.979,0.003
		c-13.896,22.465-13.528,51.297-13.247,73.255c0.04,3.047,0.078,5.925,0.078,8.674c0,2.74,2.221,4.965,4.963,4.965h179.991
		c2.741,0,4.962-2.225,4.962-4.965c0-2.749,0.038-5.627,0.078-8.674c0.281-21.958,0.649-50.79-13.247-73.254H233.334z
		 M181.523,265.294c-18.482,0-33.457-14.977-33.457-33.454c0-18.476,14.975-33.456,33.457-33.456
		c18.489,0,33.458,14.98,33.458,33.456C214.981,250.317,200.012,265.294,181.523,265.294z"/>
	<path style="fill:#fff;" d="M181.523,210.93c-11.543,0-20.907,9.363-20.907,20.909c0,11.545,9.364,20.9,20.907,20.9c11.549,0,20.912-9.355,20.912-20.9
		C202.435,220.294,193.072,210.93,181.523,210.93z"/>
	<path style="fill:#fff;" d="M100.635,120.655c-6.305,1.854-12.118,5.313-16.801,9.998c-7.442,7.439-11.712,17.676-11.71,28.072
		c0,9.16,3.192,18.084,8.981,25.135c3.145,3.834,7.799,6.03,12.764,6.033l35.846-0.003c4.413,0,8.564-1.718,11.683-4.837
		c0.391-0.391,0.762-0.804,1.11-1.229c4.918-6.025,7.941-13.261,8.745-20.928c0.023-0.207,0.121-0.413,0.282-0.569
		c0.087-0.091,0.28-0.245,0.56-0.276c9.734-1.052,19.539-1.578,29.344-1.578c9.863,0,19.727,0.532,29.523,1.597
		c0.424,0.046,0.795,0.419,0.838,0.845c0.808,7.664,3.83,14.895,8.746,20.912c3.151,3.855,7.814,6.064,12.794,6.066h35.846
		c4.411-0.003,8.56-1.718,11.676-4.838c0.383-0.381,0.748-0.78,1.085-1.195c5.793-7.051,8.98-15.971,8.982-25.135
		c-0.004-17.604-11.793-33.278-28.652-38.109c-21.187-6.186-51.162-9.988-82.127-9.988
		C152.599,110.628,124.265,113.637,100.635,120.655z"/>
	<path style="fill:#fff;" d="M312.843,100.628c-3.82-5.093-11.044-6.125-16.136-2.304c-5.092,3.82-6.124,11.044-2.304,16.136
		c18.406,24.538,28.136,53.768,28.136,84.53c0,77.754-63.258,141.013-141.013,141.013S40.514,276.744,40.514,198.99
		S103.772,57.977,181.527,57.977c6.827,0,13.619,0.505,20.328,1.473l-17.381,7.504c-5.844,2.523-8.536,9.306-6.013,15.15
		c1.88,4.356,6.126,6.961,10.587,6.961c1.524,0,3.074-0.305,4.563-0.947l46.102-19.904c5.844-2.523,8.536-9.306,6.014-15.15
		L225.822,6.96c-2.523-5.844-9.308-8.535-15.15-6.013c-5.844,2.523-8.536,9.306-6.014,15.15l9.535,22.087
		c-10.709-2.163-21.654-3.257-32.666-3.257c-90.465,0-164.064,73.599-164.064,164.064c0,90.465,73.599,164.064,164.064,164.064
		S345.59,289.455,345.59,198.99C345.59,163.2,334.267,129.187,312.843,100.628z"/>
</g>
<g>
</g>
<g>
</g>
<g>
</g>
<g>
</g>
<g>
</g>
<g>
</g>
<g>
</g>
<g>
</g>
<g>
</g>
<g>
</g>
<g>
</g>
<g>
</g>
<g>
</g>
<g>
</g>
<g>
</g>
</svg>
