<?xml version="1.0" encoding="iso-8859-1"?>
<!-- Generator: Adobe Illustrator 18.0.0, SVG Export Plug-In . SVG Version: 6.00 Build 0)  -->
<!DOCTYPE svg PUBLIC "-//W3C//DTD SVG 1.1//EN" "http://www.w3.org/Graphics/SVG/1.1/DTD/svg11.dtd">
<svg version="1.1" id="Capa_1" xmlns="http://www.w3.org/2000/svg" xmlns:xlink="http://www.w3.org/1999/xlink" x="0px" y="0px"
	 viewBox="0 0 310 310" style="enable-background:new 0 0 310 310;" xml:space="preserve">
<path style="fill:#fff;" d="M300.564,179.311L282.4,168.824c0.489-4.543,0.747-9.154,0.747-13.824s-0.258-9.281-0.747-13.824l18.164-10.487
	c3.881-2.241,6.658-5.86,7.816-10.191c1.16-4.33,0.564-8.854-1.676-12.735l-34.943-60.524c-2.99-5.18-8.564-8.396-14.551-8.396
	c-2.93,0-5.826,0.778-8.377,2.251L230.619,51.61c-7.402-5.429-15.406-10.083-23.893-13.842V16.783
	C206.727,7.529,199.195,0,189.945,0h-69.891c-9.254,0-16.781,7.529-16.781,16.783v20.985c-8.486,3.759-16.49,8.413-23.894,13.842
	L61.164,41.094c-2.551-1.473-5.445-2.25-8.375-2.25c-5.986,0-11.563,3.215-14.553,8.395L3.295,107.762
	c-2.242,3.881-2.836,8.406-1.674,12.736c1.156,4.33,3.935,7.949,7.814,10.191L27.6,141.176c-0.489,4.543-0.747,9.154-0.747,13.824
	s0.258,9.281,0.747,13.824L9.435,179.311c-3.879,2.241-6.658,5.86-7.814,10.191c-1.162,4.33-0.568,8.855,1.674,12.735l34.941,60.524
	c2.99,5.18,8.566,8.395,14.553,8.395c2.93,0,5.824-0.777,8.375-2.25L79.38,258.39c7.403,5.429,15.407,10.083,23.894,13.842v20.986
	c0,4.482,1.744,8.695,4.914,11.866c3.174,3.169,7.385,4.916,11.867,4.916h69.891c9.25,0,16.781-7.529,16.781-16.782v-20.986
	c8.486-3.759,16.49-8.413,23.893-13.842l18.215,10.517c2.551,1.473,5.447,2.25,8.377,2.25c5.986,0,11.561-3.215,14.551-8.395
	l34.943-60.523c2.24-3.881,2.836-8.406,1.676-12.736C307.223,185.172,304.445,181.553,300.564,179.311z M155,246.101
	c-18.23,0-35.207-5.357-49.449-14.579l30.801-30.804c6.449,2.772,13.45,4.24,20.677,4.241c0.002,0,0.003,0,0.004,0
	c14.011,0,27.175-5.466,37.064-15.39c13.5-13.536,18.541-33.363,13.155-51.743c-0.313-1.069-1.168-1.894-2.248-2.169
	c-1.078-0.277-2.225,0.04-3.011,0.829l-32.97,33.069c-1.979-0.804-6.961-3.542-16.186-12.736
	c-9.226-9.197-11.976-14.173-12.783-16.148l32.966-33.069c0.787-0.789,1.098-1.935,0.82-3.013c-0.278-1.079-1.105-1.931-2.175-2.241
	c-4.751-1.378-9.676-2.078-14.637-2.078c-14.016,0-27.181,5.464-37.069,15.385c-9.873,9.903-15.299,23.057-15.28,37.039
	c0.01,7.204,1.476,14.18,4.24,20.604l-30.722,30.724C69.145,189.868,63.896,173.047,63.896,155
	c0-50.313,40.787-91.102,91.104-91.102s91.102,40.789,91.102,91.102S205.316,246.101,155,246.101z"/>
<g>
</g>
<g>
</g>
<g>
</g>
<g>
</g>
<g>
</g>
<g>
</g>
<g>
</g>
<g>
</g>
<g>
</g>
<g>
</g>
<g>
</g>
<g>
</g>
<g>
</g>
<g>
</g>
<g>
</g>
</svg>
