<?xml version="1.0" encoding="iso-8859-1"?>
<!-- Generator: Adobe Illustrator 18.0.0, SVG Export Plug-In . SVG Version: 6.00 Build 0)  -->
<!DOCTYPE svg PUBLIC "-//W3C//DTD SVG 1.1//EN" "http://www.w3.org/Graphics/SVG/1.1/DTD/svg11.dtd">
<svg version="1.1" id="Capa_1" xmlns="http://www.w3.org/2000/svg" xmlns:xlink="http://www.w3.org/1999/xlink" x="0px" y="0px"
	 viewBox="0 0 370.194 370.194" style="enable-background:new 0 0 370.194 370.194;" xml:space="preserve">
<g>
	<path style="fill:#fff;" d="M277.214,234.932c-4.22,9.76-10.565,19.017-18.936,27.48l-3.072,3.107l-10.331,68.728l-53.271-36.62l-5.467,1.022
		c-10.136,1.895-20.586,2.855-31.062,2.855c-70.736,0-128.285-42.995-128.285-95.844c0-51.217,54.051-93.179,121.772-95.721
		c-5.642-8.22-10.627-16.21-14.766-23.757c-0.349-0.63-0.677-1.268-1.004-1.906c-32.376,3.652-62.352,15.239-86.078,33.533
		C16.59,141.037,0,172.236,0,205.662c0,33.425,16.59,64.624,46.714,87.85c29.091,22.43,67.574,34.783,108.36,34.783
		c10.219,0,20.426-0.792,30.422-2.357l50.092,34.434c3.738,2.566,8.108,3.923,12.639,3.923c3.075,0,6.066-0.622,8.889-1.847
		c7.098-3.08,12.027-9.489,13.189-17.158l10.112-67.27c8.828-9.545,15.756-19.889,20.7-30.801
		c-3.775-1.275-7.441-2.865-10.942-4.774C285.789,240.066,281.467,237.55,277.214,234.932z"/>
	<path style="fill:#fff;" d="M365.34,172.611l-33.094-33.091c-3.131-3.13-7.293-4.854-11.721-4.854c-0.56,0-1.116,0.028-1.652,0.083
		c-9.134,0.923-17.691,4.434-24.753,10.156c-2.191,1.772-5.613,1.789-7.817,0.033c-20.287-16.331-38.824-34.879-55.116-55.146
		c-1.829-2.271-1.822-5.57,0.02-7.838c5.714-7.059,9.222-15.61,10.14-24.727c0.499-4.971-1.239-9.848-4.771-13.381L203.48,10.752
		C200.35,7.623,196.191,5.9,191.77,5.9c-0.537,0-1.081,0.027-1.615,0.08c-10.708,1.047-20.811,5.832-28.453,13.473
		c-14.684,14.686-17.931,37.582-7.896,55.677c25.839,47.144,87.986,115.09,147.281,147.228c6.813,3.718,14.541,5.68,22.361,5.68
		c12.425,0,24.524-4.973,33.195-13.644c7.639-7.64,12.423-17.744,13.471-28.449C370.602,180.994,368.861,176.135,365.34,172.611z"/>
	<path style="fill:#fff;" d="M168.145,163.938c0.117-1.126,0.328-3.538,0.328-3.538c0.165-1.211,0.18-2.529,0-3.799
		c-1.049-7.398-7.896-12.545-15.295-11.495c-7.396,1.049-12.543,7.896-11.494,15.294c0,0,0.211,2.412,0.328,3.538
		c0.224,2.251,0.543,5.468,0.926,9.327c0.766,7.719,1.786,18.01,2.807,28.302c2.042,20.583,4.084,41.167,4.084,41.167
		c0.242,2.452,2.184,4.477,4.729,4.73c2.899,0.287,5.483-1.83,5.771-4.73c0,0,2.042-20.584,4.084-41.167
		c1.02-10.292,2.041-20.583,2.807-28.302C167.602,169.406,167.921,166.189,168.145,163.938z"/>
	<circle cx="155.078" cy="262.306" r="11"/>
</g>
<g>
</g>
<g>
</g>
<g>
</g>
<g>
</g>
<g>
</g>
<g>
</g>
<g>
</g>
<g>
</g>
<g>
</g>
<g>
</g>
<g>
</g>
<g>
</g>
<g>
</g>
<g>
</g>
<g>
</g>
</svg>
