<?xml version="1.0" encoding="iso-8859-1"?>
<!-- Generator: Adobe Illustrator 18.0.0, SVG Export Plug-In . SVG Version: 6.00 Build 0)  -->
<!DOCTYPE svg PUBLIC "-//W3C//DTD SVG 1.1//EN" "http://www.w3.org/Graphics/SVG/1.1/DTD/svg11.dtd">
<svg version="1.1" id="Capa_1" xmlns="http://www.w3.org/2000/svg" xmlns:xlink="http://www.w3.org/1999/xlink" x="0px" y="0px"
	 viewBox="0 0 368.04 368.04" style="enable-background:new 0 0 368.04 368.04;" xml:space="preserve">
<g>
	<path style="fill:#fff;" d="M112.214,165.38c-2.266,9.197-9.859,25.195-35.066,37.693c-1.077,0.534-1.731,1.658-1.663,2.858
		c0.068,1.2,0.846,2.243,1.977,2.651c0.199,0.072,4.985,1.764,13.603,1.764c0.001,0,0.001,0,0.001,0
		c10.329,0,26.465-2.424,47.207-13.145c16.26,13.824,34.554,20.148,45.749,20.148c11.194,0,29.488-6.325,45.749-20.15
		c20.743,10.722,36.879,13.146,47.209,13.146c8.618,0,13.403-1.692,13.603-1.764c1.13-0.408,1.908-1.451,1.977-2.651
		c0.068-1.2-0.586-2.324-1.663-2.858c-9.471-4.696-16.447-9.855-21.6-14.956c-14.011,5.031-32.85,7.509-56.799,7.51
		c-1.651,0-3.386-0.015-5.237-0.044c-3.549,2.733-7.945,4.274-12.507,4.274h-15c-11.304,0-20.5-9.196-20.5-20.5
		c0-11.304,9.196-20.5,20.5-20.5h15c5.419,0,10.488,2.112,14.246,5.754c1.248,0.014,2.48,0.021,3.688,0.021
		c19.364,0,32.125-1.776,40.473-3.918c-1.083-2.635-1.672-5.518-1.672-8.528v-51.977c0-5.408,2.006-10.59,5.476-14.594
		c-1.852-14.415-5.213-25.42-10.23-33.538c-10.335-16.729-30.262-24.52-62.711-24.52c-26.92,0-45.508,5.588-56.828,17.083
		c-8.775,8.911-13.86,21.625-16.236,40.829c3.547,4.019,5.6,9.255,5.6,14.741v51.977C116.556,157.121,114.94,161.684,112.214,165.38
		z"/>
	<path style="fill:#fff;" d="M332.368,317.298c-4.08-25.367-12.479-58.043-29.324-69.653c-11.486-7.921-51.586-29.346-68.71-38.494l-0.36-0.192
		c-1.96-1.047-4.351-0.836-6.097,0.534c-8.984,7.051-18.818,11.801-29.229,14.119c-1.84,0.409-3.351,1.717-4.02,3.48l-10.609,27.961
		l-10.61-27.961c-0.669-1.763-2.179-3.071-4.02-3.48c-10.411-2.318-20.245-7.068-29.23-14.119c-1.747-1.372-4.138-1.581-6.097-0.534
		c-16.932,9.046-57.55,30.921-69.02,38.652c-19.399,13.07-27.87,60.344-29.371,69.688c-0.149,0.926-0.063,1.875,0.25,2.759
		c0.694,1.96,18.488,47.983,148.097,47.983c129.607,0,147.403-46.023,148.098-47.982
		C332.431,319.173,332.517,318.225,332.368,317.298z M272.021,288.169h-51.334v-10.811h51.334V288.169z"/>
	<path style="fill:#fff;" d="M76.292,164.457h17.994c6.774,0,12.27-5.494,12.27-12.271v-51.977c0-4.528-2.459-8.473-6.107-10.599
		c4.018-42.561,20.442-72.054,83.572-72.054c36.254,0,58.885,9.3,71.219,29.265c7.18,11.618,10.633,26.624,12.246,42.853
		c-3.59,2.141-6,6.051-6,10.534v51.977c0,5.843,4.088,10.722,9.557,11.959c-7.933,5.187-24.354,10.487-58.357,10.487
		c-2.755,0-5.626-0.035-8.616-0.107c-1.749-3.365-5.261-5.668-9.317-5.668h-15c-5.798,0-10.5,4.701-10.5,10.5
		c0,5.799,4.702,10.5,10.5,10.5h15c3.504,0,6.599-1.723,8.506-4.36c3.157,0.08,6.25,0.13,9.238,0.13
		c38.328-0.001,62.693-6.543,72.561-19.523c0.42-0.552,0.803-1.102,1.152-1.646h5.542c6.776,0,12.27-5.494,12.27-12.271v-51.977
		c0-6.776-5.494-12.27-12.27-12.27h-6.767c-1.904-19.608-6.125-36.3-14.808-50.348C254.549,12.296,226.366,0,184.021,0
		c-42.348,0-70.529,12.296-86.158,37.592c-8.681,14.048-12.9,30.738-14.805,50.348h-6.766c-6.777,0-12.271,5.493-12.271,12.27
		v51.977C64.021,158.963,69.515,164.457,76.292,164.457z"/>
</g>
<g>
</g>
<g>
</g>
<g>
</g>
<g>
</g>
<g>
</g>
<g>
</g>
<g>
</g>
<g>
</g>
<g>
</g>
<g>
</g>
<g>
</g>
<g>
</g>
<g>
</g>
<g>
</g>
<g>
</g>
</svg>
