<?xml version="1.0" encoding="iso-8859-1"?>
<!-- Generator: Adobe Illustrator 18.0.0, SVG Export Plug-In . SVG Version: 6.00 Build 0)  -->
<!DOCTYPE svg PUBLIC "-//W3C//DTD SVG 1.1//EN" "http://www.w3.org/Graphics/SVG/1.1/DTD/svg11.dtd">
<svg version="1.1" id="Capa_1" xmlns="http://www.w3.org/2000/svg" xmlns:xlink="http://www.w3.org/1999/xlink" x="0px" y="0px"
	 viewBox="0 0 397.295 397.295" style="enable-background:new 0 0 397.295 397.295;" xml:space="preserve">
<g>
	<path style="fill:#fff;" d="M394.725,283.512c-1.41-1.951-3.671-3.106-6.078-3.106h-11.855V77.893c0-7.869-6.402-14.272-14.271-14.272H34.776
		c-7.869,0-14.271,6.402-14.271,14.272v202.513H8.647c-2.406,0-4.668,1.155-6.078,3.106c-2.408,3.332-4.022,9.573-0.637,16.197
		c5.107,9.994,19.935,17.543,45.332,23.076c33.148,7.225,84.082,10.887,151.383,10.887s118.233-3.662,151.383-10.887
		c25.397-5.533,40.225-13.082,45.332-23.076C398.747,293.086,397.134,286.845,394.725,283.512z M259.647,316.313
		c-4.971,0-9-4.029-9-9s4.029-9,9-9c4.971,0,9,4.029,9,9S264.618,316.313,259.647,316.313z M292.278,316.313c-4.971,0-9-4.029-9-9
		s4.029-9,9-9s9,4.029,9,9S297.249,316.313,292.278,316.313z M322.804,316.313c-4.971,0-9-4.029-9-9s4.029-9,9-9s9,4.029,9,9
		S327.775,316.313,322.804,316.313z M348.648,277.278h-300V91.751h300V277.278z"/>
	<path style="fill:#fff;" d="M123.929,200.456c-0.564,2.108-0.275,4.313,0.816,6.202l17.023,29.484c1.454,2.523,4.172,4.089,7.086,4.089
		c1.429,0,2.841-0.379,4.082-1.096l8.881-5.128c3.604,2.643,7.502,4.904,11.632,6.734v10.237c0,2.184,0.85,4.234,2.392,5.78
		c1.547,1.544,3.598,2.395,5.78,2.395h34.049c4.505,0,8.173-3.668,8.173-8.175v-10.237c4.131-1.831,8.028-4.091,11.632-6.734
		l8.881,5.127c1.242,0.717,2.654,1.096,4.083,1.096c2.914,0,5.632-1.565,7.086-4.089l17.023-29.484
		c1.092-1.89,1.38-4.094,0.815-6.202c-0.563-2.11-1.918-3.873-3.806-4.965l-8.856-5.113c0.238-2.212,0.368-4.456,0.368-6.73
		s-0.13-4.519-0.368-6.73l8.856-5.113c1.888-1.092,3.243-2.854,3.806-4.964c0.564-2.11,0.276-4.313-0.815-6.202l-17.023-29.485
		c-1.454-2.523-4.172-4.089-7.086-4.089c-1.429,0-2.841,0.379-4.083,1.096l-8.881,5.127c-3.604-2.643-7.502-4.903-11.633-6.734
		v-10.237c0-4.506-3.668-8.175-8.173-8.175h-34.049c-4.505,0-8.172,3.669-8.172,8.175v10.237c-4.131,1.83-8.028,4.091-11.632,6.734
		l-8.881-5.128c-1.241-0.717-2.653-1.096-4.082-1.096c-2.914,0-5.632,1.565-7.086,4.089l-17.023,29.484
		c-1.092,1.89-1.38,4.093-0.816,6.203c0.564,2.109,1.917,3.872,3.807,4.964l8.856,5.114c-0.238,2.212-0.368,4.456-0.368,6.73
		s0.13,4.518,0.368,6.73l-8.856,5.114C125.845,196.583,124.493,198.345,123.929,200.456z M198.647,139.268
		c24.513,0,44.381,19.87,44.381,44.379s-19.868,44.379-44.381,44.379c-8.88,0-17.144-2.618-24.081-7.109l14.997-14.998
		c3.141,1.351,6.551,2.065,10.071,2.065h0c6.828,0,13.241-2.663,18.058-7.497c6.576-6.593,9.032-16.251,6.41-25.206
		c-0.152-0.521-0.569-0.923-1.095-1.057c-0.524-0.132-1.083,0.02-1.467,0.404l-16.062,16.109c-0.963-0.392-3.39-1.726-7.884-6.205
		c-4.493-4.479-5.835-6.903-6.229-7.867l16.059-16.108c0.383-0.384,0.535-0.942,0.4-1.468c-0.135-0.526-0.538-0.941-1.06-1.092
		c-2.314-0.672-4.713-1.012-7.13-1.012c-6.827,0-13.239,2.662-18.057,7.495c-4.81,4.824-7.454,11.232-7.444,18.044
		c0.005,3.509,0.719,6.907,2.064,10.036l-14.956,14.96c-4.41-6.894-6.977-15.081-6.977-23.872
		C154.265,159.138,174.136,139.268,198.647,139.268z"/>
</g>
<g>
</g>
<g>
</g>
<g>
</g>
<g>
</g>
<g>
</g>
<g>
</g>
<g>
</g>
<g>
</g>
<g>
</g>
<g>
</g>
<g>
</g>
<g>
</g>
<g>
</g>
<g>
</g>
<g>
</g>
</svg>
