<?xml version="1.0" encoding="iso-8859-1"?>
<!-- Generator: Adobe Illustrator 18.0.0, SVG Export Plug-In . SVG Version: 6.00 Build 0)  -->
<!DOCTYPE svg PUBLIC "-//W3C//DTD SVG 1.1//EN" "http://www.w3.org/Graphics/SVG/1.1/DTD/svg11.dtd">
<svg version="1.1" id="Capa_1" xmlns="http://www.w3.org/2000/svg" xmlns:xlink="http://www.w3.org/1999/xlink" x="0px" y="0px"
	 viewBox="0 0 368.041 368.041" style="enable-background:new 0 0 368.041 368.041;" xml:space="preserve">
<g>
	<path style="fill:#fff;" d="M113.173,163.967c16.854,37.194,52.937,53.384,70.847,53.384c11.776,0,31.409-7.005,48.267-22.372
		c-6.164,0.43-12.752,0.648-19.792,0.648c-1.652,0-3.385-0.015-5.237-0.044c-3.549,2.733-7.945,4.274-12.507,4.274h-15
		c-11.304,0-20.5-9.196-20.5-20.5c0-11.304,9.196-20.5,20.5-20.5h15c5.419,0,10.487,2.112,14.246,5.755
		c1.249,0.014,2.48,0.02,3.688,0.02c19.364,0,32.125-1.776,40.473-3.918c-1.083-2.635-1.673-5.518-1.673-8.528v-51.977
		c0-5.407,2.007-10.59,5.477-14.594c-1.852-14.415-5.213-25.42-10.229-33.538c-10.336-16.729-30.264-24.52-62.713-24.52
		c-26.919,0-45.508,5.588-56.828,17.083c-8.775,8.911-13.86,21.626-16.237,40.829c3.548,4.019,5.6,9.255,5.6,14.74v51.977
		C116.556,156.511,115.313,160.547,113.173,163.967z"/>
	<path style="fill:#fff;" d="M76.292,164.457h17.994c6.774,0,12.27-5.494,12.27-12.271v-51.977c0-4.528-2.459-8.473-6.107-10.599
		c4.018-42.561,20.442-72.054,83.572-72.054c36.253,0,58.884,9.3,71.22,29.265c7.178,11.618,10.631,26.624,12.244,42.853
		c-3.59,2.141-6,6.051-6,10.534v51.977c0,5.843,4.088,10.722,9.557,11.959c-7.932,5.188-24.354,10.487-58.357,10.487
		c-2.754,0-5.625-0.035-8.615-0.107c-1.75-3.365-5.262-5.668-9.318-5.668h-14.999c-5.798,0-10.5,4.701-10.5,10.5
		c0,5.799,4.702,10.5,10.5,10.5h14.999c3.504,0,6.6-1.723,8.506-4.36c3.158,0.08,6.25,0.13,9.238,0.13
		c38.328-0.001,62.693-6.543,72.561-19.523c0.42-0.552,0.803-1.102,1.152-1.646h5.543c6.775,0,12.27-5.494,12.27-12.271v-51.977
		c0-6.776-5.494-12.27-12.27-12.27h-6.768c-1.904-19.608-6.125-36.3-14.807-50.348C254.549,12.296,226.365,0,184.02,0
		c-42.348,0-70.529,12.296-86.158,37.592c-8.681,14.048-12.9,30.738-14.805,50.348h-6.766c-6.777,0-12.271,5.493-12.271,12.27
		v51.977C64.02,158.963,69.515,164.457,76.292,164.457z"/>
	<path style="fill:#fff;" d="M332.368,317.299c-4.08-25.367-12.479-58.043-29.324-69.653c-11.486-7.921-51.586-29.346-68.709-38.494l-0.36-0.192
		c-1.96-1.047-4.351-0.837-6.098,0.534c-8.983,7.051-18.817,11.801-29.228,14.118c-1.84,0.409-3.351,1.718-4.02,3.48l-10.609,27.961
		l-10.609-27.961c-0.669-1.763-2.18-3.071-4.02-3.48c-10.411-2.317-20.247-7.067-29.231-14.118
		c-1.746-1.372-4.138-1.582-6.097-0.534c-16.932,9.046-57.551,30.921-69.019,38.652c-19.399,13.069-27.871,60.344-29.372,69.688
		c-0.149,0.927-0.063,1.875,0.25,2.759c0.694,1.96,18.488,47.983,148.097,47.983c129.607,0,147.403-46.023,148.098-47.982
		C332.431,319.174,332.517,318.225,332.368,317.299z M272.02,288.169h-51.334v-10.811h51.334V288.169z"/>
</g>
<g>
</g>
<g>
</g>
<g>
</g>
<g>
</g>
<g>
</g>
<g>
</g>
<g>
</g>
<g>
</g>
<g>
</g>
<g>
</g>
<g>
</g>
<g>
</g>
<g>
</g>
<g>
</g>
<g>
</g>
</svg>
