<?xml version="1.0" encoding="iso-8859-1"?>
<!-- Generator: Adobe Illustrator 18.0.0, SVG Export Plug-In . SVG Version: 6.00 Build 0)  -->
<!DOCTYPE svg PUBLIC "-//W3C//DTD SVG 1.1//EN" "http://www.w3.org/Graphics/SVG/1.1/DTD/svg11.dtd">
<svg version="1.1" id="Capa_1" xmlns="http://www.w3.org/2000/svg" xmlns:xlink="http://www.w3.org/1999/xlink" x="0px" y="0px"
	 viewBox="0 0 349 349" style="enable-background:new 0 0 349 349;" xml:space="preserve">
<g>
	<path style="fill:#fff;" d="M266.209,0H82.791c-7.736,0-14.008,6.272-14.008,14.008v320.984c0,7.736,6.271,14.008,14.008,14.008h183.418
		c7.736,0,14.008-6.272,14.008-14.008V14.008C280.217,6.272,273.945,0,266.209,0z M151.5,25.5h46V34h-46V25.5z M174.5,322.184
		c-12.497,0-22.852-9.17-24.704-21.149h49.408C197.352,313.014,186.997,322.184,174.5,322.184z M255.75,289H93.25V58.966h162.5V289z
		"/>
	<path style="fill:#fff;" d="M126.675,126.623c4.007-4.008,9.306-6.515,14.921-7.064c0.332-0.033,0.666-0.05,1.001-0.05
		c2.728,0,5.292,1.064,7.222,2.995l15.68,15.675c2.175,2.18,3.249,5.188,2.938,8.255c-0.479,4.779-2.319,9.265-5.318,12.967
		c-0.172,0.209-0.172,0.533,0,0.738c7.614,9.473,16.274,18.14,25.739,25.76c0.139,0.107,0.289,0.124,0.365,0.124
		c0.139,0,0.271-0.046,0.375-0.128c3.703-3.002,8.192-4.845,12.975-5.328c0.343-0.032,0.687-0.052,1.023-0.052
		c2.731,0,5.3,1.064,7.229,2.995l15.68,15.678c2.173,2.172,3.247,5.168,2.946,8.224c-0.554,5.616-3.06,10.915-7.066,14.922
		c-4.553,4.548-10.891,7.158-17.403,7.158c-4.098,0-8.154-1.029-11.723-2.977c-28.473-15.434-58.321-48.062-70.724-70.689
		C117.274,146.336,118.977,134.325,126.675,126.623z"/>
</g>
<g>
</g>
<g>
</g>
<g>
</g>
<g>
</g>
<g>
</g>
<g>
</g>
<g>
</g>
<g>
</g>
<g>
</g>
<g>
</g>
<g>
</g>
<g>
</g>
<g>
</g>
<g>
</g>
<g>
</g>
</svg>
