<?xml version="1.0" encoding="UTF-8"?><svg id="Capa_1" xmlns="http://www.w3.org/2000/svg" xmlns:xlink="http://www.w3.org/1999/xlink" viewBox="0 0 64 64"><defs><style>.cls-1{fill:url(#Degradado_sin_nombre_13);}.cls-2{fill:url(#Degradado_sin_nombre_13-6);}.cls-3{fill:url(#Degradado_sin_nombre_13-5);}.cls-4{fill:url(#Degradado_sin_nombre_13-7);}.cls-5{fill:url(#Degradado_sin_nombre_13-3);}.cls-6{fill:none;}.cls-7{fill:url(#Degradado_sin_nombre_13-2);}.cls-8{fill:url(#Degradado_sin_nombre_13-4);}</style><clipPath id="clippath"><rect class="cls-6" x="-1710.06" y="827.8" width="1920.69" height="846.91"/></clipPath><linearGradient id="Degradado_sin_nombre_13" x1="35.98" y1="18.16" x2="40.96" y2="18.16" gradientUnits="userSpaceOnUse"><stop offset=".13" stop-color="#1c7cbf"/><stop offset=".53" stop-color="#7f5277"/><stop offset="1" stop-color="#aa49cc"/></linearGradient><linearGradient id="Degradado_sin_nombre_13-2" x1="31.59" y1="18.16" x2="45.36" y2="18.16" xlink:href="#Degradado_sin_nombre_13"/><linearGradient id="Degradado_sin_nombre_13-3" x1="14.67" y1="10.84" x2="33.41" y2="10.84" xlink:href="#Degradado_sin_nombre_13"/><linearGradient id="Degradado_sin_nombre_13-4" x1="11.76" y1="24.52" x2="42.3" y2="24.52" xlink:href="#Degradado_sin_nombre_13"/><linearGradient id="Degradado_sin_nombre_13-5" x1="4.29" y1="50.47" x2="10.34" y2="50.47" xlink:href="#Degradado_sin_nombre_13"/><linearGradient id="Degradado_sin_nombre_13-6" x1="23.82" y1="56.04" x2="29.74" y2="56.04" xlink:href="#Degradado_sin_nombre_13"/><linearGradient id="Degradado_sin_nombre_13-7" x1="3.04" y1="36.47" x2="60.96" y2="36.47" xlink:href="#Degradado_sin_nombre_13"/></defs><g id="icon_mda"><path class="cls-1" d="m40.96,18.17c0,1.36-1.14,2.48-2.49,2.48-1.36,0-2.49-1.15-2.48-2.5,0-1.36,1.13-2.46,2.51-2.46,1.38,0,2.47,1.1,2.47,2.48Zm-2.46,1.32c.75,0,1.34-.61,1.33-1.35,0-.73-.63-1.34-1.36-1.33-.75,0-1.33.61-1.32,1.36,0,.76.59,1.33,1.36,1.32Z"/><path class="cls-7" d="m44.46,18.75c0-.61-.22-1.26.45-1.75.56-.41.58-.89.23-1.51-.32-.57-.65-1.15-.99-1.71-.37-.62-.77-.78-1.47-.6-.96.25-1.73-.19-1.97-1.15-.17-.67-.52-.94-1.21-.94-.63,0-1.26,0-1.89,0-.86,0-1.15.22-1.36,1.05-.05.2-.08.51-.22.58-.52.28-.97.79-1.71.49-.69-.27-1.11-.06-1.5.59-.31.51-.6,1.03-.9,1.55-.45.79-.4,1.15.26,1.78.55.53.56,1.52,0,2.06-.29.28-.58.56-.59,1.03.01.03.02.05.03.08.05,0,.1,0,.15,0,.37-.03.73-.02,1.09.01-.03-.13.02-.24.15-.34.14-.12.26-.26.4-.38.27-.23.31-.49.31-.85,0-.36,0-.62-.01-.96-.02-.51-.07-.84-.44-1.17-.54-.5-.39-.76-.18-1.13.08-.14.2-.46.28-.64.1-.23.22-.32.5-.46.26-.13.68.11,1.04.14.2.01.42-.04.6-.13.3-.15.95-.53,1.24-.71.51-.32.48-.38.53-.95.04-.43.26-.56.67-.52.43.03.86.02,1.29,0,.29-.01.43.1.46.37.02.15.08.3.11.45.06.37.29.53.61.73.31.19.75.35.98.49.42.25.71.37,1.26.12.32-.15.47-.04.7.26.32.42.39.57.63.94.2.3.05.76-.05.83-.58.4-.81.77-.75,1.4,0,.06.09,1.06.1,1.12.06.38.07.61.69,1.04.2.14.22.3.08.51-.28.44-.51.91-.8,1.34-.07.11-.28.18-.43.18-.21,0-.41-.15-.62-.15-.26,0-.42-.04-.77.14-.32.17-.69.33-.96.54-.39.27-.6.4-.7.82-.21.87-.01.75-.98.76-.34,0-.68-.02-1.01,0-.07,0-.12,0-.18-.01.04.12.09.25.12.38.05.18.28.39.46.44.33.09.64.21.93.34.07,0,.14,0,.21,0,.88,0,1.2-.24,1.43-1.11.05-.19.07-.48.2-.54.54-.27.98-.82,1.75-.48.64.28,1.1.03,1.46-.58.32-.54.63-1.09.94-1.63.4-.69.34-1.08-.21-1.64-.16-.16-.42-.34-.42-.52Z"/><path class="cls-5" d="m17.18,12.2c.14-.03.27-.08.39-.13l2.51,4.56s-.03.04-.05.06c.58-.33,1.21-.58,1.87-.75-.24-.03-.49-.03-.73.03-.22.05-.42.13-.6.24l-2.47-4.49c.48-.44.75-1.1.66-1.78l10.66-2.21c.07.22.18.41.32.58l-6.49,7.4c.28-.02.57-.03.87-.03l6.09-6.94c.46.31,1.04.44,1.62.31,1.1-.26,1.79-1.36,1.54-2.46-.26-1.1-1.36-1.79-2.46-1.54-.97.22-1.62,1.1-1.59,2.05l-10.73,2.23c-.4-.86-1.36-1.35-2.32-1.13-1.1.26-1.79,1.36-1.54,2.46.26,1.1,1.36,1.79,2.46,1.54Zm13.88-6.43c.71-.16,1.41.28,1.57.98.16.71-.28,1.41-.98,1.57-.71.16-1.41-.28-1.57-.98-.16-.71.28-1.41.98-1.57Z"/><path class="cls-8" d="m11.76,27.24c0-2.9,2.07-5.42,4.92-5.96.37-.07.52-.26.64-.57,1.29-3.16,4.21-5.14,7.59-5.02,2.99.1,5.26,1.5,6.76,4.09.21.36.42.54.85.5,2.77-.23,5.2,1.5,5.95,4.18.05.18.28.39.46.44,1.96.55,3.07,1.79,3.33,3.82.27,2.07-1.4,4.29-3.48,4.55-.34.04-.69.08-1.04.09-.43.01-.8-.16-.81-.63,0-.47.36-.61.8-.62,1.82-.05,2.93-.91,3.24-2.51.35-1.75-.89-3.36-2.78-3.55-.55-.05-.76-.29-.85-.79-.51-2.68-2.74-4.19-5.4-3.66-.6.12-.85-.15-1.08-.64-1.27-2.67-3.39-4.05-6.35-4.04-2.78,0-5.32,1.92-6.19,4.66-.18.55-.44.78-1.03.84-2.21.24-4.05,2.06-4.27,4.15-.25,2.43,1.04,4.51,3.28,5.28.12.04.24.08.36.12.34.14.54.44.37.73-.12.21-.51.44-.72.4-.54-.12-1.09-.33-1.57-.61-1.92-1.11-3-3.05-3-5.27Z"/><path class="cls-3" d="m8.39,47.64c-1.61-.59-3.33.2-3.92,1.81-.57,1.53.27,3.3,1.82,3.87,1.54.56,3.27-.24,3.86-1.79.59-1.55-.21-3.32-1.76-3.89Zm.32,3.35c-.29.78-1.14,1.16-1.92.88-.79-.29-1.17-1.15-.87-1.95.29-.75,1.14-1.15,1.9-.87.79.29,1.18,1.15.89,1.94Z"/><path class="cls-2" d="m27.76,53.25c-1.54-.55-3.24.27-3.78,1.82-.53,1.51.29,3.2,1.8,3.75,1.52.55,3.24-.26,3.78-1.78.55-1.55-.25-3.25-1.8-3.79Zm.4,3.28c-.27.76-1.1,1.16-1.86.89-.78-.27-1.17-1.11-.89-1.89.27-.75,1.13-1.15,1.87-.88.76.28,1.14,1.11.87,1.87Z"/><path class="cls-4" d="m60.14,24.9l-5.28-1.36c-.42-.29-3.37-.39-3.98,0-1.2.21-1.92,1.69-3.52,3.64l-2.02,2.43c-2.27-.81-26.16-7.95-32.96-10.05-1.15-.35-2.76.62-3.06,2.72-.25,1.75-1.64,8.39-2.17,11.69-.21,1.28.34,2.03,1.51,2.41,1.8.59,21.23,10.13,21.23,10.13,1.09.37,1.44.68,1.58,1.13.44,1.38,1.25,4.12-1.58,3.18-2.3-.76-21.8-6.83-24.89-8.11-1.8-.74-3.14,1.82-.38,2.8,0,0,18.44,5.63,20.12,6.05,1.68.43,5.22,1.74,6.24,1.87,2.72.34,4.19-3.02,2.9-5.72-.26-.55,12.39-15.45,17.27-20.97.28-.37,1.12-1.15,1.98-.89l6.51.89c.81.31,2.23-1.29.5-1.83Zm-26.58,13.58l-4.3-1.45,1.37-4.04,4.3,1.45-1.37,4.04Zm2.04-3.81l4.39,1.48-2.76,3.57-3-1.01,1.37-4.04Zm-19.9-6.73l4.31,1.46-1.37,4.04-4.31-1.46,1.37-4.04Zm-2.1,3.79l-4.08-1.38c.29-1.43.59-2.92.86-4.21l4.59,1.55-1.37,4.04Zm11.67-1.38l-4.39-1.49,1.35-3.98c1.41.46,2.9.95,4.41,1.44l-1.36,4.02Zm1.94-3.83c1.48.49,2.97.98,4.42,1.46l-1.37,4.06-4.41-1.49,1.36-4.03Zm-2.19,4.57l-1.37,4.04-4.39-1.49,1.37-4.04,4.39,1.49Zm-4.76-2.43l-4.31-1.46,1.33-3.93c1.28.42,2.75.89,4.33,1.41l-1.35,3.98Zm-1.85,5.48l-1.21,3.56c-1.59-.7-3.04-1.34-4.18-1.84l1.08-3.18,4.31,1.46Zm.62.21l4.39,1.49-1.36,4.01c-1.43-.63-2.89-1.27-4.26-1.88l1.22-3.62Zm3.61,5.7l1.36-4.01,4.41,1.49-1.51,4.45c-1.43-.63-3.08-1.36-4.77-2.1l.51.17Zm1.6-4.72l1.37-4.04,4.41,1.49-1.37,4.04-4.41-1.49Zm6.63-3.08l1.38-4.06c1.5.5,2.96.99,4.3,1.44l-1.38,4.08-4.3-1.45Zm-18.37-10.52c.36.12,1.87.6,4.05,1.31l-1.33,3.92-4.68-1.58c.2-.96.36-1.76.46-2.26.25-1.29.71-1.64,1.5-1.38Zm-3.29,10.22c.05-.28.11-.57.17-.87l3.99,1.35-1.05,3.12c-.9-.4-1.52-.67-1.71-.75-1.22-.54-1.78-.82-1.39-2.84Zm22.3,12.05s-1.65-.73-4.02-1.77l1.52-4.51,4.3,1.45-1.54,4.56.68.23,1.54-4.56,2.76.93-2.75,3.56c-.78.95-2.17.21-2.49.1Zm8.98-8.5l-4.64-1.57,1.38-4.08c2.66.9,4.82,1.66,5.99,2.11l-2.73,3.54Z"/></g></svg>