<?xml version="1.0" encoding="UTF-8"?>
<svg id="Capa_2" data-name="Capa 2" xmlns="http://www.w3.org/2000/svg" viewBox="0 0 366.49 118.29">
  <defs>
    <style>
      .cls-1 {
        fill: #c8b5c7;
      }

      .cls-1, .cls-2, .cls-3 {
        stroke-width: 0px;
      }

      .cls-2 {
        fill: #764477;
      }

      .cls-3 {
        fill: #5d5b5c;
      }
    </style>
  </defs>
  <g id="Capa_1-2" data-name="Capa 1">
    <g>
      <path class="cls-3" d="M12.17,75.2c0,1.89-.59,3.33-1.77,4.33-1.18,1-2.86,1.5-5.03,1.5h-1.6v6.24H.06v-17.54h5.6c2.13,0,3.74.46,4.85,1.37,1.11.92,1.66,2.28,1.66,4.1ZM3.78,77.98h1.22c1.14,0,2-.23,2.57-.68.57-.45.85-1.11.85-1.97s-.24-1.52-.71-1.93-1.22-.62-2.24-.62h-1.69v5.21Z"/>
      <path class="cls-3" d="M18.86,87.27h-3.66v-18.67h3.66v18.67Z"/>
      <path class="cls-3" d="M31.21,87.27l-.71-1.82h-.1c-.62.78-1.25,1.31-1.9,1.61-.65.3-1.5.45-2.55.45-1.29,0-2.3-.37-3.04-1.1-.74-.74-1.11-1.78-1.11-3.14s.5-2.47,1.49-3.15c1-.68,2.5-1.05,4.5-1.12l2.33-.07v-.59c0-1.36-.7-2.04-2.09-2.04-1.07,0-2.33.32-3.78.97l-1.21-2.47c1.54-.81,3.26-1.21,5.13-1.21s3.18.39,4.14,1.18c.96.78,1.44,1.98,1.44,3.58v8.94h-2.56ZM30.13,81.05l-1.42.05c-1.06.03-1.86.22-2.38.58-.52.35-.78.89-.78,1.61,0,1.03.59,1.55,1.78,1.55.85,0,1.53-.24,2.03-.73.51-.49.76-1.14.76-1.94v-1.1Z"/>
      <path class="cls-3" d="M43.19,84.59c.64,0,1.41-.14,2.3-.42v2.72c-.91.41-2.03.61-3.36.61-1.46,0-2.53-.37-3.2-1.11-.67-.74-1-1.85-1-3.33v-6.47h-1.75v-1.55l2.02-1.22,1.06-2.83h2.34v2.86h3.75v2.75h-3.75v6.47c0,.52.15.9.44,1.15s.68.37,1.16.37Z"/>
      <path class="cls-3" d="M56.72,87.27l-.71-1.82h-.1c-.62.78-1.25,1.31-1.9,1.61-.65.3-1.5.45-2.55.45-1.29,0-2.3-.37-3.04-1.1-.74-.74-1.11-1.78-1.11-3.14s.5-2.47,1.49-3.15c1-.68,2.5-1.05,4.5-1.12l2.33-.07v-.59c0-1.36-.7-2.04-2.09-2.04-1.07,0-2.33.32-3.78.97l-1.21-2.47c1.54-.81,3.25-1.21,5.13-1.21s3.18.39,4.14,1.18,1.44,1.98,1.44,3.58v8.94h-2.55ZM55.64,81.05l-1.42.05c-1.06.03-1.86.22-2.38.58-.52.35-.78.89-.78,1.61,0,1.03.59,1.55,1.78,1.55.85,0,1.53-.24,2.03-.73.51-.49.76-1.14.76-1.94v-1.1Z"/>
      <path class="cls-3" d="M70.46,76.6h-3.17v10.67h-3.66v-10.67h-2.02v-1.76l2.02-.98v-.98c0-1.53.38-2.64,1.13-3.35.75-.7,1.96-1.06,3.61-1.06,1.26,0,2.39.19,3.37.56l-.94,2.69c-.74-.23-1.42-.35-2.04-.35-.52,0-.9.15-1.13.46-.23.31-.35.7-.35,1.18v.84h3.17v2.75Z"/>
      <path class="cls-3" d="M84.74,80.54c0,2.18-.58,3.89-1.73,5.12-1.15,1.23-2.76,1.85-4.81,1.85-1.29,0-2.42-.28-3.41-.85-.98-.56-1.74-1.37-2.27-2.43-.53-1.06-.79-2.29-.79-3.7,0-2.19.57-3.89,1.72-5.11,1.14-1.22,2.75-1.82,4.82-1.82,1.29,0,2.42.28,3.41.84.98.56,1.74,1.36,2.27,2.41.53,1.05.79,2.28.79,3.68ZM75.47,80.54c0,1.33.22,2.33.65,3.01s1.15,1.02,2.13,1.02,1.68-.34,2.11-1.01c.43-.68.64-1.68.64-3.02s-.22-2.32-.65-2.99c-.43-.66-1.14-1-2.12-1s-1.68.33-2.11.99c-.43.66-.65,1.66-.65,2.99Z"/>
      <path class="cls-3" d="M95.25,73.6c.5,0,.91.04,1.24.11l-.28,3.43c-.3-.08-.66-.12-1.08-.12-1.17,0-2.08.3-2.73.9-.65.6-.98,1.44-.98,2.52v6.83h-3.66v-13.41h2.77l.54,2.25h.18c.42-.75.98-1.36,1.69-1.82s1.48-.69,2.31-.69Z"/>
      <path class="cls-3" d="M110.93,87.27h-3.66v-7.83c0-.97-.16-1.69-.49-2.18-.32-.48-.83-.73-1.53-.73-.94,0-1.62.34-2.04,1.03-.42.69-.64,1.82-.64,3.39v6.31h-3.66v-13.41h2.8l.49,1.71h.2c.36-.62.88-1.1,1.56-1.45s1.46-.52,2.34-.52c2.01,0,3.37.66,4.08,1.97h.32c.36-.62.89-1.11,1.59-1.45s1.49-.52,2.37-.52c1.52,0,2.67.39,3.45,1.17s1.17,2.03,1.17,3.75v8.75h-3.67v-7.83c0-.97-.16-1.69-.49-2.18-.32-.48-.83-.73-1.53-.73-.9,0-1.57.32-2.01.96-.44.64-.67,1.66-.67,3.05v6.73Z"/>
      <path class="cls-3" d="M131.57,87.27l-.71-1.82h-.1c-.62.78-1.25,1.31-1.9,1.61-.65.3-1.5.45-2.55.45-1.29,0-2.3-.37-3.04-1.1-.74-.74-1.11-1.78-1.11-3.14s.5-2.47,1.49-3.15c1-.68,2.5-1.05,4.5-1.12l2.33-.07v-.59c0-1.36-.7-2.04-2.09-2.04-1.07,0-2.33.32-3.78.97l-1.21-2.47c1.54-.81,3.25-1.21,5.13-1.21s3.18.39,4.14,1.18,1.44,1.98,1.44,3.58v8.94h-2.55ZM130.49,81.05l-1.42.05c-1.06.03-1.86.22-2.38.58-.52.35-.78.89-.78,1.61,0,1.03.59,1.55,1.78,1.55.85,0,1.53-.24,2.03-.73.51-.49.76-1.14.76-1.94v-1.1Z"/>
      <path class="cls-3" d="M159.11,78.33c0,2.89-.82,5.1-2.46,6.63-1.64,1.54-4.02,2.3-7.12,2.3h-4.97v-17.54h5.51c2.86,0,5.09.76,6.67,2.27,1.58,1.51,2.38,3.62,2.38,6.33ZM155.25,78.43c0-3.77-1.66-5.65-4.99-5.65h-1.98v11.42h1.6c3.58,0,5.37-1.92,5.37-5.77Z"/>
      <path class="cls-3" d="M162.3,70.39c0-1.19.66-1.79,1.99-1.79s1.99.6,1.99,1.79c0,.57-.17,1.01-.5,1.33-.33.32-.83.47-1.49.47-1.33,0-1.99-.6-1.99-1.8ZM166.12,87.27h-3.66v-13.41h3.66v13.41Z"/>
      <path class="cls-3" d="M181.63,73.86v1.86l-2.1.54c.38.6.58,1.27.58,2.01,0,1.44-.5,2.56-1.51,3.37s-2.4,1.21-4.18,1.21l-.66-.04-.54-.06c-.38.29-.56.61-.56.96,0,.53.67.79,2.02.79h2.28c1.47,0,2.59.32,3.37.95.77.63,1.16,1.56,1.16,2.78,0,1.57-.65,2.78-1.96,3.65-1.31.86-3.19,1.3-5.63,1.3-1.87,0-3.3-.33-4.29-.98-.99-.65-1.48-1.57-1.48-2.74,0-.81.25-1.48.76-2.03s1.24-.93,2.22-1.16c-.38-.16-.7-.42-.98-.79-.28-.36-.42-.75-.42-1.16,0-.51.15-.94.44-1.28s.72-.67,1.28-1c-.7-.3-1.26-.79-1.67-1.46-.41-.67-.62-1.46-.62-2.38,0-1.46.48-2.6,1.43-3.4.95-.8,2.31-1.2,4.08-1.2.38,0,.82.03,1.34.1.52.07.85.12.99.15h4.68ZM171.28,89.16c0,.5.24.9.73,1.19.48.29,1.16.43,2.03.43,1.31,0,2.34-.18,3.08-.54.74-.36,1.12-.85,1.12-1.48,0-.5-.22-.85-.66-1.04-.44-.19-1.12-.29-2.04-.29h-1.9c-.67,0-1.23.16-1.69.47-.45.32-.68.73-.68,1.25ZM172.61,78.25c0,.73.17,1.3.5,1.73.33.42.84.64,1.52.64s1.19-.21,1.51-.64c.32-.42.48-1,.48-1.73,0-1.62-.66-2.42-1.99-2.42s-2.02.81-2.02,2.42Z"/>
      <path class="cls-3" d="M183.68,70.39c0-1.19.66-1.79,1.99-1.79s1.99.6,1.99,1.79c0,.57-.17,1.01-.5,1.33-.33.32-.83.47-1.49.47-1.33,0-1.99-.6-1.99-1.8ZM187.5,87.27h-3.66v-13.41h3.66v13.41Z"/>
      <path class="cls-3" d="M196.99,84.59c.64,0,1.41-.14,2.3-.42v2.72c-.91.41-2.03.61-3.36.61-1.46,0-2.53-.37-3.2-1.11-.67-.74-1-1.85-1-3.33v-6.47h-1.75v-1.55l2.02-1.22,1.06-2.83h2.34v2.86h3.75v2.75h-3.75v6.47c0,.52.15.9.44,1.15s.68.37,1.16.37Z"/>
      <path class="cls-3" d="M210.52,87.27l-.71-1.82h-.1c-.62.78-1.25,1.31-1.9,1.61-.65.3-1.5.45-2.55.45-1.29,0-2.3-.37-3.04-1.1-.74-.74-1.11-1.78-1.11-3.14s.5-2.47,1.49-3.15c1-.68,2.5-1.05,4.5-1.12l2.33-.07v-.59c0-1.36-.7-2.04-2.09-2.04-1.07,0-2.33.32-3.78.97l-1.21-2.47c1.54-.81,3.25-1.21,5.13-1.21s3.18.39,4.14,1.18,1.44,1.98,1.44,3.58v8.94h-2.55ZM209.44,81.05l-1.42.05c-1.06.03-1.86.22-2.38.58-.52.35-.78.89-.78,1.61,0,1.03.59,1.55,1.78,1.55.85,0,1.53-.24,2.03-.73.51-.49.76-1.14.76-1.94v-1.1Z"/>
      <path class="cls-3" d="M220.5,87.27h-3.66v-18.67h3.66v18.67Z"/>
      <path class="cls-3" d="M246.57,87.27h-4.73l-7.63-13.27h-.11c.15,2.34.23,4.01.23,5.01v8.25h-3.32v-17.54h4.69l7.62,13.14h.08c-.12-2.28-.18-3.89-.18-4.83v-8.3h3.35v17.54Z"/>
      <path class="cls-3" d="M259.21,87.27l-.71-1.82h-.1c-.62.78-1.25,1.31-1.9,1.61-.65.3-1.5.45-2.55.45-1.29,0-2.3-.37-3.04-1.1-.74-.74-1.11-1.78-1.11-3.14s.5-2.47,1.49-3.15c1-.68,2.5-1.05,4.5-1.12l2.33-.07v-.59c0-1.36-.7-2.04-2.09-2.04-1.07,0-2.33.32-3.78.97l-1.21-2.47c1.54-.81,3.25-1.21,5.13-1.21s3.18.39,4.14,1.18,1.44,1.98,1.44,3.58v8.94h-2.55ZM258.13,81.05l-1.42.05c-1.06.03-1.86.22-2.38.58-.52.35-.78.89-.78,1.61,0,1.03.59,1.55,1.78,1.55.85,0,1.53-.24,2.03-.73.51-.49.76-1.14.76-1.94v-1.1Z"/>
      <path class="cls-3" d="M270.98,87.51c-4.17,0-6.26-2.29-6.26-6.87,0-2.28.57-4.02,1.7-5.23,1.14-1.2,2.76-1.8,4.88-1.8,1.55,0,2.94.3,4.17.91l-1.08,2.83c-.58-.23-1.11-.42-1.61-.57-.5-.15-.99-.22-1.49-.22-1.9,0-2.85,1.35-2.85,4.05s.95,3.93,2.85,3.93c.7,0,1.36-.09,1.96-.28.6-.19,1.2-.48,1.8-.88v3.13c-.59.38-1.19.64-1.79.78-.6.14-1.37.22-2.29.22Z"/>
      <path class="cls-3" d="M278.01,70.39c0-1.19.66-1.79,1.99-1.79s1.99.6,1.99,1.79c0,.57-.17,1.01-.5,1.33-.33.32-.83.47-1.49.47-1.33,0-1.99-.6-1.99-1.8ZM281.83,87.27h-3.66v-13.41h3.66v13.41Z"/>
      <path class="cls-3" d="M297.86,80.54c0,2.18-.58,3.89-1.73,5.12-1.15,1.23-2.76,1.85-4.81,1.85-1.29,0-2.42-.28-3.41-.85-.98-.56-1.74-1.37-2.27-2.43-.53-1.06-.79-2.29-.79-3.7,0-2.19.57-3.89,1.72-5.11,1.14-1.22,2.75-1.82,4.82-1.82,1.29,0,2.42.28,3.41.84.98.56,1.74,1.36,2.27,2.41.53,1.05.79,2.28.79,3.68ZM288.58,80.54c0,1.33.22,2.33.65,3.01s1.15,1.02,2.13,1.02,1.68-.34,2.11-1.01c.43-.68.64-1.68.64-3.02s-.22-2.32-.65-2.99c-.43-.66-1.14-1-2.12-1s-1.68.33-2.11.99c-.43.66-.65,1.66-.65,2.99Z"/>
      <path class="cls-3" d="M313.26,87.27h-3.66v-7.83c0-.97-.17-1.69-.52-2.18-.34-.48-.89-.73-1.64-.73-1.02,0-1.76.34-2.22,1.03-.46.68-.68,1.82-.68,3.4v6.31h-3.66v-13.41h2.8l.49,1.71h.2c.41-.65.97-1.14,1.69-1.47.72-.33,1.53-.5,2.44-.5,1.56,0,2.74.42,3.55,1.27.81.84,1.21,2.06,1.21,3.65v8.75Z"/>
      <path class="cls-3" d="M325.54,87.27l-.71-1.82h-.1c-.62.78-1.25,1.31-1.9,1.61-.65.3-1.5.45-2.55.45-1.29,0-2.3-.37-3.04-1.1-.74-.74-1.11-1.78-1.11-3.14s.5-2.47,1.49-3.15,2.5-1.05,4.5-1.12l2.33-.07v-.59c0-1.36-.7-2.04-2.09-2.04-1.07,0-2.33.32-3.78.97l-1.21-2.47c1.54-.81,3.25-1.21,5.13-1.21s3.18.39,4.14,1.18,1.44,1.98,1.44,3.58v8.94h-2.55ZM324.46,81.05l-1.42.05c-1.06.03-1.86.22-2.38.58-.52.35-.78.89-.78,1.61,0,1.03.59,1.55,1.78,1.55.85,0,1.53-.24,2.03-.73.51-.49.76-1.14.76-1.94v-1.1Z"/>
      <path class="cls-3" d="M335.53,87.27h-3.66v-18.67h3.66v18.67Z"/>
    </g>
    <g>
      <path class="cls-3" d="M0,113.03v-15.63h1.82v15.63H0Z"/>
      <path class="cls-3" d="M13.86,113.03v-7.58c0-.96-.22-1.67-.65-2.14-.43-.47-1.12-.71-2.04-.71-1.23,0-2.12.33-2.69.99s-.86,1.76-.86,3.28v6.15h-1.78v-11.72h1.44l.29,1.6h.09c.36-.58.87-1.02,1.53-1.34.66-.32,1.39-.48,2.19-.48,1.41,0,2.47.34,3.19,1.02.71.68,1.07,1.77,1.07,3.27v7.64h-1.77Z"/>
      <path class="cls-3" d="M23.06,111.78c.31,0,.62-.02.91-.07.29-.05.52-.09.7-.14v1.36c-.19.09-.48.17-.85.23-.38.06-.71.09-1.01.09-2.27,0-3.4-1.19-3.4-3.58v-6.97h-1.68v-.86l1.68-.74.75-2.5h1.03v2.72h3.4v1.38h-3.4v6.9c0,.71.17,1.25.5,1.63s.79.57,1.38.57Z"/>
      <path class="cls-3" d="M31.96,113.25c-1.73,0-3.1-.53-4.1-1.58-1-1.06-1.5-2.52-1.5-4.39s.46-3.39,1.4-4.5c.93-1.11,2.18-1.67,3.75-1.67,1.47,0,2.63.48,3.49,1.45s1.28,2.24,1.28,3.82v1.12h-8.07c.04,1.38.38,2.42,1.04,3.13.66.71,1.59,1.07,2.79,1.07,1.26,0,2.51-.26,3.74-.79v1.58c-.63.27-1.22.46-1.78.58-.56.12-1.24.18-2.03.18ZM31.48,102.59c-.94,0-1.69.31-2.25.92-.56.61-.89,1.46-.99,2.54h6.13c0-1.12-.25-1.98-.75-2.57-.5-.59-1.21-.89-2.14-.89Z"/>
      <path class="cls-3" d="M41.07,113.03h-1.78v-16.64h1.78v16.64Z"/>
      <path class="cls-3" d="M44.68,98.14c0-.41.1-.7.3-.89s.45-.28.75-.28.53.1.74.29.31.49.31.89-.1.7-.31.89c-.21.2-.45.29-.74.29s-.55-.1-.75-.29c-.2-.2-.3-.49-.3-.89ZM46.61,113.03h-1.77v-11.72h1.77v11.72Z"/>
      <path class="cls-3" d="M59.96,101.31v1.12l-2.17.26c.2.25.38.58.53.98.16.4.24.86.24,1.36,0,1.15-.39,2.06-1.18,2.75s-1.86,1.03-3.23,1.03c-.35,0-.68-.03-.98-.08-.76.4-1.13.9-1.13,1.51,0,.32.13.56.4.71.26.15.72.23,1.36.23h2.07c1.27,0,2.24.27,2.92.8.68.54,1.02,1.31,1.02,2.33,0,1.3-.52,2.29-1.56,2.97-1.04.68-2.56,1.02-4.56,1.02-1.53,0-2.71-.29-3.54-.86-.83-.57-1.25-1.38-1.25-2.42,0-.71.23-1.33.68-1.85.46-.52,1.1-.87,1.92-1.06-.3-.13-.55-.35-.75-.63-.2-.28-.3-.62-.3-.99,0-.43.11-.8.34-1.12.23-.32.59-.63,1.08-.93-.61-.25-1.1-.67-1.48-1.27-.38-.6-.57-1.28-.57-2.05,0-1.28.38-2.27,1.15-2.97.77-.7,1.86-1.04,3.27-1.04.61,0,1.17.07,1.66.21h4.05ZM50.62,115c0,.63.27,1.12.8,1.44.54.33,1.3.49,2.3.49,1.49,0,2.59-.22,3.31-.67s1.07-1.05,1.07-1.81c0-.63-.2-1.07-.59-1.32s-1.13-.37-2.21-.37h-2.13c-.81,0-1.43.19-1.88.58-.45.38-.67.94-.67,1.66ZM51.58,105.07c0,.82.23,1.44.7,1.86.46.42,1.11.63,1.94.63,1.73,0,2.6-.84,2.6-2.52s-.88-2.64-2.63-2.64c-.83,0-1.48.22-1.92.67-.45.45-.67,1.12-.67,2Z"/>
      <path class="cls-3" d="M67.32,113.25c-1.73,0-3.1-.53-4.1-1.58-1-1.06-1.5-2.52-1.5-4.39s.46-3.39,1.4-4.5c.93-1.11,2.18-1.67,3.75-1.67,1.47,0,2.63.48,3.49,1.45s1.28,2.24,1.28,3.82v1.12h-8.07c.04,1.38.38,2.42,1.04,3.13.66.71,1.59,1.07,2.79,1.07,1.26,0,2.51-.26,3.74-.79v1.58c-.63.27-1.22.46-1.78.58-.56.12-1.24.18-2.03.18ZM66.84,102.59c-.94,0-1.69.31-2.25.92-.56.61-.89,1.46-.99,2.54h6.13c0-1.12-.25-1.98-.75-2.57-.5-.59-1.21-.89-2.14-.89Z"/>
      <path class="cls-3" d="M82.67,113.03v-7.58c0-.96-.22-1.67-.65-2.14-.43-.47-1.12-.71-2.04-.71-1.23,0-2.12.33-2.69.99s-.86,1.76-.86,3.28v6.15h-1.78v-11.72h1.44l.29,1.6h.09c.36-.58.87-1.02,1.53-1.34.66-.32,1.39-.48,2.19-.48,1.41,0,2.47.34,3.19,1.02.71.68,1.07,1.77,1.07,3.27v7.64h-1.77Z"/>
      <path class="cls-3" d="M92.78,113.25c-1.7,0-3.01-.52-3.94-1.57-.93-1.04-1.4-2.52-1.4-4.43s.47-3.48,1.42-4.54c.94-1.07,2.29-1.6,4.04-1.6.56,0,1.13.06,1.69.18.56.12,1,.26,1.33.43l-.54,1.51c-.39-.16-.82-.29-1.28-.39-.46-.1-.87-.15-1.23-.15-2.38,0-3.57,1.52-3.57,4.55,0,1.44.29,2.54.87,3.31s1.44,1.15,2.58,1.15c.98,0,1.98-.21,3-.63v1.57c-.78.41-1.77.61-2.96.61Z"/>
      <path class="cls-3" d="M98.37,98.14c0-.41.1-.7.3-.89.2-.19.45-.28.75-.28s.53.1.74.29c.21.19.31.49.31.89s-.1.7-.31.89c-.21.2-.45.29-.74.29-.3,0-.55-.1-.75-.29-.2-.2-.3-.49-.3-.89ZM100.29,113.03h-1.78v-11.72h1.78v11.72Z"/>
      <path class="cls-3" d="M111.26,113.03l-.35-1.67h-.09c-.58.73-1.17,1.23-1.75,1.49-.58.26-1.31.39-2.18.39-1.16,0-2.07-.3-2.73-.9-.66-.6-.99-1.45-.99-2.56,0-2.37,1.89-3.61,5.68-3.72l1.99-.06v-.73c0-.92-.2-1.6-.59-2.04s-1.03-.66-1.9-.66c-.98,0-2.08.3-3.31.9l-.54-1.36c.58-.31,1.21-.56,1.9-.74.69-.18,1.38-.27,2.07-.27,1.4,0,2.43.31,3.11.93.67.62,1.01,1.62,1.01,2.98v8h-1.32ZM107.25,111.78c1.11,0,1.97-.3,2.6-.91.63-.61.95-1.45.95-2.54v-1.06l-1.78.07c-1.41.05-2.43.27-3.05.66-.62.39-.94.99-.94,1.81,0,.64.19,1.13.58,1.46.39.34.93.5,1.63.5Z"/>
      <path class="cls-3" d="M129.9,111.46h-.1c-.82,1.19-2.05,1.79-3.68,1.79-1.53,0-2.72-.52-3.58-1.57-.85-1.05-1.28-2.54-1.28-4.47s.43-3.43,1.28-4.5,2.05-1.6,3.57-1.6,2.81.58,3.66,1.73h.14l-.08-.84-.04-.82v-4.77h1.77v16.64h-1.44l-.24-1.57ZM126.35,111.76c1.21,0,2.09-.33,2.64-.99.54-.66.82-1.72.82-3.19v-.37c0-1.66-.28-2.85-.83-3.56-.55-.71-1.43-1.06-2.65-1.06-1.04,0-1.84.4-2.39,1.21-.55.81-.83,1.95-.83,3.43s.27,2.63.82,3.39c.55.76,1.35,1.14,2.42,1.14Z"/>
      <path class="cls-3" d="M140.29,113.25c-1.73,0-3.1-.53-4.1-1.58-1-1.06-1.5-2.52-1.5-4.39s.47-3.39,1.4-4.5c.93-1.11,2.18-1.67,3.75-1.67,1.47,0,2.63.48,3.49,1.45s1.28,2.24,1.28,3.82v1.12h-8.07c.04,1.38.38,2.42,1.04,3.13.66.71,1.59,1.07,2.79,1.07,1.26,0,2.51-.26,3.74-.79v1.58c-.63.27-1.22.46-1.78.58-.56.12-1.23.18-2.03.18ZM139.81,102.59c-.94,0-1.69.31-2.25.92-.56.61-.89,1.46-.99,2.54h6.13c0-1.12-.25-1.98-.75-2.57-.5-.59-1.21-.89-2.14-.89Z"/>
      <path class="cls-3" d="M166.06,105.07c0,2.58-.7,4.55-2.1,5.92-1.4,1.37-3.42,2.05-6.05,2.05h-4.33v-15.63h4.79c2.43,0,4.32.67,5.67,2.02s2.02,3.23,2.02,5.65ZM164.14,105.13c0-2.04-.51-3.58-1.54-4.61-1.02-1.03-2.54-1.55-4.56-1.55h-2.64v12.49h2.21c2.17,0,3.8-.53,4.89-1.6,1.09-1.07,1.64-2.64,1.64-4.73Z"/>
      <path class="cls-3" d="M176.49,113.03l-.35-1.67h-.09c-.58.73-1.17,1.23-1.75,1.49-.58.26-1.31.39-2.18.39-1.16,0-2.07-.3-2.73-.9-.66-.6-.99-1.45-.99-2.56,0-2.37,1.89-3.61,5.68-3.72l1.99-.06v-.73c0-.92-.2-1.6-.59-2.04s-1.03-.66-1.9-.66c-.98,0-2.08.3-3.31.9l-.54-1.36c.58-.31,1.21-.56,1.9-.74.69-.18,1.38-.27,2.07-.27,1.4,0,2.43.31,3.11.93.67.62,1.01,1.62,1.01,2.98v8h-1.32ZM172.48,111.78c1.11,0,1.97-.3,2.6-.91.63-.61.95-1.45.95-2.54v-1.06l-1.78.07c-1.41.05-2.43.27-3.05.66-.62.39-.94.99-.94,1.81,0,.64.19,1.13.58,1.46.39.34.93.5,1.63.5Z"/>
      <path class="cls-3" d="M185.24,111.78c.31,0,.62-.02.91-.07.29-.05.52-.09.7-.14v1.36c-.19.09-.48.17-.85.23-.38.06-.71.09-1.01.09-2.27,0-3.4-1.19-3.4-3.58v-6.97h-1.68v-.86l1.68-.74.75-2.5h1.03v2.72h3.4v1.38h-3.4v6.9c0,.71.17,1.25.5,1.63s.79.57,1.38.57Z"/>
      <path class="cls-3" d="M199.3,107.16c0,1.91-.48,3.4-1.44,4.47-.96,1.07-2.29,1.61-3.99,1.61-1.05,0-1.98-.25-2.79-.74-.81-.49-1.44-1.2-1.88-2.12-.44-.92-.66-2-.66-3.23,0-1.91.48-3.4,1.43-4.46s2.28-1.6,3.98-1.6,2.94.54,3.91,1.64,1.45,2.57,1.45,4.43ZM190.38,107.16c0,1.5.3,2.64.9,3.42s1.48,1.18,2.64,1.18,2.04-.39,2.65-1.17.9-1.92.9-3.43-.3-2.62-.9-3.39-1.49-1.16-2.67-1.16-2.04.38-2.63,1.14-.89,1.9-.89,3.41Z"/>
      <path class="cls-3" d="M209.98,109.83c0,1.09-.41,1.93-1.22,2.52-.81.59-1.95.89-3.42.89-1.55,0-2.77-.25-3.64-.74v-1.65c.56.29,1.17.51,1.81.67s1.27.25,1.87.25c.93,0,1.64-.15,2.14-.44s.75-.75.75-1.35c0-.46-.2-.85-.59-1.17s-1.17-.71-2.31-1.15c-1.09-.41-1.87-.76-2.33-1.06-.46-.3-.8-.65-1.03-1.03s-.34-.84-.34-1.38c0-.96.39-1.71,1.17-2.26.78-.55,1.84-.83,3.2-.83,1.26,0,2.5.26,3.7.77l-.63,1.44c-1.18-.48-2.24-.73-3.2-.73-.84,0-1.48.13-1.9.4s-.64.63-.64,1.09c0,.31.08.58.24.8.16.22.42.43.77.63s1.04.49,2.05.87c1.39.51,2.33,1.02,2.82,1.53.49.51.73,1.16.73,1.93Z"/>
      <path class="cls-3" d="M228.64,113.03l-1.95-4.97h-6.27l-1.92,4.97h-1.84l6.18-15.7h1.53l6.15,15.7h-1.88ZM226.13,106.42l-1.82-4.84c-.24-.61-.48-1.37-.73-2.26-.16.68-.38,1.44-.67,2.26l-1.84,4.84h5.06Z"/>
      <path class="cls-3" d="M240.43,113.03v-7.58c0-.96-.22-1.67-.65-2.14-.43-.47-1.12-.71-2.04-.71-1.23,0-2.12.33-2.69.99s-.86,1.76-.86,3.28v6.15h-1.78v-11.72h1.44l.29,1.6h.09c.36-.58.87-1.02,1.53-1.34.66-.32,1.39-.48,2.19-.48,1.41,0,2.47.34,3.19,1.02.71.68,1.07,1.77,1.07,3.27v7.64h-1.77Z"/>
      <path class="cls-3" d="M249.63,111.78c.31,0,.62-.02.91-.07.29-.05.52-.09.7-.14v1.36c-.19.09-.48.17-.85.23s-.71.09-1.01.09c-2.27,0-3.4-1.19-3.4-3.58v-6.97h-1.68v-.86l1.68-.74.75-2.5h1.03v2.72h3.4v1.38h-3.4v6.9c0,.71.17,1.25.5,1.63s.79.57,1.38.57Z"/>
      <path class="cls-3" d="M253.43,98.14c0-.41.1-.7.3-.89.2-.19.45-.28.75-.28s.53.1.74.29c.21.19.31.49.31.89s-.1.7-.31.89c-.21.2-.45.29-.74.29-.3,0-.55-.1-.75-.29-.2-.2-.3-.49-.3-.89ZM255.35,113.03h-1.78v-11.72h1.78v11.72Z"/>
      <path class="cls-3" d="M263.8,113.25c-1.7,0-3.01-.52-3.94-1.57-.93-1.04-1.4-2.52-1.4-4.43s.47-3.48,1.42-4.54c.94-1.07,2.29-1.6,4.04-1.6.56,0,1.13.06,1.69.18.56.12,1,.26,1.33.43l-.54,1.51c-.39-.16-.82-.29-1.28-.39-.46-.1-.87-.15-1.23-.15-2.38,0-3.57,1.52-3.57,4.55,0,1.44.29,2.54.87,3.31s1.44,1.15,2.58,1.15c.98,0,1.98-.21,3-.63v1.57c-.78.41-1.77.61-2.96.61Z"/>
      <path class="cls-3" d="M279.66,107.16c0,1.91-.48,3.4-1.44,4.47-.96,1.07-2.29,1.61-3.99,1.61-1.05,0-1.98-.25-2.79-.74-.81-.49-1.44-1.2-1.88-2.12-.44-.92-.66-2-.66-3.23,0-1.91.48-3.4,1.43-4.46s2.28-1.6,3.98-1.6,2.94.54,3.91,1.64,1.45,2.57,1.45,4.43ZM270.73,107.16c0,1.5.3,2.64.9,3.42s1.48,1.18,2.64,1.18,2.04-.39,2.65-1.17.9-1.92.9-3.43-.3-2.62-.9-3.39-1.49-1.16-2.67-1.16-2.04.38-2.63,1.14-.89,1.9-.89,3.41Z"/>
      <path class="cls-3" d="M288.11,101.1c.52,0,.99.04,1.4.13l-.25,1.65c-.49-.11-.91-.16-1.28-.16-.95,0-1.76.38-2.43,1.16-.67.77-1.01,1.73-1.01,2.88v6.29h-1.77v-11.72h1.46l.2,2.17h.08c.44-.76.96-1.35,1.57-1.76s1.29-.62,2.02-.62Z"/>
      <path class="cls-3" d="M297.05,101.1c.52,0,.99.04,1.4.13l-.25,1.65c-.49-.11-.91-.16-1.28-.16-.95,0-1.76.38-2.43,1.16-.67.77-1.01,1.73-1.01,2.88v6.29h-1.77v-11.72h1.46l.2,2.17h.08c.44-.76.96-1.35,1.57-1.76s1.29-.62,2.02-.62Z"/>
      <path class="cls-3" d="M302.31,101.31v7.6c0,.96.22,1.67.65,2.14.43.47,1.12.71,2.04.71,1.23,0,2.12-.33,2.69-1s.85-1.76.85-3.28v-6.16h1.78v11.72h-1.46l-.26-1.57h-.1c-.36.58-.87,1.02-1.51,1.33-.64.31-1.38.46-2.21.46-1.42,0-2.49-.34-3.2-1.02-.71-.68-1.06-1.76-1.06-3.25v-7.67h1.8Z"/>
      <path class="cls-3" d="M319.54,113.25c-.76,0-1.46-.14-2.09-.42-.63-.28-1.16-.71-1.59-1.3h-.13c.09.68.13,1.33.13,1.95v4.82h-1.77v-16.98h1.44l.25,1.6h.09c.46-.64.99-1.1,1.59-1.39.61-.29,1.3-.43,2.08-.43,1.55,0,2.75.53,3.6,1.59.85,1.06,1.27,2.55,1.27,4.47s-.43,3.42-1.29,4.49c-.86,1.07-2.05,1.6-3.58,1.6ZM319.28,102.61c-1.2,0-2.06.33-2.6.99-.54.66-.81,1.72-.82,3.17v.4c0,1.65.27,2.82.82,3.53.55.71,1.43,1.06,2.64,1.06,1.01,0,1.8-.41,2.38-1.23s.86-1.95.86-3.39-.29-2.58-.86-3.36c-.57-.78-1.38-1.17-2.42-1.17Z"/>
      <path class="cls-3" d="M332.19,113.25c-1.7,0-3.01-.52-3.94-1.57s-1.4-2.52-1.4-4.43.47-3.48,1.42-4.54,2.29-1.6,4.04-1.6c.56,0,1.13.06,1.69.18s1,.26,1.33.43l-.55,1.51c-.39-.16-.82-.29-1.28-.39-.46-.1-.87-.15-1.23-.15-2.38,0-3.57,1.52-3.57,4.55,0,1.44.29,2.54.87,3.31s1.44,1.15,2.58,1.15c.98,0,1.98-.21,3-.63v1.57c-.78.41-1.77.61-2.96.61Z"/>
      <path class="cls-3" d="M337.78,98.14c0-.41.1-.7.3-.89.2-.19.45-.28.75-.28s.53.1.74.29.31.49.31.89-.1.7-.31.89c-.21.2-.45.29-.74.29-.3,0-.55-.1-.75-.29-.2-.2-.3-.49-.3-.89ZM339.71,113.03h-1.78v-11.72h1.78v11.72Z"/>
      <path class="cls-3" d="M353.58,107.16c0,1.91-.48,3.4-1.44,4.47-.96,1.07-2.29,1.61-3.99,1.61-1.05,0-1.98-.25-2.79-.74-.81-.49-1.44-1.2-1.88-2.12-.44-.92-.66-2-.66-3.23,0-1.91.48-3.4,1.43-4.46s2.28-1.6,3.98-1.6,2.94.54,3.91,1.64,1.45,2.57,1.45,4.43ZM344.65,107.16c0,1.5.3,2.64.9,3.42s1.48,1.18,2.64,1.18,2.04-.39,2.65-1.17.9-1.92.9-3.43-.3-2.62-.9-3.39-1.49-1.16-2.67-1.16-2.04.38-2.63,1.14-.89,1.9-.89,3.41ZM346.71,99.5c.34-.44.71-.98,1.11-1.6.4-.63.71-1.17.94-1.64h2.16v.22c-.31.46-.78,1.03-1.4,1.71s-1.16,1.2-1.61,1.57h-1.19v-.27Z"/>
      <path class="cls-3" d="M364.71,113.03v-7.58c0-.96-.22-1.67-.65-2.14-.44-.47-1.12-.71-2.04-.71-1.23,0-2.12.33-2.7.99s-.85,1.76-.85,3.28v6.15h-1.78v-11.72h1.44l.29,1.6h.08c.36-.58.87-1.02,1.53-1.34.66-.32,1.39-.48,2.19-.48,1.41,0,2.47.34,3.19,1.02s1.07,1.77,1.07,3.27v7.64h-1.77Z"/>
    </g>
    <g>
      <path class="cls-1" d="M37.52,17.25c0,5.61-1.75,9.89-5.25,12.86-3.5,2.97-8.48,4.45-14.94,4.45h-4.74v18.52H1.54V1.01h16.64c6.32,0,11.12,1.36,14.41,4.08,3.29,2.72,4.93,6.77,4.93,12.17ZM12.59,25.51h3.63c3.4,0,5.94-.67,7.62-2.01,1.69-1.34,2.53-3.29,2.53-5.86s-.71-4.5-2.12-5.74c-1.41-1.23-3.63-1.85-6.64-1.85h-5.02v15.46Z"/>
      <path class="cls-1" d="M147.57,53.09h-14.04l-22.66-39.4h-.32c.45,6.96.68,11.92.68,14.89v24.51h-9.87V1.01h13.93l22.62,39.01h.25c-.36-6.77-.53-11.55-.53-14.36V1.01h9.94v52.08Z"/>
    </g>
    <g>
      <path class="cls-2" d="M56.95,53.92v-.79c0-3.01,0-6.02,0-9.03,8.23.24,13-.18,14.97-.85,6.21-1.75,9.68-5.97,10.8-12.22.65-3.66.58-7.33-.39-10.93-1.64-6.11-5.77-9.59-11.87-10.77-1.76-.34-3.59-.48-5.39-.49-7.47-.05-14.94-.02-22.41-.02-.29,0-.57,0-.9,0V0c.25,0,.51,0,.76,0,7.07,0,14.14-.02,21.21,0,4.39.02,8.71.52,12.85,2.09,6.76,2.56,11.23,7.32,13.25,14.22,2.16,7.38,2.19,14.84-.28,22.16-2.59,7.67-8.1,12.31-15.86,14.33-1.87.49-9.02,1.47-16.73,1.1Z"/>
      <path class="cls-2" d="M57.08,25.28c0-2.35.02-4.69-.01-7.04,0-.6.16-.8.77-.77,2.39.11,6.05.03,8.42.32,4.02.48,6.1,3.05,6.03,7.1-.04,2.27-.44,4.42-2.18,6.06-1.5,1.42-3.4,2.01-5.39,2.14-1.91.13-5.07.02-6.99.04-.54,0-.66-.24-.66-.73.02-2.37,0-4.74,0-7.12Z"/>
    </g>
  </g>
</svg>
