<?xml version="1.0" encoding="UTF-8"?><svg id="Capa_1" xmlns="http://www.w3.org/2000/svg" xmlns:xlink="http://www.w3.org/1999/xlink" viewBox="0 0 679.53 235.27"><defs><style>.cls-1{fill:url(#Degradado_sin_nombre_13);}.cls-2{fill:#f230b9;}.cls-3{fill:url(#Degradado_sin_nombre_13-6);}.cls-4{fill:url(#Degradado_sin_nombre_13-5);}.cls-5{fill:url(#Degradado_sin_nombre_13-7);}.cls-6{fill:#00649d;}.cls-7{fill:url(#Degradado_sin_nombre_13-3);}.cls-8{fill:url(#Degradado_sin_nombre_13-2);}.cls-9{fill:url(#Degradado_sin_nombre_13-4);}</style><linearGradient id="Degradado_sin_nombre_13" x1="143.52" y1="57.35" x2="165.2" y2="57.35" gradientUnits="userSpaceOnUse"><stop offset=".13" stop-color="#1c7cbf"/><stop offset=".53" stop-color="#7f5277"/><stop offset="1" stop-color="#aa49cc"/></linearGradient><linearGradient id="Degradado_sin_nombre_13-2" x1="124.36" y1="57.34" x2="184.38" y2="57.34" xlink:href="#Degradado_sin_nombre_13"/><linearGradient id="Degradado_sin_nombre_13-3" x1="50.64" y1="25.46" x2="132.32" y2="25.46" xlink:href="#Degradado_sin_nombre_13"/><linearGradient id="Degradado_sin_nombre_13-4" x1="37.97" y1="85.07" x2="171.05" y2="85.07" xlink:href="#Degradado_sin_nombre_13"/><linearGradient id="Degradado_sin_nombre_13-5" x1="5.41" y1="198.12" x2="31.78" y2="198.12" xlink:href="#Degradado_sin_nombre_13"/><linearGradient id="Degradado_sin_nombre_13-6" x1="90.54" y1="222.39" x2="116.3" y2="222.39" xlink:href="#Degradado_sin_nombre_13"/><linearGradient id="Degradado_sin_nombre_13-7" x1="0" y1="137.11" x2="252.33" y2="137.11" xlink:href="#Degradado_sin_nombre_13"/></defs><path class="cls-6" d="m250.39,121.39c3.16,0,5.65.96,7.46,2.87,1.81,1.91,2.71,4.52,2.71,7.82v17.26h-6v-15.59c0-2.12-.58-3.78-1.75-4.98-1.17-1.2-2.77-1.8-4.82-1.8-2.33.07-4.18.91-5.55,2.53s-2.06,3.66-2.06,6.12v13.71h-6v-15.59c0-2.12-.58-3.78-1.75-4.98-1.17-1.2-2.75-1.8-4.77-1.8-2.36.07-4.24.91-5.63,2.53-1.39,1.62-2.08,3.66-2.08,6.12v13.71h-5.94v-27.74h5.94v5.37c1.84-3.72,5.2-5.58,10.06-5.58,2.47,0,4.53.58,6.18,1.75,1.65,1.16,2.81,2.81,3.47,4.93,1.7-4.45,5.21-6.67,10.53-6.67Z"/><path class="cls-6" d="m280,121.39c4.76,0,8.21,1.43,10.35,4.3,2.14,2.87,3.02,6.89,2.63,12.07h-20.96c.49,2.16,1.49,3.85,3.02,5.08,1.53,1.23,3.39,1.85,5.58,1.85,3.13,0,5.73-1.08,7.82-3.23l3.18,3.39c-2.85,3.13-6.67,4.69-11.47,4.69-4.27,0-7.71-1.29-10.3-3.88-2.59-2.59-3.88-5.97-3.88-10.14s1.3-7.56,3.91-10.17c2.61-2.61,5.98-3.93,10.11-3.96Zm-8.08,11.99h15.85c-.1-2.22-.85-3.98-2.24-5.27-1.39-1.29-3.21-1.93-5.47-1.93s-4.01.64-5.45,1.93c-1.44,1.29-2.34,3.04-2.68,5.27Z"/><path class="cls-6" d="m305.23,121.6v5.53c1.91-3.82,5.11-5.74,9.59-5.74v5.74c-2.75-.14-4.97.5-6.67,1.93-1.7,1.43-2.68,3.35-2.92,5.79v14.49h-6v-27.74h6Z"/><path class="cls-6" d="m331.14,121.39c5,0,8.83,1.51,11.47,4.54l-3.28,3.86c-2.09-2.12-4.73-3.16-7.92-3.13-2.4,0-4.37.83-5.92,2.48-1.55,1.65-2.32,3.78-2.32,6.39s.77,4.74,2.32,6.39c1.55,1.65,3.52,2.48,5.92,2.48,3.54,0,6.27-1.11,8.18-3.34l3.34,3.34c-2.61,3.44-6.53,5.16-11.78,5.16-4.14,0-7.5-1.29-10.09-3.88-2.59-2.59-3.88-5.97-3.88-10.14s1.29-7.61,3.88-10.22c2.59-2.61,5.95-3.91,10.09-3.91Z"/><path class="cls-6" d="m364.67,149.33v-3.39c-1.98,2.43-5.04,3.65-9.18,3.65-2.95,0-5.32-.81-7.09-2.42-1.77-1.62-2.66-3.67-2.66-6.18s.92-4.55,2.76-6.05c1.84-1.49,4.41-2.26,7.72-2.29h8.39v-.83c0-1.77-.57-3.14-1.69-4.12-1.13-.97-2.77-1.46-4.93-1.46-2.68,0-5.41.94-8.19,2.82l-2.45-4.17c2.12-1.25,4.02-2.15,5.71-2.68,1.68-.54,3.76-.81,6.23-.81,3.54,0,6.29.86,8.24,2.58,1.95,1.72,2.94,4.11,2.97,7.17l.05,18.2h-5.89Zm-7.92-4.48c2.12,0,3.92-.5,5.4-1.49,1.48-.99,2.3-2.25,2.48-3.78v-2.55h-7.51c-1.98,0-3.43.29-4.35.86s-1.38,1.52-1.38,2.84c0,1.25.48,2.25,1.43,3,.96.75,2.27,1.12,3.94,1.12Z"/><path class="cls-6" d="m405.02,110.65v38.68h-6v-4.74c-2.05,3.34-5.3,5-9.75,5-3.96,0-7.17-1.31-9.62-3.94-2.45-2.62-3.67-6.06-3.67-10.3s1.22-7.55,3.65-10.14c2.43-2.59,5.61-3.88,9.54-3.88,4.45,0,7.73,1.69,9.85,5.06v-15.74h6Zm-20.62,31.41c1.58,1.69,3.62,2.53,6.13,2.53s4.54-.84,6.13-2.53c1.58-1.69,2.37-3.85,2.37-6.49s-.79-4.87-2.37-6.57c-1.58-1.7-3.62-2.55-6.13-2.55s-4.54.85-6.13,2.55c-1.58,1.7-2.39,3.89-2.42,6.57.03,2.64.84,4.81,2.42,6.49Z"/><path class="cls-6" d="m426.03,121.39c4.27,0,7.75,1.29,10.43,3.88,2.68,2.59,4.01,5.99,4.01,10.19s-1.34,7.56-4.01,10.17c-2.68,2.61-6.15,3.91-10.43,3.91s-7.8-1.3-10.48-3.91c-2.68-2.61-4.01-6-4.01-10.17s1.34-7.6,4.01-10.19c2.68-2.59,6.17-3.88,10.48-3.88Zm0,5.16c-2.5,0-4.54.83-6.13,2.5-1.58,1.67-2.37,3.82-2.37,6.46s.79,4.85,2.37,6.52c1.58,1.67,3.62,2.5,6.13,2.5s4.54-.83,6.1-2.5,2.35-3.84,2.35-6.52-.79-4.8-2.37-6.46c-1.58-1.67-3.61-2.5-6.07-2.5Z"/><path class="cls-6" d="m486.61,110.65v38.68h-6v-4.74c-2.05,3.34-5.3,5-9.75,5-3.96,0-7.17-1.31-9.62-3.94-2.45-2.62-3.67-6.06-3.67-10.3s1.22-7.55,3.65-10.14c2.43-2.59,5.61-3.88,9.54-3.88,4.45,0,7.73,1.69,9.85,5.06v-15.74h6Zm-20.62,31.41c1.58,1.69,3.62,2.53,6.13,2.53s4.54-.84,6.13-2.53c1.58-1.69,2.37-3.85,2.37-6.49s-.79-4.87-2.37-6.57c-1.58-1.7-3.62-2.55-6.13-2.55s-4.54.85-6.13,2.55c-1.58,1.7-2.39,3.89-2.42,6.57.03,2.64.84,4.81,2.42,6.49Z"/><path class="cls-6" d="m496.2,111.04c.66-.68,1.49-1.02,2.5-1.02s1.84.34,2.5,1.02.99,1.56.99,2.63-.33,1.9-.99,2.58-1.49,1.02-2.5,1.02-1.84-.34-2.5-1.02-.99-1.54-.99-2.58.33-1.96.99-2.63Zm5.47,38.29h-5.94v-27.74h5.94v27.74Z"/><path class="cls-6" d="m535.56,121.6v25.02c0,3.96-1.3,7.12-3.91,9.46-2.61,2.35-6.1,3.52-10.48,3.52-4.1,0-7.94-1.22-11.52-3.65l2.55-4.33c2.71,2.02,5.61,3.02,8.71,3.02,2.64,0,4.75-.71,6.33-2.14,1.58-1.43,2.37-3.34,2.37-5.74v-3.49c-1.95,3.13-5,4.69-9.18,4.69-3.75,0-6.78-1.23-9.07-3.7s-3.44-5.7-3.44-9.7,1.13-7.1,3.39-9.51c2.26-2.42,5.23-3.64,8.92-3.68,4.24-.03,7.37,1.53,9.38,4.69v-4.48h5.94Zm-13.92,21.69c2.33,0,4.24-.8,5.73-2.4,1.49-1.6,2.24-3.65,2.24-6.15s-.74-4.54-2.22-6.13c-1.48-1.58-3.4-2.37-5.76-2.37s-4.29.79-5.79,2.37c-1.49,1.58-2.26,3.62-2.29,6.13.03,2.5.79,4.55,2.27,6.15,1.48,1.6,3.42,2.4,5.81,2.4Z"/><path class="cls-6" d="m544.37,111.04c.66-.68,1.49-1.02,2.5-1.02s1.84.34,2.5,1.02.99,1.56.99,2.63-.33,1.9-.99,2.58-1.49,1.02-2.5,1.02-1.84-.34-2.5-1.02-.99-1.54-.99-2.58.33-1.96.99-2.63Zm5.47,38.29h-5.94v-27.74h5.94v27.74Z"/><path class="cls-6" d="m572.89,142.97l1.51,4.59c-2.29,1.36-4.57,2.03-6.83,2.03s-4.12-.68-5.58-2.03-2.19-3.37-2.19-6.05v-14.39h-3.91v-4.48h3.91v-7.61h5.94v7.61h8.19v4.48h-8.19v13.29c0,1.39.24,2.36.73,2.92.49.56,1.23.83,2.24.83,1.11,0,2.5-.4,4.17-1.2Z"/><path class="cls-6" d="m596.56,149.33v-3.39c-1.98,2.43-5.04,3.65-9.18,3.65-2.95,0-5.32-.81-7.09-2.42-1.77-1.62-2.66-3.67-2.66-6.18s.92-4.55,2.76-6.05c1.84-1.49,4.41-2.26,7.72-2.29h8.39v-.83c0-1.77-.57-3.14-1.69-4.12-1.13-.97-2.77-1.46-4.93-1.46-2.68,0-5.41.94-8.19,2.82l-2.45-4.17c2.12-1.25,4.02-2.15,5.71-2.68,1.68-.54,3.76-.81,6.23-.81,3.54,0,6.29.86,8.24,2.58,1.95,1.72,2.94,4.11,2.97,7.17l.05,18.2h-5.89Zm-7.92-4.48c2.12,0,3.92-.5,5.4-1.49,1.48-.99,2.3-2.25,2.48-3.78v-2.55h-7.51c-1.98,0-3.43.29-4.35.86s-1.38,1.52-1.38,2.84c0,1.25.48,2.25,1.43,3,.96.75,2.27,1.12,3.94,1.12Z"/><path class="cls-6" d="m616.74,149.33h-6v-38.68h6v38.68Z"/><path class="cls-2" d="m237.4,200.92h-15.55l-2.97,7.18h-7.94l14.93-33.49h7.66l14.98,33.49h-8.13l-2.97-7.18Zm-2.44-5.88l-5.31-12.82-5.31,12.82h10.62Z"/><path class="cls-2" d="m282.71,174.6v33.49h-6.36l-16.7-20.33v20.33h-7.66v-33.49h6.41l16.65,20.33v-20.33h7.66Z"/><path class="cls-2" d="m297.59,180.92h-10.72v-6.32h29.19v6.32h-10.72v27.18h-7.75v-27.18Z"/><path class="cls-2" d="m320.22,174.6h7.75v33.49h-7.75v-33.49Z"/><path class="cls-2" d="m342.68,206.44c-2.76-1.48-4.93-3.54-6.51-6.17-1.58-2.63-2.37-5.61-2.37-8.92s.79-6.29,2.37-8.92c1.58-2.63,3.75-4.69,6.51-6.17,2.76-1.48,5.86-2.22,9.31-2.22,2.9,0,5.53.51,7.87,1.53,2.34,1.02,4.31,2.49,5.91,4.4l-4.98,4.59c-2.27-2.61-5.07-3.92-8.42-3.92-2.07,0-3.92.45-5.55,1.36s-2.89,2.18-3.8,3.8-1.36,3.48-1.36,5.55.45,3.92,1.36,5.55c.91,1.63,2.18,2.89,3.8,3.8,1.63.91,3.48,1.36,5.55,1.36,3.35,0,6.16-1.32,8.42-3.97l4.98,4.59c-1.59,1.95-3.57,3.43-5.93,4.45s-4.99,1.53-7.89,1.53c-3.41,0-6.5-.74-9.26-2.22Z"/><path class="cls-2" d="m377.08,206.42c-2.79-1.5-4.98-3.56-6.55-6.2-1.58-2.63-2.37-5.59-2.37-8.88s.79-6.24,2.37-8.88c1.58-2.63,3.76-4.7,6.55-6.2s5.92-2.25,9.4-2.25,6.6.75,9.38,2.25c2.77,1.5,4.96,3.56,6.55,6.2,1.59,2.63,2.39,5.59,2.39,8.88s-.8,6.24-2.39,8.88c-1.6,2.63-3.78,4.7-6.55,6.2-2.78,1.5-5.9,2.25-9.38,2.25s-6.61-.75-9.4-2.25Zm14.76-5.72c1.59-.91,2.85-2.18,3.76-3.8.91-1.63,1.36-3.48,1.36-5.55s-.46-3.92-1.36-5.55-2.16-2.89-3.76-3.8-3.38-1.36-5.36-1.36-3.76.45-5.36,1.36c-1.6.91-2.85,2.18-3.76,3.8s-1.36,3.48-1.36,5.55.45,3.92,1.36,5.55c.91,1.63,2.16,2.89,3.76,3.8,1.59.91,3.38,1.36,5.36,1.36s3.76-.46,5.36-1.36Z"/><path class="cls-2" d="m431.98,208.09l-6.46-9.33h-7.13v9.33h-7.75v-33.49h14.5c2.97,0,5.54.5,7.73,1.48,2.18.99,3.87,2.39,5.05,4.21,1.18,1.82,1.77,3.97,1.77,6.46s-.6,4.63-1.79,6.44-2.89,3.18-5.1,4.14l7.51,10.76h-8.33Zm-1.96-25.67c-1.21-1-2.98-1.51-5.31-1.51h-6.32v11.67h6.32c2.33,0,4.1-.51,5.31-1.53,1.21-1.02,1.82-2.46,1.82-4.31s-.61-3.33-1.82-4.33Z"/><path class="cls-2" d="m467.15,208.09l-6.46-9.33h-7.13v9.33h-7.75v-33.49h14.5c2.97,0,5.54.5,7.73,1.48,2.18.99,3.87,2.39,5.05,4.21,1.18,1.82,1.77,3.97,1.77,6.46s-.6,4.63-1.79,6.44-2.89,3.18-5.1,4.14l7.51,10.76h-8.33Zm-1.96-25.67c-1.21-1-2.98-1.51-5.31-1.51h-6.32v11.67h6.32c2.33,0,4.1-.51,5.31-1.53,1.21-1.02,1.82-2.46,1.82-4.31s-.61-3.33-1.82-4.33Z"/><path class="cls-2" d="m484.68,204.69c-2.66-2.65-4-6.43-4-11.34v-18.75h7.75v18.47c0,6,2.49,9,7.46,9,2.42,0,4.27-.73,5.55-2.18,1.28-1.45,1.91-3.72,1.91-6.82v-18.47h7.66v18.75c0,4.91-1.33,8.69-4,11.34-2.66,2.65-6.39,3.97-11.17,3.97s-8.51-1.32-11.17-3.97Z"/><path class="cls-2" d="m540.9,176.08c2.18.99,3.87,2.39,5.05,4.21,1.18,1.82,1.77,3.97,1.77,6.46s-.59,4.6-1.77,6.44c-1.18,1.83-2.86,3.24-5.05,4.21-2.19.97-4.76,1.46-7.73,1.46h-6.75v9.23h-7.75v-33.49h14.5c2.97,0,5.54.5,7.73,1.48Zm-2.85,14.95c1.21-1,1.82-2.43,1.82-4.28s-.61-3.33-1.82-4.33c-1.21-1-2.98-1.51-5.31-1.51h-6.32v11.63h6.32c2.33,0,4.1-.5,5.31-1.51Z"/><path class="cls-2" d="m560.47,206.44c-2.76-1.48-4.93-3.54-6.51-6.17-1.58-2.63-2.37-5.61-2.37-8.92s.79-6.29,2.37-8.92c1.58-2.63,3.75-4.69,6.51-6.17,2.76-1.48,5.86-2.22,9.31-2.22,2.9,0,5.53.51,7.87,1.53,2.34,1.02,4.31,2.49,5.91,4.4l-4.98,4.59c-2.27-2.61-5.07-3.92-8.42-3.92-2.07,0-3.92.45-5.55,1.36s-2.89,2.18-3.8,3.8-1.36,3.48-1.36,5.55.45,3.92,1.36,5.55c.91,1.63,2.18,2.89,3.8,3.8,1.63.91,3.48,1.36,5.55,1.36,3.35,0,6.16-1.32,8.42-3.97l4.98,4.59c-1.59,1.95-3.57,3.43-5.93,4.45s-4.99,1.53-7.89,1.53c-3.41,0-6.5-.74-9.26-2.22Z"/><path class="cls-2" d="m588.77,174.6h7.75v33.49h-7.75v-33.49Z"/><path class="cls-2" d="m611.28,206.42c-2.79-1.5-4.98-3.56-6.55-6.2-1.58-2.63-2.37-5.59-2.37-8.88s.79-6.24,2.37-8.88c1.58-2.63,3.76-4.7,6.55-6.2s5.92-2.25,9.4-2.25,6.6.75,9.38,2.25c2.77,1.5,4.96,3.56,6.55,6.2,1.59,2.63,2.39,5.59,2.39,8.88s-.8,6.24-2.39,8.88c-1.6,2.63-3.78,4.7-6.55,6.2-2.78,1.5-5.9,2.25-9.38,2.25s-6.61-.75-9.4-2.25Zm14.76-5.72c1.59-.91,2.85-2.18,3.76-3.8.91-1.63,1.36-3.48,1.36-5.55s-.46-3.92-1.36-5.55-2.16-2.89-3.76-3.8-3.38-1.36-5.36-1.36-3.76.45-5.36,1.36c-1.6.91-2.85,2.18-3.76,3.8s-1.36,3.48-1.36,5.55.45,3.92,1.36,5.55c.91,1.63,2.16,2.89,3.76,3.8,1.59.91,3.38,1.36,5.36,1.36s3.76-.46,5.36-1.36Zm-3.25-35.72h8.04l-8.66,6.89h-5.84l6.46-6.89Z"/><path class="cls-2" d="m675.56,174.6v33.49h-6.36l-16.7-20.33v20.33h-7.66v-33.49h6.41l16.65,20.33v-20.33h7.66Z"/><path class="cls-1" d="m165.2,57.36c-.02,5.91-4.97,10.83-10.87,10.79-5.9-.04-10.84-5.01-10.82-10.89.02-5.93,4.9-10.71,10.92-10.7,6.03.01,10.78,4.78,10.76,10.81Zm-10.73,5.75c3.25-.03,5.84-2.66,5.81-5.89-.04-3.19-2.74-5.82-5.95-5.78-3.25.04-5.8,2.66-5.77,5.92.03,3.3,2.59,5.78,5.91,5.75Z"/><path class="cls-8" d="m180.44,59.89c-.02-2.65-.96-5.5,1.94-7.65,2.43-1.8,2.51-3.89.99-6.57-1.42-2.5-2.84-4.99-4.32-7.45-1.63-2.72-3.37-3.4-6.39-2.6-4.2,1.1-7.53-.84-8.6-5.03-.75-2.94-2.25-4.11-5.29-4.11-2.74,0-5.48.02-8.21,0-3.73-.02-5.02.98-5.93,4.56-.23.89-.35,2.21-.95,2.53-2.28,1.23-4.22,3.42-7.45,2.14-3.01-1.2-4.83-.26-6.52,2.56-1.34,2.23-2.63,4.5-3.92,6.76-1.97,3.45-1.74,5.01,1.12,7.73,2.4,2.3,2.42,6.6.02,8.96-1.25,1.23-2.54,2.43-2.56,4.49.04.12.08.23.13.35.21,0,.42,0,.66-.01,1.61-.13,3.19-.1,4.73.06-.12-.56.07-1.03.65-1.5.62-.51,1.14-1.13,1.76-1.64,1.2-.99,1.33-2.12,1.34-3.72,0-1.59,0-2.72-.06-4.19-.11-2.21-.32-3.64-1.91-5.09-2.37-2.17-1.71-3.3-.8-4.91.35-.63.87-2,1.22-2.78.44-.99.96-1.4,2.16-1.99,1.13-.55,2.98.49,4.52.61.86.06,1.82-.17,2.6-.56,1.31-.65,4.14-2.32,5.39-3.1,2.23-1.39,2.08-1.64,2.29-4.12.16-1.89,1.13-2.43,2.92-2.29,1.86.15,3.74.1,5.61,0,1.26-.06,1.85.42,2.02,1.63.09.66.35,1.29.46,1.95.27,1.59,1.26,2.32,2.66,3.2,1.33.84,3.28,1.54,4.28,2.14,1.83,1.1,3.1,1.61,5.5.51,1.41-.64,2.06-.16,3.03,1.13,1.38,1.83,1.69,2.48,2.76,4.09.87,1.3.23,3.29-.23,3.61-2.54,1.76-3.51,3.34-3.25,6.12.02.26.39,4.61.43,4.87.26,1.65.29,2.67,3.01,4.53.87.6.94,1.29.37,2.21-1.2,1.93-2.24,3.96-3.51,5.84-.32.48-1.24.79-1.86.77-.91-.04-1.8-.65-2.7-.65-1.12,0-1.82-.19-3.35.62-1.4.74-2.99,1.45-4.17,2.35-1.68,1.18-2.62,1.76-3.05,3.58-.9,3.78-.05,3.26-4.27,3.3-1.47.01-2.95-.08-4.41.03-.29.02-.54,0-.77-.04.19.54.38,1.09.53,1.65.22.78,1.2,1.7,2,1.92,1.46.41,2.79.91,4.04,1.5.31,0,.61,0,.92,0,3.85.02,5.22-1.05,6.21-4.83.22-.83.32-2.07.87-2.35,2.35-1.19,4.28-3.55,7.61-2.1,2.77,1.22,4.81.12,6.37-2.53,1.39-2.36,2.75-4.73,4.11-7.11,1.73-3.02,1.49-4.69-.93-7.14-.69-.7-1.82-1.49-1.83-2.25Z"/><path class="cls-7" d="m61.6,31.39c.59-.14,1.16-.33,1.69-.57l10.93,19.85c-.07.08-.13.17-.2.26,2.54-1.44,5.27-2.54,8.15-3.28-1.04-.14-2.12-.11-3.2.14-.95.22-1.83.59-2.62,1.07l-10.76-19.55c2.11-1.92,3.25-4.79,2.86-7.76l46.47-9.65c.32.94.8,1.79,1.38,2.54l-28.27,32.25c1.24-.1,2.5-.15,3.77-.11l26.51-30.24c1.99,1.37,4.53,1.93,7.07,1.34,4.81-1.11,7.81-5.92,6.7-10.73-1.11-4.81-5.92-7.81-10.73-6.7-4.22.98-7.04,4.78-6.93,8.95l-46.74,9.71c-1.75-3.75-5.93-5.9-10.12-4.93-4.81,1.11-7.81,5.92-6.7,10.73,1.11,4.81,5.92,7.81,10.73,6.7ZM122.09,3.38c3.07-.71,6.14,1.2,6.85,4.28.71,3.07-1.2,6.14-4.28,6.85-3.07.71-6.14-1.2-6.85-4.28-.71-3.07,1.2-6.14,4.28-6.85Z"/><path class="cls-9" d="m37.97,96.89c0-12.65,9.02-23.63,21.46-25.97,1.6-.3,2.25-1.11,2.8-2.47,5.61-13.77,18.33-22.38,33.07-21.89,13.01.44,22.9,6.54,29.46,17.81.91,1.57,1.82,2.35,3.72,2.19,12.06-1,22.68,6.54,25.93,18.22.22.78,1.2,1.7,2,1.92,8.52,2.38,13.37,7.81,14.51,16.65,1.17,9.04-6.11,18.68-15.16,19.84-1.5.19-3.01.36-4.52.4-1.88.05-3.51-.71-3.52-2.73-.01-2.05,1.58-2.64,3.5-2.69,7.93-.21,12.75-3.98,14.13-10.92,1.51-7.61-3.88-14.65-12.11-15.47-2.38-.24-3.3-1.26-3.71-3.45-2.21-11.66-11.93-18.27-23.54-15.96-2.63.52-3.72-.67-4.72-2.79-5.52-11.65-14.77-17.63-27.69-17.59-12.13.04-23.18,8.38-26.99,20.31-.76,2.39-1.93,3.4-4.49,3.67-9.63,1.03-17.66,8.98-18.61,18.08-1.11,10.58,4.53,19.65,14.3,23,.53.18,1.07.33,1.58.54,1.47.6,2.34,1.9,1.61,3.2-.51.92-2.21,1.94-3.12,1.73-2.37-.53-4.74-1.45-6.85-2.67-8.35-4.84-13.06-13.29-13.06-22.96Z"/><path class="cls-4" d="m23.27,185.8c-7-2.58-14.5.87-17.09,7.87-2.47,6.67,1.16,14.37,7.95,16.86,6.69,2.45,14.27-1.06,16.81-7.78,2.56-6.77-.92-14.46-7.67-16.94Zm1.41,14.62c-1.27,3.38-4.95,5.07-8.35,3.82-3.43-1.26-5.11-5.03-3.78-8.49,1.25-3.28,4.98-5,8.28-3.8,3.43,1.24,5.15,5.02,3.86,8.47Z"/><path class="cls-3" d="m107.71,210.24c-6.73-2.38-14.11,1.18-16.47,7.95-2.29,6.56,1.25,13.93,7.84,16.33,6.63,2.41,14.12-1.12,16.47-7.75,2.4-6.77-1.1-14.15-7.84-16.53Zm1.72,14.28c-1.18,3.32-4.79,5.05-8.11,3.89-3.39-1.18-5.1-4.83-3.86-8.23,1.19-3.28,4.93-5.03,8.16-3.83,3.29,1.23,4.98,4.86,3.81,8.17Z"/><path class="cls-5" d="m248.76,86.7l-22.99-5.93c-1.83-1.27-14.7-1.7-17.34,0-5.22.93-8.35,7.35-15.33,15.84l-8.81,10.6c-9.9-3.53-113.97-34.62-143.6-43.79-5-1.55-12.04,2.7-13.34,11.83-1.09,7.64-7.14,36.56-9.46,50.94-.9,5.59,1.49,8.82,6.58,10.5,7.83,2.57,92.52,44.13,92.52,44.13,4.74,1.61,6.25,2.96,6.87,4.91,1.9,6.01,5.47,17.93-6.87,13.86-10.04-3.32-94.97-29.74-108.46-35.33-7.82-3.24-13.7,7.92-1.64,12.22,0,0,80.36,24.52,87.67,26.38,7.31,1.85,22.75,7.6,27.17,8.15,11.86,1.47,18.27-13.15,12.62-24.92-1.15-2.39,53.97-67.3,75.23-91.39,1.23-1.63,4.9-5,8.63-3.89l28.38,3.89c3.52,1.33,9.71-5.6,2.18-7.99Zm-115.81,59.15l-18.73-6.34,5.96-17.6,18.73,6.34-5.96,17.6Zm8.91-16.6l19.12,6.47-12.01,15.55-13.06-4.42,5.96-17.6Zm-86.69-29.34l18.79,6.36-5.96,17.6-18.79-6.36,5.96-17.6Zm-9.13,16.53l-17.79-6.02c1.25-6.25,2.58-12.74,3.74-18.35l20,6.77-5.96,17.6Zm50.84-5.99l-19.15-6.48,5.87-17.35c6.16,2.01,12.64,4.13,19.21,6.29l-5.94,17.54Zm8.46-16.71c6.43,2.12,12.92,4.26,19.24,6.36l-5.99,17.7-19.2-6.5,5.94-17.56Zm-9.55,19.92l-5.96,17.6-19.15-6.48,5.96-17.6,19.15,6.48Zm-20.75-10.6l-18.79-6.36,5.79-17.1c5.58,1.81,11.99,3.9,18.86,6.14l-5.86,17.32Zm-8.08,23.88l-5.25,15.53c-6.92-3.05-13.25-5.84-18.22-8.03l4.69-13.86,18.79,6.36Zm2.69.91l19.15,6.48-5.91,17.47c-6.23-2.75-12.58-5.54-18.57-8.18l5.34-15.77Zm15.75,24.83l5.92-17.49,19.2,6.5-6.56,19.39c-6.24-2.75-13.43-5.91-20.78-9.15l2.23.75Zm6.96-20.55l5.96-17.6,19.2,6.5-5.96,17.6-19.2-6.5Zm28.9-13.42l5.99-17.71c6.56,2.18,12.89,4.3,18.75,6.29l-6.01,17.76-18.73-6.34Zm-80.03-45.84c1.59.51,8.16,2.63,17.63,5.7l-5.77,17.06-20.4-6.9c.87-4.19,1.59-7.67,2.01-9.83,1.1-5.6,3.08-7.14,6.54-6.03Zm-14.35,44.54c.24-1.23.48-2.5.74-3.78l17.39,5.88-4.59,13.58c-3.93-1.73-6.61-2.91-7.46-3.29-5.31-2.34-7.77-3.56-6.07-12.39Zm97.17,52.52s-7.18-3.16-17.51-7.71l6.64-19.63,18.73,6.34-6.72,19.86,2.95,1,6.72-19.86,12.01,4.06-11.97,15.5c-3.42,4.15-9.48.92-10.85.44Zm39.11-37.04l-20.22-6.84,6.01-17.76c11.57,3.93,20.99,7.22,26.1,9.2l-11.9,15.41Z"/></svg>