<svg xmlns="http://www.w3.org/2000/svg" xmlns:xlink="http://www.w3.org/1999/xlink" width="303.432" height="90.173" viewBox="0 0 303.432 90.173">
  <defs>
    <clipPath id="clip-path">
      <rect id="Rectángulo_94" data-name="Rectángulo 94" width="303.432" height="90.173" transform="translate(0 0)" fill="none"/>
    </clipPath>
  </defs>
  <g id="Grupo_168" data-name="Grupo 168" transform="translate(0 0)">
    <g id="Grupo_167" data-name="Grupo 167" clip-path="url(#clip-path)">
      <path id="Trazado_373" data-name="Trazado 373" d="M3.044,82.236a2.049,2.049,0,1,0,.8,2.786,2.05,2.05,0,0,0-.8-2.786" fill="#805374"/>
      <path id="Trazado_374" data-name="Trazado 374" d="M54.285,40.8a2.049,2.049,0,1,0-.8-2.784,2.048,2.048,0,0,0,.8,2.784" fill="#805374"/>
      <path id="Trazado_375" data-name="Trazado 375" d="M56.252,44.731,67.759,64.92h4.7L59.8,42.707a2.044,2.044,0,0,0-3.551,2.024" fill="#805374"/>
      <path id="Trazado_376" data-name="Trazado 376" d="M77.753,74.457H73.194l.406.711a4.563,4.563,0,0,1-3.966,6.821H7.5a2.044,2.044,0,0,0,0,4.088H69.634a8.644,8.644,0,0,0,8.119-11.62" fill="#805374"/>
      <path id="Trazado_377" data-name="Trazado 377" d="M110.486,68.689a2.049,2.049,0,1,0-.8,2.785,2.049,2.049,0,0,0,.8-2.785" fill="#bf1e3f"/>
      <path id="Trazado_378" data-name="Trazado 378" d="M49.22,3.84a2.049,2.049,0,1,0-2.784-.795,2.049,2.049,0,0,0,2.784.795" fill="#bf1e3f"/>
      <path id="Trazado_379" data-name="Trazado 379" d="M103.243,67.645H94.581l2.4,4.087h6.264a2.044,2.044,0,1,0,0-4.087" fill="#bf1e3f"/>
      <path id="Trazado_380" data-name="Trazado 380" d="M21.191,67.645a4.562,4.562,0,0,1-3.965-6.821L47.275,7.836a2.043,2.043,0,1,0-3.551-2.023L13.674,58.8a8.651,8.651,0,0,0,7.517,12.932H85.92l-2.4-4.087Z" fill="#bf1e3f"/>
      <path id="Trazado_381" data-name="Trazado 381" d="M100.961,86.076a2.049,2.049,0,1,0,2.094,2,2.046,2.046,0,0,0-2.094-2" fill="#691c32"/>
      <path id="Trazado_382" data-name="Trazado 382" d="M30.934,57.31a2.049,2.049,0,1,0,2.094,2,2.048,2.048,0,0,0-2.094-2" fill="#691c32"/>
      <path id="Trazado_383" data-name="Trazado 383" d="M100.019,82.384,64.787,22.359a8.648,8.648,0,0,0-14.955.05L31.865,53.629a2.044,2.044,0,1,0,3.541,2.042l17.966-31.22a4.563,4.563,0,0,1,7.89-.027L96.491,84.449a2.044,2.044,0,0,0,3.528-2.065" fill="#691c32"/>
      <path id="Trazado_384" data-name="Trazado 384" d="M107.683,33.781c0,1.921-1.852,3.391-4.343,3.391a8.773,8.773,0,0,1-4.274-1.021.265.265,0,0,1-.121-.363l.572-1.228a.271.271,0,0,1,.363-.139,8.258,8.258,0,0,0,3.321.831c1.194,0,2.284-.571,2.284-1.488,0-2.872-6.5-1.3-6.5-5.588,0-2.162,1.609-3.443,3.859-3.443a10.346,10.346,0,0,1,4.013.917.3.3,0,0,1,.155.38l-.57,1.263a.274.274,0,0,1-.363.156,10.594,10.594,0,0,0-2.856-.709c-1.142,0-2.041.225-2.111,1.315.037,2.422,6.576,1.021,6.576,5.726" fill="#393c3d"/>
      <rect id="Rectángulo_90" data-name="Rectángulo 90" width="1.471" height="12.111" rx="0.26" transform="translate(112.699 24.924)" fill="#393c3d"/>
      <path id="Trazado_385" data-name="Trazado 385" d="M120.75,27.761c0,3.045,6.972,1.488,6.972,6.125,0,1.851-1.748,3.338-4.239,3.338a8.59,8.59,0,0,1-4.065-.934.3.3,0,0,1-.121-.363c.121-.242.224-.467.346-.692a.26.26,0,0,1,.346-.138,8.534,8.534,0,0,0,3.356.761c1.471,0,2.716-.761,2.8-1.938.278-3.443-6.712-1.695-6.9-5.934-.087-2.2,1.574-3.252,3.7-3.252a11.136,11.136,0,0,1,3.806.8.27.27,0,0,1,.156.347c-.1.276-.173.5-.26.744a.268.268,0,0,1-.345.155,11.671,11.671,0,0,0-3.305-.64c-1.142,0-2.2.433-2.249,1.609Z" fill="#393c3d"/>
      <path id="Trazado_386" data-name="Trazado 386" d="M135.231,26.169h-3.356a.265.265,0,0,1-.259-.26v-.726a.265.265,0,0,1,.259-.26h8.235a.266.266,0,0,1,.259.26v.726a.266.266,0,0,1-.259.26h-3.391v10.6a.266.266,0,0,1-.259.26h-.969a.266.266,0,0,1-.26-.26Z" fill="#393c3d"/>
      <path id="Trazado_387" data-name="Trazado 387" d="M146.48,31.688v4.1h6.107a.266.266,0,0,1,.259.26v.727a.266.266,0,0,1-.259.259h-7.318a.266.266,0,0,1-.26-.259V25.183a.266.266,0,0,1,.26-.259h7.318a.266.266,0,0,1,.259.259v.727a.266.266,0,0,1-.259.259H146.48v4.274H151.2a.266.266,0,0,1,.259.259v.727a.266.266,0,0,1-.259.259Z" fill="#393c3d"/>
      <path id="Trazado_388" data-name="Trazado 388" d="M165.557,36.948a.354.354,0,0,1-.329.225.377.377,0,0,1-.345-.225l-3.564-8.512-2.665,8.356a.337.337,0,0,1-.329.243h-1.072a.18.18,0,0,1-.173-.243l3.806-11.781a.3.3,0,0,1,.277-.191.319.319,0,0,1,.294.191l3.771,9.169,3.789-9.169a.275.275,0,0,1,.26-.191.294.294,0,0,1,.276.191l3.824,11.781a.18.18,0,0,1-.173.243h-1.072a.376.376,0,0,1-.347-.243l-2.664-8.373Z" fill="#393c3d"/>
      <path id="Trazado_389" data-name="Trazado 389" d="M185.111,33.695H180.3l-1.246,3.1a.39.39,0,0,1-.363.242H177.6a.171.171,0,0,1-.156-.242l4.913-11.748a.361.361,0,0,1,.346-.224.332.332,0,0,1,.312.224l5,11.748a.171.171,0,0,1-.156.242h-1.125a.391.391,0,0,1-.363-.242Zm-4.325-1.211h3.823l-1.92-4.723Z" fill="#393c3d"/>
      <path id="Trazado_390" data-name="Trazado 390" d="M200.892,37.034a.273.273,0,0,1-.277-.277V25.01a.226.226,0,0,1,.207-.224.534.534,0,0,1,.381.155l7.18,7.3V25.2a.273.273,0,0,1,.277-.276h1.574a.273.273,0,0,1,.277.276V36.965a.233.233,0,0,1-.242.225.493.493,0,0,1-.381-.173l-7.145-7.439v7.179a.273.273,0,0,1-.277.277Z" fill="#393c3d"/>
      <path id="Trazado_391" data-name="Trazado 391" d="M222.757,33.695h-4.809l-1.246,3.1a.39.39,0,0,1-.363.242h-1.09a.171.171,0,0,1-.156-.242l4.913-11.748a.361.361,0,0,1,.346-.224.332.332,0,0,1,.312.224l5,11.748a.171.171,0,0,1-.156.242h-1.125a.39.39,0,0,1-.363-.242Zm-4.325-1.211h3.823l-1.92-4.723Z" fill="#393c3d"/>
      <path id="Trazado_392" data-name="Trazado 392" d="M238.643,27.259a.311.311,0,0,1-.381,0,5.469,5.469,0,0,0-3.252-1.28c-3.927,0-4.481,3.72-4.481,4.948,0,1.246.554,4.931,4.481,4.931a5.51,5.51,0,0,0,3.287-1.229.265.265,0,0,1,.363.035c.173.225.346.415.537.64a.29.29,0,0,1-.035.38,5.981,5.981,0,0,1-4.152,1.506c-4.619,0-5.986-3.668-5.986-6.263,0-2.526,1.367-6.211,5.986-6.211a5.615,5.615,0,0,1,4.169,1.626.272.272,0,0,1,0,.381Z" fill="#393c3d"/>
      <rect id="Rectángulo_91" data-name="Rectángulo 91" width="1.471" height="12.111" rx="0.26" transform="translate(244.097 24.924)" fill="#393c3d"/>
      <path id="Trazado_393" data-name="Trazado 393" d="M262.615,30.962c0,2.595-1.367,6.228-5.986,6.228s-5.985-3.633-5.985-6.228c0-2.526,1.366-6.211,5.985-6.211s5.986,3.685,5.986,6.211m-1.522,0c0-1.228-.554-4.861-4.464-4.861-3.927,0-4.481,3.633-4.481,4.861s.554,4.9,4.481,4.9c3.91,0,4.464-3.668,4.464-4.9" fill="#393c3d"/>
      <path id="Trazado_394" data-name="Trazado 394" d="M267.987,37.034a.267.267,0,0,1-.26-.26V25.079a.267.267,0,0,1,.26-.259H268a.591.591,0,0,1,.433.19L276,33.747V25.183a.266.266,0,0,1,.26-.259h.951a.266.266,0,0,1,.26.259V36.9a.252.252,0,0,1-.26.242.548.548,0,0,1-.415-.191l-7.578-8.771v8.6a.266.266,0,0,1-.259.26Z" fill="#393c3d"/>
      <path id="Trazado_395" data-name="Trazado 395" d="M289.714,33.695H284.9l-1.245,3.1a.39.39,0,0,1-.363.242h-1.09a.171.171,0,0,1-.156-.242l4.913-11.748a.361.361,0,0,1,.346-.224.332.332,0,0,1,.312.224l5,11.748a.171.171,0,0,1-.156.242H291.34a.391.391,0,0,1-.363-.242Zm-4.325-1.211h3.823l-1.92-4.723Z" fill="#393c3d"/>
      <path id="Trazado_396" data-name="Trazado 396" d="M298.674,35.789h4.5a.266.266,0,0,1,.259.26v.726a.266.266,0,0,1-.259.26h-5.709a.266.266,0,0,1-.26-.26V25.184a.266.266,0,0,1,.26-.26h.951a.266.266,0,0,1,.26.26Z" fill="#393c3d"/>
      <path id="Trazado_397" data-name="Trazado 397" d="M109.671,57.106a.186.186,0,0,1-.173.259h-2.127a.411.411,0,0,1-.4-.277l-1.056-2.561H102.18l-1.037,2.561a.428.428,0,0,1-.4.277H98.6a.186.186,0,0,1-.173-.259l5.312-11.817a.349.349,0,0,1,.293-.19.356.356,0,0,1,.312.19Zm-6.712-4.516h2.18l-1.09-2.716Z" fill="#393c3d"/>
      <path id="Trazado_398" data-name="Trazado 398" d="M115.682,57.365a.3.3,0,0,1-.294-.294V45.359a.233.233,0,0,1,.224-.242.561.561,0,0,1,.416.172l6.868,6.834V45.549a.3.3,0,0,1,.294-.294h1.869a.3.3,0,0,1,.294.294V57.261a.2.2,0,0,1-.208.208.557.557,0,0,1-.363-.139l-6.938-7.006v6.747a.3.3,0,0,1-.294.294Z" fill="#393c3d"/>
      <path id="Trazado_399" data-name="Trazado 399" d="M134.4,47.5H131.42a.3.3,0,0,1-.294-.294V45.548a.3.3,0,0,1,.294-.294h8.46a.3.3,0,0,1,.294.294v1.661a.3.3,0,0,1-.294.294h-3.01V57.07a.3.3,0,0,1-.294.3H134.69a.3.3,0,0,1-.294-.3Z" fill="#393c3d"/>
      <rect id="Rectángulo_92" data-name="Rectángulo 92" width="2.456" height="12.11" rx="0.294" transform="translate(145.948 45.254)" fill="#393c3d"/>
      <path id="Trazado_400" data-name="Trazado 400" d="M164,48.7a.264.264,0,0,1-.4-.017,4.564,4.564,0,0,0-2.924-1.315c-3.1,0-3.529,2.941-3.529,3.927s.45,3.91,3.546,3.91a5.19,5.19,0,0,0,3.028-1.211.3.3,0,0,1,.415.035l1,1.228a.318.318,0,0,1-.017.433,6.275,6.275,0,0,1-4.446,1.833c-4.619,0-6.02-3.633-6.02-6.228,0-2.525,1.4-6.21,6.02-6.21a5.915,5.915,0,0,1,4.533,2.058.3.3,0,0,1-.018.416Z" fill="#393c3d"/>
      <path id="Trazado_401" data-name="Trazado 401" d="M182.464,51.292c0,2.6-1.4,6.263-5.987,6.263-4.619,0-6.02-3.668-6.02-6.263,0-2.526,1.4-6.245,6.02-6.245,4.585,0,5.987,3.719,5.987,6.245m-2.492,0c0-.986-.45-3.961-3.495-3.961-3.1,0-3.529,2.975-3.529,3.961s.433,4,3.529,4c3.045,0,3.495-3.01,3.495-4" fill="#393c3d"/>
      <path id="Trazado_402" data-name="Trazado 402" d="M191.173,57.071a.3.3,0,0,1-.295.294h-1.832a.3.3,0,0,1-.295-.294V45.548a.3.3,0,0,1,.295-.294h4.289c3.321,0,4.325,2.319,4.325,3.928a3.823,3.823,0,0,1-2.387,3.6l2.041,4.325a.186.186,0,0,1-.173.26h-2.075a.463.463,0,0,1-.416-.26L192.8,53.161h-1.625Zm4.031-7.889a1.633,1.633,0,0,0-1.783-1.7h-2.248v3.408h2.319a1.665,1.665,0,0,0,1.712-1.712" fill="#393c3d"/>
      <path id="Trazado_403" data-name="Trazado 403" d="M206.361,57.071a.3.3,0,0,1-.294.294h-1.833a.3.3,0,0,1-.295-.294V45.548a.3.3,0,0,1,.295-.294h4.29c3.321,0,4.325,2.319,4.325,3.928a3.823,3.823,0,0,1-2.387,3.6L212.5,57.1a.187.187,0,0,1-.173.26h-2.076a.462.462,0,0,1-.415-.26l-1.852-3.944h-1.626Zm4.031-7.889a1.633,1.633,0,0,0-1.782-1.7h-2.249v3.408h2.319a1.665,1.665,0,0,0,1.712-1.712" fill="#393c3d"/>
      <path id="Trazado_404" data-name="Trazado 404" d="M226.038,52.659v-7.11a.3.3,0,0,1,.294-.295h1.886a.3.3,0,0,1,.294.295v7.11a4.81,4.81,0,1,1-9.619,0v-7.11a.3.3,0,0,1,.294-.295h1.869a.3.3,0,0,1,.293.295v7.11a2.509,2.509,0,0,0,2.354,2.6c1.868,0,2.335-1.886,2.335-2.6" fill="#393c3d"/>
      <path id="Trazado_405" data-name="Trazado 405" d="M237.777,57.071a.3.3,0,0,1-.294.294h-1.868a.3.3,0,0,1-.295-.294V45.548a.3.3,0,0,1,.295-.294h4.324c3.322,0,4.325,2.319,4.325,3.928a4.079,4.079,0,0,1-4.1,3.979h-2.388Zm4.031-7.889a1.633,1.633,0,0,0-1.782-1.7h-2.249v3.408H240.1a1.666,1.666,0,0,0,1.713-1.712" fill="#393c3d"/>
      <path id="Trazado_406" data-name="Trazado 406" d="M259.1,48.7a.264.264,0,0,1-.4-.017,4.564,4.564,0,0,0-2.924-1.315c-3.1,0-3.529,2.941-3.529,3.927s.45,3.91,3.546,3.91a5.19,5.19,0,0,0,3.028-1.211.3.3,0,0,1,.415.035l1,1.228a.321.321,0,0,1-.017.433,6.275,6.275,0,0,1-4.446,1.833c-4.619,0-6.02-3.633-6.02-6.228,0-2.525,1.4-6.21,6.02-6.21a5.915,5.915,0,0,1,4.533,2.058.3.3,0,0,1-.018.416Z" fill="#393c3d"/>
      <path id="Rectángulo_93" data-name="Rectángulo 93" d="M.294,0H2.162a.295.295,0,0,1,.295.295V11.816a.294.294,0,0,1-.294.294H.294A.294.294,0,0,1,0,11.816V.294A.294.294,0,0,1,.294,0Z" transform="translate(266.451 45.254)" fill="#393c3d"/>
      <path id="Trazado_407" data-name="Trazado 407" d="M287.163,51.292c0,2.6-1.4,6.262-5.985,6.262-4.619,0-6.02-3.667-6.02-6.262,0-2.526,1.4-6.246,6.02-6.246,4.584,0,5.985,3.72,5.985,6.246m-2.491,0c0-.987-.449-3.962-3.494-3.962-3.1,0-3.53,2.975-3.53,3.962s.433,4,3.53,4c3.045,0,3.494-3.01,3.494-4m-2.9-10.813a.28.28,0,0,1,.4.07l.779,1.089a.279.279,0,0,1-.069.4l-2.526,1.557a.307.307,0,0,1-.416-.086l-.553-.8a.3.3,0,0,1,.052-.416Z" fill="#393c3d"/>
      <path id="Trazado_408" data-name="Trazado 408" d="M293.746,57.365a.3.3,0,0,1-.294-.294V45.359a.233.233,0,0,1,.224-.242.563.563,0,0,1,.416.172l6.868,6.834V45.549a.3.3,0,0,1,.294-.294h1.869a.3.3,0,0,1,.294.294V57.261a.2.2,0,0,1-.208.208.557.557,0,0,1-.363-.139l-6.938-7.006v6.747a.3.3,0,0,1-.294.294Z" fill="#393c3d"/>
    </g>
  </g>
</svg>
