<?xml version="1.0" encoding="UTF-8"?><svg id="Capa_2" xmlns="http://www.w3.org/2000/svg" viewBox="0 0 215.83 70.28"><defs><style>.cls-1{fill:#ced8db;}.cls-2{fill:#3ab0e5;}.cls-3{fill:#5d5b5c;}</style></defs><g id="Capa_1-2"><path class="cls-3" d="m0,41.12h3.78c2.37,0,4.33.84,4.33,3.5s-1.98,3.69-4.25,3.69h-1.26v3.57H0v-10.76Zm3.72,5.15c1.26,0,1.87-.59,1.87-1.65s-.7-1.46-1.94-1.46h-1.06v3.11h1.13Z"/><path class="cls-3" d="m9.73,49.21v-8.88h2.56v8.98c0,.54.26.69.46.69.09,0,.14,0,.29-.03l.3,1.89c-.28.12-.71.22-1.27.22-1.76,0-2.34-1.16-2.34-2.88Z"/><path class="cls-3" d="m14.17,49.59c0-1.74,1.36-2.68,4.57-3.02-.06-.67-.41-1.06-1.24-1.06-.65,0-1.33.26-2.16.72l-.9-1.69c1.08-.65,2.26-1.08,3.54-1.08,2.13,0,3.33,1.19,3.33,3.76v4.67h-2.1l-.19-.82h-.06c-.68.61-1.45,1.03-2.36,1.03-1.52,0-2.45-1.13-2.45-2.5Zm4.57-.14v-1.32c-1.61.22-2.13.68-2.13,1.26,0,.48.35.71.88.71s.87-.25,1.24-.65Z"/><path class="cls-3" d="m23.31,48.83v-3.17h-1.11v-1.91l1.26-.1.29-2.17h2.14v2.17h1.94v2.01h-1.94v3.14c0,.91.43,1.27,1.04,1.27.26,0,.55-.09.75-.14l.4,1.85c-.43.13-1.03.3-1.87.3-2.07,0-2.91-1.3-2.91-3.25Z"/><path class="cls-3" d="m28.72,49.59c0-1.74,1.36-2.68,4.57-3.02-.06-.67-.41-1.06-1.24-1.06-.65,0-1.33.26-2.16.72l-.9-1.69c1.08-.65,2.26-1.08,3.54-1.08,2.13,0,3.33,1.19,3.33,3.76v4.67h-2.1l-.19-.82h-.06c-.68.61-1.45,1.03-2.36,1.03-1.52,0-2.45-1.13-2.45-2.5Zm4.57-.14v-1.32c-1.61.22-2.13.68-2.13,1.26,0,.48.35.71.88.71s.87-.25,1.24-.65Z"/><path class="cls-3" d="m42.61,42.31c-.26-.1-.56-.17-.84-.17-.56,0-.91.3-.91,1.13v.39h1.46v2.01h-1.46v6.22h-2.57v-6.22h-1.1v-1.91l1.1-.09v-.33c0-1.74.82-3.21,3.11-3.21.72,0,1.3.15,1.68.29l-.46,1.89Z"/><path class="cls-3" d="m42.97,47.78c0-2.73,1.94-4.33,4.04-4.33s4.02,1.59,4.02,4.33-1.94,4.31-4.02,4.31-4.04-1.59-4.04-4.31Zm5.42,0c0-1.37-.43-2.24-1.39-2.24s-1.4.87-1.4,2.24.43,2.23,1.4,2.23,1.39-.87,1.39-2.23Z"/><path class="cls-3" d="m52.65,43.66h2.1l.17,1.43h.06c.61-1.1,1.52-1.63,2.34-1.63.49,0,.77.07,1,.17l-.43,2.21c-.29-.07-.54-.13-.9-.13-.61,0-1.34.39-1.78,1.48v4.7h-2.56v-8.23Z"/><path class="cls-3" d="m59.36,43.66h2.1l.17,1.04h.06c.68-.68,1.39-1.24,2.5-1.24s1.84.48,2.26,1.36c.71-.72,1.47-1.36,2.57-1.36,1.79,0,2.58,1.29,2.58,3.34v5.09h-2.58v-4.77c0-1.13-.29-1.46-.94-1.46-.38,0-.82.23-1.32.74v5.5h-2.59v-4.77c0-1.13-.29-1.46-.94-1.46-.38,0-.82.23-1.32.74v5.5h-2.56v-8.23Z"/><path class="cls-3" d="m73.24,49.59c0-1.74,1.36-2.68,4.57-3.02-.06-.67-.41-1.06-1.24-1.06-.65,0-1.33.26-2.16.72l-.9-1.69c1.08-.65,2.26-1.08,3.54-1.08,2.13,0,3.33,1.19,3.33,3.76v4.67h-2.1l-.19-.82h-.06c-.68.61-1.45,1.03-2.36,1.03-1.52,0-2.45-1.13-2.45-2.5Zm4.57-.14v-1.32c-1.61.22-2.13.68-2.13,1.26,0,.48.35.71.88.71s.87-.25,1.24-.65Z"/><path class="cls-3" d="m85.89,41.12h3.1c3.28,0,5.45,1.58,5.45,5.32s-2.17,5.44-5.31,5.44h-3.24v-10.76Zm2.94,8.68c1.74,0,2.96-.8,2.96-3.36s-1.23-3.27-2.96-3.27h-.35v6.62h.35Z"/><path class="cls-3" d="m96.04,41.2c0-.78.61-1.33,1.48-1.33s1.46.55,1.46,1.33-.61,1.32-1.46,1.32-1.48-.55-1.48-1.32Zm.19,2.46h2.56v8.23h-2.56v-8.23Z"/><path class="cls-3" d="m100.36,53.27c0-.68.41-1.23,1.17-1.62v-.07c-.43-.29-.75-.72-.75-1.42,0-.58.38-1.16.91-1.53v-.06c-.58-.41-1.11-1.17-1.11-2.13,0-2.01,1.66-2.99,3.44-2.99.48,0,.93.07,1.3.2h3.02v1.87h-1.27c.13.23.23.61.23,1,0,1.92-1.46,2.76-3.28,2.76-.28,0-.61-.04-.97-.14-.19.17-.26.3-.26.58,0,.38.33.55,1.21.55h1.3c2.03,0,3.17.62,3.17,2.11,0,1.74-1.79,2.96-4.66,2.96-1.89,0-3.46-.59-3.46-2.07Zm5.66-.45c0-.49-.43-.59-1.2-.59h-.78c-.59,0-.91-.03-1.17-.1-.26.23-.39.46-.39.74,0,.58.69.87,1.75.87s1.79-.39,1.79-.91Zm-.96-6.38c0-.84-.43-1.27-1.04-1.27s-1.04.43-1.04,1.27.45,1.29,1.04,1.29,1.04-.43,1.04-1.29Z"/><path class="cls-3" d="m109.59,41.2c0-.78.61-1.33,1.48-1.33s1.46.55,1.46,1.33-.61,1.32-1.46,1.32-1.48-.55-1.48-1.32Zm.19,2.46h2.56v8.23h-2.56v-8.23Z"/><path class="cls-3" d="m114.75,48.83v-3.17h-1.11v-1.91l1.26-.1.29-2.17h2.14v2.17h1.94v2.01h-1.94v3.14c0,.91.43,1.27,1.04,1.27.26,0,.55-.09.75-.14l.4,1.85c-.43.13-1.03.3-1.87.3-2.07,0-2.91-1.3-2.91-3.25Z"/><path class="cls-3" d="m120.17,49.59c0-1.74,1.36-2.68,4.57-3.02-.06-.67-.41-1.06-1.24-1.06-.65,0-1.33.26-2.16.72l-.9-1.69c1.08-.65,2.26-1.08,3.54-1.08,2.13,0,3.33,1.19,3.33,3.76v4.67h-2.1l-.19-.82h-.06c-.68.61-1.45,1.03-2.36,1.03-1.52,0-2.44-1.13-2.44-2.5Zm4.57-.14v-1.32c-1.61.22-2.13.68-2.13,1.26,0,.48.35.71.88.71s.87-.25,1.24-.65Z"/><path class="cls-3" d="m129.29,49.21v-8.88h2.56v8.98c0,.54.26.69.46.69.09,0,.14,0,.29-.03l.3,1.89c-.28.12-.71.22-1.27.22-1.76,0-2.34-1.16-2.34-2.88Z"/><path class="cls-3" d="m137.61,41.12h2.63l2.68,5.15,1.06,2.39h.07c-.14-1.14-.35-2.69-.35-3.98v-3.56h2.46v10.76h-2.63l-2.66-5.19-1.06-2.36h-.07c.12,1.2.33,2.68.33,3.98v3.57h-2.46v-10.76Z"/><path class="cls-3" d="m148.09,49.59c0-1.74,1.36-2.68,4.57-3.02-.06-.67-.41-1.06-1.24-1.06-.65,0-1.33.26-2.16.72l-.9-1.69c1.08-.65,2.26-1.08,3.54-1.08,2.13,0,3.33,1.19,3.33,3.76v4.67h-2.1l-.19-.82h-.06c-.68.61-1.45,1.03-2.36,1.03-1.52,0-2.44-1.13-2.44-2.5Zm4.57-.14v-1.32c-1.61.22-2.13.68-2.13,1.26,0,.48.35.71.88.71s.87-.25,1.24-.65Z"/><path class="cls-3" d="m156.76,47.78c0-2.73,2.03-4.33,4.33-4.33,1,0,1.78.35,2.4.88l-1.2,1.65c-.38-.32-.69-.45-1.06-.45-1.13,0-1.84.87-1.84,2.24s.74,2.23,1.75,2.23c.52,0,1.01-.25,1.43-.58l.98,1.69c-.79.71-1.84.97-2.71.97-2.31,0-4.09-1.59-4.09-4.31Z"/><path class="cls-3" d="m164.8,41.2c0-.78.61-1.33,1.48-1.33s1.46.55,1.46,1.33-.61,1.32-1.46,1.32-1.48-.55-1.48-1.32Zm.19,2.46h2.56v8.23h-2.56v-8.23Z"/><path class="cls-3" d="m169.17,47.78c0-2.73,1.94-4.33,4.04-4.33s4.02,1.59,4.02,4.33-1.94,4.31-4.02,4.31-4.04-1.59-4.04-4.31Zm5.42,0c0-1.37-.43-2.24-1.39-2.24s-1.4.87-1.4,2.24.43,2.23,1.4,2.23,1.39-.87,1.39-2.23Z"/><path class="cls-3" d="m178.84,43.66h2.1l.17,1.03h.06c.68-.67,1.52-1.23,2.63-1.23,1.79,0,2.56,1.29,2.56,3.34v5.09h-2.58v-4.77c0-1.13-.3-1.46-.95-1.46-.58,0-.93.26-1.43.74v5.5h-2.56v-8.23Z"/><path class="cls-3" d="m188,49.59c0-1.74,1.36-2.68,4.57-3.02-.06-.67-.41-1.06-1.24-1.06-.65,0-1.33.26-2.16.72l-.9-1.69c1.08-.65,2.26-1.08,3.54-1.08,2.13,0,3.33,1.19,3.33,3.76v4.67h-2.1l-.19-.82h-.06c-.68.61-1.45,1.03-2.36,1.03-1.52,0-2.45-1.13-2.45-2.5Zm4.57-.14v-1.32c-1.61.22-2.13.68-2.13,1.26,0,.48.35.71.88.71s.87-.25,1.24-.65Z"/><path class="cls-3" d="m197.13,49.21v-8.88h2.56v8.98c0,.54.26.69.46.69.09,0,.14,0,.29-.03l.3,1.89c-.28.12-.71.22-1.27.22-1.76,0-2.34-1.16-2.34-2.88Z"/><path class="cls-3" d="m.04,57.6h1.2v9.45H.04v-9.45Z"/><path class="cls-3" d="m3.72,60.05h.97l.1,1.01h.04c.67-.66,1.39-1.19,2.35-1.19,1.47,0,2.14.95,2.14,2.75v4.44h-1.17v-4.28c0-1.32-.4-1.87-1.33-1.87-.72,0-1.21.36-1.92,1.07v5.08h-1.17v-7Z"/><path class="cls-3" d="m11.8,64.89v-3.88h-1.04v-.89l1.1-.06.14-1.96h.98v1.96h1.9v.95h-1.9v3.91c0,.86.27,1.35,1.08,1.35.25,0,.57-.09.8-.18l.23.88c-.4.13-.86.26-1.29.26-1.5,0-2-.93-2-2.33Z"/><path class="cls-3" d="m15.73,63.56c0-2.27,1.54-3.69,3.16-3.69,1.78,0,2.79,1.29,2.79,3.29,0,.26-.03.5-.05.67h-4.72c.08,1.5.99,2.45,2.32,2.45.68,0,1.24-.21,1.75-.55l.43.77c-.62.4-1.37.72-2.32.72-1.86,0-3.35-1.35-3.35-3.66Zm4.91-.57c0-1.42-.64-2.18-1.74-2.18-.99,0-1.87.8-2.01,2.18h3.75Z"/><path class="cls-3" d="m23.4,65.66v-8.87h1.17v8.95c0,.36.16.5.33.5.06,0,.12,0,.25-.03l.17.9c-.17.06-.37.1-.68.1-.88,0-1.24-.57-1.24-1.56Z"/><path class="cls-3" d="m26.86,57.85c0-.48.35-.76.81-.76s.81.28.81.76c0,.44-.35.76-.81.76s-.81-.32-.81-.76Zm.22,2.21h1.17v7h-1.17v-7Z"/><path class="cls-3" d="m30.08,68.39c0-.59.39-1.16,1.04-1.59v-.05c-.37-.22-.65-.59-.65-1.15s.43-1.04.79-1.3v-.05c-.46-.37-.92-1.04-.92-1.88,0-1.53,1.21-2.5,2.63-2.5.39,0,.73.09.98.18h2.44v.9h-1.43c.33.32.57.84.57,1.44,0,1.5-1.13,2.44-2.55,2.44-.35,0-.74-.09-1.04-.25-.26.22-.45.45-.45.84,0,.45.28.76,1.23.76h1.37c1.62,0,2.44.52,2.44,1.66,0,1.3-1.37,2.42-3.53,2.42-1.71,0-2.9-.67-2.9-1.88Zm5.3-.36c0-.64-.5-.86-1.43-.86h-1.21c-.26,0-.59-.04-.9-.12-.5.36-.72.77-.72,1.19,0,.75.76,1.24,2.04,1.24,1.34,0,2.23-.71,2.23-1.44Zm-.92-5.66c0-1.02-.66-1.64-1.48-1.64s-1.5.61-1.5,1.64.68,1.66,1.5,1.66,1.48-.64,1.48-1.66Z"/><path class="cls-3" d="m37.16,63.56c0-2.27,1.54-3.69,3.16-3.69,1.78,0,2.79,1.29,2.79,3.29,0,.26-.03.5-.05.67h-4.72c.08,1.5.99,2.45,2.32,2.45.68,0,1.24-.21,1.75-.55l.43.77c-.62.4-1.37.72-2.32.72-1.86,0-3.35-1.35-3.35-3.66Zm4.91-.57c0-1.42-.64-2.18-1.74-2.18-.99,0-1.87.8-2.01,2.18h3.75Z"/><path class="cls-3" d="m44.83,60.05h.97l.1,1.01h.04c.67-.66,1.39-1.19,2.35-1.19,1.47,0,2.14.95,2.14,2.75v4.44h-1.17v-4.28c0-1.32-.4-1.87-1.33-1.87-.72,0-1.21.36-1.92,1.07v5.08h-1.17v-7Z"/><path class="cls-3" d="m52.18,63.56c0-2.33,1.59-3.69,3.38-3.69.92,0,1.55.39,2.05.83l-.61.79c-.41-.37-.84-.63-1.41-.63-1.26,0-2.19,1.1-2.19,2.71s.88,2.68,2.17,2.68c.64,0,1.21-.3,1.65-.7l.5.79c-.62.57-1.42.89-2.26.89-1.86,0-3.29-1.34-3.29-3.66Z"/><path class="cls-3" d="m59.05,57.85c0-.48.35-.76.81-.76s.81.28.81.76c0,.44-.35.76-.81.76s-.81-.32-.81-.76Zm.22,2.21h1.17v7h-1.17v-7Z"/><path class="cls-3" d="m62.37,65.23c0-1.52,1.33-2.28,4.31-2.62,0-.9-.3-1.77-1.44-1.77-.81,0-1.55.37-2.1.75l-.46-.81c.65-.41,1.64-.92,2.76-.92,1.7,0,2.42,1.15,2.42,2.88v4.31h-.97l-.1-.84h-.04c-.67.55-1.46,1.01-2.32,1.01-1.17,0-2.05-.72-2.05-1.99Zm4.31.12v-1.96c-2.36.28-3.16.86-3.16,1.77,0,.8.54,1.12,1.24,1.12s1.24-.32,1.92-.93Z"/><path class="cls-3" d="m72.47,63.56c0-2.27,1.43-3.69,3.03-3.69.83,0,1.35.31,1.97.83l-.06-1.21v-2.7h1.17v10.26h-.95l-.12-.83h-.03c-.55.54-1.29.99-2.13.99-1.75,0-2.89-1.33-2.89-3.66Zm4.94,1.71v-3.67c-.59-.53-1.12-.74-1.7-.74-1.13,0-2.02,1.08-2.02,2.68,0,1.69.7,2.69,1.93,2.69.64,0,1.21-.32,1.79-.97Z"/><path class="cls-3" d="m80.43,63.56c0-2.27,1.54-3.69,3.16-3.69,1.78,0,2.79,1.29,2.79,3.29,0,.26-.03.5-.05.67h-4.72c.08,1.5.99,2.45,2.32,2.45.68,0,1.24-.21,1.75-.55l.43.77c-.62.4-1.37.72-2.32.72-1.86,0-3.35-1.35-3.35-3.66Zm4.91-.57c0-1.42-.64-2.18-1.74-2.18-.99,0-1.87.8-2.01,2.18h3.75Z"/><path class="cls-3" d="m91.09,57.6h2.37c2.9,0,4.46,1.69,4.46,4.69s-1.56,4.76-4.41,4.76h-2.42v-9.45Zm2.27,8.47c2.23,0,3.33-1.39,3.33-3.78s-1.1-3.73-3.33-3.73h-1.07v7.5h1.07Z"/><path class="cls-3" d="m99.41,65.23c0-1.52,1.33-2.28,4.31-2.62,0-.9-.3-1.77-1.44-1.77-.81,0-1.55.37-2.1.75l-.46-.81c.65-.41,1.64-.92,2.76-.92,1.7,0,2.42,1.15,2.42,2.88v4.31h-.97l-.1-.84h-.04c-.67.55-1.46,1.01-2.32,1.01-1.17,0-2.05-.72-2.05-1.99Zm4.31.12v-1.96c-2.36.28-3.16.86-3.16,1.77,0,.8.54,1.12,1.24,1.12s1.24-.32,1.92-.93Z"/><path class="cls-3" d="m107.13,64.89v-3.88h-1.04v-.89l1.1-.06.14-1.96h.98v1.96h1.9v.95h-1.9v3.91c0,.86.27,1.35,1.08,1.35.25,0,.57-.09.8-.18l.23.88c-.4.13-.86.26-1.29.26-1.5,0-2-.93-2-2.33Z"/><path class="cls-3" d="m111.06,63.56c0-2.33,1.54-3.69,3.25-3.69s3.25,1.35,3.25,3.69-1.53,3.66-3.25,3.66-3.25-1.34-3.25-3.66Zm5.29,0c0-1.61-.83-2.71-2.04-2.71s-2.02,1.1-2.02,2.71.81,2.68,2.02,2.68,2.04-1.07,2.04-2.68Z"/><path class="cls-3" d="m118.62,66.25l.58-.77c.61.49,1.24.83,2.08.83.93,0,1.38-.49,1.38-1.1,0-.71-.83-1.03-1.6-1.33-.98-.36-2.09-.84-2.09-2.02,0-1.11.89-1.99,2.41-1.99.86,0,1.62.36,2.18.79l-.57.76c-.49-.36-.98-.62-1.61-.62-.88,0-1.28.46-1.28,1.01,0,.67.76.92,1.55,1.21,1.02.39,2.14.8,2.14,2.13,0,1.13-.9,2.08-2.55,2.08-.99,0-1.95-.41-2.62-.97Z"/><path class="cls-3" d="m132.76,64.16h-3.46l-.92,2.89h-1.21l3.21-9.45h1.33l3.21,9.45h-1.26l-.9-2.89Zm-.3-.95l-.45-1.44c-.35-1.07-.64-2.1-.95-3.2h-.05c-.3,1.11-.61,2.13-.94,3.2l-.46,1.44h2.86Z"/><path class="cls-3" d="m136.15,60.05h.97l.1,1.01h.04c.67-.66,1.39-1.19,2.35-1.19,1.47,0,2.14.95,2.14,2.75v4.44h-1.17v-4.28c0-1.32-.4-1.87-1.33-1.87-.72,0-1.21.36-1.92,1.07v5.08h-1.17v-7Z"/><path class="cls-3" d="m144.23,64.89v-3.88h-1.04v-.89l1.1-.06.14-1.96h.98v1.96h1.9v.95h-1.9v3.91c0,.86.27,1.35,1.08,1.35.25,0,.57-.09.8-.18l.23.88c-.4.13-.86.26-1.29.26-1.5,0-2-.93-2-2.33Z"/><path class="cls-3" d="m148.67,57.85c0-.48.35-.76.81-.76s.81.28.81.76c0,.44-.35.76-.81.76s-.81-.32-.81-.76Zm.22,2.21h1.17v7h-1.17v-7Z"/><path class="cls-3" d="m151.9,63.56c0-2.33,1.59-3.69,3.38-3.69.92,0,1.55.39,2.05.83l-.61.79c-.41-.37-.84-.63-1.41-.63-1.26,0-2.19,1.1-2.19,2.71s.88,2.68,2.17,2.68c.64,0,1.21-.3,1.65-.7l.5.79c-.62.57-1.42.89-2.26.89-1.86,0-3.29-1.34-3.29-3.66Z"/><path class="cls-3" d="m158.15,63.56c0-2.33,1.54-3.69,3.25-3.69s3.25,1.35,3.25,3.69-1.53,3.66-3.25,3.66-3.25-1.34-3.25-3.66Zm5.29,0c0-1.61-.83-2.71-2.04-2.71s-2.02,1.1-2.02,2.71.81,2.68,2.02,2.68,2.04-1.07,2.04-2.68Z"/><path class="cls-3" d="m166.49,60.05h.97l.1,1.28h.04c.49-.89,1.2-1.46,1.99-1.46.31,0,.53.04.75.15l-.22,1.03c-.23-.09-.4-.12-.68-.12-.58,0-1.3.41-1.77,1.61v4.5h-1.17v-7Z"/><path class="cls-3" d="m171.5,60.05h.97l.1,1.28h.04c.49-.89,1.2-1.46,1.99-1.46.31,0,.53.04.75.15l-.22,1.03c-.23-.09-.4-.12-.68-.12-.58,0-1.3.41-1.77,1.61v4.5h-1.17v-7Z"/><path class="cls-3" d="m176.41,64.49v-4.44h1.17v4.29c0,1.3.39,1.86,1.31,1.86.72,0,1.23-.35,1.9-1.19v-4.96h1.17v7h-.98l-.09-1.1h-.04c-.66.76-1.35,1.26-2.32,1.26-1.47,0-2.13-.95-2.13-2.73Z"/><path class="cls-3" d="m184.32,60.05h.97l.1.8h.04c.63-.52,1.42-.98,2.23-.98,1.81,0,2.79,1.42,2.79,3.57,0,2.4-1.43,3.78-3.04,3.78-.63,0-1.3-.3-1.93-.81l.03,1.22v2.37h-1.17v-9.95Zm4.9,3.4c0-1.55-.52-2.59-1.84-2.59-.59,0-1.2.34-1.88.97v3.67c.63.54,1.25.73,1.71.73,1.16,0,2.01-1.04,2.01-2.79Z"/><path class="cls-3" d="m191.79,63.56c0-2.33,1.59-3.69,3.38-3.69.92,0,1.55.39,2.05.83l-.61.79c-.41-.37-.84-.63-1.41-.63-1.26,0-2.19,1.1-2.19,2.71s.88,2.68,2.17,2.68c.64,0,1.21-.3,1.65-.7l.5.79c-.62.57-1.42.89-2.26.89-1.86,0-3.29-1.34-3.29-3.66Z"/><path class="cls-3" d="m198.66,57.85c0-.48.35-.76.81-.76s.81.28.81.76c0,.44-.35.76-.81.76s-.81-.32-.81-.76Zm.22,2.21h1.17v7h-1.17v-7Z"/><path class="cls-3" d="m201.89,63.56c0-2.33,1.54-3.69,3.25-3.69s3.25,1.35,3.25,3.69-1.53,3.66-3.25,3.66-3.25-1.34-3.25-3.66Zm5.29,0c0-1.61-.83-2.71-2.04-2.71s-2.02,1.1-2.02,2.71.81,2.68,2.02,2.68,2.04-1.07,2.04-2.68Zm-2.85-5.35l2.04-2.4.83.79-2.26,2.19-.61-.58Z"/><path class="cls-3" d="m210.23,60.05h.97l.1,1.01h.04c.67-.66,1.39-1.19,2.35-1.19,1.47,0,2.14.95,2.14,2.75v4.44h-1.17v-4.28c0-1.32-.4-1.87-1.33-1.87-.72,0-1.21.36-1.92,1.07v5.08h-1.17v-7Z"/><path class="cls-1" d="m22.11,10.15c0,3.3-1.03,5.82-3.09,7.57-2.06,1.75-4.99,2.62-8.8,2.62h-2.79v10.91H.93V.59h9.79c3.72,0,6.55.8,8.48,2.4,1.94,1.6,2.9,3.99,2.9,7.16Zm-14.68,4.87h2.14c2,0,3.5-.39,4.49-1.18.99-.79,1.49-1.94,1.49-3.45s-.42-2.65-1.25-3.38c-.83-.73-2.14-1.09-3.91-1.09h-2.96v9.1Z"/><path class="cls-1" d="m86.89,31.25h-8.26l-13.34-23.2h-.19c.27,4.1.4,7.02.4,8.77v14.43h-5.81V.59h8.2l13.32,22.96h.15c-.21-3.98-.31-6.8-.31-8.45V.59h5.85v30.66Z"/><path class="cls-2" d="m33.55,31.74v-.47c0-1.77,0-3.55,0-5.32,4.84.14,7.65-.11,8.81-.5,3.66-1.03,5.7-3.52,6.36-7.2.39-2.16.34-4.31-.23-6.43-.97-3.59-3.4-5.64-6.99-6.34-1.04-.2-2.12-.28-3.18-.29-4.4-.03-8.79-.01-13.19-.01-.17,0-.34,0-.53,0V0c.15,0,.3,0,.45,0,4.16,0,8.32-.01,12.49,0,2.58.01,5.13.31,7.56,1.23,3.98,1.51,6.61,4.31,7.8,8.37,1.27,4.35,1.29,8.74-.17,13.04-1.53,4.52-4.77,7.25-9.34,8.44-1.1.29-5.31.86-9.85.65Z"/><path class="cls-2" d="m33.63,14.88c0-1.38.01-2.76,0-4.14,0-.35.1-.47.45-.45,1.41.07,3.56.02,4.96.19,2.37.28,3.59,1.79,3.55,4.18-.02,1.33-.26,2.6-1.28,3.57-.88.84-2,1.18-3.17,1.26-1.12.08-2.99.01-4.11.02-.32,0-.39-.14-.39-.43.01-1.4,0-2.79,0-4.19Z"/></g></svg>