<svg xmlns="http://www.w3.org/2000/svg" xmlns:xlink="http://www.w3.org/1999/xlink" width="196.847" height="88.817" viewBox="0 0 196.847 88.817">
  <defs>
    <clipPath id="clip-path">
      <rect id="Rect치ngulo_96" data-name="Rect치ngulo 96" width="196.847" height="88.817" transform="translate(0 0)" fill="none"/>
    </clipPath>
  </defs>
  <g id="Grupo_170" data-name="Grupo 170" transform="translate(0 0)">
    <g id="Grupo_169" data-name="Grupo 169" clip-path="url(#clip-path)">
      <path id="Trazado_409" data-name="Trazado 409" d="M101.249,11.4a3.421,3.421,0,0,1-1.036,2.45,3.7,3.7,0,0,1-2.637,1.036,3.581,3.581,0,0,1-1.79-.377,6.323,6.323,0,0,1-1.6-1.13l.754-1.319A4.727,4.727,0,0,0,96.163,13a3.939,3.939,0,0,0,1.507.377,2.308,2.308,0,0,0,1.507-.565,1.979,1.979,0,0,0,.659-1.319,1.953,1.953,0,0,0-.471-1.13,3.253,3.253,0,0,0-1.13-.66l-1.413-.564a3.36,3.36,0,0,1-1.695-1.131,2.714,2.714,0,0,1-.565-1.789A2.723,2.723,0,0,1,95.5,4.051,3.438,3.438,0,0,1,97.858,3.2a4.4,4.4,0,0,1,1.6.283,3.594,3.594,0,0,1,1.225.848l-.754,1.13a6,6,0,0,0-.941-.659,2.909,2.909,0,0,0-1.225-.283,1.791,1.791,0,0,0-1.224.471,1.561,1.561,0,0,0-.471,1.131,1.417,1.417,0,0,0,.377,1.036,1.6,1.6,0,0,0,.941.565l1.225.471a4.608,4.608,0,0,1,2.072,1.318,3.394,3.394,0,0,1,.565,1.883" fill="#57585a"/>
      <path id="Trazado_410" data-name="Trazado 410" d="M110.668,14.693h-5.839V3.579h5.933V5.086h-4.427V7.912h4.333V9.23h-4.333v4.05h4.427v1.413Z" fill="#57585a"/>
      <path id="Trazado_411" data-name="Trazado 411" d="M122.158,5.84a6.515,6.515,0,0,0-1.319-.753,4.386,4.386,0,0,0-1.6-.283,4.19,4.19,0,0,0-3.108,1.224,4.329,4.329,0,0,0-1.318,3.2,4.937,4.937,0,0,0,1.036,3.108,4.044,4.044,0,0,0,3.2,1.318,3.7,3.7,0,0,0,1.695-.376,5.356,5.356,0,0,0,1.225-.754v1.7a4.116,4.116,0,0,1-1.225.47,7.006,7.006,0,0,1-1.883.283,5.4,5.4,0,0,1-4.145-1.695,5.965,5.965,0,0,1-1.507-4.05,5.479,5.479,0,0,1,1.7-4.05,5.475,5.475,0,0,1,4.05-1.7,9.3,9.3,0,0,1,1.6.189,4.992,4.992,0,0,1,1.318.565Z" fill="#57585a"/>
      <path id="Trazado_412" data-name="Trazado 412" d="M132.519,14.693h-1.79l-3.39-4.709h-.471v4.709h-1.6V3.579h2.448a4.99,4.99,0,0,1,2.638.565,2.565,2.565,0,0,1,1.224,2.449,3.042,3.042,0,0,1-.659,2.072,4.183,4.183,0,0,1-1.978,1.224Zm-2.449-8.1a1.552,1.552,0,0,0-.753-1.413,3.768,3.768,0,0,0-1.7-.377h-.753V8.665h.565a3.346,3.346,0,0,0,1.789-.471,1.851,1.851,0,0,0,.848-1.6" fill="#57585a"/>
      <path id="Trazado_413" data-name="Trazado 413" d="M141.843,14.693H136V3.579h5.933V5.086H137.51V7.912h4.333V9.23H137.51v4.05h4.427v1.413Z" fill="#57585a"/>
      <path id="Trazado_414" data-name="Trazado 414" d="M151.45,3.579V5.086h-2.543v9.607h-1.6v-9.7h-2.543V3.579Z" fill="#57585a"/>
      <path id="Trazado_415" data-name="Trazado 415" d="M164.918,14.693h-1.6L162,11.868h-4.8l-1.319,2.825h-1.6l5.18-11.585Zm-3.579-4.144L159.455,6.5l-1.789,4.05Z" fill="#57585a"/>
      <path id="Trazado_416" data-name="Trazado 416" d="M175,14.693h-1.79l-3.39-4.709h-.471v4.709h-1.6V3.579h2.448a4.99,4.99,0,0,1,2.638.565,2.565,2.565,0,0,1,1.224,2.449,3.043,3.043,0,0,1-.659,2.072,4.183,4.183,0,0,1-1.978,1.224Zm-2.448-8.1a1.553,1.553,0,0,0-.754-1.413,3.768,3.768,0,0,0-1.7-.377h-.753V8.665h.565a3.343,3.343,0,0,0,1.789-.471,1.852,1.852,0,0,0,.849-1.6" fill="#57585a"/>
      <path id="Trazado_417" data-name="Trazado 417" d="M180.742.565,178.481,2.92l-.753-.471L179.517,0Zm-.66,14.128h-1.507V3.579h1.507Z" fill="#57585a"/>
      <path id="Trazado_418" data-name="Trazado 418" d="M194.022,14.693h-1.6L191.1,11.868h-4.8l-1.319,2.825h-1.6l5.18-11.585Zm-3.485-4.144L188.653,6.5l-1.789,4.05Z" fill="#57585a"/>
      <path id="Trazado_419" data-name="Trazado 419" d="M100.4,32.494H94.563V21.38H100.5v1.507H96.069v2.826H100.4v1.318H96.069v4.05H100.5v1.413Z" fill="#57585a"/>
      <path id="Trazado_420" data-name="Trazado 420" d="M109.914,28.538a6.6,6.6,0,0,1-.471,2.637,2.538,2.538,0,0,1-1.6,1.319,3.867,3.867,0,0,1-1.695,0,4.609,4.609,0,0,1-.66-.283l.66-1.13a.291.291,0,0,1,.188.094,1.843,1.843,0,0,0,.659.094.706.706,0,0,0,.471-.094,1.881,1.881,0,0,0,.754-.942,4.367,4.367,0,0,0,.188-1.318V21.286h1.507Z" fill="#57585a"/>
      <path id="Trazado_421" data-name="Trazado 421" d="M121.782,32.494h-5.839V21.38h5.933v1.507h-4.427v2.826h4.333v1.318h-4.333v4.05h4.427v1.413Z" fill="#57585a"/>
      <path id="Trazado_422" data-name="Trazado 422" d="M134.873,23.641a6.516,6.516,0,0,0-1.319-.753,4.386,4.386,0,0,0-1.6-.283,4.19,4.19,0,0,0-3.108,1.224,4.329,4.329,0,0,0-1.318,3.2,4.936,4.936,0,0,0,1.036,3.108,4.044,4.044,0,0,0,3.2,1.318,3.7,3.7,0,0,0,1.7-.376,5.356,5.356,0,0,0,1.225-.754v1.695a4.084,4.084,0,0,1-1.225.471,7.006,7.006,0,0,1-1.883.283,5.4,5.4,0,0,1-4.145-1.695,5.965,5.965,0,0,1-1.507-4.05,5.791,5.791,0,0,1,5.746-5.746,9.3,9.3,0,0,1,1.6.189,4.992,4.992,0,0,1,1.318.565Z" fill="#57585a"/>
      <path id="Trazado_423" data-name="Trazado 423" d="M147.683,28.727a3.837,3.837,0,0,1-1.13,2.826,3.906,3.906,0,0,1-2.92,1.13,3.975,3.975,0,0,1-3.108-1.319,3.785,3.785,0,0,1-.942-2.637V21.381h1.507v7.063a3.015,3.015,0,0,0,.754,2.167,2.342,2.342,0,0,0,1.789.659,2.3,2.3,0,0,0,1.884-.659,3.454,3.454,0,0,0,.753-2.449V21.381h1.507v7.346Z" fill="#57585a"/>
      <path id="Trazado_424" data-name="Trazado 424" d="M159.644,21.38v1.507H157.1v9.607h-1.507v-9.7h-2.543V21.286h6.593Z" fill="#57585a"/>
      <rect id="Rect치ngulo_95" data-name="Rect치ngulo 95" width="1.507" height="11.114" transform="translate(165.484 21.38)" fill="#57585a"/>
      <path id="Trazado_425" data-name="Trazado 425" d="M181.966,21.38l-4.709,11.585-4.8-11.585h1.7l3.2,7.817,3.2-7.817Z" fill="#57585a"/>
      <path id="Trazado_426" data-name="Trazado 426" d="M194.022,32.494h-1.6L191.1,29.669h-4.8l-1.319,2.825h-1.6l5.18-11.585Zm-3.485-4.144-1.884-4.05-1.789,4.05Z" fill="#57585a"/>
      <path id="Trazado_427" data-name="Trazado 427" d="M108.313,55.475l-4.05-1.6a8.042,8.042,0,0,1-3.108-1.978,4.586,4.586,0,0,1-1.13-3.2,4.437,4.437,0,0,1,1.507-3.485,5.578,5.578,0,0,1,3.861-1.413,8.549,8.549,0,0,1,3.956,1.036,20.9,20.9,0,0,1,3.2,2.166l.377.283,2.92-4.615-.283-.283a14.463,14.463,0,0,0-9.889-3.956,12.367,12.367,0,0,0-8.383,3.014,9.9,9.9,0,0,0-3.485,7.629,9.731,9.731,0,0,0,1.978,6.311,14.491,14.491,0,0,0,6.122,4.05l4.8,1.789a8.78,8.78,0,0,1,3.485,2.072,4.623,4.623,0,0,1,1.412,3.391,5.355,5.355,0,0,1-1.977,4.238,7.128,7.128,0,0,1-4.8,1.7,10.05,10.05,0,0,1-4.8-1.13,16.173,16.173,0,0,1-3.956-3.3l-.377-.471-3.108,5.274.283.283a22.808,22.808,0,0,0,5.462,3.767,15.558,15.558,0,0,0,6.4,1.319,12.871,12.871,0,0,0,9.23-3.579,11.661,11.661,0,0,0,3.673-8.759,9.324,9.324,0,0,0-2.166-6.311,23.232,23.232,0,0,0-7.158-4.238" fill="#57585a"/>
      <path id="Trazado_428" data-name="Trazado 428" d="M150.414,65.176,121.97,37.3V77.8h6.122V51.425l28.35,28.161v-40.4h-6.028Z" fill="#57585a"/>
      <path id="Trazado_429" data-name="Trazado 429" d="M177.54,37.015,159.268,77.8h6.4l4.333-9.7h15.729l4.521,9.7h6.593Zm5.745,25.9h-11.02L177.54,50.86Z" fill="#57585a"/>
      <path id="Trazado_430" data-name="Trazado 430" d="M78.645,22.039a.291.291,0,0,1-.094-.188c.282.471.565.941.753,1.318-.282-.471-.471-.942-.753-1.318a55.341,55.341,0,0,1,3.956,9.7q.564,2.26,1.13,4.521c1.507,10.548-1.507,21.756-10.643,28.349a29.763,29.763,0,0,1-30.139,2.261C34,62.539,30.234,55,30.7,47.186c.376-6.875,5.557-12.055,12.15-12.055a12.025,12.025,0,0,1,7.911,3.108l5.745-5.745A18.279,18.279,0,0,0,43.42,26.842C31.741,26.56,23.452,35.79,23.735,46.81,24.3,65.929,40.782,73.653,55.1,73.087c15.729-.659,22.981-8.947,26.654-17.235.094-.283.188-.471.283-.754-5.181,14.222-19.5,24.017-40.5,19.214C26.09,70.733,19.214,59.148,19.214,45.68c0-12.433,10.643-23.17,23.075-23.17a24.729,24.729,0,0,1,16.483,6.875l.282.283L64.8,23.923A30.7,30.7,0,0,0,12.433,45.68c0,16.953,12.621,33.624,35.79,33.718,22.134.188,35.508-16.859,36.356-33.342,0-.565.094-1.13.094-1.695v-.942c1.036,24.488-19.026,42.572-44.738,38.993A36.6,36.6,0,0,1,8.477,45.962C8.477,27.5,24.3,11.4,42.76,11.4,51.8,11.4,61.127,15.069,67.154,21l.377.377,5.745-5.746A42.168,42.168,0,0,0,42.949,2.919a43.025,43.025,0,1,0,35.7,19.12" fill="#a0aec5"/>
      <path id="Trazado_431" data-name="Trazado 431" d="M85.709,18.837A97.19,97.19,0,0,0,87.31,1.6,97.19,97.19,0,0,0,70.074,3.2a42.6,42.6,0,0,1,8.383,6.5l.376.377.377.376a48.97,48.97,0,0,1,6.5,8.383" fill="#df261d"/>
    </g>
  </g>
</svg>
