<svg xmlns="http://www.w3.org/2000/svg" xmlns:xlink="http://www.w3.org/1999/xlink" width="85.679" height="31" viewBox="0 0 85.679 31">
  <defs>
    <linearGradient id="linear-gradient" y1="0.5" x2="1" y2="0.5" gradientUnits="objectBoundingBox">
      <stop offset="0" stop-color="#f5f5f5"/>
      <stop offset="0.212" stop-color="#fff"/>
      <stop offset="0.704" stop-color="#fbfbfb"/>
      <stop offset="1" stop-color="#f5f5f5"/>
    </linearGradient>
  </defs>
  <g id="logo_pdn-transparente" transform="translate(42.839 15.5)">
    <g id="logo_pdn-transparente-2" data-name="logo_pdn-transparente" transform="translate(-42.839 -15.5)">
      <g id="Grupo_4" data-name="Grupo 4" transform="translate(0 0.577)" opacity="0.63">
        <g id="Grupo_3" data-name="Grupo 3">
          <path id="Trazado_5" data-name="Trazado 5" d="M21.111,10.164q0,4.828-3.083,7.383T9.26,20.1H6.48V30.739H0V.839H9.762q5.56,0,8.454,2.341T21.111,10.164ZM6.48,14.91H8.612a7.214,7.214,0,0,0,4.473-1.156,4.005,4.005,0,0,0,1.484-3.364A4.1,4.1,0,0,0,13.325,7.1a5.921,5.921,0,0,0-3.9-1.064H6.48Z" transform="translate(0 -0.839)" fill="url(#linear-gradient)"/>
          <path id="Trazado_6" data-name="Trazado 6" d="M112.236,30.739H104L90.707,8.12h-.188q.4,5.993.4,8.549V30.739h-5.79V.839H93.3l13.273,22.394h.147q-.314-5.829-.314-8.242V.839h5.832Z" transform="translate(-26.558 -0.839)" fill="url(#linear-gradient)"/>
        </g>
      </g>
      <path id="Trazado_7" data-name="Trazado 7" d="M43.21,30.955v-5.64c4.826.136,7.625-.1,8.781-.488a8.286,8.286,0,0,0,6.334-7.019,13.954,13.954,0,0,0-.226-6.273,8.238,8.238,0,0,0-6.963-6.185,17.653,17.653,0,0,0-3.166-.281c-4.382-.03-8.765-.012-13.148-.012h-.526V0h.448c4.148,0,8.3-.014,12.444.006a21.781,21.781,0,0,1,7.539,1.2A12.053,12.053,0,0,1,62.5,9.374a20.352,20.352,0,0,1-.167,12.72c-1.521,4.4-4.754,7.068-9.307,8.227A42.756,42.756,0,0,1,43.21,30.955Z" transform="translate(-10.699 0)" fill="#fafeff"/>
      <path id="Trazado_8" data-name="Trazado 8" d="M47.362,19.06c0-1.346.011-2.693-.008-4.039,0-.342.1-.458.451-.441,1.4.066,3.55.02,4.941.182a3.666,3.666,0,0,1,3.538,4.073A4.533,4.533,0,0,1,55,22.313a4.99,4.99,0,0,1-3.161,1.23c-1.118.075-2.977.013-4.1.023-.317,0-.389-.138-.386-.422C47.368,21.784,47.362,20.422,47.362,19.06Z" transform="translate(-14.773 -4.548)" fill="#fafeff"/>
    </g>
  </g>
</svg>
