<?xml version="1.0" encoding="UTF-8"?>
<svg id="Capa_1" data-name="Capa 1" xmlns="http://www.w3.org/2000/svg" version="1.1" viewBox="0 0 32 32">
  <defs>
    <style>
      .cls-1 {
        fill: #a0b0c7;
        stroke-width: 0px;
      }
    </style>
  </defs>
  <path class="cls-1" d="M15.8,13.3l-2.1,1.1c-.6-1.2-1.6-1.3-1.7-1.3-1.4,0-2.1.9-2.1,2.8s.6,2.8,2.1,2.8,1.6-.5,1.9-1.4l1.9,1c-.4.7-1.6,2.5-4.1,2.5s-4.7-.7-4.7-4.9,2.7-4.9,4.6-4.9,3.4.8,4.2,2.3h0ZM24.9,13.3l-2.1,1.1c-.6-1.3-1.6-1.3-1.8-1.3-1.4,0-2.1.9-2.1,2.8s.6,2.8,2.1,2.8,1.6-.5,1.9-1.4l2,1c-.1.2-1.4,2.5-4.1,2.5s-4.7-.6-4.7-4.9,2.7-4.9,4.6-4.9,3.3.8,4.2,2.3h0ZM16,.2C6.9.2.2,7.5.2,16s7.2,15.8,15.7,15.8,15.8-6.4,15.8-15.8S25,.2,16,.2ZM16,28.8c-7.2,0-12.9-5.9-12.9-12.9S8.5,3,16,3s12.9,5.7,12.9,12.9-6.3,12.9-12.9,12.9h0Z"/>
</svg>