<svg id="Capa_1" data-name="Capa 1" xmlns="http://www.w3.org/2000/svg" viewBox="0 0 92.57 31.77"><defs><style>.cls-1,.cls-2{fill:#a0b0c7;}.cls-1{fill-rule:evenodd;}</style></defs><path class="cls-1" d="M76.28,0a16.29,16.29,0,0,0-5.15,31.75c.82.15,1.11-.36,1.11-.79s0-1.41,0-2.77c-4.53,1-5.48-2.18-5.48-2.18a4.41,4.41,0,0,0-1.81-2.39c-1.48-1,.11-1,.11-1a3.43,3.43,0,0,1,2.49,1.68,3.48,3.48,0,0,0,4.74,1.36,3.46,3.46,0,0,1,1-2.18c-3.62-.41-7.42-1.81-7.42-8a6.26,6.26,0,0,1,1.68-4.37,5.83,5.83,0,0,1,.16-4.31s1.36-.44,4.47,1.67a15.41,15.41,0,0,1,8.16,0c3.11-2.11,4.48-1.67,4.48-1.67A5.88,5.88,0,0,1,85,11.07a6.3,6.3,0,0,1,1.67,4.37c0,6.26-3.81,7.63-7.43,8a3.88,3.88,0,0,1,1.1,3c0,2.18,0,3.94,0,4.47s.29.94,1.12.78A16.29,16.29,0,0,0,76.28,0Z"/><path class="cls-2" d="M10.62,14.4H6a.22.22,0,0,0-.22.22v2.26A.22.22,0,0,0,6,17.1H7.8v2.81a5.46,5.46,0,0,1-1.53.14c-1.33,0-3.18-.48-3.18-4.55S5,10.9,6.83,10.9a7.19,7.19,0,0,1,2.67.41c.13,0,.26-.1.26-.22l.51-2.19a.22.22,0,0,0-.08-.17C10,8.61,9,8,6.27,8,3.17,8,0,9.33,0,15.66s3.63,7.27,6.7,7.27a7.56,7.56,0,0,0,4.07-1.08.21.21,0,0,0,.07-.17V14.62A.22.22,0,0,0,10.62,14.4Z"/><path class="cls-2" d="M34.51,8.77a.21.21,0,0,0-.22-.21H31.68a.21.21,0,0,0-.22.21v5.05H27.4V8.77a.21.21,0,0,0-.22-.21H24.57a.21.21,0,0,0-.21.21V22.43a.21.21,0,0,0,.21.22h2.61a.22.22,0,0,0,.22-.22V16.59h4.07v5.84a.21.21,0,0,0,.21.22h2.62a.23.23,0,0,0,.22-.22Z"/><path class="cls-2" d="M15.55,10.57a1.69,1.69,0,1,0-1.69,1.7A1.7,1.7,0,0,0,15.55,10.57Z"/><path class="cls-2" d="M15.36,19.55V13.24a.22.22,0,0,0-.22-.21h-2.6a.24.24,0,0,0-.22.24v9c0,.27.16.34.38.34H15c.26,0,.32-.12.32-.34Z"/><path class="cls-2" d="M44.42,13.05H41.83a.21.21,0,0,0-.21.22V20a2.94,2.94,0,0,1-1.59.48c-.94,0-1.19-.42-1.19-1.34V13.27a.21.21,0,0,0-.21-.22H36a.21.21,0,0,0-.21.22v6.28c0,2.71,1.51,3.38,3.59,3.38A6.06,6.06,0,0,0,42.47,22a5.3,5.3,0,0,0,.09.56.23.23,0,0,0,.19.12h1.67a.22.22,0,0,0,.22-.22V13.27A.22.22,0,0,0,44.42,13.05Z"/><path class="cls-2" d="M51.5,12.74A4.85,4.85,0,0,0,49,13.4V8.77a.21.21,0,0,0-.22-.21H46.2a.21.21,0,0,0-.22.21V22.43a.22.22,0,0,0,.22.22H48a.22.22,0,0,0,.19-.12,3.64,3.64,0,0,0,.11-.63,4.67,4.67,0,0,0,3.1,1c2.38,0,3.74-1.21,3.74-5.42S53,12.74,51.5,12.74Zm-1,7.69A3,3,0,0,1,49,20V15.68a3.48,3.48,0,0,1,1.34-.44c.93-.08,1.83.2,1.83,2.42S51.73,20.47,50.48,20.43Z"/><path class="cls-2" d="M22.86,13h-2V10.44c0-.1,0-.15-.17-.15H18.07c-.11,0-.16.05-.16.15v2.67l-1.43.35a.23.23,0,0,0-.16.21v1.68a.22.22,0,0,0,.22.22h1.37v4c0,3,2.1,3.29,3.52,3.29A5.86,5.86,0,0,0,23,22.64a.19.19,0,0,0,.12-.19V20.6a.22.22,0,0,0-.22-.22c-.11,0-.4.05-.7.05-1,0-1.29-.45-1.29-1V15.57h2a.21.21,0,0,0,.21-.22V13.24A.21.21,0,0,0,22.86,13Z"/></svg>