<svg xmlns="http://www.w3.org/2000/svg" viewBox="0 0 32 32"><defs><style>.cls-1{fill:#a0b0c7;}</style></defs><g id="logos"><path id="ico_twitter" class="cls-1" d="M28.41,9.63c0,.28,0,.56,0,.84,0,8.46-6.44,18.22-18.22,18.22A18.15,18.15,0,0,1,.37,25.82a13.3,13.3,0,0,0,1.55.08,12.86,12.86,0,0,0,8-2.74,6.44,6.44,0,0,1-6-4.44,8.12,8.12,0,0,0,1.21.1,6.75,6.75,0,0,0,1.69-.22,6.42,6.42,0,0,1-5.14-6.29v-.08a6.46,6.46,0,0,0,2.9.82A6.4,6.4,0,0,1,1.68,7.71a6.3,6.3,0,0,1,.88-3.23,18.19,18.19,0,0,0,13.2,6.7,7.12,7.12,0,0,1-.16-1.47A6.42,6.42,0,0,1,26.69,5.33a12.48,12.48,0,0,0,4.06-1.55,6.33,6.33,0,0,1-2.81,3.53,12.43,12.43,0,0,0,3.69-1,13.87,13.87,0,0,1-3.22,3.31Z"/></g></svg>