<svg id="Capa_1" data-name="Capa 1" xmlns="http://www.w3.org/2000/svg" viewBox="0 0 32 32"><defs><style>.cls-1{fill:#a0b0c7;fill-rule:evenodd;}</style></defs><path class="cls-1" d="M16.23.34a15.83,15.83,0,0,0-5,30.85c.79.14,1.08-.35,1.08-.77s0-1.37,0-2.69C7.88,28.69,7,25.61,7,25.61A4.22,4.22,0,0,0,5.2,23.29c-1.44-1,.1-1,.1-1A3.33,3.33,0,0,1,7.73,24a3.38,3.38,0,0,0,4.61,1.32,3.4,3.4,0,0,1,1-2.12c-3.51-.4-7.21-1.75-7.21-7.82a6.14,6.14,0,0,1,1.63-4.25A5.7,5.7,0,0,1,7.91,6.9s1.33-.42,4.36,1.63a14.79,14.79,0,0,1,7.92,0c3-2,4.35-1.63,4.35-1.63a5.67,5.67,0,0,1,.16,4.19,6.14,6.14,0,0,1,1.63,4.25c0,6.08-3.7,7.42-7.23,7.81a3.78,3.78,0,0,1,1.07,2.93c0,2.12,0,3.83,0,4.34s.29.92,1.09.77a15.83,15.83,0,0,0-5-30.85Z"/></svg>