<?xml version="1.0" encoding="utf-8"?>
<!-- Generator: Adobe Illustrator 26.0.2, SVG Export Plug-In . SVG Version: 6.00 Build 0)  -->
<svg version="1.1" id="Capa_1" xmlns="http://www.w3.org/2000/svg" xmlns:xlink="http://www.w3.org/1999/xlink" x="0px" y="0px"
	 viewBox="0 0 218.2 80.6" style="enable-background:new 0 0 218.2 80.6;" xml:space="preserve">
<style type="text/css">
	.st0{enable-background:new    ;}
	.st1{fill:#FFFFFF;}
	.st2{fill:#CED8DB;}
	.st3{fill:#3AB0E5;}
</style>
<g id="logos">
	<g class="st0">
		<path class="st1" d="M1.2,41.1H5c2.4,0,4.3,0.8,4.3,3.5c0,2.6-2,3.7-4.3,3.7H3.8v3.6H1.2V41.1z M5,46.3c1.3,0,1.9-0.6,1.9-1.6
			c0-1.1-0.7-1.5-1.9-1.5H3.8v3.1H5z"/>
		<path class="st1" d="M11,49.2v-8.9h2.6v9c0,0.5,0.3,0.7,0.5,0.7c0.1,0,0.1,0,0.3,0l0.3,1.9c-0.3,0.1-0.7,0.2-1.3,0.2
			C11.6,52.1,11,50.9,11,49.2z"/>
	</g>
	<g class="st0">
		<path class="st1" d="M15.4,49.6c0-1.7,1.4-2.7,4.6-3c-0.1-0.7-0.4-1.1-1.2-1.1c-0.7,0-1.3,0.3-2.2,0.7l-0.9-1.7
			c1.1-0.7,2.3-1.1,3.5-1.1c2.1,0,3.3,1.2,3.3,3.8v4.7h-2.1l-0.2-0.8h-0.1c-0.7,0.6-1.4,1-2.4,1C16.3,52.1,15.4,51,15.4,49.6z
			 M20,49.4v-1.3c-1.6,0.2-2.1,0.7-2.1,1.3c0,0.5,0.3,0.7,0.9,0.7C19.3,50.1,19.6,49.8,20,49.4z"/>
	</g>
	<g class="st0">
		<path class="st1" d="M24.6,48.8v-3.2h-1.1v-1.9l1.3-0.1l0.3-2.2h2.1v2.2h1.9v2h-1.9v3.1c0,0.9,0.4,1.3,1,1.3
			c0.3,0,0.5-0.1,0.8-0.1l0.4,1.9c-0.4,0.1-1,0.3-1.9,0.3C25.4,52.1,24.6,50.8,24.6,48.8z"/>
	</g>
	<g class="st0">
		<path class="st1" d="M30,49.6c0-1.7,1.4-2.7,4.6-3c-0.1-0.7-0.4-1.1-1.2-1.1c-0.7,0-1.3,0.3-2.2,0.7l-0.9-1.7
			c1.1-0.7,2.3-1.1,3.5-1.1c2.1,0,3.3,1.2,3.3,3.8v4.7H35l-0.2-0.8h-0.1c-0.7,0.6-1.4,1-2.4,1C30.9,52.1,30,51,30,49.6z M34.5,49.4
			v-1.3c-1.6,0.2-2.1,0.7-2.1,1.3c0,0.5,0.3,0.7,0.9,0.7C33.8,50.1,34.2,49.8,34.5,49.4z"/>
	</g>
	<g class="st0">
		<path class="st1" d="M43.9,42.3c-0.3-0.1-0.6-0.2-0.8-0.2c-0.6,0-0.9,0.3-0.9,1.1v0.4h1.5v2h-1.5v6.2h-2.6v-6.2h-1.1v-1.9l1.1-0.1
			v-0.3c0-1.7,0.8-3.2,3.1-3.2c0.7,0,1.3,0.1,1.7,0.3L43.9,42.3z"/>
	</g>
	<g class="st0">
		<path class="st1" d="M44.2,47.8c0-2.7,1.9-4.3,4-4.3c2.1,0,4,1.6,4,4.3c0,2.7-1.9,4.3-4,4.3C46.2,52.1,44.2,50.5,44.2,47.8z
			 M49.6,47.8c0-1.4-0.4-2.2-1.4-2.2c-1,0-1.4,0.9-1.4,2.2c0,1.4,0.4,2.2,1.4,2.2C49.2,50,49.6,49.1,49.6,47.8z"/>
		<path class="st1" d="M53.9,43.6H56l0.2,1.4h0.1c0.6-1.1,1.5-1.6,2.3-1.6c0.5,0,0.8,0.1,1,0.2l-0.4,2.2c-0.3-0.1-0.5-0.1-0.9-0.1
			c-0.6,0-1.3,0.4-1.8,1.5v4.7h-2.6V43.6z"/>
		<path class="st1" d="M60.6,43.6h2.1l0.2,1h0.1c0.7-0.7,1.4-1.2,2.5-1.2c1.1,0,1.8,0.5,2.3,1.4c0.7-0.7,1.5-1.4,2.6-1.4
			c1.8,0,2.6,1.3,2.6,3.3v5.1h-2.6v-4.8c0-1.1-0.3-1.5-0.9-1.5c-0.4,0-0.8,0.2-1.3,0.7v5.5h-2.6v-4.8c0-1.1-0.3-1.5-0.9-1.5
			c-0.4,0-0.8,0.2-1.3,0.7v5.5h-2.6V43.6z"/>
		<path class="st1" d="M74.5,49.6c0-1.7,1.4-2.7,4.6-3c-0.1-0.7-0.4-1.1-1.2-1.1c-0.7,0-1.3,0.3-2.2,0.7l-0.9-1.7
			c1.1-0.7,2.3-1.1,3.5-1.1c2.1,0,3.3,1.2,3.3,3.8v4.7h-2.1l-0.2-0.8h-0.1c-0.7,0.6-1.4,1-2.4,1C75.4,52.1,74.5,51,74.5,49.6z
			 M79.1,49.4v-1.3c-1.6,0.2-2.1,0.7-2.1,1.3c0,0.5,0.3,0.7,0.9,0.7C78.3,50.1,78.7,49.8,79.1,49.4z"/>
		<path class="st1" d="M87.1,41.1h3.1c3.3,0,5.5,1.6,5.5,5.3c0,3.7-2.2,5.4-5.3,5.4h-3.2V41.1z M90.1,49.8c1.7,0,3-0.8,3-3.4
			c0-2.6-1.2-3.3-3-3.3h-0.3v6.6H90.1z"/>
		<path class="st1" d="M97.3,41.2c0-0.8,0.6-1.3,1.5-1.3c0.9,0,1.5,0.5,1.5,1.3c0,0.8-0.6,1.3-1.5,1.3C97.9,42.5,97.3,42,97.3,41.2z
			 M97.5,43.6h2.6v8.2h-2.6V43.6z"/>
		<path class="st1" d="M101.6,53.3c0-0.7,0.4-1.2,1.2-1.6v-0.1c-0.4-0.3-0.8-0.7-0.8-1.4c0-0.6,0.4-1.2,0.9-1.5v-0.1
			c-0.6-0.4-1.1-1.2-1.1-2.1c0-2,1.7-3,3.4-3c0.5,0,0.9,0.1,1.3,0.2h3v1.9h-1.3c0.1,0.2,0.2,0.6,0.2,1c0,1.9-1.5,2.8-3.3,2.8
			c-0.3,0-0.6,0-1-0.1c-0.2,0.2-0.3,0.3-0.3,0.6c0,0.4,0.3,0.5,1.2,0.5h1.3c2,0,3.2,0.6,3.2,2.1c0,1.7-1.8,3-4.7,3
			C103.2,55.3,101.6,54.7,101.6,53.3z M107.3,52.8c0-0.5-0.4-0.6-1.2-0.6h-0.8c-0.6,0-0.9,0-1.2-0.1c-0.3,0.2-0.4,0.5-0.4,0.7
			c0,0.6,0.7,0.9,1.8,0.9S107.3,53.3,107.3,52.8z M106.3,46.4c0-0.8-0.4-1.3-1-1.3c-0.6,0-1,0.4-1,1.3c0,0.9,0.4,1.3,1,1.3
			C105.9,47.7,106.3,47.3,106.3,46.4z"/>
		<path class="st1" d="M110.8,41.2c0-0.8,0.6-1.3,1.5-1.3c0.9,0,1.5,0.5,1.5,1.3c0,0.8-0.6,1.3-1.5,1.3
			C111.4,42.5,110.8,42,110.8,41.2z M111,43.6h2.6v8.2H111V43.6z"/>
	</g>
	<g class="st0">
		<path class="st1" d="M116,48.8v-3.2h-1.1v-1.9l1.3-0.1l0.3-2.2h2.1v2.2h1.9v2h-1.9v3.1c0,0.9,0.4,1.3,1,1.3c0.3,0,0.5-0.1,0.8-0.1
			l0.4,1.9c-0.4,0.1-1,0.3-1.9,0.3C116.8,52.1,116,50.8,116,48.8z"/>
	</g>
	<g class="st0">
		<path class="st1" d="M121.4,49.6c0-1.7,1.4-2.7,4.6-3c-0.1-0.7-0.4-1.1-1.2-1.1c-0.7,0-1.3,0.3-2.2,0.7l-0.9-1.7
			c1.1-0.7,2.3-1.1,3.5-1.1c2.1,0,3.3,1.2,3.3,3.8v4.7h-2.1l-0.2-0.8h-0.1c-0.7,0.6-1.4,1-2.4,1C122.3,52.1,121.4,51,121.4,49.6z
			 M126,49.4v-1.3c-1.6,0.2-2.1,0.7-2.1,1.3c0,0.5,0.3,0.7,0.9,0.7C125.3,50.1,125.6,49.8,126,49.4z"/>
		<path class="st1" d="M130.5,49.2v-8.9h2.6v9c0,0.5,0.3,0.7,0.5,0.7c0.1,0,0.1,0,0.3,0l0.3,1.9c-0.3,0.1-0.7,0.2-1.3,0.2
			C131.1,52.1,130.5,50.9,130.5,49.2z"/>
		<path class="st1" d="M138.8,41.1h2.6l2.7,5.1l1.1,2.4h0.1c-0.1-1.1-0.3-2.7-0.3-4v-3.6h2.5v10.8h-2.6l-2.7-5.2l-1.1-2.4H141
			c0.1,1.2,0.3,2.7,0.3,4v3.6h-2.5V41.1z"/>
		<path class="st1" d="M149.3,49.6c0-1.7,1.4-2.7,4.6-3c-0.1-0.7-0.4-1.1-1.2-1.1c-0.7,0-1.3,0.3-2.2,0.7l-0.9-1.7
			c1.1-0.7,2.3-1.1,3.5-1.1c2.1,0,3.3,1.2,3.3,3.8v4.7h-2.1l-0.2-0.8h-0.1c-0.7,0.6-1.4,1-2.4,1C150.3,52.1,149.3,51,149.3,49.6z
			 M153.9,49.4v-1.3c-1.6,0.2-2.1,0.7-2.1,1.3c0,0.5,0.3,0.7,0.9,0.7C153.2,50.1,153.5,49.8,153.9,49.4z"/>
		<path class="st1" d="M158,47.8c0-2.7,2-4.3,4.3-4.3c1,0,1.8,0.3,2.4,0.9l-1.2,1.6c-0.4-0.3-0.7-0.4-1.1-0.4
			c-1.1,0-1.8,0.9-1.8,2.2c0,1.4,0.7,2.2,1.8,2.2c0.5,0,1-0.2,1.4-0.6l1,1.7c-0.8,0.7-1.8,1-2.7,1C159.8,52.1,158,50.5,158,47.8z"/>
		<path class="st1" d="M166,41.2c0-0.8,0.6-1.3,1.5-1.3c0.9,0,1.5,0.5,1.5,1.3c0,0.8-0.6,1.3-1.5,1.3C166.6,42.5,166,42,166,41.2z
			 M166.2,43.6h2.6v8.2h-2.6V43.6z"/>
		<path class="st1" d="M170.4,47.8c0-2.7,1.9-4.3,4-4.3c2.1,0,4,1.6,4,4.3c0,2.7-1.9,4.3-4,4.3C172.3,52.1,170.4,50.5,170.4,47.8z
			 M175.8,47.8c0-1.4-0.4-2.2-1.4-2.2c-1,0-1.4,0.9-1.4,2.2c0,1.4,0.4,2.2,1.4,2.2C175.4,50,175.8,49.1,175.8,47.8z"/>
		<path class="st1" d="M180.1,43.6h2.1l0.2,1h0.1c0.7-0.7,1.5-1.2,2.6-1.2c1.8,0,2.6,1.3,2.6,3.3v5.1H185v-4.8c0-1.1-0.3-1.5-1-1.5
			c-0.6,0-0.9,0.3-1.4,0.7v5.5h-2.6V43.6z"/>
		<path class="st1" d="M189.2,49.6c0-1.7,1.4-2.7,4.6-3c-0.1-0.7-0.4-1.1-1.2-1.1c-0.7,0-1.3,0.3-2.2,0.7l-0.9-1.7
			c1.1-0.7,2.3-1.1,3.5-1.1c2.1,0,3.3,1.2,3.3,3.8v4.7h-2.1l-0.2-0.8H194c-0.7,0.6-1.4,1-2.4,1C190.2,52.1,189.2,51,189.2,49.6z
			 M193.8,49.4v-1.3c-1.6,0.2-2.1,0.7-2.1,1.3c0,0.5,0.3,0.7,0.9,0.7C193.1,50.1,193.4,49.8,193.8,49.4z"/>
		<path class="st1" d="M198.4,49.2v-8.9h2.6v9c0,0.5,0.3,0.7,0.5,0.7c0.1,0,0.1,0,0.3,0l0.3,1.9c-0.3,0.1-0.7,0.2-1.3,0.2
			C198.9,52.1,198.4,50.9,198.4,49.2z"/>
	</g>
	<g class="st0">
		<path class="st1" d="M1.3,57.6h1.2V67H1.3V57.6z"/>
		<path class="st1" d="M5,60h1l0.1,1h0c0.7-0.7,1.4-1.2,2.3-1.2c1.5,0,2.1,1,2.1,2.7V67H9.4v-4.3c0-1.3-0.4-1.9-1.3-1.9
			c-0.7,0-1.2,0.4-1.9,1.1V67H5V60z"/>
	</g>
	<g class="st0">
		<path class="st1" d="M13,64.9V61h-1v-0.9l1.1-0.1l0.1-2h1v2h1.9v1h-1.9v3.9c0,0.9,0.3,1.4,1.1,1.4c0.2,0,0.6-0.1,0.8-0.2l0.2,0.9
			c-0.4,0.1-0.9,0.3-1.3,0.3C13.5,67.2,13,66.3,13,64.9z"/>
	</g>
	<g class="st0">
		<path class="st1" d="M17,63.6c0-2.3,1.5-3.7,3.2-3.7c1.8,0,2.8,1.3,2.8,3.3c0,0.3,0,0.5-0.1,0.7h-4.7c0.1,1.5,1,2.5,2.3,2.5
			c0.7,0,1.2-0.2,1.8-0.6l0.4,0.8c-0.6,0.4-1.4,0.7-2.3,0.7C18.5,67.2,17,65.9,17,63.6z M21.9,63c0-1.4-0.6-2.2-1.7-2.2
			c-1,0-1.9,0.8-2,2.2H21.9z"/>
		<path class="st1" d="M24.6,65.7v-8.9h1.2v8.9c0,0.4,0.2,0.5,0.3,0.5c0.1,0,0.1,0,0.2,0l0.2,0.9c-0.2,0.1-0.4,0.1-0.7,0.1
			C25,67.2,24.6,66.7,24.6,65.7z"/>
		<path class="st1" d="M28.1,57.8c0-0.5,0.3-0.8,0.8-0.8s0.8,0.3,0.8,0.8c0,0.4-0.3,0.8-0.8,0.8S28.1,58.3,28.1,57.8z M28.3,60h1.2
			v7h-1.2V60z"/>
	</g>
	<g class="st0">
		<path class="st1" d="M31.3,68.4c0-0.6,0.4-1.2,1-1.6v-0.1c-0.4-0.2-0.6-0.6-0.6-1.1c0-0.6,0.4-1,0.8-1.3v-0.1
			c-0.5-0.4-0.9-1-0.9-1.9c0-1.5,1.2-2.5,2.6-2.5c0.4,0,0.7,0.1,1,0.2h2.4V61h-1.4c0.3,0.3,0.6,0.8,0.6,1.4c0,1.5-1.1,2.4-2.6,2.4
			c-0.3,0-0.7-0.1-1-0.2c-0.3,0.2-0.5,0.5-0.5,0.8c0,0.5,0.3,0.8,1.2,0.8h1.4c1.6,0,2.4,0.5,2.4,1.7c0,1.3-1.4,2.4-3.5,2.4
			C32.5,70.3,31.3,69.6,31.3,68.4z M36.6,68c0-0.6-0.5-0.9-1.4-0.9H34c-0.3,0-0.6,0-0.9-0.1c-0.5,0.4-0.7,0.8-0.7,1.2
			c0,0.7,0.8,1.2,2,1.2C35.7,69.5,36.6,68.8,36.6,68z M35.7,62.4c0-1-0.7-1.6-1.5-1.6s-1.5,0.6-1.5,1.6c0,1,0.7,1.7,1.5,1.7
			C35,64,35.7,63.4,35.7,62.4z"/>
	</g>
	<g class="st0">
		<path class="st1" d="M38.4,63.6c0-2.3,1.5-3.7,3.2-3.7c1.8,0,2.8,1.3,2.8,3.3c0,0.3,0,0.5-0.1,0.7h-4.7c0.1,1.5,1,2.5,2.3,2.5
			c0.7,0,1.2-0.2,1.8-0.6l0.4,0.8c-0.6,0.4-1.4,0.7-2.3,0.7C39.9,67.2,38.4,65.9,38.4,63.6z M43.3,63c0-1.4-0.6-2.2-1.7-2.2
			c-1,0-1.9,0.8-2,2.2H43.3z"/>
		<path class="st1" d="M46.1,60h1l0.1,1h0c0.7-0.7,1.4-1.2,2.3-1.2c1.5,0,2.1,1,2.1,2.7V67h-1.2v-4.3c0-1.3-0.4-1.9-1.3-1.9
			c-0.7,0-1.2,0.4-1.9,1.1V67h-1.2V60z"/>
		<path class="st1" d="M53.4,63.6c0-2.3,1.6-3.7,3.4-3.7c0.9,0,1.5,0.4,2.1,0.8l-0.6,0.8c-0.4-0.4-0.8-0.6-1.4-0.6
			c-1.3,0-2.2,1.1-2.2,2.7s0.9,2.7,2.2,2.7c0.6,0,1.2-0.3,1.7-0.7l0.5,0.8c-0.6,0.6-1.4,0.9-2.3,0.9C54.8,67.2,53.4,65.9,53.4,63.6z
			"/>
		<path class="st1" d="M60.3,57.8c0-0.5,0.3-0.8,0.8-0.8c0.5,0,0.8,0.3,0.8,0.8c0,0.4-0.3,0.8-0.8,0.8
			C60.6,58.6,60.3,58.3,60.3,57.8z M60.5,60h1.2v7h-1.2V60z"/>
		<path class="st1" d="M63.6,65.2c0-1.5,1.3-2.3,4.3-2.6c0-0.9-0.3-1.8-1.4-1.8c-0.8,0-1.5,0.4-2.1,0.7l-0.5-0.8
			c0.6-0.4,1.6-0.9,2.8-0.9c1.7,0,2.4,1.1,2.4,2.9V67h-1L68,66.2h0c-0.7,0.6-1.5,1-2.3,1C64.5,67.2,63.6,66.5,63.6,65.2z M67.9,65.3
			v-2c-2.4,0.3-3.2,0.9-3.2,1.8c0,0.8,0.5,1.1,1.2,1.1C66.7,66.3,67.2,66,67.9,65.3z"/>
		<path class="st1" d="M73.7,63.6c0-2.3,1.4-3.7,3-3.7c0.8,0,1.4,0.3,2,0.8l-0.1-1.2v-2.7h1.2V67h-1l-0.1-0.8h0
			c-0.6,0.5-1.3,1-2.1,1C74.8,67.2,73.7,65.9,73.7,63.6z M78.6,65.3v-3.7c-0.6-0.5-1.1-0.7-1.7-0.7c-1.1,0-2,1.1-2,2.7
			c0,1.7,0.7,2.7,1.9,2.7C77.5,66.2,78.1,65.9,78.6,65.3z"/>
		<path class="st1" d="M81.7,63.6c0-2.3,1.5-3.7,3.2-3.7c1.8,0,2.8,1.3,2.8,3.3c0,0.3,0,0.5-0.1,0.7h-4.7c0.1,1.5,1,2.5,2.3,2.5
			c0.7,0,1.2-0.2,1.8-0.6l0.4,0.8c-0.6,0.4-1.4,0.7-2.3,0.7C83.2,67.2,81.7,65.9,81.7,63.6z M86.6,63c0-1.4-0.6-2.2-1.7-2.2
			c-1,0-1.9,0.8-2,2.2H86.6z"/>
		<path class="st1" d="M92.3,57.6h2.4c2.9,0,4.5,1.7,4.5,4.7c0,3-1.6,4.8-4.4,4.8h-2.4V57.6z M94.6,66.1c2.2,0,3.3-1.4,3.3-3.8
			c0-2.4-1.1-3.7-3.3-3.7h-1.1v7.5H94.6z"/>
	</g>
	<g class="st0">
		<path class="st1" d="M100.7,65.2c0-1.5,1.3-2.3,4.3-2.6c0-0.9-0.3-1.8-1.4-1.8c-0.8,0-1.5,0.4-2.1,0.7l-0.5-0.8
			c0.6-0.4,1.6-0.9,2.8-0.9c1.7,0,2.4,1.1,2.4,2.9V67h-1l-0.1-0.8h0c-0.7,0.6-1.5,1-2.3,1C101.5,67.2,100.7,66.5,100.7,65.2z
			 M105,65.3v-2c-2.4,0.3-3.2,0.9-3.2,1.8c0,0.8,0.5,1.1,1.2,1.1C103.7,66.3,104.3,66,105,65.3z"/>
		<path class="st1" d="M108.3,64.9V61h-1v-0.9l1.1-0.1l0.1-2h1v2h1.9v1h-1.9v3.9c0,0.9,0.3,1.4,1.1,1.4c0.2,0,0.6-0.1,0.8-0.2
			l0.2,0.9c-0.4,0.1-0.9,0.3-1.3,0.3C108.8,67.2,108.3,66.3,108.3,64.9z"/>
	</g>
	<g class="st0">
		<path class="st1" d="M112.3,63.6c0-2.3,1.5-3.7,3.2-3.7s3.2,1.4,3.2,3.7c0,2.3-1.5,3.7-3.2,3.7S112.3,65.9,112.3,63.6z
			 M117.6,63.6c0-1.6-0.8-2.7-2-2.7s-2,1.1-2,2.7s0.8,2.7,2,2.7S117.6,65.2,117.6,63.6z"/>
		<path class="st1" d="M119.9,66.2l0.6-0.8c0.6,0.5,1.2,0.8,2.1,0.8c0.9,0,1.4-0.5,1.4-1.1c0-0.7-0.8-1-1.6-1.3
			c-1-0.4-2.1-0.8-2.1-2c0-1.1,0.9-2,2.4-2c0.9,0,1.6,0.4,2.2,0.8l-0.6,0.8c-0.5-0.4-1-0.6-1.6-0.6c-0.9,0-1.3,0.5-1.3,1
			c0,0.7,0.8,0.9,1.5,1.2c1,0.4,2.1,0.8,2.1,2.1c0,1.1-0.9,2.1-2.6,2.1C121.5,67.2,120.5,66.8,119.9,66.2z"/>
		<path class="st1" d="M134,64.2h-3.5l-0.9,2.9h-1.2l3.2-9.5h1.3l3.2,9.5h-1.3L134,64.2z M133.7,63.2l-0.5-1.4
			c-0.3-1.1-0.6-2.1-1-3.2h-0.1c-0.3,1.1-0.6,2.1-0.9,3.2l-0.5,1.4H133.7z"/>
		<path class="st1" d="M137.4,60h1l0.1,1h0c0.7-0.7,1.4-1.2,2.3-1.2c1.5,0,2.1,1,2.1,2.7V67h-1.2v-4.3c0-1.3-0.4-1.9-1.3-1.9
			c-0.7,0-1.2,0.4-1.9,1.1V67h-1.2V60z"/>
		<path class="st1" d="M145.5,64.9V61h-1v-0.9l1.1-0.1l0.1-2h1v2h1.9v1h-1.9v3.9c0,0.9,0.3,1.4,1.1,1.4c0.2,0,0.6-0.1,0.8-0.2
			l0.2,0.9c-0.4,0.1-0.9,0.3-1.3,0.3C146,67.2,145.5,66.3,145.5,64.9z"/>
		<path class="st1" d="M149.9,57.8c0-0.5,0.3-0.8,0.8-0.8c0.5,0,0.8,0.3,0.8,0.8c0,0.4-0.3,0.8-0.8,0.8
			C150.3,58.6,149.9,58.3,149.9,57.8z M150.1,60h1.2v7h-1.2V60z"/>
	</g>
	<g class="st0">
		<path class="st1" d="M153.1,63.6c0-2.3,1.6-3.7,3.4-3.7c0.9,0,1.5,0.4,2.1,0.8l-0.6,0.8c-0.4-0.4-0.8-0.6-1.4-0.6
			c-1.3,0-2.2,1.1-2.2,2.7s0.9,2.7,2.2,2.7c0.6,0,1.2-0.3,1.7-0.7l0.5,0.8c-0.6,0.6-1.4,0.9-2.3,0.9
			C154.6,67.2,153.1,65.9,153.1,63.6z"/>
	</g>
	<g class="st0">
		<path class="st1" d="M159.4,63.6c0-2.3,1.5-3.7,3.2-3.7s3.2,1.4,3.2,3.7c0,2.3-1.5,3.7-3.2,3.7S159.4,65.9,159.4,63.6z
			 M164.7,63.6c0-1.6-0.8-2.7-2-2.7s-2,1.1-2,2.7s0.8,2.7,2,2.7S164.7,65.2,164.7,63.6z"/>
		<path class="st1" d="M167.7,60h1l0.1,1.3h0c0.5-0.9,1.2-1.5,2-1.5c0.3,0,0.5,0,0.7,0.2l-0.2,1c-0.2-0.1-0.4-0.1-0.7-0.1
			c-0.6,0-1.3,0.4-1.8,1.6V67h-1.2V60z"/>
		<path class="st1" d="M172.7,60h1l0.1,1.3h0c0.5-0.9,1.2-1.5,2-1.5c0.3,0,0.5,0,0.7,0.2l-0.2,1c-0.2-0.1-0.4-0.1-0.7-0.1
			c-0.6,0-1.3,0.4-1.8,1.6V67h-1.2V60z"/>
		<path class="st1" d="M177.6,64.5V60h1.2v4.3c0,1.3,0.4,1.9,1.3,1.9c0.7,0,1.2-0.3,1.9-1.2v-5h1.2v7h-1l-0.1-1.1h0
			c-0.7,0.8-1.4,1.3-2.3,1.3C178.3,67.2,177.6,66.3,177.6,64.5z"/>
		<path class="st1" d="M185.6,60h1l0.1,0.8h0c0.6-0.5,1.4-1,2.2-1c1.8,0,2.8,1.4,2.8,3.6c0,2.4-1.4,3.8-3,3.8
			c-0.6,0-1.3-0.3-1.9-0.8l0,1.2V70h-1.2V60z M190.5,63.5c0-1.5-0.5-2.6-1.8-2.6c-0.6,0-1.2,0.3-1.9,1v3.7c0.6,0.5,1.3,0.7,1.7,0.7
			C189.6,66.2,190.5,65.2,190.5,63.5z"/>
		<path class="st1" d="M193,63.6c0-2.3,1.6-3.7,3.4-3.7c0.9,0,1.5,0.4,2,0.8l-0.6,0.8c-0.4-0.4-0.8-0.6-1.4-0.6
			c-1.3,0-2.2,1.1-2.2,2.7s0.9,2.7,2.2,2.7c0.6,0,1.2-0.3,1.7-0.7l0.5,0.8c-0.6,0.6-1.4,0.9-2.3,0.9C194.5,67.2,193,65.9,193,63.6z"
			/>
		<path class="st1" d="M199.9,57.8c0-0.5,0.3-0.8,0.8-0.8c0.5,0,0.8,0.3,0.8,0.8c0,0.4-0.3,0.8-0.8,0.8
			C200.2,58.6,199.9,58.3,199.9,57.8z M200.1,60h1.2v7h-1.2V60z"/>
		<path class="st1" d="M203.1,63.6c0-2.3,1.5-3.7,3.2-3.7s3.2,1.4,3.2,3.7c0,2.3-1.5,3.7-3.2,3.7S203.1,65.9,203.1,63.6z
			 M208.4,63.6c0-1.6-0.8-2.7-2-2.7s-2,1.1-2,2.7s0.8,2.7,2,2.7S208.4,65.2,208.4,63.6z M205.6,58.2l2-2.4l0.8,0.8l-2.3,2.2
			L205.6,58.2z"/>
		<path class="st1" d="M211.5,60h1l0.1,1h0c0.7-0.7,1.4-1.2,2.3-1.2c1.5,0,2.1,1,2.1,2.7V67h-1.2v-4.3c0-1.3-0.4-1.9-1.3-1.9
			c-0.7,0-1.2,0.4-1.9,1.1V67h-1.2V60z"/>
	</g>
	<path class="st2" d="M23.4,10.1c0,3.3-1,5.8-3.1,7.6c-2.1,1.7-5,2.6-8.8,2.6H8.7v10.9H2.2V0.6H12c3.7,0,6.5,0.8,8.5,2.4
		S23.4,7,23.4,10.1z M8.7,15h2.1c1.6,0.1,3.2-0.3,4.5-1.2c1-0.8,1.6-2.1,1.5-3.4c0.1-1.3-0.4-2.5-1.3-3.4c-1.1-0.8-2.5-1.2-3.9-1.1
		h-3L8.7,15z"/>
	<path class="st2" d="M88.1,31.2h-8.3L66.5,8.1h-0.2c0.3,4.1,0.4,7,0.4,8.8v14.4h-5.8V0.6h8.2l13.3,23h0.1c-0.2-4-0.3-6.8-0.3-8.5
		V0.6h5.8V31.2z"/>
	<path class="st3" d="M34.8,31.7V26c4.8,0.1,7.7-0.1,8.8-0.5c3.4-0.8,6-3.7,6.4-7.2c0.4-2.1,0.3-4.3-0.2-6.4c-0.8-3.4-3.6-5.9-7-6.3
		c-1-0.2-2.1-0.3-3.2-0.3c-4.4,0-8.8,0-13.2,0h-0.5V0h0.5c4.2,0,8.3,0,12.5,0c2.6,0,5.1,0.4,7.6,1.2c3.8,1.3,6.7,4.5,7.8,8.4
		c1.3,4.3,1.3,8.8-0.2,13.1c-1.4,4.3-4.9,7.5-9.3,8.4C41.4,31.7,38.1,31.9,34.8,31.7z"/>
	<path class="st3" d="M34.9,14.9c0-1.4,0-2.8,0-4.1c0-0.4,0.1-0.5,0.5-0.4c1.4,0.1,3.6,0,5,0.2c2.1,0.1,3.7,1.8,3.6,3.9
		c0,0.1,0,0.2,0,0.3c0.1,1.3-0.4,2.6-1.3,3.6c-0.9,0.8-2,1.2-3.2,1.3c-1.1,0.1-3,0-4.1,0c-0.3,0-0.4-0.1-0.4-0.4
		C34.9,17.7,34.9,16.3,34.9,14.9z"/>
</g>
</svg>
