<svg xmlns="http://www.w3.org/2000/svg" viewBox="0 0 191.11 86.36"><defs><style>.cls-1{fill:#fff;}.cls-2{fill:#a0b0c7;}.cls-3{fill:#e0261d;}</style></defs><g id="logos"><path class="cls-1" d="M98.36,11.13a3.21,3.21,0,0,1-1,2.42,3.54,3.54,0,0,1-2.56,1A4.21,4.21,0,0,1,93,14.16a7,7,0,0,1-1.53-1.06l.75-1.25a5.41,5.41,0,0,0,1.18,1,3,3,0,0,0,1.43.34,2.12,2.12,0,0,0,1.44-.53,1.64,1.64,0,0,0,.6-1.3,1.42,1.42,0,0,0-.44-1.06,2.72,2.72,0,0,0-1.06-.63L94,9.09A3.79,3.79,0,0,1,92.33,8a2.74,2.74,0,0,1-.53-1.74,2.67,2.67,0,0,1,.94-2.1,3.4,3.4,0,0,1,2.33-.83,3.79,3.79,0,0,1,1.52.31,4.08,4.08,0,0,1,1.21.79l-.7,1.11a8.43,8.43,0,0,0-.93-.63A2.52,2.52,0,0,0,95,4.58,1.73,1.73,0,0,0,93.76,5a1.48,1.48,0,0,0-.48,1.1,1.46,1.46,0,0,0,.37,1,2.42,2.42,0,0,0,.95.59l1.15.45a5.34,5.34,0,0,1,2,1.24A2.51,2.51,0,0,1,98.36,11.13Z"/><path class="cls-1" d="M107.46,14.28h-5.69l0-10.8h5.72V4.91h-4.29V7.67h4.23V9h-4.23v3.9h4.29Z"/><path class="cls-1" d="M118.63,5.72A6.31,6.31,0,0,0,117.37,5a3.89,3.89,0,0,0-1.51-.28,4.12,4.12,0,0,0-4.23,4V9a4.33,4.33,0,0,0,1,3,3.9,3.9,0,0,0,3.09,1.26,4.41,4.41,0,0,0,1.68-.37,5.32,5.32,0,0,0,1.19-.72v1.7a3.36,3.36,0,0,1-1.18.47,6.88,6.88,0,0,1-1.8.27,5.21,5.21,0,0,1-4-1.67A5.61,5.61,0,0,1,110.17,9a5.61,5.61,0,0,1,5.6-5.58,5.29,5.29,0,0,1,1.53.22,7.71,7.71,0,0,1,1.3.53Z"/><path class="cls-1" d="M128.72,14.28H127l-3.33-4.61h-.46v4.61h-1.53V3.48H124a5.07,5.07,0,0,1,2.6.56,2.56,2.56,0,0,1,1.21,2.38,3,3,0,0,1-.67,2,3.78,3.78,0,0,1-1.9,1.17Zm-2.38-7.8a1.5,1.5,0,0,0-.77-1.41,3.46,3.46,0,0,0-1.65-.33h-.75V8.47h.57A3.13,3.13,0,0,0,125.5,8a1.71,1.71,0,0,0,.83-1.52Z"/><path class="cls-1" d="M137.7,14.28H132l0-10.8h5.71V4.91h-4.28V7.67h4.22V9h-4.22v3.9h4.28Z"/><path class="cls-1" d="M147,3.48V4.91h-2.46v9.37H143V4.91h-2.49V3.48Z"/><path class="cls-1" d="M160.1,14.28h-1.58l-1.29-2.78h-4.68l-1.25,2.78h-1.54l5-11.22Zm-3.43-4-1.85-3.9-1.71,3.9Z"/><path class="cls-1" d="M169.9,14.28h-1.76l-3.33-4.61h-.46v4.61h-1.53V3.48h2.38a5.14,5.14,0,0,1,2.61.56A2.57,2.57,0,0,1,169,6.42a3,3,0,0,1-.66,2,3.72,3.72,0,0,1-1.91,1.16Zm-2.37-7.8a1.52,1.52,0,0,0-.77-1.41,3.46,3.46,0,0,0-1.65-.33h-.75V8.47h.57A3.13,3.13,0,0,0,166.69,8a1.68,1.68,0,0,0,.82-1.52Z"/><path class="cls-1" d="M175.51.55,173.28,2.8l-.69-.44L174.34,0Zm-.65,13.74h-1.48V3.48h1.48Z"/><path class="cls-1" d="M188.44,14.28h-1.59l-1.28-2.78h-4.69l-1.25,2.78h-1.54l5-11.22Zm-3.45-4-1.85-3.9-1.71,3.9Z"/><path class="cls-1" d="M97.55,31.57H91.87l0-10.8h5.71V22.2H93.27V25h4.22v1.27H93.27v3.91h4.28Z"/><path class="cls-1" d="M106.77,27.72a5.93,5.93,0,0,1-.42,2.53,2.77,2.77,0,0,1-1.59,1.32,2.27,2.27,0,0,1-.82.13,3.05,3.05,0,0,1-.85-.11,2.47,2.47,0,0,1-.63-.26l.68-1.08a.7.7,0,0,0,.19.06,2.59,2.59,0,0,0,.67.1.87.87,0,0,0,.48-.11,1.65,1.65,0,0,0,.71-.91,4,4,0,0,0,.14-1.24V20.77h1.43Z"/><path class="cls-1" d="M118.24,31.57h-5.69l0-10.8h5.72V22.2H114V25h4.23v1.27H114v3.91h4.29Z"/><path class="cls-1" d="M131,23a6.87,6.87,0,0,0-1.27-.71A4.19,4.19,0,0,0,124,26v.21a4.33,4.33,0,0,0,1,3,3.9,3.9,0,0,0,3.09,1.25,4.24,4.24,0,0,0,1.68-.37A4.94,4.94,0,0,0,131,29.4v1.69a3.94,3.94,0,0,1-1.19.47,6.41,6.41,0,0,1-1.79.26,5.2,5.2,0,0,1-4-1.66,5.72,5.72,0,0,1,4.15-9.51,5.48,5.48,0,0,1,1.55.22,8.11,8.11,0,0,1,1.3.54Z"/><path class="cls-1" d="M143.44,28a3.67,3.67,0,0,1-1.09,2.71,3.75,3.75,0,0,1-2.78,1.1,3.86,3.86,0,0,1-3-1.24,3.75,3.75,0,0,1-1-2.59V20.77H137v6.85a2.93,2.93,0,0,0,.69,2.13,2.83,2.83,0,0,0,3.62,0,3.39,3.39,0,0,0,.69-2.37V20.77h1.43Z"/><path class="cls-1" d="M155.06,20.77V22.2H152.6v9.37h-1.55V22.2h-2.5V20.77Z"/><path class="cls-1" d="M162.16,31.57h-1.47V20.77h1.47Z"/><path class="cls-1" d="M176.7,20.77,172.08,32l-4.69-11.24H169l3.07,7.57,3.07-7.57Z"/><path class="cls-1" d="M188.44,31.57h-1.59l-1.28-2.79h-4.69l-1.25,2.79h-1.54l5-11.22Zm-3.45-4-1.85-3.9-1.71,3.9Z"/><path class="cls-1" d="M105.17,53.93l-3.93-1.53a8.25,8.25,0,0,1-3-1.88,4.41,4.41,0,0,1-1.14-3.11A4.36,4.36,0,0,1,98.55,44a5.41,5.41,0,0,1,3.79-1.36,8.33,8.33,0,0,1,3.87,1,26,26,0,0,1,3.1,2.11l.39.29,2.81-4.49-.27-.27A14.47,14.47,0,0,0,108,38.53a13.48,13.48,0,0,0-5.36-1.08,12,12,0,0,0-8.19,2.94,9.58,9.58,0,0,0-3.34,7.45A9.66,9.66,0,0,0,93.05,54,13.2,13.2,0,0,0,99,57.92l4.67,1.78a9.12,9.12,0,0,1,3.43,2A4.5,4.5,0,0,1,108.46,65a5.17,5.17,0,0,1-1.88,4.09A6.78,6.78,0,0,1,102,70.78a9.58,9.58,0,0,1-4.64-1.09,17,17,0,0,1-3.88-3.17l-.41-.4-3,5.07.29.24a24.5,24.5,0,0,0,5.28,3.66,14.73,14.73,0,0,0,6.23,1.3,12.39,12.39,0,0,0,9-3.46,11.47,11.47,0,0,0,3.56-8.52,9.07,9.07,0,0,0-2.09-6.14C110.89,56.67,108.52,55.24,105.17,53.93Z"/><polygon class="cls-1" points="146.05 63.28 118.46 36.2 118.46 75.56 124.38 75.56 124.38 50 151.91 77.28 151.91 38.04 146.05 38.04 146.05 63.28"/><path class="cls-1" d="M172.38,36,154.61,75.56h6.2l4.24-9.43h15.31l4.37,9.45h6.38ZM178,61.14H167.27l5.15-11.73Z"/><path class="cls-2" d="M76.42,21.47l-.11-.16q.39.66.75,1.32l-.75-1.32a56,56,0,0,1,3.89,9.41c.4,1.44.76,2.91,1,4.36C82.69,45.31,79.79,56.21,71,62.61A28.92,28.92,0,0,1,41.64,64.8c-8.56-4-12.23-11.31-11.83-18.94.36-6.7,5.4-11.71,11.79-11.71a11.62,11.62,0,0,1,7.66,3l5.58-5.6a17.68,17.68,0,0,0-12.67-5.48c-11.29-.26-19.35,8.72-19,19.4C23.66,64,39.64,71.54,53.58,71c15.26-.62,22.28-8.7,25.89-16.72.11-.24.21-.48.31-.71-5,13.81-18.88,23.33-39.29,18.64C25.43,68.73,18.76,57.5,18.76,44.43,18.76,32.37,29.1,22,41.16,22a24.16,24.16,0,0,1,16,6.67l.3.31L63,23.32A29.77,29.77,0,0,0,12.21,44.38c0,16.44,12.14,32.6,34.64,32.75,21.45.15,34.47-16.38,35.32-32.32,0-.56,0-1.11,0-1.66a5.06,5.06,0,0,0,0-.55v0c0-.11,0-.22,0-.32,1,23.72-18.44,41.29-43.39,37.84A35.6,35.6,0,0,1,8.27,44.63C8.27,26.65,23.61,11,41.59,11a34.93,34.93,0,0,1,23.65,9.28l.4.4,5.58-5.59a41.73,41.73,0,1,0,5.2,6.34Z"/><path class="cls-3" d="M83.24,18.35A91.81,91.81,0,0,0,84.77,1.57h0A91.73,91.73,0,0,0,68,3.1a42.17,42.17,0,0,1,8.12,6.34l.38.4h0l.4.39A41.57,41.57,0,0,1,83.24,18.35Z"/></g></svg>