<svg xmlns="http://www.w3.org/2000/svg" viewBox="0 0 306.04 276.52"><defs><style>.cls-1{fill:#fef6fc;}.cls-1,.cls-2,.cls-3{stroke:#6d4162;stroke-miterlimit:10;stroke-width:0.78px;}.cls-2,.cls-3{fill:none;}.cls-3{isolation:isolate;}.cls-4{fill:#713972;}.cls-5{fill:#b25fac;}.cls-6{fill:#f230b9;}</style></defs><g id="estados"><circle class="cls-1" cx="136.96" cy="151.48" r="97.03"/><circle class="cls-2" cx="136.96" cy="151.48" r="104.09"/><polyline class="cls-3" points="213.34 81.1 271.32 41.25 305.78 41.25"/><polyline class="cls-3" points="214.19 220.92 271.32 255.56 305.78 255.56"/><polyline class="cls-3" points="239.72 131.27 272.01 116.16 306.47 116.16"/><polyline class="cls-3" points="238.56 172.75 271 186.07 305.46 186.07"/><path class="cls-4" d="M116.28,206.28V189.66h5.43a6.29,6.29,0,0,1,4.07,1.12,4.06,4.06,0,0,1,1.36,3.31,3.4,3.4,0,0,1-.66,2.06,4.26,4.26,0,0,1-1.81,1.39A3.81,3.81,0,0,1,126.8,199a4.1,4.1,0,0,1,.78,2.51,4.47,4.47,0,0,1-1.44,3.52,6,6,0,0,1-4.1,1.28Zm2.19-9.53h3.31a3.5,3.5,0,0,0,2.3-.72,2.43,2.43,0,0,0,.86-2,2.37,2.37,0,0,0-.8-2,3.88,3.88,0,0,0-2.43-.63h-3.24Zm0,1.76v6h3.61a3.49,3.49,0,0,0,2.42-.79,2.78,2.78,0,0,0,.88-2.18q0-3-3.26-3Z"/><path class="cls-4" d="M138.12,206.28a4.69,4.69,0,0,1-.3-1.3,4.69,4.69,0,0,1-3.51,1.52,4.36,4.36,0,0,1-3-1,3.34,3.34,0,0,1-1.17-2.62,3.48,3.48,0,0,1,1.47-3,6.89,6.89,0,0,1,4.12-1.07h2.06v-1a2.32,2.32,0,0,0-.67-1.76,2.64,2.64,0,0,0-2-.66,3.07,3.07,0,0,0-1.89.57,1.69,1.69,0,0,0-.77,1.38h-2.12a2.89,2.89,0,0,1,.66-1.78,4.43,4.43,0,0,1,1.78-1.37,6.06,6.06,0,0,1,2.47-.5,4.87,4.87,0,0,1,3.34,1.07,3.84,3.84,0,0,1,1.26,2.94v5.68a6.93,6.93,0,0,0,.43,2.7v.19Zm-3.51-1.61a3.66,3.66,0,0,0,1.89-.52,3.11,3.11,0,0,0,1.29-1.33v-2.53h-1.66c-2.59,0-3.88.75-3.88,2.27a1.92,1.92,0,0,0,.66,1.55A2.56,2.56,0,0,0,134.61,204.67Z"/><path class="cls-4" d="M145.39,193.93V207.7c0,2.38-1.08,3.56-3.23,3.56a4.06,4.06,0,0,1-1.29-.2v-1.68a4.11,4.11,0,0,0,1,.09,1.42,1.42,0,0,0,1.07-.38,1.89,1.89,0,0,0,.37-1.33V193.93Zm-2.33-3.28a1.26,1.26,0,0,1,.31-.86,1.16,1.16,0,0,1,.92-.36,1.21,1.21,0,0,1,.94.36,1.24,1.24,0,0,1,.32.86,1.22,1.22,0,0,1-.32.86,1.23,1.23,0,0,1-.94.34,1.16,1.16,0,0,1-.92-.34A1.21,1.21,0,0,1,143.06,190.65Z"/><path class="cls-4" d="M156.41,206.28a4.69,4.69,0,0,1-.3-1.3,4.69,4.69,0,0,1-3.51,1.52,4.36,4.36,0,0,1-3-1,3.34,3.34,0,0,1-1.17-2.62,3.48,3.48,0,0,1,1.47-3,6.92,6.92,0,0,1,4.12-1.07h2.06v-1a2.35,2.35,0,0,0-.66-1.76,2.66,2.66,0,0,0-1.95-.66,3.08,3.08,0,0,0-1.9.57,1.67,1.67,0,0,0-.76,1.38h-2.13a2.89,2.89,0,0,1,.66-1.78,4.5,4.5,0,0,1,1.78-1.37,6.06,6.06,0,0,1,2.47-.5,4.87,4.87,0,0,1,3.34,1.07,3.84,3.84,0,0,1,1.26,2.94v5.68a6.93,6.93,0,0,0,.43,2.7v.19Zm-3.5-1.61a3.63,3.63,0,0,0,1.88-.52,3.11,3.11,0,0,0,1.29-1.33v-2.53h-1.66c-2.58,0-3.88.75-3.88,2.27a1.9,1.9,0,0,0,.67,1.55A2.54,2.54,0,0,0,152.91,204.67Z"/><path class="cls-4" d="M101.33,226a6.13,6.13,0,0,1-2,4.07A6.34,6.34,0,0,1,95,231.5a5.84,5.84,0,0,1-4.72-2.11,8.5,8.5,0,0,1-1.78-5.65v-1.59a9.49,9.49,0,0,1,.83-4.08,6.15,6.15,0,0,1,2.35-2.7,6.58,6.58,0,0,1,3.51-.94,6,6,0,0,1,4.25,1.48,6.25,6.25,0,0,1,1.86,4.09H99.12a4.77,4.77,0,0,0-1.23-2.88,3.75,3.75,0,0,0-2.67-.9,3.9,3.9,0,0,0-3.29,1.56,7.09,7.09,0,0,0-1.19,4.42v1.61a7.26,7.26,0,0,0,1.13,4.3,3.63,3.63,0,0,0,3.16,1.6,4.23,4.23,0,0,0,2.8-.82A4.62,4.62,0,0,0,99.12,226Z"/><path class="cls-4" d="M111.61,231.28a4.69,4.69,0,0,1-.3-1.3,4.69,4.69,0,0,1-3.51,1.52,4.36,4.36,0,0,1-3-1,3.34,3.34,0,0,1-1.17-2.62,3.48,3.48,0,0,1,1.47-3,6.92,6.92,0,0,1,4.12-1.07h2.06v-1a2.35,2.35,0,0,0-.66-1.76,2.69,2.69,0,0,0-2-.66,3.07,3.07,0,0,0-1.89.57,1.67,1.67,0,0,0-.76,1.38h-2.13a2.89,2.89,0,0,1,.66-1.78,4.5,4.5,0,0,1,1.78-1.37,6.06,6.06,0,0,1,2.47-.5,4.87,4.87,0,0,1,3.34,1.07,3.84,3.84,0,0,1,1.26,2.94v5.68a6.93,6.93,0,0,0,.43,2.7v.19Zm-3.51-1.61a3.66,3.66,0,0,0,1.89-.52,3.11,3.11,0,0,0,1.29-1.33v-2.53h-1.66c-2.58,0-3.88.75-3.88,2.27a1.92,1.92,0,0,0,.66,1.55A2.58,2.58,0,0,0,108.1,229.67Z"/><path class="cls-4" d="M119,231.28h-2.11V213.75H119Z"/><path class="cls-4" d="M122.38,215.65a1.28,1.28,0,0,1,.31-.86,1.39,1.39,0,0,1,1.87,0,1.24,1.24,0,0,1,.32.86,1.22,1.22,0,0,1-.32.86,1.46,1.46,0,0,1-1.87,0A1.26,1.26,0,0,1,122.38,215.65Zm2.28,15.63h-2.11V218.93h2.11Z"/><path class="cls-4" d="M129.08,231.28V220.56h-2v-1.63h2v-1.27a4.21,4.21,0,0,1,1.06-3.07,4,4,0,0,1,3-1.08,5.5,5.5,0,0,1,1.45.19l-.11,1.7a6,6,0,0,0-1.14-.1,2.06,2.06,0,0,0-1.59.6,2.46,2.46,0,0,0-.56,1.72v1.31h2.64v1.63h-2.64v10.72Z"/><path class="cls-4" d="M135.59,225a7.27,7.27,0,0,1,.72-3.27,5.32,5.32,0,0,1,2-2.23,5.38,5.38,0,0,1,2.91-.79,5.2,5.2,0,0,1,4.08,1.75,6.7,6.7,0,0,1,1.56,4.64v.15a7.33,7.33,0,0,1-.7,3.23,5.24,5.24,0,0,1-2,2.24,5.5,5.5,0,0,1-2.95.79,5.21,5.21,0,0,1-4.07-1.74,6.7,6.7,0,0,1-1.56-4.62Zm2.13.25a5.26,5.26,0,0,0,.95,3.3,3.24,3.24,0,0,0,5.11,0,5.79,5.79,0,0,0,.94-3.53,5.27,5.27,0,0,0-1-3.29,3.07,3.07,0,0,0-2.56-1.26,3,3,0,0,0-2.52,1.24A5.74,5.74,0,0,0,137.72,225.24Z"/><path class="cls-4" d="M155.45,220.82a6.76,6.76,0,0,0-1-.08,2.79,2.79,0,0,0-2.82,1.77v8.77h-2.11V218.93h2.06l0,1.43a3.27,3.27,0,0,1,3-1.66,2.07,2.07,0,0,1,.93.16Z"/><path class="cls-4" d="M159.39,218.93l.07,1.55a4.47,4.47,0,0,1,3.69-1.78q3.91,0,3.95,4.42v8.16H165v-8.17a2.87,2.87,0,0,0-.61-2,2.47,2.47,0,0,0-1.87-.64,3,3,0,0,0-1.8.55,3.7,3.7,0,0,0-1.21,1.44v8.8h-2.11V218.93Z"/><path class="cls-4" d="M170.3,215.65a1.23,1.23,0,0,1,.31-.86,1.17,1.17,0,0,1,.93-.36,1.21,1.21,0,0,1,.94.36,1.24,1.24,0,0,1,.32.86,1.22,1.22,0,0,1-.32.86,1.23,1.23,0,0,1-.94.34,1.19,1.19,0,0,1-.93-.34A1.21,1.21,0,0,1,170.3,215.65Zm2.28,15.63h-2.11V218.93h2.11Z"/><path class="cls-4" d="M183.58,231.28a4.69,4.69,0,0,1-.3-1.3,4.69,4.69,0,0,1-3.51,1.52,4.36,4.36,0,0,1-3-1,3.34,3.34,0,0,1-1.17-2.62,3.48,3.48,0,0,1,1.47-3,6.93,6.93,0,0,1,4.13-1.07h2.05v-1a2.35,2.35,0,0,0-.66-1.76,2.64,2.64,0,0,0-2-.66,3.08,3.08,0,0,0-1.9.57,1.67,1.67,0,0,0-.76,1.38h-2.13a2.89,2.89,0,0,1,.66-1.78,4.5,4.5,0,0,1,1.78-1.37,6.06,6.06,0,0,1,2.47-.5,4.87,4.87,0,0,1,3.34,1.07,3.84,3.84,0,0,1,1.26,2.94v5.68a6.93,6.93,0,0,0,.43,2.7v.19Zm-3.5-1.61a3.63,3.63,0,0,0,1.88-.52,3.11,3.11,0,0,0,1.29-1.33v-2.53h-1.66c-2.58,0-3.88.75-3.88,2.27a1.93,1.93,0,0,0,.67,1.55A2.54,2.54,0,0,0,180.08,229.67Z"/><path id="BC" class="cls-5" d="M168.39,181.23h-.51l-.19-.32-.2.06-.13-.13.07-.12.26-.2.25.2.32.32.13.19ZM137.66,174l.51.06.07.13-.32.19s-.5-.16-.52-.25Zm8.28,5.07c-.25.45.07,1.06,0,1.54-.31-.24-1.5-.72-1.61-1a1,1,0,0,0-1.73,0c-.65-1.2,1.74-2.59,2.18-3.73-.54-1-.74-2.89.51-3.33.69.28.21,1.26.84,1.6.19.67.17,3.35.38,3.85C146.44,178.17,145.76,178.78,145.94,179.05Zm58.25-6.42.07.13-.33-.13-.06-.19.19-.13.2.13ZM194.63,168l-.45-.77-.64-.38-.77-.39-.58-.83.71.19,1.09.77.83.77.26.32Zm-2.5-2.63v.13l-.19-.06-.26-.13-.19-.07-.07-.12v-.2l.26.26.45.06v.13Zm6.86-1c.73.76.16,1.76-.89,1.47.11-.31-.34-.91-.2-1.28.34-.19.79,0,1.09-.19Zm-9.62-3.66-.13.13v.06h-.06l-.07-.06h.07l.06-.07.07-.13v-.12l.06.06.06.06-.06.07Zm-9.24-3.4v.06c-.08,0-.54-.34-.38-.57h-.07c.07-.3-.17-.44-.25-.71C180.24,155.72,179.58,157.07,180.13,157.3Zm-97,4,.13-.58L82.93,159l-.32-.32-.83-2-.26-1.09.64-1.16,1.67-.38.06,2.11.65,1.74-.07,1.28-.06,1ZM180,145.81c1.39.33,2.33,2.62,3,3.53-1.41,1,.06,2.35,1.28,2.38,2.25-.48,2.44-.27,2.18,1,.48,1.36-.58,3.95,1.54,4.24a2.44,2.44,0,0,0-.25,1.6,12.33,12.33,0,0,1-3.79-3.72,26.27,26.27,0,0,1-3.91-3.27,8.84,8.84,0,0,0-1.35-2.31c-1.46-1,.29-2.32-.19-3.59,0,0,1,.06,1-.2h.26Zm-18.15-9.88h-.2l-.32-.19.13-.19-.06-.26h.32l.06.39Zm-2.95-3.08.12.07v.13H159l-.06-.13-.13-.07h-.07l-.06-.06Zm-31.57-9.17h-.26l-.13-.06v-.13l.13-.13h.13l.13.19Zm-23-45.23h-.06l-.07-.26-.06-.19-.07-.07-.06-.25.13.06.06.13.07.19.06.2ZM151,89.93c0,.38.32.46.22,1.19.35,2,2.3,2.5,3,4.49.1,1.62-5.26,12.31.74,17.1,1.86,1.48.53,5.19,1.33,7.36,1.27,3.47.06,6.38.53,9.06.3,1.73,1.83,3.22,1.93,5.29,0,1,2.85,3.94,3.28,4.32,1.69,1.53,1.91,1.48,2.11,1.56,1.81.67,3.39,2.83,5.07,4.17,2.62,2.36,5.59,3.6,7.06,7.12.86,2.07,1.84,2.62,2.37,4.49.27,1,.92,1,.33,1.78.16.51-.2.35.29.94s.74.25,1.11.68c.93,1.07,1.48-.2,1.86.13.38,0,.2.68.38.77.63.44.66,1,1.71,1.78.91.23,3.54,3.48,3.3,5.77-.07.66,3,1.94,4.25,3.25.84.47,1.22,2.14,1.47,3.33a7.42,7.42,0,0,0,.39,2.28c.53,1.71.42,3.2,1.07,4.44-8.44,0-21.64.05-30.1.05,1.28-1.16,1.11-1.76,1.76-3.65.47-1.39.18-1.84.32-3.2.44-2.46.94-3.51-.06-5a19.34,19.34,0,0,0-2.2-2.57c-2.46-2.08-3.17-3.83-5.3-5.72-.71-.64-2.37-2.51-1.86-2.1-2.75-2.2-5.56-6.79-7.21-7.68-2.44-1-1.81-1.23-4.54-2.57-4.27-2.65-6.32-3.55-9.59-6.69a11.9,11.9,0,0,1-3.41-6.32c-1.29-3.9.29-6.63-1.23-8.23a7.17,7.17,0,0,0-2.7-1.13c-1.29-.68-1.26-1.15-1.21-3.07a7.23,7.23,0,0,0-.29-5.27,17.77,17.77,0,0,0-3-3.83c-.69-.44-2.81-1.75-2.6-3,.68-3.33-.47-5.27-3-8.13a21,21,0,0,1-2.86-3c-.89-1.29-1.1-1.8-1.07-2.68-.27-.88.79-2.28.44-3.09a11.48,11.48,0,0,0-.42-2.2c-.23-1-1.07-1.55-1.44-2.29-1.73-2-2.25-3.55-3.33-5.11-1.69-2.43-5-6-4.72-9.75,14.29-1.89,34.7-3.87,49.43-4.51-.21,1.41.09,1.62-.21,5.21-3.69-.08-6.16,4.52-5.68,5.36,1.06.49,1.59,3.41,1.8,4.64C150.9,87.45,150.69,88.63,151,89.93Z"/><path class="cls-1" d="M94.07,42.29a3.19,3.19,0,0,0,.53-1.36A1.53,1.53,0,0,0,94,39.62c-.42-.31-.74-.36-1.12.11l.29.08,0,.12a11.22,11.22,0,0,1-1.65-.34,3.48,3.48,0,0,0-2.58.07,8,8,0,0,1-2.47.61,5.56,5.56,0,0,0-2.64.84,1.41,1.41,0,0,0-.5.63A7.05,7.05,0,0,0,83,44.59a.88.88,0,0,1-.2.58,1.09,1.09,0,0,0-.5,1c0,.7-.43,1-.89,1.37s-.69.41-1,.64a4.27,4.27,0,0,0-.47.48h0l-1,.48h0a3.35,3.35,0,0,0-3,.34,1.34,1.34,0,0,1-.5.22c-.88.24-1.85-.18-2.71.52a3.91,3.91,0,0,1-1.73.43.65.65,0,0,1-.53-.16,3.25,3.25,0,0,0-1.32-1.22,3.61,3.61,0,0,0-1.47-.42,9,9,0,0,1-1-.11c-.28-.42-.51-.79-.76-1.15-.34-.51-.85-.94-.93-1.61A3.42,3.42,0,0,0,63.75,44a7.79,7.79,0,0,1-1.91-3.09,1,1,0,0,1,0-.63.74.74,0,0,0-.2-1,2.81,2.81,0,0,1-1.07-1.9c0-.32-.17-.63-.2-1a2.39,2.39,0,0,1,.05-.7c.06-.45.16-.9.22-1.35,0-.23,0-.47,0-.7.08-1.05.14-2.11.28-3.16A10.11,10.11,0,0,1,62,26.73a7.55,7.55,0,0,0,.5-1.59,1.27,1.27,0,0,0,0-.43,1.36,1.36,0,0,0-.51.11.46.46,0,0,1-.67-.05,1.67,1.67,0,0,0-1.24-.42,4.23,4.23,0,0,1-1.12-.25c-.64-.26-1.25-.61-1.9-.86a1,1,0,0,1-.65-.52c-.27-.58-.59-1.15-.88-1.73a1.36,1.36,0,0,1,0-.36c-.05-.42-.08-.85-.17-1.26A1.18,1.18,0,0,0,55,18.9c-.3-.32-.62-.62-.91-.94s-.6-.7-.89-1.06a1.4,1.4,0,0,1-.28-.36c-.25-.53-.46-1.09-.73-1.61a4.42,4.42,0,0,0-1.45-2.16c-.31-.2-.5-.6-.81-.79s-.45-.69-1-.7A20.29,20.29,0,0,1,46.7,11a.67.67,0,0,0-.31,0,4.68,4.68,0,0,0-.64.3,1.59,1.59,0,0,0-.57.48,6,6,0,0,0-.47,1.21,1.06,1.06,0,0,1-1.82.66c-.4-.28-.88-.45-1.31-.69a7.71,7.71,0,0,1-.77-.49,4.71,4.71,0,0,0-.45-.33,2.06,2.06,0,0,1-1.1-1.78,4.26,4.26,0,0,0-.93-2.12c-.28-.37-.82-.54-1.19-.86s-.93-.91-1.41-1.35c-.25-.23-.53-.43-.78-.65a2.62,2.62,0,0,1-.66-.67,1,1,0,0,0-1-.64c-1.34,0-2.68,0-4,0-1.15,0-1-.1-1,1,0,.47-.13.63-.61.62-2.54,0-5.08,0-7.62,0a2.57,2.57,0,0,1-.83-.12L8.77,1.84C8,1.57,8,1.56,8.18.78a4.09,4.09,0,0,0-.5,0l-6.47.58c-.52,0-.59.19-.36.67a2.8,2.8,0,0,0,.3.46L1.44,3a3,3,0,0,0,.34.57c.28.31.51.6.35,1.06-.1.31.06.54.29.78.4.41.87.82.75,1.52,0,.09.1.24.19.32.46.4.89.78.69,1.5,0,.15.13.52.22.53.46,0,.51.33.49.65a2.44,2.44,0,0,0,.52,1.65,7.29,7.29,0,0,0,1.65,1.16,4.11,4.11,0,0,1,.73.46c.82.86,1.61,1.74,2.39,2.63a.49.49,0,0,1,.09.39c-.14.53,0,1.14-.54,1.55-.06.06,0,.2-.08.31s-.22,0-.29.07a1.18,1.18,0,0,1-1.12.12,1.71,1.71,0,0,0-.5-.1,2.64,2.64,0,0,0-.46.13,2.59,2.59,0,0,0,.3.48c.51.5,1.33.7,1.47,1.56a.28.28,0,0,0,.16.16,7.17,7.17,0,0,0,1.36.73,1.36,1.36,0,0,1,.78.58c.19.27.4.56.82.19s1,.05,1.2.38a3,3,0,0,0,.43.52c.59.71,1.61.82,2.15,1.64a3.36,3.36,0,0,1,.33,2.66c-.22.49-.36,1-.56,1.61a5.24,5.24,0,0,0,.71.1c.39,0,.69.12.74.58l-.39.23.81.64.12-.1-.18-.57a.85.85,0,0,1,.27.13c1,.9,2.33,1.51,3.18,2.64a.89.89,0,0,0,.35.21,1.75,1.75,0,0,1,1,1.35,5.7,5.7,0,0,0,.22.81c.21.49.53.55.95.23.24-.19.5-.36.76-.53a1.15,1.15,0,0,0,0-1.86,1.14,1.14,0,0,1-.37-.49,6.73,6.73,0,0,0-.43-.94,3.48,3.48,0,0,0-.73-.57l-.8-.64-.12.07.1.79h0l-.45-.21a1.37,1.37,0,0,1-.66-1.56A1,1,0,0,0,20.46,28,5.64,5.64,0,0,1,19.9,27a3.45,3.45,0,0,0-.39-.82,2.24,2.24,0,0,1-.78-1.7.92.92,0,0,0-.07-.4c-.19-.53-.39-1.05-.59-1.57s-.47-1-1.14-1c-.09,0-.26-.25-.24-.35.06-.34-.09-.48-.37-.6-.12,0-.17-.23-.27-.35-.34-.41-.31-1.11-1-1.31a1.17,1.17,0,0,1-.81-1.09c-.08-.52-.18-1-.31-1.55,0-.13-.25-.22-.37-.33s-.4-.24-.43-.39c-.12-.75-.73-1-1.25-1.32a3.79,3.79,0,0,0-1-1.77c-.62-.6-1.46-.93-2-1.67a2.3,2.3,0,0,1-.48-1.27c0-.69-.13-1.38-.2-2.07a.45.45,0,0,0-.12-.25C7.5,6.48,7.81,5.65,8,4.87c.1-.49.46-.54.87-.24a3.27,3.27,0,0,0,.78.51,1.92,1.92,0,0,0,.83.06c.14,0,.3-.22.42-.19s.45.17.49.32c.18.68.72.73,1.28.88s.71.33.52.89a1.8,1.8,0,0,0,.43,1.77,2.27,2.27,0,0,1,.55,1.19c0,.85.58,1.37.91,2,.1.2.12.43.21.63a1,1,0,0,0,.27.35.91.91,0,0,0,.3.13l.08.13c-1.19-.14-.84.79-1.14,1.37.29.12.58.34.79.28s.37-.38.61-.65c.18.24.36.5.55.74s.53.88.91,1.09a2.87,2.87,0,0,1,1,1,3.31,3.31,0,0,0,.77.72,2.35,2.35,0,0,0,.65.27c.18-.07.42-.14.55-.05a.82.82,0,0,1,.21.51c0,.21-.06.46,0,.64s.39.58.54.89a.94.94,0,0,0,.86.63c.63,0,.75.35.84.85a.7.7,0,0,0,.91.64.78.78,0,0,1,.9.55,1.63,1.63,0,0,1,0,.95,2.17,2.17,0,0,1-.32.57,1.08,1.08,0,0,0,.21,1.21,4.61,4.61,0,0,1,.6.47,1.44,1.44,0,0,0,1.31.66.57.57,0,0,1,.21.1l.75.46,1,.56-.07.12L28,27.64a3.36,3.36,0,0,0,2.46,2.3c-.37.38,0,.52.2.71s.42.31.62.49a10.65,10.65,0,0,1,1,.93c.34.39.64.83,1,1.25.09.12.19.23.29.35a17,17,0,0,0,1.52,1.75,3.09,3.09,0,0,1,1.06,2.2,3,3,0,0,0,.25,1c.25.54.49,1.12,1.11,1.28a4.52,4.52,0,0,0,0,.68,1,1,0,0,1-.34,1,5.46,5.46,0,0,0-.57.78,3,3,0,0,1,.47.12c.13.08.24.19.36.28-.1.1-.18.24-.3.3a4.71,4.71,0,0,1-.54.12c-.48.12-.57.37-.28.77a2.67,2.67,0,0,1,.22.41,6.86,6.86,0,0,0,.45.95,14.44,14.44,0,0,0,1,1.3,2.51,2.51,0,0,0,.67.67,17.49,17.49,0,0,1,2.86,1.46A12.72,12.72,0,0,1,42.68,50a2,2,0,0,0,.62.5,17.32,17.32,0,0,0,1.71.6c.58.18,1.17.34,1.75.5a.36.36,0,0,0,.27,0c.49-.29.79,0,1.1.31a10.27,10.27,0,0,0,.77.71c.48.37,1,.71,1.47,1a2.14,2.14,0,0,0,.45.24c.57.21,1.15.38,1.71.61s1.09.52,1.65.76a7.35,7.35,0,0,0,1,.38c1,.29,2.08.22,2.84,1.09a1.45,1.45,0,0,0,.45.22c.57.25,1.13.51,1.7.74a5.36,5.36,0,0,0,.78.23,6,6,0,0,1,1.83.47,3.12,3.12,0,0,0,2.54.41,13.5,13.5,0,0,0,1.82-.72c.37-.17.71-.4,1.08-.58a6.49,6.49,0,0,1,.74-.26l.58-.18-.4-.28.26-.2.79.25-.22.23,1.9.63c1.64.53,2.69,1.85,3.91,2.94.65.57,1.24,1.19,1.86,1.79l.09,0c.08-.69.57-1.33.2-2.07a.74.74,0,0,1,0-.56c.3-.57.66-1.1,1-1.67a.78.78,0,0,1,.81-.48c1,0,2,0,3,0,.16,0,.41-.11.45-.23a5.15,5.15,0,0,0,.12-1s0,0-.07,0c-.42-.13-.6-.48-.8-.84a.82.82,0,0,0-.4-.36,4.22,4.22,0,0,1-1.53-1.35c1.06-.07,1.06-.07,1.06-1.13a.33.33,0,0,0,0-.1c-.07-.48.15-.61.62-.61,1.49,0,3,0,4.49,0,.22,0,.47.06.53-.29s.29-.3.5-.15.43.12.57-.11c.24-.39.45-.8.67-1.19-.11.14-.25.28-.35.43.1-.15.24-.29.35-.43h0l0,0h0c.14-.14.29-.41.43-.4.47,0,.66-.25.83-.6a4.94,4.94,0,0,1,.3-.49l.12,0a2.88,2.88,0,0,1-.1.51c-.12.27-.1.47.18.62a2.69,2.69,0,0,1,.33.26l.06.06h0c.13.4.24.1.28,0,.16-.43.29-.88.43-1.32.18-.62.36-1.24.55-1.91H91.8c.35-.24.82-.23.74-.74l-.78-.14a3.78,3.78,0,0,0,.66-1.17,3.3,3.3,0,0,1,1.08-2A2.72,2.72,0,0,0,94.07,42.29Z"/><path class="cls-1" d="M93.71,43.65a.29.29,0,0,0,.12.23.25.25,0,0,0,.24-.06c.21-.27.4-.56.64-.9C94,42.82,93.65,43.12,93.71,43.65Z"/><path id="MEX2706" class="cls-6" d="M10.28,17.65H10.2l0,0h0l0,0v0l0,0,0,0,0,.05,0,0ZM5.59,16.54v0h.06v0h0v0h0s0,0,0-.05v0Zm1.26.78c0,.07,0,.16,0,.23-.24.06-.28-.39-.51-.14C6.61,16.45,7,16,6.85,17.32Zm6.63-2.81,0,0h0v0h0Zm-1.43-2.27c.22,0,.36.4.46.54-.41.53.75.16.53.52.08.21-.09.6.24.65-.06.06,0,.16,0,.24a2,2,0,0,1-.58-.57c-.28-.07-.34-.46-.6-.5a1,1,0,0,1-.23-.9h0c0,.07.11,0,.11,0h0v0Zm-3.22-2h0v0h0v0h0ZM4,8.86H4v0l0,0H4l0,0ZM.5,2h0V1.88h0v0h0V2ZM7.62,3.71s0,.07,0,.18c0,.31.35.38.46.68s-.81,1.88.11,2.61c.29.23.08.8.2,1.13.2.53,0,1,.09,1.38s.27.49.29.81c0,.16.44.6.5.66.26.23.29.23.32.24.28.1.52.43.78.64.4.36.85.55,1.08,1.08.13.32.28.4.36.69s.14.16.05.27,0,.05,0,.14.12,0,.17.11.23,0,.29,0,0,.1.06.12.1.14.26.27a1.13,1.13,0,0,1,.5.88c0,.1.45.29.65.5s.19.32.22.5a1.24,1.24,0,0,0,.06.35,4.49,4.49,0,0,0,.17.68H9.72c.19-.18.17-.27.27-.56a1.63,1.63,0,0,0,0-.49c.06-.37.14-.53,0-.76a4.94,4.94,0,0,0-.34-.39c-.37-.31-.48-.58-.81-.87-.11-.1-.36-.38-.28-.32-.42-.34-.85-1-1.1-1.17s-.28-.19-.7-.4a7,7,0,0,1-1.46-1,1.85,1.85,0,0,1-.52-1c-.2-.6,0-1-.19-1.26a.94.94,0,0,0-.41-.17C4,9.18,4,9.11,4,8.82A1.08,1.08,0,0,0,4,8a2.49,2.49,0,0,0-.45-.58c-.11-.07-.43-.27-.4-.45a1.32,1.32,0,0,0-.45-1.25,3.21,3.21,0,0,1-.44-.46c-.14-.19-.17-.27-.16-.4s.12-.35.06-.48a1.3,1.3,0,0,0-.06-.33c0-.16-.16-.24-.22-.35a9.1,9.1,0,0,1-.51-.78C1.1,2.56.6,2,.64,1.44,2.82,1.15,5.94.85,8.19.75c0,.21,0,.25,0,.79-.56,0-.94.69-.87.82s.24.52.28.71S7.58,3.51,7.62,3.71Z"/></g></svg>