<svg xmlns="http://www.w3.org/2000/svg" viewBox="0 0 306.04 276.52"><defs><style>.cls-1{fill:#fef6fc;}.cls-1,.cls-2,.cls-3{stroke:#6d4162;stroke-miterlimit:10;stroke-width:0.78px;}.cls-2,.cls-3{fill:none;}.cls-3{isolation:isolate;}.cls-4{fill:#713972;}.cls-5{fill:#b25fac;}.cls-6{fill:#f230b9;}</style></defs><g id="estados"><circle class="cls-1" cx="136.96" cy="151.48" r="97.03"/><circle class="cls-2" cx="136.96" cy="151.48" r="104.09"/><polyline class="cls-3" points="213.34 81.1 271.32 41.25 305.78 41.25"/><polyline class="cls-3" points="214.19 220.92 271.32 255.56 305.78 255.56"/><polyline class="cls-3" points="239.72 131.27 272.01 116.16 306.47 116.16"/><polyline class="cls-3" points="238.56 172.75 271 186.07 305.46 186.07"/><path class="cls-4" d="M114.21,213.89a6.09,6.09,0,0,1-1.95,4.06,6.34,6.34,0,0,1-4.35,1.44,5.87,5.87,0,0,1-4.72-2.12,8.49,8.49,0,0,1-1.77-5.64V210a9.38,9.38,0,0,1,.83-4.08,6.11,6.11,0,0,1,2.34-2.69,6.51,6.51,0,0,1,3.52-.95,6,6,0,0,1,4.24,1.48,6.15,6.15,0,0,1,1.86,4.09H112a4.8,4.8,0,0,0-1.24-2.88,3.72,3.72,0,0,0-2.66-.89,3.93,3.93,0,0,0-3.3,1.55,7.15,7.15,0,0,0-1.19,4.42v1.61a7.39,7.39,0,0,0,1.13,4.31,3.66,3.66,0,0,0,3.16,1.59,4.21,4.21,0,0,0,2.8-.82,4.62,4.62,0,0,0,1.3-2.88Z"/><path class="cls-4" d="M116.31,212.87a7.33,7.33,0,0,1,.71-3.26,5.31,5.31,0,0,1,2-2.24,5.37,5.37,0,0,1,2.9-.79,5.2,5.2,0,0,1,4.08,1.75,6.7,6.7,0,0,1,1.56,4.64v.15a7.4,7.4,0,0,1-.69,3.24,5.34,5.34,0,0,1-2,2.23,5.5,5.5,0,0,1-3,.8,5.21,5.21,0,0,1-4.07-1.75,6.66,6.66,0,0,1-1.56-4.62Zm2.12.25a5.26,5.26,0,0,0,1,3.3,3.23,3.23,0,0,0,5.1,0,5.79,5.79,0,0,0,1-3.53,5.23,5.23,0,0,0-1-3.29,3.21,3.21,0,0,0-5.08,0A5.74,5.74,0,0,0,118.43,213.12Z"/><path class="cls-4" d="M132.49,219.16h-2.11V201.63h2.11Z"/><path class="cls-4" d="M135.88,203.54a1.28,1.28,0,0,1,.31-.87,1.39,1.39,0,0,1,1.87,0,1.24,1.24,0,0,1,.32.87,1.14,1.14,0,0,1-1.26,1.19,1.19,1.19,0,0,1-.93-.34A1.25,1.25,0,0,1,135.88,203.54Zm2.28,15.62h-2.11V206.81h2.11Z"/><path class="cls-4" d="M143.53,206.81l.05,1.37a4.56,4.56,0,0,1,3.67-1.6,3.52,3.52,0,0,1,3.52,2,4.62,4.62,0,0,1,3.94-2c2.71,0,4.08,1.44,4.13,4.3v8.28h-2.11V211a2.81,2.81,0,0,0-.61-2,2.65,2.65,0,0,0-2-.66,2.75,2.75,0,0,0-2.85,2.59v8.2h-2.12v-8.09q0-2.7-2.64-2.7a2.83,2.83,0,0,0-2.84,1.77v9h-2.11V206.81Z"/><path class="cls-4" d="M169.65,219.16a4.69,4.69,0,0,1-.3-1.3,4.7,4.7,0,0,1-3.51,1.53,4.36,4.36,0,0,1-3-1,3.34,3.34,0,0,1-1.17-2.62,3.48,3.48,0,0,1,1.47-3,6.89,6.89,0,0,1,4.12-1.07h2.06v-1a2.34,2.34,0,0,0-.67-1.76,2.64,2.64,0,0,0-2-.66,3.07,3.07,0,0,0-1.89.57,1.69,1.69,0,0,0-.77,1.38h-2.12a2.89,2.89,0,0,1,.66-1.78,4.5,4.5,0,0,1,1.78-1.37,6.06,6.06,0,0,1,2.47-.5,4.87,4.87,0,0,1,3.34,1.07,3.84,3.84,0,0,1,1.26,2.94v5.68a6.89,6.89,0,0,0,.43,2.7v.19Zm-3.51-1.61A3.75,3.75,0,0,0,168,217a3.19,3.19,0,0,0,1.29-1.34v-2.53h-1.66c-2.59,0-3.88.75-3.88,2.27a1.92,1.92,0,0,0,.66,1.55A2.56,2.56,0,0,0,166.14,217.55Z"/><path id="COL" class="cls-5" d="M189.9,152.81l-1.31-.33-.66,1-.33,1-.33,1.32-.66.33h-1.32l-.33.33-.33.33.33,1.32v.33l-.66.33-1.32.66-1.32.65-1,.66-1.31,1-.66.33-1-.33-1.32-.66-.33.33-.33.33-.33.66V163l.33,1v1l-.66,1.32-.33,1.65v1.32l-.33,1.31-1.32,1.32-1.32.66h-1.32l-1.64.66-1,1-.66,1.32-.33,1.32-.33,1.65-.66,1.64-1,1.32-2.31,1.65-5.6-5.6-16.49-11.87-2.63-3-11.54-5.6-9.56-4.95-6.27-2.31-5.6-2-2-.66-1.65-.66.33-3.3,2.31-.33.66-1-.66-2-2.31-2h-1.32l-1,1-.66-.33.33-2L97.27,136l-1.65.33-1,.66.33,1.65-.66.33-1-1-1-.66-1,1.65L90,140l-1.31-2.3L85.07,136l-2-1.32-9.23-2,.33-2.64,1-1.31,1.65-1.32,1.65-1.65,1-2.64.32-1.32,1.32-.66,2.64.33.66.66,1,1,.66.66,1-.33.33-1v-2.31l.66-.65,1-.33.66-.66,1-.33,1.32-1,.66.33,1,1,1,.66h1l1.32-.33,1.65-.33,1-.33,1.32-.33h1l1-.33,1-.66,1.65-1.32,1.65-1.32,2-.33h4.28l1-1.32.66-2,.66-2.3,1.32-1.32,1.32-1,1.31-.66.66-2.31.33-2.64,1-1.64L123,97.1l3-3.3,4-4,.33,1.32.33,1.32v.66l-.33.66,2.64,1.65,3,1.32,2.64,1.65,2.63,1.64,1.65,1,2,1,2.31,1,1.65.66,2.3,1,2,.66,1.65-.33,1.65-2.31,1.32-.66h4.61l2.64-1.65,2.31-2.63,2.3-2.64,2.64-1.32,1.32,1.65,1,2.31,1.65,4.61,1,1.65,2,1.32,1.64,1,1.32,2,.33,1.31.66,1,.66,1,1,1,1,.33,1,.66,1.32.66.66.66-.33,1.32-.33,1-.66,1-.33,1.31v2l.33,2,.33,2.31.33,1.65-.66,3.29L186,135l-1,4,.33,2.63,2,2.64,1,2.64,1,3,.66,3Z"/><path class="cls-1" d="M94.07,42.29a3.19,3.19,0,0,0,.53-1.36A1.53,1.53,0,0,0,94,39.62c-.42-.31-.74-.36-1.12.11l.29.08,0,.12a11.22,11.22,0,0,1-1.65-.34,3.48,3.48,0,0,0-2.58.07,8,8,0,0,1-2.47.61,5.56,5.56,0,0,0-2.64.84,1.41,1.41,0,0,0-.5.63A7.05,7.05,0,0,0,83,44.59a.88.88,0,0,1-.2.58,1.09,1.09,0,0,0-.5,1c0,.7-.43,1-.89,1.37s-.69.41-1,.64a4.27,4.27,0,0,0-.47.48h0l-1,.48h0a3.35,3.35,0,0,0-3,.34,1.34,1.34,0,0,1-.5.22c-.88.24-1.85-.18-2.71.52a3.91,3.91,0,0,1-1.73.43.65.65,0,0,1-.53-.16,3.25,3.25,0,0,0-1.32-1.22,3.61,3.61,0,0,0-1.47-.42,9,9,0,0,1-1-.11c-.28-.42-.51-.79-.76-1.15-.34-.51-.85-.94-.93-1.61A3.42,3.42,0,0,0,63.75,44a7.79,7.79,0,0,1-1.91-3.09,1,1,0,0,1,0-.63.74.74,0,0,0-.2-1,2.81,2.81,0,0,1-1.07-1.9c0-.32-.17-.63-.2-1a2.39,2.39,0,0,1,.05-.7c.06-.45.16-.9.22-1.35,0-.23,0-.47,0-.7.08-1.05.14-2.11.28-3.16A10.11,10.11,0,0,1,62,26.73a7.55,7.55,0,0,0,.5-1.59,1.27,1.27,0,0,0,0-.43,1.36,1.36,0,0,0-.51.11.46.46,0,0,1-.67-.05,1.67,1.67,0,0,0-1.24-.42,4.23,4.23,0,0,1-1.12-.25c-.64-.26-1.25-.61-1.9-.86a1,1,0,0,1-.65-.52c-.27-.58-.59-1.15-.88-1.73a1.36,1.36,0,0,1,0-.36c-.05-.42-.08-.85-.17-1.26A1.18,1.18,0,0,0,55,18.9c-.3-.32-.62-.62-.91-.94s-.6-.7-.89-1.06a1.4,1.4,0,0,1-.28-.36c-.25-.53-.46-1.09-.73-1.61a4.42,4.42,0,0,0-1.45-2.16c-.31-.2-.5-.6-.81-.79s-.45-.69-1-.7A20.29,20.29,0,0,1,46.7,11a.67.67,0,0,0-.31,0,4.68,4.68,0,0,0-.64.3,1.59,1.59,0,0,0-.57.48,6,6,0,0,0-.47,1.21,1.06,1.06,0,0,1-1.82.66c-.4-.28-.88-.45-1.31-.69a7.71,7.71,0,0,1-.77-.49,4.71,4.71,0,0,0-.45-.33,2.06,2.06,0,0,1-1.1-1.78,4.26,4.26,0,0,0-.93-2.12c-.28-.37-.82-.54-1.19-.86s-.93-.91-1.41-1.35c-.25-.23-.53-.43-.78-.65a2.62,2.62,0,0,1-.66-.67,1,1,0,0,0-1-.64c-1.34,0-2.68,0-4,0-1.15,0-1-.1-1,1,0,.47-.13.63-.61.62-2.54,0-5.08,0-7.62,0a2.57,2.57,0,0,1-.83-.12L8.77,1.84C8,1.57,8,1.56,8.18.78a4.09,4.09,0,0,0-.5,0l-6.47.58c-.52,0-.59.19-.36.67a2.8,2.8,0,0,0,.3.46L1.44,3a3,3,0,0,0,.34.57c.28.31.51.6.35,1.06-.1.31.06.54.29.78.4.41.87.82.75,1.52,0,.09.1.24.19.32.46.4.89.78.69,1.5,0,.15.13.52.22.53.46,0,.51.33.49.65a2.44,2.44,0,0,0,.52,1.65,7.29,7.29,0,0,0,1.65,1.16,4.11,4.11,0,0,1,.73.46c.82.86,1.61,1.74,2.39,2.63a.49.49,0,0,1,.09.39c-.14.53,0,1.14-.54,1.55-.06.06,0,.2-.08.31s-.22,0-.29.07a1.18,1.18,0,0,1-1.12.12,1.71,1.71,0,0,0-.5-.1,2.64,2.64,0,0,0-.46.13,2.59,2.59,0,0,0,.3.48c.51.5,1.33.7,1.47,1.56a.28.28,0,0,0,.16.16,7.17,7.17,0,0,0,1.36.73,1.36,1.36,0,0,1,.78.58c.19.27.4.56.82.19s1,.05,1.2.38a3,3,0,0,0,.43.52c.59.71,1.61.82,2.15,1.64a3.36,3.36,0,0,1,.33,2.66c-.22.49-.36,1-.56,1.61a5.24,5.24,0,0,0,.71.1c.39,0,.69.12.74.58l-.39.23.81.64.12-.1-.18-.57a.85.85,0,0,1,.27.13c1,.9,2.33,1.51,3.18,2.64a.89.89,0,0,0,.35.21,1.75,1.75,0,0,1,1,1.35,5.7,5.7,0,0,0,.22.81c.21.49.53.55.95.23.24-.19.5-.36.76-.53a1.15,1.15,0,0,0,0-1.86,1.14,1.14,0,0,1-.37-.49,6.73,6.73,0,0,0-.43-.94,3.48,3.48,0,0,0-.73-.57l-.8-.64-.12.07.1.79h0l-.45-.21a1.37,1.37,0,0,1-.66-1.56A1,1,0,0,0,20.46,28,5.64,5.64,0,0,1,19.9,27a3.45,3.45,0,0,0-.39-.82,2.24,2.24,0,0,1-.78-1.7.92.92,0,0,0-.07-.4c-.19-.53-.39-1.05-.59-1.57s-.47-1-1.14-1c-.09,0-.26-.25-.24-.35.06-.34-.09-.48-.37-.6-.12,0-.17-.23-.27-.35-.34-.41-.31-1.11-1-1.31a1.17,1.17,0,0,1-.81-1.09c-.08-.52-.18-1-.31-1.55,0-.13-.25-.22-.37-.33s-.4-.24-.43-.39c-.12-.75-.73-1-1.25-1.32a3.79,3.79,0,0,0-1-1.77c-.62-.6-1.46-.93-2-1.67a2.3,2.3,0,0,1-.48-1.27c0-.69-.13-1.38-.2-2.07a.45.45,0,0,0-.12-.25C7.5,6.48,7.81,5.65,8,4.87c.1-.49.46-.54.87-.24a3.27,3.27,0,0,0,.78.51,1.92,1.92,0,0,0,.83.06c.14,0,.3-.22.42-.19s.45.17.49.32c.18.68.72.73,1.28.88s.71.33.52.89a1.8,1.8,0,0,0,.43,1.77,2.27,2.27,0,0,1,.55,1.19c0,.85.58,1.37.91,2,.1.2.12.43.21.63a1,1,0,0,0,.27.35.91.91,0,0,0,.3.13l.08.13c-1.19-.14-.84.79-1.14,1.37.29.12.58.34.79.28s.37-.38.61-.65c.18.24.36.5.55.74s.53.88.91,1.09a2.87,2.87,0,0,1,1,1,3.31,3.31,0,0,0,.77.72,2.35,2.35,0,0,0,.65.27c.18-.07.42-.14.55-.05a.82.82,0,0,1,.21.51c0,.21-.06.46,0,.64s.39.58.54.89a.94.94,0,0,0,.86.63c.63,0,.75.35.84.85a.7.7,0,0,0,.91.64.78.78,0,0,1,.9.55,1.63,1.63,0,0,1,0,.95,2.17,2.17,0,0,1-.32.57,1.08,1.08,0,0,0,.21,1.21,4.61,4.61,0,0,1,.6.47,1.44,1.44,0,0,0,1.31.66.57.57,0,0,1,.21.1l.75.46,1,.56-.07.12L28,27.64a3.36,3.36,0,0,0,2.46,2.3c-.37.38,0,.52.2.71s.42.31.62.49a10.65,10.65,0,0,1,1,.93c.34.39.64.83,1,1.25.09.12.19.23.29.35a17,17,0,0,0,1.52,1.75,3.09,3.09,0,0,1,1.06,2.2,3,3,0,0,0,.25,1c.25.54.49,1.12,1.11,1.28a4.52,4.52,0,0,0,0,.68,1,1,0,0,1-.34,1,5.46,5.46,0,0,0-.57.78,3,3,0,0,1,.47.12c.13.08.24.19.36.28-.1.1-.18.24-.3.3a4.71,4.71,0,0,1-.54.12c-.48.12-.57.37-.28.77a2.67,2.67,0,0,1,.22.41,6.86,6.86,0,0,0,.45.95,14.44,14.44,0,0,0,1,1.3,2.51,2.51,0,0,0,.67.67,17.49,17.49,0,0,1,2.86,1.46A12.72,12.72,0,0,1,42.68,50a2,2,0,0,0,.62.5,17.32,17.32,0,0,0,1.71.6c.58.18,1.17.34,1.75.5a.36.36,0,0,0,.27,0c.49-.29.79,0,1.1.31a10.27,10.27,0,0,0,.77.71c.48.37,1,.71,1.47,1a2.14,2.14,0,0,0,.45.24c.57.21,1.15.38,1.71.61s1.09.52,1.65.76a7.35,7.35,0,0,0,1,.38c1,.29,2.08.22,2.84,1.09a1.45,1.45,0,0,0,.45.22c.57.25,1.13.51,1.7.74a5.36,5.36,0,0,0,.78.23,6,6,0,0,1,1.83.47,3.12,3.12,0,0,0,2.54.41,13.5,13.5,0,0,0,1.82-.72c.37-.17.71-.4,1.08-.58a6.49,6.49,0,0,1,.74-.26l.58-.18-.4-.28.26-.2.79.25-.22.23,1.9.63c1.64.53,2.69,1.85,3.91,2.94.65.57,1.24,1.19,1.86,1.79l.09,0c.08-.69.57-1.33.2-2.07a.74.74,0,0,1,0-.56c.3-.57.66-1.1,1-1.67a.78.78,0,0,1,.81-.48c1,0,2,0,3,0,.16,0,.41-.11.45-.23a5.15,5.15,0,0,0,.12-1s0,0-.07,0c-.42-.13-.6-.48-.8-.84a.82.82,0,0,0-.4-.36,4.22,4.22,0,0,1-1.53-1.35c1.06-.07,1.06-.07,1.06-1.13a.33.33,0,0,0,0-.1c-.07-.48.15-.61.62-.61,1.49,0,3,0,4.49,0,.22,0,.47.06.53-.29s.29-.3.5-.15.43.12.57-.11c.24-.39.45-.8.67-1.19-.11.14-.25.28-.35.43.1-.15.24-.29.35-.43h0l0,0h0c.14-.14.29-.41.43-.4.47,0,.66-.25.83-.6a4.94,4.94,0,0,1,.3-.49l.12,0a2.88,2.88,0,0,1-.1.51c-.12.27-.1.47.18.62a2.69,2.69,0,0,1,.33.26l.06.06h0c.13.4.24.1.28,0,.16-.43.29-.88.43-1.32.18-.62.36-1.24.55-1.91H91.8c.35-.24.82-.23.74-.74l-.78-.14a3.78,3.78,0,0,0,.66-1.17,3.3,3.3,0,0,1,1.08-2A2.72,2.72,0,0,0,94.07,42.29Z"/><path class="cls-1" d="M93.71,43.65a.29.29,0,0,0,.12.23.25.25,0,0,0,.24-.06c.21-.27.4-.56.64-.9C94,42.82,93.65,43.12,93.71,43.65Z"/><polygon class="cls-6" points="42.87 48.24 42.84 48.23 42.81 48.26 42.8 48.29 42.8 48.33 42.78 48.34 42.74 48.34 42.73 48.35 42.72 48.36 42.73 48.4 42.73 48.41 42.71 48.42 42.67 48.44 42.63 48.46 42.6 48.48 42.56 48.51 42.54 48.52 42.51 48.51 42.47 48.49 42.46 48.5 42.45 48.51 42.44 48.53 42.44 48.55 42.45 48.58 42.45 48.61 42.43 48.65 42.42 48.69 42.42 48.73 42.41 48.77 42.37 48.81 42.34 48.83 42.3 48.83 42.25 48.85 42.22 48.88 42.2 48.92 42.19 48.96 42.18 49.01 42.16 49.06 42.13 49.1 41.98 49.18 41.8 48.98 41.4 48.63 41.26 48.53 40.98 48.37 40.7 48.22 40.51 48.16 40.35 48.1 40.29 48.08 40.24 48.06 40.25 47.96 39.94 47.83 39.91 47.86 39.87 47.79 39.76 47.74 39.7 47.7 39.42 47.65 39.43 47.57 39.46 47.53 39.51 47.49 39.56 47.44 39.59 47.36 39.6 47.32 39.64 47.3 39.72 47.31 39.74 47.33 39.77 47.36 39.79 47.38 39.82 47.37 39.83 47.34 39.83 47.29 39.83 47.27 39.85 47.25 39.88 47.24 39.9 47.23 39.92 47.22 39.96 47.19 39.98 47.2 40.01 47.23 40.04 47.24 40.07 47.24 40.11 47.23 40.16 47.23 40.19 47.22 40.23 47.2 40.26 47.2 40.29 47.2 40.32 47.18 40.37 47.14 40.41 47.1 40.47 47.09 40.54 47.09 40.6 47.09 40.63 47.05 40.65 46.99 40.67 46.92 40.71 46.88 40.75 46.85 40.79 46.83 40.81 46.76 40.82 46.69 40.84 46.64 40.88 46.59 40.97 46.49 41.09 46.37 41.1 46.41 41.11 46.45 41.11 46.46 41.11 46.47 41.1 46.49 41.18 46.54 41.27 46.58 41.34 46.63 41.42 46.68 41.47 46.7 41.53 46.73 41.6 46.76 41.65 46.78 41.72 46.81 41.78 46.83 41.83 46.82 41.87 46.75 41.91 46.73 41.96 46.73 42 46.73 42.05 46.73 42.13 46.69 42.2 46.61 42.27 46.53 42.34 46.49 42.38 46.54 42.41 46.61 42.46 46.74 42.49 46.79 42.55 46.83 42.6 46.86 42.64 46.92 42.65 46.96 42.67 46.99 42.69 47.02 42.72 47.05 42.75 47.06 42.78 47.08 42.81 47.1 42.84 47.12 42.83 47.16 42.81 47.19 42.8 47.22 42.79 47.25 42.79 47.31 42.8 47.37 42.8 47.44 42.81 47.49 42.8 47.59 42.76 47.71 42.73 47.83 42.74 47.91 42.8 47.99 42.83 48.07 42.85 48.16 42.87 48.24 42.87 48.24"/></g></svg>