<svg xmlns="http://www.w3.org/2000/svg" viewBox="0 0 306.04 276.52"><defs><style>.cls-1{fill:#fef6fc;}.cls-1,.cls-2,.cls-3{stroke:#6d4162;stroke-miterlimit:10;stroke-width:0.78px;}.cls-2,.cls-3{fill:none;}.cls-3{isolation:isolate;}.cls-4{fill:#713972;}.cls-5{fill:#b25fac;}.cls-6{fill:#f230b9;}</style></defs><g id="estados"><circle class="cls-1" cx="136.96" cy="151.48" r="97.03"/><circle class="cls-2" cx="136.96" cy="151.48" r="104.09"/><polyline class="cls-3" points="213.34 81.1 271.32 41.25 305.78 41.25"/><polyline class="cls-3" points="214.19 220.92 271.32 255.56 305.78 255.56"/><polyline class="cls-3" points="239.72 131.27 272.01 116.16 306.47 116.16"/><polyline class="cls-3" points="238.56 172.75 271 186.07 305.46 186.07"/><path class="cls-4" d="M94.67,219.16V202.54h4.69a7.55,7.55,0,0,1,3.84,1,6.46,6.46,0,0,1,2.57,2.73,8.83,8.83,0,0,1,.92,4.06v1.06a8.84,8.84,0,0,1-.91,4.12,6.36,6.36,0,0,1-2.59,2.72,8.1,8.1,0,0,1-3.92,1Zm2.2-14.82v13h2.3a5,5,0,0,0,3.94-1.58,6.52,6.52,0,0,0,1.41-4.49v-1a6.59,6.59,0,0,0-1.33-4.4,4.69,4.69,0,0,0-3.77-1.59Z"/><path class="cls-4" d="M117.29,217.94a4.51,4.51,0,0,1-3.62,1.45,3.82,3.82,0,0,1-3-1.15,5,5,0,0,1-1-3.39v-8h2.11v8c0,1.87.77,2.81,2.29,2.81a3.16,3.16,0,0,0,3.21-1.81v-9h2.12v12.35h-2Z"/><path class="cls-4" d="M128.52,208.71a5.7,5.7,0,0,0-1-.08,2.79,2.79,0,0,0-2.82,1.77v8.76h-2.11V206.81h2.06l0,1.43a3.29,3.29,0,0,1,2.94-1.66,2.24,2.24,0,0,1,.94.16Z"/><path class="cls-4" d="M137.63,219.16a4.6,4.6,0,0,1-.3-1.3,4.7,4.7,0,0,1-3.51,1.53,4.36,4.36,0,0,1-3-1,3.32,3.32,0,0,1-1.17-2.61,3.49,3.49,0,0,1,1.47-3,6.89,6.89,0,0,1,4.12-1.07h2.06v-1a2.35,2.35,0,0,0-.67-1.76,2.64,2.64,0,0,0-1.95-.66,3.07,3.07,0,0,0-1.89.57,1.72,1.72,0,0,0-.77,1.39H129.9a2.9,2.9,0,0,1,.66-1.79,4.41,4.41,0,0,1,1.78-1.36,5.9,5.9,0,0,1,2.47-.51,4.87,4.87,0,0,1,3.34,1.07,3.84,3.84,0,0,1,1.26,2.94v5.68a7,7,0,0,0,.43,2.71v.18Zm-3.51-1.61A3.75,3.75,0,0,0,136,217a3.19,3.19,0,0,0,1.29-1.34v-2.53h-1.66q-3.88,0-3.88,2.27a1.92,1.92,0,0,0,.66,1.55A2.56,2.56,0,0,0,134.12,217.55Z"/><path class="cls-4" d="M144.71,206.81l.07,1.55a4.53,4.53,0,0,1,3.7-1.78c2.61,0,3.92,1.48,4,4.42v8.16h-2.11V211a2.87,2.87,0,0,0-.61-2,2.49,2.49,0,0,0-1.87-.63,3.06,3.06,0,0,0-1.8.54,3.77,3.77,0,0,0-1.21,1.44v8.8h-2.11V206.81Z"/><path class="cls-4" d="M155.11,212.88a7.26,7.26,0,0,1,1.33-4.59,4.6,4.6,0,0,1,7.07-.11l.1-1.37h1.93v12.05a5,5,0,0,1-1.42,3.78A5.25,5.25,0,0,1,160.3,224a6.33,6.33,0,0,1-2.61-.57,4.52,4.52,0,0,1-1.95-1.56l1.09-1.27a4.13,4.13,0,0,0,3.32,1.68,3.25,3.25,0,0,0,2.41-.87,3.33,3.33,0,0,0,.86-2.44v-1.06a4.36,4.36,0,0,1-3.46,1.46,4.2,4.2,0,0,1-3.51-1.75A7.65,7.65,0,0,1,155.11,212.88Zm2.12.24a5.53,5.53,0,0,0,.86,3.28,2.77,2.77,0,0,0,2.39,1.2,3.1,3.1,0,0,0,2.94-1.82v-5.64a3.14,3.14,0,0,0-2.91-1.76,2.8,2.8,0,0,0-2.41,1.19A6,6,0,0,0,157.23,213.12Z"/><path class="cls-4" d="M168.16,212.87a7.2,7.2,0,0,1,.72-3.26,5.28,5.28,0,0,1,2-2.24,5.47,5.47,0,0,1,2.91-.79,5.23,5.23,0,0,1,4.08,1.75A6.69,6.69,0,0,1,179.4,213v.15a7.4,7.4,0,0,1-.69,3.24,5.21,5.21,0,0,1-2,2.23,5.5,5.5,0,0,1-3,.8,5.19,5.19,0,0,1-4.07-1.75,6.66,6.66,0,0,1-1.56-4.62Zm2.13.25a5.26,5.26,0,0,0,1,3.3,3.24,3.24,0,0,0,5.11,0,5.77,5.77,0,0,0,.94-3.53,5.29,5.29,0,0,0-1-3.29,3.07,3.07,0,0,0-2.56-1.26,3,3,0,0,0-2.52,1.24A5.74,5.74,0,0,0,170.29,213.12Z"/><path id="DUR" class="cls-5" d="M169.39,75.41l1.2,1,2,1.76,1,.88,1,1,1.12.88L177,82.06l1,1.2.32,1.44-.24,1.45-.64,1.28-.56,1.28-.4,1.36-.16,1.36.08,1.53.16,1.44.16,1.44.08.8.08.8.08.8.08,1.37.08.72v.88l-.08.8-.24.4-.48.24-.24.32-.16.4-.24.48-.48.48-.16.25-.24.32-.16.24-.32.08-.24.16-.24.24-.41.24-.32.24-.24.32-.16.48v.56l.24.48.32.4.41.4.24.24.32.32.16.32.08.24-.16.16-.56.16-.25.16-.48.65-.32.72-.32.72-.08.8.08.48.16.32.32.32.4.24.49.4.4.48.32.56.32.73.56.88,1,.64,1,.56.88.64.4.88v2.24l.16,1.05.64,1,1.05.64,1.12.4,1.12.32,1,.24,1,.24,1,.4,1.05.48.56.4.56.4.56.4.56.49.08-4.73.56-.16.64-.64.48-.73.4-.56,2.25-3,.4.88.48.8.56.8.56.72.72.89.8,1,.64,1,.32,1v9.7l-.08.4-.32.16-1.76.16-1.12.24-1.2.32-1.12.32-1.13.24-1.12-.08-1.12-.16-1.12-.16-4.49-1-4.49-1-1,.24-1.12.4-1,.56-.72.64L175,138v1l-.24.4-.4.16-.48.08h-1l-.4.08-.32.16-.16.4v.4l-.16.4-.32.16h-.48l-.48.08-.32.33-.16.32-.16.4-.16.32-.56.88-.48.72-.48.56-.81.56-.72.32-.64.24-1.12.48-.88.56-.24.4.16.57-.08.56-.08.72.16.72v.88l-.88.32-.8.24.24.64.4.48.4.4.32.56.08.65-.16.4-.24.32-.16.4-.24.32.32.72.64.4.56.48.32.64-.08.56-.24.72-.32.48-.48-.16-.56-.64-.56-.16-.56.32-.32.72-.08.57-.08.56-.08.48-.33.48-.72.56-.72.56-.8.48-.72.48-.56.4-.24.24-.16.48-.08.64-.24,3.21-.16,1-.08,1.28-.08.64-.24.41-.56.24-.32.24-.16.32-.09.72-.16,3-.08,3-.08,3-.08,3-.16,1.12-.24,1.12-.4,1.12-.32,1-.4,1.37-.8,2.8-.4,1.44-.16-1-.16-1.12-.24-2.08-.88.4-1.85.72-.88.4-.72.08-.72-.32-1.36-.88-.64-.64-.4-.81-.24-.88-.32-1.28-.08-.4-.16-.32-.16-.24-.57-.32-.8-.56-.8-.4-.56-.08-1.52,1.12L137.34,188l-.48.48-.73.56-.72.4-.64-.08-.16-.48V188l.16-1.52.08-.72.16-.4.24-.4.48-.48,1-1,.57-.56.24-.32-1.21-2.88-.24-.56-.24-.32-.32-.32-.56-.33-1.12-.56-1.2-.64-1.2-.64-1.21-.4-1.28-.16h-1.36l-1.36.08-1.28.08-.16-3.2-1,.08-1.12.08-1-.08-.88-.48-.4-.41-.4-.48-.48-.4-.32-.32-.24-.16-.08-.24-.08-.24-.16-.24-.33-.32-.4-.24-.4-.24-.24-.4v-1l-.08-.32-.16-.32-.24-.32-.16-.24.16-.48.08-.25v-.32l-.08-.24-.4-.4.08-.24.08-.24.08-.24-.32-.64-.4-.56-.4-.56-.16-.64-.4-.08-.4-.08-.4-.08-.32-.16-.48-.4-.24-.56-.16-.73-.08-.56-.24-.48-.24-.48-.25-.4-.16-.48-.24-1.92-.16-1-.16-1.13-.08-1.12.16-1,.4-.88.41-.8.32-.88.24-.88-.56.24-.65.08-.48-.08-.48-.49-.4-.64-.32-.72-.56-1.44-.24-.72-.32-.88-.32-.8-.48-.64-1.84-1.69-.65-.56-.24-.24-.32-.16-.24-.16-.32-.16-1-.16-.88.16-1,.48-.8.64-.32.4-.24.4-.32.4-.33.32-.4.16-.4.09H97l-.4-.17-.48-.4-.4-.4-.48-.4-.88-.88-.24-.4-.08-.4v-.88l-.08-.56-.08-.48-.16-.48-.25-.48-.32-.65-.16-.32-.16-.4-.16-.48-.32-.32-.64-.56-.56-1-.32-1-.48-.88-.88-.56L89,129l-.32-.4-.24-.48-.24-.48-.32-.24-.41-.08h-.72l-.48-.08-.4-.16-.24-.24-.24-.48v-.8l-.08-.32-.16-.32-.4-.24-.88-.24-.32-.24-.32-.4-.16-.56-.16-.57-.16-.48-.48-1.12-.32-1.2-.32-1.2-.41-1.2L81,116.19v-1.28l.16-1.36.24-1.28.17-1.2.24-1.29.32-1.28.48-1,.48-.56.48-.4.4-.48.32-.56.24-.56.4-.49.88-.88,2.81.32.48.08.64.08.56.08.48-.08.48-.24.48-.48.48-.48.4-.48,1.93-1.68.48-.4.32-.32.32-.32.24-.32.08-.48.16-3V94.72l.08-1,.32-.8.8-.48h.88l.48-.08.4-.33.24-.48.24-.56.16-.64.17-.56.08-1-.17-1-.4-1-.4-1-.4-.88-.24-.88.16-.8.72-.56,2.25-.64,2.16-.72.48-.16.32-.24.16-.4-.08-.56-.24-.57-.16-.56-.4-1.2.08-.4.4-.4.48-.4.4-.24.16-.24v-.4l.08-.72V73.4l.08-.8.32-.56.41-.16.4.16.32.4.24.32.24-.48.56-1,.24-.56.16-.24.08-.16.32-.4.4.32.4.24.8.56,1,.8,1,.8,1,.8,1,.57h.64l.72.08h.64l.64-.16.64-.08.4.4.32.64.41.64.48.48.48.56.48.48.56.4,3.6,2,2.17,1.21.48-.08.72-.4,1.28-.73L131,78.29l.72-.32.32.32.64.72.88,1.37.48.24.32-.4.32-.57.32-.32.56-.08.64.08.57.08.56.16,1.6.24,1.36.49,1.36.72L143,82l.88.8,1,.88,1,.32.88-.88,1.2-1.6,2.25-3.13,1.12-1.52.88-1.28.88-1.28.88-1.13,1.12-1,.89-.32,1-.16,1-.08h2.24l.56.16.65.24,3.92,1.68,4,1.69Z"/><path class="cls-1" d="M94.07,42.29a3.19,3.19,0,0,0,.53-1.36A1.53,1.53,0,0,0,94,39.62c-.42-.31-.74-.36-1.12.11l.29.08,0,.12a11.22,11.22,0,0,1-1.65-.34,3.48,3.48,0,0,0-2.58.07,8,8,0,0,1-2.47.61,5.56,5.56,0,0,0-2.64.84,1.41,1.41,0,0,0-.5.63A7.05,7.05,0,0,0,83,44.59a.88.88,0,0,1-.2.58,1.09,1.09,0,0,0-.5,1c0,.7-.43,1-.89,1.37s-.69.41-1,.64a4.27,4.27,0,0,0-.47.48h0l-1,.48h0a3.35,3.35,0,0,0-3,.34,1.34,1.34,0,0,1-.5.22c-.88.24-1.85-.18-2.71.52a3.91,3.91,0,0,1-1.73.43.65.65,0,0,1-.53-.16,3.25,3.25,0,0,0-1.32-1.22,3.61,3.61,0,0,0-1.47-.42,9,9,0,0,1-1-.11c-.28-.42-.51-.79-.76-1.15-.34-.51-.85-.94-.93-1.61A3.42,3.42,0,0,0,63.75,44a7.79,7.79,0,0,1-1.91-3.09,1,1,0,0,1,0-.63.74.74,0,0,0-.2-1,2.81,2.81,0,0,1-1.07-1.9c0-.32-.17-.63-.2-1a2.39,2.39,0,0,1,.05-.7c.06-.45.16-.9.22-1.35,0-.23,0-.47,0-.7.08-1.05.14-2.11.28-3.16A10.11,10.11,0,0,1,62,26.73a7.55,7.55,0,0,0,.5-1.59,1.27,1.27,0,0,0,0-.43,1.36,1.36,0,0,0-.51.11.46.46,0,0,1-.67-.05,1.67,1.67,0,0,0-1.24-.42,4.23,4.23,0,0,1-1.12-.25c-.64-.26-1.25-.61-1.9-.86a1,1,0,0,1-.65-.52c-.27-.58-.59-1.15-.88-1.73a1.36,1.36,0,0,1,0-.36c-.05-.42-.08-.85-.17-1.26A1.18,1.18,0,0,0,55,18.9c-.3-.32-.62-.62-.91-.94s-.6-.7-.89-1.06a1.4,1.4,0,0,1-.28-.36c-.25-.53-.46-1.09-.73-1.61a4.42,4.42,0,0,0-1.45-2.16c-.31-.2-.5-.6-.81-.79s-.45-.69-1-.7A20.29,20.29,0,0,1,46.7,11a.67.67,0,0,0-.31,0,4.68,4.68,0,0,0-.64.3,1.59,1.59,0,0,0-.57.48,6,6,0,0,0-.47,1.21,1.06,1.06,0,0,1-1.82.66c-.4-.28-.88-.45-1.31-.69a7.71,7.71,0,0,1-.77-.49,4.71,4.71,0,0,0-.45-.33,2.06,2.06,0,0,1-1.1-1.78,4.26,4.26,0,0,0-.93-2.12c-.28-.37-.82-.54-1.19-.86s-.93-.91-1.41-1.35c-.25-.23-.53-.43-.78-.65a2.62,2.62,0,0,1-.66-.67,1,1,0,0,0-1-.64c-1.34,0-2.68,0-4,0-1.15,0-1-.1-1,1,0,.47-.13.63-.61.62-2.54,0-5.08,0-7.62,0a2.57,2.57,0,0,1-.83-.12L8.77,1.84C8,1.57,8,1.56,8.18.78a4.09,4.09,0,0,0-.5,0l-6.47.58c-.52,0-.59.19-.36.67a2.8,2.8,0,0,0,.3.46L1.44,3a3,3,0,0,0,.34.57c.28.31.51.6.35,1.06-.1.31.06.54.29.78.4.41.87.82.75,1.52,0,.09.1.24.19.32.46.4.89.78.69,1.5,0,.15.13.52.22.53.46,0,.51.33.49.65a2.44,2.44,0,0,0,.52,1.65,7.29,7.29,0,0,0,1.65,1.16,4.11,4.11,0,0,1,.73.46c.82.86,1.61,1.74,2.39,2.63a.49.49,0,0,1,.09.39c-.14.53,0,1.14-.54,1.55-.06.06,0,.2-.08.31s-.22,0-.29.07a1.18,1.18,0,0,1-1.12.12,1.71,1.71,0,0,0-.5-.1,2.64,2.64,0,0,0-.46.13,2.59,2.59,0,0,0,.3.48c.51.5,1.33.7,1.47,1.56a.28.28,0,0,0,.16.16,7.17,7.17,0,0,0,1.36.73,1.36,1.36,0,0,1,.78.58c.19.27.4.56.82.19s1,.05,1.2.38a3,3,0,0,0,.43.52c.59.71,1.61.82,2.15,1.64a3.36,3.36,0,0,1,.33,2.66c-.22.49-.36,1-.56,1.61a5.24,5.24,0,0,0,.71.1c.39,0,.69.12.74.58l-.39.23.81.64.12-.1-.18-.57a.85.85,0,0,1,.27.13c1,.9,2.33,1.51,3.18,2.64a.89.89,0,0,0,.35.21,1.75,1.75,0,0,1,1,1.35,5.7,5.7,0,0,0,.22.81c.21.49.53.55.95.23.24-.19.5-.36.76-.53a1.15,1.15,0,0,0,0-1.86,1.14,1.14,0,0,1-.37-.49,6.73,6.73,0,0,0-.43-.94,3.48,3.48,0,0,0-.73-.57l-.8-.64-.12.07.1.79h0l-.45-.21a1.37,1.37,0,0,1-.66-1.56A1,1,0,0,0,20.46,28,5.64,5.64,0,0,1,19.9,27a3.45,3.45,0,0,0-.39-.82,2.24,2.24,0,0,1-.78-1.7.92.92,0,0,0-.07-.4c-.19-.53-.39-1.05-.59-1.57s-.47-1-1.14-1c-.09,0-.26-.25-.24-.35.06-.34-.09-.48-.37-.6-.12,0-.17-.23-.27-.35-.34-.41-.31-1.11-1-1.31a1.17,1.17,0,0,1-.81-1.09c-.08-.52-.18-1-.31-1.55,0-.13-.25-.22-.37-.33s-.4-.24-.43-.39c-.12-.75-.73-1-1.25-1.32a3.79,3.79,0,0,0-1-1.77c-.62-.6-1.46-.93-2-1.67a2.3,2.3,0,0,1-.48-1.27c0-.69-.13-1.38-.2-2.07a.45.45,0,0,0-.12-.25C7.5,6.48,7.81,5.65,8,4.87c.1-.49.46-.54.87-.24a3.27,3.27,0,0,0,.78.51,1.92,1.92,0,0,0,.83.06c.14,0,.3-.22.42-.19s.45.17.49.32c.18.68.72.73,1.28.88s.71.33.52.89a1.8,1.8,0,0,0,.43,1.77,2.27,2.27,0,0,1,.55,1.19c0,.85.58,1.37.91,2,.1.2.12.43.21.63a1,1,0,0,0,.27.35.91.91,0,0,0,.3.13l.08.13c-1.19-.14-.84.79-1.14,1.37.29.12.58.34.79.28s.37-.38.61-.65c.18.24.36.5.55.74s.53.88.91,1.09a2.87,2.87,0,0,1,1,1,3.31,3.31,0,0,0,.77.72,2.35,2.35,0,0,0,.65.27c.18-.07.42-.14.55-.05a.82.82,0,0,1,.21.51c0,.21-.06.46,0,.64s.39.58.54.89a.94.94,0,0,0,.86.63c.63,0,.75.35.84.85a.7.7,0,0,0,.91.64.78.78,0,0,1,.9.55,1.63,1.63,0,0,1,0,.95,2.17,2.17,0,0,1-.32.57,1.08,1.08,0,0,0,.21,1.21,4.61,4.61,0,0,1,.6.47,1.44,1.44,0,0,0,1.31.66.57.57,0,0,1,.21.1l.75.46,1,.56-.07.12L28,27.64a3.36,3.36,0,0,0,2.46,2.3c-.37.38,0,.52.2.71s.42.31.62.49a10.65,10.65,0,0,1,1,.93c.34.39.64.83,1,1.25.09.12.19.23.29.35a17,17,0,0,0,1.52,1.75,3.09,3.09,0,0,1,1.06,2.2,3,3,0,0,0,.25,1c.25.54.49,1.12,1.11,1.28a4.52,4.52,0,0,0,0,.68,1,1,0,0,1-.34,1,5.46,5.46,0,0,0-.57.78,3,3,0,0,1,.47.12c.13.08.24.19.36.28-.1.1-.18.24-.3.3a4.71,4.71,0,0,1-.54.12c-.48.12-.57.37-.28.77a2.67,2.67,0,0,1,.22.41,6.86,6.86,0,0,0,.45.95,14.44,14.44,0,0,0,1,1.3,2.51,2.51,0,0,0,.67.67,17.49,17.49,0,0,1,2.86,1.46A12.72,12.72,0,0,1,42.68,50a2,2,0,0,0,.62.5,17.32,17.32,0,0,0,1.71.6c.58.18,1.17.34,1.75.5a.36.36,0,0,0,.27,0c.49-.29.79,0,1.1.31a10.27,10.27,0,0,0,.77.71c.48.37,1,.71,1.47,1a2.14,2.14,0,0,0,.45.24c.57.21,1.15.38,1.71.61s1.09.52,1.65.76a7.35,7.35,0,0,0,1,.38c1,.29,2.08.22,2.84,1.09a1.45,1.45,0,0,0,.45.22c.57.25,1.13.51,1.7.74a5.36,5.36,0,0,0,.78.23,6,6,0,0,1,1.83.47,3.12,3.12,0,0,0,2.54.41,13.5,13.5,0,0,0,1.82-.72c.37-.17.71-.4,1.08-.58a6.49,6.49,0,0,1,.74-.26l.58-.18-.4-.28.26-.2.79.25-.22.23,1.9.63c1.64.53,2.69,1.85,3.91,2.94.65.57,1.24,1.19,1.86,1.79l.09,0c.08-.69.57-1.33.2-2.07a.74.74,0,0,1,0-.56c.3-.57.66-1.1,1-1.67a.78.78,0,0,1,.81-.48c1,0,2,0,3,0,.16,0,.41-.11.45-.23a5.15,5.15,0,0,0,.12-1s0,0-.07,0c-.42-.13-.6-.48-.8-.84a.82.82,0,0,0-.4-.36,4.22,4.22,0,0,1-1.53-1.35c1.06-.07,1.06-.07,1.06-1.13a.33.33,0,0,0,0-.1c-.07-.48.15-.61.62-.61,1.49,0,3,0,4.49,0,.22,0,.47.06.53-.29s.29-.3.5-.15.43.12.57-.11c.24-.39.45-.8.67-1.19-.11.14-.25.28-.35.43.1-.15.24-.29.35-.43h0l0,0h0c.14-.14.29-.41.43-.4.47,0,.66-.25.83-.6a4.94,4.94,0,0,1,.3-.49l.12,0a2.88,2.88,0,0,1-.1.51c-.12.27-.1.47.18.62a2.69,2.69,0,0,1,.33.26l.06.06h0c.13.4.24.1.28,0,.16-.43.29-.88.43-1.32.18-.62.36-1.24.55-1.91H91.8c.35-.24.82-.23.74-.74l-.78-.14a3.78,3.78,0,0,0,.66-1.17,3.3,3.3,0,0,1,1.08-2A2.72,2.72,0,0,0,94.07,42.29Z"/><path class="cls-1" d="M93.71,43.65a.29.29,0,0,0,.12.23.25.25,0,0,0,.24-.06c.21-.27.4-.56.64-.9C94,42.82,93.65,43.12,93.71,43.65Z"/><path id="MEX2710" class="cls-6" d="M42.54,22.37l.15.13.24.22.13.1.12.12.13.11.16.14.13.14,0,.18,0,.18-.08.15-.07.16-.05.17,0,.16v.19l0,.18,0,.17v.76l0,.05-.06,0,0,0,0,.05,0,.06-.06.06v0l0,0,0,0h0l0,0,0,0-.05,0,0,0,0,0,0,0v.07l0,.06,0,0,0,.05,0,0,0,0,0,0v0l0,0-.07,0,0,0-.06.07,0,.09,0,.09v.16l0,0,0,0,.05,0,.06,0,.05.06,0,.07,0,.09.06.11.12.08.13.06.11.08,0,.11v.28l0,.12.07.13.13.08.14.05.14,0,.12,0,.13,0,.13,0,.13.06.06.05.07,0,.07.05.07.06v-.58l.07,0,.08-.08.06-.09,0-.06.28-.37,0,.11.06.1.07.1.06.09.09.1.1.12.08.13,0,.13v1.23l0,0-.22,0-.13,0-.15,0-.14,0-.14,0h-.13L45,30l-.14,0-.55-.12-.54-.12-.12,0-.14.05-.13.07-.09.08v.17l0,.05-.05,0h-.23l0,0,0,.05v.05l0,0,0,0h-.11l0,0,0,0,0,0,0,0-.07.11-.06.09-.06.07-.1.07-.08,0-.08,0-.14.06-.11.06,0,.05,0,.07v.16l0,.09v.1l-.11,0-.09,0,0,.08,0,.06,0,.05,0,.07V32l0,0,0,0,0,.05,0,0,0,.09.08.05.07.06,0,.08v.07l0,.08,0,.06-.06,0-.07-.08-.06,0-.07,0,0,.09v.2l0,.06-.09.07-.09.06-.09.06-.09.06-.07,0,0,0,0,.06v.08l0,.39,0,.13v.23l0,.05-.07,0,0,0,0,0v1.54l0,.13,0,.14-.05.14,0,.13,0,.16-.1.35,0,.17,0-.13,0-.13,0-.26-.1.05-.23.09-.11,0h-.09l-.08,0-.17-.11-.08-.08-.05-.09,0-.11,0-.16v0l0,0v0l-.07,0-.1-.06-.1,0H39l-.18.13-.19.14-.06.06-.09.07-.09,0h-.07l0-.06v-.11l0-.18v-.09l0,0,0,0,.06-.06.12-.12.07-.07,0,0-.15-.35,0-.07,0,0,0,0-.06,0-.14-.07L38,34.8l-.15-.08-.14,0-.16,0H37.1l0-.39h-.37l-.11-.06-.05,0,0-.06-.06,0,0,0,0,0v0l0,0,0,0,0,0,0,0,0,0v-.16l0,0,0,0,0,0,0-.06v-.1l0,0v-.09l0-.08,0-.07L36,33l0-.08h-.14l0,0-.06-.05,0-.07,0-.09V32.6l0-.06,0,0,0-.05,0-.06,0-.24,0-.12,0-.14v-.14l0-.13,0-.1.05-.1,0-.11,0-.11-.07,0h-.13l-.06-.06,0-.08,0-.08-.07-.18,0-.09,0-.11,0-.09L35,30.45l-.22-.21-.08-.07,0,0,0,0,0,0h0l-.13,0-.1,0-.12.05-.1.08,0,.05,0,.05,0,.05,0,0,0,0h-.27l0,0-.06-.05,0-.05-.05-.05-.11-.11,0-.05v-.28l0-.06,0-.06,0-.08,0,0,0-.05,0-.06,0,0L33,29.38,33,29.26l0-.13-.06-.1L32.77,29l-.06,0,0-.05,0-.06,0-.06,0,0h-.19l-.05,0,0,0,0-.05v-.14l0,0-.05,0-.11,0,0,0,0-.05,0-.07,0-.07,0,0L31.89,28l0-.15,0-.15,0-.14,0-.16V27.2l0-.16,0-.16,0-.15,0-.15,0-.16.06-.12.06-.07.05,0,.05-.06,0-.07,0-.07.05-.06.11-.11.34,0h.27l.06,0,0-.06.06-.06,0-.05.24-.21.06,0,0,0,0,0,0,0v-.06l0-.37v-.25l0-.1.1-.06h.17l.05,0,0-.06,0-.07,0-.07,0-.07V24l0-.12L34,23.77l0-.11,0-.11,0-.11,0-.1.08-.07.28-.07.26-.09.06,0,0,0,0,0v-.07l0-.07,0-.07-.05-.14v-.05l0-.05.06,0,0,0,0,0V22l0-.07.05,0,0,0,0,.05,0,0L35,22l.07-.13,0-.06,0,0v0l0-.05.05,0,0,0,.1.06.11.1.12.1.12.1.13.07H36l.08,0h.08l0,.05,0,.07.05.08.06.06.05.07.06.06.07.05.44.24.27.15h.06l.08-.05.16-.09.26-.13.08,0,0,0,.08.08.11.17.06,0,0-.05,0-.07,0,0h.21l.07,0,.2,0L39,23l.17.09.16.12.1.09.13.11.13,0,.11-.11.14-.19.28-.38.13-.19.11-.16.11-.15.11-.14L40.8,22l.1,0,.13,0h.39l.07,0,.08,0,.48.21.49.2Z"/></g></svg>