<svg xmlns="http://www.w3.org/2000/svg" viewBox="0 0 306.04 276.52"><defs><style>.cls-1{fill:#fef6fc;}.cls-1,.cls-2,.cls-3{stroke:#6d4162;stroke-miterlimit:10;stroke-width:0.78px;}.cls-2,.cls-3{fill:none;}.cls-3{isolation:isolate;}.cls-4{fill:#713972;}.cls-5{fill:#b25fac;}.cls-6{fill:#f230b9;}</style></defs><g id="estados"><circle class="cls-1" cx="136.96" cy="151.48" r="97.03"/><circle class="cls-2" cx="136.96" cy="151.48" r="104.09"/><polyline class="cls-3" points="213.34 81.1 271.32 41.25 305.78 41.25"/><polyline class="cls-3" points="214.19 220.92 271.32 255.56 305.78 255.56"/><polyline class="cls-3" points="239.72 131.27 272.01 116.16 306.47 116.16"/><polyline class="cls-3" points="238.56 172.75 271 186.07 305.46 186.07"/><path class="cls-4" d="M108.21,202.54h2.2v11.77A4.89,4.89,0,0,1,109,218a5.35,5.35,0,0,1-3.82,1.35,5.53,5.53,0,0,1-3.86-1.27,4.57,4.57,0,0,1-1.38-3.55h2.19a3.08,3.08,0,0,0,.79,2.23,3,3,0,0,0,2.26.8,2.94,2.94,0,0,0,2.2-.86,3.33,3.33,0,0,0,.85-2.4Z"/><path class="cls-4" d="M121.43,219.16a4.34,4.34,0,0,1-.29-1.3,4.72,4.72,0,0,1-3.52,1.53,4.35,4.35,0,0,1-3-1,3.32,3.32,0,0,1-1.17-2.61,3.51,3.51,0,0,1,1.46-3,7,7,0,0,1,4.13-1.07h2v-1a2.38,2.38,0,0,0-.66-1.76,2.64,2.64,0,0,0-2-.66,3.07,3.07,0,0,0-1.89.57,1.69,1.69,0,0,0-.77,1.38h-2.12a2.94,2.94,0,0,1,.65-1.78,4.55,4.55,0,0,1,1.78-1.36,6,6,0,0,1,2.48-.51,4.89,4.89,0,0,1,3.34,1.07,3.83,3.83,0,0,1,1.25,2.94v5.68a6.93,6.93,0,0,0,.44,2.71v.18Zm-3.5-1.61a3.72,3.72,0,0,0,1.88-.51,3.07,3.07,0,0,0,1.29-1.34v-2.53h-1.65q-3.89,0-3.88,2.27a1.92,1.92,0,0,0,.66,1.55A2.56,2.56,0,0,0,117.93,217.55Z"/><path class="cls-4" d="M128.82,219.16h-2.11V201.63h2.11Z"/><path class="cls-4" d="M132.21,203.54a1.25,1.25,0,0,1,.31-.87,1.16,1.16,0,0,1,.93-.35,1.2,1.2,0,0,1,.94.35,1.26,1.26,0,0,1,.32.87,1.21,1.21,0,0,1-.32.85,1.23,1.23,0,0,1-.94.34,1.12,1.12,0,0,1-1.24-1.19Zm2.28,15.62h-2.11V206.81h2.11Z"/><path class="cls-4" d="M145.06,215.88a1.57,1.57,0,0,0-.65-1.33,6.37,6.37,0,0,0-2.25-.81,10.67,10.67,0,0,1-2.54-.82,3.6,3.6,0,0,1-1.39-1.14,2.77,2.77,0,0,1-.46-1.58,3.2,3.2,0,0,1,1.29-2.57,5,5,0,0,1,3.28-1,5.15,5.15,0,0,1,3.41,1.09,3.43,3.43,0,0,1,1.3,2.77h-2.12a1.89,1.89,0,0,0-.74-1.49,2.73,2.73,0,0,0-1.85-.63,2.9,2.9,0,0,0-1.8.5,1.55,1.55,0,0,0-.65,1.31,1.27,1.27,0,0,0,.6,1.15,7.41,7.41,0,0,0,2.19.75,11.11,11.11,0,0,1,2.56.84,3.73,3.73,0,0,1,1.45,1.18,2.88,2.88,0,0,1,.48,1.69,3.15,3.15,0,0,1-1.33,2.65,5.56,5.56,0,0,1-3.43,1,6.24,6.24,0,0,1-2.63-.53A4.3,4.3,0,0,1,138,217.4a3.55,3.55,0,0,1-.65-2h2.11a2.2,2.2,0,0,0,.85,1.68,3.28,3.28,0,0,0,2.1.62,3.41,3.41,0,0,0,1.92-.48A1.51,1.51,0,0,0,145.06,215.88Z"/><path class="cls-4" d="M154.87,217.66a3,3,0,0,0,2-.68,2.4,2.4,0,0,0,.94-1.71h2a3.92,3.92,0,0,1-.73,2,4.81,4.81,0,0,1-1.8,1.53,5.19,5.19,0,0,1-2.38.57,5.06,5.06,0,0,1-4-1.69,6.7,6.7,0,0,1-1.49-4.6v-.35a7.46,7.46,0,0,1,.66-3.21,5.06,5.06,0,0,1,1.9-2.18,5.39,5.39,0,0,1,2.93-.78,5,5,0,0,1,3.45,1.25,4.42,4.42,0,0,1,1.47,3.23h-2a2.88,2.88,0,0,0-.91-2,2.78,2.78,0,0,0-2-.77,3,3,0,0,0-2.5,1.16,5.42,5.42,0,0,0-.88,3.35v.4a5.29,5.29,0,0,0,.88,3.28A3,3,0,0,0,154.87,217.66Z"/><path class="cls-4" d="M161.59,212.87a7.33,7.33,0,0,1,.71-3.26,5.37,5.37,0,0,1,2-2.24,5.46,5.46,0,0,1,2.9-.79,5.21,5.21,0,0,1,4.08,1.75,6.7,6.7,0,0,1,1.56,4.64v.15a7.4,7.4,0,0,1-.69,3.24,5.28,5.28,0,0,1-2,2.23,5.5,5.5,0,0,1-2.95.8,5.17,5.17,0,0,1-4.07-1.75,6.66,6.66,0,0,1-1.56-4.62Zm2.12.25a5.26,5.26,0,0,0,1,3.3,3.23,3.23,0,0,0,5.1,0,5.77,5.77,0,0,0,.95-3.53,5.29,5.29,0,0,0-1-3.29,3.08,3.08,0,0,0-2.57-1.26,3,3,0,0,0-2.52,1.24A5.74,5.74,0,0,0,163.71,213.12Z"/><path id="JAL" class="cls-5" d="M164.42,101.85c5.93-2.91,4.35,2,13.1,2.4,3.18.65,4.14-.15,6.3-2.3,3-.77,2.2-1.69,3-4.1a4,4,0,0,1,1.6-.7c.25-.3.76-.9,1-1.2a5.85,5.85,0,0,0,3.8-3.3,30.35,30.35,0,0,1,2.6,1.9c.85.38,1.83,0,2.7,0a6.29,6.29,0,0,1,2.7,2.3,1.34,1.34,0,0,0,1.6.5c2.16,1.1-1.49,2.79-1.4,4.3.14,1.09,1.14,2,1.7,2.9,0,2.35-4.23,2.49-3.3,5.2.65,1.41,2.35,2.73,2.2,4.4,0,2.31-2.32,4.25-4.2,5.2-2.36,0-2.48-.21-3.6,1.9a26,26,0,0,0-2,2.3,52.57,52.57,0,0,0-6.2,9.7c-2,3.41,1.64,4.19,3.1,6.5,1.24,3.08-6.8,9.39-8.1,9.6-.48.25-1.16-.58-1.7-.6-.53-.22-5.48,1.05-6.7,1.5-.46.25-3.48,1.83-4,2.7-1.06.89-2.79.39-4,.8-1.15,1.38-5.7,1.81-7.3,2.5-2.31.46-3.7,1-3,3.7a15.07,15.07,0,0,0,1.4,1.9,7.72,7.72,0,0,0,2.5-.5c.92-.57,1.41.55,2.2.8a12.39,12.39,0,0,1,3.1.2c.38-.17.84,2,2.6,3.1-.54,1.25-2.19,1.05-3.3,1.4-.45,1.57,2.45,7.28,2.3,8-1,4.2.23,4.32,3.9,3.1,1,.09,2,2.71,2.2,3-.13.92-1.42,1.11-1.7,2,.39,1.36-1.21,2.55-1.9,3.6-.83.83-.61-.46-1.5-.6-1.61-.48-3.8,1-4.3,1.1-4.06,1-2.4,3.75-4.6,5.3-1.32.67-3,.82-4.2,1.8-.25.34-1,1.86-1.4,1.4-.63-.94-1.05-2-2.4-1.7-.8-1.3-1.55-1.85-2.4-.2-.59,2.53-3.35.9-5,1.8-.56-3.3-2.34-3-.8-6.7.4-1.09-.15-2.29-.1-3.4.33-1.09,1-1.39-.4-2-.57-.15-2.09-2.36-2.6-2.7-.88-1.48-1.08-4.6-3-1.9-.64,1-3.86,2.73-4.9,2.1a22.37,22.37,0,0,1-4.6-2.4,6.26,6.26,0,0,1-1.8-2.1c-1.34,1.32-3,2.72-3.1,4.7-1,.33-3.12,2.41-3.8,2.7a6,6,0,0,1-3.5,1.5c-.35.08-.68-.27-.9-.5-.43-.21-1.27,1.84-2,1.9-1.06-1.27-2-1-2.3.6-.58.61-1.51,1.12-1.4,2.1-1.53-.48-4.3-2.12-4.4-2.7-2.07-.27-2.59,1.28-2.1-1.8.13-.88-2.34-.34-2.5.1a23.7,23.7,0,0,1-3.6-2.1c-.89-.65-.93-2.2-1.4-3.1-.2-.19-.92-1.89-1.5-2.3,0-.89,0-2.29-1-2.7-1.25.3-1.35-.45-2.3-1-3.26-2.26-4.75-6.59-7.5-9.2-1.17-2.06-3.18-4.47-3.7-6.8-.1-1.23.26-3.55-.7-4.5-.92-.49-1.29-1.71-1.9-2.5-.75-.07-2-3.17-2.2-3.6.1-.5,3.56-2.34,3.9-2.7,1.3-.42,3.45.18,4.6-.6,1.17-.12,3.12,0,4-.9,1.32-1.27,2.1-1.25,2.1-3.5-.34-.72-1.51-.89-1.8-1.6,1-.35,1.42-1.9,2.2-2.6,1.72-1.92,2.56-5,5.2-5.9a11.6,11.6,0,0,1,2,.3c2.72.81,4.33-2.4,6.5-3.1,2.66-.56,3.63,3.12,6,3.3,2.21-.48,3.09,1.65,4.2,3.1,1.06.68,2.59,1.15,3.1,2.4.53.85,1.76,1.09,2.5,1.7.37-1.25-.08-2.87.2-4.2a19.25,19.25,0,0,1,2.1-4.7c.71-2.16,0-4.58-.3-6.7,1.88-3,4.8,1.09,8-4,.45-.87-.17-2.38.8-3-2.81-1.19-5.72-3.35-8.4-4.8,2.21-2.47,2.1-6.1,3.5-9a41.48,41.48,0,0,0-6.1-6.8c-.84-1.37-3.72-2.26-3.2-4.1,2.62-7,1-5.25,8.3-8.2,5.47-.6,5.68.86,6.5-5,0-1-1.26-1.55-1.9-2.2-.46-1.65.18-5.65.1-7.4,1.8.3,4.61,1,6.4,1.3-.22,1.44-.1,3.39-1,4.6-1.42.75-1.37,1.24-1.2,2.7.2,1.79-2.24,1.2-.7,3.3.49,1.23-.66,2.22-.7,3.4.13,1.61.16,3.64,1.3,4.9,1.14-4.08,4.14-14.27,4.4-14h1.7c1,.06,1.19,1.75,1.5,2a1.36,1.36,0,0,1-.7,1.8,52.37,52.37,0,0,0-1.6,5.4c.07.9.6,1.86.6,2.8.11,1.35-1.12,3.17.2,4.2,1.19.41,2-.69,2.8-1.2.69.26,2.09-.1,2.2.9,1.12-1.48.72-4.13,2.9-4.6.38-1.21-.08-2.25,1.3-2.9.63-.33-2.08-2.4-1.7-2.9a13.8,13.8,0,0,1,1.5-3c1.5,1.4,3.27,2.86,4.9,4.1,1.36.5,1.2,1.38.9,2.6,1.32-.49,2.89-1.3,3,.8,3-1.19,1.3,2.46.4,3.6-.34.52-1,.47-1.5.6-.24.7,0,1.44.8,1.4.8.25.74,1.39.4,2-.32.11-1.76,2.46-2.5,3-1.44,1-3.64-1.17-4.4.9-.39.88-1.37.58-2.1.8-1.9.69-3.27,2.81-4.8,4.1-.77.8-.21,1.85.2,2.7a32.16,32.16,0,0,1,.1,4.6c-.61.53-1.68.86-2.3,1.4-1.43,3.24-1.69,2.8-4.5,1.2.49,2.08,1.37,4.49.6,6.6-.26.53-1.16.8-1,1.5s-.47,1.83.3,2c5.32-3.54,1.58,1.44,5.3,1.1,3.35-.89,1.93,1.89,5.3,1,2.62.62,4.78,3.74,7.6,3,.86-.18,1.69.74,2.4,1.1,2.4-.17.43-5.81.9-7.6s3,.34,4.4-.5c1.31-.09,2.43-2.88,3.6-1.6,0,.37-.42.84-.2,1.2,1,.23,2-2.41,2.3-2.8a10.52,10.52,0,0,0,1.1-.3c1.06-1.68,2.39-4.16,1.9-6.2-.77-.58-2,.12-2.8-.6a2.59,2.59,0,0,0-1.5-.7c-.72-1.44.39-3.29.5-4.8Z"/><path class="cls-1" d="M94.07,42.29a3.19,3.19,0,0,0,.53-1.36A1.53,1.53,0,0,0,94,39.62c-.42-.31-.74-.36-1.12.11l.29.08,0,.12a11.22,11.22,0,0,1-1.65-.34,3.48,3.48,0,0,0-2.58.07,8,8,0,0,1-2.47.61,5.56,5.56,0,0,0-2.64.84,1.41,1.41,0,0,0-.5.63A7.05,7.05,0,0,0,83,44.59a.88.88,0,0,1-.2.58,1.09,1.09,0,0,0-.5,1c0,.7-.43,1-.89,1.37s-.69.41-1,.64a4.27,4.27,0,0,0-.47.48h0l-1,.48h0a3.35,3.35,0,0,0-3,.34,1.34,1.34,0,0,1-.5.22c-.88.24-1.85-.18-2.71.52a3.91,3.91,0,0,1-1.73.43.65.65,0,0,1-.53-.16,3.25,3.25,0,0,0-1.32-1.22,3.61,3.61,0,0,0-1.47-.42,9,9,0,0,1-1-.11c-.28-.42-.51-.79-.76-1.15-.34-.51-.85-.94-.93-1.61A3.42,3.42,0,0,0,63.75,44a7.79,7.79,0,0,1-1.91-3.09,1,1,0,0,1,0-.63.74.74,0,0,0-.2-1,2.81,2.81,0,0,1-1.07-1.9c0-.32-.17-.63-.2-1a2.39,2.39,0,0,1,.05-.7c.06-.45.16-.9.22-1.35,0-.23,0-.47,0-.7.08-1.05.14-2.11.28-3.16A10.11,10.11,0,0,1,62,26.73a7.55,7.55,0,0,0,.5-1.59,1.27,1.27,0,0,0,0-.43,1.36,1.36,0,0,0-.51.11.46.46,0,0,1-.67-.05,1.67,1.67,0,0,0-1.24-.42,4.23,4.23,0,0,1-1.12-.25c-.64-.26-1.25-.61-1.9-.86a1,1,0,0,1-.65-.52c-.27-.58-.59-1.15-.88-1.73a1.36,1.36,0,0,1,0-.36c-.05-.42-.08-.85-.17-1.26A1.18,1.18,0,0,0,55,18.9c-.3-.32-.62-.62-.91-.94s-.6-.7-.89-1.06a1.4,1.4,0,0,1-.28-.36c-.25-.53-.46-1.09-.73-1.61a4.42,4.42,0,0,0-1.45-2.16c-.31-.2-.5-.6-.81-.79s-.45-.69-1-.7A20.29,20.29,0,0,1,46.7,11a.67.67,0,0,0-.31,0,4.68,4.68,0,0,0-.64.3,1.59,1.59,0,0,0-.57.48,6,6,0,0,0-.47,1.21,1.06,1.06,0,0,1-1.82.66c-.4-.28-.88-.45-1.31-.69a7.71,7.71,0,0,1-.77-.49,4.71,4.71,0,0,0-.45-.33,2.06,2.06,0,0,1-1.1-1.78,4.26,4.26,0,0,0-.93-2.12c-.28-.37-.82-.54-1.19-.86s-.93-.91-1.41-1.35c-.25-.23-.53-.43-.78-.65a2.62,2.62,0,0,1-.66-.67,1,1,0,0,0-1-.64c-1.34,0-2.68,0-4,0-1.15,0-1-.1-1,1,0,.47-.13.63-.61.62-2.54,0-5.08,0-7.62,0a2.57,2.57,0,0,1-.83-.12L8.77,1.84C8,1.57,8,1.56,8.18.78a4.09,4.09,0,0,0-.5,0l-6.47.58c-.52,0-.59.19-.36.67a2.8,2.8,0,0,0,.3.46L1.44,3a3,3,0,0,0,.34.57c.28.31.51.6.35,1.06-.1.31.06.54.29.78.4.41.87.82.75,1.52,0,.09.1.24.19.32.46.4.89.78.69,1.5,0,.15.13.52.22.53.46,0,.51.33.49.65a2.44,2.44,0,0,0,.52,1.65,7.29,7.29,0,0,0,1.65,1.16,4.11,4.11,0,0,1,.73.46c.82.86,1.61,1.74,2.39,2.63a.49.49,0,0,1,.09.39c-.14.53,0,1.14-.54,1.55-.06.06,0,.2-.08.31s-.22,0-.29.07a1.18,1.18,0,0,1-1.12.12,1.71,1.71,0,0,0-.5-.1,2.64,2.64,0,0,0-.46.13,2.59,2.59,0,0,0,.3.48c.51.5,1.33.7,1.47,1.56a.28.28,0,0,0,.16.16,7.17,7.17,0,0,0,1.36.73,1.36,1.36,0,0,1,.78.58c.19.27.4.56.82.19s1,.05,1.2.38a3,3,0,0,0,.43.52c.59.71,1.61.82,2.15,1.64a3.36,3.36,0,0,1,.33,2.66c-.22.49-.36,1-.56,1.61a5.24,5.24,0,0,0,.71.1c.39,0,.69.12.74.58l-.39.23.81.64.12-.1-.18-.57a.85.85,0,0,1,.27.13c1,.9,2.33,1.51,3.18,2.64a.89.89,0,0,0,.35.21,1.75,1.75,0,0,1,1,1.35,5.7,5.7,0,0,0,.22.81c.21.49.53.55.95.23.24-.19.5-.36.76-.53a1.15,1.15,0,0,0,0-1.86,1.14,1.14,0,0,1-.37-.49,6.73,6.73,0,0,0-.43-.94,3.48,3.48,0,0,0-.73-.57l-.8-.64-.12.07.1.79h0l-.45-.21a1.37,1.37,0,0,1-.66-1.56A1,1,0,0,0,20.46,28,5.64,5.64,0,0,1,19.9,27a3.45,3.45,0,0,0-.39-.82,2.24,2.24,0,0,1-.78-1.7.92.92,0,0,0-.07-.4c-.19-.53-.39-1.05-.59-1.57s-.47-1-1.14-1c-.09,0-.26-.25-.24-.35.06-.34-.09-.48-.37-.6-.12,0-.17-.23-.27-.35-.34-.41-.31-1.11-1-1.31a1.17,1.17,0,0,1-.81-1.09c-.08-.52-.18-1-.31-1.55,0-.13-.25-.22-.37-.33s-.4-.24-.43-.39c-.12-.75-.73-1-1.25-1.32a3.79,3.79,0,0,0-1-1.77c-.62-.6-1.46-.93-2-1.67a2.3,2.3,0,0,1-.48-1.27c0-.69-.13-1.38-.2-2.07a.45.45,0,0,0-.12-.25C7.5,6.48,7.81,5.65,8,4.87c.1-.49.46-.54.87-.24a3.27,3.27,0,0,0,.78.51,1.92,1.92,0,0,0,.83.06c.14,0,.3-.22.42-.19s.45.17.49.32c.18.68.72.73,1.28.88s.71.33.52.89a1.8,1.8,0,0,0,.43,1.77,2.27,2.27,0,0,1,.55,1.19c0,.85.58,1.37.91,2,.1.2.12.43.21.63a1,1,0,0,0,.27.35.91.91,0,0,0,.3.13l.08.13c-1.19-.14-.84.79-1.14,1.37.29.12.58.34.79.28s.37-.38.61-.65c.18.24.36.5.55.74s.53.88.91,1.09a2.87,2.87,0,0,1,1,1,3.31,3.31,0,0,0,.77.72,2.35,2.35,0,0,0,.65.27c.18-.07.42-.14.55-.05a.82.82,0,0,1,.21.51c0,.21-.06.46,0,.64s.39.58.54.89a.94.94,0,0,0,.86.63c.63,0,.75.35.84.85a.7.7,0,0,0,.91.64.78.78,0,0,1,.9.55,1.63,1.63,0,0,1,0,.95,2.17,2.17,0,0,1-.32.57,1.08,1.08,0,0,0,.21,1.21,4.61,4.61,0,0,1,.6.47,1.44,1.44,0,0,0,1.31.66.57.57,0,0,1,.21.1l.75.46,1,.56-.07.12L28,27.64a3.36,3.36,0,0,0,2.46,2.3c-.37.38,0,.52.2.71s.42.31.62.49a10.65,10.65,0,0,1,1,.93c.34.39.64.83,1,1.25.09.12.19.23.29.35a17,17,0,0,0,1.52,1.75,3.09,3.09,0,0,1,1.06,2.2,3,3,0,0,0,.25,1c.25.54.49,1.12,1.11,1.28a4.52,4.52,0,0,0,0,.68,1,1,0,0,1-.34,1,5.46,5.46,0,0,0-.57.78,3,3,0,0,1,.47.12c.13.08.24.19.36.28-.1.1-.18.24-.3.3a4.71,4.71,0,0,1-.54.12c-.48.12-.57.37-.28.77a2.67,2.67,0,0,1,.22.41,6.86,6.86,0,0,0,.45.95,14.44,14.44,0,0,0,1,1.3,2.51,2.51,0,0,0,.67.67,17.49,17.49,0,0,1,2.86,1.46A12.72,12.72,0,0,1,42.68,50a2,2,0,0,0,.62.5,17.32,17.32,0,0,0,1.71.6c.58.18,1.17.34,1.75.5a.36.36,0,0,0,.27,0c.49-.29.79,0,1.1.31a10.27,10.27,0,0,0,.77.71c.48.37,1,.71,1.47,1a2.14,2.14,0,0,0,.45.24c.57.21,1.15.38,1.71.61s1.09.52,1.65.76a7.35,7.35,0,0,0,1,.38c1,.29,2.08.22,2.84,1.09a1.45,1.45,0,0,0,.45.22c.57.25,1.13.51,1.7.74a5.36,5.36,0,0,0,.78.23,6,6,0,0,1,1.83.47,3.12,3.12,0,0,0,2.54.41,13.5,13.5,0,0,0,1.82-.72c.37-.17.71-.4,1.08-.58a6.49,6.49,0,0,1,.74-.26l.58-.18-.4-.28.26-.2.79.25-.22.23,1.9.63c1.64.53,2.69,1.85,3.91,2.94.65.57,1.24,1.19,1.86,1.79l.09,0c.08-.69.57-1.33.2-2.07a.74.74,0,0,1,0-.56c.3-.57.66-1.1,1-1.67a.78.78,0,0,1,.81-.48c1,0,2,0,3,0,.16,0,.41-.11.45-.23a5.15,5.15,0,0,0,.12-1s0,0-.07,0c-.42-.13-.6-.48-.8-.84a.82.82,0,0,0-.4-.36,4.22,4.22,0,0,1-1.53-1.35c1.06-.07,1.06-.07,1.06-1.13a.33.33,0,0,0,0-.1c-.07-.48.15-.61.62-.61,1.49,0,3,0,4.49,0,.22,0,.47.06.53-.29s.29-.3.5-.15.43.12.57-.11c.24-.39.45-.8.67-1.19-.11.14-.25.28-.35.43.1-.15.24-.29.35-.43h0l0,0h0c.14-.14.29-.41.43-.4.47,0,.66-.25.83-.6a4.94,4.94,0,0,1,.3-.49l.12,0a2.88,2.88,0,0,1-.1.51c-.12.27-.1.47.18.62a2.69,2.69,0,0,1,.33.26l.06.06h0c.13.4.24.1.28,0,.16-.43.29-.88.43-1.32.18-.62.36-1.24.55-1.91H91.8c.35-.24.82-.23.74-.74l-.78-.14a3.78,3.78,0,0,0,.66-1.17,3.3,3.3,0,0,1,1.08-2A2.72,2.72,0,0,0,94.07,42.29Z"/><path class="cls-1" d="M93.71,43.65a.29.29,0,0,0,.12.23.25.25,0,0,0,.24-.06c.21-.27.4-.56.64-.9C94,42.82,93.65,43.12,93.71,43.65Z"/><path id="MEX2719" class="cls-6" d="M44.77,38.92c.54-.27,1,.43,1.64.23.46-.37.75-.72,1.19-1.14.32.26.83.24,1,.59a.34.34,0,0,0,0,.58c-.77.65.41.86-.48,1.44-.62.09-1,1-1.26,1.58.57.55.3.63,0,1.22-.38.26-1-.07-1.28.33-.55.27-1.16.37-1.74.6-.12.33.14.55.44.38a.68.68,0,0,0,.5.1c.08.12,0,.27.21.32,0,.12-.22.1-.32.14-.09.43.32.69.2,1.13.14.06.31-.05.44,0s0,.26.18.29c0,.11-.21.12-.16.28s-.14.26-.25.29c-.34-.32-.81.23-1,.54-.23.07-.41.14-.5.35-.11-.06-.13-.24-.29-.2-.13-.25-.22,0-.32.12s-.28,0-.4,0a1.81,1.81,0,0,1,0-1.13,1.39,1.39,0,0,1-.49-.63,2.73,2.73,0,0,1-.52.34c-.26,0-.49-.23-.73-.34,0,0,0-.08,0-.11a.72.72,0,0,0-.3.46c-.12,0-.12.16-.19.25s-.43.28-.63.1c-.12,0-.12.13-.18.2s-.12-.11-.18-.06-.19.18-.18.32c-.1,0-.3-.06-.3-.2-.21-.12-.42.06-.34-.28a.37.37,0,0,0-.24.05c-.26-.12-.44-.22-.49-.51l-.1,0c0-.12,0-.49-.23-.44-.95-.69-1.16-1.81-1.71-2.72.27-.44,1.91-.17,1.25-.91.28-.13.46-.93.79-.78l0,0c.3,0,.51-.21.77-.35a6.91,6.91,0,0,1,1.52,1,16,16,0,0,0,.26-1.62.66.66,0,0,0,.8-.59c-.28-.12-.56-.33-.83-.47.22-.24.21-.6.35-.88-1.08-.87-1.15-1.89.45-1.95.19-.48-.26-.83-.09-1.35l.63.12a1.89,1.89,0,0,1-.34.89c.13.3-.15.68.11,1a7.14,7.14,0,0,1,.38-1.43c.06.11.22,0,.28.09s0,.14.09.16a3.08,3.08,0,0,0-.21,1.32c.14.24.42-.23.55,0a2.53,2.53,0,0,1,.43-.74c0-.06,0-.09-.07-.08s-.06-.11-.13-.13a1.17,1.17,0,0,1,.16-.36c.16.23.66.34.57.65.12,0,.29-.11.29.08.33-.13.11.45-.1.41a.17.17,0,0,0,0,.12c.35.09-.07.28-.09.47a1.65,1.65,0,0,0-1.2.7c.27.41-.15,1.22-.59.88.06.24.2.57,0,.75a.89.89,0,0,0,0,.23c.15,0,.37-.26.37.07.6.07,1.15.43,1.75.54.11-.25-.06-.56,0-.81a.77.77,0,0,0,.72-.17c.07,0,0,.1,0,.15s.13-.06.11-.14c1.12-1.08-.36-.49,0-1.36Z"/></g></svg>