<svg xmlns="http://www.w3.org/2000/svg" viewBox="0 0 306.04 276.52"><defs><style>.cls-1{fill:#fef6fc;}.cls-1,.cls-2,.cls-3{stroke:#6d4162;stroke-miterlimit:10;stroke-width:0.78px;}.cls-2,.cls-3{fill:none;}.cls-3{isolation:isolate;}.cls-4{fill:#713972;}.cls-5{fill:#b25fac;}.cls-6{fill:#f230b9;}</style></defs><g id="estados"><path class="cls-1" d="M234,151.48c-3.25-128-190.83-127.94-194.06,0C43.18,279.46,230.76,279.43,234,151.48Z"/><path class="cls-2" d="M241.05,151.48c-3.48-137.28-204.71-137.25-208.18,0C36.36,288.77,237.59,288.74,241.05,151.48Z"/><polyline class="cls-3" points="213.34 81.1 271.32 41.25 305.78 41.25"/><polyline class="cls-3" points="214.19 220.92 271.32 255.56 305.78 255.56"/><polyline class="cls-3" points="239.72 131.27 272.01 116.16 306.47 116.16"/><polyline class="cls-3" points="238.56 172.75 271 186.07 305.46 186.07"/><path class="cls-4" d="M96.68,200.6h-7.2v5.89h8.36v1.79H87.28V191.66H97.73v1.79H89.48v5.36h7.2Z"/><path class="cls-4" d="M107.43,205c-.11-1.57-1.26-1.71-2.9-2.14-3.38-.26-6.13-3.53-3.1-6.11,2.5-2.1,8.09-1,8,2.81H107.3c0-3.48-7.19-2.22-4.44.84.89.6,3.77,1,4.75,1.59a3.19,3.19,0,0,1,.6,5.52c-2.63,2-8.48,1-8.49-3h2.11C101.76,207.24,107.17,207.72,107.43,205Z"/><path class="cls-4" d="M115.15,192.94v3h2.31v1.63h-2.31v7.67c-.08,1.48,1.11,1.68,2.36,1.35v1.7c-2.36.78-4.65-.32-4.47-3.06v-7.66h-2.25v-1.63H113v-3Z"/><path class="cls-4" d="M127.54,208.28a4.42,4.42,0,0,1-.29-1.3c-7.68,6-12.54-7.56,0-6.19,0-.91.05-2.13-.66-2.73-1.18-1.22-4.57-.74-4.61,1.29h-2.12c.42-4.88,9.72-5,9.5.36.09,1.75-.3,6.9.44,8.38v.19Zm-3.5-1.61a3.58,3.58,0,0,0,3.17-1.85v-2.53h-1.65C121.15,201.78,120.25,206.4,124,206.67Z"/><path class="cls-4" d="M132.12,202c-.54-4.83,4.86-8.53,8.31-4.82v-6.43h2.11v17.53H140.6l-.1-1.33C136.9,210.88,131.58,207,132.12,202Zm2.11.24c-.47,4,4.15,6.34,6.2,2.67v-5.67C138.16,195.54,133.71,198.1,134.23,202.24Z"/><path class="cls-4" d="M145.26,202c-.19-8.45,11.69-8.28,11.24.25C156.71,210.67,144.8,210.49,145.26,202Zm2.12.25c-.2,6.17,7.4,5.94,7-.25C154.56,195.85,147,196,147.38,202.24Z"/><path class="cls-4" d="M164.42,202c-.55-4.83,4.85-8.53,8.3-4.82v-6.43h2.11v17.53h-1.94l-.1-1.33C169.19,210.88,163.87,207,164.42,202Zm2.11.24c-.48,4,4.14,6.34,6.19,2.67v-5.67C170.45,195.54,166,198.1,166.53,202.24Z"/><path class="cls-4" d="M183.23,208.5c-5,.24-6.86-5.79-5-9.72,3.32-5.94,10.75-2.74,9.78,3.93h-8.37a3.8,3.8,0,0,0,6.92,2.41l1.29,1A5.19,5.19,0,0,1,183.23,208.5ZM183,197.44c-1.94,0-3,1.59-3.22,3.53h6.19C185.91,199,185,197.43,183,197.44Z"/><path class="cls-4" d="M104.08,216.66l5.43,13.56L115,216.66h2.84v16.62H115.6c0-3.35.06-10.11.2-13.46l-5.45,13.46h-1.68l-5.44-13.42c.14,3.34.26,10.08.21,13.42h-2.19V216.66Z"/><path class="cls-4" d="M126.45,233.5c-5,.24-6.87-5.79-5-9.72,3.32-5.94,10.75-2.74,9.77,3.93H122.9a3.8,3.8,0,0,0,6.92,2.41l1.28,1A5.17,5.17,0,0,1,126.45,233.5Zm-.26-11.06c-1.94,0-3,1.59-3.22,3.53h6.18C129.13,224,128.18,222.43,126.19,222.44Zm1-6.69h2.56l-3.06,3.35H125Z"/><path class="cls-4" d="M137.85,225.44l2.74-4.51h2.46l-4,6.1,4.17,6.25h-2.44l-2.86-4.62L135,233.28h-2.45l4.16-6.25-4-6.1h2.44Z"/><path class="cls-4" d="M145.3,217.65c-.1-1.61,2.6-1.61,2.5,0C147.9,219.24,145.2,219.25,145.3,217.65Zm2.28,15.63h-2.11V220.93h2.11Z"/><path class="cls-4" d="M155.91,231.78a2.8,2.8,0,0,0,2.91-2.39h2c-1.39,6.94-11.37,4.46-10.41-2.53-.74-6.77,9.76-8.79,10.41-1.69h-2c0-2.75-3.92-3.68-5.41-1.58C151.83,225.89,152,232,155.91,231.78Z"/><path class="cls-4" d="M162.63,227c-.18-8.45,11.7-8.28,11.24.25C174.09,235.67,162.18,235.49,162.63,227Zm2.13.25c-.2,6.17,7.4,5.94,7-.25C171.94,220.85,164.36,221,164.76,227.24Z"/><path id="MEX2731" class="cls-5" d="M192.39,109.49c-.75-.06-1.86.23-2.61.17a26,26,0,0,0,.7,3,8.51,8.51,0,0,0,2.61,1c.26.81.17,2.12.35,3a10.81,10.81,0,0,0-1.74,4.18c.81,3.64,2,7.93,2.26,11.68a3.89,3.89,0,0,1-.87.69c-.34,2.14-.89,5.24.35,7.15a10.51,10.51,0,0,1-.35,1.91,19.15,19.15,0,0,0-2.79,1.57,12.29,12.29,0,0,1-.7,1.57c-2,.91-3.11.22-5,.18a2.13,2.13,0,0,1-.7-.53v-.52a26.24,26.24,0,0,1-1-3.14l-.35-.35a2.26,2.26,0,0,0-.7.18,6,6,0,0,1-2.09-1.92c-1.15-.38-2.82-.6-4-.87.57-.79,1.48-1.92,1.39-3-.34-1.06-1.37-2.51-1.39-3.66-.13-1.57.74-3.33.17-4.88-.58-3.42-3.22-3.37-5.4-5.23l.87-.87a2.66,2.66,0,0,1-.7-.87,3.89,3.89,0,0,0,.87-.69l.18-.53a18.89,18.89,0,0,1-1.74-3.66c-1.33-.38-1.66-1.92-1.57-3.13a3.34,3.34,0,0,0-1.4-1.57l-1.74,1.74v1.22l-.52.52.52.18.35.52-.17.35a12,12,0,0,1-1.57.87c-1.39,2.25-3.45,4.25-4.36,6.8l-.7.34-2.09-.34-.17,1.22a7.72,7.72,0,0,0-1.05,2.43l.18,1.22.35.35v.35l-.7,1.05.17.52.53.35h.35l.34.35c-.31,1.69-.07,3.76,1.4,4.88-.61,1.22-2.07,1.88-2.62,3.13l.18.87a5.82,5.82,0,0,1,1.22,1.57l-1.4,1.05-.17.69.35,1,1.22,1.22.35,1.57-.35.87c-1.21,1.18-3,1.65-4.53,2.26-2.3,2.34-1.18,3.55-4.53,5.58.05,2.39-.85,5-1.22,7.32l-1,.34c-.63-.09-2-.27-2.61-.34l-.7-.7-.52-1.22-.35-.35-.7-.17a28.1,28.1,0,0,1-2.09-2.27l-1-.52c-1.55,1.26-3.15,3.15-4.88,4.18l-.35.7a3.61,3.61,0,0,1-1.57,3.48l-.69-.17a16,16,0,0,0-2.1-2.09c-4.15-.56-8.76,2.75-13.06,3-1.84,4.9-5,7.78-9.06,10.8l-.7.18a4.35,4.35,0,0,1-1.39,1.56,4.63,4.63,0,0,1-1.57.18,9,9,0,0,1-3.49-3.83c.29-1.36,1-3.13,1-4.53-.33-2.81-4.09-4-4.71-6.63a6.35,6.35,0,0,0,.18-2.09c-.23-.41-.69-1.47-.87-1.91V158.8l1-2.09V156a3.89,3.89,0,0,0-.69-.87c-.26-.65-.1-1.62-.35-2.27-3.15-.24-6.77-.43-9.76-1.74l.52-.35v-.52a1.58,1.58,0,0,1,.87-.87l.18.17.35-.17c.59-1.54,2.28-2.07,3.48-3a7.53,7.53,0,0,0,.18-2.27,4.75,4.75,0,0,1,.87-1.57c4.54-3.65,7.47-9.86,11.5-14.11l.17-.52c-.17-.49-1.62-2.67-1.92-3.14,2.49-2.21,8-4.08,10.11-6.62-2.3-1.75-2.82-4.94-3.83-7.49.89-2.6,1.62-6,2.78-8.54-1-4.26,2.07-9,2.27-13.24a43.93,43.93,0,0,1,4.35-6.62,34.08,34.08,0,0,1,5.93-7.84,5.77,5.77,0,0,1,2.61-.35c-1-1.07-1.66-2.72-2.79-3.66l5.23-3.31c.6.32,2.24,1.21,2.79,1.57a22,22,0,0,0,8.36,9.06c.42-.45.46-1.3.87-1.74a4.65,4.65,0,0,1,4.19,0c.78,1.54,2.54,4.25,3.48,5.74-.44,2.06-1.71,4.15-1.74,6.28l.35,1a11.88,11.88,0,0,0,3.48,1.4l.87.69a8.61,8.61,0,0,1,.35,3.31l.17.35.53.18.69.69a23.12,23.12,0,0,0,.7,3.84c1.28-1,2.13-3.25,3.66-4l1.74.17a7.66,7.66,0,0,0,.87-3.48l1.22-.87a1.87,1.87,0,0,0,1.57,0l.35-.52c.27-1.37.07-3.06.7-4.36,1-.86,2.48-.61,3.66-.87,2-.38,3.7-2.09,5.57-2.79a11.41,11.41,0,0,1,2.79.35,4.67,4.67,0,0,1,2.09,5.92c.22,0,.65.22.87.18-.79,2.12-2.37,4.66-1.74,7l.17.17,2.44.35c1.13-1.17,3.33-3.63,4.36-4.88l1.91.7L185.6,94a5.18,5.18,0,0,0,2.09.7,9.11,9.11,0,0,1,2.61-.7l.52.35a32.39,32.39,0,0,1,4,5.23,3.47,3.47,0,0,1,0,4.88c-.46,1.74-1.75,3.38-2.44,5Z"/><path class="cls-1" d="M94.07,42.29a3.19,3.19,0,0,0,.53-1.36c.13-.74-1-2.2-1.73-1.2l.29.08,0,.12c-1.41-.16-2.88-1-4.23-.27-1.65.8-3.59.39-5.11,1.45-1.28,1-.46,2.86-1,4.06a1.09,1.09,0,0,0-.5,1c0,1.43-1.72,1.51-2.38,2.49h0l-1,.48h0c-1-.56-2.53.07-3.45.56-.88.24-1.85-.18-2.71.52a3.91,3.91,0,0,1-1.73.43c-.87,0-1-1.15-1.85-1.38a6.65,6.65,0,0,0-2.51-.53c-.52-1-1.42-1.65-1.69-2.76A3.42,3.42,0,0,0,63.75,44c-.91-1-2-2.33-1.88-3.72a.74.74,0,0,0-.2-1c-2.31-2.23-.69-5.93-.74-8.77,0-2.05,1.52-3.74,1.55-5.72-.42,0-.86.47-1.18.06a1.67,1.67,0,0,0-1.24-.42,7.61,7.61,0,0,1-3.67-1.63,7.19,7.19,0,0,1-1.1-3.35c-1.12-1.43-2.6-2.62-3.15-4.44A6.75,6.75,0,0,0,49.88,12c-.34-.21-.45-.69-1-.7-1.85-.23-3.78-.62-4.19,1.78-.51,1.87-2.06.44-3.13,0-1-.63-2.32-1.29-2.32-2.6-.32-2.64-3.49-3.69-5-5.65-1-1.35-3.51-.34-5.05-.64-2.07-.31-.08,1.54-1.6,1.62C24.83,5.65,22,6,19.19,5.63L8.77,1.84C8,1.57,8,1.56,8.18.78c-2.33.1-4.65.4-7,.59-1.24,0,.4,1.7.57,2.23.75.54,0,1.27.64,1.83.4.41.87.82.75,1.52,0,.09.1.24.19.32.46.4.89.78.69,1.5,0,.15.13.52.22.53.46,0,.51.33.49.65a2.44,2.44,0,0,0,.52,1.65,19.45,19.45,0,0,1,4.77,4.25,2.13,2.13,0,0,1-.45,1.94c-.06.06,0,.2-.08.31-.49.12-.88.43-1.41.19a1.15,1.15,0,0,0-1,0c.35.92,1.59,1,1.77,2a4.94,4.94,0,0,0,1.52.89c.76.05.8,1.37,1.6.77.63-.39,1.27.46,1.63.9,2.84,1.81,3.2,2.65,1.92,5.91.57.18,1.36-.09,1.45.68l-.39.23.81.64.12-.1-.18-.57a28.18,28.18,0,0,1,3.8,3,1.75,1.75,0,0,1,1,1.35c.11.6.39,1.69,1.17,1,1.57-.93,1.53-1.6.36-2.88-.24-1.06-1.18-1.5-2-2.15l-.12.07.1.79h0a1.49,1.49,0,0,1-1.11-1.77A1,1,0,0,0,20.46,28a13.17,13.17,0,0,1-.95-1.77,2.24,2.24,0,0,1-.78-1.7c-.34-1-.49-2.81-1.8-3-.41-.2-.05-.84-.61-1-.56-.42-.46-1.38-1.22-1.66-1.08-.37-.76-1.76-1.12-2.64-.12-.27-.71-.45-.8-.72-.12-.75-.73-1-1.25-1.32-.27-1.67-2-2.26-3-3.44-.81-1-.32-2.47-.8-3.59-.71-.55-.48-3.47.68-2.58a1.87,1.87,0,0,0,1.61.57c.39-.23.65-.27.91.13.18.68.72.73,1.28.88s.71.33.52.89c-.48,1.16.89,1.92,1,3,0,.85.58,1.37.91,2,.17.43.23,1,.78,1.11l.08.13c-1.19-.14-.84.79-1.14,1.37.71.43,1,.33,1.4-.37a25.63,25.63,0,0,0,2.47,2.87,2.61,2.61,0,0,0,1.42,1c.85-.42.74.6.78,1.1.14.32.39.58.54.89.38,1,1.68.25,1.7,1.48s1.55.17,1.81,1.19a1.71,1.71,0,0,1-.35,1.52c-.39.75.28,1.29.81,1.68a1.44,1.44,0,0,0,1.31.66c.66.32,1.28.79,1.95,1.12l-.07.12L28,27.64a3.36,3.36,0,0,0,2.46,2.3c-.37.38,0,.52.2.71,1.81,1.23,2.8,3.28,4.36,4.77,1.54,1.09.59,3.69,2.42,4.45a4.52,4.52,0,0,0,0,.68c.13.77-.57,1.07-.91,1.73a1.26,1.26,0,0,1,.83.4c-.64.79-1.91.06-.9,1.6.82,2.49,3,3.22,5,4.38.67.51,1.07,1.41,1.83,1.82A17.3,17.3,0,0,0,47,51.58c.49-.29.79,0,1.1.31,1.89,2,4.62,2.69,7.07,3.75,1,.29,2.08.22,2.84,1.09,1.46.9,3.15,1.12,4.76,1.66a3.12,3.12,0,0,0,2.54.41c1.5-.4,2.69-1.37,4.22-1.74l-.4-.28.26-.2.79.25-.22.23c3.29.65,5.39,3.15,7.67,5.36A2.7,2.7,0,0,0,78,60.31a.74.74,0,0,1,0-.56c.56-.69.73-2.11,1.76-2.15,1.42-.16,4.06.72,3.49-1.25-.42-.13-.6-.48-.8-.84-.62-.59-1.45-.92-1.93-1.71,1.11,0,1.07-.17,1.06-1.23-.37-1.47,5.28.12,5.64-.89.06-.31.29-.3.5-.15.7.41.88-.91,1.24-1.3-.11.14-.25.28-.35.43.1-.15.24-.29.35-.43h0l0,0h0c.14-.14.29-.41.43-.4.71,0,.78-.66,1.13-1.09l.12,0c0,.41-.42.88.08,1.13a2.37,2.37,0,0,1,.39.32h0c.32.86,1-2.82,1.26-3.26H91.8c.35-.24.82-.23.74-.74l-.78-.14a3.78,3.78,0,0,0,.66-1.17C92.51,43.73,93.39,43.08,94.07,42.29Z"/><path class="cls-1" d="M93.71,43.65c.25.72.73-.44,1-.73C94,42.82,93.65,43.12,93.71,43.65Z"/><path id="MEX2731-2" data-name="MEX2731" class="cls-6" d="M57.88,46.11a.71.71,0,0,0-.15,0,.94.94,0,0,0,0,.16.42.42,0,0,0,.14.06,1,1,0,0,1,0,.17.65.65,0,0,0-.09.23,5.09,5.09,0,0,1,.12.66l-.05,0a.68.68,0,0,0,0,.4.22.22,0,0,1,0,.11l-.15.09,0,.09c-.12,0-.18,0-.29,0l0,0v0a1.21,1.21,0,0,1,0-.18l0,0h0a.32.32,0,0,1-.12-.11l-.23-.05a.21.21,0,0,0,.08-.16,1.31,1.31,0,0,1-.08-.21c0-.09,0-.19,0-.27s-.18-.19-.3-.3l0,0,0,0,.05,0v0a1,1,0,0,1-.1-.21c-.07,0-.09-.11-.09-.18a.13.13,0,0,0-.08-.08l-.09.09v.07l0,0h0l0,0v0l-.09.05a2.26,2.26,0,0,0-.25.38l0,0-.11,0v.07a.25.25,0,0,0-.06.14v.07l0,0v0l0,.05v0l0,0h0l0,0a.29.29,0,0,0,.07.28c0,.07-.11.1-.14.17v.05l.07.09-.08.06v0l0,.06.07.07,0,.08,0,0a.64.64,0,0,1-.26.13c-.13.13-.06.2-.25.31a2.83,2.83,0,0,1-.07.42l-.06,0-.15,0,0,0L55,49l0,0h0l-.11-.13-.06,0a3.22,3.22,0,0,1-.28.24l0,0a.18.18,0,0,1-.08.19h0s-.08-.09-.12-.11c-.23,0-.49.15-.74.16a1.22,1.22,0,0,1-.51.61h0a.34.34,0,0,1-.08.09H52.8a.6.6,0,0,1-.2-.22,1,1,0,0,0,.06-.25c0-.16-.23-.23-.26-.38a.41.41,0,0,0,0-.11,1,1,0,0,1,0-.11v-.07l.06-.12v0l0,0s0-.09,0-.12a2.05,2.05,0,0,1-.55-.1l0,0v0a.12.12,0,0,1,0,0h0c0-.09.13-.11.19-.17s0-.09,0-.12a.26.26,0,0,1,.05-.09,9.73,9.73,0,0,0,.65-.79v0a1.74,1.74,0,0,0-.11-.18c.14-.13.45-.23.57-.37-.13-.1-.16-.28-.22-.42s.1-.34.16-.48.12-.51.13-.75a6,6,0,0,1,.58-.81.23.23,0,0,1,.14,0,1.59,1.59,0,0,0-.15-.21l.29-.18.16.08a1.16,1.16,0,0,0,.47.51s0-.07,0-.09a.21.21,0,0,1,.23,0l.2.32a1.4,1.4,0,0,0-.1.35l0,.06a.64.64,0,0,0,.19.08l.05,0a.28.28,0,0,1,0,.18v0h0l0,0a1.7,1.7,0,0,0,0,.22c.07-.06.12-.18.21-.23h.09a.32.32,0,0,0,0-.19l.07,0h.09l0,0a1.09,1.09,0,0,1,0-.25s.14,0,.21-.05a2.2,2.2,0,0,0,.31-.15.44.44,0,0,1,.16,0A.26.26,0,0,1,57,45h0c0,.12-.13.26-.1.39h0l.14,0,.25-.27.1,0,.05.07a.28.28,0,0,0,.12,0,.83.83,0,0,1,.15,0l0,0a2.1,2.1,0,0,1,.22.3.19.19,0,0,1,0,.27c0,.1-.1.19-.13.29Z"/></g></svg>