<svg xmlns="http://www.w3.org/2000/svg" viewBox="0 0 306.04 276.52"><defs><style>.cls-1{fill:#fef6fc;}.cls-1,.cls-2,.cls-3{stroke:#6d4162;stroke-miterlimit:10;stroke-width:0.78px;}.cls-2,.cls-3{fill:none;}.cls-3{isolation:isolate;}.cls-4{fill:#713972;}.cls-5{fill:#b25fac;}.cls-6{fill:#f230b9;}</style></defs><g id="estados"><circle class="cls-1" cx="136.96" cy="151.48" r="97.03"/><circle class="cls-2" cx="136.96" cy="151.48" r="104.09"/><polyline class="cls-3" points="213.34 81.1 271.32 41.25 305.78 41.25"/><polyline class="cls-3" points="214.19 220.92 271.32 255.56 305.78 255.56"/><polyline class="cls-3" points="239.72 131.27 272.01 116.16 306.47 116.16"/><polyline class="cls-3" points="238.56 172.75 271 186.07 305.46 186.07"/><path class="cls-4" d="M83.83,202.54l5.43,13.56,5.43-13.56h2.84v16.62H95.34v-6.47l.21-7-5.46,13.46H88.42L83,205.74l.22,6.95v6.47H81V202.54Z"/><path class="cls-4" d="M101.08,203.54a1.24,1.24,0,0,1,.32-.87,1.16,1.16,0,0,1,.93-.36,1.17,1.17,0,0,1,.93.36,1.24,1.24,0,0,1,.32.87,1.21,1.21,0,0,1-.32.85,1.19,1.19,0,0,1-.93.34,1.18,1.18,0,0,1-.93-.34A1.21,1.21,0,0,1,101.08,203.54Zm2.28,15.62h-2.11V206.81h2.11Z"/><path class="cls-4" d="M111.69,217.66a3.07,3.07,0,0,0,2-.68,2.42,2.42,0,0,0,.93-1.71h2a3.86,3.86,0,0,1-.73,2,5,5,0,0,1-1.8,1.53,5.19,5.19,0,0,1-2.38.57,5.11,5.11,0,0,1-4-1.69,6.7,6.7,0,0,1-1.49-4.6v-.36a7.27,7.27,0,0,1,.67-3.2,5,5,0,0,1,1.9-2.18,5.35,5.35,0,0,1,2.92-.78,4.93,4.93,0,0,1,3.45,1.25,4.42,4.42,0,0,1,1.47,3.23h-2a2.91,2.91,0,0,0-.9-2,2.82,2.82,0,0,0-2-.77,3,3,0,0,0-2.49,1.15,5.46,5.46,0,0,0-.88,3.35v.4a5.37,5.37,0,0,0,.87,3.29A3,3,0,0,0,111.69,217.66Z"/><path class="cls-4" d="M121.09,208.31a4.48,4.48,0,0,1,3.65-1.73c2.61,0,3.92,1.47,4,4.42v8.16h-2.11V211a2.88,2.88,0,0,0-.62-2,2.45,2.45,0,0,0-1.86-.64,3,3,0,0,0-1.8.55,3.77,3.77,0,0,0-1.21,1.44v8.8H119V201.63h2.11Z"/><path class="cls-4" d="M131.29,212.87a7.33,7.33,0,0,1,.71-3.26,5.26,5.26,0,0,1,4.89-3,5.2,5.2,0,0,1,4.08,1.75,6.7,6.7,0,0,1,1.56,4.64v.15a7.4,7.4,0,0,1-.69,3.24,5.3,5.3,0,0,1-2,2.23,5.48,5.48,0,0,1-3,.8,5.19,5.19,0,0,1-4.06-1.75,6.66,6.66,0,0,1-1.56-4.62Zm2.12.25a5.32,5.32,0,0,0,1,3.3,3.24,3.24,0,0,0,5.11,0,5.79,5.79,0,0,0,.95-3.53,5.23,5.23,0,0,0-1-3.29,3.21,3.21,0,0,0-5.08,0A5.74,5.74,0,0,0,133.41,213.12Z"/><path class="cls-4" d="M152.8,219.16a4.69,4.69,0,0,1-.3-1.3,4.7,4.7,0,0,1-3.51,1.53,4.36,4.36,0,0,1-3-1,3.34,3.34,0,0,1-1.17-2.62,3.48,3.48,0,0,1,1.47-3,6.92,6.92,0,0,1,4.12-1.07h2.06v-1a2.37,2.37,0,0,0-.66-1.76,2.69,2.69,0,0,0-2-.66,3.07,3.07,0,0,0-1.89.57,1.67,1.67,0,0,0-.76,1.38h-2.13a2.89,2.89,0,0,1,.66-1.78,4.5,4.5,0,0,1,1.78-1.37,6.06,6.06,0,0,1,2.47-.5,4.87,4.87,0,0,1,3.34,1.07,3.84,3.84,0,0,1,1.26,2.94v5.68A6.89,6.89,0,0,0,155,219v.19Zm-3.5-1.61a3.74,3.74,0,0,0,1.88-.51,3.19,3.19,0,0,0,1.29-1.34v-2.53h-1.66c-2.58,0-3.88.75-3.88,2.27a1.92,1.92,0,0,0,.66,1.55A2.59,2.59,0,0,0,149.3,217.55Z"/><path class="cls-4" d="M162.84,217.66a3.06,3.06,0,0,0,2-.68,2.4,2.4,0,0,0,.94-1.71h2a3.86,3.86,0,0,1-.73,2,5,5,0,0,1-1.8,1.53,5.19,5.19,0,0,1-2.38.57,5.09,5.09,0,0,1-4-1.69,6.7,6.7,0,0,1-1.49-4.6v-.36a7.41,7.41,0,0,1,.66-3.2,5.06,5.06,0,0,1,1.9-2.18,5.39,5.39,0,0,1,2.93-.78,5,5,0,0,1,3.45,1.25,4.42,4.42,0,0,1,1.47,3.23h-2a2.88,2.88,0,0,0-.91-2,2.78,2.78,0,0,0-2-.77,3,3,0,0,0-2.49,1.15,5.46,5.46,0,0,0-.89,3.35v.4a5.3,5.3,0,0,0,.88,3.29A3,3,0,0,0,162.84,217.66Z"/><path class="cls-4" d="M177.74,219.16a4.42,4.42,0,0,1-.29-1.3,4.72,4.72,0,0,1-3.52,1.53,4.35,4.35,0,0,1-3-1,3.34,3.34,0,0,1-1.17-2.62,3.5,3.5,0,0,1,1.46-3,7,7,0,0,1,4.13-1.07h2v-1a2.37,2.37,0,0,0-.66-1.76,2.64,2.64,0,0,0-1.95-.66,3.07,3.07,0,0,0-1.89.57,1.69,1.69,0,0,0-.77,1.38H170a2.94,2.94,0,0,1,.65-1.78,4.57,4.57,0,0,1,1.78-1.37,6.1,6.1,0,0,1,2.48-.5,4.89,4.89,0,0,1,3.34,1.07,3.83,3.83,0,0,1,1.25,2.94v5.68A6.87,6.87,0,0,0,180,219v.19Zm-3.5-1.61a3.72,3.72,0,0,0,1.88-.51,3.07,3.07,0,0,0,1.29-1.34v-2.53h-1.65c-2.59,0-3.88.75-3.88,2.27a1.92,1.92,0,0,0,.66,1.55A2.56,2.56,0,0,0,174.24,217.55Zm1.95-15.92h2.56L175.69,205H174Z"/><path class="cls-4" d="M184.83,206.81l.07,1.55a4.51,4.51,0,0,1,3.7-1.78q3.92,0,3.94,4.42v8.16h-2.11V211a2.83,2.83,0,0,0-.61-2,2.46,2.46,0,0,0-1.86-.64,3.1,3.1,0,0,0-1.81.55,3.86,3.86,0,0,0-1.21,1.44v8.8h-2.11V206.81Z"/><path id="MICH" class="cls-5" d="M192.65,99c2.07.58,3.21,2.83,3.75,4.74v4a3.3,3.3,0,0,0,1.88,1.54,58.48,58.48,0,0,1-1.66,6.73,4.68,4.68,0,0,0,.22,1.32,7.81,7.81,0,0,1-.66,2c-.17,1.18-1.13,2.94-1,4.08.61,1.53.93,3.37,2.31,4.41-1.34,1.61-4.82,2.79-6.39,4.19.26.69,1.87,2,.77,2.65-1.95,2.51-4,5.48-6.06,7.93a3.13,3.13,0,0,1-.88.66c-1.14,1.11.2,2.38-1.55,3-.71.19-1,1.08-1.54,1.43l-.11-.11a.83.83,0,0,0-.55.89,4.1,4.1,0,0,0-1.21,1.21,2.28,2.28,0,0,1-1.22,1.76c-.12-.4-.34-1.24-.44-1.65-.73-1-1.81-.75-2.31.33-.38.51-1.06,1.06-.88,1.76.62.72,2,1.46,1.32,2.54a1.94,1.94,0,0,0-.55,2,14.67,14.67,0,0,1,.77,2.32c0,1-.18,2.39.44,3.31,1.34,1.07,3,2.13,4.3,3.19.77,1-.34,2.16-.88,3a1,1,0,0,0-.66-.77l-1.22,1.21c-1.18-1-1.61-1.87-.22-3a3,3,0,0,0-.33-1.43.82.82,0,0,1-.55-.22c0,.16-.26.61-.22.77-4.24-2.14-.52-2.56-6.94-2.53l.44.55c-.05.41-1.15.56-1.44.66-.24-.81-.13-1.84-1.32-1.32v.11c-.29-.12-.21-.66-.22-.89-.81-1-2.42-.36-3.42-.11l-5.51-.33c-1.88.79-4.36,1.21-6.28,1.88a5.29,5.29,0,0,1-5.4-1.22c-.52-.78-.85-2-1.88-2.2-2-.38-4.8-.75-6.72.11-4.3,4.63.71,8.87-2.32,11.91-.15.21-.51.78-.66,1,.12.51-.46.71-.88.66a4.84,4.84,0,0,0-1-.11,2.84,2.84,0,0,1-1,.44,3.13,3.13,0,0,0-2.21.22c-1.37.34-2.06-.38-3.09,1a10.16,10.16,0,0,0-.44,5.84c.28.46,1,1.42.67,2s-.52,1.44-1.33,1.21c-2.66-1.71-7-2.5-9.81-3.75-1,.14-3.39-.82-4.3-1.1a48.05,48.05,0,0,1-5-.66c-2.82-1-7-3.23-9.81-4.3-1-.21-2.88.08-3.53-.77-.89.45-3.06-1.5-4-1a13,13,0,0,1-2.42-1c-.45-.19-1.42-.59-1.88-.22A22.89,22.89,0,0,0,81,168.22c-1.27-1.8-2.15-5.67-3.85-7.17a9.84,9.84,0,0,0-3.31-2.2c-.35-.4.47-1.14.66-1.43-.21-.81-1.31-1.67-1.87-2.21,1.75-.86,1-2.24,2.09-3.31a2,2,0,0,1,1-.22,2.5,2.5,0,0,0,.89-.66c.17-.58.06-1.34.44-1.87,0-.28-.14-.62-.11-.88a1.12,1.12,0,0,1,.33-.45c.6.38.91.4,1.43-.11a15.11,15.11,0,0,1,1.43-.77,2.24,2.24,0,0,0-.11-.55c.13-.23.44-.24.66-.22.44-.16.3-.91.67-1.21.43.24.88-.17,1.32-.22h1.65c2.23.15,2.29-.17,3.2-2.1,1.23-1.46,1.59-.4,2.42.67,2.21-.36,1.69,1.45,3.2,2.2.23-.19.77-.56.77-.88a2,2,0,0,1,.11-.77c1.34-1.62,4-1.35,5.51-2.76a16.81,16.81,0,0,0,1-2.87,5.63,5.63,0,0,1,4.19-2.64,2.37,2.37,0,0,1,.88-.11c.33-.08.49-.75.66-1a3.19,3.19,0,0,1,2.31.11,1.48,1.48,0,0,1,1,1c.88-.11,1.53-1.59,2.09-2.21.08-.14.9-1.14.77-1.32a4.08,4.08,0,0,1-.11-.77c.31-1,1.73-1.19,1.88-2.21-.22-.32-.77-.32-1.11-.44a5.87,5.87,0,0,1-.44-1.1c-.14-.31-.19-1.71-.66-1.76-1.41.27-3.27,1.06-4.74.55a12.73,12.73,0,0,1,0-2.76c.14-.74.47-1.68-.11-2.31-.33-.45-.27-1.09-.55-1.55-.13-.37-.78-.54-1-.88a8.21,8.21,0,0,1-.66-5.29c1.22-.38,3-.17,3.63-1.54-.48-.57-1.65-.6-1.87-1.32s.35-1.9-.44-2.21c-.64.25-1.66-.2-2.32-.11a4,4,0,0,1-2.31-.33,3.52,3.52,0,0,0-1-.77,19.38,19.38,0,0,1-3.09.77c-.07,0-.53.06-.55-.11s-.43-.36-.66-.44c-.88-.42-.75-1.83-.88-2.65a2.56,2.56,0,0,1,.22-1.76c2.52-1.42,7.45-2.28,10.25-3.09,1.11-1.6,3.06-.83,4.63-1.32a7.81,7.81,0,0,0,2-1.65l2.21-.56a.73.73,0,0,0,.55-.77c.55-.75,3.06-1.29,3.86-1.65l1.65-.11c.57-.07,1.76-.62,2.32-.33l.88.33c.17.16.75.56,1,.33a6.32,6.32,0,0,1,1.76-.44l2.21-1.1c.5-.14,3.74-.55,4.3-.66a13.47,13.47,0,0,0-.77,2.09l.44.44c.43-.13.66-1,.77-1.32l.66-.22c1.42.6.45,4.09,1.43,4.85.32.5.18,1.66,1,1.65.52,0,1.3.13,1.66-.33.45-.31.91.27,1.32.33.25.08.52-.15.66-.33a1.51,1.51,0,0,1,.66-.11c1,.42,2.53-.13,3.31.77a13.4,13.4,0,0,1,1.21-1.65c.16-.55.61-1.12.77-1.66.05-.34-.2-.78,0-1.1,0-.68,1.17-.37,1.55-.44a4.89,4.89,0,0,1,2-.55,4.29,4.29,0,0,0,1.88.11c-.41,1.14.57,1,1.32,1.1,2.25.55,2,1.72,0,2.43-1,1.21.9.83.33,1.87,0,.77-.74.69.11,1.44.34,1.09-.46,2.4-.33,3.52,1.45,1,1.18.11,2.54,0a1.56,1.56,0,0,0,1.76.33c.44-.25,1.06.08,1.43.33a2,2,0,0,0,2.65-.66c.18-.88.3-2,1.43-2,.75,1,1.41.84,2.43.33a4.63,4.63,0,0,1,2.42.33,1.32,1.32,0,0,1,0,1.1c0,.18.43.54.55.66l-.11.67a7.27,7.27,0,0,0-2.09,1.21c0,1,1.14,1.54,2,1.87,1.85,1,4.51.71,5.51-1.32.27.5,1.05.87,1.22,1.43.25,1,1.3,1.2,2.2,1.1-.23-1.49.82-1.19,1.87-1.21,1.39,0,3.27-.4,4.63-.11a1.21,1.21,0,0,1,0,.88c.06.53.59.61,1,.44.46-1.6.88-1.86,2.53-2,2.64.08,2.38-.77,2-3a1.66,1.66,0,0,1,0-2.2c-.06-.28-.23-.33,0-.66.43-.07,1,.27,1.32-.11.86-1,1.09-2.57,2.2-3.42Z"/><path class="cls-1" d="M94.07,42.29a3.19,3.19,0,0,0,.53-1.36A1.53,1.53,0,0,0,94,39.62c-.42-.31-.74-.36-1.12.11l.29.08,0,.12a11.22,11.22,0,0,1-1.65-.34,3.48,3.48,0,0,0-2.58.07,8,8,0,0,1-2.47.61,5.56,5.56,0,0,0-2.64.84,1.41,1.41,0,0,0-.5.63A7.05,7.05,0,0,0,83,44.59a.88.88,0,0,1-.2.58,1.09,1.09,0,0,0-.5,1c0,.7-.43,1-.89,1.37s-.69.41-1,.64a4.27,4.27,0,0,0-.47.48h0l-1,.48h0a3.35,3.35,0,0,0-3,.34,1.34,1.34,0,0,1-.5.22c-.88.24-1.85-.18-2.71.52a3.91,3.91,0,0,1-1.73.43.65.65,0,0,1-.53-.16,3.25,3.25,0,0,0-1.32-1.22,3.61,3.61,0,0,0-1.47-.42,9,9,0,0,1-1-.11c-.28-.42-.51-.79-.76-1.15-.34-.51-.85-.94-.93-1.61A3.42,3.42,0,0,0,63.75,44a7.79,7.79,0,0,1-1.91-3.09,1,1,0,0,1,0-.63.74.74,0,0,0-.2-1,2.81,2.81,0,0,1-1.07-1.9c0-.32-.17-.63-.2-1a2.39,2.39,0,0,1,.05-.7c.06-.45.16-.9.22-1.35,0-.23,0-.47,0-.7.08-1.05.14-2.11.28-3.16A10.11,10.11,0,0,1,62,26.73a7.55,7.55,0,0,0,.5-1.59,1.27,1.27,0,0,0,0-.43,1.36,1.36,0,0,0-.51.11.46.46,0,0,1-.67-.05,1.67,1.67,0,0,0-1.24-.42,4.23,4.23,0,0,1-1.12-.25c-.64-.26-1.25-.61-1.9-.86a1,1,0,0,1-.65-.52c-.27-.58-.59-1.15-.88-1.73a1.36,1.36,0,0,1,0-.36c-.05-.42-.08-.85-.17-1.26A1.18,1.18,0,0,0,55,18.9c-.3-.32-.62-.62-.91-.94s-.6-.7-.89-1.06a1.4,1.4,0,0,1-.28-.36c-.25-.53-.46-1.09-.73-1.61a4.42,4.42,0,0,0-1.45-2.16c-.31-.2-.5-.6-.81-.79s-.45-.69-1-.7A20.29,20.29,0,0,1,46.7,11a.67.67,0,0,0-.31,0,4.68,4.68,0,0,0-.64.3,1.59,1.59,0,0,0-.57.48,6,6,0,0,0-.47,1.21,1.06,1.06,0,0,1-1.82.66c-.4-.28-.88-.45-1.31-.69a7.71,7.71,0,0,1-.77-.49,4.71,4.71,0,0,0-.45-.33,2.06,2.06,0,0,1-1.1-1.78,4.26,4.26,0,0,0-.93-2.12c-.28-.37-.82-.54-1.19-.86s-.93-.91-1.41-1.35c-.25-.23-.53-.43-.78-.65a2.62,2.62,0,0,1-.66-.67,1,1,0,0,0-1-.64c-1.34,0-2.68,0-4,0-1.15,0-1-.1-1,1,0,.47-.13.63-.61.62-2.54,0-5.08,0-7.62,0a2.57,2.57,0,0,1-.83-.12L8.77,1.84C8,1.57,8,1.56,8.18.78a4.09,4.09,0,0,0-.5,0l-6.47.58c-.52,0-.59.19-.36.67a2.8,2.8,0,0,0,.3.46L1.44,3a3,3,0,0,0,.34.57c.28.31.51.6.35,1.06-.1.31.06.54.29.78.4.41.87.82.75,1.52,0,.09.1.24.19.32.46.4.89.78.69,1.5,0,.15.13.52.22.53.46,0,.51.33.49.65a2.44,2.44,0,0,0,.52,1.65,7.29,7.29,0,0,0,1.65,1.16,4.11,4.11,0,0,1,.73.46c.82.86,1.61,1.74,2.39,2.63a.49.49,0,0,1,.09.39c-.14.53,0,1.14-.54,1.55-.06.06,0,.2-.08.31s-.22,0-.29.07a1.18,1.18,0,0,1-1.12.12,1.71,1.71,0,0,0-.5-.1,2.64,2.64,0,0,0-.46.13,2.59,2.59,0,0,0,.3.48c.51.5,1.33.7,1.47,1.56a.28.28,0,0,0,.16.16,7.17,7.17,0,0,0,1.36.73,1.36,1.36,0,0,1,.78.58c.19.27.4.56.82.19s1,.05,1.2.38a3,3,0,0,0,.43.52c.59.71,1.61.82,2.15,1.64a3.36,3.36,0,0,1,.33,2.66c-.22.49-.36,1-.56,1.61a5.24,5.24,0,0,0,.71.1c.39,0,.69.12.74.58l-.39.23.81.64.12-.1-.18-.57a.85.85,0,0,1,.27.13c1,.9,2.33,1.51,3.18,2.64a.89.89,0,0,0,.35.21,1.75,1.75,0,0,1,1,1.35,5.7,5.7,0,0,0,.22.81c.21.49.53.55.95.23.24-.19.5-.36.76-.53a1.15,1.15,0,0,0,0-1.86,1.14,1.14,0,0,1-.37-.49,6.73,6.73,0,0,0-.43-.94,3.48,3.48,0,0,0-.73-.57l-.8-.64-.12.07.1.79h0l-.45-.21a1.37,1.37,0,0,1-.66-1.56A1,1,0,0,0,20.46,28,5.64,5.64,0,0,1,19.9,27a3.45,3.45,0,0,0-.39-.82,2.24,2.24,0,0,1-.78-1.7.92.92,0,0,0-.07-.4c-.19-.53-.39-1.05-.59-1.57s-.47-1-1.14-1c-.09,0-.26-.25-.24-.35.06-.34-.09-.48-.37-.6-.12,0-.17-.23-.27-.35-.34-.41-.31-1.11-1-1.31a1.17,1.17,0,0,1-.81-1.09c-.08-.52-.18-1-.31-1.55,0-.13-.25-.22-.37-.33s-.4-.24-.43-.39c-.12-.75-.73-1-1.25-1.32a3.79,3.79,0,0,0-1-1.77c-.62-.6-1.46-.93-2-1.67a2.3,2.3,0,0,1-.48-1.27c0-.69-.13-1.38-.2-2.07a.45.45,0,0,0-.12-.25C7.5,6.48,7.81,5.65,8,4.87c.1-.49.46-.54.87-.24a3.27,3.27,0,0,0,.78.51,1.92,1.92,0,0,0,.83.06c.14,0,.3-.22.42-.19s.45.17.49.32c.18.68.72.73,1.28.88s.71.33.52.89a1.8,1.8,0,0,0,.43,1.77,2.27,2.27,0,0,1,.55,1.19c0,.85.58,1.37.91,2,.1.2.12.43.21.63a1,1,0,0,0,.27.35.91.91,0,0,0,.3.13l.08.13c-1.19-.14-.84.79-1.14,1.37.29.12.58.34.79.28s.37-.38.61-.65c.18.24.36.5.55.74s.53.88.91,1.09a2.87,2.87,0,0,1,1,1,3.31,3.31,0,0,0,.77.72,2.35,2.35,0,0,0,.65.27c.18-.07.42-.14.55-.05a.82.82,0,0,1,.21.51c0,.21-.06.46,0,.64s.39.58.54.89a.94.94,0,0,0,.86.63c.63,0,.75.35.84.85a.7.7,0,0,0,.91.64.78.78,0,0,1,.9.55,1.63,1.63,0,0,1,0,.95,2.17,2.17,0,0,1-.32.57,1.08,1.08,0,0,0,.21,1.21,4.61,4.61,0,0,1,.6.47,1.44,1.44,0,0,0,1.31.66.57.57,0,0,1,.21.1l.75.46,1,.56-.07.12L28,27.64a3.36,3.36,0,0,0,2.46,2.3c-.37.38,0,.52.2.71s.42.31.62.49a10.65,10.65,0,0,1,1,.93c.34.39.64.83,1,1.25.09.12.19.23.29.35a17,17,0,0,0,1.52,1.75,3.09,3.09,0,0,1,1.06,2.2,3,3,0,0,0,.25,1c.25.54.49,1.12,1.11,1.28a4.52,4.52,0,0,0,0,.68,1,1,0,0,1-.34,1,5.46,5.46,0,0,0-.57.78,3,3,0,0,1,.47.12c.13.08.24.19.36.28-.1.1-.18.24-.3.3a4.71,4.71,0,0,1-.54.12c-.48.12-.57.37-.28.77a2.67,2.67,0,0,1,.22.41,6.86,6.86,0,0,0,.45.95,14.44,14.44,0,0,0,1,1.3,2.51,2.51,0,0,0,.67.67,17.49,17.49,0,0,1,2.86,1.46A12.72,12.72,0,0,1,42.68,50a2,2,0,0,0,.62.5,17.32,17.32,0,0,0,1.71.6c.58.18,1.17.34,1.75.5a.36.36,0,0,0,.27,0c.49-.29.79,0,1.1.31a10.27,10.27,0,0,0,.77.71c.48.37,1,.71,1.47,1a2.14,2.14,0,0,0,.45.24c.57.21,1.15.38,1.71.61s1.09.52,1.65.76a7.35,7.35,0,0,0,1,.38c1,.29,2.08.22,2.84,1.09a1.45,1.45,0,0,0,.45.22c.57.25,1.13.51,1.7.74a5.36,5.36,0,0,0,.78.23,6,6,0,0,1,1.83.47,3.12,3.12,0,0,0,2.54.41,13.5,13.5,0,0,0,1.82-.72c.37-.17.71-.4,1.08-.58a6.49,6.49,0,0,1,.74-.26l.58-.18-.4-.28.26-.2.79.25-.22.23,1.9.63c1.64.53,2.69,1.85,3.91,2.94.65.57,1.24,1.19,1.86,1.79l.09,0c.08-.69.57-1.33.2-2.07a.74.74,0,0,1,0-.56c.3-.57.66-1.1,1-1.67a.78.78,0,0,1,.81-.48c1,0,2,0,3,0,.16,0,.41-.11.45-.23a5.15,5.15,0,0,0,.12-1s0,0-.07,0c-.42-.13-.6-.48-.8-.84a.82.82,0,0,0-.4-.36,4.22,4.22,0,0,1-1.53-1.35c1.06-.07,1.06-.07,1.06-1.13a.33.33,0,0,0,0-.1c-.07-.48.15-.61.62-.61,1.49,0,3,0,4.49,0,.22,0,.47.06.53-.29s.29-.3.5-.15.43.12.57-.11c.24-.39.45-.8.67-1.19-.11.14-.25.28-.35.43.1-.15.24-.29.35-.43h0l0,0h0c.14-.14.29-.41.43-.4.47,0,.66-.25.83-.6a4.94,4.94,0,0,1,.3-.49l.12,0a2.88,2.88,0,0,1-.1.51c-.12.27-.1.47.18.62a2.69,2.69,0,0,1,.33.26l.06.06h0c.13.4.24.1.28,0,.16-.43.29-.88.43-1.32.18-.62.36-1.24.55-1.91H91.8c.35-.24.82-.23.74-.74l-.78-.14a3.78,3.78,0,0,0,.66-1.17,3.3,3.3,0,0,1,1.08-2A2.72,2.72,0,0,0,94.07,42.29Z"/><path class="cls-1" d="M93.71,43.65a.29.29,0,0,0,.12.23.25.25,0,0,0,.24-.06c.21-.27.4-.56.64-.9C94,42.82,93.65,43.12,93.71,43.65Z"/><path id="MEX2720" class="cls-6" d="M52.6,44.17c.51.14.15.77.5.91,0,.18-.1.42-.14.6a.42.42,0,0,1,0,.29.63.63,0,0,0,.11.75c-.12.15-.43.25-.56.38.05.09.16.19,0,.27s-.32.44-.48.63a.38.38,0,0,0-.16.31.79.79,0,0,0-.22.18h0c-.1.07-.16.28-.26.34,0-.32-.3-.19-.33,0,.14.1.17.19.06.32a1.21,1.21,0,0,1,.08.46c0,.29.69.34.34.67a.08.08,0,0,0-.05-.07l-.11.11c-.23-.15,0-.23,0-.39l-.05,0a.64.64,0,0,0,0,.07c-.25-.16-.27-.27-.62-.23l0,0s-.1.05-.13.06,0-.17-.11-.12h0c0-.16-.2-.13-.33-.09-.43-.11-.87.15-1.29.16-.18,0-.26-.18-.35-.3-.34-.13-.82-.08-.82.37,0,.3.16.63-.17.82-.18,0-.37.07-.56.06s-.17.41-.13.6.08.28-.06.28a6.49,6.49,0,0,0-.87-.33,4.61,4.61,0,0,1-1.54-.48,9.49,9.49,0,0,1-1-.3,2.9,2.9,0,0,1-.58-.25c-.12-.16-.2-.5-.35-.64s-.42-.16-.23-.32c0-.07-.12-.15-.17-.2.13,0,.1-.21.19-.29.25,0,.14-.21.22-.36.09.07.17-.06.26-.08s.06,0,.11-.18.48.07.54-.2.16,0,.22.06.17.14.28.19.06-.1.09-.16.35-.11.48-.23.21-.48.5-.5c.06,0,.08,0,.1-.09s.26,0,.29.1a.64.64,0,0,0,.28-.43c0-.05.23-.15.08-.18s-.09-.17-.11-.23-.32.09-.45,0,.07-.37,0-.52-.24-.26-.17-.62c.11,0,.27,0,.33-.14s-.15,0-.17-.11,0-.17,0-.2-.24,0-.35,0-.13-.13-.22-.08-.26.08-.36,0c-.1-.29,0-.43.3-.47s.76-.23,1.08-.31c.06-.15.32-.1.35-.23a.91.91,0,0,1,.84-.11,2.86,2.86,0,0,1,.76-.21c0,.06-.11.18,0,.23.33-.48.08.57.45.44,0-.06.11,0,.16,0a.46.46,0,0,1,.41,0,.8.8,0,0,0,.19-.43,1.83,1.83,0,0,1,.47,0c-.07.15.54.09.11.31-.08.08.08.09,0,.17s0,.08,0,.12,0,.22,0,.32.14,0,.21,0a.22.22,0,0,0,.21,0c.21.1.33.06.38-.18.08,0,.11,0,.17.05a.63.63,0,0,1,.27,0c.13,0,0,.13.12.19s-.15.09-.2.16a.39.39,0,0,0,.67.05c.1.09.13.26.3.23,0-.19.45-.11.58-.12,0,.16.1.16.13,0s.23-.07.33-.08-.07-.33,0-.51c.2.05.18-.23.31-.31Z"/></g></svg>