<svg xmlns="http://www.w3.org/2000/svg" viewBox="0 0 306.04 276.52"><defs><style>.cls-1{fill:#fef6fc;}.cls-1,.cls-2,.cls-3{stroke:#6d4162;stroke-miterlimit:10;stroke-width:0.78px;}.cls-2,.cls-3{fill:none;}.cls-3{isolation:isolate;}.cls-4{fill:#713972;}.cls-5{fill:#b25fac;}.cls-6{fill:#f230b9;}</style></defs><g id="estados"><circle class="cls-1" cx="136.96" cy="151.48" r="97.03"/><circle class="cls-2" cx="136.96" cy="151.48" r="104.09"/><polyline class="cls-3" points="213.34 81.1 271.32 41.25 305.78 41.25"/><polyline class="cls-3" points="214.19 220.92 271.32 255.56 305.78 255.56"/><polyline class="cls-3" points="239.72 131.27 272.01 116.16 306.47 116.16"/><polyline class="cls-3" points="238.56 172.75 271 186.07 305.46 186.07"/><path class="cls-4" d="M81.59,200.51a10.24,10.24,0,0,1-.76,4.14,6.49,6.49,0,0,1-2.15,2.73l3,2.32-1.5,1.38-3.5-2.78a7,7,0,0,1-1.74.21,6.2,6.2,0,0,1-5.83-3.72,9.77,9.77,0,0,1-.86-4.14v-1.19a10.12,10.12,0,0,1,.83-4.24,6.19,6.19,0,0,1,5.84-3.79,6.47,6.47,0,0,1,3.53,1,6.29,6.29,0,0,1,2.35,2.79,10.23,10.23,0,0,1,.82,4.25Zm-2.19-1.08a7.53,7.53,0,0,0-1.17-4.52,3.89,3.89,0,0,0-3.34-1.59,3.85,3.85,0,0,0-3.26,1.58,7.28,7.28,0,0,0-1.22,4.38v1.23A7.46,7.46,0,0,0,71.6,205a4.2,4.2,0,0,0,6.6.1,7.37,7.37,0,0,0,1.2-4.43Z"/><path class="cls-4" d="M92.26,207.06a4.51,4.51,0,0,1-3.62,1.45,3.84,3.84,0,0,1-3-1.15,5,5,0,0,1-1-3.4v-8H86.7v8c0,1.87.76,2.8,2.28,2.8a3.16,3.16,0,0,0,3.22-1.8v-9h2.11v12.35h-2Z"/><path class="cls-4" d="M97.53,192.65a1.24,1.24,0,0,1,.32-.86,1.38,1.38,0,0,1,1.86,0,1.24,1.24,0,0,1,.32.86,1.22,1.22,0,0,1-.32.86,1.44,1.44,0,0,1-1.86,0A1.22,1.22,0,0,1,97.53,192.65Zm2.28,15.63H97.7V195.93h2.11Z"/><path class="cls-4" d="M105.19,195.93l.07,1.55a4.51,4.51,0,0,1,3.7-1.78c2.6,0,3.92,1.47,3.94,4.42v8.16h-2.11v-8.17a2.87,2.87,0,0,0-.61-2,2.46,2.46,0,0,0-1.86-.64,3.1,3.1,0,0,0-1.81.55,3.86,3.86,0,0,0-1.21,1.44v8.8h-2.11V195.93Z"/><path class="cls-4" d="M119,192.94v3h2.31v1.63H119v7.67a1.69,1.69,0,0,0,.31,1.11,1.27,1.27,0,0,0,1,.37,5,5,0,0,0,1-.13v1.7a6.15,6.15,0,0,1-1.62.23,2.63,2.63,0,0,1-2.13-.86,3.67,3.67,0,0,1-.72-2.43v-7.66h-2.25v-1.63h2.25v-3Z"/><path class="cls-4" d="M131.34,208.28a4.42,4.42,0,0,1-.29-1.3,4.72,4.72,0,0,1-3.52,1.53,4.35,4.35,0,0,1-3-1,3.34,3.34,0,0,1-1.17-2.62,3.5,3.5,0,0,1,1.46-3,7,7,0,0,1,4.13-1.07h2v-1a2.37,2.37,0,0,0-.66-1.76,2.64,2.64,0,0,0-1.95-.66,3.07,3.07,0,0,0-1.89.57,1.69,1.69,0,0,0-.77,1.38h-2.12a2.94,2.94,0,0,1,.65-1.78,4.54,4.54,0,0,1,1.79-1.37,6,6,0,0,1,2.47-.5,4.89,4.89,0,0,1,3.34,1.07,3.83,3.83,0,0,1,1.25,2.94v5.68a6.91,6.91,0,0,0,.44,2.7v.19Zm-3.5-1.61a3.63,3.63,0,0,0,1.88-.52,3,3,0,0,0,1.29-1.33v-2.53h-1.65c-2.59,0-3.88.75-3.88,2.27a1.92,1.92,0,0,0,.66,1.55A2.56,2.56,0,0,0,127.84,206.67Z"/><path class="cls-4" d="M138.43,195.93l.07,1.55a4.52,4.52,0,0,1,3.7-1.78c2.61,0,3.92,1.47,4,4.42v8.16H144v-8.17a2.83,2.83,0,0,0-.61-2,2.46,2.46,0,0,0-1.86-.64,3.1,3.1,0,0,0-1.81.55,3.86,3.86,0,0,0-1.21,1.44v8.8h-2.11V195.93Z"/><path class="cls-4" d="M157,208.28a4.42,4.42,0,0,1-.29-1.3,4.74,4.74,0,0,1-3.52,1.53,4.32,4.32,0,0,1-3-1,3.31,3.31,0,0,1-1.17-2.62,3.47,3.47,0,0,1,1.46-3,6.93,6.93,0,0,1,4.13-1.07h2.05v-1a2.37,2.37,0,0,0-.66-1.76,2.64,2.64,0,0,0-2-.66,3.08,3.08,0,0,0-1.9.57,1.67,1.67,0,0,0-.76,1.38h-2.12a2.88,2.88,0,0,1,.65-1.78,4.5,4.5,0,0,1,1.78-1.37,6.09,6.09,0,0,1,2.47-.5,4.9,4.9,0,0,1,3.35,1.07,3.86,3.86,0,0,1,1.25,2.94v5.68a6.91,6.91,0,0,0,.44,2.7v.19Zm-3.5-1.61a3.63,3.63,0,0,0,1.88-.52,3.11,3.11,0,0,0,1.29-1.33v-2.53H155c-2.59,0-3.88.75-3.88,2.27a1.92,1.92,0,0,0,.66,1.55A2.56,2.56,0,0,0,153.45,206.67Z"/><path class="cls-4" d="M174.25,201.56h-3.9v6.72h-2.2V191.66h5.5a6.53,6.53,0,0,1,4.32,1.28,4.62,4.62,0,0,1,1.51,3.72,4.45,4.45,0,0,1-.84,2.7,5,5,0,0,1-2.33,1.73l3.9,7v.14h-2.35Zm-3.9-1.8h3.37a3.81,3.81,0,0,0,2.59-.84,2.89,2.89,0,0,0,1-2.27,3,3,0,0,0-.92-2.36,3.92,3.92,0,0,0-2.66-.84h-3.35Z"/><path class="cls-4" d="M181.66,202a7.33,7.33,0,0,1,.71-3.26,5.26,5.26,0,0,1,4.89-3,5.2,5.2,0,0,1,4.08,1.75,6.7,6.7,0,0,1,1.56,4.64v.15a7.4,7.4,0,0,1-.69,3.24,5.3,5.3,0,0,1-2,2.23,5.48,5.48,0,0,1-2.95.8,5.19,5.19,0,0,1-4.06-1.75,6.68,6.68,0,0,1-1.56-4.62Zm2.12.25a5.32,5.32,0,0,0,.95,3.3,3.24,3.24,0,0,0,5.11,0,5.79,5.79,0,0,0,.95-3.53,5.21,5.21,0,0,0-1-3.29,3.21,3.21,0,0,0-5.08,0A5.74,5.74,0,0,0,183.78,202.24Z"/><path class="cls-4" d="M195,202a7.2,7.2,0,0,1,.71-3.26,5.24,5.24,0,0,1,2-2.24,5.32,5.32,0,0,1,2.9-.79,5.2,5.2,0,0,1,4.08,1.75,6.7,6.7,0,0,1,1.56,4.64v.15a7.4,7.4,0,0,1-.69,3.24,5.3,5.3,0,0,1-2,2.23,5.48,5.48,0,0,1-2.95.8,5.22,5.22,0,0,1-4.07-1.75,6.72,6.72,0,0,1-1.55-4.62Zm2.12.25a5.32,5.32,0,0,0,.95,3.3,3.24,3.24,0,0,0,5.11,0,5.79,5.79,0,0,0,1-3.53,5.27,5.27,0,0,0-1-3.29,3.07,3.07,0,0,0-2.56-1.26,3,3,0,0,0-2.52,1.24A5.74,5.74,0,0,0,197.11,202.24Z"/><path id="QROO" class="cls-5" d="M158.53,170h-.18c.41-.72,1.18-1.39,1.21-2.34.1-.78.07-2.32.85-2.81l-.57,1c.55,1.43-.47,3-1.31,4.12Zm3.66-7.77-.38.66a14.23,14.23,0,0,0-.19-3.37l.38.37A15.38,15.38,0,0,1,162.19,162.18Zm15.54-61.24a35.87,35.87,0,0,1-5.36,7.45l-.54,1.38a20.46,20.46,0,0,1-2.81,1.54,9.11,9.11,0,0,1-.17-8.14c.7-.52,2.67-1.67,3.3-2.23a2.35,2.35,0,0,1,.89.2c1.2-.49,3.26-.15,4.47-.5,0-.07.26-.54.22-.61H178a.93.93,0,0,1,.22.3,3.43,3.43,0,0,0-.45.61Zm1-20.51.75,1.4A4.75,4.75,0,0,1,178,79.49l.28-.47A3.26,3.26,0,0,0,178.74,80.43Zm-1.86-7.73-.17.39a2.89,2.89,0,0,1-.2-1.7A6.54,6.54,0,0,1,176.88,72.7ZM107,182.88c-1.14-3.15,2.74-5,3.28-7.77.29-2.92-1.11-6.2-.28-9a4.86,4.86,0,0,0-.94-.47,2.8,2.8,0,0,1,.56-.94,4.54,4.54,0,0,0-1.31-3c-.57-2.61,1.22-7.69.56-10.3,2.86-1.76,1.39-5.24,2.06-8-1.27-6.12-8.61-8.85-11.89-13.58a7.61,7.61,0,0,0,1.41-5.33c1.07-.38,3.78-.32,5-.66,1.66-2.24,4.89-3.09,7.58-2.9,1-.23,2.35-1.91,3.09-2.53a8.5,8.5,0,0,1,1.41,1l.28-.47-.19-.65c2.09-2.6,7-4,10.11-5.24,1.28-1,1.64-3.41,2.91-4.22l1,.1a3.9,3.9,0,0,1,.85,1.59l.65.09a5,5,0,0,0-.28-2.53c.58-1.41,1.53-3.59,3.28-3.65a5.8,5.8,0,0,0,1.59.94c5.6,0,8.23-4.34,12.73-6.93,1.7-2.91,2.45-6.79,4.12-9.74.46-2-1.82-4.23-1.4-6.08a6.37,6.37,0,0,1,1.59-3.65c.16-.67.16-7.15.2-8l7.3,1.26.5-1L160,70.68l.46-.61-.09-.19c-.61.14-1.14,1-1.78,1v.19l.19.09-.28.1-.29-.1a1.45,1.45,0,0,1-.09-.65c1-1.05,1.81-1.68,3.28-1.13l0-.28c2.64-3,7-1.66,9.65.64,1.45,1,2.63,3.37,4.36,4a31.6,31.6,0,0,1,1.12,8.71l1.41-.19c-.39,1.3-1.72,2.68-1.22,4h-.28c-.79.39-1.27.67-1.12,1.68-.16,1.21-1.06,2.89-1.31,4-1.92,2.8-4.48,6.67-7.31,8.52-1.79,1.13-6.52,7-7.11,9.17l-.47.1a.71.71,0,0,0-.19.56l.19.18c-2.22,1.62-2.91,6.3-2.62,8.9.59,1.34,1.52,2.84.65,4.31h-.28c-.38.29-.44,1.6-.75,2,.05-.39-.1-1.44.1-1.78.27.07.52-.18.75-.28.3-.41.19-1.47.28-2-.6-.29-.67-1-.84-1.5l-.19-.1-.19.1a.69.69,0,0,0-.09.47c.57.43.53,1.61.37,2.24a3.17,3.17,0,0,1,.56-.47c-.53.66-1.36,2.57-2.24,2.72a2.34,2.34,0,0,0-.57-.47l-.18.09a34.14,34.14,0,0,0-3.28,5.72l-.37-.1a1.15,1.15,0,0,0,.75-1.12l-1.46,1.88c1.59.36,5.93,1,7.35,1.58l-.37.19v.28l.84-.19a1.79,1.79,0,0,0,.38-1.21l-.38-.1a.74.74,0,0,1,.19.56,4.28,4.28,0,0,1-2.81-.37,18.66,18.66,0,0,1,2.43.28.7.7,0,0,0-.09-.47,2.72,2.72,0,0,0,.28-1.31,14.11,14.11,0,0,1,.84,1.87c-.8,1-.28,3-1.4,3.84-2.2,1.85-5.48,2.52-6.11,3.49a35.24,35.24,0,0,0,4.82,0l-.4,1.76c.42-.21.62-.82,1-1h.57v.18c-2,.75-1.91,3.35-2.81,4.87l.28.75c-1.83,3.25-2.34,7.87-3.37,11.42a36.79,36.79,0,0,0-3,10.58c-1.06,2.23-2.91,4.49-2.43,7.21h-.19a3.83,3.83,0,0,0-.19-1.5l-.46.57-.38-.1-.09-.47a1,1,0,0,0,.47-.56c-.29-2.05-4.59-5.19-6.08-6.36-2.64-2.34.29-6.84.35-9.81l-1-.68c-.38.73-.14,2-.93,2.43l-.28-.18-.47.84.28.19a.84.84,0,0,1-.66.46c-1,2-2.27,4.06-3.27,6a2.77,2.77,0,0,1-.47.09l-.09.09v.1c-1.58,0-3.69.47-5.26.47-.75.72-2.21,2-2,3.18-.16.9-1.31,1.72-1.68,2.53-.06,2.24-1.16,2.13-2.62,3.27.6,1.06-1.21,2.26-.85,3.47-.37.73-1.31.88-1.68,1.59-.06,1.31-1.44,2.19-2.34,2.9l-.1.75a.8.8,0,0,1-.46.28,8,8,0,0,0-2.63-.46C110.91,183.71,108.48,181.42,107,182.88Zm43.1-42.14.19-.56h.18a3.2,3.2,0,0,1-.37.56Z"/><path class="cls-1" d="M94.07,42.29a3.19,3.19,0,0,0,.53-1.36A1.53,1.53,0,0,0,94,39.62c-.42-.31-.74-.36-1.12.11l.29.08,0,.12a11.22,11.22,0,0,1-1.65-.34,3.48,3.48,0,0,0-2.58.07,8,8,0,0,1-2.47.61,5.56,5.56,0,0,0-2.64.84,1.41,1.41,0,0,0-.5.63A7.05,7.05,0,0,0,83,44.59a.88.88,0,0,1-.2.58,1.09,1.09,0,0,0-.5,1c0,.7-.43,1-.89,1.37s-.69.41-1,.64a4.27,4.27,0,0,0-.47.48h0l-1,.48h0a3.35,3.35,0,0,0-3,.34,1.34,1.34,0,0,1-.5.22c-.88.24-1.85-.18-2.71.52a3.91,3.91,0,0,1-1.73.43.65.65,0,0,1-.53-.16,3.25,3.25,0,0,0-1.32-1.22,3.61,3.61,0,0,0-1.47-.42,9,9,0,0,1-1-.11c-.28-.42-.51-.79-.76-1.15-.34-.51-.85-.94-.93-1.61A3.42,3.42,0,0,0,63.75,44a7.79,7.79,0,0,1-1.91-3.09,1,1,0,0,1,0-.63.74.74,0,0,0-.2-1,2.81,2.81,0,0,1-1.07-1.9c0-.32-.17-.63-.2-1a2.39,2.39,0,0,1,.05-.7c.06-.45.16-.9.22-1.35,0-.23,0-.47,0-.7.08-1.05.14-2.11.28-3.16A10.11,10.11,0,0,1,62,26.73a7.55,7.55,0,0,0,.5-1.59,1.27,1.27,0,0,0,0-.43,1.36,1.36,0,0,0-.51.11.46.46,0,0,1-.67-.05,1.67,1.67,0,0,0-1.24-.42,4.23,4.23,0,0,1-1.12-.25c-.64-.26-1.25-.61-1.9-.86a1,1,0,0,1-.65-.52c-.27-.58-.59-1.15-.88-1.73a1.36,1.36,0,0,1,0-.36c-.05-.42-.08-.85-.17-1.26A1.18,1.18,0,0,0,55,18.9c-.3-.32-.62-.62-.91-.94s-.6-.7-.89-1.06a1.4,1.4,0,0,1-.28-.36c-.25-.53-.46-1.09-.73-1.61a4.42,4.42,0,0,0-1.45-2.16c-.31-.2-.5-.6-.81-.79s-.45-.69-1-.7A20.29,20.29,0,0,1,46.7,11a.67.67,0,0,0-.31,0,4.68,4.68,0,0,0-.64.3,1.59,1.59,0,0,0-.57.48,6,6,0,0,0-.47,1.21,1.06,1.06,0,0,1-1.82.66c-.4-.28-.88-.45-1.31-.69a7.71,7.71,0,0,1-.77-.49,4.71,4.71,0,0,0-.45-.33,2.06,2.06,0,0,1-1.1-1.78,4.26,4.26,0,0,0-.93-2.12c-.28-.37-.82-.54-1.19-.86s-.93-.91-1.41-1.35c-.25-.23-.53-.43-.78-.65a2.62,2.62,0,0,1-.66-.67,1,1,0,0,0-1-.64c-1.34,0-2.68,0-4,0-1.15,0-1-.1-1,1,0,.47-.13.63-.61.62-2.54,0-5.08,0-7.62,0a2.57,2.57,0,0,1-.83-.12L8.77,1.84C8,1.57,8,1.56,8.18.78a4.09,4.09,0,0,0-.5,0l-6.47.58c-.52,0-.59.19-.36.67a2.8,2.8,0,0,0,.3.46L1.44,3a3,3,0,0,0,.34.57c.28.31.51.6.35,1.06-.1.31.06.54.29.78.4.41.87.82.75,1.52,0,.09.1.24.19.32.46.4.89.78.69,1.5,0,.15.13.52.22.53.46,0,.51.33.49.65a2.44,2.44,0,0,0,.52,1.65,7.29,7.29,0,0,0,1.65,1.16,4.11,4.11,0,0,1,.73.46c.82.86,1.61,1.74,2.39,2.63a.49.49,0,0,1,.09.39c-.14.53,0,1.14-.54,1.55-.06.06,0,.2-.08.31s-.22,0-.29.07a1.18,1.18,0,0,1-1.12.12,1.71,1.71,0,0,0-.5-.1,2.64,2.64,0,0,0-.46.13,2.59,2.59,0,0,0,.3.48c.51.5,1.33.7,1.47,1.56a.28.28,0,0,0,.16.16,7.17,7.17,0,0,0,1.36.73,1.36,1.36,0,0,1,.78.58c.19.27.4.56.82.19s1,.05,1.2.38a3,3,0,0,0,.43.52c.59.71,1.61.82,2.15,1.64a3.36,3.36,0,0,1,.33,2.66c-.22.49-.36,1-.56,1.61a5.24,5.24,0,0,0,.71.1c.39,0,.69.12.74.58l-.39.23.81.64.12-.1-.18-.57a.85.85,0,0,1,.27.13c1,.9,2.33,1.51,3.18,2.64a.89.89,0,0,0,.35.21,1.75,1.75,0,0,1,1,1.35,5.7,5.7,0,0,0,.22.81c.21.49.53.55.95.23.24-.19.5-.36.76-.53a1.15,1.15,0,0,0,0-1.86,1.14,1.14,0,0,1-.37-.49,6.73,6.73,0,0,0-.43-.94,3.48,3.48,0,0,0-.73-.57l-.8-.64-.12.07.1.79h0l-.45-.21a1.37,1.37,0,0,1-.66-1.56A1,1,0,0,0,20.46,28,5.64,5.64,0,0,1,19.9,27a3.45,3.45,0,0,0-.39-.82,2.24,2.24,0,0,1-.78-1.7.92.92,0,0,0-.07-.4c-.19-.53-.39-1.05-.59-1.57s-.47-1-1.14-1c-.09,0-.26-.25-.24-.35.06-.34-.09-.48-.37-.6-.12,0-.17-.23-.27-.35-.34-.41-.31-1.11-1-1.31a1.17,1.17,0,0,1-.81-1.09c-.08-.52-.18-1-.31-1.55,0-.13-.25-.22-.37-.33s-.4-.24-.43-.39c-.12-.75-.73-1-1.25-1.32a3.79,3.79,0,0,0-1-1.77c-.62-.6-1.46-.93-2-1.67a2.3,2.3,0,0,1-.48-1.27c0-.69-.13-1.38-.2-2.07a.45.45,0,0,0-.12-.25C7.5,6.48,7.81,5.65,8,4.87c.1-.49.46-.54.87-.24a3.27,3.27,0,0,0,.78.51,1.92,1.92,0,0,0,.83.06c.14,0,.3-.22.42-.19s.45.17.49.32c.18.68.72.73,1.28.88s.71.33.52.89a1.8,1.8,0,0,0,.43,1.77,2.27,2.27,0,0,1,.55,1.19c0,.85.58,1.37.91,2,.1.2.12.43.21.63a1,1,0,0,0,.27.35.91.91,0,0,0,.3.13l.08.13c-1.19-.14-.84.79-1.14,1.37.29.12.58.34.79.28s.37-.38.61-.65c.18.24.36.5.55.74s.53.88.91,1.09a2.87,2.87,0,0,1,1,1,3.31,3.31,0,0,0,.77.72,2.35,2.35,0,0,0,.65.27c.18-.07.42-.14.55-.05a.82.82,0,0,1,.21.51c0,.21-.06.46,0,.64s.39.58.54.89a.94.94,0,0,0,.86.63c.63,0,.75.35.84.85a.7.7,0,0,0,.91.64.78.78,0,0,1,.9.55,1.63,1.63,0,0,1,0,.95,2.17,2.17,0,0,1-.32.57,1.08,1.08,0,0,0,.21,1.21,4.61,4.61,0,0,1,.6.47,1.44,1.44,0,0,0,1.31.66.57.57,0,0,1,.21.1l.75.46,1,.56-.07.12L28,27.64a3.36,3.36,0,0,0,2.46,2.3c-.37.38,0,.52.2.71s.42.31.62.49a10.65,10.65,0,0,1,1,.93c.34.39.64.83,1,1.25.09.12.19.23.29.35a17,17,0,0,0,1.52,1.75,3.09,3.09,0,0,1,1.06,2.2,3,3,0,0,0,.25,1c.25.54.49,1.12,1.11,1.28a4.52,4.52,0,0,0,0,.68,1,1,0,0,1-.34,1,5.46,5.46,0,0,0-.57.78,3,3,0,0,1,.47.12c.13.08.24.19.36.28-.1.1-.18.24-.3.3a4.71,4.71,0,0,1-.54.12c-.48.12-.57.37-.28.77a2.67,2.67,0,0,1,.22.41,6.86,6.86,0,0,0,.45.95,14.44,14.44,0,0,0,1,1.3,2.51,2.51,0,0,0,.67.67,17.49,17.49,0,0,1,2.86,1.46A12.72,12.72,0,0,1,42.68,50a2,2,0,0,0,.62.5,17.32,17.32,0,0,0,1.71.6c.58.18,1.17.34,1.75.5a.36.36,0,0,0,.27,0c.49-.29.79,0,1.1.31a10.27,10.27,0,0,0,.77.71c.48.37,1,.71,1.47,1a2.14,2.14,0,0,0,.45.24c.57.21,1.15.38,1.71.61s1.09.52,1.65.76a7.35,7.35,0,0,0,1,.38c1,.29,2.08.22,2.84,1.09a1.45,1.45,0,0,0,.45.22c.57.25,1.13.51,1.7.74a5.36,5.36,0,0,0,.78.23,6,6,0,0,1,1.83.47,3.12,3.12,0,0,0,2.54.41,13.5,13.5,0,0,0,1.82-.72c.37-.17.71-.4,1.08-.58a6.49,6.49,0,0,1,.74-.26l.58-.18-.4-.28.26-.2.79.25-.22.23,1.9.63c1.64.53,2.69,1.85,3.91,2.94.65.57,1.24,1.19,1.86,1.79l.09,0c.08-.69.57-1.33.2-2.07a.74.74,0,0,1,0-.56c.3-.57.66-1.1,1-1.67a.78.78,0,0,1,.81-.48c1,0,2,0,3,0,.16,0,.41-.11.45-.23a5.15,5.15,0,0,0,.12-1s0,0-.07,0c-.42-.13-.6-.48-.8-.84a.82.82,0,0,0-.4-.36,4.22,4.22,0,0,1-1.53-1.35c1.06-.07,1.06-.07,1.06-1.13a.33.33,0,0,0,0-.1c-.07-.48.15-.61.62-.61,1.49,0,3,0,4.49,0,.22,0,.47.06.53-.29s.29-.3.5-.15.43.12.57-.11c.24-.39.45-.8.67-1.19-.11.14-.25.28-.35.43.1-.15.24-.29.35-.43h0l0,0h0c.14-.14.29-.41.43-.4.47,0,.66-.25.83-.6a4.94,4.94,0,0,1,.3-.49l.12,0a2.88,2.88,0,0,1-.1.51c-.12.27-.1.47.18.62a2.69,2.69,0,0,1,.33.26l.06.06h0c.13.4.24.1.28,0,.16-.43.29-.88.43-1.32.18-.62.36-1.24.55-1.91H91.8c.35-.24.82-.23.74-.74l-.78-.14a3.78,3.78,0,0,0,.66-1.17,3.3,3.3,0,0,1,1.08-2A2.72,2.72,0,0,0,94.07,42.29Z"/><path class="cls-1" d="M93.71,43.65a.29.29,0,0,0,.12.23.25.25,0,0,0,.24-.06c.21-.27.4-.56.64-.9C94,42.82,93.65,43.12,93.71,43.65Z"/><path id="MEX2736" class="cls-6" d="M92.71,50.13h0c0-.08.12-.15.13-.25s0-.24.09-.29l-.06.11a.51.51,0,0,1-.14.43Zm.38-.82,0,.07A1.37,1.37,0,0,0,93,49l0,0A1,1,0,0,1,93.09,49.31Zm1.63-6.41a3.36,3.36,0,0,1-.56.78l-.06.15s-.25.15-.29.16a.94.94,0,0,1,0-.85c.07-.06.28-.18.34-.24l.1,0c.12-.05.34,0,.47-.05l0-.06h0s0,0,0,0,0,0,0,.06Zm0-2.11.08.15a.51.51,0,0,1-.16-.25l0,0A.44.44,0,0,0,94.71,40.79ZM94.5,40v.1a.59.59,0,0,1-.05-.23A.33.33,0,0,1,94.5,40ZM87.32,51.48c-.12-.33.28-.52.34-.81s-.12-.65,0-.94l-.1,0a.33.33,0,0,1,.06-.1.45.45,0,0,0-.14-.31c-.06-.28.13-.81.06-1.08.3-.19.15-.55.22-.84-.13-.64-.9-.92-1.25-1.42a.73.73,0,0,0,.15-.55c.11,0,.4,0,.52-.07a.9.9,0,0,1,.79-.31c.11,0,.25-.2.33-.26a.49.49,0,0,1,.14.11l0-.05,0-.07a2.82,2.82,0,0,1,1.06-.55c.14-.1.17-.36.31-.44h.1a.35.35,0,0,1,.09.17h.07a.5.5,0,0,0,0-.27c.06-.15.16-.38.34-.38l.17.1c.59,0,.86-.46,1.33-.73.18-.3.26-.71.44-1s-.2-.44-.15-.63a.68.68,0,0,1,.16-.39c0-.07,0-.74,0-.83l.79.15,0-.12-.29-.07,0-.07v0c-.06,0-.12.1-.18.11v0h0a.17.17,0,0,1,0-.07A.29.29,0,0,1,93,39.6v0a.73.73,0,0,1,1,.07c.16.11.28.35.46.41a3.57,3.57,0,0,1,.12.92l.14,0c0,.13-.17.28-.12.42h0c-.08,0-.14.07-.12.17s-.11.31-.14.43a3.62,3.62,0,0,1-.76.89,3.2,3.2,0,0,0-.75,1h0a0,0,0,0,0,0,.06l0,0a1.13,1.13,0,0,0-.28.93c.06.14.16.29.07.45h0s-.05.17-.08.2,0-.15,0-.18a.19.19,0,0,0,.08,0,.76.76,0,0,0,0-.21c-.06,0-.07-.1-.09-.16h0a.11.11,0,0,0,0,.05.26.26,0,0,1,0,.24l.06-.05c-.06.07-.14.27-.24.28l0,0h0a3.16,3.16,0,0,0-.35.59h0a.12.12,0,0,0,.08-.11l-.15.19c.17,0,.62.11.77.17l0,0v0l.09,0a.2.2,0,0,0,0-.13h0a.11.11,0,0,1,0,.06.45.45,0,0,1-.3,0,1.15,1.15,0,0,1,.26,0s0,0,0-.05a.22.22,0,0,0,0-.14l.09.2c-.09.1,0,.31-.15.4s-.57.26-.64.37h.51l-.05.18c.05,0,.07-.09.11-.11h.06v0c-.21.08-.2.35-.29.51l0,.08a6.06,6.06,0,0,0-.36,1.19,4,4,0,0,0-.31,1.11c-.11.24-.31.47-.26.76h0a.88.88,0,0,0,0-.16l0,.06h0v0a.15.15,0,0,0,0-.06c0-.21-.48-.54-.64-.66s0-.72,0-1l-.11-.07c0,.07,0,.2-.1.25l0,0,0,.09,0,0s0,.05-.06.05c-.11.2-.24.42-.35.63h-.06c-.16,0-.38.05-.55.05s-.23.2-.21.33-.14.18-.18.26c0,.24-.12.23-.27.35.06.11-.13.23-.09.36s-.14.09-.18.16-.15.23-.24.31v.08l0,0a.81.81,0,0,0-.27,0C87.73,51.57,87.47,51.33,87.32,51.48Zm4.51-4.41,0-.06h0l0,.06Z"/></g></svg>