<svg xmlns="http://www.w3.org/2000/svg" viewBox="0 0 306.04 276.52"><defs><style>.cls-1{fill:#fef6fc;}.cls-1,.cls-2,.cls-3{stroke:#6d4162;stroke-miterlimit:10;stroke-width:0.78px;}.cls-2,.cls-3{fill:none;}.cls-3{isolation:isolate;}.cls-4{fill:#713972;}.cls-5{fill:#b25fac;}.cls-6{fill:#f230b9;}</style></defs><g id="estados"><circle class="cls-1" cx="136.96" cy="151.48" r="97.03"/><circle class="cls-2" cx="136.96" cy="151.48" r="104.09"/><polyline class="cls-3" points="213.34 81.1 271.32 41.25 305.78 41.25"/><polyline class="cls-3" points="214.19 220.92 271.32 255.56 305.78 255.56"/><polyline class="cls-3" points="239.72 131.27 272.01 116.16 306.47 116.16"/><polyline class="cls-3" points="238.56 172.75 271 186.07 305.46 186.07"/><path class="cls-4" d="M105,211.75a10.33,10.33,0,0,1-4.11-2,3.82,3.82,0,0,1-1.28-2.91,4,4,0,0,1,1.57-3.25,6.19,6.19,0,0,1,4.08-1.28,6.8,6.8,0,0,1,3,.66,5.07,5.07,0,0,1,2.08,1.82,4.7,4.7,0,0,1,.73,2.55h-2.2a3,3,0,0,0-1-2.38,3.92,3.92,0,0,0-2.7-.86,4,4,0,0,0-2.53.71,2.41,2.41,0,0,0-.91,2,2.17,2.17,0,0,0,.86,1.72,8.77,8.77,0,0,0,2.94,1.28,13.56,13.56,0,0,1,3.24,1.29,4.79,4.79,0,0,1,1.73,1.63,4.18,4.18,0,0,1,.57,2.21,3.88,3.88,0,0,1-1.58,3.23,6.71,6.71,0,0,1-4.21,1.22,7.75,7.75,0,0,1-3.19-.66,5.43,5.43,0,0,1-2.29-1.8,4.35,4.35,0,0,1-.81-2.59h2.21a2.86,2.86,0,0,0,1.11,2.38,4.69,4.69,0,0,0,3,.88,4.3,4.3,0,0,0,2.66-.71A2.3,2.3,0,0,0,109,215a2.27,2.27,0,0,0-.86-1.89A10.2,10.2,0,0,0,105,211.75Z"/><path class="cls-4" d="M113.65,203.54a1.25,1.25,0,0,1,.31-.87,1.16,1.16,0,0,1,.93-.35,1.2,1.2,0,0,1,.94.35,1.25,1.25,0,0,1,.31.87,1.2,1.2,0,0,1-.31.85,1.24,1.24,0,0,1-.94.35,1.14,1.14,0,0,1-1.24-1.2Zm2.28,15.62h-2.11V206.81h2.11Z"/><path class="cls-4" d="M121.3,206.81l.07,1.55a4.52,4.52,0,0,1,3.7-1.78c2.61,0,3.92,1.48,4,4.42v8.16h-2.11V211a2.93,2.93,0,0,0-.61-2,2.49,2.49,0,0,0-1.87-.63,3,3,0,0,0-1.8.54,3.77,3.77,0,0,0-1.21,1.44v8.8h-2.11V206.81Z"/><path class="cls-4" d="M139.82,219.16a4.34,4.34,0,0,1-.29-1.3,4.72,4.72,0,0,1-3.52,1.53,4.34,4.34,0,0,1-3-1,3.32,3.32,0,0,1-1.17-2.61,3.51,3.51,0,0,1,1.46-3,7,7,0,0,1,4.13-1.07h2.05v-1a2.38,2.38,0,0,0-.66-1.76,2.64,2.64,0,0,0-2-.66,3.05,3.05,0,0,0-1.89.57,1.72,1.72,0,0,0-.77,1.39H132.1a2.94,2.94,0,0,1,.65-1.79,4.48,4.48,0,0,1,1.78-1.36,5.93,5.93,0,0,1,2.47-.51,4.9,4.9,0,0,1,3.35,1.07,3.86,3.86,0,0,1,1.25,2.94v5.68A6.93,6.93,0,0,0,142,219v.18Zm-3.5-1.61a3.72,3.72,0,0,0,1.88-.51,3.07,3.07,0,0,0,1.29-1.34v-2.53h-1.65c-2.59,0-3.88.75-3.88,2.27a1.92,1.92,0,0,0,.66,1.55A2.56,2.56,0,0,0,136.32,217.55Z"/><path class="cls-4" d="M147.21,219.16H145.1V201.63h2.11Z"/><path class="cls-4" d="M150,212.87a7.2,7.2,0,0,1,.71-3.26,5.34,5.34,0,0,1,2-2.24,5.47,5.47,0,0,1,2.91-.79,5.23,5.23,0,0,1,4.08,1.75,6.7,6.7,0,0,1,1.56,4.64v.15a7.4,7.4,0,0,1-.69,3.24,5.3,5.3,0,0,1-2,2.23,5.48,5.48,0,0,1-2.95.8,5.19,5.19,0,0,1-4.07-1.75A6.66,6.66,0,0,1,150,213Zm2.12.25a5.32,5.32,0,0,0,.95,3.3,3.24,3.24,0,0,0,5.11,0,5.77,5.77,0,0,0,.94-3.53,5.29,5.29,0,0,0-1-3.29,3.07,3.07,0,0,0-2.56-1.26,3,3,0,0,0-2.52,1.24A5.74,5.74,0,0,0,152.15,213.12Z"/><path class="cls-4" d="M171.54,219.16a4.27,4.27,0,0,1-.3-1.3,4.71,4.71,0,0,1-3.52,1.53,4.35,4.35,0,0,1-3-1,3.32,3.32,0,0,1-1.17-2.61,3.49,3.49,0,0,1,1.47-3,6.89,6.89,0,0,1,4.12-1.07h2.06v-1a2.39,2.39,0,0,0-.67-1.76,2.64,2.64,0,0,0-1.95-.66,3.07,3.07,0,0,0-1.89.57,1.72,1.72,0,0,0-.77,1.39h-2.12a2.9,2.9,0,0,1,.66-1.79,4.41,4.41,0,0,1,1.78-1.36,5.9,5.9,0,0,1,2.47-.51,4.89,4.89,0,0,1,3.34,1.07,3.84,3.84,0,0,1,1.26,2.94v5.68a7,7,0,0,0,.43,2.71v.18ZM168,217.55a3.78,3.78,0,0,0,1.89-.51,3.19,3.19,0,0,0,1.29-1.34v-2.53h-1.66c-2.59,0-3.88.75-3.88,2.27a1.92,1.92,0,0,0,.66,1.55A2.56,2.56,0,0,0,168,217.55Z"/><path id="SIN" class="cls-5" d="M105.43,114.85l1.28.45.29.15.45.67.3.23-.45.3-.74-.38-.83-.52-.67-.3h-.15l-.22-.08-.15-.07h-1.72l-.3-.15-.15-.37h2.69l.37.07Zm46.15-5.32-.82.82-.38.45-.22.53-.3.52-.37.45-.45.37-.45.52-.45.9-.3,1.2-.22,1.19-.15,1.12-.23,1.2-.15,1.27v1.2l.23,1.19.37,1.13.3,1.12.3,1.12.45,1,.15.45.15.53.15.52.3.37.3.23.82.22.37.23.15.3.08.29v.75l.22.45.22.23.38.14.45.08h.67l.37.07.3.23.23.45.22.45.3.37.45.22.82.53.45.82.3,1,.52.9.6.52.3.3.15.45.15.37.15.3.3.6.22.45.15.45.08.45.07.52v.82l.07.38.23.37.82.82.45.38.37.37.45.37.38.15h1.64l.37-.07.38-.15.3-.3.3-.37.22-.38.3-.37.75-.6.89-.45.83-.15,1,.15.3.15.22.15.3.15.23.22.59.53,1.72,1.57.45.6.3.74.3.83.22.67.53,1.34.3.68.37.59.45.45.45.08.59-.08.53-.22-.23.82-.3.82-.37.75-.37.82-.15,1,.07,1,.15,1.05.15,1,.23,1.79.15.45.22.38.22.45.23.44.07.53.15.67.23.52.45.38.29.15.38.07.37.08.38.07.15.6.37.52.37.53.3.59-.07.23-.08.22-.07.23.37.37.08.22v.3l-.08.23-.15.45.15.22.23.3.15.3.07.3v.89l.22.38.38.22.37.23.3.3.15.22.08.22.07.23.22.15.3.3.45.37.38.45.37.37.82.45.9.08,1.05-.08.89-.07.15,3-.6-.08-.52.08-.37.22-.3.45-.15.52-.08.3.15.3.15.45.38.52V180l-.15.37-.38.3-.45.37-.44.38-.38.3-.37.45-.45.44-.37.6-.15.53.07.22.15.15.15.15.45.3.15.15.15.22.15.38.15.22.22.15.3.07.22.15v.15l-.14.38v.15l.07.07.3.08.07.07.23.6.22.67.15.67.15.6v.9l-.6.52-.74.08-.83-.23-.3-.3-.37-.29-.3-.3-.37-.23-.53-.15-.52.15-.52.15-.45.08.22.89.15.53-.07.45-.38.29-.37-.37-.67-1.12.15-.15-.15-.37-.23-.3-.22-.15-.23.3h-.14l-2.92-4.56-1.05-1.35-.37-.37-1-.68-.15-.15-.08-.07-.07-.07-.15-.08-.45-.45-.22.23-4.64-5.83-.45-.15-.22-.15-.45-.38-2.24-2.54-.38-.22-.3.07-.22.15-.22.08-.3-.08V172l-.08-.37-.82-1.27-.45-.3v-.22l.3-.23-.07-.15-.08-.15-.07-.15L160.63,167l-.45-.3-1-.9-.08-.15-.15-.14-.22-.6-.23-.3-.6-.3-.37-.45-.52-.82-.68-.75-.44-.3-1-.37-.22-.53-.22-1.19-.38-.53-.37-.44-.38-.45-.29-1.12-5.76-6-2.06-1.58-2.58-1.94-1.49-1-.3-.3-1.27-1.35-.9-.6-1.42-1.42-5.46-3.36-.44-.45-.15-.45.07-.3-.22-.15-.68-.15-1.79-1.12-2-1.79-.22-.38-.08-.37-.15-1-.07-.45-.23-.45-.3-.37-.22-.15-.15-.08-.07-.22-.68-1.12-.89-.53-.68-1L121,125.53l-.59-.75-.83-.75-.45-.22-.22-.15-.15-.3h.52l.53.08-.53-1.27-.59-.08-.45-.22-.82.15-.3.44-.08-.22.15-1.2v-.37l-.22-.52-3.52-2-1.42-.89-1-.3-1-.08h-.82l.52-.45-.75-.22-.6.07-2.75-.76-3.53-1.48-.74-.52-1.2-1.27.52-.3-.89-1-.3-.3-2.62-2.25.08.3.15.3.22.23L99,110.65l.37.6-.07.45-.52-.45-.53-.75-.6-.67-.82-.22H94.17l-.9-.23.52-.37.67-.23h.75l.68.3-.08-.45.08-.44L96,108,94,106.39l-.23.15-.15.3v1.49l-.07.23-.3-.37.15-.53v-.6l-.08-.59-.15-.3-.52-.15-.07-.45.07-.6.22-1,.15-.23h.08v-.52l-.08-.37-.07-.3-.15-.38-.15-.59-.07-.45.07-1.2.08-.37.82-1.5.89-1,.45-.52.3-1L96,93.91l.23-.08-.08.38v.52l-.07.3-.08.3-.07.3.15.22.22.08.23-.23.07-.3.15-.82.75-1.35.15-.07.9-.6.44-.3.23-.22v.37l-.15.45-.3.22v.15l.45.23,1.12,1,.37.07v-.29l-.29-.6-.08-.38.22-.15.23-.07.15-.15-.08-.37-.67.07-.52-1.12.22-.45.6-.52,2.39-1.8,2.32-1.87,2.32-1.86,2.31-2,2.32-2L114.57,79l.15-.37V76.94l.15-.68.23-.67.22-.6.23-.67.59-.6.53-.6.52-.67.52-.75.3.53.53.22.6-.07.52-.08.52.15.38.23.22.44.3.45.75,1,1.19.53,1.27.3,1.12.22.6.3.15.6v1.34l.38.83.52.82.52.75.53.74.44.6,1,1,.45.6.44,1.2.15,1.57.15,1.57.15,1.42.3,2.39.3,2.39.07.75.23.37.45.23.75.15,1,.15,1.57.37,4.78,1,.67.15.6.45.38.59.22.75.08.45.07.37.07.45.15.38.08.37.07.3.23.22.3.08.22.15.23.3.07.37.08.3.07.37v.38l.07.37.15.15.53.15.67.37.6.38.6.45.59.52.38.52.45.6.37.52.45.45.75.38.74.44.68.45.67.6Z"/><path class="cls-1" d="M94.07,42.29a3.19,3.19,0,0,0,.53-1.36A1.53,1.53,0,0,0,94,39.62c-.42-.31-.74-.36-1.12.11l.29.08,0,.12a11.22,11.22,0,0,1-1.65-.34,3.48,3.48,0,0,0-2.58.07,8,8,0,0,1-2.47.61,5.56,5.56,0,0,0-2.64.84,1.41,1.41,0,0,0-.5.63A7.05,7.05,0,0,0,83,44.59a.88.88,0,0,1-.2.58,1.09,1.09,0,0,0-.5,1c0,.7-.43,1-.89,1.37s-.69.41-1,.64a4.27,4.27,0,0,0-.47.48h0l-1,.48h0a3.35,3.35,0,0,0-3,.34,1.34,1.34,0,0,1-.5.22c-.88.24-1.85-.18-2.71.52a3.91,3.91,0,0,1-1.73.43.65.65,0,0,1-.53-.16,3.25,3.25,0,0,0-1.32-1.22,3.61,3.61,0,0,0-1.47-.42,9,9,0,0,1-1-.11c-.28-.42-.51-.79-.76-1.15-.34-.51-.85-.94-.93-1.61A3.42,3.42,0,0,0,63.75,44a7.79,7.79,0,0,1-1.91-3.09,1,1,0,0,1,0-.63.74.74,0,0,0-.2-1,2.81,2.81,0,0,1-1.07-1.9c0-.32-.17-.63-.2-1a2.39,2.39,0,0,1,.05-.7c.06-.45.16-.9.22-1.35,0-.23,0-.47,0-.7.08-1.05.14-2.11.28-3.16A10.11,10.11,0,0,1,62,26.73a7.55,7.55,0,0,0,.5-1.59,1.27,1.27,0,0,0,0-.43,1.36,1.36,0,0,0-.51.11.46.46,0,0,1-.67-.05,1.67,1.67,0,0,0-1.24-.42,4.23,4.23,0,0,1-1.12-.25c-.64-.26-1.25-.61-1.9-.86a1,1,0,0,1-.65-.52c-.27-.58-.59-1.15-.88-1.73a1.36,1.36,0,0,1,0-.36c-.05-.42-.08-.85-.17-1.26A1.18,1.18,0,0,0,55,18.9c-.3-.32-.62-.62-.91-.94s-.6-.7-.89-1.06a1.4,1.4,0,0,1-.28-.36c-.25-.53-.46-1.09-.73-1.61a4.42,4.42,0,0,0-1.45-2.16c-.31-.2-.5-.6-.81-.79s-.45-.69-1-.7A20.29,20.29,0,0,1,46.7,11a.67.67,0,0,0-.31,0,4.68,4.68,0,0,0-.64.3,1.59,1.59,0,0,0-.57.48,6,6,0,0,0-.47,1.21,1.06,1.06,0,0,1-1.82.66c-.4-.28-.88-.45-1.31-.69a7.71,7.71,0,0,1-.77-.49,4.71,4.71,0,0,0-.45-.33,2.06,2.06,0,0,1-1.1-1.78,4.26,4.26,0,0,0-.93-2.12c-.28-.37-.82-.54-1.19-.86s-.93-.91-1.41-1.35c-.25-.23-.53-.43-.78-.65a2.62,2.62,0,0,1-.66-.67,1,1,0,0,0-1-.64c-1.34,0-2.68,0-4,0-1.15,0-1-.1-1,1,0,.47-.13.63-.61.62-2.54,0-5.08,0-7.62,0a2.57,2.57,0,0,1-.83-.12L8.77,1.84C8,1.57,8,1.56,8.18.78a4.09,4.09,0,0,0-.5,0l-6.47.58c-.52,0-.59.19-.36.67a2.8,2.8,0,0,0,.3.46L1.44,3a3,3,0,0,0,.34.57c.28.31.51.6.35,1.06-.1.31.06.54.29.78.4.41.87.82.75,1.52,0,.09.1.24.19.32.46.4.89.78.69,1.5,0,.15.13.52.22.53.46,0,.51.33.49.65a2.44,2.44,0,0,0,.52,1.65,7.29,7.29,0,0,0,1.65,1.16,4.11,4.11,0,0,1,.73.46c.82.86,1.61,1.74,2.39,2.63a.49.49,0,0,1,.09.39c-.14.53,0,1.14-.54,1.55-.06.06,0,.2-.08.31s-.22,0-.29.07a1.18,1.18,0,0,1-1.12.12,1.71,1.71,0,0,0-.5-.1,2.64,2.64,0,0,0-.46.13,2.59,2.59,0,0,0,.3.48c.51.5,1.33.7,1.47,1.56a.28.28,0,0,0,.16.16,7.17,7.17,0,0,0,1.36.73,1.36,1.36,0,0,1,.78.58c.19.27.4.56.82.19s1,.05,1.2.38a3,3,0,0,0,.43.52c.59.71,1.61.82,2.15,1.64a3.36,3.36,0,0,1,.33,2.66c-.22.49-.36,1-.56,1.61a5.24,5.24,0,0,0,.71.1c.39,0,.69.12.74.58l-.39.23.81.64.12-.1-.18-.57a.85.85,0,0,1,.27.13c1,.9,2.33,1.51,3.18,2.64a.89.89,0,0,0,.35.21,1.75,1.75,0,0,1,1,1.35,5.7,5.7,0,0,0,.22.81c.21.49.53.55.95.23.24-.19.5-.36.76-.53a1.15,1.15,0,0,0,0-1.86,1.14,1.14,0,0,1-.37-.49,6.73,6.73,0,0,0-.43-.94,3.48,3.48,0,0,0-.73-.57l-.8-.64-.12.07.1.79h0l-.45-.21a1.37,1.37,0,0,1-.66-1.56A1,1,0,0,0,20.46,28,5.64,5.64,0,0,1,19.9,27a3.45,3.45,0,0,0-.39-.82,2.24,2.24,0,0,1-.78-1.7.92.92,0,0,0-.07-.4c-.19-.53-.39-1.05-.59-1.57s-.47-1-1.14-1c-.09,0-.26-.25-.24-.35.06-.34-.09-.48-.37-.6-.12,0-.17-.23-.27-.35-.34-.41-.31-1.11-1-1.31a1.17,1.17,0,0,1-.81-1.09c-.08-.52-.18-1-.31-1.55,0-.13-.25-.22-.37-.33s-.4-.24-.43-.39c-.12-.75-.73-1-1.25-1.32a3.79,3.79,0,0,0-1-1.77c-.62-.6-1.46-.93-2-1.67a2.3,2.3,0,0,1-.48-1.27c0-.69-.13-1.38-.2-2.07a.45.45,0,0,0-.12-.25C7.5,6.48,7.81,5.65,8,4.87c.1-.49.46-.54.87-.24a3.27,3.27,0,0,0,.78.51,1.92,1.92,0,0,0,.83.06c.14,0,.3-.22.42-.19s.45.17.49.32c.18.68.72.73,1.28.88s.71.33.52.89a1.8,1.8,0,0,0,.43,1.77,2.27,2.27,0,0,1,.55,1.19c0,.85.58,1.37.91,2,.1.2.12.43.21.63a1,1,0,0,0,.27.35.91.91,0,0,0,.3.13l.08.13c-1.19-.14-.84.79-1.14,1.37.29.12.58.34.79.28s.37-.38.61-.65c.18.24.36.5.55.74s.53.88.91,1.09a2.87,2.87,0,0,1,1,1,3.31,3.31,0,0,0,.77.72,2.35,2.35,0,0,0,.65.27c.18-.07.42-.14.55-.05a.82.82,0,0,1,.21.51c0,.21-.06.46,0,.64s.39.58.54.89a.94.94,0,0,0,.86.63c.63,0,.75.35.84.85a.7.7,0,0,0,.91.64.78.78,0,0,1,.9.55,1.63,1.63,0,0,1,0,.95,2.17,2.17,0,0,1-.32.57,1.08,1.08,0,0,0,.21,1.21,4.61,4.61,0,0,1,.6.47,1.44,1.44,0,0,0,1.31.66.57.57,0,0,1,.21.1l.75.46,1,.56-.07.12L28,27.64a3.36,3.36,0,0,0,2.46,2.3c-.37.38,0,.52.2.71s.42.31.62.49a10.65,10.65,0,0,1,1,.93c.34.39.64.83,1,1.25.09.12.19.23.29.35a17,17,0,0,0,1.52,1.75,3.09,3.09,0,0,1,1.06,2.2,3,3,0,0,0,.25,1c.25.54.49,1.12,1.11,1.28a4.52,4.52,0,0,0,0,.68,1,1,0,0,1-.34,1,5.46,5.46,0,0,0-.57.78,3,3,0,0,1,.47.12c.13.08.24.19.36.28-.1.1-.18.24-.3.3a4.71,4.71,0,0,1-.54.12c-.48.12-.57.37-.28.77a2.67,2.67,0,0,1,.22.41,6.86,6.86,0,0,0,.45.95,14.44,14.44,0,0,0,1,1.3,2.51,2.51,0,0,0,.67.67,17.49,17.49,0,0,1,2.86,1.46A12.72,12.72,0,0,1,42.68,50a2,2,0,0,0,.62.5,17.32,17.32,0,0,0,1.71.6c.58.18,1.17.34,1.75.5a.36.36,0,0,0,.27,0c.49-.29.79,0,1.1.31a10.27,10.27,0,0,0,.77.71c.48.37,1,.71,1.47,1a2.14,2.14,0,0,0,.45.24c.57.21,1.15.38,1.71.61s1.09.52,1.65.76a7.35,7.35,0,0,0,1,.38c1,.29,2.08.22,2.84,1.09a1.45,1.45,0,0,0,.45.22c.57.25,1.13.51,1.7.74a5.36,5.36,0,0,0,.78.23,6,6,0,0,1,1.83.47,3.12,3.12,0,0,0,2.54.41,13.5,13.5,0,0,0,1.82-.72c.37-.17.71-.4,1.08-.58a6.49,6.49,0,0,1,.74-.26l.58-.18-.4-.28.26-.2.79.25-.22.23,1.9.63c1.64.53,2.69,1.85,3.91,2.94.65.57,1.24,1.19,1.86,1.79l.09,0c.08-.69.57-1.33.2-2.07a.74.74,0,0,1,0-.56c.3-.57.66-1.1,1-1.67a.78.78,0,0,1,.81-.48c1,0,2,0,3,0,.16,0,.41-.11.45-.23a5.15,5.15,0,0,0,.12-1s0,0-.07,0c-.42-.13-.6-.48-.8-.84a.82.82,0,0,0-.4-.36,4.22,4.22,0,0,1-1.53-1.35c1.06-.07,1.06-.07,1.06-1.13a.33.33,0,0,0,0-.1c-.07-.48.15-.61.62-.61,1.49,0,3,0,4.49,0,.22,0,.47.06.53-.29s.29-.3.5-.15.43.12.57-.11c.24-.39.45-.8.67-1.19-.11.14-.25.28-.35.43.1-.15.24-.29.35-.43h0l0,0h0c.14-.14.29-.41.43-.4.47,0,.66-.25.83-.6a4.94,4.94,0,0,1,.3-.49l.12,0a2.88,2.88,0,0,1-.1.51c-.12.27-.1.47.18.62a2.69,2.69,0,0,1,.33.26l.06.06h0c.13.4.24.1.28,0,.16-.43.29-.88.43-1.32.18-.62.36-1.24.55-1.91H91.8c.35-.24.82-.23.74-.74l-.78-.14a3.78,3.78,0,0,0,.66-1.17,3.3,3.3,0,0,1,1.08-2A2.72,2.72,0,0,0,94.07,42.29Z"/><path class="cls-1" d="M93.71,43.65a.29.29,0,0,0,.12.23.25.25,0,0,0,.24-.06c.21-.27.4-.56.64-.9C94,42.82,93.65,43.12,93.71,43.65Z"/><path id="MEX2711" class="cls-6" d="M26.08,26.56l.17.06,0,0,.06.09,0,0-.06,0-.09-.05-.11-.07-.09,0h-.29l0,0,0-.05h.4Zm6.05-.69L32,26,32,26l0,.07,0,.07,0,.06-.06.05-.05.07-.06.11,0,.16,0,.16,0,.14,0,.16,0,.17v.15l0,.16.05.15,0,.14,0,.15.05.14,0,.06,0,.07,0,.06,0,.05,0,0,.11,0,0,0,0,0v.14l0,.06,0,0,0,0h.19l0,0,0,.06,0,.06,0,0,.06,0,.11.07.05.11,0,.12.07.12.08.07,0,0,0,.06,0,.05,0,0,0,.08,0,0,0,.06v.29l0,.05.1.1.06.05,0,.05.06.05,0,0h.26l.05,0,0,0,0-.05,0-.05,0,0,.1-.08.12-.06.1,0,.13,0,0,0,0,0,0,0,0,0,.08.06.22.21.06.08,0,.1,0,.1,0,.09.07.18,0,.09,0,.08.06.05h.14l.07,0,0,.1,0,.11,0,.1,0,.11,0,.12v.14l0,.14,0,.13,0,.23,0,.06,0,.05,0,.06,0,.06v.06l0,.09,0,.07.06.05,0,0h.14l0,.08.05.07,0,.07,0,.07v.09l.05,0v.1l0,.06,0,0,0,0,0,0v.15l0,0,.05,0,0,0,0,0,0,0v.06l0,0,0,0,.06.05,0,0,0,.05.11.06h.37l0,.39h-.15l0,0,0,.06,0,.07v0l0,0,0,.06,0,.07v0l0,0-.05,0,0,.05-.06,0,0,0,0,.06-.06.06,0,.08,0,.07v0h0l0,0,.06,0,0,0,0,0,0,0,0,0,0,0h0l0,0v0l0,.05v0h0l0,.08,0,.08,0,.09,0,.08v.12l-.08.07h-.09l-.11,0,0,0-.05,0,0,0,0,0-.07,0-.07,0-.06,0H36l0,.12,0,.07v0l-.05,0,0,0-.09-.14,0,0,0-.05,0,0,0,0,0,0h0l-.38-.6-.14-.17-.05,0-.12-.09,0,0h0L35,35.36l0,0-.61-.76-.06,0,0,0,0-.05-.3-.34,0,0h0l0,0h-.06V34l-.11-.17-.06,0v0l0,0v0h0l-.21-.28-.06,0-.12-.12v0l0,0,0-.07,0,0-.08,0L32.91,33l-.07-.11-.09-.1,0,0-.13,0,0-.07,0-.16,0-.07-.05-.06,0-.06,0-.14-.75-.79-.27-.2L31,30.89l-.19-.13,0,0-.17-.18-.12-.08-.18-.19-.72-.44-.06,0,0-.06v0l0,0-.09,0-.23-.15-.27-.23,0-.05v-.05l0-.13V29l0-.06,0-.05,0,0h0v0l-.09-.14-.12-.07-.09-.14L28.12,28l-.08-.1-.11-.09-.06,0,0,0v0H28l-.07-.17h-.07l-.06,0-.11,0,0,.06v0l0-.16v0l0-.07L27.13,27l-.19-.12-.12,0h-.24l.07-.06-.1,0h-.08l-.36-.1-.46-.2-.1-.07-.15-.16.06,0-.11-.13,0,0L25,25.73v0l0,0,0,0,.21.17.05.08v.06l-.07-.06-.07-.1-.08-.09-.11,0H24.6l-.12,0,.07-.05.09,0h.1l.09,0v-.14l-.26-.22,0,0,0,0v.23l0,0,0-.07v-.16l0,0-.06,0v-.13l0-.13,0,0h0V24.9l0-.07v-.27l.1-.19.12-.13.06-.07,0-.14.11-.21h0V24l0,0h0l0,0v0l0-.1.1-.18h0l.12-.08.06,0,0,0v.05l0,.06,0,0v0l.06,0,.14.13h.05v0l0-.08v-.05l0,0h0l0,0v-.05H25.4l-.07-.15,0-.06.07-.06.32-.24.3-.24.31-.25.3-.25.3-.27.32-.25,0-.05v-.23l0-.09,0-.08,0-.08,0-.09.08-.08.07-.08.07-.09.07-.09,0,.07.07,0H28l0,0,0,.06,0,.06.1.13.15.07.17,0,.15,0,.08,0,0,.07v.18l0,.11.07.11L29,22l.07.1.06.08.13.13.06.08.05.15,0,.21,0,.2,0,.19,0,.31,0,.32v.1l0,0,.06,0,.1,0,.12,0,.21.05.63.14.09,0,.07.06.05.08,0,.09v.17l0,.05v.09l0,0h0l0,0,0,0v.23l0,0,.07,0,.08.05.08,0,.08.06.08.07.05.06.06.08.05.07.05.06.1.05.1.06.09.06.09.08Z"/></g></svg>