<svg xmlns="http://www.w3.org/2000/svg" viewBox="0 0 306.04 276.52"><defs><style>.cls-1{fill:#fef6fc;}.cls-1,.cls-2,.cls-3{stroke:#6d4162;stroke-miterlimit:10;stroke-width:0.78px;}.cls-2,.cls-3{fill:none;}.cls-3{isolation:isolate;}.cls-4{fill:#713972;}.cls-5{fill:#b25fac;}.cls-6{fill:#f230b9;}</style></defs><g id="estados"><circle class="cls-1" cx="136.96" cy="151.48" r="97.03"/><circle class="cls-2" cx="136.96" cy="151.48" r="104.09"/><polyline class="cls-3" points="213.34 81.1 271.32 41.25 305.78 41.25"/><polyline class="cls-3" points="214.19 220.92 271.32 255.56 305.78 255.56"/><polyline class="cls-3" points="239.72 131.27 272.01 116.16 306.47 116.16"/><polyline class="cls-3" points="238.56 172.75 271 186.07 305.46 186.07"/><path class="cls-4" d="M100,200.87a10.21,10.21,0,0,1-4.1-2A3.8,3.8,0,0,1,94.59,196a4,4,0,0,1,1.57-3.24,6.23,6.23,0,0,1,4.08-1.29,6.68,6.68,0,0,1,3.05.67,4.94,4.94,0,0,1,2.08,1.82,4.71,4.71,0,0,1,.74,2.55h-2.2a3,3,0,0,0-1-2.38,3.89,3.89,0,0,0-2.71-.87,4,4,0,0,0-2.53.72,2.4,2.4,0,0,0-.9,2,2.13,2.13,0,0,0,.86,1.72,8.39,8.39,0,0,0,2.93,1.29,14,14,0,0,1,3.24,1.28,5,5,0,0,1,1.74,1.64,4.26,4.26,0,0,1,.56,2.2,3.88,3.88,0,0,1-1.57,3.24,6.73,6.73,0,0,1-4.21,1.21,7.79,7.79,0,0,1-3.2-.65,5.43,5.43,0,0,1-2.29-1.8,4.42,4.42,0,0,1-.8-2.59h2.2a2.87,2.87,0,0,0,1.11,2.38,4.73,4.73,0,0,0,3,.87A4.34,4.34,0,0,0,103,206a2.33,2.33,0,0,0,.92-1.93,2.25,2.25,0,0,0-.86-1.89A9.61,9.61,0,0,0,100,200.87Z"/><path class="cls-4" d="M116.24,208.28a4.69,4.69,0,0,1-.3-1.3,4.69,4.69,0,0,1-3.51,1.52,4.36,4.36,0,0,1-3-1,3.34,3.34,0,0,1-1.17-2.62,3.48,3.48,0,0,1,1.47-3,6.93,6.93,0,0,1,4.13-1.07h2v-1a2.35,2.35,0,0,0-.66-1.76,2.64,2.64,0,0,0-2-.66,3.08,3.08,0,0,0-1.9.57,1.67,1.67,0,0,0-.76,1.38h-2.12a2.88,2.88,0,0,1,.65-1.78A4.5,4.5,0,0,1,111,196.2a6.06,6.06,0,0,1,2.47-.5,4.9,4.9,0,0,1,3.35,1.07,3.86,3.86,0,0,1,1.25,2.94v5.68a6.91,6.91,0,0,0,.44,2.7v.19Zm-3.5-1.61a3.63,3.63,0,0,0,1.88-.52,3.11,3.11,0,0,0,1.29-1.33v-2.53h-1.65c-2.59,0-3.88.75-3.88,2.27a1.92,1.92,0,0,0,.66,1.55A2.56,2.56,0,0,0,112.74,206.67Z"/><path class="cls-4" d="M123.33,195.93l.07,1.55a4.47,4.47,0,0,1,3.69-1.78q3.91,0,3.95,4.42v8.16h-2.11v-8.17a2.87,2.87,0,0,0-.61-2,2.47,2.47,0,0,0-1.87-.64,3.09,3.09,0,0,0-1.8.55,3.7,3.7,0,0,0-1.21,1.44v8.8h-2.11V195.93Z"/><path class="cls-4" d="M142.54,206.48h7.88v1.8H140.34V191.66h2.2Z"/><path class="cls-4" d="M159.71,207.06a4.5,4.5,0,0,1-3.62,1.44,3.85,3.85,0,0,1-3-1.14,5,5,0,0,1-1-3.4v-8h2.11v8c0,1.87.76,2.8,2.28,2.8a3.16,3.16,0,0,0,3.22-1.8v-9h2.11v12.35h-2Z"/><path class="cls-4" d="M165,192.65a1.23,1.23,0,0,1,.31-.86,1.17,1.17,0,0,1,.93-.36,1.19,1.19,0,0,1,.94.36,1.24,1.24,0,0,1,.32.86,1.14,1.14,0,0,1-1.26,1.2,1.19,1.19,0,0,1-.93-.34A1.21,1.21,0,0,1,165,192.65Zm2.28,15.63h-2.11V195.93h2.11Z"/><path class="cls-4" d="M177.83,205a1.57,1.57,0,0,0-.65-1.33,6.19,6.19,0,0,0-2.24-.81,10.72,10.72,0,0,1-2.55-.83,3.6,3.6,0,0,1-1.39-1.14,2.71,2.71,0,0,1-.45-1.57,3.22,3.22,0,0,1,1.28-2.57,5,5,0,0,1,3.28-1.05,5.18,5.18,0,0,1,3.41,1.08,3.47,3.47,0,0,1,1.31,2.78H177.7a1.91,1.91,0,0,0-.73-1.5,2.75,2.75,0,0,0-1.86-.62,2.83,2.83,0,0,0-1.8.5,1.58,1.58,0,0,0-.65,1.31,1.28,1.28,0,0,0,.6,1.15,7.4,7.4,0,0,0,2.19.74A11.4,11.4,0,0,1,178,202a3.77,3.77,0,0,1,1.46,1.18,2.94,2.94,0,0,1,.47,1.68,3.17,3.17,0,0,1-1.32,2.66,5.61,5.61,0,0,1-3.44,1,6.19,6.19,0,0,1-2.62-.52,4.28,4.28,0,0,1-1.79-1.47,3.49,3.49,0,0,1-.64-2h2.11a2.2,2.2,0,0,0,.85,1.68,3.31,3.31,0,0,0,2.09.62,3.41,3.41,0,0,0,1.92-.48A1.5,1.5,0,0,0,177.83,205Z"/><path class="cls-4" d="M108,226.77v6.51h-2.19V216.66h6.13a6.18,6.18,0,0,1,4.27,1.39,5.26,5.26,0,0,1,0,7.42,6.44,6.44,0,0,1-4.33,1.3Zm0-1.79h3.94a3.94,3.94,0,0,0,2.69-.83,3,3,0,0,0,.94-2.39,3.11,3.11,0,0,0-.94-2.38,3.69,3.69,0,0,0-2.57-.93H108Z"/><path class="cls-4" d="M119.52,227a7.2,7.2,0,0,1,.71-3.26,5.24,5.24,0,0,1,2-2.24,5.32,5.32,0,0,1,2.9-.79,5.2,5.2,0,0,1,4.08,1.75,6.7,6.7,0,0,1,1.56,4.64v.15a7.4,7.4,0,0,1-.69,3.24,5.3,5.3,0,0,1-2,2.23,5.47,5.47,0,0,1-3,.79,5.21,5.21,0,0,1-4.07-1.74,6.74,6.74,0,0,1-1.55-4.62Zm2.12.25a5.32,5.32,0,0,0,1,3.3,3.24,3.24,0,0,0,5.11,0,5.79,5.79,0,0,0,1-3.53,5.27,5.27,0,0,0-1-3.29,3.07,3.07,0,0,0-2.56-1.26,3,3,0,0,0-2.52,1.24A5.74,5.74,0,0,0,121.64,227.24Z"/><path class="cls-4" d="M136.27,217.94v3h2.3v1.63h-2.3v7.67a1.69,1.69,0,0,0,.31,1.11,1.27,1.27,0,0,0,1,.37,5.13,5.13,0,0,0,1-.13v1.7a6.24,6.24,0,0,1-1.62.22,2.62,2.62,0,0,1-2.13-.85,3.67,3.67,0,0,1-.72-2.43v-7.66h-2.25v-1.63h2.25v-3Z"/><path class="cls-4" d="M140.25,227a7.33,7.33,0,0,1,.71-3.26,5.31,5.31,0,0,1,2-2.24,5.37,5.37,0,0,1,2.9-.79,5.17,5.17,0,0,1,4.08,1.75,6.7,6.7,0,0,1,1.56,4.64v.15a7.4,7.4,0,0,1-.69,3.24,5.34,5.34,0,0,1-2,2.23,5.5,5.5,0,0,1-3,.79,5.2,5.2,0,0,1-4.07-1.74,6.7,6.7,0,0,1-1.56-4.62Zm2.12.25a5.26,5.26,0,0,0,1,3.3,3.23,3.23,0,0,0,5.1,0,5.79,5.79,0,0,0,.95-3.53,5.27,5.27,0,0,0-1-3.29,3.08,3.08,0,0,0-2.57-1.26,3,3,0,0,0-2.52,1.24A5.74,5.74,0,0,0,142.37,227.24Z"/><path class="cls-4" d="M161.33,230a1.57,1.57,0,0,0-.65-1.33,6.19,6.19,0,0,0-2.24-.81,10.72,10.72,0,0,1-2.55-.83,3.6,3.6,0,0,1-1.39-1.14,2.71,2.71,0,0,1-.45-1.57,3.22,3.22,0,0,1,1.28-2.57,5,5,0,0,1,3.28-1.05,5.18,5.18,0,0,1,3.41,1.08,3.47,3.47,0,0,1,1.31,2.78H161.2a1.91,1.91,0,0,0-.73-1.5,2.75,2.75,0,0,0-1.86-.62,2.83,2.83,0,0,0-1.8.5,1.58,1.58,0,0,0-.65,1.31,1.28,1.28,0,0,0,.6,1.15,7.29,7.29,0,0,0,2.19.74,11.4,11.4,0,0,1,2.56.85,3.85,3.85,0,0,1,1.46,1.18,2.94,2.94,0,0,1,.47,1.68,3.17,3.17,0,0,1-1.32,2.66,5.61,5.61,0,0,1-3.44,1,6.19,6.19,0,0,1-2.62-.52,4.28,4.28,0,0,1-1.79-1.47,3.49,3.49,0,0,1-.64-2h2.11a2.17,2.17,0,0,0,.85,1.68,3.31,3.31,0,0,0,2.09.62,3.41,3.41,0,0,0,1.92-.48A1.5,1.5,0,0,0,161.33,230Z"/><path class="cls-4" d="M168.51,215.76h2.55L168,219.11h-1.7Zm0,17.52h-2.12V220.93h2.12Z"/><path id="SLP" class="cls-5" d="M147.55,112.46c-.14,1.22-.86,3-1,4.2a9.55,9.55,0,0,1,2.1-1.7l.5.1c.12.56.07,1.34.2,1.9.67,1.71,3.42,2.65,2.8,4.8a3.08,3.08,0,0,1-2.1,2,3.22,3.22,0,0,0-1.9,1.1l-.1.4a6.68,6.68,0,0,0,.8,1.3,13.41,13.41,0,0,1,.3,1.4,3.06,3.06,0,0,0,1.5.7c1.92.91,4.23,1.81,6.2,2.6a46.84,46.84,0,0,0,7.1,2.6l.3-.3a11.65,11.65,0,0,0-.7-3.5l.3-.1c1.55.53,2.05,2.52,3.4,3.3.73-.11,1.24-1.15,1.6-1.7a31.94,31.94,0,0,1,2.5,4.6c.62,1.25,1,2.81,2.3,3.6.94.33,2.14.33,3.1.6s2.08.57,3,.8c1.27.44,2.71,1.23,4.1,1.2a6.79,6.79,0,0,0,2.9.2,8.27,8.27,0,0,0,1-1.2c.92-.64,2.4-.26,3.4-.8l.5-.7a30.11,30.11,0,0,1,4.5,3.2c1.64,1,3.83,1.93,5,3.5,1,3.27-2.42,6-3,9l-.2.1-.3-.3-.3.4a3.48,3.48,0,0,1-1-.2,1.66,1.66,0,0,0-1,.3c-.31,0-1.32-.24-1.6-.3l.1,1a10.29,10.29,0,0,0,1.9-.3v.3a2.46,2.46,0,0,0-.7.7l.2.7-.7.2a2.81,2.81,0,0,0,1,1.9l1.3-.2a2,2,0,0,1,.2,1.2c.18.05.62.23.8.3.3.74-.31,1.51-.9,1.9a8.79,8.79,0,0,0-.9.6c0,.09-.1.35-.2.4s-.55-.34-.8-.3a2.44,2.44,0,0,0-.5.4v.3l.3.2-.5.5-1.2-.2-.5.4a8.92,8.92,0,0,0,0,2c-.11.11-.47.44-.5.6.26,1.29,1.86,1.89,2.9,2.4a2.44,2.44,0,0,1,1,2.2c0,.79.16,1.71.1,2.5-.73.36-1.84.34-2.4,1a18.78,18.78,0,0,1-.1,5.4l-.3-.2a1.12,1.12,0,0,0-1,.5,3.94,3.94,0,0,1-1.7-.3,8.38,8.38,0,0,0-2.4.7,2.09,2.09,0,0,1-2.4.2c-.56-.44-1.54-.52-2-1.1a8.59,8.59,0,0,1-.6-1.9c-.19-.15-.31-.45-.5-.6a3.81,3.81,0,0,0-2.7.1l-.6.7a2.47,2.47,0,0,0-2.1-.8,24.79,24.79,0,0,0,.4-3.1c-1.54-2.6-2.21-6-3.1-8.9l-.1.7c-.37.68-1.35.9-1.8,1.5v1.1c-.51.6-1,.78-1.7.3-.78,0-.76.94-.8,1.5-.63.54-.81,1.52-1.4,2.1a1.84,1.84,0,0,1-1.2-.1,6.62,6.62,0,0,0-1.4.4l-.4.6c-.92.29-2.3-.27-3,.5-.79-.07-1-1-1.8-1.2a4.84,4.84,0,0,0-.5-1.2c-.15-.19-.45-.31-.6-.5a5.64,5.64,0,0,0-1.8-1.3l-.9.3a20.44,20.44,0,0,0-1.3,3,14.21,14.21,0,0,0-2.8-1.3,20.9,20.9,0,0,1-2.5-.1c-1.25-.79-2.45-2.41-3.7-3.2a33.83,33.83,0,0,0-3.4-1.2l-1.9-.5a7.88,7.88,0,0,0-1.9-.9,9.76,9.76,0,0,0-2.5-1.1,1.15,1.15,0,0,0-1.1-.5c-.3.22-.78.39-1,.7a6.22,6.22,0,0,0-.9,2c-.34.89-.22,2.06-.7,2.9-1,1-2.73.65-4,.7-1.38-.91-2.7-2.4-4.1-3.3a78.21,78.21,0,0,1-6.4-5.5,10.37,10.37,0,0,0-5.2-.6c-1.62.44-3.75,1-4.8-.7a2,2,0,0,1-.2-1.5,1.94,1.94,0,0,0-.6-1.1c-2.06-.9-3.58,1.85-5.6,1.5l-1.2-.7c1.85-2.48,4.35-5.74,6.1-8.3.23-1-.27-3.63-.3-4.7-.26-1.32-1.1-3.29-1.4-4.6a2.62,2.62,0,0,1,1.1-2.4,4.48,4.48,0,0,0,1.5-1,10.71,10.71,0,0,0-.9-2.6,6,6,0,0,0-1.3-2.4,22.77,22.77,0,0,0-3.2-.1c-1.13,0-2.73,0-3.6.8a21.53,21.53,0,0,1-1.5,3,6.18,6.18,0,0,1-1.7.2,8.81,8.81,0,0,0-1.7,1.1c-3.74,1.68-4.89-5.94-7.9-7.1a1.53,1.53,0,0,1-1.1-.3,16.1,16.1,0,0,0-1.6-1.6,12.92,12.92,0,0,1-3.4-4.1,45.14,45.14,0,0,0-2.2-4.8c-.41-1.18.74-2.2.9-3.3-.19-1.18-.62-2.64-.9-3.8-.35-.56-1.07-.92-1.5-1.4a2.06,2.06,0,0,1,.3-1.3l.5-.1a1.82,1.82,0,0,0,1,.2c1.2-1.19.62-3.5,1.7-4.8.66,0,1.49-.29,2,.3a6,6,0,0,0-.2,1.5l.6.3c2.18-.39,4.07-2.2,5.5-3.8,1.32-1.79,2.51-4.08,4.6-5.1a6.12,6.12,0,0,1,1.6-.3c1-.32,1-1.58,1.5-2.3,1.19-1.42,3.2-2.33,4.8-3.2a20.62,20.62,0,0,0,5.4-4.8,8.8,8.8,0,0,1,2.4-2.5c.64-.2,1.59-.2,2.1-.7,1.53-2.73,3.44-6.23,5.1-8.9,1.44-2.69,3.1-6,6.2-7.1a12.85,12.85,0,0,0,1.3-3.4c1.62,1.75,3,4.22,4.5,6.1.57.92,1.65,1.69,2.1,2.7,1,4.24-.44,9,1.2,13.1.76,1.21,2,2.66,2.9,3.8a12,12,0,0,1-.2,5.5,42,42,0,0,0,1.2,5.1c.32,1.09-.69,2.18-.5,3.3a4.42,4.42,0,0,1,.5,2.1c0,1.64-.29,3.83,1.1,5a12,12,0,0,0,2.6.7l.3-.1a8.61,8.61,0,0,0,.1-2.1A49.26,49.26,0,0,1,147.55,112.46Z"/><path class="cls-1" d="M94.07,42.29a3.19,3.19,0,0,0,.53-1.36A1.53,1.53,0,0,0,94,39.62c-.42-.31-.74-.36-1.12.11l.29.08,0,.12a11.22,11.22,0,0,1-1.65-.34,3.48,3.48,0,0,0-2.58.07,8,8,0,0,1-2.47.61,5.56,5.56,0,0,0-2.64.84,1.41,1.41,0,0,0-.5.63A7.05,7.05,0,0,0,83,44.59a.88.88,0,0,1-.2.58,1.09,1.09,0,0,0-.5,1c0,.7-.43,1-.89,1.37s-.69.41-1,.64a4.27,4.27,0,0,0-.47.48h0l-1,.48h0a3.35,3.35,0,0,0-3,.34,1.34,1.34,0,0,1-.5.22c-.88.24-1.85-.18-2.71.52a3.91,3.91,0,0,1-1.73.43.65.65,0,0,1-.53-.16,3.25,3.25,0,0,0-1.32-1.22,3.61,3.61,0,0,0-1.47-.42,9,9,0,0,1-1-.11c-.28-.42-.51-.79-.76-1.15-.34-.51-.85-.94-.93-1.61A3.42,3.42,0,0,0,63.75,44a7.79,7.79,0,0,1-1.91-3.09,1,1,0,0,1,0-.63.74.74,0,0,0-.2-1,2.81,2.81,0,0,1-1.07-1.9c0-.32-.17-.63-.2-1a2.39,2.39,0,0,1,.05-.7c.06-.45.16-.9.22-1.35,0-.23,0-.47,0-.7.08-1.05.14-2.11.28-3.16A10.11,10.11,0,0,1,62,26.73a7.55,7.55,0,0,0,.5-1.59,1.27,1.27,0,0,0,0-.43,1.36,1.36,0,0,0-.51.11.46.46,0,0,1-.67-.05,1.67,1.67,0,0,0-1.24-.42,4.23,4.23,0,0,1-1.12-.25c-.64-.26-1.25-.61-1.9-.86a1,1,0,0,1-.65-.52c-.27-.58-.59-1.15-.88-1.73a1.36,1.36,0,0,1,0-.36c-.05-.42-.08-.85-.17-1.26A1.18,1.18,0,0,0,55,18.9c-.3-.32-.62-.62-.91-.94s-.6-.7-.89-1.06a1.4,1.4,0,0,1-.28-.36c-.25-.53-.46-1.09-.73-1.61a4.42,4.42,0,0,0-1.45-2.16c-.31-.2-.5-.6-.81-.79s-.45-.69-1-.7A20.29,20.29,0,0,1,46.7,11a.67.67,0,0,0-.31,0,4.68,4.68,0,0,0-.64.3,1.59,1.59,0,0,0-.57.48,6,6,0,0,0-.47,1.21,1.06,1.06,0,0,1-1.82.66c-.4-.28-.88-.45-1.31-.69a7.71,7.71,0,0,1-.77-.49,4.71,4.71,0,0,0-.45-.33,2.06,2.06,0,0,1-1.1-1.78,4.26,4.26,0,0,0-.93-2.12c-.28-.37-.82-.54-1.19-.86s-.93-.91-1.41-1.35c-.25-.23-.53-.43-.78-.65a2.62,2.62,0,0,1-.66-.67,1,1,0,0,0-1-.64c-1.34,0-2.68,0-4,0-1.15,0-1-.1-1,1,0,.47-.13.63-.61.62-2.54,0-5.08,0-7.62,0a2.57,2.57,0,0,1-.83-.12L8.77,1.84C8,1.57,8,1.56,8.18.78a4.09,4.09,0,0,0-.5,0l-6.47.58c-.52,0-.59.19-.36.67a2.8,2.8,0,0,0,.3.46L1.44,3a3,3,0,0,0,.34.57c.28.31.51.6.35,1.06-.1.31.06.54.29.78.4.41.87.82.75,1.52,0,.09.1.24.19.32.46.4.89.78.69,1.5,0,.15.13.52.22.53.46,0,.51.33.49.65a2.44,2.44,0,0,0,.52,1.65,7.29,7.29,0,0,0,1.65,1.16,4.11,4.11,0,0,1,.73.46c.82.86,1.61,1.74,2.39,2.63a.49.49,0,0,1,.09.39c-.14.53,0,1.14-.54,1.55-.06.06,0,.2-.08.31s-.22,0-.29.07a1.18,1.18,0,0,1-1.12.12,1.71,1.71,0,0,0-.5-.1,2.64,2.64,0,0,0-.46.13,2.59,2.59,0,0,0,.3.48c.51.5,1.33.7,1.47,1.56a.28.28,0,0,0,.16.16,7.17,7.17,0,0,0,1.36.73,1.36,1.36,0,0,1,.78.58c.19.27.4.56.82.19s1,.05,1.2.38a3,3,0,0,0,.43.52c.59.71,1.61.82,2.15,1.64a3.36,3.36,0,0,1,.33,2.66c-.22.49-.36,1-.56,1.61a5.24,5.24,0,0,0,.71.1c.39,0,.69.12.74.58l-.39.23.81.64.12-.1-.18-.57a.85.85,0,0,1,.27.13c1,.9,2.33,1.51,3.18,2.64a.89.89,0,0,0,.35.21,1.75,1.75,0,0,1,1,1.35,5.7,5.7,0,0,0,.22.81c.21.49.53.55.95.23.24-.19.5-.36.76-.53a1.15,1.15,0,0,0,0-1.86,1.14,1.14,0,0,1-.37-.49,6.73,6.73,0,0,0-.43-.94,3.48,3.48,0,0,0-.73-.57l-.8-.64-.12.07.1.79h0l-.45-.21a1.37,1.37,0,0,1-.66-1.56A1,1,0,0,0,20.46,28,5.64,5.64,0,0,1,19.9,27a3.45,3.45,0,0,0-.39-.82,2.24,2.24,0,0,1-.78-1.7.92.92,0,0,0-.07-.4c-.19-.53-.39-1.05-.59-1.57s-.47-1-1.14-1c-.09,0-.26-.25-.24-.35.06-.34-.09-.48-.37-.6-.12,0-.17-.23-.27-.35-.34-.41-.31-1.11-1-1.31a1.17,1.17,0,0,1-.81-1.09c-.08-.52-.18-1-.31-1.55,0-.13-.25-.22-.37-.33s-.4-.24-.43-.39c-.12-.75-.73-1-1.25-1.32a3.79,3.79,0,0,0-1-1.77c-.62-.6-1.46-.93-2-1.67a2.3,2.3,0,0,1-.48-1.27c0-.69-.13-1.38-.2-2.07a.45.45,0,0,0-.12-.25C7.5,6.48,7.81,5.65,8,4.87c.1-.49.46-.54.87-.24a3.27,3.27,0,0,0,.78.51,1.92,1.92,0,0,0,.83.06c.14,0,.3-.22.42-.19s.45.17.49.32c.18.68.72.73,1.28.88s.71.33.52.89a1.8,1.8,0,0,0,.43,1.77,2.27,2.27,0,0,1,.55,1.19c0,.85.58,1.37.91,2,.1.2.12.43.21.63a1,1,0,0,0,.27.35.91.91,0,0,0,.3.13l.08.13c-1.19-.14-.84.79-1.14,1.37.29.12.58.34.79.28s.37-.38.61-.65c.18.24.36.5.55.74s.53.88.91,1.09a2.87,2.87,0,0,1,1,1,3.31,3.31,0,0,0,.77.72,2.35,2.35,0,0,0,.65.27c.18-.07.42-.14.55-.05a.82.82,0,0,1,.21.51c0,.21-.06.46,0,.64s.39.58.54.89a.94.94,0,0,0,.86.63c.63,0,.75.35.84.85a.7.7,0,0,0,.91.64.78.78,0,0,1,.9.55,1.63,1.63,0,0,1,0,.95,2.17,2.17,0,0,1-.32.57,1.08,1.08,0,0,0,.21,1.21,4.61,4.61,0,0,1,.6.47,1.44,1.44,0,0,0,1.31.66.57.57,0,0,1,.21.1l.75.46,1,.56-.07.12L28,27.64a3.36,3.36,0,0,0,2.46,2.3c-.37.38,0,.52.2.71s.42.31.62.49a10.65,10.65,0,0,1,1,.93c.34.39.64.83,1,1.25.09.12.19.23.29.35a17,17,0,0,0,1.52,1.75,3.09,3.09,0,0,1,1.06,2.2,3,3,0,0,0,.25,1c.25.54.49,1.12,1.11,1.28a4.52,4.52,0,0,0,0,.68,1,1,0,0,1-.34,1,5.46,5.46,0,0,0-.57.78,3,3,0,0,1,.47.12c.13.08.24.19.36.28-.1.1-.18.24-.3.3a4.71,4.71,0,0,1-.54.12c-.48.12-.57.37-.28.77a2.67,2.67,0,0,1,.22.41,6.86,6.86,0,0,0,.45.95,14.44,14.44,0,0,0,1,1.3,2.51,2.51,0,0,0,.67.67,17.49,17.49,0,0,1,2.86,1.46A12.72,12.72,0,0,1,42.68,50a2,2,0,0,0,.62.5,17.32,17.32,0,0,0,1.71.6c.58.18,1.17.34,1.75.5a.36.36,0,0,0,.27,0c.49-.29.79,0,1.1.31a10.27,10.27,0,0,0,.77.71c.48.37,1,.71,1.47,1a2.14,2.14,0,0,0,.45.24c.57.21,1.15.38,1.71.61s1.09.52,1.65.76a7.35,7.35,0,0,0,1,.38c1,.29,2.08.22,2.84,1.09a1.45,1.45,0,0,0,.45.22c.57.25,1.13.51,1.7.74a5.36,5.36,0,0,0,.78.23,6,6,0,0,1,1.83.47,3.12,3.12,0,0,0,2.54.41,13.5,13.5,0,0,0,1.82-.72c.37-.17.71-.4,1.08-.58a6.49,6.49,0,0,1,.74-.26l.58-.18-.4-.28.26-.2.79.25-.22.23,1.9.63c1.64.53,2.69,1.85,3.91,2.94.65.57,1.24,1.19,1.86,1.79l.09,0c.08-.69.57-1.33.2-2.07a.74.74,0,0,1,0-.56c.3-.57.66-1.1,1-1.67a.78.78,0,0,1,.81-.48c1,0,2,0,3,0,.16,0,.41-.11.45-.23a5.15,5.15,0,0,0,.12-1s0,0-.07,0c-.42-.13-.6-.48-.8-.84a.82.82,0,0,0-.4-.36,4.22,4.22,0,0,1-1.53-1.35c1.06-.07,1.06-.07,1.06-1.13a.33.33,0,0,0,0-.1c-.07-.48.15-.61.62-.61,1.49,0,3,0,4.49,0,.22,0,.47.06.53-.29s.29-.3.5-.15.43.12.57-.11c.24-.39.45-.8.67-1.19-.11.14-.25.28-.35.43.1-.15.24-.29.35-.43h0l0,0h0c.14-.14.29-.41.43-.4.47,0,.66-.25.83-.6a4.94,4.94,0,0,1,.3-.49l.12,0a2.88,2.88,0,0,1-.1.51c-.12.27-.1.47.18.62a2.69,2.69,0,0,1,.33.26l.06.06h0c.13.4.24.1.28,0,.16-.43.29-.88.43-1.32.18-.62.36-1.24.55-1.91H91.8c.35-.24.82-.23.74-.74l-.78-.14a3.78,3.78,0,0,0,.66-1.17,3.3,3.3,0,0,1,1.08-2A2.72,2.72,0,0,0,94.07,42.29Z"/><path class="cls-1" d="M93.71,43.65a.29.29,0,0,0,.12.23.25.25,0,0,0,.24-.06c.21-.27.4-.56.64-.9C94,42.82,93.65,43.12,93.71,43.65Z"/><path id="MEX2715" class="cls-6" d="M53.56,34c0,.12-.08.29-.09.41a.82.82,0,0,1,.2-.17h0c0,.29.28.36.3.61s-.28.21-.4.35v0a.5.5,0,0,1,.11.26,9.53,9.53,0,0,0,1.45.58l0,0a1,1,0,0,0-.07-.34h0c.15,0,.2.25.33.32s.13-.11.16-.16c.19.24.24.6.47.8.44,0,.84.31,1.28.28.11-.19.26-.14.44-.2l0-.07a3.58,3.58,0,0,1,.45.31c.17.12.46.2.51.43s-.26.53-.32.8h0l0,0,0,0c-.06,0-.13,0-.19,0l-.16,0v.1l.19,0v0a.16.16,0,0,0-.07.07l0,.06-.07,0a.27.27,0,0,0,.1.19l.12,0s0,.08,0,.12l.08,0c.06.14-.15.18-.19.28l-.08,0,0,0v0l0,0-.05,0-.12,0-.05,0a1.34,1.34,0,0,0,0,.2l0,.05c0,.16.25.19.35.29a1.4,1.4,0,0,1,0,.41c-.08,0-.19,0-.24.1a1.88,1.88,0,0,1,0,.53l0,0s-.07,0-.1.05-.16-.05-.24,0-.22.11-.33.1a2.1,2.1,0,0,1-.26-.13c0-.08,0-.19-.11-.25a.39.39,0,0,0-.26,0l-.06.07a.26.26,0,0,0-.21-.08,1.54,1.54,0,0,0,0-.3,4.48,4.48,0,0,1-.3-.87v.07c0,.06-.13.08-.18.14v.11c-.1.14-.24-.09-.24.18-.06,0-.08.15-.14.2s-.24,0-.29.09-.23,0-.3,0-.1-.1-.17-.12-.17-.23-.29-.29l-.09,0a1.48,1.48,0,0,0-.12.29.89.89,0,0,0-.52-.14,1.5,1.5,0,0,0-.7-.43c-.22,0-.4-.18-.62-.24a.09.09,0,0,0-.1,0c-.22.09-.18.37-.26.55s-.27.06-.39.07c-.34-.28-.71-.56-1-.87s-.61,0-.89,0-.06-.23-.17-.34-.35.18-.55.15l-.11-.07a8.29,8.29,0,0,0,.6-.86,2.8,2.8,0,0,0-.17-.86c0-.18.15-.24.25-.34a1.43,1.43,0,0,0-.21-.49c-.21,0-.49-.06-.67.07a1.32,1.32,0,0,1-.15.29c-.08,0-.19,0-.26.08-.43.31-.52-.52-.84-.64-.11,0-.19-.14-.27-.19a2.26,2.26,0,0,1-.55-.87c0-.12.08-.22.09-.33s0-.4-.23-.5a.19.19,0,0,1,0-.13h.05l.1,0c.12-.12.06-.35.17-.47s.14,0,.19,0,0,.1,0,.14l.06,0c.48-.08.61-.65,1-.87.06,0,.14,0,.2,0s.06-.14.11-.2c.3-.29.76-.42,1-.79A.64.64,0,0,1,50,31.4c.35-.51.53-1.28,1.1-1.57a1,1,0,0,0,.13-.33c.23.27.43.59.65.86a6.17,6.17,0,0,1,0,1c0,.43.54.66.36,1.12-.08.26.17.52.08.77s0,.25,0,.37c0,.3,0,.55.36.56h0a.67.67,0,0,0,0-.2A4.57,4.57,0,0,1,53.56,34Z"/></g></svg>