<svg xmlns="http://www.w3.org/2000/svg" viewBox="0 0 306.04 276.52"><defs><style>.cls-1{fill:#fef6fc;}.cls-1,.cls-2,.cls-3{stroke:#6d4162;stroke-miterlimit:10;stroke-width:0.78px;}.cls-2,.cls-3{fill:none;}.cls-3{isolation:isolate;}.cls-4{fill:#713972;}.cls-5{fill:#b25fac;}.cls-6{fill:#f230b9;}</style></defs><g id="estados"><circle class="cls-1" cx="136.96" cy="151.48" r="97.03"/><circle class="cls-2" cx="136.96" cy="151.48" r="104.09"/><polyline class="cls-3" points="213.34 81.1 271.32 41.25 305.78 41.25"/><polyline class="cls-3" points="214.19 220.92 271.32 255.56 305.78 255.56"/><polyline class="cls-3" points="239.72 131.27 272.01 116.16 306.47 116.16"/><polyline class="cls-3" points="238.56 172.75 271 186.07 305.46 186.07"/><path class="cls-4" d="M89.68,204.33H84.34v14.83H82.16V204.33H76.83v-1.79H89.68Z"/><path class="cls-4" d="M98.14,219.16a4.42,4.42,0,0,1-.29-1.3,4.72,4.72,0,0,1-3.52,1.53,4.34,4.34,0,0,1-3-1,3.34,3.34,0,0,1-1.17-2.62,3.5,3.5,0,0,1,1.46-3,7,7,0,0,1,4.13-1.07h2v-1a2.37,2.37,0,0,0-.66-1.76,2.64,2.64,0,0,0-2-.66,3.1,3.1,0,0,0-1.9.57,1.7,1.7,0,0,0-.76,1.38H90.42a2.94,2.94,0,0,1,.65-1.78,4.5,4.5,0,0,1,1.78-1.37,6.09,6.09,0,0,1,2.47-.5,4.9,4.9,0,0,1,3.35,1.07,3.86,3.86,0,0,1,1.25,2.94v5.68a6.87,6.87,0,0,0,.44,2.7v.19Zm-3.5-1.61a3.72,3.72,0,0,0,1.88-.51,3.07,3.07,0,0,0,1.29-1.34v-2.53H96.16c-2.59,0-3.88.75-3.88,2.27a1.92,1.92,0,0,0,.66,1.55A2.56,2.56,0,0,0,94.64,217.55Z"/><path class="cls-4" d="M105.22,206.81l.06,1.37a4.53,4.53,0,0,1,3.66-1.6,3.51,3.51,0,0,1,3.52,2,4.75,4.75,0,0,1,1.61-1.44,4.67,4.67,0,0,1,2.33-.55c2.71,0,4.09,1.44,4.13,4.3v8.28h-2.11V211a2.86,2.86,0,0,0-.6-2,2.66,2.66,0,0,0-2-.66,2.81,2.81,0,0,0-2,.71,2.87,2.87,0,0,0-.9,1.88v8.2h-2.12v-8.09q0-2.7-2.64-2.7a2.83,2.83,0,0,0-2.84,1.77v9h-2.11V206.81Z"/><path class="cls-4" d="M131.34,219.16a4.69,4.69,0,0,1-.3-1.3,4.7,4.7,0,0,1-3.51,1.53,4.36,4.36,0,0,1-3-1,3.34,3.34,0,0,1-1.17-2.62,3.48,3.48,0,0,1,1.47-3,6.92,6.92,0,0,1,4.12-1.07H131v-1a2.37,2.37,0,0,0-.66-1.76,2.66,2.66,0,0,0-1.95-.66,3.08,3.08,0,0,0-1.9.57,1.67,1.67,0,0,0-.76,1.38h-2.13a2.89,2.89,0,0,1,.66-1.78,4.5,4.5,0,0,1,1.78-1.37,6.06,6.06,0,0,1,2.47-.5,4.87,4.87,0,0,1,3.34,1.07,3.84,3.84,0,0,1,1.26,2.94v5.68a6.89,6.89,0,0,0,.43,2.7v.19Zm-3.5-1.61a3.72,3.72,0,0,0,1.88-.51A3.19,3.19,0,0,0,131,215.7v-2.53h-1.66c-2.58,0-3.88.75-3.88,2.27a1.9,1.9,0,0,0,.67,1.55A2.54,2.54,0,0,0,127.84,217.55Z"/><path class="cls-4" d="M144.05,217.94a4.51,4.51,0,0,1-3.62,1.45,3.85,3.85,0,0,1-3-1.15,5,5,0,0,1-1.05-3.4v-8h2.11v8c0,1.87.76,2.8,2.29,2.8a3.15,3.15,0,0,0,3.21-1.8v-9h2.12v12.35h-2Z"/><path class="cls-4" d="M151.61,219.16h-2.12V201.63h2.12Z"/><path class="cls-4" d="M155,203.54a1.24,1.24,0,0,1,.31-.87,1.38,1.38,0,0,1,1.86,0,1.2,1.2,0,0,1,.32.87,1.17,1.17,0,0,1-.32.85,1.24,1.24,0,0,1-2.17-.85Zm2.28,15.62h-2.11V206.81h2.11Z"/><path class="cls-4" d="M171.09,213.12a7.39,7.39,0,0,1-1.29,4.54,4.15,4.15,0,0,1-3.5,1.73,4.53,4.53,0,0,1-3.53-1.43v5.94h-2.11V206.81h1.92l.11,1.37a4.33,4.33,0,0,1,3.58-1.6,4.21,4.21,0,0,1,3.52,1.68,7.49,7.49,0,0,1,1.3,4.67Zm-2.12-.24a5.43,5.43,0,0,0-.89-3.3,2.87,2.87,0,0,0-2.44-1.21,3.1,3.1,0,0,0-2.87,1.7V216a3.09,3.09,0,0,0,2.89,1.69,2.86,2.86,0,0,0,2.42-1.2A6,6,0,0,0,169,212.88Z"/><path class="cls-4" d="M181.39,219.16a4.69,4.69,0,0,1-.3-1.3,4.7,4.7,0,0,1-3.51,1.53,4.36,4.36,0,0,1-3-1,3.34,3.34,0,0,1-1.17-2.62,3.48,3.48,0,0,1,1.47-3,6.92,6.92,0,0,1,4.12-1.07h2.06v-1a2.37,2.37,0,0,0-.66-1.76,2.64,2.64,0,0,0-2-.66,3.08,3.08,0,0,0-1.9.57,1.67,1.67,0,0,0-.76,1.38h-2.13a2.89,2.89,0,0,1,.66-1.78,4.5,4.5,0,0,1,1.78-1.37,6.06,6.06,0,0,1,2.47-.5,4.87,4.87,0,0,1,3.34,1.07,3.84,3.84,0,0,1,1.26,2.94v5.68a6.89,6.89,0,0,0,.43,2.7v.19Zm-3.5-1.61a3.72,3.72,0,0,0,1.88-.51,3.19,3.19,0,0,0,1.29-1.34v-2.53H179.4c-2.58,0-3.88.75-3.88,2.27a1.9,1.9,0,0,0,.67,1.55A2.54,2.54,0,0,0,177.89,217.55Z"/><path class="cls-4" d="M193.67,215.88a1.57,1.57,0,0,0-.65-1.33,6.38,6.38,0,0,0-2.24-.81,11.24,11.24,0,0,1-2.55-.82,3.53,3.53,0,0,1-1.39-1.15,2.71,2.71,0,0,1-.45-1.57,3.22,3.22,0,0,1,1.28-2.57,5,5,0,0,1,3.28-1,5.13,5.13,0,0,1,3.41,1.09,3.43,3.43,0,0,1,1.31,2.77h-2.13a1.91,1.91,0,0,0-.73-1.5,2.8,2.8,0,0,0-1.86-.62,2.83,2.83,0,0,0-1.8.5,1.58,1.58,0,0,0-.65,1.31,1.27,1.27,0,0,0,.6,1.15,7.64,7.64,0,0,0,2.19.75,11,11,0,0,1,2.56.84,3.77,3.77,0,0,1,1.46,1.18,2.94,2.94,0,0,1,.47,1.68,3.17,3.17,0,0,1-1.32,2.66,5.62,5.62,0,0,1-3.44,1,6.19,6.19,0,0,1-2.62-.53,4.28,4.28,0,0,1-1.79-1.47,3.49,3.49,0,0,1-.64-2h2.11a2.14,2.14,0,0,0,.85,1.68,3.25,3.25,0,0,0,2.09.62,3.41,3.41,0,0,0,1.92-.48A1.5,1.5,0,0,0,193.67,215.88Z"/><path id="TAMPS" class="cls-5" d="M164.65,180.23l-.61.27.13-.27.34-.35.14-.2.41-1,.2-.27.07.48-.27.75-.41.62Zm.75,9.83a5.48,5.48,0,0,1-1.16.75.76.76,0,0,1-.61.55c-.27-.55-1-.9-1.1-1.51.14-.11-1-1.76-1.91-1.64a4,4,0,0,0-1.57-.41,5,5,0,0,1-2.18-2.39c-.61-.38-1,.35-1.64.35-.21-.13-.56,1.9-2,1.16a4.23,4.23,0,0,0-1.16-.07c-.26-.06-1.44-.71-1.57-.48a26.9,26.9,0,0,0-3,.34,7.15,7.15,0,0,1-.88-.54c-.46,1.05-1.9.46-2.67,1-.52,1-1.26,1-2.25.75a6.75,6.75,0,0,1-2.46-.61c-.65-.29-1.52-.45-2.18-.69-1-.36-2.35-.12-3.15-.88a7.94,7.94,0,0,1-1.16-2.12,21.6,21.6,0,0,0-1.7-3.14c-.25.38-.6,1.08-1.1,1.16-.77-.44-1.12-1.48-1.84-2-.18-.15-.45-.36-.68-.21.08.73.87,2,.27,2.6-3.4-.94-6.69-2.6-10-3.89-.23-.16-.17-.59-.27-.82s-.35-.62-.48-.89c-.41-.51.33-.9.68-1.16a3.4,3.4,0,0,0,1.51-.68c1.41-1.53-.26-2.6-1.23-3.69-.35-.48-.24-1.16-.34-1.71-.68-.21-1.31.71-1.78,1.09.25-1.28.77-2.84.89-4.16-.25-.68-1.15-1-1.71-1.37,2.13-2.3,2.21-1,4.71-.47-.26-1.13-.8-2.7-1-3.83.59-1.1,1-2.37,1.64-3.48.64-2.26,2.43-1.15,4.09-1.71.7-.18,1.79.21,2.19-.54a24.66,24.66,0,0,1,2-2.67,3.36,3.36,0,0,0,.88.14,2.63,2.63,0,0,0-1.29-2.53,6.52,6.52,0,0,1-2.12-2.25,11.85,11.85,0,0,1,.75-5.94,23.26,23.26,0,0,0-.68-4l-2.25,1c-.54-1.8-1.1-2,.54-3.35.46-.44,2.45-1.1,2.6-.75.18,0,.85-.54,1.09-.55.57-.17.3-1,.48-1.43A3.65,3.65,0,0,1,131,131.2a1.91,1.91,0,0,0,1.64-1c.27-.32,2.32.9,3,1.1a2.06,2.06,0,0,0-.41-1.37c-.69-1.16.45-1.79.89-2.73-.27-.48-.85-.88-1-1.44a1.16,1.16,0,0,1,1-.13c-.07-.28-.33-.72-.07-1a1.78,1.78,0,0,0,.82.14c.18-.31,1.14-1.7,1.57-1.71.88,1.59,1.61,1.22,3.14.82,1.7-1.35,3.86-3.23,5.53-4.64.74-.63,2.61-2.22,3.35-2.8.73-.29.77-1.06.54-1.71-.64-.34-1.61.17-2.25-.2a6.78,6.78,0,0,1,0-2.73v-6.49c.09-2.78.53-3.23-2.46-3.83s-3.23-2.29-4.71,1.23c-.76-.6-1.49-1.51-2.18-2.18-.38-.62-2.25-.38-2.39-.41-.32,0-.48.38-.69.55-.73-.81-.54-5.49-1.29-5.6a7.51,7.51,0,0,1-3-2.53c-.43.08-.85.63-1.3.75A2.45,2.45,0,0,1,130.1,91a10.61,10.61,0,0,0,.61-1.16,2.42,2.42,0,0,0-1.91-3.41c-.53-.17-1.13-.55-1.64-.76-.65,0-1.39.11-2,.07a7.05,7.05,0,0,0,1-1.84c0-.71.62-1.32,1-1.84-.3,0-2.77-1.55-3-1.51-1.2-.87-.5-2.74-.14-3.89.19-.76.92-1.89.55-2.66a1.73,1.73,0,0,1-.75-1.3c-.16-1.12-.35-2.76-.48-3.89-.31-2.86-1.18-2.43-3.55-2.87a2.62,2.62,0,0,1-.14-1.71,25.87,25.87,0,0,1,4.31-2.39c.06.06.9,1.45,2.11.62.39-.23,2.09,1.06,2.26,1.71,0,0-.17,1.78.06,1.91.25,0,.59,0,.62.34a9.11,9.11,0,0,1-1,4.1,9.64,9.64,0,0,1,1.71,1.64c.51.93-.21,2-.27,2.93a.88.88,0,0,1,.27.62c.07.3-.51.93-.55,1.22,0,.81.9.86,1.44,1.17a2.06,2.06,0,0,1-.34.81c.12.31.81.63,1.09.76a4.29,4.29,0,0,1,.48,1.91c0,.39-1.57,1.06-1.51,1.43,0,0,1.79.43,1.85-.07a1.75,1.75,0,0,1,.82-1.09c.28.15.87,4.16,1,4.92-.24-.09-.5-.36-.75-.41-.4.41,1.62,2.15,2.25,2.18a16.28,16.28,0,0,1,1.78,2.32c-.3.65-.72,1,.07,1.51a23,23,0,0,0,3.34.34,6.5,6.5,0,0,0,1.91.68,5,5,0,0,1,.89-.2,10,10,0,0,0,3.42,3.14c.55-.2,3.35.2,3.62.82l.34-.41c.61.12,1.27.7,1.91.75a1.54,1.54,0,0,0-.21.75,3.21,3.21,0,0,0,.82.07,6.48,6.48,0,0,1,.62.95c.82.69,4.63,1,4.91,1.16,0,0,1.27.13,1.78.21,1.43.32,3.3-.28,4.71.14v.34c1.35.26,3.23-.15,3.82,1.5.07.3,2.3,2.31,3.35,2.12.27.39,1.4.8,1.43,1,.18.31.61-1,.55-1.43a4.26,4.26,0,0,1,.62-.48.82.82,0,0,0,1.29-.68c.72-.11,2,0,2.73-.14l-.61,3.28s0,2.18.07,2.52c-.51,1.14-1.52,4.14-2.05,5.33a64.48,64.48,0,0,1-4.23,7.65l-2.12,7.92c-1.75,5.13-3,14.42-3.48,19.8l-.14,4.78-.2.41c-.23.31-1.63-.05-1.92,0v.14c2.16-.37,1.34,1.81,1.37,3.07H166c.25-.76.06-2.13.41-2.87.51.43-.19,5-.21,5.6a49.68,49.68,0,0,0-.55,6.49c.18,2,.74,7.73.35,9.62V174.9c-.34,0-.8,2.49-.89,2.73s-1.79,3.51-2,4.23c-.12.37-.15,1,.41.89,1-.25-.15-1.62.75-1.91.39.78-.16,2.36-.34,3.14.12.5,1.38,5.73,1.5,6.08Zm5.8-73.47c-1.43,1.43.63,2.42-.81,2.66-.21-.81-.52-.86-1.3-.68-1.48-.1,1.1-1.55-1.16-1.3-1-.56-.34.72-.55,1.23-.56.18-1.61,1.77-2.25,1.36,1.42.91,1.72,3.39,1.7,5.47-.23.84-1.29,1.38.07,1,.08.9,1.76.54,1.91,1.5s-2.66.77-2.32,2c0,.44.88,3.73,1.23,3.28.11,1.59-.82,3.73-1.09,5.26-.65-.06-.81-1.91-1.23-2a22.53,22.53,0,0,1-1.16,2.18c.06,3,2.5-.71,2.66.75-.61,1.32-.29,9.42-1.36,7.86-.37.08-.2,1.17.13,1.36.21-.74.18,0,.35.21-.52,1.77.1,3.49.13,5.39.35-.18.69-10.11.82-10.38a138.41,138.41,0,0,1,4.24-20.62c0-2.14,2.22-2.42,1.84-5.26,0-.3.13-.64-.14-.88-.25-.57,1.15-.37.41-1.1-.88.18-2.61-2-2.66-.27C170.85,116.13,171.68,116,171.2,116.59Z"/><path class="cls-1" d="M94.07,42.29a3.19,3.19,0,0,0,.53-1.36A1.53,1.53,0,0,0,94,39.62c-.42-.31-.74-.36-1.12.11l.29.08,0,.12a11.22,11.22,0,0,1-1.65-.34,3.48,3.48,0,0,0-2.58.07,8,8,0,0,1-2.47.61,5.56,5.56,0,0,0-2.64.84,1.41,1.41,0,0,0-.5.63A7.05,7.05,0,0,0,83,44.59a.88.88,0,0,1-.2.58,1.09,1.09,0,0,0-.5,1c0,.7-.43,1-.89,1.37s-.69.41-1,.64a4.27,4.27,0,0,0-.47.48h0l-1,.48h0a3.35,3.35,0,0,0-3,.34,1.34,1.34,0,0,1-.5.22c-.88.24-1.85-.18-2.71.52a3.91,3.91,0,0,1-1.73.43.65.65,0,0,1-.53-.16,3.25,3.25,0,0,0-1.32-1.22,3.61,3.61,0,0,0-1.47-.42,9,9,0,0,1-1-.11c-.28-.42-.51-.79-.76-1.15-.34-.51-.85-.94-.93-1.61A3.42,3.42,0,0,0,63.75,44a7.79,7.79,0,0,1-1.91-3.09,1,1,0,0,1,0-.63.74.74,0,0,0-.2-1,2.81,2.81,0,0,1-1.07-1.9c0-.32-.17-.63-.2-1a2.39,2.39,0,0,1,.05-.7c.06-.45.16-.9.22-1.35,0-.23,0-.47,0-.7.08-1.05.14-2.11.28-3.16A10.11,10.11,0,0,1,62,26.73a7.55,7.55,0,0,0,.5-1.59,1.27,1.27,0,0,0,0-.43,1.36,1.36,0,0,0-.51.11.46.46,0,0,1-.67-.05,1.67,1.67,0,0,0-1.24-.42,4.23,4.23,0,0,1-1.12-.25c-.64-.26-1.25-.61-1.9-.86a1,1,0,0,1-.65-.52c-.27-.58-.59-1.15-.88-1.73a1.36,1.36,0,0,1,0-.36c-.05-.42-.08-.85-.17-1.26A1.18,1.18,0,0,0,55,18.9c-.3-.32-.62-.62-.91-.94s-.6-.7-.89-1.06a1.4,1.4,0,0,1-.28-.36c-.25-.53-.46-1.09-.73-1.61a4.42,4.42,0,0,0-1.45-2.16c-.31-.2-.5-.6-.81-.79s-.45-.69-1-.7A20.29,20.29,0,0,1,46.7,11a.67.67,0,0,0-.31,0,4.68,4.68,0,0,0-.64.3,1.59,1.59,0,0,0-.57.48,6,6,0,0,0-.47,1.21,1.06,1.06,0,0,1-1.82.66c-.4-.28-.88-.45-1.31-.69a7.71,7.71,0,0,1-.77-.49,4.71,4.71,0,0,0-.45-.33,2.06,2.06,0,0,1-1.1-1.78,4.26,4.26,0,0,0-.93-2.12c-.28-.37-.82-.54-1.19-.86s-.93-.91-1.41-1.35c-.25-.23-.53-.43-.78-.65a2.62,2.62,0,0,1-.66-.67,1,1,0,0,0-1-.64c-1.34,0-2.68,0-4,0-1.15,0-1-.1-1,1,0,.47-.13.63-.61.62-2.54,0-5.08,0-7.62,0a2.57,2.57,0,0,1-.83-.12L8.77,1.84C8,1.57,8,1.56,8.18.78a4.09,4.09,0,0,0-.5,0l-6.47.58c-.52,0-.59.19-.36.67a2.8,2.8,0,0,0,.3.46L1.44,3a3,3,0,0,0,.34.57c.28.31.51.6.35,1.06-.1.31.06.54.29.78.4.41.87.82.75,1.52,0,.09.1.24.19.32.46.4.89.78.69,1.5,0,.15.13.52.22.53.46,0,.51.33.49.65a2.44,2.44,0,0,0,.52,1.65,7.29,7.29,0,0,0,1.65,1.16,4.11,4.11,0,0,1,.73.46c.82.86,1.61,1.74,2.39,2.63a.49.49,0,0,1,.09.39c-.14.53,0,1.14-.54,1.55-.06.06,0,.2-.08.31s-.22,0-.29.07a1.18,1.18,0,0,1-1.12.12,1.71,1.71,0,0,0-.5-.1,2.64,2.64,0,0,0-.46.13,2.59,2.59,0,0,0,.3.48c.51.5,1.33.7,1.47,1.56a.28.28,0,0,0,.16.16,7.17,7.17,0,0,0,1.36.73,1.36,1.36,0,0,1,.78.58c.19.27.4.56.82.19s1,.05,1.2.38a3,3,0,0,0,.43.52c.59.71,1.61.82,2.15,1.64a3.36,3.36,0,0,1,.33,2.66c-.22.49-.36,1-.56,1.61a5.24,5.24,0,0,0,.71.1c.39,0,.69.12.74.58l-.39.23.81.64.12-.1-.18-.57a.85.85,0,0,1,.27.13c1,.9,2.33,1.51,3.18,2.64a.89.89,0,0,0,.35.21,1.75,1.75,0,0,1,1,1.35,5.7,5.7,0,0,0,.22.81c.21.49.53.55.95.23.24-.19.5-.36.76-.53a1.15,1.15,0,0,0,0-1.86,1.14,1.14,0,0,1-.37-.49,6.73,6.73,0,0,0-.43-.94,3.48,3.48,0,0,0-.73-.57l-.8-.64-.12.07.1.79h0l-.45-.21a1.37,1.37,0,0,1-.66-1.56A1,1,0,0,0,20.46,28,5.64,5.64,0,0,1,19.9,27a3.45,3.45,0,0,0-.39-.82,2.24,2.24,0,0,1-.78-1.7.92.92,0,0,0-.07-.4c-.19-.53-.39-1.05-.59-1.57s-.47-1-1.14-1c-.09,0-.26-.25-.24-.35.06-.34-.09-.48-.37-.6-.12,0-.17-.23-.27-.35-.34-.41-.31-1.11-1-1.31a1.17,1.17,0,0,1-.81-1.09c-.08-.52-.18-1-.31-1.55,0-.13-.25-.22-.37-.33s-.4-.24-.43-.39c-.12-.75-.73-1-1.25-1.32a3.79,3.79,0,0,0-1-1.77c-.62-.6-1.46-.93-2-1.67a2.3,2.3,0,0,1-.48-1.27c0-.69-.13-1.38-.2-2.07a.45.45,0,0,0-.12-.25C7.5,6.48,7.81,5.65,8,4.87c.1-.49.46-.54.87-.24a3.27,3.27,0,0,0,.78.51,1.92,1.92,0,0,0,.83.06c.14,0,.3-.22.42-.19s.45.17.49.32c.18.68.72.73,1.28.88s.71.33.52.89a1.8,1.8,0,0,0,.43,1.77,2.27,2.27,0,0,1,.55,1.19c0,.85.58,1.37.91,2,.1.2.12.43.21.63a1,1,0,0,0,.27.35.91.91,0,0,0,.3.13l.08.13c-1.19-.14-.84.79-1.14,1.37.29.12.58.34.79.28s.37-.38.61-.65c.18.24.36.5.55.74s.53.88.91,1.09a2.87,2.87,0,0,1,1,1,3.31,3.31,0,0,0,.77.72,2.35,2.35,0,0,0,.65.27c.18-.07.42-.14.55-.05a.82.82,0,0,1,.21.51c0,.21-.06.46,0,.64s.39.58.54.89a.94.94,0,0,0,.86.63c.63,0,.75.35.84.85a.7.7,0,0,0,.91.64.78.78,0,0,1,.9.55,1.63,1.63,0,0,1,0,.95,2.17,2.17,0,0,1-.32.57,1.08,1.08,0,0,0,.21,1.21,4.61,4.61,0,0,1,.6.47,1.44,1.44,0,0,0,1.31.66.57.57,0,0,1,.21.1l.75.46,1,.56-.07.12L28,27.64a3.36,3.36,0,0,0,2.46,2.3c-.37.38,0,.52.2.71s.42.31.62.49a10.65,10.65,0,0,1,1,.93c.34.39.64.83,1,1.25.09.12.19.23.29.35a17,17,0,0,0,1.52,1.75,3.09,3.09,0,0,1,1.06,2.2,3,3,0,0,0,.25,1c.25.54.49,1.12,1.11,1.28a4.52,4.52,0,0,0,0,.68,1,1,0,0,1-.34,1,5.46,5.46,0,0,0-.57.78,3,3,0,0,1,.47.12c.13.08.24.19.36.28-.1.1-.18.24-.3.3a4.71,4.71,0,0,1-.54.12c-.48.12-.57.37-.28.77a2.67,2.67,0,0,1,.22.41,6.86,6.86,0,0,0,.45.95,14.44,14.44,0,0,0,1,1.3,2.51,2.51,0,0,0,.67.67,17.49,17.49,0,0,1,2.86,1.46A12.72,12.72,0,0,1,42.68,50a2,2,0,0,0,.62.5,17.32,17.32,0,0,0,1.71.6c.58.18,1.17.34,1.75.5a.36.36,0,0,0,.27,0c.49-.29.79,0,1.1.31a10.27,10.27,0,0,0,.77.71c.48.37,1,.71,1.47,1a2.14,2.14,0,0,0,.45.24c.57.21,1.15.38,1.71.61s1.09.52,1.65.76a7.35,7.35,0,0,0,1,.38c1,.29,2.08.22,2.84,1.09a1.45,1.45,0,0,0,.45.22c.57.25,1.13.51,1.7.74a5.36,5.36,0,0,0,.78.23,6,6,0,0,1,1.83.47,3.12,3.12,0,0,0,2.54.41,13.5,13.5,0,0,0,1.82-.72c.37-.17.71-.4,1.08-.58a6.49,6.49,0,0,1,.74-.26l.58-.18-.4-.28.26-.2.79.25-.22.23,1.9.63c1.64.53,2.69,1.85,3.91,2.94.65.57,1.24,1.19,1.86,1.79l.09,0c.08-.69.57-1.33.2-2.07a.74.74,0,0,1,0-.56c.3-.57.66-1.1,1-1.67a.78.78,0,0,1,.81-.48c1,0,2,0,3,0,.16,0,.41-.11.45-.23a5.15,5.15,0,0,0,.12-1s0,0-.07,0c-.42-.13-.6-.48-.8-.84a.82.82,0,0,0-.4-.36,4.22,4.22,0,0,1-1.53-1.35c1.06-.07,1.06-.07,1.06-1.13a.33.33,0,0,0,0-.1c-.07-.48.15-.61.62-.61,1.49,0,3,0,4.49,0,.22,0,.47.06.53-.29s.29-.3.5-.15.43.12.57-.11c.24-.39.45-.8.67-1.19-.11.14-.25.28-.35.43.1-.15.24-.29.35-.43h0l0,0h0c.14-.14.29-.41.43-.4.47,0,.66-.25.83-.6a4.94,4.94,0,0,1,.3-.49l.12,0a2.88,2.88,0,0,1-.1.51c-.12.27-.1.47.18.62a2.69,2.69,0,0,1,.33.26l.06.06h0c.13.4.24.1.28,0,.16-.43.29-.88.43-1.32.18-.62.36-1.24.55-1.91H91.8c.35-.24.82-.23.74-.74l-.78-.14a3.78,3.78,0,0,0,.66-1.17,3.3,3.3,0,0,1,1.08-2A2.72,2.72,0,0,0,94.07,42.29Z"/><path class="cls-1" d="M93.71,43.65a.29.29,0,0,0,.12.23.25.25,0,0,0,.24-.06c.21-.27.4-.56.64-.9C94,42.82,93.65,43.12,93.71,43.65Z"/><path id="MEX2716" class="cls-6" d="M60.48,35.8l-.09,0,0,0,.05,0,0,0,.06-.15,0,0v.07l0,.11-.06.09Zm.11,1.41-.26.19a.75.75,0,0,0-.14-.17l.05-.13c-.26-.26-.57-.11-.83-.4l0-.16a.68.68,0,0,1-.34,0c0,.06-.06.23-.06.23a.24.24,0,0,1-.12,0s-.08,0-.09-.06a.22.22,0,0,0-.08,0s-.14,0-.15,0l-.05,0-.46.06-.13-.08s-.37.08-.48.27c-.44,0-.84-.24-1.28-.28-.23-.2-.28-.56-.47-.8,0,0-.08.15-.16.16s-.18-.27-.33-.32v.38a9.53,9.53,0,0,1-1.45-.58,1,1,0,0,0-.1-.3c.12-.14.4-.12.4-.35s-.35-.32-.3-.61a1.21,1.21,0,0,0-.25.16c0-.19.11-.41.12-.6s-.16-.14-.24-.2.16-.17.25-.19a3.38,3.38,0,0,1,.42.13c0-.17-.11-.39-.13-.55a3.93,3.93,0,0,1,.34-.68A5.55,5.55,0,0,1,55,32.2c.06-.05.27-.4.34-.44l.13,0a.43.43,0,0,0-.25-.4c-.37-.24-.28-.71-.16-1.07a1.75,1.75,0,0,0-.07-.64l-.33.14a1,1,0,0,1-.08-.33,1,1,0,0,1,.46-.31l.12,0,.15-.1c0-.05,0-.12,0-.18a2,2,0,0,1,.23-.18.37.37,0,0,0,.38-.15,1.31,1.31,0,0,0,.4.17c0-.1-.07-.18-.09-.27s.11-.21.16-.32-.13-.12-.14-.2a.14.14,0,0,1,.14,0,.82.82,0,0,1,0-.14.14.14,0,0,0,.11,0l.11-.11.08-.12.14.12c.24.12.48-.11.64-.26.34-.29.75-.62,1.08-.91a.78.78,0,0,0,0-.16c-.09-.05-.23,0-.32,0a17.56,17.56,0,0,0,0-1.78c-.26-.05-.56-.19-.81-.22a1.2,1.2,0,0,0-.18.31c-.17-.13-.28-.34-.46-.45l-.29.15c-.16-.21,0-.56-.15-.79-.27,0-.29-.07-.47-.37-.06,0-.13.09-.19.1-.25-.22,0-.45,0-.7s-.24-.27-.4-.34-.28-.05-.43-.05c.21-.17.08-.35.28-.53a1,1,0,0,1-.21-.17,1.15,1.15,0,0,1-.32-.17,3.45,3.45,0,0,1,.18-.77c-.27-.3-.09-.81-.31-1.14l-.4-.07a.39.39,0,0,1,0-.24,3.74,3.74,0,0,1,.62-.34l.14,0a.6.6,0,0,0,.2,0c.09,0,.46.52.38.55,0,.52.12.76.13,1.05a2.17,2.17,0,0,0,.41,1.24l0,0a.13.13,0,0,1,.08.11h0c0,.25.17.54.27.76a1.24,1.24,0,0,0,.8.68,8.43,8.43,0,0,0,3.1,1.07,3.29,3.29,0,0,1,.69.16c.23.05.37.32.58.43a.53.53,0,0,0,.52-.11,1.61,1.61,0,0,1,.53-.1c.18.95-.48,2-.88,2.8-.91,2.43-1,7.58-1,7.54a4.66,4.66,0,0,0-.27.86h0a6.63,6.63,0,0,0,.17,1.32Z"/></g></svg>